solid Крепление стола-Часть
facet normal 0.0 -1.0 0.0
  outer loop
    vertex -30.0766367566465 -35.01332009332591 8.750000000000036
    vertex -145.0766367566465 -35.01332009332591 -7.307395501042039e-15
    vertex -30.0766367566465 -35.01332009332591 -5.888789911502717e-14
  endloop
endfacet
facet normal 0.0 -1.0 0.0
  outer loop
    vertex -145.0766367566465 -35.01332009332591 -7.307395501042039e-15
    vertex -30.0766367566465 -35.01332009332591 8.750000000000036
    vertex -145.0766367566465 -35.01332009332591 8.750000000000089
  endloop
endfacet
facet normal -1.0 0.0 2.970209119939501e-16
  outer loop
    vertex -145.0766367566465 -25.013320093325934 8.750000000000089
    vertex -145.0766367566465 -35.01332009332591 -7.307395501042039e-15
    vertex -145.0766367566465 -35.01332009332591 8.750000000000089
  endloop
endfacet
facet normal -1.0 0.0 2.970209119939501e-16
  outer loop
    vertex -145.0766367566465 -35.01332009332591 -7.307395501042039e-15
    vertex -145.0766367566465 -25.013320093325934 8.750000000000089
    vertex -145.0766367566465 -25.01332009332592 -7.307395501042039e-15
  endloop
endfacet
facet normal -1.0 -1.4479896805632672e-30 -2.094832244178433e-15
  outer loop
    vertex -10.076636756646538 -55.01332009332587 8.749999999999941
    vertex -10.076636756646518 -160.01332009332592 -7.307395501042039e-15
    vertex -10.076636756646538 -160.01332009332592 8.750000000000014
  endloop
endfacet
facet normal -1.0 -1.4479896805632672e-30 -2.094832244178433e-15
  outer loop
    vertex -10.076636756646518 -160.01332009332592 -7.307395501042039e-15
    vertex -10.076636756646538 -55.01332009332587 8.749999999999941
    vertex -10.076636756646518 -55.01332009332587 -7.969311899978506e-14
  endloop
endfacet
facet normal 1.0 -6.274889917456824e-17 1.2689849171465507e-15
  outer loop
    vertex -0.07663675664651541 -41.517878791319184 -6.898894537831355e-15
    vertex -0.07663675664653394 -160.01332009332592 8.750000000000014
    vertex -0.07663675664651554 -160.01332009332592 -7.307395501042039e-15
  endloop
endfacet
facet normal 1.0 -6.274889917456824e-17 1.2689849171465507e-15
  outer loop
    vertex -0.07663675664653394 -160.01332009332592 8.750000000000014
    vertex -0.07663675664651541 -41.517878791319184 -6.898894537831355e-15
    vertex -0.0766367566465192 -41.517878791319184 8.750000000000014
  endloop
endfacet
facet normal 0.0 -1.0 4.889710879492247e-16
  outer loop
    vertex -0.07663675664653394 -160.01332009332592 8.750000000000014
    vertex -10.076636756646518 -160.01332009332592 -7.307395501042039e-15
    vertex -0.07663675664651554 -160.01332009332592 -7.307395501042039e-15
  endloop
endfacet
facet normal 0.0 -1.0 4.889710879492247e-16
  outer loop
    vertex -10.076636756646518 -160.01332009332592 -7.307395501042039e-15
    vertex -0.07663675664653394 -160.01332009332592 8.750000000000014
    vertex -10.076636756646538 -160.01332009332592 8.750000000000014
  endloop
endfacet
facet normal -1.226072383716427e-17 1.0 1.4502684767389102e-15
  outer loop
    vertex -145.0766367566465 -25.013320093325934 8.750000000000089
    vertex -30.0766367566465 -25.01332009332592 -7.307395501042039e-15
    vertex -145.0766367566465 -25.01332009332592 -7.307395501042039e-15
  endloop
endfacet
facet normal -1.226072383716427e-17 1.0 1.4502684767389102e-15
  outer loop
    vertex -30.0766367566465 -25.01332009332592 -7.307395501042039e-15
    vertex -145.0766367566465 -25.013320093325934 8.750000000000089
    vertex -30.0766367566465 -25.01332009332593 8.750000000000009
  endloop
endfacet
facet normal 0.3826834323650886 -0.9238795325112872 6.112774206393047e-16
  outer loop
    vertex -16.241322459607858 -24.166653875025112 2.1098938920045314e-14
    vertex -17.326636756646533 -24.61620577629594 1.750000000000049
    vertex -17.32663675664651 -24.616205776295942 1.8481228191210525e-14
  endloop
endfacet
facet normal 0.3826834323650886 -0.9238795325112872 6.112774206393047e-16
  outer loop
    vertex -17.326636756646533 -24.61620577629594 1.750000000000049
    vertex -16.241322459607858 -24.166653875025112 2.1098938920045314e-14
    vertex -16.241322459607876 -24.16665387502511 1.750000000000049
  endloop
endfacet
facet normal 0.13052619222005202 -0.9914448613738105 1.3711791919242191e-17
  outer loop
    vertex -15.076636756646515 -24.01332009332592 2.3813308538563594e-14
    vertex -16.241322459607876 -24.16665387502511 1.750000000000049
    vertex -16.241322459607858 -24.166653875025112 2.1098938920045314e-14
  endloop
endfacet
facet normal 0.13052619222005202 -0.9914448613738105 1.3711791919242191e-17
  outer loop
    vertex -16.241322459607876 -24.16665387502511 1.750000000000049
    vertex -15.076636756646515 -24.01332009332592 2.3813308538563594e-14
    vertex -15.076636756646534 -24.013320093325916 1.750000000000049
  endloop
endfacet
facet normal -0.13052619222005135 -0.9914448613738104 -5.847882727603131e-16
  outer loop
    vertex -13.911951053685168 -24.166653875025112 2.6439357242971252e-14
    vertex -15.076636756646534 -24.013320093325916 1.750000000000049
    vertex -15.076636756646515 -24.01332009332592 2.3813308538563594e-14
  endloop
endfacet
facet normal -0.13052619222005135 -0.9914448613738104 -5.847882727603131e-16
  outer loop
    vertex -15.076636756646534 -24.013320093325916 1.750000000000049
    vertex -13.911951053685168 -24.166653875025112 2.6439357242971252e-14
    vertex -13.911951053685188 -24.16665387502511 1.750000000000049
  endloop
endfacet
facet normal -0.3826834323650908 -0.9238795325112865 -1.1434359830595692e-15
  outer loop
    vertex -12.826636756646515 -24.616205776295946 2.879812415381356e-14
    vertex -13.911951053685188 -24.16665387502511 1.750000000000049
    vertex -13.911951053685168 -24.166653875025112 2.6439357242971252e-14
  endloop
endfacet
facet normal -0.3826834323650908 -0.9238795325112865 -1.1434359830595692e-15
  outer loop
    vertex -13.911951053685188 -24.16665387502511 1.750000000000049
    vertex -12.826636756646515 -24.616205776295946 2.879812415381356e-14
    vertex -12.826636756646534 -24.616205776295942 1.750000000000049
  endloop
endfacet
facet normal -0.6087614290087219 -0.7933533402912343 -1.6241604207306202e-15
  outer loop
    vertex -11.89465624130705 -25.33133957798646 3.0728863204163243e-14
    vertex -12.826636756646534 -24.616205776295942 1.750000000000049
    vertex -12.826636756646515 -24.616205776295946 2.879812415381356e-14
  endloop
endfacet
facet normal -0.6087614290087219 -0.7933533402912343 -1.6241604207306202e-15
  outer loop
    vertex -12.826636756646534 -24.616205776295942 1.750000000000049
    vertex -11.89465624130705 -25.33133957798646 3.0728863204163243e-14
    vertex -11.894656241307072 -25.331339577986455 1.750000000000049
  endloop
endfacet
facet normal -0.7933533402912343 -0.608761429008722 -1.994201009780876e-15
  outer loop
    vertex -11.894656241307072 -25.331339577986455 1.750000000000049
    vertex -11.179522439616541 -26.263320093325916 3.209999771843612e-14
    vertex -11.179522439616564 -26.263320093325916 1.750000000000049
  endloop
endfacet
facet normal -0.7933533402912343 -0.608761429008722 -1.994201009780876e-15
  outer loop
    vertex -11.179522439616541 -26.263320093325916 3.209999771843612e-14
    vertex -11.894656241307072 -25.331339577986455 1.750000000000049
    vertex -11.89465624130705 -25.33133957798646 3.0728863204163243e-14
  endloop
endfacet
facet normal -0.9238795325112874 -0.38268343236508795 -2.228340095587561e-15
  outer loop
    vertex -11.179522439616564 -26.263320093325916 1.750000000000049
    vertex -10.72997053834571 -27.348634390364577 3.2818087145391416e-14
    vertex -10.72997053834573 -27.348634390364577 1.750000000000049
  endloop
endfacet
facet normal -0.9238795325112874 -0.38268343236508795 -2.228340095587561e-15
  outer loop
    vertex -10.72997053834571 -27.348634390364577 3.2818087145391416e-14
    vertex -11.179522439616564 -26.263320093325916 1.750000000000049
    vertex -11.179522439616541 -26.263320093325916 3.209999771843612e-14
  endloop
endfacet
facet normal -0.9914448613738105 -0.13052619222005202 -2.310621486386073e-15
  outer loop
    vertex -10.72997053834573 -27.348634390364577 1.750000000000049
    vertex -10.576636756646515 -28.51332009332592 3.2834194877281004e-14
    vertex -10.576636756646538 -28.51332009332592 1.750000000000049
  endloop
endfacet
facet normal -0.9914448613738105 -0.13052619222005202 -2.310621486386073e-15
  outer loop
    vertex -10.576636756646515 -28.51332009332592 3.2834194877281004e-14
    vertex -10.72997053834573 -27.348634390364577 1.750000000000049
    vertex -10.72997053834571 -27.348634390364577 3.2818087145391416e-14
  endloop
endfacet
facet normal -0.9914448613738104 0.13052619222005135 -2.2354378413699247e-15
  outer loop
    vertex -10.576636756646538 -28.51332009332592 1.750000000000049
    vertex -10.72997053834571 -29.678005796287266 3.2147223198795904e-14
    vertex -10.72997053834573 -29.678005796287266 1.750000000000049
  endloop
endfacet
facet normal -0.9914448613738104 0.13052619222005135 -2.2354378413699247e-15
  outer loop
    vertex -10.72997053834571 -29.678005796287266 3.2147223198795904e-14
    vertex -10.576636756646538 -28.51332009332592 1.750000000000049
    vertex -10.576636756646515 -28.51332009332592 3.2834194877281004e-14
  endloop
endfacet
facet normal -0.9238795325112865 0.3826834323650908 -2.007912801700118e-15
  outer loop
    vertex -10.72997053834573 -29.678005796287266 1.750000000000049
    vertex -11.179522439616543 -30.76332009332592 3.080398809455049e-14
    vertex -11.179522439616564 -30.76332009332592 1.750000000000049
  endloop
endfacet
facet normal -0.9238795325112865 0.3826834323650908 -2.007912801700118e-15
  outer loop
    vertex -11.179522439616543 -30.76332009332592 3.080398809455049e-14
    vertex -10.72997053834573 -29.678005796287266 1.750000000000049
    vertex -10.72997053834571 -29.678005796287266 3.2147223198795904e-14
  endloop
endfacet
facet normal -0.7933533402912354 0.6087614290087203 -1.6435518228272468e-15
  outer loop
    vertex -11.179522439616564 -30.76332009332592 1.750000000000049
    vertex -11.894656241307052 -31.695300608665384 2.8896028817098135e-14
    vertex -11.894656241307075 -31.695300608665384 1.750000000000049
  endloop
endfacet
facet normal -0.7933533402912354 0.6087614290087203 -1.6435518228272468e-15
  outer loop
    vertex -11.894656241307052 -31.695300608665384 2.8896028817098135e-14
    vertex -11.179522439616564 -30.76332009332592 1.750000000000049
    vertex -11.179522439616543 -30.76332009332592 3.080398809455049e-14
  endloop
endfacet
facet normal -0.6087614290087189 0.7933533402912365 -1.1671855033265008e-15
  outer loop
    vertex -12.826636756646536 -32.41043441035589 1.750000000000049
    vertex -11.894656241307052 -31.695300608665384 2.8896028817098135e-14
    vertex -12.826636756646517 -32.41043441035589 2.6553369638145414e-14
  endloop
endfacet
facet normal -0.6087614290087189 0.7933533402912365 -1.1671855033265008e-15
  outer loop
    vertex -11.894656241307052 -31.695300608665384 2.8896028817098135e-14
    vertex -12.826636756646536 -32.41043441035589 1.750000000000049
    vertex -11.894656241307075 -31.695300608665384 1.750000000000049
  endloop
endfacet
facet normal -0.3826834323650908 0.9238795325112865 -6.112774206393097e-16
  outer loop
    vertex -13.911951053685192 -32.85998631162673 1.750000000000049
    vertex -12.826636756646517 -32.41043441035589 2.6553369638145414e-14
    vertex -13.911951053685172 -32.85998631162673 2.393565890931062e-14
  endloop
endfacet
facet normal -0.3826834323650908 0.9238795325112865 -6.112774206393097e-16
  outer loop
    vertex -12.826636756646517 -32.41043441035589 2.6553369638145414e-14
    vertex -13.911951053685192 -32.85998631162673 1.750000000000049
    vertex -12.826636756646536 -32.41043441035589 1.750000000000049
  endloop
endfacet
facet normal -0.13052619222004933 0.9914448613738108 -1.3711791919235967e-17
  outer loop
    vertex -15.076636756646534 -33.013320093325916 1.750000000000049
    vertex -13.911951053685172 -32.85998631162673 2.393565890931062e-14
    vertex -15.076636756646515 -33.013320093325916 2.1221289290792335e-14
  endloop
endfacet
facet normal -0.13052619222004933 0.9914448613738108 -1.3711791919235967e-17
  outer loop
    vertex -13.911951053685172 -32.85998631162673 2.393565890931062e-14
    vertex -15.076636756646534 -33.013320093325916 1.750000000000049
    vertex -13.911951053685192 -32.85998631162673 1.750000000000049
  endloop
endfacet
facet normal 0.13052619222004933 0.9914448613738108 5.847882727603085e-16
  outer loop
    vertex -16.24132245960788 -32.85998631162673 1.750000000000049
    vertex -15.076636756646515 -33.013320093325916 2.1221289290792335e-14
    vertex -16.24132245960786 -32.85998631162673 1.859524058638468e-14
  endloop
endfacet
facet normal 0.13052619222004933 0.9914448613738108 5.847882727603085e-16
  outer loop
    vertex -15.076636756646515 -33.013320093325916 2.1221289290792335e-14
    vertex -16.24132245960788 -32.85998631162673 1.750000000000049
    vertex -15.076636756646534 -33.013320093325916 1.750000000000049
  endloop
endfacet
facet normal 0.38268343236508984 0.9238795325112867 1.1434359830595673e-15
  outer loop
    vertex -17.326636756646536 -32.41043441035589 1.750000000000049
    vertex -16.24132245960786 -32.85998631162673 1.859524058638468e-14
    vertex -17.32663675664652 -32.41043441035589 1.623647367554237e-14
  endloop
endfacet
facet normal 0.38268343236508984 0.9238795325112867 1.1434359830595673e-15
  outer loop
    vertex -16.24132245960786 -32.85998631162673 1.859524058638468e-14
    vertex -17.326636756646536 -32.41043441035589 1.750000000000049
    vertex -16.24132245960788 -32.85998631162673 1.750000000000049
  endloop
endfacet
facet normal 0.60876142900872 0.7933533402912357 1.624160420730616e-15
  outer loop
    vertex -18.258617271985997 -31.695300608665384 1.750000000000049
    vertex -17.32663675664652 -32.41043441035589 1.623647367554237e-14
    vertex -18.25861727198598 -31.695300608665384 1.4305734625192685e-14
  endloop
endfacet
facet normal 0.60876142900872 0.7933533402912357 1.624160420730616e-15
  outer loop
    vertex -17.32663675664652 -32.41043441035589 1.623647367554237e-14
    vertex -18.258617271985997 -31.695300608665384 1.750000000000049
    vertex -17.326636756646536 -32.41043441035589 1.750000000000049
  endloop
endfacet
facet normal 0.7933533402912354 0.6087614290087203 1.9942010097808783e-15
  outer loop
    vertex -18.97375107367649 -30.76332009332592 1.2934600110919807e-14
    vertex -18.258617271985997 -31.695300608665384 1.750000000000049
    vertex -18.25861727198598 -31.695300608665384 1.4305734625192685e-14
  endloop
endfacet
facet normal 0.7933533402912354 0.6087614290087203 1.9942010097808783e-15
  outer loop
    vertex -18.258617271985997 -31.695300608665384 1.750000000000049
    vertex -18.97375107367649 -30.76332009332592 1.2934600110919807e-14
    vertex -18.97375107367651 -30.76332009332592 1.750000000000049
  endloop
endfacet
facet normal 0.9238795325112872 0.382683432365089 2.2283400955875604e-15
  outer loop
    vertex -19.423302974947322 -29.67800579628726 1.2216510683964516e-14
    vertex -18.97375107367651 -30.76332009332592 1.750000000000049
    vertex -18.97375107367649 -30.76332009332592 1.2934600110919807e-14
  endloop
endfacet
facet normal 0.9238795325112872 0.382683432365089 2.2283400955875604e-15
  outer loop
    vertex -18.97375107367651 -30.76332009332592 1.750000000000049
    vertex -19.423302974947322 -29.67800579628726 1.2216510683964516e-14
    vertex -19.423302974947344 -29.67800579628726 1.750000000000049
  endloop
endfacet
facet normal 0.9914448613738105 0.13052619222005202 2.310621486386073e-15
  outer loop
    vertex -19.576636756646515 -28.51332009332592 1.2200402952074926e-14
    vertex -19.423302974947344 -29.67800579628726 1.750000000000049
    vertex -19.423302974947322 -29.67800579628726 1.2216510683964516e-14
  endloop
endfacet
facet normal 0.9914448613738105 0.13052619222005202 2.310621486386073e-15
  outer loop
    vertex -19.423302974947344 -29.67800579628726 1.750000000000049
    vertex -19.576636756646515 -28.51332009332592 1.2200402952074926e-14
    vertex -19.576636756646536 -28.51332009332592 1.750000000000049
  endloop
endfacet
facet normal 0.9914448613738104 -0.13052619222005135 2.2354378413699247e-15
  outer loop
    vertex -19.423302974947322 -27.348634390364573 1.288737463056003e-14
    vertex -19.576636756646536 -28.51332009332592 1.750000000000049
    vertex -19.576636756646515 -28.51332009332592 1.2200402952074926e-14
  endloop
endfacet
facet normal 0.9914448613738104 -0.13052619222005135 2.2354378413699247e-15
  outer loop
    vertex -19.576636756646536 -28.51332009332592 1.750000000000049
    vertex -19.423302974947322 -27.348634390364573 1.288737463056003e-14
    vertex -19.423302974947344 -27.348634390364573 1.750000000000049
  endloop
endfacet
facet normal 0.9238795325112865 -0.3826834323650908 2.007912801700118e-15
  outer loop
    vertex -18.97375107367649 -26.263320093325916 1.4230609734805443e-14
    vertex -19.423302974947344 -27.348634390364573 1.750000000000049
    vertex -19.423302974947322 -27.348634390364573 1.288737463056003e-14
  endloop
endfacet
facet normal 0.9238795325112865 -0.3826834323650908 2.007912801700118e-15
  outer loop
    vertex -19.423302974947344 -27.348634390364573 1.750000000000049
    vertex -18.97375107367649 -26.263320093325916 1.4230609734805443e-14
    vertex -18.97375107367651 -26.263320093325916 1.750000000000049
  endloop
endfacet
facet normal 0.7933533402912354 -0.6087614290087203 1.6435518228272468e-15
  outer loop
    vertex -18.25861727198598 -25.33133957798645 1.6138569012257804e-14
    vertex -18.97375107367651 -26.263320093325916 1.750000000000049
    vertex -18.97375107367649 -26.263320093325916 1.4230609734805443e-14
  endloop
endfacet
facet normal 0.7933533402912354 -0.6087614290087203 1.6435518228272468e-15
  outer loop
    vertex -18.97375107367651 -26.263320093325916 1.750000000000049
    vertex -18.25861727198598 -25.33133957798645 1.6138569012257804e-14
    vertex -18.258617271985997 -25.33133957798645 1.750000000000049
  endloop
endfacet
facet normal 0.6087614290087192 -0.7933533402912364 1.167185503326502e-15
  outer loop
    vertex -17.32663675664651 -24.616205776295942 1.8481228191210525e-14
    vertex -18.258617271985997 -25.33133957798645 1.750000000000049
    vertex -18.25861727198598 -25.33133957798645 1.6138569012257804e-14
  endloop
endfacet
facet normal 0.6087614290087192 -0.7933533402912364 1.167185503326502e-15
  outer loop
    vertex -18.258617271985997 -25.33133957798645 1.750000000000049
    vertex -17.32663675664651 -24.616205776295942 1.8481228191210525e-14
    vertex -17.326636756646533 -24.61620577629594 1.750000000000049
  endloop
endfacet
facet normal 0.0 0.0 1.0
  outer loop
    vertex -20.965609502380723 -31.91332009332591 1.750000000000049
    vertex -19.423302974947344 -29.67800579628726 1.750000000000049
    vertex -20.965609502380715 -25.113320093325918 1.750000000000049
  endloop
endfacet
facet normal 0.0 0.0 1.0
  outer loop
    vertex -19.423302974947344 -29.67800579628726 1.750000000000049
    vertex -20.965609502380723 -31.91332009332591 1.750000000000049
    vertex -18.97375107367651 -30.76332009332592 1.750000000000049
  endloop
endfacet
facet normal 0.0 0.0 1.0
  outer loop
    vertex -18.97375107367651 -30.76332009332592 1.750000000000049
    vertex -20.965609502380723 -31.91332009332591 1.750000000000049
    vertex -18.258617271985997 -31.695300608665384 1.750000000000049
  endloop
endfacet
facet normal 0.0 0.0 1.0
  outer loop
    vertex -18.258617271985997 -31.695300608665384 1.750000000000049
    vertex -20.965609502380723 -31.91332009332591 1.750000000000049
    vertex -15.076636756646534 -35.31332009332592 1.750000000000049
  endloop
endfacet
facet normal 0.0 0.0 1.0
  outer loop
    vertex -20.965609502380715 -25.113320093325918 1.750000000000049
    vertex -19.423302974947344 -29.67800579628726 1.750000000000049
    vertex -19.576636756646536 -28.51332009332592 1.750000000000049
  endloop
endfacet
facet normal 0.0 0.0 1.0
  outer loop
    vertex -18.258617271985997 -31.695300608665384 1.750000000000049
    vertex -15.076636756646534 -35.31332009332592 1.750000000000049
    vertex -17.326636756646536 -32.41043441035589 1.750000000000049
  endloop
endfacet
facet normal 0.0 0.0 1.0
  outer loop
    vertex -17.326636756646536 -32.41043441035589 1.750000000000049
    vertex -15.076636756646534 -35.31332009332592 1.750000000000049
    vertex -16.24132245960788 -32.85998631162673 1.750000000000049
  endloop
endfacet
facet normal 0.0 0.0 1.0
  outer loop
    vertex -16.24132245960788 -32.85998631162673 1.750000000000049
    vertex -15.076636756646534 -35.31332009332592 1.750000000000049
    vertex -15.076636756646534 -33.013320093325916 1.750000000000049
  endloop
endfacet
facet normal 0.0 0.0 1.0
  outer loop
    vertex -15.076636756646534 -33.013320093325916 1.750000000000049
    vertex -15.076636756646534 -35.31332009332592 1.750000000000049
    vertex -13.911951053685192 -32.85998631162673 1.750000000000049
  endloop
endfacet
facet normal 0.0 0.0 1.0
  outer loop
    vertex -13.911951053685192 -32.85998631162673 1.750000000000049
    vertex -15.076636756646534 -35.31332009332592 1.750000000000049
    vertex -9.187664010912354 -31.91332009332592 1.750000000000049
  endloop
endfacet
facet normal 0.0 0.0 1.0
  outer loop
    vertex -13.911951053685192 -32.85998631162673 1.750000000000049
    vertex -9.187664010912354 -31.91332009332592 1.750000000000049
    vertex -12.826636756646536 -32.41043441035589 1.750000000000049
  endloop
endfacet
facet normal 0.0 0.0 1.0
  outer loop
    vertex -12.826636756646536 -32.41043441035589 1.750000000000049
    vertex -9.187664010912354 -31.91332009332592 1.750000000000049
    vertex -11.894656241307075 -31.695300608665384 1.750000000000049
  endloop
endfacet
facet normal 0.0 0.0 1.0
  outer loop
    vertex -11.894656241307075 -31.695300608665384 1.750000000000049
    vertex -9.187664010912354 -31.91332009332592 1.750000000000049
    vertex -11.179522439616564 -30.76332009332592 1.750000000000049
  endloop
endfacet
facet normal 0.0 0.0 1.0
  outer loop
    vertex -11.179522439616564 -30.76332009332592 1.750000000000049
    vertex -9.187664010912354 -31.91332009332592 1.750000000000049
    vertex -10.72997053834573 -29.678005796287266 1.750000000000049
  endloop
endfacet
facet normal 0.0 0.0 1.0
  outer loop
    vertex -10.72997053834573 -29.678005796287266 1.750000000000049
    vertex -9.187664010912354 -31.91332009332592 1.750000000000049
    vertex -10.576636756646538 -28.51332009332592 1.750000000000049
  endloop
endfacet
facet normal 0.0 0.0 1.0
  outer loop
    vertex -20.965609502380715 -25.113320093325918 1.750000000000049
    vertex -18.258617271985997 -25.33133957798645 1.750000000000049
    vertex -15.076636756646534 -21.71332009332592 1.750000000000049
  endloop
endfacet
facet normal 0.0 0.0 1.0
  outer loop
    vertex -18.258617271985997 -25.33133957798645 1.750000000000049
    vertex -20.965609502380715 -25.113320093325918 1.750000000000049
    vertex -18.97375107367651 -26.263320093325916 1.750000000000049
  endloop
endfacet
facet normal 0.0 0.0 1.0
  outer loop
    vertex -18.97375107367651 -26.263320093325916 1.750000000000049
    vertex -20.965609502380715 -25.113320093325918 1.750000000000049
    vertex -19.423302974947344 -27.348634390364573 1.750000000000049
  endloop
endfacet
facet normal 0.0 0.0 1.0
  outer loop
    vertex -19.423302974947344 -27.348634390364573 1.750000000000049
    vertex -20.965609502380715 -25.113320093325918 1.750000000000049
    vertex -19.576636756646536 -28.51332009332592 1.750000000000049
  endloop
endfacet
facet normal 0.0 0.0 1.0
  outer loop
    vertex -15.076636756646534 -21.71332009332592 1.750000000000049
    vertex -18.258617271985997 -25.33133957798645 1.750000000000049
    vertex -17.326636756646533 -24.61620577629594 1.750000000000049
  endloop
endfacet
facet normal 0.0 0.0 1.0
  outer loop
    vertex -15.076636756646534 -21.71332009332592 1.750000000000049
    vertex -17.326636756646533 -24.61620577629594 1.750000000000049
    vertex -16.241322459607876 -24.16665387502511 1.750000000000049
  endloop
endfacet
facet normal 0.0 0.0 1.0
  outer loop
    vertex -15.076636756646534 -21.71332009332592 1.750000000000049
    vertex -16.241322459607876 -24.16665387502511 1.750000000000049
    vertex -15.076636756646534 -24.013320093325916 1.750000000000049
  endloop
endfacet
facet normal 0.0 0.0 1.0
  outer loop
    vertex -15.076636756646534 -21.71332009332592 1.750000000000049
    vertex -15.076636756646534 -24.013320093325916 1.750000000000049
    vertex -13.911951053685188 -24.16665387502511 1.750000000000049
  endloop
endfacet
facet normal 0.0 0.0 1.0
  outer loop
    vertex -15.076636756646534 -21.71332009332592 1.750000000000049
    vertex -13.911951053685188 -24.16665387502511 1.750000000000049
    vertex -9.187664010912352 -25.11332009332592 1.750000000000049
  endloop
endfacet
facet normal 0.0 0.0 1.0
  outer loop
    vertex -9.187664010912352 -25.11332009332592 1.750000000000049
    vertex -13.911951053685188 -24.16665387502511 1.750000000000049
    vertex -12.826636756646534 -24.616205776295942 1.750000000000049
  endloop
endfacet
facet normal 0.0 0.0 1.0
  outer loop
    vertex -9.187664010912352 -25.11332009332592 1.750000000000049
    vertex -12.826636756646534 -24.616205776295942 1.750000000000049
    vertex -11.894656241307072 -25.331339577986455 1.750000000000049
  endloop
endfacet
facet normal 0.0 0.0 1.0
  outer loop
    vertex -9.187664010912352 -25.11332009332592 1.750000000000049
    vertex -11.894656241307072 -25.331339577986455 1.750000000000049
    vertex -11.179522439616564 -26.263320093325916 1.750000000000049
  endloop
endfacet
facet normal 0.0 0.0 1.0
  outer loop
    vertex -9.187664010912352 -25.11332009332592 1.750000000000049
    vertex -11.179522439616564 -26.263320093325916 1.750000000000049
    vertex -10.72997053834573 -27.348634390364577 1.750000000000049
  endloop
endfacet
facet normal 0.0 0.0 1.0
  outer loop
    vertex -9.187664010912352 -25.11332009332592 1.750000000000049
    vertex -10.72997053834573 -27.348634390364577 1.750000000000049
    vertex -10.576636756646538 -28.51332009332592 1.750000000000049
  endloop
endfacet
facet normal 0.0 0.0 1.0
  outer loop
    vertex -9.187664010912352 -25.11332009332592 1.750000000000049
    vertex -10.576636756646538 -28.51332009332592 1.750000000000049
    vertex -9.187664010912354 -31.91332009332592 1.750000000000049
  endloop
endfacet
facet normal -0.4999999999999999 -0.8660254037844386 -0.0
  outer loop
    vertex -9.187664010912352 -25.11332009332592 8.750000000000048
    vertex -15.076636756646534 -21.71332009332592 1.750000000000049
    vertex -9.187664010912352 -25.11332009332592 1.750000000000049
  endloop
endfacet
facet normal -0.4999999999999999 -0.8660254037844386 -0.0
  outer loop
    vertex -15.076636756646534 -21.71332009332592 1.750000000000049
    vertex -9.187664010912352 -25.11332009332592 8.750000000000048
    vertex -15.076636756646534 -21.71332009332592 8.750000000000048
  endloop
endfacet
facet normal 0.4999999999999998 -0.8660254037844387 -0.0
  outer loop
    vertex -15.076636756646534 -21.71332009332592 8.750000000000048
    vertex -20.965609502380715 -25.113320093325918 1.750000000000049
    vertex -15.076636756646534 -21.71332009332592 1.750000000000049
  endloop
endfacet
facet normal 0.4999999999999998 -0.8660254037844387 -0.0
  outer loop
    vertex -20.965609502380715 -25.113320093325918 1.750000000000049
    vertex -15.076636756646534 -21.71332009332592 8.750000000000048
    vertex -20.965609502380715 -25.113320093325918 8.750000000000048
  endloop
endfacet
facet normal 1.0 -8.29401906631735e-16 -0.0
  outer loop
    vertex -20.965609502380715 -25.113320093325918 1.750000000000049
    vertex -20.965609502380723 -31.91332009332591 8.750000000000048
    vertex -20.965609502380723 -31.91332009332591 1.750000000000049
  endloop
endfacet
facet normal 1.0 -8.29401906631735e-16 -0.0
  outer loop
    vertex -20.965609502380723 -31.91332009332591 8.750000000000048
    vertex -20.965609502380715 -25.113320093325918 1.750000000000049
    vertex -20.965609502380715 -25.113320093325918 8.750000000000048
  endloop
endfacet
facet normal 0.5000000000000004 0.8660254037844385 0.0
  outer loop
    vertex -20.965609502380723 -31.91332009332591 8.750000000000048
    vertex -15.076636756646534 -35.31332009332592 1.750000000000049
    vertex -20.965609502380723 -31.91332009332591 1.750000000000049
  endloop
endfacet
facet normal 0.5000000000000004 0.8660254037844385 0.0
  outer loop
    vertex -15.076636756646534 -35.31332009332592 1.750000000000049
    vertex -20.965609502380723 -31.91332009332591 8.750000000000048
    vertex -15.076636756646534 -35.31332009332592 8.750000000000048
  endloop
endfacet
facet normal -0.5 0.8660254037844386 -0.0
  outer loop
    vertex -15.076636756646534 -35.31332009332592 8.750000000000048
    vertex -9.187664010912354 -31.91332009332592 1.750000000000049
    vertex -15.076636756646534 -35.31332009332592 1.750000000000049
  endloop
endfacet
facet normal -0.5 0.8660254037844386 -0.0
  outer loop
    vertex -9.187664010912354 -31.91332009332592 1.750000000000049
    vertex -15.076636756646534 -35.31332009332592 8.750000000000048
    vertex -9.187664010912354 -31.91332009332592 8.750000000000048
  endloop
endfacet
facet normal -1.0 2.0735047665793368e-16 -0.0
  outer loop
    vertex -9.187664010912352 -25.11332009332592 8.750000000000048
    vertex -9.187664010912354 -31.91332009332592 1.750000000000049
    vertex -9.187664010912354 -31.91332009332592 8.750000000000048
  endloop
endfacet
facet normal -1.0 2.0735047665793368e-16 -0.0
  outer loop
    vertex -9.187664010912354 -31.91332009332592 1.750000000000049
    vertex -9.187664010912352 -25.11332009332592 8.750000000000048
    vertex -9.187664010912352 -25.11332009332592 1.750000000000049
  endloop
endfacet
facet normal 0.6712474628698337 -0.7412333260119995 7.003888587618718e-16
  outer loop
    vertex -0.0766367566465192 -41.517878791319184 8.750000000000014
    vertex -0.07663675664651541 -41.517878791319184 -6.898894537831355e-15
    vertex 8.680111979915916 -33.58792587887956 8.750000000000004
  endloop
endfacet
facet normal 0.6712474628698337 -0.7412333260119995 7.003888587618718e-16
  outer loop
    vertex 12.39389806027228 -30.224788528468334 -1.2689849171465539e-14
    vertex 8.680111979915916 -33.58792587887956 8.750000000000004
    vertex -0.07663675664651541 -41.517878791319184 -6.898894537831355e-15
  endloop
endfacet
facet normal 0.6712474628698337 -0.7412333260119995 7.003888587618718e-16
  outer loop
    vertex 8.680111979915916 -33.58792587887956 8.750000000000004
    vertex 12.39389806027228 -30.224788528468334 -1.2689849171465539e-14
    vertex 12.393898060272257 -30.22478852846833 18.75000000000001
  endloop
endfacet
facet normal 0.6712474628698337 -0.7412333260119995 7.003888587618718e-16
  outer loop
    vertex 8.680111979915916 -33.58792587887956 8.750000000000004
    vertex 12.393898060272257 -30.22478852846833 18.75000000000001
    vertex 8.680111979915916 -33.58792587887957 18.750000000000004
  endloop
endfacet
facet normal 0.6967363476340754 0.7173273045726956 -6.392737251788543e-17
  outer loop
    vertex -5.497688523428637 -12.846781849728735 1.762479051592436e-14
    vertex 12.393898060272257 -30.22478852846833 18.75000000000001
    vertex 12.39389806027228 -30.224788528468334 -1.2689849171465539e-14
  endloop
endfacet
facet normal 0.6967363476340754 0.7173273045726956 -6.392737251788543e-17
  outer loop
    vertex 12.393898060272257 -30.22478852846833 18.75000000000001
    vertex -5.497688523428637 -12.846781849728735 1.762479051592436e-14
    vertex -5.497688523428525 -12.846781849728801 18.75000000000001
  endloop
endfacet
facet normal -0.3848911546886934 0.9229619705287994 1.1704884160725675e-15
  outer loop
    vertex -30.0766367566465 -25.01332009332593 8.750000000000009
    vertex -9.137812302863553 -16.28146701684112 1.3394840792102513e-14
    vertex -30.0766367566465 -25.01332009332592 -7.307395501042039e-15
  endloop
endfacet
facet normal -0.3848911546886934 0.9229619705287994 1.1704884160725675e-15
  outer loop
    vertex -9.137812302863553 -16.28146701684112 1.3394840792102513e-14
    vertex -30.0766367566465 -25.01332009332593 8.750000000000009
    vertex -9.137812302863553 -16.28146701684113 8.750000000000016
  endloop
endfacet
facet normal -0.6862845041567827 0.7273331969285323 3.6381143269432826e-15
  outer loop
    vertex -9.137812302863553 -16.28146701684113 8.750000000000016
    vertex -5.497688523428637 -12.846781849728735 1.762479051592436e-14
    vertex -9.137812302863553 -16.28146701684112 1.3394840792102513e-14
  endloop
endfacet
facet normal -0.6862845041567827 0.7273331969285323 3.6381143269432826e-15
  outer loop
    vertex -5.497688523428637 -12.846781849728735 1.762479051592436e-14
    vertex -9.137812302863553 -16.28146701684113 8.750000000000016
    vertex -5.497688523428525 -12.846781849728801 18.75000000000001
  endloop
endfacet
facet normal -0.6862845041567827 0.7273331969285323 3.6381143269432826e-15
  outer loop
    vertex -5.497688523428525 -12.846781849728801 18.75000000000001
    vertex -9.137812302863553 -16.28146701684113 8.750000000000016
    vertex -9.137812302863553 -16.281467016841138 18.750000000000018
  endloop
endfacet
facet normal 1.7697620826018368e-17 -2.270180030303432e-16 1.0
  outer loop
    vertex 8.680111979915916 -33.58792587887957 18.750000000000004
    vertex -5.497688523428525 -12.846781849728801 18.75000000000001
    vertex -9.137812302863553 -16.281467016841138 18.750000000000018
  endloop
endfacet
facet normal 1.7697620826018368e-17 -2.270180030303432e-16 1.0
  outer loop
    vertex -5.497688523428525 -12.846781849728801 18.75000000000001
    vertex 8.680111979915916 -33.58792587887957 18.750000000000004
    vertex 12.393898060272257 -30.22478852846833 18.75000000000001
  endloop
endfacet
facet normal -0.6967363476340753 -0.7173273045726958 -4.504940489271792e-16
  outer loop
    vertex 8.680111979915916 -33.58792587887957 18.750000000000004
    vertex -9.137812302863553 -16.28146701684113 8.750000000000016
    vertex 8.680111979915916 -33.58792587887956 8.750000000000004
  endloop
endfacet
facet normal -0.6967363476340753 -0.7173273045726958 -4.504940489271792e-16
  outer loop
    vertex -9.137812302863553 -16.28146701684113 8.750000000000016
    vertex 8.680111979915916 -33.58792587887957 18.750000000000004
    vertex -9.137812302863553 -16.281467016841138 18.750000000000018
  endloop
endfacet
facet normal 6.148185163908147e-16 6.160577748487285e-17 1.0
  outer loop
    vertex -0.07663675664653394 -160.01332009332592 8.750000000000014
    vertex -10.076636756646538 -55.01332009332587 8.749999999999941
    vertex -10.076636756646538 -160.01332009332592 8.750000000000014
  endloop
endfacet
facet normal 6.148185163908147e-16 6.160577748487285e-17 1.0
  outer loop
    vertex -10.076636756646538 -55.01332009332587 8.749999999999941
    vertex -0.07663675664653394 -160.01332009332592 8.750000000000014
    vertex -9.187664010912354 -31.91332009332592 8.750000000000048
  endloop
endfacet
facet normal 6.148185163908147e-16 6.160577748487285e-17 1.0
  outer loop
    vertex -9.187664010912354 -31.91332009332592 8.750000000000048
    vertex -0.07663675664653394 -160.01332009332592 8.750000000000014
    vertex -9.187664010912352 -25.11332009332592 8.750000000000048
  endloop
endfacet
facet normal 6.148185163908147e-16 6.160577748487285e-17 1.0
  outer loop
    vertex -9.187664010912352 -25.11332009332592 8.750000000000048
    vertex -0.07663675664653394 -160.01332009332592 8.750000000000014
    vertex -9.137812302863553 -16.28146701684113 8.750000000000016
  endloop
endfacet
facet normal 6.148185163908147e-16 6.160577748487285e-17 1.0
  outer loop
    vertex -9.137812302863553 -16.28146701684113 8.750000000000016
    vertex -0.07663675664653394 -160.01332009332592 8.750000000000014
    vertex -0.0766367566465192 -41.517878791319184 8.750000000000014
  endloop
endfacet
facet normal 6.148185163908147e-16 6.160577748487285e-17 1.0
  outer loop
    vertex -9.137812302863553 -16.28146701684113 8.750000000000016
    vertex -0.0766367566465192 -41.517878791319184 8.750000000000014
    vertex 8.680111979915916 -33.58792587887956 8.750000000000004
  endloop
endfacet
facet normal 6.148185163908147e-16 6.160577748487285e-17 1.0
  outer loop
    vertex -30.0766367566465 -25.01332009332593 8.750000000000009
    vertex -20.965609502380715 -25.113320093325918 8.750000000000048
    vertex -9.137812302863553 -16.28146701684113 8.750000000000016
  endloop
endfacet
facet normal 6.148185163908147e-16 6.160577748487285e-17 1.0
  outer loop
    vertex -20.965609502380715 -25.113320093325918 8.750000000000048
    vertex -30.0766367566465 -25.01332009332593 8.750000000000009
    vertex -20.965609502380723 -31.91332009332591 8.750000000000048
  endloop
endfacet
facet normal 6.148185163908147e-16 6.160577748487285e-17 1.0
  outer loop
    vertex -9.137812302863553 -16.28146701684113 8.750000000000016
    vertex -20.965609502380715 -25.113320093325918 8.750000000000048
    vertex -15.076636756646534 -21.71332009332592 8.750000000000048
  endloop
endfacet
facet normal 6.148185163908147e-16 6.160577748487285e-17 1.0
  outer loop
    vertex -9.137812302863553 -16.28146701684113 8.750000000000016
    vertex -15.076636756646534 -21.71332009332592 8.750000000000048
    vertex -9.187664010912352 -25.11332009332592 8.750000000000048
  endloop
endfacet
facet normal 6.148185163908147e-16 6.160577748487285e-17 1.0
  outer loop
    vertex -30.0766367566465 -35.01332009332591 8.750000000000036
    vertex -145.0766367566465 -25.013320093325934 8.750000000000089
    vertex -145.0766367566465 -35.01332009332591 8.750000000000089
  endloop
endfacet
facet normal 6.148185163908147e-16 6.160577748487285e-17 1.0
  outer loop
    vertex -145.0766367566465 -25.013320093325934 8.750000000000089
    vertex -30.0766367566465 -35.01332009332591 8.750000000000036
    vertex -30.0766367566465 -25.01332009332593 8.750000000000009
  endloop
endfacet
facet normal 6.148185163908147e-16 6.160577748487285e-17 1.0
  outer loop
    vertex -30.0766367566465 -25.01332009332593 8.750000000000009
    vertex -30.0766367566465 -35.01332009332591 8.750000000000036
    vertex -10.076636756646538 -55.01332009332587 8.749999999999941
  endloop
endfacet
facet normal 6.148185163908147e-16 6.160577748487285e-17 1.0
  outer loop
    vertex -30.0766367566465 -25.01332009332593 8.750000000000009
    vertex -10.076636756646538 -55.01332009332587 8.749999999999941
    vertex -20.965609502380723 -31.91332009332591 8.750000000000048
  endloop
endfacet
facet normal 6.148185163908147e-16 6.160577748487285e-17 1.0
  outer loop
    vertex -20.965609502380723 -31.91332009332591 8.750000000000048
    vertex -10.076636756646538 -55.01332009332587 8.749999999999941
    vertex -15.076636756646534 -35.31332009332592 8.750000000000048
  endloop
endfacet
facet normal 6.148185163908147e-16 6.160577748487285e-17 1.0
  outer loop
    vertex -15.076636756646534 -35.31332009332592 8.750000000000048
    vertex -10.076636756646538 -55.01332009332587 8.749999999999941
    vertex -9.187664010912354 -31.91332009332592 8.750000000000048
  endloop
endfacet
facet normal -2.4665020691697606e-17 1.9996060340007055e-17 -1.0
  outer loop
    vertex -30.0766367566465 -25.01332009332592 -7.307395501042039e-15
    vertex -145.0766367566465 -35.01332009332591 -7.307395501042039e-15
    vertex -145.0766367566465 -25.01332009332592 -7.307395501042039e-15
  endloop
endfacet
facet normal -2.4665020691697606e-17 1.9996060340007055e-17 -1.0
  outer loop
    vertex -145.0766367566465 -35.01332009332591 -7.307395501042039e-15
    vertex -30.0766367566465 -25.01332009332592 -7.307395501042039e-15
    vertex -30.0766367566465 -35.01332009332591 -5.888789911502717e-14
  endloop
endfacet
facet normal -2.4665020691697606e-17 1.9996060340007055e-17 -1.0
  outer loop
    vertex -30.0766367566465 -35.01332009332591 -5.888789911502717e-14
    vertex -30.0766367566465 -25.01332009332592 -7.307395501042039e-15
    vertex -9.137812302863553 -16.28146701684112 1.3394840792102513e-14
  endloop
endfacet
facet normal -2.4665020691697606e-17 1.9996060340007055e-17 -1.0
  outer loop
    vertex -30.0766367566465 -35.01332009332591 -5.888789911502717e-14
    vertex -9.137812302863553 -16.28146701684112 1.3394840792102513e-14
    vertex -18.25861727198598 -25.33133957798645 1.6138569012257804e-14
  endloop
endfacet
facet normal -2.4665020691697606e-17 1.9996060340007055e-17 -1.0
  outer loop
    vertex -30.0766367566465 -35.01332009332591 -5.888789911502717e-14
    vertex -18.25861727198598 -25.33133957798645 1.6138569012257804e-14
    vertex -18.97375107367649 -26.263320093325916 1.4230609734805443e-14
  endloop
endfacet
facet normal -2.4665020691697606e-17 1.9996060340007055e-17 -1.0
  outer loop
    vertex -30.0766367566465 -35.01332009332591 -5.888789911502717e-14
    vertex -18.97375107367649 -26.263320093325916 1.4230609734805443e-14
    vertex -19.423302974947322 -27.348634390364573 1.288737463056003e-14
  endloop
endfacet
facet normal -2.4665020691697606e-17 1.9996060340007055e-17 -1.0
  outer loop
    vertex -30.0766367566465 -35.01332009332591 -5.888789911502717e-14
    vertex -19.423302974947322 -27.348634390364573 1.288737463056003e-14
    vertex -19.576636756646515 -28.51332009332592 1.2200402952074926e-14
  endloop
endfacet
facet normal -2.4665020691697606e-17 1.9996060340007055e-17 -1.0
  outer loop
    vertex -18.25861727198598 -25.33133957798645 1.6138569012257804e-14
    vertex -9.137812302863553 -16.28146701684112 1.3394840792102513e-14
    vertex -17.32663675664651 -24.616205776295942 1.8481228191210525e-14
  endloop
endfacet
facet normal -2.4665020691697606e-17 1.9996060340007055e-17 -1.0
  outer loop
    vertex -17.32663675664651 -24.616205776295942 1.8481228191210525e-14
    vertex -9.137812302863553 -16.28146701684112 1.3394840792102513e-14
    vertex -16.241322459607858 -24.166653875025112 2.1098938920045314e-14
  endloop
endfacet
facet normal -2.4665020691697606e-17 1.9996060340007055e-17 -1.0
  outer loop
    vertex -16.241322459607858 -24.166653875025112 2.1098938920045314e-14
    vertex -9.137812302863553 -16.28146701684112 1.3394840792102513e-14
    vertex -15.076636756646515 -24.01332009332592 2.3813308538563594e-14
  endloop
endfacet
facet normal -2.4665020691697606e-17 1.9996060340007055e-17 -1.0
  outer loop
    vertex -15.076636756646515 -24.01332009332592 2.3813308538563594e-14
    vertex -9.137812302863553 -16.28146701684112 1.3394840792102513e-14
    vertex -13.911951053685168 -24.166653875025112 2.6439357242971252e-14
  endloop
endfacet
facet normal -2.4665020691697606e-17 1.9996060340007055e-17 -1.0
  outer loop
    vertex -13.911951053685168 -24.166653875025112 2.6439357242971252e-14
    vertex -9.137812302863553 -16.28146701684112 1.3394840792102513e-14
    vertex -12.826636756646515 -24.616205776295946 2.879812415381356e-14
  endloop
endfacet
facet normal -2.4665020691697606e-17 1.9996060340007055e-17 -1.0
  outer loop
    vertex -12.826636756646515 -24.616205776295946 2.879812415381356e-14
    vertex -9.137812302863553 -16.28146701684112 1.3394840792102513e-14
    vertex -11.89465624130705 -25.33133957798646 3.0728863204163243e-14
  endloop
endfacet
facet normal -2.4665020691697606e-17 1.9996060340007055e-17 -1.0
  outer loop
    vertex -11.89465624130705 -25.33133957798646 3.0728863204163243e-14
    vertex -9.137812302863553 -16.28146701684112 1.3394840792102513e-14
    vertex -11.179522439616541 -26.263320093325916 3.209999771843612e-14
  endloop
endfacet
facet normal -2.4665020691697606e-17 1.9996060340007055e-17 -1.0
  outer loop
    vertex -11.179522439616541 -26.263320093325916 3.209999771843612e-14
    vertex -9.137812302863553 -16.28146701684112 1.3394840792102513e-14
    vertex -10.72997053834571 -27.348634390364577 3.2818087145391416e-14
  endloop
endfacet
facet normal -2.4665020691697606e-17 1.9996060340007055e-17 -1.0
  outer loop
    vertex -10.72997053834571 -27.348634390364577 3.2818087145391416e-14
    vertex -9.137812302863553 -16.28146701684112 1.3394840792102513e-14
    vertex -10.576636756646515 -28.51332009332592 3.2834194877281004e-14
  endloop
endfacet
facet normal -2.4665020691697606e-17 1.9996060340007055e-17 -1.0
  outer loop
    vertex -10.576636756646515 -28.51332009332592 3.2834194877281004e-14
    vertex -9.137812302863553 -16.28146701684112 1.3394840792102513e-14
    vertex -10.076636756646518 -55.01332009332587 -7.969311899978506e-14
  endloop
endfacet
facet normal -2.4665020691697606e-17 1.9996060340007055e-17 -1.0
  outer loop
    vertex -10.076636756646518 -55.01332009332587 -7.969311899978506e-14
    vertex -9.137812302863553 -16.28146701684112 1.3394840792102513e-14
    vertex -10.076636756646518 -160.01332009332592 -7.307395501042039e-15
  endloop
endfacet
facet normal -2.4665020691697606e-17 1.9996060340007055e-17 -1.0
  outer loop
    vertex -10.076636756646518 -160.01332009332592 -7.307395501042039e-15
    vertex -9.137812302863553 -16.28146701684112 1.3394840792102513e-14
    vertex -0.07663675664651554 -160.01332009332592 -7.307395501042039e-15
  endloop
endfacet
facet normal -2.4665020691697606e-17 1.9996060340007055e-17 -1.0
  outer loop
    vertex -0.07663675664651554 -160.01332009332592 -7.307395501042039e-15
    vertex -9.137812302863553 -16.28146701684112 1.3394840792102513e-14
    vertex -5.497688523428637 -12.846781849728735 1.762479051592436e-14
  endloop
endfacet
facet normal -2.4665020691697606e-17 1.9996060340007055e-17 -1.0
  outer loop
    vertex -0.07663675664651554 -160.01332009332592 -7.307395501042039e-15
    vertex -5.497688523428637 -12.846781849728735 1.762479051592436e-14
    vertex -0.07663675664651541 -41.517878791319184 -6.898894537831355e-15
  endloop
endfacet
facet normal -2.4665020691697606e-17 1.9996060340007055e-17 -1.0
  outer loop
    vertex -0.07663675664651541 -41.517878791319184 -6.898894537831355e-15
    vertex -5.497688523428637 -12.846781849728735 1.762479051592436e-14
    vertex 12.39389806027228 -30.224788528468334 -1.2689849171465539e-14
  endloop
endfacet
facet normal -2.4665020691697606e-17 1.9996060340007055e-17 -1.0
  outer loop
    vertex -30.0766367566465 -35.01332009332591 -5.888789911502717e-14
    vertex -19.423302974947322 -29.67800579628726 1.2216510683964516e-14
    vertex -10.076636756646518 -55.01332009332587 -7.969311899978506e-14
  endloop
endfacet
facet normal -2.4665020691697606e-17 1.9996060340007055e-17 -1.0
  outer loop
    vertex -19.423302974947322 -29.67800579628726 1.2216510683964516e-14
    vertex -30.0766367566465 -35.01332009332591 -5.888789911502717e-14
    vertex -19.576636756646515 -28.51332009332592 1.2200402952074926e-14
  endloop
endfacet
facet normal -2.4665020691697606e-17 1.9996060340007055e-17 -1.0
  outer loop
    vertex -10.076636756646518 -55.01332009332587 -7.969311899978506e-14
    vertex -19.423302974947322 -29.67800579628726 1.2216510683964516e-14
    vertex -18.97375107367649 -30.76332009332592 1.2934600110919807e-14
  endloop
endfacet
facet normal -2.4665020691697606e-17 1.9996060340007055e-17 -1.0
  outer loop
    vertex -10.076636756646518 -55.01332009332587 -7.969311899978506e-14
    vertex -18.97375107367649 -30.76332009332592 1.2934600110919807e-14
    vertex -18.25861727198598 -31.695300608665384 1.4305734625192685e-14
  endloop
endfacet
facet normal -2.4665020691697606e-17 1.9996060340007055e-17 -1.0
  outer loop
    vertex -10.076636756646518 -55.01332009332587 -7.969311899978506e-14
    vertex -18.25861727198598 -31.695300608665384 1.4305734625192685e-14
    vertex -17.32663675664652 -32.41043441035589 1.623647367554237e-14
  endloop
endfacet
facet normal -2.4665020691697606e-17 1.9996060340007055e-17 -1.0
  outer loop
    vertex -10.076636756646518 -55.01332009332587 -7.969311899978506e-14
    vertex -17.32663675664652 -32.41043441035589 1.623647367554237e-14
    vertex -16.24132245960786 -32.85998631162673 1.859524058638468e-14
  endloop
endfacet
facet normal -2.4665020691697606e-17 1.9996060340007055e-17 -1.0
  outer loop
    vertex -10.076636756646518 -55.01332009332587 -7.969311899978506e-14
    vertex -16.24132245960786 -32.85998631162673 1.859524058638468e-14
    vertex -15.076636756646515 -33.013320093325916 2.1221289290792335e-14
  endloop
endfacet
facet normal -2.4665020691697606e-17 1.9996060340007055e-17 -1.0
  outer loop
    vertex -10.076636756646518 -55.01332009332587 -7.969311899978506e-14
    vertex -15.076636756646515 -33.013320093325916 2.1221289290792335e-14
    vertex -13.911951053685172 -32.85998631162673 2.393565890931062e-14
  endloop
endfacet
facet normal -2.4665020691697606e-17 1.9996060340007055e-17 -1.0
  outer loop
    vertex -10.076636756646518 -55.01332009332587 -7.969311899978506e-14
    vertex -13.911951053685172 -32.85998631162673 2.393565890931062e-14
    vertex -12.826636756646517 -32.41043441035589 2.6553369638145414e-14
  endloop
endfacet
facet normal -2.4665020691697606e-17 1.9996060340007055e-17 -1.0
  outer loop
    vertex -10.076636756646518 -55.01332009332587 -7.969311899978506e-14
    vertex -12.826636756646517 -32.41043441035589 2.6553369638145414e-14
    vertex -11.894656241307052 -31.695300608665384 2.8896028817098135e-14
  endloop
endfacet
facet normal -2.4665020691697606e-17 1.9996060340007055e-17 -1.0
  outer loop
    vertex -10.076636756646518 -55.01332009332587 -7.969311899978506e-14
    vertex -11.894656241307052 -31.695300608665384 2.8896028817098135e-14
    vertex -11.179522439616543 -30.76332009332592 3.080398809455049e-14
  endloop
endfacet
facet normal -2.4665020691697606e-17 1.9996060340007055e-17 -1.0
  outer loop
    vertex -10.076636756646518 -55.01332009332587 -7.969311899978506e-14
    vertex -11.179522439616543 -30.76332009332592 3.080398809455049e-14
    vertex -10.72997053834571 -29.678005796287266 3.2147223198795904e-14
  endloop
endfacet
facet normal -2.4665020691697606e-17 1.9996060340007055e-17 -1.0
  outer loop
    vertex -10.076636756646518 -55.01332009332587 -7.969311899978506e-14
    vertex -10.72997053834571 -29.678005796287266 3.2147223198795904e-14
    vertex -10.576636756646515 -28.51332009332592 3.2834194877281004e-14
  endloop
endfacet
facet normal -0.7071067811865475 -0.7071067811865477 -7.442161351673193e-16
  outer loop
    vertex -10.076636756646538 -55.01332009332587 8.749999999999941
    vertex -30.0766367566465 -35.01332009332591 -5.888789911502717e-14
    vertex -10.076636756646518 -55.01332009332587 -7.969311899978506e-14
  endloop
endfacet
facet normal -0.7071067811865475 -0.7071067811865477 -7.442161351673193e-16
  outer loop
    vertex -30.0766367566465 -35.01332009332591 -5.888789911502717e-14
    vertex -10.076636756646538 -55.01332009332587 8.749999999999941
    vertex -30.0766367566465 -35.01332009332591 8.750000000000036
  endloop
endfacet
endsolid Крепление стола-Часть
