solid X-Бегунок-12-Стандарт
facet normal 1.0 -5.938315727052703e-15 1.0611502925126622e-14
  outer loop
    vertex 15.000000000000027 1.0000065675292031 4.896375773802579
    vertex 14.999999999999993 -3.0000000000001514 10.000000000000204
    vertex 14.999999999999998 -3.0000000000001674 4.885503000000201
  endloop
endfacet
facet normal 1.0 -5.938315727052703e-15 1.0611502925126622e-14
  outer loop
    vertex 14.999999999999993 -3.0000000000001514 10.000000000000204
    vertex 15.000000000000027 1.0000065675292031 4.896375773802579
    vertex 15.000000000000032 -1.10000000000013 7.900000000000217
  endloop
endfacet
facet normal 1.0 -5.938315727052703e-15 1.0611502925126622e-14
  outer loop
    vertex 15.000000000000032 -1.10000000000013 7.900000000000217
    vertex 15.000000000000027 1.0000065675292031 4.896375773802579
    vertex 15.000000000000034 -1.00000000000013 7.900000000000217
  endloop
endfacet
facet normal 1.0 -5.938315727052703e-15 1.0611502925126622e-14
  outer loop
    vertex 15.000000000000034 -1.00000000000013 7.900000000000217
    vertex 15.000000000000027 1.0000065675292031 4.896375773802579
    vertex 15.000000000000028 1.0000065675292031 5.89999343247088
  endloop
endfacet
facet normal 1.0 -5.938315727052703e-15 1.0611502925126622e-14
  outer loop
    vertex 15.000000000000204 12.999999999343451 4.899963765309986
    vertex 15.000000000000052 8.999999999999893 5.900000000000242
    vertex 15.000000000000076 8.999999999999863 4.900000000000182
  endloop
endfacet
facet normal 1.0 -5.938315727052703e-15 1.0611502925126622e-14
  outer loop
    vertex 15.000000000000052 8.999999999999893 5.900000000000242
    vertex 15.000000000000204 12.999999999343451 4.899963765309986
    vertex 15.000000000000034 10.999999999999861 7.900000000000217
  endloop
endfacet
facet normal 1.0 -5.938315727052703e-15 1.0611502925126622e-14
  outer loop
    vertex 15.000000000000034 10.999999999999861 7.900000000000217
    vertex 15.000000000000204 12.999999999343451 4.899963765309986
    vertex 15.000000000000028 11.099999999999861 7.900000000000217
  endloop
endfacet
facet normal 1.0 -5.938315727052703e-15 1.0611502925126622e-14
  outer loop
    vertex 15.000000000000028 11.099999999999861 7.900000000000217
    vertex 15.000000000000204 12.999999999343451 4.899963765309986
    vertex 15.000000000000028 11.099999999999861 10.000000000000213
  endloop
endfacet
facet normal 1.0 -5.938315727052703e-15 1.0611502925126622e-14
  outer loop
    vertex 15.000000000000195 16.000276319140465 4.935258042861706
    vertex 15.000000000000046 13.731770797361662 9.999993886231719
    vertex 15.000000000000185 13.731586001842102 4.935251931532482
  endloop
endfacet
facet normal 1.0 -5.938315727052703e-15 1.0611502925126622e-14
  outer loop
    vertex 15.000000000000046 13.731770797361662 9.999993886231719
    vertex 15.000000000000195 16.000276319140465 4.935258042861706
    vertex 14.999999999999993 16.000276317740266 13.966755532637663
  endloop
endfacet
facet normal 1.0 -5.938315727052703e-15 1.0611502925126622e-14
  outer loop
    vertex 15.0 -3.731586000000183 4.890939386901236
    vertex 14.999999999999961 -6.000000000000164 14.000000000000194
    vertex 14.999999999999975 -6.000000000000184 4.890939386901227
  endloop
endfacet
facet normal 1.0 -5.938315727052703e-15 1.0611502925126622e-14
  outer loop
    vertex 14.999999999999961 -6.000000000000164 14.000000000000194
    vertex 15.0 -3.731586000000183 4.890939386901236
    vertex 14.999999999999993 -3.731586000000151 10.000000000000206
  endloop
endfacet
facet normal 1.0 -5.938315727052703e-15 1.0611502925126622e-14
  outer loop
    vertex 14.999999999999961 -6.000000000000164 14.000000000000194
    vertex 14.999999999999993 -3.731586000000151 10.000000000000206
    vertex 14.999999999999993 16.000276317740266 13.966755532637663
  endloop
endfacet
facet normal 1.0 -5.938315727052703e-15 1.0611502925126622e-14
  outer loop
    vertex 14.999999999999993 16.000276317740266 13.966755532637663
    vertex 14.999999999999993 -3.731586000000151 10.000000000000206
    vertex 14.999999999999993 -3.0000000000001514 10.000000000000204
  endloop
endfacet
facet normal 1.0 -5.938315727052703e-15 1.0611502925126622e-14
  outer loop
    vertex 14.999999999999993 16.000276317740266 13.966755532637663
    vertex 14.999999999999993 -3.0000000000001514 10.000000000000204
    vertex 15.000000000000032 -1.10000000000013 10.000000000000213
  endloop
endfacet
facet normal 1.0 -5.938315727052703e-15 1.0611502925126622e-14
  outer loop
    vertex 15.000000000000032 -1.10000000000013 10.000000000000213
    vertex 14.999999999999993 -3.0000000000001514 10.000000000000204
    vertex 15.000000000000032 -1.10000000000013 7.900000000000217
  endloop
endfacet
facet normal 1.0 -5.938315727052703e-15 1.0611502925126622e-14
  outer loop
    vertex 14.999999999999993 16.000276317740266 13.966755532637663
    vertex 15.000000000000032 -1.10000000000013 10.000000000000213
    vertex 15.000000000000028 11.099999999999861 10.000000000000213
  endloop
endfacet
facet normal 1.0 -5.938315727052703e-15 1.0611502925126622e-14
  outer loop
    vertex 14.999999999999993 16.000276317740266 13.966755532637663
    vertex 15.000000000000028 11.099999999999861 10.000000000000213
    vertex 15.000000000000052 13.000184796263186 9.999963765310106
  endloop
endfacet
facet normal 1.0 -5.938315727052703e-15 1.0611502925126622e-14
  outer loop
    vertex 15.000000000000052 13.000184796263186 9.999963765310106
    vertex 15.000000000000028 11.099999999999861 10.000000000000213
    vertex 15.000000000000204 12.999999999343451 4.899963765309986
  endloop
endfacet
facet normal 1.0 -5.938315727052703e-15 1.0611502925126622e-14
  outer loop
    vertex 14.999999999999993 16.000276317740266 13.966755532637663
    vertex 15.000000000000052 13.000184796263186 9.999963765310106
    vertex 15.000000000000046 13.731770797361662 9.999993886231719
  endloop
endfacet
facet normal 1.973976537783529e-14 -1.4099832412769306e-15 -1.0
  outer loop
    vertex 2.0465470300203772e-13 12.999999999343578 4.899963765309774
    vertex 15.000000000000076 8.999999999999863 4.900000000000182
    vertex 1.6637802247032595e-13 9.000000000000497 4.899999999999802
  endloop
endfacet
facet normal 1.973976537783529e-14 -1.4099832412769306e-15 -1.0
  outer loop
    vertex 15.000000000000076 8.999999999999863 4.900000000000182
    vertex 2.0465470300203772e-13 12.999999999343578 4.899963765309774
    vertex 15.000000000000204 12.999999999343451 4.899963765309986
  endloop
endfacet
facet normal 2.8669659239237035e-15 1.0 -6.347471092074238e-15
  outer loop
    vertex -4.4333263895451496e-15 -3.731586000000141 4.8909393869012145
    vertex 7.215299050387221 -3.7315860000000884 6.4374815910821175
    vertex 15.0 -3.731586000000183 4.890939386901236
  endloop
endfacet
facet normal 2.8669659239237035e-15 1.0 -6.347471092074238e-15
  outer loop
    vertex 7.215299050387221 -3.7315860000000884 6.4374815910821175
    vertex -4.4333263895451496e-15 -3.731586000000141 4.8909393869012145
    vertex 6.949999999999994 -3.731586000000087 6.54737205583721
  endloop
endfacet
facet normal 2.8669659239237035e-15 1.0 -6.347471092074238e-15
  outer loop
    vertex 6.949999999999994 -3.731586000000087 6.54737205583721
    vertex -4.4333263895451496e-15 -3.731586000000141 4.8909393869012145
    vertex -1.4629396738463723e-15 -3.7315860000001075 10.000000000000188
  endloop
endfacet
facet normal 2.8669659239237035e-15 1.0 -6.347471092074238e-15
  outer loop
    vertex 15.0 -3.731586000000183 4.890939386901236
    vertex 7.215299050387221 -3.7315860000000884 6.4374815910821175
    vertex 7.499999999999995 -3.7315860000000916 6.400000000000093
  endloop
endfacet
facet normal 2.8669659239237035e-15 1.0 -6.347471092074238e-15
  outer loop
    vertex 6.949999999999994 -3.731586000000087 6.54737205583721
    vertex -1.4629396738463723e-15 -3.7315860000001075 10.000000000000188
    vertex 6.722182540694792 -3.731586000000086 6.722182540694891
  endloop
endfacet
facet normal 2.8669659239237035e-15 1.0 -6.347471092074238e-15
  outer loop
    vertex 6.722182540694792 -3.731586000000086 6.722182540694891
    vertex -1.4629396738463723e-15 -3.7315860000001075 10.000000000000188
    vertex 6.547372055837111 -3.731586000000086 6.950000000000093
  endloop
endfacet
facet normal 2.8669659239237035e-15 1.0 -6.347471092074238e-15
  outer loop
    vertex 6.547372055837111 -3.731586000000086 6.950000000000093
    vertex -1.4629396738463723e-15 -3.7315860000001075 10.000000000000188
    vertex 6.437481591082019 -3.731586000000086 7.21529905038732
  endloop
endfacet
facet normal 2.8669659239237035e-15 1.0 -6.347471092074238e-15
  outer loop
    vertex 6.437481591082019 -3.731586000000086 7.21529905038732
    vertex -1.4629396738463723e-15 -3.7315860000001075 10.000000000000188
    vertex 6.399999999999994 -3.731586000000086 7.500000000000092
  endloop
endfacet
facet normal 2.8669659239237035e-15 1.0 -6.347471092074238e-15
  outer loop
    vertex 6.399999999999994 -3.731586000000086 7.500000000000092
    vertex -1.4629396738463723e-15 -3.7315860000001075 10.000000000000188
    vertex 6.437481591082019 -3.731586000000087 7.784700949612864
  endloop
endfacet
facet normal 2.8669659239237035e-15 1.0 -6.347471092074238e-15
  outer loop
    vertex 6.437481591082019 -3.731586000000087 7.784700949612864
    vertex -1.4629396738463723e-15 -3.7315860000001075 10.000000000000188
    vertex 6.547372055837111 -3.7315860000000898 8.050000000000093
  endloop
endfacet
facet normal 2.8669659239237035e-15 1.0 -6.347471092074238e-15
  outer loop
    vertex 6.547372055837111 -3.7315860000000898 8.050000000000093
    vertex -1.4629396738463723e-15 -3.7315860000001075 10.000000000000188
    vertex 6.722182540694791 -3.7315860000000916 8.277817459305295
  endloop
endfacet
facet normal 2.8669659239237035e-15 1.0 -6.347471092074238e-15
  outer loop
    vertex 6.722182540694791 -3.7315860000000916 8.277817459305295
    vertex -1.4629396738463723e-15 -3.7315860000001075 10.000000000000188
    vertex 6.949999999999994 -3.731586000000094 8.452627944162975
  endloop
endfacet
facet normal 2.8669659239237035e-15 1.0 -6.347471092074238e-15
  outer loop
    vertex 6.949999999999994 -3.731586000000094 8.452627944162975
    vertex -1.4629396738463723e-15 -3.7315860000001075 10.000000000000188
    vertex 7.215299050387221 -3.731586000000097 8.562518408918068
  endloop
endfacet
facet normal 2.8669659239237035e-15 1.0 -6.347471092074238e-15
  outer loop
    vertex 7.215299050387221 -3.731586000000097 8.562518408918068
    vertex -1.4629396738463723e-15 -3.7315860000001075 10.000000000000188
    vertex 7.499999999999995 -3.7315860000001 8.600000000000092
  endloop
endfacet
facet normal 2.8669659239237035e-15 1.0 -6.347471092074238e-15
  outer loop
    vertex 15.0 -3.731586000000183 4.890939386901236
    vertex 8.049999999999995 -3.7315860000000955 6.54737205583721
    vertex 14.999999999999993 -3.731586000000151 10.000000000000206
  endloop
endfacet
facet normal 2.8669659239237035e-15 1.0 -6.347471092074238e-15
  outer loop
    vertex 8.049999999999995 -3.7315860000000955 6.54737205583721
    vertex 15.0 -3.731586000000183 4.890939386901236
    vertex 7.784700949612768 -3.731586000000094 6.4374815910821175
  endloop
endfacet
facet normal 2.8669659239237035e-15 1.0 -6.347471092074238e-15
  outer loop
    vertex 7.784700949612768 -3.731586000000094 6.4374815910821175
    vertex 15.0 -3.731586000000183 4.890939386901236
    vertex 7.499999999999995 -3.7315860000000916 6.400000000000093
  endloop
endfacet
facet normal 2.8669659239237035e-15 1.0 -6.347471092074238e-15
  outer loop
    vertex 14.999999999999993 -3.731586000000151 10.000000000000206
    vertex 8.049999999999995 -3.7315860000000955 6.54737205583721
    vertex 8.277817459305197 -3.731586000000098 6.722182540694891
  endloop
endfacet
facet normal 2.8669659239237035e-15 1.0 -6.347471092074238e-15
  outer loop
    vertex 14.999999999999993 -3.731586000000151 10.000000000000206
    vertex 8.277817459305197 -3.731586000000098 6.722182540694891
    vertex 8.452627944162877 -3.7315860000001013 6.950000000000093
  endloop
endfacet
facet normal 2.8669659239237035e-15 1.0 -6.347471092074238e-15
  outer loop
    vertex 14.999999999999993 -3.731586000000151 10.000000000000206
    vertex 8.452627944162877 -3.7315860000001013 6.950000000000093
    vertex 8.56251840891797 -3.7315860000001027 7.21529905038732
  endloop
endfacet
facet normal 2.8669659239237035e-15 1.0 -6.347471092074238e-15
  outer loop
    vertex 14.999999999999993 -3.731586000000151 10.000000000000206
    vertex 8.56251840891797 -3.7315860000001027 7.21529905038732
    vertex 8.599999999999996 -3.731586000000104 7.500000000000092
  endloop
endfacet
facet normal 2.8669659239237035e-15 1.0 -6.347471092074238e-15
  outer loop
    vertex 14.999999999999993 -3.731586000000151 10.000000000000206
    vertex 8.599999999999996 -3.731586000000104 7.500000000000092
    vertex 8.56251840891797 -3.7315860000001053 7.784700949612866
  endloop
endfacet
facet normal 2.8669659239237035e-15 1.0 -6.347471092074238e-15
  outer loop
    vertex 14.999999999999993 -3.731586000000151 10.000000000000206
    vertex 8.56251840891797 -3.7315860000001053 7.784700949612866
    vertex 8.452627944162877 -3.7315860000001053 8.050000000000093
  endloop
endfacet
facet normal 2.8669659239237035e-15 1.0 -6.347471092074238e-15
  outer loop
    vertex 14.999999999999993 -3.731586000000151 10.000000000000206
    vertex 8.452627944162877 -3.7315860000001053 8.050000000000093
    vertex 8.277817459305197 -3.731586000000104 8.277817459305295
  endloop
endfacet
facet normal 2.8669659239237035e-15 1.0 -6.347471092074238e-15
  outer loop
    vertex 14.999999999999993 -3.731586000000151 10.000000000000206
    vertex 8.277817459305197 -3.731586000000104 8.277817459305295
    vertex 8.049999999999994 -3.731586000000104 8.452627944162975
  endloop
endfacet
facet normal 2.8669659239237035e-15 1.0 -6.347471092074238e-15
  outer loop
    vertex 14.999999999999993 -3.731586000000151 10.000000000000206
    vertex 8.049999999999994 -3.731586000000104 8.452627944162975
    vertex 7.784700949612767 -3.7315860000001013 8.562518408918068
  endloop
endfacet
facet normal 2.8669659239237035e-15 1.0 -6.347471092074238e-15
  outer loop
    vertex 14.999999999999993 -3.731586000000151 10.000000000000206
    vertex 7.784700949612767 -3.7315860000001013 8.562518408918068
    vertex 7.499999999999995 -3.7315860000001 8.600000000000092
  endloop
endfacet
facet normal 2.8669659239237035e-15 1.0 -6.347471092074238e-15
  outer loop
    vertex 14.999999999999993 -3.731586000000151 10.000000000000206
    vertex 7.499999999999995 -3.7315860000001 8.600000000000092
    vertex -1.4629396738463723e-15 -3.7315860000001075 10.000000000000188
  endloop
endfacet
facet normal 1.2219854757707557e-15 -2.661045409182818e-30 -1.0
  outer loop
    vertex 14.999999999999993 -3.0000000000001514 10.000000000000204
    vertex -1.4629396738463723e-15 -3.7315860000001075 10.000000000000188
    vertex -3.64245670662434e-15 -3.0000000000001084 10.000000000000188
  endloop
endfacet
facet normal 1.2219854757707557e-15 -2.661045409182818e-30 -1.0
  outer loop
    vertex -1.4629396738463723e-15 -3.7315860000001075 10.000000000000188
    vertex 14.999999999999993 -3.0000000000001514 10.000000000000204
    vertex 14.999999999999993 -3.731586000000151 10.000000000000206
  endloop
endfacet
facet normal -8.382645390522418e-19 -0.9999999993343618 3.648666034515771e-05
  outer loop
    vertex 15.000000000000185 13.731586001842102 4.935251931532482
    vertex 7.7847009496129 13.731862317740351 6.437481591082126
    vertex 7.500000000000129 13.731862317740353 6.400000000000101
  endloop
endfacet
facet normal -8.382645390522418e-19 -0.9999999993343618 3.648666034515771e-05
  outer loop
    vertex 7.7847009496129 13.731862317740351 6.437481591082126
    vertex 15.000000000000185 13.731586001842102 4.935251931532482
    vertex 8.050000000000127 13.731862317740351 6.5473720558372195
  endloop
endfacet
facet normal -8.382645390522418e-19 -0.9999999993343618 3.648666034515771e-05
  outer loop
    vertex 8.050000000000127 13.731862317740351 6.5473720558372195
    vertex 15.000000000000185 13.731586001842102 4.935251931532482
    vertex 15.000000000000046 13.731770797361662 9.999993886231719
  endloop
endfacet
facet normal -8.382645390522418e-19 -0.9999999993343618 3.648666034515771e-05
  outer loop
    vertex 8.050000000000127 13.731862317740351 6.5473720558372195
    vertex 15.000000000000046 13.731770797361662 9.999993886231719
    vertex 8.27781745930533 13.731862317740347 6.7221825406949
  endloop
endfacet
facet normal -8.382645390522418e-19 -0.9999999993343618 3.648666034515771e-05
  outer loop
    vertex 8.27781745930533 13.731862317740347 6.7221825406949
    vertex 15.000000000000046 13.731770797361662 9.999993886231719
    vertex 8.452627944163012 13.731862317740346 6.950000000000101
  endloop
endfacet
facet normal -8.382645390522418e-19 -0.9999999993343618 3.648666034515771e-05
  outer loop
    vertex 8.452627944163012 13.731862317740346 6.950000000000101
    vertex 15.000000000000046 13.731770797361662 9.999993886231719
    vertex 8.562518408918104 13.731862317740346 7.215299050387329
  endloop
endfacet
facet normal -8.382645390522418e-19 -0.9999999993343618 3.648666034515771e-05
  outer loop
    vertex 8.562518408918104 13.731862317740346 7.215299050387329
    vertex 15.000000000000046 13.731770797361662 9.999993886231719
    vertex 8.60000000000013 13.731862317740346 7.500000000000102
  endloop
endfacet
facet normal -8.382645390522418e-19 -0.9999999993343618 3.648666034515771e-05
  outer loop
    vertex 8.60000000000013 13.731862317740346 7.500000000000102
    vertex 15.000000000000046 13.731770797361662 9.999993886231719
    vertex 8.562518408918104 13.731862317740346 7.784700949612875
  endloop
endfacet
facet normal -8.382645390522418e-19 -0.9999999993343618 3.648666034515771e-05
  outer loop
    vertex 8.562518408918104 13.731862317740346 7.784700949612875
    vertex 15.000000000000046 13.731770797361662 9.999993886231719
    vertex 8.452627944163012 13.731862317740346 8.050000000000102
  endloop
endfacet
facet normal -8.382645390522418e-19 -0.9999999993343618 3.648666034515771e-05
  outer loop
    vertex 8.452627944163012 13.731862317740346 8.050000000000102
    vertex 15.000000000000046 13.731770797361662 9.999993886231719
    vertex 8.27781745930533 13.731862317740347 8.277817459305304
  endloop
endfacet
facet normal -8.382645390522418e-19 -0.9999999993343618 3.648666034515771e-05
  outer loop
    vertex 8.27781745930533 13.731862317740347 8.277817459305304
    vertex 15.000000000000046 13.731770797361662 9.999993886231719
    vertex 8.050000000000129 13.731862317740347 8.452627944162986
  endloop
endfacet
facet normal -8.382645390522418e-19 -0.9999999993343618 3.648666034515771e-05
  outer loop
    vertex 8.050000000000129 13.731862317740347 8.452627944162986
    vertex 15.000000000000046 13.731770797361662 9.999993886231719
    vertex 7.784700949612902 13.731862317740351 8.562518408918077
  endloop
endfacet
facet normal -8.382645390522418e-19 -0.9999999993343618 3.648666034515771e-05
  outer loop
    vertex 7.784700949612902 13.731862317740351 8.562518408918077
    vertex 15.000000000000046 13.731770797361662 9.999993886231719
    vertex 7.500000000000129 13.731862317740353 8.600000000000103
  endloop
endfacet
facet normal -8.382645390522418e-19 -0.9999999993343618 3.648666034515771e-05
  outer loop
    vertex 7.500000000000129 13.731862317740353 8.600000000000103
    vertex 15.000000000000046 13.731770797361662 9.999993886231719
    vertex 5.094753466749388e-14 13.731770797361662 9.999993886231374
  endloop
endfacet
facet normal -8.382645390522418e-19 -0.9999999993343618 3.648666034515771e-05
  outer loop
    vertex 1.7357251161632114e-13 13.731586001842102 4.935251931532137
    vertex 6.950000000000128 13.73186231774036 6.5473720558372195
    vertex 5.094753466749388e-14 13.731770797361662 9.999993886231374
  endloop
endfacet
facet normal -8.382645390522418e-19 -0.9999999993343618 3.648666034515771e-05
  outer loop
    vertex 6.950000000000128 13.73186231774036 6.5473720558372195
    vertex 1.7357251161632114e-13 13.731586001842102 4.935251931532137
    vertex 7.2152990503873555 13.731862317740356 6.437481591082127
  endloop
endfacet
facet normal -8.382645390522418e-19 -0.9999999993343618 3.648666034515771e-05
  outer loop
    vertex 7.2152990503873555 13.731862317740356 6.437481591082127
    vertex 1.7357251161632114e-13 13.731586001842102 4.935251931532137
    vertex 15.000000000000185 13.731586001842102 4.935251931532482
  endloop
endfacet
facet normal -8.382645390522418e-19 -0.9999999993343618 3.648666034515771e-05
  outer loop
    vertex 7.2152990503873555 13.731862317740356 6.437481591082127
    vertex 15.000000000000185 13.731586001842102 4.935251931532482
    vertex 7.500000000000129 13.731862317740353 6.400000000000101
  endloop
endfacet
facet normal -8.382645390522418e-19 -0.9999999993343618 3.648666034515771e-05
  outer loop
    vertex 5.094753466749388e-14 13.731770797361662 9.999993886231374
    vertex 6.950000000000128 13.73186231774036 6.5473720558372195
    vertex 6.722182540694925 13.73186231774036 6.722182540694901
  endloop
endfacet
facet normal -8.382645390522418e-19 -0.9999999993343618 3.648666034515771e-05
  outer loop
    vertex 5.094753466749388e-14 13.731770797361662 9.999993886231374
    vertex 6.722182540694925 13.73186231774036 6.722182540694901
    vertex 6.547372055837245 13.731862317740362 6.950000000000101
  endloop
endfacet
facet normal -8.382645390522418e-19 -0.9999999993343618 3.648666034515771e-05
  outer loop
    vertex 5.094753466749388e-14 13.731770797361662 9.999993886231374
    vertex 6.547372055837245 13.731862317740362 6.950000000000101
    vertex 6.437481591082153 13.731862317740362 7.21529905038733
  endloop
endfacet
facet normal -8.382645390522418e-19 -0.9999999993343618 3.648666034515771e-05
  outer loop
    vertex 5.094753466749388e-14 13.731770797361662 9.999993886231374
    vertex 6.437481591082153 13.731862317740362 7.21529905038733
    vertex 6.400000000000128 13.731862317740362 7.500000000000102
  endloop
endfacet
facet normal -8.382645390522418e-19 -0.9999999993343618 3.648666034515771e-05
  outer loop
    vertex 5.094753466749388e-14 13.731770797361662 9.999993886231374
    vertex 6.400000000000128 13.731862317740362 7.500000000000102
    vertex 6.437481591082153 13.731862317740362 7.784700949612875
  endloop
endfacet
facet normal -8.382645390522418e-19 -0.9999999993343618 3.648666034515771e-05
  outer loop
    vertex 5.094753466749388e-14 13.731770797361662 9.999993886231374
    vertex 6.437481591082153 13.731862317740362 7.784700949612875
    vertex 6.547372055837245 13.731862317740362 8.050000000000102
  endloop
endfacet
facet normal -8.382645390522418e-19 -0.9999999993343618 3.648666034515771e-05
  outer loop
    vertex 5.094753466749388e-14 13.731770797361662 9.999993886231374
    vertex 6.547372055837245 13.731862317740362 8.050000000000102
    vertex 6.722182540694926 13.73186231774036 8.277817459305304
  endloop
endfacet
facet normal -8.382645390522418e-19 -0.9999999993343618 3.648666034515771e-05
  outer loop
    vertex 5.094753466749388e-14 13.731770797361662 9.999993886231374
    vertex 6.722182540694926 13.73186231774036 8.277817459305304
    vertex 6.950000000000128 13.731862317740356 8.452627944162986
  endloop
endfacet
facet normal -8.382645390522418e-19 -0.9999999993343618 3.648666034515771e-05
  outer loop
    vertex 5.094753466749388e-14 13.731770797361662 9.999993886231374
    vertex 6.950000000000128 13.731862317740356 8.452627944162986
    vertex 7.2152990503873555 13.731862317740356 8.562518408918077
  endloop
endfacet
facet normal -8.382645390522418e-19 -0.9999999993343618 3.648666034515771e-05
  outer loop
    vertex 5.094753466749388e-14 13.731770797361662 9.999993886231374
    vertex 7.2152990503873555 13.731862317740356 8.562518408918077
    vertex 7.500000000000129 13.731862317740353 8.600000000000103
  endloop
endfacet
facet normal 2.2935727391389568e-14 0.0 -1.0
  outer loop
    vertex 15.000000000000046 13.731770797361662 9.999993886231719
    vertex 5.5178015360745854e-14 13.000184796263186 9.999963765309761
    vertex 5.094753466749388e-14 13.731770797361662 9.999993886231374
  endloop
endfacet
facet normal 2.2935727391389568e-14 0.0 -1.0
  outer loop
    vertex 5.5178015360745854e-14 13.000184796263186 9.999963765309761
    vertex 15.000000000000046 13.731770797361662 9.999993886231719
    vertex 15.000000000000052 13.000184796263186 9.999963765310106
  endloop
endfacet
facet normal 4.230620909380739e-15 0.9999999993435236 -3.623469010796472e-05
  outer loop
    vertex 5.5178015360745854e-14 13.000184796263186 9.999963765309761
    vertex 15.000000000000204 12.999999999343451 4.899963765309986
    vertex 2.0465470300203772e-13 12.999999999343578 4.899963765309774
  endloop
endfacet
facet normal 4.230620909380739e-15 0.9999999993435236 -3.623469010796472e-05
  outer loop
    vertex 15.000000000000204 12.999999999343451 4.899963765309986
    vertex 5.5178015360745854e-14 13.000184796263186 9.999963765309761
    vertex 15.000000000000052 13.000184796263186 9.999963765310106
  endloop
endfacet
facet normal -1.3899064989924533e-14 0.0015110914484532012 0.9999988583006655
  outer loop
    vertex 14.999999999999961 -6.000000000000164 14.000000000000194
    vertex -7.511563688485731e-15 16.00027631774039 13.966755532637455
    vertex -3.9941178237786343e-14 -6.000000000000037 13.999999999999986
  endloop
endfacet
facet normal -1.3899064989924533e-14 0.0015110914484532012 0.9999988583006655
  outer loop
    vertex -7.511563688485731e-15 16.00027631774039 13.966755532637455
    vertex 14.999999999999961 -6.000000000000164 14.000000000000194
    vertex 14.999999999999993 16.000276317740266 13.966755532637663
  endloop
endfacet
facet normal -8.45989944764372e-15 -1.0 2.089652771639911e-15
  outer loop
    vertex 14.999999999999975 -6.000000000000184 4.890939386901227
    vertex 7.784700949612751 -6.000000000000068 6.4374815910821095
    vertex 7.499999999999978 -6.000000000000066 6.400000000000084
  endloop
endfacet
facet normal -8.45989944764372e-15 -1.0 2.089652771639911e-15
  outer loop
    vertex 7.784700949612751 -6.000000000000068 6.4374815910821095
    vertex 14.999999999999975 -6.000000000000184 4.890939386901227
    vertex 8.049999999999978 -6.000000000000071 6.547372055837202
  endloop
endfacet
facet normal -8.45989944764372e-15 -1.0 2.089652771639911e-15
  outer loop
    vertex 8.049999999999978 -6.000000000000071 6.547372055837202
    vertex 14.999999999999975 -6.000000000000184 4.890939386901227
    vertex 8.27781745930518 -6.000000000000074 6.722182540694883
  endloop
endfacet
facet normal -8.45989944764372e-15 -1.0 2.089652771639911e-15
  outer loop
    vertex 8.27781745930518 -6.000000000000074 6.722182540694883
    vertex 14.999999999999975 -6.000000000000184 4.890939386901227
    vertex 14.999999999999961 -6.000000000000164 14.000000000000194
  endloop
endfacet
facet normal -8.45989944764372e-15 -1.0 2.089652771639911e-15
  outer loop
    vertex 8.27781745930518 -6.000000000000074 6.722182540694883
    vertex 14.999999999999961 -6.000000000000164 14.000000000000194
    vertex 8.452627944162861 -6.0000000000000755 6.9500000000000846
  endloop
endfacet
facet normal -8.45989944764372e-15 -1.0 2.089652771639911e-15
  outer loop
    vertex 8.452627944162861 -6.0000000000000755 6.9500000000000846
    vertex 14.999999999999961 -6.000000000000164 14.000000000000194
    vertex 8.562518408917953 -6.000000000000078 7.215299050387312
  endloop
endfacet
facet normal -8.45989944764372e-15 -1.0 2.089652771639911e-15
  outer loop
    vertex 8.562518408917953 -6.000000000000078 7.215299050387312
    vertex 14.999999999999961 -6.000000000000164 14.000000000000194
    vertex 8.599999999999978 -6.000000000000079 7.500000000000085
  endloop
endfacet
facet normal -8.45989944764372e-15 -1.0 2.089652771639911e-15
  outer loop
    vertex 8.599999999999978 -6.000000000000079 7.500000000000085
    vertex 14.999999999999961 -6.000000000000164 14.000000000000194
    vertex 8.562518408917953 -6.00000000000008 7.7847009496128585
  endloop
endfacet
facet normal -8.45989944764372e-15 -1.0 2.089652771639911e-15
  outer loop
    vertex 8.562518408917953 -6.00000000000008 7.7847009496128585
    vertex 14.999999999999961 -6.000000000000164 14.000000000000194
    vertex 8.452627944162861 -6.00000000000008 8.050000000000086
  endloop
endfacet
facet normal -8.45989944764372e-15 -1.0 2.089652771639911e-15
  outer loop
    vertex 8.452627944162861 -6.00000000000008 8.050000000000086
    vertex 14.999999999999961 -6.000000000000164 14.000000000000194
    vertex 8.27781745930518 -6.000000000000079 8.277817459305288
  endloop
endfacet
facet normal -8.45989944764372e-15 -1.0 2.089652771639911e-15
  outer loop
    vertex 8.27781745930518 -6.000000000000079 8.277817459305288
    vertex 14.999999999999961 -6.000000000000164 14.000000000000194
    vertex 8.049999999999978 -6.000000000000078 8.452627944162968
  endloop
endfacet
facet normal -8.45989944764372e-15 -1.0 2.089652771639911e-15
  outer loop
    vertex 8.049999999999978 -6.000000000000078 8.452627944162968
    vertex 14.999999999999961 -6.000000000000164 14.000000000000194
    vertex 7.78470094961275 -6.000000000000076 8.562518408918061
  endloop
endfacet
facet normal -8.45989944764372e-15 -1.0 2.089652771639911e-15
  outer loop
    vertex 7.78470094961275 -6.000000000000076 8.562518408918061
    vertex 14.999999999999961 -6.000000000000164 14.000000000000194
    vertex 7.499999999999978 -6.000000000000075 8.600000000000085
  endloop
endfacet
facet normal -8.45989944764372e-15 -1.0 2.089652771639911e-15
  outer loop
    vertex 7.499999999999978 -6.000000000000075 8.600000000000085
    vertex 14.999999999999961 -6.000000000000164 14.000000000000194
    vertex -3.9941178237786343e-14 -6.000000000000037 13.999999999999986
  endloop
endfacet
facet normal -8.45989944764372e-15 -1.0 2.089652771639911e-15
  outer loop
    vertex -3.1012117505405646e-14 -6.000000000000057 4.890939386901016
    vertex 6.722182540694775 -6.000000000000061 6.722182540694883
    vertex -3.9941178237786343e-14 -6.000000000000037 13.999999999999986
  endloop
endfacet
facet normal -8.45989944764372e-15 -1.0 2.089652771639911e-15
  outer loop
    vertex 6.722182540694775 -6.000000000000061 6.722182540694883
    vertex -3.1012117505405646e-14 -6.000000000000057 4.890939386901016
    vertex 6.949999999999977 -6.000000000000061 6.547372055837202
  endloop
endfacet
facet normal -8.45989944764372e-15 -1.0 2.089652771639911e-15
  outer loop
    vertex 6.949999999999977 -6.000000000000061 6.547372055837202
    vertex -3.1012117505405646e-14 -6.000000000000057 4.890939386901016
    vertex 7.2152990503872045 -6.000000000000064 6.4374815910821095
  endloop
endfacet
facet normal -8.45989944764372e-15 -1.0 2.089652771639911e-15
  outer loop
    vertex 7.2152990503872045 -6.000000000000064 6.4374815910821095
    vertex -3.1012117505405646e-14 -6.000000000000057 4.890939386901016
    vertex 14.999999999999975 -6.000000000000184 4.890939386901227
  endloop
endfacet
facet normal -8.45989944764372e-15 -1.0 2.089652771639911e-15
  outer loop
    vertex 7.2152990503872045 -6.000000000000064 6.4374815910821095
    vertex 14.999999999999975 -6.000000000000184 4.890939386901227
    vertex 7.499999999999978 -6.000000000000066 6.400000000000084
  endloop
endfacet
facet normal -8.45989944764372e-15 -1.0 2.089652771639911e-15
  outer loop
    vertex -3.9941178237786343e-14 -6.000000000000037 13.999999999999986
    vertex 6.722182540694775 -6.000000000000061 6.722182540694883
    vertex 6.547372055837094 -6.00000000000006 6.9500000000000846
  endloop
endfacet
facet normal -8.45989944764372e-15 -1.0 2.089652771639911e-15
  outer loop
    vertex -3.9941178237786343e-14 -6.000000000000037 13.999999999999986
    vertex 6.547372055837094 -6.00000000000006 6.9500000000000846
    vertex 6.437481591082002 -6.00000000000006 7.215299050387312
  endloop
endfacet
facet normal -8.45989944764372e-15 -1.0 2.089652771639911e-15
  outer loop
    vertex -3.9941178237786343e-14 -6.000000000000037 13.999999999999986
    vertex 6.437481591082002 -6.00000000000006 7.215299050387312
    vertex 6.399999999999977 -6.000000000000061 7.500000000000085
  endloop
endfacet
facet normal -8.45989944764372e-15 -1.0 2.089652771639911e-15
  outer loop
    vertex -3.9941178237786343e-14 -6.000000000000037 13.999999999999986
    vertex 6.399999999999977 -6.000000000000061 7.500000000000085
    vertex 6.437481591082002 -6.000000000000062 7.784700949612857
  endloop
endfacet
facet normal -8.45989944764372e-15 -1.0 2.089652771639911e-15
  outer loop
    vertex -3.9941178237786343e-14 -6.000000000000037 13.999999999999986
    vertex 6.437481591082002 -6.000000000000062 7.784700949612857
    vertex 6.547372055837094 -6.000000000000065 8.050000000000086
  endloop
endfacet
facet normal -8.45989944764372e-15 -1.0 2.089652771639911e-15
  outer loop
    vertex -3.9941178237786343e-14 -6.000000000000037 13.999999999999986
    vertex 6.547372055837094 -6.000000000000065 8.050000000000086
    vertex 6.722182540694774 -6.000000000000067 8.277817459305288
  endloop
endfacet
facet normal -8.45989944764372e-15 -1.0 2.089652771639911e-15
  outer loop
    vertex -3.9941178237786343e-14 -6.000000000000037 13.999999999999986
    vertex 6.722182540694774 -6.000000000000067 8.277817459305288
    vertex 6.949999999999977 -6.000000000000069 8.452627944162968
  endloop
endfacet
facet normal -8.45989944764372e-15 -1.0 2.089652771639911e-15
  outer loop
    vertex -3.9941178237786343e-14 -6.000000000000037 13.999999999999986
    vertex 6.949999999999977 -6.000000000000069 8.452627944162968
    vertex 7.2152990503872045 -6.000000000000071 8.562518408918061
  endloop
endfacet
facet normal -8.45989944764372e-15 -1.0 2.089652771639911e-15
  outer loop
    vertex -3.9941178237786343e-14 -6.000000000000037 13.999999999999986
    vertex 7.2152990503872045 -6.000000000000071 8.562518408918061
    vertex 7.499999999999978 -6.000000000000075 8.600000000000085
  endloop
endfacet
facet normal 7.778407547694859e-15 4.2158498914091046e-14 -1.0
  outer loop
    vertex -4.4333263895451496e-15 -3.731586000000141 4.8909393869012145
    vertex 14.999999999999975 -6.000000000000184 4.890939386901227
    vertex -3.1012117505405646e-14 -6.000000000000057 4.890939386901016
  endloop
endfacet
facet normal 7.778407547694859e-15 4.2158498914091046e-14 -1.0
  outer loop
    vertex 14.999999999999975 -6.000000000000184 4.890939386901227
    vertex -4.4333263895451496e-15 -3.731586000000141 4.8909393869012145
    vertex 15.0 -3.731586000000183 4.890939386901236
  endloop
endfacet
facet normal 8.459899445473026e-15 1.0 1.5503528391953578e-10
  outer loop
    vertex 1.8306199615303732e-13 16.000276319140593 4.935258042861495
    vertex 7.215299050387373 16.000276317740333 6.437481591082127
    vertex 15.000000000000195 16.000276319140465 4.935258042861706
  endloop
endfacet
facet normal 8.459899445473026e-15 1.0 1.5503528391953578e-10
  outer loop
    vertex 7.215299050387373 16.000276317740333 6.437481591082127
    vertex 1.8306199615303732e-13 16.000276319140593 4.935258042861495
    vertex 6.950000000000147 16.000276317740333 6.5473720558372195
  endloop
endfacet
facet normal 8.459899445473026e-15 1.0 1.5503528391953578e-10
  outer loop
    vertex 6.950000000000147 16.000276317740333 6.5473720558372195
    vertex 1.8306199615303732e-13 16.000276319140593 4.935258042861495
    vertex 6.722182540694943 16.000276317740333 6.722182540694901
  endloop
endfacet
facet normal 8.459899445473026e-15 1.0 1.5503528391953578e-10
  outer loop
    vertex 6.722182540694943 16.000276317740333 6.722182540694901
    vertex 1.8306199615303732e-13 16.000276319140593 4.935258042861495
    vertex -7.511563688485731e-15 16.00027631774039 13.966755532637455
  endloop
endfacet
facet normal 8.459899445473026e-15 1.0 1.5503528391953578e-10
  outer loop
    vertex 15.000000000000195 16.000276319140465 4.935258042861706
    vertex 7.215299050387373 16.000276317740333 6.437481591082127
    vertex 7.500000000000147 16.00027631774033 6.4000000000001025
  endloop
endfacet
facet normal 8.459899445473026e-15 1.0 1.5503528391953578e-10
  outer loop
    vertex 6.722182540694943 16.000276317740333 6.722182540694901
    vertex -7.511563688485731e-15 16.00027631774039 13.966755532637455
    vertex 6.547372055837264 16.000276317740337 6.950000000000103
  endloop
endfacet
facet normal 8.459899445473026e-15 1.0 1.5503528391953578e-10
  outer loop
    vertex 6.547372055837264 16.000276317740337 6.950000000000103
    vertex -7.511563688485731e-15 16.00027631774039 13.966755532637455
    vertex 6.437481591082172 16.000276317740337 7.21529905038733
  endloop
endfacet
facet normal 8.459899445473026e-15 1.0 1.5503528391953578e-10
  outer loop
    vertex 6.437481591082172 16.000276317740337 7.21529905038733
    vertex -7.511563688485731e-15 16.00027631774039 13.966755532637455
    vertex 6.400000000000146 16.000276317740337 7.500000000000103
  endloop
endfacet
facet normal 8.459899445473026e-15 1.0 1.5503528391953578e-10
  outer loop
    vertex 6.400000000000146 16.000276317740337 7.500000000000103
    vertex -7.511563688485731e-15 16.00027631774039 13.966755532637455
    vertex 6.437481591082172 16.000276317740337 7.784700949612876
  endloop
endfacet
facet normal 8.459899445473026e-15 1.0 1.5503528391953578e-10
  outer loop
    vertex 6.437481591082172 16.000276317740337 7.784700949612876
    vertex -7.511563688485731e-15 16.00027631774039 13.966755532637455
    vertex 6.547372055837264 16.000276317740337 8.050000000000104
  endloop
endfacet
facet normal 8.459899445473026e-15 1.0 1.5503528391953578e-10
  outer loop
    vertex 6.547372055837264 16.000276317740337 8.050000000000104
    vertex -7.511563688485731e-15 16.00027631774039 13.966755532637455
    vertex 6.722182540694945 16.000276317740333 8.277817459305306
  endloop
endfacet
facet normal 8.459899445473026e-15 1.0 1.5503528391953578e-10
  outer loop
    vertex 6.722182540694945 16.000276317740333 8.277817459305306
    vertex -7.511563688485731e-15 16.00027631774039 13.966755532637455
    vertex 6.950000000000147 16.000276317740333 8.452627944162987
  endloop
endfacet
facet normal 8.459899445473026e-15 1.0 1.5503528391953578e-10
  outer loop
    vertex 6.950000000000147 16.000276317740333 8.452627944162987
    vertex -7.511563688485731e-15 16.00027631774039 13.966755532637455
    vertex 7.215299050387373 16.000276317740333 8.562518408918079
  endloop
endfacet
facet normal 8.459899445473026e-15 1.0 1.5503528391953578e-10
  outer loop
    vertex 7.215299050387373 16.000276317740333 8.562518408918079
    vertex -7.511563688485731e-15 16.00027631774039 13.966755532637455
    vertex 7.500000000000147 16.00027631774033 8.600000000000104
  endloop
endfacet
facet normal 8.459899445473026e-15 1.0 1.5503528391953578e-10
  outer loop
    vertex 15.000000000000195 16.000276319140465 4.935258042861706
    vertex 8.27781745930535 16.000276317740322 6.722182540694901
    vertex 14.999999999999993 16.000276317740266 13.966755532637663
  endloop
endfacet
facet normal 8.459899445473026e-15 1.0 1.5503528391953578e-10
  outer loop
    vertex 8.27781745930535 16.000276317740322 6.722182540694901
    vertex 15.000000000000195 16.000276319140465 4.935258042861706
    vertex 8.050000000000146 16.000276317740326 6.5473720558372195
  endloop
endfacet
facet normal 8.459899445473026e-15 1.0 1.5503528391953578e-10
  outer loop
    vertex 8.050000000000146 16.000276317740326 6.5473720558372195
    vertex 15.000000000000195 16.000276319140465 4.935258042861706
    vertex 7.784700949612919 16.000276317740326 6.437481591082127
  endloop
endfacet
facet normal 8.459899445473026e-15 1.0 1.5503528391953578e-10
  outer loop
    vertex 7.784700949612919 16.000276317740326 6.437481591082127
    vertex 15.000000000000195 16.000276319140465 4.935258042861706
    vertex 7.500000000000147 16.00027631774033 6.4000000000001025
  endloop
endfacet
facet normal 8.459899445473026e-15 1.0 1.5503528391953578e-10
  outer loop
    vertex 14.999999999999993 16.000276317740266 13.966755532637663
    vertex 8.27781745930535 16.000276317740322 6.722182540694901
    vertex 8.45262794416303 16.00027631774032 6.950000000000101
  endloop
endfacet
facet normal 8.459899445473026e-15 1.0 1.5503528391953578e-10
  outer loop
    vertex 14.999999999999993 16.000276317740266 13.966755532637663
    vertex 8.45262794416303 16.00027631774032 6.950000000000101
    vertex 8.562518408918123 16.00027631774032 7.21529905038733
  endloop
endfacet
facet normal 8.459899445473026e-15 1.0 1.5503528391953578e-10
  outer loop
    vertex 14.999999999999993 16.000276317740266 13.966755532637663
    vertex 8.562518408918123 16.00027631774032 7.21529905038733
    vertex 8.600000000000147 16.00027631774032 7.500000000000103
  endloop
endfacet
facet normal 8.459899445473026e-15 1.0 1.5503528391953578e-10
  outer loop
    vertex 14.999999999999993 16.000276317740266 13.966755532637663
    vertex 8.600000000000147 16.00027631774032 7.500000000000103
    vertex 8.562518408918123 16.00027631774032 7.784700949612876
  endloop
endfacet
facet normal 8.459899445473026e-15 1.0 1.5503528391953578e-10
  outer loop
    vertex 14.999999999999993 16.000276317740266 13.966755532637663
    vertex 8.562518408918123 16.00027631774032 7.784700949612876
    vertex 8.45262794416303 16.00027631774032 8.050000000000104
  endloop
endfacet
facet normal 8.459899445473026e-15 1.0 1.5503528391953578e-10
  outer loop
    vertex 14.999999999999993 16.000276317740266 13.966755532637663
    vertex 8.45262794416303 16.00027631774032 8.050000000000104
    vertex 8.27781745930535 16.000276317740322 8.277817459305306
  endloop
endfacet
facet normal 8.459899445473026e-15 1.0 1.5503528391953578e-10
  outer loop
    vertex 14.999999999999993 16.000276317740266 13.966755532637663
    vertex 8.27781745930535 16.000276317740322 8.277817459305306
    vertex 8.050000000000148 16.000276317740322 8.452627944162987
  endloop
endfacet
facet normal 8.459899445473026e-15 1.0 1.5503528391953578e-10
  outer loop
    vertex 14.999999999999993 16.000276317740266 13.966755532637663
    vertex 8.050000000000148 16.000276317740322 8.452627944162987
    vertex 7.784700949612921 16.000276317740326 8.562518408918079
  endloop
endfacet
facet normal 8.459899445473026e-15 1.0 1.5503528391953578e-10
  outer loop
    vertex 14.999999999999993 16.000276317740266 13.966755532637663
    vertex 7.784700949612921 16.000276317740326 8.562518408918079
    vertex 7.500000000000147 16.00027631774033 8.600000000000104
  endloop
endfacet
facet normal 8.459899445473026e-15 1.0 1.5503528391953578e-10
  outer loop
    vertex 14.999999999999993 16.000276317740266 13.966755532637663
    vertex 7.500000000000147 16.00027631774033 8.600000000000104
    vertex -7.511563688485731e-15 16.00027631774039 13.966755532637455
  endloop
endfacet
facet normal 1.8564779339320273e-14 -9.755729402498286e-10 -1.0
  outer loop
    vertex 1.8306199615303732e-13 16.000276319140593 4.935258042861495
    vertex 15.000000000000185 13.731586001842102 4.935251931532482
    vertex 1.7357251161632114e-13 13.731586001842102 4.935251931532137
  endloop
endfacet
facet normal 1.8564779339320273e-14 -9.755729402498286e-10 -1.0
  outer loop
    vertex 15.000000000000185 13.731586001842102 4.935251931532482
    vertex 1.8306199615303732e-13 16.000276319140593 4.935258042861495
    vertex 15.000000000000195 16.000276319140465 4.935258042861706
  endloop
endfacet
facet normal -1.0 6.617259416660624e-15 -1.169357331576254e-14
  outer loop
    vertex -3.9941178237786343e-14 -6.000000000000037 13.999999999999986
    vertex -4.4333263895451496e-15 -3.731586000000141 4.8909393869012145
    vertex -3.1012117505405646e-14 -6.000000000000057 4.890939386901016
  endloop
endfacet
facet normal -1.0 6.617259416660624e-15 -1.169357331576254e-14
  outer loop
    vertex -4.4333263895451496e-15 -3.731586000000141 4.8909393869012145
    vertex -3.9941178237786343e-14 -6.000000000000037 13.999999999999986
    vertex -1.4629396738463723e-15 -3.7315860000001075 10.000000000000188
  endloop
endfacet
facet normal -1.0 6.617259416660624e-15 -1.169357331576254e-14
  outer loop
    vertex -1.4629396738463723e-15 -3.7315860000001075 10.000000000000188
    vertex -3.9941178237786343e-14 -6.000000000000037 13.999999999999986
    vertex -7.511563688485731e-15 16.00027631774039 13.966755532637455
  endloop
endfacet
facet normal -1.0 6.617259416660624e-15 -1.169357331576254e-14
  outer loop
    vertex -1.4629396738463723e-15 -3.7315860000001075 10.000000000000188
    vertex -7.511563688485731e-15 16.00027631774039 13.966755532637455
    vertex -3.64245670662434e-15 -3.0000000000001084 10.000000000000188
  endloop
endfacet
facet normal -1.0 6.617259416660624e-15 -1.169357331576254e-14
  outer loop
    vertex -3.64245670662434e-15 -3.0000000000001084 10.000000000000188
    vertex -7.511563688485731e-15 16.00027631774039 13.966755532637455
    vertex 5.88809001556001e-14 -1.0999999999996561 10.000000000000236
  endloop
endfacet
facet normal -1.0 6.617259416660624e-15 -1.169357331576254e-14
  outer loop
    vertex -3.64245670662434e-15 -3.0000000000001084 10.000000000000188
    vertex 5.88809001556001e-14 -1.0999999999996561 10.000000000000236
    vertex -2.1053326880780013e-15 -3.000000000000041 4.885502999999989
  endloop
endfacet
facet normal -1.0 6.617259416660624e-15 -1.169357331576254e-14
  outer loop
    vertex 5.88809001556001e-14 -1.0999999999996561 10.000000000000236
    vertex -7.511563688485731e-15 16.00027631774039 13.966755532637455
    vertex 1.195289793069302e-13 11.099999999999179 10.000000000000469
  endloop
endfacet
facet normal -1.0 6.617259416660624e-15 -1.169357331576254e-14
  outer loop
    vertex 1.195289793069302e-13 11.099999999999179 10.000000000000469
    vertex -7.511563688485731e-15 16.00027631774039 13.966755532637455
    vertex 1.195289793069302e-13 11.099999999999179 7.900000000000474
  endloop
endfacet
facet normal -1.0 6.617259416660624e-15 -1.169357331576254e-14
  outer loop
    vertex 1.195289793069302e-13 11.099999999999179 7.900000000000474
    vertex -7.511563688485731e-15 16.00027631774039 13.966755532637455
    vertex 5.5178015360745854e-14 13.000184796263186 9.999963765309761
  endloop
endfacet
facet normal -1.0 6.617259416660624e-15 -1.169357331576254e-14
  outer loop
    vertex 1.195289793069302e-13 11.099999999999179 7.900000000000474
    vertex 5.5178015360745854e-14 13.000184796263186 9.999963765309761
    vertex 2.0465470300203772e-13 12.999999999343578 4.899963765309774
  endloop
endfacet
facet normal -1.0 6.617259416660624e-15 -1.169357331576254e-14
  outer loop
    vertex 5.5178015360745854e-14 13.000184796263186 9.999963765309761
    vertex -7.511563688485731e-15 16.00027631774039 13.966755532637455
    vertex 5.094753466749388e-14 13.731770797361662 9.999993886231374
  endloop
endfacet
facet normal -1.0 6.617259416660624e-15 -1.169357331576254e-14
  outer loop
    vertex 5.094753466749388e-14 13.731770797361662 9.999993886231374
    vertex 1.8306199615303732e-13 16.000276319140593 4.935258042861495
    vertex 1.7357251161632114e-13 13.731586001842102 4.935251931532137
  endloop
endfacet
facet normal -1.0 6.617259416660624e-15 -1.169357331576254e-14
  outer loop
    vertex 1.8306199615303732e-13 16.000276319140593 4.935258042861495
    vertex 5.094753466749388e-14 13.731770797361662 9.999993886231374
    vertex -7.511563688485731e-15 16.00027631774039 13.966755532637455
  endloop
endfacet
facet normal -1.0 6.617259416660624e-15 -1.169357331576254e-14
  outer loop
    vertex 1.4099832412739488e-13 9.000000000000528 5.899999999999862
    vertex 2.0465470300203772e-13 12.999999999343578 4.899963765309774
    vertex 1.6637802247032595e-13 9.000000000000497 4.899999999999802
  endloop
endfacet
facet normal -1.0 6.617259416660624e-15 -1.169357331576254e-14
  outer loop
    vertex 2.0465470300203772e-13 12.999999999343578 4.899963765309774
    vertex 1.4099832412739488e-13 9.000000000000528 5.899999999999862
    vertex 1.2407852523210748e-13 10.99999999999918 7.900000000000474
  endloop
endfacet
facet normal -1.0 6.617259416660624e-15 -1.169357331576254e-14
  outer loop
    vertex 2.0465470300203772e-13 12.999999999343578 4.899963765309774
    vertex 1.2407852523210748e-13 10.99999999999918 7.900000000000474
    vertex 1.195289793069302e-13 11.099999999999179 7.900000000000474
  endloop
endfacet
facet normal -1.0 6.617259416660624e-15 -1.169357331576254e-14
  outer loop
    vertex -2.1053326880780013e-15 -3.000000000000041 4.885502999999989
    vertex 5.88809001556001e-14 -1.0999999999996561 7.900000000000239
    vertex 9.023892744153272e-14 1.0000065675293301 4.896375773802621
  endloop
endfacet
facet normal -1.0 6.617259416660624e-15 -1.169357331576254e-14
  outer loop
    vertex 5.88809001556001e-14 -1.0999999999996561 7.900000000000239
    vertex -2.1053326880780013e-15 -3.000000000000041 4.885502999999989
    vertex 5.88809001556001e-14 -1.0999999999996561 10.000000000000236
  endloop
endfacet
facet normal -1.0 6.617259416660624e-15 -1.169357331576254e-14
  outer loop
    vertex 9.023892744153272e-14 1.0000065675293301 4.896375773802621
    vertex 5.88809001556001e-14 -1.0999999999996561 7.900000000000239
    vertex 6.203926261605374e-14 -0.9999999999996563 7.900000000000239
  endloop
endfacet
facet normal -1.0 6.617259416660624e-15 -1.169357331576254e-14
  outer loop
    vertex 9.023892744153272e-14 1.0000065675293301 4.896375773802621
    vertex 6.203926261605374e-14 -0.9999999999996563 7.900000000000239
    vertex 9.023892744153272e-14 1.0000065675293301 5.8999934324709224
  endloop
endfacet
facet normal 1.5690341509461647e-14 0.7071067811865772 0.7071067811865179
  outer loop
    vertex 9.023892744153272e-14 1.0000065675293301 5.8999934324709224
    vertex 15.000000000000034 -1.00000000000013 7.900000000000217
    vertex 15.000000000000028 1.0000065675292031 5.89999343247088
  endloop
endfacet
facet normal 1.5690341509461647e-14 0.7071067811865772 0.7071067811865179
  outer loop
    vertex 15.000000000000034 -1.00000000000013 7.900000000000217
    vertex 9.023892744153272e-14 1.0000065675293301 5.8999934324709224
    vertex 6.203926261605374e-14 -0.9999999999996563 7.900000000000239
  endloop
endfacet
facet normal 4.6945186987096695e-15 3.5060321536366428e-15 -1.0
  outer loop
    vertex 1.195289793069302e-13 11.099999999999179 10.000000000000469
    vertex 15.000000000000032 -1.10000000000013 10.000000000000213
    vertex 5.88809001556001e-14 -1.0999999999996561 10.000000000000236
  endloop
endfacet
facet normal 4.6945186987096695e-15 3.5060321536366428e-15 -1.0
  outer loop
    vertex 15.000000000000032 -1.10000000000013 10.000000000000213
    vertex 1.195289793069302e-13 11.099999999999179 10.000000000000469
    vertex 15.000000000000028 11.099999999999861 10.000000000000213
  endloop
endfacet
facet normal -1.7937848396819124e-15 -0.7071067811867213 0.7071067811863737
  outer loop
    vertex 15.000000000000052 8.999999999999893 5.900000000000242
    vertex 1.2407852523210748e-13 10.99999999999918 7.900000000000474
    vertex 1.4099832412739488e-13 9.000000000000528 5.899999999999862
  endloop
endfacet
facet normal -1.7937848396819124e-15 -0.7071067811867213 0.7071067811863737
  outer loop
    vertex 1.2407852523210748e-13 10.99999999999918 7.900000000000474
    vertex 15.000000000000052 8.999999999999893 5.900000000000242
    vertex 15.000000000000034 10.999999999999861 7.900000000000217
  endloop
endfacet
facet normal 8.47164930798768e-15 1.0 -9.116034796840013e-30
  outer loop
    vertex 9.023892744153272e-14 1.0000065675293301 4.896375773802621
    vertex 15.000000000000028 1.0000065675292031 5.89999343247088
    vertex 15.000000000000027 1.0000065675292031 4.896375773802579
  endloop
endfacet
facet normal 8.47164930798768e-15 1.0 -9.116034796840013e-30
  outer loop
    vertex 15.000000000000028 1.0000065675292031 5.89999343247088
    vertex 9.023892744153272e-14 1.0000065675293301 4.896375773802621
    vertex 9.023892744153272e-14 1.0000065675293301 5.8999934324709224
  endloop
endfacet
facet normal -4.229949723821947e-14 -1.0 2.9609648066750065e-14
  outer loop
    vertex 15.000000000000076 8.999999999999863 4.900000000000182
    vertex 1.4099832412739488e-13 9.000000000000528 5.899999999999862
    vertex 1.6637802247032595e-13 9.000000000000497 4.899999999999802
  endloop
endfacet
facet normal -4.229949723821947e-14 -1.0 2.9609648066750065e-14
  outer loop
    vertex 1.4099832412739488e-13 9.000000000000528 5.899999999999862
    vertex 15.000000000000076 8.999999999999863 4.900000000000182
    vertex 15.000000000000052 8.999999999999893 5.900000000000242
  endloop
endfacet
facet normal -5.663432685783657e-15 -1.0 -5.031226756658548e-15
  outer loop
    vertex 14.999999999999998 -3.0000000000001674 4.885503000000201
    vertex -3.64245670662434e-15 -3.0000000000001084 10.000000000000188
    vertex -2.1053326880780013e-15 -3.000000000000041 4.885502999999989
  endloop
endfacet
facet normal -5.663432685783657e-15 -1.0 -5.031226756658548e-15
  outer loop
    vertex -3.64245670662434e-15 -3.0000000000001084 10.000000000000188
    vertex 14.999999999999998 -3.0000000000001674 4.885503000000201
    vertex 14.999999999999993 -3.0000000000001514 10.000000000000204
  endloop
endfacet
facet normal 3.158362460453651e-14 1.0 -2.903188129233043e-30
  outer loop
    vertex 5.88809001556001e-14 -1.0999999999996561 7.900000000000239
    vertex 15.000000000000032 -1.10000000000013 10.000000000000213
    vertex 15.000000000000032 -1.10000000000013 7.900000000000217
  endloop
endfacet
facet normal 3.158362460453651e-14 1.0 -2.903188129233043e-30
  outer loop
    vertex 15.000000000000032 -1.10000000000013 10.000000000000213
    vertex 5.88809001556001e-14 -1.0999999999996561 7.900000000000239
    vertex 5.88809001556001e-14 -1.0999999999996561 10.000000000000236
  endloop
endfacet
facet normal 1.5039821240255484e-15 -4.4598018687923343e-29 1.0
  outer loop
    vertex 15.000000000000032 -1.10000000000013 7.900000000000217
    vertex 6.203926261605374e-14 -0.9999999999996563 7.900000000000239
    vertex 5.88809001556001e-14 -1.0999999999996561 7.900000000000239
  endloop
endfacet
facet normal 1.5039821240255484e-15 -4.4598018687923343e-29 1.0
  outer loop
    vertex 6.203926261605374e-14 -0.9999999999996563 7.900000000000239
    vertex 15.000000000000032 -1.10000000000013 7.900000000000217
    vertex 15.000000000000034 -1.00000000000013 7.900000000000217
  endloop
endfacet
facet normal 4.549545925177302e-14 -1.0 1.8092331820123362e-29
  outer loop
    vertex 15.000000000000028 11.099999999999861 10.000000000000213
    vertex 1.195289793069302e-13 11.099999999999179 7.900000000000474
    vertex 15.000000000000028 11.099999999999861 7.900000000000217
  endloop
endfacet
facet normal 4.549545925177302e-14 -1.0 1.8092331820123362e-29
  outer loop
    vertex 1.195289793069302e-13 11.099999999999179 7.900000000000474
    vertex 15.000000000000028 11.099999999999861 10.000000000000213
    vertex 1.195289793069302e-13 11.099999999999179 10.000000000000469
  endloop
endfacet
facet normal 1.710779666079068e-14 7.964193976887443e-28 1.0
  outer loop
    vertex 1.2407852523210748e-13 10.99999999999918 7.900000000000474
    vertex 15.000000000000028 11.099999999999861 7.900000000000217
    vertex 1.195289793069302e-13 11.099999999999179 7.900000000000474
  endloop
endfacet
facet normal 1.710779666079068e-14 7.964193976887443e-28 1.0
  outer loop
    vertex 15.000000000000028 11.099999999999861 7.900000000000217
    vertex 1.2407852523210748e-13 10.99999999999918 7.900000000000474
    vertex 15.000000000000034 10.999999999999861 7.900000000000217
  endloop
endfacet
facet normal 5.662950668279286e-15 0.002718178945995832 -0.9999963057447852
  outer loop
    vertex 9.023892744153272e-14 1.0000065675293301 4.896375773802621
    vertex 14.999999999999998 -3.0000000000001674 4.885503000000201
    vertex -2.1053326880780013e-15 -3.000000000000041 4.885502999999989
  endloop
endfacet
facet normal 5.662950668279286e-15 0.002718178945995832 -0.9999963057447852
  outer loop
    vertex 14.999999999999998 -3.0000000000001674 4.885503000000201
    vertex 9.023892744153272e-14 1.0000065675293301 4.896375773802621
    vertex 15.000000000000027 1.0000065675292031 4.896375773802579
  endloop
endfacet
facet normal -0.9238795325112873 5.462696076627174e-15 0.38268343236508884
  outer loop
    vertex 8.56251840891797 -3.7315860000001027 7.21529905038732
    vertex 8.452627944162861 -6.0000000000000755 6.9500000000000846
    vertex 8.562518408917953 -6.000000000000078 7.215299050387312
  endloop
endfacet
facet normal -0.9238795325112873 5.462696076627174e-15 0.38268343236508884
  outer loop
    vertex 8.452627944162861 -6.0000000000000755 6.9500000000000846
    vertex 8.56251840891797 -3.7315860000001027 7.21529905038732
    vertex 8.452627944162877 -3.7315860000001013 6.950000000000093
  endloop
endfacet
facet normal -0.9914448613738103 6.949057451441577e-15 0.13052619222005282
  outer loop
    vertex 8.599999999999996 -3.731586000000104 7.500000000000092
    vertex 8.562518408917953 -6.000000000000078 7.215299050387312
    vertex 8.599999999999978 -6.000000000000079 7.500000000000085
  endloop
endfacet
facet normal -0.9914448613738103 6.949057451441577e-15 0.13052619222005282
  outer loop
    vertex 8.562518408917953 -6.000000000000078 7.215299050387312
    vertex 8.599999999999996 -3.731586000000104 7.500000000000092
    vertex 8.56251840891797 -3.7315860000001027 7.21529905038732
  endloop
endfacet
facet normal -0.9914448613738103 7.801561589077186e-15 -0.1305261922200525
  outer loop
    vertex 8.56251840891797 -3.7315860000001053 7.784700949612866
    vertex 8.599999999999978 -6.000000000000079 7.500000000000085
    vertex 8.562518408917953 -6.00000000000008 7.7847009496128585
  endloop
endfacet
facet normal -0.9914448613738103 7.801561589077186e-15 -0.1305261922200525
  outer loop
    vertex 8.599999999999978 -6.000000000000079 7.500000000000085
    vertex 8.56251840891797 -3.7315860000001053 7.784700949612866
    vertex 8.599999999999996 -3.731586000000104 7.500000000000092
  endloop
endfacet
facet normal -0.9238795325112873 8.081609810393084e-15 -0.3826834323650888
  outer loop
    vertex 8.452627944162877 -3.7315860000001053 8.050000000000093
    vertex 8.562518408917953 -6.00000000000008 7.7847009496128585
    vertex 8.452627944162861 -6.00000000000008 8.050000000000086
  endloop
endfacet
facet normal -0.9238795325112873 8.081609810393084e-15 -0.3826834323650888
  outer loop
    vertex 8.562518408917953 -6.00000000000008 7.7847009496128585
    vertex 8.452627944162877 -3.7315860000001053 8.050000000000093
    vertex 8.56251840891797 -3.7315860000001053 7.784700949612866
  endloop
endfacet
facet normal -0.7933533402912349 7.808186948918193e-15 -0.608761429008721
  outer loop
    vertex 8.27781745930518 -6.000000000000079 8.277817459305288
    vertex 8.452627944162877 -3.7315860000001053 8.050000000000093
    vertex 8.452627944162861 -6.00000000000008 8.050000000000086
  endloop
endfacet
facet normal -0.7933533402912349 7.808186948918193e-15 -0.608761429008721
  outer loop
    vertex 8.452627944162877 -3.7315860000001053 8.050000000000093
    vertex 8.27781745930518 -6.000000000000079 8.277817459305288
    vertex 8.277817459305197 -3.731586000000104 8.277817459305295
  endloop
endfacet
facet normal -0.6087614290087179 7.005730795918683e-15 -0.7933533402912374
  outer loop
    vertex 8.049999999999994 -3.731586000000104 8.452627944162975
    vertex 8.27781745930518 -6.000000000000079 8.277817459305288
    vertex 8.049999999999978 -6.000000000000078 8.452627944162968
  endloop
endfacet
facet normal -0.6087614290087179 7.005730795918683e-15 -0.7933533402912374
  outer loop
    vertex 8.27781745930518 -6.000000000000079 8.277817459305288
    vertex 8.049999999999994 -3.731586000000104 8.452627944162975
    vertex 8.277817459305197 -3.731586000000104 8.277817459305295
  endloop
endfacet
facet normal -0.38268343236508884 5.726417203672295e-15 -0.9238795325112873
  outer loop
    vertex 7.784700949612767 -3.7315860000001013 8.562518408918068
    vertex 8.049999999999978 -6.000000000000078 8.452627944162968
    vertex 7.78470094961275 -6.000000000000076 8.562518408918061
  endloop
endfacet
facet normal -0.38268343236508884 5.726417203672295e-15 -0.9238795325112873
  outer loop
    vertex 8.049999999999978 -6.000000000000078 8.452627944162968
    vertex 7.784700949612767 -3.7315860000001013 8.562518408918068
    vertex 8.049999999999994 -3.731586000000104 8.452627944162975
  endloop
endfacet
facet normal -0.13052619222005313 4.054665299141422e-15 -0.9914448613738103
  outer loop
    vertex 7.499999999999995 -3.7315860000001 8.600000000000092
    vertex 7.78470094961275 -6.000000000000076 8.562518408918061
    vertex 7.499999999999978 -6.000000000000075 8.600000000000085
  endloop
endfacet
facet normal -0.13052619222005313 4.054665299141422e-15 -0.9914448613738103
  outer loop
    vertex 7.78470094961275 -6.000000000000076 8.562518408918061
    vertex 7.499999999999995 -3.7315860000001 8.600000000000092
    vertex 7.784700949612767 -3.7315860000001013 8.562518408918068
  endloop
endfacet
facet normal 0.13052619222005246 2.108215690403836e-15 -0.9914448613738103
  outer loop
    vertex 7.215299050387221 -3.731586000000097 8.562518408918068
    vertex 7.499999999999978 -6.000000000000075 8.600000000000085
    vertex 7.2152990503872045 -6.000000000000071 8.562518408918061
  endloop
endfacet
facet normal 0.13052619222005246 2.108215690403836e-15 -0.9914448613738103
  outer loop
    vertex 7.499999999999978 -6.000000000000075 8.600000000000085
    vertex 7.215299050387221 -3.731586000000097 8.562518408918068
    vertex 7.499999999999995 -3.7315860000001 8.600000000000092
  endloop
endfacet
facet normal 0.3826834323650888 1.7667518580160727e-17 -0.9238795325112873
  outer loop
    vertex 6.949999999999994 -3.731586000000094 8.452627944162975
    vertex 7.2152990503872045 -6.000000000000071 8.562518408918061
    vertex 6.949999999999977 -6.000000000000069 8.452627944162968
  endloop
endfacet
facet normal 0.3826834323650888 1.7667518580160727e-17 -0.9238795325112873
  outer loop
    vertex 7.2152990503872045 -6.000000000000071 8.562518408918061
    vertex 6.949999999999994 -3.731586000000094 8.452627944162975
    vertex 7.215299050387221 -3.731586000000097 8.562518408918068
  endloop
endfacet
facet normal 0.608761429008721 -2.0730265807194572e-15 -0.7933533402912348
  outer loop
    vertex 6.722182540694791 -3.7315860000000916 8.277817459305295
    vertex 6.949999999999977 -6.000000000000069 8.452627944162968
    vertex 6.722182540694774 -6.000000000000067 8.277817459305288
  endloop
endfacet
facet normal 0.608761429008721 -2.0730265807194572e-15 -0.7933533402912348
  outer loop
    vertex 6.949999999999977 -6.000000000000069 8.452627944162968
    vertex 6.722182540694791 -3.7315860000000916 8.277817459305295
    vertex 6.949999999999994 -3.731586000000094 8.452627944162975
  endloop
endfacet
facet normal 0.7933533402912355 -4.02138724694934e-15 -0.6087614290087202
  outer loop
    vertex 6.547372055837094 -6.000000000000065 8.050000000000086
    vertex 6.722182540694791 -3.7315860000000916 8.277817459305295
    vertex 6.722182540694774 -6.000000000000067 8.277817459305288
  endloop
endfacet
facet normal 0.7933533402912355 -4.02138724694934e-15 -0.6087614290087202
  outer loop
    vertex 6.722182540694791 -3.7315860000000916 8.277817459305295
    vertex 6.547372055837094 -6.000000000000065 8.050000000000086
    vertex 6.547372055837111 -3.7315860000000898 8.050000000000093
  endloop
endfacet
facet normal 0.9238795325112878 -5.7008658011710544e-15 -0.382683432365087
  outer loop
    vertex 6.437481591082002 -6.000000000000062 7.784700949612857
    vertex 6.547372055837111 -3.7315860000000898 8.050000000000093
    vertex 6.547372055837094 -6.000000000000065 8.050000000000086
  endloop
endfacet
facet normal 0.9238795325112878 -5.7008658011710544e-15 -0.382683432365087
  outer loop
    vertex 6.547372055837111 -3.7315860000000898 8.050000000000093
    vertex 6.437481591082002 -6.000000000000062 7.784700949612857
    vertex 6.437481591082019 -3.731586000000087 7.784700949612864
  endloop
endfacet
facet normal 0.9914448613738103 -6.989866697675841e-15 -0.13052619222005316
  outer loop
    vertex 6.399999999999977 -6.000000000000061 7.500000000000085
    vertex 6.437481591082019 -3.731586000000087 7.784700949612864
    vertex 6.437481591082002 -6.000000000000062 7.784700949612857
  endloop
endfacet
facet normal 0.9914448613738103 -6.989866697675841e-15 -0.13052619222005316
  outer loop
    vertex 6.437481591082019 -3.731586000000087 7.784700949612864
    vertex 6.399999999999977 -6.000000000000061 7.500000000000085
    vertex 6.399999999999994 -3.731586000000086 7.500000000000092
  endloop
endfacet
facet normal 0.9914448613738103 -7.842639807647643e-15 0.13052619222005282
  outer loop
    vertex 6.437481591082002 -6.00000000000006 7.215299050387312
    vertex 6.399999999999994 -3.731586000000086 7.500000000000092
    vertex 6.399999999999977 -6.000000000000061 7.500000000000085
  endloop
endfacet
facet normal 0.9914448613738103 -7.842639807647643e-15 0.13052619222005282
  outer loop
    vertex 6.399999999999994 -3.731586000000086 7.500000000000092
    vertex 6.437481591082002 -6.00000000000006 7.215299050387312
    vertex 6.437481591082019 -3.731586000000086 7.21529905038732
  endloop
endfacet
facet normal 0.9238795325112873 -8.319602615287318e-15 0.38268343236508884
  outer loop
    vertex 6.547372055837111 -3.731586000000086 6.950000000000093
    vertex 6.437481591082002 -6.00000000000006 7.215299050387312
    vertex 6.547372055837094 -6.00000000000006 6.9500000000000846
  endloop
endfacet
facet normal 0.9238795325112873 -8.319602615287318e-15 0.38268343236508884
  outer loop
    vertex 6.437481591082002 -6.00000000000006 7.215299050387312
    vertex 6.547372055837111 -3.731586000000086 6.950000000000093
    vertex 6.437481591082019 -3.731586000000086 7.21529905038732
  endloop
endfacet
facet normal 0.7933533402912332 -8.182267486925068e-15 0.6087614290087233
  outer loop
    vertex 6.722182540694792 -3.731586000000086 6.722182540694891
    vertex 6.547372055837094 -6.00000000000006 6.9500000000000846
    vertex 6.722182540694775 -6.000000000000061 6.722182540694883
  endloop
endfacet
facet normal 0.7933533402912332 -8.182267486925068e-15 0.6087614290087233
  outer loop
    vertex 6.547372055837094 -6.00000000000006 6.9500000000000846
    vertex 6.722182540694792 -3.731586000000086 6.722182540694891
    vertex 6.547372055837111 -3.731586000000086 6.950000000000093
  endloop
endfacet
facet normal 0.6087614290087233 -7.501443737172928e-15 0.7933533402912332
  outer loop
    vertex 6.949999999999977 -6.000000000000061 6.547372055837202
    vertex 6.722182540694792 -3.731586000000086 6.722182540694891
    vertex 6.722182540694775 -6.000000000000061 6.722182540694883
  endloop
endfacet
facet normal 0.6087614290087233 -7.501443737172928e-15 0.7933533402912332
  outer loop
    vertex 6.722182540694792 -3.731586000000086 6.722182540694891
    vertex 6.949999999999977 -6.000000000000061 6.547372055837202
    vertex 6.949999999999994 -3.731586000000087 6.54737205583721
  endloop
endfacet
facet normal 0.3826834323650889 -6.298289222537944e-15 0.9238795325112871
  outer loop
    vertex 7.2152990503872045 -6.000000000000064 6.4374815910821095
    vertex 6.949999999999994 -3.731586000000087 6.54737205583721
    vertex 6.949999999999977 -6.000000000000061 6.547372055837202
  endloop
endfacet
facet normal 0.3826834323650889 -6.298289222537944e-15 0.9238795325112871
  outer loop
    vertex 6.949999999999994 -3.731586000000087 6.54737205583721
    vertex 7.2152990503872045 -6.000000000000064 6.4374815910821095
    vertex 7.215299050387221 -3.7315860000000884 6.4374815910821175
  endloop
endfacet
facet normal 0.13052619222005246 -4.670138682626841e-15 0.9914448613738103
  outer loop
    vertex 7.499999999999978 -6.000000000000066 6.400000000000084
    vertex 7.215299050387221 -3.7315860000000884 6.4374815910821175
    vertex 7.2152990503872045 -6.000000000000064 6.4374815910821095
  endloop
endfacet
facet normal 0.13052619222005246 -4.670138682626841e-15 0.9914448613738103
  outer loop
    vertex 7.215299050387221 -3.7315860000000884 6.4374815910821175
    vertex 7.499999999999978 -6.000000000000066 6.400000000000084
    vertex 7.499999999999995 -3.7315860000000916 6.400000000000093
  endloop
endfacet
facet normal -0.13052619222005246 -2.723958046225453e-15 0.9914448613738103
  outer loop
    vertex 7.784700949612751 -6.000000000000068 6.4374815910821095
    vertex 7.499999999999995 -3.7315860000000916 6.400000000000093
    vertex 7.499999999999978 -6.000000000000066 6.400000000000084
  endloop
endfacet
facet normal -0.13052619222005246 -2.723958046225453e-15 0.9914448613738103
  outer loop
    vertex 7.499999999999995 -3.7315860000000916 6.400000000000093
    vertex 7.784700949612751 -6.000000000000068 6.4374815910821095
    vertex 7.784700949612768 -3.731586000000094 6.4374815910821175
  endloop
endfacet
facet normal -0.3826834323650887 -5.9178671240767655e-16 0.9238795325112873
  outer loop
    vertex 8.049999999999978 -6.000000000000071 6.547372055837202
    vertex 7.784700949612768 -3.731586000000094 6.4374815910821175
    vertex 7.784700949612751 -6.000000000000068 6.4374815910821095
  endloop
endfacet
facet normal -0.3826834323650887 -5.9178671240767655e-16 0.9238795325112873
  outer loop
    vertex 7.784700949612768 -3.731586000000094 6.4374815910821175
    vertex 8.049999999999978 -6.000000000000071 6.547372055837202
    vertex 8.049999999999995 -3.7315860000000955 6.54737205583721
  endloop
endfacet
facet normal -0.6087614290087233 1.5796360371017243e-15 0.7933533402912331
  outer loop
    vertex 8.27781745930518 -6.000000000000074 6.722182540694883
    vertex 8.049999999999995 -3.7315860000000955 6.54737205583721
    vertex 8.049999999999978 -6.000000000000071 6.547372055837202
  endloop
endfacet
facet normal -0.6087614290087233 1.5796360371017243e-15 0.7933533402912331
  outer loop
    vertex 8.049999999999995 -3.7315860000000955 6.54737205583721
    vertex 8.27781745930518 -6.000000000000074 6.722182540694883
    vertex 8.277817459305197 -3.731586000000098 6.722182540694891
  endloop
endfacet
facet normal -0.7933533402912331 3.647306708942432e-15 0.6087614290087233
  outer loop
    vertex 8.452627944162877 -3.7315860000001013 6.950000000000093
    vertex 8.27781745930518 -6.000000000000074 6.722182540694883
    vertex 8.452627944162861 -6.0000000000000755 6.9500000000000846
  endloop
endfacet
facet normal -0.7933533402912331 3.647306708942432e-15 0.6087614290087233
  outer loop
    vertex 8.27781745930518 -6.000000000000074 6.722182540694883
    vertex 8.452627944162877 -3.7315860000001013 6.950000000000093
    vertex 8.277817459305197 -3.731586000000098 6.722182540694891
  endloop
endfacet
facet normal -0.9914448613738103 7.931500249976514e-15 0.13052619222005246
  outer loop
    vertex 8.600000000000147 16.00027631774032 7.500000000000103
    vertex 8.562518408918104 13.731862317740346 7.215299050387329
    vertex 8.60000000000013 13.731862317740346 7.500000000000102
  endloop
endfacet
facet normal -0.9914448613738103 7.931500249976514e-15 0.13052619222005246
  outer loop
    vertex 8.562518408918104 13.731862317740346 7.215299050387329
    vertex 8.600000000000147 16.00027631774032 7.500000000000103
    vertex 8.562518408918123 16.00027631774032 7.21529905038733
  endloop
endfacet
facet normal -0.9238795325112875 7.346564587232389e-15 0.3826834323650879
  outer loop
    vertex 8.562518408918123 16.00027631774032 7.21529905038733
    vertex 8.452627944163012 13.731862317740346 6.950000000000101
    vertex 8.562518408918104 13.731862317740346 7.215299050387329
  endloop
endfacet
facet normal -0.9238795325112875 7.346564587232389e-15 0.3826834323650879
  outer loop
    vertex 8.452627944163012 13.731862317740346 6.950000000000101
    vertex 8.562518408918123 16.00027631774032 7.21529905038733
    vertex 8.45262794416303 16.00027631774032 6.950000000000101
  endloop
endfacet
facet normal -0.7933533402912324 6.219408926627731e-15 0.6087614290087245
  outer loop
    vertex 8.45262794416303 16.00027631774032 6.950000000000101
    vertex 8.27781745930533 13.731862317740347 6.7221825406949
    vertex 8.452627944163012 13.731862317740346 6.950000000000101
  endloop
endfacet
facet normal -0.7933533402912324 6.219408926627731e-15 0.6087614290087245
  outer loop
    vertex 8.27781745930533 13.731862317740347 6.7221825406949
    vertex 8.45262794416303 16.00027631774032 6.950000000000101
    vertex 8.27781745930535 16.000276317740322 6.722182540694901
  endloop
endfacet
facet normal -0.6087614290087194 4.673223968325455e-15 0.793353340291236
  outer loop
    vertex 8.27781745930533 13.731862317740347 6.7221825406949
    vertex 8.050000000000146 16.000276317740326 6.5473720558372195
    vertex 8.050000000000127 13.731862317740351 6.5473720558372195
  endloop
endfacet
facet normal -0.6087614290087194 4.673223968325455e-15 0.793353340291236
  outer loop
    vertex 8.050000000000146 16.000276317740326 6.5473720558372195
    vertex 8.27781745930533 13.731862317740347 6.7221825406949
    vertex 8.27781745930535 16.000276317740322 6.722182540694901
  endloop
endfacet
facet normal -0.38268343236509095 2.805323227833049e-15 0.9238795325112863
  outer loop
    vertex 8.050000000000127 13.731862317740351 6.5473720558372195
    vertex 7.784700949612919 16.000276317740326 6.437481591082127
    vertex 7.7847009496129 13.731862317740351 6.437481591082126
  endloop
endfacet
facet normal -0.38268343236509095 2.805323227833049e-15 0.9238795325112863
  outer loop
    vertex 7.784700949612919 16.000276317740326 6.437481591082127
    vertex 8.050000000000127 13.731862317740351 6.5473720558372195
    vertex 8.050000000000146 16.000276317740326 6.5473720558372195
  endloop
endfacet
facet normal -0.1305261922200531 4.3805688295943617e-16 0.9914448613738103
  outer loop
    vertex 7.7847009496129 13.731862317740351 6.437481591082126
    vertex 7.500000000000147 16.00027631774033 6.4000000000001025
    vertex 7.500000000000129 13.731862317740353 6.400000000000101
  endloop
endfacet
facet normal -0.1305261922200531 4.3805688295943617e-16 0.9914448613738103
  outer loop
    vertex 7.500000000000147 16.00027631774033 6.4000000000001025
    vertex 7.7847009496129 13.731862317740351 6.437481591082126
    vertex 7.784700949612919 16.000276317740326 6.437481591082127
  endloop
endfacet
facet normal 0.1305261922200549 -1.3629339098980754e-15 0.99144486137381
  outer loop
    vertex 7.500000000000129 13.731862317740353 6.400000000000101
    vertex 7.215299050387373 16.000276317740333 6.437481591082127
    vertex 7.2152990503873555 13.731862317740356 6.437481591082127
  endloop
endfacet
facet normal 0.1305261922200549 -1.3629339098980754e-15 0.99144486137381
  outer loop
    vertex 7.215299050387373 16.000276317740333 6.437481591082127
    vertex 7.500000000000129 13.731862317740353 6.400000000000101
    vertex 7.500000000000147 16.00027631774033 6.4000000000001025
  endloop
endfacet
facet normal 0.38268343236508884 -3.091628934050197e-15 0.9238795325112873
  outer loop
    vertex 7.2152990503873555 13.731862317740356 6.437481591082127
    vertex 6.950000000000147 16.000276317740333 6.5473720558372195
    vertex 6.950000000000128 13.73186231774036 6.5473720558372195
  endloop
endfacet
facet normal 0.38268343236508884 -3.091628934050197e-15 0.9238795325112873
  outer loop
    vertex 6.950000000000147 16.000276317740333 6.5473720558372195
    vertex 7.2152990503873555 13.731862317740356 6.437481591082127
    vertex 7.215299050387373 16.000276317740333 6.437481591082127
  endloop
endfacet
facet normal 0.608761429008721 -4.919625628423743e-15 0.7933533402912348
  outer loop
    vertex 6.950000000000128 13.73186231774036 6.5473720558372195
    vertex 6.722182540694943 16.000276317740333 6.722182540694901
    vertex 6.722182540694925 13.73186231774036 6.722182540694901
  endloop
endfacet
facet normal 0.608761429008721 -4.919625628423743e-15 0.7933533402912348
  outer loop
    vertex 6.722182540694943 16.000276317740333 6.722182540694901
    vertex 6.950000000000128 13.73186231774036 6.5473720558372195
    vertex 6.950000000000147 16.000276317740333 6.5473720558372195
  endloop
endfacet
facet normal 0.7933533402912347 -6.600696929548437e-15 0.6087614290087213
  outer loop
    vertex 6.722182540694943 16.000276317740333 6.722182540694901
    vertex 6.547372055837245 13.731862317740362 6.950000000000101
    vertex 6.722182540694925 13.73186231774036 6.722182540694901
  endloop
endfacet
facet normal 0.7933533402912347 -6.600696929548437e-15 0.6087614290087213
  outer loop
    vertex 6.547372055837245 13.731862317740362 6.950000000000101
    vertex 6.722182540694943 16.000276317740333 6.722182540694901
    vertex 6.547372055837264 16.000276317740337 6.950000000000103
  endloop
endfacet
facet normal 0.9238795325112875 -7.58585789925719e-15 0.3826834323650878
  outer loop
    vertex 6.547372055837264 16.000276317740337 6.950000000000103
    vertex 6.437481591082153 13.731862317740362 7.21529905038733
    vertex 6.547372055837245 13.731862317740362 6.950000000000101
  endloop
endfacet
facet normal 0.9238795325112875 -7.58585789925719e-15 0.3826834323650878
  outer loop
    vertex 6.437481591082153 13.731862317740362 7.21529905038733
    vertex 6.547372055837264 16.000276317740337 6.950000000000103
    vertex 6.437481591082172 16.000276317740337 7.21529905038733
  endloop
endfacet
facet normal 0.9914448613738103 -8.052198502348352e-15 0.1305261922200528
  outer loop
    vertex 6.437481591082172 16.000276317740337 7.21529905038733
    vertex 6.400000000000128 13.731862317740362 7.500000000000102
    vertex 6.437481591082153 13.731862317740362 7.21529905038733
  endloop
endfacet
facet normal 0.9914448613738103 -8.052198502348352e-15 0.1305261922200528
  outer loop
    vertex 6.400000000000128 13.731862317740362 7.500000000000102
    vertex 6.437481591082172 16.000276317740337 7.21529905038733
    vertex 6.400000000000146 16.000276317740337 7.500000000000103
  endloop
endfacet
facet normal 0.9914448613738103 -7.931500249976514e-15 -0.13052619222005246
  outer loop
    vertex 6.400000000000146 16.000276317740337 7.500000000000103
    vertex 6.437481591082153 13.731862317740362 7.784700949612875
    vertex 6.400000000000128 13.731862317740362 7.500000000000102
  endloop
endfacet
facet normal 0.9914448613738103 -7.931500249976514e-15 -0.13052619222005246
  outer loop
    vertex 6.437481591082153 13.731862317740362 7.784700949612875
    vertex 6.400000000000146 16.000276317740337 7.500000000000103
    vertex 6.437481591082172 16.000276317740337 7.784700949612876
  endloop
endfacet
facet normal 0.9238795325112873 -7.226917931219987e-15 -0.38268343236508884
  outer loop
    vertex 6.437481591082172 16.000276317740337 7.784700949612876
    vertex 6.547372055837245 13.731862317740362 8.050000000000102
    vertex 6.437481591082153 13.731862317740362 7.784700949612875
  endloop
endfacet
facet normal 0.9238795325112873 -7.226917931219987e-15 -0.38268343236508884
  outer loop
    vertex 6.547372055837245 13.731862317740362 8.050000000000102
    vertex 6.437481591082172 16.000276317740337 7.784700949612876
    vertex 6.547372055837264 16.000276317740337 8.050000000000104
  endloop
endfacet
facet normal 0.7933533402912331 -6.0311473908049614e-15 -0.6087614290087233
  outer loop
    vertex 6.547372055837245 13.731862317740362 8.050000000000102
    vertex 6.722182540694945 16.000276317740333 8.277817459305306
    vertex 6.722182540694926 13.73186231774036 8.277817459305304
  endloop
endfacet
facet normal 0.7933533402912331 -6.0311473908049614e-15 -0.6087614290087233
  outer loop
    vertex 6.722182540694945 16.000276317740333 8.277817459305306
    vertex 6.547372055837245 13.731862317740362 8.050000000000102
    vertex 6.547372055837264 16.000276317740337 8.050000000000104
  endloop
endfacet
facet normal 0.6087614290087233 -4.425180634922023e-15 -0.7933533402912331
  outer loop
    vertex 6.722182540694945 16.000276317740333 8.277817459305306
    vertex 6.950000000000128 13.731862317740356 8.452627944162986
    vertex 6.722182540694926 13.73186231774036 8.277817459305304
  endloop
endfacet
facet normal 0.6087614290087233 -4.425180634922023e-15 -0.7933533402912331
  outer loop
    vertex 6.950000000000128 13.731862317740356 8.452627944162986
    vertex 6.722182540694945 16.000276317740333 8.277817459305306
    vertex 6.950000000000147 16.000276317740333 8.452627944162987
  endloop
endfacet
facet normal 0.3826834323650889 -2.5180404991715948e-15 -0.9238795325112873
  outer loop
    vertex 6.950000000000147 16.000276317740333 8.452627944162987
    vertex 7.2152990503873555 13.731862317740356 8.562518408918077
    vertex 6.950000000000128 13.731862317740356 8.452627944162986
  endloop
endfacet
facet normal 0.3826834323650889 -2.5180404991715948e-15 -0.9238795325112873
  outer loop
    vertex 7.2152990503873555 13.731862317740356 8.562518408918077
    vertex 6.950000000000147 16.000276317740333 8.452627944162987
    vertex 7.215299050387373 16.000276317740333 8.562518408918079
  endloop
endfacet
facet normal 0.13052619222005246 -4.3805688295943104e-16 -0.9914448613738103
  outer loop
    vertex 7.215299050387373 16.000276317740333 8.562518408918079
    vertex 7.500000000000129 13.731862317740353 8.600000000000103
    vertex 7.2152990503873555 13.731862317740356 8.562518408918077
  endloop
endfacet
facet normal 0.13052619222005246 -4.3805688295943104e-16 -0.9914448613738103
  outer loop
    vertex 7.500000000000129 13.731862317740353 8.600000000000103
    vertex 7.215299050387373 16.000276317740333 8.562518408918079
    vertex 7.500000000000147 16.00027631774033 8.600000000000104
  endloop
endfacet
facet normal -0.1305261922200525 1.6712262522109314e-15 -0.9914448613738103
  outer loop
    vertex 7.500000000000147 16.00027631774033 8.600000000000104
    vertex 7.784700949612902 13.731862317740351 8.562518408918077
    vertex 7.500000000000129 13.731862317740353 8.600000000000103
  endloop
endfacet
facet normal -0.1305261922200525 1.6712262522109314e-15 -0.9914448613738103
  outer loop
    vertex 7.784700949612902 13.731862317740351 8.562518408918077
    vertex 7.500000000000147 16.00027631774033 8.600000000000104
    vertex 7.784700949612921 16.000276317740326 8.562518408918079
  endloop
endfacet
facet normal -0.3826834323650889 3.666194391373071e-15 -0.9238795325112873
  outer loop
    vertex 7.784700949612921 16.000276317740326 8.562518408918079
    vertex 8.050000000000129 13.731862317740347 8.452627944162986
    vertex 7.784700949612902 13.731862317740351 8.562518408918077
  endloop
endfacet
facet normal -0.3826834323650889 3.666194391373071e-15 -0.9238795325112873
  outer loop
    vertex 8.050000000000129 13.731862317740347 8.452627944162986
    vertex 7.784700949612921 16.000276317740326 8.562518408918079
    vertex 8.050000000000148 16.000276317740322 8.452627944162987
  endloop
endfacet
facet normal -0.6087614290087233 5.41301617204152e-15 -0.7933533402912331
  outer loop
    vertex 8.050000000000148 16.000276317740322 8.452627944162987
    vertex 8.27781745930533 13.731862317740347 8.277817459305304
    vertex 8.050000000000129 13.731862317740347 8.452627944162986
  endloop
endfacet
facet normal -0.6087614290087233 5.41301617204152e-15 -0.7933533402912331
  outer loop
    vertex 8.27781745930533 13.731862317740347 8.277817459305304
    vertex 8.050000000000148 16.000276317740322 8.452627944162987
    vertex 8.27781745930535 16.000276317740322 8.277817459305306
  endloop
endfacet
facet normal -0.7933533402912331 6.7862623421820314e-15 -0.6087614290087233
  outer loop
    vertex 8.27781745930533 13.731862317740347 8.277817459305304
    vertex 8.45262794416303 16.00027631774032 8.050000000000104
    vertex 8.452627944163012 13.731862317740346 8.050000000000102
  endloop
endfacet
facet normal -0.7933533402912331 6.7862623421820314e-15 -0.6087614290087233
  outer loop
    vertex 8.45262794416303 16.00027631774032 8.050000000000104
    vertex 8.27781745930533 13.731862317740347 8.277817459305304
    vertex 8.27781745930535 16.000276317740322 8.277817459305306
  endloop
endfacet
facet normal -0.9238795325112873 7.70550455526959e-15 -0.38268343236508884
  outer loop
    vertex 8.45262794416303 16.00027631774032 8.050000000000104
    vertex 8.562518408918104 13.731862317740346 7.784700949612875
    vertex 8.452627944163012 13.731862317740346 8.050000000000102
  endloop
endfacet
facet normal -0.9238795325112873 7.70550455526959e-15 -0.38268343236508884
  outer loop
    vertex 8.562518408918104 13.731862317740346 7.784700949612875
    vertex 8.45262794416303 16.00027631774032 8.050000000000104
    vertex 8.562518408918123 16.00027631774032 7.784700949612876
  endloop
endfacet
facet normal -0.9914448613738103 8.092962919859917e-15 -0.13052619222005246
  outer loop
    vertex 8.562518408918123 16.00027631774032 7.784700949612876
    vertex 8.60000000000013 13.731862317740346 7.500000000000102
    vertex 8.562518408918104 13.731862317740346 7.784700949612875
  endloop
endfacet
facet normal -0.9914448613738103 8.092962919859917e-15 -0.13052619222005246
  outer loop
    vertex 8.60000000000013 13.731862317740346 7.500000000000102
    vertex 8.562518408918123 16.00027631774032 7.784700949612876
    vertex 8.600000000000147 16.00027631774032 7.500000000000103
  endloop
endfacet
endsolid X-Бегунок-12-Стандарт
