solid Х-Балка-Универсал-12мм-608
facet normal -0.0 -0.7071067811865475 0.7071067811865476
  outer loop
    vertex 50.0 0.0 0.9999999999999999
    vertex 0.0 3.0 3.9999999999999996
    vertex 0.0 0.0 0.9999999999999999
  endloop
endfacet
facet normal -0.0 -0.7071067811865475 0.7071067811865476
  outer loop
    vertex 0.0 3.0 3.9999999999999996
    vertex 50.0 0.0 0.9999999999999999
    vertex 50.0 3.0 3.9999999999999996
  endloop
endfacet
facet normal -0.0 1.0 -0.0
  outer loop
    vertex 0.0 12.0 1.0000000000000009
    vertex 50.0 12.0 -0.9999999999999999
    vertex 0.0 12.0 -0.9999999999999999
  endloop
endfacet
facet normal -0.0 1.0 -0.0
  outer loop
    vertex 50.0 12.0 -0.9999999999999999
    vertex 0.0 12.0 1.0000000000000009
    vertex 50.0 12.0 1.0000000000000009
  endloop
endfacet
facet normal -0.0 0.7071067811865474 0.7071067811865477
  outer loop
    vertex 50.0 9.0 3.9999999999999996
    vertex 0.0 12.0 1.0000000000000009
    vertex 0.0 9.0 3.9999999999999996
  endloop
endfacet
facet normal -0.0 0.7071067811865474 0.7071067811865477
  outer loop
    vertex 0.0 12.0 1.0000000000000009
    vertex 50.0 9.0 3.9999999999999996
    vertex 50.0 12.0 1.0000000000000009
  endloop
endfacet
facet normal 0.0 -1.0 0.0
  outer loop
    vertex 50.0 0.0 0.9999999999999999
    vertex 0.0 0.0 -0.9999999999999999
    vertex 50.0 0.0 -0.9999999999999999
  endloop
endfacet
facet normal 0.0 -1.0 0.0
  outer loop
    vertex 0.0 0.0 -0.9999999999999999
    vertex 50.0 0.0 0.9999999999999999
    vertex 0.0 0.0 0.9999999999999999
  endloop
endfacet
facet normal 0.0 0.0 -1.0
  outer loop
    vertex 50.0 12.0 -0.9999999999999999
    vertex 0.0 0.0 -0.9999999999999999
    vertex 0.0 12.0 -0.9999999999999999
  endloop
endfacet
facet normal 0.0 0.0 -1.0
  outer loop
    vertex 0.0 0.0 -0.9999999999999999
    vertex 50.0 12.0 -0.9999999999999999
    vertex 50.0 0.0 -0.9999999999999999
  endloop
endfacet
facet normal 1.0 0.0 0.0
  outer loop
    vertex 50.0 3.0 7.000000000000001
    vertex 50.0 0.0 12.0
    vertex 50.0 0.0 10.000000000000002
  endloop
endfacet
facet normal 1.0 0.0 0.0
  outer loop
    vertex 50.0 0.0 12.0
    vertex 50.0 3.0 7.000000000000001
    vertex 50.0 3.0 11.000000000000002
  endloop
endfacet
facet normal 1.0 0.0 0.0
  outer loop
    vertex 50.0 3.0 11.000000000000002
    vertex 50.0 3.0 7.000000000000001
    vertex 50.0 3.9999999999999996 10.000000000000002
  endloop
endfacet
facet normal 1.0 0.0 0.0
  outer loop
    vertex 50.0 12.0 -0.9999999999999999
    vertex 50.0 0.0 0.9999999999999999
    vertex 50.0 0.0 -0.9999999999999999
  endloop
endfacet
facet normal 1.0 0.0 0.0
  outer loop
    vertex 50.0 0.0 0.9999999999999999
    vertex 50.0 12.0 -0.9999999999999999
    vertex 50.0 3.0 3.9999999999999996
  endloop
endfacet
facet normal 1.0 0.0 0.0
  outer loop
    vertex 50.0 3.0 3.9999999999999996
    vertex 50.0 12.0 -0.9999999999999999
    vertex 50.0 3.0 7.000000000000001
  endloop
endfacet
facet normal 1.0 0.0 0.0
  outer loop
    vertex 50.0 3.0 7.000000000000001
    vertex 50.0 12.0 -0.9999999999999999
    vertex 50.0 3.9999999999999996 10.000000000000002
  endloop
endfacet
facet normal 1.0 0.0 0.0
  outer loop
    vertex 50.0 3.9999999999999996 10.000000000000002
    vertex 50.0 12.0 -0.9999999999999999
    vertex 50.0 9.0 3.9999999999999996
  endloop
endfacet
facet normal 1.0 0.0 0.0
  outer loop
    vertex 50.0 3.9999999999999996 10.000000000000002
    vertex 50.0 9.0 3.9999999999999996
    vertex 50.0 8.0 10.000000000000002
  endloop
endfacet
facet normal 1.0 0.0 0.0
  outer loop
    vertex 50.0 9.0 3.9999999999999996
    vertex 50.0 12.0 -0.9999999999999999
    vertex 50.0 12.0 1.0000000000000009
  endloop
endfacet
facet normal 1.0 0.0 0.0
  outer loop
    vertex 50.0 9.0 3.9999999999999996
    vertex 50.0 9.0 11.000000000000002
    vertex 50.0 8.0 10.000000000000002
  endloop
endfacet
facet normal 1.0 0.0 0.0
  outer loop
    vertex 50.0 9.0 11.000000000000002
    vertex 50.0 9.0 3.9999999999999996
    vertex 50.0 9.0 7.000000000000001
  endloop
endfacet
facet normal 1.0 0.0 0.0
  outer loop
    vertex 50.0 9.0 11.000000000000002
    vertex 50.0 9.0 7.000000000000001
    vertex 50.0 12.0 10.000000000000002
  endloop
endfacet
facet normal 1.0 0.0 0.0
  outer loop
    vertex 50.0 9.0 11.000000000000002
    vertex 50.0 12.0 10.000000000000002
    vertex 50.0 9.0 12.0
  endloop
endfacet
facet normal 1.0 0.0 0.0
  outer loop
    vertex 50.0 9.0 12.0
    vertex 50.0 12.0 10.000000000000002
    vertex 50.0 12.0 12.0
  endloop
endfacet
facet normal 1.0 0.0 0.0
  outer loop
    vertex 50.0 3.0 12.0
    vertex 50.0 0.0 12.0
    vertex 50.0 3.0 11.000000000000002
  endloop
endfacet
facet normal -1.0 0.0 0.0
  outer loop
    vertex 0.0 3.9999999999999996 10.000000000000002
    vertex 0.0 3.0 10.000000000000002
    vertex 0.0 3.0 11.000000000000002
  endloop
endfacet
facet normal -1.0 0.0 0.0
  outer loop
    vertex 0.0 9.0 11.000000000000002
    vertex 0.0 8.999999999999998 10.000000000000002
    vertex 0.0 8.0 10.000000000000002
  endloop
endfacet
facet normal 0.0 0.7071067811865476 -0.7071067811865476
  outer loop
    vertex 0.0 12.0 10.000000000000002
    vertex 50.0 9.0 7.000000000000001
    vertex 0.0 9.0 7.000000000000001
  endloop
endfacet
facet normal 0.0 0.7071067811865476 -0.7071067811865476
  outer loop
    vertex 50.0 9.0 7.000000000000001
    vertex 0.0 12.0 10.000000000000002
    vertex 50.0 12.0 10.000000000000002
  endloop
endfacet
facet normal -0.0 -0.0 1.0
  outer loop
    vertex 50.0 0.0 12.0
    vertex 0.0 3.0 12.0
    vertex 0.0 0.0 12.0
  endloop
endfacet
facet normal -0.0 -0.0 1.0
  outer loop
    vertex 0.0 3.0 12.0
    vertex 50.0 0.0 12.0
    vertex 50.0 3.0 12.0
  endloop
endfacet
facet normal -0.0 1.0 -0.0
  outer loop
    vertex 0.0 9.0 7.000000000000001
    vertex 50.0 9.0 3.9999999999999996
    vertex 0.0 9.0 3.9999999999999996
  endloop
endfacet
facet normal -0.0 1.0 -0.0
  outer loop
    vertex 50.0 9.0 3.9999999999999996
    vertex 0.0 9.0 7.000000000000001
    vertex 50.0 9.0 7.000000000000001
  endloop
endfacet
facet normal 0.0 1.0 0.0
  outer loop
    vertex 0.0 12.0 12.0
    vertex 50.0 12.0 10.000000000000002
    vertex 0.0 12.0 10.000000000000002
  endloop
endfacet
facet normal 0.0 1.0 0.0
  outer loop
    vertex 50.0 12.0 10.000000000000002
    vertex 0.0 12.0 12.0
    vertex 50.0 12.0 12.0
  endloop
endfacet
facet normal -1.0 0.0 0.0
  outer loop
    vertex 0.0 3.0 12.0
    vertex 0.0 0.0 10.000000000000002
    vertex 0.0 0.0 12.0
  endloop
endfacet
facet normal -1.0 0.0 0.0
  outer loop
    vertex 0.0 0.0 10.000000000000002
    vertex 0.0 3.0 12.0
    vertex 0.0 3.0 11.000000000000002
  endloop
endfacet
facet normal -1.0 0.0 0.0
  outer loop
    vertex 0.0 3.0 11.000000000000002
    vertex 0.0 3.0 7.000000000000001
    vertex 0.0 0.0 10.000000000000002
  endloop
endfacet
facet normal -1.0 0.0 0.0
  outer loop
    vertex 0.0 3.0 7.000000000000001
    vertex 0.0 3.0 11.000000000000002
    vertex 0.0 3.0 10.000000000000002
  endloop
endfacet
facet normal -1.0 0.0 0.0
  outer loop
    vertex 0.0 3.0 7.000000000000001
    vertex 0.0 3.0 10.000000000000002
    vertex 0.0 3.9999999999999996 10.000000000000002
  endloop
endfacet
facet normal -1.0 0.0 0.0
  outer loop
    vertex 0.0 3.0 7.000000000000001
    vertex 0.0 3.9999999999999996 10.000000000000002
    vertex 0.0 3.0 3.9999999999999996
  endloop
endfacet
facet normal -1.0 0.0 0.0
  outer loop
    vertex 0.0 12.0 12.0
    vertex 0.0 9.0 11.000000000000002
    vertex 0.0 8.999999999999998 12.0
  endloop
endfacet
facet normal -1.0 0.0 0.0
  outer loop
    vertex 0.0 9.0 11.000000000000002
    vertex 0.0 12.0 12.0
    vertex 0.0 9.0 7.000000000000001
  endloop
endfacet
facet normal -1.0 0.0 0.0
  outer loop
    vertex 0.0 9.0 7.000000000000001
    vertex 0.0 12.0 12.0
    vertex 0.0 12.0 10.000000000000002
  endloop
endfacet
facet normal -1.0 0.0 0.0
  outer loop
    vertex 0.0 3.0 3.9999999999999996
    vertex 0.0 0.0 -0.9999999999999999
    vertex 0.0 0.0 0.9999999999999999
  endloop
endfacet
facet normal -1.0 0.0 0.0
  outer loop
    vertex 0.0 0.0 -0.9999999999999999
    vertex 0.0 3.0 3.9999999999999996
    vertex 0.0 12.0 -0.9999999999999999
  endloop
endfacet
facet normal -1.0 0.0 0.0
  outer loop
    vertex 0.0 12.0 -0.9999999999999999
    vertex 0.0 3.0 3.9999999999999996
    vertex 0.0 3.9999999999999996 10.000000000000002
  endloop
endfacet
facet normal -1.0 0.0 0.0
  outer loop
    vertex 0.0 12.0 -0.9999999999999999
    vertex 0.0 3.9999999999999996 10.000000000000002
    vertex 0.0 9.0 3.9999999999999996
  endloop
endfacet
facet normal -1.0 0.0 0.0
  outer loop
    vertex 0.0 9.0 3.9999999999999996
    vertex 0.0 3.9999999999999996 10.000000000000002
    vertex 0.0 8.0 10.000000000000002
  endloop
endfacet
facet normal -1.0 0.0 0.0
  outer loop
    vertex 0.0 9.0 3.9999999999999996
    vertex 0.0 8.0 10.000000000000002
    vertex 0.0 8.999999999999998 10.000000000000002
  endloop
endfacet
facet normal -1.0 0.0 0.0
  outer loop
    vertex 0.0 9.0 3.9999999999999996
    vertex 0.0 8.999999999999998 10.000000000000002
    vertex 0.0 9.0 11.000000000000002
  endloop
endfacet
facet normal -1.0 0.0 0.0
  outer loop
    vertex 0.0 9.0 3.9999999999999996
    vertex 0.0 9.0 11.000000000000002
    vertex 0.0 9.0 7.000000000000001
  endloop
endfacet
facet normal -1.0 0.0 0.0
  outer loop
    vertex 0.0 12.0 -0.9999999999999999
    vertex 0.0 9.0 3.9999999999999996
    vertex 0.0 12.0 1.0000000000000009
  endloop
endfacet
facet normal -0.0 -0.7071067811865476 -0.7071067811865476
  outer loop
    vertex 50.0 0.0 10.000000000000002
    vertex 0.0 3.0 7.000000000000001
    vertex 50.0 3.0 7.000000000000001
  endloop
endfacet
facet normal -0.0 -0.7071067811865476 -0.7071067811865476
  outer loop
    vertex 0.0 3.0 7.000000000000001
    vertex 50.0 0.0 10.000000000000002
    vertex 0.0 0.0 10.000000000000002
  endloop
endfacet
facet normal 0.0 -1.0 0.0
  outer loop
    vertex 50.0 3.0 7.000000000000001
    vertex 0.0 3.0 3.9999999999999996
    vertex 50.0 3.0 3.9999999999999996
  endloop
endfacet
facet normal 0.0 -1.0 0.0
  outer loop
    vertex 0.0 3.0 3.9999999999999996
    vertex 50.0 3.0 7.000000000000001
    vertex 0.0 3.0 7.000000000000001
  endloop
endfacet
facet normal 0.0 -1.0 0.0
  outer loop
    vertex 50.0 0.0 12.0
    vertex 0.0 0.0 10.000000000000002
    vertex 50.0 0.0 10.000000000000002
  endloop
endfacet
facet normal 0.0 -1.0 0.0
  outer loop
    vertex 0.0 0.0 10.000000000000002
    vertex 50.0 0.0 12.0
    vertex 0.0 0.0 12.0
  endloop
endfacet
facet normal -0.0 -0.0 1.0
  outer loop
    vertex 0.0 3.9999999999999996 10.000000000000002
    vertex 24.560007623325713 4.357926095308584 10.000000000000002
    vertex 0.0 8.0 10.000000000000002
  endloop
endfacet
facet normal -0.0 -0.0 1.0
  outer loop
    vertex 24.560007623325713 4.357926095308584 10.000000000000002
    vertex 0.0 3.9999999999999996 10.000000000000002
    vertex 25.0 4.300000000000001 10.000000000000002
  endloop
endfacet
facet normal -0.0 -0.0 1.0
  outer loop
    vertex 25.0 4.300000000000001 10.000000000000002
    vertex 0.0 3.9999999999999996 10.000000000000002
    vertex 50.0 3.9999999999999996 10.000000000000002
  endloop
endfacet
facet normal -0.0 -0.0 1.0
  outer loop
    vertex 0.0 8.0 10.000000000000002
    vertex 24.560007623325713 4.357926095308584 10.000000000000002
    vertex 24.150000000000002 4.527756813566454 10.000000000000002
  endloop
endfacet
facet normal -0.0 -0.0 1.0
  outer loop
    vertex 0.0 8.0 10.000000000000002
    vertex 24.150000000000002 4.527756813566454 10.000000000000002
    vertex 23.797918471982868 4.79791847198287 10.000000000000002
  endloop
endfacet
facet normal -0.0 -0.0 1.0
  outer loop
    vertex 0.0 8.0 10.000000000000002
    vertex 23.797918471982868 4.79791847198287 10.000000000000002
    vertex 23.527756813566455 5.15 10.000000000000002
  endloop
endfacet
facet normal -0.0 -0.0 1.0
  outer loop
    vertex 0.0 8.0 10.000000000000002
    vertex 23.527756813566455 5.15 10.000000000000002
    vertex 23.357926095308585 5.560007623325715 10.000000000000002
  endloop
endfacet
facet normal -0.0 -0.0 1.0
  outer loop
    vertex 0.0 8.0 10.000000000000002
    vertex 23.357926095308585 5.560007623325715 10.000000000000002
    vertex 23.3 6.0 10.000000000000002
  endloop
endfacet
facet normal -0.0 -0.0 1.0
  outer loop
    vertex 25.0 4.300000000000001 10.000000000000002
    vertex 50.0 3.9999999999999996 10.000000000000002
    vertex 25.439992376674283 4.357926095308585 10.000000000000002
  endloop
endfacet
facet normal -0.0 -0.0 1.0
  outer loop
    vertex 25.439992376674283 4.357926095308585 10.000000000000002
    vertex 50.0 3.9999999999999996 10.000000000000002
    vertex 25.849999999999998 4.527756813566455 10.000000000000002
  endloop
endfacet
facet normal -0.0 -0.0 1.0
  outer loop
    vertex 25.849999999999998 4.527756813566455 10.000000000000002
    vertex 50.0 3.9999999999999996 10.000000000000002
    vertex 26.202081528017132 4.79791847198287 10.000000000000002
  endloop
endfacet
facet normal -0.0 -0.0 1.0
  outer loop
    vertex 26.202081528017132 4.79791847198287 10.000000000000002
    vertex 50.0 3.9999999999999996 10.000000000000002
    vertex 26.472243186433545 5.150000000000002 10.000000000000002
  endloop
endfacet
facet normal -0.0 -0.0 1.0
  outer loop
    vertex 26.472243186433545 5.150000000000002 10.000000000000002
    vertex 50.0 3.9999999999999996 10.000000000000002
    vertex 26.64207390469142 5.560007623325716 10.000000000000002
  endloop
endfacet
facet normal -0.0 -0.0 1.0
  outer loop
    vertex 26.64207390469142 5.560007623325716 10.000000000000002
    vertex 50.0 3.9999999999999996 10.000000000000002
    vertex 26.699999999999996 6.0 10.000000000000002
  endloop
endfacet
facet normal -0.0 -0.0 1.0
  outer loop
    vertex 0.0 8.0 10.000000000000002
    vertex 25.0 7.7 10.000000000000002
    vertex 50.0 8.0 10.000000000000002
  endloop
endfacet
facet normal -0.0 -0.0 1.0
  outer loop
    vertex 25.0 7.7 10.000000000000002
    vertex 0.0 8.0 10.000000000000002
    vertex 24.560007623325713 7.642073904691415 10.000000000000002
  endloop
endfacet
facet normal -0.0 -0.0 1.0
  outer loop
    vertex 24.560007623325713 7.642073904691415 10.000000000000002
    vertex 0.0 8.0 10.000000000000002
    vertex 24.15 7.472243186433546 10.000000000000002
  endloop
endfacet
facet normal -0.0 -0.0 1.0
  outer loop
    vertex 24.15 7.472243186433546 10.000000000000002
    vertex 0.0 8.0 10.000000000000002
    vertex 23.797918471982868 7.20208152801713 10.000000000000002
  endloop
endfacet
facet normal -0.0 -0.0 1.0
  outer loop
    vertex 23.797918471982868 7.20208152801713 10.000000000000002
    vertex 0.0 8.0 10.000000000000002
    vertex 23.527756813566455 6.8500000000000005 10.000000000000002
  endloop
endfacet
facet normal -0.0 -0.0 1.0
  outer loop
    vertex 23.527756813566455 6.8500000000000005 10.000000000000002
    vertex 0.0 8.0 10.000000000000002
    vertex 23.357926095308585 6.439992376674286 10.000000000000002
  endloop
endfacet
facet normal -0.0 -0.0 1.0
  outer loop
    vertex 23.357926095308585 6.439992376674286 10.000000000000002
    vertex 0.0 8.0 10.000000000000002
    vertex 23.3 6.0 10.000000000000002
  endloop
endfacet
facet normal -0.0 -0.0 1.0
  outer loop
    vertex 50.0 8.0 10.000000000000002
    vertex 25.0 7.7 10.000000000000002
    vertex 25.439992376674283 7.642073904691415 10.000000000000002
  endloop
endfacet
facet normal -0.0 -0.0 1.0
  outer loop
    vertex 50.0 8.0 10.000000000000002
    vertex 25.439992376674283 7.642073904691415 10.000000000000002
    vertex 25.849999999999998 7.472243186433546 10.000000000000002
  endloop
endfacet
facet normal -0.0 -0.0 1.0
  outer loop
    vertex 50.0 8.0 10.000000000000002
    vertex 25.849999999999998 7.472243186433546 10.000000000000002
    vertex 26.202081528017125 7.202081528017132 10.000000000000002
  endloop
endfacet
facet normal -0.0 -0.0 1.0
  outer loop
    vertex 50.0 8.0 10.000000000000002
    vertex 26.202081528017125 7.202081528017132 10.000000000000002
    vertex 26.472243186433545 6.850000000000001 10.000000000000002
  endloop
endfacet
facet normal -0.0 -0.0 1.0
  outer loop
    vertex 50.0 8.0 10.000000000000002
    vertex 26.472243186433545 6.850000000000001 10.000000000000002
    vertex 26.64207390469142 6.439992376674287 10.000000000000002
  endloop
endfacet
facet normal -0.0 -0.0 1.0
  outer loop
    vertex 50.0 8.0 10.000000000000002
    vertex 26.64207390469142 6.439992376674287 10.000000000000002
    vertex 26.699999999999996 6.0 10.000000000000002
  endloop
endfacet
facet normal -0.0 -0.0 1.0
  outer loop
    vertex 50.0 8.0 10.000000000000002
    vertex 26.699999999999996 6.0 10.000000000000002
    vertex 50.0 3.9999999999999996 10.000000000000002
  endloop
endfacet
facet normal 2.349972068789915e-18 1.0 6.626842468911296e-34
  outer loop
    vertex 0.0 3.0 12.0
    vertex 50.0 3.0 11.000000000000002
    vertex 0.0 3.0 11.000000000000002
  endloop
endfacet
facet normal 2.349972068789915e-18 1.0 6.626842468911296e-34
  outer loop
    vertex 50.0 3.0 11.000000000000002
    vertex 0.0 3.0 12.0
    vertex 50.0 3.0 12.0
  endloop
endfacet
facet normal 9.39988827515966e-18 -1.0 -2.6507369875645185e-33
  outer loop
    vertex 50.0 9.0 12.0
    vertex 0.0 9.0 11.000000000000002
    vertex 50.0 9.0 11.000000000000002
  endloop
endfacet
facet normal 9.39988827515966e-18 -1.0 -2.6507369875645185e-33
  outer loop
    vertex 0.0 9.0 11.000000000000002
    vertex 50.0 9.0 12.0
    vertex 0.0 8.999999999999998 12.0
  endloop
endfacet
facet normal -0.0 -0.0 1.0
  outer loop
    vertex 50.0 9.0 12.0
    vertex 0.0 12.0 12.0
    vertex 0.0 8.999999999999998 12.0
  endloop
endfacet
facet normal -0.0 -0.0 1.0
  outer loop
    vertex 0.0 12.0 12.0
    vertex 50.0 9.0 12.0
    vertex 50.0 12.0 12.0
  endloop
endfacet
facet normal -0.0 0.7071067811865475 0.7071067811865477
  outer loop
    vertex 50.0 3.0 11.000000000000002
    vertex 0.0 3.9999999999999996 10.000000000000002
    vertex 0.0 3.0 11.000000000000002
  endloop
endfacet
facet normal -0.0 0.7071067811865475 0.7071067811865477
  outer loop
    vertex 0.0 3.9999999999999996 10.000000000000002
    vertex 50.0 3.0 11.000000000000002
    vertex 50.0 3.9999999999999996 10.000000000000002
  endloop
endfacet
facet normal -0.0 -0.7071067811865476 0.7071067811865476
  outer loop
    vertex 50.0 9.0 11.000000000000002
    vertex 0.0 8.0 10.000000000000002
    vertex 50.0 8.0 10.000000000000002
  endloop
endfacet
facet normal -0.0 -0.7071067811865476 0.7071067811865476
  outer loop
    vertex 0.0 8.0 10.000000000000002
    vertex 50.0 9.0 11.000000000000002
    vertex 0.0 9.0 11.000000000000002
  endloop
endfacet
facet normal -0.0 -0.0 1.0
  outer loop
    vertex 23.357926095308585 5.560007623325715 10.000000000000002
    vertex 23.357926095308585 6.439992376674286 10.000000000000002
    vertex 23.3 6.0 10.000000000000002
  endloop
endfacet
facet normal -0.0 -0.0 1.0
  outer loop
    vertex 23.357926095308585 6.439992376674286 10.000000000000002
    vertex 23.357926095308585 5.560007623325715 10.000000000000002
    vertex 23.527756813566455 5.15 10.000000000000002
  endloop
endfacet
facet normal -0.0 -0.0 1.0
  outer loop
    vertex 23.357926095308585 6.439992376674286 10.000000000000002
    vertex 23.527756813566455 5.15 10.000000000000002
    vertex 23.527756813566455 6.8500000000000005 10.000000000000002
  endloop
endfacet
facet normal -0.0 -0.0 1.0
  outer loop
    vertex 23.527756813566455 6.8500000000000005 10.000000000000002
    vertex 23.527756813566455 5.15 10.000000000000002
    vertex 23.797918471982868 4.79791847198287 10.000000000000002
  endloop
endfacet
facet normal -0.0 -0.0 1.0
  outer loop
    vertex 23.527756813566455 6.8500000000000005 10.000000000000002
    vertex 23.797918471982868 4.79791847198287 10.000000000000002
    vertex 23.797918471982868 7.20208152801713 10.000000000000002
  endloop
endfacet
facet normal -0.0 -0.0 1.0
  outer loop
    vertex 23.797918471982868 7.20208152801713 10.000000000000002
    vertex 23.797918471982868 4.79791847198287 10.000000000000002
    vertex 24.150000000000002 4.527756813566454 10.000000000000002
  endloop
endfacet
facet normal -0.0 -0.0 1.0
  outer loop
    vertex 23.797918471982868 7.20208152801713 10.000000000000002
    vertex 24.150000000000002 4.527756813566454 10.000000000000002
    vertex 24.15 7.472243186433546 10.000000000000002
  endloop
endfacet
facet normal -0.0 -0.0 1.0
  outer loop
    vertex 24.15 7.472243186433546 10.000000000000002
    vertex 24.150000000000002 4.527756813566454 10.000000000000002
    vertex 24.560007623325713 7.642073904691415 10.000000000000002
  endloop
endfacet
facet normal -0.0 -0.0 1.0
  outer loop
    vertex 24.560007623325713 7.642073904691415 10.000000000000002
    vertex 24.150000000000002 4.527756813566454 10.000000000000002
    vertex 24.560007623325713 4.357926095308584 10.000000000000002
  endloop
endfacet
facet normal -0.0 -0.0 1.0
  outer loop
    vertex 24.560007623325713 7.642073904691415 10.000000000000002
    vertex 24.560007623325713 4.357926095308584 10.000000000000002
    vertex 25.0 4.300000000000001 10.000000000000002
  endloop
endfacet
facet normal -0.0 -0.0 1.0
  outer loop
    vertex 24.560007623325713 7.642073904691415 10.000000000000002
    vertex 25.0 4.300000000000001 10.000000000000002
    vertex 25.0 7.7 10.000000000000002
  endloop
endfacet
facet normal -0.0 -0.0 1.0
  outer loop
    vertex 25.0 7.7 10.000000000000002
    vertex 25.0 4.300000000000001 10.000000000000002
    vertex 25.439992376674283 4.357926095308585 10.000000000000002
  endloop
endfacet
facet normal -0.0 -0.0 1.0
  outer loop
    vertex 25.0 7.7 10.000000000000002
    vertex 25.439992376674283 4.357926095308585 10.000000000000002
    vertex 25.439992376674283 7.642073904691415 10.000000000000002
  endloop
endfacet
facet normal -0.0 -0.0 1.0
  outer loop
    vertex 25.439992376674283 7.642073904691415 10.000000000000002
    vertex 25.439992376674283 4.357926095308585 10.000000000000002
    vertex 25.849999999999998 4.527756813566455 10.000000000000002
  endloop
endfacet
facet normal -0.0 -0.0 1.0
  outer loop
    vertex 25.439992376674283 7.642073904691415 10.000000000000002
    vertex 25.849999999999998 4.527756813566455 10.000000000000002
    vertex 25.849999999999998 7.472243186433546 10.000000000000002
  endloop
endfacet
facet normal -0.0 -0.0 1.0
  outer loop
    vertex 25.849999999999998 7.472243186433546 10.000000000000002
    vertex 25.849999999999998 4.527756813566455 10.000000000000002
    vertex 26.202081528017132 4.79791847198287 10.000000000000002
  endloop
endfacet
facet normal -0.0 -0.0 1.0
  outer loop
    vertex 25.849999999999998 7.472243186433546 10.000000000000002
    vertex 26.202081528017132 4.79791847198287 10.000000000000002
    vertex 26.202081528017125 7.202081528017132 10.000000000000002
  endloop
endfacet
facet normal -0.0 -0.0 1.0
  outer loop
    vertex 26.202081528017125 7.202081528017132 10.000000000000002
    vertex 26.202081528017132 4.79791847198287 10.000000000000002
    vertex 26.472243186433545 6.850000000000001 10.000000000000002
  endloop
endfacet
facet normal -0.0 -0.0 1.0
  outer loop
    vertex 26.472243186433545 6.850000000000001 10.000000000000002
    vertex 26.202081528017132 4.79791847198287 10.000000000000002
    vertex 26.472243186433545 5.150000000000002 10.000000000000002
  endloop
endfacet
facet normal -0.0 -0.0 1.0
  outer loop
    vertex 26.472243186433545 6.850000000000001 10.000000000000002
    vertex 26.472243186433545 5.150000000000002 10.000000000000002
    vertex 26.64207390469142 5.560007623325716 10.000000000000002
  endloop
endfacet
facet normal -0.0 -0.0 1.0
  outer loop
    vertex 26.472243186433545 6.850000000000001 10.000000000000002
    vertex 26.64207390469142 5.560007623325716 10.000000000000002
    vertex 26.64207390469142 6.439992376674287 10.000000000000002
  endloop
endfacet
facet normal -0.0 -0.0 1.0
  outer loop
    vertex 26.64207390469142 6.439992376674287 10.000000000000002
    vertex 26.64207390469142 5.560007623325716 10.000000000000002
    vertex 26.699999999999996 6.0 10.000000000000002
  endloop
endfacet
endsolid Х-Балка-Универсал-12мм-608
