solid Переходник-исправление
facet normal 0.0 0.0 -1.0
  outer loop
    vertex -4.171930009000629 4.171930009000631 0.0
    vertex -3.8637033051562715 1.035276180410086 0.0
    vertex -3.999999999999999 0.0 0.0
  endloop
endfacet
facet normal 0.0 0.0 -1.0
  outer loop
    vertex -3.8637033051562715 1.035276180410086 0.0
    vertex -4.171930009000629 4.171930009000631 0.0
    vertex -2.9499999999999957 5.10954988232819 0.0
  endloop
endfacet
facet normal 0.0 0.0 -1.0
  outer loop
    vertex -3.8637033051562715 1.035276180410086 0.0
    vertex -2.9499999999999957 5.10954988232819 0.0
    vertex -3.4641016151377526 2.0000000000000018 0.0
  endloop
endfacet
facet normal 0.0 0.0 -1.0
  outer loop
    vertex -3.4641016151377526 2.0000000000000018 0.0
    vertex -2.9499999999999957 5.10954988232819 0.0
    vertex -2.8284271247461885 2.8284271247461903 0.0
  endloop
endfacet
facet normal 0.0 0.0 -1.0
  outer loop
    vertex -2.8284271247461885 2.8284271247461903 0.0
    vertex -2.9499999999999957 5.10954988232819 0.0
    vertex -1.5270323661048697 5.698962375105504 0.0
  endloop
endfacet
facet normal 0.0 0.0 -1.0
  outer loop
    vertex -2.8284271247461885 2.8284271247461903 0.0
    vertex -1.5270323661048697 5.698962375105504 0.0
    vertex -1.9999999999999967 3.464101615137756 0.0
  endloop
endfacet
facet normal 0.0 0.0 -1.0
  outer loop
    vertex -1.9999999999999967 3.464101615137756 0.0
    vertex -1.5270323661048697 5.698962375105504 0.0
    vertex -1.035276180410081 3.8637033051562732 0.0
  endloop
endfacet
facet normal 0.0 0.0 -1.0
  outer loop
    vertex -1.035276180410081 3.8637033051562732 0.0
    vertex -1.5270323661048697 5.698962375105504 0.0
    vertex 1.0838124172454075e-15 5.8999999999999995 0.0
  endloop
endfacet
facet normal 0.0 0.0 -1.0
  outer loop
    vertex -1.035276180410081 3.8637033051562732 0.0
    vertex 1.0838124172454075e-15 5.8999999999999995 0.0
    vertex 7.347880794884117e-16 3.9999999999999996 0.0
  endloop
endfacet
facet normal 0.0 0.0 -1.0
  outer loop
    vertex 7.347880794884117e-16 3.9999999999999996 0.0
    vertex 1.0838124172454075e-15 5.8999999999999995 0.0
    vertex 1.0352761804100858 3.863703305156272 0.0
  endloop
endfacet
facet normal 0.0 0.0 -1.0
  outer loop
    vertex 1.0352761804100858 3.863703305156272 0.0
    vertex 1.0838124172454075e-15 5.8999999999999995 0.0
    vertex 1.5270323661048768 5.698962375105501 0.0
  endloop
endfacet
facet normal 0.0 0.0 -1.0
  outer loop
    vertex 1.0352761804100858 3.863703305156272 0.0
    vertex 1.5270323661048768 5.698962375105501 0.0
    vertex 2.0000000000000013 3.464101615137753 0.0
  endloop
endfacet
facet normal 0.0 0.0 -1.0
  outer loop
    vertex 2.0000000000000013 3.464101615137753 0.0
    vertex 1.5270323661048768 5.698962375105501 0.0
    vertex 2.9500000000000024 5.109549882328186 0.0
  endloop
endfacet
facet normal 0.0 0.0 -1.0
  outer loop
    vertex 2.0000000000000013 3.464101615137753 0.0
    vertex 2.9500000000000024 5.109549882328186 0.0
    vertex 2.828427124746191 2.8284271247461885 0.0
  endloop
endfacet
facet normal 0.0 0.0 -1.0
  outer loop
    vertex 2.828427124746191 2.8284271247461885 0.0
    vertex 2.9500000000000024 5.109549882328186 0.0
    vertex 3.4641016151377544 1.999999999999999 0.0
  endloop
endfacet
facet normal 0.0 0.0 -1.0
  outer loop
    vertex 3.4641016151377544 1.999999999999999 0.0
    vertex 2.9500000000000024 5.109549882328186 0.0
    vertex 4.171930009000632 4.171930009000628 0.0
  endloop
endfacet
facet normal 0.0 0.0 -1.0
  outer loop
    vertex 3.4641016151377544 1.999999999999999 0.0
    vertex 4.171930009000632 4.171930009000628 0.0
    vertex 3.863703305156273 1.0352761804100814 0.0
  endloop
endfacet
facet normal 0.0 0.0 -1.0
  outer loop
    vertex 3.863703305156273 1.0352761804100814 0.0
    vertex 4.171930009000632 4.171930009000628 0.0
    vertex 3.999999999999999 -4.898587196589412e-16 0.0
  endloop
endfacet
facet normal 0.0 0.0 -1.0
  outer loop
    vertex 3.999999999999999 -4.898587196589412e-16 0.0
    vertex 4.171930009000632 4.171930009000628 0.0
    vertex 4.17193000900063 -4.171930009000631 0.0
  endloop
endfacet
facet normal 0.0 0.0 -1.0
  outer loop
    vertex 4.17193000900063 -4.171930009000631 0.0
    vertex 4.171930009000632 4.171930009000628 0.0
    vertex 5.109549882328187 -2.950000000000002 0.0
  endloop
endfacet
facet normal 0.0 0.0 -1.0
  outer loop
    vertex 5.109549882328187 -2.950000000000002 0.0
    vertex 4.171930009000632 4.171930009000628 0.0
    vertex 5.109549882328189 2.949999999999998 0.0
  endloop
endfacet
facet normal 0.0 0.0 -1.0
  outer loop
    vertex 5.109549882328187 -2.950000000000002 0.0
    vertex 5.109549882328189 2.949999999999998 0.0
    vertex 5.698962375105502 -1.527032366104874 0.0
  endloop
endfacet
facet normal 0.0 0.0 -1.0
  outer loop
    vertex 5.698962375105502 -1.527032366104874 0.0
    vertex 5.109549882328189 2.949999999999998 0.0
    vertex 5.698962375105504 1.52703236610487 0.0
  endloop
endfacet
facet normal 0.0 0.0 -1.0
  outer loop
    vertex 5.698962375105502 -1.527032366104874 0.0
    vertex 5.698962375105504 1.52703236610487 0.0
    vertex 5.8999999999999995 -7.225416114969383e-16 0.0
  endloop
endfacet
facet normal 0.0 0.0 -1.0
  outer loop
    vertex -5.698962375105501 1.5270323661048772 0.0
    vertex -5.698962375105503 -1.5270323661048724 0.0
    vertex -5.8999999999999995 0.0 0.0
  endloop
endfacet
facet normal 0.0 0.0 -1.0
  outer loop
    vertex -5.698962375105503 -1.5270323661048724 0.0
    vertex -5.698962375105501 1.5270323661048772 0.0
    vertex -5.109549882328188 -2.9499999999999997 0.0
  endloop
endfacet
facet normal 0.0 0.0 -1.0
  outer loop
    vertex -5.109549882328188 -2.9499999999999997 0.0
    vertex -5.698962375105501 1.5270323661048772 0.0
    vertex -5.109549882328186 2.9500000000000024 0.0
  endloop
endfacet
facet normal 0.0 0.0 -1.0
  outer loop
    vertex -5.109549882328188 -2.9499999999999997 0.0
    vertex -5.109549882328186 2.9500000000000024 0.0
    vertex -4.171930009000631 -4.171930009000631 0.0
  endloop
endfacet
facet normal 0.0 0.0 -1.0
  outer loop
    vertex -4.171930009000631 -4.171930009000631 0.0
    vertex -5.109549882328186 2.9500000000000024 0.0
    vertex -4.171930009000629 4.171930009000631 0.0
  endloop
endfacet
facet normal 0.0 0.0 -1.0
  outer loop
    vertex -4.171930009000631 -4.171930009000631 0.0
    vertex -4.171930009000629 4.171930009000631 0.0
    vertex -3.999999999999999 0.0 0.0
  endloop
endfacet
facet normal 0.0 0.0 -1.0
  outer loop
    vertex -4.171930009000631 -4.171930009000631 0.0
    vertex -3.999999999999999 0.0 0.0
    vertex -3.863703305156272 -1.035276180410083 0.0
  endloop
endfacet
facet normal 0.0 0.0 -1.0
  outer loop
    vertex -4.171930009000631 -4.171930009000631 0.0
    vertex -3.863703305156272 -1.035276180410083 0.0
    vertex -2.9500000000000006 -5.109549882328187 0.0
  endloop
endfacet
facet normal 0.0 0.0 -1.0
  outer loop
    vertex -2.9500000000000006 -5.109549882328187 0.0
    vertex -3.863703305156272 -1.035276180410083 0.0
    vertex -3.464101615137754 -1.9999999999999996 0.0
  endloop
endfacet
facet normal 0.0 0.0 -1.0
  outer loop
    vertex -2.9500000000000006 -5.109549882328187 0.0
    vertex -3.464101615137754 -1.9999999999999996 0.0
    vertex -2.82842712474619 -2.8284271247461903 0.0
  endloop
endfacet
facet normal 0.0 0.0 -1.0
  outer loop
    vertex -2.9500000000000006 -5.109549882328187 0.0
    vertex -2.82842712474619 -2.8284271247461903 0.0
    vertex -1.5270323661048737 -5.698962375105502 0.0
  endloop
endfacet
facet normal 0.0 0.0 -1.0
  outer loop
    vertex -1.5270323661048737 -5.698962375105502 0.0
    vertex -2.82842712474619 -2.8284271247461903 0.0
    vertex -1.9999999999999998 -3.464101615137754 0.0
  endloop
endfacet
facet normal 0.0 0.0 -1.0
  outer loop
    vertex -1.5270323661048737 -5.698962375105502 0.0
    vertex -1.9999999999999998 -3.464101615137754 0.0
    vertex -1.0352761804100836 -3.863703305156273 0.0
  endloop
endfacet
facet normal 0.0 0.0 -1.0
  outer loop
    vertex -1.5270323661048737 -5.698962375105502 0.0
    vertex -1.0352761804100836 -3.863703305156273 0.0
    vertex -3.6127080574846916e-16 -5.8999999999999995 0.0
  endloop
endfacet
facet normal 0.0 0.0 -1.0
  outer loop
    vertex -3.6127080574846916e-16 -5.8999999999999995 0.0
    vertex -1.0352761804100836 -3.863703305156273 0.0
    vertex -2.449293598294706e-16 -3.9999999999999996 0.0
  endloop
endfacet
facet normal 0.0 0.0 -1.0
  outer loop
    vertex -3.6127080574846916e-16 -5.8999999999999995 0.0
    vertex -2.449293598294706e-16 -3.9999999999999996 0.0
    vertex 1.5270323661048715 -5.698962375105503 0.0
  endloop
endfacet
facet normal 0.0 0.0 -1.0
  outer loop
    vertex 1.5270323661048715 -5.698962375105503 0.0
    vertex -2.449293598294706e-16 -3.9999999999999996 0.0
    vertex 1.0352761804100823 -3.863703305156273 0.0
  endloop
endfacet
facet normal 0.0 0.0 -1.0
  outer loop
    vertex 1.5270323661048715 -5.698962375105503 0.0
    vertex 1.0352761804100823 -3.863703305156273 0.0
    vertex 1.9999999999999984 -3.4641016151377544 0.0
  endloop
endfacet
facet normal 0.0 0.0 -1.0
  outer loop
    vertex 1.5270323661048715 -5.698962375105503 0.0
    vertex 1.9999999999999984 -3.4641016151377544 0.0
    vertex 2.9499999999999984 -5.109549882328188 0.0
  endloop
endfacet
facet normal 0.0 0.0 -1.0
  outer loop
    vertex 2.9499999999999984 -5.109549882328188 0.0
    vertex 1.9999999999999984 -3.4641016151377544 0.0
    vertex 2.8284271247461894 -2.8284271247461903 0.0
  endloop
endfacet
facet normal 0.0 0.0 -1.0
  outer loop
    vertex 2.9499999999999984 -5.109549882328188 0.0
    vertex 2.8284271247461894 -2.8284271247461903 0.0
    vertex 3.464101615137753 -2.0000000000000013 0.0
  endloop
endfacet
facet normal 0.0 0.0 -1.0
  outer loop
    vertex 2.9499999999999984 -5.109549882328188 0.0
    vertex 3.464101615137753 -2.0000000000000013 0.0
    vertex 4.17193000900063 -4.171930009000631 0.0
  endloop
endfacet
facet normal 0.0 0.0 -1.0
  outer loop
    vertex 4.17193000900063 -4.171930009000631 0.0
    vertex 3.464101615137753 -2.0000000000000013 0.0
    vertex 3.863703305156272 -1.035276180410084 0.0
  endloop
endfacet
facet normal 0.0 0.0 -1.0
  outer loop
    vertex 4.17193000900063 -4.171930009000631 0.0
    vertex 3.863703305156272 -1.035276180410084 0.0
    vertex 3.999999999999999 -4.898587196589412e-16 0.0
  endloop
endfacet
facet normal -0.0 -0.0 1.0
  outer loop
    vertex -5.698962375105503 -1.5270323661048724 20.0
    vertex -5.698962375105501 1.5270323661048772 20.0
    vertex -5.8999999999999995 0.0 20.0
  endloop
endfacet
facet normal -0.0 -0.0 1.0
  outer loop
    vertex -5.698962375105501 1.5270323661048772 20.0
    vertex -5.698962375105503 -1.5270323661048724 20.0
    vertex -5.109549882328188 -2.9499999999999997 20.0
  endloop
endfacet
facet normal -0.0 -0.0 1.0
  outer loop
    vertex -5.698962375105501 1.5270323661048772 20.0
    vertex -5.109549882328188 -2.9499999999999997 20.0
    vertex -5.109549882328186 2.9500000000000024 20.0
  endloop
endfacet
facet normal -0.0 -0.0 1.0
  outer loop
    vertex -5.109549882328186 2.9500000000000024 20.0
    vertex -5.109549882328188 -2.9499999999999997 20.0
    vertex -4.171930009000631 -4.171930009000631 20.0
  endloop
endfacet
facet normal -0.0 -0.0 1.0
  outer loop
    vertex -5.109549882328186 2.9500000000000024 20.0
    vertex -4.171930009000631 -4.171930009000631 20.0
    vertex -4.171930009000629 4.171930009000631 20.0
  endloop
endfacet
facet normal -0.0 -0.0 1.0
  outer loop
    vertex -4.171930009000629 4.171930009000631 20.0
    vertex -4.171930009000631 -4.171930009000631 20.0
    vertex -3.999999999999999 0.0 20.0
  endloop
endfacet
facet normal -0.0 -0.0 1.0
  outer loop
    vertex -3.999999999999999 0.0 20.0
    vertex -4.171930009000631 -4.171930009000631 20.0
    vertex -3.863703305156272 -1.035276180410083 20.0
  endloop
endfacet
facet normal -0.0 -0.0 1.0
  outer loop
    vertex -3.863703305156272 -1.035276180410083 20.0
    vertex -4.171930009000631 -4.171930009000631 20.0
    vertex -2.9500000000000006 -5.109549882328187 20.0
  endloop
endfacet
facet normal -0.0 -0.0 1.0
  outer loop
    vertex -3.863703305156272 -1.035276180410083 20.0
    vertex -2.9500000000000006 -5.109549882328187 20.0
    vertex -3.464101615137754 -1.9999999999999996 20.0
  endloop
endfacet
facet normal -0.0 -0.0 1.0
  outer loop
    vertex -3.464101615137754 -1.9999999999999996 20.0
    vertex -2.9500000000000006 -5.109549882328187 20.0
    vertex -2.82842712474619 -2.8284271247461903 20.0
  endloop
endfacet
facet normal -0.0 -0.0 1.0
  outer loop
    vertex -2.82842712474619 -2.8284271247461903 20.0
    vertex -2.9500000000000006 -5.109549882328187 20.0
    vertex -1.5270323661048737 -5.698962375105502 20.0
  endloop
endfacet
facet normal -0.0 -0.0 1.0
  outer loop
    vertex -2.82842712474619 -2.8284271247461903 20.0
    vertex -1.5270323661048737 -5.698962375105502 20.0
    vertex -1.9999999999999998 -3.464101615137754 20.0
  endloop
endfacet
facet normal -0.0 -0.0 1.0
  outer loop
    vertex -1.9999999999999998 -3.464101615137754 20.0
    vertex -1.5270323661048737 -5.698962375105502 20.0
    vertex -1.0352761804100836 -3.863703305156273 20.0
  endloop
endfacet
facet normal -0.0 -0.0 1.0
  outer loop
    vertex -1.0352761804100836 -3.863703305156273 20.0
    vertex -1.5270323661048737 -5.698962375105502 20.0
    vertex -3.6127080574846916e-16 -5.8999999999999995 20.0
  endloop
endfacet
facet normal -0.0 -0.0 1.0
  outer loop
    vertex -1.0352761804100836 -3.863703305156273 20.0
    vertex -3.6127080574846916e-16 -5.8999999999999995 20.0
    vertex -2.449293598294706e-16 -3.9999999999999996 20.0
  endloop
endfacet
facet normal -0.0 -0.0 1.0
  outer loop
    vertex -2.449293598294706e-16 -3.9999999999999996 20.0
    vertex -3.6127080574846916e-16 -5.8999999999999995 20.0
    vertex 1.5270323661048715 -5.698962375105503 20.0
  endloop
endfacet
facet normal -0.0 -0.0 1.0
  outer loop
    vertex -2.449293598294706e-16 -3.9999999999999996 20.0
    vertex 1.5270323661048715 -5.698962375105503 20.0
    vertex 1.0352761804100823 -3.863703305156273 20.0
  endloop
endfacet
facet normal -0.0 -0.0 1.0
  outer loop
    vertex 1.0352761804100823 -3.863703305156273 20.0
    vertex 1.5270323661048715 -5.698962375105503 20.0
    vertex 1.9999999999999984 -3.4641016151377544 20.0
  endloop
endfacet
facet normal -0.0 -0.0 1.0
  outer loop
    vertex 1.9999999999999984 -3.4641016151377544 20.0
    vertex 1.5270323661048715 -5.698962375105503 20.0
    vertex 2.9499999999999984 -5.109549882328188 20.0
  endloop
endfacet
facet normal -0.0 -0.0 1.0
  outer loop
    vertex 1.9999999999999984 -3.4641016151377544 20.0
    vertex 2.9499999999999984 -5.109549882328188 20.0
    vertex 2.8284271247461894 -2.8284271247461903 20.0
  endloop
endfacet
facet normal -0.0 -0.0 1.0
  outer loop
    vertex 2.8284271247461894 -2.8284271247461903 20.0
    vertex 2.9499999999999984 -5.109549882328188 20.0
    vertex 3.464101615137753 -2.0000000000000013 20.0
  endloop
endfacet
facet normal -0.0 -0.0 1.0
  outer loop
    vertex 3.464101615137753 -2.0000000000000013 20.0
    vertex 2.9499999999999984 -5.109549882328188 20.0
    vertex 4.17193000900063 -4.171930009000631 20.0
  endloop
endfacet
facet normal -0.0 -0.0 1.0
  outer loop
    vertex 3.464101615137753 -2.0000000000000013 20.0
    vertex 4.17193000900063 -4.171930009000631 20.0
    vertex 3.863703305156272 -1.035276180410084 20.0
  endloop
endfacet
facet normal -0.0 -0.0 1.0
  outer loop
    vertex 3.863703305156272 -1.035276180410084 20.0
    vertex 4.17193000900063 -4.171930009000631 20.0
    vertex 3.999999999999999 -4.898587196589412e-16 20.0
  endloop
endfacet
facet normal -0.0 -0.0 1.0
  outer loop
    vertex -4.171930009000629 4.171930009000631 20.0
    vertex -3.8637033051562715 1.035276180410086 20.0
    vertex -2.9499999999999957 5.10954988232819 20.0
  endloop
endfacet
facet normal -0.0 -0.0 1.0
  outer loop
    vertex -3.8637033051562715 1.035276180410086 20.0
    vertex -4.171930009000629 4.171930009000631 20.0
    vertex -3.999999999999999 0.0 20.0
  endloop
endfacet
facet normal -0.0 -0.0 1.0
  outer loop
    vertex -2.9499999999999957 5.10954988232819 20.0
    vertex -3.8637033051562715 1.035276180410086 20.0
    vertex -3.4641016151377526 2.0000000000000018 20.0
  endloop
endfacet
facet normal -0.0 -0.0 1.0
  outer loop
    vertex -2.9499999999999957 5.10954988232819 20.0
    vertex -3.4641016151377526 2.0000000000000018 20.0
    vertex -2.8284271247461885 2.8284271247461903 20.0
  endloop
endfacet
facet normal -0.0 -0.0 1.0
  outer loop
    vertex -2.9499999999999957 5.10954988232819 20.0
    vertex -2.8284271247461885 2.8284271247461903 20.0
    vertex -1.5270323661048697 5.698962375105504 20.0
  endloop
endfacet
facet normal -0.0 -0.0 1.0
  outer loop
    vertex -1.5270323661048697 5.698962375105504 20.0
    vertex -2.8284271247461885 2.8284271247461903 20.0
    vertex -1.9999999999999967 3.464101615137756 20.0
  endloop
endfacet
facet normal -0.0 -0.0 1.0
  outer loop
    vertex -1.5270323661048697 5.698962375105504 20.0
    vertex -1.9999999999999967 3.464101615137756 20.0
    vertex -1.035276180410081 3.8637033051562732 20.0
  endloop
endfacet
facet normal -0.0 -0.0 1.0
  outer loop
    vertex -1.5270323661048697 5.698962375105504 20.0
    vertex -1.035276180410081 3.8637033051562732 20.0
    vertex 1.0838124172454075e-15 5.8999999999999995 20.0
  endloop
endfacet
facet normal -0.0 -0.0 1.0
  outer loop
    vertex 1.0838124172454075e-15 5.8999999999999995 20.0
    vertex -1.035276180410081 3.8637033051562732 20.0
    vertex 7.347880794884117e-16 3.9999999999999996 20.0
  endloop
endfacet
facet normal -0.0 -0.0 1.0
  outer loop
    vertex 1.0838124172454075e-15 5.8999999999999995 20.0
    vertex 7.347880794884117e-16 3.9999999999999996 20.0
    vertex 1.0352761804100858 3.863703305156272 20.0
  endloop
endfacet
facet normal -0.0 -0.0 1.0
  outer loop
    vertex 1.0838124172454075e-15 5.8999999999999995 20.0
    vertex 1.0352761804100858 3.863703305156272 20.0
    vertex 1.5270323661048768 5.698962375105501 20.0
  endloop
endfacet
facet normal -0.0 -0.0 1.0
  outer loop
    vertex 1.5270323661048768 5.698962375105501 20.0
    vertex 1.0352761804100858 3.863703305156272 20.0
    vertex 2.0000000000000013 3.464101615137753 20.0
  endloop
endfacet
facet normal -0.0 -0.0 1.0
  outer loop
    vertex 1.5270323661048768 5.698962375105501 20.0
    vertex 2.0000000000000013 3.464101615137753 20.0
    vertex 2.9500000000000024 5.109549882328186 20.0
  endloop
endfacet
facet normal -0.0 -0.0 1.0
  outer loop
    vertex 2.9500000000000024 5.109549882328186 20.0
    vertex 2.0000000000000013 3.464101615137753 20.0
    vertex 2.828427124746191 2.8284271247461885 20.0
  endloop
endfacet
facet normal -0.0 -0.0 1.0
  outer loop
    vertex 2.9500000000000024 5.109549882328186 20.0
    vertex 2.828427124746191 2.8284271247461885 20.0
    vertex 3.4641016151377544 1.999999999999999 20.0
  endloop
endfacet
facet normal -0.0 -0.0 1.0
  outer loop
    vertex 2.9500000000000024 5.109549882328186 20.0
    vertex 3.4641016151377544 1.999999999999999 20.0
    vertex 4.171930009000632 4.171930009000628 20.0
  endloop
endfacet
facet normal -0.0 -0.0 1.0
  outer loop
    vertex 4.171930009000632 4.171930009000628 20.0
    vertex 3.4641016151377544 1.999999999999999 20.0
    vertex 3.863703305156273 1.0352761804100814 20.0
  endloop
endfacet
facet normal -0.0 -0.0 1.0
  outer loop
    vertex 4.171930009000632 4.171930009000628 20.0
    vertex 3.863703305156273 1.0352761804100814 20.0
    vertex 3.999999999999999 -4.898587196589412e-16 20.0
  endloop
endfacet
facet normal -0.0 -0.0 1.0
  outer loop
    vertex 4.171930009000632 4.171930009000628 20.0
    vertex 3.999999999999999 -4.898587196589412e-16 20.0
    vertex 4.17193000900063 -4.171930009000631 20.0
  endloop
endfacet
facet normal -0.0 -0.0 1.0
  outer loop
    vertex 4.171930009000632 4.171930009000628 20.0
    vertex 4.17193000900063 -4.171930009000631 20.0
    vertex 5.109549882328187 -2.950000000000002 20.0
  endloop
endfacet
facet normal -0.0 -0.0 1.0
  outer loop
    vertex 4.171930009000632 4.171930009000628 20.0
    vertex 5.109549882328187 -2.950000000000002 20.0
    vertex 5.109549882328189 2.949999999999998 20.0
  endloop
endfacet
facet normal -0.0 -0.0 1.0
  outer loop
    vertex 5.109549882328189 2.949999999999998 20.0
    vertex 5.109549882328187 -2.950000000000002 20.0
    vertex 5.698962375105502 -1.527032366104874 20.0
  endloop
endfacet
facet normal -0.0 -0.0 1.0
  outer loop
    vertex 5.109549882328189 2.949999999999998 20.0
    vertex 5.698962375105502 -1.527032366104874 20.0
    vertex 5.698962375105504 1.52703236610487 20.0
  endloop
endfacet
facet normal -0.0 -0.0 1.0
  outer loop
    vertex 5.698962375105504 1.52703236610487 20.0
    vertex 5.698962375105502 -1.527032366104874 20.0
    vertex 5.8999999999999995 -7.225416114969383e-16 20.0
  endloop
endfacet
facet normal -0.9914448613738104 0.13052619222005207 0.0
  outer loop
    vertex -5.698962375105501 1.5270323661048772 20.0
    vertex -5.8999999999999995 0.0 0.0
    vertex -5.8999999999999995 0.0 20.0
  endloop
endfacet
facet normal -0.9914448613738104 0.13052619222005207 0.0
  outer loop
    vertex -5.8999999999999995 0.0 0.0
    vertex -5.698962375105501 1.5270323661048772 20.0
    vertex -5.698962375105501 1.5270323661048772 0.0
  endloop
endfacet
facet normal -0.9238795325112865 0.38268343236509067 0.0
  outer loop
    vertex -5.109549882328186 2.9500000000000024 20.0
    vertex -5.698962375105501 1.5270323661048772 0.0
    vertex -5.698962375105501 1.5270323661048772 20.0
  endloop
endfacet
facet normal -0.9238795325112865 0.38268343236509067 0.0
  outer loop
    vertex -5.698962375105501 1.5270323661048772 0.0
    vertex -5.109549882328186 2.9500000000000024 20.0
    vertex -5.109549882328186 2.9500000000000024 0.0
  endloop
endfacet
facet normal -0.7933533402912353 0.6087614290087207 0.0
  outer loop
    vertex -4.171930009000629 4.171930009000631 20.0
    vertex -5.109549882328186 2.9500000000000024 0.0
    vertex -5.109549882328186 2.9500000000000024 20.0
  endloop
endfacet
facet normal -0.7933533402912353 0.6087614290087207 0.0
  outer loop
    vertex -5.109549882328186 2.9500000000000024 0.0
    vertex -4.171930009000629 4.171930009000631 20.0
    vertex -4.171930009000629 4.171930009000631 0.0
  endloop
endfacet
facet normal -0.6087614290087201 0.7933533402912357 0.0
  outer loop
    vertex -4.171930009000629 4.171930009000631 20.0
    vertex -2.9499999999999957 5.10954988232819 0.0
    vertex -4.171930009000629 4.171930009000631 0.0
  endloop
endfacet
facet normal -0.6087614290087201 0.7933533402912357 0.0
  outer loop
    vertex -2.9499999999999957 5.10954988232819 0.0
    vertex -4.171930009000629 4.171930009000631 20.0
    vertex -2.9499999999999957 5.10954988232819 20.0
  endloop
endfacet
facet normal -0.3826834323650892 0.923879532511287 0.0
  outer loop
    vertex -2.9499999999999957 5.10954988232819 20.0
    vertex -1.5270323661048697 5.698962375105504 0.0
    vertex -2.9499999999999957 5.10954988232819 0.0
  endloop
endfacet
facet normal -0.3826834323650892 0.923879532511287 0.0
  outer loop
    vertex -1.5270323661048697 5.698962375105504 0.0
    vertex -2.9499999999999957 5.10954988232819 20.0
    vertex -1.5270323661048697 5.698962375105504 20.0
  endloop
endfacet
facet normal -0.1305261922200513 0.9914448613738106 0.0
  outer loop
    vertex -1.5270323661048697 5.698962375105504 20.0
    vertex 1.0838124172454075e-15 5.8999999999999995 0.0
    vertex -1.5270323661048697 5.698962375105504 0.0
  endloop
endfacet
facet normal -0.1305261922200513 0.9914448613738106 0.0
  outer loop
    vertex 1.0838124172454075e-15 5.8999999999999995 0.0
    vertex -1.5270323661048697 5.698962375105504 20.0
    vertex 1.0838124172454075e-15 5.8999999999999995 20.0
  endloop
endfacet
facet normal 0.13052619222005218 0.9914448613738104 0.0
  outer loop
    vertex 1.0838124172454075e-15 5.8999999999999995 20.0
    vertex 1.5270323661048768 5.698962375105501 0.0
    vertex 1.0838124172454075e-15 5.8999999999999995 0.0
  endloop
endfacet
facet normal 0.13052619222005218 0.9914448613738104 0.0
  outer loop
    vertex 1.5270323661048768 5.698962375105501 0.0
    vertex 1.0838124172454075e-15 5.8999999999999995 20.0
    vertex 1.5270323661048768 5.698962375105501 20.0
  endloop
endfacet
facet normal 0.38268343236509056 0.9238795325112865 0.0
  outer loop
    vertex 1.5270323661048768 5.698962375105501 20.0
    vertex 2.9500000000000024 5.109549882328186 0.0
    vertex 1.5270323661048768 5.698962375105501 0.0
  endloop
endfacet
facet normal 0.38268343236509056 0.9238795325112865 0.0
  outer loop
    vertex 2.9500000000000024 5.109549882328186 0.0
    vertex 1.5270323661048768 5.698962375105501 20.0
    vertex 2.9500000000000024 5.109549882328186 20.0
  endloop
endfacet
facet normal 0.6087614290087209 0.7933533402912349 0.0
  outer loop
    vertex 2.9500000000000024 5.109549882328186 20.0
    vertex 4.171930009000632 4.171930009000628 0.0
    vertex 2.9500000000000024 5.109549882328186 0.0
  endloop
endfacet
facet normal 0.6087614290087209 0.7933533402912349 0.0
  outer loop
    vertex 4.171930009000632 4.171930009000628 0.0
    vertex 2.9500000000000024 5.109549882328186 20.0
    vertex 4.171930009000632 4.171930009000628 20.0
  endloop
endfacet
facet normal 0.7933533402912354 0.6087614290087204 0.0
  outer loop
    vertex 4.171930009000632 4.171930009000628 0.0
    vertex 5.109549882328189 2.949999999999998 20.0
    vertex 5.109549882328189 2.949999999999998 0.0
  endloop
endfacet
facet normal 0.7933533402912354 0.6087614290087204 0.0
  outer loop
    vertex 5.109549882328189 2.949999999999998 20.0
    vertex 4.171930009000632 4.171930009000628 0.0
    vertex 4.171930009000632 4.171930009000628 20.0
  endloop
endfacet
facet normal 0.9238795325112868 0.38268343236508956 0.0
  outer loop
    vertex 5.109549882328189 2.949999999999998 0.0
    vertex 5.698962375105504 1.52703236610487 20.0
    vertex 5.698962375105504 1.52703236610487 0.0
  endloop
endfacet
facet normal 0.9238795325112868 0.38268343236508956 0.0
  outer loop
    vertex 5.698962375105504 1.52703236610487 20.0
    vertex 5.109549882328189 2.949999999999998 0.0
    vertex 5.109549882328189 2.949999999999998 20.0
  endloop
endfacet
facet normal 0.9914448613738106 0.1305261922200513 0.0
  outer loop
    vertex 5.698962375105504 1.52703236610487 0.0
    vertex 5.8999999999999995 -7.225416114969383e-16 20.0
    vertex 5.8999999999999995 -7.225416114969383e-16 0.0
  endloop
endfacet
facet normal 0.9914448613738106 0.1305261922200513 0.0
  outer loop
    vertex 5.8999999999999995 -7.225416114969383e-16 20.0
    vertex 5.698962375105504 1.52703236610487 0.0
    vertex 5.698962375105504 1.52703236610487 20.0
  endloop
endfacet
facet normal 0.9914448613738104 -0.13052619222005196 0.0
  outer loop
    vertex 5.8999999999999995 -7.225416114969383e-16 0.0
    vertex 5.698962375105502 -1.527032366104874 20.0
    vertex 5.698962375105502 -1.527032366104874 0.0
  endloop
endfacet
facet normal 0.9914448613738104 -0.13052619222005196 0.0
  outer loop
    vertex 5.698962375105502 -1.527032366104874 20.0
    vertex 5.8999999999999995 -7.225416114969383e-16 0.0
    vertex 5.8999999999999995 -7.225416114969383e-16 20.0
  endloop
endfacet
facet normal 0.9238795325112867 -0.38268343236508995 0.0
  outer loop
    vertex 5.698962375105502 -1.527032366104874 0.0
    vertex 5.109549882328187 -2.950000000000002 20.0
    vertex 5.109549882328187 -2.950000000000002 0.0
  endloop
endfacet
facet normal 0.9238795325112867 -0.38268343236508995 0.0
  outer loop
    vertex 5.109549882328187 -2.950000000000002 20.0
    vertex 5.698962375105502 -1.527032366104874 0.0
    vertex 5.698962375105502 -1.527032366104874 20.0
  endloop
endfacet
facet normal 0.7933533402912353 -0.6087614290087208 0.0
  outer loop
    vertex 5.109549882328187 -2.950000000000002 0.0
    vertex 4.17193000900063 -4.171930009000631 20.0
    vertex 4.17193000900063 -4.171930009000631 0.0
  endloop
endfacet
facet normal 0.7933533402912353 -0.6087614290087208 0.0
  outer loop
    vertex 4.17193000900063 -4.171930009000631 20.0
    vertex 5.109549882328187 -2.950000000000002 0.0
    vertex 5.109549882328187 -2.950000000000002 20.0
  endloop
endfacet
facet normal 0.6087614290087202 -0.7933533402912357 0.0
  outer loop
    vertex 4.17193000900063 -4.171930009000631 20.0
    vertex 2.9499999999999984 -5.109549882328188 0.0
    vertex 4.17193000900063 -4.171930009000631 0.0
  endloop
endfacet
facet normal 0.6087614290087202 -0.7933533402912357 0.0
  outer loop
    vertex 2.9499999999999984 -5.109549882328188 0.0
    vertex 4.17193000900063 -4.171930009000631 20.0
    vertex 2.9499999999999984 -5.109549882328188 20.0
  endloop
endfacet
facet normal 0.3826834323650898 -0.9238795325112867 0.0
  outer loop
    vertex 2.9499999999999984 -5.109549882328188 20.0
    vertex 1.5270323661048715 -5.698962375105503 0.0
    vertex 2.9499999999999984 -5.109549882328188 0.0
  endloop
endfacet
facet normal 0.3826834323650898 -0.9238795325112867 0.0
  outer loop
    vertex 1.5270323661048715 -5.698962375105503 0.0
    vertex 2.9499999999999984 -5.109549882328188 20.0
    vertex 1.5270323661048715 -5.698962375105503 20.0
  endloop
endfacet
facet normal 0.1305261922200516 -0.9914448613738104 0.0
  outer loop
    vertex 1.5270323661048715 -5.698962375105503 20.0
    vertex -3.6127080574846916e-16 -5.8999999999999995 0.0
    vertex 1.5270323661048715 -5.698962375105503 0.0
  endloop
endfacet
facet normal 0.1305261922200516 -0.9914448613738104 0.0
  outer loop
    vertex -3.6127080574846916e-16 -5.8999999999999995 0.0
    vertex 1.5270323661048715 -5.698962375105503 20.0
    vertex -3.6127080574846916e-16 -5.8999999999999995 20.0
  endloop
endfacet
facet normal -0.13052619222005196 -0.9914448613738105 -0.0
  outer loop
    vertex -3.6127080574846916e-16 -5.8999999999999995 20.0
    vertex -1.5270323661048737 -5.698962375105502 0.0
    vertex -3.6127080574846916e-16 -5.8999999999999995 0.0
  endloop
endfacet
facet normal -0.13052619222005196 -0.9914448613738105 -0.0
  outer loop
    vertex -1.5270323661048737 -5.698962375105502 0.0
    vertex -3.6127080574846916e-16 -5.8999999999999995 20.0
    vertex -1.5270323661048737 -5.698962375105502 20.0
  endloop
endfacet
facet normal -0.3826834323650898 -0.9238795325112867 -0.0
  outer loop
    vertex -1.5270323661048737 -5.698962375105502 20.0
    vertex -2.9500000000000006 -5.109549882328187 0.0
    vertex -1.5270323661048737 -5.698962375105502 0.0
  endloop
endfacet
facet normal -0.3826834323650898 -0.9238795325112867 -0.0
  outer loop
    vertex -2.9500000000000006 -5.109549882328187 0.0
    vertex -1.5270323661048737 -5.698962375105502 20.0
    vertex -2.9500000000000006 -5.109549882328187 20.0
  endloop
endfacet
facet normal -0.6087614290087202 -0.7933533402912355 -0.0
  outer loop
    vertex -2.9500000000000006 -5.109549882328187 20.0
    vertex -4.171930009000631 -4.171930009000631 0.0
    vertex -2.9500000000000006 -5.109549882328187 0.0
  endloop
endfacet
facet normal -0.6087614290087202 -0.7933533402912355 -0.0
  outer loop
    vertex -4.171930009000631 -4.171930009000631 0.0
    vertex -2.9500000000000006 -5.109549882328187 20.0
    vertex -4.171930009000631 -4.171930009000631 20.0
  endloop
endfacet
facet normal -0.7933533402912355 -0.6087614290087202 -0.0
  outer loop
    vertex -5.109549882328188 -2.9499999999999997 20.0
    vertex -4.171930009000631 -4.171930009000631 0.0
    vertex -4.171930009000631 -4.171930009000631 20.0
  endloop
endfacet
facet normal -0.7933533402912355 -0.6087614290087202 -0.0
  outer loop
    vertex -4.171930009000631 -4.171930009000631 0.0
    vertex -5.109549882328188 -2.9499999999999997 20.0
    vertex -5.109549882328188 -2.9499999999999997 0.0
  endloop
endfacet
facet normal -0.9238795325112867 -0.3826834323650897 -0.0
  outer loop
    vertex -5.698962375105503 -1.5270323661048724 20.0
    vertex -5.109549882328188 -2.9499999999999997 0.0
    vertex -5.109549882328188 -2.9499999999999997 20.0
  endloop
endfacet
facet normal -0.9238795325112867 -0.3826834323650897 -0.0
  outer loop
    vertex -5.109549882328188 -2.9499999999999997 0.0
    vertex -5.698962375105503 -1.5270323661048724 20.0
    vertex -5.698962375105503 -1.5270323661048724 0.0
  endloop
endfacet
facet normal -0.9914448613738104 -0.13052619222005157 -0.0
  outer loop
    vertex -5.8999999999999995 0.0 20.0
    vertex -5.698962375105503 -1.5270323661048724 0.0
    vertex -5.698962375105503 -1.5270323661048724 20.0
  endloop
endfacet
facet normal -0.9914448613738104 -0.13052619222005157 -0.0
  outer loop
    vertex -5.698962375105503 -1.5270323661048724 0.0
    vertex -5.8999999999999995 0.0 20.0
    vertex -5.8999999999999995 0.0 0.0
  endloop
endfacet
facet normal 0.9914448613738104 0.13052619222005174 0.0
  outer loop
    vertex -3.999999999999999 0.0 0.0
    vertex -3.863703305156272 -1.035276180410083 20.0
    vertex -3.863703305156272 -1.035276180410083 0.0
  endloop
endfacet
facet normal 0.9914448613738104 0.13052619222005174 0.0
  outer loop
    vertex -3.863703305156272 -1.035276180410083 20.0
    vertex -3.999999999999999 0.0 0.0
    vertex -3.999999999999999 0.0 20.0
  endloop
endfacet
facet normal 0.9238795325112868 0.38268343236508956 0.0
  outer loop
    vertex -3.863703305156272 -1.035276180410083 0.0
    vertex -3.464101615137754 -1.9999999999999996 20.0
    vertex -3.464101615137754 -1.9999999999999996 0.0
  endloop
endfacet
facet normal 0.9238795325112868 0.38268343236508956 0.0
  outer loop
    vertex -3.464101615137754 -1.9999999999999996 20.0
    vertex -3.863703305156272 -1.035276180410083 0.0
    vertex -3.863703305156272 -1.035276180410083 20.0
  endloop
endfacet
facet normal 0.7933533402912356 0.6087614290087202 0.0
  outer loop
    vertex -3.464101615137754 -1.9999999999999996 0.0
    vertex -2.82842712474619 -2.8284271247461903 20.0
    vertex -2.82842712474619 -2.8284271247461903 0.0
  endloop
endfacet
facet normal 0.7933533402912356 0.6087614290087202 0.0
  outer loop
    vertex -2.82842712474619 -2.8284271247461903 20.0
    vertex -3.464101615137754 -1.9999999999999996 0.0
    vertex -3.464101615137754 -1.9999999999999996 20.0
  endloop
endfacet
facet normal 0.6087614290087203 0.7933533402912356 0.0
  outer loop
    vertex -2.82842712474619 -2.8284271247461903 20.0
    vertex -1.9999999999999998 -3.464101615137754 0.0
    vertex -2.82842712474619 -2.8284271247461903 0.0
  endloop
endfacet
facet normal 0.6087614290087203 0.7933533402912356 0.0
  outer loop
    vertex -1.9999999999999998 -3.464101615137754 0.0
    vertex -2.82842712474619 -2.8284271247461903 20.0
    vertex -1.9999999999999998 -3.464101615137754 20.0
  endloop
endfacet
facet normal 0.38268343236509034 0.9238795325112867 0.0
  outer loop
    vertex -1.9999999999999998 -3.464101615137754 20.0
    vertex -1.0352761804100836 -3.863703305156273 0.0
    vertex -1.9999999999999998 -3.464101615137754 0.0
  endloop
endfacet
facet normal 0.38268343236509034 0.9238795325112867 0.0
  outer loop
    vertex -1.0352761804100836 -3.863703305156273 0.0
    vertex -1.9999999999999998 -3.464101615137754 20.0
    vertex -1.0352761804100836 -3.863703305156273 20.0
  endloop
endfacet
facet normal 0.13052619222005168 0.9914448613738104 0.0
  outer loop
    vertex -1.0352761804100836 -3.863703305156273 20.0
    vertex -2.449293598294706e-16 -3.9999999999999996 0.0
    vertex -1.0352761804100836 -3.863703305156273 0.0
  endloop
endfacet
facet normal 0.13052619222005168 0.9914448613738104 0.0
  outer loop
    vertex -2.449293598294706e-16 -3.9999999999999996 0.0
    vertex -1.0352761804100836 -3.863703305156273 20.0
    vertex -2.449293598294706e-16 -3.9999999999999996 20.0
  endloop
endfacet
facet normal -0.1305261922200518 0.9914448613738104 0.0
  outer loop
    vertex -2.449293598294706e-16 -3.9999999999999996 20.0
    vertex 1.0352761804100823 -3.863703305156273 0.0
    vertex -2.449293598294706e-16 -3.9999999999999996 0.0
  endloop
endfacet
facet normal -0.1305261922200518 0.9914448613738104 0.0
  outer loop
    vertex 1.0352761804100823 -3.863703305156273 0.0
    vertex -2.449293598294706e-16 -3.9999999999999996 20.0
    vertex 1.0352761804100823 -3.863703305156273 20.0
  endloop
endfacet
facet normal -0.3826834323650896 0.9238795325112867 0.0
  outer loop
    vertex 1.0352761804100823 -3.863703305156273 20.0
    vertex 1.9999999999999984 -3.4641016151377544 0.0
    vertex 1.0352761804100823 -3.863703305156273 0.0
  endloop
endfacet
facet normal -0.3826834323650896 0.9238795325112867 0.0
  outer loop
    vertex 1.9999999999999984 -3.4641016151377544 0.0
    vertex 1.0352761804100823 -3.863703305156273 20.0
    vertex 1.9999999999999984 -3.4641016151377544 20.0
  endloop
endfacet
facet normal -0.6087614290087202 0.7933533402912355 0.0
  outer loop
    vertex 1.9999999999999984 -3.4641016151377544 20.0
    vertex 2.8284271247461894 -2.8284271247461903 0.0
    vertex 1.9999999999999984 -3.4641016151377544 0.0
  endloop
endfacet
facet normal -0.6087614290087202 0.7933533402912355 0.0
  outer loop
    vertex 2.8284271247461894 -2.8284271247461903 0.0
    vertex 1.9999999999999984 -3.4641016151377544 20.0
    vertex 2.8284271247461894 -2.8284271247461903 20.0
  endloop
endfacet
facet normal -0.793353340291235 0.6087614290087208 0.0
  outer loop
    vertex 3.464101615137753 -2.0000000000000013 20.0
    vertex 2.8284271247461894 -2.8284271247461903 0.0
    vertex 2.8284271247461894 -2.8284271247461903 20.0
  endloop
endfacet
facet normal -0.793353340291235 0.6087614290087208 0.0
  outer loop
    vertex 2.8284271247461894 -2.8284271247461903 0.0
    vertex 3.464101615137753 -2.0000000000000013 20.0
    vertex 3.464101615137753 -2.0000000000000013 0.0
  endloop
endfacet
facet normal -0.9238795325112867 0.3826834323650899 0.0
  outer loop
    vertex 3.863703305156272 -1.035276180410084 20.0
    vertex 3.464101615137753 -2.0000000000000013 0.0
    vertex 3.464101615137753 -2.0000000000000013 20.0
  endloop
endfacet
facet normal -0.9238795325112867 0.3826834323650899 0.0
  outer loop
    vertex 3.464101615137753 -2.0000000000000013 0.0
    vertex 3.863703305156272 -1.035276180410084 20.0
    vertex 3.863703305156272 -1.035276180410084 0.0
  endloop
endfacet
facet normal -0.9914448613738104 0.13052619222005168 0.0
  outer loop
    vertex 3.999999999999999 -4.898587196589412e-16 20.0
    vertex 3.863703305156272 -1.035276180410084 0.0
    vertex 3.863703305156272 -1.035276180410084 20.0
  endloop
endfacet
facet normal -0.9914448613738104 0.13052619222005168 0.0
  outer loop
    vertex 3.863703305156272 -1.035276180410084 0.0
    vertex 3.999999999999999 -4.898587196589412e-16 20.0
    vertex 3.999999999999999 -4.898587196589412e-16 0.0
  endloop
endfacet
facet normal -0.9914448613738106 -0.13052619222005124 -0.0
  outer loop
    vertex 3.863703305156273 1.0352761804100814 20.0
    vertex 3.999999999999999 -4.898587196589412e-16 0.0
    vertex 3.999999999999999 -4.898587196589412e-16 20.0
  endloop
endfacet
facet normal -0.9914448613738106 -0.13052619222005124 -0.0
  outer loop
    vertex 3.999999999999999 -4.898587196589412e-16 0.0
    vertex 3.863703305156273 1.0352761804100814 20.0
    vertex 3.863703305156273 1.0352761804100814 0.0
  endloop
endfacet
facet normal -0.9238795325112871 -0.38268343236508934 -0.0
  outer loop
    vertex 3.4641016151377544 1.999999999999999 20.0
    vertex 3.863703305156273 1.0352761804100814 0.0
    vertex 3.863703305156273 1.0352761804100814 20.0
  endloop
endfacet
facet normal -0.9238795325112871 -0.38268343236508934 -0.0
  outer loop
    vertex 3.863703305156273 1.0352761804100814 0.0
    vertex 3.4641016151377544 1.999999999999999 20.0
    vertex 3.4641016151377544 1.999999999999999 0.0
  endloop
endfacet
facet normal -0.7933533402912355 -0.6087614290087203 -0.0
  outer loop
    vertex 2.828427124746191 2.8284271247461885 20.0
    vertex 3.4641016151377544 1.999999999999999 0.0
    vertex 3.4641016151377544 1.999999999999999 20.0
  endloop
endfacet
facet normal -0.7933533402912355 -0.6087614290087203 -0.0
  outer loop
    vertex 3.4641016151377544 1.999999999999999 0.0
    vertex 2.828427124746191 2.8284271247461885 20.0
    vertex 2.828427124746191 2.8284271247461885 0.0
  endloop
endfacet
facet normal -0.6087614290087209 -0.7933533402912349 -0.0
  outer loop
    vertex 2.828427124746191 2.8284271247461885 20.0
    vertex 2.0000000000000013 3.464101615137753 0.0
    vertex 2.828427124746191 2.8284271247461885 0.0
  endloop
endfacet
facet normal -0.6087614290087209 -0.7933533402912349 -0.0
  outer loop
    vertex 2.0000000000000013 3.464101615137753 0.0
    vertex 2.828427124746191 2.8284271247461885 20.0
    vertex 2.0000000000000013 3.464101615137753 20.0
  endloop
endfacet
facet normal -0.3826834323650905 -0.9238795325112865 -0.0
  outer loop
    vertex 2.0000000000000013 3.464101615137753 20.0
    vertex 1.0352761804100858 3.863703305156272 0.0
    vertex 2.0000000000000013 3.464101615137753 0.0
  endloop
endfacet
facet normal -0.3826834323650905 -0.9238795325112865 -0.0
  outer loop
    vertex 1.0352761804100858 3.863703305156272 0.0
    vertex 2.0000000000000013 3.464101615137753 20.0
    vertex 1.0352761804100858 3.863703305156272 20.0
  endloop
endfacet
facet normal -0.13052619222005216 -0.9914448613738104 -0.0
  outer loop
    vertex 1.0352761804100858 3.863703305156272 20.0
    vertex 7.347880794884117e-16 3.9999999999999996 0.0
    vertex 1.0352761804100858 3.863703305156272 0.0
  endloop
endfacet
facet normal -0.13052619222005216 -0.9914448613738104 -0.0
  outer loop
    vertex 7.347880794884117e-16 3.9999999999999996 0.0
    vertex 1.0352761804100858 3.863703305156272 20.0
    vertex 7.347880794884117e-16 3.9999999999999996 20.0
  endloop
endfacet
facet normal 0.13052619222005127 -0.9914448613738106 0.0
  outer loop
    vertex 7.347880794884117e-16 3.9999999999999996 20.0
    vertex -1.035276180410081 3.8637033051562732 0.0
    vertex 7.347880794884117e-16 3.9999999999999996 0.0
  endloop
endfacet
facet normal 0.13052619222005127 -0.9914448613738106 0.0
  outer loop
    vertex -1.035276180410081 3.8637033051562732 0.0
    vertex 7.347880794884117e-16 3.9999999999999996 20.0
    vertex -1.035276180410081 3.8637033051562732 20.0
  endloop
endfacet
facet normal 0.3826834323650892 -0.923879532511287 0.0
  outer loop
    vertex -1.035276180410081 3.8637033051562732 20.0
    vertex -1.9999999999999967 3.464101615137756 0.0
    vertex -1.035276180410081 3.8637033051562732 0.0
  endloop
endfacet
facet normal 0.3826834323650892 -0.923879532511287 0.0
  outer loop
    vertex -1.9999999999999967 3.464101615137756 0.0
    vertex -1.035276180410081 3.8637033051562732 20.0
    vertex -1.9999999999999967 3.464101615137756 20.0
  endloop
endfacet
facet normal 0.6087614290087204 -0.7933533402912355 0.0
  outer loop
    vertex -1.9999999999999967 3.464101615137756 20.0
    vertex -2.8284271247461885 2.8284271247461903 0.0
    vertex -1.9999999999999967 3.464101615137756 0.0
  endloop
endfacet
facet normal 0.6087614290087204 -0.7933533402912355 0.0
  outer loop
    vertex -2.8284271247461885 2.8284271247461903 0.0
    vertex -1.9999999999999967 3.464101615137756 20.0
    vertex -2.8284271247461885 2.8284271247461903 20.0
  endloop
endfacet
facet normal 0.793353340291235 -0.6087614290087208 0.0
  outer loop
    vertex -2.8284271247461885 2.8284271247461903 0.0
    vertex -3.4641016151377526 2.0000000000000018 20.0
    vertex -3.4641016151377526 2.0000000000000018 0.0
  endloop
endfacet
facet normal 0.793353340291235 -0.6087614290087208 0.0
  outer loop
    vertex -3.4641016151377526 2.0000000000000018 20.0
    vertex -2.8284271247461885 2.8284271247461903 0.0
    vertex -2.8284271247461885 2.8284271247461903 20.0
  endloop
endfacet
facet normal 0.9238795325112865 -0.3826834323650905 0.0
  outer loop
    vertex -3.4641016151377526 2.0000000000000018 0.0
    vertex -3.8637033051562715 1.035276180410086 20.0
    vertex -3.8637033051562715 1.035276180410086 0.0
  endloop
endfacet
facet normal 0.9238795325112865 -0.3826834323650905 0.0
  outer loop
    vertex -3.8637033051562715 1.035276180410086 20.0
    vertex -3.4641016151377526 2.0000000000000018 0.0
    vertex -3.4641016151377526 2.0000000000000018 20.0
  endloop
endfacet
facet normal 0.9914448613738104 -0.13052619222005202 0.0
  outer loop
    vertex -3.8637033051562715 1.035276180410086 0.0
    vertex -3.999999999999999 0.0 20.0
    vertex -3.999999999999999 0.0 0.0
  endloop
endfacet
facet normal 0.9914448613738104 -0.13052619222005202 0.0
  outer loop
    vertex -3.999999999999999 0.0 20.0
    vertex -3.8637033051562715 1.035276180410086 0.0
    vertex -3.8637033051562715 1.035276180410086 20.0
  endloop
endfacet
endsolid Переходник-исправление
