solid КреплениеЭкрана
facet normal 2.790894663140185e-17 4.0174864956846727e-17 -1.0
  outer loop
    vertex 9.249999999999998 31.60288568297003 0.0
    vertex 8.999999999999998 15.08039768351416 0.0
    vertex 8.318019484660535 32.31801948466054 0.0
  endloop
endfacet
facet normal 2.790894663140185e-17 4.0174864956846727e-17 -1.0
  outer loop
    vertex 8.999999999999998 15.08039768351416 0.0
    vertex 9.249999999999998 31.60288568297003 0.0
    vertex 9.08518543427733 15.727445296270464 0.0
  endloop
endfacet
facet normal 2.790894663140185e-17 4.0174864956846727e-17 -1.0
  outer loop
    vertex 9.08518543427733 15.727445296270464 0.0
    vertex 9.249999999999998 31.60288568297003 0.0
    vertex 9.334936490538903 16.33039768351416 0.0
  endloop
endfacet
facet normal 2.790894663140185e-17 4.0174864956846727e-17 -1.0
  outer loop
    vertex 9.334936490538903 16.33039768351416 0.0
    vertex 9.249999999999998 31.60288568297003 0.0
    vertex 10.335314297038655 31.153333781699196 0.0
  endloop
endfacet
facet normal 2.790894663140185e-17 4.0174864956846727e-17 -1.0
  outer loop
    vertex 9.334936490538903 16.33039768351416 0.0
    vertex 10.335314297038655 31.153333781699196 0.0
    vertex 9.732233047033631 16.84816463648053 0.0
  endloop
endfacet
facet normal 2.790894663140185e-17 4.0174864956846727e-17 -1.0
  outer loop
    vertex 9.732233047033631 16.84816463648053 0.0
    vertex 10.335314297038655 31.153333781699196 0.0
    vertex 10.250000000000002 17.24546119297526 0.0
  endloop
endfacet
facet normal 2.790894663140185e-17 4.0174864956846727e-17 -1.0
  outer loop
    vertex 10.250000000000002 17.24546119297526 0.0
    vertex 10.335314297038655 31.153333781699196 0.0
    vertex 10.852952387243697 17.495212249236832 0.0
  endloop
endfacet
facet normal 2.790894663140185e-17 4.0174864956846727e-17 -1.0
  outer loop
    vertex 10.852952387243697 17.495212249236832 0.0
    vertex 10.335314297038655 31.153333781699196 0.0
    vertex 11.499999999999998 31.000000000000004 0.0
  endloop
endfacet
facet normal 2.790894663140185e-17 4.0174864956846727e-17 -1.0
  outer loop
    vertex 10.852952387243697 17.495212249236832 0.0
    vertex 11.499999999999998 31.000000000000004 0.0
    vertex 11.499999999999998 17.580397683514157 0.0
  endloop
endfacet
facet normal 2.790894663140185e-17 4.0174864956846727e-17 -1.0
  outer loop
    vertex 11.499999999999998 17.580397683514157 0.0
    vertex 11.499999999999998 31.000000000000004 0.0
    vertex 12.664685702961341 31.153333781699196 0.0
  endloop
endfacet
facet normal 2.790894663140185e-17 4.0174864956846727e-17 -1.0
  outer loop
    vertex 11.499999999999998 17.580397683514157 0.0
    vertex 12.664685702961341 31.153333781699196 0.0
    vertex 12.147047612756303 17.49521224923683 0.0
  endloop
endfacet
facet normal 2.790894663140185e-17 4.0174864956846727e-17 -1.0
  outer loop
    vertex 12.147047612756303 17.49521224923683 0.0
    vertex 12.664685702961341 31.153333781699196 0.0
    vertex 12.75 17.245461192975256 0.0
  endloop
endfacet
facet normal 2.790894663140185e-17 4.0174864956846727e-17 -1.0
  outer loop
    vertex 12.75 17.245461192975256 0.0
    vertex 12.664685702961341 31.153333781699196 0.0
    vertex 13.749999999999998 31.60288568297003 0.0
  endloop
endfacet
facet normal 2.790894663140185e-17 4.0174864956846727e-17 -1.0
  outer loop
    vertex 12.75 17.245461192975256 0.0
    vertex 13.749999999999998 31.60288568297003 0.0
    vertex 13.267766952966369 16.84816463648053 0.0
  endloop
endfacet
facet normal 2.790894663140185e-17 4.0174864956846727e-17 -1.0
  outer loop
    vertex 13.267766952966369 16.84816463648053 0.0
    vertex 13.749999999999998 31.60288568297003 0.0
    vertex 13.665063509461097 16.33039768351416 0.0
  endloop
endfacet
facet normal 2.790894663140185e-17 4.0174864956846727e-17 -1.0
  outer loop
    vertex 13.665063509461097 16.33039768351416 0.0
    vertex 13.749999999999998 31.60288568297003 0.0
    vertex 13.91481456572267 15.727445296270462 0.0
  endloop
endfacet
facet normal 2.790894663140185e-17 4.0174864956846727e-17 -1.0
  outer loop
    vertex 13.91481456572267 15.727445296270462 0.0
    vertex 13.749999999999998 31.60288568297003 0.0
    vertex 14.681980515339461 32.31801948466054 0.0
  endloop
endfacet
facet normal 2.790894663140185e-17 4.0174864956846727e-17 -1.0
  outer loop
    vertex 13.91481456572267 15.727445296270462 0.0
    vertex 14.681980515339461 32.31801948466054 0.0
    vertex 13.999999999999996 15.08039768351416 0.0
  endloop
endfacet
facet normal 2.790894663140185e-17 4.0174864956846727e-17 -1.0
  outer loop
    vertex 10.000000000000002 70.0 0.0
    vertex -4.999999999999997 -2.9999999999999947 1.4344323013249928e-16
    vertex -5.000000000000003 70.0 1.4344323013249918e-16
  endloop
endfacet
facet normal 2.790894663140185e-17 4.0174864956846727e-17 -1.0
  outer loop
    vertex -4.999999999999997 -2.9999999999999947 1.4344323013249928e-16
    vertex 10.000000000000002 70.0 0.0
    vertex 7.0 35.5 0.0
  endloop
endfacet
facet normal 2.790894663140185e-17 4.0174864956846727e-17 -1.0
  outer loop
    vertex 7.0 35.5 0.0
    vertex 10.000000000000002 70.0 0.0
    vertex 7.153333781699194 36.66468570296135 0.0
  endloop
endfacet
facet normal 2.790894663140185e-17 4.0174864956846727e-17 -1.0
  outer loop
    vertex 7.153333781699194 36.66468570296135 0.0
    vertex 10.000000000000002 70.0 0.0
    vertex 7.602885682970028 37.75000000000001 0.0
  endloop
endfacet
facet normal 2.790894663140185e-17 4.0174864956846727e-17 -1.0
  outer loop
    vertex 7.602885682970028 37.75000000000001 0.0
    vertex 10.000000000000002 70.0 0.0
    vertex 8.318019484660537 38.68198051533947 0.0
  endloop
endfacet
facet normal 2.790894663140185e-17 4.0174864956846727e-17 -1.0
  outer loop
    vertex 8.318019484660537 38.68198051533947 0.0
    vertex 10.000000000000002 70.0 0.0
    vertex 9.250000000000004 39.397114317029974 0.0
  endloop
endfacet
facet normal 2.790894663140185e-17 4.0174864956846727e-17 -1.0
  outer loop
    vertex 9.250000000000004 39.397114317029974 0.0
    vertex 10.000000000000002 70.0 0.0
    vertex 10.335314297038657 39.84666621830081 0.0
  endloop
endfacet
facet normal 2.790894663140185e-17 4.0174864956846727e-17 -1.0
  outer loop
    vertex 10.335314297038657 39.84666621830081 0.0
    vertex 10.000000000000002 70.0 0.0
    vertex 38.99999999999999 52.00000000000001 0.0
  endloop
endfacet
facet normal 2.790894663140185e-17 4.0174864956846727e-17 -1.0
  outer loop
    vertex 38.99999999999999 52.00000000000001 0.0
    vertex 10.000000000000002 70.0 0.0
    vertex 140.0 70.0 0.0
  endloop
endfacet
facet normal 2.790894663140185e-17 4.0174864956846727e-17 -1.0
  outer loop
    vertex 10.335314297038657 39.84666621830081 0.0
    vertex 38.99999999999999 52.00000000000001 0.0
    vertex 11.5 40.0 0.0
  endloop
endfacet
facet normal 2.790894663140185e-17 4.0174864956846727e-17 -1.0
  outer loop
    vertex 11.5 40.0 0.0
    vertex 38.99999999999999 52.00000000000001 0.0
    vertex 12.664685702961345 39.84666621830081 0.0
  endloop
endfacet
facet normal 2.790894663140185e-17 4.0174864956846727e-17 -1.0
  outer loop
    vertex 12.664685702961345 39.84666621830081 0.0
    vertex 38.99999999999999 52.00000000000001 0.0
    vertex 13.75 39.397114317029974 0.0
  endloop
endfacet
facet normal 2.790894663140185e-17 4.0174864956846727e-17 -1.0
  outer loop
    vertex 13.75 39.397114317029974 0.0
    vertex 38.99999999999999 52.00000000000001 0.0
    vertex 14.681980515339461 38.68198051533946 0.0
  endloop
endfacet
facet normal 2.790894663140185e-17 4.0174864956846727e-17 -1.0
  outer loop
    vertex 14.681980515339461 38.68198051533946 0.0
    vertex 38.99999999999999 52.00000000000001 0.0
    vertex 15.397114317029972 37.75 0.0
  endloop
endfacet
facet normal 2.790894663140185e-17 4.0174864956846727e-17 -1.0
  outer loop
    vertex 15.397114317029972 37.75 0.0
    vertex 38.99999999999999 52.00000000000001 0.0
    vertex 15.846666218300806 36.66468570296134 0.0
  endloop
endfacet
facet normal 2.790894663140185e-17 4.0174864956846727e-17 -1.0
  outer loop
    vertex 15.846666218300806 36.66468570296134 0.0
    vertex 38.99999999999999 52.00000000000001 0.0
    vertex 15.999999999999998 35.5 0.0
  endloop
endfacet
facet normal 2.790894663140185e-17 4.0174864956846727e-17 -1.0
  outer loop
    vertex 38.99999999999999 52.00000000000001 0.0
    vertex 140.0 70.0 0.0
    vertex 137.0 52.00000000000001 0.0
  endloop
endfacet
facet normal 2.790894663140185e-17 4.0174864956846727e-17 -1.0
  outer loop
    vertex 137.0 52.00000000000001 0.0
    vertex 140.0 70.0 0.0
    vertex 137.0 12.000000000000005 0.0
  endloop
endfacet
facet normal 2.790894663140185e-17 4.0174864956846727e-17 -1.0
  outer loop
    vertex -4.999999999999997 -2.9999999999999947 1.4344323013249928e-16
    vertex 11.499999999999998 12.58039768351416 0.0
    vertex 155.0 -3.0 0.0
  endloop
endfacet
facet normal 2.790894663140185e-17 4.0174864956846727e-17 -1.0
  outer loop
    vertex 11.499999999999998 12.58039768351416 0.0
    vertex -4.999999999999997 -2.9999999999999947 1.4344323013249928e-16
    vertex 10.852952387243697 12.66558311779149 0.0
  endloop
endfacet
facet normal 2.790894663140185e-17 4.0174864956846727e-17 -1.0
  outer loop
    vertex 10.852952387243697 12.66558311779149 0.0
    vertex -4.999999999999997 -2.9999999999999947 1.4344323013249928e-16
    vertex 10.249999999999998 12.915334174053065 0.0
  endloop
endfacet
facet normal 2.790894663140185e-17 4.0174864956846727e-17 -1.0
  outer loop
    vertex 10.249999999999998 12.915334174053065 0.0
    vertex -4.999999999999997 -2.9999999999999947 1.4344323013249928e-16
    vertex 9.732233047033631 13.312630730547792 0.0
  endloop
endfacet
facet normal 2.790894663140185e-17 4.0174864956846727e-17 -1.0
  outer loop
    vertex 9.732233047033631 13.312630730547792 0.0
    vertex -4.999999999999997 -2.9999999999999947 1.4344323013249928e-16
    vertex 9.334936490538903 13.830397683514159 0.0
  endloop
endfacet
facet normal 2.790894663140185e-17 4.0174864956846727e-17 -1.0
  outer loop
    vertex 9.334936490538903 13.830397683514159 0.0
    vertex -4.999999999999997 -2.9999999999999947 1.4344323013249928e-16
    vertex 9.085185434277328 14.433350070757859 0.0
  endloop
endfacet
facet normal 2.790894663140185e-17 4.0174864956846727e-17 -1.0
  outer loop
    vertex 9.085185434277328 14.433350070757859 0.0
    vertex -4.999999999999997 -2.9999999999999947 1.4344323013249928e-16
    vertex 8.999999999999998 15.08039768351416 0.0
  endloop
endfacet
facet normal 2.790894663140185e-17 4.0174864956846727e-17 -1.0
  outer loop
    vertex 8.999999999999998 15.08039768351416 0.0
    vertex -4.999999999999997 -2.9999999999999947 1.4344323013249928e-16
    vertex 7.0 35.5 0.0
  endloop
endfacet
facet normal 2.790894663140185e-17 4.0174864956846727e-17 -1.0
  outer loop
    vertex 8.999999999999998 15.08039768351416 0.0
    vertex 7.0 35.5 0.0
    vertex 7.153333781699192 34.335314297038664 0.0
  endloop
endfacet
facet normal 2.790894663140185e-17 4.0174864956846727e-17 -1.0
  outer loop
    vertex 8.999999999999998 15.08039768351416 0.0
    vertex 7.153333781699192 34.335314297038664 0.0
    vertex 7.602885682970025 33.25 0.0
  endloop
endfacet
facet normal 2.790894663140185e-17 4.0174864956846727e-17 -1.0
  outer loop
    vertex 8.999999999999998 15.08039768351416 0.0
    vertex 7.602885682970025 33.25 0.0
    vertex 8.318019484660535 32.31801948466054 0.0
  endloop
endfacet
facet normal 2.790894663140185e-17 4.0174864956846727e-17 -1.0
  outer loop
    vertex 155.0 -3.0 0.0
    vertex 11.499999999999998 12.58039768351416 0.0
    vertex 12.1470476127563 12.66558311779149 0.0
  endloop
endfacet
facet normal 2.790894663140185e-17 4.0174864956846727e-17 -1.0
  outer loop
    vertex 155.0 -3.0 0.0
    vertex 12.1470476127563 12.66558311779149 0.0
    vertex 12.75 12.915334174053061 0.0
  endloop
endfacet
facet normal 2.790894663140185e-17 4.0174864956846727e-17 -1.0
  outer loop
    vertex 155.0 -3.0 0.0
    vertex 12.75 12.915334174053061 0.0
    vertex 13.267766952966367 13.312630730547792 0.0
  endloop
endfacet
facet normal 2.790894663140185e-17 4.0174864956846727e-17 -1.0
  outer loop
    vertex 155.0 -3.0 0.0
    vertex 13.267766952966367 13.312630730547792 0.0
    vertex 13.665063509461094 13.830397683514159 0.0
  endloop
endfacet
facet normal 2.790894663140185e-17 4.0174864956846727e-17 -1.0
  outer loop
    vertex 155.0 -3.0 0.0
    vertex 13.665063509461094 13.830397683514159 0.0
    vertex 13.914814565722667 14.433350070757859 0.0
  endloop
endfacet
facet normal 2.790894663140185e-17 4.0174864956846727e-17 -1.0
  outer loop
    vertex 155.0 -3.0 0.0
    vertex 13.914814565722667 14.433350070757859 0.0
    vertex 13.999999999999996 15.08039768351416 0.0
  endloop
endfacet
facet normal 2.790894663140185e-17 4.0174864956846727e-17 -1.0
  outer loop
    vertex 155.0 -3.0 0.0
    vertex 13.999999999999996 15.08039768351416 0.0
    vertex 38.99999999999999 12.000000000000005 0.0
  endloop
endfacet
facet normal 2.790894663140185e-17 4.0174864956846727e-17 -1.0
  outer loop
    vertex 38.99999999999999 12.000000000000005 0.0
    vertex 13.999999999999996 15.08039768351416 0.0
    vertex 14.681980515339461 32.31801948466054 0.0
  endloop
endfacet
facet normal 2.790894663140185e-17 4.0174864956846727e-17 -1.0
  outer loop
    vertex 38.99999999999999 12.000000000000005 0.0
    vertex 14.681980515339461 32.31801948466054 0.0
    vertex 15.397114317029969 33.25 0.0
  endloop
endfacet
facet normal 2.790894663140185e-17 4.0174864956846727e-17 -1.0
  outer loop
    vertex 38.99999999999999 12.000000000000005 0.0
    vertex 15.397114317029969 33.25 0.0
    vertex 15.846666218300804 34.33531429703866 0.0
  endloop
endfacet
facet normal 2.790894663140185e-17 4.0174864956846727e-17 -1.0
  outer loop
    vertex 38.99999999999999 12.000000000000005 0.0
    vertex 15.846666218300804 34.33531429703866 0.0
    vertex 15.999999999999998 35.5 0.0
  endloop
endfacet
facet normal 2.790894663140185e-17 4.0174864956846727e-17 -1.0
  outer loop
    vertex 38.99999999999999 12.000000000000005 0.0
    vertex 15.999999999999998 35.5 0.0
    vertex 38.99999999999999 52.00000000000001 0.0
  endloop
endfacet
facet normal 2.790894663140185e-17 4.0174864956846727e-17 -1.0
  outer loop
    vertex 155.0 -3.0 0.0
    vertex 38.99999999999999 12.000000000000005 0.0
    vertex 137.0 12.000000000000005 0.0
  endloop
endfacet
facet normal 2.790894663140185e-17 4.0174864956846727e-17 -1.0
  outer loop
    vertex 155.0 -3.0 0.0
    vertex 137.0 12.000000000000005 0.0
    vertex 140.0 70.0 0.0
  endloop
endfacet
facet normal 2.790894663140185e-17 4.0174864956846727e-17 -1.0
  outer loop
    vertex 155.0 -3.0 0.0
    vertex 140.0 70.0 0.0
    vertex 155.0 70.0 1.1731060567399243e-14
  endloop
endfacet
facet normal -3.6153416442921765e-17 -1.0 -0.0
  outer loop
    vertex 155.0 -3.0 25.0
    vertex -4.999999999999997 -2.9999999999999947 1.4344323013249928e-16
    vertex 155.0 -3.0 0.0
  endloop
endfacet
facet normal -3.6153416442921765e-17 -1.0 -0.0
  outer loop
    vertex -4.999999999999997 -2.9999999999999947 1.4344323013249928e-16
    vertex 155.0 -3.0 25.0
    vertex -4.999999999999997 -2.9999999999999947 25.0
  endloop
endfacet
facet normal -1.0 -6.463681672319358e-18 7.172161506624964e-17
  outer loop
    vertex -4.999999999999995 85.0 25.000000000000018
    vertex -4.999999999999997 70.0 25.0
    vertex -4.999999999999997 70.0 40.0
  endloop
endfacet
facet normal -1.0 -6.463681672319358e-18 7.172161506624964e-17
  outer loop
    vertex -4.999999999999997 70.0 25.0
    vertex -4.999999999999995 85.0 25.000000000000018
    vertex -5.000000000000003 70.0 1.4344323013249918e-16
  endloop
endfacet
facet normal -1.0 -6.463681672319358e-18 7.172161506624964e-17
  outer loop
    vertex -4.999999999999997 70.0 25.0
    vertex -4.999999999999997 -2.9999999999999947 1.4344323013249928e-16
    vertex -4.999999999999997 -2.9999999999999947 25.0
  endloop
endfacet
facet normal -1.0 -6.463681672319358e-18 7.172161506624964e-17
  outer loop
    vertex -4.999999999999997 -2.9999999999999947 1.4344323013249928e-16
    vertex -4.999999999999997 70.0 25.0
    vertex -5.000000000000003 70.0 1.4344323013249918e-16
  endloop
endfacet
facet normal -1.0 0.0 0.0
  outer loop
    vertex 150.0 65.0 25.0
    vertex 150.0 44.969669521506916 13.5
    vertex 150.0 44.93933904301383 25.0
  endloop
endfacet
facet normal -1.0 0.0 0.0
  outer loop
    vertex 150.0 17.000000000000007 25.0
    vertex 150.0 0.0 1.9999999999999998
    vertex 150.0 0.0 25.0
  endloop
endfacet
facet normal -1.0 0.0 0.0
  outer loop
    vertex 150.0 0.0 1.9999999999999998
    vertex 150.0 17.000000000000007 25.0
    vertex 150.0 17.000000000000007 13.5
  endloop
endfacet
facet normal -1.0 0.0 0.0
  outer loop
    vertex 150.0 0.0 1.9999999999999998
    vertex 150.0 17.000000000000007 13.5
    vertex 150.0 65.0 1.9999999999999998
  endloop
endfacet
facet normal -1.0 0.0 0.0
  outer loop
    vertex 150.0 65.0 1.9999999999999998
    vertex 150.0 17.000000000000007 13.5
    vertex 150.0 44.969669521506916 13.5
  endloop
endfacet
facet normal -1.0 0.0 0.0
  outer loop
    vertex 150.0 65.0 1.9999999999999998
    vertex 150.0 44.969669521506916 13.5
    vertex 150.0 65.0 25.0
  endloop
endfacet
facet normal 0.0 -1.0 0.0
  outer loop
    vertex 150.0 65.0 25.0
    vertex 0.0 65.0 1.9999999999999998
    vertex 150.0 65.0 1.9999999999999998
  endloop
endfacet
facet normal 0.0 -1.0 0.0
  outer loop
    vertex 0.0 65.0 1.9999999999999998
    vertex 150.0 65.0 25.0
    vertex 0.0 65.0 25.0
  endloop
endfacet
facet normal 1.0 -0.0 -0.0
  outer loop
    vertex 0.0 65.0 1.9999999999999998
    vertex 0.0 0.0 25.0
    vertex 0.0 0.0 1.9999999999999998
  endloop
endfacet
facet normal 1.0 -0.0 -0.0
  outer loop
    vertex 0.0 0.0 25.0
    vertex 0.0 65.0 1.9999999999999998
    vertex 0.0 65.0 25.0
  endloop
endfacet
facet normal -0.0 1.0 -0.0
  outer loop
    vertex 0.0 0.0 25.0
    vertex 150.0 0.0 1.9999999999999998
    vertex 0.0 0.0 1.9999999999999998
  endloop
endfacet
facet normal -0.0 1.0 -0.0
  outer loop
    vertex 150.0 0.0 1.9999999999999998
    vertex 0.0 0.0 25.0
    vertex 150.0 0.0 25.0
  endloop
endfacet
facet normal -0.0 -0.0 1.0
  outer loop
    vertex 0.0 0.0 1.9999999999999998
    vertex 9.085185434277328 14.433350070757859 1.9999999999999962
    vertex 0.0 65.0 1.9999999999999998
  endloop
endfacet
facet normal -0.0 -0.0 1.0
  outer loop
    vertex 9.085185434277328 14.433350070757859 1.9999999999999962
    vertex 0.0 0.0 1.9999999999999998
    vertex 9.334936490538903 13.830397683514159 1.9999999999999962
  endloop
endfacet
facet normal -0.0 -0.0 1.0
  outer loop
    vertex 9.334936490538903 13.830397683514159 1.9999999999999962
    vertex 0.0 0.0 1.9999999999999998
    vertex 9.732233047033631 13.312630730547792 1.9999999999999962
  endloop
endfacet
facet normal -0.0 -0.0 1.0
  outer loop
    vertex 9.732233047033631 13.312630730547792 1.9999999999999962
    vertex 0.0 0.0 1.9999999999999998
    vertex 10.249999999999998 12.915334174053065 1.9999999999999962
  endloop
endfacet
facet normal -0.0 -0.0 1.0
  outer loop
    vertex 10.249999999999998 12.915334174053065 1.9999999999999962
    vertex 0.0 0.0 1.9999999999999998
    vertex 10.852952387243697 12.66558311779149 1.9999999999999962
  endloop
endfacet
facet normal -0.0 -0.0 1.0
  outer loop
    vertex 10.852952387243697 12.66558311779149 1.9999999999999962
    vertex 0.0 0.0 1.9999999999999998
    vertex 11.499999999999998 12.58039768351416 1.9999999999999962
  endloop
endfacet
facet normal -0.0 -0.0 1.0
  outer loop
    vertex 11.499999999999998 12.58039768351416 1.9999999999999962
    vertex 0.0 0.0 1.9999999999999998
    vertex 150.0 0.0 1.9999999999999998
  endloop
endfacet
facet normal -0.0 -0.0 1.0
  outer loop
    vertex 0.0 65.0 1.9999999999999998
    vertex 9.085185434277328 14.433350070757859 1.9999999999999962
    vertex 8.999999999999998 15.08039768351416 1.9999999999999962
  endloop
endfacet
facet normal -0.0 -0.0 1.0
  outer loop
    vertex 0.0 65.0 1.9999999999999998
    vertex 8.999999999999998 15.08039768351416 1.9999999999999962
    vertex 7.0 35.5 2.000000000000904
  endloop
endfacet
facet normal -0.0 -0.0 1.0
  outer loop
    vertex 7.0 35.5 2.000000000000904
    vertex 8.999999999999998 15.08039768351416 1.9999999999999962
    vertex 7.153333781699192 34.335314297038664 2.000000000000904
  endloop
endfacet
facet normal -0.0 -0.0 1.0
  outer loop
    vertex 7.153333781699192 34.335314297038664 2.000000000000904
    vertex 8.999999999999998 15.08039768351416 1.9999999999999962
    vertex 7.602885682970025 33.25 2.000000000000904
  endloop
endfacet
facet normal -0.0 -0.0 1.0
  outer loop
    vertex 7.602885682970025 33.25 2.000000000000904
    vertex 8.999999999999998 15.08039768351416 1.9999999999999962
    vertex 8.318019484660535 32.31801948466054 2.000000000000904
  endloop
endfacet
facet normal -0.0 -0.0 1.0
  outer loop
    vertex 11.499999999999998 12.58039768351416 1.9999999999999962
    vertex 150.0 0.0 1.9999999999999998
    vertex 12.1470476127563 12.66558311779149 1.9999999999999962
  endloop
endfacet
facet normal -0.0 -0.0 1.0
  outer loop
    vertex 12.1470476127563 12.66558311779149 1.9999999999999962
    vertex 150.0 0.0 1.9999999999999998
    vertex 12.75 12.915334174053061 1.9999999999999962
  endloop
endfacet
facet normal -0.0 -0.0 1.0
  outer loop
    vertex 12.75 12.915334174053061 1.9999999999999962
    vertex 150.0 0.0 1.9999999999999998
    vertex 13.267766952966367 13.312630730547792 1.9999999999999962
  endloop
endfacet
facet normal -0.0 -0.0 1.0
  outer loop
    vertex 13.267766952966367 13.312630730547792 1.9999999999999962
    vertex 150.0 0.0 1.9999999999999998
    vertex 13.665063509461094 13.830397683514159 1.9999999999999962
  endloop
endfacet
facet normal -0.0 -0.0 1.0
  outer loop
    vertex 13.665063509461094 13.830397683514159 1.9999999999999962
    vertex 150.0 0.0 1.9999999999999998
    vertex 13.914814565722667 14.433350070757859 1.9999999999999962
  endloop
endfacet
facet normal -0.0 -0.0 1.0
  outer loop
    vertex 13.914814565722667 14.433350070757859 1.9999999999999962
    vertex 150.0 0.0 1.9999999999999998
    vertex 38.99999999999999 12.000000000000005 2.000000000000899
  endloop
endfacet
facet normal -0.0 -0.0 1.0
  outer loop
    vertex 13.914814565722667 14.433350070757859 1.9999999999999962
    vertex 38.99999999999999 12.000000000000005 2.000000000000899
    vertex 13.999999999999996 15.08039768351416 1.9999999999999962
  endloop
endfacet
facet normal -0.0 -0.0 1.0
  outer loop
    vertex 13.999999999999996 15.08039768351416 1.9999999999999962
    vertex 38.99999999999999 12.000000000000005 2.000000000000899
    vertex 14.681980515339461 32.31801948466054 2.000000000000904
  endloop
endfacet
facet normal -0.0 -0.0 1.0
  outer loop
    vertex 14.681980515339461 32.31801948466054 2.000000000000904
    vertex 38.99999999999999 12.000000000000005 2.000000000000899
    vertex 15.397114317029969 33.25 2.000000000000904
  endloop
endfacet
facet normal -0.0 -0.0 1.0
  outer loop
    vertex 15.397114317029969 33.25 2.000000000000904
    vertex 38.99999999999999 12.000000000000005 2.000000000000899
    vertex 15.846666218300804 34.33531429703866 2.000000000000904
  endloop
endfacet
facet normal -0.0 -0.0 1.0
  outer loop
    vertex 15.846666218300804 34.33531429703866 2.000000000000904
    vertex 38.99999999999999 12.000000000000005 2.000000000000899
    vertex 15.999999999999998 35.5 2.000000000000904
  endloop
endfacet
facet normal -0.0 -0.0 1.0
  outer loop
    vertex 38.99999999999999 12.000000000000005 2.000000000000899
    vertex 150.0 0.0 1.9999999999999998
    vertex 137.0 12.000000000000005 2.000000000000899
  endloop
endfacet
facet normal -0.0 -0.0 1.0
  outer loop
    vertex 137.0 12.000000000000005 2.000000000000899
    vertex 150.0 0.0 1.9999999999999998
    vertex 137.0 52.00000000000001 2.000000000000899
  endloop
endfacet
facet normal -0.0 -0.0 1.0
  outer loop
    vertex 0.0 65.0 1.9999999999999998
    vertex 38.99999999999999 52.00000000000001 2.000000000000899
    vertex 150.0 65.0 1.9999999999999998
  endloop
endfacet
facet normal -0.0 -0.0 1.0
  outer loop
    vertex 38.99999999999999 52.00000000000001 2.000000000000899
    vertex 0.0 65.0 1.9999999999999998
    vertex 9.250000000000004 39.397114317029974 2.000000000000904
  endloop
endfacet
facet normal -0.0 -0.0 1.0
  outer loop
    vertex 9.250000000000004 39.397114317029974 2.000000000000904
    vertex 0.0 65.0 1.9999999999999998
    vertex 8.318019484660537 38.68198051533947 2.000000000000904
  endloop
endfacet
facet normal -0.0 -0.0 1.0
  outer loop
    vertex 8.318019484660537 38.68198051533947 2.000000000000904
    vertex 0.0 65.0 1.9999999999999998
    vertex 7.602885682970028 37.75000000000001 2.000000000000904
  endloop
endfacet
facet normal -0.0 -0.0 1.0
  outer loop
    vertex 7.602885682970028 37.75000000000001 2.000000000000904
    vertex 0.0 65.0 1.9999999999999998
    vertex 7.153333781699194 36.66468570296135 2.000000000000904
  endloop
endfacet
facet normal -0.0 -0.0 1.0
  outer loop
    vertex 7.153333781699194 36.66468570296135 2.000000000000904
    vertex 0.0 65.0 1.9999999999999998
    vertex 7.0 35.5 2.000000000000904
  endloop
endfacet
facet normal -0.0 -0.0 1.0
  outer loop
    vertex 38.99999999999999 52.00000000000001 2.000000000000899
    vertex 9.250000000000004 39.397114317029974 2.000000000000904
    vertex 10.335314297038657 39.84666621830081 2.000000000000904
  endloop
endfacet
facet normal -0.0 -0.0 1.0
  outer loop
    vertex 38.99999999999999 52.00000000000001 2.000000000000899
    vertex 10.335314297038657 39.84666621830081 2.000000000000904
    vertex 11.5 40.0 2.000000000000904
  endloop
endfacet
facet normal -0.0 -0.0 1.0
  outer loop
    vertex 38.99999999999999 52.00000000000001 2.000000000000899
    vertex 11.5 40.0 2.000000000000904
    vertex 12.664685702961345 39.84666621830081 2.000000000000904
  endloop
endfacet
facet normal -0.0 -0.0 1.0
  outer loop
    vertex 38.99999999999999 52.00000000000001 2.000000000000899
    vertex 12.664685702961345 39.84666621830081 2.000000000000904
    vertex 13.75 39.397114317029974 2.000000000000904
  endloop
endfacet
facet normal -0.0 -0.0 1.0
  outer loop
    vertex 38.99999999999999 52.00000000000001 2.000000000000899
    vertex 13.75 39.397114317029974 2.000000000000904
    vertex 14.681980515339461 38.68198051533946 2.000000000000904
  endloop
endfacet
facet normal -0.0 -0.0 1.0
  outer loop
    vertex 38.99999999999999 52.00000000000001 2.000000000000899
    vertex 14.681980515339461 38.68198051533946 2.000000000000904
    vertex 15.397114317029972 37.75 2.000000000000904
  endloop
endfacet
facet normal -0.0 -0.0 1.0
  outer loop
    vertex 38.99999999999999 52.00000000000001 2.000000000000899
    vertex 15.397114317029972 37.75 2.000000000000904
    vertex 15.846666218300806 36.66468570296134 2.000000000000904
  endloop
endfacet
facet normal -0.0 -0.0 1.0
  outer loop
    vertex 38.99999999999999 52.00000000000001 2.000000000000899
    vertex 15.846666218300806 36.66468570296134 2.000000000000904
    vertex 15.999999999999998 35.5 2.000000000000904
  endloop
endfacet
facet normal -0.0 -0.0 1.0
  outer loop
    vertex 38.99999999999999 52.00000000000001 2.000000000000899
    vertex 15.999999999999998 35.5 2.000000000000904
    vertex 38.99999999999999 12.000000000000005 2.000000000000899
  endloop
endfacet
facet normal -0.0 -0.0 1.0
  outer loop
    vertex 150.0 65.0 1.9999999999999998
    vertex 38.99999999999999 52.00000000000001 2.000000000000899
    vertex 137.0 52.00000000000001 2.000000000000899
  endloop
endfacet
facet normal -0.0 -0.0 1.0
  outer loop
    vertex 150.0 65.0 1.9999999999999998
    vertex 137.0 52.00000000000001 2.000000000000899
    vertex 150.0 0.0 1.9999999999999998
  endloop
endfacet
facet normal -0.0 -0.0 1.0
  outer loop
    vertex 8.999999999999998 15.08039768351416 1.9999999999999962
    vertex 9.249999999999998 31.60288568297003 2.000000000000904
    vertex 8.318019484660535 32.31801948466054 2.000000000000904
  endloop
endfacet
facet normal -0.0 -0.0 1.0
  outer loop
    vertex 9.249999999999998 31.60288568297003 2.000000000000904
    vertex 8.999999999999998 15.08039768351416 1.9999999999999962
    vertex 9.08518543427733 15.727445296270464 1.9999999999999962
  endloop
endfacet
facet normal -0.0 -0.0 1.0
  outer loop
    vertex 9.249999999999998 31.60288568297003 2.000000000000904
    vertex 9.08518543427733 15.727445296270464 1.9999999999999962
    vertex 9.334936490538903 16.33039768351416 1.9999999999999962
  endloop
endfacet
facet normal -0.0 -0.0 1.0
  outer loop
    vertex 9.249999999999998 31.60288568297003 2.000000000000904
    vertex 9.334936490538903 16.33039768351416 1.9999999999999962
    vertex 10.335314297038655 31.153333781699196 2.000000000000904
  endloop
endfacet
facet normal -0.0 -0.0 1.0
  outer loop
    vertex 10.335314297038655 31.153333781699196 2.000000000000904
    vertex 9.334936490538903 16.33039768351416 1.9999999999999962
    vertex 9.732233047033631 16.84816463648053 1.9999999999999962
  endloop
endfacet
facet normal -0.0 -0.0 1.0
  outer loop
    vertex 10.335314297038655 31.153333781699196 2.000000000000904
    vertex 9.732233047033631 16.84816463648053 1.9999999999999962
    vertex 10.250000000000002 17.24546119297526 1.9999999999999962
  endloop
endfacet
facet normal -0.0 -0.0 1.0
  outer loop
    vertex 10.335314297038655 31.153333781699196 2.000000000000904
    vertex 10.250000000000002 17.24546119297526 1.9999999999999962
    vertex 10.852952387243697 17.495212249236832 1.9999999999999962
  endloop
endfacet
facet normal -0.0 -0.0 1.0
  outer loop
    vertex 10.335314297038655 31.153333781699196 2.000000000000904
    vertex 10.852952387243697 17.495212249236832 1.9999999999999962
    vertex 11.499999999999998 31.000000000000004 2.000000000000904
  endloop
endfacet
facet normal -0.0 -0.0 1.0
  outer loop
    vertex 11.499999999999998 31.000000000000004 2.000000000000904
    vertex 10.852952387243697 17.495212249236832 1.9999999999999962
    vertex 11.499999999999998 17.580397683514157 1.9999999999999962
  endloop
endfacet
facet normal -0.0 -0.0 1.0
  outer loop
    vertex 11.499999999999998 31.000000000000004 2.000000000000904
    vertex 11.499999999999998 17.580397683514157 1.9999999999999962
    vertex 12.147047612756303 17.49521224923683 1.9999999999999962
  endloop
endfacet
facet normal -0.0 -0.0 1.0
  outer loop
    vertex 11.499999999999998 31.000000000000004 2.000000000000904
    vertex 12.147047612756303 17.49521224923683 1.9999999999999962
    vertex 12.664685702961341 31.153333781699196 2.000000000000904
  endloop
endfacet
facet normal -0.0 -0.0 1.0
  outer loop
    vertex 12.664685702961341 31.153333781699196 2.000000000000904
    vertex 12.147047612756303 17.49521224923683 1.9999999999999962
    vertex 12.75 17.245461192975256 1.9999999999999962
  endloop
endfacet
facet normal -0.0 -0.0 1.0
  outer loop
    vertex 12.664685702961341 31.153333781699196 2.000000000000904
    vertex 12.75 17.245461192975256 1.9999999999999962
    vertex 13.749999999999998 31.60288568297003 2.000000000000904
  endloop
endfacet
facet normal -0.0 -0.0 1.0
  outer loop
    vertex 13.749999999999998 31.60288568297003 2.000000000000904
    vertex 12.75 17.245461192975256 1.9999999999999962
    vertex 13.267766952966369 16.84816463648053 1.9999999999999962
  endloop
endfacet
facet normal -0.0 -0.0 1.0
  outer loop
    vertex 13.749999999999998 31.60288568297003 2.000000000000904
    vertex 13.267766952966369 16.84816463648053 1.9999999999999962
    vertex 13.665063509461097 16.33039768351416 1.9999999999999962
  endloop
endfacet
facet normal -0.0 -0.0 1.0
  outer loop
    vertex 13.749999999999998 31.60288568297003 2.000000000000904
    vertex 13.665063509461097 16.33039768351416 1.9999999999999962
    vertex 13.91481456572267 15.727445296270462 1.9999999999999962
  endloop
endfacet
facet normal -0.0 -0.0 1.0
  outer loop
    vertex 13.749999999999998 31.60288568297003 2.000000000000904
    vertex 13.91481456572267 15.727445296270462 1.9999999999999962
    vertex 14.681980515339461 32.31801948466054 2.000000000000904
  endloop
endfacet
facet normal -0.0 -0.0 1.0
  outer loop
    vertex 14.681980515339461 32.31801948466054 2.000000000000904
    vertex 13.91481456572267 15.727445296270462 1.9999999999999962
    vertex 13.999999999999996 15.08039768351416 1.9999999999999962
  endloop
endfacet
facet normal 1.0 -0.0 -0.0
  outer loop
    vertex 38.99999999999999 52.00000000000001 0.0
    vertex 38.99999999999999 12.000000000000005 2.000000000000899
    vertex 38.99999999999999 12.000000000000005 0.0
  endloop
endfacet
facet normal 1.0 -0.0 -0.0
  outer loop
    vertex 38.99999999999999 12.000000000000005 2.000000000000899
    vertex 38.99999999999999 52.00000000000001 0.0
    vertex 38.99999999999999 52.00000000000001 2.000000000000899
  endloop
endfacet
facet normal 0.0 -1.0 -0.0
  outer loop
    vertex 137.0 52.00000000000001 2.000000000000899
    vertex 38.99999999999999 52.00000000000001 0.0
    vertex 137.0 52.00000000000001 0.0
  endloop
endfacet
facet normal 0.0 -1.0 -0.0
  outer loop
    vertex 38.99999999999999 52.00000000000001 0.0
    vertex 137.0 52.00000000000001 2.000000000000899
    vertex 38.99999999999999 52.00000000000001 2.000000000000899
  endloop
endfacet
facet normal -1.0 -0.0 -0.0
  outer loop
    vertex 137.0 52.00000000000001 2.000000000000899
    vertex 137.0 12.000000000000005 0.0
    vertex 137.0 12.000000000000005 2.000000000000899
  endloop
endfacet
facet normal -1.0 -0.0 -0.0
  outer loop
    vertex 137.0 12.000000000000005 0.0
    vertex 137.0 52.00000000000001 2.000000000000899
    vertex 137.0 52.00000000000001 0.0
  endloop
endfacet
facet normal 0.0 1.0 0.0
  outer loop
    vertex 38.99999999999999 12.000000000000005 2.000000000000899
    vertex 137.0 12.000000000000005 0.0
    vertex 38.99999999999999 12.000000000000005 0.0
  endloop
endfacet
facet normal 0.0 1.0 0.0
  outer loop
    vertex 137.0 12.000000000000005 0.0
    vertex 38.99999999999999 12.000000000000005 2.000000000000899
    vertex 137.0 12.000000000000005 2.000000000000899
  endloop
endfacet
facet normal 0.9914448613738105 0.13052619222005202 0.0
  outer loop
    vertex 7.0 35.5 0.0
    vertex 7.153333781699192 34.335314297038664 2.000000000000904
    vertex 7.153333781699192 34.335314297038664 0.0
  endloop
endfacet
facet normal 0.9914448613738105 0.13052619222005202 0.0
  outer loop
    vertex 7.153333781699192 34.335314297038664 2.000000000000904
    vertex 7.0 35.5 0.0
    vertex 7.0 35.5 2.000000000000904
  endloop
endfacet
facet normal 0.9914448613738103 -0.13052619222005254 -0.0
  outer loop
    vertex 7.153333781699194 36.66468570296135 0.0
    vertex 7.0 35.5 2.000000000000904
    vertex 7.0 35.5 0.0
  endloop
endfacet
facet normal 0.9914448613738103 -0.13052619222005254 -0.0
  outer loop
    vertex 7.0 35.5 2.000000000000904
    vertex 7.153333781699194 36.66468570296135 0.0
    vertex 7.153333781699194 36.66468570296135 2.000000000000904
  endloop
endfacet
facet normal 0.9238795325112865 -0.3826834323650908 -0.0
  outer loop
    vertex 7.602885682970028 37.75000000000001 0.0
    vertex 7.153333781699194 36.66468570296135 2.000000000000904
    vertex 7.153333781699194 36.66468570296135 0.0
  endloop
endfacet
facet normal 0.9238795325112865 -0.3826834323650908 -0.0
  outer loop
    vertex 7.153333781699194 36.66468570296135 2.000000000000904
    vertex 7.602885682970028 37.75000000000001 0.0
    vertex 7.602885682970028 37.75000000000001 2.000000000000904
  endloop
endfacet
facet normal 0.793353340291236 -0.6087614290087197 -0.0
  outer loop
    vertex 8.318019484660537 38.68198051533947 0.0
    vertex 7.602885682970028 37.75000000000001 2.000000000000904
    vertex 7.602885682970028 37.75000000000001 0.0
  endloop
endfacet
facet normal 0.793353340291236 -0.6087614290087197 -0.0
  outer loop
    vertex 7.602885682970028 37.75000000000001 2.000000000000904
    vertex 8.318019484660537 38.68198051533947 0.0
    vertex 8.318019484660537 38.68198051533947 2.000000000000904
  endloop
endfacet
facet normal 0.6087614290087183 -0.793353340291237 -0.0
  outer loop
    vertex 9.250000000000004 39.397114317029974 2.000000000000904
    vertex 8.318019484660537 38.68198051533947 0.0
    vertex 9.250000000000004 39.397114317029974 0.0
  endloop
endfacet
facet normal 0.6087614290087183 -0.793353340291237 -0.0
  outer loop
    vertex 8.318019484660537 38.68198051533947 0.0
    vertex 9.250000000000004 39.397114317029974 2.000000000000904
    vertex 8.318019484660537 38.68198051533947 2.000000000000904
  endloop
endfacet
facet normal 0.3826834323650908 -0.9238795325112865 -0.0
  outer loop
    vertex 10.335314297038657 39.84666621830081 2.000000000000904
    vertex 9.250000000000004 39.397114317029974 0.0
    vertex 10.335314297038657 39.84666621830081 0.0
  endloop
endfacet
facet normal 0.3826834323650908 -0.9238795325112865 -0.0
  outer loop
    vertex 9.250000000000004 39.397114317029974 0.0
    vertex 10.335314297038657 39.84666621830081 2.000000000000904
    vertex 9.250000000000004 39.397114317029974 2.000000000000904
  endloop
endfacet
facet normal 0.1305261922200495 -0.9914448613738108 -0.0
  outer loop
    vertex 11.5 40.0 2.000000000000904
    vertex 10.335314297038657 39.84666621830081 0.0
    vertex 11.5 40.0 0.0
  endloop
endfacet
facet normal 0.1305261922200495 -0.9914448613738108 -0.0
  outer loop
    vertex 10.335314297038657 39.84666621830081 0.0
    vertex 11.5 40.0 2.000000000000904
    vertex 10.335314297038657 39.84666621830081 2.000000000000904
  endloop
endfacet
facet normal -0.13052619222004916 -0.9914448613738107 -0.0
  outer loop
    vertex 12.664685702961345 39.84666621830081 2.000000000000904
    vertex 11.5 40.0 0.0
    vertex 12.664685702961345 39.84666621830081 0.0
  endloop
endfacet
facet normal -0.13052619222004916 -0.9914448613738107 -0.0
  outer loop
    vertex 11.5 40.0 0.0
    vertex 12.664685702961345 39.84666621830081 2.000000000000904
    vertex 11.5 40.0 2.000000000000904
  endloop
endfacet
facet normal -0.3826834323650908 -0.9238795325112865 -0.0
  outer loop
    vertex 13.75 39.397114317029974 2.000000000000904
    vertex 12.664685702961345 39.84666621830081 0.0
    vertex 13.75 39.397114317029974 0.0
  endloop
endfacet
facet normal -0.3826834323650908 -0.9238795325112865 -0.0
  outer loop
    vertex 12.664685702961345 39.84666621830081 0.0
    vertex 13.75 39.397114317029974 2.000000000000904
    vertex 12.664685702961345 39.84666621830081 2.000000000000904
  endloop
endfacet
facet normal -0.608761429008723 -0.7933533402912334 -0.0
  outer loop
    vertex 14.681980515339461 38.68198051533946 2.000000000000904
    vertex 13.75 39.397114317029974 0.0
    vertex 14.681980515339461 38.68198051533946 0.0
  endloop
endfacet
facet normal -0.608761429008723 -0.7933533402912334 -0.0
  outer loop
    vertex 13.75 39.397114317029974 0.0
    vertex 14.681980515339461 38.68198051533946 2.000000000000904
    vertex 13.75 39.397114317029974 2.000000000000904
  endloop
endfacet
facet normal -0.7933533402912354 -0.6087614290087203 -0.0
  outer loop
    vertex 14.681980515339461 38.68198051533946 2.000000000000904
    vertex 15.397114317029972 37.75 0.0
    vertex 15.397114317029972 37.75 2.000000000000904
  endloop
endfacet
facet normal -0.7933533402912354 -0.6087614290087203 -0.0
  outer loop
    vertex 15.397114317029972 37.75 0.0
    vertex 14.681980515339461 38.68198051533946 2.000000000000904
    vertex 14.681980515339461 38.68198051533946 0.0
  endloop
endfacet
facet normal -0.9238795325112865 -0.3826834323650908 -0.0
  outer loop
    vertex 15.397114317029972 37.75 2.000000000000904
    vertex 15.846666218300806 36.66468570296134 0.0
    vertex 15.846666218300806 36.66468570296134 2.000000000000904
  endloop
endfacet
facet normal -0.9238795325112865 -0.3826834323650908 -0.0
  outer loop
    vertex 15.846666218300806 36.66468570296134 0.0
    vertex 15.397114317029972 37.75 2.000000000000904
    vertex 15.397114317029972 37.75 0.0
  endloop
endfacet
facet normal -0.9914448613738105 -0.13052619222005202 -0.0
  outer loop
    vertex 15.846666218300806 36.66468570296134 2.000000000000904
    vertex 15.999999999999998 35.5 0.0
    vertex 15.999999999999998 35.5 2.000000000000904
  endloop
endfacet
facet normal -0.9914448613738105 -0.13052619222005202 -0.0
  outer loop
    vertex 15.999999999999998 35.5 0.0
    vertex 15.846666218300806 36.66468570296134 2.000000000000904
    vertex 15.846666218300806 36.66468570296134 0.0
  endloop
endfacet
facet normal -0.9914448613738103 0.13052619222005374 -0.0
  outer loop
    vertex 15.999999999999998 35.5 2.000000000000904
    vertex 15.846666218300804 34.33531429703866 0.0
    vertex 15.846666218300804 34.33531429703866 2.000000000000904
  endloop
endfacet
facet normal -0.9914448613738103 0.13052619222005374 -0.0
  outer loop
    vertex 15.846666218300804 34.33531429703866 0.0
    vertex 15.999999999999998 35.5 2.000000000000904
    vertex 15.999999999999998 35.5 0.0
  endloop
endfacet
facet normal -0.9238795325112865 0.3826834323650908 -0.0
  outer loop
    vertex 15.846666218300804 34.33531429703866 2.000000000000904
    vertex 15.397114317029969 33.25 0.0
    vertex 15.397114317029969 33.25 2.000000000000904
  endloop
endfacet
facet normal -0.9238795325112865 0.3826834323650908 -0.0
  outer loop
    vertex 15.397114317029969 33.25 0.0
    vertex 15.846666218300804 34.33531429703866 2.000000000000904
    vertex 15.846666218300804 34.33531429703866 0.0
  endloop
endfacet
facet normal -0.7933533402912347 0.6087614290087211 -0.0
  outer loop
    vertex 15.397114317029969 33.25 2.000000000000904
    vertex 14.681980515339461 32.31801948466054 0.0
    vertex 14.681980515339461 32.31801948466054 2.000000000000904
  endloop
endfacet
facet normal -0.7933533402912347 0.6087614290087211 -0.0
  outer loop
    vertex 14.681980515339461 32.31801948466054 0.0
    vertex 15.397114317029969 33.25 2.000000000000904
    vertex 15.397114317029969 33.25 0.0
  endloop
endfacet
facet normal -0.6087614290087219 0.7933533402912343 -0.0
  outer loop
    vertex 13.749999999999998 31.60288568297003 2.000000000000904
    vertex 14.681980515339461 32.31801948466054 0.0
    vertex 13.749999999999998 31.60288568297003 0.0
  endloop
endfacet
facet normal -0.6087614290087219 0.7933533402912343 -0.0
  outer loop
    vertex 14.681980515339461 32.31801948466054 0.0
    vertex 13.749999999999998 31.60288568297003 2.000000000000904
    vertex 14.681980515339461 32.31801948466054 2.000000000000904
  endloop
endfacet
facet normal -0.3826834323650903 0.9238795325112865 -0.0
  outer loop
    vertex 12.664685702961341 31.153333781699196 2.000000000000904
    vertex 13.749999999999998 31.60288568297003 0.0
    vertex 12.664685702961341 31.153333781699196 0.0
  endloop
endfacet
facet normal -0.3826834323650903 0.9238795325112865 -0.0
  outer loop
    vertex 13.749999999999998 31.60288568297003 0.0
    vertex 12.664685702961341 31.153333781699196 2.000000000000904
    vertex 13.749999999999998 31.60288568297003 2.000000000000904
  endloop
endfacet
facet normal -0.1305261922200495 0.9914448613738108 -0.0
  outer loop
    vertex 11.499999999999998 31.000000000000004 2.000000000000904
    vertex 12.664685702961341 31.153333781699196 0.0
    vertex 11.499999999999998 31.000000000000004 0.0
  endloop
endfacet
facet normal -0.1305261922200495 0.9914448613738108 -0.0
  outer loop
    vertex 12.664685702961341 31.153333781699196 0.0
    vertex 11.499999999999998 31.000000000000004 2.000000000000904
    vertex 12.664685702961341 31.153333781699196 2.000000000000904
  endloop
endfacet
facet normal 0.13052619222004933 0.9914448613738108 0.0
  outer loop
    vertex 10.335314297038655 31.153333781699196 2.000000000000904
    vertex 11.499999999999998 31.000000000000004 0.0
    vertex 10.335314297038655 31.153333781699196 0.0
  endloop
endfacet
facet normal 0.13052619222004933 0.9914448613738108 0.0
  outer loop
    vertex 11.499999999999998 31.000000000000004 0.0
    vertex 10.335314297038655 31.153333781699196 2.000000000000904
    vertex 11.499999999999998 31.000000000000004 2.000000000000904
  endloop
endfacet
facet normal 0.3826834323650903 0.9238795325112865 0.0
  outer loop
    vertex 9.249999999999998 31.60288568297003 2.000000000000904
    vertex 10.335314297038655 31.153333781699196 0.0
    vertex 9.249999999999998 31.60288568297003 0.0
  endloop
endfacet
facet normal 0.3826834323650903 0.9238795325112865 0.0
  outer loop
    vertex 10.335314297038655 31.153333781699196 0.0
    vertex 9.249999999999998 31.60288568297003 2.000000000000904
    vertex 10.335314297038655 31.153333781699196 2.000000000000904
  endloop
endfacet
facet normal 0.6087614290087224 0.7933533402912337 0.0
  outer loop
    vertex 8.318019484660535 32.31801948466054 2.000000000000904
    vertex 9.249999999999998 31.60288568297003 0.0
    vertex 8.318019484660535 32.31801948466054 0.0
  endloop
endfacet
facet normal 0.6087614290087224 0.7933533402912337 0.0
  outer loop
    vertex 9.249999999999998 31.60288568297003 0.0
    vertex 8.318019484660535 32.31801948466054 2.000000000000904
    vertex 9.249999999999998 31.60288568297003 2.000000000000904
  endloop
endfacet
facet normal 0.7933533402912337 0.6087614290087228 0.0
  outer loop
    vertex 7.602885682970025 33.25 0.0
    vertex 8.318019484660535 32.31801948466054 2.000000000000904
    vertex 8.318019484660535 32.31801948466054 0.0
  endloop
endfacet
facet normal 0.7933533402912337 0.6087614290087228 0.0
  outer loop
    vertex 8.318019484660535 32.31801948466054 2.000000000000904
    vertex 7.602885682970025 33.25 0.0
    vertex 7.602885682970025 33.25 2.000000000000904
  endloop
endfacet
facet normal 0.9238795325112874 0.38268343236508795 0.0
  outer loop
    vertex 7.153333781699192 34.335314297038664 0.0
    vertex 7.602885682970025 33.25 2.000000000000904
    vertex 7.602885682970025 33.25 0.0
  endloop
endfacet
facet normal 0.9238795325112874 0.38268343236508795 0.0
  outer loop
    vertex 7.602885682970025 33.25 2.000000000000904
    vertex 7.153333781699192 34.335314297038664 0.0
    vertex 7.153333781699192 34.335314297038664 2.000000000000904
  endloop
endfacet
facet normal 0.6087614290087195 -0.7933533402912359 -0.0
  outer loop
    vertex 10.250000000000002 17.24546119297526 1.9999999999999962
    vertex 9.732233047033631 16.84816463648053 0.0
    vertex 10.250000000000002 17.24546119297526 0.0
  endloop
endfacet
facet normal 0.6087614290087195 -0.7933533402912359 -0.0
  outer loop
    vertex 9.732233047033631 16.84816463648053 0.0
    vertex 10.250000000000002 17.24546119297526 1.9999999999999962
    vertex 9.732233047033631 16.84816463648053 1.9999999999999962
  endloop
endfacet
facet normal 0.3826834323650902 -0.9238795325112866 -0.0
  outer loop
    vertex 10.852952387243697 17.495212249236832 1.9999999999999962
    vertex 10.250000000000002 17.24546119297526 0.0
    vertex 10.852952387243697 17.495212249236832 0.0
  endloop
endfacet
facet normal 0.3826834323650902 -0.9238795325112866 -0.0
  outer loop
    vertex 10.250000000000002 17.24546119297526 0.0
    vertex 10.852952387243697 17.495212249236832 1.9999999999999962
    vertex 10.250000000000002 17.24546119297526 1.9999999999999962
  endloop
endfacet
facet normal 0.13052619222004763 -0.9914448613738109 -0.0
  outer loop
    vertex 11.499999999999998 17.580397683514157 1.9999999999999962
    vertex 10.852952387243697 17.495212249236832 0.0
    vertex 11.499999999999998 17.580397683514157 0.0
  endloop
endfacet
facet normal 0.13052619222004763 -0.9914448613738109 -0.0
  outer loop
    vertex 10.852952387243697 17.495212249236832 0.0
    vertex 11.499999999999998 17.580397683514157 1.9999999999999962
    vertex 10.852952387243697 17.495212249236832 1.9999999999999962
  endloop
endfacet
facet normal -0.1305261922200513 -0.9914448613738104 -0.0
  outer loop
    vertex 12.147047612756303 17.49521224923683 1.9999999999999962
    vertex 11.499999999999998 17.580397683514157 0.0
    vertex 12.147047612756303 17.49521224923683 0.0
  endloop
endfacet
facet normal -0.1305261922200513 -0.9914448613738104 -0.0
  outer loop
    vertex 11.499999999999998 17.580397683514157 0.0
    vertex 12.147047612756303 17.49521224923683 1.9999999999999962
    vertex 11.499999999999998 17.580397683514157 1.9999999999999962
  endloop
endfacet
facet normal -0.3826834323650902 -0.9238795325112866 -0.0
  outer loop
    vertex 12.75 17.245461192975256 1.9999999999999962
    vertex 12.147047612756303 17.49521224923683 0.0
    vertex 12.75 17.245461192975256 0.0
  endloop
endfacet
facet normal -0.3826834323650902 -0.9238795325112866 -0.0
  outer loop
    vertex 12.147047612756303 17.49521224923683 0.0
    vertex 12.75 17.245461192975256 1.9999999999999962
    vertex 12.147047612756303 17.49521224923683 1.9999999999999962
  endloop
endfacet
facet normal -0.6087614290087195 -0.7933533402912359 -0.0
  outer loop
    vertex 13.267766952966369 16.84816463648053 1.9999999999999962
    vertex 12.75 17.245461192975256 0.0
    vertex 13.267766952966369 16.84816463648053 0.0
  endloop
endfacet
facet normal -0.6087614290087195 -0.7933533402912359 -0.0
  outer loop
    vertex 12.75 17.245461192975256 0.0
    vertex 13.267766952966369 16.84816463648053 1.9999999999999962
    vertex 12.75 17.245461192975256 1.9999999999999962
  endloop
endfacet
facet normal -0.7933533402912344 -0.6087614290087217 -0.0
  outer loop
    vertex 13.267766952966369 16.84816463648053 1.9999999999999962
    vertex 13.665063509461097 16.33039768351416 0.0
    vertex 13.665063509461097 16.33039768351416 1.9999999999999962
  endloop
endfacet
facet normal -0.7933533402912344 -0.6087614290087217 -0.0
  outer loop
    vertex 13.665063509461097 16.33039768351416 0.0
    vertex 13.267766952966369 16.84816463648053 1.9999999999999962
    vertex 13.267766952966369 16.84816463648053 0.0
  endloop
endfacet
facet normal -0.9238795325112873 -0.3826834323650887 -0.0
  outer loop
    vertex 13.665063509461097 16.33039768351416 1.9999999999999962
    vertex 13.91481456572267 15.727445296270462 0.0
    vertex 13.91481456572267 15.727445296270462 1.9999999999999962
  endloop
endfacet
facet normal -0.9238795325112873 -0.3826834323650887 -0.0
  outer loop
    vertex 13.91481456572267 15.727445296270462 0.0
    vertex 13.665063509461097 16.33039768351416 1.9999999999999962
    vertex 13.665063509461097 16.33039768351416 0.0
  endloop
endfacet
facet normal -0.9914448613738109 -0.13052619222004763 -0.0
  outer loop
    vertex 13.91481456572267 15.727445296270462 1.9999999999999962
    vertex 13.999999999999996 15.08039768351416 0.0
    vertex 13.999999999999996 15.08039768351416 1.9999999999999962
  endloop
endfacet
facet normal -0.9914448613738109 -0.13052619222004763 -0.0
  outer loop
    vertex 13.999999999999996 15.08039768351416 0.0
    vertex 13.91481456572267 15.727445296270462 1.9999999999999962
    vertex 13.91481456572267 15.727445296270462 0.0
  endloop
endfacet
facet normal -0.9914448613738104 0.13052619222005188 -0.0
  outer loop
    vertex 13.999999999999996 15.08039768351416 1.9999999999999962
    vertex 13.914814565722667 14.433350070757859 0.0
    vertex 13.914814565722667 14.433350070757859 1.9999999999999962
  endloop
endfacet
facet normal -0.9914448613738104 0.13052619222005188 -0.0
  outer loop
    vertex 13.914814565722667 14.433350070757859 0.0
    vertex 13.999999999999996 15.08039768351416 1.9999999999999962
    vertex 13.999999999999996 15.08039768351416 0.0
  endloop
endfacet
facet normal -0.9238795325112873 0.3826834323650887 -0.0
  outer loop
    vertex 13.914814565722667 14.433350070757859 1.9999999999999962
    vertex 13.665063509461094 13.830397683514159 0.0
    vertex 13.665063509461094 13.830397683514159 1.9999999999999962
  endloop
endfacet
facet normal -0.9238795325112873 0.3826834323650887 -0.0
  outer loop
    vertex 13.665063509461094 13.830397683514159 0.0
    vertex 13.914814565722667 14.433350070757859 1.9999999999999962
    vertex 13.914814565722667 14.433350070757859 0.0
  endloop
endfacet
facet normal -0.7933533402912344 0.6087614290087217 -0.0
  outer loop
    vertex 13.665063509461094 13.830397683514159 1.9999999999999962
    vertex 13.267766952966367 13.312630730547792 0.0
    vertex 13.267766952966367 13.312630730547792 1.9999999999999962
  endloop
endfacet
facet normal -0.7933533402912344 0.6087614290087217 -0.0
  outer loop
    vertex 13.267766952966367 13.312630730547792 0.0
    vertex 13.665063509461094 13.830397683514159 1.9999999999999962
    vertex 13.665063509461094 13.830397683514159 0.0
  endloop
endfacet
facet normal -0.6087614290087243 0.7933533402912323 -0.0
  outer loop
    vertex 12.75 12.915334174053061 1.9999999999999962
    vertex 13.267766952966367 13.312630730547792 0.0
    vertex 12.75 12.915334174053061 0.0
  endloop
endfacet
facet normal -0.6087614290087243 0.7933533402912323 -0.0
  outer loop
    vertex 13.267766952966367 13.312630730547792 0.0
    vertex 12.75 12.915334174053061 1.9999999999999962
    vertex 13.267766952966367 13.312630730547792 1.9999999999999962
  endloop
endfacet
facet normal -0.38268343236508684 0.923879532511288 -0.0
  outer loop
    vertex 12.1470476127563 12.66558311779149 1.9999999999999962
    vertex 12.75 12.915334174053061 0.0
    vertex 12.1470476127563 12.66558311779149 0.0
  endloop
endfacet
facet normal -0.38268343236508684 0.923879532511288 -0.0
  outer loop
    vertex 12.75 12.915334174053061 0.0
    vertex 12.1470476127563 12.66558311779149 1.9999999999999962
    vertex 12.75 12.915334174053061 1.9999999999999962
  endloop
endfacet
facet normal -0.13052619222005188 0.9914448613738104 -0.0
  outer loop
    vertex 11.499999999999998 12.58039768351416 1.9999999999999962
    vertex 12.1470476127563 12.66558311779149 0.0
    vertex 11.499999999999998 12.58039768351416 0.0
  endloop
endfacet
facet normal -0.13052619222005188 0.9914448613738104 -0.0
  outer loop
    vertex 12.1470476127563 12.66558311779149 0.0
    vertex 11.499999999999998 12.58039768351416 1.9999999999999962
    vertex 12.1470476127563 12.66558311779149 1.9999999999999962
  endloop
endfacet
facet normal 0.13052619222005157 0.9914448613738104 0.0
  outer loop
    vertex 10.852952387243697 12.66558311779149 1.9999999999999962
    vertex 11.499999999999998 12.58039768351416 0.0
    vertex 10.852952387243697 12.66558311779149 0.0
  endloop
endfacet
facet normal 0.13052619222005157 0.9914448613738104 0.0
  outer loop
    vertex 11.499999999999998 12.58039768351416 0.0
    vertex 10.852952387243697 12.66558311779149 1.9999999999999962
    vertex 11.499999999999998 12.58039768351416 1.9999999999999962
  endloop
endfacet
facet normal 0.3826834323650913 0.9238795325112861 0.0
  outer loop
    vertex 10.249999999999998 12.915334174053065 1.9999999999999962
    vertex 10.852952387243697 12.66558311779149 0.0
    vertex 10.249999999999998 12.915334174053065 0.0
  endloop
endfacet
facet normal 0.3826834323650913 0.9238795325112861 0.0
  outer loop
    vertex 10.852952387243697 12.66558311779149 0.0
    vertex 10.249999999999998 12.915334174053065 1.9999999999999962
    vertex 10.852952387243697 12.66558311779149 1.9999999999999962
  endloop
endfacet
facet normal 0.6087614290087217 0.7933533402912344 0.0
  outer loop
    vertex 9.732233047033631 13.312630730547792 1.9999999999999962
    vertex 10.249999999999998 12.915334174053065 0.0
    vertex 9.732233047033631 13.312630730547792 0.0
  endloop
endfacet
facet normal 0.6087614290087217 0.7933533402912344 0.0
  outer loop
    vertex 10.249999999999998 12.915334174053065 0.0
    vertex 9.732233047033631 13.312630730547792 1.9999999999999962
    vertex 10.249999999999998 12.915334174053065 1.9999999999999962
  endloop
endfacet
facet normal 0.7933533402912333 0.608761429008723 0.0
  outer loop
    vertex 9.334936490538903 13.830397683514159 0.0
    vertex 9.732233047033631 13.312630730547792 1.9999999999999962
    vertex 9.732233047033631 13.312630730547792 0.0
  endloop
endfacet
facet normal 0.7933533402912333 0.608761429008723 0.0
  outer loop
    vertex 9.732233047033631 13.312630730547792 1.9999999999999962
    vertex 9.334936490538903 13.830397683514159 0.0
    vertex 9.334936490538903 13.830397683514159 1.9999999999999962
  endloop
endfacet
facet normal 0.9238795325112873 0.3826834323650887 0.0
  outer loop
    vertex 9.085185434277328 14.433350070757859 0.0
    vertex 9.334936490538903 13.830397683514159 1.9999999999999962
    vertex 9.334936490538903 13.830397683514159 0.0
  endloop
endfacet
facet normal 0.9238795325112873 0.3826834323650887 0.0
  outer loop
    vertex 9.334936490538903 13.830397683514159 1.9999999999999962
    vertex 9.085185434277328 14.433350070757859 0.0
    vertex 9.085185434277328 14.433350070757859 1.9999999999999962
  endloop
endfacet
facet normal 0.9914448613738104 0.13052619222005188 0.0
  outer loop
    vertex 8.999999999999998 15.08039768351416 0.0
    vertex 9.085185434277328 14.433350070757859 1.9999999999999962
    vertex 9.085185434277328 14.433350070757859 0.0
  endloop
endfacet
facet normal 0.9914448613738104 0.13052619222005188 0.0
  outer loop
    vertex 9.085185434277328 14.433350070757859 1.9999999999999962
    vertex 8.999999999999998 15.08039768351416 0.0
    vertex 8.999999999999998 15.08039768351416 1.9999999999999962
  endloop
endfacet
facet normal 0.9914448613738103 -0.13052619222005343 -0.0
  outer loop
    vertex 9.08518543427733 15.727445296270464 0.0
    vertex 8.999999999999998 15.08039768351416 1.9999999999999962
    vertex 8.999999999999998 15.08039768351416 0.0
  endloop
endfacet
facet normal 0.9914448613738103 -0.13052619222005343 -0.0
  outer loop
    vertex 8.999999999999998 15.08039768351416 1.9999999999999962
    vertex 9.08518543427733 15.727445296270464 0.0
    vertex 9.08518543427733 15.727445296270464 1.9999999999999962
  endloop
endfacet
facet normal 0.9238795325112866 -0.3826834323650902 -0.0
  outer loop
    vertex 9.334936490538903 16.33039768351416 0.0
    vertex 9.08518543427733 15.727445296270464 1.9999999999999962
    vertex 9.08518543427733 15.727445296270464 0.0
  endloop
endfacet
facet normal 0.9238795325112866 -0.3826834323650902 -0.0
  outer loop
    vertex 9.08518543427733 15.727445296270464 1.9999999999999962
    vertex 9.334936490538903 16.33039768351416 0.0
    vertex 9.334936490538903 16.33039768351416 1.9999999999999962
  endloop
endfacet
facet normal 0.7933533402912359 -0.6087614290087195 -0.0
  outer loop
    vertex 9.732233047033631 16.84816463648053 0.0
    vertex 9.334936490538903 16.33039768351416 1.9999999999999962
    vertex 9.334936490538903 16.33039768351416 0.0
  endloop
endfacet
facet normal 0.7933533402912359 -0.6087614290087195 -0.0
  outer loop
    vertex 9.334936490538903 16.33039768351416 1.9999999999999962
    vertex 9.732233047033631 16.84816463648053 0.0
    vertex 9.732233047033631 16.84816463648053 1.9999999999999962
  endloop
endfacet
facet normal 3.279707331096672e-19 -0.9999965219919611 -0.002637423739429359
  outer loop
    vertex 155.0 44.93933904301383 25.0
    vertex 150.0 44.969669521506916 13.5
    vertex 155.0 44.969669521506916 13.5
  endloop
endfacet
facet normal 3.279707331096672e-19 -0.9999965219919611 -0.002637423739429359
  outer loop
    vertex 150.0 44.969669521506916 13.5
    vertex 155.0 44.93933904301383 25.0
    vertex 150.0 44.93933904301383 25.0
  endloop
endfacet
facet normal 0.0 0.0 1.0
  outer loop
    vertex 155.0 17.000000000000007 13.5
    vertex 150.0 44.969669521506916 13.5
    vertex 150.0 17.000000000000007 13.5
  endloop
endfacet
facet normal 0.0 0.0 1.0
  outer loop
    vertex 150.0 44.969669521506916 13.5
    vertex 155.0 17.000000000000007 13.5
    vertex 155.0 44.969669521506916 13.5
  endloop
endfacet
facet normal -0.0 1.0 -0.0
  outer loop
    vertex 150.0 17.000000000000007 25.0
    vertex 155.0 17.000000000000007 13.5
    vertex 150.0 17.000000000000007 13.5
  endloop
endfacet
facet normal -0.0 1.0 -0.0
  outer loop
    vertex 155.0 17.000000000000007 13.5
    vertex 150.0 17.000000000000007 25.0
    vertex 155.0 17.000000000000007 25.0
  endloop
endfacet
facet normal 1.0 0.0 0.0
  outer loop
    vertex 155.0 -3.0 0.0
    vertex 155.0 17.000000000000007 13.5
    vertex 155.0 -3.0 25.0
  endloop
endfacet
facet normal 1.0 0.0 0.0
  outer loop
    vertex 155.0 17.000000000000007 13.5
    vertex 155.0 -3.0 0.0
    vertex 155.0 70.0 1.1731060567399243e-14
  endloop
endfacet
facet normal 1.0 0.0 0.0
  outer loop
    vertex 155.0 17.000000000000007 13.5
    vertex 155.0 70.0 1.1731060567399243e-14
    vertex 155.0 44.969669521506916 13.5
  endloop
endfacet
facet normal 1.0 0.0 0.0
  outer loop
    vertex 155.0 44.969669521506916 13.5
    vertex 155.0 70.0 25.0
    vertex 155.0 44.93933904301383 25.0
  endloop
endfacet
facet normal 1.0 0.0 0.0
  outer loop
    vertex 155.0 70.0 25.0
    vertex 155.0 44.969669521506916 13.5
    vertex 155.0 70.0 1.1731060567399243e-14
  endloop
endfacet
facet normal 1.0 0.0 0.0
  outer loop
    vertex 155.0 70.0 25.0
    vertex 155.0 70.0 1.1731060567399243e-14
    vertex 155.0 85.0 25.000000000000018
  endloop
endfacet
facet normal 1.0 0.0 0.0
  outer loop
    vertex 155.0 70.0 25.0
    vertex 155.0 85.0 25.000000000000018
    vertex 155.0 70.0 40.0
  endloop
endfacet
facet normal 1.0 0.0 0.0
  outer loop
    vertex 155.0 17.000000000000007 25.0
    vertex 155.0 -3.0 25.0
    vertex 155.0 17.000000000000007 13.5
  endloop
endfacet
facet normal -0.0 1.0 -0.0
  outer loop
    vertex 10.000000000000002 70.0 25.0
    vertex 140.0 70.0 0.0
    vertex 10.000000000000002 70.0 0.0
  endloop
endfacet
facet normal -0.0 1.0 -0.0
  outer loop
    vertex 140.0 70.0 0.0
    vertex 10.000000000000002 70.0 25.0
    vertex 139.99999999999997 70.0 25.0
  endloop
endfacet
facet normal 1.0 -9.399888275159664e-17 -5.8168349486296845e-34
  outer loop
    vertex 10.000000000000004 85.0 25.000000000000018
    vertex 10.000000000000002 70.0 25.0
    vertex 10.000000000000002 70.0 0.0
  endloop
endfacet
facet normal 1.0 -9.399888275159664e-17 -5.8168349486296845e-34
  outer loop
    vertex 10.000000000000002 70.0 25.0
    vertex 10.000000000000004 85.0 25.000000000000018
    vertex 10.000000000000002 70.0 40.0
  endloop
endfacet
facet normal -0.0 -0.0 1.0
  outer loop
    vertex -4.999999999999997 -2.9999999999999947 25.0
    vertex 0.0 0.0 25.0
    vertex -4.999999999999997 70.0 25.0
  endloop
endfacet
facet normal -0.0 -0.0 1.0
  outer loop
    vertex 0.0 0.0 25.0
    vertex -4.999999999999997 -2.9999999999999947 25.0
    vertex 155.0 -3.0 25.0
  endloop
endfacet
facet normal -0.0 -0.0 1.0
  outer loop
    vertex 0.0 0.0 25.0
    vertex 155.0 -3.0 25.0
    vertex 150.0 0.0 25.0
  endloop
endfacet
facet normal -0.0 -0.0 1.0
  outer loop
    vertex 150.0 0.0 25.0
    vertex 155.0 -3.0 25.0
    vertex 150.0 17.000000000000007 25.0
  endloop
endfacet
facet normal -0.0 -0.0 1.0
  outer loop
    vertex 150.0 17.000000000000007 25.0
    vertex 155.0 -3.0 25.0
    vertex 155.0 17.000000000000007 25.0
  endloop
endfacet
facet normal -0.0 -0.0 1.0
  outer loop
    vertex 155.0 44.93933904301383 25.0
    vertex 150.0 65.0 25.0
    vertex 150.0 44.93933904301383 25.0
  endloop
endfacet
facet normal -0.0 -0.0 1.0
  outer loop
    vertex -4.999999999999997 70.0 25.0
    vertex 0.0 65.0 25.0
    vertex 10.000000000000002 70.0 25.0
  endloop
endfacet
facet normal -0.0 -0.0 1.0
  outer loop
    vertex 0.0 65.0 25.0
    vertex -4.999999999999997 70.0 25.0
    vertex 0.0 0.0 25.0
  endloop
endfacet
facet normal -0.0 -0.0 1.0
  outer loop
    vertex 10.000000000000002 70.0 25.0
    vertex 0.0 65.0 25.0
    vertex 150.0 65.0 25.0
  endloop
endfacet
facet normal -0.0 -0.0 1.0
  outer loop
    vertex 10.000000000000002 70.0 25.0
    vertex 150.0 65.0 25.0
    vertex 139.99999999999997 70.0 25.0
  endloop
endfacet
facet normal -0.0 -0.0 1.0
  outer loop
    vertex 139.99999999999997 70.0 25.0
    vertex 150.0 65.0 25.0
    vertex 155.0 70.0 25.0
  endloop
endfacet
facet normal -0.0 -0.0 1.0
  outer loop
    vertex 155.0 70.0 25.0
    vertex 150.0 65.0 25.0
    vertex 155.0 44.93933904301383 25.0
  endloop
endfacet
facet normal 0.0 -1.0 0.0
  outer loop
    vertex 155.0 70.0 40.0
    vertex 139.99999999999997 70.0 25.0
    vertex 155.0 70.0 25.0
  endloop
endfacet
facet normal 0.0 -1.0 0.0
  outer loop
    vertex 139.99999999999997 70.0 25.0
    vertex 155.0 70.0 40.0
    vertex 139.99999999999997 70.0 40.0
  endloop
endfacet
facet normal 0.0 -1.0 0.0
  outer loop
    vertex 10.000000000000002 70.0 40.0
    vertex -4.999999999999997 70.0 25.0
    vertex 10.000000000000002 70.0 25.0
  endloop
endfacet
facet normal 0.0 -1.0 0.0
  outer loop
    vertex -4.999999999999997 70.0 25.0
    vertex 10.000000000000002 70.0 40.0
    vertex -4.999999999999997 70.0 40.0
  endloop
endfacet
facet normal -0.0 0.7071067811865472 0.7071067811865478
  outer loop
    vertex 155.0 70.0 40.0
    vertex 139.99999999999997 85.0 25.000000000000018
    vertex 139.99999999999997 70.0 40.0
  endloop
endfacet
facet normal -0.0 0.7071067811865472 0.7071067811865478
  outer loop
    vertex 139.99999999999997 85.0 25.000000000000018
    vertex 155.0 70.0 40.0
    vertex 155.0 85.0 25.000000000000018
  endloop
endfacet
facet normal 2.9814060417711355e-32 0.7071067811865472 0.7071067811865478
  outer loop
    vertex 10.000000000000002 70.0 40.0
    vertex -4.999999999999995 85.0 25.000000000000018
    vertex -4.999999999999997 70.0 40.0
  endloop
endfacet
facet normal 2.9814060417711355e-32 0.7071067811865472 0.7071067811865478
  outer loop
    vertex -4.999999999999995 85.0 25.000000000000018
    vertex 10.000000000000002 70.0 40.0
    vertex 10.000000000000004 85.0 25.000000000000018
  endloop
endfacet
facet normal -1.0 -3.6832215282258203e-16 -5.985234983366965e-16
  outer loop
    vertex 139.99999999999997 85.0 25.000000000000018
    vertex 139.99999999999997 70.0 25.0
    vertex 139.99999999999997 70.0 40.0
  endloop
endfacet
facet normal -1.0 -3.6832215282258203e-16 -5.985234983366965e-16
  outer loop
    vertex 139.99999999999997 70.0 25.0
    vertex 139.99999999999997 85.0 25.000000000000018
    vertex 140.0 70.0 0.0
  endloop
endfacet
facet normal -1.8171530550916152e-17 0.8574929257125444 -0.5144957554275261
  outer loop
    vertex -5.000000000000003 70.0 1.4344323013249918e-16
    vertex 10.000000000000004 85.0 25.000000000000018
    vertex 10.000000000000002 70.0 0.0
  endloop
endfacet
facet normal -1.8171530550916152e-17 0.8574929257125444 -0.5144957554275261
  outer loop
    vertex 10.000000000000004 85.0 25.000000000000018
    vertex -5.000000000000003 70.0 1.4344323013249918e-16
    vertex -4.999999999999995 85.0 25.000000000000018
  endloop
endfacet
facet normal 2.634871929882786e-16 0.8574929257125444 -0.5144957554275261
  outer loop
    vertex 139.99999999999997 85.0 25.000000000000018
    vertex 155.0 70.0 1.1731060567399243e-14
    vertex 140.0 70.0 0.0
  endloop
endfacet
facet normal 2.634871929882786e-16 0.8574929257125444 -0.5144957554275261
  outer loop
    vertex 155.0 70.0 1.1731060567399243e-14
    vertex 139.99999999999997 85.0 25.000000000000018
    vertex 155.0 85.0 25.000000000000018
  endloop
endfacet
endsolid КреплениеЭкрана
