solid Уголок-150-Угол
facet normal 1.0 1.5651826645648084e-17 2.002203517878732e-16
  outer loop
    vertex -1.4270384812932348e-16 1.0151006472738009e-17 0.0
    vertex -2.8199664825478975e-15 2.0 11.999999999999996
    vertex 0.0 1.6918344119820948e-18 9.999999999998272
  endloop
endfacet
facet normal 1.0 1.5651826645648084e-17 2.002203517878732e-16
  outer loop
    vertex -2.8199664825478975e-15 2.0 11.999999999999996
    vertex -1.4270384812932348e-16 1.0151006472738009e-17 0.0
    vertex 1.3218592886943268e-16 2.0000000000000004 1.9999999999999996
  endloop
endfacet
facet normal 1.0 1.5651826645648084e-17 2.002203517878732e-16
  outer loop
    vertex 1.3218592886943268e-16 2.0000000000000004 1.9999999999999996
    vertex -1.4270384812932348e-16 1.0151006472738009e-17 0.0
    vertex -1.4270384812932348e-16 12.0 0.0
  endloop
endfacet
facet normal 1.0 1.5651826645648084e-17 2.002203517878732e-16
  outer loop
    vertex 1.3218592886943268e-16 2.0000000000000004 1.9999999999999996
    vertex -1.4270384812932348e-16 12.0 0.0
    vertex 1.3218592886943268e-16 12.0 1.9999999999999996
  endloop
endfacet
facet normal -0.0 1.0 -0.0
  outer loop
    vertex -140.0 12.0 1.57741875117523e-14
    vertex 1.3218592886943268e-16 12.0 1.9999999999999996
    vertex -1.4270384812932348e-16 12.0 0.0
  endloop
endfacet
facet normal -0.0 1.0 -0.0
  outer loop
    vertex 1.3218592886943268e-16 12.0 1.9999999999999996
    vertex -140.0 12.0 1.57741875117523e-14
    vertex -140.0 12.0 1.9999999999999785
  endloop
endfacet
facet normal -1.4568710450217758e-16 7.284355225108871e-17 1.0
  outer loop
    vertex 1.3218592886943268e-16 2.0000000000000004 1.9999999999999996
    vertex -140.0 12.0 1.9999999999999785
    vertex -150.00000000000003 2.0000000000000004 1.9999999999999785
  endloop
endfacet
facet normal -1.4568710450217758e-16 7.284355225108871e-17 1.0
  outer loop
    vertex -140.0 12.0 1.9999999999999785
    vertex 1.3218592886943268e-16 2.0000000000000004 1.9999999999999996
    vertex 1.3218592886943268e-16 12.0 1.9999999999999996
  endloop
endfacet
facet normal -5.8015796867828855e-33 1.0 3.524958103184874e-17
  outer loop
    vertex -149.99999999999991 2.0 11.999999999999968
    vertex 1.3218592886943268e-16 2.0000000000000004 1.9999999999999996
    vertex -150.00000000000003 2.0000000000000004 1.9999999999999785
  endloop
endfacet
facet normal -5.8015796867828855e-33 1.0 3.524958103184874e-17
  outer loop
    vertex 1.3218592886943268e-16 2.0000000000000004 1.9999999999999996
    vertex -149.99999999999991 2.0 11.999999999999968
    vertex -2.8199664825478975e-15 2.0 11.999999999999996
  endloop
endfacet
facet normal -1.0695943978264845e-16 2.5377516181845015e-17 -1.0
  outer loop
    vertex -140.0 12.0 1.57741875117523e-14
    vertex -150.00000000000003 1.0151006472738009e-17 1.5950435416911545e-14
    vertex -150.00000000000003 2.0000000000000004 1.57741875117523e-14
  endloop
endfacet
facet normal -1.0695943978264845e-16 2.5377516181845015e-17 -1.0
  outer loop
    vertex -150.00000000000003 1.0151006472738009e-17 1.5950435416911545e-14
    vertex -140.0 12.0 1.57741875117523e-14
    vertex -1.4270384812932348e-16 1.0151006472738009e-17 0.0
  endloop
endfacet
facet normal -1.0695943978264845e-16 2.5377516181845015e-17 -1.0
  outer loop
    vertex -1.4270384812932348e-16 1.0151006472738009e-17 0.0
    vertex -140.0 12.0 1.57741875117523e-14
    vertex -1.4270384812932348e-16 12.0 0.0
  endloop
endfacet
facet normal -0.7071067811865475 0.7071067811865477 -0.0
  outer loop
    vertex -150.00000000000003 2.0000000000000004 1.9999999999999785
    vertex -140.0 12.0 1.57741875117523e-14
    vertex -150.00000000000003 2.0000000000000004 1.57741875117523e-14
  endloop
endfacet
facet normal -0.7071067811865475 0.7071067811865477 -0.0
  outer loop
    vertex -140.0 12.0 1.57741875117523e-14
    vertex -150.00000000000003 2.0000000000000004 1.9999999999999785
    vertex -140.0 12.0 1.9999999999999785
  endloop
endfacet
facet normal -1.0 -6.23510177045744e-16 7.538804867917022e-15
  outer loop
    vertex -149.99999999999991 2.0 11.999999999999968
    vertex -150.00000000000003 1.0151006472738009e-17 1.5950435416911545e-14
    vertex -149.99999999999994 1.6918344121230064e-18 9.999999999999968
  endloop
endfacet
facet normal -1.0 -6.23510177045744e-16 7.538804867917022e-15
  outer loop
    vertex -150.00000000000003 1.0151006472738009e-17 1.5950435416911545e-14
    vertex -149.99999999999991 2.0 11.999999999999968
    vertex -150.00000000000003 2.0000000000000004 1.57741875117523e-14
  endloop
endfacet
facet normal -1.0 -6.23510177045744e-16 7.538804867917022e-15
  outer loop
    vertex -150.00000000000003 2.0000000000000004 1.57741875117523e-14
    vertex -149.99999999999991 2.0 11.999999999999968
    vertex -150.00000000000003 2.0000000000000004 1.9999999999999785
  endloop
endfacet
facet normal -4.745365066577175e-31 -1.0 -8.45917206068621e-19
  outer loop
    vertex 0.0 1.6918344119820948e-18 9.999999999998272
    vertex -150.00000000000003 1.0151006472738009e-17 1.5950435416911545e-14
    vertex -1.4270384812932348e-16 1.0151006472738009e-17 0.0
  endloop
endfacet
facet normal -4.745365066577175e-31 -1.0 -8.45917206068621e-19
  outer loop
    vertex -150.00000000000003 1.0151006472738009e-17 1.5950435416911545e-14
    vertex 0.0 1.6918344119820948e-18 9.999999999998272
    vertex -149.99999999999994 1.6918344121230064e-18 9.999999999999968
  endloop
endfacet
facet normal 3.9311322345417255e-15 -0.7071067811867 0.707106781186395
  outer loop
    vertex -2.8199664825478975e-15 2.0 11.999999999999996
    vertex -149.99999999999994 1.6918344121230064e-18 9.999999999999968
    vertex 0.0 1.6918344119820948e-18 9.999999999998272
  endloop
endfacet
facet normal 3.9311322345417255e-15 -0.7071067811867 0.707106781186395
  outer loop
    vertex -149.99999999999994 1.6918344121230064e-18 9.999999999999968
    vertex -2.8199664825478975e-15 2.0 11.999999999999996
    vertex -149.99999999999991 2.0 11.999999999999968
  endloop
endfacet
endsolid Уголок-150-Угол
