solid Cменные-e3d_v5-2-половинка
facet normal 0.9999999999999472 2.5338289173110814e-07 -2.042084745556904e-07
  outer loop
    vertex 46.781965807029906 104.25015017718415 -2.800063260396394
    vertex 46.78164391118612 55.24630812527326 -1.0211358169530373
    vertex 46.78198296437157 50.0001480903331 -2.8000351959907723
  endloop
endfacet
facet normal 0.9999999999999472 2.5338289173110814e-07 -2.042084745556904e-07
  outer loop
    vertex 46.78164391118612 55.24630812527326 -1.0211358169530373
    vertex 46.781965807029906 104.25015017718415 -2.800063260396394
    vertex 46.78164391118612 92.99921048208472 -1.0211358169530373
  endloop
endfacet
facet normal 0.9999999999999472 2.5338289173110814e-07 -2.042084745556904e-07
  outer loop
    vertex 46.78164391118612 92.99921048208472 -1.0211358169530373
    vertex 46.781965807029906 104.25015017718415 -2.800063260396394
    vertex 46.78163616064568 93.00000000000013 11.485523000000056
  endloop
endfacet
facet normal 0.9999999999999472 2.5338289173110814e-07 -2.042084745556904e-07
  outer loop
    vertex 46.78163616064568 93.00000000000013 11.485523000000056
    vertex 46.781965807029906 104.25015017718415 -2.800063260396394
    vertex 46.781636 104.24999999999997 11.485523000000068
  endloop
endfacet
facet normal 0.9999999999999472 2.5338289173110814e-07 -2.042084745556904e-07
  outer loop
    vertex 46.78198296437157 50.0001480903331 -2.8000351959907723
    vertex 46.7816360000959 55.24999999978984 11.484714353496225
    vertex 46.78163459378719 49.99999708393351 11.484717082397749
  endloop
endfacet
facet normal 0.9999999999999472 2.5338289173110814e-07 -2.042084745556904e-07
  outer loop
    vertex 46.7816360000959 55.24999999978984 11.484714353496225
    vertex 46.78198296437157 50.0001480903331 -2.8000351959907723
    vertex 46.78164391118612 55.24630812527326 -1.0211358169530373
  endloop
endfacet
facet normal 0.9999999999999472 2.5338289173110814e-07 -2.042084745556904e-07
  outer loop
    vertex 46.7816360000959 55.24999999978984 11.484714353496225
    vertex 46.78164391118612 55.24630812527326 -1.0211358169530373
    vertex 46.78163599999995 55.25 9.586584471818728
  endloop
endfacet
facet normal -0.13052619222005168 -8.128637809646823e-16 0.9914448613738105
  outer loop
    vertex 30.834550270615097 50.000000000000036 5.689968042265593
    vertex 29.28163599999996 55.250000000000014 5.485523000000011
    vertex 29.28163599999996 50.000000000000036 5.485523000000002
  endloop
endfacet
facet normal -0.13052619222005168 -8.128637809646823e-16 0.9914448613738105
  outer loop
    vertex 29.28163599999996 55.250000000000014 5.485523000000011
    vertex 30.834550270615097 50.000000000000036 5.689968042265593
    vertex 30.834550270615097 55.250000000000014 5.689968042265601
  endloop
endfacet
facet normal 0.7933533402912338 -5.839656414341752e-16 0.6087614290087224
  outer loop
    vertex 25.038995312880687 55.250000000000014 7.2428823128807265
    vertex 24.085483577293335 50.000000000000036 8.485523000000002
    vertex 25.038995312880687 50.000000000000036 7.2428823128807185
  endloop
endfacet
facet normal 0.7933533402912338 -5.839656414341752e-16 0.6087614290087224
  outer loop
    vertex 24.085483577293335 50.000000000000036 8.485523000000002
    vertex 25.038995312880687 55.250000000000014 7.2428823128807265
    vertex 24.085483577293335 55.250000000000014 8.485523000000011
  endloop
endfacet
facet normal -0.3826834323650913 -7.321086504269647e-16 0.9238795325112862
  outer loop
    vertex 32.281635999999956 50.000000000000036 6.289370577293374
    vertex 30.834550270615097 55.250000000000014 5.689968042265601
    vertex 30.834550270615097 50.000000000000036 5.689968042265593
  endloop
endfacet
facet normal -0.3826834323650913 -7.321086504269647e-16 0.9238795325112862
  outer loop
    vertex 30.834550270615097 55.250000000000014 5.689968042265601
    vertex 32.281635999999956 50.000000000000036 6.289370577293374
    vertex 32.281635999999956 55.250000000000014 6.289370577293382
  endloop
endfacet
facet normal -0.7933533402912357 -4.298257910496172e-16 0.6087614290087202
  outer loop
    vertex 34.47778842270661 55.25 8.485523000000011
    vertex 33.524276687119254 50.000000000000036 7.2428823128807185
    vertex 34.47778842270661 50.000000000000036 8.485523000000002
  endloop
endfacet
facet normal -0.7933533402912357 -4.298257910496172e-16 0.6087614290087202
  outer loop
    vertex 33.524276687119254 50.000000000000036 7.2428823128807185
    vertex 34.47778842270661 55.25 8.485523000000011
    vertex 33.524276687119254 55.250000000000014 7.2428823128807265
  endloop
endfacet
facet normal 0.3826834323650896 -8.06459843033969e-16 0.9238795325112868
  outer loop
    vertex 26.046397936218465 94.70000000000003 -0.5885498286133076
    vertex 23.031635999999985 96.0 0.6602054526945625
    vertex 23.031635999999985 94.69999999999999 0.6602054526945611
  endloop
endfacet
facet normal 0.3826834323650896 -8.06459843033969e-16 0.9238795325112868
  outer loop
    vertex 23.031635999999985 96.0 0.6602054526945625
    vertex 26.046397936218465 94.70000000000003 -0.5885498286133076
    vertex 26.046397936218465 96.00000000000003 -0.5885498286133062
  endloop
endfacet
facet normal 0.9238795325112878 -4.083977971009488e-16 0.382683432365087
  outer loop
    vertex 24.085483577293335 55.250000000000014 8.485523000000011
    vertex 23.48608104226555 50.000000000000036 9.932608729384885
    vertex 24.085483577293335 50.000000000000036 8.485523000000002
  endloop
endfacet
facet normal 0.9238795325112878 -4.083977971009488e-16 0.382683432365087
  outer loop
    vertex 23.48608104226555 50.000000000000036 9.932608729384885
    vertex 24.085483577293335 55.250000000000014 8.485523000000011
    vertex 23.48608104226555 55.25 9.93260872938489
  endloop
endfacet
facet normal 0.7933533402912345 -5.839656414341745e-16 0.6087614290087217
  outer loop
    vertex 20.44280123516814 95.99999999999999 2.6466882351682015
    vertex 18.456318452694497 94.69999999999999 5.23552300000004
    vertex 20.44280123516814 94.69999999999999 2.646688235168196
  endloop
endfacet
facet normal 0.7933533402912345 -5.839656414341745e-16 0.6087614290087217
  outer loop
    vertex 18.456318452694497 94.69999999999999 5.23552300000004
    vertex 20.44280123516814 95.99999999999999 2.6466882351682015
    vertex 18.456318452694497 95.99999999999999 5.235523000000045
  endloop
endfacet
facet normal 0.7933533402912345 -5.839656414341745e-16 0.6087614290087217
  outer loop
    vertex 18.456318452694497 95.99999999999999 5.235523000000045
    vertex 20.44280123516814 95.99999999999999 2.6466882351682015
    vertex 19.228770394849423 95.99999999999999 4.228844029683274
  endloop
endfacet
facet normal -0.99144486137381 -5.618521017873252e-16 0.13052619222005576
  outer loop
    vertex 41.781635999999985 95.99999999999999 11.485523000000049
    vertex 41.355708828613324 94.69999999999999 8.250284936218527
    vertex 41.781635999999985 94.69999999999999 11.485523000000043
  endloop
endfacet
facet normal -0.99144486137381 -5.618521017873252e-16 0.13052619222005576
  outer loop
    vertex 41.355708828613324 94.69999999999999 8.250284936218527
    vertex 41.781635999999985 95.99999999999999 11.485523000000049
    vertex 41.355708828613324 95.99999999999999 8.250284936218533
  endloop
endfacet
facet normal -0.13052619222004985 -8.128637809646828e-16 0.9914448613738108
  outer loop
    vertex 32.128645496127696 92.99999999999999 0.8603389108202878
    vertex 29.28163599999996 94.69999999999999 0.48552300000004556
    vertex 29.28163599999996 92.99999999999999 0.48552300000004417
  endloop
endfacet
facet normal -0.13052619222004985 -8.128637809646828e-16 0.9914448613738108
  outer loop
    vertex 29.28163599999996 94.69999999999999 0.48552300000004556
    vertex 32.128645496127696 92.99999999999999 0.8603389108202878
    vertex 32.128645496127696 94.69999999999999 0.8603389108202892
  endloop
endfacet
facet normal -0.7933533402912347 -4.2982579104961823e-16 0.6087614290087213
  outer loop
    vertex 40.106953547305444 95.99999999999999 5.23552300000004
    vertex 38.1204707648318 94.69999999999999 2.646688235168196
    vertex 40.106953547305444 94.69999999999999 5.235523000000034
  endloop
endfacet
facet normal -0.7933533402912347 -4.2982579104961823e-16 0.6087614290087213
  outer loop
    vertex 38.1204707648318 94.69999999999999 2.646688235168196
    vertex 40.106953547305444 95.99999999999999 5.23552300000004
    vertex 38.1204707648318 95.99999999999999 2.6466882351682015
  endloop
endfacet
facet normal 0.6087614290087221 -7.197371923525083e-16 0.7933533402912342
  outer loop
    vertex 23.78163599999997 92.99999999999999 1.959243558371213
    vertex 21.503461406947963 94.69999999999999 3.70734840694802
    vertex 21.503461406947963 92.99999999999999 3.7073484069480185
  endloop
endfacet
facet normal 0.6087614290087221 -7.197371923525083e-16 0.7933533402912342
  outer loop
    vertex 21.503461406947963 94.69999999999999 3.70734840694802
    vertex 23.78163599999997 92.99999999999999 1.959243558371213
    vertex 23.78163599999997 94.69999999999999 1.9592435583712142
  endloop
endfacet
facet normal -0.6087614290087202 -6.014615252294005e-16 0.7933533402912357
  outer loop
    vertex 33.524276687119254 50.000000000000036 7.2428823128807185
    vertex 32.281635999999956 55.250000000000014 6.289370577293382
    vertex 32.281635999999956 50.000000000000036 6.289370577293374
  endloop
endfacet
facet normal -0.6087614290087202 -6.014615252294005e-16 0.7933533402912357
  outer loop
    vertex 32.281635999999956 55.250000000000014 6.289370577293382
    vertex 33.524276687119254 50.000000000000036 7.2428823128807185
    vertex 33.524276687119254 55.250000000000014 7.2428823128807265
  endloop
endfacet
facet normal 0.9914448613738106 -2.0499831780456893e-16 0.13052619222005152
  outer loop
    vertex 18.656451910820223 92.99999999999999 8.638513503872309
    vertex 18.28249853423672 94.6994933615229 11.48552686322956
    vertex 18.28249853423672 92.99949336152291 11.48552686322956
  endloop
endfacet
facet normal 0.9914448613738106 -2.0499831780456893e-16 0.13052619222005152
  outer loop
    vertex 18.28249853423672 94.6994933615229 11.48552686322956
    vertex 18.656451910820223 92.99999999999999 8.638513503872309
    vertex 18.656451910820223 94.69999999999999 8.638513503872312
  endloop
endfacet
facet normal -0.9914448613738105 -1.2371458074456425e-17 0.13052619222005168
  outer loop
    vertex 35.281636000095915 55.24999999978984 11.484714353496235
    vertex 35.07719095773437 50.000000000000036 9.932608729384885
    vertex 35.28163599999997 50.00000000000001 11.48552300000001
  endloop
endfacet
facet normal -0.9914448613738105 -1.2371458074456425e-17 0.13052619222005168
  outer loop
    vertex 35.07719095773437 50.000000000000036 9.932608729384885
    vertex 35.281636000095915 55.24999999978984 11.484714353496235
    vertex 35.07719095773437 55.25 9.93260872938489
  endloop
endfacet
facet normal 0.13052619222005177 -8.382235881505685e-16 0.9914448613738104
  outer loop
    vertex 29.28163599999996 92.99999999999999 0.48552300000004417
    vertex 26.434626503872245 94.69999999999999 0.8603389108202948
    vertex 26.434626503872245 92.99999999999999 0.8603389108202935
  endloop
endfacet
facet normal 0.13052619222005177 -8.382235881505685e-16 0.9914448613738104
  outer loop
    vertex 26.434626503872245 94.69999999999999 0.8603389108202948
    vertex 29.28163599999996 92.99999999999999 0.48552300000004417
    vertex 29.28163599999996 94.69999999999999 0.48552300000004556
  endloop
endfacet
facet normal 0.3826834229704408 -1.2473893224340297e-07 0.9238795364026693
  outer loop
    vertex 26.434626503872245 92.99999999999999 0.8603389108202935
    vertex 23.78163599999997 94.69999999999999 1.9592435583712142
    vertex 23.78163599999997 92.99999999999999 1.959243558371213
  endloop
endfacet
facet normal 0.3826834229704408 -1.2473893224340297e-07 0.9238795364026693
  outer loop
    vertex 23.78163599999997 94.69999999999999 1.9592435583712142
    vertex 26.434626503872245 92.99999999999999 0.8603389108202935
    vertex 26.434626503872245 94.69999999999999 0.8603389108202948
  endloop
endfacet
facet normal 0.6087614290087202 -7.197371923525094e-16 0.7933533402912357
  outer loop
    vertex 26.281635999999967 50.000000000000036 6.289370577293374
    vertex 25.038995312880687 55.250000000000014 7.2428823128807265
    vertex 25.038995312880687 50.000000000000036 7.2428823128807185
  endloop
endfacet
facet normal 0.6087614290087202 -7.197371923525094e-16 0.7933533402912357
  outer loop
    vertex 25.038995312880687 55.250000000000014 7.2428823128807265
    vertex 26.281635999999967 50.000000000000036 6.289370577293374
    vertex 26.281635999999967 55.250000000000014 6.289370577293382
  endloop
endfacet
facet normal 0.13052619222005168 -8.382235881505686e-16 0.9914448613738105
  outer loop
    vertex 29.28163599999996 50.000000000000036 5.485523000000002
    vertex 27.728721729384848 55.250000000000014 5.689968042265601
    vertex 27.728721729384848 50.000000000000036 5.689968042265593
  endloop
endfacet
facet normal 0.13052619222005168 -8.382235881505686e-16 0.9914448613738105
  outer loop
    vertex 27.728721729384848 55.250000000000014 5.689968042265601
    vertex 29.28163599999996 50.000000000000036 5.485523000000002
    vertex 29.28163599999996 55.250000000000014 5.485523000000011
  endloop
endfacet
facet normal 0.7933533402912357 -5.839656414341731e-16 0.6087614290087199
  outer loop
    vertex 21.503461406947963 94.69999999999999 3.70734840694802
    vertex 19.755356558371147 92.99999999999999 5.985523000000042
    vertex 21.503461406947963 92.99999999999999 3.7073484069480185
  endloop
endfacet
facet normal 0.7933533402912357 -5.839656414341731e-16 0.6087614290087199
  outer loop
    vertex 19.755356558371147 92.99999999999999 5.985523000000042
    vertex 21.503461406947963 94.69999999999999 3.70734840694802
    vertex 19.755356558371147 94.69999999999999 5.985523000000044
  endloop
endfacet
facet normal -0.9238795325112867 -2.2889813953050886e-16 0.38268343236509006
  outer loop
    vertex 35.07719095773437 55.25 9.93260872938489
    vertex 34.47778842270661 50.000000000000036 8.485523000000002
    vertex 35.07719095773437 50.000000000000036 9.932608729384885
  endloop
endfacet
facet normal -0.9238795325112867 -2.2889813953050886e-16 0.38268343236509006
  outer loop
    vertex 34.47778842270661 50.000000000000036 8.485523000000002
    vertex 35.07719095773437 55.25 9.93260872938489
    vertex 34.47778842270661 55.25 8.485523000000011
  endloop
endfacet
facet normal 0.9238795325112863 -4.083977971009518e-16 0.3826834323650908
  outer loop
    vertex 19.755356558371147 94.69999999999999 5.985523000000044
    vertex 18.656451910820223 92.99999999999999 8.638513503872309
    vertex 19.755356558371147 92.99999999999999 5.985523000000042
  endloop
endfacet
facet normal 0.9238795325112863 -4.083977971009518e-16 0.3826834323650908
  outer loop
    vertex 18.656451910820223 92.99999999999999 8.638513503872309
    vertex 19.755356558371147 94.69999999999999 5.985523000000044
    vertex 18.656451910820223 94.69999999999999 8.638513503872312
  endloop
endfacet
facet normal 0.3826834323650913 -8.064598430339686e-16 0.9238795325112862
  outer loop
    vertex 27.728721729384848 50.000000000000036 5.689968042265593
    vertex 26.281635999999967 55.250000000000014 6.289370577293382
    vertex 26.281635999999967 50.000000000000036 6.289370577293374
  endloop
endfacet
facet normal 0.3826834323650913 -8.064598430339686e-16 0.9238795325112862
  outer loop
    vertex 26.281635999999967 55.250000000000014 6.289370577293382
    vertex 27.728721729384848 50.000000000000036 5.689968042265593
    vertex 27.728721729384848 55.250000000000014 5.689968042265601
  endloop
endfacet
facet normal 0.9914448613738105 -2.0499831780456905e-16 0.13052619222005168
  outer loop
    vertex 23.48608104226555 55.25 9.93260872938489
    vertex 23.28163599999997 50.000000000000036 11.48552300000001
    vertex 23.48608104226555 50.000000000000036 9.932608729384885
  endloop
endfacet
facet normal 0.9914448613738105 -2.0499831780456905e-16 0.13052619222005168
  outer loop
    vertex 23.28163599999997 50.000000000000036 11.48552300000001
    vertex 23.48608104226555 55.25 9.93260872938489
    vertex 23.288384088722502 55.24895459907459 11.484734827091673
  endloop
endfacet
facet normal -1.0439504728902606e-06 0.9999999999811386 6.052511196120629e-06
  outer loop
    vertex 23.031635999999985 94.69999999999999 0.6602054526945611
    vertex 29.28163599999996 94.69999999999999 0.48552300000004556
    vertex 26.046397936218465 94.70000000000003 -0.5885498286133076
  endloop
endfacet
facet normal -1.0439504728902606e-06 0.9999999999811386 6.052511196120629e-06
  outer loop
    vertex 29.28163599999996 94.69999999999999 0.48552300000004556
    vertex 23.031635999999985 94.69999999999999 0.6602054526945611
    vertex 26.434626503872245 94.69999999999999 0.8603389108202948
  endloop
endfacet
facet normal -1.0439504728902606e-06 0.9999999999811386 6.052511196120629e-06
  outer loop
    vertex 26.434626503872245 94.69999999999999 0.8603389108202948
    vertex 23.031635999999985 94.69999999999999 0.6602054526945611
    vertex 20.44280123516814 94.69999999999999 2.646688235168196
  endloop
endfacet
facet normal -1.0439504728902606e-06 0.9999999999811386 6.052511196120629e-06
  outer loop
    vertex 26.434626503872245 94.69999999999999 0.8603389108202948
    vertex 20.44280123516814 94.69999999999999 2.646688235168196
    vertex 23.78163599999997 94.69999999999999 1.9592435583712142
  endloop
endfacet
facet normal -1.0439504728902606e-06 0.9999999999811386 6.052511196120629e-06
  outer loop
    vertex 23.78163599999997 94.69999999999999 1.9592435583712142
    vertex 20.44280123516814 94.69999999999999 2.646688235168196
    vertex 21.503461406947963 94.69999999999999 3.70734840694802
  endloop
endfacet
facet normal -1.0439504728902606e-06 0.9999999999811386 6.052511196120629e-06
  outer loop
    vertex 21.503461406947963 94.69999999999999 3.70734840694802
    vertex 20.44280123516814 94.69999999999999 2.646688235168196
    vertex 18.456318452694497 94.69999999999999 5.23552300000004
  endloop
endfacet
facet normal -1.0439504728902606e-06 0.9999999999811386 6.052511196120629e-06
  outer loop
    vertex 21.503461406947963 94.69999999999999 3.70734840694802
    vertex 18.456318452694497 94.69999999999999 5.23552300000004
    vertex 19.755356558371147 94.69999999999999 5.985523000000044
  endloop
endfacet
facet normal -1.0439504728902606e-06 0.9999999999811386 6.052511196120629e-06
  outer loop
    vertex 19.755356558371147 94.69999999999999 5.985523000000044
    vertex 18.456318452694497 94.69999999999999 5.23552300000004
    vertex 17.20756317138662 94.69999999999999 8.250284936218533
  endloop
endfacet
facet normal -1.0439504728902606e-06 0.9999999999811386 6.052511196120629e-06
  outer loop
    vertex 19.755356558371147 94.69999999999999 5.985523000000044
    vertex 17.20756317138662 94.69999999999999 8.250284936218533
    vertex 18.656451910820223 94.69999999999999 8.638513503872312
  endloop
endfacet
facet normal -1.0439504728902606e-06 0.9999999999811386 6.052511196120629e-06
  outer loop
    vertex 18.656451910820223 94.69999999999999 8.638513503872312
    vertex 17.20756317138662 94.69999999999999 8.250284936218533
    vertex 16.781635999999985 94.69999999999999 11.485523000000043
  endloop
endfacet
facet normal -1.0439504728902606e-06 0.9999999999811386 6.052511196120629e-06
  outer loop
    vertex 18.656451910820223 94.69999999999999 8.638513503872312
    vertex 16.781635999999985 94.69999999999999 11.485523000000043
    vertex 18.28249853423672 94.6994933615229 11.48552686322956
  endloop
endfacet
facet normal -1.0439504728902606e-06 0.9999999999811386 6.052511196120629e-06
  outer loop
    vertex 26.046397936218465 94.70000000000003 -0.5885498286133076
    vertex 32.51687406378148 94.69999999999999 -0.5885498286133133
    vertex 29.28163599999996 94.70000000000003 -1.0144769999999574
  endloop
endfacet
facet normal -1.0439504728902606e-06 0.9999999999811386 6.052511196120629e-06
  outer loop
    vertex 32.51687406378148 94.69999999999999 -0.5885498286133133
    vertex 26.046397936218465 94.70000000000003 -0.5885498286133076
    vertex 35.531635999999985 94.69999999999999 0.6602054526945611
  endloop
endfacet
facet normal -1.0439504728902606e-06 0.9999999999811386 6.052511196120629e-06
  outer loop
    vertex 35.531635999999985 94.69999999999999 0.6602054526945611
    vertex 26.046397936218465 94.70000000000003 -0.5885498286133076
    vertex 29.28163599999996 94.69999999999999 0.48552300000004556
  endloop
endfacet
facet normal -1.0439504728902606e-06 0.9999999999811386 6.052511196120629e-06
  outer loop
    vertex 35.531635999999985 94.69999999999999 0.6602054526945611
    vertex 29.28163599999996 94.69999999999999 0.48552300000004556
    vertex 32.128645496127696 94.69999999999999 0.8603389108202892
  endloop
endfacet
facet normal -1.0439504728902606e-06 0.9999999999811386 6.052511196120629e-06
  outer loop
    vertex 35.531635999999985 94.69999999999999 0.6602054526945611
    vertex 32.128645496127696 94.69999999999999 0.8603389108202892
    vertex 38.1204707648318 94.69999999999999 2.646688235168196
  endloop
endfacet
facet normal -1.0439504728902606e-06 0.9999999999811386 6.052511196120629e-06
  outer loop
    vertex 38.1204707648318 94.69999999999999 2.646688235168196
    vertex 32.128645496127696 94.69999999999999 0.8603389108202892
    vertex 34.78163599999997 94.69999999999999 1.9592435583712142
  endloop
endfacet
facet normal -1.0439504728902606e-06 0.9999999999811386 6.052511196120629e-06
  outer loop
    vertex 38.1204707648318 94.69999999999999 2.646688235168196
    vertex 34.78163599999997 94.69999999999999 1.9592435583712142
    vertex 37.059810593052 94.69999999999999 3.70734840694802
  endloop
endfacet
facet normal -1.0439504728902606e-06 0.9999999999811386 6.052511196120629e-06
  outer loop
    vertex 38.1204707648318 94.69999999999999 2.646688235168196
    vertex 37.059810593052 94.69999999999999 3.70734840694802
    vertex 40.106953547305444 94.69999999999999 5.235523000000034
  endloop
endfacet
facet normal -1.0439504728902606e-06 0.9999999999811386 6.052511196120629e-06
  outer loop
    vertex 40.106953547305444 94.69999999999999 5.235523000000034
    vertex 37.059810593052 94.69999999999999 3.70734840694802
    vertex 38.80791544162879 94.69999999999999 5.985523000000038
  endloop
endfacet
facet normal -1.0439504728902606e-06 0.9999999999811386 6.052511196120629e-06
  outer loop
    vertex 40.106953547305444 94.69999999999999 5.235523000000034
    vertex 38.80791544162879 94.69999999999999 5.985523000000038
    vertex 41.355708828613324 94.69999999999999 8.250284936218527
  endloop
endfacet
facet normal -1.0439504728902606e-06 0.9999999999811386 6.052511196120629e-06
  outer loop
    vertex 41.355708828613324 94.69999999999999 8.250284936218527
    vertex 38.80791544162879 94.69999999999999 5.985523000000038
    vertex 39.90682008917972 94.69999999999999 8.638513503872305
  endloop
endfacet
facet normal -1.0439504728902606e-06 0.9999999999811386 6.052511196120629e-06
  outer loop
    vertex 41.355708828613324 94.69999999999999 8.250284936218527
    vertex 39.90682008917972 94.69999999999999 8.638513503872305
    vertex 41.781635999999985 94.69999999999999 11.485523000000043
  endloop
endfacet
facet normal -1.0439504728902606e-06 0.9999999999811386 6.052511196120629e-06
  outer loop
    vertex 41.781635999999985 94.69999999999999 11.485523000000043
    vertex 39.90682008917972 94.69999999999999 8.638513503872305
    vertex 40.281635999999985 94.69999999999999 11.485523000000043
  endloop
endfacet
facet normal 0.6087614290087203 -6.693444346647219e-16 0.7933533402912354
  outer loop
    vertex 23.031635999999985 94.69999999999999 0.6602054526945611
    vertex 20.44280123516814 95.99999999999999 2.6466882351682015
    vertex 20.44280123516814 94.69999999999999 2.646688235168196
  endloop
endfacet
facet normal 0.6087614290087203 -6.693444346647219e-16 0.7933533402912354
  outer loop
    vertex 20.44280123516814 95.99999999999999 2.6466882351682015
    vertex 23.031635999999985 94.69999999999999 0.6602054526945611
    vertex 23.031635999999985 96.0 0.6602054526945625
  endloop
endfacet
facet normal 0.13052619222005316 -1.0669226032235571e-15 0.9914448613738103
  outer loop
    vertex 29.28163599999996 94.70000000000003 -1.0144769999999574
    vertex 26.046397936218465 96.00000000000003 -0.5885498286133062
    vertex 26.046397936218465 94.70000000000003 -0.5885498286133076
  endloop
endfacet
facet normal 0.13052619222005316 -1.0669226032235571e-15 0.9914448613738103
  outer loop
    vertex 26.046397936218465 96.00000000000003 -0.5885498286133062
    vertex 29.28163599999996 94.70000000000003 -1.0144769999999574
    vertex 29.28163599999996 96.00000000000003 -1.0144769999999559
  endloop
endfacet
facet normal -0.9238795325112867 -1.9065915526178323e-16 0.3826834323650899
  outer loop
    vertex 41.355708828613324 95.99999999999999 8.250284936218533
    vertex 40.106953547305444 94.69999999999999 5.235523000000034
    vertex 41.355708828613324 94.69999999999999 8.250284936218527
  endloop
endfacet
facet normal -0.9238795325112867 -1.9065915526178323e-16 0.3826834323650899
  outer loop
    vertex 40.106953547305444 94.69999999999999 5.235523000000034
    vertex 41.355708828613324 95.99999999999999 8.250284936218533
    vertex 40.106953547305444 95.99999999999999 5.23552300000004
  endloop
endfacet
facet normal -0.1305261922200506 -1.084067689242122e-15 0.9914448613738107
  outer loop
    vertex 32.51687406378148 94.69999999999999 -0.5885498286133133
    vertex 29.28163599999996 96.00000000000003 -1.0144769999999559
    vertex 29.28163599999996 94.70000000000003 -1.0144769999999574
  endloop
endfacet
facet normal -0.1305261922200506 -1.084067689242122e-15 0.9914448613738107
  outer loop
    vertex 29.28163599999996 96.00000000000003 -1.0144769999999559
    vertex 32.51687406378148 94.69999999999999 -0.5885498286133133
    vertex 32.51687406378148 96.0 -0.5885498286133118
  endloop
endfacet
facet normal -0.6087614290087195 -6.014615252294009e-16 0.793353340291236
  outer loop
    vertex 38.1204707648318 94.69999999999999 2.646688235168196
    vertex 35.531635999999985 95.99999999999999 0.6602054526945625
    vertex 35.531635999999985 94.69999999999999 0.6602054526945611
  endloop
endfacet
facet normal -0.6087614290087195 -6.014615252294009e-16 0.793353340291236
  outer loop
    vertex 35.531635999999985 95.99999999999999 0.6602054526945625
    vertex 38.1204707648318 94.69999999999999 2.646688235168196
    vertex 38.1204707648318 95.99999999999999 2.6466882351682015
  endloop
endfacet
facet normal 0.9914448613738107 -5.72656949898596e-16 0.13052619222004916
  outer loop
    vertex 17.20756317138662 95.99999999999999 8.250284936218538
    vertex 16.781635999999985 94.69999999999999 11.485523000000043
    vertex 17.20756317138662 94.69999999999999 8.250284936218533
  endloop
endfacet
facet normal 0.9914448613738107 -5.72656949898596e-16 0.13052619222004916
  outer loop
    vertex 16.781635999999985 94.69999999999999 11.485523000000043
    vertex 17.20756317138662 95.99999999999999 8.250284936218538
    vertex 16.781635999999985 95.99999999999999 11.485523000000049
  endloop
endfacet
facet normal -0.3826834323650908 -7.004304386360089e-16 0.9238795325112863
  outer loop
    vertex 35.531635999999985 94.69999999999999 0.6602054526945611
    vertex 32.51687406378148 96.0 -0.5885498286133118
    vertex 32.51687406378148 94.69999999999999 -0.5885498286133133
  endloop
endfacet
facet normal -0.3826834323650908 -7.004304386360089e-16 0.9238795325112863
  outer loop
    vertex 32.51687406378148 96.0 -0.5885498286133118
    vertex 35.531635999999985 94.69999999999999 0.6602054526945611
    vertex 35.531635999999985 95.99999999999999 0.6602054526945625
  endloop
endfacet
facet normal 0.9238795325112871 -4.083977971009417e-16 0.382683432365089
  outer loop
    vertex 18.456318452694497 95.99999999999999 5.235523000000045
    vertex 17.20756317138662 94.69999999999999 8.250284936218533
    vertex 18.456318452694497 94.69999999999999 5.23552300000004
  endloop
endfacet
facet normal 0.9238795325112871 -4.083977971009417e-16 0.382683432365089
  outer loop
    vertex 17.20756317138662 94.69999999999999 8.250284936218533
    vertex 18.456318452694497 95.99999999999999 5.235523000000045
    vertex 17.20756317138662 95.99999999999999 8.250284936218538
  endloop
endfacet
facet normal -0.6087614290087221 -6.01461525229399e-16 0.7933533402912342
  outer loop
    vertex 37.059810593052 92.99999999999999 3.7073484069480185
    vertex 34.78163599999997 94.69999999999999 1.9592435583712142
    vertex 34.78163599999997 92.99999999999999 1.959243558371213
  endloop
endfacet
facet normal -0.6087614290087221 -6.01461525229399e-16 0.7933533402912342
  outer loop
    vertex 34.78163599999997 94.69999999999999 1.9592435583712142
    vertex 37.059810593052 92.99999999999999 3.7073484069480185
    vertex 37.059810593052 94.69999999999999 3.70734840694802
  endloop
endfacet
facet normal -0.9914448613738098 -1.137313078012422e-16 0.13052619222005707
  outer loop
    vertex 40.281635999999985 94.69999999999999 11.485523000000043
    vertex 39.90682008917972 92.99999999999999 8.638513503872304
    vertex 40.281635999999985 92.99999999999999 11.485523000000043
  endloop
endfacet
facet normal -0.9914448613738098 -1.137313078012422e-16 0.13052619222005707
  outer loop
    vertex 39.90682008917972 92.99999999999999 8.638513503872304
    vertex 40.281635999999985 94.69999999999999 11.485523000000043
    vertex 39.90682008917972 94.69999999999999 8.638513503872305
  endloop
endfacet
facet normal -0.38268344631778656 1.854281005450027e-07 0.9238795267318718
  outer loop
    vertex 34.78163599999997 92.99999999999999 1.959243558371213
    vertex 32.128645496127696 94.69999999999999 0.8603389108202892
    vertex 32.128645496127696 92.99999999999999 0.8603389108202878
  endloop
endfacet
facet normal -0.38268344631778656 1.854281005450027e-07 0.9238795267318718
  outer loop
    vertex 32.128645496127696 94.69999999999999 0.8603389108202892
    vertex 34.78163599999997 92.99999999999999 1.959243558371213
    vertex 34.78163599999997 94.69999999999999 1.9592435583712142
  endloop
endfacet
facet normal -0.7933533402912342 -4.2982579104961897e-16 0.6087614290087221
  outer loop
    vertex 38.80791544162879 94.69999999999999 5.985523000000038
    vertex 37.059810593052 92.99999999999999 3.7073484069480185
    vertex 38.80791544162879 92.99999999999999 5.985523000000037
  endloop
endfacet
facet normal -0.7933533402912342 -4.2982579104961897e-16 0.6087614290087221
  outer loop
    vertex 37.059810593052 92.99999999999999 3.7073484069480185
    vertex 38.80791544162879 94.69999999999999 5.985523000000038
    vertex 37.059810593052 94.69999999999999 3.70734840694802
  endloop
endfacet
facet normal -0.9238795325112863 -2.2889813953050955e-16 0.3826834323650908
  outer loop
    vertex 39.90682008917972 94.69999999999999 8.638513503872305
    vertex 38.80791544162879 92.99999999999999 5.985523000000037
    vertex 39.90682008917972 92.99999999999999 8.638513503872304
  endloop
endfacet
facet normal -0.9238795325112863 -2.2889813953050955e-16 0.3826834323650908
  outer loop
    vertex 38.80791544162879 92.99999999999999 5.985523000000037
    vertex 39.90682008917972 94.69999999999999 8.638513503872305
    vertex 38.80791544162879 94.69999999999999 5.985523000000038
  endloop
endfacet
facet normal -1.0 9.714451465470117e-17 -2.2109675761565468e-31
  outer loop
    vertex 44.281636 104.24999999999997 11.485523000000068
    vertex 44.28163599999998 96.0 -1.014476999999953
    vertex 44.281636 95.99999999999999 11.485523000000056
  endloop
endfacet
facet normal -1.0 9.714451465470117e-17 -2.2109675761565468e-31
  outer loop
    vertex 44.28163599999998 96.0 -1.014476999999953
    vertex 44.281636 104.24999999999997 11.485523000000068
    vertex 44.28163599999998 104.25 -1.0144769999999461
  endloop
endfacet
facet normal -2.1083983745191005e-15 -1.2826188868876305e-15 1.0
  outer loop
    vertex 46.78163616064568 93.00000000000013 11.485523000000056
    vertex 40.281635999999985 94.69999999999999 11.485523000000043
    vertex 40.281635999999985 92.99999999999999 11.485523000000043
  endloop
endfacet
facet normal -2.1083983745191005e-15 -1.2826188868876305e-15 1.0
  outer loop
    vertex 40.281635999999985 94.69999999999999 11.485523000000043
    vertex 46.78163616064568 93.00000000000013 11.485523000000056
    vertex 41.781635999999985 94.69999999999999 11.485523000000043
  endloop
endfacet
facet normal -2.1083983745191005e-15 -1.2826188868876305e-15 1.0
  outer loop
    vertex 41.781635999999985 94.69999999999999 11.485523000000043
    vertex 46.78163616064568 93.00000000000013 11.485523000000056
    vertex 41.781635999999985 95.99999999999999 11.485523000000049
  endloop
endfacet
facet normal -2.1083983745191005e-15 -1.2826188868876305e-15 1.0
  outer loop
    vertex 41.781635999999985 95.99999999999999 11.485523000000049
    vertex 46.78163616064568 93.00000000000013 11.485523000000056
    vertex 44.281636 95.99999999999999 11.485523000000056
  endloop
endfacet
facet normal -2.1083983745191005e-15 -1.2826188868876305e-15 1.0
  outer loop
    vertex 44.281636 95.99999999999999 11.485523000000056
    vertex 46.78163616064568 93.00000000000013 11.485523000000056
    vertex 44.281636 104.24999999999997 11.485523000000068
  endloop
endfacet
facet normal -2.1083983745191005e-15 -1.2826188868876305e-15 1.0
  outer loop
    vertex 44.281636 104.24999999999997 11.485523000000068
    vertex 46.78163616064568 93.00000000000013 11.485523000000056
    vertex 46.781636 104.24999999999997 11.485523000000068
  endloop
endfacet
facet normal -1.1864785870203645e-07 2.5989539813900406e-07 0.9999999999999594
  outer loop
    vertex 46.78163459378719 49.99999708393351 11.484717082397749
    vertex 35.281636000095915 55.24999999978984 11.484714353496235
    vertex 35.28163599999997 50.00000000000001 11.48552300000001
  endloop
endfacet
facet normal -1.1864785870203645e-07 2.5989539813900406e-07 0.9999999999999594
  outer loop
    vertex 35.281636000095915 55.24999999978984 11.484714353496235
    vertex 46.78163459378719 49.99999708393351 11.484717082397749
    vertex 46.7816360000959 55.24999999978984 11.484714353496225
  endloop
endfacet
facet normal -0.0007949102423285636 0.0001234044738697364 0.9999996764444689
  outer loop
    vertex 23.28163599999997 50.000000000000036 11.48552300000001
    vertex 11.758987150181852 55.252257914447014 11.474921687374831
    vertex 11.758986481043555 50.00257679636653 11.476217434240175
  endloop
endfacet
facet normal -0.0007949102423285636 0.0001234044738697364 0.9999996764444689
  outer loop
    vertex 11.758987150181852 55.252257914447014 11.474921687374831
    vertex 23.28163599999997 50.000000000000036 11.48552300000001
    vertex 23.288384088722502 55.24895459907459 11.484734827091673
  endloop
endfacet
facet normal -1.6487116160383022e-07 0.9999999999999865 3.486602564320542e-09
  outer loop
    vertex 11.782377240253759 104.2496915335781 11.484862359159996
    vertex 14.781635999999981 104.25 -1.0144769999999486
    vertex 11.781973446525198 104.25013833684834 -2.799621706594632
  endloop
endfacet
facet normal -1.6487116160383022e-07 0.9999999999999865 3.486602564320542e-09
  outer loop
    vertex 14.781635999999981 104.25 -1.0144769999999486
    vertex 11.782377240253759 104.2496915335781 11.484862359159996
    vertex 14.782377240253755 104.2496915335781 11.484862359159996
  endloop
endfacet
facet normal -1.6487116160383022e-07 0.9999999999999865 3.486602564320542e-09
  outer loop
    vertex 46.781965807029906 104.25015017718415 -2.800063260396394
    vertex 44.28163599999998 104.25 -1.0144769999999461
    vertex 46.781636 104.24999999999997 11.485523000000068
  endloop
endfacet
facet normal -1.6487116160383022e-07 0.9999999999999865 3.486602564320542e-09
  outer loop
    vertex 44.28163599999998 104.25 -1.0144769999999461
    vertex 46.781965807029906 104.25015017718415 -2.800063260396394
    vertex 11.781973446525198 104.25013833684834 -2.799621706594632
  endloop
endfacet
facet normal -1.6487116160383022e-07 0.9999999999999865 3.486602564320542e-09
  outer loop
    vertex 44.28163599999998 104.25 -1.0144769999999461
    vertex 11.781973446525198 104.25013833684834 -2.799621706594632
    vertex 14.781635999999981 104.25 -1.0144769999999486
  endloop
endfacet
facet normal -1.6487116160383022e-07 0.9999999999999865 3.486602564320542e-09
  outer loop
    vertex 46.781636 104.24999999999997 11.485523000000068
    vertex 44.28163599999998 104.25 -1.0144769999999461
    vertex 44.281636 104.24999999999997 11.485523000000068
  endloop
endfacet
facet normal -4.771606025112017e-05 4.2833724750875296e-05 0.9999999979442249
  outer loop
    vertex 11.779598026330167 92.99637240135003 11.48534087328166
    vertex 14.782377240253755 95.99969153357804 11.484862359159989
    vertex 11.782377240253759 104.2496915335781 11.484862359159996
  endloop
endfacet
facet normal -4.771606025112017e-05 4.2833724750875296e-05 0.9999999979442249
  outer loop
    vertex 14.782377240253755 95.99969153357804 11.484862359159989
    vertex 11.779598026330167 92.99637240135003 11.48534087328166
    vertex 18.28249853423672 92.99949336152291 11.48552686322956
  endloop
endfacet
facet normal -4.771606025112017e-05 4.2833724750875296e-05 0.9999999979442249
  outer loop
    vertex 14.782377240253755 95.99969153357804 11.484862359159989
    vertex 18.28249853423672 92.99949336152291 11.48552686322956
    vertex 16.781635999999985 94.69999999999999 11.485523000000043
  endloop
endfacet
facet normal -4.771606025112017e-05 4.2833724750875296e-05 0.9999999979442249
  outer loop
    vertex 16.781635999999985 94.69999999999999 11.485523000000043
    vertex 18.28249853423672 92.99949336152291 11.48552686322956
    vertex 18.28249853423672 94.6994933615229 11.48552686322956
  endloop
endfacet
facet normal -4.771606025112017e-05 4.2833724750875296e-05 0.9999999979442249
  outer loop
    vertex 16.781635999999985 95.99999999999999 11.485523000000049
    vertex 14.782377240253755 95.99969153357804 11.484862359159989
    vertex 16.781635999999985 94.69999999999999 11.485523000000043
  endloop
endfacet
facet normal -4.771606025112017e-05 4.2833724750875296e-05 0.9999999979442249
  outer loop
    vertex 14.782377240253755 104.2496915335781 11.484862359159996
    vertex 11.782377240253759 104.2496915335781 11.484862359159996
    vertex 14.782377240253755 95.99969153357804 11.484862359159989
  endloop
endfacet
facet normal 1.065663651528481e-15 1.0 1.4288499194850546e-15
  outer loop
    vertex 32.51687406378148 96.0 -0.5885498286133118
    vertex 44.28163599999998 96.0 -1.014476999999953
    vertex 29.28163599999996 96.00000000000003 -1.0144769999999559
  endloop
endfacet
facet normal 1.065663651528481e-15 1.0 1.4288499194850546e-15
  outer loop
    vertex 44.28163599999998 96.0 -1.014476999999953
    vertex 32.51687406378148 96.0 -0.5885498286133118
    vertex 35.531635999999985 95.99999999999999 0.6602054526945625
  endloop
endfacet
facet normal 1.065663651528481e-15 1.0 1.4288499194850546e-15
  outer loop
    vertex 44.28163599999998 96.0 -1.014476999999953
    vertex 35.531635999999985 95.99999999999999 0.6602054526945625
    vertex 38.1204707648318 95.99999999999999 2.6466882351682015
  endloop
endfacet
facet normal 1.065663651528481e-15 1.0 1.4288499194850546e-15
  outer loop
    vertex 44.28163599999998 96.0 -1.014476999999953
    vertex 38.1204707648318 95.99999999999999 2.6466882351682015
    vertex 40.106953547305444 95.99999999999999 5.23552300000004
  endloop
endfacet
facet normal 1.065663651528481e-15 1.0 1.4288499194850546e-15
  outer loop
    vertex 44.28163599999998 96.0 -1.014476999999953
    vertex 40.106953547305444 95.99999999999999 5.23552300000004
    vertex 44.281636 95.99999999999999 11.485523000000056
  endloop
endfacet
facet normal 1.065663651528481e-15 1.0 1.4288499194850546e-15
  outer loop
    vertex 44.281636 95.99999999999999 11.485523000000056
    vertex 40.106953547305444 95.99999999999999 5.23552300000004
    vertex 41.355708828613324 95.99999999999999 8.250284936218533
  endloop
endfacet
facet normal 1.065663651528481e-15 1.0 1.4288499194850546e-15
  outer loop
    vertex 44.281636 95.99999999999999 11.485523000000056
    vertex 41.355708828613324 95.99999999999999 8.250284936218533
    vertex 41.781635999999985 95.99999999999999 11.485523000000049
  endloop
endfacet
facet normal -1.5011338867473946e-06 0.9999999999532247 9.554967909214397e-06
  outer loop
    vertex 14.781635999999981 96.0 -1.0144769999999537
    vertex 26.046397936218465 96.00000000000003 -0.5885498286133062
    vertex 29.28163599999996 96.00000000000003 -1.0144769999999559
  endloop
endfacet
facet normal -1.5011338867473946e-06 0.9999999999532247 9.554967909214397e-06
  outer loop
    vertex 26.046397936218465 96.00000000000003 -0.5885498286133062
    vertex 14.781635999999981 96.0 -1.0144769999999537
    vertex 23.031635999999985 96.0 0.6602054526945625
  endloop
endfacet
facet normal -1.5011338867473946e-06 0.9999999999532247 9.554967909214397e-06
  outer loop
    vertex 23.031635999999985 96.0 0.6602054526945625
    vertex 14.781635999999981 96.0 -1.0144769999999537
    vertex 20.44280123516814 95.99999999999999 2.6466882351682015
  endloop
endfacet
facet normal -1.5011338867473946e-06 0.9999999999532247 9.554967909214397e-06
  outer loop
    vertex 20.44280123516814 95.99999999999999 2.6466882351682015
    vertex 14.781635999999981 96.0 -1.0144769999999537
    vertex 19.228770394849423 95.99999999999999 4.228844029683274
  endloop
endfacet
facet normal -1.5011338867473946e-06 0.9999999999532247 9.554967909214397e-06
  outer loop
    vertex 19.228770394849423 95.99999999999999 4.228844029683274
    vertex 14.781635999999981 96.0 -1.0144769999999537
    vertex 18.456318452694497 95.99999999999999 5.235523000000045
  endloop
endfacet
facet normal -1.5011338867473946e-06 0.9999999999532247 9.554967909214397e-06
  outer loop
    vertex 18.456318452694497 95.99999999999999 5.235523000000045
    vertex 14.781635999999981 96.0 -1.0144769999999537
    vertex 14.782377240253755 95.99969153357804 11.484862359159989
  endloop
endfacet
facet normal -1.5011338867473946e-06 0.9999999999532247 9.554967909214397e-06
  outer loop
    vertex 18.456318452694497 95.99999999999999 5.235523000000045
    vertex 14.782377240253755 95.99969153357804 11.484862359159989
    vertex 17.20756317138662 95.99999999999999 8.250284936218538
  endloop
endfacet
facet normal -1.5011338867473946e-06 0.9999999999532247 9.554967909214397e-06
  outer loop
    vertex 17.20756317138662 95.99999999999999 8.250284936218538
    vertex 14.782377240253755 95.99969153357804 11.484862359159989
    vertex 16.781635999999985 95.99999999999999 11.485523000000049
  endloop
endfacet
facet normal -5.2661351492003074e-17 -8.392291770927174e-16 1.0
  outer loop
    vertex 29.28163599999996 96.00000000000003 -1.0144769999999559
    vertex 14.781635999999981 104.25 -1.0144769999999486
    vertex 14.781635999999981 96.0 -1.0144769999999537
  endloop
endfacet
facet normal -5.2661351492003074e-17 -8.392291770927174e-16 1.0
  outer loop
    vertex 14.781635999999981 104.25 -1.0144769999999486
    vertex 29.28163599999996 96.00000000000003 -1.0144769999999559
    vertex 44.28163599999998 104.25 -1.0144769999999461
  endloop
endfacet
facet normal -5.2661351492003074e-17 -8.392291770927174e-16 1.0
  outer loop
    vertex 44.28163599999998 104.25 -1.0144769999999461
    vertex 29.28163599999996 96.00000000000003 -1.0144769999999559
    vertex 44.28163599999998 96.0 -1.014476999999953
  endloop
endfacet
facet normal 1.0 0.0 0.0
  outer loop
    vertex 14.781635999999981 96.0 -1.0144769999999537
    vertex 14.782377240253755 104.2496915335781 11.484862359159996
    vertex 14.782377240253755 95.99969153357804 11.484862359159989
  endloop
endfacet
facet normal 1.0 0.0 0.0
  outer loop
    vertex 14.782377240253755 104.2496915335781 11.484862359159996
    vertex 14.781635999999981 96.0 -1.0144769999999537
    vertex 14.781635999999981 104.25 -1.0144769999999486
  endloop
endfacet
facet normal -0.9999997720424265 0.00014099937177678275 -0.0006603289122429373
  outer loop
    vertex 11.758987150181852 55.252257914447014 11.474921687374831
    vertex 11.775749369058355 55.246299262735114 -1.0211276334999966
    vertex 11.758986481043555 50.00257679636653 11.476217434240175
  endloop
endfacet
facet normal -0.9999997720424265 0.00014099937177678275 -0.0006603289122429373
  outer loop
    vertex 11.784875300155575 50.001150327234846 -2.795518285338268
    vertex 11.775749369058355 55.246299262735114 -1.0211276334999966
    vertex 11.781973446525198 104.25013833684834 -2.799621706594632
  endloop
endfacet
facet normal -0.9999997720424265 0.00014099937177678275 -0.0006603289122429373
  outer loop
    vertex 11.775749369058355 55.246299262735114 -1.0211276334999966
    vertex 11.784875300155575 50.001150327234846 -2.795518285338268
    vertex 11.758986481043555 50.00257679636653 11.476217434240175
  endloop
endfacet
facet normal -0.9999997720424265 0.00014099937177678275 -0.0006603289122429373
  outer loop
    vertex 11.781973446525198 104.25013833684834 -2.799621706594632
    vertex 11.775749369058355 55.246299262735114 -1.0211276334999966
    vertex 11.77575065489667 92.99468509017896 -1.016670773367954
  endloop
endfacet
facet normal -0.9999997720424265 0.00014099937177678275 -0.0006603289122429373
  outer loop
    vertex 11.781973446525198 104.25013833684834 -2.799621706594632
    vertex 11.77575065489667 92.99468509017896 -1.016670773367954
    vertex 11.779598026330167 92.99637240135003 11.48534087328166
  endloop
endfacet
facet normal -0.9999997720424265 0.00014099937177678275 -0.0006603289122429373
  outer loop
    vertex 11.781973446525198 104.25013833684834 -2.799621706594632
    vertex 11.779598026330167 92.99637240135003 11.48534087328166
    vertex 11.782377240253759 104.2496915335781 11.484862359159996
  endloop
endfacet
facet normal 7.155757968973867e-05 -0.9999999969380924 3.167535540669204e-05
  outer loop
    vertex 46.78164391118612 92.99921048208472 -1.0211358169530373
    vertex 29.28163599999996 92.99999999999999 0.48552300000004417
    vertex 11.77575065489667 92.99468509017896 -1.016670773367954
  endloop
endfacet
facet normal 7.155757968973867e-05 -0.9999999969380924 3.167535540669204e-05
  outer loop
    vertex 29.28163599999996 92.99999999999999 0.48552300000004417
    vertex 46.78164391118612 92.99921048208472 -1.0211358169530373
    vertex 32.128645496127696 92.99999999999999 0.8603389108202878
  endloop
endfacet
facet normal 7.155757968973867e-05 -0.9999999969380924 3.167535540669204e-05
  outer loop
    vertex 32.128645496127696 92.99999999999999 0.8603389108202878
    vertex 46.78164391118612 92.99921048208472 -1.0211358169530373
    vertex 34.78163599999997 92.99999999999999 1.959243558371213
  endloop
endfacet
facet normal 7.155757968973867e-05 -0.9999999969380924 3.167535540669204e-05
  outer loop
    vertex 34.78163599999997 92.99999999999999 1.959243558371213
    vertex 46.78164391118612 92.99921048208472 -1.0211358169530373
    vertex 37.059810593052 92.99999999999999 3.7073484069480185
  endloop
endfacet
facet normal 7.155757968973867e-05 -0.9999999969380924 3.167535540669204e-05
  outer loop
    vertex 37.059810593052 92.99999999999999 3.7073484069480185
    vertex 46.78164391118612 92.99921048208472 -1.0211358169530373
    vertex 46.78163616064568 93.00000000000013 11.485523000000056
  endloop
endfacet
facet normal 7.155757968973867e-05 -0.9999999969380924 3.167535540669204e-05
  outer loop
    vertex 37.059810593052 92.99999999999999 3.7073484069480185
    vertex 46.78163616064568 93.00000000000013 11.485523000000056
    vertex 38.80791544162879 92.99999999999999 5.985523000000037
  endloop
endfacet
facet normal 7.155757968973867e-05 -0.9999999969380924 3.167535540669204e-05
  outer loop
    vertex 38.80791544162879 92.99999999999999 5.985523000000037
    vertex 46.78163616064568 93.00000000000013 11.485523000000056
    vertex 39.90682008917972 92.99999999999999 8.638513503872304
  endloop
endfacet
facet normal 7.155757968973867e-05 -0.9999999969380924 3.167535540669204e-05
  outer loop
    vertex 39.90682008917972 92.99999999999999 8.638513503872304
    vertex 46.78163616064568 93.00000000000013 11.485523000000056
    vertex 40.281635999999985 92.99999999999999 11.485523000000043
  endloop
endfacet
facet normal 7.155757968973867e-05 -0.9999999969380924 3.167535540669204e-05
  outer loop
    vertex 11.77575065489667 92.99468509017896 -1.016670773367954
    vertex 21.503461406947963 92.99999999999999 3.7073484069480185
    vertex 11.779598026330167 92.99637240135003 11.48534087328166
  endloop
endfacet
facet normal 7.155757968973867e-05 -0.9999999969380924 3.167535540669204e-05
  outer loop
    vertex 21.503461406947963 92.99999999999999 3.7073484069480185
    vertex 11.77575065489667 92.99468509017896 -1.016670773367954
    vertex 23.78163599999997 92.99999999999999 1.959243558371213
  endloop
endfacet
facet normal 7.155757968973867e-05 -0.9999999969380924 3.167535540669204e-05
  outer loop
    vertex 23.78163599999997 92.99999999999999 1.959243558371213
    vertex 11.77575065489667 92.99468509017896 -1.016670773367954
    vertex 26.434626503872245 92.99999999999999 0.8603389108202935
  endloop
endfacet
facet normal 7.155757968973867e-05 -0.9999999969380924 3.167535540669204e-05
  outer loop
    vertex 26.434626503872245 92.99999999999999 0.8603389108202935
    vertex 11.77575065489667 92.99468509017896 -1.016670773367954
    vertex 29.28163599999996 92.99999999999999 0.48552300000004417
  endloop
endfacet
facet normal 7.155757968973867e-05 -0.9999999969380924 3.167535540669204e-05
  outer loop
    vertex 11.779598026330167 92.99637240135003 11.48534087328166
    vertex 21.503461406947963 92.99999999999999 3.7073484069480185
    vertex 19.755356558371147 92.99999999999999 5.985523000000042
  endloop
endfacet
facet normal 7.155757968973867e-05 -0.9999999969380924 3.167535540669204e-05
  outer loop
    vertex 11.779598026330167 92.99637240135003 11.48534087328166
    vertex 19.755356558371147 92.99999999999999 5.985523000000042
    vertex 18.656451910820223 92.99999999999999 8.638513503872309
  endloop
endfacet
facet normal 7.155757968973867e-05 -0.9999999969380924 3.167535540669204e-05
  outer loop
    vertex 11.779598026330167 92.99637240135003 11.48534087328166
    vertex 18.656451910820223 92.99999999999999 8.638513503872309
    vertex 18.28249853423672 92.99949336152291 11.48552686322956
  endloop
endfacet
facet normal 2.136473633892884e-05 0.9999999593730805 -0.0002842488090591854
  outer loop
    vertex 11.775749369058355 55.246299262735114 -1.0211276334999966
    vertex 27.728721729384848 55.250000000000014 5.689968042265601
    vertex 29.28163599999996 55.250000000000014 5.485523000000011
  endloop
endfacet
facet normal 2.136473633892884e-05 0.9999999593730805 -0.0002842488090591854
  outer loop
    vertex 27.728721729384848 55.250000000000014 5.689968042265601
    vertex 11.775749369058355 55.246299262735114 -1.0211276334999966
    vertex 11.758987150181852 55.252257914447014 11.474921687374831
  endloop
endfacet
facet normal 2.136473633892884e-05 0.9999999593730805 -0.0002842488090591854
  outer loop
    vertex 27.728721729384848 55.250000000000014 5.689968042265601
    vertex 11.758987150181852 55.252257914447014 11.474921687374831
    vertex 26.281635999999967 55.250000000000014 6.289370577293382
  endloop
endfacet
facet normal 2.136473633892884e-05 0.9999999593730805 -0.0002842488090591854
  outer loop
    vertex 26.281635999999967 55.250000000000014 6.289370577293382
    vertex 11.758987150181852 55.252257914447014 11.474921687374831
    vertex 25.038995312880687 55.250000000000014 7.2428823128807265
  endloop
endfacet
facet normal 2.136473633892884e-05 0.9999999593730805 -0.0002842488090591854
  outer loop
    vertex 25.038995312880687 55.250000000000014 7.2428823128807265
    vertex 11.758987150181852 55.252257914447014 11.474921687374831
    vertex 24.085483577293335 55.250000000000014 8.485523000000011
  endloop
endfacet
facet normal 2.136473633892884e-05 0.9999999593730805 -0.0002842488090591854
  outer loop
    vertex 24.085483577293335 55.250000000000014 8.485523000000011
    vertex 11.758987150181852 55.252257914447014 11.474921687374831
    vertex 23.48608104226555 55.25 9.93260872938489
  endloop
endfacet
facet normal 2.136473633892884e-05 0.9999999593730805 -0.0002842488090591854
  outer loop
    vertex 23.48608104226555 55.25 9.93260872938489
    vertex 11.758987150181852 55.252257914447014 11.474921687374831
    vertex 23.288384088722502 55.24895459907459 11.484734827091673
  endloop
endfacet
facet normal 2.136473633892884e-05 0.9999999593730805 -0.0002842488090591854
  outer loop
    vertex 11.775749369058355 55.246299262735114 -1.0211276334999966
    vertex 46.78163599999995 55.25 9.586584471818728
    vertex 46.78164391118612 55.24630812527326 -1.0211358169530373
  endloop
endfacet
facet normal 2.136473633892884e-05 0.9999999593730805 -0.0002842488090591854
  outer loop
    vertex 46.78163599999995 55.25 9.586584471818728
    vertex 11.775749369058355 55.246299262735114 -1.0211276334999966
    vertex 30.834550270615097 55.250000000000014 5.689968042265601
  endloop
endfacet
facet normal 2.136473633892884e-05 0.9999999593730805 -0.0002842488090591854
  outer loop
    vertex 30.834550270615097 55.250000000000014 5.689968042265601
    vertex 11.775749369058355 55.246299262735114 -1.0211276334999966
    vertex 29.28163599999996 55.250000000000014 5.485523000000011
  endloop
endfacet
facet normal 2.136473633892884e-05 0.9999999593730805 -0.0002842488090591854
  outer loop
    vertex 46.78163599999995 55.25 9.586584471818728
    vertex 30.834550270615097 55.250000000000014 5.689968042265601
    vertex 32.281635999999956 55.250000000000014 6.289370577293382
  endloop
endfacet
facet normal 2.136473633892884e-05 0.9999999593730805 -0.0002842488090591854
  outer loop
    vertex 46.78163599999995 55.25 9.586584471818728
    vertex 32.281635999999956 55.250000000000014 6.289370577293382
    vertex 33.524276687119254 55.250000000000014 7.2428823128807265
  endloop
endfacet
facet normal 2.136473633892884e-05 0.9999999593730805 -0.0002842488090591854
  outer loop
    vertex 46.78163599999995 55.25 9.586584471818728
    vertex 33.524276687119254 55.250000000000014 7.2428823128807265
    vertex 34.47778842270661 55.25 8.485523000000011
  endloop
endfacet
facet normal 2.136473633892884e-05 0.9999999593730805 -0.0002842488090591854
  outer loop
    vertex 46.78163599999995 55.25 9.586584471818728
    vertex 34.47778842270661 55.25 8.485523000000011
    vertex 35.07719095773437 55.25 9.93260872938489
  endloop
endfacet
facet normal 2.136473633892884e-05 0.9999999593730805 -0.0002842488090591854
  outer loop
    vertex 46.78163599999995 55.25 9.586584471818728
    vertex 35.07719095773437 55.25 9.93260872938489
    vertex 46.7816360000959 55.24999999978984 11.484714353496225
  endloop
endfacet
facet normal 2.136473633892884e-05 0.9999999593730805 -0.0002842488090591854
  outer loop
    vertex 46.7816360000959 55.24999999978984 11.484714353496225
    vertex 35.07719095773437 55.25 9.93260872938489
    vertex 35.281636000095915 55.24999999978984 11.484714353496235
  endloop
endfacet
facet normal 6.389630549634343e-05 -5.9026722281045236e-05 0.9999999962165542
  outer loop
    vertex 11.775749369058355 55.246299262735114 -1.0211276334999966
    vertex 16.77575037691099 62.52543710304283 -1.0192621713574526
    vertex 11.77575065489667 92.99468509017896 -1.016670773367954
  endloop
endfacet
facet normal 6.389630549634343e-05 -5.9026722281045236e-05 0.9999999962165542
  outer loop
    vertex 16.77575037691099 62.52543710304283 -1.0192621713574526
    vertex 11.775749369058355 55.246299262735114 -1.0211276334999966
    vertex 19.054880611287377 60.24630685940974 -1.0195682782187354
  endloop
endfacet
facet normal 6.389630549634343e-05 -5.9026722281045236e-05 0.9999999962165542
  outer loop
    vertex 19.054880611287377 60.24630685940974 -1.0195682782187354
    vertex 11.775749369058355 55.246299262735114 -1.0211276334999966
    vertex 46.78164391118612 55.24630812527326 -1.0211358169530373
  endloop
endfacet
facet normal 6.389630549634343e-05 -5.9026722281045236e-05 0.9999999962165542
  outer loop
    vertex 19.054880611287377 60.24630685940974 -1.0195682782187354
    vertex 46.78164391118612 55.24630812527326 -1.0211358169530373
    vertex 39.66090792076007 60.24630685940974 -1.0208849272397487
  endloop
endfacet
facet normal 6.389630549634343e-05 -5.9026722281045236e-05 0.9999999962165542
  outer loop
    vertex 39.66090792076007 60.24630685940974 -1.0208849272397487
    vertex 46.78164391118612 55.24630812527326 -1.0211358169530373
    vertex 41.78164391645756 62.52543710304283 -1.0209062207940236
  endloop
endfacet
facet normal 6.389630549634343e-05 -5.9026722281045236e-05 0.9999999962165542
  outer loop
    vertex 41.78164391645756 62.52543710304283 -1.0209062207940236
    vertex 46.78164391118612 55.24630812527326 -1.0211358169530373
    vertex 41.78164391646601 63.2463068556428 -1.0208700959569745
  endloop
endfacet
facet normal 6.389630549634343e-05 -5.9026722281045236e-05 0.9999999962165542
  outer loop
    vertex 11.77575065489667 92.99468509017896 -1.016670773367954
    vertex 19.054880611287377 87.99562605897508 -1.0175992351066336
    vertex 46.78164391118612 92.99921048208472 -1.0211358169530373
  endloop
endfacet
facet normal 6.389630549634343e-05 -5.9026722281045236e-05 0.9999999962165542
  outer loop
    vertex 19.054880611287377 87.99562605897508 -1.0175992351066336
    vertex 11.77575065489667 92.99468509017896 -1.016670773367954
    vertex 16.77575041248702 85.71649590528985 -1.0177431088558988
  endloop
endfacet
facet normal 6.389630549634343e-05 -5.9026722281045236e-05 0.9999999962165542
  outer loop
    vertex 16.77575041248702 85.71649590528985 -1.0177431088558988
    vertex 11.77575065489667 92.99468509017896 -1.016670773367954
    vertex 16.77575037691099 62.52543710304283 -1.0192621713574526
  endloop
endfacet
facet normal 6.389630549634343e-05 -5.9026722281045236e-05 0.9999999962165542
  outer loop
    vertex 46.78164391118612 92.99921048208472 -1.0211358169530373
    vertex 19.054880611287377 87.99562605897508 -1.0175992351066336
    vertex 39.4998707898144 87.9982690870674 -1.0204163781984879
  endloop
endfacet
facet normal 6.389630549634343e-05 -5.9026722281045236e-05 0.9999999962165542
  outer loop
    vertex 46.78164391118612 92.99921048208472 -1.0211358169530373
    vertex 39.4998707898144 87.9982690870674 -1.0204163781984879
    vertex 41.78164391645756 85.71649590528985 -1.0209062207854618
  endloop
endfacet
facet normal 6.389630549634343e-05 -5.9026722281045236e-05 0.9999999962165542
  outer loop
    vertex 46.78164391118612 92.99921048208472 -1.0211358169530373
    vertex 41.78164391645756 85.71649590528985 -1.0209062207854618
    vertex 41.78164391646601 63.2463068556428 -1.0208700959569745
  endloop
endfacet
facet normal 6.389630549634343e-05 -5.9026722281045236e-05 0.9999999962165542
  outer loop
    vertex 46.78164391118612 92.99921048208472 -1.0211358169530373
    vertex 41.78164391646601 63.2463068556428 -1.0208700959569745
    vertex 46.78164391118612 55.24630812527326 -1.0211358169530373
  endloop
endfacet
facet normal -6.110766416889695e-05 -0.9999999964238275 -5.8465361804059264e-05
  outer loop
    vertex 46.78163459378719 49.99999708393351 11.484717082397749
    vertex 11.784875300155575 50.001150327234846 -2.795518285338268
    vertex 46.78198296437157 50.0001480903331 -2.8000351959907723
  endloop
endfacet
facet normal -6.110766416889695e-05 -0.9999999964238275 -5.8465361804059264e-05
  outer loop
    vertex 11.784875300155575 50.001150327234846 -2.795518285338268
    vertex 46.78163459378719 49.99999708393351 11.484717082397749
    vertex 30.834550270615097 50.000000000000036 5.689968042265593
  endloop
endfacet
facet normal -6.110766416889695e-05 -0.9999999964238275 -5.8465361804059264e-05
  outer loop
    vertex 11.784875300155575 50.001150327234846 -2.795518285338268
    vertex 30.834550270615097 50.000000000000036 5.689968042265593
    vertex 29.28163599999996 50.000000000000036 5.485523000000002
  endloop
endfacet
facet normal -6.110766416889695e-05 -0.9999999964238275 -5.8465361804059264e-05
  outer loop
    vertex 30.834550270615097 50.000000000000036 5.689968042265593
    vertex 46.78163459378719 49.99999708393351 11.484717082397749
    vertex 32.281635999999956 50.000000000000036 6.289370577293374
  endloop
endfacet
facet normal -6.110766416889695e-05 -0.9999999964238275 -5.8465361804059264e-05
  outer loop
    vertex 32.281635999999956 50.000000000000036 6.289370577293374
    vertex 46.78163459378719 49.99999708393351 11.484717082397749
    vertex 33.524276687119254 50.000000000000036 7.2428823128807185
  endloop
endfacet
facet normal -6.110766416889695e-05 -0.9999999964238275 -5.8465361804059264e-05
  outer loop
    vertex 33.524276687119254 50.000000000000036 7.2428823128807185
    vertex 46.78163459378719 49.99999708393351 11.484717082397749
    vertex 34.47778842270661 50.000000000000036 8.485523000000002
  endloop
endfacet
facet normal -6.110766416889695e-05 -0.9999999964238275 -5.8465361804059264e-05
  outer loop
    vertex 34.47778842270661 50.000000000000036 8.485523000000002
    vertex 46.78163459378719 49.99999708393351 11.484717082397749
    vertex 35.07719095773437 50.000000000000036 9.932608729384885
  endloop
endfacet
facet normal -6.110766416889695e-05 -0.9999999964238275 -5.8465361804059264e-05
  outer loop
    vertex 35.07719095773437 50.000000000000036 9.932608729384885
    vertex 46.78163459378719 49.99999708393351 11.484717082397749
    vertex 35.28163599999997 50.00000000000001 11.48552300000001
  endloop
endfacet
facet normal -6.110766416889695e-05 -0.9999999964238275 -5.8465361804059264e-05
  outer loop
    vertex 11.784875300155575 50.001150327234846 -2.795518285338268
    vertex 27.728721729384848 50.000000000000036 5.689968042265593
    vertex 11.758986481043555 50.00257679636653 11.476217434240175
  endloop
endfacet
facet normal -6.110766416889695e-05 -0.9999999964238275 -5.8465361804059264e-05
  outer loop
    vertex 27.728721729384848 50.000000000000036 5.689968042265593
    vertex 11.784875300155575 50.001150327234846 -2.795518285338268
    vertex 29.28163599999996 50.000000000000036 5.485523000000002
  endloop
endfacet
facet normal -6.110766416889695e-05 -0.9999999964238275 -5.8465361804059264e-05
  outer loop
    vertex 11.758986481043555 50.00257679636653 11.476217434240175
    vertex 27.728721729384848 50.000000000000036 5.689968042265593
    vertex 26.281635999999967 50.000000000000036 6.289370577293374
  endloop
endfacet
facet normal -6.110766416889695e-05 -0.9999999964238275 -5.8465361804059264e-05
  outer loop
    vertex 11.758986481043555 50.00257679636653 11.476217434240175
    vertex 26.281635999999967 50.000000000000036 6.289370577293374
    vertex 25.038995312880687 50.000000000000036 7.2428823128807185
  endloop
endfacet
facet normal -6.110766416889695e-05 -0.9999999964238275 -5.8465361804059264e-05
  outer loop
    vertex 11.758986481043555 50.00257679636653 11.476217434240175
    vertex 25.038995312880687 50.000000000000036 7.2428823128807185
    vertex 24.085483577293335 50.000000000000036 8.485523000000002
  endloop
endfacet
facet normal -6.110766416889695e-05 -0.9999999964238275 -5.8465361804059264e-05
  outer loop
    vertex 11.758986481043555 50.00257679636653 11.476217434240175
    vertex 24.085483577293335 50.000000000000036 8.485523000000002
    vertex 23.48608104226555 50.000000000000036 9.932608729384885
  endloop
endfacet
facet normal -6.110766416889695e-05 -0.9999999964238275 -5.8465361804059264e-05
  outer loop
    vertex 11.758986481043555 50.00257679636653 11.476217434240175
    vertex 23.48608104226555 50.000000000000036 9.932608729384885
    vertex 23.28163599999997 50.000000000000036 11.48552300000001
  endloop
endfacet
facet normal -0.00016784958257392806 -7.45101889733615e-05 -0.9999999831373746
  outer loop
    vertex 11.781973446525198 104.25013833684834 -2.799621706594632
    vertex 16.775583179826132 85.71656077092706 -2.795357511394782
    vertex 11.784875300155575 50.001150327234846 -2.795518285338268
  endloop
endfacet
facet normal -0.00016784958257392806 -7.45101889733615e-05 -0.9999999831373746
  outer loop
    vertex 16.775583179826132 85.71656077092706 -2.795357511394782
    vertex 11.781973446525198 104.25013833684834 -2.799621706594632
    vertex 19.054713378626488 87.99569092461229 -2.795213637645517
  endloop
endfacet
facet normal -0.00016784958257392806 -7.45101889733615e-05 -0.9999999831373746
  outer loop
    vertex 19.054713378626488 87.99569092461229 -2.795213637645517
    vertex 11.781973446525198 104.25013833684834 -2.799621706594632
    vertex 46.781965807029906 104.25015017718415 -2.800063260396394
  endloop
endfacet
facet normal -0.00016784958257392806 -7.45101889733615e-05 -0.9999999831373746
  outer loop
    vertex 11.784875300155575 50.001150327234846 -2.795518285338268
    vertex 16.775583179826132 85.71656077092706 -2.795357511394782
    vertex 16.775583144250103 62.52550196868005 -2.796876573896336
  endloop
endfacet
facet normal -0.00016784958257392806 -7.45101889733615e-05 -0.9999999831373746
  outer loop
    vertex 19.054713378626488 87.99569092461229 -2.795213637645517
    vertex 46.781965807029906 104.25015017718415 -2.800063260396394
    vertex 39.49970355715352 87.99833395270461 -2.798030780737371
  endloop
endfacet
facet normal -0.00016784958257392806 -7.45101889733615e-05 -0.9999999831373746
  outer loop
    vertex 39.49970355715352 87.99833395270461 -2.798030780737371
    vertex 46.781965807029906 104.25015017718415 -2.800063260396394
    vertex 41.78147668379669 85.71656077092706 -2.798520623324345
  endloop
endfacet
facet normal -0.00016784958257392806 -7.45101889733615e-05 -0.9999999831373746
  outer loop
    vertex 41.78147668379669 85.71656077092706 -2.798520623324345
    vertex 46.781965807029906 104.25015017718415 -2.800063260396394
    vertex 41.78147668380513 63.24637172128001 -2.798484498495858
  endloop
endfacet
facet normal -0.00016784958257392806 -7.45101889733615e-05 -0.9999999831373746
  outer loop
    vertex 11.784875300155575 50.001150327234846 -2.795518285338268
    vertex 19.054713378626488 60.246371725046956 -2.7971826807576186
    vertex 46.78198296437157 50.0001480903331 -2.8000351959907723
  endloop
endfacet
facet normal -0.00016784958257392806 -7.45101889733615e-05 -0.9999999831373746
  outer loop
    vertex 19.054713378626488 60.246371725046956 -2.7971826807576186
    vertex 11.784875300155575 50.001150327234846 -2.795518285338268
    vertex 16.775583144250103 62.52550196868005 -2.796876573896336
  endloop
endfacet
facet normal -0.00016784958257392806 -7.45101889733615e-05 -0.9999999831373746
  outer loop
    vertex 46.78198296437157 50.0001480903331 -2.8000351959907723
    vertex 19.054713378626488 60.246371725046956 -2.7971826807576186
    vertex 39.660740688099196 60.246371725046956 -2.798499329778632
  endloop
endfacet
facet normal -0.00016784958257392806 -7.45101889733615e-05 -0.9999999831373746
  outer loop
    vertex 46.78198296437157 50.0001480903331 -2.8000351959907723
    vertex 39.660740688099196 60.246371725046956 -2.798499329778632
    vertex 41.78147668379669 62.52550196868005 -2.798520623332907
  endloop
endfacet
facet normal -0.00016784958257392806 -7.45101889733615e-05 -0.9999999831373746
  outer loop
    vertex 46.78198296437157 50.0001480903331 -2.8000351959907723
    vertex 41.78147668379669 62.52550196868005 -2.798520623332907
    vertex 41.78147668380513 63.24637172128001 -2.798484498495858
  endloop
endfacet
facet normal -0.00016784958257392806 -7.45101889733615e-05 -0.9999999831373746
  outer loop
    vertex 46.78198296437157 50.0001480903331 -2.8000351959907723
    vertex 41.78147668380513 63.24637172128001 -2.798484498495858
    vertex 46.781965807029906 104.25015017718415 -2.800063260396394
  endloop
endfacet
facet normal -0.9999999955747575 1.5086980854245314e-10 9.40770168819013e-05
  outer loop
    vertex 41.78164391645756 85.71649590528985 -1.0209062207854618
    vertex 41.78147668380513 63.24637172128001 -2.798484498495858
    vertex 41.78164391646601 63.2463068556428 -1.0208700959569745
  endloop
endfacet
facet normal -0.9999999955747575 1.5086980854245314e-10 9.40770168819013e-05
  outer loop
    vertex 41.78147668380513 63.24637172128001 -2.798484498495858
    vertex 41.78164391645756 85.71649590528985 -1.0209062207854618
    vertex 41.78147668379669 85.71656077092706 -2.798520623324345
  endloop
endfacet
facet normal -0.7071067847724039 -0.7071067764282258 4.071997696311253e-05
  outer loop
    vertex 39.4998707898144 87.9982690870674 -1.0204163781984879
    vertex 41.78147668379669 85.71656077092706 -2.798520623324345
    vertex 41.78164391645756 85.71649590528985 -1.0209062207854618
  endloop
endfacet
facet normal -0.7071067847724039 -0.7071067764282258 4.071997696311253e-05
  outer loop
    vertex 41.78147668379669 85.71656077092706 -2.798520623324345
    vertex 39.4998707898144 87.9982690870674 -1.0204163781984879
    vertex 39.49970355715352 87.99833395270461 -2.798030780737371
  endloop
endfacet
facet normal 0.00012927006630102274 -0.9999999909784111 -3.650243534765208e-05
  outer loop
    vertex 39.4998707898144 87.9982690870674 -1.0204163781984879
    vertex 19.054713378626488 87.99569092461229 -2.795213637645517
    vertex 39.49970355715352 87.99833395270461 -2.798030780737371
  endloop
endfacet
facet normal 0.00012927006630102274 -0.9999999909784111 -3.650243534765208e-05
  outer loop
    vertex 19.054713378626488 87.99569092461229 -2.795213637645517
    vertex 39.4998707898144 87.9982690870674 -1.0204163781984879
    vertex 19.054880611287377 87.99562605897508 -1.0175992351066336
  endloop
endfacet
facet normal 0.707106774088422 -0.7071067822573593 -9.23250166821285e-05
  outer loop
    vertex 19.054713378626488 87.99569092461229 -2.795213637645517
    vertex 16.77575041248702 85.71649590528985 -1.0177431088558988
    vertex 16.775583179826132 85.71656077092706 -2.795357511394782
  endloop
endfacet
facet normal 0.707106774088422 -0.7071067822573593 -9.23250166821285e-05
  outer loop
    vertex 16.77575041248702 85.71649590528985 -1.0177431088558988
    vertex 19.054713378626488 87.99569092461229 -2.795213637645517
    vertex 19.054880611287377 87.99562605897508 -1.0175992351066336
  endloop
endfacet
facet normal 0.9999999955747576 4.628199195186921e-09 -9.407701670751179e-05
  outer loop
    vertex 16.775583144250103 62.52550196868005 -2.796876573896336
    vertex 16.77575041248702 85.71649590528985 -1.0177431088558988
    vertex 16.77575037691099 62.52543710304283 -1.0192621713574526
  endloop
endfacet
facet normal 0.9999999955747576 4.628199195186921e-09 -9.407701670751179e-05
  outer loop
    vertex 16.77575041248702 85.71649590528985 -1.0177431088558988
    vertex 16.775583144250103 62.52550196868005 -2.796876573896336
    vertex 16.775583179826132 85.71656077092706 -2.795357511394782
  endloop
endfacet
facet normal 0.7071067793017533 0.7071067818988765 -4.071997624882451e-05
  outer loop
    vertex 16.775583144250103 62.52550196868005 -2.796876573896336
    vertex 19.054880611287377 60.24630685940974 -1.0195682782187354
    vertex 19.054713378626488 60.246371725046956 -2.7971826807576186
  endloop
endfacet
facet normal 0.7071067793017533 0.7071067818988765 -4.071997624882451e-05
  outer loop
    vertex 19.054880611287377 60.24630685940974 -1.0195682782187354
    vertex 16.775583144250103 62.52550196868005 -2.796876573896336
    vertex 16.77575037691099 62.52543710304283 -1.0192621713574526
  endloop
endfacet
facet normal 2.3315937097814705e-09 0.9999999993342301 3.649027409094599e-05
  outer loop
    vertex 19.054713378626488 60.246371725046956 -2.7971826807576186
    vertex 39.66090792076007 60.24630685940974 -1.0208849272397487
    vertex 39.660740688099196 60.246371725046956 -2.798499329778632
  endloop
endfacet
facet normal 2.3315937097814705e-09 0.9999999993342301 3.649027409094599e-05
  outer loop
    vertex 39.66090792076007 60.24630685940974 -1.0208849272397487
    vertex 19.054713378626488 60.246371725046956 -2.7971826807576186
    vertex 19.054880611287377 60.24630685940974 -1.0195682782187354
  endloop
endfacet
facet normal -0.7320882371528059 0.6812098092637429 9.373021056586121e-05
  outer loop
    vertex 41.78164391645756 62.52543710304283 -1.0209062207940236
    vertex 39.660740688099196 60.246371725046956 -2.798499329778632
    vertex 39.66090792076007 60.24630685940974 -1.0208849272397487
  endloop
endfacet
facet normal -0.7320882371528059 0.6812098092637429 9.373021056586121e-05
  outer loop
    vertex 39.660740688099196 60.246371725046956 -2.798499329778632
    vertex 41.78164391645756 62.52543710304283 -1.0209062207940236
    vertex 41.78147668379669 62.52550196868005 -2.798520623332907
  endloop
endfacet
facet normal -0.9999999955747576 -4.702755118624069e-09 9.407701670479121e-05
  outer loop
    vertex 41.78164391646601 63.2463068556428 -1.0208700959569745
    vertex 41.78147668379669 62.52550196868005 -2.798520623332907
    vertex 41.78164391645756 62.52543710304283 -1.0209062207940236
  endloop
endfacet
facet normal -0.9999999955747576 -4.702755118624069e-09 9.407701670479121e-05
  outer loop
    vertex 41.78147668379669 62.52550196868005 -2.798520623332907
    vertex 41.78164391646601 63.2463068556428 -1.0208700959569745
    vertex 41.78147668380513 63.24637172128001 -2.798484498495858
  endloop
endfacet
endsolid Cменные-e3d_v5-2-половинка
