solid Уголок-12х12
facet normal 1.0 0.0 2.498001805406602e-16
  outer loop
    vertex 0.0 0.0 0.0
    vertex 1.3218592886943268e-16 2.0000000000000004 1.9999999999999996
    vertex -2.8199664825478975e-15 0.0 11.999999999999996
  endloop
endfacet
facet normal 1.0 0.0 2.498001805406602e-16
  outer loop
    vertex 1.3218592886943268e-16 2.0000000000000004 1.9999999999999996
    vertex 0.0 0.0 0.0
    vertex 0.0 12.0 0.0
  endloop
endfacet
facet normal 1.0 0.0 2.498001805406602e-16
  outer loop
    vertex -2.8199664825478975e-15 0.0 11.999999999999996
    vertex 1.3218592886943268e-16 2.0000000000000004 1.9999999999999996
    vertex -2.8199664825478975e-15 2.0 11.999999999999996
  endloop
endfacet
facet normal 1.0 0.0 2.498001805406602e-16
  outer loop
    vertex 1.3218592886943268e-16 2.0000000000000004 1.9999999999999996
    vertex 0.0 12.0 0.0
    vertex 1.3218592886943268e-16 12.0 1.9999999999999996
  endloop
endfacet
facet normal -1.0 0.0 -2.498001805406602e-16
  outer loop
    vertex -239.99999999999991 2.0 11.999999999999945
    vertex -240.0 0.0 -6.528111384795921e-15
    vertex -239.99999999999991 0.0 11.999999999999945
  endloop
endfacet
facet normal -1.0 0.0 -2.498001805406602e-16
  outer loop
    vertex -240.0 0.0 -6.528111384795921e-15
    vertex -239.99999999999991 2.0 11.999999999999945
    vertex -240.0 2.0000000000000004 1.9999999999999563
  endloop
endfacet
facet normal -1.0 0.0 -2.498001805406602e-16
  outer loop
    vertex -240.0 0.0 -6.528111384795921e-15
    vertex -240.0 2.0000000000000004 1.9999999999999563
    vertex -240.0 12.0 -6.528111384795921e-15
  endloop
endfacet
facet normal -1.0 0.0 -2.498001805406602e-16
  outer loop
    vertex -240.0 12.0 -6.528111384795921e-15
    vertex -240.0 2.0000000000000004 1.9999999999999563
    vertex -240.0 12.0 1.9999999999999563
  endloop
endfacet
facet normal 0.0 1.0 0.0
  outer loop
    vertex -240.0 12.0 1.9999999999999563
    vertex 0.0 12.0 0.0
    vertex -240.0 12.0 -6.528111384795921e-15
  endloop
endfacet
facet normal 0.0 1.0 0.0
  outer loop
    vertex 0.0 12.0 0.0
    vertex -240.0 12.0 1.9999999999999563
    vertex 1.3218592886943268e-16 12.0 1.9999999999999996
  endloop
endfacet
facet normal -2.498001805406602e-16 0.0 1.0
  outer loop
    vertex 1.3218592886943268e-16 2.0000000000000004 1.9999999999999996
    vertex -240.0 12.0 1.9999999999999563
    vertex -240.0 2.0000000000000004 1.9999999999999563
  endloop
endfacet
facet normal -2.498001805406602e-16 0.0 1.0
  outer loop
    vertex -240.0 12.0 1.9999999999999563
    vertex 1.3218592886943268e-16 2.0000000000000004 1.9999999999999996
    vertex 1.3218592886943268e-16 12.0 1.9999999999999996
  endloop
endfacet
facet normal 3.851859888774472e-33 1.0 3.52495810318487e-17
  outer loop
    vertex -239.99999999999991 2.0 11.999999999999945
    vertex 1.3218592886943268e-16 2.0000000000000004 1.9999999999999996
    vertex -240.0 2.0000000000000004 1.9999999999999563
  endloop
endfacet
facet normal 3.851859888774472e-33 1.0 3.52495810318487e-17
  outer loop
    vertex 1.3218592886943268e-16 2.0000000000000004 1.9999999999999996
    vertex -239.99999999999991 2.0 11.999999999999945
    vertex -2.8199664825478975e-15 2.0 11.999999999999996
  endloop
endfacet
facet normal -2.498001805406602e-16 0.0 1.0
  outer loop
    vertex -2.8199664825478975e-15 0.0 11.999999999999996
    vertex -239.99999999999991 2.0 11.999999999999945
    vertex -239.99999999999991 0.0 11.999999999999945
  endloop
endfacet
facet normal -2.498001805406602e-16 0.0 1.0
  outer loop
    vertex -239.99999999999991 2.0 11.999999999999945
    vertex -2.8199664825478975e-15 0.0 11.999999999999996
    vertex -2.8199664825478975e-15 2.0 11.999999999999996
  endloop
endfacet
facet normal 0.0 -1.0 0.0
  outer loop
    vertex 0.0 0.0 0.0
    vertex -239.99999999999991 0.0 11.999999999999945
    vertex -240.0 0.0 -6.528111384795921e-15
  endloop
endfacet
facet normal 0.0 -1.0 0.0
  outer loop
    vertex -239.99999999999991 0.0 11.999999999999945
    vertex 0.0 0.0 0.0
    vertex -2.8199664825478975e-15 0.0 11.999999999999996
  endloop
endfacet
facet normal 2.498001805406602e-16 0.0 -1.0
  outer loop
    vertex 0.0 12.0 0.0
    vertex -240.0 0.0 -6.528111384795921e-15
    vertex -240.0 12.0 -6.528111384795921e-15
  endloop
endfacet
facet normal 2.498001805406602e-16 0.0 -1.0
  outer loop
    vertex -240.0 0.0 -6.528111384795921e-15
    vertex 0.0 12.0 0.0
    vertex 0.0 0.0 0.0
  endloop
endfacet
endsolid Уголок-12х12
