solid Уголок-17х17
facet normal 0.0 1.0 0.0
  outer loop
    vertex -240.00000000000006 17.0 2.255973186038318e-14
    vertex 1.762479051592436e-16 17.0 1.9999999999999996
    vertex 0.0 17.0 0.0
  endloop
endfacet
facet normal 0.0 1.0 0.0
  outer loop
    vertex 1.762479051592436e-16 17.0 1.9999999999999996
    vertex -240.00000000000006 17.0 2.255973186038318e-14
    vertex -240.0 17.0 2.0000000000000075
  endloop
endfacet
facet normal 8.326672684688674e-17 0.0 1.0
  outer loop
    vertex 1.762479051592436e-16 1.9999999999999991 1.9999999999999996
    vertex -240.0 17.0 2.0000000000000075
    vertex -240.0 1.9999999999999991 2.0000000000000075
  endloop
endfacet
facet normal 8.326672684688674e-17 0.0 1.0
  outer loop
    vertex -240.0 17.0 2.0000000000000075
    vertex 1.762479051592436e-16 1.9999999999999991 1.9999999999999996
    vertex 1.762479051592436e-16 17.0 1.9999999999999996
  endloop
endfacet
facet normal 0.0 1.0 0.0
  outer loop
    vertex -240.0 1.9999999999999991 2.0000000000000075
    vertex 0.0 1.9999999999999991 17.0
    vertex 1.762479051592436e-16 1.9999999999999991 1.9999999999999996
  endloop
endfacet
facet normal 0.0 1.0 0.0
  outer loop
    vertex 0.0 1.9999999999999991 17.0
    vertex -240.0 1.9999999999999991 2.0000000000000075
    vertex -239.99999999999997 1.9999999999999991 16.999999999999993
  endloop
endfacet
facet normal 0.0 -1.0 0.0
  outer loop
    vertex 0.0 0.0 17.0
    vertex -240.00000000000006 0.0 2.255973186038318e-14
    vertex 0.0 0.0 0.0
  endloop
endfacet
facet normal 0.0 -1.0 0.0
  outer loop
    vertex -240.00000000000006 0.0 2.255973186038318e-14
    vertex 0.0 0.0 17.0
    vertex -239.99999999999997 0.0 16.999999999999993
  endloop
endfacet
facet normal 1.0 0.0 -8.326672684688674e-17
  outer loop
    vertex 0.0 0.0 0.0
    vertex 1.762479051592436e-16 1.9999999999999991 1.9999999999999996
    vertex 0.0 0.0 17.0
  endloop
endfacet
facet normal 1.0 0.0 -8.326672684688674e-17
  outer loop
    vertex 1.762479051592436e-16 1.9999999999999991 1.9999999999999996
    vertex 0.0 0.0 0.0
    vertex 0.0 17.0 0.0
  endloop
endfacet
facet normal 1.0 0.0 -8.326672684688674e-17
  outer loop
    vertex 1.762479051592436e-16 1.9999999999999991 1.9999999999999996
    vertex 0.0 17.0 0.0
    vertex 1.762479051592436e-16 17.0 1.9999999999999996
  endloop
endfacet
facet normal 1.0 0.0 -8.326672684688674e-17
  outer loop
    vertex 0.0 1.9999999999999991 17.0
    vertex 0.0 0.0 17.0
    vertex 1.762479051592436e-16 1.9999999999999991 1.9999999999999996
  endloop
endfacet
facet normal 8.326672684688674e-17 0.0 1.0
  outer loop
    vertex 0.0 0.0 17.0
    vertex -239.99999999999997 1.9999999999999991 16.999999999999993
    vertex -239.99999999999997 0.0 16.999999999999993
  endloop
endfacet
facet normal 8.326672684688674e-17 0.0 1.0
  outer loop
    vertex -239.99999999999997 1.9999999999999991 16.999999999999993
    vertex 0.0 0.0 17.0
    vertex 0.0 1.9999999999999991 17.0
  endloop
endfacet
facet normal -8.326672684688674e-17 0.0 -1.0
  outer loop
    vertex 0.0 17.0 0.0
    vertex -240.00000000000006 0.0 2.255973186038318e-14
    vertex -240.00000000000006 17.0 2.255973186038318e-14
  endloop
endfacet
facet normal -8.326672684688674e-17 0.0 -1.0
  outer loop
    vertex -240.00000000000006 0.0 2.255973186038318e-14
    vertex 0.0 17.0 0.0
    vertex 0.0 0.0 0.0
  endloop
endfacet
facet normal -1.0 0.0 8.326672684688674e-17
  outer loop
    vertex -239.99999999999997 1.9999999999999991 16.999999999999993
    vertex -240.00000000000006 0.0 2.255973186038318e-14
    vertex -239.99999999999997 0.0 16.999999999999993
  endloop
endfacet
facet normal -1.0 0.0 8.326672684688674e-17
  outer loop
    vertex -240.00000000000006 0.0 2.255973186038318e-14
    vertex -239.99999999999997 1.9999999999999991 16.999999999999993
    vertex -240.0 1.9999999999999991 2.0000000000000075
  endloop
endfacet
facet normal -1.0 0.0 8.326672684688674e-17
  outer loop
    vertex -240.00000000000006 0.0 2.255973186038318e-14
    vertex -240.0 1.9999999999999991 2.0000000000000075
    vertex -240.00000000000006 17.0 2.255973186038318e-14
  endloop
endfacet
facet normal -1.0 0.0 8.326672684688674e-17
  outer loop
    vertex -240.00000000000006 17.0 2.255973186038318e-14
    vertex -240.0 1.9999999999999991 2.0000000000000075
    vertex -240.0 17.0 2.0000000000000075
  endloop
endfacet
endsolid Уголок-17х17
