solid Нижний Уголок-С-подшипником
facet normal -0.13052619222004921 0.9914448613738107 1.480835765562853e-16
  outer loop
    vertex -11.12663675664651 -44.063320093325935 10.50000000000004
    vertex -9.056084395826351 -43.79072670363849 3.9422367394446117e-14
    vertex -11.126636756646516 -44.06332009332594 3.894550442939442e-14
  endloop
endfacet
facet normal -0.13052619222004921 0.9914448613738107 1.480835765562853e-16
  outer loop
    vertex -9.056084395826351 -43.79072670363849 3.9422367394446117e-14
    vertex -11.12663675664651 -44.063320093325935 10.50000000000004
    vertex -9.056084395826346 -43.790726703638484 10.50000000000004
  endloop
endfacet
facet normal 0.13052619222005155 0.9914448613738106 2.0213566807996926e-16
  outer loop
    vertex -13.19718911746668 -43.790726703638484 10.50000000000004
    vertex -11.126636756646516 -44.06332009332594 3.894550442939442e-14
    vertex -13.197189117466685 -43.790726703638484 3.85649327002435e-14
  endloop
endfacet
facet normal 0.13052619222005155 0.9914448613738106 2.0213566807996926e-16
  outer loop
    vertex -11.126636756646516 -44.06332009332594 3.894550442939442e-14
    vertex -13.19718911746668 -43.790726703638484 10.50000000000004
    vertex -11.12663675664651 -44.063320093325935 10.50000000000004
  endloop
endfacet
facet normal 0.3826834323650917 0.9238795325112859 2.4241254786898975e-16
  outer loop
    vertex -15.12663675664651 -42.99152332360144 10.50000000000004
    vertex -13.197189117466685 -43.790726703638484 3.85649327002435e-14
    vertex -15.126636756646516 -42.99152332360145 3.830658754141049e-14
  endloop
endfacet
facet normal 0.3826834323650917 0.9238795325112859 2.4241254786898975e-16
  outer loop
    vertex -13.197189117466685 -43.790726703638484 3.85649327002435e-14
    vertex -15.12663675664651 -42.99152332360144 10.50000000000004
    vertex -13.19718911746668 -43.790726703638484 10.50000000000004
  endloop
endfacet
facet normal 0.6087614290087213 0.7933533402912347 2.6616941312641487e-16
  outer loop
    vertex -16.78349100613889 -41.72017434281831 10.50000000000004
    vertex -15.126636756646516 -42.99152332360145 3.830658754141049e-14
    vertex -16.783491006138895 -41.72017434281832 3.818807474853431e-14
  endloop
endfacet
facet normal 0.6087614290087213 0.7933533402912347 2.6616941312641487e-16
  outer loop
    vertex -15.126636756646516 -42.99152332360145 3.830658754141049e-14
    vertex -16.78349100613889 -41.72017434281831 10.50000000000004
    vertex -15.12663675664651 -42.99152332360144 10.50000000000004
  endloop
endfacet
facet normal 0.7933533402912359 0.6087614290087197 2.7178727274502766e-16
  outer loop
    vertex -18.05483998692202 -40.063320093325935 3.821747077259781e-14
    vertex -16.78349100613889 -41.72017434281831 10.50000000000004
    vertex -16.783491006138895 -41.72017434281832 3.818807474853431e-14
  endloop
endfacet
facet normal 0.7933533402912359 0.6087614290087197 2.7178727274502766e-16
  outer loop
    vertex -16.78349100613889 -41.72017434281831 10.50000000000004
    vertex -18.05483998692202 -40.063320093325935 3.821747077259781e-14
    vertex -18.054839986922012 -40.063320093325935 10.50000000000004
  endloop
endfacet
facet normal 0.9238795325112871 0.38268343236508895 2.5888327887577157e-16
  outer loop
    vertex -18.854043366959054 -38.1338724541461 3.8392772323140285e-14
    vertex -18.054839986922012 -40.063320093325935 10.50000000000004
    vertex -18.05483998692202 -40.063320093325935 3.821747077259781e-14
  endloop
endfacet
facet normal 0.9238795325112871 0.38268343236508895 2.5888327887577157e-16
  outer loop
    vertex -18.054839986922012 -40.063320093325935 10.50000000000004
    vertex -18.854043366959054 -38.1338724541461 3.8392772323140285e-14
    vertex -18.854043366959047 -38.1338724541461 10.50000000000004
  endloop
endfacet
facet normal 0.9914448613738104 0.1305261922200518 2.283368173759784e-16
  outer loop
    vertex -19.12663675664651 -36.06332009332594 3.870203288919178e-14
    vertex -18.854043366959047 -38.1338724541461 10.50000000000004
    vertex -18.854043366959054 -38.1338724541461 3.8392772323140285e-14
  endloop
endfacet
facet normal 0.9914448613738104 0.1305261922200518 2.283368173759784e-16
  outer loop
    vertex -18.854043366959047 -38.1338724541461 10.50000000000004
    vertex -19.12663675664651 -36.06332009332594 3.870203288919178e-14
    vertex -19.1266367566465 -36.063320093325935 10.50000000000004
  endloop
endfacet
facet normal 0.9914448613738104 -0.13052619222005316 1.8222957911644404e-16
  outer loop
    vertex -18.85404336695905 -33.992767732505776 3.912417687425313e-14
    vertex -19.1266367566465 -36.063320093325935 10.50000000000004
    vertex -19.12663675664651 -36.06332009332594 3.870203288919178e-14
  endloop
endfacet
facet normal 0.9914448613738104 -0.13052619222005316 1.8222957911644404e-16
  outer loop
    vertex -19.1266367566465 -36.063320093325935 10.50000000000004
    vertex -18.85404336695905 -33.992767732505776 3.912417687425313e-14
    vertex -18.854043366959047 -33.99276773250577 10.50000000000004
  endloop
endfacet
facet normal 0.9238795325112871 -0.3826834323650892 1.2370369618874305e-16
  outer loop
    vertex -18.054839986922012 -32.063320093325935 3.963043586336833e-14
    vertex -18.854043366959047 -33.99276773250577 10.50000000000004
    vertex -18.85404336695905 -33.992767732505776 3.912417687425313e-14
  endloop
endfacet
facet normal 0.9238795325112871 -0.3826834323650892 1.2370369618874305e-16
  outer loop
    vertex -18.854043366959047 -33.99276773250577 10.50000000000004
    vertex -18.054839986922012 -32.063320093325935 3.963043586336833e-14
    vertex -18.05483998692201 -32.06332009332593 10.50000000000004
  endloop
endfacet
facet normal 0.7933533402912337 -0.6087614290087227 5.674761079580172e-17
  outer loop
    vertex -16.783491006138885 -30.406465843833562 4.018630914306172e-14
    vertex -18.05483998692201 -32.06332009332593 10.50000000000004
    vertex -18.054839986922012 -32.063320093325935 3.963043586336833e-14
  endloop
endfacet
facet normal 0.7933533402912337 -0.6087614290087227 5.674761079580172e-17
  outer loop
    vertex -18.05483998692201 -32.06332009332593 10.50000000000004
    vertex -16.783491006138885 -30.406465843833562 4.018630914306172e-14
    vertex -16.783491006138878 -30.406465843833555 10.50000000000004
  endloop
endfacet
facet normal 0.6087614290087207 -0.793353340291235 -1.407573049301116e-17
  outer loop
    vertex -15.126636756646501 -29.13511686305043 4.075391486794622e-14
    vertex -16.783491006138878 -30.406465843833555 10.50000000000004
    vertex -16.783491006138885 -30.406465843833562 4.018630914306172e-14
  endloop
endfacet
facet normal 0.6087614290087207 -0.793353340291235 -1.407573049301116e-17
  outer loop
    vertex -16.783491006138878 -30.406465843833555 10.50000000000004
    vertex -15.126636756646501 -29.13511686305043 4.075391486794622e-14
    vertex -15.126636756646496 -29.135116863050424 10.50000000000004
  endloop
endfacet
facet normal 0.38268343236508895 -0.9238795325112871 -8.393983400997068e-17
  outer loop
    vertex -13.19718911746667 -28.335913483013396 4.129457164588376e-14
    vertex -15.126636756646496 -29.135116863050424 10.50000000000004
    vertex -15.126636756646501 -29.13511686305043 4.075391486794622e-14
  endloop
endfacet
facet normal 0.38268343236508895 -0.9238795325112871 -8.393983400997068e-17
  outer loop
    vertex -15.126636756646496 -29.135116863050424 10.50000000000004
    vertex -13.19718911746667 -28.335913483013396 4.129457164588376e-14
    vertex -13.197189117466662 -28.33591348301339 10.50000000000004
  endloop
endfacet
facet normal 0.13052619222004916 -0.9914448613738108 -1.4808357655628533e-16
  outer loop
    vertex -11.126636756646503 -28.06332009332595 4.1771434610935463e-14
    vertex -13.197189117466662 -28.33591348301339 10.50000000000004
    vertex -13.19718911746667 -28.335913483013396 4.129457164588376e-14
  endloop
endfacet
facet normal 0.13052619222004916 -0.9914448613738108 -1.4808357655628533e-16
  outer loop
    vertex -13.197189117466662 -28.33591348301339 10.50000000000004
    vertex -11.126636756646503 -28.06332009332595 4.1771434610935463e-14
    vertex -11.126636756646498 -28.06332009332594 10.50000000000004
  endloop
endfacet
facet normal -0.1305261922200517 -0.9914448613738105 -2.0213566807996931e-16
  outer loop
    vertex -9.056084395826337 -28.335913483013403 4.215200634008638e-14
    vertex -11.126636756646498 -28.06332009332594 10.50000000000004
    vertex -11.126636756646503 -28.06332009332595 4.1771434610935463e-14
  endloop
endfacet
facet normal -0.1305261922200517 -0.9914448613738105 -2.0213566807996931e-16
  outer loop
    vertex -11.126636756646498 -28.06332009332594 10.50000000000004
    vertex -9.056084395826337 -28.335913483013403 4.215200634008638e-14
    vertex -9.05608439582633 -28.335913483013396 10.50000000000004
  endloop
endfacet
facet normal -0.38268343236509156 -0.9238795325112861 -2.4241254786898975e-16
  outer loop
    vertex -7.126636756646505 -29.135116863050442 4.241035149891938e-14
    vertex -9.05608439582633 -28.335913483013396 10.50000000000004
    vertex -9.056084395826337 -28.335913483013403 4.215200634008638e-14
  endloop
endfacet
facet normal -0.38268343236509156 -0.9238795325112861 -2.4241254786898975e-16
  outer loop
    vertex -9.05608439582633 -28.335913483013396 10.50000000000004
    vertex -7.126636756646505 -29.135116863050442 4.241035149891938e-14
    vertex -7.126636756646499 -29.13511686305044 10.50000000000004
  endloop
endfacet
facet normal -0.6087614290087194 -0.793353340291236 -2.6616941312641472e-16
  outer loop
    vertex -5.469782507154125 -30.406465843833566 4.2528864291795565e-14
    vertex -7.126636756646499 -29.13511686305044 10.50000000000004
    vertex -7.126636756646505 -29.135116863050442 4.241035149891938e-14
  endloop
endfacet
facet normal -0.6087614290087194 -0.793353340291236 -2.6616941312641472e-16
  outer loop
    vertex -7.126636756646499 -29.13511686305044 10.50000000000004
    vertex -5.469782507154125 -30.406465843833566 4.2528864291795565e-14
    vertex -5.469782507154128 -30.406465843833562 10.50000000000004
  endloop
endfacet
facet normal -0.7933533402912365 -0.608761429008719 -2.7178727274502766e-16
  outer loop
    vertex -4.198433526371001 -32.06332009332595 10.50000000000004
    vertex -5.469782507154125 -30.406465843833566 4.2528864291795565e-14
    vertex -4.198433526370998 -32.06332009332595 4.249946826773207e-14
  endloop
endfacet
facet normal -0.7933533402912365 -0.608761429008719 -2.7178727274502766e-16
  outer loop
    vertex -5.469782507154125 -30.406465843833566 4.2528864291795565e-14
    vertex -4.198433526371001 -32.06332009332595 10.50000000000004
    vertex -5.469782507154128 -30.406465843833562 10.50000000000004
  endloop
endfacet
facet normal -0.9238795325112871 -0.38268343236508895 -2.5888327887577157e-16
  outer loop
    vertex -3.399230146333966 -33.992767732505776 10.50000000000004
    vertex -4.198433526370998 -32.06332009332595 4.249946826773207e-14
    vertex -3.3992301463339634 -33.99276773250578 4.2324166717189595e-14
  endloop
endfacet
facet normal -0.9238795325112871 -0.38268343236508895 -2.5888327887577157e-16
  outer loop
    vertex -4.198433526370998 -32.06332009332595 4.249946826773207e-14
    vertex -3.399230146333966 -33.992767732505776 10.50000000000004
    vertex -4.198433526371001 -32.06332009332595 10.50000000000004
  endloop
endfacet
facet normal -0.9914448613738105 -0.13052619222005113 -2.283368173759783e-16
  outer loop
    vertex -3.1266367566465143 -36.06332009332594 10.50000000000004
    vertex -3.3992301463339634 -33.99276773250578 4.2324166717189595e-14
    vertex -3.1266367566465108 -36.06332009332595 4.20149061511381e-14
  endloop
endfacet
facet normal -0.9914448613738105 -0.13052619222005113 -2.283368173759783e-16
  outer loop
    vertex -3.3992301463339634 -33.99276773250578 4.2324166717189595e-14
    vertex -3.1266367566465143 -36.06332009332594 10.50000000000004
    vertex -3.399230146333966 -33.992767732505776 10.50000000000004
  endloop
endfacet
facet normal -0.9914448613738104 0.1305261922200528 -1.8222957911644414e-16
  outer loop
    vertex -3.3992301463339705 -38.133872454146115 10.50000000000004
    vertex -3.1266367566465108 -36.06332009332595 4.20149061511381e-14
    vertex -3.3992301463339674 -38.13387245414612 4.1592762166076744e-14
  endloop
endfacet
facet normal -0.9914448613738104 0.1305261922200528 -1.8222957911644414e-16
  outer loop
    vertex -3.1266367566465108 -36.06332009332595 4.20149061511381e-14
    vertex -3.3992301463339705 -38.133872454146115 10.50000000000004
    vertex -3.1266367566465143 -36.06332009332594 10.50000000000004
  endloop
endfacet
facet normal -0.9238795325112864 0.3826834323650908 -1.2370369618874268e-16
  outer loop
    vertex -4.1984335263710095 -40.06332009332595 10.50000000000004
    vertex -3.3992301463339674 -38.13387245414612 4.1592762166076744e-14
    vertex -4.198433526371007 -40.063320093325956 4.108650317696155e-14
  endloop
endfacet
facet normal -0.9238795325112864 0.3826834323650908 -1.2370369618874268e-16
  outer loop
    vertex -3.3992301463339674 -38.13387245414612 4.1592762166076744e-14
    vertex -4.1984335263710095 -40.06332009332595 10.50000000000004
    vertex -3.3992301463339705 -38.133872454146115 10.50000000000004
  endloop
endfacet
facet normal -0.7933533402912339 0.6087614290087222 -5.674761079580187e-17
  outer loop
    vertex -5.469782507154139 -41.720174342818325 10.50000000000004
    vertex -4.198433526371007 -40.063320093325956 4.108650317696155e-14
    vertex -5.469782507154136 -41.720174342818325 4.053062989726816e-14
  endloop
endfacet
facet normal -0.7933533402912339 0.6087614290087222 -5.674761079580187e-17
  outer loop
    vertex -4.198433526371007 -40.063320093325956 4.108650317696155e-14
    vertex -5.469782507154139 -41.720174342818325 10.50000000000004
    vertex -4.1984335263710095 -40.06332009332595 10.50000000000004
  endloop
endfacet
facet normal -0.6087614290087201 0.7933533402912358 1.4075730493011374e-17
  outer loop
    vertex -7.126636756646515 -42.99152332360145 10.50000000000004
    vertex -5.469782507154136 -41.720174342818325 4.053062989726816e-14
    vertex -7.12663675664652 -42.991523323601456 3.996302417238366e-14
  endloop
endfacet
facet normal -0.6087614290087201 0.7933533402912358 1.4075730493011374e-17
  outer loop
    vertex -5.469782507154136 -41.720174342818325 4.053062989726816e-14
    vertex -7.126636756646515 -42.99152332360145 10.50000000000004
    vertex -5.469782507154139 -41.720174342818325 10.50000000000004
  endloop
endfacet
facet normal -0.3826834323650892 0.923879532511287 8.393983400997063e-17
  outer loop
    vertex -9.056084395826346 -43.790726703638484 10.50000000000004
    vertex -7.12663675664652 -42.991523323601456 3.996302417238366e-14
    vertex -9.056084395826351 -43.79072670363849 3.9422367394446117e-14
  endloop
endfacet
facet normal -0.3826834323650892 0.923879532511287 8.393983400997063e-17
  outer loop
    vertex -7.12663675664652 -42.991523323601456 3.996302417238366e-14
    vertex -9.056084395826346 -43.790726703638484 10.50000000000004
    vertex -7.126636756646515 -42.99152332360145 10.50000000000004
  endloop
endfacet
facet normal 0.0 0.0 1.0
  outer loop
    vertex -21.96431410510219 -38.21906815160415 10.50000000000004
    vertex -21.964314105102186 -33.907572035047714 10.50000000000004
    vertex -22.17663675664649 -36.063320093325935 10.50000000000004
  endloop
endfacet
facet normal 0.0 0.0 1.0
  outer loop
    vertex -21.964314105102186 -33.907572035047714 10.50000000000004
    vertex -21.96431410510219 -38.21906815160415 10.50000000000004
    vertex -21.33550559089621 -40.291972020960166 10.50000000000004
  endloop
endfacet
facet normal 0.0 0.0 1.0
  outer loop
    vertex -21.964314105102186 -33.907572035047714 10.50000000000004
    vertex -21.33550559089621 -40.291972020960166 10.50000000000004
    vertex -21.335505590896208 -31.834668165691692 10.50000000000004
  endloop
endfacet
facet normal 0.0 0.0 1.0
  outer loop
    vertex -21.335505590896208 -31.834668165691692 10.50000000000004
    vertex -21.33550559089621 -40.291972020960166 10.50000000000004
    vertex -20.314375972589623 -42.20237116819253 10.50000000000004
  endloop
endfacet
facet normal 0.0 0.0 1.0
  outer loop
    vertex -21.335505590896208 -31.834668165691692 10.50000000000004
    vertex -20.314375972589623 -42.20237116819253 10.50000000000004
    vertex -20.31437597258962 -29.924269018459338 10.50000000000004
  endloop
endfacet
facet normal 0.0 0.0 1.0
  outer loop
    vertex -20.31437597258962 -29.924269018459338 10.50000000000004
    vertex -20.314375972589623 -42.20237116819253 10.50000000000004
    vertex -18.940166688757852 -43.87685002543728 10.50000000000004
  endloop
endfacet
facet normal 0.0 0.0 1.0
  outer loop
    vertex -20.31437597258962 -29.924269018459338 10.50000000000004
    vertex -18.940166688757852 -43.87685002543728 10.50000000000004
    vertex -19.1266367566465 -36.063320093325935 10.50000000000004
  endloop
endfacet
facet normal 0.0 0.0 1.0
  outer loop
    vertex -19.1266367566465 -36.063320093325935 10.50000000000004
    vertex -18.940166688757852 -43.87685002543728 10.50000000000004
    vertex -18.854043366959047 -38.1338724541461 10.50000000000004
  endloop
endfacet
facet normal 0.0 0.0 1.0
  outer loop
    vertex -18.854043366959047 -38.1338724541461 10.50000000000004
    vertex -18.940166688757852 -43.87685002543728 10.50000000000004
    vertex -17.265687831513105 -45.25105930926905 10.50000000000004
  endloop
endfacet
facet normal 0.0 0.0 1.0
  outer loop
    vertex -18.854043366959047 -38.1338724541461 10.50000000000004
    vertex -17.265687831513105 -45.25105930926905 10.50000000000004
    vertex -18.054839986922012 -40.063320093325935 10.50000000000004
  endloop
endfacet
facet normal 0.0 0.0 1.0
  outer loop
    vertex -18.054839986922012 -40.063320093325935 10.50000000000004
    vertex -17.265687831513105 -45.25105930926905 10.50000000000004
    vertex -16.78349100613889 -41.72017434281831 10.50000000000004
  endloop
endfacet
facet normal 0.0 0.0 1.0
  outer loop
    vertex -16.78349100613889 -41.72017434281831 10.50000000000004
    vertex -17.265687831513105 -45.25105930926905 10.50000000000004
    vertex -15.355288684280753 -46.27218892757564 10.50000000000004
  endloop
endfacet
facet normal 0.0 0.0 1.0
  outer loop
    vertex -16.78349100613889 -41.72017434281831 10.50000000000004
    vertex -15.355288684280753 -46.27218892757564 10.50000000000004
    vertex -15.12663675664651 -42.99152332360144 10.50000000000004
  endloop
endfacet
facet normal 0.0 0.0 1.0
  outer loop
    vertex -15.12663675664651 -42.99152332360144 10.50000000000004
    vertex -15.355288684280753 -46.27218892757564 10.50000000000004
    vertex -13.282384814924727 -46.90099744178162 10.50000000000004
  endloop
endfacet
facet normal 0.0 0.0 1.0
  outer loop
    vertex -15.12663675664651 -42.99152332360144 10.50000000000004
    vertex -13.282384814924727 -46.90099744178162 10.50000000000004
    vertex -13.19718911746668 -43.790726703638484 10.50000000000004
  endloop
endfacet
facet normal 0.0 0.0 1.0
  outer loop
    vertex -13.19718911746668 -43.790726703638484 10.50000000000004
    vertex -13.282384814924727 -46.90099744178162 10.50000000000004
    vertex -11.12663675664651 -47.113320093325925 10.50000000000004
  endloop
endfacet
facet normal 0.0 0.0 1.0
  outer loop
    vertex -13.19718911746668 -43.790726703638484 10.50000000000004
    vertex -11.12663675664651 -47.113320093325925 10.50000000000004
    vertex -11.12663675664651 -44.063320093325935 10.50000000000004
  endloop
endfacet
facet normal 0.0 0.0 1.0
  outer loop
    vertex -11.12663675664651 -44.063320093325935 10.50000000000004
    vertex -11.12663675664651 -47.113320093325925 10.50000000000004
    vertex -8.970888698368293 -46.90099744178163 10.50000000000004
  endloop
endfacet
facet normal 0.0 0.0 1.0
  outer loop
    vertex -11.12663675664651 -44.063320093325935 10.50000000000004
    vertex -8.970888698368293 -46.90099744178163 10.50000000000004
    vertex -9.056084395826346 -43.790726703638484 10.50000000000004
  endloop
endfacet
facet normal 0.0 0.0 1.0
  outer loop
    vertex -9.056084395826346 -43.790726703638484 10.50000000000004
    vertex -8.970888698368293 -46.90099744178163 10.50000000000004
    vertex -7.126636756646515 -42.99152332360145 10.50000000000004
  endloop
endfacet
facet normal 0.0 0.0 1.0
  outer loop
    vertex -7.126636756646515 -42.99152332360145 10.50000000000004
    vertex -8.970888698368293 -46.90099744178163 10.50000000000004
    vertex -6.897984829012268 -46.27218892757565 10.50000000000004
  endloop
endfacet
facet normal 0.0 0.0 1.0
  outer loop
    vertex -7.126636756646515 -42.99152332360145 10.50000000000004
    vertex -6.897984829012268 -46.27218892757565 10.50000000000004
    vertex -5.469782507154139 -41.720174342818325 10.50000000000004
  endloop
endfacet
facet normal 0.0 0.0 1.0
  outer loop
    vertex -5.469782507154139 -41.720174342818325 10.50000000000004
    vertex -6.897984829012268 -46.27218892757565 10.50000000000004
    vertex -4.9875856817799145 -45.25105930926906 10.50000000000004
  endloop
endfacet
facet normal 0.0 0.0 1.0
  outer loop
    vertex -5.469782507154139 -41.720174342818325 10.50000000000004
    vertex -4.9875856817799145 -45.25105930926906 10.50000000000004
    vertex -4.1984335263710095 -40.06332009332595 10.50000000000004
  endloop
endfacet
facet normal 0.0 0.0 1.0
  outer loop
    vertex -4.1984335263710095 -40.06332009332595 10.50000000000004
    vertex -4.9875856817799145 -45.25105930926906 10.50000000000004
    vertex -3.3131068245351676 -43.876850025437285 10.50000000000004
  endloop
endfacet
facet normal 0.0 0.0 1.0
  outer loop
    vertex -4.1984335263710095 -40.06332009332595 10.50000000000004
    vertex -3.3131068245351676 -43.876850025437285 10.50000000000004
    vertex -3.3992301463339705 -38.133872454146115 10.50000000000004
  endloop
endfacet
facet normal 0.0 0.0 1.0
  outer loop
    vertex -3.3992301463339705 -38.133872454146115 10.50000000000004
    vertex -3.3131068245351676 -43.876850025437285 10.50000000000004
    vertex -3.1266367566465143 -36.06332009332594 10.50000000000004
  endloop
endfacet
facet normal 0.0 0.0 1.0
  outer loop
    vertex -3.1266367566465143 -36.06332009332594 10.50000000000004
    vertex -3.3131068245351676 -43.876850025437285 10.50000000000004
    vertex -1.9388975407033906 -42.20237116819254 10.50000000000004
  endloop
endfacet
facet normal 0.0 0.0 1.0
  outer loop
    vertex -19.1266367566465 -36.063320093325935 10.50000000000004
    vertex -18.94016668875784 -28.24979016121459 10.50000000000004
    vertex -20.31437597258962 -29.924269018459338 10.50000000000004
  endloop
endfacet
facet normal 0.0 0.0 1.0
  outer loop
    vertex -18.94016668875784 -28.24979016121459 10.50000000000004
    vertex -19.1266367566465 -36.063320093325935 10.50000000000004
    vertex -18.854043366959047 -33.99276773250577 10.50000000000004
  endloop
endfacet
facet normal 0.0 0.0 1.0
  outer loop
    vertex -18.94016668875784 -28.24979016121459 10.50000000000004
    vertex -18.854043366959047 -33.99276773250577 10.50000000000004
    vertex -17.26568783151309 -26.87558087738282 10.50000000000004
  endloop
endfacet
facet normal 0.0 0.0 1.0
  outer loop
    vertex -17.26568783151309 -26.87558087738282 10.50000000000004
    vertex -18.854043366959047 -33.99276773250577 10.50000000000004
    vertex -18.05483998692201 -32.06332009332593 10.50000000000004
  endloop
endfacet
facet normal 0.0 0.0 1.0
  outer loop
    vertex -17.26568783151309 -26.87558087738282 10.50000000000004
    vertex -18.05483998692201 -32.06332009332593 10.50000000000004
    vertex -16.783491006138878 -30.406465843833555 10.50000000000004
  endloop
endfacet
facet normal 0.0 0.0 1.0
  outer loop
    vertex -17.26568783151309 -26.87558087738282 10.50000000000004
    vertex -16.783491006138878 -30.406465843833555 10.50000000000004
    vertex -15.355288684280735 -25.854451259076228 10.50000000000004
  endloop
endfacet
facet normal 0.0 0.0 1.0
  outer loop
    vertex -15.355288684280735 -25.854451259076228 10.50000000000004
    vertex -16.783491006138878 -30.406465843833555 10.50000000000004
    vertex -15.126636756646496 -29.135116863050424 10.50000000000004
  endloop
endfacet
facet normal 0.0 0.0 1.0
  outer loop
    vertex -15.355288684280735 -25.854451259076228 10.50000000000004
    vertex -15.126636756646496 -29.135116863050424 10.50000000000004
    vertex -13.282384814924711 -25.225642744870253 10.50000000000004
  endloop
endfacet
facet normal 0.0 0.0 1.0
  outer loop
    vertex -13.282384814924711 -25.225642744870253 10.50000000000004
    vertex -15.126636756646496 -29.135116863050424 10.50000000000004
    vertex -13.197189117466662 -28.33591348301339 10.50000000000004
  endloop
endfacet
facet normal 0.0 0.0 1.0
  outer loop
    vertex -13.282384814924711 -25.225642744870253 10.50000000000004
    vertex -13.197189117466662 -28.33591348301339 10.50000000000004
    vertex -11.126636756646498 -25.01332009332595 10.50000000000004
  endloop
endfacet
facet normal 0.0 0.0 1.0
  outer loop
    vertex -11.126636756646498 -25.01332009332595 10.50000000000004
    vertex -13.197189117466662 -28.33591348301339 10.50000000000004
    vertex -11.126636756646498 -28.06332009332594 10.50000000000004
  endloop
endfacet
facet normal 0.0 0.0 1.0
  outer loop
    vertex -11.126636756646498 -25.01332009332595 10.50000000000004
    vertex -11.126636756646498 -28.06332009332594 10.50000000000004
    vertex -9.05608439582633 -28.335913483013396 10.50000000000004
  endloop
endfacet
facet normal 0.0 0.0 1.0
  outer loop
    vertex -11.126636756646498 -25.01332009332595 10.50000000000004
    vertex -9.05608439582633 -28.335913483013396 10.50000000000004
    vertex -8.970888698368281 -25.225642744870257 10.50000000000004
  endloop
endfacet
facet normal 0.0 0.0 1.0
  outer loop
    vertex -8.970888698368281 -25.225642744870257 10.50000000000004
    vertex -9.05608439582633 -28.335913483013396 10.50000000000004
    vertex -7.126636756646499 -29.13511686305044 10.50000000000004
  endloop
endfacet
facet normal 0.0 0.0 1.0
  outer loop
    vertex -8.970888698368281 -25.225642744870257 10.50000000000004
    vertex -7.126636756646499 -29.13511686305044 10.50000000000004
    vertex -6.897984829012259 -25.85445125907623 10.50000000000004
  endloop
endfacet
facet normal 0.0 0.0 1.0
  outer loop
    vertex -6.897984829012259 -25.85445125907623 10.50000000000004
    vertex -7.126636756646499 -29.13511686305044 10.50000000000004
    vertex -5.469782507154128 -30.406465843833562 10.50000000000004
  endloop
endfacet
facet normal 0.0 0.0 1.0
  outer loop
    vertex -6.897984829012259 -25.85445125907623 10.50000000000004
    vertex -5.469782507154128 -30.406465843833562 10.50000000000004
    vertex -4.987585681779899 -26.875580877382827 10.50000000000004
  endloop
endfacet
facet normal 0.0 0.0 1.0
  outer loop
    vertex -4.987585681779899 -26.875580877382827 10.50000000000004
    vertex -5.469782507154128 -30.406465843833562 10.50000000000004
    vertex -4.198433526371001 -32.06332009332595 10.50000000000004
  endloop
endfacet
facet normal 0.0 0.0 1.0
  outer loop
    vertex -4.987585681779899 -26.875580877382827 10.50000000000004
    vertex -4.198433526371001 -32.06332009332595 10.50000000000004
    vertex -3.3131068245351565 -28.2497901612146 10.50000000000004
  endloop
endfacet
facet normal 0.0 0.0 1.0
  outer loop
    vertex -3.3131068245351565 -28.2497901612146 10.50000000000004
    vertex -4.198433526371001 -32.06332009332595 10.50000000000004
    vertex -3.399230146333966 -33.992767732505776 10.50000000000004
  endloop
endfacet
facet normal 0.0 0.0 1.0
  outer loop
    vertex -3.3131068245351565 -28.2497901612146 10.50000000000004
    vertex -3.399230146333966 -33.992767732505776 10.50000000000004
    vertex -3.1266367566465143 -36.06332009332594 10.50000000000004
  endloop
endfacet
facet normal 0.0 0.0 1.0
  outer loop
    vertex -3.3131068245351565 -28.2497901612146 10.50000000000004
    vertex -3.1266367566465143 -36.06332009332594 10.50000000000004
    vertex -1.938897540703385 -29.924269018459345 10.50000000000004
  endloop
endfacet
facet normal 0.0 0.0 1.0
  outer loop
    vertex -1.938897540703385 -29.924269018459345 10.50000000000004
    vertex -3.1266367566465143 -36.06332009332594 10.50000000000004
    vertex -1.9388975407033906 -42.20237116819254 10.50000000000004
  endloop
endfacet
facet normal 0.0 0.0 1.0
  outer loop
    vertex -1.938897540703385 -29.924269018459345 10.50000000000004
    vertex -1.9388975407033906 -42.20237116819254 10.50000000000004
    vertex -0.9177679223968006 -40.29197202096019 10.50000000000004
  endloop
endfacet
facet normal 0.0 0.0 1.0
  outer loop
    vertex -1.938897540703385 -29.924269018459345 10.50000000000004
    vertex -0.9177679223968006 -40.29197202096019 10.50000000000004
    vertex -0.9177679223967921 -31.834668165691703 10.50000000000004
  endloop
endfacet
facet normal 0.0 0.0 1.0
  outer loop
    vertex -0.9177679223967921 -31.834668165691703 10.50000000000004
    vertex -0.9177679223968006 -40.29197202096019 10.50000000000004
    vertex -0.288959408190821 -38.21906815160417 10.50000000000004
  endloop
endfacet
facet normal 0.0 0.0 1.0
  outer loop
    vertex -0.9177679223967921 -31.834668165691703 10.50000000000004
    vertex -0.288959408190821 -38.21906815160417 10.50000000000004
    vertex -0.2889594081908168 -33.90757203504773 10.50000000000004
  endloop
endfacet
facet normal 0.0 0.0 1.0
  outer loop
    vertex -0.2889594081908168 -33.90757203504773 10.50000000000004
    vertex -0.288959408190821 -38.21906815160417 10.50000000000004
    vertex -0.07663675664651487 -36.06332009332594 10.50000000000004
  endloop
endfacet
facet normal -0.09801714032956124 -0.9951847266721969 1.2365498270856e-31
  outer loop
    vertex -8.970888698368281 -25.225642744870257 18.50000000000004
    vertex -11.126636756646498 -25.01332009332595 10.50000000000004
    vertex -8.970888698368281 -25.225642744870257 10.50000000000004
  endloop
endfacet
facet normal -0.09801714032956124 -0.9951847266721969 1.2365498270856e-31
  outer loop
    vertex -11.126636756646498 -25.01332009332595 10.50000000000004
    vertex -8.970888698368281 -25.225642744870257 18.50000000000004
    vertex -11.126636756646498 -25.01332009332595 18.50000000000004
  endloop
endfacet
facet normal 0.09801714032956005 -0.9951847266721969 -8.5701761246234745e-19
  outer loop
    vertex -11.126636756646498 -25.01332009332595 18.50000000000004
    vertex -13.282384814924711 -25.225642744870253 10.50000000000004
    vertex -11.126636756646498 -25.01332009332595 10.50000000000004
  endloop
endfacet
facet normal 0.09801714032956005 -0.9951847266721969 -8.5701761246234745e-19
  outer loop
    vertex -13.282384814924711 -25.225642744870253 10.50000000000004
    vertex -11.126636756646498 -25.01332009332595 18.50000000000004
    vertex -13.282384814924711 -25.225642744870253 18.50000000000004
  endloop
endfacet
facet normal 0.29028467725446067 -0.9569403357322094 -0.0
  outer loop
    vertex -13.282384814924711 -25.225642744870253 18.50000000000004
    vertex -15.355288684280735 -25.854451259076228 10.50000000000004
    vertex -13.282384814924711 -25.225642744870253 10.50000000000004
  endloop
endfacet
facet normal 0.29028467725446067 -0.9569403357322094 -0.0
  outer loop
    vertex -15.355288684280735 -25.854451259076228 10.50000000000004
    vertex -13.282384814924711 -25.225642744870253 18.50000000000004
    vertex -15.355288684280735 -25.854451259076228 18.50000000000004
  endloop
endfacet
facet normal 0.47139673682599886 -0.8819212643483543 -0.0
  outer loop
    vertex -15.355288684280735 -25.854451259076228 18.50000000000004
    vertex -17.26568783151309 -26.87558087738282 10.50000000000004
    vertex -15.355288684280735 -25.854451259076228 10.50000000000004
  endloop
endfacet
facet normal 0.47139673682599886 -0.8819212643483543 -0.0
  outer loop
    vertex -17.26568783151309 -26.87558087738282 10.50000000000004
    vertex -15.355288684280735 -25.854451259076228 18.50000000000004
    vertex -17.26568783151309 -26.87558087738282 18.50000000000004
  endloop
endfacet
facet normal 0.6343932841636438 -0.7730104533627384 -0.0
  outer loop
    vertex -17.26568783151309 -26.87558087738282 18.50000000000004
    vertex -18.94016668875784 -28.24979016121459 10.50000000000004
    vertex -17.26568783151309 -26.87558087738282 10.50000000000004
  endloop
endfacet
facet normal 0.6343932841636438 -0.7730104533627384 -0.0
  outer loop
    vertex -18.94016668875784 -28.24979016121459 10.50000000000004
    vertex -17.26568783151309 -26.87558087738282 18.50000000000004
    vertex -18.94016668875784 -28.24979016121459 18.50000000000004
  endloop
endfacet
facet normal 0.7730104533627367 -0.6343932841636462 -0.0
  outer loop
    vertex -18.94016668875784 -28.24979016121459 10.50000000000004
    vertex -20.31437597258962 -29.924269018459338 18.50000000000004
    vertex -20.31437597258962 -29.924269018459338 10.50000000000004
  endloop
endfacet
facet normal 0.7730104533627367 -0.6343932841636462 -0.0
  outer loop
    vertex -20.31437597258962 -29.924269018459338 18.50000000000004
    vertex -18.94016668875784 -28.24979016121459 10.50000000000004
    vertex -18.94016668875784 -28.24979016121459 18.50000000000004
  endloop
endfacet
facet normal 0.8819212643483552 -0.4713967368259974 -0.0
  outer loop
    vertex -20.31437597258962 -29.924269018459338 10.50000000000004
    vertex -21.335505590896208 -31.834668165691692 18.50000000000004
    vertex -21.335505590896208 -31.834668165691692 10.50000000000004
  endloop
endfacet
facet normal 0.8819212643483552 -0.4713967368259974 -0.0
  outer loop
    vertex -21.335505590896208 -31.834668165691692 18.50000000000004
    vertex -20.31437597258962 -29.924269018459338 10.50000000000004
    vertex -20.31437597258962 -29.924269018459338 18.50000000000004
  endloop
endfacet
facet normal 0.9569403357322085 -0.2902846772544638 -0.0
  outer loop
    vertex -21.335505590896208 -31.834668165691692 10.50000000000004
    vertex -21.964314105102186 -33.907572035047714 18.50000000000004
    vertex -21.964314105102186 -33.907572035047714 10.50000000000004
  endloop
endfacet
facet normal 0.9569403357322085 -0.2902846772544638 -0.0
  outer loop
    vertex -21.964314105102186 -33.907572035047714 18.50000000000004
    vertex -21.335505590896208 -31.834668165691692 10.50000000000004
    vertex -21.335505590896208 -31.834668165691692 18.50000000000004
  endloop
endfacet
facet normal 0.9951847266721969 -0.09801714032956096 -0.0
  outer loop
    vertex -21.964314105102186 -33.907572035047714 10.50000000000004
    vertex -22.17663675664649 -36.063320093325935 18.50000000000004
    vertex -22.17663675664649 -36.063320093325935 10.50000000000004
  endloop
endfacet
facet normal 0.9951847266721969 -0.09801714032956096 -0.0
  outer loop
    vertex -22.17663675664649 -36.063320093325935 18.50000000000004
    vertex -21.964314105102186 -33.907572035047714 10.50000000000004
    vertex -21.964314105102186 -33.907572035047714 18.50000000000004
  endloop
endfacet
facet normal 0.995184726672197 0.09801714032955994 0.0
  outer loop
    vertex -22.17663675664649 -36.063320093325935 10.50000000000004
    vertex -21.96431410510219 -38.21906815160415 18.50000000000004
    vertex -21.96431410510219 -38.21906815160415 10.50000000000004
  endloop
endfacet
facet normal 0.995184726672197 0.09801714032955994 0.0
  outer loop
    vertex -21.96431410510219 -38.21906815160415 18.50000000000004
    vertex -22.17663675664649 -36.063320093325935 10.50000000000004
    vertex -22.17663675664649 -36.063320093325935 18.50000000000004
  endloop
endfacet
facet normal 0.9569403357322088 0.29028467725446255 0.0
  outer loop
    vertex -21.96431410510219 -38.21906815160415 10.50000000000004
    vertex -21.33550559089621 -40.291972020960166 18.50000000000004
    vertex -21.33550559089621 -40.291972020960166 10.50000000000004
  endloop
endfacet
facet normal 0.9569403357322088 0.29028467725446255 0.0
  outer loop
    vertex -21.33550559089621 -40.291972020960166 18.50000000000004
    vertex -21.96431410510219 -38.21906815160415 10.50000000000004
    vertex -21.96431410510219 -38.21906815160415 18.50000000000004
  endloop
endfacet
facet normal 0.8819212643483557 0.47139673682599637 0.0
  outer loop
    vertex -21.33550559089621 -40.291972020960166 10.50000000000004
    vertex -20.314375972589623 -42.20237116819253 18.50000000000004
    vertex -20.314375972589623 -42.20237116819253 10.50000000000004
  endloop
endfacet
facet normal 0.8819212643483557 0.47139673682599637 0.0
  outer loop
    vertex -20.314375972589623 -42.20237116819253 18.50000000000004
    vertex -21.33550559089621 -40.291972020960166 10.50000000000004
    vertex -21.33550559089621 -40.291972020960166 18.50000000000004
  endloop
endfacet
facet normal 0.7730104533627379 0.6343932841636446 0.0
  outer loop
    vertex -20.314375972589623 -42.20237116819253 10.50000000000004
    vertex -18.940166688757852 -43.87685002543728 18.50000000000004
    vertex -18.940166688757852 -43.87685002543728 10.50000000000004
  endloop
endfacet
facet normal 0.7730104533627379 0.6343932841636446 0.0
  outer loop
    vertex -18.940166688757852 -43.87685002543728 18.50000000000004
    vertex -20.314375972589623 -42.20237116819253 10.50000000000004
    vertex -20.314375972589623 -42.20237116819253 18.50000000000004
  endloop
endfacet
facet normal 0.634393284163646 0.7730104533627367 0.0
  outer loop
    vertex -18.940166688757852 -43.87685002543728 18.50000000000004
    vertex -17.265687831513105 -45.25105930926905 10.50000000000004
    vertex -18.940166688757852 -43.87685002543728 10.50000000000004
  endloop
endfacet
facet normal 0.634393284163646 0.7730104533627367 0.0
  outer loop
    vertex -17.265687831513105 -45.25105930926905 10.50000000000004
    vertex -18.940166688757852 -43.87685002543728 18.50000000000004
    vertex -17.265687831513105 -45.25105930926905 18.50000000000004
  endloop
endfacet
facet normal 0.4713967368259974 0.8819212643483552 0.0
  outer loop
    vertex -17.265687831513105 -45.25105930926905 18.50000000000004
    vertex -15.355288684280753 -46.27218892757564 10.50000000000004
    vertex -17.265687831513105 -45.25105930926905 10.50000000000004
  endloop
endfacet
facet normal 0.4713967368259974 0.8819212643483552 0.0
  outer loop
    vertex -15.355288684280753 -46.27218892757564 10.50000000000004
    vertex -17.265687831513105 -45.25105930926905 18.50000000000004
    vertex -15.355288684280753 -46.27218892757564 18.50000000000004
  endloop
endfacet
facet normal 0.2902846772544643 0.9569403357322084 0.0
  outer loop
    vertex -15.355288684280753 -46.27218892757564 18.50000000000004
    vertex -13.282384814924727 -46.90099744178162 10.50000000000004
    vertex -15.355288684280753 -46.27218892757564 10.50000000000004
  endloop
endfacet
facet normal 0.2902846772544643 0.9569403357322084 0.0
  outer loop
    vertex -13.282384814924727 -46.90099744178162 10.50000000000004
    vertex -15.355288684280753 -46.27218892757564 18.50000000000004
    vertex -13.282384814924727 -46.90099744178162 18.50000000000004
  endloop
endfacet
facet normal 0.09801714032955987 0.995184726672197 0.0
  outer loop
    vertex -13.282384814924727 -46.90099744178162 18.50000000000004
    vertex -11.12663675664651 -47.113320093325925 10.50000000000004
    vertex -13.282384814924727 -46.90099744178162 10.50000000000004
  endloop
endfacet
facet normal 0.09801714032955987 0.995184726672197 0.0
  outer loop
    vertex -11.12663675664651 -47.113320093325925 10.50000000000004
    vertex -13.282384814924727 -46.90099744178162 18.50000000000004
    vertex -11.12663675664651 -47.113320093325925 18.50000000000004
  endloop
endfacet
facet normal -0.09801714032955731 0.9951847266721974 -0.0
  outer loop
    vertex -11.12663675664651 -47.113320093325925 18.50000000000004
    vertex -8.970888698368293 -46.90099744178163 10.50000000000004
    vertex -11.12663675664651 -47.113320093325925 10.50000000000004
  endloop
endfacet
facet normal -0.09801714032955731 0.9951847266721974 -0.0
  outer loop
    vertex -8.970888698368293 -46.90099744178163 10.50000000000004
    vertex -11.12663675664651 -47.113320093325925 18.50000000000004
    vertex -8.970888698368293 -46.90099744178163 18.50000000000004
  endloop
endfacet
facet normal -0.2902846772544643 0.9569403357322084 -0.0
  outer loop
    vertex -8.970888698368293 -46.90099744178163 18.50000000000004
    vertex -6.897984829012268 -46.27218892757565 10.50000000000004
    vertex -8.970888698368293 -46.90099744178163 10.50000000000004
  endloop
endfacet
facet normal -0.2902846772544643 0.9569403357322084 -0.0
  outer loop
    vertex -6.897984829012268 -46.27218892757565 10.50000000000004
    vertex -8.970888698368293 -46.90099744178163 18.50000000000004
    vertex -6.897984829012268 -46.27218892757565 18.50000000000004
  endloop
endfacet
facet normal -0.4713967368259976 0.881921264348355 -0.0
  outer loop
    vertex -6.897984829012268 -46.27218892757565 18.50000000000004
    vertex -4.9875856817799145 -45.25105930926906 10.50000000000004
    vertex -6.897984829012268 -46.27218892757565 10.50000000000004
  endloop
endfacet
facet normal -0.4713967368259976 0.881921264348355 -0.0
  outer loop
    vertex -4.9875856817799145 -45.25105930926906 10.50000000000004
    vertex -6.897984829012268 -46.27218892757565 18.50000000000004
    vertex -4.9875856817799145 -45.25105930926906 18.50000000000004
  endloop
endfacet
facet normal -0.6343932841636439 0.7730104533627382 -0.0
  outer loop
    vertex -4.9875856817799145 -45.25105930926906 18.50000000000004
    vertex -3.3131068245351676 -43.876850025437285 10.50000000000004
    vertex -4.9875856817799145 -45.25105930926906 10.50000000000004
  endloop
endfacet
facet normal -0.6343932841636439 0.7730104533627382 -0.0
  outer loop
    vertex -3.3131068245351676 -43.876850025437285 10.50000000000004
    vertex -4.9875856817799145 -45.25105930926906 18.50000000000004
    vertex -3.3131068245351676 -43.876850025437285 18.50000000000004
  endloop
endfacet
facet normal -0.7730104533627368 0.6343932841636457 -0.0
  outer loop
    vertex -1.9388975407033906 -42.20237116819254 18.50000000000004
    vertex -3.3131068245351676 -43.876850025437285 10.50000000000004
    vertex -3.3131068245351676 -43.876850025437285 18.50000000000004
  endloop
endfacet
facet normal -0.7730104533627368 0.6343932841636457 -0.0
  outer loop
    vertex -3.3131068245351676 -43.876850025437285 10.50000000000004
    vertex -1.9388975407033906 -42.20237116819254 18.50000000000004
    vertex -1.9388975407033906 -42.20237116819254 10.50000000000004
  endloop
endfacet
facet normal -0.881921264348355 0.47139673682599803 -0.0
  outer loop
    vertex -0.9177679223968006 -40.29197202096019 18.50000000000004
    vertex -1.9388975407033906 -42.20237116819254 10.50000000000004
    vertex -1.9388975407033906 -42.20237116819254 18.50000000000004
  endloop
endfacet
facet normal -0.881921264348355 0.47139673682599803 -0.0
  outer loop
    vertex -1.9388975407033906 -42.20237116819254 10.50000000000004
    vertex -0.9177679223968006 -40.29197202096019 18.50000000000004
    vertex -0.9177679223968006 -40.29197202096019 10.50000000000004
  endloop
endfacet
facet normal -0.9569403357322085 0.2902846772544638 -0.0
  outer loop
    vertex -0.288959408190821 -38.21906815160417 18.50000000000004
    vertex -0.9177679223968006 -40.29197202096019 10.50000000000004
    vertex -0.9177679223968006 -40.29197202096019 18.50000000000004
  endloop
endfacet
facet normal -0.9569403357322085 0.2902846772544638 -0.0
  outer loop
    vertex -0.9177679223968006 -40.29197202096019 10.50000000000004
    vertex -0.288959408190821 -38.21906815160417 18.50000000000004
    vertex -0.288959408190821 -38.21906815160417 10.50000000000004
  endloop
endfacet
facet normal -0.9951847266721969 0.09801714032956163 -0.0
  outer loop
    vertex -0.07663675664651487 -36.06332009332594 18.50000000000004
    vertex -0.288959408190821 -38.21906815160417 10.50000000000004
    vertex -0.288959408190821 -38.21906815160417 18.50000000000004
  endloop
endfacet
facet normal -0.9951847266721969 0.09801714032956163 -0.0
  outer loop
    vertex -0.288959408190821 -38.21906815160417 10.50000000000004
    vertex -0.07663675664651487 -36.06332009332594 18.50000000000004
    vertex -0.07663675664651487 -36.06332009332594 10.50000000000004
  endloop
endfacet
facet normal -0.995184726672197 -0.09801714032955994 -0.0
  outer loop
    vertex -0.2889594081908168 -33.90757203504773 18.50000000000004
    vertex -0.07663675664651487 -36.06332009332594 10.50000000000004
    vertex -0.07663675664651487 -36.06332009332594 18.50000000000004
  endloop
endfacet
facet normal -0.995184726672197 -0.09801714032955994 -0.0
  outer loop
    vertex -0.07663675664651487 -36.06332009332594 10.50000000000004
    vertex -0.2889594081908168 -33.90757203504773 18.50000000000004
    vertex -0.2889594081908168 -33.90757203504773 10.50000000000004
  endloop
endfacet
facet normal -0.9569403357322093 -0.2902846772544612 -0.0
  outer loop
    vertex -0.9177679223967921 -31.834668165691703 18.50000000000004
    vertex -0.2889594081908168 -33.90757203504773 10.50000000000004
    vertex -0.2889594081908168 -33.90757203504773 18.50000000000004
  endloop
endfacet
facet normal -0.9569403357322093 -0.2902846772544612 -0.0
  outer loop
    vertex -0.2889594081908168 -33.90757203504773 10.50000000000004
    vertex -0.9177679223967921 -31.834668165691703 18.50000000000004
    vertex -0.9177679223967921 -31.834668165691703 10.50000000000004
  endloop
endfacet
facet normal -0.8819212643483548 -0.4713967368259978 -0.0
  outer loop
    vertex -1.938897540703385 -29.924269018459345 18.50000000000004
    vertex -0.9177679223967921 -31.834668165691703 10.50000000000004
    vertex -0.9177679223967921 -31.834668165691703 18.50000000000004
  endloop
endfacet
facet normal -0.8819212643483548 -0.4713967368259978 -0.0
  outer loop
    vertex -0.9177679223967921 -31.834668165691703 10.50000000000004
    vertex -1.938897540703385 -29.924269018459345 18.50000000000004
    vertex -1.938897540703385 -29.924269018459345 10.50000000000004
  endloop
endfacet
facet normal -0.773010453362737 -0.6343932841636454 -0.0
  outer loop
    vertex -3.3131068245351565 -28.2497901612146 18.50000000000004
    vertex -1.938897540703385 -29.924269018459345 10.50000000000004
    vertex -1.938897540703385 -29.924269018459345 18.50000000000004
  endloop
endfacet
facet normal -0.773010453362737 -0.6343932841636454 -0.0
  outer loop
    vertex -1.938897540703385 -29.924269018459345 10.50000000000004
    vertex -3.3131068245351565 -28.2497901612146 18.50000000000004
    vertex -3.3131068245351565 -28.2497901612146 10.50000000000004
  endloop
endfacet
facet normal -0.6343932841636463 -0.7730104533627363 -0.0
  outer loop
    vertex -3.3131068245351565 -28.2497901612146 18.50000000000004
    vertex -4.987585681779899 -26.875580877382827 10.50000000000004
    vertex -3.3131068245351565 -28.2497901612146 10.50000000000004
  endloop
endfacet
facet normal -0.6343932841636463 -0.7730104533627363 -0.0
  outer loop
    vertex -4.987585681779899 -26.875580877382827 10.50000000000004
    vertex -3.3131068245351565 -28.2497901612146 18.50000000000004
    vertex -4.987585681779899 -26.875580877382827 18.50000000000004
  endloop
endfacet
facet normal -0.4713967368259984 -0.8819212643483547 -0.0
  outer loop
    vertex -4.987585681779899 -26.875580877382827 18.50000000000004
    vertex -6.897984829012259 -25.85445125907623 10.50000000000004
    vertex -4.987585681779899 -26.875580877382827 10.50000000000004
  endloop
endfacet
facet normal -0.4713967368259984 -0.8819212643483547 -0.0
  outer loop
    vertex -6.897984829012259 -25.85445125907623 10.50000000000004
    vertex -4.987585681779899 -26.875580877382827 18.50000000000004
    vertex -6.897984829012259 -25.85445125907623 18.50000000000004
  endloop
endfacet
facet normal -0.2902846772544622 -0.956940335732209 -0.0
  outer loop
    vertex -6.897984829012259 -25.85445125907623 18.50000000000004
    vertex -8.970888698368281 -25.225642744870257 10.50000000000004
    vertex -6.897984829012259 -25.85445125907623 10.50000000000004
  endloop
endfacet
facet normal -0.2902846772544622 -0.956940335732209 -0.0
  outer loop
    vertex -8.970888698368281 -25.225642744870257 10.50000000000004
    vertex -6.897984829012259 -25.85445125907623 18.50000000000004
    vertex -8.970888698368281 -25.225642744870257 18.50000000000004
  endloop
endfacet
facet normal -8.956862939805342e-16 4.3163586227690496e-16 -1.0
  outer loop
    vertex -50.076636756646494 -25.013320093325913 8.571366736688372e-14
    vertex -18.85404336695905 -33.992767732505776 3.912417687425313e-14
    vertex -19.12663675664651 -36.06332009332594 3.870203288919178e-14
  endloop
endfacet
facet normal -8.956862939805342e-16 4.3163586227690496e-16 -1.0
  outer loop
    vertex -18.85404336695905 -33.992767732505776 3.912417687425313e-14
    vertex -50.076636756646494 -25.013320093325913 8.571366736688372e-14
    vertex -18.054839986922012 -32.063320093325935 3.963043586336833e-14
  endloop
endfacet
facet normal -8.956862939805342e-16 4.3163586227690496e-16 -1.0
  outer loop
    vertex -18.054839986922012 -32.063320093325935 3.963043586336833e-14
    vertex -50.076636756646494 -25.013320093325913 8.571366736688372e-14
    vertex -16.783491006138885 -30.406465843833562 4.018630914306172e-14
  endloop
endfacet
facet normal -8.956862939805342e-16 4.3163586227690496e-16 -1.0
  outer loop
    vertex -16.783491006138885 -30.406465843833562 4.018630914306172e-14
    vertex -50.076636756646494 -25.013320093325913 8.571366736688372e-14
    vertex -15.126636756646501 -29.13511686305043 4.075391486794622e-14
  endloop
endfacet
facet normal -8.956862939805342e-16 4.3163586227690496e-16 -1.0
  outer loop
    vertex -15.126636756646501 -29.13511686305043 4.075391486794622e-14
    vertex -50.076636756646494 -25.013320093325913 8.571366736688372e-14
    vertex -13.19718911746667 -28.335913483013396 4.129457164588376e-14
  endloop
endfacet
facet normal -8.956862939805342e-16 4.3163586227690496e-16 -1.0
  outer loop
    vertex -13.19718911746667 -28.335913483013396 4.129457164588376e-14
    vertex -50.076636756646494 -25.013320093325913 8.571366736688372e-14
    vertex -0.02555465779316551 -25.013320093325913 4.568025289852464e-14
  endloop
endfacet
facet normal -8.956862939805342e-16 4.3163586227690496e-16 -1.0
  outer loop
    vertex -13.19718911746667 -28.335913483013396 4.129457164588376e-14
    vertex -0.02555465779316551 -25.013320093325913 4.568025289852464e-14
    vertex -11.126636756646503 -28.06332009332595 4.1771434610935463e-14
  endloop
endfacet
facet normal -8.956862939805342e-16 4.3163586227690496e-16 -1.0
  outer loop
    vertex -11.126636756646503 -28.06332009332595 4.1771434610935463e-14
    vertex -0.02555465779316551 -25.013320093325913 4.568025289852464e-14
    vertex -9.056084395826337 -28.335913483013403 4.215200634008638e-14
  endloop
endfacet
facet normal -8.956862939805342e-16 4.3163586227690496e-16 -1.0
  outer loop
    vertex -9.056084395826337 -28.335913483013403 4.215200634008638e-14
    vertex -0.02555465779316551 -25.013320093325913 4.568025289852464e-14
    vertex -7.126636756646505 -29.135116863050442 4.241035149891938e-14
  endloop
endfacet
facet normal -8.956862939805342e-16 4.3163586227690496e-16 -1.0
  outer loop
    vertex -7.126636756646505 -29.135116863050442 4.241035149891938e-14
    vertex -0.02555465779316551 -25.013320093325913 4.568025289852464e-14
    vertex -5.469782507154125 -30.406465843833566 4.2528864291795565e-14
  endloop
endfacet
facet normal -8.956862939805342e-16 4.3163586227690496e-16 -1.0
  outer loop
    vertex -5.469782507154125 -30.406465843833566 4.2528864291795565e-14
    vertex -0.02555465779316551 -25.013320093325913 4.568025289852464e-14
    vertex -4.198433526370998 -32.06332009332595 4.249946826773207e-14
  endloop
endfacet
facet normal -8.956862939805342e-16 4.3163586227690496e-16 -1.0
  outer loop
    vertex -4.198433526370998 -32.06332009332595 4.249946826773207e-14
    vertex -0.02555465779316551 -25.013320093325913 4.568025289852464e-14
    vertex -3.3992301463339634 -33.99276773250578 4.2324166717189595e-14
  endloop
endfacet
facet normal -8.956862939805342e-16 4.3163586227690496e-16 -1.0
  outer loop
    vertex -3.3992301463339634 -33.99276773250578 4.2324166717189595e-14
    vertex -0.02555465779316551 -25.013320093325913 4.568025289852464e-14
    vertex -3.1266367566465108 -36.06332009332595 4.20149061511381e-14
  endloop
endfacet
facet normal -8.956862939805342e-16 4.3163586227690496e-16 -1.0
  outer loop
    vertex -3.1266367566465108 -36.06332009332595 4.20149061511381e-14
    vertex -0.02555465779316551 -25.013320093325913 4.568025289852464e-14
    vertex -0.07663675664653533 -75.01332009332596 1.6934501181645413e-14
  endloop
endfacet
facet normal -8.956862939805342e-16 4.3163586227690496e-16 -1.0
  outer loop
    vertex -50.076636756646494 -25.013320093325913 8.571366736688372e-14
    vertex -18.05483998692202 -40.063320093325935 3.821747077259781e-14
    vertex -0.07663675664653533 -75.01332009332596 1.6934501181645413e-14
  endloop
endfacet
facet normal -8.956862939805342e-16 4.3163586227690496e-16 -1.0
  outer loop
    vertex -18.05483998692202 -40.063320093325935 3.821747077259781e-14
    vertex -50.076636756646494 -25.013320093325913 8.571366736688372e-14
    vertex -18.854043366959054 -38.1338724541461 3.8392772323140285e-14
  endloop
endfacet
facet normal -8.956862939805342e-16 4.3163586227690496e-16 -1.0
  outer loop
    vertex -18.854043366959054 -38.1338724541461 3.8392772323140285e-14
    vertex -50.076636756646494 -25.013320093325913 8.571366736688372e-14
    vertex -19.12663675664651 -36.06332009332594 3.870203288919178e-14
  endloop
endfacet
facet normal -8.956862939805342e-16 4.3163586227690496e-16 -1.0
  outer loop
    vertex -0.07663675664653533 -75.01332009332596 1.6934501181645413e-14
    vertex -18.05483998692202 -40.063320093325935 3.821747077259781e-14
    vertex -16.783491006138895 -41.72017434281832 3.818807474853431e-14
  endloop
endfacet
facet normal -8.956862939805342e-16 4.3163586227690496e-16 -1.0
  outer loop
    vertex -0.07663675664653533 -75.01332009332596 1.6934501181645413e-14
    vertex -16.783491006138895 -41.72017434281832 3.818807474853431e-14
    vertex -15.126636756646516 -42.99152332360145 3.830658754141049e-14
  endloop
endfacet
facet normal -8.956862939805342e-16 4.3163586227690496e-16 -1.0
  outer loop
    vertex -0.07663675664653533 -75.01332009332596 1.6934501181645413e-14
    vertex -15.126636756646516 -42.99152332360145 3.830658754141049e-14
    vertex -13.197189117466685 -43.790726703638484 3.85649327002435e-14
  endloop
endfacet
facet normal -8.956862939805342e-16 4.3163586227690496e-16 -1.0
  outer loop
    vertex -0.07663675664653533 -75.01332009332596 1.6934501181645413e-14
    vertex -13.197189117466685 -43.790726703638484 3.85649327002435e-14
    vertex -11.126636756646516 -44.06332009332594 3.894550442939442e-14
  endloop
endfacet
facet normal -8.956862939805342e-16 4.3163586227690496e-16 -1.0
  outer loop
    vertex -0.07663675664653533 -75.01332009332596 1.6934501181645413e-14
    vertex -11.126636756646516 -44.06332009332594 3.894550442939442e-14
    vertex -9.056084395826351 -43.79072670363849 3.9422367394446117e-14
  endloop
endfacet
facet normal -8.956862939805342e-16 4.3163586227690496e-16 -1.0
  outer loop
    vertex -0.07663675664653533 -75.01332009332596 1.6934501181645413e-14
    vertex -9.056084395826351 -43.79072670363849 3.9422367394446117e-14
    vertex -7.12663675664652 -42.991523323601456 3.996302417238366e-14
  endloop
endfacet
facet normal -8.956862939805342e-16 4.3163586227690496e-16 -1.0
  outer loop
    vertex -0.07663675664653533 -75.01332009332596 1.6934501181645413e-14
    vertex -7.12663675664652 -42.991523323601456 3.996302417238366e-14
    vertex -5.469782507154136 -41.720174342818325 4.053062989726816e-14
  endloop
endfacet
facet normal -8.956862939805342e-16 4.3163586227690496e-16 -1.0
  outer loop
    vertex -0.07663675664653533 -75.01332009332596 1.6934501181645413e-14
    vertex -5.469782507154136 -41.720174342818325 4.053062989726816e-14
    vertex -4.198433526371007 -40.063320093325956 4.108650317696155e-14
  endloop
endfacet
facet normal -8.956862939805342e-16 4.3163586227690496e-16 -1.0
  outer loop
    vertex -0.07663675664653533 -75.01332009332596 1.6934501181645413e-14
    vertex -4.198433526371007 -40.063320093325956 4.108650317696155e-14
    vertex -3.3992301463339674 -38.13387245414612 4.1592762166076744e-14
  endloop
endfacet
facet normal -8.956862939805342e-16 4.3163586227690496e-16 -1.0
  outer loop
    vertex -0.07663675664653533 -75.01332009332596 1.6934501181645413e-14
    vertex -3.3992301463339674 -38.13387245414612 4.1592762166076744e-14
    vertex -3.1266367566465108 -36.06332009332595 4.20149061511381e-14
  endloop
endfacet
facet normal 3.0772624168625454e-16 1.0 3.7857138753552305e-16
  outer loop
    vertex -50.076636756646494 -25.013320093325913 18.50000000000007
    vertex -11.126636756646498 -25.01332009332595 18.50000000000004
    vertex -50.076636756646494 -25.013320093325913 8.571366736688372e-14
  endloop
endfacet
facet normal 3.0772624168625454e-16 1.0 3.7857138753552305e-16
  outer loop
    vertex -50.076636756646494 -25.013320093325913 8.571366736688372e-14
    vertex -0.025554657793165646 -25.013320093325913 18.50000000000007
    vertex -0.02555465779316551 -25.013320093325913 4.568025289852464e-14
  endloop
endfacet
facet normal 3.0772624168625454e-16 1.0 3.7857138753552305e-16
  outer loop
    vertex -0.025554657793165646 -25.013320093325913 18.50000000000007
    vertex -50.076636756646494 -25.013320093325913 8.571366736688372e-14
    vertex -11.126636756646498 -25.01332009332595 18.50000000000004
  endloop
endfacet
facet normal 4.109927393665875e-16 -3.205253246238546e-16 1.0
  outer loop
    vertex -50.076636756646494 -25.013320093325913 18.50000000000007
    vertex -21.96431410510219 -38.21906815160415 18.50000000000004
    vertex -22.17663675664649 -36.063320093325935 18.50000000000004
  endloop
endfacet
facet normal 4.109927393665875e-16 -3.205253246238546e-16 1.0
  outer loop
    vertex -21.96431410510219 -38.21906815160415 18.50000000000004
    vertex -50.076636756646494 -25.013320093325913 18.50000000000007
    vertex -21.33550559089621 -40.291972020960166 18.50000000000004
  endloop
endfacet
facet normal 4.109927393665875e-16 -3.205253246238546e-16 1.0
  outer loop
    vertex -21.33550559089621 -40.291972020960166 18.50000000000004
    vertex -50.076636756646494 -25.013320093325913 18.50000000000007
    vertex -20.314375972589623 -42.20237116819253 18.50000000000004
  endloop
endfacet
facet normal 4.109927393665875e-16 -3.205253246238546e-16 1.0
  outer loop
    vertex -20.314375972589623 -42.20237116819253 18.50000000000004
    vertex -50.076636756646494 -25.013320093325913 18.50000000000007
    vertex -0.07663675664651877 -75.01332009332596 18.500000000000004
  endloop
endfacet
facet normal 4.109927393665875e-16 -3.205253246238546e-16 1.0
  outer loop
    vertex -20.314375972589623 -42.20237116819253 18.50000000000004
    vertex -0.07663675664651877 -75.01332009332596 18.500000000000004
    vertex -18.940166688757852 -43.87685002543728 18.50000000000004
  endloop
endfacet
facet normal 4.109927393665875e-16 -3.205253246238546e-16 1.0
  outer loop
    vertex -18.940166688757852 -43.87685002543728 18.50000000000004
    vertex -0.07663675664651877 -75.01332009332596 18.500000000000004
    vertex -17.265687831513105 -45.25105930926905 18.50000000000004
  endloop
endfacet
facet normal 4.109927393665875e-16 -3.205253246238546e-16 1.0
  outer loop
    vertex -17.265687831513105 -45.25105930926905 18.50000000000004
    vertex -0.07663675664651877 -75.01332009332596 18.500000000000004
    vertex -15.355288684280753 -46.27218892757564 18.50000000000004
  endloop
endfacet
facet normal 4.109927393665875e-16 -3.205253246238546e-16 1.0
  outer loop
    vertex -15.355288684280753 -46.27218892757564 18.50000000000004
    vertex -0.07663675664651877 -75.01332009332596 18.500000000000004
    vertex -13.282384814924727 -46.90099744178162 18.50000000000004
  endloop
endfacet
facet normal 4.109927393665875e-16 -3.205253246238546e-16 1.0
  outer loop
    vertex -13.282384814924727 -46.90099744178162 18.50000000000004
    vertex -0.07663675664651877 -75.01332009332596 18.500000000000004
    vertex -11.12663675664651 -47.113320093325925 18.50000000000004
  endloop
endfacet
facet normal 4.109927393665875e-16 -3.205253246238546e-16 1.0
  outer loop
    vertex -11.12663675664651 -47.113320093325925 18.50000000000004
    vertex -0.07663675664651877 -75.01332009332596 18.500000000000004
    vertex -8.970888698368293 -46.90099744178163 18.50000000000004
  endloop
endfacet
facet normal 4.109927393665875e-16 -3.205253246238546e-16 1.0
  outer loop
    vertex -8.970888698368293 -46.90099744178163 18.50000000000004
    vertex -0.07663675664651877 -75.01332009332596 18.500000000000004
    vertex -6.897984829012268 -46.27218892757565 18.50000000000004
  endloop
endfacet
facet normal 4.109927393665875e-16 -3.205253246238546e-16 1.0
  outer loop
    vertex -6.897984829012268 -46.27218892757565 18.50000000000004
    vertex -0.07663675664651877 -75.01332009332596 18.500000000000004
    vertex -4.9875856817799145 -45.25105930926906 18.50000000000004
  endloop
endfacet
facet normal 4.109927393665875e-16 -3.205253246238546e-16 1.0
  outer loop
    vertex -4.9875856817799145 -45.25105930926906 18.50000000000004
    vertex -0.07663675664651877 -75.01332009332596 18.500000000000004
    vertex -3.3131068245351676 -43.876850025437285 18.50000000000004
  endloop
endfacet
facet normal 4.109927393665875e-16 -3.205253246238546e-16 1.0
  outer loop
    vertex -3.3131068245351676 -43.876850025437285 18.50000000000004
    vertex -0.07663675664651877 -75.01332009332596 18.500000000000004
    vertex -1.9388975407033906 -42.20237116819254 18.50000000000004
  endloop
endfacet
facet normal 4.109927393665875e-16 -3.205253246238546e-16 1.0
  outer loop
    vertex -1.9388975407033906 -42.20237116819254 18.50000000000004
    vertex -0.07663675664651877 -75.01332009332596 18.500000000000004
    vertex -0.9177679223968006 -40.29197202096019 18.50000000000004
  endloop
endfacet
facet normal 4.109927393665875e-16 -3.205253246238546e-16 1.0
  outer loop
    vertex -0.9177679223968006 -40.29197202096019 18.50000000000004
    vertex -0.07663675664651877 -75.01332009332596 18.500000000000004
    vertex -0.288959408190821 -38.21906815160417 18.50000000000004
  endloop
endfacet
facet normal 4.109927393665875e-16 -3.205253246238546e-16 1.0
  outer loop
    vertex -0.288959408190821 -38.21906815160417 18.50000000000004
    vertex -0.07663675664651877 -75.01332009332596 18.500000000000004
    vertex -0.07663675664651487 -36.06332009332594 18.50000000000004
  endloop
endfacet
facet normal 4.109927393665875e-16 -3.205253246238546e-16 1.0
  outer loop
    vertex -50.076636756646494 -25.013320093325913 18.50000000000007
    vertex -13.282384814924711 -25.225642744870253 18.50000000000004
    vertex -11.126636756646498 -25.01332009332595 18.50000000000004
  endloop
endfacet
facet normal 4.109927393665875e-16 -3.205253246238546e-16 1.0
  outer loop
    vertex -13.282384814924711 -25.225642744870253 18.50000000000004
    vertex -50.076636756646494 -25.013320093325913 18.50000000000007
    vertex -15.355288684280735 -25.854451259076228 18.50000000000004
  endloop
endfacet
facet normal 4.109927393665875e-16 -3.205253246238546e-16 1.0
  outer loop
    vertex -15.355288684280735 -25.854451259076228 18.50000000000004
    vertex -50.076636756646494 -25.013320093325913 18.50000000000007
    vertex -17.26568783151309 -26.87558087738282 18.50000000000004
  endloop
endfacet
facet normal 4.109927393665875e-16 -3.205253246238546e-16 1.0
  outer loop
    vertex -17.26568783151309 -26.87558087738282 18.50000000000004
    vertex -50.076636756646494 -25.013320093325913 18.50000000000007
    vertex -18.94016668875784 -28.24979016121459 18.50000000000004
  endloop
endfacet
facet normal 4.109927393665875e-16 -3.205253246238546e-16 1.0
  outer loop
    vertex -18.94016668875784 -28.24979016121459 18.50000000000004
    vertex -50.076636756646494 -25.013320093325913 18.50000000000007
    vertex -20.31437597258962 -29.924269018459338 18.50000000000004
  endloop
endfacet
facet normal 4.109927393665875e-16 -3.205253246238546e-16 1.0
  outer loop
    vertex -20.31437597258962 -29.924269018459338 18.50000000000004
    vertex -50.076636756646494 -25.013320093325913 18.50000000000007
    vertex -21.335505590896208 -31.834668165691692 18.50000000000004
  endloop
endfacet
facet normal 4.109927393665875e-16 -3.205253246238546e-16 1.0
  outer loop
    vertex -21.335505590896208 -31.834668165691692 18.50000000000004
    vertex -50.076636756646494 -25.013320093325913 18.50000000000007
    vertex -21.964314105102186 -33.907572035047714 18.50000000000004
  endloop
endfacet
facet normal 4.109927393665875e-16 -3.205253246238546e-16 1.0
  outer loop
    vertex -21.964314105102186 -33.907572035047714 18.50000000000004
    vertex -50.076636756646494 -25.013320093325913 18.50000000000007
    vertex -22.17663675664649 -36.063320093325935 18.50000000000004
  endloop
endfacet
facet normal -0.707106781186548 -0.7071067811865471 4.4395654520572787e-16
  outer loop
    vertex -50.076636756646494 -25.013320093325913 18.50000000000007
    vertex -0.07663675664653533 -75.01332009332596 1.6934501181645413e-14
    vertex -0.07663675664651877 -75.01332009332596 18.500000000000004
  endloop
endfacet
facet normal -0.707106781186548 -0.7071067811865471 4.4395654520572787e-16
  outer loop
    vertex -0.07663675664653533 -75.01332009332596 1.6934501181645413e-14
    vertex -50.076636756646494 -25.013320093325913 18.50000000000007
    vertex -50.076636756646494 -25.013320093325913 8.571366736688372e-14
  endloop
endfacet
facet normal 0.999999478124244 -0.0010216414438970493 -4.4390412407630104e-16
  outer loop
    vertex -0.02555465779316551 -25.013320093325913 4.568025289852464e-14
    vertex -0.07663675664651877 -75.01332009332596 18.500000000000004
    vertex -0.07663675664653533 -75.01332009332596 1.6934501181645413e-14
  endloop
endfacet
facet normal 0.999999478124244 -0.0010216414438970493 -4.4390412407630104e-16
  outer loop
    vertex -0.07663675664651877 -75.01332009332596 18.500000000000004
    vertex -0.02555465779316551 -25.013320093325913 4.568025289852464e-14
    vertex -0.025554657793165646 -25.013320093325913 18.50000000000007
  endloop
endfacet
facet normal -1.6249049642803854e-15 -1.0581479152677445e-15 1.0
  outer loop
    vertex -0.025554657793165646 -25.013320093325913 18.50000000000007
    vertex -0.07663675664651487 -36.06332009332594 18.50000000000004
    vertex -0.07663675664651877 -75.01332009332596 18.500000000000004
  endloop
endfacet
facet normal -1.6249049642803854e-15 -1.0581479152677445e-15 1.0
  outer loop
    vertex -8.970888698368281 -25.225642744870257 18.50000000000004
    vertex -0.025554657793165646 -25.013320093325913 18.50000000000007
    vertex -11.126636756646498 -25.01332009332595 18.50000000000004
  endloop
endfacet
facet normal -1.6249049642803854e-15 -1.0581479152677445e-15 1.0
  outer loop
    vertex -0.025554657793165646 -25.013320093325913 18.50000000000007
    vertex -8.970888698368281 -25.225642744870257 18.50000000000004
    vertex -6.897984829012259 -25.85445125907623 18.50000000000004
  endloop
endfacet
facet normal -1.6249049642803854e-15 -1.0581479152677445e-15 1.0
  outer loop
    vertex -0.025554657793165646 -25.013320093325913 18.50000000000007
    vertex -6.897984829012259 -25.85445125907623 18.50000000000004
    vertex -4.987585681779899 -26.875580877382827 18.50000000000004
  endloop
endfacet
facet normal -1.6249049642803854e-15 -1.0581479152677445e-15 1.0
  outer loop
    vertex -0.025554657793165646 -25.013320093325913 18.50000000000007
    vertex -4.987585681779899 -26.875580877382827 18.50000000000004
    vertex -3.3131068245351565 -28.2497901612146 18.50000000000004
  endloop
endfacet
facet normal -1.6249049642803854e-15 -1.0581479152677445e-15 1.0
  outer loop
    vertex -0.025554657793165646 -25.013320093325913 18.50000000000007
    vertex -3.3131068245351565 -28.2497901612146 18.50000000000004
    vertex -1.938897540703385 -29.924269018459345 18.50000000000004
  endloop
endfacet
facet normal -1.6249049642803854e-15 -1.0581479152677445e-15 1.0
  outer loop
    vertex -0.025554657793165646 -25.013320093325913 18.50000000000007
    vertex -1.938897540703385 -29.924269018459345 18.50000000000004
    vertex -0.9177679223967921 -31.834668165691703 18.50000000000004
  endloop
endfacet
facet normal -1.6249049642803854e-15 -1.0581479152677445e-15 1.0
  outer loop
    vertex -0.025554657793165646 -25.013320093325913 18.50000000000007
    vertex -0.9177679223967921 -31.834668165691703 18.50000000000004
    vertex -0.2889594081908168 -33.90757203504773 18.50000000000004
  endloop
endfacet
facet normal -1.6249049642803854e-15 -1.0581479152677445e-15 1.0
  outer loop
    vertex -0.025554657793165646 -25.013320093325913 18.50000000000007
    vertex -0.2889594081908168 -33.90757203504773 18.50000000000004
    vertex -0.07663675664651487 -36.06332009332594 18.50000000000004
  endloop
endfacet
endsolid Нижний Уголок-С-подшипником
