solid Ручка-для-фрез
facet normal -0.9725103539708152 -0.1280334170298603 0.1945020707941631
  outer loop
    vertex -4.82962913144534 -1.294095225512602 70.0
    vertex -7.0 0.0 59.99999999999999
    vertex -6.761480784023478 -1.8117333157176438 59.99999999999999
  endloop
endfacet
facet normal -0.9725103539708152 -0.1280334170298603 0.1945020707941631
  outer loop
    vertex -7.0 0.0 59.99999999999999
    vertex -4.82962913144534 -1.294095225512602 70.0
    vertex -4.999999999999998 1.4099832412739487e-15 70.0
  endloop
endfacet
facet normal -0.7782019634671927 0.5971353686665933 0.1945020707941632
  outer loop
    vertex -3.535533905932736 3.5355339059327364 70.0
    vertex -6.06217782649107 3.5000000000000004 59.99999999999999
    vertex -4.330127018922192 2.4999999999999982 70.0
  endloop
endfacet
facet normal -0.7782019634671927 0.5971353686665933 0.1945020707941632
  outer loop
    vertex -6.06217782649107 3.5000000000000004 59.99999999999999
    vertex -3.535533905932736 3.5355339059327364 70.0
    vertex -4.949747468305833 4.949747468305833 59.99999999999999
  endloop
endfacet
facet normal -0.5971353686665937 0.7782019634671925 0.19450207079416312
  outer loop
    vertex -3.535533905932736 3.5355339059327364 70.0
    vertex -3.499999999999999 6.06217782649107 59.99999999999999
    vertex -4.949747468305833 4.949747468305833 59.99999999999999
  endloop
endfacet
facet normal -0.5971353686665937 0.7782019634671925 0.19450207079416312
  outer loop
    vertex -3.499999999999999 6.06217782649107 59.99999999999999
    vertex -3.535533905932736 3.5355339059327364 70.0
    vertex -2.499999999999999 4.330127018922192 70.0
  endloop
endfacet
facet normal -0.3753749853042209 0.906235380497053 0.1945020707941632
  outer loop
    vertex -2.499999999999999 4.330127018922192 70.0
    vertex -1.8117333157176452 6.761480784023478 59.99999999999999
    vertex -3.499999999999999 6.06217782649107 59.99999999999999
  endloop
endfacet
facet normal -0.3753749853042209 0.906235380497053 0.1945020707941632
  outer loop
    vertex -1.8117333157176452 6.761480784023478 59.99999999999999
    vertex -2.499999999999999 4.330127018922192 70.0
    vertex -1.2940952255125935 4.829629131445342 70.0
  endloop
endfacet
facet normal -3.0646337639858334e-61 -5.885818471639307e-46 1.0
  outer loop
    vertex -1.931851652578139 -0.517638090205037 75.0
    vertex -1.931851652578137 0.5176380902050456 75.0
    vertex -2.0000000000000018 4.229949723821846e-15 75.0
  endloop
endfacet
facet normal -3.0646337639858334e-61 -5.885818471639307e-46 1.0
  outer loop
    vertex -1.931851652578137 0.5176380902050456 75.0
    vertex -1.931851652578139 -0.517638090205037 75.0
    vertex -1.7320508075688812 -0.999999999999996 75.0
  endloop
endfacet
facet normal -3.0646337639858334e-61 -5.885818471639307e-46 1.0
  outer loop
    vertex -1.931851652578137 0.5176380902050456 75.0
    vertex -1.7320508075688812 -0.999999999999996 75.0
    vertex -1.732050807568877 1.0000000000000038 75.0
  endloop
endfacet
facet normal -3.0646337639858334e-61 -5.885818471639307e-46 1.0
  outer loop
    vertex -1.732050807568877 1.0000000000000038 75.0
    vertex -1.7320508075688812 -0.999999999999996 75.0
    vertex -1.4142135623730971 -1.4142135623730951 75.0
  endloop
endfacet
facet normal -3.0646337639858334e-61 -5.885818471639307e-46 1.0
  outer loop
    vertex -1.732050807568877 1.0000000000000038 75.0
    vertex -1.4142135623730971 -1.4142135623730951 75.0
    vertex -1.4142135623730943 1.4142135623730985 75.0
  endloop
endfacet
facet normal -3.0646337639858334e-61 -5.885818471639307e-46 1.0
  outer loop
    vertex -1.4142135623730943 1.4142135623730985 75.0
    vertex -1.4142135623730971 -1.4142135623730951 75.0
    vertex -1.0000000000000024 -1.7320508075688776 75.0
  endloop
endfacet
facet normal -3.0646337639858334e-61 -5.885818471639307e-46 1.0
  outer loop
    vertex -1.4142135623730943 1.4142135623730985 75.0
    vertex -1.0000000000000024 -1.7320508075688776 75.0
    vertex -0.9999999999999989 1.7320508075688799 75.0
  endloop
endfacet
facet normal -3.0646337639858334e-61 -5.885818471639307e-46 1.0
  outer loop
    vertex -0.9999999999999989 1.7320508075688799 75.0
    vertex -1.0000000000000024 -1.7320508075688776 75.0
    vertex -0.5176380902050441 -1.9318516525781377 75.0
  endloop
endfacet
facet normal -3.0646337639858334e-61 -5.885818471639307e-46 1.0
  outer loop
    vertex -0.9999999999999989 1.7320508075688799 75.0
    vertex -0.5176380902050441 -1.9318516525781377 75.0
    vertex -0.5176380902050413 1.9318516525781384 75.0
  endloop
endfacet
facet normal -3.0646337639858334e-61 -5.885818471639307e-46 1.0
  outer loop
    vertex -0.5176380902050413 1.9318516525781384 75.0
    vertex -0.5176380902050441 -1.9318516525781377 75.0
    vertex -1.4099832412739487e-15 -2.0000000000000013 75.0
  endloop
endfacet
facet normal -3.0646337639858334e-61 -5.885818471639307e-46 1.0
  outer loop
    vertex -0.5176380902050413 1.9318516525781384 75.0
    vertex -1.4099832412739487e-15 -2.0000000000000013 75.0
    vertex 1.4099832412739487e-15 2.0000000000000018 75.0
  endloop
endfacet
facet normal -3.0646337639858334e-61 -5.885818471639307e-46 1.0
  outer loop
    vertex 1.4099832412739487e-15 2.0000000000000018 75.0
    vertex -1.4099832412739487e-15 -2.0000000000000013 75.0
    vertex 0.5176380902050399 -1.9318516525781384 75.0
  endloop
endfacet
facet normal -3.0646337639858334e-61 -5.885818471639307e-46 1.0
  outer loop
    vertex 1.4099832412739487e-15 2.0000000000000018 75.0
    vertex 0.5176380902050399 -1.9318516525781384 75.0
    vertex 0.5176380902050427 1.9318516525781384 75.0
  endloop
endfacet
facet normal -3.0646337639858334e-61 -5.885818471639307e-46 1.0
  outer loop
    vertex 0.5176380902050427 1.9318516525781384 75.0
    vertex 0.5176380902050399 -1.9318516525781384 75.0
    vertex 0.9999999999999996 -1.7320508075688799 75.0
  endloop
endfacet
facet normal -3.0646337639858334e-61 -5.885818471639307e-46 1.0
  outer loop
    vertex 0.5176380902050427 1.9318516525781384 75.0
    vertex 0.9999999999999996 -1.7320508075688799 75.0
    vertex 1.0000000000000009 1.7320508075688783 75.0
  endloop
endfacet
facet normal -3.0646337639858334e-61 -5.885818471639307e-46 1.0
  outer loop
    vertex 1.0000000000000009 1.7320508075688783 75.0
    vertex 0.9999999999999996 -1.7320508075688799 75.0
    vertex 1.4142135623730943 -1.4142135623730978 75.0
  endloop
endfacet
facet normal -3.0646337639858334e-61 -5.885818471639307e-46 1.0
  outer loop
    vertex 1.0000000000000009 1.7320508075688783 75.0
    vertex 1.4142135623730943 -1.4142135623730978 75.0
    vertex 1.4142135623730971 1.4142135623730958 75.0
  endloop
endfacet
facet normal -3.0646337639858334e-61 -5.885818471639307e-46 1.0
  outer loop
    vertex 1.4142135623730971 1.4142135623730958 75.0
    vertex 1.4142135623730943 -1.4142135623730978 75.0
    vertex 1.732050807568877 -1.0000000000000024 75.0
  endloop
endfacet
facet normal -3.0646337639858334e-61 -5.885818471639307e-46 1.0
  outer loop
    vertex 1.4142135623730971 1.4142135623730958 75.0
    vertex 1.732050807568877 -1.0000000000000024 75.0
    vertex 1.7320508075688799 0.9999999999999996 75.0
  endloop
endfacet
facet normal -3.0646337639858334e-61 -5.885818471639307e-46 1.0
  outer loop
    vertex 1.7320508075688799 0.9999999999999996 75.0
    vertex 1.732050807568877 -1.0000000000000024 75.0
    vertex 1.931851652578137 -0.5176380902050441 75.0
  endloop
endfacet
facet normal -3.0646337639858334e-61 -5.885818471639307e-46 1.0
  outer loop
    vertex 1.7320508075688799 0.9999999999999996 75.0
    vertex 1.931851652578137 -0.5176380902050441 75.0
    vertex 1.9318516525781384 0.5176380902050413 75.0
  endloop
endfacet
facet normal -3.0646337639858334e-61 -5.885818471639307e-46 1.0
  outer loop
    vertex 1.9318516525781384 0.5176380902050413 75.0
    vertex 1.931851652578137 -0.5176380902050441 75.0
    vertex 2.0000000000000018 -1.4099832412739487e-15 75.0
  endloop
endfacet
facet normal -0.6818340877581925 -0.5231896968608758 0.5112482937571318
  outer loop
    vertex -1.4142135623730971 -1.4142135623730951 75.0
    vertex -4.330127018922192 -2.4999999999999973 70.0
    vertex -3.5355339059327364 -3.535533905932735 70.0
  endloop
endfacet
facet normal -0.6818340877581925 -0.5231896968608758 0.5112482937571318
  outer loop
    vertex -4.330127018922192 -2.4999999999999973 70.0
    vertex -1.4142135623730971 -1.4142135623730951 75.0
    vertex -1.7320508075688812 -0.999999999999996 75.0
  endloop
endfacet
facet normal -0.7940126123588944 -0.3288907927343446 0.5112482937571319
  outer loop
    vertex -1.7320508075688812 -0.999999999999996 75.0
    vertex -4.82962913144534 -1.294095225512602 70.0
    vertex -4.330127018922192 -2.4999999999999973 70.0
  endloop
endfacet
facet normal -0.7940126123588944 -0.3288907927343446 0.5112482937571319
  outer loop
    vertex -4.82962913144534 -1.294095225512602 70.0
    vertex -1.7320508075688812 -0.999999999999996 75.0
    vertex -1.931851652578139 -0.517638090205037 75.0
  endloop
endfacet
facet normal -0.8520804895952209 -0.11217852460070171 0.5112482937571318
  outer loop
    vertex -1.931851652578139 -0.517638090205037 75.0
    vertex -4.999999999999998 1.4099832412739487e-15 70.0
    vertex -4.82962913144534 -1.294095225512602 70.0
  endloop
endfacet
facet normal -0.8520804895952209 -0.11217852460070171 0.5112482937571318
  outer loop
    vertex -4.999999999999998 1.4099832412739487e-15 70.0
    vertex -1.931851652578139 -0.517638090205037 75.0
    vertex -2.0000000000000018 4.229949723821846e-15 75.0
  endloop
endfacet
facet normal -0.8520804895952209 0.11217852460070231 0.5112482937571317
  outer loop
    vertex -2.0000000000000018 4.229949723821846e-15 75.0
    vertex -4.829629131445339 1.294095225512604 70.0
    vertex -4.999999999999998 1.4099832412739487e-15 70.0
  endloop
endfacet
facet normal -0.8520804895952209 0.11217852460070231 0.5112482937571317
  outer loop
    vertex -4.829629131445339 1.294095225512604 70.0
    vertex -2.0000000000000018 4.229949723821846e-15 75.0
    vertex -1.931851652578137 0.5176380902050456 75.0
  endloop
endfacet
facet normal -0.794012612358894 0.3288907927343456 0.5112482937571319
  outer loop
    vertex -1.732050807568877 1.0000000000000038 75.0
    vertex -4.829629131445339 1.294095225512604 70.0
    vertex -1.931851652578137 0.5176380902050456 75.0
  endloop
endfacet
facet normal -0.794012612358894 0.3288907927343456 0.5112482937571319
  outer loop
    vertex -4.829629131445339 1.294095225512604 70.0
    vertex -1.732050807568877 1.0000000000000038 75.0
    vertex -4.330127018922192 2.4999999999999982 70.0
  endloop
endfacet
facet normal -0.6818340877581924 0.523189696860876 0.5112482937571318
  outer loop
    vertex -1.4142135623730943 1.4142135623730985 75.0
    vertex -4.330127018922192 2.4999999999999982 70.0
    vertex -1.732050807568877 1.0000000000000038 75.0
  endloop
endfacet
facet normal -0.6818340877581924 0.523189696860876 0.5112482937571318
  outer loop
    vertex -4.330127018922192 2.4999999999999982 70.0
    vertex -1.4142135623730943 1.4142135623730985 75.0
    vertex -3.535533905932736 3.5355339059327364 70.0
  endloop
endfacet
facet normal -0.5231896968608759 0.6818340877581923 0.5112482937571319
  outer loop
    vertex -1.4142135623730943 1.4142135623730985 75.0
    vertex -2.499999999999999 4.330127018922192 70.0
    vertex -3.535533905932736 3.5355339059327364 70.0
  endloop
endfacet
facet normal -0.5231896968608759 0.6818340877581923 0.5112482937571319
  outer loop
    vertex -2.499999999999999 4.330127018922192 70.0
    vertex -1.4142135623730943 1.4142135623730985 75.0
    vertex -0.9999999999999989 1.7320508075688799 75.0
  endloop
endfacet
facet normal -0.32889079273434363 0.794012612358895 0.5112482937571317
  outer loop
    vertex -0.9999999999999989 1.7320508075688799 75.0
    vertex -1.2940952255125935 4.829629131445342 70.0
    vertex -2.499999999999999 4.330127018922192 70.0
  endloop
endfacet
facet normal -0.32889079273434363 0.794012612358895 0.5112482937571317
  outer loop
    vertex -1.2940952255125935 4.829629131445342 70.0
    vertex -0.9999999999999989 1.7320508075688799 75.0
    vertex -0.5176380902050413 1.9318516525781384 75.0
  endloop
endfacet
facet normal -0.11217852460070048 0.8520804895952211 0.5112482937571318
  outer loop
    vertex -0.5176380902050413 1.9318516525781384 75.0
    vertex 8.459899447643692e-15 4.999999999999998 70.0
    vertex -1.2940952255125935 4.829629131445342 70.0
  endloop
endfacet
facet normal -0.11217852460070048 0.8520804895952211 0.5112482937571318
  outer loop
    vertex 8.459899447643692e-15 4.999999999999998 70.0
    vertex -0.5176380902050413 1.9318516525781384 75.0
    vertex 1.4099832412739487e-15 2.0000000000000018 75.0
  endloop
endfacet
facet normal 0.11217852460070306 0.8520804895952208 0.5112482937571317
  outer loop
    vertex 1.4099832412739487e-15 2.0000000000000018 75.0
    vertex 1.2940952255126097 4.829629131445338 70.0
    vertex 8.459899447643692e-15 4.999999999999998 70.0
  endloop
endfacet
facet normal 0.11217852460070306 0.8520804895952208 0.5112482937571317
  outer loop
    vertex 1.2940952255126097 4.829629131445338 70.0
    vertex 1.4099832412739487e-15 2.0000000000000018 75.0
    vertex 0.5176380902050427 1.9318516525781384 75.0
  endloop
endfacet
facet normal 0.3288907927343462 0.7940126123588939 0.5112482937571317
  outer loop
    vertex 0.5176380902050427 1.9318516525781384 75.0
    vertex 2.500000000000004 4.330127018922189 70.0
    vertex 1.2940952255126097 4.829629131445338 70.0
  endloop
endfacet
facet normal 0.3288907927343462 0.7940126123588939 0.5112482937571317
  outer loop
    vertex 2.500000000000004 4.330127018922189 70.0
    vertex 0.5176380902050427 1.9318516525781384 75.0
    vertex 1.0000000000000009 1.7320508075688783 75.0
  endloop
endfacet
facet normal 0.5231896968608764 0.6818340877581921 0.5112482937571318
  outer loop
    vertex 1.0000000000000009 1.7320508075688783 75.0
    vertex 3.5355339059327395 3.5355339059327338 70.0
    vertex 2.500000000000004 4.330127018922189 70.0
  endloop
endfacet
facet normal 0.5231896968608764 0.6818340877581921 0.5112482937571318
  outer loop
    vertex 3.5355339059327395 3.5355339059327338 70.0
    vertex 1.0000000000000009 1.7320508075688783 75.0
    vertex 1.4142135623730971 1.4142135623730958 75.0
  endloop
endfacet
facet normal 0.6818340877581925 0.5231896968608757 0.5112482937571317
  outer loop
    vertex 4.330127018922192 2.499999999999997 70.0
    vertex 1.4142135623730971 1.4142135623730958 75.0
    vertex 1.7320508075688799 0.9999999999999996 75.0
  endloop
endfacet
facet normal 0.6818340877581925 0.5231896968608757 0.5112482937571317
  outer loop
    vertex 1.4142135623730971 1.4142135623730958 75.0
    vertex 4.330127018922192 2.499999999999997 70.0
    vertex 3.5355339059327395 3.5355339059327338 70.0
  endloop
endfacet
facet normal 0.7940126123588943 0.32889079273434524 0.5112482937571318
  outer loop
    vertex 4.829629131445339 1.2940952255126026 70.0
    vertex 1.7320508075688799 0.9999999999999996 75.0
    vertex 1.9318516525781384 0.5176380902050413 75.0
  endloop
endfacet
facet normal 0.7940126123588943 0.32889079273434524 0.5112482937571318
  outer loop
    vertex 1.7320508075688799 0.9999999999999996 75.0
    vertex 4.829629131445339 1.2940952255126026 70.0
    vertex 4.330127018922192 2.499999999999997 70.0
  endloop
endfacet
facet normal 0.8520804895952209 0.11217852460070205 0.5112482937571317
  outer loop
    vertex 4.999999999999998 1.4099832412739487e-15 70.0
    vertex 1.9318516525781384 0.5176380902050413 75.0
    vertex 2.0000000000000018 -1.4099832412739487e-15 75.0
  endloop
endfacet
facet normal 0.8520804895952209 0.11217852460070205 0.5112482937571317
  outer loop
    vertex 1.9318516525781384 0.5176380902050413 75.0
    vertex 4.999999999999998 1.4099832412739487e-15 70.0
    vertex 4.829629131445339 1.2940952255126026 70.0
  endloop
endfacet
facet normal 0.8520804895952209 -0.11217852460070162 0.5112482937571318
  outer loop
    vertex 4.999999999999998 1.4099832412739487e-15 70.0
    vertex 1.931851652578137 -0.5176380902050441 75.0
    vertex 4.829629131445339 -1.2940952255126013 70.0
  endloop
endfacet
facet normal 0.8520804895952209 -0.11217852460070162 0.5112482937571318
  outer loop
    vertex 1.931851652578137 -0.5176380902050441 75.0
    vertex 4.999999999999998 1.4099832412739487e-15 70.0
    vertex 2.0000000000000018 -1.4099832412739487e-15 75.0
  endloop
endfacet
facet normal 0.7940126123588941 -0.3288907927343453 0.5112482937571317
  outer loop
    vertex 4.829629131445339 -1.2940952255126013 70.0
    vertex 1.732050807568877 -1.0000000000000024 75.0
    vertex 4.330127018922193 -2.499999999999996 70.0
  endloop
endfacet
facet normal 0.7940126123588941 -0.3288907927343453 0.5112482937571317
  outer loop
    vertex 1.732050807568877 -1.0000000000000024 75.0
    vertex 4.829629131445339 -1.2940952255126013 70.0
    vertex 1.931851652578137 -0.5176380902050441 75.0
  endloop
endfacet
facet normal 0.6818340877581924 -0.5231896968608758 0.5112482937571318
  outer loop
    vertex 4.330127018922193 -2.499999999999996 70.0
    vertex 1.4142135623730943 -1.4142135623730978 75.0
    vertex 3.5355339059327395 -3.5355339059327338 70.0
  endloop
endfacet
facet normal 0.6818340877581924 -0.5231896968608758 0.5112482937571318
  outer loop
    vertex 1.4142135623730943 -1.4142135623730978 75.0
    vertex 4.330127018922193 -2.499999999999996 70.0
    vertex 1.732050807568877 -1.0000000000000024 75.0
  endloop
endfacet
facet normal 0.5231896968608771 -0.6818340877581917 0.5112482937571315
  outer loop
    vertex 1.4142135623730943 -1.4142135623730978 75.0
    vertex 2.500000000000001 -4.33012701892219 70.0
    vertex 3.5355339059327395 -3.5355339059327338 70.0
  endloop
endfacet
facet normal 0.5231896968608771 -0.6818340877581917 0.5112482937571315
  outer loop
    vertex 2.500000000000001 -4.33012701892219 70.0
    vertex 1.4142135623730943 -1.4142135623730978 75.0
    vertex 0.9999999999999996 -1.7320508075688799 75.0
  endloop
endfacet
facet normal 0.32889079273434446 -0.7940126123588945 0.5112482937571315
  outer loop
    vertex 0.9999999999999996 -1.7320508075688799 75.0
    vertex 1.2940952255126055 -4.829629131445339 70.0
    vertex 2.500000000000001 -4.33012701892219 70.0
  endloop
endfacet
facet normal 0.32889079273434446 -0.7940126123588945 0.5112482937571315
  outer loop
    vertex 1.2940952255126055 -4.829629131445339 70.0
    vertex 0.9999999999999996 -1.7320508075688799 75.0
    vertex 0.5176380902050399 -1.9318516525781384 75.0
  endloop
endfacet
facet normal 0.11217852460070252 -0.8520804895952208 0.5112482937571317
  outer loop
    vertex 0.5176380902050399 -1.9318516525781384 75.0
    vertex 1.4099832412739487e-15 -4.999999999999998 70.0
    vertex 1.2940952255126055 -4.829629131445339 70.0
  endloop
endfacet
facet normal 0.11217852460070252 -0.8520804895952208 0.5112482937571317
  outer loop
    vertex 1.4099832412739487e-15 -4.999999999999998 70.0
    vertex 0.5176380902050399 -1.9318516525781384 75.0
    vertex -1.4099832412739487e-15 -2.0000000000000013 75.0
  endloop
endfacet
facet normal -0.11217852460070214 -0.8520804895952209 0.5112482937571317
  outer loop
    vertex -1.4099832412739487e-15 -2.0000000000000013 75.0
    vertex -1.2940952255126026 -4.829629131445339 70.0
    vertex 1.4099832412739487e-15 -4.999999999999998 70.0
  endloop
endfacet
facet normal -0.11217852460070214 -0.8520804895952209 0.5112482937571317
  outer loop
    vertex -1.2940952255126026 -4.829629131445339 70.0
    vertex -1.4099832412739487e-15 -2.0000000000000013 75.0
    vertex -0.5176380902050441 -1.9318516525781377 75.0
  endloop
endfacet
facet normal -0.32889079273434463 -0.7940126123588944 0.5112482937571317
  outer loop
    vertex -0.5176380902050441 -1.9318516525781377 75.0
    vertex -2.499999999999999 -4.330127018922192 70.0
    vertex -1.2940952255126026 -4.829629131445339 70.0
  endloop
endfacet
facet normal -0.32889079273434463 -0.7940126123588944 0.5112482937571317
  outer loop
    vertex -2.499999999999999 -4.330127018922192 70.0
    vertex -0.5176380902050441 -1.9318516525781377 75.0
    vertex -1.0000000000000024 -1.7320508075688776 75.0
  endloop
endfacet
facet normal -0.5231896968608768 -0.6818340877581915 0.5112482937571319
  outer loop
    vertex -1.0000000000000024 -1.7320508075688776 75.0
    vertex -3.5355339059327364 -3.535533905932735 70.0
    vertex -2.499999999999999 -4.330127018922192 70.0
  endloop
endfacet
facet normal -0.5231896968608768 -0.6818340877581915 0.5112482937571319
  outer loop
    vertex -3.5355339059327364 -3.535533905932735 70.0
    vertex -1.0000000000000024 -1.7320508075688776 75.0
    vertex -1.4142135623730971 -1.4142135623730951 75.0
  endloop
endfacet
facet normal -0.9725103539708152 0.12803341702986037 0.19450207079416312
  outer loop
    vertex -4.999999999999998 1.4099832412739487e-15 70.0
    vertex -6.761480784023478 1.8117333157176467 59.99999999999999
    vertex -7.0 0.0 59.99999999999999
  endloop
endfacet
facet normal -0.9725103539708152 0.12803341702986037 0.19450207079416312
  outer loop
    vertex -6.761480784023478 1.8117333157176467 59.99999999999999
    vertex -4.999999999999998 1.4099832412739487e-15 70.0
    vertex -4.829629131445339 1.294095225512604 70.0
  endloop
endfacet
facet normal -0.9062353804970528 0.37537498530422164 0.19450207079416318
  outer loop
    vertex -4.330127018922192 2.4999999999999982 70.0
    vertex -6.761480784023478 1.8117333157176467 59.99999999999999
    vertex -4.829629131445339 1.294095225512604 70.0
  endloop
endfacet
facet normal -0.9062353804970528 0.37537498530422164 0.19450207079416318
  outer loop
    vertex -6.761480784023478 1.8117333157176467 59.99999999999999
    vertex -4.330127018922192 2.4999999999999982 70.0
    vertex -6.06217782649107 3.5000000000000004 59.99999999999999
  endloop
endfacet
facet normal -0.7782019634671925 -0.5971353686665936 0.19450207079416318
  outer loop
    vertex -3.5355339059327364 -3.535533905932735 70.0
    vertex -6.06217782649107 -3.4999999999999987 59.99999999999999
    vertex -4.949747468305833 -4.949747468305833 59.99999999999999
  endloop
endfacet
facet normal -0.7782019634671925 -0.5971353686665936 0.19450207079416318
  outer loop
    vertex -6.06217782649107 -3.4999999999999987 59.99999999999999
    vertex -3.5355339059327364 -3.535533905932735 70.0
    vertex -4.330127018922192 -2.4999999999999973 70.0
  endloop
endfacet
facet normal -0.9062353804970528 -0.37537498530422136 0.19450207079416312
  outer loop
    vertex -4.330127018922192 -2.4999999999999973 70.0
    vertex -6.761480784023478 -1.8117333157176438 59.99999999999999
    vertex -6.06217782649107 -3.4999999999999987 59.99999999999999
  endloop
endfacet
facet normal -0.9062353804970528 -0.37537498530422136 0.19450207079416312
  outer loop
    vertex -6.761480784023478 -1.8117333157176438 59.99999999999999
    vertex -4.330127018922192 -2.4999999999999973 70.0
    vertex -4.82962913144534 -1.294095225512602 70.0
  endloop
endfacet
facet normal -0.1280334170298603 -0.9725103539708152 0.19450207079416315
  outer loop
    vertex 1.4099832412739487e-15 -4.999999999999998 70.0
    vertex -1.8117333157176474 -6.761480784023478 59.99999999999999
    vertex -1.4099832412739487e-15 -7.0 59.99999999999999
  endloop
endfacet
facet normal -0.1280334170298603 -0.9725103539708152 0.19450207079416315
  outer loop
    vertex -1.8117333157176474 -6.761480784023478 59.99999999999999
    vertex 1.4099832412739487e-15 -4.999999999999998 70.0
    vertex -1.2940952255126026 -4.829629131445339 70.0
  endloop
endfacet
facet normal -0.37537498530422275 -0.9062353804970522 0.19450207079416304
  outer loop
    vertex -1.2940952255126026 -4.829629131445339 70.0
    vertex -3.5 -6.062177826491067 59.99999999999999
    vertex -1.8117333157176474 -6.761480784023478 59.99999999999999
  endloop
endfacet
facet normal -0.37537498530422275 -0.9062353804970522 0.19450207079416304
  outer loop
    vertex -3.5 -6.062177826491067 59.99999999999999
    vertex -1.2940952255126026 -4.829629131445339 70.0
    vertex -2.499999999999999 -4.330127018922192 70.0
  endloop
endfacet
facet normal -0.597135368666593 -0.7782019634671933 0.19450207079416307
  outer loop
    vertex -2.499999999999999 -4.330127018922192 70.0
    vertex -4.949747468305833 -4.949747468305833 59.99999999999999
    vertex -3.5 -6.062177826491067 59.99999999999999
  endloop
endfacet
facet normal -0.597135368666593 -0.7782019634671933 0.19450207079416307
  outer loop
    vertex -4.949747468305833 -4.949747468305833 59.99999999999999
    vertex -2.499999999999999 -4.330127018922192 70.0
    vertex -3.5355339059327364 -3.535533905932735 70.0
  endloop
endfacet
facet normal 0.5971353686665939 -0.7782019634671925 0.1945020707941631
  outer loop
    vertex 3.5355339059327395 -3.5355339059327338 70.0
    vertex 3.499999999999992 -6.062177826491075 59.99999999999999
    vertex 4.949747468305829 -4.949747468305835 59.99999999999999
  endloop
endfacet
facet normal 0.5971353686665939 -0.7782019634671925 0.1945020707941631
  outer loop
    vertex 3.499999999999992 -6.062177826491075 59.99999999999999
    vertex 3.5355339059327395 -3.5355339059327338 70.0
    vertex 2.500000000000001 -4.33012701892219 70.0
  endloop
endfacet
facet normal 0.3753749853042183 -0.9062353804970541 0.19450207079416287
  outer loop
    vertex 2.500000000000001 -4.33012701892219 70.0
    vertex 1.811733315717641 -6.761480784023471 59.99999999999999
    vertex 3.499999999999992 -6.062177826491075 59.99999999999999
  endloop
endfacet
facet normal 0.3753749853042183 -0.9062353804970541 0.19450207079416287
  outer loop
    vertex 1.811733315717641 -6.761480784023471 59.99999999999999
    vertex 2.500000000000001 -4.33012701892219 70.0
    vertex 1.2940952255126055 -4.829629131445339 70.0
  endloop
endfacet
facet normal 0.12803341702986323 -0.972510353970815 0.19450207079416282
  outer loop
    vertex 1.2940952255126055 -4.829629131445339 70.0
    vertex -1.4099832412739487e-15 -7.0 59.99999999999999
    vertex 1.811733315717641 -6.761480784023471 59.99999999999999
  endloop
endfacet
facet normal 0.12803341702986323 -0.972510353970815 0.19450207079416282
  outer loop
    vertex -1.4099832412739487e-15 -7.0 59.99999999999999
    vertex 1.2940952255126055 -4.829629131445339 70.0
    vertex 1.4099832412739487e-15 -4.999999999999998 70.0
  endloop
endfacet
facet normal 0.7782019634671925 -0.5971353686665937 0.194502070794163
  outer loop
    vertex 6.062177826491067 -3.5000000000000004 59.99999999999999
    vertex 3.5355339059327395 -3.5355339059327338 70.0
    vertex 4.949747468305829 -4.949747468305835 59.99999999999999
  endloop
endfacet
facet normal 0.7782019634671925 -0.5971353686665937 0.194502070794163
  outer loop
    vertex 3.5355339059327395 -3.5355339059327338 70.0
    vertex 6.062177826491067 -3.5000000000000004 59.99999999999999
    vertex 4.330127018922193 -2.499999999999996 70.0
  endloop
endfacet
facet normal 0.9725103539708152 0.12803341702986004 0.19450207079416318
  outer loop
    vertex 6.7614807840234805 1.8117333157176425 59.99999999999999
    vertex 4.999999999999998 1.4099832412739487e-15 70.0
    vertex 7.0 -2.8199664825478975e-15 59.99999999999999
  endloop
endfacet
facet normal 0.9725103539708152 0.12803341702986004 0.19450207079416318
  outer loop
    vertex 4.999999999999998 1.4099832412739487e-15 70.0
    vertex 6.7614807840234805 1.8117333157176425 59.99999999999999
    vertex 4.829629131445339 1.2940952255126026 70.0
  endloop
endfacet
facet normal 0.9725103539708152 -0.1280334170298604 0.19450207079416315
  outer loop
    vertex 7.0 -2.8199664825478975e-15 59.99999999999999
    vertex 4.829629131445339 -1.2940952255126013 70.0
    vertex 6.761480784023475 -1.8117333157176552 59.99999999999999
  endloop
endfacet
facet normal 0.9725103539708152 -0.1280334170298604 0.19450207079416315
  outer loop
    vertex 4.829629131445339 -1.2940952255126013 70.0
    vertex 7.0 -2.8199664825478975e-15 59.99999999999999
    vertex 4.999999999999998 1.4099832412739487e-15 70.0
  endloop
endfacet
facet normal 0.9062353804970522 -0.3753749853042227 0.1945020707941632
  outer loop
    vertex 6.761480784023475 -1.8117333157176552 59.99999999999999
    vertex 4.330127018922193 -2.499999999999996 70.0
    vertex 6.062177826491067 -3.5000000000000004 59.99999999999999
  endloop
endfacet
facet normal 0.9062353804970522 -0.3753749853042227 0.1945020707941632
  outer loop
    vertex 4.330127018922193 -2.499999999999996 70.0
    vertex 6.761480784023475 -1.8117333157176552 59.99999999999999
    vertex 4.829629131445339 -1.2940952255126013 70.0
  endloop
endfacet
facet normal 0.7782019634671926 0.5971353686665936 0.19450207079416315
  outer loop
    vertex 6.062177826491073 3.499999999999995 59.99999999999999
    vertex 3.5355339059327395 3.5355339059327338 70.0
    vertex 4.330127018922192 2.499999999999997 70.0
  endloop
endfacet
facet normal 0.7782019634671926 0.5971353686665936 0.19450207079416315
  outer loop
    vertex 3.5355339059327395 3.5355339059327338 70.0
    vertex 6.062177826491073 3.499999999999995 59.99999999999999
    vertex 4.949747468305834 4.949747468305833 59.99999999999999
  endloop
endfacet
facet normal 0.906235380497053 0.375374985304221 0.1945020707941632
  outer loop
    vertex 6.7614807840234805 1.8117333157176425 59.99999999999999
    vertex 4.330127018922192 2.499999999999997 70.0
    vertex 4.829629131445339 1.2940952255126026 70.0
  endloop
endfacet
facet normal 0.906235380497053 0.375374985304221 0.1945020707941632
  outer loop
    vertex 4.330127018922192 2.499999999999997 70.0
    vertex 6.7614807840234805 1.8117333157176425 59.99999999999999
    vertex 6.062177826491073 3.499999999999995 59.99999999999999
  endloop
endfacet
facet normal 0.128033417029855 0.972510353970816 0.19450207079416257
  outer loop
    vertex 8.459899447643692e-15 4.999999999999998 70.0
    vertex 1.811733315717665 6.761480784023478 59.99999999999999
    vertex 0.0 6.999999999999986 59.99999999999999
  endloop
endfacet
facet normal 0.128033417029855 0.972510353970816 0.19450207079416257
  outer loop
    vertex 1.811733315717665 6.761480784023478 59.99999999999999
    vertex 8.459899447643692e-15 4.999999999999998 70.0
    vertex 1.2940952255126097 4.829629131445338 70.0
  endloop
endfacet
facet normal -0.12803341702985493 0.972510353970816 0.19450207079416248
  outer loop
    vertex -1.2940952255125935 4.829629131445342 70.0
    vertex 0.0 6.999999999999986 59.99999999999999
    vertex -1.8117333157176452 6.761480784023478 59.99999999999999
  endloop
endfacet
facet normal -0.12803341702985493 0.972510353970816 0.19450207079416248
  outer loop
    vertex 0.0 6.999999999999986 59.99999999999999
    vertex -1.2940952255125935 4.829629131445342 70.0
    vertex 8.459899447643692e-15 4.999999999999998 70.0
  endloop
endfacet
facet normal 0.3753749853042251 0.9062353804970511 0.19450207079416332
  outer loop
    vertex 1.2940952255126097 4.829629131445338 70.0
    vertex 3.5000000000000036 6.062177826491067 59.99999999999999
    vertex 1.811733315717665 6.761480784023478 59.99999999999999
  endloop
endfacet
facet normal 0.3753749853042251 0.9062353804970511 0.19450207079416332
  outer loop
    vertex 3.5000000000000036 6.062177826491067 59.99999999999999
    vertex 1.2940952255126097 4.829629131445338 70.0
    vertex 2.500000000000004 4.330127018922189 70.0
  endloop
endfacet
facet normal 0.5971353686665937 0.7782019634671926 0.1945020707941631
  outer loop
    vertex 2.500000000000004 4.330127018922189 70.0
    vertex 4.949747468305834 4.949747468305833 59.99999999999999
    vertex 3.5000000000000036 6.062177826491067 59.99999999999999
  endloop
endfacet
facet normal 0.5971353686665937 0.7782019634671926 0.1945020707941631
  outer loop
    vertex 4.949747468305834 4.949747468305833 59.99999999999999
    vertex 2.500000000000004 4.330127018922189 70.0
    vertex 3.5355339059327395 3.5355339059327338 70.0
  endloop
endfacet
facet normal 1.54175518664467e-30 -1.7581418795070833e-31 -1.0
  outer loop
    vertex -6.761480784023478 1.8117333157176467 59.99999999999999
    vertex -6.761480784023478 -1.8117333157176438 59.99999999999999
    vertex -7.0 0.0 59.99999999999999
  endloop
endfacet
facet normal 1.54175518664467e-30 -1.7581418795070833e-31 -1.0
  outer loop
    vertex -6.761480784023478 -1.8117333157176438 59.99999999999999
    vertex -6.761480784023478 1.8117333157176467 59.99999999999999
    vertex -6.06217782649107 3.5000000000000004 59.99999999999999
  endloop
endfacet
facet normal 1.54175518664467e-30 -1.7581418795070833e-31 -1.0
  outer loop
    vertex -6.761480784023478 -1.8117333157176438 59.99999999999999
    vertex -6.06217782649107 3.5000000000000004 59.99999999999999
    vertex -6.06217782649107 -3.4999999999999987 59.99999999999999
  endloop
endfacet
facet normal 1.54175518664467e-30 -1.7581418795070833e-31 -1.0
  outer loop
    vertex -6.06217782649107 -3.4999999999999987 59.99999999999999
    vertex -6.06217782649107 3.5000000000000004 59.99999999999999
    vertex -4.949747468305833 -4.949747468305833 59.99999999999999
  endloop
endfacet
facet normal 1.54175518664467e-30 -1.7581418795070833e-31 -1.0
  outer loop
    vertex -4.949747468305833 -4.949747468305833 59.99999999999999
    vertex -6.06217782649107 3.5000000000000004 59.99999999999999
    vertex -4.949747468305833 4.949747468305833 59.99999999999999
  endloop
endfacet
facet normal 1.54175518664467e-30 -1.7581418795070833e-31 -1.0
  outer loop
    vertex -4.949747468305833 -4.949747468305833 59.99999999999999
    vertex -4.949747468305833 4.949747468305833 59.99999999999999
    vertex -3.499999999999999 6.06217782649107 59.99999999999999
  endloop
endfacet
facet normal 1.54175518664467e-30 -1.7581418795070833e-31 -1.0
  outer loop
    vertex -4.949747468305833 -4.949747468305833 59.99999999999999
    vertex -3.499999999999999 6.06217782649107 59.99999999999999
    vertex -3.5 -6.062177826491067 59.99999999999999
  endloop
endfacet
facet normal 1.54175518664467e-30 -1.7581418795070833e-31 -1.0
  outer loop
    vertex -3.5 -6.062177826491067 59.99999999999999
    vertex -3.499999999999999 6.06217782649107 59.99999999999999
    vertex -1.8117333157176474 -6.761480784023478 59.99999999999999
  endloop
endfacet
facet normal 1.54175518664467e-30 -1.7581418795070833e-31 -1.0
  outer loop
    vertex -1.8117333157176474 -6.761480784023478 59.99999999999999
    vertex -3.499999999999999 6.06217782649107 59.99999999999999
    vertex -1.8117333157176452 6.761480784023478 59.99999999999999
  endloop
endfacet
facet normal 1.54175518664467e-30 -1.7581418795070833e-31 -1.0
  outer loop
    vertex -1.8117333157176474 -6.761480784023478 59.99999999999999
    vertex -1.8117333157176452 6.761480784023478 59.99999999999999
    vertex -1.4099832412739487e-15 -7.0 59.99999999999999
  endloop
endfacet
facet normal 1.54175518664467e-30 -1.7581418795070833e-31 -1.0
  outer loop
    vertex -1.4099832412739487e-15 -7.0 59.99999999999999
    vertex -1.8117333157176452 6.761480784023478 59.99999999999999
    vertex 0.0 6.999999999999986 59.99999999999999
  endloop
endfacet
facet normal 1.54175518664467e-30 -1.7581418795070833e-31 -1.0
  outer loop
    vertex -1.4099832412739487e-15 -7.0 59.99999999999999
    vertex 0.0 6.999999999999986 59.99999999999999
    vertex 1.811733315717641 -6.761480784023471 59.99999999999999
  endloop
endfacet
facet normal 1.54175518664467e-30 -1.7581418795070833e-31 -1.0
  outer loop
    vertex 1.811733315717641 -6.761480784023471 59.99999999999999
    vertex 0.0 6.999999999999986 59.99999999999999
    vertex 1.811733315717665 6.761480784023478 59.99999999999999
  endloop
endfacet
facet normal 1.54175518664467e-30 -1.7581418795070833e-31 -1.0
  outer loop
    vertex 1.811733315717641 -6.761480784023471 59.99999999999999
    vertex 1.811733315717665 6.761480784023478 59.99999999999999
    vertex 3.499999999999992 -6.062177826491075 59.99999999999999
  endloop
endfacet
facet normal 1.54175518664467e-30 -1.7581418795070833e-31 -1.0
  outer loop
    vertex 3.499999999999992 -6.062177826491075 59.99999999999999
    vertex 1.811733315717665 6.761480784023478 59.99999999999999
    vertex 3.5000000000000036 6.062177826491067 59.99999999999999
  endloop
endfacet
facet normal 1.54175518664467e-30 -1.7581418795070833e-31 -1.0
  outer loop
    vertex 3.499999999999992 -6.062177826491075 59.99999999999999
    vertex 3.5000000000000036 6.062177826491067 59.99999999999999
    vertex 4.949747468305829 -4.949747468305835 59.99999999999999
  endloop
endfacet
facet normal 1.54175518664467e-30 -1.7581418795070833e-31 -1.0
  outer loop
    vertex 4.949747468305829 -4.949747468305835 59.99999999999999
    vertex 3.5000000000000036 6.062177826491067 59.99999999999999
    vertex 4.949747468305834 4.949747468305833 59.99999999999999
  endloop
endfacet
facet normal 1.54175518664467e-30 -1.7581418795070833e-31 -1.0
  outer loop
    vertex 4.949747468305829 -4.949747468305835 59.99999999999999
    vertex 4.949747468305834 4.949747468305833 59.99999999999999
    vertex 6.062177826491067 -3.5000000000000004 59.99999999999999
  endloop
endfacet
facet normal 1.54175518664467e-30 -1.7581418795070833e-31 -1.0
  outer loop
    vertex 6.062177826491067 -3.5000000000000004 59.99999999999999
    vertex 4.949747468305834 4.949747468305833 59.99999999999999
    vertex 6.062177826491073 3.499999999999995 59.99999999999999
  endloop
endfacet
facet normal 1.54175518664467e-30 -1.7581418795070833e-31 -1.0
  outer loop
    vertex 6.062177826491067 -3.5000000000000004 59.99999999999999
    vertex 6.062177826491073 3.499999999999995 59.99999999999999
    vertex 6.761480784023475 -1.8117333157176552 59.99999999999999
  endloop
endfacet
facet normal 1.54175518664467e-30 -1.7581418795070833e-31 -1.0
  outer loop
    vertex 6.761480784023475 -1.8117333157176552 59.99999999999999
    vertex 6.062177826491073 3.499999999999995 59.99999999999999
    vertex 6.7614807840234805 1.8117333157176425 59.99999999999999
  endloop
endfacet
facet normal 1.54175518664467e-30 -1.7581418795070833e-31 -1.0
  outer loop
    vertex 6.761480784023475 -1.8117333157176552 59.99999999999999
    vertex 6.7614807840234805 1.8117333157176425 59.99999999999999
    vertex 7.0 -2.8199664825478975e-15 59.99999999999999
  endloop
endfacet
endsolid Ручка-для-фрез
