solid 2-CFe
facet normal -0.00014740649924492688 -0.9999999872007882 -6.220729624498386e-05
  outer loop
    vertex 16.50644635201684 13.95235233968566 4.90109947314919
    vertex 8.009293403829963 13.952076798262643 4.9006230518043425
    vertex 16.50662638066711 13.95237064625793 1.9010994786067643
  endloop
endfacet
facet normal -0.00014740649924492688 -0.9999999872007882 -6.220729624498386e-05
  outer loop
    vertex 16.50662638066711 13.95237064625793 1.9010994786067643
    vertex 0.5086196740706524 13.954934294652013 7.200095906548487
    vertex 0.5088658705175367 13.954457510926828 1.9000959662435797
  endloop
endfacet
facet normal -0.00014740649924492688 -0.9999999872007882 -6.220729624498386e-05
  outer loop
    vertex 0.5086196740706524 13.954934294652013 7.200095906548487
    vertex 16.50662638066711 13.95237064625793 1.9010994786067643
    vertex 8.009293403829963 13.952076798262643 4.9006230518043425
  endloop
endfacet
facet normal -0.00014740649924492688 -0.9999999872007882 -6.220729624498386e-05
  outer loop
    vertex 0.5086196740706524 13.954934294652013 7.200095906548487
    vertex 8.009293403829963 13.952076798262643 4.9006230518043425
    vertex 8.009227236033349 13.952571888560097 7.200622997566824
  endloop
endfacet
facet normal -3.2416455194951186e-05 0.9999999866759028 -0.00015999177446539506
  outer loop
    vertex 8.009248072987088 9.45244488187808 7.200607709252601
    vertex 16.50929336582458 9.452352446380822 4.900634259702428
    vertex 8.009293404138528 9.452076902266162 4.90060773913606
  endloop
endfacet
facet normal -3.2416455194951186e-05 0.9999999866759028 -0.00015999177446539506
  outer loop
    vertex 16.50929336582458 9.452352446380822 4.900634259702428
    vertex 8.009248072987088 9.45244488187808 7.200607709252601
    vertex 16.50924803467314 9.452720425992737 7.200634229818968
  endloop
endfacet
facet normal 0.00014499113578809664 0.9999999860183049 8.331242987360377e-05
  outer loop
    vertex 0.5098312717784117 10.55480718832957 7.200085132799962
    vertex 16.50662638128425 10.552370646533783 1.9010688532701987
    vertex 0.5100566315801244 10.554457515289924 1.900085168140997
  endloop
endfacet
facet normal 0.00014499113578809664 0.9999999860183049 8.331242987360377e-05
  outer loop
    vertex 16.50662638128425 10.552370646533783 1.9010688532701987
    vertex 0.5098312717784117 10.55480718832957 7.200085132799962
    vertex 8.0092934044471 10.5520767985385 4.900592426467777
  endloop
endfacet
facet normal 0.00014499113578809664 0.9999999860183049 8.331242987360377e-05
  outer loop
    vertex 8.0092934044471 10.5520767985385 4.900592426467777
    vertex 0.5098312717784117 10.55480718832957 7.200085132799962
    vertex 8.009248073295659 10.552444778150418 7.2005923965843195
  endloop
endfacet
facet normal 0.00014499113578809664 0.9999999860183049 8.331242987360377e-05
  outer loop
    vertex 16.506446352633976 10.552352339961512 4.901068847812625
    vertex 16.50662638128425 10.552370646533783 1.9010688532701987
    vertex 8.0092934044471 10.5520767985385 4.900592426467777
  endloop
endfacet
facet normal -1.600185367160275e-05 0.0003138234126763425 0.999999950629402
  outer loop
    vertex 16.50644635201684 13.95235233968566 4.90109947314919
    vertex 8.009293404138528 15.052076694534984 4.90060773913606
    vertex 8.009293403829963 13.952076798262643 4.9006230518043425
  endloop
endfacet
facet normal -1.600185367160275e-05 0.0003138234126763425 0.999999950629402
  outer loop
    vertex 8.009293404138528 15.052076694534984 4.90060773913606
    vertex 16.50644635201684 13.95235233968566 4.90109947314919
    vertex 16.508235417478506 15.052352238649643 4.900424402968936
  endloop
endfacet
facet normal 3.2425632766773754e-05 -0.9999999763063753 0.0002152575838835978
  outer loop
    vertex 16.50816924968189 15.052847328947099 7.200424348731417
    vertex 8.009293404138528 15.052076694534984 4.90060773913606
    vertex 16.508235417478506 15.052352238649643 4.900424402968936
  endloop
endfacet
facet normal 3.2425632766773754e-05 -0.9999999763063753 0.0002152575838835978
  outer loop
    vertex 8.009293404138528 15.052076694534984 4.90060773913606
    vertex 16.50816924968189 15.052847328947099 7.200424348731417
    vertex 8.009227236341916 15.05257178483244 7.200607684898542
  endloop
endfacet
facet normal 0.9999999998057738 -6.154740344115804e-12 1.9709196531706806e-05
  outer loop
    vertex 8.0092934044471 10.5520767985385 4.900592426467777
    vertex 8.009248072987088 9.45244488187808 7.200607709252601
    vertex 8.009293404138528 9.452076902266162 4.90060773913606
  endloop
endfacet
facet normal 0.9999999998057738 -6.154740344115804e-12 1.9709196531706806e-05
  outer loop
    vertex 8.009248072987088 9.45244488187808 7.200607709252601
    vertex 8.0092934044471 10.5520767985385 4.900592426467777
    vertex 8.009248073295659 10.552444778150418 7.2005923965843195
  endloop
endfacet
facet normal 0.9999999995861837 1.1996162662302896e-10 2.876860786392329e-05
  outer loop
    vertex 8.009293404138528 15.052076694534984 4.90060773913606
    vertex 8.009227236033349 13.952571888560097 7.200622997566824
    vertex 8.009293403829963 13.952076798262643 4.9006230518043425
  endloop
endfacet
facet normal 0.9999999995861837 1.1996162662302896e-10 2.876860786392329e-05
  outer loop
    vertex 8.009227236033349 13.952571888560097 7.200622997566824
    vertex 8.009293404138528 15.052076694534984 4.90060773913606
    vertex 8.009227236341916 15.05257178483244 7.200607684898542
  endloop
endfacet
facet normal -6.0009550090383544e-05 -6.102190756374335e-06 0.9999999981808085
  outer loop
    vertex 0.5100566315801244 10.554457515289924 1.900085168140997
    vertex 16.50662638066711 13.95237064625793 1.9010994786067643
    vertex 0.5088658705175367 13.954457510926828 1.9000959662435797
  endloop
endfacet
facet normal -6.0009550090383544e-05 -6.102190756374335e-06 0.9999999981808085
  outer loop
    vertex 16.50662638066711 13.95237064625793 1.9010994786067643
    vertex 0.5100566315801244 10.554457515289924 1.900085168140997
    vertex 16.50662638128425 10.552370646533783 1.9010688532701987
  endloop
endfacet
facet normal -2.999338254599304e-05 -0.0001906185750737587 0.9999999813824779
  outer loop
    vertex 16.50929336582458 9.452352446380822 4.900634259702428
    vertex 8.0092934044471 10.5520767985385 4.900592426467777
    vertex 8.009293404138528 9.452076902266162 4.90060773913606
  endloop
endfacet
facet normal -2.999338254599304e-05 -0.0001906185750737587 0.9999999813824779
  outer loop
    vertex 8.0092934044471 10.5520767985385 4.900592426467777
    vertex 16.50929336582458 9.452352446380822 4.900634259702428
    vertex 16.506446352633976 10.552352339961512 4.901068847812625
  endloop
endfacet
facet normal 0.0 -1.0 0.0
  outer loop
    vertex 16.508692784898805 8.53510126933392 9.000371147907366
    vertex 0.5086927848988085 8.53510126933392 0.40037114790736505
    vertex 16.508692784898805 8.53510126933392 0.40037114790736505
  endloop
endfacet
facet normal 0.0 -1.0 0.0
  outer loop
    vertex 0.5086927848988085 8.53510126933392 0.40037114790736505
    vertex 16.508692784898805 8.53510126933392 9.000371147907366
    vertex 0.5086927848988085 8.53510126933392 9.000371147907366
  endloop
endfacet
facet normal -1.0 0.0 0.0
  outer loop
    vertex 0.5086927848988085 8.53510126933392 9.000371147907366
    vertex 0.5098312717784117 10.55480718832957 7.200085132799962
    vertex 0.5086927848988085 8.53510126933392 0.40037114790736505
  endloop
endfacet
facet normal -1.0 0.0 0.0
  outer loop
    vertex 0.5098312717784117 10.55480718832957 7.200085132799962
    vertex 0.5086927848988085 8.53510126933392 9.000371147907366
    vertex 0.5086927848988085 24.13510126933392 9.000371147907366
  endloop
endfacet
facet normal -1.0 0.0 0.0
  outer loop
    vertex 0.5086927848988085 8.53510126933392 0.40037114790736505
    vertex 0.5098312717784117 10.55480718832957 7.200085132799962
    vertex 0.5100566315801244 10.554457515289924 1.900085168140997
  endloop
endfacet
facet normal -1.0 0.0 0.0
  outer loop
    vertex 0.5098312717784117 10.55480718832957 7.200085132799962
    vertex 0.5086927848988085 24.13510126933392 9.000371147907366
    vertex 0.5086196740706524 13.954934294652013 7.200095906548487
  endloop
endfacet
facet normal -1.0 0.0 0.0
  outer loop
    vertex 0.5086196740706524 13.954934294652013 7.200095906548487
    vertex 0.5086927848988085 24.13510126933392 9.000371147907366
    vertex 0.509831271778413 18.55480718832957 7.200085132799962
  endloop
endfacet
facet normal -1.0 0.0 0.0
  outer loop
    vertex 0.5086196740706524 13.954934294652013 7.200095906548487
    vertex 0.509831271778413 18.55480718832957 7.200085132799962
    vertex 0.5100566315801257 18.554457515289926 1.900085168140997
  endloop
endfacet
facet normal -1.0 0.0 0.0
  outer loop
    vertex 0.509831271778413 18.55480718832957 7.200085132799962
    vertex 0.5086927848988085 24.13510126933392 9.000371147907366
    vertex 0.5086196740706538 21.954934294652013 7.200095906548487
  endloop
endfacet
facet normal -1.0 0.0 0.0
  outer loop
    vertex 0.5100566315801244 10.554457515289924 1.900085168140997
    vertex 0.5086927848988085 24.13510126933392 0.40037114790736505
    vertex 0.5086927848988085 8.53510126933392 0.40037114790736505
  endloop
endfacet
facet normal -1.0 0.0 0.0
  outer loop
    vertex 0.5086927848988085 24.13510126933392 0.40037114790736505
    vertex 0.5100566315801244 10.554457515289924 1.900085168140997
    vertex 0.5088658705175367 13.954457510926828 1.9000959662435797
  endloop
endfacet
facet normal -1.0 0.0 0.0
  outer loop
    vertex 0.5086927848988085 24.13510126933392 0.40037114790736505
    vertex 0.5088658705175367 13.954457510926828 1.9000959662435797
    vertex 0.5100566315801257 18.554457515289926 1.900085168140997
  endloop
endfacet
facet normal -1.0 0.0 0.0
  outer loop
    vertex 0.5100566315801257 18.554457515289926 1.900085168140997
    vertex 0.5088658705175367 13.954457510926828 1.9000959662435797
    vertex 0.5086196740706524 13.954934294652013 7.200095906548487
  endloop
endfacet
facet normal -1.0 0.0 0.0
  outer loop
    vertex 0.5086927848988085 24.13510126933392 0.40037114790736505
    vertex 0.5100566315801257 18.554457515289926 1.900085168140997
    vertex 0.5088658705175381 21.954457510926826 1.9000959662435797
  endloop
endfacet
facet normal -1.0 0.0 0.0
  outer loop
    vertex 0.5086927848988085 24.13510126933392 0.40037114790736505
    vertex 0.5088658705175381 21.954457510926826 1.9000959662435797
    vertex 0.5086196740706538 21.954934294652013 7.200095906548487
  endloop
endfacet
facet normal -1.0 0.0 0.0
  outer loop
    vertex 0.5086927848988085 24.13510126933392 0.40037114790736505
    vertex 0.5086196740706538 21.954934294652013 7.200095906548487
    vertex 0.5086927848988085 24.13510126933392 9.000371147907366
  endloop
endfacet
facet normal 2.620881000703031e-05 -1.2071441573374977e-05 -0.9999999995836895
  outer loop
    vertex 8.009227236033349 13.952571888560097 7.200622997566824
    vertex 0.5098312717784117 10.55480718832957 7.200085132799962
    vertex 0.5086196740706524 13.954934294652013 7.200095906548487
  endloop
endfacet
facet normal 2.620881000703031e-05 -1.2071441573374977e-05 -0.9999999995836895
  outer loop
    vertex 0.5098312717784117 10.55480718832957 7.200085132799962
    vertex 8.009227236033349 13.952571888560097 7.200622997566824
    vertex 8.009248073295659 10.552444778150418 7.2005923965843195
  endloop
endfacet
facet normal 2.620881000703031e-05 -1.2071441573374977e-05 -0.9999999995836895
  outer loop
    vertex 8.009248073295659 10.552444778150418 7.2005923965843195
    vertex 8.009227236033349 13.952571888560097 7.200622997566824
    vertex 8.009227236341916 15.05257178483244 7.200607684898542
  endloop
endfacet
facet normal 2.620881000703031e-05 -1.2071441573374977e-05 -0.9999999995836895
  outer loop
    vertex 8.009248073295659 10.552444778150418 7.2005923965843195
    vertex 8.009227236341916 15.05257178483244 7.200607684898542
    vertex 16.50816924968189 15.052847328947099 7.200424348731417
  endloop
endfacet
facet normal 2.620881000703031e-05 -1.2071441573374977e-05 -0.9999999995836895
  outer loop
    vertex 8.009248073295659 10.552444778150418 7.2005923965843195
    vertex 16.50924803467314 9.452720425992737 7.200634229818968
    vertex 8.009248072987088 9.45244488187808 7.200607709252601
  endloop
endfacet
facet normal 2.620881000703031e-05 -1.2071441573374977e-05 -0.9999999995836895
  outer loop
    vertex 16.50924803467314 9.452720425992737 7.200634229818968
    vertex 8.009248073295659 10.552444778150418 7.2005923965843195
    vertex 16.50816924968189 15.052847328947099 7.200424348731417
  endloop
endfacet
facet normal 1.0 -0.0 -0.0
  outer loop
    vertex 16.508692784898805 8.53510126933392 0.40037114790736505
    vertex 16.50929336582458 9.452352446380822 4.900634259702428
    vertex 16.508692784898805 8.53510126933392 9.000371147907366
  endloop
endfacet
facet normal 1.0 -0.0 -0.0
  outer loop
    vertex 16.50929336582458 9.452352446380822 4.900634259702428
    vertex 16.508692784898805 8.53510126933392 0.40037114790736505
    vertex 16.50662638128425 10.552370646533783 1.9010688532701987
  endloop
endfacet
facet normal 1.0 -0.0 -0.0
  outer loop
    vertex 16.50662638128425 10.552370646533783 1.9010688532701987
    vertex 16.508692784898805 8.53510126933392 0.40037114790736505
    vertex 16.508692784898805 24.13510126933392 0.40037114790736505
  endloop
endfacet
facet normal 1.0 -0.0 -0.0
  outer loop
    vertex 16.50929336582458 9.452352446380822 4.900634259702428
    vertex 16.50662638128425 10.552370646533783 1.9010688532701987
    vertex 16.506446352633976 10.552352339961512 4.901068847812625
  endloop
endfacet
facet normal 1.0 -0.0 -0.0
  outer loop
    vertex 16.50662638128425 10.552370646533783 1.9010688532701987
    vertex 16.508692784898805 24.13510126933392 0.40037114790736505
    vertex 16.50662638066711 13.95237064625793 1.9010994786067643
  endloop
endfacet
facet normal 1.0 -0.0 -0.0
  outer loop
    vertex 16.50662638066711 13.95237064625793 1.9010994786067643
    vertex 16.508692784898805 24.13510126933392 0.40037114790736505
    vertex 16.50662638128425 18.55237064653378 1.9010688532701987
  endloop
endfacet
facet normal 1.0 -0.0 -0.0
  outer loop
    vertex 16.50662638066711 13.95237064625793 1.9010994786067643
    vertex 16.50662638128425 18.55237064653378 1.9010688532701987
    vertex 16.508235417478506 15.052352238649643 4.900424402968936
  endloop
endfacet
facet normal 1.0 -0.0 -0.0
  outer loop
    vertex 16.508235417478506 15.052352238649643 4.900424402968936
    vertex 16.50662638128425 18.55237064653378 1.9010688532701987
    vertex 16.50816924968189 15.052847328947099 7.200424348731417
  endloop
endfacet
facet normal 1.0 -0.0 -0.0
  outer loop
    vertex 16.50816924968189 15.052847328947099 7.200424348731417
    vertex 16.50662638128425 18.55237064653378 1.9010688532701987
    vertex 16.50929336582458 17.45235244638082 4.900634259702428
  endloop
endfacet
facet normal 1.0 -0.0 -0.0
  outer loop
    vertex 16.50929336582458 17.45235244638082 4.900634259702428
    vertex 16.50662638128425 18.55237064653378 1.9010688532701987
    vertex 16.506446352633976 18.552352339961512 4.901068847812625
  endloop
endfacet
facet normal 1.0 -0.0 -0.0
  outer loop
    vertex 16.50662638128425 18.55237064653378 1.9010688532701987
    vertex 16.508692784898805 24.13510126933392 0.40037114790736505
    vertex 16.50662638066711 21.95237064625793 1.9010994786067643
  endloop
endfacet
facet normal 1.0 -0.0 -0.0
  outer loop
    vertex 16.50662638066711 21.95237064625793 1.9010994786067643
    vertex 16.508692784898805 24.13510126933392 0.40037114790736505
    vertex 16.508235417478506 23.052352238649643 4.900424402968936
  endloop
endfacet
facet normal 1.0 -0.0 -0.0
  outer loop
    vertex 16.508235417478506 23.052352238649643 4.900424402968936
    vertex 16.508692784898805 24.13510126933392 0.40037114790736505
    vertex 16.50816924968189 23.0528473289471 7.200424348731417
  endloop
endfacet
facet normal 1.0 -0.0 -0.0
  outer loop
    vertex 16.508692784898805 8.53510126933392 9.000371147907366
    vertex 16.50924803467314 9.452720425992737 7.200634229818968
    vertex 16.508692784898805 24.13510126933392 9.000371147907366
  endloop
endfacet
facet normal 1.0 -0.0 -0.0
  outer loop
    vertex 16.50924803467314 9.452720425992737 7.200634229818968
    vertex 16.508692784898805 8.53510126933392 9.000371147907366
    vertex 16.50929336582458 9.452352446380822 4.900634259702428
  endloop
endfacet
facet normal 1.0 -0.0 -0.0
  outer loop
    vertex 16.508692784898805 24.13510126933392 9.000371147907366
    vertex 16.50924803467314 9.452720425992737 7.200634229818968
    vertex 16.50816924968189 15.052847328947099 7.200424348731417
  endloop
endfacet
facet normal 1.0 -0.0 -0.0
  outer loop
    vertex 16.508692784898805 24.13510126933392 9.000371147907366
    vertex 16.50816924968189 15.052847328947099 7.200424348731417
    vertex 16.50924803467314 17.452720425992737 7.200634229818968
  endloop
endfacet
facet normal 1.0 -0.0 -0.0
  outer loop
    vertex 16.50924803467314 17.452720425992737 7.200634229818968
    vertex 16.50816924968189 15.052847328947099 7.200424348731417
    vertex 16.50929336582458 17.45235244638082 4.900634259702428
  endloop
endfacet
facet normal 1.0 -0.0 -0.0
  outer loop
    vertex 16.508692784898805 24.13510126933392 9.000371147907366
    vertex 16.50924803467314 17.452720425992737 7.200634229818968
    vertex 16.50816924968189 23.0528473289471 7.200424348731417
  endloop
endfacet
facet normal 1.0 -0.0 -0.0
  outer loop
    vertex 16.508692784898805 24.13510126933392 9.000371147907366
    vertex 16.50816924968189 23.0528473289471 7.200424348731417
    vertex 16.508692784898805 24.13510126933392 0.40037114790736505
  endloop
endfacet
facet normal 1.0 -0.0 -0.0
  outer loop
    vertex 16.508235417478506 23.052352238649643 4.900424402968936
    vertex 16.50644635201684 21.95235233968566 4.90109947314919
    vertex 16.50662638066711 21.95237064625793 1.9010994786067643
  endloop
endfacet
facet normal 1.0 -0.0 -0.0
  outer loop
    vertex 16.508235417478506 15.052352238649643 4.900424402968936
    vertex 16.50644635201684 13.95235233968566 4.90109947314919
    vertex 16.50662638066711 13.95237064625793 1.9010994786067643
  endloop
endfacet
facet normal -6.0009550090383544e-05 -6.102190756374335e-06 0.9999999981808085
  outer loop
    vertex 0.5100566315801257 18.554457515289926 1.900085168140997
    vertex 16.50662638066711 21.95237064625793 1.9010994786067643
    vertex 0.5088658705175381 21.954457510926826 1.9000959662435797
  endloop
endfacet
facet normal -6.0009550090383544e-05 -6.102190756374335e-06 0.9999999981808085
  outer loop
    vertex 16.50662638066711 21.95237064625793 1.9010994786067643
    vertex 0.5100566315801257 18.554457515289926 1.900085168140997
    vertex 16.50662638128425 18.55237064653378 1.9010688532701987
  endloop
endfacet
facet normal -0.00014740649924492688 -0.9999999872007882 -6.220729624498386e-05
  outer loop
    vertex 16.50644635201684 21.95235233968566 4.90109947314919
    vertex 8.009293403829963 21.95207679826264 4.9006230518043425
    vertex 16.50662638066711 21.95237064625793 1.9010994786067643
  endloop
endfacet
facet normal -0.00014740649924492688 -0.9999999872007882 -6.220729624498386e-05
  outer loop
    vertex 16.50662638066711 21.95237064625793 1.9010994786067643
    vertex 0.5086196740706538 21.954934294652013 7.200095906548487
    vertex 0.5088658705175381 21.954457510926826 1.9000959662435797
  endloop
endfacet
facet normal -0.00014740649924492688 -0.9999999872007882 -6.220729624498386e-05
  outer loop
    vertex 0.5086196740706538 21.954934294652013 7.200095906548487
    vertex 16.50662638066711 21.95237064625793 1.9010994786067643
    vertex 8.009293403829963 21.95207679826264 4.9006230518043425
  endloop
endfacet
facet normal -0.00014740649924492688 -0.9999999872007882 -6.220729624498386e-05
  outer loop
    vertex 0.5086196740706538 21.954934294652013 7.200095906548487
    vertex 8.009293403829963 21.95207679826264 4.9006230518043425
    vertex 8.009227236033349 21.952571888560097 7.200622997566824
  endloop
endfacet
facet normal -3.241645519495118e-05 0.9999999866759026 -0.00015999177446539503
  outer loop
    vertex 8.009248072987088 17.45244488187808 7.200607709252601
    vertex 16.50929336582458 17.45235244638082 4.900634259702428
    vertex 8.009293404138528 17.45207690226616 4.90060773913606
  endloop
endfacet
facet normal -3.241645519495118e-05 0.9999999866759026 -0.00015999177446539503
  outer loop
    vertex 16.50929336582458 17.45235244638082 4.900634259702428
    vertex 8.009248072987088 17.45244488187808 7.200607709252601
    vertex 16.50924803467314 17.452720425992737 7.200634229818968
  endloop
endfacet
facet normal -1.600185367160275e-05 0.0003138234126763425 0.999999950629402
  outer loop
    vertex 16.50644635201684 21.95235233968566 4.90109947314919
    vertex 8.009293404138528 23.052076694534986 4.90060773913606
    vertex 8.009293403829963 21.95207679826264 4.9006230518043425
  endloop
endfacet
facet normal -1.600185367160275e-05 0.0003138234126763425 0.999999950629402
  outer loop
    vertex 8.009293404138528 23.052076694534986 4.90060773913606
    vertex 16.50644635201684 21.95235233968566 4.90109947314919
    vertex 16.508235417478506 23.052352238649643 4.900424402968936
  endloop
endfacet
facet normal 2.6208810007030302e-05 -1.2071441573374974e-05 -0.9999999995836892
  outer loop
    vertex 8.009227236033349 21.952571888560097 7.200622997566824
    vertex 0.509831271778413 18.55480718832957 7.200085132799962
    vertex 0.5086196740706538 21.954934294652013 7.200095906548487
  endloop
endfacet
facet normal 2.6208810007030302e-05 -1.2071441573374974e-05 -0.9999999995836892
  outer loop
    vertex 0.509831271778413 18.55480718832957 7.200085132799962
    vertex 8.009227236033349 21.952571888560097 7.200622997566824
    vertex 8.009248073295659 18.552444778150416 7.2005923965843195
  endloop
endfacet
facet normal 2.6208810007030302e-05 -1.2071441573374974e-05 -0.9999999995836892
  outer loop
    vertex 8.009248073295659 18.552444778150416 7.2005923965843195
    vertex 8.009227236033349 21.952571888560097 7.200622997566824
    vertex 8.009227236341916 23.052571784832438 7.200607684898542
  endloop
endfacet
facet normal 2.6208810007030302e-05 -1.2071441573374974e-05 -0.9999999995836892
  outer loop
    vertex 8.009248073295659 18.552444778150416 7.2005923965843195
    vertex 8.009227236341916 23.052571784832438 7.200607684898542
    vertex 16.50816924968189 23.0528473289471 7.200424348731417
  endloop
endfacet
facet normal 2.6208810007030302e-05 -1.2071441573374974e-05 -0.9999999995836892
  outer loop
    vertex 8.009248073295659 18.552444778150416 7.2005923965843195
    vertex 16.50924803467314 17.452720425992737 7.200634229818968
    vertex 8.009248072987088 17.45244488187808 7.200607709252601
  endloop
endfacet
facet normal 2.6208810007030302e-05 -1.2071441573374974e-05 -0.9999999995836892
  outer loop
    vertex 16.50924803467314 17.452720425992737 7.200634229818968
    vertex 8.009248073295659 18.552444778150416 7.2005923965843195
    vertex 16.50816924968189 23.0528473289471 7.200424348731417
  endloop
endfacet
facet normal 0.0 1.0 0.0
  outer loop
    vertex 0.5086927848988085 24.13510126933392 9.000371147907366
    vertex 16.508692784898805 24.13510126933392 0.40037114790736505
    vertex 0.5086927848988085 24.13510126933392 0.40037114790736505
  endloop
endfacet
facet normal 0.0 1.0 0.0
  outer loop
    vertex 16.508692784898805 24.13510126933392 0.40037114790736505
    vertex 0.5086927848988085 24.13510126933392 9.000371147907366
    vertex 16.508692784898805 24.13510126933392 9.000371147907366
  endloop
endfacet
facet normal 0.9999999995861837 1.1996162662302896e-10 2.876860786392329e-05
  outer loop
    vertex 8.009293404138528 23.052076694534986 4.90060773913606
    vertex 8.009227236033349 21.952571888560097 7.200622997566824
    vertex 8.009293403829963 21.95207679826264 4.9006230518043425
  endloop
endfacet
facet normal 0.9999999995861837 1.1996162662302896e-10 2.876860786392329e-05
  outer loop
    vertex 8.009227236033349 21.952571888560097 7.200622997566824
    vertex 8.009293404138528 23.052076694534986 4.90060773913606
    vertex 8.009227236341916 23.052571784832438 7.200607684898542
  endloop
endfacet
facet normal -2.9993382545993034e-05 -0.00019061857507375864 0.9999999813824777
  outer loop
    vertex 16.50929336582458 17.45235244638082 4.900634259702428
    vertex 8.0092934044471 18.5520767985385 4.900592426467777
    vertex 8.009293404138528 17.45207690226616 4.90060773913606
  endloop
endfacet
facet normal -2.9993382545993034e-05 -0.00019061857507375864 0.9999999813824777
  outer loop
    vertex 8.0092934044471 18.5520767985385 4.900592426467777
    vertex 16.50929336582458 17.45235244638082 4.900634259702428
    vertex 16.506446352633976 18.552352339961512 4.901068847812625
  endloop
endfacet
facet normal 0.0001449911357880966 0.9999999860183046 8.331242987360376e-05
  outer loop
    vertex 0.509831271778413 18.55480718832957 7.200085132799962
    vertex 16.50662638128425 18.55237064653378 1.9010688532701987
    vertex 0.5100566315801257 18.554457515289926 1.900085168140997
  endloop
endfacet
facet normal 0.0001449911357880966 0.9999999860183046 8.331242987360376e-05
  outer loop
    vertex 16.50662638128425 18.55237064653378 1.9010688532701987
    vertex 0.509831271778413 18.55480718832957 7.200085132799962
    vertex 8.0092934044471 18.5520767985385 4.900592426467777
  endloop
endfacet
facet normal 0.0001449911357880966 0.9999999860183046 8.331242987360376e-05
  outer loop
    vertex 8.0092934044471 18.5520767985385 4.900592426467777
    vertex 0.509831271778413 18.55480718832957 7.200085132799962
    vertex 8.009248073295659 18.552444778150416 7.2005923965843195
  endloop
endfacet
facet normal 0.0001449911357880966 0.9999999860183046 8.331242987360376e-05
  outer loop
    vertex 16.506446352633976 18.552352339961512 4.901068847812625
    vertex 16.50662638128425 18.55237064653378 1.9010688532701987
    vertex 8.0092934044471 18.5520767985385 4.900592426467777
  endloop
endfacet
facet normal 0.9999999998057738 -6.154740344115804e-12 1.9709196531706806e-05
  outer loop
    vertex 8.0092934044471 18.5520767985385 4.900592426467777
    vertex 8.009248072987088 17.45244488187808 7.200607709252601
    vertex 8.009293404138528 17.45207690226616 4.90060773913606
  endloop
endfacet
facet normal 0.9999999998057738 -6.154740344115804e-12 1.9709196531706806e-05
  outer loop
    vertex 8.009248072987088 17.45244488187808 7.200607709252601
    vertex 8.0092934044471 18.5520767985385 4.900592426467777
    vertex 8.009248073295659 18.552444778150416 7.2005923965843195
  endloop
endfacet
facet normal 3.2425632766773754e-05 -0.9999999763063753 0.0002152575838835978
  outer loop
    vertex 16.50816924968189 23.0528473289471 7.200424348731417
    vertex 8.009293404138528 23.052076694534986 4.90060773913606
    vertex 16.508235417478506 23.052352238649643 4.900424402968936
  endloop
endfacet
facet normal 3.2425632766773754e-05 -0.9999999763063753 0.0002152575838835978
  outer loop
    vertex 8.009293404138528 23.052076694534986 4.90060773913606
    vertex 16.50816924968189 23.0528473289471 7.200424348731417
    vertex 8.009227236341916 23.052571784832438 7.200607684898542
  endloop
endfacet
facet normal 0.0 0.0 -1.0
  outer loop
    vertex 16.508692784898805 24.13510126933392 0.40037114790736505
    vertex 0.5086927848988085 8.53510126933392 0.40037114790736505
    vertex 0.5086927848988085 24.13510126933392 0.40037114790736505
  endloop
endfacet
facet normal 0.0 0.0 -1.0
  outer loop
    vertex 0.5086927848988085 8.53510126933392 0.40037114790736505
    vertex 16.508692784898805 24.13510126933392 0.40037114790736505
    vertex 16.508692784898805 8.53510126933392 0.40037114790736505
  endloop
endfacet
facet normal 0.0 0.0 1.0
  outer loop
    vertex 16.508692784898805 8.53510126933392 9.000371147907366
    vertex 0.5086927848988085 24.13510126933392 9.000371147907366
    vertex 0.5086927848988085 8.53510126933392 9.000371147907366
  endloop
endfacet
facet normal 0.0 0.0 1.0
  outer loop
    vertex 0.5086927848988085 24.13510126933392 9.000371147907366
    vertex 16.508692784898805 8.53510126933392 9.000371147907366
    vertex 16.508692784898805 24.13510126933392 9.000371147907366
  endloop
endfacet
endsolid 2-CFe
