solid Hex-6.5
facet normal -0.0 -0.0 1.0
  outer loop
    vertex 0.0 -3.9259818304894574 20.0
    vertex -3.3999999999999995 1.9629909152447258 20.0
    vertex -3.3999999999999995 -1.9629909152447258 20.0
  endloop
endfacet
facet normal -0.0 -0.0 1.0
  outer loop
    vertex -3.3999999999999995 1.9629909152447258 20.0
    vertex 0.0 -3.9259818304894574 20.0
    vertex -1.3509996299037246 -0.7799999999999996 20.0
  endloop
endfacet
facet normal -0.0 -0.0 1.0
  outer loop
    vertex -3.3999999999999995 1.9629909152447258 20.0
    vertex -1.3509996299037246 -0.7799999999999996 20.0
    vertex -1.5068442890109468 -0.4037577103599318 20.0
  endloop
endfacet
facet normal -0.0 -0.0 1.0
  outer loop
    vertex -3.3999999999999995 1.9629909152447258 20.0
    vertex -1.5068442890109468 -0.4037577103599318 20.0
    vertex -1.56 1.9104490066698712e-16 20.0
  endloop
endfacet
facet normal -0.0 -0.0 1.0
  outer loop
    vertex -1.3509996299037246 -0.7799999999999996 20.0
    vertex 0.0 -3.9259818304894574 20.0
    vertex -1.1030865786510147 -1.1030865786510136 20.0
  endloop
endfacet
facet normal -0.0 -0.0 1.0
  outer loop
    vertex -1.1030865786510147 -1.1030865786510136 20.0
    vertex 0.0 -3.9259818304894574 20.0
    vertex -0.7800000000000007 -1.350999629903724 20.0
  endloop
endfacet
facet normal -0.0 -0.0 1.0
  outer loop
    vertex -0.7800000000000007 -1.350999629903724 20.0
    vertex 0.0 -3.9259818304894574 20.0
    vertex -0.4037577103599336 -1.5068442890109464 20.0
  endloop
endfacet
facet normal -0.0 -0.0 1.0
  outer loop
    vertex -0.4037577103599336 -1.5068442890109464 20.0
    vertex 0.0 -3.9259818304894574 20.0
    vertex -2.865673510004806e-16 -1.56 20.0
  endloop
endfacet
facet normal -0.0 -0.0 1.0
  outer loop
    vertex -2.865673510004806e-16 -1.56 20.0
    vertex 0.0 -3.9259818304894574 20.0
    vertex 0.4037577103599317 -1.5068442890109468 20.0
  endloop
endfacet
facet normal -0.0 -0.0 1.0
  outer loop
    vertex 0.4037577103599317 -1.5068442890109468 20.0
    vertex 0.0 -3.9259818304894574 20.0
    vertex 3.400000000000002 -1.9629909152447313 20.0
  endloop
endfacet
facet normal -0.0 -0.0 1.0
  outer loop
    vertex 0.4037577103599317 -1.5068442890109468 20.0
    vertex 3.400000000000002 -1.9629909152447313 20.0
    vertex 0.7799999999999989 -1.3509996299037248 20.0
  endloop
endfacet
facet normal -0.0 -0.0 1.0
  outer loop
    vertex 0.7799999999999989 -1.3509996299037248 20.0
    vertex 3.400000000000002 -1.9629909152447313 20.0
    vertex 1.1030865786510138 -1.1030865786510144 20.0
  endloop
endfacet
facet normal -0.0 -0.0 1.0
  outer loop
    vertex 1.1030865786510138 -1.1030865786510144 20.0
    vertex 3.400000000000002 -1.9629909152447313 20.0
    vertex 1.350999629903724 -0.7800000000000007 20.0
  endloop
endfacet
facet normal -0.0 -0.0 1.0
  outer loop
    vertex 1.350999629903724 -0.7800000000000007 20.0
    vertex 3.400000000000002 -1.9629909152447313 20.0
    vertex 1.5068442890109464 -0.40375771035993363 20.0
  endloop
endfacet
facet normal -0.0 -0.0 1.0
  outer loop
    vertex 1.5068442890109464 -0.40375771035993363 20.0
    vertex 3.400000000000002 -1.9629909152447313 20.0
    vertex 1.56 0.0 20.0
  endloop
endfacet
facet normal -0.0 -0.0 1.0
  outer loop
    vertex -3.3999999999999995 1.9629909152447258 20.0
    vertex -1.3509996299037241 0.7800000000000006 20.0
    vertex 0.0 3.9259818304894516 20.0
  endloop
endfacet
facet normal -0.0 -0.0 1.0
  outer loop
    vertex -1.3509996299037241 0.7800000000000006 20.0
    vertex -3.3999999999999995 1.9629909152447258 20.0
    vertex -1.5068442890109466 0.40375771035993285 20.0
  endloop
endfacet
facet normal -0.0 -0.0 1.0
  outer loop
    vertex -1.5068442890109466 0.40375771035993285 20.0
    vertex -3.3999999999999995 1.9629909152447258 20.0
    vertex -1.56 1.9104490066698712e-16 20.0
  endloop
endfacet
facet normal -0.0 -0.0 1.0
  outer loop
    vertex 0.0 3.9259818304894516 20.0
    vertex -1.3509996299037241 0.7800000000000006 20.0
    vertex -1.103086578651014 1.1030865786510142 20.0
  endloop
endfacet
facet normal -0.0 -0.0 1.0
  outer loop
    vertex 0.0 3.9259818304894516 20.0
    vertex -1.103086578651014 1.1030865786510142 20.0
    vertex -0.7799999999999997 1.3509996299037244 20.0
  endloop
endfacet
facet normal -0.0 -0.0 1.0
  outer loop
    vertex 0.0 3.9259818304894516 20.0
    vertex -0.7799999999999997 1.3509996299037244 20.0
    vertex -0.40375771035993224 1.5068442890109468 20.0
  endloop
endfacet
facet normal -0.0 -0.0 1.0
  outer loop
    vertex 0.0 3.9259818304894516 20.0
    vertex -0.40375771035993224 1.5068442890109468 20.0
    vertex 9.552245033349356e-17 1.56 20.0
  endloop
endfacet
facet normal -0.0 -0.0 1.0
  outer loop
    vertex 0.0 3.9259818304894516 20.0
    vertex 9.552245033349356e-17 1.56 20.0
    vertex 3.400000000000002 1.9629909152447258 20.0
  endloop
endfacet
facet normal -0.0 -0.0 1.0
  outer loop
    vertex 3.400000000000002 1.9629909152447258 20.0
    vertex 9.552245033349356e-17 1.56 20.0
    vertex 0.40375771035993274 1.5068442890109466 20.0
  endloop
endfacet
facet normal -0.0 -0.0 1.0
  outer loop
    vertex 3.400000000000002 1.9629909152447258 20.0
    vertex 0.40375771035993274 1.5068442890109466 20.0
    vertex 0.7800000000000002 1.3509996299037241 20.0
  endloop
endfacet
facet normal -0.0 -0.0 1.0
  outer loop
    vertex 3.400000000000002 1.9629909152447258 20.0
    vertex 0.7800000000000002 1.3509996299037241 20.0
    vertex 1.1030865786510142 1.1030865786510142 20.0
  endloop
endfacet
facet normal -0.0 -0.0 1.0
  outer loop
    vertex 3.400000000000002 1.9629909152447258 20.0
    vertex 1.1030865786510142 1.1030865786510142 20.0
    vertex 1.3509996299037244 0.7799999999999999 20.0
  endloop
endfacet
facet normal -0.0 -0.0 1.0
  outer loop
    vertex 3.400000000000002 1.9629909152447258 20.0
    vertex 1.3509996299037244 0.7799999999999999 20.0
    vertex 1.5068442890109468 0.4037577103599324 20.0
  endloop
endfacet
facet normal -0.0 -0.0 1.0
  outer loop
    vertex 3.400000000000002 1.9629909152447258 20.0
    vertex 1.5068442890109468 0.4037577103599324 20.0
    vertex 1.56 0.0 20.0
  endloop
endfacet
facet normal -0.0 -0.0 1.0
  outer loop
    vertex 3.400000000000002 1.9629909152447258 20.0
    vertex 1.56 0.0 20.0
    vertex 3.400000000000002 -1.9629909152447313 20.0
  endloop
endfacet
facet normal 1.0 0.0 0.0
  outer loop
    vertex 3.400000000000002 1.9629909152447258 0.0
    vertex 3.400000000000002 -1.9629909152447313 20.0
    vertex 3.400000000000002 -1.9629909152447313 0.0
  endloop
endfacet
facet normal 1.0 0.0 0.0
  outer loop
    vertex 3.400000000000002 -1.9629909152447313 20.0
    vertex 3.400000000000002 1.9629909152447258 0.0
    vertex 3.400000000000002 1.9629909152447258 20.0
  endloop
endfacet
facet normal 0.4999999999999994 -0.8660254037844389 0.0
  outer loop
    vertex 3.400000000000002 -1.9629909152447313 20.0
    vertex 0.0 -3.9259818304894574 0.0
    vertex 3.400000000000002 -1.9629909152447313 0.0
  endloop
endfacet
facet normal 0.4999999999999994 -0.8660254037844389 0.0
  outer loop
    vertex 0.0 -3.9259818304894574 0.0
    vertex 3.400000000000002 -1.9629909152447313 20.0
    vertex 0.0 -3.9259818304894574 20.0
  endloop
endfacet
facet normal -0.5000000000000008 -0.8660254037844382 -0.0
  outer loop
    vertex 0.0 -3.9259818304894574 20.0
    vertex -3.3999999999999995 -1.9629909152447258 0.0
    vertex 0.0 -3.9259818304894574 0.0
  endloop
endfacet
facet normal -0.5000000000000008 -0.8660254037844382 -0.0
  outer loop
    vertex -3.3999999999999995 -1.9629909152447258 0.0
    vertex 0.0 -3.9259818304894574 20.0
    vertex -3.3999999999999995 -1.9629909152447258 20.0
  endloop
endfacet
facet normal -1.0 0.0 0.0
  outer loop
    vertex -3.3999999999999995 1.9629909152447258 20.0
    vertex -3.3999999999999995 -1.9629909152447258 0.0
    vertex -3.3999999999999995 -1.9629909152447258 20.0
  endloop
endfacet
facet normal -1.0 0.0 0.0
  outer loop
    vertex -3.3999999999999995 -1.9629909152447258 0.0
    vertex -3.3999999999999995 1.9629909152447258 20.0
    vertex -3.3999999999999995 1.9629909152447258 0.0
  endloop
endfacet
facet normal -0.4999999999999997 0.8660254037844388 0.0
  outer loop
    vertex -3.3999999999999995 1.9629909152447258 20.0
    vertex 0.0 3.9259818304894516 0.0
    vertex -3.3999999999999995 1.9629909152447258 0.0
  endloop
endfacet
facet normal -0.4999999999999997 0.8660254037844388 0.0
  outer loop
    vertex 0.0 3.9259818304894516 0.0
    vertex -3.3999999999999995 1.9629909152447258 20.0
    vertex 0.0 3.9259818304894516 20.0
  endloop
endfacet
facet normal 0.4999999999999994 0.8660254037844389 0.0
  outer loop
    vertex 0.0 3.9259818304894516 20.0
    vertex 3.400000000000002 1.9629909152447258 0.0
    vertex 0.0 3.9259818304894516 0.0
  endloop
endfacet
facet normal 0.4999999999999994 0.8660254037844389 0.0
  outer loop
    vertex 3.400000000000002 1.9629909152447258 0.0
    vertex 0.0 3.9259818304894516 20.0
    vertex 3.400000000000002 1.9629909152447258 20.0
  endloop
endfacet
facet normal -0.13052619222005102 0.9914448613738106 0.0
  outer loop
    vertex -2.865673510004806e-16 -1.56 20.0
    vertex 0.4037577103599317 -1.5068442890109468 -10.0
    vertex -2.865673510004806e-16 -1.56 -10.0
  endloop
endfacet
facet normal -0.13052619222005102 0.9914448613738106 0.0
  outer loop
    vertex 0.4037577103599317 -1.5068442890109468 -10.0
    vertex -2.865673510004806e-16 -1.56 20.0
    vertex 0.4037577103599317 -1.5068442890109468 20.0
  endloop
endfacet
facet normal -0.3826834323650897 0.9238795325112868 0.0
  outer loop
    vertex 0.4037577103599317 -1.5068442890109468 20.0
    vertex 0.7799999999999989 -1.3509996299037248 -10.0
    vertex 0.4037577103599317 -1.5068442890109468 -10.0
  endloop
endfacet
facet normal -0.3826834323650897 0.9238795325112868 0.0
  outer loop
    vertex 0.7799999999999989 -1.3509996299037248 -10.0
    vertex 0.4037577103599317 -1.5068442890109468 20.0
    vertex 0.7799999999999989 -1.3509996299037248 20.0
  endloop
endfacet
facet normal -0.6087614290087201 0.7933533402912355 0.0
  outer loop
    vertex 0.7799999999999989 -1.3509996299037248 20.0
    vertex 1.1030865786510138 -1.1030865786510144 -10.0
    vertex 0.7799999999999989 -1.3509996299037248 -10.0
  endloop
endfacet
facet normal -0.6087614290087201 0.7933533402912355 0.0
  outer loop
    vertex 1.1030865786510138 -1.1030865786510144 -10.0
    vertex 0.7799999999999989 -1.3509996299037248 20.0
    vertex 1.1030865786510138 -1.1030865786510144 20.0
  endloop
endfacet
facet normal -0.7933533402912347 0.6087614290087211 0.0
  outer loop
    vertex 1.350999629903724 -0.7800000000000007 20.0
    vertex 1.1030865786510138 -1.1030865786510144 -10.0
    vertex 1.1030865786510138 -1.1030865786510144 20.0
  endloop
endfacet
facet normal -0.7933533402912347 0.6087614290087211 0.0
  outer loop
    vertex 1.1030865786510138 -1.1030865786510144 -10.0
    vertex 1.350999629903724 -0.7800000000000007 20.0
    vertex 1.350999629903724 -0.7800000000000007 -10.0
  endloop
endfacet
facet normal -0.9238795325112864 0.38268343236509045 0.0
  outer loop
    vertex 1.5068442890109464 -0.40375771035993363 20.0
    vertex 1.350999629903724 -0.7800000000000007 -10.0
    vertex 1.350999629903724 -0.7800000000000007 20.0
  endloop
endfacet
facet normal -0.9238795325112864 0.38268343236509045 0.0
  outer loop
    vertex 1.350999629903724 -0.7800000000000007 -10.0
    vertex 1.5068442890109464 -0.40375771035993363 20.0
    vertex 1.5068442890109464 -0.40375771035993363 -10.0
  endloop
endfacet
facet normal -0.9914448613738104 0.13052619222005174 0.0
  outer loop
    vertex 1.56 0.0 20.0
    vertex 1.5068442890109464 -0.40375771035993363 -10.0
    vertex 1.5068442890109464 -0.40375771035993363 20.0
  endloop
endfacet
facet normal -0.9914448613738104 0.13052619222005174 0.0
  outer loop
    vertex 1.5068442890109464 -0.40375771035993363 -10.0
    vertex 1.56 0.0 20.0
    vertex 1.56 1.5206962094540555e-47 -10.0
  endloop
endfacet
facet normal -0.9914448613738105 -0.1305261922200513 -0.0
  outer loop
    vertex 1.5068442890109468 0.4037577103599324 20.0
    vertex 1.56 1.5206962094540555e-47 -10.0
    vertex 1.56 0.0 20.0
  endloop
endfacet
facet normal -0.9914448613738105 -0.1305261922200513 -0.0
  outer loop
    vertex 1.56 1.5206962094540555e-47 -10.0
    vertex 1.5068442890109468 0.4037577103599324 20.0
    vertex 1.5068442890109468 0.4037577103599324 -10.0
  endloop
endfacet
facet normal -0.9238795325112867 -0.38268343236509017 -0.0
  outer loop
    vertex 1.3509996299037244 0.7799999999999999 20.0
    vertex 1.5068442890109468 0.4037577103599324 -10.0
    vertex 1.5068442890109468 0.4037577103599324 20.0
  endloop
endfacet
facet normal -0.9238795325112867 -0.38268343236509017 -0.0
  outer loop
    vertex 1.5068442890109468 0.4037577103599324 -10.0
    vertex 1.3509996299037244 0.7799999999999999 20.0
    vertex 1.3509996299037244 0.7799999999999999 -10.0
  endloop
endfacet
facet normal -0.7933533402912353 -0.6087614290087204 -0.0
  outer loop
    vertex 1.1030865786510142 1.1030865786510142 20.0
    vertex 1.3509996299037244 0.7799999999999999 -10.0
    vertex 1.3509996299037244 0.7799999999999999 20.0
  endloop
endfacet
facet normal -0.7933533402912353 -0.6087614290087204 -0.0
  outer loop
    vertex 1.3509996299037244 0.7799999999999999 -10.0
    vertex 1.1030865786510142 1.1030865786510142 20.0
    vertex 1.1030865786510142 1.1030865786510142 -10.0
  endloop
endfacet
facet normal -0.6087614290087205 -0.7933533402912354 -0.0
  outer loop
    vertex 1.1030865786510142 1.1030865786510142 20.0
    vertex 0.7800000000000002 1.3509996299037241 -10.0
    vertex 1.1030865786510142 1.1030865786510142 -10.0
  endloop
endfacet
facet normal -0.6087614290087205 -0.7933533402912354 -0.0
  outer loop
    vertex 0.7800000000000002 1.3509996299037241 -10.0
    vertex 1.1030865786510142 1.1030865786510142 20.0
    vertex 0.7800000000000002 1.3509996299037241 20.0
  endloop
endfacet
facet normal -0.38268343236509017 -0.9238795325112865 -0.0
  outer loop
    vertex 0.7800000000000002 1.3509996299037241 20.0
    vertex 0.40375771035993274 1.5068442890109466 -10.0
    vertex 0.7800000000000002 1.3509996299037241 -10.0
  endloop
endfacet
facet normal -0.38268343236509017 -0.9238795325112865 -0.0
  outer loop
    vertex 0.40375771035993274 1.5068442890109466 -10.0
    vertex 0.7800000000000002 1.3509996299037241 20.0
    vertex 0.40375771035993274 1.5068442890109466 20.0
  endloop
endfacet
facet normal -0.13052619222005163 -0.9914448613738104 -0.0
  outer loop
    vertex 0.40375771035993274 1.5068442890109466 20.0
    vertex 9.552245033349356e-17 1.56 -10.0
    vertex 0.40375771035993274 1.5068442890109466 -10.0
  endloop
endfacet
facet normal -0.13052619222005163 -0.9914448613738104 -0.0
  outer loop
    vertex 9.552245033349356e-17 1.56 -10.0
    vertex 0.40375771035993274 1.5068442890109466 20.0
    vertex 9.552245033349356e-17 1.56 20.0
  endloop
endfacet
facet normal 0.13052619222005132 -0.9914448613738105 0.0
  outer loop
    vertex 9.552245033349356e-17 1.56 20.0
    vertex -0.40375771035993224 1.5068442890109468 -10.0
    vertex 9.552245033349356e-17 1.56 -10.0
  endloop
endfacet
facet normal 0.13052619222005132 -0.9914448613738105 0.0
  outer loop
    vertex -0.40375771035993224 1.5068442890109468 -10.0
    vertex 9.552245033349356e-17 1.56 20.0
    vertex -0.40375771035993224 1.5068442890109468 20.0
  endloop
endfacet
facet normal 0.38268343236509017 -0.9238795325112865 0.0
  outer loop
    vertex -0.40375771035993224 1.5068442890109468 20.0
    vertex -0.7799999999999997 1.3509996299037244 -10.0
    vertex -0.40375771035993224 1.5068442890109468 -10.0
  endloop
endfacet
facet normal 0.38268343236509017 -0.9238795325112865 0.0
  outer loop
    vertex -0.7799999999999997 1.3509996299037244 -10.0
    vertex -0.40375771035993224 1.5068442890109468 20.0
    vertex -0.7799999999999997 1.3509996299037244 20.0
  endloop
endfacet
facet normal 0.6087614290087203 -0.7933533402912354 0.0
  outer loop
    vertex -0.7799999999999997 1.3509996299037244 20.0
    vertex -1.103086578651014 1.1030865786510142 -10.0
    vertex -0.7799999999999997 1.3509996299037244 -10.0
  endloop
endfacet
facet normal 0.6087614290087203 -0.7933533402912354 0.0
  outer loop
    vertex -1.103086578651014 1.1030865786510142 -10.0
    vertex -0.7799999999999997 1.3509996299037244 20.0
    vertex -1.103086578651014 1.1030865786510142 20.0
  endloop
endfacet
facet normal 0.7933533402912347 -0.6087614290087211 0.0
  outer loop
    vertex -1.103086578651014 1.1030865786510142 -10.0
    vertex -1.3509996299037241 0.7800000000000006 20.0
    vertex -1.3509996299037241 0.7800000000000006 -10.0
  endloop
endfacet
facet normal 0.7933533402912347 -0.6087614290087211 0.0
  outer loop
    vertex -1.3509996299037241 0.7800000000000006 20.0
    vertex -1.103086578651014 1.1030865786510142 -10.0
    vertex -1.103086578651014 1.1030865786510142 20.0
  endloop
endfacet
facet normal 0.9238795325112868 -0.38268343236509 0.0
  outer loop
    vertex -1.3509996299037241 0.7800000000000006 -10.0
    vertex -1.5068442890109466 0.40375771035993285 20.0
    vertex -1.5068442890109466 0.40375771035993285 -10.0
  endloop
endfacet
facet normal 0.9238795325112868 -0.38268343236509 0.0
  outer loop
    vertex -1.5068442890109466 0.40375771035993285 20.0
    vertex -1.3509996299037241 0.7800000000000006 -10.0
    vertex -1.3509996299037241 0.7800000000000006 20.0
  endloop
endfacet
facet normal 0.9914448613738104 -0.13052619222005163 0.0
  outer loop
    vertex -1.56 1.9104490066698715e-16 -10.0
    vertex -1.5068442890109466 0.40375771035993285 20.0
    vertex -1.56 1.9104490066698712e-16 20.0
  endloop
endfacet
facet normal 0.9914448613738104 -0.13052619222005163 0.0
  outer loop
    vertex -1.5068442890109466 0.40375771035993285 20.0
    vertex -1.56 1.9104490066698715e-16 -10.0
    vertex -1.5068442890109466 0.40375771035993285 -10.0
  endloop
endfacet
facet normal 0.9914448613738106 0.13052619222005102 0.0
  outer loop
    vertex -1.56 1.9104490066698715e-16 -10.0
    vertex -1.5068442890109468 -0.4037577103599318 20.0
    vertex -1.5068442890109468 -0.4037577103599318 -10.0
  endloop
endfacet
facet normal 0.9914448613738106 0.13052619222005102 0.0
  outer loop
    vertex -1.5068442890109468 -0.4037577103599318 20.0
    vertex -1.56 1.9104490066698715e-16 -10.0
    vertex -1.56 1.9104490066698712e-16 20.0
  endloop
endfacet
facet normal 0.9238795325112868 0.3826834323650899 0.0
  outer loop
    vertex -1.5068442890109468 -0.4037577103599318 -10.0
    vertex -1.3509996299037246 -0.7799999999999996 20.0
    vertex -1.3509996299037246 -0.7799999999999996 -10.0
  endloop
endfacet
facet normal 0.9238795325112868 0.3826834323650899 0.0
  outer loop
    vertex -1.3509996299037246 -0.7799999999999996 20.0
    vertex -1.5068442890109468 -0.4037577103599318 -10.0
    vertex -1.5068442890109468 -0.4037577103599318 20.0
  endloop
endfacet
facet normal 0.7933533402912354 0.6087614290087203 0.0
  outer loop
    vertex -1.3509996299037246 -0.7799999999999996 -10.0
    vertex -1.1030865786510147 -1.1030865786510136 20.0
    vertex -1.1030865786510147 -1.1030865786510136 -10.0
  endloop
endfacet
facet normal 0.7933533402912354 0.6087614290087203 0.0
  outer loop
    vertex -1.1030865786510147 -1.1030865786510136 20.0
    vertex -1.3509996299037246 -0.7799999999999996 -10.0
    vertex -1.3509996299037246 -0.7799999999999996 20.0
  endloop
endfacet
facet normal 0.6087614290087213 0.7933533402912347 0.0
  outer loop
    vertex -1.1030865786510147 -1.1030865786510136 20.0
    vertex -0.7800000000000007 -1.350999629903724 -10.0
    vertex -1.1030865786510147 -1.1030865786510136 -10.0
  endloop
endfacet
facet normal 0.6087614290087213 0.7933533402912347 0.0
  outer loop
    vertex -0.7800000000000007 -1.350999629903724 -10.0
    vertex -1.1030865786510147 -1.1030865786510136 20.0
    vertex -0.7800000000000007 -1.350999629903724 20.0
  endloop
endfacet
facet normal 0.3826834323650904 0.9238795325112865 0.0
  outer loop
    vertex -0.7800000000000007 -1.350999629903724 20.0
    vertex -0.4037577103599336 -1.5068442890109464 -10.0
    vertex -0.7800000000000007 -1.350999629903724 -10.0
  endloop
endfacet
facet normal 0.3826834323650904 0.9238795325112865 0.0
  outer loop
    vertex -0.4037577103599336 -1.5068442890109464 -10.0
    vertex -0.7800000000000007 -1.350999629903724 20.0
    vertex -0.4037577103599336 -1.5068442890109464 20.0
  endloop
endfacet
facet normal 0.13052619222005188 0.9914448613738105 0.0
  outer loop
    vertex -0.4037577103599336 -1.5068442890109464 20.0
    vertex -2.865673510004806e-16 -1.56 -10.0
    vertex -0.4037577103599336 -1.5068442890109464 -10.0
  endloop
endfacet
facet normal 0.13052619222005188 0.9914448613738105 0.0
  outer loop
    vertex -2.865673510004806e-16 -1.56 -10.0
    vertex -0.4037577103599336 -1.5068442890109464 20.0
    vertex -2.865673510004806e-16 -1.56 20.0
  endloop
endfacet
facet normal -3.2938151916482215e-31 2.9114973569033377e-31 -1.0
  outer loop
    vertex -1.2437211551865408 3.002608480661682 -10.0
    vertex -1.56 1.9104490066698715e-16 -10.0
    vertex -1.6249999999999991 2.8145825622994254 -10.0
  endloop
endfacet
facet normal -3.2938151916482215e-31 2.9114973569033377e-31 -1.0
  outer loop
    vertex -1.56 1.9104490066698715e-16 -10.0
    vertex -1.2437211551865408 3.002608480661682 -10.0
    vertex -1.5068442890109466 0.40375771035993285 -10.0
  endloop
endfacet
facet normal -3.2938151916482215e-31 2.9114973569033377e-31 -1.0
  outer loop
    vertex -1.5068442890109466 0.40375771035993285 -10.0
    vertex -1.2437211551865408 3.002608480661682 -10.0
    vertex -1.3509996299037241 0.7800000000000006 -10.0
  endloop
endfacet
facet normal -3.2938151916482215e-31 2.9114973569033377e-31 -1.0
  outer loop
    vertex -1.3509996299037241 0.7800000000000006 -10.0
    vertex -1.2437211551865408 3.002608480661682 -10.0
    vertex -1.103086578651014 1.1030865786510142 -10.0
  endloop
endfacet
facet normal -3.2938151916482215e-31 2.9114973569033377e-31 -1.0
  outer loop
    vertex -1.103086578651014 1.1030865786510142 -10.0
    vertex -1.2437211551865408 3.002608480661682 -10.0
    vertex -0.841161896583192 3.139258935439472 -10.0
  endloop
endfacet
facet normal -3.2938151916482215e-31 2.9114973569033377e-31 -1.0
  outer loop
    vertex -1.103086578651014 1.1030865786510142 -10.0
    vertex -0.841161896583192 3.139258935439472 -10.0
    vertex -0.7799999999999997 1.3509996299037244 -10.0
  endloop
endfacet
facet normal -3.2938151916482215e-31 2.9114973569033377e-31 -1.0
  outer loop
    vertex -0.7799999999999997 1.3509996299037244 -10.0
    vertex -0.841161896583192 3.139258935439472 -10.0
    vertex -0.4242101247151669 3.222195799464884 -10.0
  endloop
endfacet
facet normal -3.2938151916482215e-31 2.9114973569033377e-31 -1.0
  outer loop
    vertex -0.7799999999999997 1.3509996299037244 -10.0
    vertex -0.4242101247151669 3.222195799464884 -10.0
    vertex -0.40375771035993224 1.5068442890109468 -10.0
  endloop
endfacet
facet normal -3.2938151916482215e-31 2.9114973569033377e-31 -1.0
  outer loop
    vertex -0.40375771035993224 1.5068442890109468 -10.0
    vertex -0.4242101247151669 3.222195799464884 -10.0
    vertex 1.9900510486144486e-16 3.2499999999999996 -10.0
  endloop
endfacet
facet normal -3.2938151916482215e-31 2.9114973569033377e-31 -1.0
  outer loop
    vertex -0.40375771035993224 1.5068442890109468 -10.0
    vertex 1.9900510486144486e-16 3.2499999999999996 -10.0
    vertex 9.552245033349356e-17 1.56 -10.0
  endloop
endfacet
facet normal -3.2938151916482215e-31 2.9114973569033377e-31 -1.0
  outer loop
    vertex 9.552245033349356e-17 1.56 -10.0
    vertex 1.9900510486144486e-16 3.2499999999999996 -10.0
    vertex 0.40375771035993274 1.5068442890109466 -10.0
  endloop
endfacet
facet normal -3.2938151916482215e-31 2.9114973569033377e-31 -1.0
  outer loop
    vertex 0.40375771035993274 1.5068442890109466 -10.0
    vertex 1.9900510486144486e-16 3.2499999999999996 -10.0
    vertex 0.42421012471516806 3.2221957994648833 -10.0
  endloop
endfacet
facet normal -3.2938151916482215e-31 2.9114973569033377e-31 -1.0
  outer loop
    vertex 0.40375771035993274 1.5068442890109466 -10.0
    vertex 0.42421012471516806 3.2221957994648833 -10.0
    vertex 0.7800000000000002 1.3509996299037241 -10.0
  endloop
endfacet
facet normal -3.2938151916482215e-31 2.9114973569033377e-31 -1.0
  outer loop
    vertex 0.7800000000000002 1.3509996299037241 -10.0
    vertex 0.42421012471516806 3.2221957994648833 -10.0
    vertex 0.841161896583193 3.1392589354394715 -10.0
  endloop
endfacet
facet normal -3.2938151916482215e-31 2.9114973569033377e-31 -1.0
  outer loop
    vertex 0.7800000000000002 1.3509996299037241 -10.0
    vertex 0.841161896583193 3.1392589354394715 -10.0
    vertex 1.1030865786510142 1.1030865786510142 -10.0
  endloop
endfacet
facet normal -3.2938151916482215e-31 2.9114973569033377e-31 -1.0
  outer loop
    vertex 1.1030865786510142 1.1030865786510142 -10.0
    vertex 0.841161896583193 3.1392589354394715 -10.0
    vertex 1.243721155186542 3.0026084806616815 -10.0
  endloop
endfacet
facet normal -3.2938151916482215e-31 2.9114973569033377e-31 -1.0
  outer loop
    vertex 1.1030865786510142 1.1030865786510142 -10.0
    vertex 1.243721155186542 3.0026084806616815 -10.0
    vertex 1.3509996299037244 0.7799999999999999 -10.0
  endloop
endfacet
facet normal -3.2938151916482215e-31 2.9114973569033377e-31 -1.0
  outer loop
    vertex 1.3509996299037244 0.7799999999999999 -10.0
    vertex 1.243721155186542 3.0026084806616815 -10.0
    vertex 1.6250000000000002 2.8145825622994254 -10.0
  endloop
endfacet
facet normal -3.2938151916482215e-31 2.9114973569033377e-31 -1.0
  outer loop
    vertex 1.3509996299037244 0.7799999999999999 -10.0
    vertex 1.6250000000000002 2.8145825622994254 -10.0
    vertex 1.5068442890109468 0.4037577103599324 -10.0
  endloop
endfacet
facet normal -3.2938151916482215e-31 2.9114973569033377e-31 -1.0
  outer loop
    vertex 1.5068442890109468 0.4037577103599324 -10.0
    vertex 1.6250000000000002 2.8145825622994254 -10.0
    vertex 1.56 1.5206962094540555e-47 -10.0
  endloop
endfacet
facet normal -3.2938151916482215e-31 2.9114973569033377e-31 -1.0
  outer loop
    vertex 1.56 1.5206962094540555e-47 -10.0
    vertex 1.6250000000000002 2.8145825622994254 -10.0
    vertex 1.6249999999999973 -2.8145825622994267 -10.0
  endloop
endfacet
facet normal -3.2938151916482215e-31 2.9114973569033377e-31 -1.0
  outer loop
    vertex 1.6249999999999973 -2.8145825622994267 -10.0
    vertex 1.6250000000000002 2.8145825622994254 -10.0
    vertex 1.9784746442783394 -2.578398355946516 -10.0
  endloop
endfacet
facet normal -3.2938151916482215e-31 2.9114973569033377e-31 -1.0
  outer loop
    vertex 1.9784746442783394 -2.578398355946516 -10.0
    vertex 1.6250000000000002 2.8145825622994254 -10.0
    vertex 1.9784746442783419 2.578398355946514 -10.0
  endloop
endfacet
facet normal -3.2938151916482215e-31 2.9114973569033377e-31 -1.0
  outer loop
    vertex 1.9784746442783394 -2.578398355946516 -10.0
    vertex 1.9784746442783419 2.578398355946514 -10.0
    vertex 2.298097038856279 -2.29809703885628 -10.0
  endloop
endfacet
facet normal -3.2938151916482215e-31 2.9114973569033377e-31 -1.0
  outer loop
    vertex 2.298097038856279 -2.29809703885628 -10.0
    vertex 1.9784746442783419 2.578398355946514 -10.0
    vertex 2.2980970388562794 2.2980970388562794 -10.0
  endloop
endfacet
facet normal -3.2938151916482215e-31 2.9114973569033377e-31 -1.0
  outer loop
    vertex 2.298097038856279 -2.29809703885628 -10.0
    vertex 2.2980970388562794 2.2980970388562794 -10.0
    vertex 2.578398355946513 -1.9784746442783425 -10.0
  endloop
endfacet
facet normal -3.2938151916482215e-31 2.9114973569033377e-31 -1.0
  outer loop
    vertex 2.578398355946513 -1.9784746442783425 -10.0
    vertex 2.2980970388562794 2.2980970388562794 -10.0
    vertex 2.5783983559465145 1.9784746442783414 -10.0
  endloop
endfacet
facet normal -3.2938151916482215e-31 2.9114973569033377e-31 -1.0
  outer loop
    vertex 2.578398355946513 -1.9784746442783425 -10.0
    vertex 2.5783983559465145 1.9784746442783414 -10.0
    vertex 2.8145825622994245 -1.6250000000000013 -10.0
  endloop
endfacet
facet normal -3.2938151916482215e-31 2.9114973569033377e-31 -1.0
  outer loop
    vertex 2.8145825622994245 -1.6250000000000013 -10.0
    vertex 2.5783983559465145 1.9784746442783414 -10.0
    vertex 2.8145825622994254 1.6249999999999996 -10.0
  endloop
endfacet
facet normal -3.2938151916482215e-31 2.9114973569033377e-31 -1.0
  outer loop
    vertex 2.8145825622994245 -1.6250000000000013 -10.0
    vertex 2.8145825622994254 1.6249999999999996 -10.0
    vertex 3.002608480661681 -1.2437211551865437 -10.0
  endloop
endfacet
facet normal -3.2938151916482215e-31 2.9114973569033377e-31 -1.0
  outer loop
    vertex 3.002608480661681 -1.2437211551865437 -10.0
    vertex 2.8145825622994254 1.6249999999999996 -10.0
    vertex 3.0026084806616815 1.2437211551865417 -10.0
  endloop
endfacet
facet normal -3.2938151916482215e-31 2.9114973569033377e-31 -1.0
  outer loop
    vertex 3.002608480661681 -1.2437211551865437 -10.0
    vertex 3.0026084806616815 1.2437211551865417 -10.0
    vertex 3.139258935439471 -0.841161896583195 -10.0
  endloop
endfacet
facet normal -3.2938151916482215e-31 2.9114973569033377e-31 -1.0
  outer loop
    vertex 3.139258935439471 -0.841161896583195 -10.0
    vertex 3.0026084806616815 1.2437211551865417 -10.0
    vertex 3.139258935439472 0.8411618965831923 -10.0
  endloop
endfacet
facet normal -3.2938151916482215e-31 2.9114973569033377e-31 -1.0
  outer loop
    vertex 3.139258935439471 -0.841161896583195 -10.0
    vertex 3.139258935439472 0.8411618965831923 -10.0
    vertex 3.2221957994648833 -0.4242101247151708 -10.0
  endloop
endfacet
facet normal -3.2938151916482215e-31 2.9114973569033377e-31 -1.0
  outer loop
    vertex 3.2221957994648833 -0.4242101247151708 -10.0
    vertex 3.139258935439472 0.8411618965831923 -10.0
    vertex 3.2221957994648833 0.42421012471516756 -10.0
  endloop
endfacet
facet normal -3.2938151916482215e-31 2.9114973569033377e-31 -1.0
  outer loop
    vertex 3.2221957994648833 -0.4242101247151708 -10.0
    vertex 3.2221957994648833 0.42421012471516756 -10.0
    vertex 3.2499999999999996 0.0 -10.0
  endloop
endfacet
facet normal -3.2938151916482215e-31 2.9114973569033377e-31 -1.0
  outer loop
    vertex -3.2221957994648833 0.42421012471516895 -10.0
    vertex -3.222195799464884 -0.4242101247151667 -10.0
    vertex -3.2499999999999996 3.980102097228897e-16 -10.0
  endloop
endfacet
facet normal -3.2938151916482215e-31 2.9114973569033377e-31 -1.0
  outer loop
    vertex -3.222195799464884 -0.4242101247151667 -10.0
    vertex -3.2221957994648833 0.42421012471516895 -10.0
    vertex -3.139258935439472 -0.8411618965831911 -10.0
  endloop
endfacet
facet normal -3.2938151916482215e-31 2.9114973569033377e-31 -1.0
  outer loop
    vertex -3.139258935439472 -0.8411618965831911 -10.0
    vertex -3.2221957994648833 0.42421012471516895 -10.0
    vertex -3.1392589354394715 0.8411618965831932 -10.0
  endloop
endfacet
facet normal -3.2938151916482215e-31 2.9114973569033377e-31 -1.0
  outer loop
    vertex -3.139258935439472 -0.8411618965831911 -10.0
    vertex -3.1392589354394715 0.8411618965831932 -10.0
    vertex -3.0026084806616824 -1.24372115518654 -10.0
  endloop
endfacet
facet normal -3.2938151916482215e-31 2.9114973569033377e-31 -1.0
  outer loop
    vertex -3.0026084806616824 -1.24372115518654 -10.0
    vertex -3.1392589354394715 0.8411618965831932 -10.0
    vertex -3.0026084806616815 1.243721155186542 -10.0
  endloop
endfacet
facet normal -3.2938151916482215e-31 2.9114973569033377e-31 -1.0
  outer loop
    vertex -3.0026084806616824 -1.24372115518654 -10.0
    vertex -3.0026084806616815 1.243721155186542 -10.0
    vertex -2.814582562299426 -1.624999999999999 -10.0
  endloop
endfacet
facet normal -3.2938151916482215e-31 2.9114973569033377e-31 -1.0
  outer loop
    vertex -2.814582562299426 -1.624999999999999 -10.0
    vertex -3.0026084806616815 1.243721155186542 -10.0
    vertex -2.814582562299425 1.6250000000000009 -10.0
  endloop
endfacet
facet normal -3.2938151916482215e-31 2.9114973569033377e-31 -1.0
  outer loop
    vertex -2.814582562299426 -1.624999999999999 -10.0
    vertex -2.814582562299425 1.6250000000000009 -10.0
    vertex -2.5783983559465145 -1.9784746442783407 -10.0
  endloop
endfacet
facet normal -3.2938151916482215e-31 2.9114973569033377e-31 -1.0
  outer loop
    vertex -2.5783983559465145 -1.9784746442783407 -10.0
    vertex -2.814582562299425 1.6250000000000009 -10.0
    vertex -2.5783983559465136 1.9784746442783425 -10.0
  endloop
endfacet
facet normal -3.2938151916482215e-31 2.9114973569033377e-31 -1.0
  outer loop
    vertex -2.5783983559465145 -1.9784746442783407 -10.0
    vertex -2.5783983559465136 1.9784746442783425 -10.0
    vertex -2.2980970388562807 -2.2980970388562776 -10.0
  endloop
endfacet
facet normal -3.2938151916482215e-31 2.9114973569033377e-31 -1.0
  outer loop
    vertex -2.2980970388562807 -2.2980970388562776 -10.0
    vertex -2.5783983559465136 1.9784746442783425 -10.0
    vertex -2.2980970388562794 2.2980970388562794 -10.0
  endloop
endfacet
facet normal -3.2938151916482215e-31 2.9114973569033377e-31 -1.0
  outer loop
    vertex -2.2980970388562807 -2.2980970388562776 -10.0
    vertex -2.2980970388562794 2.2980970388562794 -10.0
    vertex -1.9784746442783425 -2.578398355946513 -10.0
  endloop
endfacet
facet normal -3.2938151916482215e-31 2.9114973569033377e-31 -1.0
  outer loop
    vertex -1.9784746442783425 -2.578398355946513 -10.0
    vertex -2.2980970388562794 2.2980970388562794 -10.0
    vertex -1.9784746442783407 2.5783983559465145 -10.0
  endloop
endfacet
facet normal -3.2938151916482215e-31 2.9114973569033377e-31 -1.0
  outer loop
    vertex -1.9784746442783425 -2.578398355946513 -10.0
    vertex -1.9784746442783407 2.5783983559465145 -10.0
    vertex -1.6250000000000013 -2.8145825622994245 -10.0
  endloop
endfacet
facet normal -3.2938151916482215e-31 2.9114973569033377e-31 -1.0
  outer loop
    vertex -1.6250000000000013 -2.8145825622994245 -10.0
    vertex -1.9784746442783407 2.5783983559465145 -10.0
    vertex -1.6249999999999991 2.8145825622994254 -10.0
  endloop
endfacet
facet normal -3.2938151916482215e-31 2.9114973569033377e-31 -1.0
  outer loop
    vertex -1.6250000000000013 -2.8145825622994245 -10.0
    vertex -1.6249999999999991 2.8145825622994254 -10.0
    vertex -1.56 1.9104490066698715e-16 -10.0
  endloop
endfacet
facet normal -3.2938151916482215e-31 2.9114973569033377e-31 -1.0
  outer loop
    vertex -1.6250000000000013 -2.8145825622994245 -10.0
    vertex -1.56 1.9104490066698715e-16 -10.0
    vertex -1.2437211551865435 -3.002608480661681 -10.0
  endloop
endfacet
facet normal -3.2938151916482215e-31 2.9114973569033377e-31 -1.0
  outer loop
    vertex -1.2437211551865435 -3.002608480661681 -10.0
    vertex -1.56 1.9104490066698715e-16 -10.0
    vertex -1.5068442890109468 -0.4037577103599318 -10.0
  endloop
endfacet
facet normal -3.2938151916482215e-31 2.9114973569033377e-31 -1.0
  outer loop
    vertex -1.2437211551865435 -3.002608480661681 -10.0
    vertex -1.5068442890109468 -0.4037577103599318 -10.0
    vertex -1.3509996299037246 -0.7799999999999996 -10.0
  endloop
endfacet
facet normal -3.2938151916482215e-31 2.9114973569033377e-31 -1.0
  outer loop
    vertex -1.2437211551865435 -3.002608480661681 -10.0
    vertex -1.3509996299037246 -0.7799999999999996 -10.0
    vertex -1.1030865786510147 -1.1030865786510136 -10.0
  endloop
endfacet
facet normal -3.2938151916482215e-31 2.9114973569033377e-31 -1.0
  outer loop
    vertex -1.2437211551865435 -3.002608480661681 -10.0
    vertex -1.1030865786510147 -1.1030865786510136 -10.0
    vertex -0.8411618965831947 -3.139258935439471 -10.0
  endloop
endfacet
facet normal -3.2938151916482215e-31 2.9114973569033377e-31 -1.0
  outer loop
    vertex -0.8411618965831947 -3.139258935439471 -10.0
    vertex -1.1030865786510147 -1.1030865786510136 -10.0
    vertex -0.7800000000000007 -1.350999629903724 -10.0
  endloop
endfacet
facet normal -3.2938151916482215e-31 2.9114973569033377e-31 -1.0
  outer loop
    vertex -0.8411618965831947 -3.139258935439471 -10.0
    vertex -0.7800000000000007 -1.350999629903724 -10.0
    vertex -0.42421012471517056 -3.2221957994648833 -10.0
  endloop
endfacet
facet normal -3.2938151916482215e-31 2.9114973569033377e-31 -1.0
  outer loop
    vertex -0.42421012471517056 -3.2221957994648833 -10.0
    vertex -0.7800000000000007 -1.350999629903724 -10.0
    vertex -0.4037577103599336 -1.5068442890109464 -10.0
  endloop
endfacet
facet normal -3.2938151916482215e-31 2.9114973569033377e-31 -1.0
  outer loop
    vertex -0.42421012471517056 -3.2221957994648833 -10.0
    vertex -0.4037577103599336 -1.5068442890109464 -10.0
    vertex -5.970153145843345e-16 -3.2499999999999996 -10.0
  endloop
endfacet
facet normal -3.2938151916482215e-31 2.9114973569033377e-31 -1.0
  outer loop
    vertex -5.970153145843345e-16 -3.2499999999999996 -10.0
    vertex -0.4037577103599336 -1.5068442890109464 -10.0
    vertex -2.865673510004806e-16 -1.56 -10.0
  endloop
endfacet
facet normal -3.2938151916482215e-31 2.9114973569033377e-31 -1.0
  outer loop
    vertex -5.970153145843345e-16 -3.2499999999999996 -10.0
    vertex -2.865673510004806e-16 -1.56 -10.0
    vertex 0.42421012471516656 -3.222195799464884 -10.0
  endloop
endfacet
facet normal -3.2938151916482215e-31 2.9114973569033377e-31 -1.0
  outer loop
    vertex 0.42421012471516656 -3.222195799464884 -10.0
    vertex -2.865673510004806e-16 -1.56 -10.0
    vertex 0.4037577103599317 -1.5068442890109468 -10.0
  endloop
endfacet
facet normal -3.2938151916482215e-31 2.9114973569033377e-31 -1.0
  outer loop
    vertex 0.42421012471516656 -3.222195799464884 -10.0
    vertex 0.4037577103599317 -1.5068442890109468 -10.0
    vertex 0.7799999999999989 -1.3509996299037248 -10.0
  endloop
endfacet
facet normal -3.2938151916482215e-31 2.9114973569033377e-31 -1.0
  outer loop
    vertex 0.42421012471516656 -3.222195799464884 -10.0
    vertex 0.7799999999999989 -1.3509996299037248 -10.0
    vertex 0.8411618965831908 -3.139258935439472 -10.0
  endloop
endfacet
facet normal -3.2938151916482215e-31 2.9114973569033377e-31 -1.0
  outer loop
    vertex 0.8411618965831908 -3.139258935439472 -10.0
    vertex 0.7799999999999989 -1.3509996299037248 -10.0
    vertex 1.1030865786510138 -1.1030865786510144 -10.0
  endloop
endfacet
facet normal -3.2938151916482215e-31 2.9114973569033377e-31 -1.0
  outer loop
    vertex 0.8411618965831908 -3.139258935439472 -10.0
    vertex 1.1030865786510138 -1.1030865786510144 -10.0
    vertex 1.2437211551865397 -3.0026084806616824 -10.0
  endloop
endfacet
facet normal -3.2938151916482215e-31 2.9114973569033377e-31 -1.0
  outer loop
    vertex 1.2437211551865397 -3.0026084806616824 -10.0
    vertex 1.1030865786510138 -1.1030865786510144 -10.0
    vertex 1.350999629903724 -0.7800000000000007 -10.0
  endloop
endfacet
facet normal -3.2938151916482215e-31 2.9114973569033377e-31 -1.0
  outer loop
    vertex 1.2437211551865397 -3.0026084806616824 -10.0
    vertex 1.350999629903724 -0.7800000000000007 -10.0
    vertex 1.6249999999999973 -2.8145825622994267 -10.0
  endloop
endfacet
facet normal -3.2938151916482215e-31 2.9114973569033377e-31 -1.0
  outer loop
    vertex 1.6249999999999973 -2.8145825622994267 -10.0
    vertex 1.350999629903724 -0.7800000000000007 -10.0
    vertex 1.5068442890109464 -0.40375771035993363 -10.0
  endloop
endfacet
facet normal -3.2938151916482215e-31 2.9114973569033377e-31 -1.0
  outer loop
    vertex 1.6249999999999973 -2.8145825622994267 -10.0
    vertex 1.5068442890109464 -0.40375771035993363 -10.0
    vertex 1.56 1.5206962094540555e-47 -10.0
  endloop
endfacet
facet normal 0.9978589232386035 0.06540312923014349 -6.652246960604578e-31
  outer loop
    vertex 3.2221957994648833 0.42421012471516756 -10.0
    vertex 3.2499999999999996 1.967148121826516e-30 -1.4099832412739487e-15
    vertex 3.2499999999999996 0.0 -10.0
  endloop
endfacet
facet normal 0.9978589232386035 0.06540312923014349 -6.652246960604578e-31
  outer loop
    vertex 3.2499999999999996 1.967148121826516e-30 -1.4099832412739487e-15
    vertex 3.2221957994648833 0.42421012471516756 -10.0
    vertex 3.2221957994648833 0.42421012471516756 -1.4099832412739487e-15
  endloop
endfacet
facet normal 0.9807852804032307 0.1950903220161274 -6.795740456410642e-31
  outer loop
    vertex 3.139258935439472 0.8411618965831923 -10.0
    vertex 3.2221957994648833 0.42421012471516756 -1.4099832412739487e-15
    vertex 3.2221957994648833 0.42421012471516756 -10.0
  endloop
endfacet
facet normal 0.9807852804032307 0.1950903220161274 -6.795740456410642e-31
  outer loop
    vertex 3.2221957994648833 0.42421012471516756 -1.4099832412739487e-15
    vertex 3.139258935439472 0.8411618965831923 -10.0
    vertex 3.139258935439472 0.8411618965831923 -1.4099832412739487e-15
  endloop
endfacet
facet normal 0.9469301294951056 0.32143946530316203 -6.8229569488723115e-31
  outer loop
    vertex 3.0026084806616815 1.2437211551865417 -10.0
    vertex 3.139258935439472 0.8411618965831923 -1.4099832412739487e-15
    vertex 3.139258935439472 0.8411618965831923 -10.0
  endloop
endfacet
facet normal 0.9469301294951056 0.32143946530316203 -6.8229569488723115e-31
  outer loop
    vertex 3.139258935439472 0.8411618965831923 -1.4099832412739487e-15
    vertex 3.0026084806616815 1.2437211551865417 -10.0
    vertex 3.0026084806616815 1.2437211551865417 -1.4099832412739487e-15
  endloop
endfacet
facet normal 0.8968727415326885 0.44228869021900125 -6.73343075625773e-31
  outer loop
    vertex 2.8145825622994254 1.6249999999999996 -10.0
    vertex 3.0026084806616815 1.2437211551865417 -1.4099832412739487e-15
    vertex 3.0026084806616815 1.2437211551865417 -10.0
  endloop
endfacet
facet normal 0.8968727415326885 0.44228869021900125 -6.73343075625773e-31
  outer loop
    vertex 3.0026084806616815 1.2437211551865417 -1.4099832412739487e-15
    vertex 2.8145825622994254 1.6249999999999996 -10.0
    vertex 2.8145825622994254 1.6249999999999996 -1.4099832412739487e-15
  endloop
endfacet
facet normal 0.8314696123025452 0.5555702330196022 -6.528693696543878e-31
  outer loop
    vertex 2.5783983559465145 1.9784746442783414 -10.0
    vertex 2.8145825622994254 1.6249999999999996 -1.4099832412739487e-15
    vertex 2.8145825622994254 1.6249999999999996 -10.0
  endloop
endfacet
facet normal 0.8314696123025452 0.5555702330196022 -6.528693696543878e-31
  outer loop
    vertex 2.8145825622994254 1.6249999999999996 -1.4099832412739487e-15
    vertex 2.5783983559465145 1.9784746442783414 -10.0
    vertex 2.5783983559465145 1.9784746442783414 -1.4099832412739487e-15
  endloop
endfacet
facet normal 0.7518398074789783 0.6593458151000681 -6.212248877586306e-31
  outer loop
    vertex 2.2980970388562794 2.2980970388562794 -10.0
    vertex 2.5783983559465145 1.9784746442783414 -1.4099832412739487e-15
    vertex 2.5783983559465145 1.9784746442783414 -10.0
  endloop
endfacet
facet normal 0.7518398074789783 0.6593458151000681 -6.212248877586306e-31
  outer loop
    vertex 2.5783983559465145 1.9784746442783414 -1.4099832412739487e-15
    vertex 2.2980970388562794 2.2980970388562794 -10.0
    vertex 2.2980970388562794 2.2980970388562794 -1.4099832412739487e-15
  endloop
endfacet
facet normal 0.6593458151000678 0.7518398074789783 -5.789510757972436e-31
  outer loop
    vertex 1.9784746442783419 2.578398355946514 -1.4099832412739487e-15
    vertex 2.2980970388562794 2.2980970388562794 -10.0
    vertex 1.9784746442783419 2.578398355946514 -10.0
  endloop
endfacet
facet normal 0.6593458151000678 0.7518398074789783 -5.789510757972436e-31
  outer loop
    vertex 2.2980970388562794 2.2980970388562794 -10.0
    vertex 1.9784746442783419 2.578398355946514 -1.4099832412739487e-15
    vertex 2.2980970388562794 2.2980970388562794 -1.4099832412739487e-15
  endloop
endfacet
facet normal 0.5555702330196026 0.831469612302545 -5.267712504134044e-31
  outer loop
    vertex 1.6250000000000002 2.8145825622994254 -1.4099832412739487e-15
    vertex 1.9784746442783419 2.578398355946514 -10.0
    vertex 1.6250000000000002 2.8145825622994254 -10.0
  endloop
endfacet
facet normal 0.5555702330196026 0.831469612302545 -5.267712504134044e-31
  outer loop
    vertex 1.9784746442783419 2.578398355946514 -10.0
    vertex 1.6250000000000002 2.8145825622994254 -1.4099832412739487e-15
    vertex 1.9784746442783419 2.578398355946514 -1.4099832412739487e-15
  endloop
endfacet
facet normal 0.44228869021900136 0.8968727415326883 -4.655782228864085e-31
  outer loop
    vertex 1.243721155186542 3.0026084806616815 -1.4099832412739487e-15
    vertex 1.6250000000000002 2.8145825622994254 -10.0
    vertex 1.243721155186542 3.0026084806616815 -10.0
  endloop
endfacet
facet normal 0.44228869021900136 0.8968727415326883 -4.655782228864085e-31
  outer loop
    vertex 1.6250000000000002 2.8145825622994254 -10.0
    vertex 1.243721155186542 3.0026084806616815 -1.4099832412739487e-15
    vertex 1.6250000000000002 2.8145825622994254 -1.4099832412739487e-15
  endloop
endfacet
facet normal 0.32143946530316164 0.9469301294951057 -3.964190228831562e-31
  outer loop
    vertex 0.841161896583193 3.1392589354394715 -1.4099832412739487e-15
    vertex 1.243721155186542 3.0026084806616815 -10.0
    vertex 0.841161896583193 3.1392589354394715 -10.0
  endloop
endfacet
facet normal 0.32143946530316164 0.9469301294951057 -3.964190228831562e-31
  outer loop
    vertex 1.243721155186542 3.0026084806616815 -10.0
    vertex 0.841161896583193 3.1392589354394715 -1.4099832412739487e-15
    vertex 1.243721155186542 3.0026084806616815 -1.4099832412739487e-15
  endloop
endfacet
facet normal 0.19509032201612814 0.9807852804032307 -3.204769834902559e-31
  outer loop
    vertex 0.42421012471516806 3.2221957994648833 -1.4099832412739487e-15
    vertex 0.841161896583193 3.1392589354394715 -10.0
    vertex 0.42421012471516806 3.2221957994648833 -10.0
  endloop
endfacet
facet normal 0.19509032201612814 0.9807852804032307 -3.204769834902559e-31
  outer loop
    vertex 0.841161896583193 3.1392589354394715 -10.0
    vertex 0.42421012471516806 3.2221957994648833 -1.4099832412739487e-15
    vertex 0.841161896583193 3.1392589354394715 -1.4099832412739487e-15
  endloop
endfacet
facet normal 0.06540312923014344 0.9978589232386035 -2.3905149405683146e-31
  outer loop
    vertex 1.9900510486145137e-16 3.2499999999999996 -1.4099832412739487e-15
    vertex 0.42421012471516806 3.2221957994648833 -10.0
    vertex 1.9900510486144486e-16 3.2499999999999996 -10.0
  endloop
endfacet
facet normal 0.06540312923014344 0.9978589232386035 -2.3905149405683146e-31
  outer loop
    vertex 0.42421012471516806 3.2221957994648833 -10.0
    vertex 1.9900510486145137e-16 3.2499999999999996 -1.4099832412739487e-15
    vertex 0.42421012471516806 3.2221957994648833 -1.4099832412739487e-15
  endloop
endfacet
facet normal -0.06540312923014192 0.9978589232386037 -1.5353576728249948e-31
  outer loop
    vertex -0.4242101247151669 3.222195799464884 -1.4099832412739487e-15
    vertex 1.9900510486144486e-16 3.2499999999999996 -10.0
    vertex -0.4242101247151669 3.222195799464884 -10.0
  endloop
endfacet
facet normal -0.06540312923014192 0.9978589232386037 -1.5353576728249948e-31
  outer loop
    vertex 1.9900510486144486e-16 3.2499999999999996 -10.0
    vertex -0.4242101247151669 3.222195799464884 -1.4099832412739487e-15
    vertex 1.9900510486145137e-16 3.2499999999999996 -1.4099832412739487e-15
  endloop
endfacet
facet normal -0.19509032201612886 0.9807852804032303 -6.539300096180541e-32
  outer loop
    vertex -0.841161896583192 3.139258935439472 -1.4099832412739487e-15
    vertex -0.4242101247151669 3.222195799464884 -10.0
    vertex -0.841161896583192 3.139258935439472 -10.0
  endloop
endfacet
facet normal -0.19509032201612886 0.9807852804032303 -6.539300096180541e-32
  outer loop
    vertex -0.4242101247151669 3.222195799464884 -10.0
    vertex -0.841161896583192 3.139258935439472 -1.4099832412739487e-15
    vertex -0.4242101247151669 3.222195799464884 -1.4099832412739487e-15
  endloop
endfacet
facet normal -0.32143946530316164 0.9469301294951057 2.386865773570871e-32
  outer loop
    vertex -1.2437211551865408 3.002608480661682 -1.4099832412739487e-15
    vertex -0.841161896583192 3.139258935439472 -10.0
    vertex -1.2437211551865408 3.002608480661682 -10.0
  endloop
endfacet
facet normal -0.32143946530316164 0.9469301294951057 2.386865773570871e-32
  outer loop
    vertex -0.841161896583192 3.139258935439472 -10.0
    vertex -1.2437211551865408 3.002608480661682 -1.4099832412739487e-15
    vertex -0.841161896583192 3.139258935439472 -1.4099832412739487e-15
  endloop
endfacet
facet normal -0.44228869021900136 0.8968727415326883 1.1272191708172303e-31
  outer loop
    vertex -1.6249999999999991 2.8145825622994254 -1.4099832412739487e-15
    vertex -1.2437211551865408 3.002608480661682 -10.0
    vertex -1.6249999999999991 2.8145825622994254 -10.0
  endloop
endfacet
facet normal -0.44228869021900136 0.8968727415326883 1.1272191708172303e-31
  outer loop
    vertex -1.2437211551865408 3.002608480661682 -10.0
    vertex -1.6249999999999991 2.8145825622994254 -1.4099832412739487e-15
    vertex -1.2437211551865408 3.002608480661682 -1.4099832412739487e-15
  endloop
endfacet
facet normal -0.5555702330196021 0.8314696123025453 1.9964647317404918e-31
  outer loop
    vertex -1.9784746442783407 2.5783983559465145 -1.4099832412739487e-15
    vertex -1.6249999999999991 2.8145825622994254 -10.0
    vertex -1.9784746442783407 2.5783983559465145 -10.0
  endloop
endfacet
facet normal -0.5555702330196021 0.8314696123025453 1.9964647317404918e-31
  outer loop
    vertex -1.6249999999999991 2.8145825622994254 -10.0
    vertex -1.9784746442783407 2.5783983559465145 -1.4099832412739487e-15
    vertex -1.6249999999999991 2.8145825622994254 -1.4099832412739487e-15
  endloop
endfacet
facet normal -0.6593458151000681 0.7518398074789783 2.8315502275790743e-31
  outer loop
    vertex -2.2980970388562794 2.2980970388562794 -1.4099832412739487e-15
    vertex -1.9784746442783407 2.5783983559465145 -10.0
    vertex -2.2980970388562794 2.2980970388562794 -10.0
  endloop
endfacet
facet normal -0.6593458151000681 0.7518398074789783 2.8315502275790743e-31
  outer loop
    vertex -1.9784746442783407 2.5783983559465145 -10.0
    vertex -2.2980970388562794 2.2980970388562794 -1.4099832412739487e-15
    vertex -1.9784746442783407 2.5783983559465145 -1.4099832412739487e-15
  endloop
endfacet
facet normal -0.7518398074789777 0.6593458151000687 3.6181871139697537e-31
  outer loop
    vertex -2.2980970388562794 2.2980970388562794 -1.4099832412739487e-15
    vertex -2.5783983559465136 1.9784746442783425 -10.0
    vertex -2.5783983559465136 1.9784746442783425 -1.4099832412739487e-15
  endloop
endfacet
facet normal -0.7518398074789777 0.6593458151000687 3.6181871139697537e-31
  outer loop
    vertex -2.5783983559465136 1.9784746442783425 -10.0
    vertex -2.2980970388562794 2.2980970388562794 -1.4099832412739487e-15
    vertex -2.2980970388562794 2.2980970388562794 -10.0
  endloop
endfacet
facet normal -0.831469612302545 0.5555702330196026 4.342915815689415e-31
  outer loop
    vertex -2.5783983559465136 1.9784746442783425 -1.4099832412739487e-15
    vertex -2.814582562299425 1.6250000000000009 -10.0
    vertex -2.814582562299425 1.6250000000000009 -1.4099832412739487e-15
  endloop
endfacet
facet normal -0.831469612302545 0.5555702330196026 4.342915815689415e-31
  outer loop
    vertex -2.814582562299425 1.6250000000000009 -10.0
    vertex -2.5783983559465136 1.9784746442783425 -1.4099832412739487e-15
    vertex -2.5783983559465136 1.9784746442783425 -10.0
  endloop
endfacet
facet normal -0.8968727415326883 0.4422886902190015 4.993336023718891e-31
  outer loop
    vertex -2.814582562299425 1.6250000000000009 -1.4099832412739487e-15
    vertex -3.0026084806616815 1.243721155186542 -10.0
    vertex -3.0026084806616815 1.243721155186542 -1.4099832412739487e-15
  endloop
endfacet
facet normal -0.8968727415326883 0.4422886902190015 4.993336023718891e-31
  outer loop
    vertex -3.0026084806616815 1.243721155186542 -10.0
    vertex -2.814582562299425 1.6250000000000009 -1.4099832412739487e-15
    vertex -2.814582562299425 1.6250000000000009 -10.0
  endloop
endfacet
facet normal -0.9469301294951057 0.32143946530316164 5.558318867968243e-31
  outer loop
    vertex -3.0026084806616815 1.243721155186542 -1.4099832412739487e-15
    vertex -3.1392589354394715 0.8411618965831932 -10.0
    vertex -3.1392589354394715 0.8411618965831932 -1.4099832412739487e-15
  endloop
endfacet
facet normal -0.9469301294951057 0.32143946530316164 5.558318867968243e-31
  outer loop
    vertex -3.1392589354394715 0.8411618965831932 -10.0
    vertex -3.0026084806616815 1.243721155186542 -1.4099832412739487e-15
    vertex -3.0026084806616815 1.243721155186542 -10.0
  endloop
endfacet
facet normal -0.9807852804032304 0.19509032201612841 6.0281973353295284e-31
  outer loop
    vertex -3.1392589354394715 0.8411618965831932 -1.4099832412739487e-15
    vertex -3.2221957994648833 0.42421012471516895 -10.0
    vertex -3.2221957994648833 0.42421012471516895 -1.4099832412739487e-15
  endloop
endfacet
facet normal -0.9807852804032304 0.19509032201612841 6.0281973353295284e-31
  outer loop
    vertex -3.2221957994648833 0.42421012471516895 -10.0
    vertex -3.1392589354394715 0.8411618965831932 -1.4099832412739487e-15
    vertex -3.1392589354394715 0.8411618965831932 -10.0
  endloop
endfacet
facet normal -0.9978589232386035 0.06540312923014335 6.394931674951271e-31
  outer loop
    vertex -3.2499999999999996 3.9801020972289175e-16 -1.4099832412739487e-15
    vertex -3.2221957994648833 0.42421012471516895 -10.0
    vertex -3.2499999999999996 3.980102097228897e-16 -10.0
  endloop
endfacet
facet normal -0.9978589232386035 0.06540312923014335 6.394931674951271e-31
  outer loop
    vertex -3.2221957994648833 0.42421012471516895 -10.0
    vertex -3.2499999999999996 3.9801020972289175e-16 -1.4099832412739487e-15
    vertex -3.2221957994648833 0.42421012471516895 -1.4099832412739487e-15
  endloop
endfacet
facet normal -0.9978589232386037 -0.06540312923014191 6.6522469606045765e-31
  outer loop
    vertex -3.2499999999999996 3.9801020972289175e-16 -1.4099832412739487e-15
    vertex -3.222195799464884 -0.4242101247151667 -10.0
    vertex -3.222195799464884 -0.4242101247151667 -1.4099832412739487e-15
  endloop
endfacet
facet normal -0.9978589232386037 -0.06540312923014191 6.6522469606045765e-31
  outer loop
    vertex -3.222195799464884 -0.4242101247151667 -10.0
    vertex -3.2499999999999996 3.9801020972289175e-16 -1.4099832412739487e-15
    vertex -3.2499999999999996 3.980102097228897e-16 -10.0
  endloop
endfacet
facet normal -0.9807852804032304 -0.19509032201612836 6.795740456410642e-31
  outer loop
    vertex -3.222195799464884 -0.4242101247151667 -1.4099832412739487e-15
    vertex -3.139258935439472 -0.8411618965831911 -10.0
    vertex -3.139258935439472 -0.8411618965831911 -1.4099832412739487e-15
  endloop
endfacet
facet normal -0.9807852804032304 -0.19509032201612836 6.795740456410642e-31
  outer loop
    vertex -3.139258935439472 -0.8411618965831911 -10.0
    vertex -3.222195799464884 -0.4242101247151667 -1.4099832412739487e-15
    vertex -3.222195799464884 -0.4242101247151667 -10.0
  endloop
endfacet
facet normal -0.9469301294951057 -0.32143946530316164 6.8229569488723115e-31
  outer loop
    vertex -3.139258935439472 -0.8411618965831911 -1.4099832412739487e-15
    vertex -3.0026084806616824 -1.24372115518654 -10.0
    vertex -3.0026084806616824 -1.24372115518654 -1.4099832412739487e-15
  endloop
endfacet
facet normal -0.9469301294951057 -0.32143946530316164 6.8229569488723115e-31
  outer loop
    vertex -3.0026084806616824 -1.24372115518654 -10.0
    vertex -3.139258935439472 -0.8411618965831911 -1.4099832412739487e-15
    vertex -3.139258935439472 -0.8411618965831911 -10.0
  endloop
endfacet
facet normal -0.8968727415326886 -0.44228869021900086 6.733430756257729e-31
  outer loop
    vertex -3.0026084806616824 -1.24372115518654 -1.4099832412739487e-15
    vertex -2.814582562299426 -1.624999999999999 -10.0
    vertex -2.814582562299426 -1.624999999999999 -1.4099832412739487e-15
  endloop
endfacet
facet normal -0.8968727415326886 -0.44228869021900086 6.733430756257729e-31
  outer loop
    vertex -2.814582562299426 -1.624999999999999 -10.0
    vertex -3.0026084806616824 -1.24372115518654 -1.4099832412739487e-15
    vertex -3.0026084806616824 -1.24372115518654 -10.0
  endloop
endfacet
facet normal -0.8314696123025452 -0.5555702330196022 6.528693696543878e-31
  outer loop
    vertex -2.814582562299426 -1.624999999999999 -1.4099832412739487e-15
    vertex -2.5783983559465145 -1.9784746442783407 -10.0
    vertex -2.5783983559465145 -1.9784746442783407 -1.4099832412739487e-15
  endloop
endfacet
facet normal -0.8314696123025452 -0.5555702330196022 6.528693696543878e-31
  outer loop
    vertex -2.5783983559465145 -1.9784746442783407 -10.0
    vertex -2.814582562299426 -1.624999999999999 -1.4099832412739487e-15
    vertex -2.814582562299426 -1.624999999999999 -10.0
  endloop
endfacet
facet normal -0.7518398074789779 -0.6593458151000683 6.212248877586304e-31
  outer loop
    vertex -2.5783983559465145 -1.9784746442783407 -1.4099832412739487e-15
    vertex -2.2980970388562807 -2.2980970388562776 -10.0
    vertex -2.2980970388562807 -2.2980970388562776 -1.4099832412739487e-15
  endloop
endfacet
facet normal -0.7518398074789779 -0.6593458151000683 6.212248877586304e-31
  outer loop
    vertex -2.2980970388562807 -2.2980970388562776 -10.0
    vertex -2.5783983559465145 -1.9784746442783407 -1.4099832412739487e-15
    vertex -2.5783983559465145 -1.9784746442783407 -10.0
  endloop
endfacet
facet normal -0.659345815100069 -0.7518398074789775 5.7895107579724415e-31
  outer loop
    vertex -1.9784746442783425 -2.578398355946513 -1.4099832412739487e-15
    vertex -2.2980970388562807 -2.2980970388562776 -10.0
    vertex -1.9784746442783425 -2.578398355946513 -10.0
  endloop
endfacet
facet normal -0.659345815100069 -0.7518398074789775 5.7895107579724415e-31
  outer loop
    vertex -2.2980970388562807 -2.2980970388562776 -10.0
    vertex -1.9784746442783425 -2.578398355946513 -1.4099832412739487e-15
    vertex -2.2980970388562807 -2.2980970388562776 -1.4099832412739487e-15
  endloop
endfacet
facet normal -0.5555702330196031 -0.8314696123025449 5.267712504134047e-31
  outer loop
    vertex -1.6250000000000013 -2.8145825622994245 -1.4099832412739487e-15
    vertex -1.9784746442783425 -2.578398355946513 -10.0
    vertex -1.6250000000000013 -2.8145825622994245 -10.0
  endloop
endfacet
facet normal -0.5555702330196031 -0.8314696123025449 5.267712504134047e-31
  outer loop
    vertex -1.9784746442783425 -2.578398355946513 -10.0
    vertex -1.6250000000000013 -2.8145825622994245 -1.4099832412739487e-15
    vertex -1.9784746442783425 -2.578398355946513 -1.4099832412739487e-15
  endloop
endfacet
facet normal -0.4422886902190019 -0.8968727415326881 4.655782228864087e-31
  outer loop
    vertex -1.2437211551865435 -3.002608480661681 -1.4099832412739487e-15
    vertex -1.6250000000000013 -2.8145825622994245 -10.0
    vertex -1.2437211551865435 -3.002608480661681 -10.0
  endloop
endfacet
facet normal -0.4422886902190019 -0.8968727415326881 4.655782228864087e-31
  outer loop
    vertex -1.6250000000000013 -2.8145825622994245 -10.0
    vertex -1.2437211551865435 -3.002608480661681 -1.4099832412739487e-15
    vertex -1.6250000000000013 -2.8145825622994245 -1.4099832412739487e-15
  endloop
endfacet
facet normal -0.3214394653031626 -0.9469301294951055 3.964190228831568e-31
  outer loop
    vertex -0.8411618965831947 -3.139258935439471 -1.4099832412739487e-15
    vertex -1.2437211551865435 -3.002608480661681 -10.0
    vertex -0.8411618965831947 -3.139258935439471 -10.0
  endloop
endfacet
facet normal -0.3214394653031626 -0.9469301294951055 3.964190228831568e-31
  outer loop
    vertex -1.2437211551865435 -3.002608480661681 -10.0
    vertex -0.8411618965831947 -3.139258935439471 -1.4099832412739487e-15
    vertex -1.2437211551865435 -3.002608480661681 -1.4099832412739487e-15
  endloop
endfacet
facet normal -0.19509032201612925 -0.9807852804032304 3.2047698349025657e-31
  outer loop
    vertex -0.42421012471517056 -3.2221957994648833 -1.4099832412739487e-15
    vertex -0.8411618965831947 -3.139258935439471 -10.0
    vertex -0.42421012471517056 -3.2221957994648833 -10.0
  endloop
endfacet
facet normal -0.19509032201612925 -0.9807852804032304 3.2047698349025657e-31
  outer loop
    vertex -0.8411618965831947 -3.139258935439471 -10.0
    vertex -0.42421012471517056 -3.2221957994648833 -1.4099832412739487e-15
    vertex -0.8411618965831947 -3.139258935439471 -1.4099832412739487e-15
  endloop
endfacet
facet normal -0.06540312923014314 -0.9978589232386037 2.390514940568313e-31
  outer loop
    vertex -5.970153145843283e-16 -3.2499999999999996 -1.4099832412739487e-15
    vertex -0.42421012471517056 -3.2221957994648833 -10.0
    vertex -5.970153145843345e-16 -3.2499999999999996 -10.0
  endloop
endfacet
facet normal -0.06540312923014314 -0.9978589232386037 2.390514940568313e-31
  outer loop
    vertex -0.42421012471517056 -3.2221957994648833 -10.0
    vertex -5.970153145843283e-16 -3.2499999999999996 -1.4099832412739487e-15
    vertex -0.42421012471517056 -3.2221957994648833 -1.4099832412739487e-15
  endloop
endfacet
facet normal 0.06540312923014191 -0.9978589232386037 1.5353576728249948e-31
  outer loop
    vertex 0.42421012471516656 -3.222195799464884 -1.4099832412739487e-15
    vertex -5.970153145843345e-16 -3.2499999999999996 -10.0
    vertex 0.42421012471516656 -3.222195799464884 -10.0
  endloop
endfacet
facet normal 0.06540312923014191 -0.9978589232386037 1.5353576728249948e-31
  outer loop
    vertex -5.970153145843345e-16 -3.2499999999999996 -10.0
    vertex 0.42421012471516656 -3.222195799464884 -1.4099832412739487e-15
    vertex -5.970153145843283e-16 -3.2499999999999996 -1.4099832412739487e-15
  endloop
endfacet
facet normal 0.19509032201612836 -0.9807852804032304 6.539300096180575e-32
  outer loop
    vertex 0.8411618965831908 -3.139258935439472 -1.4099832412739487e-15
    vertex 0.42421012471516656 -3.222195799464884 -10.0
    vertex 0.8411618965831908 -3.139258935439472 -10.0
  endloop
endfacet
facet normal 0.19509032201612836 -0.9807852804032304 6.539300096180575e-32
  outer loop
    vertex 0.42421012471516656 -3.222195799464884 -10.0
    vertex 0.8411618965831908 -3.139258935439472 -1.4099832412739487e-15
    vertex 0.42421012471516656 -3.222195799464884 -1.4099832412739487e-15
  endloop
endfacet
facet normal 0.32143946530316164 -0.9469301294951057 -2.386865773570871e-32
  outer loop
    vertex 1.2437211551865397 -3.0026084806616824 -1.4099832412739487e-15
    vertex 0.8411618965831908 -3.139258935439472 -10.0
    vertex 1.2437211551865397 -3.0026084806616824 -10.0
  endloop
endfacet
facet normal 0.32143946530316164 -0.9469301294951057 -2.386865773570871e-32
  outer loop
    vertex 0.8411618965831908 -3.139258935439472 -10.0
    vertex 1.2437211551865397 -3.0026084806616824 -1.4099832412739487e-15
    vertex 0.8411618965831908 -3.139258935439472 -1.4099832412739487e-15
  endloop
endfacet
facet normal 0.4422886902190007 -0.8968727415326886 -1.1272191708172255e-31
  outer loop
    vertex 1.6249999999999973 -2.8145825622994267 -1.4099832412739487e-15
    vertex 1.2437211551865397 -3.0026084806616824 -10.0
    vertex 1.6249999999999973 -2.8145825622994267 -10.0
  endloop
endfacet
facet normal 0.4422886902190007 -0.8968727415326886 -1.1272191708172255e-31
  outer loop
    vertex 1.2437211551865397 -3.0026084806616824 -10.0
    vertex 1.6249999999999973 -2.8145825622994267 -1.4099832412739487e-15
    vertex 1.2437211551865397 -3.0026084806616824 -1.4099832412739487e-15
  endloop
endfacet
facet normal 0.5555702330196017 -0.8314696123025457 -1.996464731740489e-31
  outer loop
    vertex 1.9784746442783394 -2.578398355946516 -1.4099832412739487e-15
    vertex 1.6249999999999973 -2.8145825622994267 -10.0
    vertex 1.9784746442783394 -2.578398355946516 -10.0
  endloop
endfacet
facet normal 0.5555702330196017 -0.8314696123025457 -1.996464731740489e-31
  outer loop
    vertex 1.6249999999999973 -2.8145825622994267 -10.0
    vertex 1.9784746442783394 -2.578398355946516 -1.4099832412739487e-15
    vertex 1.6249999999999973 -2.8145825622994267 -1.4099832412739487e-15
  endloop
endfacet
facet normal 0.6593458151000677 -0.7518398074789784 -2.8315502275790717e-31
  outer loop
    vertex 2.298097038856279 -2.29809703885628 -1.4099832412739487e-15
    vertex 1.9784746442783394 -2.578398355946516 -10.0
    vertex 2.298097038856279 -2.29809703885628 -10.0
  endloop
endfacet
facet normal 0.6593458151000677 -0.7518398074789784 -2.8315502275790717e-31
  outer loop
    vertex 1.9784746442783394 -2.578398355946516 -10.0
    vertex 2.298097038856279 -2.29809703885628 -1.4099832412739487e-15
    vertex 1.9784746442783394 -2.578398355946516 -1.4099832412739487e-15
  endloop
endfacet
facet normal 0.751839807478978 -0.6593458151000684 -3.618187113969757e-31
  outer loop
    vertex 2.578398355946513 -1.9784746442783425 -10.0
    vertex 2.298097038856279 -2.29809703885628 -1.4099832412739487e-15
    vertex 2.298097038856279 -2.29809703885628 -10.0
  endloop
endfacet
facet normal 0.751839807478978 -0.6593458151000684 -3.618187113969757e-31
  outer loop
    vertex 2.298097038856279 -2.29809703885628 -1.4099832412739487e-15
    vertex 2.578398355946513 -1.9784746442783425 -10.0
    vertex 2.578398355946513 -1.9784746442783425 -1.4099832412739487e-15
  endloop
endfacet
facet normal 0.8314696123025449 -0.5555702330196031 -4.342915815689411e-31
  outer loop
    vertex 2.8145825622994245 -1.6250000000000013 -10.0
    vertex 2.578398355946513 -1.9784746442783425 -1.4099832412739487e-15
    vertex 2.578398355946513 -1.9784746442783425 -10.0
  endloop
endfacet
facet normal 0.8314696123025449 -0.5555702330196031 -4.342915815689411e-31
  outer loop
    vertex 2.578398355946513 -1.9784746442783425 -1.4099832412739487e-15
    vertex 2.8145825622994245 -1.6250000000000013 -10.0
    vertex 2.8145825622994245 -1.6250000000000013 -1.4099832412739487e-15
  endloop
endfacet
facet normal 0.8968727415326879 -0.44228869021900197 -4.993336023718887e-31
  outer loop
    vertex 3.002608480661681 -1.2437211551865437 -10.0
    vertex 2.8145825622994245 -1.6250000000000013 -1.4099832412739487e-15
    vertex 2.8145825622994245 -1.6250000000000013 -10.0
  endloop
endfacet
facet normal 0.8968727415326879 -0.44228869021900197 -4.993336023718887e-31
  outer loop
    vertex 2.8145825622994245 -1.6250000000000013 -1.4099832412739487e-15
    vertex 3.002608480661681 -1.2437211551865437 -10.0
    vertex 3.002608480661681 -1.2437211551865437 -1.4099832412739487e-15
  endloop
endfacet
facet normal 0.9469301294951055 -0.3214394653031626 -5.55831886796824e-31
  outer loop
    vertex 3.139258935439471 -0.841161896583195 -10.0
    vertex 3.002608480661681 -1.2437211551865437 -1.4099832412739487e-15
    vertex 3.002608480661681 -1.2437211551865437 -10.0
  endloop
endfacet
facet normal 0.9469301294951055 -0.3214394653031626 -5.55831886796824e-31
  outer loop
    vertex 3.002608480661681 -1.2437211551865437 -1.4099832412739487e-15
    vertex 3.139258935439471 -0.841161896583195 -10.0
    vertex 3.139258935439471 -0.841161896583195 -1.4099832412739487e-15
  endloop
endfacet
facet normal 0.9807852804032304 -0.1950903220161293 -6.028197335329527e-31
  outer loop
    vertex 3.2221957994648833 -0.4242101247151708 -10.0
    vertex 3.139258935439471 -0.841161896583195 -1.4099832412739487e-15
    vertex 3.139258935439471 -0.841161896583195 -10.0
  endloop
endfacet
facet normal 0.9807852804032304 -0.1950903220161293 -6.028197335329527e-31
  outer loop
    vertex 3.139258935439471 -0.841161896583195 -1.4099832412739487e-15
    vertex 3.2221957994648833 -0.4242101247151708 -10.0
    vertex 3.2221957994648833 -0.4242101247151708 -1.4099832412739487e-15
  endloop
endfacet
facet normal 0.9978589232386037 -0.06540312923014302 -6.394931674951274e-31
  outer loop
    vertex 3.2499999999999996 0.0 -10.0
    vertex 3.2221957994648833 -0.4242101247151708 -1.4099832412739487e-15
    vertex 3.2221957994648833 -0.4242101247151708 -10.0
  endloop
endfacet
facet normal 0.9978589232386037 -0.06540312923014302 -6.394931674951274e-31
  outer loop
    vertex 3.2221957994648833 -0.4242101247151708 -1.4099832412739487e-15
    vertex 3.2499999999999996 0.0 -10.0
    vertex 3.2499999999999996 1.967148121826516e-30 -1.4099832412739487e-15
  endloop
endfacet
facet normal 0.0 0.0 -1.0
  outer loop
    vertex -3.3999999999999995 1.9629909152447258 0.0
    vertex -3.2221957994648833 0.42421012471516895 -1.4099832412739487e-15
    vertex -3.3999999999999995 -1.9629909152447258 0.0
  endloop
endfacet
facet normal 0.0 0.0 -1.0
  outer loop
    vertex -3.2221957994648833 0.42421012471516895 -1.4099832412739487e-15
    vertex -3.3999999999999995 1.9629909152447258 0.0
    vertex -3.1392589354394715 0.8411618965831932 -1.4099832412739487e-15
  endloop
endfacet
facet normal 0.0 0.0 -1.0
  outer loop
    vertex -3.1392589354394715 0.8411618965831932 -1.4099832412739487e-15
    vertex -3.3999999999999995 1.9629909152447258 0.0
    vertex -3.0026084806616815 1.243721155186542 -1.4099832412739487e-15
  endloop
endfacet
facet normal 0.0 0.0 -1.0
  outer loop
    vertex -3.0026084806616815 1.243721155186542 -1.4099832412739487e-15
    vertex -3.3999999999999995 1.9629909152447258 0.0
    vertex -2.814582562299425 1.6250000000000009 -1.4099832412739487e-15
  endloop
endfacet
facet normal 0.0 0.0 -1.0
  outer loop
    vertex -2.814582562299425 1.6250000000000009 -1.4099832412739487e-15
    vertex -3.3999999999999995 1.9629909152447258 0.0
    vertex -2.5783983559465136 1.9784746442783425 -1.4099832412739487e-15
  endloop
endfacet
facet normal 0.0 0.0 -1.0
  outer loop
    vertex -2.5783983559465136 1.9784746442783425 -1.4099832412739487e-15
    vertex -3.3999999999999995 1.9629909152447258 0.0
    vertex -2.2980970388562794 2.2980970388562794 -1.4099832412739487e-15
  endloop
endfacet
facet normal 0.0 0.0 -1.0
  outer loop
    vertex -2.2980970388562794 2.2980970388562794 -1.4099832412739487e-15
    vertex -3.3999999999999995 1.9629909152447258 0.0
    vertex -1.9784746442783407 2.5783983559465145 -1.4099832412739487e-15
  endloop
endfacet
facet normal 0.0 0.0 -1.0
  outer loop
    vertex -1.9784746442783407 2.5783983559465145 -1.4099832412739487e-15
    vertex -3.3999999999999995 1.9629909152447258 0.0
    vertex 0.0 3.9259818304894516 0.0
  endloop
endfacet
facet normal 0.0 0.0 -1.0
  outer loop
    vertex -3.3999999999999995 -1.9629909152447258 0.0
    vertex -3.2221957994648833 0.42421012471516895 -1.4099832412739487e-15
    vertex -3.2499999999999996 3.9801020972289175e-16 -1.4099832412739487e-15
  endloop
endfacet
facet normal 0.0 0.0 -1.0
  outer loop
    vertex -1.9784746442783407 2.5783983559465145 -1.4099832412739487e-15
    vertex 0.0 3.9259818304894516 0.0
    vertex -1.6249999999999991 2.8145825622994254 -1.4099832412739487e-15
  endloop
endfacet
facet normal 0.0 0.0 -1.0
  outer loop
    vertex -1.6249999999999991 2.8145825622994254 -1.4099832412739487e-15
    vertex 0.0 3.9259818304894516 0.0
    vertex -1.2437211551865408 3.002608480661682 -1.4099832412739487e-15
  endloop
endfacet
facet normal 0.0 0.0 -1.0
  outer loop
    vertex -1.2437211551865408 3.002608480661682 -1.4099832412739487e-15
    vertex 0.0 3.9259818304894516 0.0
    vertex -0.841161896583192 3.139258935439472 -1.4099832412739487e-15
  endloop
endfacet
facet normal 0.0 0.0 -1.0
  outer loop
    vertex -0.841161896583192 3.139258935439472 -1.4099832412739487e-15
    vertex 0.0 3.9259818304894516 0.0
    vertex -0.4242101247151669 3.222195799464884 -1.4099832412739487e-15
  endloop
endfacet
facet normal 0.0 0.0 -1.0
  outer loop
    vertex -0.4242101247151669 3.222195799464884 -1.4099832412739487e-15
    vertex 0.0 3.9259818304894516 0.0
    vertex 1.9900510486145137e-16 3.2499999999999996 -1.4099832412739487e-15
  endloop
endfacet
facet normal 0.0 0.0 -1.0
  outer loop
    vertex 1.9900510486145137e-16 3.2499999999999996 -1.4099832412739487e-15
    vertex 0.0 3.9259818304894516 0.0
    vertex 0.42421012471516806 3.2221957994648833 -1.4099832412739487e-15
  endloop
endfacet
facet normal 0.0 0.0 -1.0
  outer loop
    vertex 0.42421012471516806 3.2221957994648833 -1.4099832412739487e-15
    vertex 0.0 3.9259818304894516 0.0
    vertex 0.841161896583193 3.1392589354394715 -1.4099832412739487e-15
  endloop
endfacet
facet normal 0.0 0.0 -1.0
  outer loop
    vertex 0.841161896583193 3.1392589354394715 -1.4099832412739487e-15
    vertex 0.0 3.9259818304894516 0.0
    vertex 1.243721155186542 3.0026084806616815 -1.4099832412739487e-15
  endloop
endfacet
facet normal 0.0 0.0 -1.0
  outer loop
    vertex 1.243721155186542 3.0026084806616815 -1.4099832412739487e-15
    vertex 0.0 3.9259818304894516 0.0
    vertex 3.400000000000002 1.9629909152447258 0.0
  endloop
endfacet
facet normal 0.0 0.0 -1.0
  outer loop
    vertex 1.243721155186542 3.0026084806616815 -1.4099832412739487e-15
    vertex 3.400000000000002 1.9629909152447258 0.0
    vertex 1.6250000000000002 2.8145825622994254 -1.4099832412739487e-15
  endloop
endfacet
facet normal 0.0 0.0 -1.0
  outer loop
    vertex 1.6250000000000002 2.8145825622994254 -1.4099832412739487e-15
    vertex 3.400000000000002 1.9629909152447258 0.0
    vertex 1.9784746442783419 2.578398355946514 -1.4099832412739487e-15
  endloop
endfacet
facet normal 0.0 0.0 -1.0
  outer loop
    vertex 1.9784746442783419 2.578398355946514 -1.4099832412739487e-15
    vertex 3.400000000000002 1.9629909152447258 0.0
    vertex 2.2980970388562794 2.2980970388562794 -1.4099832412739487e-15
  endloop
endfacet
facet normal 0.0 0.0 -1.0
  outer loop
    vertex 2.2980970388562794 2.2980970388562794 -1.4099832412739487e-15
    vertex 3.400000000000002 1.9629909152447258 0.0
    vertex 2.5783983559465145 1.9784746442783414 -1.4099832412739487e-15
  endloop
endfacet
facet normal 0.0 0.0 -1.0
  outer loop
    vertex 2.5783983559465145 1.9784746442783414 -1.4099832412739487e-15
    vertex 3.400000000000002 1.9629909152447258 0.0
    vertex 2.8145825622994254 1.6249999999999996 -1.4099832412739487e-15
  endloop
endfacet
facet normal 0.0 0.0 -1.0
  outer loop
    vertex 2.8145825622994254 1.6249999999999996 -1.4099832412739487e-15
    vertex 3.400000000000002 1.9629909152447258 0.0
    vertex 3.0026084806616815 1.2437211551865417 -1.4099832412739487e-15
  endloop
endfacet
facet normal 0.0 0.0 -1.0
  outer loop
    vertex 3.0026084806616815 1.2437211551865417 -1.4099832412739487e-15
    vertex 3.400000000000002 1.9629909152447258 0.0
    vertex 3.139258935439472 0.8411618965831923 -1.4099832412739487e-15
  endloop
endfacet
facet normal 0.0 0.0 -1.0
  outer loop
    vertex 3.139258935439472 0.8411618965831923 -1.4099832412739487e-15
    vertex 3.400000000000002 1.9629909152447258 0.0
    vertex 3.2221957994648833 0.42421012471516756 -1.4099832412739487e-15
  endloop
endfacet
facet normal 0.0 0.0 -1.0
  outer loop
    vertex 3.2221957994648833 0.42421012471516756 -1.4099832412739487e-15
    vertex 3.400000000000002 1.9629909152447258 0.0
    vertex 3.2499999999999996 1.967148121826516e-30 -1.4099832412739487e-15
  endloop
endfacet
facet normal 0.0 0.0 -1.0
  outer loop
    vertex -3.3999999999999995 -1.9629909152447258 0.0
    vertex -1.9784746442783425 -2.578398355946513 -1.4099832412739487e-15
    vertex 0.0 -3.9259818304894574 0.0
  endloop
endfacet
facet normal 0.0 0.0 -1.0
  outer loop
    vertex -1.9784746442783425 -2.578398355946513 -1.4099832412739487e-15
    vertex -3.3999999999999995 -1.9629909152447258 0.0
    vertex -2.2980970388562807 -2.2980970388562776 -1.4099832412739487e-15
  endloop
endfacet
facet normal 0.0 0.0 -1.0
  outer loop
    vertex -2.2980970388562807 -2.2980970388562776 -1.4099832412739487e-15
    vertex -3.3999999999999995 -1.9629909152447258 0.0
    vertex -2.5783983559465145 -1.9784746442783407 -1.4099832412739487e-15
  endloop
endfacet
facet normal 0.0 0.0 -1.0
  outer loop
    vertex -2.5783983559465145 -1.9784746442783407 -1.4099832412739487e-15
    vertex -3.3999999999999995 -1.9629909152447258 0.0
    vertex -2.814582562299426 -1.624999999999999 -1.4099832412739487e-15
  endloop
endfacet
facet normal 0.0 0.0 -1.0
  outer loop
    vertex -2.814582562299426 -1.624999999999999 -1.4099832412739487e-15
    vertex -3.3999999999999995 -1.9629909152447258 0.0
    vertex -3.0026084806616824 -1.24372115518654 -1.4099832412739487e-15
  endloop
endfacet
facet normal 0.0 0.0 -1.0
  outer loop
    vertex -3.0026084806616824 -1.24372115518654 -1.4099832412739487e-15
    vertex -3.3999999999999995 -1.9629909152447258 0.0
    vertex -3.139258935439472 -0.8411618965831911 -1.4099832412739487e-15
  endloop
endfacet
facet normal 0.0 0.0 -1.0
  outer loop
    vertex -3.139258935439472 -0.8411618965831911 -1.4099832412739487e-15
    vertex -3.3999999999999995 -1.9629909152447258 0.0
    vertex -3.222195799464884 -0.4242101247151667 -1.4099832412739487e-15
  endloop
endfacet
facet normal 0.0 0.0 -1.0
  outer loop
    vertex -3.222195799464884 -0.4242101247151667 -1.4099832412739487e-15
    vertex -3.3999999999999995 -1.9629909152447258 0.0
    vertex -3.2499999999999996 3.9801020972289175e-16 -1.4099832412739487e-15
  endloop
endfacet
facet normal 0.0 0.0 -1.0
  outer loop
    vertex 0.0 -3.9259818304894574 0.0
    vertex -1.9784746442783425 -2.578398355946513 -1.4099832412739487e-15
    vertex -1.6250000000000013 -2.8145825622994245 -1.4099832412739487e-15
  endloop
endfacet
facet normal 0.0 0.0 -1.0
  outer loop
    vertex 0.0 -3.9259818304894574 0.0
    vertex -1.6250000000000013 -2.8145825622994245 -1.4099832412739487e-15
    vertex -1.2437211551865435 -3.002608480661681 -1.4099832412739487e-15
  endloop
endfacet
facet normal 0.0 0.0 -1.0
  outer loop
    vertex 0.0 -3.9259818304894574 0.0
    vertex -1.2437211551865435 -3.002608480661681 -1.4099832412739487e-15
    vertex -0.8411618965831947 -3.139258935439471 -1.4099832412739487e-15
  endloop
endfacet
facet normal 0.0 0.0 -1.0
  outer loop
    vertex 0.0 -3.9259818304894574 0.0
    vertex -0.8411618965831947 -3.139258935439471 -1.4099832412739487e-15
    vertex -0.42421012471517056 -3.2221957994648833 -1.4099832412739487e-15
  endloop
endfacet
facet normal 0.0 0.0 -1.0
  outer loop
    vertex 0.0 -3.9259818304894574 0.0
    vertex -0.42421012471517056 -3.2221957994648833 -1.4099832412739487e-15
    vertex -5.970153145843283e-16 -3.2499999999999996 -1.4099832412739487e-15
  endloop
endfacet
facet normal 0.0 0.0 -1.0
  outer loop
    vertex 0.0 -3.9259818304894574 0.0
    vertex -5.970153145843283e-16 -3.2499999999999996 -1.4099832412739487e-15
    vertex 0.42421012471516656 -3.222195799464884 -1.4099832412739487e-15
  endloop
endfacet
facet normal 0.0 0.0 -1.0
  outer loop
    vertex 0.0 -3.9259818304894574 0.0
    vertex 0.42421012471516656 -3.222195799464884 -1.4099832412739487e-15
    vertex 0.8411618965831908 -3.139258935439472 -1.4099832412739487e-15
  endloop
endfacet
facet normal 0.0 0.0 -1.0
  outer loop
    vertex 0.0 -3.9259818304894574 0.0
    vertex 0.8411618965831908 -3.139258935439472 -1.4099832412739487e-15
    vertex 1.2437211551865397 -3.0026084806616824 -1.4099832412739487e-15
  endloop
endfacet
facet normal 0.0 0.0 -1.0
  outer loop
    vertex 0.0 -3.9259818304894574 0.0
    vertex 1.2437211551865397 -3.0026084806616824 -1.4099832412739487e-15
    vertex 3.400000000000002 -1.9629909152447313 0.0
  endloop
endfacet
facet normal 0.0 0.0 -1.0
  outer loop
    vertex 3.400000000000002 -1.9629909152447313 0.0
    vertex 1.2437211551865397 -3.0026084806616824 -1.4099832412739487e-15
    vertex 1.6249999999999973 -2.8145825622994267 -1.4099832412739487e-15
  endloop
endfacet
facet normal 0.0 0.0 -1.0
  outer loop
    vertex 3.400000000000002 -1.9629909152447313 0.0
    vertex 1.6249999999999973 -2.8145825622994267 -1.4099832412739487e-15
    vertex 1.9784746442783394 -2.578398355946516 -1.4099832412739487e-15
  endloop
endfacet
facet normal 0.0 0.0 -1.0
  outer loop
    vertex 3.400000000000002 -1.9629909152447313 0.0
    vertex 1.9784746442783394 -2.578398355946516 -1.4099832412739487e-15
    vertex 2.298097038856279 -2.29809703885628 -1.4099832412739487e-15
  endloop
endfacet
facet normal 0.0 0.0 -1.0
  outer loop
    vertex 3.400000000000002 -1.9629909152447313 0.0
    vertex 2.298097038856279 -2.29809703885628 -1.4099832412739487e-15
    vertex 2.578398355946513 -1.9784746442783425 -1.4099832412739487e-15
  endloop
endfacet
facet normal 0.0 0.0 -1.0
  outer loop
    vertex 3.400000000000002 -1.9629909152447313 0.0
    vertex 2.578398355946513 -1.9784746442783425 -1.4099832412739487e-15
    vertex 2.8145825622994245 -1.6250000000000013 -1.4099832412739487e-15
  endloop
endfacet
facet normal 0.0 0.0 -1.0
  outer loop
    vertex 3.400000000000002 -1.9629909152447313 0.0
    vertex 2.8145825622994245 -1.6250000000000013 -1.4099832412739487e-15
    vertex 3.002608480661681 -1.2437211551865437 -1.4099832412739487e-15
  endloop
endfacet
facet normal 0.0 0.0 -1.0
  outer loop
    vertex 3.400000000000002 -1.9629909152447313 0.0
    vertex 3.002608480661681 -1.2437211551865437 -1.4099832412739487e-15
    vertex 3.139258935439471 -0.841161896583195 -1.4099832412739487e-15
  endloop
endfacet
facet normal 0.0 0.0 -1.0
  outer loop
    vertex 3.400000000000002 -1.9629909152447313 0.0
    vertex 3.139258935439471 -0.841161896583195 -1.4099832412739487e-15
    vertex 3.2221957994648833 -0.4242101247151708 -1.4099832412739487e-15
  endloop
endfacet
facet normal 0.0 0.0 -1.0
  outer loop
    vertex 3.400000000000002 -1.9629909152447313 0.0
    vertex 3.2221957994648833 -0.4242101247151708 -1.4099832412739487e-15
    vertex 3.2499999999999996 1.967148121826516e-30 -1.4099832412739487e-15
  endloop
endfacet
facet normal 0.0 0.0 -1.0
  outer loop
    vertex 3.400000000000002 -1.9629909152447313 0.0
    vertex 3.2499999999999996 1.967148121826516e-30 -1.4099832412739487e-15
    vertex 3.400000000000002 1.9629909152447258 0.0
  endloop
endfacet
endsolid Hex-6.5
