solid e3d_v5-крышка-под вентилятор
facet normal 0.999999999459484 3.2146820693711783e-06 -3.272152237609955e-05
  outer loop
    vertex 36.77754405089548 31.00054040280163 58.98117846712312
    vertex 36.778121197874725 43.000414410562975 62.98119822437689
    vertex 36.777674932566434 31.000414428671863 62.98117846299796
  endloop
endfacet
facet normal 0.999999999459484 3.2146820693711783e-06 -3.272152237609955e-05
  outer loop
    vertex 36.778121197874725 43.000414410562975 62.98119822437689
    vertex 36.77754405089548 31.00054040280163 58.98117846712312
    vertex 36.777990316203756 43.00054038469273 58.98119822850209
  endloop
endfacet
facet normal 4.304708310432565e-05 0.9889347151495895 0.14835136439867594
  outer loop
    vertex 31.777377781941745 46.000557217874594 38.98269417508279
    vertex 36.777990316203756 43.00054038469273 58.98119822850209
    vertex 56.7773778310637 46.00063758531914 38.98163758373642
  endloop
endfacet
facet normal 4.304708310432565e-05 0.9889347151495895 0.14835136439867594
  outer loop
    vertex 36.777990316203756 43.00054038469273 58.98119822850209
    vertex 31.777377781941745 46.000557217874594 38.98269417508279
    vertex 11.777990267081787 43.000460017248194 58.98225481984843
  endloop
endfacet
facet normal -0.9999999994594517 -3.224696636721828e-06 3.272152206068235e-05
  outer loop
    vertex 34.77804678991412 41.00040798186865 62.98268708972595
    vertex 34.777618430000665 33.000533970493244 58.981202304621604
    vertex 34.777749311671634 33.00040799636348 62.981202300496406
  endloop
endfacet
facet normal -0.9999999994594517 -3.224696636721828e-06 3.272152206068235e-05
  outer loop
    vertex 34.777618430000665 33.000533970493244 58.981202304621604
    vertex 34.77804678991412 41.00040798186865 62.98268708972595
    vertex 34.77791590824314 41.00053395599842 58.98268709385114
  endloop
endfacet
facet normal 0.7250136481779279 2.97416685934719e-05 0.6887344982438188
  outer loop
    vertex 32.776996816889046 36.000587539740565 38.98258766510462
    vertex 13.777915887976476 41.0004664495566 58.982230979764836
    vertex 13.777618377770944 33.00046646162919 58.9822178055122
  endloop
endfacet
facet normal 0.7250136481779279 2.97416685934719e-05 0.6887344982438188
  outer loop
    vertex 13.777915887976476 41.0004664495566 58.982230979764836
    vertex 32.776996816889046 36.000587539740565 38.98258766510462
    vertex 32.77729442469338 44.00242717806605 38.98125715395163
  endloop
endfacet
facet normal -0.9999999992180008 3.566536442631278e-05 -1.708742836766191e-05
  outer loop
    vertex 31.777377781941745 46.000557217874594 38.98269417508279
    vertex 31.777765324783708 45.25059870944655 18.981225464186686
    vertex 31.77693151663345 34.00055723598352 38.98267441370387
  endloop
endfacet
facet normal -0.9999999992180008 3.566536442631278e-05 -1.708742836766191e-05
  outer loop
    vertex 31.777765324783708 45.25059870944655 18.981225464186686
    vertex 31.777377781941745 46.000557217874594 38.98269417508279
    vertex 31.777674160517996 46.000590139540684 18.9810945972874
  endloop
endfacet
facet normal -0.9999999992180008 3.566536442631278e-05 -1.708742836766191e-05
  outer loop
    vertex 31.777674160517996 46.000590139540684 18.9810945972874
    vertex 31.777377781941745 46.000557217874594 38.98269417508279
    vertex 31.777897293172153 52.00059013048624 18.981104477976864
  endloop
endfacet
facet normal -0.9999999992180008 3.566536442631278e-05 -1.708742836766191e-05
  outer loop
    vertex 31.777897293172153 52.00059013048624 18.981104477976864
    vertex 31.777377781941745 46.000557217874594 38.98269417508279
    vertex 31.777600914595915 52.00055720882011 38.982704055772246
  endloop
endfacet
facet normal 3.272041774057116e-05 -3.149353244162116e-05 0.999999998968766
  outer loop
    vertex 11.777674883444442 31.000334061227335 62.982235054344315
    vertex 13.777749259441903 33.000340487499415 62.98221780138704
    vertex 13.778046769647434 41.000340475426825 62.98223097563967
  endloop
endfacet
facet normal 3.272041774057116e-05 -3.149353244162116e-05 0.999999998968766
  outer loop
    vertex 13.777749259441903 33.000340487499415 62.98221780138704
    vertex 11.777674883444442 31.000334061227335 62.982235054344315
    vertex 36.777674932566434 31.000414428671863 62.98117846299796
  endloop
endfacet
facet normal 3.272041774057116e-05 -3.149353244162116e-05 0.999999998968766
  outer loop
    vertex 13.777749259441903 33.000340487499415 62.98221780138704
    vertex 36.777674932566434 31.000414428671863 62.98117846299796
    vertex 34.777749311671634 33.00040799636348 62.981202300496406
  endloop
endfacet
facet normal 3.272041774057116e-05 -3.149353244162116e-05 0.999999998968766
  outer loop
    vertex 34.777749311671634 33.00040799636348 62.981202300496406
    vertex 36.777674932566434 31.000414428671863 62.98117846299796
    vertex 34.77804678991412 41.00040798186865 62.98268708972595
  endloop
endfacet
facet normal 3.272041774057116e-05 -3.149353244162116e-05 0.999999998968766
  outer loop
    vertex 34.77804678991412 41.00040798186865 62.98268708972595
    vertex 36.777674932566434 31.000414428671863 62.98117846299796
    vertex 36.778121197874725 43.000414410562975 62.98119822437689
  endloop
endfacet
facet normal 3.272041774057116e-05 -3.149353244162116e-05 0.999999998968766
  outer loop
    vertex 11.778121148752748 43.00033404311844 62.98225481572322
    vertex 13.778046769647434 41.000340475426825 62.98223097563967
    vertex 36.778121197874725 43.000414410562975 62.98119822437689
  endloop
endfacet
facet normal 3.272041774057116e-05 -3.149353244162116e-05 0.999999998968766
  outer loop
    vertex 13.778046769647434 41.000340475426825 62.98223097563967
    vertex 11.778121148752748 43.00033404311844 62.98225481572322
    vertex 11.777674883444442 31.000334061227335 62.982235054344315
  endloop
endfacet
facet normal 3.272041774057116e-05 -3.149353244162116e-05 0.999999998968766
  outer loop
    vertex 36.778121197874725 43.000414410562975 62.98119822437689
    vertex 13.778046769647434 41.000340475426825 62.98223097563967
    vertex 34.77804678991412 41.00040798186865 62.98268708972595
  endloop
endfacet
facet normal -0.7071119012161158 2.7461067912460503e-05 -0.7071016605866655
  outer loop
    vertex 11.777990267081787 43.000460017248194 58.98225481984843
    vertex 31.77693151663345 34.00055723598352 38.98267441370387
    vertex 11.777544001773478 31.00046003535711 58.98223505846952
  endloop
endfacet
facet normal -0.7071119012161158 2.7461067912460503e-05 -0.7071016605866655
  outer loop
    vertex 31.77693151663345 34.00055723598352 38.98267441370387
    vertex 11.777990267081787 43.000460017248194 58.98225481984843
    vertex 31.777377781941745 46.000557217874594 38.98269417508279
  endloop
endfacet
facet normal -3.0907444230571965e-06 -0.988934716248251 -0.1483513632881031
  outer loop
    vertex 36.77754405089548 31.00054040280163 58.98117846712312
    vertex 31.77693151663345 34.00055723598352 38.98267441370387
    vertex 56.77693156575541 34.00063760342805 38.9816178223575
  endloop
endfacet
facet normal -3.0907444230571965e-06 -0.988934716248251 -0.1483513632881031
  outer loop
    vertex 31.77693151663345 34.00055723598352 38.98267441370387
    vertex 36.77754405089548 31.00054040280163 58.98117846712312
    vertex 11.777544001773478 31.00046003535711 58.98223505846952
  endloop
endfacet
facet normal -0.725015282492001 0.00010607317231615164 -0.6887327703119158
  outer loop
    vertex 34.77791590824314 41.00053395599842 58.98268709385114
    vertex 53.77726142608788 35.999819878473645 38.98168389069207
    vertex 34.777618430000665 33.000533970493244 58.981202304621604
  endloop
endfacet
facet normal -0.725015282492001 0.00010607317231615164 -0.6887327703119158
  outer loop
    vertex 53.77726142608788 35.999819878473645 38.98168389069207
    vertex 34.77791590824314 41.00053395599842 58.98268709385114
    vertex 53.777882372103576 44.00250799780046 38.981697076394184
  endloop
endfacet
facet normal 2.32650505115338e-05 0.9889347978569165 0.1483508174781568
  outer loop
    vertex 32.776996816889046 36.000587539740565 38.98258766510462
    vertex 34.777618430000665 33.000533970493244 58.981202304621604
    vertex 53.77726142608788 35.999819878473645 38.98168389069207
  endloop
endfacet
facet normal 2.32650505115338e-05 0.9889347978569165 0.1483508174781568
  outer loop
    vertex 34.777618430000665 33.000533970493244 58.981202304621604
    vertex 32.776996816889046 36.000587539740565 38.98258766510462
    vertex 13.777618377770944 33.00046646162919 58.9822178055122
  endloop
endfacet
facet normal -0.9999999994594839 -3.2146820679611725e-06 3.272152237609959e-05
  outer loop
    vertex 11.778121148752748 43.00033404311844 62.98225481572322
    vertex 11.777544001773478 31.00046003535711 58.98223505846952
    vertex 11.777674883444442 31.000334061227335 62.982235054344315
  endloop
endfacet
facet normal -0.9999999994594839 -3.2146820679611725e-06 3.272152237609959e-05
  outer loop
    vertex 11.777544001773478 31.00046003535711 58.98223505846952
    vertex 11.778121148752748 43.00033404311844 62.98225481572322
    vertex 11.777990267081787 43.000460017248194 58.98225481984843
  endloop
endfacet
facet normal 3.7190219058502486e-05 0.9999999988124917 3.1494515217360854e-05
  outer loop
    vertex 13.777618377770944 33.00046646162919 58.9822178055122
    vertex 34.777749311671634 33.00040799636348 62.981202300496406
    vertex 34.777618430000665 33.000533970493244 58.981202304621604
  endloop
endfacet
facet normal 3.7190219058502486e-05 0.9999999988124917 3.1494515217360854e-05
  outer loop
    vertex 34.777749311671634 33.00040799636348 62.981202300496406
    vertex 13.777618377770944 33.00046646162919 58.9822178055122
    vertex 13.777749259441903 33.000340487499415 62.98221780138704
  endloop
endfacet
facet normal 0.7071119019900176 1.109280398515112e-06 0.7071016603451228
  outer loop
    vertex 56.77693156575541 34.00063760342805 38.9816178223575
    vertex 36.777990316203756 43.00054038469273 58.98119822850209
    vertex 36.77754405089548 31.00054040280163 58.98117846712312
  endloop
endfacet
facet normal 0.7071119019900176 1.109280398515112e-06 0.7071016603451228
  outer loop
    vertex 36.777990316203756 43.00054038469273 58.98119822850209
    vertex 56.77693156575541 34.00063760342805 38.9816178223575
    vertex 56.7773778310637 46.00063758531914 38.98163758373642
  endloop
endfacet
facet normal 0.999999999459484 3.2146820684312224e-06 -3.272152237609958e-05
  outer loop
    vertex 13.777618377770944 33.00046646162919 58.9822178055122
    vertex 13.778046769647434 41.000340475426825 62.98223097563967
    vertex 13.777749259441903 33.000340487499415 62.98221780138704
  endloop
endfacet
facet normal 0.999999999459484 3.2146820684312224e-06 -3.272152237609958e-05
  outer loop
    vertex 13.778046769647434 41.000340475426825 62.98223097563967
    vertex 13.777618377770944 33.00046646162919 58.9822178055122
    vertex 13.777915887976476 41.0004664495566 58.982230979764836
  endloop
endfacet
facet normal 3.7190037180543774e-05 0.9999999988124985 3.149451522331239e-05
  outer loop
    vertex 11.777990267081787 43.000460017248194 58.98225481984843
    vertex 36.778121197874725 43.000414410562975 62.98119822437689
    vertex 36.777990316203756 43.00054038469273 58.98119822850209
  endloop
endfacet
facet normal 3.7190037180543774e-05 0.9999999988124985 3.149451522331239e-05
  outer loop
    vertex 36.778121197874725 43.000414410562975 62.98119822437689
    vertex 11.777990267081787 43.000460017248194 58.98225481984843
    vertex 11.778121148752748 43.00033404311844 62.98225481572322
  endloop
endfacet
facet normal 6.658841458650713e-06 -0.9889240755758844 -0.14842227832115593
  outer loop
    vertex 34.77791590824314 41.00053395599842 58.98268709385114
    vertex 32.77729442469338 44.00242717806605 38.98125715395163
    vertex 53.777882372103576 44.00250799780046 38.981697076394184
  endloop
endfacet
facet normal 6.658841458650713e-06 -0.9889240755758844 -0.14842227832115593
  outer loop
    vertex 32.77729442469338 44.00242717806605 38.98125715395163
    vertex 34.77791590824314 41.00053395599842 58.98268709385114
    vertex 13.777915887976476 41.0004664495566 58.982230979764836
  endloop
endfacet
facet normal -3.7188127421954e-05 -0.9999999988125693 -3.149451528580504e-05
  outer loop
    vertex 34.77791590824314 41.00053395599842 58.98268709385114
    vertex 13.778046769647434 41.000340475426825 62.98223097563967
    vertex 13.777915887976476 41.0004664495566 58.982230979764836
  endloop
endfacet
facet normal -3.7188127421954e-05 -0.9999999988125693 -3.149451528580504e-05
  outer loop
    vertex 13.778046769647434 41.000340475426825 62.98223097563967
    vertex 34.77791590824314 41.00053395599842 58.98268709385114
    vertex 34.77804678991412 41.00040798186865 62.98268708972595
  endloop
endfacet
facet normal -3.7190037180994945e-05 -0.9999999988124985 -3.14945152233124e-05
  outer loop
    vertex 36.777674932566434 31.000414428671863 62.98117846299796
    vertex 11.777544001773478 31.00046003535711 58.98223505846952
    vertex 36.77754405089548 31.00054040280163 58.98117846712312
  endloop
endfacet
facet normal -3.7190037180994945e-05 -0.9999999988124985 -3.14945152233124e-05
  outer loop
    vertex 11.777544001773478 31.00046003535711 58.98223505846952
    vertex 36.777674932566434 31.000414428671863 62.98117846299796
    vertex 11.777674883444442 31.000334061227335 62.982235054344315
  endloop
endfacet
facet normal 2.171971307724935e-05 1.6459738498164982e-06 -0.9999999997627724
  outer loop
    vertex 56.7778973075516 52.00067049529789 18.981647470936515
    vertex 31.777674160517996 46.000590139540684 18.9810945972874
    vertex 31.777897293172153 52.00059013048624 18.981104477976864
  endloop
endfacet
facet normal 2.171971307724935e-05 1.6459738498164982e-06 -0.9999999997627724
  outer loop
    vertex 31.777674160517996 46.000590139540684 18.9810945972874
    vertex 56.7778973075516 52.00067049529789 18.981647470936515
    vertex 56.77767417489744 46.00067050435233 18.981637590247047
  endloop
endfacet
facet normal 3.7188775722313015e-05 0.9999999993071416 1.6467815784181187e-06
  outer loop
    vertex 31.777897293172153 52.00059013048624 18.981104477976864
    vertex 33.777853854896364 52.000593267723445 20.981147916939182
    vertex 56.7778973075516 52.00067049529789 18.981647470936515
  endloop
endfacet
facet normal 3.7188775722313015e-05 0.9999999993071416 1.6467815784181187e-06
  outer loop
    vertex 33.777853854896364 52.000593267723445 20.981147916939182
    vertex 31.777897293172153 52.00059013048624 18.981104477976864
    vertex 31.777600914595915 52.00055720882011 38.982704055772246
  endloop
endfacet
facet normal 3.7188775722313015e-05 0.9999999993071416 1.6467815784181187e-06
  outer loop
    vertex 56.7778973075516 52.00067049529789 18.981647470936515
    vertex 33.777853854896364 52.000593267723445 20.981147916939182
    vertex 54.77785386697512 52.00066077416523 20.98160403102528
  endloop
endfacet
facet normal 3.7188775722313015e-05 0.9999999993071416 1.6467815784181187e-06
  outer loop
    vertex 33.777853854896364 52.000593267723445 20.981147916939182
    vertex 31.777600914595915 52.00055720882011 38.982704055772246
    vertex 33.77750630474461 52.000566929508985 36.98274749744954
  endloop
endfacet
facet normal 3.7188775722313015e-05 0.9999999993071416 1.6467815784181187e-06
  outer loop
    vertex 33.77750630474461 52.000566929508985 36.98274749744954
    vertex 31.777600914595915 52.00055720882011 38.982704055772246
    vertex 56.777600963717866 52.00063757626468 38.98164746442588
  endloop
endfacet
facet normal 3.7188775722313015e-05 0.9999999993071416 1.6467815784181187e-06
  outer loop
    vertex 54.77785386697512 52.00066077416523 20.98160403102528
    vertex 56.777600963717866 52.00063757626468 38.98164746442588
    vertex 56.7778973075516 52.00067049529789 18.981647470936515
  endloop
endfacet
facet normal 3.7188775722313015e-05 0.9999999993071416 1.6467815784181187e-06
  outer loop
    vertex 56.777600963717866 52.00063757626468 38.98164746442588
    vertex 54.77785386697512 52.00066077416523 20.98160403102528
    vertex 54.777506351565876 52.000634438583624 36.981604027229636
  endloop
endfacet
facet normal 3.7188775722313015e-05 0.9999999993071416 1.6467815784181187e-06
  outer loop
    vertex 56.777600963717866 52.00063757626468 38.98164746442588
    vertex 54.777506351565876 52.000634438583624 36.981604027229636
    vertex 33.77750630474461 52.000566929508985 36.98274749744954
  endloop
endfacet
facet normal 4.2263659128899584e-05 -1.645768165041325e-06 0.9999999991055373
  outer loop
    vertex 56.7773778310637 46.00063758531914 38.98163758373642
    vertex 31.777600914595915 52.00055720882011 38.982704055772246
    vertex 31.777377781941745 46.000557217874594 38.98269417508279
  endloop
endfacet
facet normal 4.2263659128899584e-05 -1.645768165041325e-06 0.9999999991055373
  outer loop
    vertex 31.777600914595915 52.00055720882011 38.982704055772246
    vertex 56.7773778310637 46.00063758531914 38.98163758373642
    vertex 56.777600963717866 52.00063757626468 38.98164746442588
  endloop
endfacet
facet normal -5.445096806531692e-05 1.6457289864041663e-06 -0.9999999985161919
  outer loop
    vertex 33.77750630474461 52.000566929508985 36.98274749744954
    vertex 54.77728321891172 46.00063444763811 36.98159414654019
    vertex 33.777283172090435 46.00056693856343 36.982737616760076
  endloop
endfacet
facet normal -5.445096806531692e-05 1.6457289864041663e-06 -0.9999999985161919
  outer loop
    vertex 54.77728321891172 46.00063444763811 36.98159414654019
    vertex 33.77750630474461 52.000566929508985 36.98274749744954
    vertex 54.777506351565876 52.000634438583624 36.981604027229636
  endloop
endfacet
facet normal 0.9999999990726245 -3.718881148363443e-05 2.1719651849929025e-05
  outer loop
    vertex 33.777630722242165 46.00059327677791 20.98113803624971
    vertex 33.777283172090435 46.00056693856343 36.982737616760076
    vertex 33.77694850785174 37.00056695559421 36.981123211419856
  endloop
endfacet
facet normal 0.9999999990726245 -3.718881148363443e-05 2.1719651849929025e-05
  outer loop
    vertex 33.777283172090435 46.00056693856343 36.982737616760076
    vertex 33.777630722242165 46.00059327677791 20.98113803624971
    vertex 33.77750630474461 52.000566929508985 36.98274749744954
  endloop
endfacet
facet normal 0.9999999990726245 -3.718881148363443e-05 2.1719651849929025e-05
  outer loop
    vertex 33.77750630474461 52.000566929508985 36.98274749744954
    vertex 33.777630722242165 46.00059327677791 20.98113803624971
    vertex 33.777853854896364 52.000593267723445 20.981147916939182
  endloop
endfacet
facet normal -2.1719713077238587e-05 -1.645973849816496e-06 0.9999999997627724
  outer loop
    vertex 54.77763073432096 46.0006607832197 20.981594150335823
    vertex 33.777853854896364 52.000593267723445 20.981147916939182
    vertex 33.777630722242165 46.00059327677791 20.98113803624971
  endloop
endfacet
facet normal -2.1719713077238587e-05 -1.645973849816496e-06 0.9999999997627724
  outer loop
    vertex 33.777853854896364 52.000593267723445 20.981147916939182
    vertex 54.77763073432096 46.0006607832197 20.981594150335823
    vertex 54.77785386697512 52.00066077416523 20.98160403102528
  endloop
endfacet
facet normal -0.9999999990726245 3.718881148214552e-05 -2.171965185079616e-05
  outer loop
    vertex 54.77728321891172 46.00063444763811 36.98159414654019
    vertex 54.77763073432096 46.0006607832197 20.981594150335823
    vertex 54.776948519930514 37.00063446203602 36.98157932550598
  endloop
endfacet
facet normal -0.9999999990726245 3.718881148214552e-05 -2.171965185079616e-05
  outer loop
    vertex 54.77763073432096 46.0006607832197 20.981594150335823
    vertex 54.77728321891172 46.00063444763811 36.98159414654019
    vertex 54.777506351565876 52.000634438583624 36.981604027229636
  endloop
endfacet
facet normal -0.9999999990726245 3.718881148214552e-05 -2.171965185079616e-05
  outer loop
    vertex 54.77763073432096 46.0006607832197 20.981594150335823
    vertex 54.777506351565876 52.000634438583624 36.981604027229636
    vertex 54.77785386697512 52.00066077416523 20.98160403102528
  endloop
endfacet
facet normal 1.9077993304796902e-05 -8.642040655332153e-05 -0.9999999960837719
  outer loop
    vertex 56.77767417489744 46.00067050435233 18.981637590247047
    vertex 31.777765324783708 45.25059870944655 18.981225464186686
    vertex 31.777674160517996 46.000590139540684 18.9810945972874
  endloop
endfacet
facet normal 1.9077993304796902e-05 -8.642040655332153e-05 -0.9999999960837719
  outer loop
    vertex 31.777765324783708 45.25059870944655 18.981225464186686
    vertex 56.77767417489744 46.00067050435233 18.981637590247047
    vertex 56.777653185837075 45.25067050550636 18.98163635531078
  endloop
endfacet
facet normal 0.9999999992000452 -3.710047632532559e-05 1.4948733389261264e-05
  outer loop
    vertex 56.777653185837075 45.25067050550636 18.98163635531078
    vertex 56.7773778310637 46.00063758531914 38.98163758373642
    vertex 56.77693156575541 34.00063760342805 38.9816178223575
  endloop
endfacet
facet normal 0.9999999992000452 -3.710047632532559e-05 1.4948733389261264e-05
  outer loop
    vertex 56.7773778310637 46.00063758531914 38.98163758373642
    vertex 56.777653185837075 45.25067050550636 18.98163635531078
    vertex 56.77767417489744 46.00067050435233 18.981637590247047
  endloop
endfacet
facet normal 0.9999999992000452 -3.710047632532559e-05 1.4948733389261264e-05
  outer loop
    vertex 56.7773778310637 46.00063758531914 38.98163758373642
    vertex 56.77767417489744 46.00067050435233 18.981637590247047
    vertex 56.7778973075516 52.00067049529789 18.981647470936515
  endloop
endfacet
facet normal 0.9999999992000452 -3.710047632532559e-05 1.4948733389261264e-05
  outer loop
    vertex 56.7773778310637 46.00063758531914 38.98163758373642
    vertex 56.7778973075516 52.00067049529789 18.981647470936515
    vertex 56.777600963717866 52.00063757626468 38.98164746442588
  endloop
endfacet
facet normal -3.6786594647108033e-06 -0.8715823359766497 -0.4902491525744374
  outer loop
    vertex 56.77693156575541 34.00063760342805 38.9816178223575
    vertex 31.777765324783708 45.25059870944655 18.981225464186686
    vertex 56.777653185837075 45.25067050550636 18.98163635531078
  endloop
endfacet
facet normal -3.6786594647108033e-06 -0.8715823359766497 -0.4902491525744374
  outer loop
    vertex 31.777765324783708 45.25059870944655 18.981225464186686
    vertex 56.77693156575541 34.00063760342805 38.9816178223575
    vertex 31.77693151663345 34.00055723598352 38.98267441370387
  endloop
endfacet
facet normal 0.8944454616418384 -4.5245722274815035e-05 0.4471770500608716
  outer loop
    vertex 33.77694850785174 37.00056695559421 36.981123211419856
    vertex 32.77729442469338 44.00242717806605 38.98125715395163
    vertex 32.776996816889046 36.000587539740565 38.98258766510462
  endloop
endfacet
facet normal 0.8944454616418384 -4.5245722274815035e-05 0.4471770500608716
  outer loop
    vertex 32.77729442469338 44.00242717806605 38.98125715395163
    vertex 33.77694850785174 37.00056695559421 36.981123211419856
    vertex 33.777283172090435 46.00056693856343 36.982737616760076
  endloop
endfacet
facet normal -9.342402947572278e-06 -0.7073128694174383 -0.7069006328114225
  outer loop
    vertex 53.777882372103576 44.00250799780046 38.981697076394184
    vertex 33.777283172090435 46.00056693856343 36.982737616760076
    vertex 54.77728321891172 46.00063444763811 36.98159414654019
  endloop
endfacet
facet normal -9.342402947572278e-06 -0.7073128694174383 -0.7069006328114225
  outer loop
    vertex 33.777283172090435 46.00056693856343 36.982737616760076
    vertex 53.777882372103576 44.00250799780046 38.981697076394184
    vertex 32.77729442469338 44.00242717806605 38.98125715395163
  endloop
endfacet
facet normal -0.8945330097109027 4.996127302870435e-05 -0.4470018926597799
  outer loop
    vertex 53.777882372103576 44.00250799780046 38.981697076394184
    vertex 54.776948519930514 37.00063446203602 36.98157932550598
    vertex 53.77726142608788 35.999819878473645 38.98168389069207
  endloop
endfacet
facet normal -0.8945330097109027 4.996127302870435e-05 -0.4470018926597799
  outer loop
    vertex 54.776948519930514 37.00063446203602 36.98157932550598
    vertex 53.777882372103576 44.00250799780046 38.981697076394184
    vertex 54.77728321891172 46.00063444763811 36.98159414654019
  endloop
endfacet
facet normal -1.3450124756932051e-05 0.8715747305226614 0.4902626734042116
  outer loop
    vertex 33.77694850785174 37.00056695559421 36.981123211419856
    vertex 54.77763073432096 46.0006607832197 20.981594150335823
    vertex 33.777630722242165 46.00059327677791 20.98113803624971
  endloop
endfacet
facet normal -1.3450124756932051e-05 0.8715747305226614 0.4902626734042116
  outer loop
    vertex 54.77763073432096 46.0006607832197 20.981594150335823
    vertex 33.77694850785174 37.00056695559421 36.981123211419856
    vertex 54.776948519930514 37.00063446203602 36.98157932550598
  endloop
endfacet
facet normal 1.967665775899818e-05 0.8944224552619588 0.44722306641764203
  outer loop
    vertex 32.776996816889046 36.000587539740565 38.98258766510462
    vertex 54.776948519930514 37.00063446203602 36.98157932550598
    vertex 33.77694850785174 37.00056695559421 36.981123211419856
  endloop
endfacet
facet normal 1.967665775899818e-05 0.8944224552619588 0.44722306641764203
  outer loop
    vertex 54.776948519930514 37.00063446203602 36.98157932550598
    vertex 32.776996816889046 36.000587539740565 38.98258766510462
    vertex 53.77726142608788 35.999819878473645 38.98168389069207
  endloop
endfacet
endsolid e3d_v5-крышка-под вентилятор
