solid e3d_v5-сменные-половинка
facet normal 0.9999999999863188 -5.230381320926688e-06 -7.50742332173126e-08
  outer loop
    vertex 52.782055905945 45.99996785670176 -4.215936992832569
    vertex 52.78208562991991 49.99983373842683 4.741491596250351
    vertex 52.782065098984894 45.99983630722904 4.741432911437876
  endloop
endfacet
facet normal 0.9999999999863188 -5.230381320926688e-06 -7.50742332173126e-08
  outer loop
    vertex 52.78208562991991 49.99983373842683 4.741491596250351
    vertex 52.782055905945 45.99996785670176 -4.215936992832569
    vertex 52.78207721803123 49.99996301712942 -4.215877972069252
  endloop
endfacet
facet normal 0.923879532458769 -1.0650578318684028e-05 0.3826834323436692
  outer loop
    vertex 51.646035783944725 45.99980029916897 7.484050290030518
    vertex 50.70795221052276 49.99976868896004 9.748895699949449
    vertex 50.7079304889766 45.99976868945242 9.74883681518926
  endloop
endfacet
facet normal 0.923879532458769 -1.0650578318684028e-05 0.3826834323436692
  outer loop
    vertex 50.70795221052276 49.99976868896004 9.748895699949449
    vertex 51.646035783944725 45.99980029916897 7.484050290030518
    vertex 51.64605631487953 49.999797730366716 7.48410897484297
  endloop
endfacet
facet normal 0.9914448613459409 -7.305429709560768e-06 0.1305261922273035
  outer loop
    vertex 50.7079304889766 45.99976868945242 9.74883681518926
    vertex 50.28202503881397 49.99972337535488 12.984133763371208
    vertex 50.282003317267844 45.99972337584723 12.984074878611013
  endloop
endfacet
facet normal 0.9914448613459409 -7.305429709560768e-06 0.1305261922273035
  outer loop
    vertex 50.28202503881397 49.99972337535488 12.984133763371208
    vertex 50.7079304889766 45.99976868945242 9.74883681518926
    vertex 50.70795221052276 49.99976868896004 9.748895699949449
  endloop
endfacet
facet normal 0.9238795324589572 -1.0356460624156546e-05 0.38268343235128743
  outer loop
    vertex 52.782065098984894 45.99983630722904 4.741432911437876
    vertex 51.64605631487953 49.999797730366716 7.48410897484297
    vertex 51.646035783944725 45.99980029916897 7.484050290030518
  endloop
endfacet
facet normal 0.9238795324589572 -1.0356460624156546e-05 0.38268343235128743
  outer loop
    vertex 51.64605631487953 49.999797730366716 7.48410897484297
    vertex 52.782065098984894 45.99983630722904 4.741432911437876
    vertex 52.78208562991991 49.99983373842683 4.741491596250351
  endloop
endfacet
facet normal -1.370647880567933e-05 -0.999999999904878 -1.5416907588154716e-06
  outer loop
    vertex 90.28279249845879 49.99917146874542 -4.214198749133609
    vertex 52.78208562991991 49.99983373842683 4.741491596250351
    vertex 52.78207721803123 49.99996301712942 -4.215877972069252
  endloop
endfacet
facet normal -1.370647880567933e-05 -0.999999999904878 -1.5416907588154716e-06
  outer loop
    vertex 52.78208562991991 49.99983373842683 4.741491596250351
    vertex 90.28279249845879 49.99917146874542 -4.214198749133609
    vertex 63.952566970059806 49.999649264645775 7.099422081613122
  endloop
endfacet
facet normal -1.370647880567933e-05 -0.999999999904878 -1.5416907588154716e-06
  outer loop
    vertex 63.952566970059806 49.999649264645775 7.099422081613122
    vertex 90.28279249845879 49.99917146874542 -4.214198749133609
    vertex 90.28054215229328 49.9994254999885 12.98435508852095
  endloop
endfacet
facet normal -1.370647880567933e-05 -0.999999999904878 -1.5416907588154716e-06
  outer loop
    vertex 52.78208562991991 49.99983373842683 4.741491596250351
    vertex 63.952566970059806 49.999649264645775 7.099422081613122
    vertex 62.78202503816413 49.99966552526325 6.984133764160172
  endloop
endfacet
facet normal -1.370647880567933e-05 -0.999999999904878 -1.5416907588154716e-06
  outer loop
    vertex 63.952566970059806 49.999649264645775 7.099422081613122
    vertex 90.28054215229328 49.9994254999885 12.98435508852095
    vertex 65.07812563197821 49.999633243477376 7.440856568822049
  endloop
endfacet
facet normal -1.370647880567933e-05 -0.999999999904878 -1.5416907588154716e-06
  outer loop
    vertex 65.07812563197821 49.999633243477376 7.440856568822049
    vertex 90.28054215229328 49.9994254999885 12.98435508852095
    vertex 66.11544643576231 49.99961807744261 7.995316089922205
  endloop
endfacet
facet normal -1.370647880567933e-05 -0.999999999904878 -1.5416907588154716e-06
  outer loop
    vertex 66.11544643576231 49.99961807744261 7.995316089922205
    vertex 90.28054215229328 49.9994254999885 12.98435508852095
    vertex 67.02466572465883 49.99960434936369 8.741493076462175
  endloop
endfacet
facet normal -1.370647880567933e-05 -0.999999999904878 -1.5416907588154716e-06
  outer loop
    vertex 67.02466572465883 49.99960434936369 8.741493076462175
    vertex 90.28054215229328 49.9994254999885 12.98435508852095
    vertex 67.7708427112915 49.9995925868031 9.650712365310168
  endloop
endfacet
facet normal -1.370647880567933e-05 -0.999999999904878 -1.5416907588154716e-06
  outer loop
    vertex 67.7708427112915 49.9995925868031 9.650712365310168
    vertex 90.28054215229328 49.9994254999885 12.98435508852095
    vertex 68.325302232525 49.99958324178926 10.688033169091726
  endloop
endfacet
facet normal -1.370647880567933e-05 -0.999999999904878 -1.5416907588154716e-06
  outer loop
    vertex 68.325302232525 49.99958324178926 10.688033169091726
    vertex 90.28054215229328 49.9994254999885 12.98435508852095
    vertex 68.66673671990283 49.99957667344584 11.813591831053728
  endloop
endfacet
facet normal -1.370647880567933e-05 -0.999999999904878 -1.5416907588154716e-06
  outer loop
    vertex 68.66673671990283 49.99957667344584 11.813591831053728
    vertex 90.28054215229328 49.9994254999885 12.98435508852095
    vertex 68.78070337853549 49.99961710806412 12.984150003393493
  endloop
endfacet
facet normal -1.370647880567933e-05 -0.999999999904878 -1.5416907588154716e-06
  outer loop
    vertex 62.78202503816413 49.99966552526325 6.984133764160172
    vertex 51.64605631487953 49.999797730366716 7.48410897484297
    vertex 52.78208562991991 49.99983373842683 4.741491596250351
  endloop
endfacet
facet normal -1.370647880567933e-05 -0.999999999904878 -1.5416907588154716e-06
  outer loop
    vertex 51.64605631487953 49.999797730366716 7.48410897484297
    vertex 62.78202503816413 49.99966552526325 6.984133764160172
    vertex 61.611483106286116 49.99968140044351 7.09942208184855
  endloop
endfacet
facet normal -1.370647880567933e-05 -0.999999999904878 -1.5416907588154716e-06
  outer loop
    vertex 51.64605631487953 49.999797730366716 7.48410897484297
    vertex 61.611483106286116 49.99968140044351 7.09942208184855
    vertex 60.48592444442083 49.99969628011218 7.4408565692838495
  endloop
endfacet
facet normal -1.370647880567933e-05 -0.999999999904878 -1.5416907588154716e-06
  outer loop
    vertex 51.64605631487953 49.999797730366716 7.48410897484297
    vertex 60.48592444442083 49.99969628011218 7.4408565692838495
    vertex 59.44860364072272 49.999709592452014 7.995316090592646
  endloop
endfacet
facet normal -1.370647880567933e-05 -0.999999999904878 -1.5416907588154716e-06
  outer loop
    vertex 51.64605631487953 49.999797730366716 7.48410897484297
    vertex 59.44860364072272 49.999709592452014 7.995316090592646
    vertex 50.70795221052276 49.99976868896004 9.748895699949449
  endloop
endfacet
facet normal -1.370647880567933e-05 -0.999999999904878 -1.5416907588154716e-06
  outer loop
    vertex 50.70795221052276 49.99976868896004 9.748895699949449
    vertex 59.44860364072272 49.999709592452014 7.995316090592646
    vertex 58.53938435194209 49.99972082587713 8.741493077315441
  endloop
endfacet
facet normal -1.370647880567933e-05 -0.999999999904878 -1.5416907588154716e-06
  outer loop
    vertex 50.70795221052276 49.99976868896004 9.748895699949449
    vertex 58.53938435194209 49.99972082587713 8.741493077315441
    vertex 57.79320736545054 49.99972954869339 9.650712366313476
  endloop
endfacet
facet normal -1.370647880567933e-05 -0.999999999904878 -1.5416907588154716e-06
  outer loop
    vertex 50.70795221052276 49.99976868896004 9.748895699949449
    vertex 57.79320736545054 49.99972954869339 9.650712366313476
    vertex 57.23874784437796 49.99973542568792 10.688033170206532
  endloop
endfacet
facet normal -1.370647880567933e-05 -0.999999999904878 -1.5416907588154716e-06
  outer loop
    vertex 50.70795221052276 49.99976868896004 9.748895699949449
    vertex 57.23874784437796 49.99973542568792 10.688033170206532
    vertex 50.28202503881397 49.99972337535488 12.984133763371208
  endloop
endfacet
facet normal -1.370647880567933e-05 -0.999999999904878 -1.5416907588154716e-06
  outer loop
    vertex 50.28202503881397 49.99972337535488 12.984133763371208
    vertex 57.23874784437796 49.99973542568792 10.688033170206532
    vertex 56.89731335717497 49.999738231011 11.813591832237217
  endloop
endfacet
facet normal -1.370647880567933e-05 -0.999999999904878 -1.5416907588154716e-06
  outer loop
    vertex 50.28202503881397 49.99972337535488 12.984133763371208
    vertex 56.89731335717497 49.999738231011 11.813591832237217
    vertex 56.78202503871822 49.9996880778425 12.984133763511474
  endloop
endfacet
facet normal 1.0075788293075598e-05 0.9999999999384495 4.6454017569876544e-06
  outer loop
    vertex 46.78162402730957 99.24999529844371 -4.2151373518353505
    vertex 49.78229246944803 99.24994690234855 -2.0151420407600993
    vertex 90.28308837027585 99.24917354938049 -4.213473637317173
  endloop
endfacet
facet normal 1.0075788293075598e-05 0.9999999999384495 4.6454017569876544e-06
  outer loop
    vertex 49.78229246944803 99.24994690234855 -2.0151420407600993
    vertex 46.78162402730957 99.24999529844371 -4.2151373518353505
    vertex 46.78185291058284 99.24973648634226 12.984858826580504
  endloop
endfacet
facet normal 1.0075788293075598e-05 0.9999999999384495 4.6454017569876544e-06
  outer loop
    vertex 49.78229246944803 99.24994690234855 -2.0151420407600993
    vertex 46.78185291058284 99.24973648634226 12.984858826580504
    vertex 49.78229246255188 99.24972318168375 12.984858826689223
  endloop
endfacet
facet normal 1.0075788293075598e-05 0.9999999999384495 4.6454017569876544e-06
  outer loop
    vertex 90.28308837027585 99.24917354938049 -4.213473637317173
    vertex 85.28044429426592 99.24974324159851 -2.0151420390029195
    vertex 90.28080959923632 99.24950031012412 12.985226128472585
  endloop
endfacet
facet normal 1.0075788293075598e-05 0.9999999999384495 4.6454017569876544e-06
  outer loop
    vertex 85.28044429426592 99.24974324159851 -2.0151420390029195
    vertex 90.28308837027585 99.24917354938049 -4.213473637317173
    vertex 49.78229246944803 99.24994690234855 -2.0151420407600993
  endloop
endfacet
facet normal 1.0075788293075598e-05 0.9999999999384495 4.6454017569876544e-06
  outer loop
    vertex 90.28080959923632 99.24950031012412 12.985226128472585
    vertex 85.28044429426592 99.24974324159851 -2.0151420390029195
    vertex 85.28044428741237 99.24952737720236 12.984858828661975
  endloop
endfacet
facet normal -0.00034680528583523997 -0.7071169422115766 0.7070965349677819
  outer loop
    vertex 90.28148023645916 85.71551691885823 0.48682154195636795
    vertex 85.27986802359702 87.99834650721085 2.766932677935281
    vertex 85.28034545958985 85.71660616105855 0.4851267135089595
  endloop
endfacet
facet normal -0.00034680528583523997 -0.7071169422115766 0.7070965349677819
  outer loop
    vertex 85.27986802359702 87.99834650721085 2.766932677935281
    vertex 90.28148023645916 85.71551691885823 0.48682154195636795
    vertex 90.28100280046627 87.99725726501043 2.7686275063827264
  endloop
endfacet
facet normal -0.0002765912753134629 -1.4389498956147363e-05 0.9999999616451036
  outer loop
    vertex 90.28132193312922 63.24532787206668 0.4864981633968343
    vertex 85.28034545958985 85.71660616105855 0.4851267135089595
    vertex 85.28018715625998 63.24641711426707 0.48480333494942573
  endloop
endfacet
facet normal -0.0002765912753134629 -1.4389498956147363e-05 0.9999999616451036
  outer loop
    vertex 85.28034545958985 85.71660616105855 0.4851267135089595
    vertex 90.28132193312922 63.24532787206668 0.4864981633968343
    vertex 90.28148023645916 85.71551691885823 0.48682154195636795
  endloop
endfacet
facet normal -5.68019615666456e-05 0.6811992752815229 0.7320980427029328
  outer loop
    vertex 90.28132045212142 60.24529735564669 2.6071909845399834
    vertex 85.2802193614689 62.52554736155602 0.4847929605984988
    vertex 85.28018567525217 60.24638659784711 2.6054961560925944
  endloop
endfacet
facet normal -5.68019615666456e-05 0.6811992752815229 0.7320980427029328
  outer loop
    vertex 85.2802193614689 62.52554736155602 0.4847929605984988
    vertex 90.28132045212142 60.24529735564669 2.6071909845399834
    vertex 90.28135413833814 62.52445811935562 0.4864877890458954
  endloop
endfacet
facet normal -0.0002765912783702207 -1.4403792314805086e-05 0.9999999616448971
  outer loop
    vertex 85.2802193614689 62.52554736155602 0.4847929605984988
    vertex 90.28132193312922 63.24532787206668 0.4864981633968343
    vertex 85.28018715625998 63.24641711426707 0.48480333494942573
  endloop
endfacet
facet normal -0.0002765912783702207 -1.4403792314805086e-05 0.9999999616448971
  outer loop
    vertex 90.28132193312922 63.24532787206668 0.4864981633968343
    vertex 85.2802193614689 62.52554736155602 0.4847929605984988
    vertex 90.28135413833814 62.52445811935562 0.4864877890458954
  endloop
endfacet
facet normal -2.152939778445875e-08 -1.4357627761851941e-05 0.999999999896929
  outer loop
    vertex 85.2804266054137 95.99974324197132 -2.015187986852221
    vertex 49.78229246944803 99.24994690234855 -2.0151420407600993
    vertex 49.78227483812481 95.99994690273633 -2.0151890602719686
  endloop
endfacet
facet normal -2.152939778445875e-08 -1.4357627761851941e-05 0.999999999896929
  outer loop
    vertex 49.78229246944803 99.24994690234855 -2.0151420407600993
    vertex 85.2804266054137 95.99974324197132 -2.015187986852221
    vertex 85.28044429426592 99.24974324159851 -2.0151420390029195
  endloop
endfacet
facet normal 7.4662102410822104e-06 -0.9999999997973279 -1.869759314963897e-05
  outer loop
    vertex 52.782065098984894 45.99983630722904 4.741432911437876
    vertex 46.7813192731361 46.00000327016667 -4.2159348950373605
    vertex 52.782055905945 45.99996785670176 -4.215936992832569
  endloop
endfacet
facet normal 7.4662102410822104e-06 -0.9999999997973279 -1.869759314963897e-05
  outer loop
    vertex 46.7813192731361 46.00000327016667 -4.2159348950373605
    vertex 52.782065098984894 45.99983630722904 4.741432911437876
    vertex 46.78141238367145 45.999586998127015 12.9837070641592
  endloop
endfacet
facet normal 7.4662102410822104e-06 -0.9999999997973279 -1.869759314963897e-05
  outer loop
    vertex 46.78141238367145 45.999586998127015 12.9837070641592
    vertex 52.782065098984894 45.99983630722904 4.741432911437876
    vertex 51.646035783944725 45.99980029916897 7.484050290030518
  endloop
endfacet
facet normal 7.4662102410822104e-06 -0.9999999997973279 -1.869759314963897e-05
  outer loop
    vertex 46.78141238367145 45.999586998127015 12.9837070641592
    vertex 51.646035783944725 45.99980029916897 7.484050290030518
    vertex 50.7079304889766 45.99976868945242 9.74883681518926
  endloop
endfacet
facet normal 7.4662102410822104e-06 -0.9999999997973279 -1.869759314963897e-05
  outer loop
    vertex 46.78141238367145 45.999586998127015 12.9837070641592
    vertex 50.7079304889766 45.99976868945242 9.74883681518926
    vertex 50.282003317267844 45.99972337584723 12.984074878611013
  endloop
endfacet
facet normal 7.4662102410822104e-06 -0.9999999997973279 -1.869759314963897e-05
  outer loop
    vertex 46.78141238367145 45.999586998127015 12.9837070641592
    vertex 50.282003317267844 45.99972337584723 12.984074878611013
    vertex 49.75218231672937 45.999636797553165 12.984047065138915
  endloop
endfacet
facet normal 0.9999999893310558 -9.521252346762632e-05 -0.00011078115171994337
  outer loop
    vertex 50.276894691440525 55.24687682239204 -4.215970245421339
    vertex 50.28243707415389 93.00600731400583 12.98520717450376
    vertex 50.2822320249147 55.246404421250865 12.984651308213355
  endloop
endfacet
facet normal 0.9999999893310558 -9.521252346762632e-05 -0.00011078115171994337
  outer loop
    vertex 50.28243707415389 93.00600731400583 12.98520717450376
    vertex 50.276894691440525 55.24687682239204 -4.215970245421339
    vertex 50.28388010346873 92.99899480809168 -4.215374827156579
  endloop
endfacet
facet normal 1.846148991421712e-05 0.9999999972359683 -7.202247440237655e-05
  outer loop
    vertex 50.276894691440525 55.24687682239204 -4.215970245421339
    vertex 60.485987397554 55.249658329382164 7.440866916401087
    vertex 85.28040127070258 55.24648561060298 -4.215311790963308
  endloop
endfacet
facet normal 1.846148991421712e-05 0.9999999972359683 -7.202247440237655e-05
  outer loop
    vertex 60.485987397554 55.249658329382164 7.440866916401087
    vertex 50.276894691440525 55.24687682239204 -4.215970245421339
    vertex 59.44866659385596 55.24967164172197 7.995326437709898
  endloop
endfacet
facet normal 1.846148991421712e-05 0.9999999972359683 -7.202247440237655e-05
  outer loop
    vertex 59.44866659385596 55.24967164172197 7.995326437709898
    vertex 50.276894691440525 55.24687682239204 -4.215970245421339
    vertex 50.2822320249147 55.246404421250865 12.984651308213355
  endloop
endfacet
facet normal 1.846148991421712e-05 0.9999999972359683 -7.202247440237655e-05
  outer loop
    vertex 85.28040127070258 55.24648561060298 -4.215311790963308
    vertex 60.485987397554 55.249658329382164 7.440866916401087
    vertex 61.611546059419254 55.24964344971349 7.0994324289658355
  endloop
endfacet
facet normal 1.846148991421712e-05 0.9999999972359683 -7.202247440237655e-05
  outer loop
    vertex 85.28040127070258 55.24648561060298 -4.215311790963308
    vertex 61.611546059419254 55.24964344971349 7.0994324289658355
    vertex 62.782087991297324 55.249627574533285 6.984144111277481
  endloop
endfacet
facet normal 1.846148991421712e-05 0.9999999972359683 -7.202247440237655e-05
  outer loop
    vertex 59.44866659385596 55.24967164172197 7.995326437709898
    vertex 50.2822320249147 55.246404421250865 12.984651308213355
    vertex 58.53944730507527 55.24968287514712 8.74150342443272
  endloop
endfacet
facet normal 1.846148991421712e-05 0.9999999972359683 -7.202247440237655e-05
  outer loop
    vertex 58.53944730507527 55.24968287514712 8.74150342443272
    vertex 50.2822320249147 55.246404421250865 12.984651308213355
    vertex 57.793270318583744 55.24969159796337 9.650722713430735
  endloop
endfacet
facet normal 1.846148991421712e-05 0.9999999972359683 -7.202247440237655e-05
  outer loop
    vertex 57.793270318583744 55.24969159796337 9.650722713430735
    vertex 50.2822320249147 55.246404421250865 12.984651308213355
    vertex 57.23881079751118 55.249697474957834 10.688043517323797
  endloop
endfacet
facet normal 1.846148991421712e-05 0.9999999972359683 -7.202247440237655e-05
  outer loop
    vertex 57.23881079751118 55.249697474957834 10.688043517323797
    vertex 50.2822320249147 55.246404421250865 12.984651308213355
    vertex 56.89737631030819 55.24970028028092 11.813602179354497
  endloop
endfacet
facet normal 1.846148991421712e-05 0.9999999972359683 -7.202247440237655e-05
  outer loop
    vertex 56.89737631030819 55.24970028028092 11.813602179354497
    vertex 50.2822320249147 55.246404421250865 12.984651308213355
    vertex 56.782087991851355 55.24965012711236 12.984144110628746
  endloop
endfacet
facet normal 1.846148991421712e-05 0.9999999972359683 -7.202247440237655e-05
  outer loop
    vertex 85.28040127070258 55.24648561060298 -4.215311790963308
    vertex 63.95262992319295 55.24961131391576 7.0994324287304185
    vertex 85.2804052853876 55.24623401664058 12.987635478371077
  endloop
endfacet
facet normal 1.846148991421712e-05 0.9999999972359683 -7.202247440237655e-05
  outer loop
    vertex 63.95262992319295 55.24961131391576 7.0994324287304185
    vertex 85.28040127070258 55.24648561060298 -4.215311790963308
    vertex 62.782087991297324 55.249627574533285 6.984144111277481
  endloop
endfacet
facet normal 1.846148991421712e-05 0.9999999972359683 -7.202247440237655e-05
  outer loop
    vertex 85.2804052853876 55.24623401664058 12.987635478371077
    vertex 63.95262992319295 55.24961131391576 7.0994324287304185
    vertex 65.0781885851114 55.24959529274738 7.440866915939357
  endloop
endfacet
facet normal 1.846148991421712e-05 0.9999999972359683 -7.202247440237655e-05
  outer loop
    vertex 85.2804052853876 55.24623401664058 12.987635478371077
    vertex 65.0781885851114 55.24959529274738 7.440866915939357
    vertex 66.11550938889549 55.24958012671267 7.995326437039519
  endloop
endfacet
facet normal 1.846148991421712e-05 0.9999999972359683 -7.202247440237655e-05
  outer loop
    vertex 85.2804052853876 55.24623401664058 12.987635478371077
    vertex 66.11550938889549 55.24958012671267 7.995326437039519
    vertex 67.02472867779201 55.24956639863373 8.741503423579484
  endloop
endfacet
facet normal 1.846148991421712e-05 0.9999999972359683 -7.202247440237655e-05
  outer loop
    vertex 85.2804052853876 55.24623401664058 12.987635478371077
    vertex 67.02472867779201 55.24956639863373 8.741503423579484
    vertex 67.7709056644246 55.24955463607312 9.650722712427477
  endloop
endfacet
facet normal 1.846148991421712e-05 0.9999999972359683 -7.202247440237655e-05
  outer loop
    vertex 85.2804052853876 55.24623401664058 12.987635478371077
    vertex 67.7709056644246 55.24955463607312 9.650722712427477
    vertex 68.3253651856582 55.24954529105924 10.688043516208971
  endloop
endfacet
facet normal 1.846148991421712e-05 0.9999999972359683 -7.202247440237655e-05
  outer loop
    vertex 85.2804052853876 55.24623401664058 12.987635478371077
    vertex 68.3253651856582 55.24954529105924 10.688043516208971
    vertex 68.66679967303601 55.2495387227159 11.813602178171013
  endloop
endfacet
facet normal 1.846148991421712e-05 0.9999999972359683 -7.202247440237655e-05
  outer loop
    vertex 85.2804052853876 55.24623401664058 12.987635478371077
    vertex 68.66679967303601 55.2495387227159 11.813602178171013
    vertex 68.78073192467399 55.249617107442866 12.98422555849408
  endloop
endfacet
facet normal -0.00012660619186524372 -0.9999999693141702 0.00021293785678663688
  outer loop
    vertex 85.28060654681396 92.99938796294674 -4.214768472042482
    vertex 64.92693016891623 92.9976433010071 2.1961309413226098
    vertex 62.78093673011315 92.99823825903138 1.9847690386002217
  endloop
endfacet
facet normal -0.00012660619186524372 -0.9999999693141702 0.00021293785678663688
  outer loop
    vertex 64.92693016891623 92.9976433010071 2.1961309413226098
    vertex 85.28060654681396 92.99938796294674 -4.214768472042482
    vertex 66.99045430083756 92.99712544881368 2.822094147981047
  endloop
endfacet
facet normal -0.00012660619186524372 -0.9999999693141702 0.00021293785678663688
  outer loop
    vertex 66.99045430083756 92.99712544881368 2.822094147981047
    vertex 85.28060654681396 92.99938796294674 -4.214768472042482
    vertex 68.89220905072507 92.9967046032204 3.838603243587898
  endloop
endfacet
facet normal -0.00012660619186524372 -0.9999999693141702 0.00021293785678663688
  outer loop
    vertex 68.89220905072507 92.9967046032204 3.838603243587898
    vertex 85.28060654681396 92.99938796294674 -4.214768472042482
    vertex 85.28061033462708 93.00583695250573 12.985262902678388
  endloop
endfacet
facet normal -0.00012660619186524372 -0.9999999693141702 0.00021293785678663688
  outer loop
    vertex 68.89220905072507 92.9967046032204 3.838603243587898
    vertex 85.28061033462708 93.00583695250573 12.985262902678388
    vertex 70.55911105005724 92.99639693708765 5.2065943536637755
  endloop
endfacet
facet normal -0.00012660619186524372 -0.9999999693141702 0.00021293785678663688
  outer loop
    vertex 70.55911105005724 92.99639693708765 5.2065943536637755
    vertex 85.28061033462708 93.00583695250573 12.985262902678388
    vertex 71.927102189809 92.99621427385203 6.873496347026779
  endloop
endfacet
facet normal -0.00012660619186524372 -0.9999999693141702 0.00021293785678663688
  outer loop
    vertex 71.927102189809 92.99621427385203 6.873496347026779
    vertex 85.28061033462708 93.00583695250573 12.985262902678388
    vertex 72.94361133765779 92.99616363315943 8.77525111488137
  endloop
endfacet
facet normal -0.00012660619186524372 -0.9999999693141702 0.00021293785678663688
  outer loop
    vertex 72.94361133765779 92.99616363315943 8.77525111488137
    vertex 85.28061033462708 93.00583695250573 12.985262902678388
    vertex 73.56957461711708 92.99624696110322 10.83877528801525
  endloop
endfacet
facet normal -0.00012660619186524372 -0.9999999693141702 0.00021293785678663688
  outer loop
    vertex 73.56957461711708 92.99624696110322 10.83877528801525
    vertex 85.28061033462708 93.00583695250573 12.985262902678388
    vertex 73.78093661040113 92.9964610554373 12.984768789692549
  endloop
endfacet
facet normal -0.00012660619186524372 -0.9999999693141702 0.00021293785678663688
  outer loop
    vertex 50.28388010346873 92.99899480809168 -4.215374827156579
    vertex 53.634771674830375 93.00151684109044 6.873496423229857
    vertex 50.28243707415389 93.00600731400583 12.98520717450376
  endloop
endfacet
facet normal -0.00012660619186524372 -0.9999999693141702 0.00021293785678663688
  outer loop
    vertex 53.634771674830375 93.00151684109044 6.873496423229857
    vertex 50.28388010346873 92.99899480809168 -4.215374827156579
    vertex 55.002762676690075 93.0009063998467 5.206594418469165
  endloop
endfacet
facet normal -0.00012660619186524372 -0.9999999693141702 0.00021293785678663688
  outer loop
    vertex 55.002762676690075 93.0009063998467 5.206594418469165
    vertex 50.28388010346873 92.99899480809168 -4.215374827156579
    vertex 56.6696645628571 93.00024766537537 3.838603294505155
  endloop
endfacet
facet normal -0.00012660619186524372 -0.9999999693141702 0.00021293785678663688
  outer loop
    vertex 56.6696645628571 93.00024766537537 3.838603294505155
    vertex 50.28388010346873 92.99899480809168 -4.215374827156579
    vertex 58.57141922865544 92.99956595247266 2.8220941830534847
  endloop
endfacet
facet normal -0.00012660619186524372 -0.9999999693141702 0.00021293785678663688
  outer loop
    vertex 58.57141922865544 92.99956595247266 2.8220941830534847
    vertex 50.28388010346873 92.99899480809168 -4.215374827156579
    vertex 60.63494330879495 92.99888745898325 2.1961309592024065
  endloop
endfacet
facet normal -0.00012660619186524372 -0.9999999693141702 0.00021293785678663688
  outer loop
    vertex 60.63494330879495 92.99888745898325 2.1961309592024065
    vertex 50.28388010346873 92.99899480809168 -4.215374827156579
    vertex 85.28060654681396 92.99938796294674 -4.214768472042482
  endloop
endfacet
facet normal -0.00012660619186524372 -0.9999999693141702 0.00021293785678663688
  outer loop
    vertex 60.63494330879495 92.99888745898325 2.1961309592024065
    vertex 85.28060654681396 92.99938796294674 -4.214768472042482
    vertex 62.78093673011315 92.99823825903138 1.9847690386002217
  endloop
endfacet
facet normal -0.00012660619186524372 -0.9999999693141702 0.00021293785678663688
  outer loop
    vertex 50.28243707415389 93.00600731400583 12.98520717450376
    vertex 53.634771674830375 93.00151684109044 6.873496423229857
    vertex 52.61826268430143 93.00205553019218 8.775251199553653
  endloop
endfacet
facet normal -0.00012660619186524372 -0.9999999693141702 0.00021293785678663688
  outer loop
    vertex 50.28243707415389 93.00600731400583 12.98520717450376
    vertex 52.61826268430143 93.00205553019218 8.775251199553653
    vertex 51.99229957554444 93.00250176563131 10.838775377902877
  endloop
endfacet
facet normal -0.00012660619186524372 -0.9999999693141702 0.00021293785678663688
  outer loop
    vertex 50.28243707415389 93.00600731400583 12.98520717450376
    vertex 51.99229957554444 93.00250176563131 10.838775377902877
    vertex 51.78093775978462 93.00283839883058 12.98476888134121
  endloop
endfacet
facet normal 0.773010453286525 -1.361309511428164e-05 0.6343932841104523
  outer loop
    vertex 53.942111364903326 94.69981485301444 4.145958328033317
    vertex 52.387583344271334 95.99981256623927 6.040184097703803
    vertex 52.38757597578789 94.69979609143077 6.040165179891318
  endloop
endfacet
facet normal 0.773010453286525 -1.361309511428164e-05 0.6343932841104523
  outer loop
    vertex 52.387583344271334 95.99981256623927 6.040184097703803
    vertex 53.942111364903326 94.69981485301444 4.145958328033317
    vertex 53.942118733386806 95.99983132782295 4.14597724584582
  endloop
endfacet
facet normal 0.8819212642867842 -1.1858478419126415e-05 0.47139673679203253
  outer loop
    vertex 52.38757597578789 94.69979609143077 6.040165179891318
    vertex 51.232459341463255 95.99978765603153 8.201269105635346
    vertex 51.23245197297984 94.69977118122307 8.201250187822856
  endloop
endfacet
facet normal 0.8819212642867842 -1.1858478419126415e-05 0.47139673679203253
  outer loop
    vertex 51.232459341463255 95.99978765603153 8.201269105635346
    vertex 52.38757597578789 94.69979609143077 6.040165179891318
    vertex 52.387583344271334 95.99981256623927 6.040184097703803
  endloop
endfacet
facet normal 0.47139673672973714 -1.550557285179299e-05 0.8819212642635011
  outer loop
    vertex 57.99740322537891 94.69983131031567 1.4362989368344772
    vertex 55.836325585599596 95.99984321978508 2.591441857094818
    vertex 55.836318217116165 94.69982674497656 2.5914229392822876
  endloop
endfacet
facet normal 0.47139673672973714 -1.550557285179299e-05 0.8819212642635011
  outer loop
    vertex 55.836325585599596 95.99984321978508 2.591441857094818
    vertex 57.99740322537891 94.69983131031567 1.4362989368344772
    vertex 57.99741059386238 95.99984778512419 1.4363178546469912
  endloop
endfacet
facet normal -0.995184726666068 4.2143560555052875e-06 0.09801714030118779
  outer loop
    vertex 75.28095349698658 95.99958171856444 12.984812010126953
    vertex 75.0407621337926 94.6996021025788 10.546164067366927
    vertex 75.28094612850316 94.69956524375588 12.984793092314462
  endloop
endfacet
facet normal -0.995184726666068 4.2143560555052875e-06 0.09801714030118779
  outer loop
    vertex 75.0407621337926 94.6996021025788 10.546164067366927
    vertex 75.28095349698658 95.99958171856444 12.984812010126953
    vertex 75.04076950227605 95.99961857738728 10.546182985179412
  endloop
endfacet
facet normal -0.2902846773460306 -1.228004437073428e-05 0.9569403356256396
  outer loop
    vertex 67.56448903435235 94.69977708414245 1.4362989370074637
    vertex 65.21958252358311 95.99981720413359 0.7249960062036545
    vertex 65.21957515509965 94.69980072932508 0.724977088391158
  endloop
endfacet
facet normal -0.2902846773460306 -1.228004437073428e-05 0.9569403356256396
  outer loop
    vertex 65.21958252358311 95.99981720413359 0.7249960062036545
    vertex 67.56448903435235 94.69977708414245 1.4362989370074637
    vertex 67.5644964028358 95.99979355895096 1.4363178548199613
  endloop
endfacet
facet normal -0.9569403357460288 1.199713973426969e-06 0.29028467720642553
  outer loop
    vertex 75.04076950227605 95.99961857738728 10.546182985179412
    vertex 74.32944028539066 94.69964026766007 8.20125018824049
    vertex 75.0407621337926 94.6996021025788 10.546164067366927
  endloop
endfacet
facet normal -0.9569403357460288 1.199713973426969e-06 0.29028467720642553
  outer loop
    vertex 74.32944028539066 94.69964026766007 8.20125018824049
    vertex 75.04076950227605 95.99961857738728 10.546182985179412
    vertex 74.3294476538741 95.99965674246852 8.20126910605297
  endloop
endfacet
facet normal -0.6343932842311902 -7.65309562391688e-06 0.7730104532694203
  outer loop
    vertex 71.61978089428291 94.6997146561113 4.145958328352938
    vertex 69.72558141086634 95.99976449558349 2.591441857345932
    vertex 69.72557404238287 94.69974802077496 2.5914229395334263
  endloop
endfacet
facet normal -0.6343932842311902 -7.65309562391688e-06 0.7730104532694203
  outer loop
    vertex 69.72558141086634 95.99976449558349 2.591441857345932
    vertex 71.61978089428291 94.6997146561113 4.145958328352938
    vertex 71.61978826276633 95.99973113091987 4.145977246165434
  endloop
endfacet
facet normal 0.9951847266463544 -7.067042797808628e-06 0.09801714033717669
  outer loop
    vertex 50.52113012410607 94.69974107967597 10.546164066923552
    vertex 50.28095349738844 95.99972341838387 12.984812009674917
    vertex 50.28094612890506 94.6997069435753 12.98479309186243
  endloop
endfacet
facet normal 0.9951847266463544 -7.067042797808628e-06 0.09801714033717669
  outer loop
    vertex 50.28095349738844 95.99972341838387 12.984812009674917
    vertex 50.52113012410607 94.69974107967597 10.546164066923552
    vertex 50.521137492589524 95.99975755448446 10.546182984736062
  endloop
endfacet
facet normal 0.6343932840757208 -1.4844568198506727e-05 0.7730104532923605
  outer loop
    vertex 55.836318217116165 94.69982674497656 2.5914229392822876
    vertex 53.942118733386806 95.99983132782295 4.14597724584582
    vertex 53.942111364903326 94.69981485301444 4.145958328033317
  endloop
endfacet
facet normal 0.6343932840757208 -1.4844568198506727e-05 0.7730104532923605
  outer loop
    vertex 53.942118733386806 95.99983132782295 4.14597724584582
    vertex 55.836318217116165 94.69982674497656 2.5914229392822876
    vertex 55.836325585599596 95.99984321978508 2.591441857094818
  endloop
endfacet
facet normal -0.4713967369071132 -1.0161826646937445e-05 0.8819212642464538
  outer loop
    vertex 69.72557404238287 94.69974802077496 2.5914229395334263
    vertex 67.5644964028358 95.99979355895096 1.4363178548199613
    vertex 67.56448903435235 94.69977708414245 1.4362989370074637
  endloop
endfacet
facet normal -0.4713967369071132 -1.0161826646937445e-05 0.8819212642464538
  outer loop
    vertex 67.5644964028358 95.99979355895096 1.4363178548199613
    vertex 69.72557404238287 94.69974802077496 2.5914229395334263
    vertex 69.72558141086634 95.99976449558349 2.591441857345932
  endloop
endfacet
facet normal -0.881921264381594 -1.8610324438427543e-06 0.4713967367601386
  outer loop
    vertex 74.3294476538741 95.99965674246852 8.20126910605297
    vertex 73.1743162830173 94.69967827233712 6.040165180267162
    vertex 74.32944028539066 94.69964026766007 8.20125018824049
  endloop
endfacet
facet normal -0.881921264381594 -1.8610324438427543e-06 0.4713967367601386
  outer loop
    vertex 73.1743162830173 94.69967827233712 6.040165180267162
    vertex 74.3294476538741 95.99965674246852 8.20126910605297
    vertex 73.1743236515008 95.99969474714567 6.040184098079668
  endloop
endfacet
facet normal -0.09801714042806323 -1.3926346876091973e-05 0.9951847265650545
  outer loop
    vertex 65.21957515509965 94.69980072932508 0.724977088391158
    vertex 62.780953498444866 95.9998345224601 0.484812011225395
    vertex 62.78094612996136 94.69981804765155 0.4847930934128951
  endloop
endfacet
facet normal -0.09801714042806323 -1.3926346876091973e-05 0.9951847265650545
  outer loop
    vertex 62.780953498444866 95.9998345224601 0.484812011225395
    vertex 65.21957515509965 94.69980072932508 0.724977088391158
    vertex 65.21958252358311 95.99981720413359 0.7249960062036545
  endloop
endfacet
facet normal 0.9569403356876459 -9.648147048635461e-06 0.29028467724102974
  outer loop
    vertex 51.23245197297984 94.69977118122307 8.201250187822856
    vertex 50.521137492589524 95.99975755448446 10.546182984736062
    vertex 50.52113012410607 94.69974107967597 10.546164066923552
  endloop
endfacet
facet normal 0.9569403356876459 -9.648147048635461e-06 0.29028467724102974
  outer loop
    vertex 50.521137492589524 95.99975755448446 10.546182984736062
    vertex 51.23245197297984 94.69977118122307 8.201250187822856
    vertex 51.232459341463255 95.99978765603153 8.201269105635346
  endloop
endfacet
facet normal -0.7730104534141159 -4.8502604279746695e-06 0.6343932840824988
  outer loop
    vertex 73.1743236515008 95.99969474714567 6.040184098079668
    vertex 71.61978089428291 94.6997146561113 4.145958328352938
    vertex 73.1743162830173 94.69967827233712 6.040165180267162
  endloop
endfacet
facet normal -0.7730104534141159 -4.8502604279746695e-06 0.6343932840824988
  outer loop
    vertex 71.61978089428291 94.6997146561113 4.145958328352938
    vertex 73.1743236515008 95.99969474714567 6.040184098079668
    vertex 71.61978826276633 95.99973113091987 4.145977246165434
  endloop
endfacet
facet normal 0.09801714022790775 -1.503746768098673e-05 0.9951847265685992
  outer loop
    vertex 62.78094612996136 94.69981804765155 0.4847930934128951
    vertex 60.342324473258294 95.99984484839696 0.724996006115482
    vertex 60.34231710477487 94.69982837358847 0.7249770883029687
  endloop
endfacet
facet normal 0.09801714022790775 -1.503746768098673e-05 0.9951847265685992
  outer loop
    vertex 60.342324473258294 95.99984484839696 0.724996006115482
    vertex 62.78094612996136 94.69981804765155 0.4847930934128951
    vertex 62.780953498444866 95.9998345224601 0.484812011225395
  endloop
endfacet
facet normal 0.29028467715356765 -1.557070703601026e-05 0.9569403356361369
  outer loop
    vertex 60.34231710477487 94.69982837358847 0.7249770883029687
    vertex 57.99741059386238 95.99984778512419 1.4363178546469912
    vertex 57.99740322537891 94.69983131031567 1.4362989368344772
  endloop
endfacet
facet normal 0.29028467715356765 -1.557070703601026e-05 0.9569403356361369
  outer loop
    vertex 57.99741059386238 95.99984778512419 1.4363178546469912
    vertex 60.34231710477487 94.69982837358847 0.7249770883029687
    vertex 60.342324473258294 95.99984484839696 0.724996006115482
  endloop
endfacet
facet normal 0.29028470463891615 3.8642566349484434e-05 0.9569403266450052
  outer loop
    vertex 60.63494330879495 92.99888745898325 2.1961309592024065
    vertex 58.57191202337228 94.69956586705219 2.821876047060567
    vertex 58.57141922865544 92.99956595247266 2.8220941830534847
  endloop
endfacet
facet normal 0.29028470463891615 3.8642566349484434e-05 0.9569403266450052
  outer loop
    vertex 58.57191202337228 94.69956586705219 2.821876047060567
    vertex 60.63494330879495 92.99888745898325 2.1961309592024065
    vertex 60.6354361035117 94.69888737356274 2.1959128232094542
  endloop
endfacet
facet normal 0.9951846889136845 -0.00027590630316649643 0.09801713537685698
  outer loop
    vertex 51.99279237026121 94.70250168021084 10.838557241909944
    vertex 51.78093775978462 93.00283839883058 12.98476888134121
    vertex 51.99229957554444 93.00250176563131 10.838775377902877
  endloop
endfacet
facet normal 0.9951846889136845 -0.00027590630316649643 0.09801713537685698
  outer loop
    vertex 51.78093775978462 93.00283839883058 12.98476888134121
    vertex 51.99279237026121 94.70250168021084 10.838557241909944
    vertex 51.781430554501426 94.70283831341007 12.984550745348292
  endloop
endfacet
facet normal 0.8819212467922531 -0.00019516326714702525 0.47139672927131854
  outer loop
    vertex 53.635264469547224 94.70151675566997 6.873278287236963
    vertex 52.61826268430143 93.00205553019218 8.775251199553653
    vertex 53.634771674830375 93.00151684109044 6.873496423229857
  endloop
endfacet
facet normal 0.8819212467922531 -0.00019516326714702525 0.47139672927131854
  outer loop
    vertex 52.61826268430143 93.00205553019218 8.775251199553653
    vertex 53.635264469547224 94.70151675566997 6.873278287236963
    vertex 52.61875547901837 94.70205544477166 8.775033063560727
  endloop
endfacet
facet normal 0.7730104471243502 -0.00014267733499004998 0.6343932757208184
  outer loop
    vertex 55.00325547140691 94.7009063144262 5.206376282476213
    vertex 53.634771674830375 93.00151684109044 6.873496423229857
    vertex 55.002762676690075 93.0009063998467 5.206594418469165
  endloop
endfacet
facet normal 0.7730104471243502 -0.00014267733499004998 0.6343932757208184
  outer loop
    vertex 53.634771674830375 93.00151684109044 6.873496423229857
    vertex 55.00325547140691 94.7009063144262 5.206376282476213
    vertex 53.635264469547224 94.70151675566997 6.873278287236963
  endloop
endfacet
facet normal -0.47139668054242956 0.00024981210856336763 0.881921259051787
  outer loop
    vertex 68.89220905072507 92.9967046032204 3.838603243587898
    vertex 66.9909470955543 94.6971253633931 2.821876011988162
    vertex 66.99045430083756 92.99712544881368 2.822094147981047
  endloop
endfacet
facet normal -0.47139668054242956 0.00024981210856336763 0.881921259051787
  outer loop
    vertex 66.9909470955543 94.6971253633931 2.821876011988162
    vertex 68.89220905072507 92.9967046032204 3.838603243587898
    vertex 68.8927018454419 94.69670451779987 3.838385107594989
  endloop
endfacet
facet normal 0.6343932894827102 -8.470839286377834e-05 0.7730104443562161
  outer loop
    vertex 56.6696645628571 93.00024766537537 3.838603294505155
    vertex 55.00325547140691 94.7009063144262 5.206376282476213
    vertex 55.002762676690075 93.0009063998467 5.206594418469165
  endloop
endfacet
facet normal 0.6343932894827102 -8.470839286377834e-05 0.7730104443562161
  outer loop
    vertex 55.00325547140691 94.7009063144262 5.206376282476213
    vertex 56.6696645628571 93.00024766537537 3.838603294505155
    vertex 56.67015735757389 94.70024757995489 3.838385158512219
  endloop
endfacet
facet normal 0.09801717737398877 9.928427524992533e-05 0.9951847180711071
  outer loop
    vertex 62.78093673011315 92.99823825903138 1.9847690386002217
    vertex 60.6354361035117 94.69888737356274 2.1959128232094542
    vertex 60.63494330879495 92.99888745898325 2.1961309592024065
  endloop
endfacet
facet normal 0.09801717737398877 9.928427524992533e-05 0.9951847180711071
  outer loop
    vertex 60.6354361035117 94.69888737356274 2.1959128232094542
    vertex 62.78093673011315 92.99823825903138 1.9847690386002217
    vertex 62.78142952483011 94.69823817361079 1.9845509026072885
  endloop
endfacet
facet normal -0.0980170950487532 0.00015611054513177484 0.9951847188877557
  outer loop
    vertex 64.92693016891623 92.9976433010071 2.1961309413226098
    vertex 62.78142952483011 94.69823817361079 1.9845509026072885
    vertex 62.78093673011315 92.99823825903138 1.9847690386002217
  endloop
endfacet
facet normal -0.0980170950487532 0.00015611054513177484 0.9951847188877557
  outer loop
    vertex 62.78142952483011 94.69823817361079 1.9845509026072885
    vertex 64.92693016891623 92.9976433010071 2.1961309413226098
    vertex 64.92742296363298 94.69764321558652 2.195912805329715
  endloop
endfacet
facet normal 0.4713967534981073 -2.3484154704766685e-05 0.8819212551242538
  outer loop
    vertex 58.57141922865544 92.99956595247266 2.8220941830534847
    vertex 56.67015735757389 94.70024757995489 3.838385158512219
    vertex 56.6696645628571 93.00024766537537 3.838603294505155
  endloop
endfacet
facet normal 0.4713967534981073 -2.3484154704766685e-05 0.8819212551242538
  outer loop
    vertex 56.67015735757389 94.70024757995489 3.838385158512219
    vertex 58.57141922865544 92.99956595247266 2.8220941830534847
    vertex 58.57191202337228 94.69956586705219 2.821876047060567
  endloop
endfacet
facet normal 0.9569403075330631 -0.00024014918439636089 0.29028467087825344
  outer loop
    vertex 52.61875547901837 94.70205544477166 8.775033063560727
    vertex 51.99229957554444 93.00250176563131 10.838775377902877
    vertex 52.61826268430143 93.00205553019218 8.775251199553653
  endloop
endfacet
facet normal 0.9569403075330631 -0.00024014918439636089 0.29028467087825344
  outer loop
    vertex 51.99229957554444 93.00250176563131 10.838775377902877
    vertex 52.61875547901837 94.70205544477166 8.775033063560727
    vertex 51.99279237026121 94.70250168021084 10.838557241909944
  endloop
endfacet
facet normal -0.634393225536525 0.0002830865035788777 0.7730104496417853
  outer loop
    vertex 70.55911105005724 92.99639693708765 5.2065943536637755
    vertex 68.8927018454419 94.69670451779987 3.838385107594989
    vertex 68.89220905072507 92.9967046032204 3.838603243587898
  endloop
endfacet
facet normal -0.634393225536525 0.0002830865035788777 0.7730104496417853
  outer loop
    vertex 68.8927018454419 94.69670451779987 3.838385107594989
    vertex 70.55911105005724 92.99639693708765 5.2065943536637755
    vertex 70.55960384477406 94.69639685166707 5.206376217670856
  endloop
endfacet
facet normal -0.8819212077966309 0.00031613807886140427 0.47139673661921666
  outer loop
    vertex 72.9441041323746 94.69616354773885 8.775032978888465
    vertex 71.927102189809 92.99621427385203 6.873496347026779
    vertex 72.94361133765779 92.99616363315943 8.77525111488137
  endloop
endfacet
facet normal -0.8819212077966309 0.00031613807886140427 0.47139673661921666
  outer loop
    vertex 71.927102189809 92.99621427385203 6.873496347026779
    vertex 72.9441041323746 94.69616354773885 8.775032978888465
    vertex 71.92759498452581 94.69621418843148 6.873278211033875
  endloop
endfacet
facet normal -0.9951846808053564 0.0003010604974368616 0.0980171436684307
  outer loop
    vertex 73.78093661040113 92.9964610554373 12.984768789692549
    vertex 73.57006741183386 94.69624687568268 10.838557152022345
    vertex 73.56957461711708 92.99624696110322 10.83877528801525
  endloop
endfacet
facet normal -0.9951846808053564 0.0003010604974368616 0.0980171436684307
  outer loop
    vertex 73.57006741183386 94.69624687568268 10.838557152022345
    vertex 73.78093661040113 92.9964610554373 12.984768789692549
    vertex 73.78142940511795 94.69646097001676 12.984550653699658
  endloop
endfacet
facet normal -0.29028462547739436 0.0002069375743120128 0.9569403290635676
  outer loop
    vertex 66.99045430083756 92.99712544881368 2.822094147981047
    vertex 64.92742296363298 94.69764321558652 2.195912805329715
    vertex 64.92693016891623 92.9976433010071 2.1961309413226098
  endloop
endfacet
facet normal -0.29028462547739436 0.0002069375743120128 0.9569403290635676
  outer loop
    vertex 64.92742296363298 94.69764321558652 2.195912805329715
    vertex 66.99045430083756 92.99712544881368 2.822094147981047
    vertex 66.9909470955543 94.6971253633931 2.821876011988162
  endloop
endfacet
facet normal -0.7730103946450717 0.0003054820430185922 0.6343932821613043
  outer loop
    vertex 71.92759498452581 94.69621418843148 6.873278211033875
    vertex 70.55911105005724 92.99639693708765 5.2065943536637755
    vertex 71.927102189809 92.99621427385203 6.873496347026779
  endloop
endfacet
facet normal -0.7730103946450717 0.0003054820430185922 0.6343932821613043
  outer loop
    vertex 70.55911105005724 92.99639693708765 5.2065943536637755
    vertex 71.92759498452581 94.69621418843148 6.873278211033875
    vertex 70.55960384477406 94.69639685166707 5.206376217670856
  endloop
endfacet
facet normal -0.9569402835196773 0.00031464510562585025 0.290284678851188
  outer loop
    vertex 73.56957461711708 92.99624696110322 10.83877528801525
    vertex 72.9441041323746 94.69616354773885 8.775032978888465
    vertex 72.94361133765779 92.99616363315943 8.77525111488137
  endloop
endfacet
facet normal -0.9569402835196773 0.00031464510562585025 0.290284678851188
  outer loop
    vertex 72.9441041323746 94.69616354773885 8.775032978888465
    vertex 73.56957461711708 92.99624696110322 10.83877528801525
    vertex 73.57006741183386 94.69624687568268 10.838557152022345
  endloop
endfacet
facet normal -0.9999999999851884 5.442723750788711e-06 -3.7857067309389264e-10
  outer loop
    vertex 85.28044428741237 99.24952737720236 12.984858828661975
    vertex 85.2804266054137 95.99974324197132 -2.015187986852221
    vertex 85.28042659856023 95.99952737390667 12.984812011594483
  endloop
endfacet
facet normal -0.9999999999851884 5.442723750788711e-06 -3.7857067309389264e-10
  outer loop
    vertex 85.2804266054137 95.99974324197132 -2.015187986852221
    vertex 85.28044428741237 99.24952737720236 12.984858828661975
    vertex 85.28044429426592 99.24974324159851 -2.0151420390029195
  endloop
endfacet
facet normal 0.00012970768003501518 0.999999991007903 -3.406041539152454e-05
  outer loop
    vertex 60.34231710477487 94.69982837358847 0.7249770883029687
    vertex 65.21957515509965 94.69980072932508 0.724977088391158
    vertex 62.78094612996136 94.69981804765155 0.4847930934128951
  endloop
endfacet
facet normal 0.00012970768003501518 0.999999991007903 -3.406041539152454e-05
  outer loop
    vertex 65.21957515509965 94.69980072932508 0.724977088391158
    vertex 60.34231710477487 94.69982837358847 0.7249770883029687
    vertex 57.99740322537891 94.69983131031567 1.4362989368344772
  endloop
endfacet
facet normal 0.00012970768003501518 0.999999991007903 -3.406041539152454e-05
  outer loop
    vertex 65.21957515509965 94.69980072932508 0.724977088391158
    vertex 57.99740322537891 94.69983131031567 1.4362989368344772
    vertex 67.56448903435235 94.69977708414245 1.4362989370074637
  endloop
endfacet
facet normal 0.00012970768003501518 0.999999991007903 -3.406041539152454e-05
  outer loop
    vertex 67.56448903435235 94.69977708414245 1.4362989370074637
    vertex 57.99740322537891 94.69983131031567 1.4362989368344772
    vertex 55.836318217116165 94.69982674497656 2.5914229392822876
  endloop
endfacet
facet normal 0.00012970768003501518 0.999999991007903 -3.406041539152454e-05
  outer loop
    vertex 67.56448903435235 94.69977708414245 1.4362989370074637
    vertex 55.836318217116165 94.69982674497656 2.5914229392822876
    vertex 62.78142952483011 94.69823817361079 1.9845509026072885
  endloop
endfacet
facet normal 0.00012970768003501518 0.999999991007903 -3.406041539152454e-05
  outer loop
    vertex 62.78142952483011 94.69823817361079 1.9845509026072885
    vertex 55.836318217116165 94.69982674497656 2.5914229392822876
    vertex 60.6354361035117 94.69888737356274 2.1959128232094542
  endloop
endfacet
facet normal 0.00012970768003501518 0.999999991007903 -3.406041539152454e-05
  outer loop
    vertex 60.6354361035117 94.69888737356274 2.1959128232094542
    vertex 55.836318217116165 94.69982674497656 2.5914229392822876
    vertex 58.57191202337228 94.69956586705219 2.821876047060567
  endloop
endfacet
facet normal 0.00012970768003501518 0.999999991007903 -3.406041539152454e-05
  outer loop
    vertex 58.57191202337228 94.69956586705219 2.821876047060567
    vertex 55.836318217116165 94.69982674497656 2.5914229392822876
    vertex 53.942111364903326 94.69981485301444 4.145958328033317
  endloop
endfacet
facet normal 0.00012970768003501518 0.999999991007903 -3.406041539152454e-05
  outer loop
    vertex 58.57191202337228 94.69956586705219 2.821876047060567
    vertex 53.942111364903326 94.69981485301444 4.145958328033317
    vertex 56.67015735757389 94.70024757995489 3.838385158512219
  endloop
endfacet
facet normal 0.00012970768003501518 0.999999991007903 -3.406041539152454e-05
  outer loop
    vertex 56.67015735757389 94.70024757995489 3.838385158512219
    vertex 53.942111364903326 94.69981485301444 4.145958328033317
    vertex 55.00325547140691 94.7009063144262 5.206376282476213
  endloop
endfacet
facet normal 0.00012970768003501518 0.999999991007903 -3.406041539152454e-05
  outer loop
    vertex 55.00325547140691 94.7009063144262 5.206376282476213
    vertex 53.942111364903326 94.69981485301444 4.145958328033317
    vertex 52.38757597578789 94.69979609143077 6.040165179891318
  endloop
endfacet
facet normal 0.00012970768003501518 0.999999991007903 -3.406041539152454e-05
  outer loop
    vertex 55.00325547140691 94.7009063144262 5.206376282476213
    vertex 52.38757597578789 94.69979609143077 6.040165179891318
    vertex 53.635264469547224 94.70151675566997 6.873278287236963
  endloop
endfacet
facet normal 0.00012970768003501518 0.999999991007903 -3.406041539152454e-05
  outer loop
    vertex 53.635264469547224 94.70151675566997 6.873278287236963
    vertex 52.38757597578789 94.69979609143077 6.040165179891318
    vertex 51.23245197297984 94.69977118122307 8.201250187822856
  endloop
endfacet
facet normal 0.00012970768003501518 0.999999991007903 -3.406041539152454e-05
  outer loop
    vertex 53.635264469547224 94.70151675566997 6.873278287236963
    vertex 51.23245197297984 94.69977118122307 8.201250187822856
    vertex 52.61875547901837 94.70205544477166 8.775033063560727
  endloop
endfacet
facet normal 0.00012970768003501518 0.999999991007903 -3.406041539152454e-05
  outer loop
    vertex 52.61875547901837 94.70205544477166 8.775033063560727
    vertex 51.23245197297984 94.69977118122307 8.201250187822856
    vertex 50.52113012410607 94.69974107967597 10.546164066923552
  endloop
endfacet
facet normal 0.00012970768003501518 0.999999991007903 -3.406041539152454e-05
  outer loop
    vertex 52.61875547901837 94.70205544477166 8.775033063560727
    vertex 50.52113012410607 94.69974107967597 10.546164066923552
    vertex 51.99279237026121 94.70250168021084 10.838557241909944
  endloop
endfacet
facet normal 0.00012970768003501518 0.999999991007903 -3.406041539152454e-05
  outer loop
    vertex 51.99279237026121 94.70250168021084 10.838557241909944
    vertex 50.52113012410607 94.69974107967597 10.546164066923552
    vertex 50.28094612890506 94.6997069435753 12.98479309186243
  endloop
endfacet
facet normal 0.00012970768003501518 0.999999991007903 -3.406041539152454e-05
  outer loop
    vertex 51.99279237026121 94.70250168021084 10.838557241909944
    vertex 50.28094612890506 94.6997069435753 12.98479309186243
    vertex 51.781430554501426 94.70283831341007 12.984550745348292
  endloop
endfacet
facet normal 0.00012970768003501518 0.999999991007903 -3.406041539152454e-05
  outer loop
    vertex 62.78142952483011 94.69823817361079 1.9845509026072885
    vertex 69.72557404238287 94.69974802077496 2.5914229395334263
    vertex 67.56448903435235 94.69977708414245 1.4362989370074637
  endloop
endfacet
facet normal 0.00012970768003501518 0.999999991007903 -3.406041539152454e-05
  outer loop
    vertex 69.72557404238287 94.69974802077496 2.5914229395334263
    vertex 62.78142952483011 94.69823817361079 1.9845509026072885
    vertex 64.92742296363298 94.69764321558652 2.195912805329715
  endloop
endfacet
facet normal 0.00012970768003501518 0.999999991007903 -3.406041539152454e-05
  outer loop
    vertex 69.72557404238287 94.69974802077496 2.5914229395334263
    vertex 64.92742296363298 94.69764321558652 2.195912805329715
    vertex 66.9909470955543 94.6971253633931 2.821876011988162
  endloop
endfacet
facet normal 0.00012970768003501518 0.999999991007903 -3.406041539152454e-05
  outer loop
    vertex 69.72557404238287 94.69974802077496 2.5914229395334263
    vertex 66.9909470955543 94.6971253633931 2.821876011988162
    vertex 71.61978089428291 94.6997146561113 4.145958328352938
  endloop
endfacet
facet normal 0.00012970768003501518 0.999999991007903 -3.406041539152454e-05
  outer loop
    vertex 71.61978089428291 94.6997146561113 4.145958328352938
    vertex 66.9909470955543 94.6971253633931 2.821876011988162
    vertex 68.8927018454419 94.69670451779987 3.838385107594989
  endloop
endfacet
facet normal 0.00012970768003501518 0.999999991007903 -3.406041539152454e-05
  outer loop
    vertex 71.61978089428291 94.6997146561113 4.145958328352938
    vertex 68.8927018454419 94.69670451779987 3.838385107594989
    vertex 70.55960384477406 94.69639685166707 5.206376217670856
  endloop
endfacet
facet normal 0.00012970768003501518 0.999999991007903 -3.406041539152454e-05
  outer loop
    vertex 71.61978089428291 94.6997146561113 4.145958328352938
    vertex 70.55960384477406 94.69639685166707 5.206376217670856
    vertex 73.1743162830173 94.69967827233712 6.040165180267162
  endloop
endfacet
facet normal 0.00012970768003501518 0.999999991007903 -3.406041539152454e-05
  outer loop
    vertex 73.1743162830173 94.69967827233712 6.040165180267162
    vertex 70.55960384477406 94.69639685166707 5.206376217670856
    vertex 71.92759498452581 94.69621418843148 6.873278211033875
  endloop
endfacet
facet normal 0.00012970768003501518 0.999999991007903 -3.406041539152454e-05
  outer loop
    vertex 73.1743162830173 94.69967827233712 6.040165180267162
    vertex 71.92759498452581 94.69621418843148 6.873278211033875
    vertex 74.32944028539066 94.69964026766007 8.20125018824049
  endloop
endfacet
facet normal 0.00012970768003501518 0.999999991007903 -3.406041539152454e-05
  outer loop
    vertex 74.32944028539066 94.69964026766007 8.20125018824049
    vertex 71.92759498452581 94.69621418843148 6.873278211033875
    vertex 72.9441041323746 94.69616354773885 8.775032978888465
  endloop
endfacet
facet normal 0.00012970768003501518 0.999999991007903 -3.406041539152454e-05
  outer loop
    vertex 74.32944028539066 94.69964026766007 8.20125018824049
    vertex 72.9441041323746 94.69616354773885 8.775032978888465
    vertex 75.0407621337926 94.6996021025788 10.546164067366927
  endloop
endfacet
facet normal 0.00012970768003501518 0.999999991007903 -3.406041539152454e-05
  outer loop
    vertex 75.0407621337926 94.6996021025788 10.546164067366927
    vertex 72.9441041323746 94.69616354773885 8.775032978888465
    vertex 73.57006741183386 94.69624687568268 10.838557152022345
  endloop
endfacet
facet normal 0.00012970768003501518 0.999999991007903 -3.406041539152454e-05
  outer loop
    vertex 75.0407621337926 94.6996021025788 10.546164067366927
    vertex 73.57006741183386 94.69624687568268 10.838557152022345
    vertex 75.28094612850316 94.69956524375588 12.984793092314462
  endloop
endfacet
facet normal 0.00012970768003501518 0.999999991007903 -3.406041539152454e-05
  outer loop
    vertex 75.28094612850316 94.69956524375588 12.984793092314462
    vertex 73.57006741183386 94.69624687568268 10.838557152022345
    vertex 73.78142940511795 94.69646097001676 12.984550653699658
  endloop
endfacet
facet normal 5.675783905853938e-06 0.9999999998779658 1.4555198484818413e-05
  outer loop
    vertex 49.78227483812481 95.99994690273633 -2.0151890602719686
    vertex 60.342324473258294 95.99984484839696 0.724996006115482
    vertex 85.2804266054137 95.99974324197132 -2.015187986852221
  endloop
endfacet
facet normal 5.675783905853938e-06 0.9999999998779658 1.4555198484818413e-05
  outer loop
    vertex 60.342324473258294 95.99984484839696 0.724996006115482
    vertex 49.78227483812481 95.99994690273633 -2.0151890602719686
    vertex 57.99741059386238 95.99984778512419 1.4363178546469912
  endloop
endfacet
facet normal 5.675783905853938e-06 0.9999999998779658 1.4555198484818413e-05
  outer loop
    vertex 57.99741059386238 95.99984778512419 1.4363178546469912
    vertex 49.78227483812481 95.99994690273633 -2.0151890602719686
    vertex 55.836325585599596 95.99984321978508 2.591441857094818
  endloop
endfacet
facet normal 5.675783905853938e-06 0.9999999998779658 1.4555198484818413e-05
  outer loop
    vertex 55.836325585599596 95.99984321978508 2.591441857094818
    vertex 49.78227483812481 95.99994690273633 -2.0151890602719686
    vertex 53.942118733386806 95.99983132782295 4.14597724584582
  endloop
endfacet
facet normal 5.675783905853938e-06 0.9999999998779658 1.4555198484818413e-05
  outer loop
    vertex 53.942118733386806 95.99983132782295 4.14597724584582
    vertex 49.78227483812481 95.99994690273633 -2.0151890602719686
    vertex 52.387583344271334 95.99981256623927 6.040184097703803
  endloop
endfacet
facet normal 5.675783905853938e-06 0.9999999998779658 1.4555198484818413e-05
  outer loop
    vertex 52.387583344271334 95.99981256623927 6.040184097703803
    vertex 49.78227483812481 95.99994690273633 -2.0151890602719686
    vertex 51.232459341463255 95.99978765603153 8.201269105635346
  endloop
endfacet
facet normal 5.675783905853938e-06 0.9999999998779658 1.4555198484818413e-05
  outer loop
    vertex 51.232459341463255 95.99978765603153 8.201269105635346
    vertex 49.78227483812481 95.99994690273633 -2.0151890602719686
    vertex 50.521137492589524 95.99975755448446 10.546182984736062
  endloop
endfacet
facet normal 5.675783905853938e-06 0.9999999998779658 1.4555198484818413e-05
  outer loop
    vertex 50.521137492589524 95.99975755448446 10.546182984736062
    vertex 49.78227483812481 95.99994690273633 -2.0151890602719686
    vertex 49.7822748312449 95.99972617097228 12.984810938103921
  endloop
endfacet
facet normal 5.675783905853938e-06 0.9999999998779658 1.4555198484818413e-05
  outer loop
    vertex 85.2804266054137 95.99974324197132 -2.015187986852221
    vertex 60.342324473258294 95.99984484839696 0.724996006115482
    vertex 62.780953498444866 95.9998345224601 0.484812011225395
  endloop
endfacet
facet normal 5.675783905853938e-06 0.9999999998779658 1.4555198484818413e-05
  outer loop
    vertex 50.521137492589524 95.99975755448446 10.546182984736062
    vertex 49.7822748312449 95.99972617097228 12.984810938103921
    vertex 50.28095349738844 95.99972341838387 12.984812009674917
  endloop
endfacet
facet normal 5.675783905853938e-06 0.9999999998779658 1.4555198484818413e-05
  outer loop
    vertex 85.2804266054137 95.99974324197132 -2.015187986852221
    vertex 69.72558141086634 95.99976449558349 2.591441857345932
    vertex 85.28042659856023 95.99952737390667 12.984812011594483
  endloop
endfacet
facet normal 5.675783905853938e-06 0.9999999998779658 1.4555198484818413e-05
  outer loop
    vertex 69.72558141086634 95.99976449558349 2.591441857345932
    vertex 85.2804266054137 95.99974324197132 -2.015187986852221
    vertex 67.5644964028358 95.99979355895096 1.4363178548199613
  endloop
endfacet
facet normal 5.675783905853938e-06 0.9999999998779658 1.4555198484818413e-05
  outer loop
    vertex 67.5644964028358 95.99979355895096 1.4363178548199613
    vertex 85.2804266054137 95.99974324197132 -2.015187986852221
    vertex 65.21958252358311 95.99981720413359 0.7249960062036545
  endloop
endfacet
facet normal 5.675783905853938e-06 0.9999999998779658 1.4555198484818413e-05
  outer loop
    vertex 65.21958252358311 95.99981720413359 0.7249960062036545
    vertex 85.2804266054137 95.99974324197132 -2.015187986852221
    vertex 62.780953498444866 95.9998345224601 0.484812011225395
  endloop
endfacet
facet normal 5.675783905853938e-06 0.9999999998779658 1.4555198484818413e-05
  outer loop
    vertex 85.28042659856023 95.99952737390667 12.984812011594483
    vertex 69.72558141086634 95.99976449558349 2.591441857345932
    vertex 71.61978826276633 95.99973113091987 4.145977246165434
  endloop
endfacet
facet normal 5.675783905853938e-06 0.9999999998779658 1.4555198484818413e-05
  outer loop
    vertex 85.28042659856023 95.99952737390667 12.984812011594483
    vertex 71.61978826276633 95.99973113091987 4.145977246165434
    vertex 73.1743236515008 95.99969474714567 6.040184098079668
  endloop
endfacet
facet normal 5.675783905853938e-06 0.9999999998779658 1.4555198484818413e-05
  outer loop
    vertex 85.28042659856023 95.99952737390667 12.984812011594483
    vertex 73.1743236515008 95.99969474714567 6.040184098079668
    vertex 74.3294476538741 95.99965674246852 8.20126910605297
  endloop
endfacet
facet normal 5.675783905853938e-06 0.9999999998779658 1.4555198484818413e-05
  outer loop
    vertex 85.28042659856023 95.99952737390667 12.984812011594483
    vertex 74.3294476538741 95.99965674246852 8.20126910605297
    vertex 75.04076950227605 95.99961857738728 10.546182985179412
  endloop
endfacet
facet normal 5.675783905853938e-06 0.9999999998779658 1.4555198484818413e-05
  outer loop
    vertex 85.28042659856023 95.99952737390667 12.984812011594483
    vertex 75.04076950227605 95.99961857738728 10.546182985179412
    vertex 75.28095349698658 95.99958171856444 12.984812010126953
  endloop
endfacet
facet normal 0.9999999999852845 -5.425022537085543e-06 3.788302539706514e-10
  outer loop
    vertex 49.78227483812481 95.99994690273633 -2.0151890602719686
    vertex 49.78229246255188 99.24972318168375 12.984858826689223
    vertex 49.7822748312449 95.99972617097228 12.984810938103921
  endloop
endfacet
facet normal 0.9999999999852845 -5.425022537085543e-06 3.788302539706514e-10
  outer loop
    vertex 49.78229246255188 99.24972318168375 12.984858826689223
    vertex 49.78227483812481 95.99994690273633 -2.0151890602719686
    vertex 49.78229246944803 99.24994690234855 -2.0151420407600993
  endloop
endfacet
facet normal 0.9951847265703248 -1.2126600327863996e-05 0.09801714061373921
  outer loop
    vertex 56.89731335717497 49.999738231011 11.813591832237217
    vertex 56.782087991851355 55.24965012711236 12.984144110628746
    vertex 56.78202503871822 49.9996880778425 12.984133763511474
  endloop
endfacet
facet normal 0.9951847265703248 -1.2126600327863996e-05 0.09801714061373921
  outer loop
    vertex 56.782087991851355 55.24965012711236 12.984144110628746
    vertex 56.89731335717497 49.999738231011 11.813591832237217
    vertex 56.89737631030819 55.24970028028092 11.813602179354497
  endloop
endfacet
facet normal 0.9569403356850027 -1.2046944611425046e-05 0.29028467716010325
  outer loop
    vertex 57.23881079751118 55.249697474957834 10.688043517323797
    vertex 56.89731335717497 49.999738231011 11.813591832237217
    vertex 57.23874784437796 49.99973542568792 10.688033170206532
  endloop
endfacet
facet normal 0.9569403356850027 -1.2046944611425046e-05 0.29028467716010325
  outer loop
    vertex 56.89731335717497 49.999738231011 11.813591832237217
    vertex 57.23881079751118 55.249697474957834 10.688043517323797
    vertex 56.89737631030819 55.24970028028092 11.813602179354497
  endloop
endfacet
facet normal 0.8819212643200759 -1.1504331569875577e-05 0.47139673673852406
  outer loop
    vertex 57.793270318583744 55.24969159796337 9.650722713430735
    vertex 57.23874784437796 49.99973542568792 10.688033170206532
    vertex 57.79320736545054 49.99972954869339 9.650712366313476
  endloop
endfacet
facet normal 0.8819212643200759 -1.1504331569875577e-05 0.47139673673852406
  outer loop
    vertex 57.23874784437796 49.99973542568792 10.688033170206532
    vertex 57.793270318583744 55.24969159796337 9.650722713430735
    vertex 57.23881079751118 55.249697474957834 10.688043517323797
  endloop
endfacet
facet normal 0.7730104533544425 -1.0519613517799115e-05 0.6343932840865334
  outer loop
    vertex 58.53944730507527 55.24968287514712 8.74150342443272
    vertex 57.79320736545054 49.99972954869339 9.650712366313476
    vertex 58.53938435194209 49.99972082587713 8.741493077315441
  endloop
endfacet
facet normal 0.7730104533544425 -1.0519613517799115e-05 0.6343932840865334
  outer loop
    vertex 57.79320736545054 49.99972954869339 9.650712366313476
    vertex 58.53944730507527 55.24968287514712 8.74150342443272
    vertex 57.793270318583744 55.24969159796337 9.650722713430735
  endloop
endfacet
facet normal 0.6343932841755671 -9.13063261770001e-06 0.7730104532990287
  outer loop
    vertex 59.44860364072272 49.999709592452014 7.995316090592646
    vertex 58.53944730507527 55.24968287514712 8.74150342443272
    vertex 58.53938435194209 49.99972082587713 8.741493077315441
  endloop
endfacet
facet normal 0.6343932841755671 -9.13063261770001e-06 0.7730104532990287
  outer loop
    vertex 58.53944730507527 55.24968287514712 8.74150342443272
    vertex 59.44860364072272 49.999709592452014 7.995316090592646
    vertex 59.44866659385596 55.24967164172197 7.995326437709898
  endloop
endfacet
facet normal 0.47139673685756917 -7.3907666266191695e-06 0.8819212643005113
  outer loop
    vertex 60.48592444442083 49.99969628011218 7.4408565692838495
    vertex 59.44866659385596 55.24967164172197 7.995326437709898
    vertex 59.44860364072272 49.999709592452014 7.995316090592646
  endloop
endfacet
facet normal 0.47139673685756917 -7.3907666266191695e-06 0.8819212643005113
  outer loop
    vertex 59.44866659385596 55.24967164172197 7.995326437709898
    vertex 60.48592444442083 49.99969628011218 7.4408565692838495
    vertex 60.485987397554 55.249658329382164 7.440866916401087
  endloop
endfacet
facet normal 0.2902846773043585 -5.366877618865596e-06 0.9569403357020233
  outer loop
    vertex 61.611483106286116 49.99968140044351 7.09942208184855
    vertex 60.485987397554 55.249658329382164 7.440866916401087
    vertex 60.48592444442083 49.99969628011218 7.4408565692838495
  endloop
endfacet
facet normal 0.2902846773043585 -5.366877618865596e-06 0.9569403357020233
  outer loop
    vertex 60.485987397554 55.249658329382164 7.440866916401087
    vertex 61.611483106286116 49.99968140044351 7.09942208184855
    vertex 61.611546059419254 55.24964344971349 7.0994324289658355
  endloop
endfacet
facet normal 0.09801714039580761 -3.136742513997798e-06 0.9951847266607288
  outer loop
    vertex 62.78202503816413 49.99966552526325 6.984133764160172
    vertex 61.611546059419254 55.24964344971349 7.0994324289658355
    vertex 61.611483106286116 49.99968140044351 7.09942208184855
  endloop
endfacet
facet normal 0.09801714039580761 -3.136742513997798e-06 0.9951847266607288
  outer loop
    vertex 61.611546059419254 55.24964344971349 7.0994324289658355
    vertex 62.78202503816413 49.99966552526325 6.984133764160172
    vertex 62.782087991297324 55.249627574533285 6.984144111277481
  endloop
endfacet
facet normal -0.09801714024950367 -7.860641534223494e-07 0.9951847266797714
  outer loop
    vertex 63.952566970059806 49.999649264645775 7.099422081613122
    vertex 62.782087991297324 55.249627574533285 6.984144111277481
    vertex 62.78202503816413 49.99966552526325 6.984133764160172
  endloop
endfacet
facet normal -0.09801714024950367 -7.860641534223494e-07 0.9951847266797714
  outer loop
    vertex 62.782087991297324 55.249627574533285 6.984144111277481
    vertex 63.952566970059806 49.999649264645775 7.099422081613122
    vertex 63.95262992319295 55.24961131391576 7.0994324287304185
  endloop
endfacet
facet normal -0.29028467716360257 1.5948222117386097e-06 0.9569403357584421
  outer loop
    vertex 65.07812563197821 49.999633243477376 7.440856568822049
    vertex 63.95262992319295 55.24961131391576 7.0994324287304185
    vertex 63.952566970059806 49.999649264645775 7.099422081613122
  endloop
endfacet
facet normal -0.29028467716360257 1.5948222117386097e-06 0.9569403357584421
  outer loop
    vertex 63.95262992319295 55.24961131391576 7.0994324287304185
    vertex 65.07812563197821 49.999633243477376 7.440856568822049
    vertex 65.0781885851114 55.24959529274738 7.440866915939357
  endloop
endfacet
facet normal -0.4713967367277229 3.914420453687888e-06 0.881921264392197
  outer loop
    vertex 66.11544643576231 49.99961807744261 7.995316089922205
    vertex 65.0781885851114 55.24959529274738 7.440866915939357
    vertex 65.07812563197821 49.999633243477376 7.440856568822049
  endloop
endfacet
facet normal -0.4713967367277229 3.914420453687888e-06 0.881921264392197
  outer loop
    vertex 65.0781885851114 55.24959529274738 7.440866915939357
    vertex 66.11544643576231 49.99961807744261 7.995316089922205
    vertex 66.11550938889549 55.24958012671267 7.995326437039519
  endloop
endfacet
facet normal -0.6343932840616119 6.083589712832725e-06 0.7730104534225348
  outer loop
    vertex 67.02466572465883 49.99960434936369 8.741493076462175
    vertex 66.11550938889549 55.24958012671267 7.995326437039519
    vertex 66.11544643576231 49.99961807744261 7.995316089922205
  endloop
endfacet
facet normal -0.6343932840616119 6.083589712832725e-06 0.7730104534225348
  outer loop
    vertex 66.11550938889549 55.24958012671267 7.995326437039519
    vertex 67.02466572465883 49.99960434936369 8.741493076462175
    vertex 67.02472867779201 55.24956639863373 8.741503423579484
  endloop
endfacet
facet normal -0.7730104532607907 8.018970031028728e-06 0.634393284237186
  outer loop
    vertex 67.7709056644246 55.24955463607312 9.650722712427477
    vertex 67.02466572465883 49.99960434936369 8.741493076462175
    vertex 67.7708427112915 49.9995925868031 9.650712365310168
  endloop
endfacet
facet normal -0.7730104532607907 8.018970031028728e-06 0.634393284237186
  outer loop
    vertex 67.02466572465883 49.99960434936369 8.741493076462175
    vertex 67.7709056644246 55.24955463607312 9.650722712427477
    vertex 67.02472867779201 55.24956639863373 8.741503423579484
  endloop
endfacet
facet normal -0.8819212642503983 9.646185828022123e-06 0.47139673691056705
  outer loop
    vertex 68.3253651856582 55.24954529105924 10.688043516208971
    vertex 67.7708427112915 49.9995925868031 9.650712365310168
    vertex 68.325302232525 49.99958324178926 10.688033169091726
  endloop
endfacet
facet normal -0.8819212642503983 9.646185828022123e-06 0.47139673691056705
  outer loop
    vertex 67.7708427112915 49.9995925868031 9.650712365310168
    vertex 68.3253651856582 55.24954529105924 10.688043516208971
    vertex 67.7709056644246 55.24955463607312 9.650722712427477
  endloop
endfacet
facet normal -0.9569403356420543 1.0902704113288291e-05 0.2902846773469175
  outer loop
    vertex 68.66679967303601 55.2495387227159 11.813602178171013
    vertex 68.325302232525 49.99958324178926 10.688033169091726
    vertex 68.66673671990283 49.99957667344584 11.813591831053728
  endloop
endfacet
facet normal -0.9569403356420543 1.0902704113288291e-05 0.2902846773469175
  outer loop
    vertex 68.325302232525 49.99958324178926 10.688033169091726
    vertex 68.66679967303601 55.2495387227159 11.813602178171013
    vertex 68.3253651856582 55.24954529105924 10.688043516208971
  endloop
endfacet
facet normal -0.995295524843969 7.880598185121873e-06 0.09688559316773805
  outer loop
    vertex 68.78070337853549 49.99961710806412 12.984150003393493
    vertex 68.66679967303601 55.2495387227159 11.813602178171013
    vertex 68.66673671990283 49.99957667344584 11.813591831053728
  endloop
endfacet
facet normal -0.995295524843969 7.880598185121873e-06 0.09688559316773805
  outer loop
    vertex 68.66679967303601 55.2495387227159 11.813602178171013
    vertex 68.78070337853549 49.99961710806412 12.984150003393493
    vertex 68.78073192467399 55.249617107442866 12.98422555849408
  endloop
endfacet
facet normal -1.6158396042137517e-05 -0.00015231751483964914 0.9999999882691405
  outer loop
    vertex 90.28054215229328 49.9994254999885 12.98435508852095
    vertex 68.78073192467399 55.249617107442866 12.98422555849408
    vertex 68.78070337853549 49.99961710806412 12.984150003393493
  endloop
endfacet
facet normal -1.6158396042137517e-05 -0.00015231751483964914 0.9999999882691405
  outer loop
    vertex 68.78073192467399 55.249617107442866 12.98422555849408
    vertex 90.28054215229328 49.9994254999885 12.98435508852095
    vertex 85.2804052853876 55.24623401664058 12.987635478371077
  endloop
endfacet
facet normal -1.6158396042137517e-05 -0.00015231751483964914 0.9999999882691405
  outer loop
    vertex 85.2804052853876 55.24623401664058 12.987635478371077
    vertex 90.28062758379222 60.24514801439131 12.984536296923848
    vertex 85.27997737564189 60.24623718949172 12.987321280577975
  endloop
endfacet
facet normal -1.6158396042137517e-05 -0.00015231751483964914 0.9999999882691405
  outer loop
    vertex 90.28062758379222 60.24514801439131 12.984536296923848
    vertex 85.2804052853876 55.24623401664058 12.987635478371077
    vertex 90.28054215229328 49.9994254999885 12.98435508852095
  endloop
endfacet
facet normal 0.0002138755790433993 0.9999999770249309 1.4400494522385108e-05
  outer loop
    vertex 85.27997737564189 60.24623718949172 12.987321280577975
    vertex 90.28132045212142 60.24529735564669 2.6071909845399834
    vertex 85.28018567525217 60.24638659784711 2.6054961560925944
  endloop
endfacet
facet normal 0.0002138755790433993 0.9999999770249309 1.4400494522385108e-05
  outer loop
    vertex 90.28132045212142 60.24529735564669 2.6071909845399834
    vertex 85.27997737564189 60.24623718949172 12.987321280577975
    vertex 90.28062758379222 60.24514801439131 12.984536296923848
  endloop
endfacet
facet normal -0.0002138398185401282 -0.9999999668145033 -0.00014367854578863144
  outer loop
    vertex 90.28100280046627 87.99725726501043 2.7686275063827264
    vertex 85.279521554224 87.9968784317362 12.985577487816418
    vertex 85.27986802359702 87.99834650721085 2.766932677935281
  endloop
endfacet
facet normal -0.0002138398185401282 -0.9999999668145033 -0.00014367854578863144
  outer loop
    vertex 85.279521554224 87.9968784317362 12.985577487816418
    vertex 90.28100280046627 87.99725726501043 2.7686275063827264
    vertex 90.28017177394182 87.99578951472144 12.9850270151624
  endloop
endfacet
facet normal -8.089412384103164e-06 2.3029273373116966e-05 0.9999999997021071
  outer loop
    vertex 90.28017177394182 87.99578951472144 12.9850270151624
    vertex 85.28061033462708 93.00583695250573 12.985262902678388
    vertex 85.279521554224 87.9968784317362 12.985577487816418
  endloop
endfacet
facet normal -8.089412384103164e-06 2.3029273373116966e-05 0.9999999997021071
  outer loop
    vertex 85.28061033462708 93.00583695250573 12.985262902678388
    vertex 73.78142940511795 94.69646097001676 12.984550653699658
    vertex 73.78093661040113 92.9964610554373 12.984768789692549
  endloop
endfacet
facet normal -8.089412384103164e-06 2.3029273373116966e-05 0.9999999997021071
  outer loop
    vertex 73.78142940511795 94.69646097001676 12.984550653699658
    vertex 85.28061033462708 93.00583695250573 12.985262902678388
    vertex 75.28094612850316 94.69956524375588 12.984793092314462
  endloop
endfacet
facet normal -8.089412384103164e-06 2.3029273373116966e-05 0.9999999997021071
  outer loop
    vertex 75.28094612850316 94.69956524375588 12.984793092314462
    vertex 85.28061033462708 93.00583695250573 12.985262902678388
    vertex 75.28095349698658 95.99958171856444 12.984812010126953
  endloop
endfacet
facet normal -8.089412384103164e-06 2.3029273373116966e-05 0.9999999997021071
  outer loop
    vertex 75.28095349698658 95.99958171856444 12.984812010126953
    vertex 85.28061033462708 93.00583695250573 12.985262902678388
    vertex 85.28042659856023 95.99952737390667 12.984812011594483
  endloop
endfacet
facet normal -8.089412384103164e-06 2.3029273373116966e-05 0.9999999997021071
  outer loop
    vertex 85.28042659856023 95.99952737390667 12.984812011594483
    vertex 85.28061033462708 93.00583695250573 12.985262902678388
    vertex 85.28044428741237 99.24952737720236 12.984858828661975
  endloop
endfacet
facet normal -8.089412384103164e-06 2.3029273373116966e-05 0.9999999997021071
  outer loop
    vertex 85.28044428741237 99.24952737720236 12.984858828661975
    vertex 85.28061033462708 93.00583695250573 12.985262902678388
    vertex 90.28080959923632 99.24950031012412 12.985226128472585
  endloop
endfacet
facet normal -8.089412384103164e-06 2.3029273373116966e-05 0.9999999997021071
  outer loop
    vertex 90.28080959923632 99.24950031012412 12.985226128472585
    vertex 85.28061033462708 93.00583695250573 12.985262902678388
    vertex 90.28017177394182 87.99578951472144 12.9850270151624
  endloop
endfacet
facet normal -8.089412384103164e-06 2.3029273373116966e-05 0.9999999997021071
  outer loop
    vertex 90.28080959923632 99.24950031012412 12.985226128472585
    vertex 90.28017177394182 87.99578951472144 12.9850270151624
    vertex 90.2808050878427 99.10422570367325 12.985181695193784
  endloop
endfacet
facet normal -0.9999999998732235 -1.9593025348365602e-07 -1.592214140366544e-05
  outer loop
    vertex 85.28061033462708 93.00583695250573 12.985262902678388
    vertex 85.27986802359702 87.99834650721085 2.766932677935281
    vertex 85.279521554224 87.9968784317362 12.985577487816418
  endloop
endfacet
facet normal -0.9999999998732235 -1.9593025348365602e-07 -1.592214140366544e-05
  outer loop
    vertex 85.27986802359702 87.99834650721085 2.766932677935281
    vertex 85.28061033462708 93.00583695250573 12.985262902678388
    vertex 85.28060654681396 92.99938796294674 -4.214768472042482
  endloop
endfacet
facet normal -0.9999999998732235 -1.9593025348365602e-07 -1.592214140366544e-05
  outer loop
    vertex 85.27997737564189 60.24623718949172 12.987321280577975
    vertex 85.28040127070258 55.24648561060298 -4.215311790963308
    vertex 85.2804052853876 55.24623401664058 12.987635478371077
  endloop
endfacet
facet normal -0.9999999998732235 -1.9593025348365602e-07 -1.592214140366544e-05
  outer loop
    vertex 85.28040127070258 55.24648561060298 -4.215311790963308
    vertex 85.27997737564189 60.24623718949172 12.987321280577975
    vertex 85.28018567525217 60.24638659784711 2.6054961560925944
  endloop
endfacet
facet normal -0.9999999998732235 -1.9593025348365602e-07 -1.592214140366544e-05
  outer loop
    vertex 85.28040127070258 55.24648561060298 -4.215311790963308
    vertex 85.28018567525217 60.24638659784711 2.6054961560925944
    vertex 85.2802193614689 62.52554736155602 0.4847929605984988
  endloop
endfacet
facet normal -0.9999999998732235 -1.9593025348365602e-07 -1.592214140366544e-05
  outer loop
    vertex 85.28040127070258 55.24648561060298 -4.215311790963308
    vertex 85.2802193614689 62.52554736155602 0.4847929605984988
    vertex 85.28060654681396 92.99938796294674 -4.214768472042482
  endloop
endfacet
facet normal -0.9999999998732235 -1.9593025348365602e-07 -1.592214140366544e-05
  outer loop
    vertex 85.28060654681396 92.99938796294674 -4.214768472042482
    vertex 85.2802193614689 62.52554736155602 0.4847929605984988
    vertex 85.28018715625998 63.24641711426707 0.48480333494942573
  endloop
endfacet
facet normal -0.9999999998732235 -1.9593025348365602e-07 -1.592214140366544e-05
  outer loop
    vertex 85.28060654681396 92.99938796294674 -4.214768472042482
    vertex 85.28018715625998 63.24641711426707 0.48480333494942573
    vertex 85.28034545958985 85.71660616105855 0.4851267135089595
  endloop
endfacet
facet normal -0.9999999998732235 -1.9593025348365602e-07 -1.592214140366544e-05
  outer loop
    vertex 85.28060654681396 92.99938796294674 -4.214768472042482
    vertex 85.28034545958985 85.71660616105855 0.4851267135089595
    vertex 85.27986802359702 87.99834650721085 2.766932677935281
  endloop
endfacet
facet normal 0.999999994478785 -5.418977727677156e-06 0.00010494315112740891
  outer loop
    vertex 90.28279249845879 49.99917146874542 -4.214198749133609
    vertex 90.28132045212142 60.24529735564669 2.6071909845399834
    vertex 90.28054215229328 49.9994254999885 12.98435508852095
  endloop
endfacet
facet normal 0.999999994478785 -5.418977727677156e-06 0.00010494315112740891
  outer loop
    vertex 90.28132045212142 60.24529735564669 2.6071909845399834
    vertex 90.28279249845879 49.99917146874542 -4.214198749133609
    vertex 90.28135413833814 62.52445811935562 0.4864877890458954
  endloop
endfacet
facet normal 0.999999994478785 -5.418977727677156e-06 0.00010494315112740891
  outer loop
    vertex 90.28135413833814 62.52445811935562 0.4864877890458954
    vertex 90.28279249845879 49.99917146874542 -4.214198749133609
    vertex 90.28308837027585 99.24917354938049 -4.213473637317173
  endloop
endfacet
facet normal 0.999999994478785 -5.418977727677156e-06 0.00010494315112740891
  outer loop
    vertex 90.28054215229328 49.9994254999885 12.98435508852095
    vertex 90.28132045212142 60.24529735564669 2.6071909845399834
    vertex 90.28062758379222 60.24514801439131 12.984536296923848
  endloop
endfacet
facet normal 0.999999994478785 -5.418977727677156e-06 0.00010494315112740891
  outer loop
    vertex 90.28135413833814 62.52445811935562 0.4864877890458954
    vertex 90.28308837027585 99.24917354938049 -4.213473637317173
    vertex 90.28132193312922 63.24532787206668 0.4864981633968343
  endloop
endfacet
facet normal 0.999999994478785 -5.418977727677156e-06 0.00010494315112740891
  outer loop
    vertex 90.28132193312922 63.24532787206668 0.4864981633968343
    vertex 90.28308837027585 99.24917354938049 -4.213473637317173
    vertex 90.28148023645916 85.71551691885823 0.48682154195636795
  endloop
endfacet
facet normal 0.999999994478785 -5.418977727677156e-06 0.00010494315112740891
  outer loop
    vertex 90.28148023645916 85.71551691885823 0.48682154195636795
    vertex 90.28308837027585 99.24917354938049 -4.213473637317173
    vertex 90.28100280046627 87.99725726501043 2.7686275063827264
  endloop
endfacet
facet normal 0.999999994478785 -5.418977727677156e-06 0.00010494315112740891
  outer loop
    vertex 90.28100280046627 87.99725726501043 2.7686275063827264
    vertex 90.28308837027585 99.24917354938049 -4.213473637317173
    vertex 90.2808050878427 99.10422570367325 12.985181695193784
  endloop
endfacet
facet normal 0.999999994478785 -5.418977727677156e-06 0.00010494315112740891
  outer loop
    vertex 90.2808050878427 99.10422570367325 12.985181695193784
    vertex 90.28308837027585 99.24917354938049 -4.213473637317173
    vertex 90.28080959923632 99.24950031012412 12.985226128472585
  endloop
endfacet
facet normal 0.999999994478785 -5.418977727677156e-06 0.00010494315112740891
  outer loop
    vertex 90.2808050878427 99.10422570367325 12.985181695193784
    vertex 90.28017177394182 87.99578951472144 12.9850270151624
    vertex 90.28100280046627 87.99725726501043 2.7686275063827264
  endloop
endfacet
facet normal 2.7027270514715375e-05 1.576678341861243e-05 -0.9999999995104677
  outer loop
    vertex 46.78162402730957 99.24999529844371 -4.2151373518353505
    vertex 50.28388010346873 92.99899480809168 -4.215374827156579
    vertex 50.276894691440525 55.24687682239204 -4.215970245421339
  endloop
endfacet
facet normal 2.7027270514715375e-05 1.576678341861243e-05 -0.9999999995104677
  outer loop
    vertex 50.28388010346873 92.99899480809168 -4.215374827156579
    vertex 46.78162402730957 99.24999529844371 -4.2151373518353505
    vertex 90.28308837027585 99.24917354938049 -4.213473637317173
  endloop
endfacet
facet normal 2.7027270514715375e-05 1.576678341861243e-05 -0.9999999995104677
  outer loop
    vertex 50.28388010346873 92.99899480809168 -4.215374827156579
    vertex 90.28308837027585 99.24917354938049 -4.213473637317173
    vertex 85.28060654681396 92.99938796294674 -4.214768472042482
  endloop
endfacet
facet normal 2.7027270514715375e-05 1.576678341861243e-05 -0.9999999995104677
  outer loop
    vertex 85.28060654681396 92.99938796294674 -4.214768472042482
    vertex 90.28308837027585 99.24917354938049 -4.213473637317173
    vertex 90.28279249845879 49.99917146874542 -4.214198749133609
  endloop
endfacet
facet normal 2.7027270514715375e-05 1.576678341861243e-05 -0.9999999995104677
  outer loop
    vertex 46.7813192731361 46.00000327016667 -4.2159348950373605
    vertex 50.276894691440525 55.24687682239204 -4.215970245421339
    vertex 52.782055905945 45.99996785670176 -4.215936992832569
  endloop
endfacet
facet normal 2.7027270514715375e-05 1.576678341861243e-05 -0.9999999995104677
  outer loop
    vertex 50.276894691440525 55.24687682239204 -4.215970245421339
    vertex 46.7813192731361 46.00000327016667 -4.2159348950373605
    vertex 46.78162402730957 99.24999529844371 -4.2151373518353505
  endloop
endfacet
facet normal 2.7027270514715375e-05 1.576678341861243e-05 -0.9999999995104677
  outer loop
    vertex 52.782055905945 45.99996785670176 -4.215936992832569
    vertex 50.276894691440525 55.24687682239204 -4.215970245421339
    vertex 52.78207721803123 49.99996301712942 -4.215877972069252
  endloop
endfacet
facet normal 2.7027270514715375e-05 1.576678341861243e-05 -0.9999999995104677
  outer loop
    vertex 52.78207721803123 49.99996301712942 -4.215877972069252
    vertex 50.276894691440525 55.24687682239204 -4.215970245421339
    vertex 85.28040127070258 55.24648561060298 -4.215311790963308
  endloop
endfacet
facet normal 2.7027270514715375e-05 1.576678341861243e-05 -0.9999999995104677
  outer loop
    vertex 52.78207721803123 49.99996301712942 -4.215877972069252
    vertex 85.28040127070258 55.24648561060298 -4.215311790963308
    vertex 90.28279249845879 49.99917146874542 -4.214198749133609
  endloop
endfacet
facet normal 2.7027270514715375e-05 1.576678341861243e-05 -0.9999999995104677
  outer loop
    vertex 90.28279249845879 49.99917146874542 -4.214198749133609
    vertex 85.28040127070258 55.24648561060298 -4.215311790963308
    vertex 85.28060654681396 92.99938796294674 -4.214768472042482
  endloop
endfacet
facet normal -6.20163066571736e-06 -1.580732659385987e-05 0.9999999998558342
  outer loop
    vertex 49.75218231672937 45.999636797553165 12.984047065138915
    vertex 46.78185291058284 99.24973648634226 12.984858826580504
    vertex 46.78141238367145 45.999586998127015 12.9837070641592
  endloop
endfacet
facet normal -6.20163066571736e-06 -1.580732659385987e-05 0.9999999998558342
  outer loop
    vertex 46.78185291058284 99.24973648634226 12.984858826580504
    vertex 49.75218231672937 45.999636797553165 12.984047065138915
    vertex 49.78229246255188 99.24972318168375 12.984858826689223
  endloop
endfacet
facet normal -6.20163066571736e-06 -1.580732659385987e-05 0.9999999998558342
  outer loop
    vertex 49.78229246255188 99.24972318168375 12.984858826689223
    vertex 49.75218231672937 45.999636797553165 12.984047065138915
    vertex 49.7822748312449 95.99972617097228 12.984810938103921
  endloop
endfacet
facet normal -6.20163066571736e-06 -1.580732659385987e-05 0.9999999998558342
  outer loop
    vertex 56.78202503871822 49.9996880778425 12.984133763511474
    vertex 50.2822320249147 55.246404421250865 12.984651308213355
    vertex 50.28202503881397 49.99972337535488 12.984133763371208
  endloop
endfacet
facet normal -6.20163066571736e-06 -1.580732659385987e-05 0.9999999998558342
  outer loop
    vertex 50.2822320249147 55.246404421250865 12.984651308213355
    vertex 56.78202503871822 49.9996880778425 12.984133763511474
    vertex 56.782087991851355 55.24965012711236 12.984144110628746
  endloop
endfacet
facet normal -6.20163066571736e-06 -1.580732659385987e-05 0.9999999998558342
  outer loop
    vertex 50.282003317267844 45.99972337584723 12.984074878611013
    vertex 49.7822748312449 95.99972617097228 12.984810938103921
    vertex 49.75218231672937 45.999636797553165 12.984047065138915
  endloop
endfacet
facet normal -6.20163066571736e-06 -1.580732659385987e-05 0.9999999998558342
  outer loop
    vertex 49.7822748312449 95.99972617097228 12.984810938103921
    vertex 50.282003317267844 45.99972337584723 12.984074878611013
    vertex 50.28094612890506 94.6997069435753 12.98479309186243
  endloop
endfacet
facet normal -6.20163066571736e-06 -1.580732659385987e-05 0.9999999998558342
  outer loop
    vertex 50.28094612890506 94.6997069435753 12.98479309186243
    vertex 50.282003317267844 45.99972337584723 12.984074878611013
    vertex 50.28202503881397 49.99972337535488 12.984133763371208
  endloop
endfacet
facet normal -6.20163066571736e-06 -1.580732659385987e-05 0.9999999998558342
  outer loop
    vertex 50.28094612890506 94.6997069435753 12.98479309186243
    vertex 50.28202503881397 49.99972337535488 12.984133763371208
    vertex 50.28243707415389 93.00600731400583 12.98520717450376
  endloop
endfacet
facet normal -6.20163066571736e-06 -1.580732659385987e-05 0.9999999998558342
  outer loop
    vertex 50.28094612890506 94.6997069435753 12.98479309186243
    vertex 50.28243707415389 93.00600731400583 12.98520717450376
    vertex 51.781430554501426 94.70283831341007 12.984550745348292
  endloop
endfacet
facet normal -6.20163066571736e-06 -1.580732659385987e-05 0.9999999998558342
  outer loop
    vertex 50.28243707415389 93.00600731400583 12.98520717450376
    vertex 50.28202503881397 49.99972337535488 12.984133763371208
    vertex 50.2822320249147 55.246404421250865 12.984651308213355
  endloop
endfacet
facet normal -6.20163066571736e-06 -1.580732659385987e-05 0.9999999998558342
  outer loop
    vertex 51.781430554501426 94.70283831341007 12.984550745348292
    vertex 50.28243707415389 93.00600731400583 12.98520717450376
    vertex 51.78093775978462 93.00283839883058 12.98476888134121
  endloop
endfacet
facet normal -6.20163066571736e-06 -1.580732659385987e-05 0.9999999998558342
  outer loop
    vertex 50.28095349738844 95.99972341838387 12.984812009674917
    vertex 49.7822748312449 95.99972617097228 12.984810938103921
    vertex 50.28094612890506 94.6997069435753 12.98479309186243
  endloop
endfacet
facet normal -0.9999999999184935 6.589239811029356e-06 1.0935942770204707e-05
  outer loop
    vertex 46.78185291058284 99.24973648634226 12.984858826580504
    vertex 46.7813192731361 46.00000327016667 -4.2159348950373605
    vertex 46.78141238367145 45.999586998127015 12.9837070641592
  endloop
endfacet
facet normal -0.9999999999184935 6.589239811029356e-06 1.0935942770204707e-05
  outer loop
    vertex 46.7813192731361 46.00000327016667 -4.2159348950373605
    vertex 46.78185291058284 99.24973648634226 12.984858826580504
    vertex 46.78162402730957 99.24999529844371 -4.2151373518353505
  endloop
endfacet
endsolid e3d_v5-сменные-половинка
