solid Платформа-для-головы-v5b-Тонкий
facet normal -0.2993643333747102 -0.7178154846547862 0.6285872460469826
  outer loop
    vertex 5.003456123346518 8.781885241927567 6.492386605113318
    vertex 2.0205885959307874 9.504317588238848 5.896779509285971
    vertex 4.03758802629722 8.33945392518036 5.527157811697637
  endloop
endfacet
facet normal 0.00028530661086967264 -5.175692175096848e-05 0.9999999579606786
  outer loop
    vertex 47.999295832444005 -0.005821295714820645 1.379739236712588
    vertex 0.0020765793436703373 10.669277654420997 1.3939856715541195
    vertex 0.0009165901688207079 0.00020624135164350464 1.3934530096540785
  endloop
endfacet
facet normal 0.00028530661086967264 -5.175692175096848e-05 0.9999999579606786
  outer loop
    vertex 0.0020765793436703373 10.669277654420997 1.3939856715541195
    vertex 47.999295832444005 -0.005821295714820645 1.379739236712588
    vertex 48.00033733905147 10.663195683021463 1.3803103406268729
  endloop
endfacet
facet normal -0.00010210375091375645 -0.9999999925456676 -6.69588577067739e-05
  outer loop
    vertex 92.00592104462311 -0.009638044850776883 -0.01689016321870634
    vertex 47.999295832444005 -0.005821295714820645 1.379739236712588
    vertex 0.0 0.0 0.0
  endloop
endfacet
facet normal -0.00010210375091375645 -0.9999999925456676 -6.69588577067739e-05
  outer loop
    vertex 47.999295832444005 -0.005821295714820645 1.379739236712588
    vertex 92.00592104462311 -0.009638044850776883 -0.01689016321870634
    vertex 92.00569497136829 -0.009445388838443841 11.371933157776525
  endloop
endfacet
facet normal -0.00010210375091375645 -0.9999999925456676 -6.69588577067739e-05
  outer loop
    vertex 47.999295832444005 -0.005821295714820645 1.379739236712588
    vertex 92.00569497136829 -0.009445388838443841 11.371933157776525
    vertex 55.004157949367595 -0.006637005948697599 6.501355093050222
  endloop
endfacet
facet normal -0.00010210375091375645 -0.9999999925456676 -6.69588577067739e-05
  outer loop
    vertex 55.004157949367595 -0.006637005948697599 6.501355093050222
    vertex 92.00569497136829 -0.009445388838443841 11.371933157776525
    vertex 55.00503365912889 -0.006970824845117096 11.375348418314719
  endloop
endfacet
facet normal -0.00010210375091375645 -0.9999999925456676 -6.69588577067739e-05
  outer loop
    vertex 48.004158874089725 -0.00698134133956545 6.50493664900595
    vertex 47.999295832444005 -0.005821295714820645 1.379739236712588
    vertex 55.004157949367595 -0.006637005948697599 6.501355093050222
  endloop
endfacet
facet normal -0.00010210375091375645 -0.9999999925456676 -6.69588577067739e-05
  outer loop
    vertex 0.0009165901688207079 0.00020624135164350464 1.3934530096540785
    vertex 0.0 0.0 0.0
    vertex 47.999295832444005 -0.005821295714820645 1.379739236712588
  endloop
endfacet
facet normal 8.899999741219707e-07 -0.9090585769984992 0.41666833763158856
  outer loop
    vertex 48.00169878967219 8.776344971930545 6.4802434051217315
    vertex 4.03758802629722 8.33945392518036 5.527157811697637
    vertex 48.00135035394309 8.333809450812835 5.514713939979191
  endloop
endfacet
facet normal 8.899999741219707e-07 -0.9090585769984992 0.41666833763158856
  outer loop
    vertex 4.03758802629722 8.33945392518036 5.527157811697637
    vertex 48.00169878967219 8.776344971930545 6.4802434051217315
    vertex 5.003456123346518 8.781885241927567 6.492386605113318
  endloop
endfacet
facet normal -0.5000934451992143 -0.8659714356884074 0.00013653035935407657
  outer loop
    vertex 4.03758802629722 8.33945392518036 5.527157811697637
    vertex 0.0033486300298978477 10.669198378936683 5.49398547350895
    vertex 0.0021030027737661606 10.669287075413257 1.4939856684407367
  endloop
endfacet
facet normal -0.5000934451992143 -0.8659714356884074 0.00013653035935407657
  outer loop
    vertex 0.0033486300298978477 10.669198378936683 5.49398547350895
    vertex 4.03758802629722 8.33945392518036 5.527157811697637
    vertex 2.0205885959307874 9.504317588238848 5.896779509285971
  endloop
endfacet
facet normal -0.19580524909956168 4.4192541699168286e-07 0.9806428016484204
  outer loop
    vertex 2.0205885959307874 9.504317588238848 5.896779509285971
    vertex 0.00563966062289043 31.89569555819936 5.494455438966583
    vertex 0.0033486300298978477 10.669198378936683 5.49398547350895
  endloop
endfacet
facet normal -0.19580524909956168 4.4192541699168286e-07 0.9806428016484204
  outer loop
    vertex 0.00563966062289043 31.89569555819936 5.494455438966583
    vertex 2.0205885959307874 9.504317588238848 5.896779509285971
    vertex 2.0231310347731317 33.06012303266432 5.897301046814932
  endloop
endfacet
facet normal -0.19580524909956168 4.4192541699168286e-07 0.9806428016484204
  outer loop
    vertex 2.0231310347731317 33.06012303266432 5.897301046814932
    vertex 2.0205885959307874 9.504317588238848 5.896779509285971
    vertex 5.003456123346518 8.781885241927567 6.492386605113318
  endloop
endfacet
facet normal -0.19580524909956168 4.4192541699168286e-07 0.9806428016484204
  outer loop
    vertex 2.0231310347731317 33.06012303266432 5.897301046814932
    vertex 5.003456123346518 8.781885241927567 6.492386605113318
    vertex 5.0058837051812155 31.28188511904072 6.492778753067697
  endloop
endfacet
facet normal -0.19580524909956168 4.4192541699168286e-07 0.9806428016484204
  outer loop
    vertex 2.0231310347731317 33.06012303266432 5.897301046814932
    vertex 5.0058837051812155 31.28188511904072 6.492778753067697
    vertex 5.006154437816117 33.78188509018201 6.492940117841887
  endloop
endfacet
facet normal -0.19580524909956168 4.4192541699168286e-07 0.9806428016484204
  outer loop
    vertex 5.0058837051812155 31.28188511904072 6.492778753067697
    vertex 5.003456123346518 8.781885241927567 6.492386605113318
    vertex 5.00377992108286 11.781885223718131 6.492453026640768
  endloop
endfacet
facet normal -0.9999999267446675 0.00010779921349555088 0.0003672737251028821
  outer loop
    vertex 0.00563966062289043 31.89569555819936 5.494455438966583
    vertex 0.0021030027737661606 10.669287075413257 1.4939856684407367
    vertex 0.0033486300298978477 10.669198378936683 5.49398547350895
  endloop
endfacet
facet normal -0.9999999267446675 0.00010779921349555088 0.0003672737251028821
  outer loop
    vertex 0.004394033366770023 31.895784254675934 1.494455633898391
    vertex 0.004362317221134359 31.8957830651978 1.3944556388728586
    vertex 0.00563966062289043 31.89569555819936 5.494455438966583
  endloop
endfacet
facet normal -0.9999999267446675 0.00010779921349555088 0.0003672737251028821
  outer loop
    vertex 0.0009165901688207079 0.00020624135164350464 1.3934530096540785
    vertex 0.004526983013716323 41.9965771549868 0.0008983597095011219
    vertex 0.0 0.0 0.0
  endloop
endfacet
facet normal -0.9999999267446675 0.00010779921349555088 0.0003672737251028821
  outer loop
    vertex 0.004526983013716323 41.9965771549868 0.0008983597095011219
    vertex 0.0009165901688207079 0.00020624135164350464 1.3934530096540785
    vertex 0.0020765793436703373 10.669277654420997 1.3939856715541195
  endloop
endfacet
facet normal -0.9999999267446675 0.00010779921349555088 0.0003672737251028821
  outer loop
    vertex 0.004526983013716323 41.9965771549868 0.0008983597095011219
    vertex 0.0020765793436703373 10.669277654420997 1.3939856715541195
    vertex 0.0021030027737661606 10.669287075413257 1.4939856684407367
  endloop
endfacet
facet normal -0.9999999267446675 0.00010779921349555088 0.0003672737251028821
  outer loop
    vertex 0.004526983013716323 41.9965771549868 0.0008983597095011219
    vertex 0.0021030027737661606 10.669287075413257 1.4939856684407367
    vertex 0.004362317221134359 31.8957830651978 1.3944556388728586
  endloop
endfacet
facet normal -0.9999999267446675 0.00010779921349555088 0.0003672737251028821
  outer loop
    vertex 0.004362317221134359 31.8957830651978 1.3944556388728586
    vertex 0.0021030027737661606 10.669287075413257 1.4939856684407367
    vertex 0.00563966062289043 31.89569555819936 5.494455438966583
  endloop
endfacet
facet normal -0.9999999267446675 0.00010779921349555088 0.0003672737251028821
  outer loop
    vertex 0.004526983013716323 41.9965771549868 0.0008983597095011219
    vertex 0.004362317221134359 31.8957830651978 1.3944556388728586
    vertex 0.005438998794036287 41.996787299619115 1.3943513709021376
  endloop
endfacet
facet normal 0.00031316559787612975 1.1522733514496654e-05 0.9999999508972663
  outer loop
    vertex 48.00562428980873 31.890555112143502 1.379435814863971
    vertex 0.005438998794036287 41.996787299619115 1.3943513709021376
    vertex 0.004362317221134359 31.8957830651978 1.3944556388728586
  endloop
endfacet
facet normal 0.00031316559787612975 1.1522733514496654e-05 0.9999999508972663
  outer loop
    vertex 0.005438998794036287 41.996787299619115 1.3943513709021376
    vertex 48.00562428980873 31.890555112143502 1.379435814863971
    vertex 48.00670096384472 41.99156141759199 1.3793066260849787
  endloop
endfacet
facet normal 0.00010888427295379112 0.9999999938237782 -2.2285845316096527e-05
  outer loop
    vertex 0.004362317221134359 31.8957830651978 1.3944556388728586
    vertex 48.005637641012996 31.890558374630015 1.4794108947979638
    vertex 48.00562428980873 31.890555112143502 1.379435814863971
  endloop
endfacet
facet normal 0.00010888427295379112 0.9999999938237782 -2.2285845316096527e-05
  outer loop
    vertex 48.005637641012996 31.890558374630015 1.4794108947979638
    vertex 0.004362317221134359 31.8957830651978 1.3944556388728586
    vertex 0.004394033366770023 31.895784254675934 1.494455633898391
  endloop
endfacet
facet normal 8.566366663923139e-05 0.9999999960071637 2.5444230809706013e-05
  outer loop
    vertex 85.00597940461408 6.991493345250263 0.9765838414892327
    vertex 90.00680716495027 6.990773097532281 -0.01670249979388473
    vertex 85.00680711394243 6.991245880335697 -0.01670576180128666
  endloop
endfacet
facet normal 8.566366663923139e-05 0.9999999960071637 2.5444230809706013e-05
  outer loop
    vertex 90.00680716495027 6.990773097532281 -0.01670249979388473
    vertex 85.00597940461408 6.991493345250263 0.9765838414892327
    vertex 90.00821226708354 6.990546406302482 24.373194151534918
  endloop
endfacet
facet normal 8.566366663923139e-05 0.9999999960071637 2.5444230809706013e-05
  outer loop
    vertex 90.00821226708354 6.990546406302482 24.373194151534918
    vertex 85.00597940461408 6.991493345250263 0.9765838414892327
    vertex 75.77246562915998 6.992131827160564 11.374063248327571
  endloop
endfacet
facet normal 8.566366663923139e-05 0.9999999960071637 2.5444230809706013e-05
  outer loop
    vertex 90.00821226708354 6.990546406302482 24.373194151534918
    vertex 75.77246562915998 6.992131827160564 11.374063248327571
    vertex 72.77246564339858 6.992400620991148 11.374178061739794
  endloop
endfacet
facet normal 8.566366663923139e-05 0.9999999960071637 2.5444230809706013e-05
  outer loop
    vertex 90.00821226708354 6.990546406302482 24.373194151534918
    vertex 72.77246564339858 6.992400620991148 11.374178061739794
    vertex 72.77296307996082 6.991415944823035 24.37417801705927
  endloop
endfacet
facet normal -0.9999999945812015 9.310543026721328e-05 4.65722665375719e-05
  outer loop
    vertex 90.00821226708354 6.990546406302482 24.373194151534918
    vertex 90.00756321656995 7.2821132295536 3.7696279117147173
    vertex 90.00680716495027 6.990773097532281 -0.01670249979388473
  endloop
endfacet
facet normal -0.9999999945812015 9.310543026721328e-05 4.65722665375719e-05
  outer loop
    vertex 90.00756321656995 7.2821132295536 3.7696279117147173
    vertex 90.00821226708354 6.990546406302482 24.373194151534918
    vertex 90.00766475014599 8.578714230174144 7.3390812151804985
  endloop
endfacet
facet normal -0.9999999945812015 9.310543026721328e-05 4.65722665375719e-05
  outer loop
    vertex 90.00766475014599 8.578714230174144 7.3390812151804985
    vertex 90.00821226708354 6.990546406302482 24.373194151534918
    vertex 90.00784123671478 10.785447543756408 10.42979296206346
  endloop
endfacet
facet normal -0.9999999945812015 9.310543026721328e-05 4.65722665375719e-05
  outer loop
    vertex 90.00784123671478 10.785447543756408 10.42979296206346
    vertex 90.00821226708354 6.990546406302482 24.373194151534918
    vertex 90.0080797350491 13.740500071183854 12.815130580516126
  endloop
endfacet
facet normal -0.9999999945812015 9.310543026721328e-05 4.65722665375719e-05
  outer loop
    vertex 90.0080797350491 13.740500071183854 12.815130580516126
    vertex 90.00821226708354 6.990546406302482 24.373194151534918
    vertex 90.01123692159315 34.99054742884798 24.37375522873333
  endloop
endfacet
facet normal -0.9999999945812015 9.310543026721328e-05 4.65722665375719e-05
  outer loop
    vertex 90.0080797350491 13.740500071183854 12.815130580516126
    vertex 90.01123692159315 34.99054742884798 24.37375522873333
    vertex 90.00836275678493 17.227186722068776 14.320184456356449
  endloop
endfacet
facet normal -0.9999999945812015 9.310543026721328e-05 4.65722665375719e-05
  outer loop
    vertex 90.00836275678493 17.227186722068776 14.320184456356449
    vertex 90.01123692159315 34.99054742884798 24.37375522873333
    vertex 90.0086695487923 20.989839278980632 14.834593527607318
  endloop
endfacet
facet normal -0.9999999945812015 9.310543026721328e-05 4.65722665375719e-05
  outer loop
    vertex 90.0086695487923 20.989839278980632 14.834593527607318
    vertex 90.01123692159315 34.99054742884798 24.37375522873333
    vertex 90.00897761493809 24.75255377682076 14.320637728359323
  endloop
endfacet
facet normal -0.9999999945812015 9.310543026721328e-05 4.65722665375719e-05
  outer loop
    vertex 90.00897761493809 24.75255377682076 14.320637728359323
    vertex 90.01123692159315 34.99054742884798 24.37375522873333
    vertex 90.00926436566108 28.239421708549145 12.81600388745302
  endloop
endfacet
facet normal -0.9999999945812015 9.310543026721328e-05 4.65722665375719e-05
  outer loop
    vertex 90.00926436566108 28.239421708549145 12.81600388745302
    vertex 90.01123692159315 34.99054742884798 24.37375522873333
    vertex 90.00950877439527 31.194761563957552 10.431022266970112
  endloop
endfacet
facet normal -0.9999999945812015 9.310543026721328e-05 4.65722665375719e-05
  outer loop
    vertex 90.00950877439527 31.194761563957552 10.431022266970112
    vertex 90.01123692159315 34.99054742884798 24.37375522873333
    vertex 90.00969291938537 33.40186718376401 7.340576376835281
  endloop
endfacet
facet normal -0.9999999945812015 9.310543026721328e-05 4.65722665375719e-05
  outer loop
    vertex 90.00969291938537 33.40186718376401 7.340576376835281
    vertex 90.01123692159315 34.99054742884798 24.37375522873333
    vertex 90.0098032978348 34.698898168759264 3.7712792944224454
  endloop
endfacet
facet normal -0.9999999945812015 9.310543026721328e-05 4.65722665375719e-05
  outer loop
    vertex 90.0098032978348 34.698898168759264 3.7712792944224454
    vertex 90.01123692159315 34.99054742884798 24.37375522873333
    vertex 90.0098318194599 34.99077412007777 -0.01614142259550591
  endloop
endfacet
facet normal 2.5976323020466705e-05 -1.9191694360841953e-05 0.9999999994784547
  outer loop
    vertex 92.00612317066822 1.5895697463602196 24.372964201100412
    vertex 72.77296307996082 6.991415944823035 24.37417801705927
    vertex 72.77247919950896 1.5911242116478943 24.37351391657186
  endloop
endfacet
facet normal 2.5976323020466705e-05 -1.9191694360841953e-05 0.9999999994784547
  outer loop
    vertex 72.77296307996082 6.991415944823035 24.37417801705927
    vertex 92.00612317066822 1.5895697463602196 24.372964201100412
    vertex 90.00821226708354 6.990546406302482 24.373194151534918
  endloop
endfacet
facet normal 2.5976323020466705e-05 -1.9191694360841953e-05 0.9999999994784547
  outer loop
    vertex 90.00821226708354 6.990546406302482 24.373194151534918
    vertex 92.00612317066822 1.5895697463602196 24.372964201100412
    vertex 90.01123692159315 34.99054742884798 24.37375522873333
  endloop
endfacet
facet normal 2.5976323020466705e-05 -1.9191694360841953e-05 0.9999999994784547
  outer loop
    vertex 90.01123692159315 34.99054742884798 24.37375522873333
    vertex 72.77530037910826 40.39159698379461 24.374455192293766
    vertex 72.77490685077137 34.99131488575531 24.373825940607485
  endloop
endfacet
facet normal 2.5976323020466705e-05 -1.9191694360841953e-05 0.9999999994784547
  outer loop
    vertex 72.77530037910826 40.39159698379461 24.374455192293766
    vertex 90.01123692159315 34.99054742884798 24.37375522873333
    vertex 92.00917631849337 40.39064140815966 24.37413672559908
  endloop
endfacet
facet normal 2.5976323020466705e-05 -1.9191694360841953e-05 0.9999999994784547
  outer loop
    vertex 92.00917631849337 40.39064140815966 24.37413672559908
    vertex 90.01123692159315 34.99054742884798 24.37375522873333
    vertex 92.00612317066822 1.5895697463602196 24.372964201100412
  endloop
endfacet
facet normal 0.9999999079992095 -0.0001376248116851986 0.00040627697954149247
  outer loop
    vertex 85.00983174775142 34.99124988405522 -0.016256993606423527
    vertex 85.00597940461408 6.991493345250263 0.9765838414892327
    vertex 85.00680711394243 6.991245880335697 -0.01670576180128666
  endloop
endfacet
facet normal 0.9999999079992095 -0.0001376248116851986 0.00040627697954149247
  outer loop
    vertex 85.00597940461408 6.991493345250263 0.9765838414892327
    vertex 85.00983174775142 34.99124988405522 -0.016256993606423527
    vertex 85.00621192589632 11.77111808916267 0.9761909539313047
  endloop
endfacet
facet normal 0.9999999079992095 -0.0001376248116851986 0.00040627697954149247
  outer loop
    vertex 85.00621192589632 11.77111808916267 0.9761909539313047
    vertex 85.00983174775142 34.99124988405522 -0.016256993606423527
    vertex 85.00899700003184 31.272725760125688 0.9762201418017658
  endloop
endfacet
facet normal 0.9999999079992095 -0.0001376248116851986 0.00040627697954149247
  outer loop
    vertex 85.00899700003184 31.272725760125688 0.9762201418017658
    vertex 85.00983174775142 34.99124988405522 -0.016256993606423527
    vertex 85.01061998672877 34.99147792569792 0.9771960370403762
  endloop
endfacet
facet normal -0.2992093780523409 0.7178522550721876 0.628619032461877
  outer loop
    vertex 5.006154437816117 33.78188509018201 6.492940117841887
    vertex 4.0403818733889665 34.22456763476859 5.527730921297827
    vertex 2.0231310347731317 33.06012303266432 5.897301046814932
  endloop
endfacet
facet normal -6.24287567077149e-05 0.8660365284174617 -0.49998072717783976
  outer loop
    vertex 0.004394033366770023 31.895784254675934 1.494455633898391
    vertex 48.00714541391465 34.21977717874622 5.513942556497686
    vertex 48.005637641012996 31.890558374630015 1.4794108947979638
  endloop
endfacet
facet normal -6.24287567077149e-05 0.8660365284174617 -0.49998072717783976
  outer loop
    vertex 48.00714541391465 34.21977717874622 5.513942556497686
    vertex 0.004394033366770023 31.895784254675934 1.494455633898391
    vertex 4.0403818733889665 34.22456763476859 5.527730921297827
  endloop
endfacet
facet normal -8.082227770191879e-05 -0.9999999938655131 -7.574122780468097e-05
  outer loop
    vertex 92.00612317066822 1.5895697463602196 24.372964201100412
    vertex 72.7719817629466 1.5921088878159608 11.37351396125236
    vertex 92.0056257341062 1.5905544225282995 11.372964245780926
  endloop
endfacet
facet normal -8.082227770191879e-05 -0.9999999938655131 -7.574122780468097e-05
  outer loop
    vertex 72.7719817629466 1.5921088878159608 11.37351396125236
    vertex 92.00612317066822 1.5895697463602196 24.372964201100412
    vertex 72.77247919950896 1.5911242116478943 24.37351391657186
  endloop
endfacet
facet normal 0.9999999965686057 -8.283210619850937e-05 1.2769847252082536e-06
  outer loop
    vertex 92.00649280226719 6.990557059423411 -0.01682723501680789
    vertex 92.00569497136829 -0.009445388838443841 11.371933157776525
    vertex 92.00592104462311 -0.009638044850776883 -0.01689016321870634
  endloop
endfacet
facet normal 0.9999999965686057 -8.283210619850937e-05 1.2769847252082536e-06
  outer loop
    vertex 92.00569497136829 -0.009445388838443841 11.371933157776525
    vertex 92.00649280226719 6.990557059423411 -0.01682723501680789
    vertex 92.0056257341062 1.5905544225282995 11.372964245780926
  endloop
endfacet
facet normal 0.9999999965686057 -8.283210619850937e-05 1.2769847252082536e-06
  outer loop
    vertex 92.0056257341062 1.5905544225282995 11.372964245780926
    vertex 92.00917631849337 40.39064140815966 24.37413672559908
    vertex 92.00612317066822 1.5895697463602196 24.372964201100412
  endloop
endfacet
facet normal 0.9999999965686057 -8.283210619850937e-05 1.2769847252082536e-06
  outer loop
    vertex 92.00917631849337 40.39064140815966 24.37413672559908
    vertex 92.0056257341062 1.5905544225282995 11.372964245780926
    vertex 92.00702845617802 13.740336747451211 12.815133047365398
  endloop
endfacet
facet normal 0.9999999965686057 -8.283210619850937e-05 1.2769847252082536e-06
  outer loop
    vertex 92.00702845617802 13.740336747451211 12.815133047365398
    vertex 92.0056257341062 1.5905544225282995 11.372964245780926
    vertex 92.00678995784376 10.785284220023781 10.429795428912849
  endloop
endfacet
facet normal 0.9999999965686057 -8.283210619850937e-05 1.2769847252082536e-06
  outer loop
    vertex 92.00678995784376 10.785284220023781 10.429795428912849
    vertex 92.0056257341062 1.5905544225282995 11.372964245780926
    vertex 92.00661347127496 8.578550906441512 7.33908368202983
  endloop
endfacet
facet normal 0.9999999965686057 -8.283210619850937e-05 1.2769847252082536e-06
  outer loop
    vertex 92.00661347127496 8.578550906441512 7.33908368202983
    vertex 92.0056257341062 1.5905544225282995 11.372964245780926
    vertex 92.00651193769909 7.281949905820979 3.7696303785640413
  endloop
endfacet
facet normal 0.9999999965686057 -8.283210619850937e-05 1.2769847252082536e-06
  outer loop
    vertex 92.00651193769909 7.281949905820979 3.7696303785640413
    vertex 92.0056257341062 1.5905544225282995 11.372964245780926
    vertex 92.00649280226719 6.990557059423411 -0.01682723501680789
  endloop
endfacet
facet normal 0.9999999965686057 -8.283210619850937e-05 1.2769847252082536e-06
  outer loop
    vertex 92.00917631849337 40.39064140815966 24.37413672559908
    vertex 92.00702845617802 13.740336747451211 12.815133047365398
    vertex 92.00731147791387 17.227023398336126 14.320186923205783
  endloop
endfacet
facet normal 0.9999999965686057 -8.283210619850937e-05 1.2769847252082536e-06
  outer loop
    vertex 92.00917631849337 40.39064140815966 24.37413672559908
    vertex 92.00731147791387 17.227023398336126 14.320186923205783
    vertex 92.00761826992114 20.989675955248007 14.83459599445669
  endloop
endfacet
facet normal 0.9999999965686057 -8.283210619850937e-05 1.2769847252082536e-06
  outer loop
    vertex 92.00917631849337 40.39064140815966 24.37413672559908
    vertex 92.00761826992114 20.989675955248007 14.83459599445669
    vertex 92.00792633606714 24.752390453088196 14.320640195208675
  endloop
endfacet
facet normal 0.9999999965686057 -8.283210619850937e-05 1.2769847252082536e-06
  outer loop
    vertex 92.00917631849337 40.39064140815966 24.37413672559908
    vertex 92.00792633606714 24.752390453088196 14.320640195208675
    vertex 92.00821308678991 28.23925838481653 12.816006354302228
  endloop
endfacet
facet normal 0.9999999965686057 -8.283210619850937e-05 1.2769847252082536e-06
  outer loop
    vertex 92.00917631849337 40.39064140815966 24.37413672559908
    vertex 92.00821308678991 28.23925838481653 12.816006354302228
    vertex 92.00845749552433 31.194598240224913 10.431024733819504
  endloop
endfacet
facet normal 0.9999999965686057 -8.283210619850937e-05 1.2769847252082536e-06
  outer loop
    vertex 92.00917631849337 40.39064140815966 24.37413672559908
    vertex 92.00845749552433 31.194598240224913 10.431024733819504
    vertex 92.00864164051443 33.40170386003141 7.34057884368467
  endloop
endfacet
facet normal 0.9999999965686057 -8.283210619850937e-05 1.2769847252082536e-06
  outer loop
    vertex 92.00917631849337 40.39064140815966 24.37413672559908
    vertex 92.00864164051443 33.40170386003141 7.34057884368467
    vertex 92.00875201896375 34.69873484502668 3.7712817612718057
  endloop
endfacet
facet normal 0.9999999965686057 -8.283210619850937e-05 1.2769847252082536e-06
  outer loop
    vertex 92.00917631849337 40.39064140815966 24.37413672559908
    vertex 92.00875201896375 34.69873484502668 3.7712817612718057
    vertex 92.00878053715321 34.990583824491964 -0.01514072217000917
  endloop
endfacet
facet normal 0.9999999965686057 -8.283210619850937e-05 1.2769847252082536e-06
  outer loop
    vertex 92.00917631849337 40.39064140815966 24.37413672559908
    vertex 92.00878053715321 34.990583824491964 -0.01514072217000917
    vertex 92.00942289478256 40.39182089916299 11.374136768674399
  endloop
endfacet
facet normal 0.9999999965686057 -8.283210619850937e-05 1.2769847252082536e-06
  outer loop
    vertex 92.00942289478256 40.39182089916299 11.374136768674399
    vertex 92.00878053715321 34.990583824491964 -0.01514072217000917
    vertex 92.00935241077346 41.99019247782761 -0.013526011090438524
  endloop
endfacet
facet normal 0.9999999965686057 -8.283210619850937e-05 1.2769847252082536e-06
  outer loop
    vertex 92.00942289478256 40.39182089916299 11.374136768674399
    vertex 92.00935241077346 41.99019247782761 -0.013526011090438524
    vertex 92.0089075490907 41.991820840012096 11.373526258831884
  endloop
endfacet
facet normal 4.9683408982819906e-05 0.9999999946497207 9.0731019358174e-05
  outer loop
    vertex 72.77554695539729 40.39277647479789 11.374455235369007
    vertex 92.00917631849337 40.39064140815966 24.37413672559908
    vertex 92.00942289478256 40.39182089916299 11.374136768674399
  endloop
endfacet
facet normal 4.9683408982819906e-05 0.9999999946497207 9.0731019358174e-05
  outer loop
    vertex 92.00917631849337 40.39064140815966 24.37413672559908
    vertex 72.77554695539729 40.39277647479789 11.374455235369007
    vertex 72.77530037910826 40.39159698379461 24.374455192293766
  endloop
endfacet
facet normal 7.094469809731531e-05 0.9999999873359898 -0.00014246006517185146
  outer loop
    vertex 0.004526983013716323 41.9965771549868 0.0008983597095011219
    vertex 55.66058871107475 41.99071063926502 0.8247338764456644
    vertex 55.55031672712768 41.99068346234805 -0.010685682770498743
  endloop
endfacet
facet normal 7.094469809731531e-05 0.9999999873359898 -0.00014246006517185146
  outer loop
    vertex 55.66058871107475 41.99071063926502 0.8247338764456644
    vertex 0.004526983013716323 41.9965771549868 0.0008983597095011219
    vertex 0.005438998794036287 41.996787299619115 1.3943513709021376
  endloop
endfacet
facet normal 7.094469809731531e-05 0.9999999873359898 -0.00014246006517185146
  outer loop
    vertex 55.66058871107475 41.99071063926502 0.8247338764456644
    vertex 0.005438998794036287 41.996787299619115 1.3943513709021376
    vertex 48.00670096384472 41.99156141759199 1.3793066260849787
  endloop
endfacet
facet normal 7.094469809731531e-05 0.9999999873359898 -0.00014246006517185146
  outer loop
    vertex 48.00670096384472 41.99156141759199 1.3793066260849787
    vertex 55.98332575429505 41.99079017894057 1.6031467140260804
    vertex 55.66058871107475 41.99071063926502 0.8247338764456644
  endloop
endfacet
facet normal 7.094469809731531e-05 0.9999999873359898 -0.00014246006517185146
  outer loop
    vertex 55.98332575429505 41.99079017894057 1.6031467140260804
    vertex 48.00670096384472 41.99156141759199 1.3793066260849787
    vertex 48.00804224959102 41.99312894525116 6.504301242963295
  endloop
endfacet
facet normal 7.094469809731531e-05 0.9999999873359898 -0.00014246006517185146
  outer loop
    vertex 55.98332575429505 41.99079017894057 1.6031467140260804
    vertex 48.00804224959102 41.99312894525116 6.504301242963295
    vertex 56.4965338606413 41.990916660877275 2.271505281477679
  endloop
endfacet
facet normal 7.094469809731531e-05 0.9999999873359898 -0.00014246006517185146
  outer loop
    vertex 56.4965338606413 41.990916660877275 2.271505281477679
    vertex 48.00804224959102 41.99312894525116 6.504301242963295
    vertex 57.165238745782496 41.991081465540155 2.78426204694339
  endloop
endfacet
facet normal 7.094469809731531e-05 0.9999999873359898 -0.00014246006517185146
  outer loop
    vertex 57.165238745782496 41.991081465540155 2.78426204694339
    vertex 48.00804224959102 41.99312894525116 6.504301242963295
    vertex 57.94386927688334 41.9912733617638 3.106473484227345
  endloop
endfacet
facet normal 7.094469809731531e-05 0.9999999873359898 -0.00014246006517185146
  outer loop
    vertex 57.94386927688334 41.9912733617638 3.106473484227345
    vertex 48.00804224959102 41.99312894525116 6.504301242963295
    vertex 58.7793630699971 41.991479272137674 3.2161814163582214
  endloop
endfacet
facet normal 7.094469809731531e-05 0.9999999873359898 -0.00014246006517185146
  outer loop
    vertex 58.7793630699971 41.991479272137674 3.2161814163582214
    vertex 48.00804224959102 41.99312894525116 6.504301242963295
    vertex 55.008041927264756 41.99249430452333 6.502273978951713
  endloop
endfacet
facet normal 7.094469809731531e-05 0.9999999873359898 -0.00014246006517185146
  outer loop
    vertex 62.00623007112696 41.9922745448209 -0.01286502457626225
    vertex 92.0089075490907 41.991820840012096 11.373526258831884
    vertex 92.00935241077346 41.99019247782761 -0.013526011090438524
  endloop
endfacet
facet normal 7.094469809731531e-05 0.9999999873359898 -0.00014246006517185146
  outer loop
    vertex 92.0089075490907 41.991820840012096 11.373526258831884
    vertex 62.00623007112696 41.9922745448209 -0.01286502457626225
    vertex 61.896522142327875 41.992247506917295 0.8226287939111654
  endloop
endfacet
facet normal 7.094469809731531e-05 0.9999999873359898 -0.00014246006517185146
  outer loop
    vertex 92.0089075490907 41.991820840012096 11.373526258831884
    vertex 61.896522142327875 41.992247506917295 0.8226287939111654
    vertex 61.574310714829366 41.99216809678157 1.6012593486587596
  endloop
endfacet
facet normal 7.094469809731531e-05 0.9999999873359898 -0.00014246006517185146
  outer loop
    vertex 92.0089075490907 41.991820840012096 11.373526258831884
    vertex 61.574310714829366 41.99216809678157 1.6012593486587596
    vertex 61.06155396493591 41.99204172608325 2.2699642541083005
  endloop
endfacet
facet normal 7.094469809731531e-05 0.9999999873359898 -0.00014246006517185146
  outer loop
    vertex 92.0089075490907 41.991820840012096 11.373526258831884
    vertex 61.06155396493591 41.99204172608325 2.2699642541083005
    vertex 60.39319541778214 41.99187700677657 2.7831723760405085
  endloop
endfacet
facet normal 7.094469809731531e-05 0.9999999873359898 -0.00014246006517185146
  outer loop
    vertex 92.0089075490907 41.991820840012096 11.373526258831884
    vertex 60.39319541778214 41.99187700677657 2.7831723760405085
    vertex 59.61478260384186 41.9916851642101 3.1059094290622262
  endloop
endfacet
facet normal 7.094469809731531e-05 0.9999999873359898 -0.00014246006517185146
  outer loop
    vertex 92.0089075490907 41.991820840012096 11.373526258831884
    vertex 59.61478260384186 41.9916851642101 3.1059094290622262
    vertex 58.7793630699971 41.991479272137674 3.2161814163582214
  endloop
endfacet
facet normal 7.094469809731531e-05 0.9999999873359898 -0.00014246006517185146
  outer loop
    vertex 92.0089075490907 41.991820840012096 11.373526258831884
    vertex 58.7793630699971 41.991479272137674 3.2161814163582214
    vertex 55.008041927264756 41.99249430452333 6.502273978951713
  endloop
endfacet
facet normal 7.094469809731531e-05 0.9999999873359898 -0.00014246006517185146
  outer loop
    vertex 92.0089075490907 41.991820840012096 11.373526258831884
    vertex 55.008041927264756 41.99249430452333 6.502273978951713
    vertex 60.00853087090647 41.9929892604569 11.375790702009718
  endloop
endfacet
facet normal -0.00012666092522302193 -0.9999999865070313 0.00010460854382881698
  outer loop
    vertex 48.00034539754033 10.663207177022125 1.480285422421963
    vertex 0.0020765793436703373 10.669277654420997 1.3939856715541195
    vertex 48.00033733905147 10.663195683021463 1.3803103406268729
  endloop
endfacet
facet normal -0.00012666092522302193 -0.9999999865070313 0.00010460854382881698
  outer loop
    vertex 0.0020765793436703373 10.669277654420997 1.3939856715541195
    vertex 48.00034539754033 10.663207177022125 1.480285422421963
    vertex 0.0021030027737661606 10.669287075413257 1.4939856684407367
  endloop
endfacet
facet normal -1.7905386627273872e-05 0.002389441043710269 0.9999971451213727
  outer loop
    vertex 48.004158874089725 -0.00698134133956545 6.50493664900595
    vertex 55.00146965120683 8.775588752426449 6.484076738262067
    vertex 48.00169878967219 8.776344971930545 6.4802434051217315
  endloop
endfacet
facet normal -1.7905386627273872e-05 0.002389441043710269 0.9999971451213727
  outer loop
    vertex 55.00146965120683 8.775588752426449 6.484076738262067
    vertex 48.004158874089725 -0.00698134133956545 6.50493664900595
    vertex 55.004157949367595 -0.006637005948697599 6.501355093050222
  endloop
endfacet
facet normal -0.0002525544276376996 -0.8660150426867855 -0.5000178817367099
  outer loop
    vertex 48.00135035394309 8.333809450812835 5.514713939979191
    vertex 0.0021030027737661606 10.669287075413257 1.4939856684407367
    vertex 48.00034539754033 10.663207177022125 1.480285422421963
  endloop
endfacet
facet normal -0.0002525544276376996 -0.8660150426867855 -0.5000178817367099
  outer loop
    vertex 0.0021030027737661606 10.669287075413257 1.4939856684407367
    vertex 48.00135035394309 8.333809450812835 5.514713939979191
    vertex 4.03758802629722 8.33945392518036 5.527157811697637
  endloop
endfacet
facet normal 0.00024330759385479445 0.0005717219827332182 0.9999998069676761
  outer loop
    vertex 48.00169878967219 8.776344971930545 6.4802434051217315
    vertex 5.00377992108286 11.781885223718131 6.492453026640768
    vertex 5.003456123346518 8.781885241927567 6.492386605113318
  endloop
endfacet
facet normal 0.00024330759385479445 0.0005717219827332182 0.9999998069676761
  outer loop
    vertex 5.00377992108286 11.781885223718131 6.492453026640768
    vertex 48.00169878967219 8.776344971930545 6.4802434051217315
    vertex 55.00055112091864 11.77627538592848 6.478173117734847
  endloop
endfacet
facet normal 0.00024330759385479445 0.0005717219827332182 0.9999998069676761
  outer loop
    vertex 55.00055112091864 11.77627538592848 6.478173117734847
    vertex 48.00169878967219 8.776344971930545 6.4802434051217315
    vertex 55.00146965120683 8.775588752426449 6.484076738262067
  endloop
endfacet
facet normal -0.9999998778178414 -0.00020594195880045034 0.00044939093466070287
  outer loop
    vertex 55.00387031875085 11.776132303547264 11.375607015811246
    vertex 55.004157949367595 -0.006637005948697599 6.501355093050222
    vertex 55.00503365912889 -0.006970824845117096 11.375348418314719
  endloop
endfacet
facet normal -0.9999998778178414 -0.00020594195880045034 0.00044939093466070287
  outer loop
    vertex 55.004157949367595 -0.006637005948697599 6.501355093050222
    vertex 55.00387031875085 11.776132303547264 11.375607015811246
    vertex 55.00146965120683 8.775588752426449 6.484076738262067
  endloop
endfacet
facet normal -0.9999998778178414 -0.00020594195880045034 0.00044939093466070287
  outer loop
    vertex 55.00146965120683 8.775588752426449 6.484076738262067
    vertex 55.00387031875085 11.776132303547264 11.375607015811246
    vertex 55.00055112091864 11.77627538592848 6.478173117734847
  endloop
endfacet
facet normal -0.4999065004889663 0.8660793613672275 0.00017487884609923663
  outer loop
    vertex 0.00563966062289043 31.89569555819936 5.494455438966583
    vertex 4.0403818733889665 34.22456763476859 5.527730921297827
    vertex 0.004394033366770023 31.895784254675934 1.494455633898391
  endloop
endfacet
facet normal -0.4999065004889663 0.8660793613672275 0.00017487884609923663
  outer loop
    vertex 4.0403818733889665 34.22456763476859 5.527730921297827
    vertex 0.00563966062289043 31.89569555819936 5.494455438966583
    vertex 2.0231310347731317 33.06012303266432 5.897301046814932
  endloop
endfacet
facet normal -0.9999999528747376 9.706931846712493e-05 0.0002912525877315984
  outer loop
    vertex 48.00804224959102 41.99312894525116 6.504301242963295
    vertex 48.00714541391465 34.21977717874622 5.513942556497686
    vertex 48.00736991130167 33.77736287548478 6.504121417439059
  endloop
endfacet
facet normal -0.9999999528747376 9.706931846712493e-05 0.0002912525877315984
  outer loop
    vertex 48.00714541391465 34.21977717874622 5.513942556497686
    vertex 48.00804224959102 41.99312894525116 6.504301242963295
    vertex 48.00670096384472 41.99156141759199 1.3793066260849787
  endloop
endfacet
facet normal -0.9999999528747376 9.706931846712493e-05 0.0002912525877315984
  outer loop
    vertex 48.005637641012996 31.890558374630015 1.4794108947979638
    vertex 48.00670096384472 41.99156141759199 1.3793066260849787
    vertex 48.00562428980873 31.890555112143502 1.379435814863971
  endloop
endfacet
facet normal -0.9999999528747376 9.706931846712493e-05 0.0002912525877315984
  outer loop
    vertex 48.00670096384472 41.99156141759199 1.3793066260849787
    vertex 48.005637641012996 31.890558374630015 1.4794108947979638
    vertex 48.00714541391465 34.21977717874622 5.513942556497686
  endloop
endfacet
facet normal 0.00011126539895648276 0.9110637273332863 0.4122655362234277
  outer loop
    vertex 4.0403818733889665 34.22456763476859 5.527730921297827
    vertex 48.00736991130167 33.77736287548478 6.504121417439059
    vertex 48.00714541391465 34.21977717874622 5.513942556497686
  endloop
endfacet
facet normal 0.00011126539895648276 0.9110637273332863 0.4122655362234277
  outer loop
    vertex 48.00736991130167 33.77736287548478 6.504121417439059
    vertex 4.0403818733889665 34.22456763476859 5.527730921297827
    vertex 5.006154437816117 33.78188509018201 6.492940117841887
  endloop
endfacet
facet normal -0.00021089588850739947 -6.045020369289463e-05 0.9999999759343484
  outer loop
    vertex 55.00727875633836 31.277678660290483 6.502556190334781
    vertex 5.006154437816117 33.78188509018201 6.492940117841887
    vertex 5.0058837051812155 31.28188511904072 6.492778753067697
  endloop
endfacet
facet normal -0.00021089588850739947 -6.045020369289463e-05 0.9999999759343484
  outer loop
    vertex 5.006154437816117 33.78188509018201 6.492940117841887
    vertex 55.00727875633836 31.277678660290483 6.502556190334781
    vertex 48.00736991130167 33.77736287548478 6.504121417439059
  endloop
endfacet
facet normal -0.00021089588850739947 -6.045020369289463e-05 0.9999999759343484
  outer loop
    vertex 48.00736991130167 33.77736287548478 6.504121417439059
    vertex 55.00727875633836 31.277678660290483 6.502556190334781
    vertex 48.00804224959102 41.99312894525116 6.504301242963295
  endloop
endfacet
facet normal -0.00021089588850739947 -6.045020369289463e-05 0.9999999759343484
  outer loop
    vertex 48.00804224959102 41.99312894525116 6.504301242963295
    vertex 55.00727875633836 31.277678660290483 6.502556190334781
    vertex 55.008041927264756 41.99249430452333 6.502273978951713
  endloop
endfacet
facet normal -0.999999867896849 -4.9190777508004636e-05 0.0005116508107301022
  outer loop
    vertex 48.00169878967219 8.776344971930545 6.4802434051217315
    vertex 47.999295832444005 -0.005821295714820645 1.379739236712588
    vertex 48.004158874089725 -0.00698134133956545 6.50493664900595
  endloop
endfacet
facet normal -0.999999867896849 -4.9190777508004636e-05 0.0005116508107301022
  outer loop
    vertex 47.999295832444005 -0.005821295714820645 1.379739236712588
    vertex 48.00169878967219 8.776344971930545 6.4802434051217315
    vertex 48.00135035394309 8.333809450812835 5.514713939979191
  endloop
endfacet
facet normal -0.999999867896849 -4.9190777508004636e-05 0.0005116508107301022
  outer loop
    vertex 48.00135035394309 8.333809450812835 5.514713939979191
    vertex 48.00033733905147 10.663195683021463 1.3803103406268729
    vertex 47.999295832444005 -0.005821295714820645 1.379739236712588
  endloop
endfacet
facet normal -0.999999867896849 -4.9190777508004636e-05 0.0005116508107301022
  outer loop
    vertex 48.00033733905147 10.663195683021463 1.3803103406268729
    vertex 48.00135035394309 8.333809450812835 5.514713939979191
    vertex 48.00034539754033 10.663207177022125 1.480285422421963
  endloop
endfacet
facet normal 0.00016298647563253287 -0.0003712434252724086 0.9999999178068607
  outer loop
    vertex 75.77478099201983 31.27402904752242 11.365238201120551
    vertex 72.77515342706006 34.992494376758664 11.373825983682796
    vertex 60.00858043147589 31.278174536139865 11.379068104713177
  endloop
endfacet
facet normal 0.00016298647563253287 -0.0003712434252724086 0.9999999178068607
  outer loop
    vertex 72.77515342706006 34.992494376758664 11.373825983682796
    vertex 75.77478099201983 31.27402904752242 11.365238201120551
    vertex 75.77515340626849 34.992141378605496 11.37383793593547
  endloop
endfacet
facet normal 0.00016298647563253287 -0.0003712434252724086 0.9999999178068607
  outer loop
    vertex 60.00853087090647 41.9929892604569 11.375790702009718
    vertex 72.77554695539729 40.39277647479789 11.374455235369007
    vertex 92.0089075490907 41.991820840012096 11.373526258831884
  endloop
endfacet
facet normal 0.00016298647563253287 -0.0003712434252724086 0.9999999178068607
  outer loop
    vertex 72.77554695539729 40.39277647479789 11.374455235369007
    vertex 60.00853087090647 41.9929892604569 11.375790702009718
    vertex 60.00858043147589 31.278174536139865 11.379068104713177
  endloop
endfacet
facet normal 0.00016298647563253287 -0.0003712434252724086 0.9999999178068607
  outer loop
    vertex 72.77554695539729 40.39277647479789 11.374455235369007
    vertex 60.00858043147589 31.278174536139865 11.379068104713177
    vertex 72.77515342706006 34.992494376758664 11.373825983682796
  endloop
endfacet
facet normal 0.00016298647563253287 -0.0003712434252724086 0.9999999178068607
  outer loop
    vertex 92.0089075490907 41.991820840012096 11.373526258831884
    vertex 72.77554695539729 40.39277647479789 11.374455235369007
    vertex 92.00942289478256 40.39182089916299 11.374136768674399
  endloop
endfacet
facet normal -0.6980371135844389 0.00014218767382333028 0.716061567074627
  outer loop
    vertex 60.00858043147589 31.278174536139865 11.379068104713177
    vertex 55.008041927264756 41.99249430452333 6.502273978951713
    vertex 55.00727875633836 31.277678660290483 6.502556190334781
  endloop
endfacet
facet normal -0.6980371135844389 0.00014218767382333028 0.716061567074627
  outer loop
    vertex 55.008041927264756 41.99249430452333 6.502273978951713
    vertex 60.00858043147589 31.278174536139865 11.379068104713177
    vertex 60.00853087090647 41.9929892604569 11.375790702009718
  endloop
endfacet
facet normal -8.667277758006934e-05 -0.999999995867785 -2.7427357137418695e-05
  outer loop
    vertex 90.0098318194599 34.99077412007777 -0.01614142259550591
    vertex 85.01061998672877 34.99147792569792 0.9771960370403762
    vertex 85.00983174775142 34.99124988405522 -0.016256993606423527
  endloop
endfacet
facet normal -8.667277758006934e-05 -0.999999995867785 -2.7427357137418695e-05
  outer loop
    vertex 85.01061998672877 34.99147792569792 0.9771960370403762
    vertex 90.0098318194599 34.99077412007777 -0.01614142259550591
    vertex 90.01123692159315 34.99054742884798 24.37375522873333
  endloop
endfacet
facet normal -8.667277758006934e-05 -0.999999995867785 -2.7427357137418695e-05
  outer loop
    vertex 85.01061998672877 34.99147792569792 0.9771960370403762
    vertex 90.01123692159315 34.99054742884798 24.37375522873333
    vertex 75.77515340626849 34.992141378605496 11.37383793593547
  endloop
endfacet
facet normal -8.667277758006934e-05 -0.999999995867785 -2.7427357137418695e-05
  outer loop
    vertex 75.77515340626849 34.992141378605496 11.37383793593547
    vertex 72.77490685077137 34.99131488575531 24.373825940607485
    vertex 72.77515342706006 34.992494376758664 11.373825983682796
  endloop
endfacet
facet normal -8.667277758006934e-05 -0.999999995867785 -2.7427357137418695e-05
  outer loop
    vertex 72.77490685077137 34.99131488575531 24.373825940607485
    vertex 75.77515340626849 34.992141378605496 11.37383793593547
    vertex 90.01123692159315 34.99054742884798 24.37375522873333
  endloop
endfacet
facet normal -0.005268399955250715 -0.9999748825247642 -0.0047411266061736625
  outer loop
    vertex 75.77246562915998 6.992131827160564 11.374063248327571
    vertex 82.34564925181284 6.99850298475233 3.107969948897493
    vertex 85.00597940461408 6.991493345250263 0.9765838414892327
  endloop
endfacet
facet normal -0.005268399955250715 -0.9999748825247642 -0.0047411266061736625
  outer loop
    vertex 82.34564925181284 6.99850298475233 3.107969948897493
    vertex 75.77246562915998 6.992131827160564 11.374063248327571
    vertex 75.77178779236161 7.005843798836009 8.372893845081363
  endloop
endfacet
facet normal -0.00011501231267550338 -0.9999999932728545 1.5048560522215469e-05
  outer loop
    vertex 75.77478099201983 31.27402904752242 11.365238201120551
    vertex 62.00595541123336 31.276437650130237 6.375750036373836
    vertex 75.77096084548364 31.269832684120885 6.3633930115956465
  endloop
endfacet
facet normal -0.00011501231267550338 -0.9999999932728545 1.5048560522215469e-05
  outer loop
    vertex 62.00595541123336 31.276437650130237 6.375750036373836
    vertex 75.77478099201983 31.27402904752242 11.365238201120551
    vertex 55.00727875633836 31.277678660290483 6.502556190334781
  endloop
endfacet
facet normal -0.00011501231267550338 -0.9999999932728545 1.5048560522215469e-05
  outer loop
    vertex 62.00595541123336 31.276437650130237 6.375750036373836
    vertex 55.00727875633836 31.277678660290483 6.502556190334781
    vertex 5.0058837051812155 31.28188511904072 6.492778753067697
  endloop
endfacet
facet normal -0.00011501231267550338 -0.9999999932728545 1.5048560522215469e-05
  outer loop
    vertex 55.00727875633836 31.277678660290483 6.502556190334781
    vertex 75.77478099201983 31.27402904752242 11.365238201120551
    vertex 60.00858043147589 31.278174536139865 11.379068104713177
  endloop
endfacet
facet normal -0.00011501231267550338 -0.9999999932728545 1.5048560522215469e-05
  outer loop
    vertex 62.00595541123336 31.276437650130237 6.375750036373836
    vertex 61.89916293459668 31.27707319136119 0.8226287939111447
    vertex 62.008870863395764 31.277100229264796 -0.012865024576283062
  endloop
endfacet
facet normal -0.00011501231267550338 -0.9999999932728545 1.5048560522215469e-05
  outer loop
    vertex 61.89916293459668 31.27707319136119 0.8226287939111447
    vertex 62.00595541123336 31.276437650130237 6.375750036373836
    vertex 61.57695150709818 31.27699378122547 1.6012593486587385
  endloop
endfacet
facet normal -0.00011501231267550338 -0.9999999932728545 1.5048560522215469e-05
  outer loop
    vertex 61.57695150709818 31.27699378122547 1.6012593486587385
    vertex 62.00595541123336 31.276437650130237 6.375750036373836
    vertex 61.06419475720472 31.27686741052715 2.269964254108279
  endloop
endfacet
facet normal -0.00011501231267550338 -0.9999999932728545 1.5048560522215469e-05
  outer loop
    vertex 61.06419475720472 31.27686741052715 2.269964254108279
    vertex 62.00595541123336 31.276437650130237 6.375750036373836
    vertex 60.395836210050945 31.276702691220475 2.7831723760404876
  endloop
endfacet
facet normal -0.00011501231267550338 -0.9999999932728545 1.5048560522215469e-05
  outer loop
    vertex 60.395836210050945 31.276702691220475 2.7831723760404876
    vertex 62.00595541123336 31.276437650130237 6.375750036373836
    vertex 59.617423396110674 31.276510848653995 3.1059094290622054
  endloop
endfacet
facet normal -0.00011501231267550338 -0.9999999932728545 1.5048560522215469e-05
  outer loop
    vertex 59.617423396110674 31.276510848653995 3.1059094290622054
    vertex 62.00595541123336 31.276437650130237 6.375750036373836
    vertex 58.78200386226591 31.276304956581576 3.2161814163581997
  endloop
endfacet
facet normal -0.00011501231267550338 -0.9999999932728545 1.5048560522215469e-05
  outer loop
    vertex 58.78200386226591 31.276304956581576 3.2161814163581997
    vertex 62.00595541123336 31.276437650130237 6.375750036373836
    vertex 42.00525888201566 31.277936217162754 4.481256709932104
  endloop
endfacet
facet normal -0.00011501231267550338 -0.9999999932728545 1.5048560522215469e-05
  outer loop
    vertex 42.00525888201566 31.277936217162754 4.481256709932104
    vertex 62.00595541123336 31.276437650130237 6.375750036373836
    vertex 5.005260891553178 31.28192946727904 4.492778850533588
  endloop
endfacet
facet normal -0.00011501231267550338 -0.9999999932728545 1.5048560522215469e-05
  outer loop
    vertex 5.005260891553178 31.28192946727904 4.492778850533588
    vertex 62.00595541123336 31.276437650130237 6.375750036373836
    vertex 5.0058837051812155 31.28188511904072 6.492778753067697
  endloop
endfacet
facet normal -0.00011501231267550338 -0.9999999932728545 1.5048560522215469e-05
  outer loop
    vertex 55.66322950334356 31.27553632370892 0.8247338764456439
    vertex 55.55350791892926 31.275611933919045 0.9893136498822813
    vertex 55.552957519396486 31.275509146791954 -0.010685682770519546
  endloop
endfacet
facet normal -0.00011501231267550338 -0.9999999932728545 1.5048560522215469e-05
  outer loop
    vertex 55.55350791892926 31.275611933919045 0.9893136498822813
    vertex 55.66322950334356 31.27553632370892 0.8247338764456439
    vertex 55.98596654656386 31.275615863384477 1.6031467140260591
  endloop
endfacet
facet normal -0.00011501231267550338 -0.9999999932728545 1.5048560522215469e-05
  outer loop
    vertex 55.55350791892926 31.275611933919045 0.9893136498822813
    vertex 55.98596654656386 31.275615863384477 1.6031467140260591
    vertex 55.00751378885413 31.277686477090104 1.4622145294829862
  endloop
endfacet
facet normal -0.00011501231267550338 -0.9999999932728545 1.5048560522215469e-05
  outer loop
    vertex 55.00751378885413 31.277686477090104 1.4622145294829862
    vertex 55.98596654656386 31.275615863384477 1.6031467140260591
    vertex 52.006572579069044 31.27686861697308 1.4643565667701435
  endloop
endfacet
facet normal -0.00011501231267550338 -0.9999999932728545 1.5048560522215469e-05
  outer loop
    vertex 52.006572579069044 31.27686861697308 1.4643565667701435
    vertex 55.98596654656386 31.275615863384477 1.6031467140260591
    vertex 42.00525888201566 31.277936217162754 4.481256709932104
  endloop
endfacet
facet normal -0.00011501231267550338 -0.9999999932728545 1.5048560522215469e-05
  outer loop
    vertex 42.00525888201566 31.277936217162754 4.481256709932104
    vertex 55.98596654656386 31.275615863384477 1.6031467140260591
    vertex 56.499174652910106 31.275742345321177 2.271505281477658
  endloop
endfacet
facet normal -0.00011501231267550338 -0.9999999932728545 1.5048560522215469e-05
  outer loop
    vertex 42.00525888201566 31.277936217162754 4.481256709932104
    vertex 56.499174652910106 31.275742345321177 2.271505281477658
    vertex 57.16787953805131 31.275907149984057 2.7842620469433688
  endloop
endfacet
facet normal -0.00011501231267550338 -0.9999999932728545 1.5048560522215469e-05
  outer loop
    vertex 42.00525888201566 31.277936217162754 4.481256709932104
    vertex 57.16787953805131 31.275907149984057 2.7842620469433688
    vertex 57.94651006915215 31.276099046207698 3.106473484227324
  endloop
endfacet
facet normal -0.00011501231267550338 -0.9999999932728545 1.5048560522215469e-05
  outer loop
    vertex 42.00525888201566 31.277936217162754 4.481256709932104
    vertex 57.94651006915215 31.276099046207698 3.106473484227324
    vertex 58.78200386226591 31.276304956581576 3.2161814163581997
  endloop
endfacet
facet normal -0.9999998560181568 0.00022172277658473073 -0.0004886744072405676
  outer loop
    vertex 62.00595541123336 31.276437650130237 6.375750036373836
    vertex 62.00475382332614 11.775492841757618 -0.015943419731855236
    vertex 62.00144363709969 11.774830211960989 6.376935508394638
  endloop
endfacet
facet normal -0.9999998560181568 0.00022172277658473073 -0.0004886744072405676
  outer loop
    vertex 62.00475382332614 11.775492841757618 -0.015943419731855236
    vertex 62.00595541123336 31.276437650130237 6.375750036373836
    vertex 62.00875632829739 30.15752372720864 -0.013247639567493263
  endloop
endfacet
facet normal -0.9999998560181568 0.00022172277658473073 -0.0004886744072405676
  outer loop
    vertex 62.00875632829739 30.15752372720864 -0.013247639567493263
    vertex 62.00595541123336 31.276437650130237 6.375750036373836
    vertex 62.008870863395764 31.277100229264796 -0.012865024576283062
  endloop
endfacet
facet normal 0.00012771238443091946 0.0002998460898452608 0.9999999468909334
  outer loop
    vertex 92.00569497136829 -0.009445388838443841 11.371933157776525
    vertex 72.7719817629466 1.5921088878159608 11.37351396125236
    vertex 55.00503365912889 -0.006970824845117096 11.375348418314719
  endloop
endfacet
facet normal 0.00012771238443091946 0.0002998460898452608 0.9999999468909334
  outer loop
    vertex 72.7719817629466 1.5921088878159608 11.37351396125236
    vertex 92.00569497136829 -0.009445388838443841 11.371933157776525
    vertex 92.0056257341062 1.5905544225282995 11.372964245780926
  endloop
endfacet
facet normal 0.00012771238443091946 0.0002998460898452608 0.9999999468909334
  outer loop
    vertex 55.00503365912889 -0.006970824845117096 11.375348418314719
    vertex 75.77026921788598 11.7724216093532 11.366423673141355
    vertex 55.00387031875085 11.776132303547264 11.375607015811246
  endloop
endfacet
facet normal 0.00012771238443091946 0.0002998460898452608 0.9999999468909334
  outer loop
    vertex 75.77026921788598 11.7724216093532 11.366423673141355
    vertex 55.00503365912889 -0.006970824845117096 11.375348418314719
    vertex 72.77246564339858 6.992400620991148 11.374178061739794
  endloop
endfacet
facet normal 0.00012771238443091946 0.0002998460898452608 0.9999999468909334
  outer loop
    vertex 72.77246564339858 6.992400620991148 11.374178061739794
    vertex 55.00503365912889 -0.006970824845117096 11.375348418314719
    vertex 72.7719817629466 1.5921088878159608 11.37351396125236
  endloop
endfacet
facet normal 0.00012771238443091946 0.0002998460898452608 0.9999999468909334
  outer loop
    vertex 75.77026921788598 11.7724216093532 11.366423673141355
    vertex 72.77246564339858 6.992400620991148 11.374178061739794
    vertex 75.77246562915998 6.992131827160564 11.374063248327571
  endloop
endfacet
facet normal 0.7475611570495719 0.0007116896028393643 0.6641926000555972
  outer loop
    vertex 85.00621192589632 11.77111808916267 0.9761909539313047
    vertex 75.77246562915998 6.992131827160564 11.374063248327571
    vertex 85.00597940461408 6.991493345250263 0.9765838414892327
  endloop
endfacet
facet normal 0.7475611570495719 0.0007116896028393643 0.6641926000555972
  outer loop
    vertex 75.77246562915998 6.992131827160564 11.374063248327571
    vertex 85.00621192589632 11.77111808916267 0.9761909539313047
    vertex 75.77026921788598 11.7724216093532 11.366423673141355
  endloop
endfacet
facet normal 0.00014537356345487826 0.9999999860445998 8.232452447683225e-05
  outer loop
    vertex 42.003155097917336 11.777936321840114 4.480930983505128
    vertex 55.000583828936065 11.776076406963353 1.4732593805476781
    vertex 52.00221617738749 11.776923883411657 1.464468038300054
  endloop
endfacet
facet normal 0.00014537356345487826 0.9999999860445998 8.232452447683225e-05
  outer loop
    vertex 55.54908080692581 11.775689101846325 -0.01111228109037173
    vertex 62.00144363709969 11.774830211960989 6.376935508394638
    vertex 62.00475382332614 11.775492841757618 -0.015943419731855236
  endloop
endfacet
facet normal 0.00014537356345487826 0.9999999860445998 8.232452447683225e-05
  outer loop
    vertex 62.00144363709969 11.774830211960989 6.376935508394638
    vertex 55.54908080692581 11.775689101846325 -0.01111228109037173
    vertex 55.549392111964 11.775667186114338 0.9888876702140057
  endloop
endfacet
facet normal 0.00014537356345487826 0.9999999860445998 8.232452447683225e-05
  outer loop
    vertex 62.00144363709969 11.774830211960989 6.376935508394638
    vertex 55.549392111964 11.775667186114338 0.9888876702140057
    vertex 55.000583828936065 11.776076406963353 1.4732593805476781
  endloop
endfacet
facet normal 0.00014537356345487826 0.9999999860445998 8.232452447683225e-05
  outer loop
    vertex 62.00144363709969 11.774830211960989 6.376935508394638
    vertex 55.000583828936065 11.776076406963353 1.4732593805476781
    vertex 42.003155097917336 11.777936321840114 4.480930983505128
  endloop
endfacet
facet normal 0.00014537356345487826 0.9999999860445998 8.232452447683225e-05
  outer loop
    vertex 62.00144363709969 11.774830211960989 6.376935508394638
    vertex 42.003155097917336 11.777936321840114 4.480930983505128
    vertex 5.003157107454812 11.781929571956397 4.4924531241066585
  endloop
endfacet
facet normal 0.00014537356345487826 0.9999999860445998 8.232452447683225e-05
  outer loop
    vertex 62.00144363709969 11.774830211960989 6.376935508394638
    vertex 5.003157107454812 11.781929571956397 4.4924531241066585
    vertex 5.00377992108286 11.781885223718131 6.492453026640768
  endloop
endfacet
facet normal 0.00014537356345487826 0.9999999860445998 8.232452447683225e-05
  outer loop
    vertex 62.00144363709969 11.774830211960989 6.376935508394638
    vertex 5.00377992108286 11.781885223718131 6.492453026640768
    vertex 55.00055112091864 11.77627538592848 6.478173117734847
  endloop
endfacet
facet normal 0.00014537356345487826 0.9999999860445998 8.232452447683225e-05
  outer loop
    vertex 62.00144363709969 11.774830211960989 6.376935508394638
    vertex 75.77026921788598 11.7724216093532 11.366423673141355
    vertex 75.7690994889436 11.768225599388131 6.36827058499749
  endloop
endfacet
facet normal 0.00014537356345487826 0.9999999860445998 8.232452447683225e-05
  outer loop
    vertex 75.77026921788598 11.7724216093532 11.366423673141355
    vertex 62.00144363709969 11.774830211960989 6.376935508394638
    vertex 55.00055112091864 11.77627538592848 6.478173117734847
  endloop
endfacet
facet normal 0.00014537356345487826 0.9999999860445998 8.232452447683225e-05
  outer loop
    vertex 75.77026921788598 11.7724216093532 11.366423673141355
    vertex 55.00055112091864 11.77627538592848 6.478173117734847
    vertex 55.00387031875085 11.776132303547264 11.375607015811246
  endloop
endfacet
facet normal 0.000802054677173486 -0.9999993269386107 0.0008383499392404224
  outer loop
    vertex 75.77478099201983 31.27402904752242 11.365238201120551
    vertex 75.77096084548364 31.269832684120885 6.3633930115956465
    vertex 85.00899700003184 31.272725760125688 0.9762201418017658
  endloop
endfacet
facet normal -0.0008030851039076769 0.9999993252948947 -0.0008393235797561348
  outer loop
    vertex 75.77026921788598 11.7724216093532 11.366423673141355
    vertex 85.00621192589632 11.77111808916267 0.9761909539313047
    vertex 75.7690994889436 11.768225599388131 6.36827058499749
  endloop
endfacet
facet normal -0.9999999971649327 7.287402026531855e-05 -1.8960794979598018e-05
  outer loop
    vertex 72.77530037910826 40.39159698379461 24.374455192293766
    vertex 72.77515342706006 34.992494376758664 11.373825983682796
    vertex 72.77490685077137 34.99131488575531 24.373825940607485
  endloop
endfacet
facet normal -0.9999999971649327 7.287402026531855e-05 -1.8960794979598018e-05
  outer loop
    vertex 72.77515342706006 34.992494376758664 11.373825983682796
    vertex 72.77530037910826 40.39159698379461 24.374455192293766
    vertex 72.77554695539729 40.39277647479789 11.374455235369007
  endloop
endfacet
facet normal -0.9999999952537644 8.959794352697103e-05 3.82711374318034e-05
  outer loop
    vertex 72.77296307996082 6.991415944823035 24.37417801705927
    vertex 72.7719817629466 1.5921088878159608 11.37351396125236
    vertex 72.77247919950896 1.5911242116478943 24.37351391657186
  endloop
endfacet
facet normal -0.9999999952537644 8.959794352697103e-05 3.82711374318034e-05
  outer loop
    vertex 72.7719817629466 1.5921088878159608 11.37351396125236
    vertex 72.77296307996082 6.991415944823035 24.37417801705927
    vertex 72.77246564339858 6.992400620991148 11.374178061739794
  endloop
endfacet
facet normal -6.890798721749514e-05 -0.9970431813396287 -0.07684328074621602
  outer loop
    vertex 92.00878053715321 34.990583824491964 -0.01514072217000917
    vertex 90.0098032978348 34.698898168759264 3.7712792944224454
    vertex 90.0098318194599 34.99077412007777 -0.01614142259550591
  endloop
endfacet
facet normal -6.890798721749514e-05 -0.9970431813396287 -0.07684328074621602
  outer loop
    vertex 90.0098032978348 34.698898168759264 3.7712792944224454
    vertex 92.00878053715321 34.990583824491964 -0.01514072217000917
    vertex 92.00875201896375 34.69873484502668 3.7712817612718057
  endloop
endfacet
facet normal -7.63703510443783e-05 -0.9398691063367212 -0.3415348549143746
  outer loop
    vertex 92.00875201896375 34.69873484502668 3.7712817612718057
    vertex 90.00969291938537 33.40186718376401 7.340576376835281
    vertex 90.0098032978348 34.698898168759264 3.7712792944224454
  endloop
endfacet
facet normal -7.63703510443783e-05 -0.9398691063367212 -0.3415348549143746
  outer loop
    vertex 90.00969291938537 33.40186718376401 7.340576376835281
    vertex 92.00875201896375 34.69873484502668 3.7712817612718057
    vertex 92.00864164051443 33.40170386003141 7.34057884368467
  endloop
endfacet
facet normal -6.577234688877647e-05 -0.8137777691181246 -0.5811761679242594
  outer loop
    vertex 92.00864164051443 33.40170386003141 7.34057884368467
    vertex 90.00950877439527 31.194761563957552 10.431022266970112
    vertex 90.00969291938537 33.40186718376401 7.340576376835281
  endloop
endfacet
facet normal -6.577234688877647e-05 -0.8137777691181246 -0.5811761679242594
  outer loop
    vertex 90.00950877439527 31.194761563957552 10.431022266970112
    vertex 92.00864164051443 33.40170386003141 7.34057884368467
    vertex 92.00845749552433 31.194598240224913 10.431024733819504
  endloop
endfacet
facet normal -5.0351454911840165e-05 -0.6280145621712563 -0.7782015851728755
  outer loop
    vertex 90.00950877439527 31.194761563957552 10.431022266970112
    vertex 92.00821308678991 28.23925838481653 12.816006354302228
    vertex 90.00926436566108 28.239421708549145 12.81600388745302
  endloop
endfacet
facet normal -5.0351454911840165e-05 -0.6280145621712563 -0.7782015851728755
  outer loop
    vertex 92.00821308678991 28.23925838481653 12.816006354302228
    vertex 90.00950877439527 31.194761563957552 10.431022266970112
    vertex 92.00845749552433 31.194598240224913 10.431024733819504
  endloop
endfacet
facet normal -3.123844256093643e-05 -0.3962009412618866 -0.9181638269760767
  outer loop
    vertex 90.00926436566108 28.239421708549145 12.81600388745302
    vertex 92.00792633606714 24.752390453088196 14.320640195208675
    vertex 90.00897761493809 24.75255377682076 14.320637728359323
  endloop
endfacet
facet normal -3.123844256093643e-05 -0.3962009412618866 -0.9181638269760767
  outer loop
    vertex 92.00792633606714 24.752390453088196 14.320640195208675
    vertex 90.00926436566108 28.239421708549145 12.81600388745302
    vertex 92.00821308678991 28.23925838481653 12.816006354302228
  endloop
endfacet
facet normal -9.834809385653903e-06 -0.1353351001391393 -0.9907998842216352
  outer loop
    vertex 90.00897761493809 24.75255377682076 14.320637728359323
    vertex 92.00761826992114 20.989675955248007 14.83459599445669
    vertex 90.0086695487923 20.989839278980632 14.834593527607318
  endloop
endfacet
facet normal -9.834809385653903e-06 -0.1353351001391393 -0.9907998842216352
  outer loop
    vertex 92.00761826992114 20.989675955248007 14.83459599445669
    vertex 90.00897761493809 24.75255377682076 14.320637728359323
    vertex 92.00792633606714 24.752390453088196 14.320640195208675
  endloop
endfacet
facet normal 1.2289980665613736e-05 0.13545445575153825 -0.9907835738777724
  outer loop
    vertex 90.0086695487923 20.989839278980632 14.834593527607318
    vertex 92.00731147791387 17.227023398336126 14.320186923205783
    vertex 90.00836275678493 17.227186722068776 14.320184456356449
  endloop
endfacet
facet normal 1.2289980665613736e-05 0.13545445575153825 -0.9907835738777724
  outer loop
    vertex 92.00731147791387 17.227023398336126 14.320186923205783
    vertex 90.0086695487923 20.989839278980632 14.834593527607318
    vertex 92.00761826992114 20.989675955248007 14.83459599445669
  endloop
endfacet
facet normal 3.35135834832407e-05 0.3963115448872027 -0.9181160919328004
  outer loop
    vertex 90.00836275678493 17.227186722068776 14.320184456356449
    vertex 92.00702845617802 13.740336747451211 12.815133047365398
    vertex 90.0080797350491 13.740500071183854 12.815130580516126
  endloop
endfacet
facet normal 3.35135834832407e-05 0.3963115448872027 -0.9181160919328004
  outer loop
    vertex 92.00702845617802 13.740336747451211 12.815133047365398
    vertex 90.00836275678493 17.227186722068776 14.320184456356449
    vertex 92.00731147791387 17.227023398336126 14.320186923205783
  endloop
endfacet
facet normal 5.227973632048701e-05 0.6281083035791212 -0.7781259256969836
  outer loop
    vertex 90.0080797350491 13.740500071183854 12.815130580516126
    vertex 92.00678995784376 10.785284220023781 10.429795428912849
    vertex 90.00784123671478 10.785447543756408 10.42979296206346
  endloop
endfacet
facet normal 5.227973632048701e-05 0.6281083035791212 -0.7781259256969836
  outer loop
    vertex 92.00678995784376 10.785284220023781 10.429795428912849
    vertex 90.0080797350491 13.740500071183854 12.815130580516126
    vertex 92.00702845617802 13.740336747451211 12.815133047365398
  endloop
endfacet
facet normal 6.721237374780409e-05 0.81384777453383 -0.5810781318969329
  outer loop
    vertex 90.00784123671478 10.785447543756408 10.42979296206346
    vertex 92.00661347127496 8.578550906441512 7.33908368202983
    vertex 90.00766475014599 8.578714230174144 7.3390812151804985
  endloop
endfacet
facet normal 6.721237374780409e-05 0.81384777453383 -0.5810781318969329
  outer loop
    vertex 92.00661347127496 8.578550906441512 7.33908368202983
    vertex 90.00784123671478 10.785447543756408 10.42979296206346
    vertex 92.00678995784376 10.785284220023781 10.429795428912849
  endloop
endfacet
facet normal 7.721653048156312e-05 0.9399102424742373 -0.3414216310218613
  outer loop
    vertex 90.00766475014599 8.578714230174144 7.3390812151804985
    vertex 92.00651193769909 7.281949905820979 3.7696303785640413
    vertex 90.00756321656995 7.2821132295536 3.7696279117147173
  endloop
endfacet
facet normal 7.721653048156312e-05 0.9399102424742373 -0.3414216310218613
  outer loop
    vertex 92.00651193769909 7.281949905820979 3.7696303785640413
    vertex 90.00766475014599 8.578714230174144 7.3390812151804985
    vertex 92.00661347127496 8.578550906441512 7.33908368202983
  endloop
endfacet
facet normal 9.22491354240948e-05 0.9970523575198909 -0.07672410217216621
  outer loop
    vertex 90.00680716495027 6.990773097532281 -0.01670249979388473
    vertex 92.00651193769909 7.281949905820979 3.7696303785640413
    vertex 92.00649280226719 6.990557059423411 -0.01682723501680789
  endloop
endfacet
facet normal 9.22491354240948e-05 0.9970523575198909 -0.07672410217216621
  outer loop
    vertex 92.00651193769909 7.281949905820979 3.7696303785640413
    vertex 90.00680716495027 6.990773097532281 -0.01670249979388473
    vertex 90.00756321656995 7.2821132295536 3.7696279117147173
  endloop
endfacet
facet normal 0.9999999456929803 -0.00010788115698436689 -0.00031140920445558225
  outer loop
    vertex 5.003157107454812 11.781929571956397 4.4924531241066585
    vertex 5.0058837051812155 31.28188511904072 6.492778753067697
    vertex 5.00377992108286 11.781885223718131 6.492453026640768
  endloop
endfacet
facet normal 0.9999999456929803 -0.00010788115698436689 -0.00031140920445558225
  outer loop
    vertex 5.0058837051812155 31.28188511904072 6.492778753067697
    vertex 5.003157107454812 11.781929571956397 4.4924531241066585
    vertex 5.005260891553178 31.28192946727904 4.492778850533588
  endloop
endfacet
facet normal 0.00031140740080854996 -1.6737515220712003e-05 0.999999951372642
  outer loop
    vertex 42.003155097917336 11.777936321840114 4.480930983505128
    vertex 5.005260891553178 31.28192946727904 4.492778850533588
    vertex 5.003157107454812 11.781929571956397 4.4924531241066585
  endloop
endfacet
facet normal 0.00031140740080854996 -1.6737515220712003e-05 0.999999951372642
  outer loop
    vertex 5.005260891553178 31.28192946727904 4.492778850533588
    vertex 42.003155097917336 11.777936321840114 4.480930983505128
    vertex 42.00525888201566 31.277936217162754 4.481256709932104
  endloop
endfacet
facet normal 0.2888077813072797 -5.309947205847693e-05 0.957387101770654
  outer loop
    vertex 52.00221617738749 11.776923883411657 1.464468038300054
    vertex 42.00525888201566 31.277936217162754 4.481256709932104
    vertex 42.003155097917336 11.777936321840114 4.480930983505128
  endloop
endfacet
facet normal 0.2888077813072797 -5.309947205847693e-05 0.957387101770654
  outer loop
    vertex 42.00525888201566 31.277936217162754 4.481256709932104
    vertex 52.00221617738749 11.776923883411657 1.464468038300054
    vertex 52.006572579069044 31.27686861697308 1.4643565667701435
  endloop
endfacet
facet normal -0.0011075612191027262 0.00028638044402607484 0.9999993456469795
  outer loop
    vertex 55.000583828936065 11.776076406963353 1.4732593805476781
    vertex 52.006572579069044 31.27686861697308 1.4643565667701435
    vertex 52.00221617738749 11.776923883411657 1.464468038300054
  endloop
endfacet
facet normal -0.0011075612191027262 0.00028638044402607484 0.9999993456469795
  outer loop
    vertex 52.006572579069044 31.27686861697308 1.4643565667701435
    vertex 55.000583828936065 11.776076406963353 1.4732593805476781
    vertex 55.00751378885413 31.277686477090104 1.4622145294829862
  endloop
endfacet
facet normal 0.9999998861889029 -0.00020492820931197257 -0.00043084406714968566
  outer loop
    vertex 55.54908080692581 11.775689101846325 -0.01111228109037173
    vertex 55.55350791892926 31.275611933919045 0.9893136498822813
    vertex 55.549392111964 11.775667186114338 0.9888876702140057
  endloop
endfacet
facet normal 0.9999998861889029 -0.00020492820931197257 -0.00043084406714968566
  outer loop
    vertex 55.55350791892926 31.275611933919045 0.9893136498822813
    vertex 55.54908080692581 11.775689101846325 -0.01111228109037173
    vertex 55.552957519396486 31.275509146791954 -0.010685682770519546
  endloop
endfacet
facet normal 0.6582489757625691 1.8545812435299658e-05 0.7528002959374962
  outer loop
    vertex 55.549392111964 11.775667186114338 0.9888876702140057
    vertex 55.00751378885413 31.277686477090104 1.4622145294829862
    vertex 55.000583828936065 11.776076406963353 1.4732593805476781
  endloop
endfacet
facet normal 0.6582489757625691 1.8545812435299658e-05 0.7528002959374962
  outer loop
    vertex 55.00751378885413 31.277686477090104 1.4622145294829862
    vertex 55.549392111964 11.775667186114338 0.9888876702140057
    vertex 55.55350791892926 31.275611933919045 0.9893136498822813
  endloop
endfacet
facet normal -0.00017479446565992767 3.001270285604131e-05 -0.9999999842730662
  outer loop
    vertex 55.55031672712768 41.99068346234805 -0.010685682770498743
    vertex 55.54908080692581 11.775689101846325 -0.01111228109037173
    vertex 0.004526983013716323 41.9965771549868 0.0008983597095011219
  endloop
endfacet
facet normal -0.00017479446565992767 3.001270285604131e-05 -0.9999999842730662
  outer loop
    vertex 55.54908080692581 11.775689101846325 -0.01111228109037173
    vertex 55.55031672712768 41.99068346234805 -0.010685682770498743
    vertex 55.552957519396486 31.275509146791954 -0.010685682770519546
  endloop
endfacet
facet normal -0.00017479446565992767 3.001270285604131e-05 -0.9999999842730662
  outer loop
    vertex 0.0 0.0 0.0
    vertex 55.54908080692581 11.775689101846325 -0.01111228109037173
    vertex 92.00592104462311 -0.009638044850776883 -0.01689016321870634
  endloop
endfacet
facet normal -0.00017479446565992767 3.001270285604131e-05 -0.9999999842730662
  outer loop
    vertex 55.54908080692581 11.775689101846325 -0.01111228109037173
    vertex 0.0 0.0 0.0
    vertex 0.004526983013716323 41.9965771549868 0.0008983597095011219
  endloop
endfacet
facet normal -0.00017479446565992767 3.001270285604131e-05 -0.9999999842730662
  outer loop
    vertex 92.00592104462311 -0.009638044850776883 -0.01689016321870634
    vertex 55.54908080692581 11.775689101846325 -0.01111228109037173
    vertex 62.00475382332614 11.775492841757618 -0.015943419731855236
  endloop
endfacet
facet normal -0.00017479446565992767 3.001270285604131e-05 -0.9999999842730662
  outer loop
    vertex 92.00592104462311 -0.009638044850776883 -0.01689016321870634
    vertex 62.00475382332614 11.775492841757618 -0.015943419731855236
    vertex 85.00680711394243 6.991245880335697 -0.01670576180128666
  endloop
endfacet
facet normal -0.00017479446565992767 3.001270285604131e-05 -0.9999999842730662
  outer loop
    vertex 85.00680711394243 6.991245880335697 -0.01670576180128666
    vertex 62.00475382332614 11.775492841757618 -0.015943419731855236
    vertex 62.00875632829739 30.15752372720864 -0.013247639567493263
  endloop
endfacet
facet normal -0.00017479446565992767 3.001270285604131e-05 -0.9999999842730662
  outer loop
    vertex 85.00680711394243 6.991245880335697 -0.01670576180128666
    vertex 62.00875632829739 30.15752372720864 -0.013247639567493263
    vertex 62.008870863395764 31.277100229264796 -0.012865024576283062
  endloop
endfacet
facet normal -0.00017479446565992767 3.001270285604131e-05 -0.9999999842730662
  outer loop
    vertex 92.00592104462311 -0.009638044850776883 -0.01689016321870634
    vertex 85.00680711394243 6.991245880335697 -0.01670576180128666
    vertex 90.00680716495027 6.990773097532281 -0.01670249979388473
  endloop
endfacet
facet normal -0.00017479446565992767 3.001270285604131e-05 -0.9999999842730662
  outer loop
    vertex 92.00592104462311 -0.009638044850776883 -0.01689016321870634
    vertex 90.00680716495027 6.990773097532281 -0.01670249979388473
    vertex 92.00649280226719 6.990557059423411 -0.01682723501680789
  endloop
endfacet
facet normal -0.00017479446565992767 3.001270285604131e-05 -0.9999999842730662
  outer loop
    vertex 92.00935241077346 41.99019247782761 -0.013526011090438524
    vertex 62.008870863395764 31.277100229264796 -0.012865024576283062
    vertex 62.00623007112696 41.9922745448209 -0.01286502457626225
  endloop
endfacet
facet normal -0.00017479446565992767 3.001270285604131e-05 -0.9999999842730662
  outer loop
    vertex 62.008870863395764 31.277100229264796 -0.012865024576283062
    vertex 92.00935241077346 41.99019247782761 -0.013526011090438524
    vertex 85.00983174775142 34.99124988405522 -0.016256993606423527
  endloop
endfacet
facet normal -0.00017479446565992767 3.001270285604131e-05 -0.9999999842730662
  outer loop
    vertex 62.008870863395764 31.277100229264796 -0.012865024576283062
    vertex 85.00983174775142 34.99124988405522 -0.016256993606423527
    vertex 85.00680711394243 6.991245880335697 -0.01670576180128666
  endloop
endfacet
facet normal -0.00017479446565992767 3.001270285604131e-05 -0.9999999842730662
  outer loop
    vertex 85.00983174775142 34.99124988405522 -0.016256993606423527
    vertex 92.00935241077346 41.99019247782761 -0.013526011090438524
    vertex 90.0098318194599 34.99077412007777 -0.01614142259550591
  endloop
endfacet
facet normal -0.00017479446565992767 3.001270285604131e-05 -0.9999999842730662
  outer loop
    vertex 90.0098318194599 34.99077412007777 -0.01614142259550591
    vertex 92.00935241077346 41.99019247782761 -0.013526011090438524
    vertex 92.00878053715321 34.990583824491964 -0.01514072217000917
  endloop
endfacet
facet normal 0.747524231097812 -0.0010557824516099657 0.6642337007748403
  outer loop
    vertex 85.01061998672877 34.99147792569792 0.9771960370403762
    vertex 75.77478099201983 31.27402904752242 11.365238201120551
    vertex 85.00899700003184 31.272725760125688 0.9762201418017658
  endloop
endfacet
facet normal 0.747524231097812 -0.0010557824516099657 0.6642337007748403
  outer loop
    vertex 75.77478099201983 31.27402904752242 11.365238201120551
    vertex 85.01061998672877 34.99147792569792 0.9771960370403762
    vertex 75.77515340626849 34.992141378605496 11.37383793593547
  endloop
endfacet
facet normal 0.0007635890239754087 0.00015532506870223172 0.9999996964029167
  outer loop
    vertex 75.7690994889436 11.768225599388131 6.36827058499749
    vertex 62.00595541123336 31.276437650130237 6.375750036373836
    vertex 62.00144363709969 11.774830211960989 6.376935508394638
  endloop
endfacet
facet normal 0.0007635890239754087 0.00015532506870223172 0.9999996964029167
  outer loop
    vertex 62.00595541123336 31.276437650130237 6.375750036373836
    vertex 75.7690994889436 11.768225599388131 6.36827058499749
    vertex 75.77096084548364 31.269832684120885 6.3633930115956465
  endloop
endfacet
facet normal 0.5039436435327012 4.733426439136734e-05 0.8637365350050056
  outer loop
    vertex 85.00621192589632 11.77111808916267 0.9761909539313047
    vertex 75.77096084548364 31.269832684120885 6.3633930115956465
    vertex 75.7690994889436 11.768225599388131 6.36827058499749
  endloop
endfacet
facet normal 0.5039436435327012 4.733426439136734e-05 0.8637365350050056
  outer loop
    vertex 75.77096084548364 31.269832684120885 6.3633930115956465
    vertex 85.00621192589632 11.77111808916267 0.9761909539313047
    vertex 85.00899700003184 31.272725760125688 0.9762201418017658
  endloop
endfacet
facet normal -0.9914888368821315 -0.0002443558992077306 -0.13019149983125944
  outer loop
    vertex 61.896522142327875 41.992247506917295 0.8226287939111654
    vertex 62.008870863395764 31.277100229264796 -0.012865024576283062
    vertex 61.89916293459668 31.27707319136119 0.8226287939111447
  endloop
endfacet
facet normal -0.9914888368821315 -0.0002443558992077306 -0.13019149983125944
  outer loop
    vertex 62.008870863395764 31.277100229264796 -0.012865024576283062
    vertex 61.896522142327875 41.992247506917295 0.8226287939111654
    vertex 62.00623007112696 41.9922745448209 -0.01286502457626225
  endloop
endfacet
facet normal -0.9240086353783071 -0.0002277251670153844 -0.38237153383530914
  outer loop
    vertex 61.574310714829366 41.99216809678157 1.6012593486587596
    vertex 61.89916293459668 31.27707319136119 0.8226287939111447
    vertex 61.57695150709818 31.27699378122547 1.6012593486587385
  endloop
endfacet
facet normal -0.9240086353783071 -0.0002277251670153844 -0.38237153383530914
  outer loop
    vertex 61.89916293459668 31.27707319136119 0.8226287939111447
    vertex 61.574310714829366 41.99216809678157 1.6012593486587596
    vertex 61.896522142327875 41.992247506917295 0.8226287939111654
  endloop
endfacet
facet normal -0.7935587723699207 -0.00019557534102478775 -0.6084935797073218
  outer loop
    vertex 61.06155396493591 41.99204172608325 2.2699642541083005
    vertex 61.57695150709818 31.27699378122547 1.6012593486587385
    vertex 61.06419475720472 31.27686741052715 2.269964254108279
  endloop
endfacet
facet normal -0.7935587723699207 -0.00019557534102478775 -0.6084935797073218
  outer loop
    vertex 61.57695150709818 31.27699378122547 1.6012593486587385
    vertex 61.06155396493591 41.99204172608325 2.2699642541083005
    vertex 61.574310714829366 41.99216809678157 1.6012593486587596
  endloop
endfacet
facet normal -0.609029190442402 -0.00015009737874688455 -0.7931477937054667
  outer loop
    vertex 61.06155396493591 41.99204172608325 2.2699642541083005
    vertex 60.395836210050945 31.276702691220475 2.7831723760404876
    vertex 60.39319541778214 41.99187700677657 2.7831723760405085
  endloop
endfacet
facet normal -0.609029190442402 -0.00015009737874688455 -0.7931477937054667
  outer loop
    vertex 60.395836210050945 31.276702691220475 2.7831723760404876
    vertex 61.06155396493591 41.99204172608325 2.2699642541083005
    vertex 61.06419475720472 31.27686741052715 2.269964254108279
  endloop
endfacet
facet normal -0.3829952756545576 -9.439052815502747e-05 -0.9237502963012881
  outer loop
    vertex 60.39319541778214 41.99187700677657 2.7831723760405085
    vertex 59.617423396110674 31.276510848653995 3.1059094290622054
    vertex 59.61478260384186 41.9916851642101 3.1059094290622262
  endloop
endfacet
facet normal -0.3829952756545576 -9.439052815502747e-05 -0.9237502963012881
  outer loop
    vertex 59.617423396110674 31.276510848653995 3.1059094290622054
    vertex 60.39319541778214 41.99187700677657 2.7831723760405085
    vertex 60.395836210050945 31.276702691220475 2.7831723760404876
  endloop
endfacet
facet normal -0.13086086576046987 -3.225111905712738e-05 -0.9914007427737211
  outer loop
    vertex 59.61478260384186 41.9916851642101 3.1059094290622262
    vertex 58.78200386226591 31.276304956581576 3.2161814163581997
    vertex 58.7793630699971 41.991479272137674 3.2161814163582214
  endloop
endfacet
facet normal -0.13086086576046987 -3.225111905712738e-05 -0.9914007427737211
  outer loop
    vertex 58.78200386226591 31.276304956581576 3.2161814163581997
    vertex 59.61478260384186 41.9916851642101 3.1059094290622262
    vertex 59.617423396110674 31.276510848653995 3.1059094290622054
  endloop
endfacet
facet normal 0.13019149587738346 3.2086150507020554e-05 -0.9914888669933155
  outer loop
    vertex 58.7793630699971 41.991479272137674 3.2161814163582214
    vertex 57.94651006915215 31.276099046207698 3.106473484227324
    vertex 57.94386927688334 41.9912733617638 3.106473484227345
  endloop
endfacet
facet normal 0.13019149587738346 3.2086150507020554e-05 -0.9914888669933155
  outer loop
    vertex 57.94651006915215 31.276099046207698 3.106473484227324
    vertex 58.7793630699971 41.991479272137674 3.2161814163582214
    vertex 58.78200386226591 31.276304956581576 3.2161814163581997
  endloop
endfacet
facet normal 0.38237152222281456 9.42368019389863e-05 -0.9240086634401394
  outer loop
    vertex 57.94386927688334 41.9912733617638 3.106473484227345
    vertex 57.16787953805131 31.275907149984057 2.7842620469433688
    vertex 57.165238745782496 41.991081465540155 2.78426204694339
  endloop
endfacet
facet normal 0.38237152222281456 9.42368019389863e-05 -0.9240086634401394
  outer loop
    vertex 57.16787953805131 31.275907149984057 2.7842620469433688
    vertex 57.94386927688334 41.9912733617638 3.106473484227345
    vertex 57.94651006915215 31.276099046207698 3.106473484227324
  endloop
endfacet
facet normal 0.6084935612275753 0.00014996537105248784 -0.7935587964700352
  outer loop
    vertex 57.165238745782496 41.991081465540155 2.78426204694339
    vertex 56.499174652910106 31.275742345321177 2.271505281477658
    vertex 56.4965338606413 41.990916660877275 2.271505281477679
  endloop
endfacet
facet normal 0.6084935612275753 0.00014996537105248784 -0.7935587964700352
  outer loop
    vertex 56.499174652910106 31.275742345321177 2.271505281477658
    vertex 57.165238745782496 41.991081465540155 2.78426204694339
    vertex 57.16787953805131 31.275907149984057 2.7842620469433688
  endloop
endfacet
facet normal 0.7931477696178395 0.00019547404795825762 -0.6090292089384082
  outer loop
    vertex 55.98332575429505 41.99079017894057 1.6031467140260804
    vertex 56.499174652910106 31.275742345321177 2.271505281477658
    vertex 55.98596654656386 31.275615863384477 1.6031467140260591
  endloop
endfacet
facet normal 0.7931477696178395 0.00019547404795825762 -0.6090292089384082
  outer loop
    vertex 56.499174652910106 31.275742345321177 2.271505281477658
    vertex 55.98332575429505 41.99079017894057 1.6031467140260804
    vertex 56.4965338606413 41.990916660877275 2.271505281477679
  endloop
endfacet
facet normal 0.9237502682473026 0.00022766149153180792 -0.3829952872859956
  outer loop
    vertex 55.66058871107475 41.99071063926502 0.8247338764456644
    vertex 55.98596654656386 31.275615863384477 1.6031467140260591
    vertex 55.66322950334356 31.27553632370892 0.8247338764456439
  endloop
endfacet
facet normal 0.9237502682473026 0.00022766149153180792 -0.3829952872859956
  outer loop
    vertex 55.98596654656386 31.275615863384477 1.6031467140260591
    vertex 55.66058871107475 41.99071063926502 0.8247338764456644
    vertex 55.98332575429505 41.99079017894057 1.6031467140260804
  endloop
endfacet
facet normal 0.9914007126652139 0.0002443341806860843 -0.13086086973467081
  outer loop
    vertex 55.55031672712768 41.99068346234805 -0.010685682770498743
    vertex 55.66322950334356 31.27553632370892 0.8247338764456439
    vertex 55.552957519396486 31.275509146791954 -0.010685682770519546
  endloop
endfacet
facet normal 0.9914007126652139 0.0002443341806860843 -0.13086086973467081
  outer loop
    vertex 55.66322950334356 31.27553632370892 0.8247338764456439
    vertex 55.55031672712768 41.99068346234805 -0.010685682770498743
    vertex 55.66058871107475 41.99071063926502 0.8247338764456644
  endloop
endfacet
endsolid Платформа-для-головы-v5b-Тонкий
