solid Т-Бегунок-9-Косой
facet normal -1.0 8.843518230129363e-15 -1.552390339634831e-14
  outer loop
    vertex -2.4912886479012547e-14 -4.000000000000038 13.999999999999996
    vertex 0.0 0.0 8.999999999999998
    vertex -3.2976672134166044e-14 -4.000000000000005 5.500000000000001
  endloop
endfacet
facet normal -1.0 8.843518230129363e-15 -1.552390339634831e-14
  outer loop
    vertex 0.0 0.0 8.999999999999998
    vertex -2.4912886479012547e-14 -4.000000000000038 13.999999999999996
    vertex -2.4912886479012547e-14 12.999999999999964 13.999999999999996
  endloop
endfacet
facet normal -1.0 8.843518230129363e-15 -1.552390339634831e-14
  outer loop
    vertex -3.2976672134166044e-14 -4.000000000000005 5.500000000000001
    vertex 0.0 0.0 8.999999999999998
    vertex 2.5782550697581097e-14 -2.0 4.5
  endloop
endfacet
facet normal -1.0 8.843518230129363e-15 -1.552390339634831e-14
  outer loop
    vertex 0.0 0.0 8.999999999999998
    vertex -2.4912886479012547e-14 12.999999999999964 13.999999999999996
    vertex 4.060751734868986e-14 2.9999999999999996 9.999999999999998
  endloop
endfacet
facet normal -1.0 8.843518230129363e-15 -1.552390339634831e-14
  outer loop
    vertex 0.0 0.0 8.999999999999998
    vertex 4.060751734868986e-14 2.9999999999999996 9.999999999999998
    vertex 2.7071678232459915e-14 1.9999999999999998 8.999999999999998
  endloop
endfacet
facet normal -1.0 8.843518230129363e-15 -1.552390339634831e-14
  outer loop
    vertex 4.060751734868986e-14 2.9999999999999996 9.999999999999998
    vertex -2.4912886479012547e-14 12.999999999999964 13.999999999999996
    vertex 9.475087381360918e-14 5.999999999999964 9.999999999999998
  endloop
endfacet
facet normal -1.0 8.843518230129363e-15 -1.552390339634831e-14
  outer loop
    vertex 9.475087381360918e-14 5.999999999999964 9.999999999999998
    vertex -2.4912886479012547e-14 12.999999999999964 13.999999999999996
    vertex 1.0828671292983914e-13 6.999999999999964 8.999999999999998
  endloop
endfacet
facet normal -1.0 8.843518230129363e-15 -1.552390339634831e-14
  outer loop
    vertex 1.0828671292983914e-13 6.999999999999964 8.999999999999998
    vertex -2.4912886479012547e-14 12.999999999999964 13.999999999999996
    vertex 1.3535839116229907e-13 8.999999999999963 8.999999999999998
  endloop
endfacet
facet normal -1.0 8.843518230129363e-15 -1.552390339634831e-14
  outer loop
    vertex 1.3535839116229907e-13 8.999999999999963 8.999999999999998
    vertex -2.4912886479012547e-14 12.999999999999964 13.999999999999996
    vertex 1.3535839116229907e-13 8.999999999999963 8.000000000000002
  endloop
endfacet
facet normal -1.0 8.843518230129363e-15 -1.552390339634831e-14
  outer loop
    vertex 1.3535839116229907e-13 8.999999999999963 8.000000000000002
    vertex -2.4912886479012547e-14 12.999999999999964 13.999999999999996
    vertex 1.82693542833639e-13 10.999999999999964 4.500000000000001
  endloop
endfacet
facet normal -1.0 8.843518230129363e-15 -1.552390339634831e-14
  outer loop
    vertex 1.82693542833639e-13 10.999999999999964 4.500000000000001
    vertex -2.4912886479012547e-14 12.999999999999964 13.999999999999996
    vertex 1.649640863000852e-13 12.999999999999964 5.500000000000001
  endloop
endfacet
facet normal -1.0 8.843518230129363e-15 -1.552390339634831e-14
  outer loop
    vertex 1.3535839116229907e-13 8.999999999999963 8.000000000000002
    vertex 1.64968039229052e-13 5.999999999999951 4.500000000000001
    vertex 1.8047785488306544e-13 5.999999999999951 6.0
  endloop
endfacet
facet normal -1.0 8.843518230129363e-15 -1.552390339634831e-14
  outer loop
    vertex 1.64968039229052e-13 5.999999999999951 4.500000000000001
    vertex 1.3535839116229907e-13 8.999999999999963 8.000000000000002
    vertex 1.82693542833639e-13 10.999999999999964 4.500000000000001
  endloop
endfacet
facet normal -1.0 8.843518230129363e-15 -1.552390339634831e-14
  outer loop
    vertex 2.5782550697581097e-14 -2.0 4.5
    vertex 0.0 0.0 8.000000000000002
    vertex 1.5791812302268225e-13 2.9999999999999467 4.5
  endloop
endfacet
facet normal -1.0 8.843518230129363e-15 -1.552390339634831e-14
  outer loop
    vertex 0.0 0.0 8.000000000000002
    vertex 2.5782550697581097e-14 -2.0 4.5
    vertex 0.0 0.0 8.999999999999998
  endloop
endfacet
facet normal -1.0 8.843518230129363e-15 -1.552390339634831e-14
  outer loop
    vertex 1.5791812302268225e-13 2.9999999999999467 4.5
    vertex 0.0 0.0 8.000000000000002
    vertex 1.5791812302268225e-13 2.9999999999999467 6.0
  endloop
endfacet
facet normal 1.0 -8.80029082326862e-15 1.543916289900407e-14
  outer loop
    vertex 15.000000000000027 -2.0000000000001275 4.500000000000212
    vertex 15.0 -1.272384876735442e-13 8.000000000000215
    vertex 15.0 -1.2725098752497387e-13 9.000000000000211
  endloop
endfacet
facet normal 1.0 -8.80029082326862e-15 1.543916289900407e-14
  outer loop
    vertex 15.0 -1.272384876735442e-13 8.000000000000215
    vertex 15.000000000000027 -2.0000000000001275 4.500000000000212
    vertex 15.000000000000158 2.9999999999998193 4.500000000000212
  endloop
endfacet
facet normal 1.0 -8.80029082326862e-15 1.543916289900407e-14
  outer loop
    vertex 15.0 -1.272384876735442e-13 8.000000000000215
    vertex 15.000000000000158 2.9999999999998193 4.500000000000212
    vertex 15.000000000000158 2.9999999999998193 6.000000000000212
  endloop
endfacet
facet normal 1.0 -8.80029082326862e-15 1.543916289900407e-14
  outer loop
    vertex 15.000000000000181 10.999999999999837 4.500000000000213
    vertex 15.000000000000181 5.999999999999824 6.000000000000212
    vertex 15.000000000000163 5.999999999999824 4.500000000000213
  endloop
endfacet
facet normal 1.0 -8.80029082326862e-15 1.543916289900407e-14
  outer loop
    vertex 15.000000000000181 5.999999999999824 6.000000000000212
    vertex 15.000000000000181 10.999999999999837 4.500000000000213
    vertex 15.000000000000137 8.999999999999835 8.000000000000215
  endloop
endfacet
facet normal 1.0 -8.80029082326862e-15 1.543916289900407e-14
  outer loop
    vertex 15.000000000000137 8.999999999999835 8.000000000000215
    vertex 15.000000000000181 10.999999999999837 4.500000000000213
    vertex 15.000000000000137 8.999999999999835 9.000000000000211
  endloop
endfacet
facet normal 1.0 -8.80029082326862e-15 1.543916289900407e-14
  outer loop
    vertex 14.999999999999975 -4.000000000000164 14.000000000000208
    vertex 15.0 -1.2725098752497387e-13 9.000000000000211
    vertex 14.999999999999975 12.999999999999835 14.000000000000206
  endloop
endfacet
facet normal 1.0 -8.80029082326862e-15 1.543916289900407e-14
  outer loop
    vertex 15.0 -1.2725098752497387e-13 9.000000000000211
    vertex 14.999999999999975 -4.000000000000164 14.000000000000208
    vertex 14.999999999999966 -4.000000000000132 5.500000000000212
  endloop
endfacet
facet normal 1.0 -8.80029082326862e-15 1.543916289900407e-14
  outer loop
    vertex 15.0 -1.2725098752497387e-13 9.000000000000211
    vertex 14.999999999999966 -4.000000000000132 5.500000000000212
    vertex 15.000000000000027 -2.0000000000001275 4.500000000000212
  endloop
endfacet
facet normal 1.0 -8.80029082326862e-15 1.543916289900407e-14
  outer loop
    vertex 14.999999999999975 12.999999999999835 14.000000000000206
    vertex 15.0 -1.2725098752497387e-13 9.000000000000211
    vertex 15.00000000000004 2.9999999999998717 10.000000000000211
  endloop
endfacet
facet normal 1.0 -8.80029082326862e-15 1.543916289900407e-14
  outer loop
    vertex 15.00000000000004 2.9999999999998717 10.000000000000211
    vertex 15.0 -1.2725098752497387e-13 9.000000000000211
    vertex 15.000000000000028 1.9999999999998725 9.000000000000211
  endloop
endfacet
facet normal 1.0 -8.80029082326862e-15 1.543916289900407e-14
  outer loop
    vertex 14.999999999999975 12.999999999999835 14.000000000000206
    vertex 15.00000000000004 2.9999999999998717 10.000000000000211
    vertex 15.000000000000096 5.999999999999837 10.000000000000211
  endloop
endfacet
facet normal 1.0 -8.80029082326862e-15 1.543916289900407e-14
  outer loop
    vertex 14.999999999999975 12.999999999999835 14.000000000000206
    vertex 15.000000000000096 5.999999999999837 10.000000000000211
    vertex 15.000000000000108 6.999999999999837 9.000000000000211
  endloop
endfacet
facet normal 1.0 -8.80029082326862e-15 1.543916289900407e-14
  outer loop
    vertex 14.999999999999975 12.999999999999835 14.000000000000206
    vertex 15.000000000000108 6.999999999999837 9.000000000000211
    vertex 15.000000000000137 8.999999999999835 9.000000000000211
  endloop
endfacet
facet normal 1.0 -8.80029082326862e-15 1.543916289900407e-14
  outer loop
    vertex 14.999999999999975 12.999999999999835 14.000000000000206
    vertex 15.000000000000137 8.999999999999835 9.000000000000211
    vertex 15.000000000000181 10.999999999999837 4.500000000000213
  endloop
endfacet
facet normal 1.0 -8.80029082326862e-15 1.543916289900407e-14
  outer loop
    vertex 14.999999999999975 12.999999999999835 14.000000000000206
    vertex 15.000000000000181 10.999999999999837 4.500000000000213
    vertex 15.000000000000163 12.999999999999835 5.500000000000212
  endloop
endfacet
facet normal 1.4146831854115288e-14 -4.918121078566189e-29 -1.0
  outer loop
    vertex 1.82693542833639e-13 10.999999999999964 4.500000000000001
    vertex 15.000000000000163 5.999999999999824 4.500000000000213
    vertex 1.64968039229052e-13 5.999999999999951 4.500000000000001
  endloop
endfacet
facet normal 1.4146831854115288e-14 -4.918121078566189e-29 -1.0
  outer loop
    vertex 15.000000000000163 5.999999999999824 4.500000000000213
    vertex 1.82693542833639e-13 10.999999999999964 4.500000000000001
    vertex 15.000000000000181 10.999999999999837 4.500000000000213
  endloop
endfacet
facet normal 1.6476786466703943e-14 0.4472135954999578 -0.8944271909999159
  outer loop
    vertex 15.000000000000163 12.999999999999835 5.500000000000212
    vertex 1.82693542833639e-13 10.999999999999964 4.500000000000001
    vertex 1.649640863000852e-13 12.999999999999964 5.500000000000001
  endloop
endfacet
facet normal 1.6476786466703943e-14 0.4472135954999578 -0.8944271909999159
  outer loop
    vertex 1.82693542833639e-13 10.999999999999964 4.500000000000001
    vertex 15.000000000000163 12.999999999999835 5.500000000000212
    vertex 15.000000000000181 10.999999999999837 4.500000000000213
  endloop
endfacet
facet normal 8.647897213146883e-15 1.0 1.7358048006945773e-28
  outer loop
    vertex -2.4912886479012547e-14 12.999999999999964 13.999999999999996
    vertex 15.000000000000163 12.999999999999835 5.500000000000212
    vertex 1.649640863000852e-13 12.999999999999964 5.500000000000001
  endloop
endfacet
facet normal 8.647897213146883e-15 1.0 1.7358048006945773e-28
  outer loop
    vertex 15.000000000000163 12.999999999999835 5.500000000000212
    vertex -2.4912886479012547e-14 12.999999999999964 13.999999999999996
    vertex 14.999999999999975 12.999999999999835 14.000000000000206
  endloop
endfacet
facet normal -1.4005833529987892e-14 8.294019066317399e-17 1.0
  outer loop
    vertex 14.999999999999975 -4.000000000000164 14.000000000000208
    vertex -2.4912886479012547e-14 12.999999999999964 13.999999999999996
    vertex -2.4912886479012547e-14 -4.000000000000038 13.999999999999996
  endloop
endfacet
facet normal -1.4005833529987892e-14 8.294019066317399e-17 1.0
  outer loop
    vertex -2.4912886479012547e-14 12.999999999999964 13.999999999999996
    vertex 14.999999999999975 -4.000000000000164 14.000000000000208
    vertex 14.999999999999975 12.999999999999835 14.000000000000206
  endloop
endfacet
facet normal -8.482565844902907e-15 -1.0 -2.819966482547923e-15
  outer loop
    vertex 14.999999999999966 -4.000000000000132 5.500000000000212
    vertex -2.4912886479012547e-14 -4.000000000000038 13.999999999999996
    vertex -3.2976672134166044e-14 -4.000000000000005 5.500000000000001
  endloop
endfacet
facet normal -8.482565844902907e-15 -1.0 -2.819966482547923e-15
  outer loop
    vertex -2.4912886479012547e-14 -4.000000000000038 13.999999999999996
    vertex 14.999999999999966 -4.000000000000132 5.500000000000212
    vertex 14.999999999999975 -4.000000000000164 14.000000000000208
  endloop
endfacet
facet normal 8.864586751696411e-15 -0.4472135954999572 -0.8944271909999164
  outer loop
    vertex 2.5782550697581097e-14 -2.0 4.5
    vertex 14.999999999999966 -4.000000000000132 5.500000000000212
    vertex -3.2976672134166044e-14 -4.000000000000005 5.500000000000001
  endloop
endfacet
facet normal 8.864586751696411e-15 -0.4472135954999572 -0.8944271909999164
  outer loop
    vertex 14.999999999999966 -4.000000000000132 5.500000000000212
    vertex 2.5782550697581097e-14 -2.0 4.5
    vertex 15.000000000000027 -2.0000000000001275 4.500000000000212
  endloop
endfacet
facet normal 1.4146831854115285e-14 -3.7345352047748965e-28 -1.0
  outer loop
    vertex 1.5791812302268225e-13 2.9999999999999467 4.5
    vertex 15.000000000000027 -2.0000000000001275 4.500000000000212
    vertex 2.5782550697581097e-14 -2.0 4.5
  endloop
endfacet
facet normal 1.4146831854115285e-14 -3.7345352047748965e-28 -1.0
  outer loop
    vertex 15.000000000000027 -2.0000000000001275 4.500000000000212
    vertex 1.5791812302268225e-13 2.9999999999999467 4.5
    vertex 15.000000000000158 2.9999999999998193 4.500000000000212
  endloop
endfacet
facet normal 8.483399168331591e-15 1.0 -2.0311272167189892e-30
  outer loop
    vertex 1.5791812302268225e-13 2.9999999999999467 6.0
    vertex 15.000000000000158 2.9999999999998193 4.500000000000212
    vertex 1.5791812302268225e-13 2.9999999999999467 4.5
  endloop
endfacet
facet normal 8.483399168331591e-15 1.0 -2.0311272167189892e-30
  outer loop
    vertex 15.000000000000158 2.9999999999998193 4.500000000000212
    vertex 1.5791812302268225e-13 2.9999999999999467 6.0
    vertex 15.000000000000158 2.9999999999998193 6.000000000000212
  endloop
endfacet
facet normal -7.081827672000269e-15 0.5547001962252364 0.832050294337839
  outer loop
    vertex 15.0 -1.272384876735442e-13 8.000000000000215
    vertex 1.5791812302268225e-13 2.9999999999999467 6.0
    vertex 0.0 0.0 8.000000000000002
  endloop
endfacet
facet normal -7.081827672000269e-15 0.5547001962252364 0.832050294337839
  outer loop
    vertex 1.5791812302268225e-13 2.9999999999999467 6.0
    vertex 15.0 -1.272384876735442e-13 8.000000000000215
    vertex 15.000000000000158 2.9999999999998193 6.000000000000212
  endloop
endfacet
facet normal 8.48298250661727e-15 1.0 6.249925714837187e-18
  outer loop
    vertex 0.0 0.0 8.999999999999998
    vertex 15.0 -1.272384876735442e-13 8.000000000000215
    vertex 0.0 0.0 8.000000000000002
  endloop
endfacet
facet normal 8.48298250661727e-15 1.0 6.249925714837187e-18
  outer loop
    vertex 15.0 -1.272384876735442e-13 8.000000000000215
    vertex 0.0 0.0 8.999999999999998
    vertex 15.0 -1.2725098752497387e-13 9.000000000000211
  endloop
endfacet
facet normal 1.4193831295491081e-14 -1.9861640905697693e-28 -1.0
  outer loop
    vertex 2.7071678232459915e-14 1.9999999999999998 8.999999999999998
    vertex 15.0 -1.2725098752497387e-13 9.000000000000211
    vertex 0.0 0.0 8.999999999999998
  endloop
endfacet
facet normal 1.4193831295491081e-14 -1.9861640905697693e-28 -1.0
  outer loop
    vertex 15.0 -1.2725098752497387e-13 9.000000000000211
    vertex 2.7071678232459915e-14 1.9999999999999998 8.999999999999998
    vertex 15.000000000000028 1.9999999999998725 9.000000000000211
  endloop
endfacet
facet normal 1.604382263963382e-14 0.7071067811865476 -0.7071067811865475
  outer loop
    vertex 4.060751734868986e-14 2.9999999999999996 9.999999999999998
    vertex 15.000000000000028 1.9999999999998725 9.000000000000211
    vertex 2.7071678232459915e-14 1.9999999999999998 8.999999999999998
  endloop
endfacet
facet normal 1.604382263963382e-14 0.7071067811865476 -0.7071067811865475
  outer loop
    vertex 15.000000000000028 1.9999999999998725 9.000000000000211
    vertex 4.060751734868986e-14 2.9999999999999996 9.999999999999998
    vertex 15.00000000000004 2.9999999999998717 10.000000000000211
  endloop
endfacet
facet normal 1.4193831295491081e-14 -2.650031965157481e-28 -1.0
  outer loop
    vertex 9.475087381360918e-14 5.999999999999964 9.999999999999998
    vertex 15.00000000000004 2.9999999999998717 10.000000000000211
    vertex 4.060751734868986e-14 2.9999999999999996 9.999999999999998
  endloop
endfacet
facet normal 1.4193831295491081e-14 -2.650031965157481e-28 -1.0
  outer loop
    vertex 15.00000000000004 2.9999999999998717 10.000000000000211
    vertex 9.475087381360918e-14 5.999999999999964 9.999999999999998
    vertex 15.000000000000096 5.999999999999837 10.000000000000211
  endloop
endfacet
facet normal 4.055360627753545e-15 -0.7071067811865476 -0.7071067811865476
  outer loop
    vertex 15.000000000000108 6.999999999999837 9.000000000000211
    vertex 9.475087381360918e-14 5.999999999999964 9.999999999999998
    vertex 1.0828671292983914e-13 6.999999999999964 8.999999999999998
  endloop
endfacet
facet normal 4.055360627753545e-15 -0.7071067811865476 -0.7071067811865476
  outer loop
    vertex 9.475087381360918e-14 5.999999999999964 9.999999999999998
    vertex 15.000000000000108 6.999999999999837 9.000000000000211
    vertex 15.000000000000096 5.999999999999837 10.000000000000211
  endloop
endfacet
facet normal 1.4193831295491084e-14 -1.94740741656797e-28 -1.0
  outer loop
    vertex 1.3535839116229907e-13 8.999999999999963 8.999999999999998
    vertex 15.000000000000108 6.999999999999837 9.000000000000211
    vertex 1.0828671292983914e-13 6.999999999999964 8.999999999999998
  endloop
endfacet
facet normal 1.4193831295491084e-14 -1.94740741656797e-28 -1.0
  outer loop
    vertex 15.000000000000108 6.999999999999837 9.000000000000211
    vertex 1.3535839116229907e-13 8.999999999999963 8.999999999999998
    vertex 15.000000000000137 8.999999999999835 9.000000000000211
  endloop
endfacet
facet normal -8.459899447643692e-15 -1.0 4.3240147109612345e-30
  outer loop
    vertex 15.000000000000137 8.999999999999835 8.000000000000215
    vertex 1.3535839116229907e-13 8.999999999999963 8.999999999999998
    vertex 1.3535839116229907e-13 8.999999999999963 8.000000000000002
  endloop
endfacet
facet normal -8.459899447643692e-15 -1.0 4.3240147109612345e-30
  outer loop
    vertex 1.3535839116229907e-13 8.999999999999963 8.999999999999998
    vertex 15.000000000000137 8.999999999999835 8.000000000000215
    vertex 15.000000000000137 8.999999999999835 9.000000000000211
  endloop
endfacet
facet normal -1.6488611267197755e-14 -0.5547001962252281 0.8320502943378444
  outer loop
    vertex 1.8047785488306544e-13 5.999999999999951 6.0
    vertex 15.000000000000137 8.999999999999835 8.000000000000215
    vertex 1.3535839116229907e-13 8.999999999999963 8.000000000000002
  endloop
endfacet
facet normal -1.6488611267197755e-14 -0.5547001962252281 0.8320502943378444
  outer loop
    vertex 15.000000000000137 8.999999999999835 8.000000000000215
    vertex 1.8047785488306544e-13 5.999999999999951 6.0
    vertex 15.000000000000181 5.999999999999824 6.000000000000212
  endloop
endfacet
facet normal -8.459899447643693e-15 -1.0 8.885491277065261e-29
  outer loop
    vertex 15.000000000000163 5.999999999999824 4.500000000000213
    vertex 1.8047785488306544e-13 5.999999999999951 6.0
    vertex 1.64968039229052e-13 5.999999999999951 4.500000000000001
  endloop
endfacet
facet normal -8.459899447643693e-15 -1.0 8.885491277065261e-29
  outer loop
    vertex 1.8047785488306544e-13 5.999999999999951 6.0
    vertex 15.000000000000163 5.999999999999824 4.500000000000213
    vertex 15.000000000000181 5.999999999999824 6.000000000000212
  endloop
endfacet
endsolid Т-Бегунок-9-Косой
