solid Т-Балка-10мм-утоплен
facet normal 4.170896018536359e-16 3.558572618962687e-14 1.0
  outer loop
    vertex 99.99999999999986 5.903689933770013e-13 9.999999999999629
    vertex 3.965577866082981e-16 1.4999999999999996 10.00000000000001
    vertex 0.0 0.0 10.00000000000001
  endloop
endfacet
facet normal 4.170896018536359e-16 3.558572618962687e-14 1.0
  outer loop
    vertex 3.965577866082981e-16 1.4999999999999996 10.00000000000001
    vertex 99.99999999999986 5.903689933770013e-13 9.999999999999629
    vertex 99.99999999999989 1.5000000000006282 9.999999999999524
  endloop
endfacet
facet normal 1.0 -1.2117576180620295e-14 7.404843022276671e-15
  outer loop
    vertex 100.0 10.00000000000055 -3.702421511138335e-13
    vertex 99.99999999999986 5.903689933770013e-13 2.99999999999963
    vertex 99.99999999999986 5.903689933770013e-13 -3.702421511138335e-13
  endloop
endfacet
facet normal 1.0 -1.2117576180620295e-14 7.404843022276671e-15
  outer loop
    vertex 99.99999999999986 5.903689933770013e-13 2.99999999999963
    vertex 100.0 10.00000000000055 -3.702421511138335e-13
    vertex 100.00000000000001 3.000000000000537 2.99999999999963
  endloop
endfacet
facet normal 1.0 -1.2117576180620295e-14 7.404843022276671e-15
  outer loop
    vertex 100.00000000000001 3.000000000000537 2.99999999999963
    vertex 100.0 10.00000000000055 -3.702421511138335e-13
    vertex 100.00000000000001 3.000000000000537 5.9999999999996305
  endloop
endfacet
facet normal 1.0 -1.2117576180620295e-14 7.404843022276671e-15
  outer loop
    vertex 100.00000000000001 3.000000000000537 5.9999999999996305
    vertex 100.0 10.00000000000055 -3.702421511138335e-13
    vertex 100.00000000000004 7.0000000000005445 2.99999999999963
  endloop
endfacet
facet normal 1.0 -1.2117576180620295e-14 7.404843022276671e-15
  outer loop
    vertex 100.00000000000004 7.0000000000005445 2.99999999999963
    vertex 100.0 10.00000000000055 -3.702421511138335e-13
    vertex 100.0 10.00000000000055 2.9999999999996314
  endloop
endfacet
facet normal 1.0 -1.2117576180620295e-14 7.404843022276671e-15
  outer loop
    vertex 100.00000000000001 3.000000000000537 5.9999999999996305
    vertex 99.99999999999986 5.903689933770013e-13 9.999999999999629
    vertex 99.99999999999986 5.903689933770013e-13 7.99999999999963
  endloop
endfacet
facet normal 1.0 -1.2117576180620295e-14 7.404843022276671e-15
  outer loop
    vertex 99.99999999999986 5.903689933770013e-13 9.999999999999629
    vertex 100.00000000000001 3.000000000000537 5.9999999999996305
    vertex 99.99999999999989 1.5000000000006288 8.499999999999524
  endloop
endfacet
facet normal 1.0 -1.2117576180620295e-14 7.404843022276671e-15
  outer loop
    vertex 99.99999999999986 5.903689933770013e-13 9.999999999999629
    vertex 99.99999999999989 1.5000000000006288 8.499999999999524
    vertex 99.99999999999989 1.5000000000006282 9.999999999999524
  endloop
endfacet
facet normal 1.0 -1.2117576180620295e-14 7.404843022276671e-15
  outer loop
    vertex 99.99999999999989 1.5000000000006288 8.499999999999524
    vertex 100.00000000000001 3.000000000000537 5.9999999999996305
    vertex 99.99999999999989 8.500000000000625 8.499999999999524
  endloop
endfacet
facet normal 1.0 -1.2117576180620295e-14 7.404843022276671e-15
  outer loop
    vertex 99.99999999999989 8.500000000000625 8.499999999999524
    vertex 100.00000000000001 3.000000000000537 5.9999999999996305
    vertex 100.00000000000004 7.0000000000005445 5.9999999999996305
  endloop
endfacet
facet normal 1.0 -1.2117576180620295e-14 7.404843022276671e-15
  outer loop
    vertex 100.00000000000004 7.0000000000005445 5.9999999999996305
    vertex 100.00000000000001 3.000000000000537 5.9999999999996305
    vertex 100.00000000000004 7.0000000000005445 2.99999999999963
  endloop
endfacet
facet normal 1.0 -1.2117576180620295e-14 7.404843022276671e-15
  outer loop
    vertex 99.99999999999989 8.500000000000625 8.499999999999524
    vertex 100.00000000000004 7.0000000000005445 5.9999999999996305
    vertex 100.0 10.00000000000055 7.99999999999963
  endloop
endfacet
facet normal 1.0 -1.2117576180620295e-14 7.404843022276671e-15
  outer loop
    vertex 99.99999999999989 8.500000000000625 8.499999999999524
    vertex 100.0 10.00000000000055 7.99999999999963
    vertex 99.99999999999989 8.500000000000625 9.999999999999524
  endloop
endfacet
facet normal 1.0 -1.2117576180620295e-14 7.404843022276671e-15
  outer loop
    vertex 99.99999999999989 8.500000000000625 9.999999999999524
    vertex 100.0 10.00000000000055 7.99999999999963
    vertex 100.0 10.00000000000055 9.999999999999629
  endloop
endfacet
facet normal 4.170896018536325e-16 -3.558572618962675e-14 1.0
  outer loop
    vertex 99.99999999999989 8.500000000000625 9.999999999999524
    vertex 2.643718577388654e-15 10.000000000000002 10.00000000000001
    vertex -1.7385857847693166e-15 8.499999999999996 10.00000000000001
  endloop
endfacet
facet normal 4.170896018536325e-16 -3.558572618962675e-14 1.0
  outer loop
    vertex 2.643718577388654e-15 10.000000000000002 10.00000000000001
    vertex 99.99999999999989 8.500000000000625 9.999999999999524
    vertex 100.0 10.00000000000055 9.999999999999629
  endloop
endfacet
facet normal -3.67761376907083e-16 -1.0 0.0
  outer loop
    vertex 99.99999999999986 5.903689933770013e-13 2.99999999999963
    vertex -6.123233995736764e-16 0.0 9.86988268891764e-15
    vertex 99.99999999999986 5.903689933770013e-13 -3.702421511138335e-13
  endloop
endfacet
facet normal -3.67761376907083e-16 -1.0 0.0
  outer loop
    vertex -6.123233995736764e-16 0.0 9.86988268891764e-15
    vertex 99.99999999999986 5.903689933770013e-13 2.99999999999963
    vertex -4.286263797015728e-16 0.0 3.00000000000001
  endloop
endfacet
facet normal -3.67761376907083e-16 -1.0 0.0
  outer loop
    vertex 100.00000000000001 3.000000000000537 5.9999999999996305
    vertex 9.693634783758397e-16 2.9999999999999996 3.00000000000001
    vertex 100.00000000000001 3.000000000000537 2.99999999999963
  endloop
endfacet
facet normal -3.67761376907083e-16 -1.0 0.0
  outer loop
    vertex 9.693634783758397e-16 2.9999999999999996 3.00000000000001
    vertex 100.00000000000001 3.000000000000537 5.9999999999996305
    vertex 9.693634783758397e-16 2.9999999999999996 6.00000000000001
  endloop
endfacet
facet normal -3.67761376907083e-16 -1.0 0.0
  outer loop
    vertex 99.99999999999986 5.903689933770013e-13 9.999999999999629
    vertex -1.2246467991473493e-16 0.0 8.00000000000001
    vertex 99.99999999999986 5.903689933770013e-13 7.99999999999963
  endloop
endfacet
facet normal -3.67761376907083e-16 -1.0 0.0
  outer loop
    vertex -1.2246467991473493e-16 0.0 8.00000000000001
    vertex 99.99999999999986 5.903689933770013e-13 9.999999999999629
    vertex 0.0 0.0 10.00000000000001
  endloop
endfacet
facet normal 3.67761376907083e-16 1.0 0.0
  outer loop
    vertex 2.643718577388654e-15 10.000000000000002 8.00000000000001
    vertex 100.0 10.00000000000055 9.999999999999629
    vertex 100.0 10.00000000000055 7.99999999999963
  endloop
endfacet
facet normal 3.67761376907083e-16 1.0 0.0
  outer loop
    vertex 100.0 10.00000000000055 9.999999999999629
    vertex 2.643718577388654e-15 10.000000000000002 8.00000000000001
    vertex 2.643718577388654e-15 10.000000000000002 10.00000000000001
  endloop
endfacet
facet normal 3.67761376907083e-16 1.0 0.0
  outer loop
    vertex -1.8506030041720577e-15 6.999999999999996 3.00000000000001
    vertex 100.00000000000004 7.0000000000005445 5.9999999999996305
    vertex 100.00000000000004 7.0000000000005445 2.99999999999963
  endloop
endfacet
facet normal 3.67761376907083e-16 1.0 0.0
  outer loop
    vertex 100.00000000000004 7.0000000000005445 5.9999999999996305
    vertex -1.8506030041720577e-15 6.999999999999996 3.00000000000001
    vertex -1.8506030041720577e-15 6.999999999999996 6.00000000000001
  endloop
endfacet
facet normal 3.67761376907083e-16 1.0 0.0
  outer loop
    vertex 2.643718577388654e-15 10.000000000000002 9.86988268891764e-15
    vertex 100.0 10.00000000000055 2.9999999999996314
    vertex 100.0 10.00000000000055 -3.702421511138335e-13
  endloop
endfacet
facet normal 3.67761376907083e-16 1.0 0.0
  outer loop
    vertex 100.0 10.00000000000055 2.9999999999996314
    vertex 2.643718577388654e-15 10.000000000000002 9.86988268891764e-15
    vertex 2.643718577388654e-15 10.000000000000002 3.0000000000000115
  endloop
endfacet
facet normal -1.0 6.764056085601798e-17 6.931153507366103e-17
  outer loop
    vertex 2.643718577388654e-15 10.000000000000002 10.00000000000001
    vertex -1.8304342947053676e-15 8.499999999999996 8.50000000000001
    vertex -1.7385857847693166e-15 8.499999999999996 10.00000000000001
  endloop
endfacet
facet normal -1.0 6.764056085601798e-17 6.931153507366103e-17
  outer loop
    vertex 3.965577866082981e-16 1.4999999999999996 10.00000000000001
    vertex -1.2246467991473493e-16 0.0 8.00000000000001
    vertex 0.0 0.0 10.00000000000001
  endloop
endfacet
facet normal -1.0 6.764056085601798e-17 6.931153507366103e-17
  outer loop
    vertex -1.2246467991473493e-16 0.0 8.00000000000001
    vertex 3.965577866082981e-16 1.4999999999999996 10.00000000000001
    vertex -1.8304342947053676e-15 1.5 8.50000000000001
  endloop
endfacet
facet normal -1.0 6.764056085601798e-17 6.931153507366103e-17
  outer loop
    vertex -1.2246467991473493e-16 0.0 8.00000000000001
    vertex -1.8304342947053676e-15 1.5 8.50000000000001
    vertex 9.693634783758397e-16 2.9999999999999996 6.00000000000001
  endloop
endfacet
facet normal -1.0 6.764056085601798e-17 6.931153507366103e-17
  outer loop
    vertex 9.693634783758397e-16 2.9999999999999996 6.00000000000001
    vertex -1.8304342947053676e-15 1.5 8.50000000000001
    vertex -1.8304342947053676e-15 8.499999999999996 8.50000000000001
  endloop
endfacet
facet normal -1.0 6.764056085601798e-17 6.931153507366103e-17
  outer loop
    vertex 9.693634783758397e-16 2.9999999999999996 6.00000000000001
    vertex -1.8304342947053676e-15 8.499999999999996 8.50000000000001
    vertex 9.693634783758397e-16 2.9999999999999996 3.00000000000001
  endloop
endfacet
facet normal -1.0 6.764056085601798e-17 6.931153507366103e-17
  outer loop
    vertex 9.693634783758397e-16 2.9999999999999996 3.00000000000001
    vertex -1.8304342947053676e-15 8.499999999999996 8.50000000000001
    vertex -1.8506030041720577e-15 6.999999999999996 6.00000000000001
  endloop
endfacet
facet normal -1.0 6.764056085601798e-17 6.931153507366103e-17
  outer loop
    vertex -1.8506030041720577e-15 6.999999999999996 6.00000000000001
    vertex -1.8304342947053676e-15 8.499999999999996 8.50000000000001
    vertex 2.643718577388654e-15 10.000000000000002 8.00000000000001
  endloop
endfacet
facet normal -1.0 6.764056085601798e-17 6.931153507366103e-17
  outer loop
    vertex 2.643718577388654e-15 10.000000000000002 8.00000000000001
    vertex -1.8304342947053676e-15 8.499999999999996 8.50000000000001
    vertex 2.643718577388654e-15 10.000000000000002 10.00000000000001
  endloop
endfacet
facet normal -1.0 6.764056085601798e-17 6.931153507366103e-17
  outer loop
    vertex 9.693634783758397e-16 2.9999999999999996 3.00000000000001
    vertex -6.123233995736764e-16 0.0 9.86988268891764e-15
    vertex -4.286263797015728e-16 0.0 3.00000000000001
  endloop
endfacet
facet normal -1.0 6.764056085601798e-17 6.931153507366103e-17
  outer loop
    vertex -6.123233995736764e-16 0.0 9.86988268891764e-15
    vertex 9.693634783758397e-16 2.9999999999999996 3.00000000000001
    vertex 2.643718577388654e-15 10.000000000000002 9.86988268891764e-15
  endloop
endfacet
facet normal -1.0 6.764056085601798e-17 6.931153507366103e-17
  outer loop
    vertex 2.643718577388654e-15 10.000000000000002 9.86988268891764e-15
    vertex 9.693634783758397e-16 2.9999999999999996 3.00000000000001
    vertex -1.8506030041720577e-15 6.999999999999996 3.00000000000001
  endloop
endfacet
facet normal -1.0 6.764056085601798e-17 6.931153507366103e-17
  outer loop
    vertex -1.8506030041720577e-15 6.999999999999996 3.00000000000001
    vertex 9.693634783758397e-16 2.9999999999999996 3.00000000000001
    vertex -1.8506030041720577e-15 6.999999999999996 6.00000000000001
  endloop
endfacet
facet normal -1.0 6.764056085601798e-17 6.931153507366103e-17
  outer loop
    vertex 2.643718577388654e-15 10.000000000000002 9.86988268891764e-15
    vertex -1.8506030041720577e-15 6.999999999999996 3.00000000000001
    vertex 2.643718577388654e-15 10.000000000000002 3.0000000000000115
  endloop
endfacet
facet normal 7.729468637499057e-16 0.0 1.0
  outer loop
    vertex 99.99999999999989 1.5000000000006288 8.499999999999524
    vertex -1.8304342947053676e-15 8.499999999999996 8.50000000000001
    vertex -1.8304342947053676e-15 1.5 8.50000000000001
  endloop
endfacet
facet normal 7.729468637499057e-16 0.0 1.0
  outer loop
    vertex -1.8304342947053676e-15 8.499999999999996 8.50000000000001
    vertex 99.99999999999989 1.5000000000006288 8.499999999999524
    vertex 99.99999999999989 8.500000000000625 8.499999999999524
  endloop
endfacet
facet normal 1.597981006777143e-16 -1.0 -1.6743821971378223e-31
  outer loop
    vertex 99.99999999999989 8.500000000000625 9.999999999999524
    vertex -1.8304342947053676e-15 8.499999999999996 8.50000000000001
    vertex 99.99999999999989 8.500000000000625 8.499999999999524
  endloop
endfacet
facet normal 1.597981006777143e-16 -1.0 -1.6743821971378223e-31
  outer loop
    vertex -1.8304342947053676e-15 8.499999999999996 8.50000000000001
    vertex 99.99999999999989 8.500000000000625 9.999999999999524
    vertex -1.7385857847693166e-15 8.499999999999996 10.00000000000001
  endloop
endfacet
facet normal -1.5157319843694933e-16 1.0 3.5249581031848733e-16
  outer loop
    vertex -1.8304342947053676e-15 1.5 8.50000000000001
    vertex 99.99999999999989 1.5000000000006282 9.999999999999524
    vertex 99.99999999999989 1.5000000000006288 8.499999999999524
  endloop
endfacet
facet normal -1.5157319843694933e-16 1.0 3.5249581031848733e-16
  outer loop
    vertex 99.99999999999989 1.5000000000006282 9.999999999999524
    vertex -1.8304342947053676e-15 1.5 8.50000000000001
    vertex 3.965577866082981e-16 1.4999999999999996 10.00000000000001
  endloop
endfacet
facet normal -2.5326962749261384e-16 0.5547001962252288 -0.8320502943378438
  outer loop
    vertex 2.643718577388654e-15 10.000000000000002 8.00000000000001
    vertex 100.00000000000004 7.0000000000005445 5.9999999999996305
    vertex -1.8506030041720577e-15 6.999999999999996 6.00000000000001
  endloop
endfacet
facet normal -2.5326962749261384e-16 0.5547001962252288 -0.8320502943378438
  outer loop
    vertex 100.00000000000004 7.0000000000005445 5.9999999999996305
    vertex 2.643718577388654e-15 10.000000000000002 8.00000000000001
    vertex 100.0 10.00000000000055 7.99999999999963
  endloop
endfacet
facet normal -4.85722573273506e-17 -0.5547001962252291 -0.8320502943378438
  outer loop
    vertex 9.693634783758397e-16 2.9999999999999996 6.00000000000001
    vertex 99.99999999999986 5.903689933770013e-13 7.99999999999963
    vertex -1.2246467991473493e-16 0.0 8.00000000000001
  endloop
endfacet
facet normal -4.85722573273506e-17 -0.5547001962252291 -0.8320502943378438
  outer loop
    vertex 99.99999999999986 5.903689933770013e-13 7.99999999999963
    vertex 9.693634783758397e-16 2.9999999999999996 6.00000000000001
    vertex 100.00000000000001 3.000000000000537 5.9999999999996305
  endloop
endfacet
facet normal 6.123233995736755e-17 -4.699944137579828e-16 1.0
  outer loop
    vertex 100.00000000000004 7.0000000000005445 2.99999999999963
    vertex 2.643718577388654e-15 10.000000000000002 3.0000000000000115
    vertex -1.8506030041720577e-15 6.999999999999996 3.00000000000001
  endloop
endfacet
facet normal 6.123233995736755e-17 -4.699944137579828e-16 1.0
  outer loop
    vertex 2.643718577388654e-15 10.000000000000002 3.0000000000000115
    vertex 100.00000000000004 7.0000000000005445 2.99999999999963
    vertex 100.0 10.00000000000055 2.9999999999996314
  endloop
endfacet
facet normal -6.579921792611762e-17 6.491192337836292e-31 -1.0
  outer loop
    vertex 2.643718577388654e-15 10.000000000000002 9.86988268891764e-15
    vertex 99.99999999999986 5.903689933770013e-13 -3.702421511138335e-13
    vertex -6.123233995736764e-16 0.0 9.86988268891764e-15
  endloop
endfacet
facet normal -6.579921792611762e-17 6.491192337836292e-31 -1.0
  outer loop
    vertex 99.99999999999986 5.903689933770013e-13 -3.702421511138335e-13
    vertex 2.643718577388654e-15 10.000000000000002 9.86988268891764e-15
    vertex 100.0 10.00000000000055 -3.702421511138335e-13
  endloop
endfacet
facet normal 6.123233995736759e-17 5.7777898331617076e-33 1.0
  outer loop
    vertex 99.99999999999986 5.903689933770013e-13 2.99999999999963
    vertex 9.693634783758397e-16 2.9999999999999996 3.00000000000001
    vertex -4.286263797015728e-16 0.0 3.00000000000001
  endloop
endfacet
facet normal 6.123233995736759e-17 5.7777898331617076e-33 1.0
  outer loop
    vertex 9.693634783758397e-16 2.9999999999999996 3.00000000000001
    vertex 99.99999999999986 5.903689933770013e-13 2.99999999999963
    vertex 100.00000000000001 3.000000000000537 2.99999999999963
  endloop
endfacet
endsolid Т-Балка-10мм-утоплен
