solid Т-Бегунок-20мм-Разборной
facet normal 1.0 -5.914030736681755e-16 -7.954670382790835e-16
  outer loop
    vertex 80.75070791218222 74.12824440963438 0.0
    vertex 80.7507079121822 58.37824440963439 3.499999999999992
    vertex 80.7507079121822 48.128244409634455 2.8199664825478975e-15
  endloop
endfacet
facet normal 1.0 -5.914030736681755e-16 -7.954670382790835e-16
  outer loop
    vertex 80.7507079121822 58.37824440963439 3.499999999999992
    vertex 80.75070791218222 74.12824440963438 0.0
    vertex 80.7507079121822 63.87824440963437 3.4999999999999893
  endloop
endfacet
facet normal 1.0 -5.914030736681755e-16 -7.954670382790835e-16
  outer loop
    vertex 80.7507079121822 63.87824440963437 3.4999999999999893
    vertex 80.75070791218222 74.12824440963438 0.0
    vertex 80.75070791218222 63.87824440963437 9.999999999999991
  endloop
endfacet
facet normal 1.0 -5.914030736681755e-16 -7.954670382790835e-16
  outer loop
    vertex 80.75070791218222 63.87824440963437 9.999999999999991
    vertex 80.75070791218222 74.12824440963438 0.0
    vertex 80.75070791218221 74.12824440963435 9.999999999999991
  endloop
endfacet
facet normal 1.0 -5.914030736681755e-16 -7.954670382790835e-16
  outer loop
    vertex 80.7507079121822 48.128244409634455 2.8199664825478975e-15
    vertex 80.75070791218221 58.37824440963439 9.999999999999991
    vertex 80.75070791218222 48.12824440963445 9.999999999999991
  endloop
endfacet
facet normal 1.0 -5.914030736681755e-16 -7.954670382790835e-16
  outer loop
    vertex 80.75070791218221 58.37824440963439 9.999999999999991
    vertex 80.7507079121822 48.128244409634455 2.8199664825478975e-15
    vertex 80.7507079121822 58.37824440963439 3.499999999999992
  endloop
endfacet
facet normal -1.6243057332179768e-16 1.0 -7.546180150014358e-18
  outer loop
    vertex 45.75070791218222 58.378244409634384 3.5000000000000315
    vertex 70.21348821922977 58.378244409634405 5.7442964258242135
    vertex 70.54995297786306 58.378244409634405 5.700000000000012
  endloop
endfacet
facet normal -1.6243057332179768e-16 1.0 -7.546180150014358e-18
  outer loop
    vertex 70.21348821922977 58.378244409634405 5.7442964258242135
    vertex 45.75070791218222 58.378244409634384 3.5000000000000315
    vertex 45.750707912182236 58.378244409634384 10.999999999999993
  endloop
endfacet
facet normal -1.6243057332179768e-16 1.0 -7.546180150014358e-18
  outer loop
    vertex 70.21348821922977 58.378244409634405 5.7442964258242135
    vertex 45.750707912182236 58.378244409634384 10.999999999999993
    vertex 69.89995297786304 58.378244409634405 5.874166975080231
  endloop
endfacet
facet normal -1.6243057332179768e-16 1.0 -7.546180150014358e-18
  outer loop
    vertex 69.89995297786304 58.378244409634405 5.874166975080231
    vertex 45.750707912182236 58.378244409634384 10.999999999999993
    vertex 69.63071416232054 58.378244409634405 6.080761184457489
  endloop
endfacet
facet normal -1.6243057332179768e-16 1.0 -7.546180150014358e-18
  outer loop
    vertex 69.63071416232054 58.378244409634405 6.080761184457489
    vertex 45.750707912182236 58.378244409634384 10.999999999999993
    vertex 69.42411995294329 58.378244409634405 6.3500000000000085
  endloop
endfacet
facet normal -1.6243057332179768e-16 1.0 -7.546180150014358e-18
  outer loop
    vertex 69.42411995294329 58.378244409634405 6.3500000000000085
    vertex 45.750707912182236 58.378244409634384 10.999999999999993
    vertex 69.29424940368726 58.378244409634405 6.66353524136673
  endloop
endfacet
facet normal -1.6243057332179768e-16 1.0 -7.546180150014358e-18
  outer loop
    vertex 69.29424940368726 58.378244409634405 6.66353524136673
    vertex 45.750707912182236 58.378244409634384 10.999999999999993
    vertex 69.24995297786305 58.378244409634405 7.000000000000008
  endloop
endfacet
facet normal -1.6243057332179768e-16 1.0 -7.546180150014358e-18
  outer loop
    vertex 69.24995297786305 58.378244409634405 7.000000000000008
    vertex 45.750707912182236 58.378244409634384 10.999999999999993
    vertex 69.29424940368726 58.378244409634405 7.336464758633282
  endloop
endfacet
facet normal -1.6243057332179768e-16 1.0 -7.546180150014358e-18
  outer loop
    vertex 69.29424940368726 58.378244409634405 7.336464758633282
    vertex 45.750707912182236 58.378244409634384 10.999999999999993
    vertex 69.42411995294329 58.378244409634405 7.6500000000000075
  endloop
endfacet
facet normal -1.6243057332179768e-16 1.0 -7.546180150014358e-18
  outer loop
    vertex 69.42411995294329 58.378244409634405 7.6500000000000075
    vertex 45.750707912182236 58.378244409634384 10.999999999999993
    vertex 69.63071416232054 58.378244409634405 7.919238815542523
  endloop
endfacet
facet normal -1.6243057332179768e-16 1.0 -7.546180150014358e-18
  outer loop
    vertex 69.63071416232054 58.378244409634405 7.919238815542523
    vertex 45.750707912182236 58.378244409634384 10.999999999999993
    vertex 69.89995297786304 58.378244409634405 8.125833024919778
  endloop
endfacet
facet normal -1.6243057332179768e-16 1.0 -7.546180150014358e-18
  outer loop
    vertex 69.89995297786304 58.378244409634405 8.125833024919778
    vertex 45.750707912182236 58.378244409634384 10.999999999999993
    vertex 70.21348821922977 58.378244409634405 8.25570357417579
  endloop
endfacet
facet normal -1.6243057332179768e-16 1.0 -7.546180150014358e-18
  outer loop
    vertex 70.21348821922977 58.378244409634405 8.25570357417579
    vertex 45.750707912182236 58.378244409634384 10.999999999999993
    vertex 70.54995297786306 58.378244409634405 8.299999999999999
  endloop
endfacet
facet normal -1.6243057332179768e-16 1.0 -7.546180150014358e-18
  outer loop
    vertex 70.54995297786306 58.378244409634405 8.299999999999999
    vertex 45.750707912182236 58.378244409634384 10.999999999999993
    vertex 80.75070791218221 58.37824440963439 9.999999999999991
  endloop
endfacet
facet normal -1.6243057332179768e-16 1.0 -7.546180150014358e-18
  outer loop
    vertex 80.75070791218221 58.37824440963439 9.999999999999991
    vertex 45.750707912182236 58.378244409634384 10.999999999999993
    vertex 79.75070791218222 58.37824440963439 10.99999999999998
  endloop
endfacet
facet normal -1.6243057332179768e-16 1.0 -7.546180150014358e-18
  outer loop
    vertex 80.7507079121822 58.37824440963439 3.499999999999992
    vertex 71.19995297786305 58.378244409634405 5.874166975080235
    vertex 80.75070791218221 58.37824440963439 9.999999999999991
  endloop
endfacet
facet normal -1.6243057332179768e-16 1.0 -7.546180150014358e-18
  outer loop
    vertex 71.19995297786305 58.378244409634405 5.874166975080235
    vertex 80.7507079121822 58.37824440963439 3.499999999999992
    vertex 70.88641773649633 58.378244409634405 5.744296425824222
  endloop
endfacet
facet normal -1.6243057332179768e-16 1.0 -7.546180150014358e-18
  outer loop
    vertex 70.88641773649633 58.378244409634405 5.744296425824222
    vertex 80.7507079121822 58.37824440963439 3.499999999999992
    vertex 70.54995297786306 58.378244409634405 5.700000000000012
  endloop
endfacet
facet normal -1.6243057332179768e-16 1.0 -7.546180150014358e-18
  outer loop
    vertex 70.54995297786306 58.378244409634405 5.700000000000012
    vertex 80.7507079121822 58.37824440963439 3.499999999999992
    vertex 45.75070791218222 58.378244409634384 3.5000000000000315
  endloop
endfacet
facet normal -1.6243057332179768e-16 1.0 -7.546180150014358e-18
  outer loop
    vertex 80.75070791218221 58.37824440963439 9.999999999999991
    vertex 71.19995297786305 58.378244409634405 5.874166975080235
    vertex 71.46919179340556 58.378244409634405 6.080761184457496
  endloop
endfacet
facet normal -1.6243057332179768e-16 1.0 -7.546180150014358e-18
  outer loop
    vertex 80.75070791218221 58.37824440963439 9.999999999999991
    vertex 71.46919179340556 58.378244409634405 6.080761184457496
    vertex 71.67578600278281 58.37824440963439 6.350000000000011
  endloop
endfacet
facet normal -1.6243057332179768e-16 1.0 -7.546180150014358e-18
  outer loop
    vertex 80.75070791218221 58.37824440963439 9.999999999999991
    vertex 71.67578600278281 58.37824440963439 6.350000000000011
    vertex 71.80565655203883 58.37824440963439 6.66353524136673
  endloop
endfacet
facet normal -1.6243057332179768e-16 1.0 -7.546180150014358e-18
  outer loop
    vertex 80.75070791218221 58.37824440963439 9.999999999999991
    vertex 71.80565655203883 58.37824440963439 6.66353524136673
    vertex 71.84995297786305 58.37824440963439 7.000000000000003
  endloop
endfacet
facet normal -1.6243057332179768e-16 1.0 -7.546180150014358e-18
  outer loop
    vertex 80.75070791218221 58.37824440963439 9.999999999999991
    vertex 71.84995297786305 58.37824440963439 7.000000000000003
    vertex 71.80565655203883 58.37824440963439 7.336464758633285
  endloop
endfacet
facet normal -1.6243057332179768e-16 1.0 -7.546180150014358e-18
  outer loop
    vertex 80.75070791218221 58.37824440963439 9.999999999999991
    vertex 71.80565655203883 58.37824440963439 7.336464758633285
    vertex 71.67578600278283 58.37824440963439 7.65000000000001
  endloop
endfacet
facet normal -1.6243057332179768e-16 1.0 -7.546180150014358e-18
  outer loop
    vertex 80.75070791218221 58.37824440963439 9.999999999999991
    vertex 71.67578600278283 58.37824440963439 7.65000000000001
    vertex 71.46919179340556 58.378244409634405 7.919238815542518
  endloop
endfacet
facet normal -1.6243057332179768e-16 1.0 -7.546180150014358e-18
  outer loop
    vertex 80.75070791218221 58.37824440963439 9.999999999999991
    vertex 71.46919179340556 58.378244409634405 7.919238815542518
    vertex 71.19995297786305 58.378244409634405 8.12583302491978
  endloop
endfacet
facet normal -1.6243057332179768e-16 1.0 -7.546180150014358e-18
  outer loop
    vertex 80.75070791218221 58.37824440963439 9.999999999999991
    vertex 71.19995297786305 58.378244409634405 8.12583302491978
    vertex 70.88641773649633 58.378244409634405 8.255703574175799
  endloop
endfacet
facet normal -1.6243057332179768e-16 1.0 -7.546180150014358e-18
  outer loop
    vertex 80.75070791218221 58.37824440963439 9.999999999999991
    vertex 70.88641773649633 58.378244409634405 8.255703574175799
    vertex 70.54995297786306 58.378244409634405 8.299999999999999
  endloop
endfacet
facet normal -0.7933533402912307 -4.5205528791083004e-17 0.6087614290087263
  outer loop
    vertex 72.28200378543193 74.12824440963436 6.000000000000011
    vertex 71.96416654023614 63.87824440963437 5.5857864376269095
    vertex 72.28200378543193 63.87824440963437 6.000000000000003
  endloop
endfacet
facet normal -0.7933533402912307 -4.5205528791083004e-17 0.6087614290087263
  outer loop
    vertex 71.96416654023614 63.87824440963437 5.5857864376269095
    vertex 72.28200378543193 74.12824440963436 6.000000000000011
    vertex 71.96416654023614 74.12824440963436 5.5857864376269175
  endloop
endfacet
facet normal -0.9914448613738105 1.258334796435976e-16 -0.13052619222005188
  outer loop
    vertex 72.48180463044119 74.12824440963436 7.517638090205051
    vertex 72.54995297786304 63.87824440963437 7.0
    vertex 72.48180463044119 63.87824440963437 7.5176380902050415
  endloop
endfacet
facet normal -0.9914448613738105 1.258334796435976e-16 -0.13052619222005188
  outer loop
    vertex 72.54995297786304 63.87824440963437 7.0
    vertex 72.48180463044119 74.12824440963436 7.517638090205051
    vertex 72.54995297786304 74.12824440963436 7.00000000000001
  endloop
endfacet
facet normal -0.3826834323650846 -6.040276360517791e-16 0.923879532511289
  outer loop
    vertex 71.54995297786304 63.87824440963437 5.267949192431129
    vertex 71.06759106806808 74.12824440963436 5.068148347421877
    vertex 71.06759106806808 63.87824440963437 5.068148347421871
  endloop
endfacet
facet normal -0.3826834323650846 -6.040276360517791e-16 0.923879532511289
  outer loop
    vertex 71.06759106806808 74.12824440963436 5.068148347421877
    vertex 71.54995297786304 63.87824440963437 5.267949192431129
    vertex 71.54995297786304 74.12824440963436 5.267949192431136
  endloop
endfacet
facet normal -0.6087614290087253 -5.7256647089065e-16 0.7933533402912318
  outer loop
    vertex 71.96416654023614 63.87824440963437 5.5857864376269095
    vertex 71.54995297786304 74.12824440963436 5.267949192431136
    vertex 71.54995297786304 63.87824440963437 5.267949192431129
  endloop
endfacet
facet normal -0.6087614290087253 -5.7256647089065e-16 0.7933533402912318
  outer loop
    vertex 71.54995297786304 74.12824440963436 5.267949192431136
    vertex 71.96416654023614 63.87824440963437 5.5857864376269095
    vertex 71.96416654023614 74.12824440963436 5.5857864376269175
  endloop
endfacet
facet normal -0.923879532511286 2.0600558615138553e-16 0.3826834323650917
  outer loop
    vertex 72.48180463044119 74.12824440963436 6.482361909794968
    vertex 72.28200378543193 63.87824440963437 6.000000000000003
    vertex 72.48180463044119 63.87824440963437 6.48236190979496
  endloop
endfacet
facet normal -0.923879532511286 2.0600558615138553e-16 0.3826834323650917
  outer loop
    vertex 72.28200378543193 63.87824440963437 6.000000000000003
    vertex 72.48180463044119 74.12824440963436 6.482361909794968
    vertex 72.28200378543193 74.12824440963436 6.000000000000011
  endloop
endfacet
facet normal -0.9914448613738105 -1.1436247183078358e-16 0.13052619222005193
  outer loop
    vertex 72.54995297786304 74.12824440963436 7.00000000000001
    vertex 72.48180463044119 63.87824440963437 6.48236190979496
    vertex 72.54995297786304 63.87824440963437 7.0
  endloop
endfacet
facet normal -0.9914448613738105 -1.1436247183078358e-16 0.13052619222005193
  outer loop
    vertex 72.48180463044119 63.87824440963437 6.48236190979496
    vertex 72.54995297786304 74.12824440963436 7.00000000000001
    vertex 72.48180463044119 74.12824440963436 6.482361909794968
  endloop
endfacet
facet normal -0.92387953251129 3.454851030035504e-16 -0.3826834323650824
  outer loop
    vertex 72.28200378543193 74.12824440963436 8.000000000000007
    vertex 72.48180463044119 63.87824440963437 7.5176380902050415
    vertex 72.28200378543193 63.87824440963437 7.999999999999999
  endloop
endfacet
facet normal -0.92387953251129 3.454851030035504e-16 -0.3826834323650824
  outer loop
    vertex 72.48180463044119 63.87824440963437 7.5176380902050415
    vertex 72.28200378543193 74.12824440963436 8.000000000000007
    vertex 72.48180463044119 74.12824440963436 7.517638090205051
  endloop
endfacet
facet normal -0.793353340291232 9.708398848422033e-17 -0.608761429008725
  outer loop
    vertex 71.96416654023614 74.12824440963436 8.414213562373103
    vertex 72.28200378543193 63.87824440963437 7.999999999999999
    vertex 71.96416654023615 63.87824440963437 8.414213562373094
  endloop
endfacet
facet normal -0.793353340291232 9.708398848422033e-17 -0.608761429008725
  outer loop
    vertex 72.28200378543193 63.87824440963437 7.999999999999999
    vertex 71.96416654023614 74.12824440963436 8.414213562373103
    vertex 72.28200378543193 74.12824440963436 8.000000000000007
  endloop
endfacet
facet normal -0.6087614290087205 3.2652552471439135e-16 -0.7933533402912353
  outer loop
    vertex 71.96416654023614 74.12824440963436 8.414213562373103
    vertex 71.54995297786304 63.87824440963437 8.732050807568877
    vertex 71.54995297786304 74.12824440963436 8.732050807568884
  endloop
endfacet
facet normal -0.6087614290087205 3.2652552471439135e-16 -0.7933533402912353
  outer loop
    vertex 71.54995297786304 63.87824440963437 8.732050807568877
    vertex 71.96416654023614 74.12824440963436 8.414213562373103
    vertex 71.96416654023615 63.87824440963437 8.414213562373094
  endloop
endfacet
facet normal -0.13052619222005143 6.14224787640501e-16 -0.9914448613738105
  outer loop
    vertex 71.0675910680681 74.12824440963436 8.931851652578143
    vertex 70.54995297786306 63.87824440963437 9.0
    vertex 70.54995297786306 74.12824440963436 9.000000000000005
  endloop
endfacet
facet normal -0.13052619222005143 6.14224787640501e-16 -0.9914448613738105
  outer loop
    vertex 70.54995297786306 63.87824440963437 9.0
    vertex 71.0675910680681 74.12824440963436 8.931851652578143
    vertex 71.0675910680681 63.87824440963437 8.931851652578137
  endloop
endfacet
facet normal -0.3826834323650941 6.673828769003842e-16 -0.9238795325112852
  outer loop
    vertex 71.54995297786304 74.12824440963436 8.732050807568884
    vertex 71.0675910680681 63.87824440963437 8.931851652578137
    vertex 71.0675910680681 74.12824440963436 8.931851652578143
  endloop
endfacet
facet normal -0.3826834323650941 6.673828769003842e-16 -0.9238795325112852
  outer loop
    vertex 71.0675910680681 63.87824440963437 8.931851652578137
    vertex 71.54995297786304 74.12824440963436 8.732050807568884
    vertex 71.54995297786304 63.87824440963437 8.732050807568877
  endloop
endfacet
facet normal 0.13052619222005082 6.171830538643275e-16 -0.9914448613738105
  outer loop
    vertex 70.54995297786306 74.12824440963436 9.000000000000005
    vertex 70.03231488765802 63.87824440963437 8.931851652578139
    vertex 70.032314887658 74.12824440963436 8.931851652578143
  endloop
endfacet
facet normal 0.13052619222005082 6.171830538643275e-16 -0.9914448613738105
  outer loop
    vertex 70.03231488765802 63.87824440963437 8.931851652578139
    vertex 70.54995297786306 74.12824440963436 9.000000000000005
    vertex 70.54995297786306 63.87824440963437 9.0
  endloop
endfacet
facet normal 0.9914448613738105 -4.275557457503494e-17 0.13052619222005185
  outer loop
    vertex 68.61810132528493 74.12824440963436 6.48236190979497
    vertex 68.54995297786306 63.87824440963437 7.000000000000008
    vertex 68.61810132528493 63.87824440963437 6.482361909794966
  endloop
endfacet
facet normal 0.9914448613738105 -4.275557457503494e-17 0.13052619222005185
  outer loop
    vertex 68.54995297786306 63.87824440963437 7.000000000000008
    vertex 68.61810132528493 74.12824440963436 6.48236190979497
    vertex 68.54995297786306 74.12824440963436 7.00000000000001
  endloop
endfacet
facet normal 0.6087614290087247 2.662117170930701e-16 -0.7933533402912321
  outer loop
    vertex 69.54995297786306 74.12824440963436 8.732050807568884
    vertex 69.13573941548997 63.87824440963437 8.4142135623731
    vertex 69.13573941548997 74.12824440963436 8.414213562373103
  endloop
endfacet
facet normal 0.6087614290087247 2.662117170930701e-16 -0.7933533402912321
  outer loop
    vertex 69.13573941548997 63.87824440963437 8.4142135623731
    vertex 69.54995297786306 74.12824440963436 8.732050807568884
    vertex 69.54995297786306 63.87824440963437 8.73205080756888
  endloop
endfacet
facet normal 0.3826834323650885 6.2318207975846e-16 -0.9238795325112875
  outer loop
    vertex 70.032314887658 74.12824440963436 8.931851652578143
    vertex 69.54995297786306 63.87824440963437 8.73205080756888
    vertex 69.54995297786306 74.12824440963436 8.732050807568884
  endloop
endfacet
facet normal 0.3826834323650885 6.2318207975846e-16 -0.9238795325112875
  outer loop
    vertex 69.54995297786306 63.87824440963437 8.73205080756888
    vertex 70.032314887658 74.12824440963436 8.931851652578143
    vertex 70.03231488765802 63.87824440963437 8.931851652578139
  endloop
endfacet
facet normal 0.7933533402912314 6.202978369599665e-16 -0.6087614290087255
  outer loop
    vertex 68.81790217029418 74.12824440963436 8.000000000000009
    vertex 69.13573941548997 63.87824440963437 8.4142135623731
    vertex 68.81790217029419 63.87824440963437 8.000000000000005
  endloop
endfacet
facet normal 0.7933533402912314 6.202978369599665e-16 -0.6087614290087255
  outer loop
    vertex 69.13573941548997 63.87824440963437 8.4142135623731
    vertex 68.81790217029418 74.12824440963436 8.000000000000009
    vertex 69.13573941548997 74.12824440963436 8.414213562373103
  endloop
endfacet
facet normal 0.923879532511286 6.136576250936379e-16 -0.38268343236509206
  outer loop
    vertex 68.61810132528493 74.12824440963436 7.517638090205051
    vertex 68.81790217029419 63.87824440963437 8.000000000000005
    vertex 68.61810132528493 63.87824440963437 7.5176380902050495
  endloop
endfacet
facet normal 0.923879532511286 6.136576250936379e-16 -0.38268343236509206
  outer loop
    vertex 68.81790217029419 63.87824440963437 8.000000000000005
    vertex 68.61810132528493 74.12824440963436 7.517638090205051
    vertex 68.81790217029418 74.12824440963436 8.000000000000009
  endloop
endfacet
facet normal 0.9914448613738105 2.885132268071365e-17 -0.13052619222005193
  outer loop
    vertex 68.54995297786306 74.12824440963436 7.00000000000001
    vertex 68.61810132528493 63.87824440963437 7.5176380902050495
    vertex 68.54995297786306 63.87824440963437 7.000000000000008
  endloop
endfacet
facet normal 0.9914448613738105 2.885132268071365e-17 -0.13052619222005193
  outer loop
    vertex 68.61810132528493 63.87824440963437 7.5176380902050495
    vertex 68.54995297786306 74.12824440963436 7.00000000000001
    vertex 68.61810132528493 74.12824440963436 7.517638090205051
  endloop
endfacet
facet normal 0.92387953251129 -1.513408194573075e-16 0.3826834323650825
  outer loop
    vertex 68.81790217029418 74.12824440963436 6.000000000000012
    vertex 68.61810132528493 63.87824440963437 6.482361909794966
    vertex 68.81790217029418 63.87824440963437 6.000000000000009
  endloop
endfacet
facet normal 0.92387953251129 -1.513408194573075e-16 0.3826834323650825
  outer loop
    vertex 68.61810132528493 63.87824440963437 6.482361909794966
    vertex 68.81790217029418 74.12824440963436 6.000000000000012
    vertex 68.61810132528493 74.12824440963436 6.48236190979497
  endloop
endfacet
facet normal 0.7933533402912345 1.118006373799614e-15 -0.6087614290087215
  outer loop
    vertex 69.42411995294329 58.378244409634405 7.6500000000000075
    vertex 69.63071416232056 48.12824440963442 7.919238815542532
    vertex 69.4241199529433 48.12824440963442 7.65000000000002
  endloop
endfacet
facet normal 0.7933533402912345 1.118006373799614e-15 -0.6087614290087215
  outer loop
    vertex 69.63071416232056 48.12824440963442 7.919238815542532
    vertex 69.42411995294329 58.378244409634405 7.6500000000000075
    vertex 69.63071416232054 58.378244409634405 7.919238815542523
  endloop
endfacet
facet normal 0.9238795325112849 1.6126179712047223e-15 -0.3826834323650947
  outer loop
    vertex 69.29424940368726 58.378244409634405 7.336464758633282
    vertex 69.4241199529433 48.12824440963442 7.65000000000002
    vertex 69.29424940368727 48.12824440963442 7.336464758633292
  endloop
endfacet
facet normal 0.9238795325112849 1.6126179712047223e-15 -0.3826834323650947
  outer loop
    vertex 69.4241199529433 48.12824440963442 7.65000000000002
    vertex 69.29424940368726 58.378244409634405 7.336464758633282
    vertex 69.42411995294329 58.378244409634405 7.6500000000000075
  endloop
endfacet
facet normal 0.9914448613738105 2.5927566949102625e-15 -0.13052619222005185
  outer loop
    vertex 69.24995297786305 58.378244409634405 7.000000000000008
    vertex 69.29424940368727 48.12824440963442 7.336464758633292
    vertex 69.24995297786307 48.12824440963442 7.0000000000000195
  endloop
endfacet
facet normal 0.9914448613738105 2.5927566949102625e-15 -0.13052619222005185
  outer loop
    vertex 69.29424940368727 48.12824440963442 7.336464758633292
    vertex 69.24995297786305 58.378244409634405 7.000000000000008
    vertex 69.29424940368726 58.378244409634405 7.336464758633282
  endloop
endfacet
facet normal 0.9914448613738107 2.880392123573002e-15 0.1305261922200497
  outer loop
    vertex 69.29424940368726 58.378244409634405 6.66353524136673
    vertex 69.24995297786307 48.12824440963442 7.0000000000000195
    vertex 69.29424940368727 48.12824440963442 6.663535241366742
  endloop
endfacet
facet normal 0.9914448613738107 2.880392123573002e-15 0.1305261922200497
  outer loop
    vertex 69.24995297786307 48.12824440963442 7.0000000000000195
    vertex 69.29424940368726 58.378244409634405 6.66353524136673
    vertex 69.24995297786305 58.378244409634405 7.000000000000008
  endloop
endfacet
facet normal 0.9238795325112833 2.427922049089235e-15 0.3826834323650984
  outer loop
    vertex 69.42411995294329 58.378244409634405 6.3500000000000085
    vertex 69.29424940368727 48.12824440963442 6.663535241366742
    vertex 69.4241199529433 48.12824440963442 6.3500000000000165
  endloop
endfacet
facet normal 0.9238795325112833 2.427922049089235e-15 0.3826834323650984
  outer loop
    vertex 69.29424940368727 48.12824440963442 6.663535241366742
    vertex 69.42411995294329 58.378244409634405 6.3500000000000085
    vertex 69.29424940368726 58.378244409634405 6.66353524136673
  endloop
endfacet
facet normal 0.13052619222002332 1.1737880612650852e-15 0.9914448613738143
  outer loop
    vertex 70.21348821922979 48.12824440963442 5.744296425824222
    vertex 70.54995297786306 58.378244409634405 5.700000000000012
    vertex 70.21348821922977 58.378244409634405 5.7442964258242135
  endloop
endfacet
facet normal 0.13052619222002332 1.1737880612650852e-15 0.9914448613738143
  outer loop
    vertex 70.54995297786306 58.378244409634405 5.700000000000012
    vertex 70.21348821922979 48.12824440963442 5.744296425824222
    vertex 70.54995297786307 48.12824440963442 5.700000000000021
  endloop
endfacet
facet normal 0.6087614290087305 2.6027451518352735e-15 0.7933533402912277
  outer loop
    vertex 69.63071416232056 48.12824440963442 6.080761184457502
    vertex 69.89995297786304 58.378244409634405 5.874166975080231
    vertex 69.63071416232054 58.378244409634405 6.080761184457489
  endloop
endfacet
facet normal 0.6087614290087305 2.6027451518352735e-15 0.7933533402912277
  outer loop
    vertex 69.89995297786304 58.378244409634405 5.874166975080231
    vertex 69.63071416232056 48.12824440963442 6.080761184457502
    vertex 69.89995297786308 48.12824440963442 5.874166975080242
  endloop
endfacet
facet normal 0.38268343236509084 1.9746898953375766e-15 0.9238795325112863
  outer loop
    vertex 69.89995297786308 48.12824440963442 5.874166975080242
    vertex 70.21348821922977 58.378244409634405 5.7442964258242135
    vertex 69.89995297786304 58.378244409634405 5.874166975080231
  endloop
endfacet
facet normal 0.38268343236509084 1.9746898953375766e-15 0.9238795325112863
  outer loop
    vertex 70.21348821922977 58.378244409634405 5.7442964258242135
    vertex 69.89995297786308 48.12824440963442 5.874166975080242
    vertex 70.21348821922979 48.12824440963442 5.744296425824222
  endloop
endfacet
facet normal -0.13052619222005316 5.652093601127535e-16 0.9914448613738103
  outer loop
    vertex 70.54995297786307 48.12824440963442 5.700000000000021
    vertex 70.88641773649633 58.378244409634405 5.744296425824222
    vertex 70.54995297786306 58.378244409634405 5.700000000000012
  endloop
endfacet
facet normal -0.13052619222005316 5.652093601127535e-16 0.9914448613738103
  outer loop
    vertex 70.88641773649633 58.378244409634405 5.744296425824222
    vertex 70.54995297786307 48.12824440963442 5.700000000000021
    vertex 70.88641773649634 48.12824440963442 5.744296425824231
  endloop
endfacet
facet normal -0.6087614290087264 -5.761492486734094e-16 0.7933533402912307
  outer loop
    vertex 71.19995297786308 48.12824440963442 5.874166975080245
    vertex 71.46919179340556 58.378244409634405 6.080761184457496
    vertex 71.19995297786305 58.378244409634405 5.874166975080235
  endloop
endfacet
facet normal -0.6087614290087264 -5.761492486734094e-16 0.7933533402912307
  outer loop
    vertex 71.46919179340556 58.378244409634405 6.080761184457496
    vertex 71.19995297786308 48.12824440963442 5.874166975080245
    vertex 71.46919179340559 48.12824440963442 6.080761184457506
  endloop
endfacet
facet normal -0.7933533402912434 -1.5958110247509613e-15 0.60876142900871
  outer loop
    vertex 71.67578600278281 58.37824440963439 6.350000000000011
    vertex 71.46919179340559 48.12824440963442 6.080761184457506
    vertex 71.67578600278284 48.12824440963442 6.350000000000021
  endloop
endfacet
facet normal -0.7933533402912434 -1.5958110247509613e-15 0.60876142900871
  outer loop
    vertex 71.46919179340559 48.12824440963442 6.080761184457506
    vertex 71.67578600278281 58.37824440963439 6.350000000000011
    vertex 71.46919179340556 58.378244409634405 6.080761184457496
  endloop
endfacet
facet normal 0.7933533402912378 2.37443781949282e-15 0.6087614290087174
  outer loop
    vertex 69.63071416232054 58.378244409634405 6.080761184457489
    vertex 69.4241199529433 48.12824440963442 6.3500000000000165
    vertex 69.63071416232056 48.12824440963442 6.080761184457502
  endloop
endfacet
facet normal 0.7933533402912378 2.37443781949282e-15 0.6087614290087174
  outer loop
    vertex 69.4241199529433 48.12824440963442 6.3500000000000165
    vertex 69.63071416232054 58.378244409634405 6.080761184457489
    vertex 69.42411995294329 58.378244409634405 6.3500000000000085
  endloop
endfacet
facet normal -0.1305261922200529 -5.79205259529824e-16 0.9914448613738103
  outer loop
    vertex 71.06759106806808 63.87824440963437 5.068148347421871
    vertex 70.54995297786306 74.12824440963436 5.000000000000013
    vertex 70.54995297786306 63.87824440963437 5.000000000000008
  endloop
endfacet
facet normal -0.1305261922200529 -5.79205259529824e-16 0.9914448613738103
  outer loop
    vertex 70.54995297786306 74.12824440963436 5.000000000000013
    vertex 71.06759106806808 63.87824440963437 5.068148347421871
    vertex 71.06759106806808 74.12824440963436 5.068148347421877
  endloop
endfacet
facet normal 0.1305261922200521 -5.459061981039254e-16 0.9914448613738105
  outer loop
    vertex 70.54995297786306 63.87824440963437 5.000000000000008
    vertex 70.032314887658 74.12824440963436 5.068148347421878
    vertex 70.032314887658 63.87824440963437 5.068148347421872
  endloop
endfacet
facet normal 0.1305261922200521 -5.459061981039254e-16 0.9914448613738105
  outer loop
    vertex 70.032314887658 74.12824440963436 5.068148347421878
    vertex 70.54995297786306 63.87824440963437 5.000000000000008
    vertex 70.54995297786306 74.12824440963436 5.000000000000013
  endloop
endfacet
facet normal 0.3826834323650941 -5.086872250660071e-16 0.9238795325112852
  outer loop
    vertex 70.032314887658 63.87824440963437 5.068148347421872
    vertex 69.54995297786306 74.12824440963436 5.2679491924311375
    vertex 69.54995297786306 63.87824440963437 5.267949192431131
  endloop
endfacet
facet normal 0.3826834323650941 -5.086872250660071e-16 0.9238795325112852
  outer loop
    vertex 69.54995297786306 74.12824440963436 5.2679491924311375
    vertex 70.032314887658 63.87824440963437 5.068148347421872
    vertex 70.032314887658 74.12824440963436 5.068148347421878
  endloop
endfacet
facet normal 0.6087614290087152 -3.813588486928533e-16 0.7933533402912393
  outer loop
    vertex 69.54995297786306 63.87824440963437 5.267949192431131
    vertex 69.13573941548995 74.12824440963436 5.585786437626918
    vertex 69.13573941548995 63.87824440963437 5.585786437626914
  endloop
endfacet
facet normal 0.6087614290087152 -3.813588486928533e-16 0.7933533402912393
  outer loop
    vertex 69.13573941548995 74.12824440963436 5.585786437626918
    vertex 69.54995297786306 63.87824440963437 5.267949192431131
    vertex 69.54995297786306 74.12824440963436 5.2679491924311375
  endloop
endfacet
facet normal 0.7933533402912369 -2.30210664888302e-16 0.6087614290087184
  outer loop
    vertex 69.13573941548995 74.12824440963436 5.585786437626918
    vertex 68.81790217029418 63.87824440963437 6.000000000000009
    vertex 69.13573941548995 63.87824440963437 5.585786437626914
  endloop
endfacet
facet normal 0.7933533402912369 -2.30210664888302e-16 0.6087614290087184
  outer loop
    vertex 68.81790217029418 63.87824440963437 6.000000000000009
    vertex 69.13573941548995 74.12824440963436 5.585786437626918
    vertex 68.81790217029418 74.12824440963436 6.000000000000012
  endloop
endfacet
facet normal 0.6087614290087254 9.653318125723335e-16 -0.7933533402912317
  outer loop
    vertex 69.89995297786304 58.378244409634405 8.125833024919778
    vertex 69.63071416232056 48.12824440963442 7.919238815542532
    vertex 69.63071416232054 58.378244409634405 7.919238815542523
  endloop
endfacet
facet normal 0.6087614290087254 9.653318125723335e-16 -0.7933533402912317
  outer loop
    vertex 69.63071416232056 48.12824440963442 7.919238815542532
    vertex 69.89995297786304 58.378244409634405 8.125833024919778
    vertex 69.89995297786308 48.12824440963442 8.125833024919789
  endloop
endfacet
facet normal 0.382683432365074 1.0048194518501018e-16 -0.9238795325112933
  outer loop
    vertex 70.21348821922977 58.378244409634405 8.25570357417579
    vertex 69.89995297786308 48.12824440963442 8.125833024919789
    vertex 69.89995297786304 58.378244409634405 8.125833024919778
  endloop
endfacet
facet normal 0.382683432365074 1.0048194518501018e-16 -0.9238795325112933
  outer loop
    vertex 69.89995297786308 48.12824440963442 8.125833024919789
    vertex 70.21348821922977 58.378244409634405 8.25570357417579
    vertex 70.21348821922979 48.12824440963442 8.2557035741758
  endloop
endfacet
facet normal -0.13052619222002354 -1.2416028061576368e-15 -0.9914448613738143
  outer loop
    vertex 70.88641773649633 58.378244409634405 8.255703574175799
    vertex 70.54995297786307 48.12824440963442 8.30000000000001
    vertex 70.54995297786306 58.378244409634405 8.299999999999999
  endloop
endfacet
facet normal -0.13052619222002354 -1.2416028061576368e-15 -0.9914448613738143
  outer loop
    vertex 70.54995297786307 48.12824440963442 8.30000000000001
    vertex 70.88641773649633 58.378244409634405 8.255703574175799
    vertex 70.88641773649634 48.12824440963442 8.255703574175808
  endloop
endfacet
facet normal -0.38268343236507163 -1.6742061778292963e-17 0.9238795325112943
  outer loop
    vertex 70.88641773649634 48.12824440963442 5.744296425824231
    vertex 71.19995297786305 58.378244409634405 5.874166975080235
    vertex 70.88641773649633 58.378244409634405 5.744296425824222
  endloop
endfacet
facet normal -0.38268343236507163 -1.6742061778292963e-17 0.9238795325112943
  outer loop
    vertex 71.19995297786305 58.378244409634405 5.874166975080235
    vertex 70.88641773649634 48.12824440963442 5.744296425824231
    vertex 71.19995297786308 48.12824440963442 5.874166975080245
  endloop
endfacet
facet normal -0.3826834323650842 -1.7322543600964656e-15 -0.9238795325112892
  outer loop
    vertex 71.19995297786305 58.378244409634405 8.12583302491978
    vertex 70.88641773649634 48.12824440963442 8.255703574175808
    vertex 70.88641773649633 58.378244409634405 8.255703574175799
  endloop
endfacet
facet normal -0.3826834323650842 -1.7322543600964656e-15 -0.9238795325112892
  outer loop
    vertex 70.88641773649634 48.12824440963442 8.255703574175808
    vertex 71.19995297786305 58.378244409634405 8.12583302491978
    vertex 71.19995297786308 48.12824440963442 8.12583302491979
  endloop
endfacet
facet normal 0.1305261922200417 -7.355019893101945e-16 -0.9914448613738118
  outer loop
    vertex 70.54995297786306 58.378244409634405 8.299999999999999
    vertex 70.21348821922979 48.12824440963442 8.2557035741758
    vertex 70.21348821922977 58.378244409634405 8.25570357417579
  endloop
endfacet
facet normal 0.1305261922200417 -7.355019893101945e-16 -0.9914448613738118
  outer loop
    vertex 70.21348821922979 48.12824440963442 8.2557035741758
    vertex 70.54995297786306 58.378244409634405 8.299999999999999
    vertex 70.54995297786307 48.12824440963442 8.30000000000001
  endloop
endfacet
facet normal -0.6087614290087292 -2.103697434850313e-15 -0.7933533402912287
  outer loop
    vertex 71.46919179340556 58.378244409634405 7.919238815542518
    vertex 71.19995297786308 48.12824440963442 8.12583302491979
    vertex 71.19995297786305 58.378244409634405 8.12583302491978
  endloop
endfacet
facet normal -0.6087614290087292 -2.103697434850313e-15 -0.7933533402912287
  outer loop
    vertex 71.19995297786308 48.12824440963442 8.12583302491979
    vertex 71.46919179340556 58.378244409634405 7.919238815542518
    vertex 71.46919179340559 48.12824440963442 7.919238815542528
  endloop
endfacet
facet normal -0.9238795325112951 -2.375436849075422e-15 -0.38268343236507
  outer loop
    vertex 71.67578600278283 58.37824440963439 7.65000000000001
    vertex 71.80565655203885 48.12824440963442 7.336464758633295
    vertex 71.67578600278284 48.12824440963442 7.650000000000018
  endloop
endfacet
facet normal -0.9238795325112951 -2.375436849075422e-15 -0.38268343236507
  outer loop
    vertex 71.80565655203885 48.12824440963442 7.336464758633295
    vertex 71.67578600278283 58.37824440963439 7.65000000000001
    vertex 71.80565655203883 58.37824440963439 7.336464758633285
  endloop
endfacet
facet normal 1.566648045859946e-15 2.5636058932253693e-16 1.0
  outer loop
    vertex 80.7507079121822 58.37824440963439 3.499999999999992
    vertex 45.75070791218222 63.87824440963437 3.500000000000029
    vertex 45.75070791218222 58.378244409634384 3.5000000000000315
  endloop
endfacet
facet normal 1.566648045859946e-15 2.5636058932253693e-16 1.0
  outer loop
    vertex 45.75070791218222 63.87824440963437 3.500000000000029
    vertex 80.7507079121822 58.37824440963439 3.499999999999992
    vertex 80.7507079121822 63.87824440963437 3.4999999999999893
  endloop
endfacet
facet normal -0.9914448613738084 -2.0386729664173968e-15 0.13052619222006795
  outer loop
    vertex 71.84995297786305 58.37824440963439 7.000000000000003
    vertex 71.80565655203885 48.12824440963442 6.663535241366741
    vertex 71.84995297786307 48.12824440963442 7.000000000000014
  endloop
endfacet
facet normal -0.9914448613738084 -2.0386729664173968e-15 0.13052619222006795
  outer loop
    vertex 71.80565655203885 48.12824440963442 6.663535241366741
    vertex 71.84995297786305 58.37824440963439 7.000000000000003
    vertex 71.80565655203883 58.37824440963439 6.66353524136673
  endloop
endfacet
facet normal -0.7933533402912284 -2.289497299706231e-15 -0.6087614290087294
  outer loop
    vertex 71.46919179340556 58.378244409634405 7.919238815542518
    vertex 71.67578600278284 48.12824440963442 7.650000000000018
    vertex 71.46919179340559 48.12824440963442 7.919238815542528
  endloop
endfacet
facet normal -0.7933533402912284 -2.289497299706231e-15 -0.6087614290087294
  outer loop
    vertex 71.67578600278284 48.12824440963442 7.650000000000018
    vertex 71.46919179340556 58.378244409634405 7.919238815542518
    vertex 71.67578600278283 58.37824440963439 7.65000000000001
  endloop
endfacet
facet normal -0.9238795325112873 -2.146677914327599e-15 0.3826834323650886
  outer loop
    vertex 71.80565655203883 58.37824440963439 6.66353524136673
    vertex 71.67578600278284 48.12824440963442 6.350000000000021
    vertex 71.80565655203885 48.12824440963442 6.663535241366741
  endloop
endfacet
facet normal -0.9238795325112873 -2.146677914327599e-15 0.3826834323650886
  outer loop
    vertex 71.67578600278284 48.12824440963442 6.350000000000021
    vertex 71.80565655203883 58.37824440963439 6.66353524136673
    vertex 71.67578600278281 58.37824440963439 6.350000000000011
  endloop
endfacet
facet normal -0.9914448613738088 -2.3167580043038312e-15 -0.13052619222006442
  outer loop
    vertex 71.80565655203883 58.37824440963439 7.336464758633285
    vertex 71.84995297786307 48.12824440963442 7.000000000000014
    vertex 71.80565655203885 48.12824440963442 7.336464758633295
  endloop
endfacet
facet normal -0.9914448613738088 -2.3167580043038312e-15 -0.13052619222006442
  outer loop
    vertex 71.84995297786307 48.12824440963442 7.000000000000014
    vertex 71.80565655203883 58.37824440963439 7.336464758633285
    vertex 71.84995297786305 58.37824440963439 7.000000000000003
  endloop
endfacet
facet normal -1.6243057332179768e-16 -1.0 -7.546180150014318e-18
  outer loop
    vertex 80.7507079121822 63.87824440963437 3.4999999999999893
    vertex 70.54995297786306 63.87824440963437 5.000000000000008
    vertex 45.75070791218222 63.87824440963437 3.500000000000029
  endloop
endfacet
facet normal -1.6243057332179768e-16 -1.0 -7.546180150014318e-18
  outer loop
    vertex 70.54995297786306 63.87824440963437 5.000000000000008
    vertex 80.7507079121822 63.87824440963437 3.4999999999999893
    vertex 71.06759106806808 63.87824440963437 5.068148347421871
  endloop
endfacet
facet normal -1.6243057332179768e-16 -1.0 -7.546180150014318e-18
  outer loop
    vertex 71.06759106806808 63.87824440963437 5.068148347421871
    vertex 80.7507079121822 63.87824440963437 3.4999999999999893
    vertex 71.54995297786304 63.87824440963437 5.267949192431129
  endloop
endfacet
facet normal -1.6243057332179768e-16 -1.0 -7.546180150014318e-18
  outer loop
    vertex 71.54995297786304 63.87824440963437 5.267949192431129
    vertex 80.7507079121822 63.87824440963437 3.4999999999999893
    vertex 80.75070791218222 63.87824440963437 9.999999999999991
  endloop
endfacet
facet normal -1.6243057332179768e-16 -1.0 -7.546180150014318e-18
  outer loop
    vertex 71.54995297786304 63.87824440963437 5.267949192431129
    vertex 80.75070791218222 63.87824440963437 9.999999999999991
    vertex 71.96416654023614 63.87824440963437 5.5857864376269095
  endloop
endfacet
facet normal -1.6243057332179768e-16 -1.0 -7.546180150014318e-18
  outer loop
    vertex 71.96416654023614 63.87824440963437 5.5857864376269095
    vertex 80.75070791218222 63.87824440963437 9.999999999999991
    vertex 72.28200378543193 63.87824440963437 6.000000000000003
  endloop
endfacet
facet normal -1.6243057332179768e-16 -1.0 -7.546180150014318e-18
  outer loop
    vertex 72.28200378543193 63.87824440963437 6.000000000000003
    vertex 80.75070791218222 63.87824440963437 9.999999999999991
    vertex 72.48180463044119 63.87824440963437 6.48236190979496
  endloop
endfacet
facet normal -1.6243057332179768e-16 -1.0 -7.546180150014318e-18
  outer loop
    vertex 72.48180463044119 63.87824440963437 6.48236190979496
    vertex 80.75070791218222 63.87824440963437 9.999999999999991
    vertex 72.54995297786304 63.87824440963437 7.0
  endloop
endfacet
facet normal -1.6243057332179768e-16 -1.0 -7.546180150014318e-18
  outer loop
    vertex 72.54995297786304 63.87824440963437 7.0
    vertex 80.75070791218222 63.87824440963437 9.999999999999991
    vertex 72.48180463044119 63.87824440963437 7.5176380902050415
  endloop
endfacet
facet normal -1.6243057332179768e-16 -1.0 -7.546180150014318e-18
  outer loop
    vertex 72.48180463044119 63.87824440963437 7.5176380902050415
    vertex 80.75070791218222 63.87824440963437 9.999999999999991
    vertex 72.28200378543193 63.87824440963437 7.999999999999999
  endloop
endfacet
facet normal -1.6243057332179768e-16 -1.0 -7.546180150014318e-18
  outer loop
    vertex 72.28200378543193 63.87824440963437 7.999999999999999
    vertex 80.75070791218222 63.87824440963437 9.999999999999991
    vertex 71.96416654023615 63.87824440963437 8.414213562373094
  endloop
endfacet
facet normal -1.6243057332179768e-16 -1.0 -7.546180150014318e-18
  outer loop
    vertex 71.96416654023615 63.87824440963437 8.414213562373094
    vertex 80.75070791218222 63.87824440963437 9.999999999999991
    vertex 71.54995297786304 63.87824440963437 8.732050807568877
  endloop
endfacet
facet normal -1.6243057332179768e-16 -1.0 -7.546180150014318e-18
  outer loop
    vertex 71.54995297786304 63.87824440963437 8.732050807568877
    vertex 80.75070791218222 63.87824440963437 9.999999999999991
    vertex 71.0675910680681 63.87824440963437 8.931851652578137
  endloop
endfacet
facet normal -1.6243057332179768e-16 -1.0 -7.546180150014318e-18
  outer loop
    vertex 71.0675910680681 63.87824440963437 8.931851652578137
    vertex 80.75070791218222 63.87824440963437 9.999999999999991
    vertex 70.54995297786306 63.87824440963437 9.0
  endloop
endfacet
facet normal -1.6243057332179768e-16 -1.0 -7.546180150014318e-18
  outer loop
    vertex 45.75070791218222 63.87824440963437 3.500000000000029
    vertex 70.032314887658 63.87824440963437 5.068148347421872
    vertex 45.750707912182236 63.87824440963437 10.999999999999991
  endloop
endfacet
facet normal -1.6243057332179768e-16 -1.0 -7.546180150014318e-18
  outer loop
    vertex 70.032314887658 63.87824440963437 5.068148347421872
    vertex 45.75070791218222 63.87824440963437 3.500000000000029
    vertex 70.54995297786306 63.87824440963437 5.000000000000008
  endloop
endfacet
facet normal -1.6243057332179768e-16 -1.0 -7.546180150014318e-18
  outer loop
    vertex 45.750707912182236 63.87824440963437 10.999999999999991
    vertex 70.032314887658 63.87824440963437 5.068148347421872
    vertex 69.54995297786306 63.87824440963437 5.267949192431131
  endloop
endfacet
facet normal -1.6243057332179768e-16 -1.0 -7.546180150014318e-18
  outer loop
    vertex 45.750707912182236 63.87824440963437 10.999999999999991
    vertex 69.54995297786306 63.87824440963437 5.267949192431131
    vertex 69.13573941548995 63.87824440963437 5.585786437626914
  endloop
endfacet
facet normal -1.6243057332179768e-16 -1.0 -7.546180150014318e-18
  outer loop
    vertex 45.750707912182236 63.87824440963437 10.999999999999991
    vertex 69.13573941548995 63.87824440963437 5.585786437626914
    vertex 68.81790217029418 63.87824440963437 6.000000000000009
  endloop
endfacet
facet normal -1.6243057332179768e-16 -1.0 -7.546180150014318e-18
  outer loop
    vertex 45.750707912182236 63.87824440963437 10.999999999999991
    vertex 68.81790217029418 63.87824440963437 6.000000000000009
    vertex 68.61810132528493 63.87824440963437 6.482361909794966
  endloop
endfacet
facet normal -1.6243057332179768e-16 -1.0 -7.546180150014318e-18
  outer loop
    vertex 45.750707912182236 63.87824440963437 10.999999999999991
    vertex 68.61810132528493 63.87824440963437 6.482361909794966
    vertex 68.54995297786306 63.87824440963437 7.000000000000008
  endloop
endfacet
facet normal -1.6243057332179768e-16 -1.0 -7.546180150014318e-18
  outer loop
    vertex 45.750707912182236 63.87824440963437 10.999999999999991
    vertex 68.54995297786306 63.87824440963437 7.000000000000008
    vertex 68.61810132528493 63.87824440963437 7.5176380902050495
  endloop
endfacet
facet normal -1.6243057332179768e-16 -1.0 -7.546180150014318e-18
  outer loop
    vertex 45.750707912182236 63.87824440963437 10.999999999999991
    vertex 68.61810132528493 63.87824440963437 7.5176380902050495
    vertex 68.81790217029419 63.87824440963437 8.000000000000005
  endloop
endfacet
facet normal -1.6243057332179768e-16 -1.0 -7.546180150014318e-18
  outer loop
    vertex 45.750707912182236 63.87824440963437 10.999999999999991
    vertex 68.81790217029419 63.87824440963437 8.000000000000005
    vertex 69.13573941548997 63.87824440963437 8.4142135623731
  endloop
endfacet
facet normal -1.6243057332179768e-16 -1.0 -7.546180150014318e-18
  outer loop
    vertex 45.750707912182236 63.87824440963437 10.999999999999991
    vertex 69.13573941548997 63.87824440963437 8.4142135623731
    vertex 69.54995297786306 63.87824440963437 8.73205080756888
  endloop
endfacet
facet normal -1.6243057332179768e-16 -1.0 -7.546180150014318e-18
  outer loop
    vertex 45.750707912182236 63.87824440963437 10.999999999999991
    vertex 69.54995297786306 63.87824440963437 8.73205080756888
    vertex 70.03231488765802 63.87824440963437 8.931851652578139
  endloop
endfacet
facet normal -1.6243057332179768e-16 -1.0 -7.546180150014318e-18
  outer loop
    vertex 45.750707912182236 63.87824440963437 10.999999999999991
    vertex 70.03231488765802 63.87824440963437 8.931851652578139
    vertex 70.54995297786306 63.87824440963437 9.0
  endloop
endfacet
facet normal -1.6243057332179768e-16 -1.0 -7.546180150014318e-18
  outer loop
    vertex 45.750707912182236 63.87824440963437 10.999999999999991
    vertex 70.54995297786306 63.87824440963437 9.0
    vertex 80.75070791218222 63.87824440963437 9.999999999999991
  endloop
endfacet
facet normal -1.6243057332179768e-16 -1.0 -7.546180150014318e-18
  outer loop
    vertex 45.750707912182236 63.87824440963437 10.999999999999991
    vertex 80.75070791218222 63.87824440963437 9.999999999999991
    vertex 79.75070791218222 63.87824440963437 10.999999999999968
  endloop
endfacet
facet normal 1.774418467423918e-15 -1.0 -1.4390972398826784e-15
  outer loop
    vertex 80.7507079121822 48.128244409634455 2.8199664825478975e-15
    vertex 70.88641773649634 48.12824440963442 5.744296425824231
    vertex 70.54995297786307 48.12824440963442 5.700000000000021
  endloop
endfacet
facet normal 1.774418467423918e-15 -1.0 -1.4390972398826784e-15
  outer loop
    vertex 70.88641773649634 48.12824440963442 5.744296425824231
    vertex 80.7507079121822 48.128244409634455 2.8199664825478975e-15
    vertex 71.19995297786308 48.12824440963442 5.874166975080245
  endloop
endfacet
facet normal 1.774418467423918e-15 -1.0 -1.4390972398826784e-15
  outer loop
    vertex 71.19995297786308 48.12824440963442 5.874166975080245
    vertex 80.7507079121822 48.128244409634455 2.8199664825478975e-15
    vertex 80.75070791218222 48.12824440963445 9.999999999999991
  endloop
endfacet
facet normal 1.774418467423918e-15 -1.0 -1.4390972398826784e-15
  outer loop
    vertex 71.19995297786308 48.12824440963442 5.874166975080245
    vertex 80.75070791218222 48.12824440963445 9.999999999999991
    vertex 71.46919179340559 48.12824440963442 6.080761184457506
  endloop
endfacet
facet normal 1.774418467423918e-15 -1.0 -1.4390972398826784e-15
  outer loop
    vertex 71.46919179340559 48.12824440963442 6.080761184457506
    vertex 80.75070791218222 48.12824440963445 9.999999999999991
    vertex 71.67578600278284 48.12824440963442 6.350000000000021
  endloop
endfacet
facet normal 1.774418467423918e-15 -1.0 -1.4390972398826784e-15
  outer loop
    vertex 71.67578600278284 48.12824440963442 6.350000000000021
    vertex 80.75070791218222 48.12824440963445 9.999999999999991
    vertex 71.80565655203885 48.12824440963442 6.663535241366741
  endloop
endfacet
facet normal 1.774418467423918e-15 -1.0 -1.4390972398826784e-15
  outer loop
    vertex 71.80565655203885 48.12824440963442 6.663535241366741
    vertex 80.75070791218222 48.12824440963445 9.999999999999991
    vertex 71.84995297786307 48.12824440963442 7.000000000000014
  endloop
endfacet
facet normal 1.774418467423918e-15 -1.0 -1.4390972398826784e-15
  outer loop
    vertex 71.84995297786307 48.12824440963442 7.000000000000014
    vertex 80.75070791218222 48.12824440963445 9.999999999999991
    vertex 71.80565655203885 48.12824440963442 7.336464758633295
  endloop
endfacet
facet normal 1.774418467423918e-15 -1.0 -1.4390972398826784e-15
  outer loop
    vertex 71.80565655203885 48.12824440963442 7.336464758633295
    vertex 80.75070791218222 48.12824440963445 9.999999999999991
    vertex 71.67578600278284 48.12824440963442 7.650000000000018
  endloop
endfacet
facet normal 1.774418467423918e-15 -1.0 -1.4390972398826784e-15
  outer loop
    vertex 71.67578600278284 48.12824440963442 7.650000000000018
    vertex 80.75070791218222 48.12824440963445 9.999999999999991
    vertex 71.46919179340559 48.12824440963442 7.919238815542528
  endloop
endfacet
facet normal 1.774418467423918e-15 -1.0 -1.4390972398826784e-15
  outer loop
    vertex 71.46919179340559 48.12824440963442 7.919238815542528
    vertex 80.75070791218222 48.12824440963445 9.999999999999991
    vertex 71.19995297786308 48.12824440963442 8.12583302491979
  endloop
endfacet
facet normal 1.774418467423918e-15 -1.0 -1.4390972398826784e-15
  outer loop
    vertex 71.19995297786308 48.12824440963442 8.12583302491979
    vertex 80.75070791218222 48.12824440963445 9.999999999999991
    vertex 70.88641773649634 48.12824440963442 8.255703574175808
  endloop
endfacet
facet normal 1.774418467423918e-15 -1.0 -1.4390972398826784e-15
  outer loop
    vertex 70.88641773649634 48.12824440963442 8.255703574175808
    vertex 80.75070791218222 48.12824440963445 9.999999999999991
    vertex 70.54995297786307 48.12824440963442 8.30000000000001
  endloop
endfacet
facet normal 1.774418467423918e-15 -1.0 -1.4390972398826784e-15
  outer loop
    vertex 80.7507079121822 48.128244409634455 2.8199664825478975e-15
    vertex 45.75070791218222 48.128244409634384 15.000000000000007
    vertex 45.75070791218222 48.128244409634384 0.0
  endloop
endfacet
facet normal 1.774418467423918e-15 -1.0 -1.4390972398826784e-15
  outer loop
    vertex 45.75070791218222 48.128244409634384 15.000000000000007
    vertex 80.7507079121822 48.128244409634455 2.8199664825478975e-15
    vertex 70.21348821922979 48.12824440963442 5.744296425824222
  endloop
endfacet
facet normal 1.774418467423918e-15 -1.0 -1.4390972398826784e-15
  outer loop
    vertex 70.21348821922979 48.12824440963442 5.744296425824222
    vertex 80.7507079121822 48.128244409634455 2.8199664825478975e-15
    vertex 70.54995297786307 48.12824440963442 5.700000000000021
  endloop
endfacet
facet normal 1.774418467423918e-15 -1.0 -1.4390972398826784e-15
  outer loop
    vertex 45.75070791218222 48.128244409634384 15.000000000000007
    vertex 70.21348821922979 48.12824440963442 5.744296425824222
    vertex 69.89995297786308 48.12824440963442 5.874166975080242
  endloop
endfacet
facet normal 1.774418467423918e-15 -1.0 -1.4390972398826784e-15
  outer loop
    vertex 45.75070791218222 48.128244409634384 15.000000000000007
    vertex 69.89995297786308 48.12824440963442 5.874166975080242
    vertex 69.63071416232056 48.12824440963442 6.080761184457502
  endloop
endfacet
facet normal 1.774418467423918e-15 -1.0 -1.4390972398826784e-15
  outer loop
    vertex 45.75070791218222 48.128244409634384 15.000000000000007
    vertex 69.63071416232056 48.12824440963442 6.080761184457502
    vertex 69.4241199529433 48.12824440963442 6.3500000000000165
  endloop
endfacet
facet normal 1.774418467423918e-15 -1.0 -1.4390972398826784e-15
  outer loop
    vertex 45.75070791218222 48.128244409634384 15.000000000000007
    vertex 69.4241199529433 48.12824440963442 6.3500000000000165
    vertex 69.29424940368727 48.12824440963442 6.663535241366742
  endloop
endfacet
facet normal 1.774418467423918e-15 -1.0 -1.4390972398826784e-15
  outer loop
    vertex 45.75070791218222 48.128244409634384 15.000000000000007
    vertex 69.29424940368727 48.12824440963442 6.663535241366742
    vertex 69.24995297786307 48.12824440963442 7.0000000000000195
  endloop
endfacet
facet normal 1.774418467423918e-15 -1.0 -1.4390972398826784e-15
  outer loop
    vertex 45.75070791218222 48.128244409634384 15.000000000000007
    vertex 69.24995297786307 48.12824440963442 7.0000000000000195
    vertex 69.29424940368727 48.12824440963442 7.336464758633292
  endloop
endfacet
facet normal 1.774418467423918e-15 -1.0 -1.4390972398826784e-15
  outer loop
    vertex 45.75070791218222 48.128244409634384 15.000000000000007
    vertex 69.29424940368727 48.12824440963442 7.336464758633292
    vertex 69.4241199529433 48.12824440963442 7.65000000000002
  endloop
endfacet
facet normal 1.774418467423918e-15 -1.0 -1.4390972398826784e-15
  outer loop
    vertex 45.75070791218222 48.128244409634384 15.000000000000007
    vertex 69.4241199529433 48.12824440963442 7.65000000000002
    vertex 69.63071416232056 48.12824440963442 7.919238815542532
  endloop
endfacet
facet normal 1.774418467423918e-15 -1.0 -1.4390972398826784e-15
  outer loop
    vertex 45.75070791218222 48.128244409634384 15.000000000000007
    vertex 69.63071416232056 48.12824440963442 7.919238815542532
    vertex 69.89995297786308 48.12824440963442 8.125833024919789
  endloop
endfacet
facet normal 1.774418467423918e-15 -1.0 -1.4390972398826784e-15
  outer loop
    vertex 45.75070791218222 48.128244409634384 15.000000000000007
    vertex 69.89995297786308 48.12824440963442 8.125833024919789
    vertex 70.21348821922979 48.12824440963442 8.2557035741758
  endloop
endfacet
facet normal 1.774418467423918e-15 -1.0 -1.4390972398826784e-15
  outer loop
    vertex 45.75070791218222 48.128244409634384 15.000000000000007
    vertex 70.21348821922979 48.12824440963442 8.2557035741758
    vertex 70.54995297786307 48.12824440963442 8.30000000000001
  endloop
endfacet
facet normal 1.774418467423918e-15 -1.0 -1.4390972398826784e-15
  outer loop
    vertex 45.75070791218222 48.128244409634384 15.000000000000007
    vertex 70.54995297786307 48.12824440963442 8.30000000000001
    vertex 80.75070791218222 48.12824440963445 9.999999999999991
  endloop
endfacet
facet normal 1.774418467423918e-15 -1.0 -1.4390972398826784e-15
  outer loop
    vertex 45.75070791218222 48.128244409634384 15.000000000000007
    vertex 80.75070791218222 48.12824440963445 9.999999999999991
    vertex 79.75070791218222 48.12824440963445 10.999999999999988
  endloop
endfacet
facet normal 1.774418467423918e-15 -1.0 -1.4390972398826784e-15
  outer loop
    vertex 45.75070791218222 48.128244409634384 15.000000000000007
    vertex 79.75070791218222 48.12824440963445 10.999999999999988
    vertex 79.75070791218222 48.1282444096344 14.99999999999999
  endloop
endfacet
facet normal 0.707106781186547 5.805357867956267e-16 0.707106781186548
  outer loop
    vertex 80.75070791218222 48.12824440963445 9.999999999999991
    vertex 79.75070791218222 51.12824440963439 10.99999999999998
    vertex 79.75070791218222 48.12824440963445 10.999999999999988
  endloop
endfacet
facet normal 0.707106781186547 5.805357867956267e-16 0.707106781186548
  outer loop
    vertex 79.75070791218222 51.12824440963439 10.99999999999998
    vertex 80.75070791218222 48.12824440963445 9.999999999999991
    vertex 79.75070791218222 58.37824440963439 10.99999999999998
  endloop
endfacet
facet normal 0.707106781186547 5.805357867956267e-16 0.707106781186548
  outer loop
    vertex 79.75070791218222 58.37824440963439 10.99999999999998
    vertex 80.75070791218222 48.12824440963445 9.999999999999991
    vertex 80.75070791218221 58.37824440963439 9.999999999999991
  endloop
endfacet
facet normal -3.625671191847305e-16 4.880711219794454e-16 -1.0
  outer loop
    vertex 80.75070791218222 74.12824440963438 0.0
    vertex 45.75070791218222 48.128244409634384 0.0
    vertex 45.750707912182214 74.12824440963436 2.8199664825478976e-14
  endloop
endfacet
facet normal -3.625671191847305e-16 4.880711219794454e-16 -1.0
  outer loop
    vertex 45.75070791218222 48.128244409634384 0.0
    vertex 80.75070791218222 74.12824440963438 0.0
    vertex 80.7507079121822 48.128244409634455 2.8199664825478975e-15
  endloop
endfacet
facet normal 4.397875611648547e-16 -1.5403660663880033e-15 1.0
  outer loop
    vertex 79.75070791218222 71.12824440963436 14.99999999999999
    vertex 45.75070791218222 74.12824440963436 15.000000000000007
    vertex 45.75070791218222 71.12824440963436 15.0
  endloop
endfacet
facet normal 4.397875611648547e-16 -1.5403660663880033e-15 1.0
  outer loop
    vertex 45.75070791218222 74.12824440963436 15.000000000000007
    vertex 79.75070791218222 71.12824440963436 14.99999999999999
    vertex 79.75070791218222 74.12824440963435 14.99999999999999
  endloop
endfacet
facet normal -7.049916206369744e-16 -1.0 -1.0574874309554595e-15
  outer loop
    vertex 79.75070791218222 71.12824440963436 14.99999999999999
    vertex 45.75070791218222 71.12824440963436 10.999999999999995
    vertex 79.75070791218222 71.12824440963436 10.999999999999979
  endloop
endfacet
facet normal -7.049916206369744e-16 -1.0 -1.0574874309554595e-15
  outer loop
    vertex 45.75070791218222 71.12824440963436 10.999999999999995
    vertex 79.75070791218222 71.12824440963436 14.99999999999999
    vertex 45.75070791218222 71.12824440963436 15.0
  endloop
endfacet
facet normal 8.560538255164062e-17 1.0 8.500507895753253e-16
  outer loop
    vertex 45.750707912182214 74.12824440963436 2.8199664825478976e-14
    vertex 70.032314887658 74.12824440963436 5.068148347421878
    vertex 70.54995297786306 74.12824440963436 5.000000000000013
  endloop
endfacet
facet normal 8.560538255164062e-17 1.0 8.500507895753253e-16
  outer loop
    vertex 70.032314887658 74.12824440963436 5.068148347421878
    vertex 45.750707912182214 74.12824440963436 2.8199664825478976e-14
    vertex 45.75070791218222 74.12824440963436 15.000000000000007
  endloop
endfacet
facet normal 8.560538255164062e-17 1.0 8.500507895753253e-16
  outer loop
    vertex 70.032314887658 74.12824440963436 5.068148347421878
    vertex 45.75070791218222 74.12824440963436 15.000000000000007
    vertex 69.54995297786306 74.12824440963436 5.2679491924311375
  endloop
endfacet
facet normal 8.560538255164062e-17 1.0 8.500507895753253e-16
  outer loop
    vertex 69.54995297786306 74.12824440963436 5.2679491924311375
    vertex 45.75070791218222 74.12824440963436 15.000000000000007
    vertex 69.13573941548995 74.12824440963436 5.585786437626918
  endloop
endfacet
facet normal 8.560538255164062e-17 1.0 8.500507895753253e-16
  outer loop
    vertex 69.13573941548995 74.12824440963436 5.585786437626918
    vertex 45.75070791218222 74.12824440963436 15.000000000000007
    vertex 68.81790217029418 74.12824440963436 6.000000000000012
  endloop
endfacet
facet normal 8.560538255164062e-17 1.0 8.500507895753253e-16
  outer loop
    vertex 68.81790217029418 74.12824440963436 6.000000000000012
    vertex 45.75070791218222 74.12824440963436 15.000000000000007
    vertex 68.61810132528493 74.12824440963436 6.48236190979497
  endloop
endfacet
facet normal 8.560538255164062e-17 1.0 8.500507895753253e-16
  outer loop
    vertex 68.61810132528493 74.12824440963436 6.48236190979497
    vertex 45.75070791218222 74.12824440963436 15.000000000000007
    vertex 68.54995297786306 74.12824440963436 7.00000000000001
  endloop
endfacet
facet normal 8.560538255164062e-17 1.0 8.500507895753253e-16
  outer loop
    vertex 68.54995297786306 74.12824440963436 7.00000000000001
    vertex 45.75070791218222 74.12824440963436 15.000000000000007
    vertex 68.61810132528493 74.12824440963436 7.517638090205051
  endloop
endfacet
facet normal 8.560538255164062e-17 1.0 8.500507895753253e-16
  outer loop
    vertex 68.61810132528493 74.12824440963436 7.517638090205051
    vertex 45.75070791218222 74.12824440963436 15.000000000000007
    vertex 68.81790217029418 74.12824440963436 8.000000000000009
  endloop
endfacet
facet normal 8.560538255164062e-17 1.0 8.500507895753253e-16
  outer loop
    vertex 68.81790217029418 74.12824440963436 8.000000000000009
    vertex 45.75070791218222 74.12824440963436 15.000000000000007
    vertex 69.13573941548997 74.12824440963436 8.414213562373103
  endloop
endfacet
facet normal 8.560538255164062e-17 1.0 8.500507895753253e-16
  outer loop
    vertex 69.13573941548997 74.12824440963436 8.414213562373103
    vertex 45.75070791218222 74.12824440963436 15.000000000000007
    vertex 69.54995297786306 74.12824440963436 8.732050807568884
  endloop
endfacet
facet normal 8.560538255164062e-17 1.0 8.500507895753253e-16
  outer loop
    vertex 69.54995297786306 74.12824440963436 8.732050807568884
    vertex 45.75070791218222 74.12824440963436 15.000000000000007
    vertex 70.032314887658 74.12824440963436 8.931851652578143
  endloop
endfacet
facet normal 8.560538255164062e-17 1.0 8.500507895753253e-16
  outer loop
    vertex 70.032314887658 74.12824440963436 8.931851652578143
    vertex 45.75070791218222 74.12824440963436 15.000000000000007
    vertex 70.54995297786306 74.12824440963436 9.000000000000005
  endloop
endfacet
facet normal 8.560538255164062e-17 1.0 8.500507895753253e-16
  outer loop
    vertex 70.54995297786306 74.12824440963436 9.000000000000005
    vertex 45.75070791218222 74.12824440963436 15.000000000000007
    vertex 80.75070791218221 74.12824440963435 9.999999999999991
  endloop
endfacet
facet normal 8.560538255164062e-17 1.0 8.500507895753253e-16
  outer loop
    vertex 80.75070791218221 74.12824440963435 9.999999999999991
    vertex 45.75070791218222 74.12824440963436 15.000000000000007
    vertex 79.75070791218222 74.12824440963435 10.999999999999998
  endloop
endfacet
facet normal 8.560538255164062e-17 1.0 8.500507895753253e-16
  outer loop
    vertex 79.75070791218222 74.12824440963435 10.999999999999998
    vertex 45.75070791218222 74.12824440963436 15.000000000000007
    vertex 79.75070791218222 74.12824440963435 14.99999999999999
  endloop
endfacet
facet normal 8.560538255164062e-17 1.0 8.500507895753253e-16
  outer loop
    vertex 80.75070791218222 74.12824440963438 0.0
    vertex 71.54995297786304 74.12824440963436 5.267949192431136
    vertex 80.75070791218221 74.12824440963435 9.999999999999991
  endloop
endfacet
facet normal 8.560538255164062e-17 1.0 8.500507895753253e-16
  outer loop
    vertex 71.54995297786304 74.12824440963436 5.267949192431136
    vertex 80.75070791218222 74.12824440963438 0.0
    vertex 71.06759106806808 74.12824440963436 5.068148347421877
  endloop
endfacet
facet normal 8.560538255164062e-17 1.0 8.500507895753253e-16
  outer loop
    vertex 71.06759106806808 74.12824440963436 5.068148347421877
    vertex 80.75070791218222 74.12824440963438 0.0
    vertex 45.750707912182214 74.12824440963436 2.8199664825478976e-14
  endloop
endfacet
facet normal 8.560538255164062e-17 1.0 8.500507895753253e-16
  outer loop
    vertex 71.06759106806808 74.12824440963436 5.068148347421877
    vertex 45.750707912182214 74.12824440963436 2.8199664825478976e-14
    vertex 70.54995297786306 74.12824440963436 5.000000000000013
  endloop
endfacet
facet normal 8.560538255164062e-17 1.0 8.500507895753253e-16
  outer loop
    vertex 80.75070791218221 74.12824440963435 9.999999999999991
    vertex 71.54995297786304 74.12824440963436 5.267949192431136
    vertex 71.96416654023614 74.12824440963436 5.5857864376269175
  endloop
endfacet
facet normal 8.560538255164062e-17 1.0 8.500507895753253e-16
  outer loop
    vertex 80.75070791218221 74.12824440963435 9.999999999999991
    vertex 71.96416654023614 74.12824440963436 5.5857864376269175
    vertex 72.28200378543193 74.12824440963436 6.000000000000011
  endloop
endfacet
facet normal 8.560538255164062e-17 1.0 8.500507895753253e-16
  outer loop
    vertex 80.75070791218221 74.12824440963435 9.999999999999991
    vertex 72.28200378543193 74.12824440963436 6.000000000000011
    vertex 72.48180463044119 74.12824440963436 6.482361909794968
  endloop
endfacet
facet normal 8.560538255164062e-17 1.0 8.500507895753253e-16
  outer loop
    vertex 80.75070791218221 74.12824440963435 9.999999999999991
    vertex 72.48180463044119 74.12824440963436 6.482361909794968
    vertex 72.54995297786304 74.12824440963436 7.00000000000001
  endloop
endfacet
facet normal 8.560538255164062e-17 1.0 8.500507895753253e-16
  outer loop
    vertex 80.75070791218221 74.12824440963435 9.999999999999991
    vertex 72.54995297786304 74.12824440963436 7.00000000000001
    vertex 72.48180463044119 74.12824440963436 7.517638090205051
  endloop
endfacet
facet normal 8.560538255164062e-17 1.0 8.500507895753253e-16
  outer loop
    vertex 80.75070791218221 74.12824440963435 9.999999999999991
    vertex 72.48180463044119 74.12824440963436 7.517638090205051
    vertex 72.28200378543193 74.12824440963436 8.000000000000007
  endloop
endfacet
facet normal 8.560538255164062e-17 1.0 8.500507895753253e-16
  outer loop
    vertex 80.75070791218221 74.12824440963435 9.999999999999991
    vertex 72.28200378543193 74.12824440963436 8.000000000000007
    vertex 71.96416654023614 74.12824440963436 8.414213562373103
  endloop
endfacet
facet normal 8.560538255164062e-17 1.0 8.500507895753253e-16
  outer loop
    vertex 80.75070791218221 74.12824440963435 9.999999999999991
    vertex 71.96416654023614 74.12824440963436 8.414213562373103
    vertex 71.54995297786304 74.12824440963436 8.732050807568884
  endloop
endfacet
facet normal 8.560538255164062e-17 1.0 8.500507895753253e-16
  outer loop
    vertex 80.75070791218221 74.12824440963435 9.999999999999991
    vertex 71.54995297786304 74.12824440963436 8.732050807568884
    vertex 71.0675910680681 74.12824440963436 8.931851652578143
  endloop
endfacet
facet normal 8.560538255164062e-17 1.0 8.500507895753253e-16
  outer loop
    vertex 80.75070791218221 74.12824440963435 9.999999999999991
    vertex 71.0675910680681 74.12824440963436 8.931851652578143
    vertex 70.54995297786306 74.12824440963436 9.000000000000005
  endloop
endfacet
facet normal 1.0 0.0 0.0
  outer loop
    vertex 79.75070791218222 48.12824440963445 10.999999999999988
    vertex 79.75070791218222 51.12824440963439 14.99999999999999
    vertex 79.75070791218222 48.1282444096344 14.99999999999999
  endloop
endfacet
facet normal 1.0 0.0 0.0
  outer loop
    vertex 79.75070791218222 51.12824440963439 14.99999999999999
    vertex 79.75070791218222 48.12824440963445 10.999999999999988
    vertex 79.75070791218222 51.12824440963439 10.99999999999998
  endloop
endfacet
facet normal 1.0 -1.8799776550319377e-15 1.4099832412739442e-15
  outer loop
    vertex 79.75070791218222 74.12824440963435 10.999999999999998
    vertex 79.75070791218222 71.12824440963436 14.99999999999999
    vertex 79.75070791218222 71.12824440963436 10.999999999999979
  endloop
endfacet
facet normal 1.0 -1.8799776550319377e-15 1.4099832412739442e-15
  outer loop
    vertex 79.75070791218222 71.12824440963436 14.99999999999999
    vertex 79.75070791218222 74.12824440963435 10.999999999999998
    vertex 79.75070791218222 74.12824440963435 14.99999999999999
  endloop
endfacet
facet normal -7.805264371337932e-16 1.0 -1.0574874309554593e-15
  outer loop
    vertex 45.75070791218222 51.128244409634384 10.999999999999995
    vertex 79.75070791218222 51.12824440963439 14.99999999999999
    vertex 79.75070791218222 51.12824440963439 10.99999999999998
  endloop
endfacet
facet normal -7.805264371337932e-16 1.0 -1.0574874309554593e-15
  outer loop
    vertex 79.75070791218222 51.12824440963439 14.99999999999999
    vertex 45.75070791218222 51.128244409634384 10.999999999999995
    vertex 45.75070791218222 51.128244409634384 15.0
  endloop
endfacet
facet normal 4.2595065130487586e-16 1.392887491585214e-15 1.0
  outer loop
    vertex 79.75070791218222 48.1282444096344 14.99999999999999
    vertex 45.75070791218222 51.128244409634384 15.0
    vertex 45.75070791218222 48.128244409634384 15.000000000000007
  endloop
endfacet
facet normal 4.2595065130487586e-16 1.392887491585214e-15 1.0
  outer loop
    vertex 45.75070791218222 51.128244409634384 15.0
    vertex 79.75070791218222 48.1282444096344 14.99999999999999
    vertex 79.75070791218222 51.12824440963439 14.99999999999999
  endloop
endfacet
facet normal -1.0 -3.9003219990777456e-32 2.223629484446371e-16
  outer loop
    vertex 45.75070791218222 71.12824440963436 10.999999999999995
    vertex 45.75070791218222 63.87824440963437 3.500000000000029
    vertex 45.750707912182236 63.87824440963437 10.999999999999991
  endloop
endfacet
facet normal -1.0 -3.9003219990777456e-32 2.223629484446371e-16
  outer loop
    vertex 45.75070791218222 74.12824440963436 15.000000000000007
    vertex 45.75070791218222 71.12824440963436 10.999999999999995
    vertex 45.75070791218222 71.12824440963436 15.0
  endloop
endfacet
facet normal -1.0 -3.9003219990777456e-32 2.223629484446371e-16
  outer loop
    vertex 45.75070791218222 51.128244409634384 15.0
    vertex 45.75070791218222 48.128244409634384 0.0
    vertex 45.75070791218222 48.128244409634384 15.000000000000007
  endloop
endfacet
facet normal -1.0 -3.9003219990777456e-32 2.223629484446371e-16
  outer loop
    vertex 45.75070791218222 48.128244409634384 0.0
    vertex 45.75070791218222 51.128244409634384 15.0
    vertex 45.75070791218222 51.128244409634384 10.999999999999995
  endloop
endfacet
facet normal -1.0 -3.9003219990777456e-32 2.223629484446371e-16
  outer loop
    vertex 45.75070791218222 48.128244409634384 0.0
    vertex 45.75070791218222 51.128244409634384 10.999999999999995
    vertex 45.75070791218222 58.378244409634384 3.5000000000000315
  endloop
endfacet
facet normal -1.0 -3.9003219990777456e-32 2.223629484446371e-16
  outer loop
    vertex 45.75070791218222 48.128244409634384 0.0
    vertex 45.75070791218222 58.378244409634384 3.5000000000000315
    vertex 45.750707912182214 74.12824440963436 2.8199664825478976e-14
  endloop
endfacet
facet normal -1.0 -3.9003219990777456e-32 2.223629484446371e-16
  outer loop
    vertex 45.75070791218222 58.378244409634384 3.5000000000000315
    vertex 45.75070791218222 51.128244409634384 10.999999999999995
    vertex 45.750707912182236 58.378244409634384 10.999999999999993
  endloop
endfacet
facet normal -1.0 -3.9003219990777456e-32 2.223629484446371e-16
  outer loop
    vertex 45.750707912182214 74.12824440963436 2.8199664825478976e-14
    vertex 45.75070791218222 58.378244409634384 3.5000000000000315
    vertex 45.75070791218222 63.87824440963437 3.500000000000029
  endloop
endfacet
facet normal -1.0 -3.9003219990777456e-32 2.223629484446371e-16
  outer loop
    vertex 45.750707912182214 74.12824440963436 2.8199664825478976e-14
    vertex 45.75070791218222 63.87824440963437 3.500000000000029
    vertex 45.75070791218222 71.12824440963436 10.999999999999995
  endloop
endfacet
facet normal -1.0 -3.9003219990777456e-32 2.223629484446371e-16
  outer loop
    vertex 45.750707912182214 74.12824440963436 2.8199664825478976e-14
    vertex 45.75070791218222 71.12824440963436 10.999999999999995
    vertex 45.75070791218222 74.12824440963436 15.000000000000007
  endloop
endfacet
facet normal 1.8883704124204633e-16 -9.480921794773104e-16 1.0
  outer loop
    vertex 45.750707912182236 63.87824440963437 10.999999999999991
    vertex 79.75070791218222 71.12824440963436 10.999999999999979
    vertex 45.75070791218222 71.12824440963436 10.999999999999995
  endloop
endfacet
facet normal 1.8883704124204633e-16 -9.480921794773104e-16 1.0
  outer loop
    vertex 79.75070791218222 71.12824440963436 10.999999999999979
    vertex 45.750707912182236 63.87824440963437 10.999999999999991
    vertex 79.75070791218222 63.87824440963437 10.999999999999968
  endloop
endfacet
facet normal 0.7071067811865491 -5.122939972881941e-16 0.7071067811865459
  outer loop
    vertex 80.75070791218221 74.12824440963435 9.999999999999991
    vertex 79.75070791218222 63.87824440963437 10.999999999999968
    vertex 80.75070791218222 63.87824440963437 9.999999999999991
  endloop
endfacet
facet normal 0.7071067811865491 -5.122939972881941e-16 0.7071067811865459
  outer loop
    vertex 79.75070791218222 63.87824440963437 10.999999999999968
    vertex 80.75070791218221 74.12824440963435 9.999999999999991
    vertex 79.75070791218222 71.12824440963436 10.999999999999979
  endloop
endfacet
facet normal 0.7071067811865491 -5.122939972881941e-16 0.7071067811865459
  outer loop
    vertex 79.75070791218222 71.12824440963436 10.999999999999979
    vertex 80.75070791218221 74.12824440963435 9.999999999999991
    vertex 79.75070791218222 74.12824440963435 10.999999999999998
  endloop
endfacet
facet normal -2.5178272165606243e-16 9.724022353613475e-17 1.0
  outer loop
    vertex 79.75070791218222 51.12824440963439 10.99999999999998
    vertex 45.750707912182236 58.378244409634384 10.999999999999993
    vertex 45.75070791218222 51.128244409634384 10.999999999999995
  endloop
endfacet
facet normal -2.5178272165606243e-16 9.724022353613475e-17 1.0
  outer loop
    vertex 45.750707912182236 58.378244409634384 10.999999999999993
    vertex 79.75070791218222 51.12824440963439 10.99999999999998
    vertex 79.75070791218222 58.37824440963439 10.99999999999998
  endloop
endfacet
endsolid Т-Бегунок-20мм-Разборной
