solid Х-Балка-12мм-6-5мм
facet normal 1.748379219179698e-15 -1.1994486693286883e-29 1.0
  outer loop
    vertex -1.89346159629753e-14 -1.5 10.999999999999792
    vertex 99.99999999999997 10.500000000000675 10.999999999999796
    vertex -2.0521184499164103e-14 10.500000000000002 10.99999999999997
  endloop
endfacet
facet normal 1.748379219179698e-15 -1.1994486693286883e-29 1.0
  outer loop
    vertex 99.99999999999997 10.500000000000675 10.999999999999796
    vertex -1.89346159629753e-14 -1.5 10.999999999999792
    vertex 99.99999999999984 -1.4999999999992863 10.999999999999618
  endloop
endfacet
facet normal -1.7474656018438497e-15 -3.5975344500849905e-19 -1.0
  outer loop
    vertex 99.99999999999997 10.500000000000675 -1.0000000000002076
    vertex -2.304278418357252e-14 -1.5 -1.0000000000002098
    vertex -2.4017029320187657e-14 10.500000000000002 -1.0000000000000326
  endloop
endfacet
facet normal -1.7474656018438497e-15 -3.5975344500849905e-19 -1.0
  outer loop
    vertex -2.304278418357252e-14 -1.5 -1.0000000000002098
    vertex 99.99999999999997 10.500000000000675 -1.0000000000002076
    vertex 99.99999999999984 -1.4999999999992863 -1.0000000000003846
  endloop
endfacet
facet normal 0.9999999825112179 0.00018702289748647838 2.5539481492390196e-17
  outer loop
    vertex 99.99999999999984 -1.4999999999992863 -1.0000000000003846
    vertex 99.98284999999997 1.5000000000000187 1.999999999999788
    vertex 99.98284999999997 -1.4999999999999816 0.9999999999997433
  endloop
endfacet
facet normal 0.9999999825112179 0.00018702289748647838 2.5539481492390196e-17
  outer loop
    vertex 99.98284999999997 1.5000000000000187 1.999999999999788
    vertex 99.99999999999984 -1.4999999999992863 -1.0000000000003846
    vertex 99.99999999999997 10.500000000000675 -1.0000000000002076
  endloop
endfacet
facet normal 0.9999999825112179 0.00018702289748647838 2.5539481492390196e-17
  outer loop
    vertex 99.98284999999997 1.5000000000000187 1.999999999999788
    vertex 99.99999999999997 10.500000000000675 -1.0000000000002076
    vertex 99.98284999999997 2.5000000000000178 2.499999999999803
  endloop
endfacet
facet normal 0.9999999825112179 0.00018702289748647838 2.5539481492390196e-17
  outer loop
    vertex 99.98284999999997 2.5000000000000178 2.499999999999803
    vertex 99.99999999999997 10.500000000000675 -1.0000000000002076
    vertex 99.98284999999997 6.500000000000002 2.499999999999865
  endloop
endfacet
facet normal 0.9999999825112179 0.00018702289748647838 2.5539481492390196e-17
  outer loop
    vertex 99.98284999999997 2.5000000000000178 2.499999999999803
    vertex 99.98284999999997 6.500000000000002 2.499999999999865
    vertex 99.98284999999997 2.5000000000000178 7.499999999999805
  endloop
endfacet
facet normal 0.9999999825112179 0.00018702289748647838 2.5539481492390196e-17
  outer loop
    vertex 99.98284999999997 6.500000000000002 2.499999999999865
    vertex 99.99999999999997 10.500000000000675 -1.0000000000002076
    vertex 99.98284999999997 7.500000000000002 1.99999999999988
  endloop
endfacet
facet normal 0.9999999825112179 0.00018702289748647838 2.5539481492390196e-17
  outer loop
    vertex 99.98284999999997 7.500000000000002 1.99999999999988
    vertex 99.99999999999997 10.500000000000675 -1.0000000000002076
    vertex 99.98284999999997 10.500000000000002 0.9999999999999243
  endloop
endfacet
facet normal 0.9999999825112179 0.00018702289748647838 2.5539481492390196e-17
  outer loop
    vertex 99.98284999999997 1.5000000000000187 7.9999999999997895
    vertex 99.99999999999984 -1.4999999999992863 10.999999999999618
    vertex 99.98284999999997 -1.4999999999999816 8.999999999999746
  endloop
endfacet
facet normal 0.9999999825112179 0.00018702289748647838 2.5539481492390196e-17
  outer loop
    vertex 99.99999999999984 -1.4999999999992863 10.999999999999618
    vertex 99.98284999999997 1.5000000000000187 7.9999999999997895
    vertex 99.99999999999997 10.500000000000675 10.999999999999796
  endloop
endfacet
facet normal 0.9999999825112179 0.00018702289748647838 2.5539481492390196e-17
  outer loop
    vertex 99.99999999999997 10.500000000000675 10.999999999999796
    vertex 99.98284999999997 1.5000000000000187 7.9999999999997895
    vertex 99.98284999999997 2.5000000000000178 7.499999999999805
  endloop
endfacet
facet normal 0.9999999825112179 0.00018702289748647838 2.5539481492390196e-17
  outer loop
    vertex 99.99999999999997 10.500000000000675 10.999999999999796
    vertex 99.98284999999997 2.5000000000000178 7.499999999999805
    vertex 99.98284999999997 6.500000000000002 7.499999999999879
  endloop
endfacet
facet normal 0.9999999825112179 0.00018702289748647838 2.5539481492390196e-17
  outer loop
    vertex 99.98284999999997 6.500000000000002 7.499999999999879
    vertex 99.98284999999997 2.5000000000000178 7.499999999999805
    vertex 99.98284999999997 6.500000000000002 2.499999999999865
  endloop
endfacet
facet normal 0.9999999825112179 0.00018702289748647838 2.5539481492390196e-17
  outer loop
    vertex 99.99999999999997 10.500000000000675 10.999999999999796
    vertex 99.98284999999997 6.500000000000002 7.499999999999879
    vertex 99.98284999999997 7.500000000000002 7.999999999999895
  endloop
endfacet
facet normal 0.9999999825112179 0.00018702289748647838 2.5539481492390196e-17
  outer loop
    vertex 99.99999999999997 10.500000000000675 10.999999999999796
    vertex 99.98284999999997 7.500000000000002 7.999999999999895
    vertex 99.98284999999997 10.500000000000002 8.999999999999941
  endloop
endfacet
facet normal -1.0 -1.0940351407161092e-16 3.759796723832063e-16
  outer loop
    vertex -2.0521184499164103e-14 10.500000000000002 10.99999999999997
    vertex -1.9311198049863378e-14 -1.5 8.999999999999794
    vertex -1.89346159629753e-14 -1.5 10.999999999999792
  endloop
endfacet
facet normal -1.0 -1.0940351407161092e-16 3.759796723832063e-16
  outer loop
    vertex -1.9311198049863378e-14 -1.5 8.999999999999794
    vertex -2.0521184499164103e-14 10.500000000000002 10.99999999999997
    vertex -1.9646458057573546e-14 1.5 7.999999999999836
  endloop
endfacet
facet normal -1.0 -1.0940351407161092e-16 3.759796723832063e-16
  outer loop
    vertex -1.9646458057573546e-14 1.5 7.999999999999836
    vertex -2.0521184499164103e-14 10.500000000000002 10.99999999999997
    vertex -2.0616706296115805e-14 2.4999999999999996 7.499999999999851
  endloop
endfacet
facet normal -1.0 -1.0940351407161092e-16 3.759796723832063e-16
  outer loop
    vertex -2.0616706296115805e-14 2.4999999999999996 7.499999999999851
    vertex -2.0521184499164103e-14 10.500000000000002 10.99999999999997
    vertex -2.0766567112865248e-14 6.500000000000002 7.49999999999991
  endloop
endfacet
facet normal -1.0 -1.0940351407161092e-16 3.759796723832063e-16
  outer loop
    vertex -2.0616706296115805e-14 2.4999999999999996 7.499999999999851
    vertex -2.0766567112865248e-14 6.500000000000002 7.49999999999991
    vertex -2.3204833205277763e-14 2.4999999999999996 2.499999999999849
  endloop
endfacet
facet normal -1.0 -1.0940351407161092e-16 3.759796723832063e-16
  outer loop
    vertex -2.0766567112865248e-14 6.500000000000002 7.49999999999991
    vertex -2.0521184499164103e-14 10.500000000000002 10.99999999999997
    vertex -2.0759844034768455e-14 7.500000000000002 7.999999999999926
  endloop
endfacet
facet normal -1.0 -1.0940351407161092e-16 3.759796723832063e-16
  outer loop
    vertex -2.0759844034768455e-14 7.500000000000002 7.999999999999926
    vertex -2.0521184499164103e-14 10.500000000000002 10.99999999999997
    vertex -2.0812504900916068e-14 10.500000000000002 8.999999999999972
  endloop
endfacet
facet normal -1.0 -1.0940351407161092e-16 3.759796723832063e-16
  outer loop
    vertex -2.2651043798074752e-14 1.5 1.9999999999998346
    vertex -2.304278418357252e-14 -1.5 -1.0000000000002098
    vertex -2.2700436831856088e-14 -1.5 0.9999999999997898
  endloop
endfacet
facet normal -1.0 -1.0940351407161092e-16 3.759796723832063e-16
  outer loop
    vertex -2.304278418357252e-14 -1.5 -1.0000000000002098
    vertex -2.2651043798074752e-14 1.5 1.9999999999998346
    vertex -2.4017029320187657e-14 10.500000000000002 -1.0000000000000326
  endloop
endfacet
facet normal -1.0 -1.0940351407161092e-16 3.759796723832063e-16
  outer loop
    vertex -2.4017029320187657e-14 10.500000000000002 -1.0000000000000326
    vertex -2.2651043798074752e-14 1.5 1.9999999999998346
    vertex -2.3204833205277763e-14 2.4999999999999996 2.499999999999849
  endloop
endfacet
facet normal -1.0 -1.0940351407161092e-16 3.759796723832063e-16
  outer loop
    vertex -2.4017029320187657e-14 10.500000000000002 -1.0000000000000326
    vertex -2.3204833205277763e-14 2.4999999999999996 2.499999999999849
    vertex -2.312507274718708e-14 6.500000000000002 2.4999999999999085
  endloop
endfacet
facet normal -1.0 -1.0940351407161092e-16 3.759796723832063e-16
  outer loop
    vertex -2.312507274718708e-14 6.500000000000002 2.4999999999999085
    vertex -2.3204833205277763e-14 2.4999999999999996 2.499999999999849
    vertex -2.0766567112865248e-14 6.500000000000002 7.49999999999991
  endloop
endfacet
facet normal -1.0 -1.0940351407161092e-16 3.759796723832063e-16
  outer loop
    vertex -2.4017029320187657e-14 10.500000000000002 -1.0000000000000326
    vertex -2.312507274718708e-14 6.500000000000002 2.4999999999999085
    vertex -2.377346803603387e-14 7.500000000000002 1.9999999999999234
  endloop
endfacet
facet normal -1.0 -1.0940351407161092e-16 3.759796723832063e-16
  outer loop
    vertex -2.4017029320187657e-14 10.500000000000002 -1.0000000000000326
    vertex -2.377346803603387e-14 7.500000000000002 1.9999999999999234
    vertex -2.3696576878260496e-14 10.500000000000002 0.9999999999999671
  endloop
endfacet
facet normal -3.3633868018126645e-15 1.0 -1.681260810010058e-13
  outer loop
    vertex -2.0812504900916068e-14 10.500000000000002 8.999999999999972
    vertex 99.99999999999997 10.500000000000675 10.999999999999796
    vertex 99.98284999999997 10.500000000000002 8.999999999999941
  endloop
endfacet
facet normal -3.3633868018126645e-15 1.0 -1.681260810010058e-13
  outer loop
    vertex 99.99999999999997 10.500000000000675 10.999999999999796
    vertex -2.0812504900916068e-14 10.500000000000002 8.999999999999972
    vertex -2.0521184499164103e-14 10.500000000000002 10.99999999999997
  endloop
endfacet
facet normal 3.662162367752185e-15 -1.0 -1.7380879494215238e-13
  outer loop
    vertex 99.98284999999997 -1.4999999999999816 0.9999999999997433
    vertex -2.304278418357252e-14 -1.5 -1.0000000000002098
    vertex 99.99999999999984 -1.4999999999992863 -1.0000000000003846
  endloop
endfacet
facet normal 3.662162367752185e-15 -1.0 -1.7380879494215238e-13
  outer loop
    vertex -2.304278418357252e-14 -1.5 -1.0000000000002098
    vertex 99.98284999999997 -1.4999999999999816 0.9999999999997433
    vertex -2.2700436831856088e-14 -1.5 0.9999999999997898
  endloop
endfacet
facet normal 4.0869844274599306e-16 0.31622776601682534 0.948683298050518
  outer loop
    vertex 99.98284999999997 7.500000000000002 1.99999999999988
    vertex -2.3696576878260496e-14 10.500000000000002 0.9999999999999671
    vertex -2.377346803603387e-14 7.500000000000002 1.9999999999999234
  endloop
endfacet
facet normal 4.0869844274599306e-16 0.31622776601682534 0.948683298050518
  outer loop
    vertex -2.3696576878260496e-14 10.500000000000002 0.9999999999999671
    vertex 99.98284999999997 7.500000000000002 1.99999999999988
    vertex 99.98284999999997 10.500000000000002 0.9999999999999243
  endloop
endfacet
facet normal 3.5272276822374816e-16 0.4472135954999474 0.8944271909999213
  outer loop
    vertex -2.312507274718708e-14 6.500000000000002 2.4999999999999085
    vertex 99.98284999999997 7.500000000000002 1.99999999999988
    vertex -2.377346803603387e-14 7.500000000000002 1.9999999999999234
  endloop
endfacet
facet normal 3.5272276822374816e-16 0.4472135954999474 0.8944271909999213
  outer loop
    vertex 99.98284999999997 7.500000000000002 1.99999999999988
    vertex -2.312507274718708e-14 6.500000000000002 2.4999999999999085
    vertex 99.98284999999997 6.500000000000002 2.499999999999865
  endloop
endfacet
facet normal -5.843748100711536e-17 1.0 2.756502564217132e-32
  outer loop
    vertex -2.312507274718708e-14 6.500000000000002 2.4999999999999085
    vertex 99.98284999999997 6.500000000000002 7.499999999999879
    vertex 99.98284999999997 6.500000000000002 2.499999999999865
  endloop
endfacet
facet normal -5.843748100711536e-17 1.0 2.756502564217132e-32
  outer loop
    vertex 99.98284999999997 6.500000000000002 7.499999999999879
    vertex -2.312507274718708e-14 6.500000000000002 2.4999999999999085
    vertex -2.0766567112865248e-14 6.500000000000002 7.49999999999991
  endloop
endfacet
facet normal -4.049908402100486e-16 0.44721359549996953 -0.8944271909999101
  outer loop
    vertex -2.0759844034768455e-14 7.500000000000002 7.999999999999926
    vertex 99.98284999999997 6.500000000000002 7.499999999999879
    vertex -2.0766567112865248e-14 6.500000000000002 7.49999999999991
  endloop
endfacet
facet normal -4.049908402100486e-16 0.44721359549996953 -0.8944271909999101
  outer loop
    vertex 99.98284999999997 6.500000000000002 7.499999999999879
    vertex -2.0759844034768455e-14 7.500000000000002 7.999999999999926
    vertex 99.98284999999997 7.500000000000002 7.999999999999895
  endloop
endfacet
facet normal -2.939909796052232e-16 0.31622776601685115 -0.9486832980505095
  outer loop
    vertex 99.98284999999997 10.500000000000002 8.999999999999941
    vertex -2.0759844034768455e-14 7.500000000000002 7.999999999999926
    vertex -2.0812504900916068e-14 10.500000000000002 8.999999999999972
  endloop
endfacet
facet normal -2.939909796052232e-16 0.31622776601685115 -0.9486832980505095
  outer loop
    vertex -2.0759844034768455e-14 7.500000000000002 7.999999999999926
    vertex 99.98284999999997 10.500000000000002 8.999999999999941
    vertex 99.98284999999997 7.500000000000002 7.999999999999895
  endloop
endfacet
facet normal -3.3633868018123087e-15 1.0 1.681260810010056e-13
  outer loop
    vertex -2.4017029320187657e-14 10.500000000000002 -1.0000000000000326
    vertex 99.98284999999997 10.500000000000002 0.9999999999999243
    vertex 99.99999999999997 10.500000000000675 -1.0000000000002076
  endloop
endfacet
facet normal -3.3633868018123087e-15 1.0 1.681260810010056e-13
  outer loop
    vertex 99.98284999999997 10.500000000000002 0.9999999999999243
    vertex -2.4017029320187657e-14 10.500000000000002 -1.0000000000000326
    vertex -2.3696576878260496e-14 10.500000000000002 0.9999999999999671
  endloop
endfacet
facet normal -3.8306628122935503e-16 -0.31622776601682584 -0.948683298050518
  outer loop
    vertex 99.98284999999997 1.5000000000000187 7.9999999999997895
    vertex -1.9311198049863378e-14 -1.5 8.999999999999794
    vertex -1.9646458057573546e-14 1.5 7.999999999999836
  endloop
endfacet
facet normal -3.8306628122935503e-16 -0.31622776601682584 -0.948683298050518
  outer loop
    vertex -1.9311198049863378e-14 -1.5 8.999999999999794
    vertex 99.98284999999997 1.5000000000000187 7.9999999999997895
    vertex 99.98284999999997 -1.4999999999999816 8.999999999999746
  endloop
endfacet
facet normal -3.328560586885315e-16 -0.4472135954999474 -0.8944271909999213
  outer loop
    vertex 99.98284999999997 2.5000000000000178 7.499999999999805
    vertex -1.9646458057573546e-14 1.5 7.999999999999836
    vertex -2.0616706296115805e-14 2.4999999999999996 7.499999999999851
  endloop
endfacet
facet normal -3.328560586885315e-16 -0.4472135954999474 -0.8944271909999213
  outer loop
    vertex -1.9646458057573546e-14 1.5 7.999999999999836
    vertex 99.98284999999997 2.5000000000000178 7.499999999999805
    vertex 99.98284999999997 1.5000000000000187 7.9999999999997895
  endloop
endfacet
facet normal 1.8502417396593333e-16 -1.0 -9.577320869733908e-32
  outer loop
    vertex 99.98284999999997 2.5000000000000178 7.499999999999805
    vertex -2.3204833205277763e-14 2.4999999999999996 2.499999999999849
    vertex 99.98284999999997 2.5000000000000178 2.499999999999803
  endloop
endfacet
facet normal 1.8502417396593333e-16 -1.0 -9.577320869733908e-32
  outer loop
    vertex -2.3204833205277763e-14 2.4999999999999996 2.499999999999849
    vertex 99.98284999999997 2.5000000000000178 7.499999999999805
    vertex -2.0616706296115805e-14 2.4999999999999996 7.499999999999851
  endloop
endfacet
facet normal 4.983467108759561e-16 -0.4472135954999686 0.8944271909999107
  outer loop
    vertex -2.2651043798074752e-14 1.5 1.9999999999998346
    vertex 99.98284999999997 2.5000000000000178 2.499999999999803
    vertex -2.3204833205277763e-14 2.4999999999999996 2.499999999999849
  endloop
endfacet
facet normal 4.983467108759561e-16 -0.4472135954999686 0.8944271909999107
  outer loop
    vertex 99.98284999999997 2.5000000000000178 2.499999999999803
    vertex -2.2651043798074752e-14 1.5 1.9999999999998346
    vertex 99.98284999999997 1.5000000000000187 1.999999999999788
  endloop
endfacet
facet normal 5.00181184954554e-16 -0.31622776601685065 0.9486832980505098
  outer loop
    vertex 99.98284999999997 -1.4999999999999816 0.9999999999997433
    vertex -2.2651043798074752e-14 1.5 1.9999999999998346
    vertex -2.2700436831856088e-14 -1.5 0.9999999999997898
  endloop
endfacet
facet normal 5.00181184954554e-16 -0.31622776601685065 0.9486832980505098
  outer loop
    vertex -2.2651043798074752e-14 1.5 1.9999999999998346
    vertex 99.98284999999997 -1.4999999999999816 0.9999999999997433
    vertex 99.98284999999997 1.5000000000000187 1.999999999999788
  endloop
endfacet
facet normal 3.66216236775257e-15 -1.0 1.7380879494215248e-13
  outer loop
    vertex 99.99999999999984 -1.4999999999992863 10.999999999999618
    vertex -1.9311198049863378e-14 -1.5 8.999999999999794
    vertex 99.98284999999997 -1.4999999999999816 8.999999999999746
  endloop
endfacet
facet normal 3.66216236775257e-15 -1.0 1.7380879494215248e-13
  outer loop
    vertex -1.9311198049863378e-14 -1.5 8.999999999999794
    vertex 99.99999999999984 -1.4999999999992863 10.999999999999618
    vertex -1.89346159629753e-14 -1.5 10.999999999999792
  endloop
endfacet
endsolid Х-Балка-12мм-6-5мм
