solid Барашек под гайку 8мм - попроще-и-поглубже
facet normal -0.0 1.0 -0.0
  outer loop
    vertex 9.284232335022706 18.0 9.0
    vertex 20.7157676649773 18.0 1.4099832412739487e-15
    vertex 9.284232335022706 18.0 0.0
  endloop
endfacet
facet normal -0.0 1.0 -0.0
  outer loop
    vertex 20.7157676649773 18.0 1.4099832412739487e-15
    vertex 9.284232335022706 18.0 9.0
    vertex 20.7157676649773 18.0 9.0
  endloop
endfacet
facet normal -1.2452139361642392e-32 -1.0 1.4234707104613312e-32
  outer loop
    vertex 20.715767664977296 -2.8469414209226624e-31 0.0
    vertex 9.284232335022704 4.321991574899573e-16 9.0
    vertex 9.284232335022704 0.0 -7.049916206369744e-16
  endloop
endfacet
facet normal -1.2452139361642392e-32 -1.0 1.4234707104613312e-32
  outer loop
    vertex 9.284232335022704 4.321991574899573e-16 9.0
    vertex 20.715767664977296 -2.8469414209226624e-31 0.0
    vertex 20.715767664977292 4.321991574899573e-16 9.0
  endloop
endfacet
facet normal 0.13052619222005213 0.9914448613738105 -0.0
  outer loop
    vertex 13.964723819589915 5.13629669484373 1.9999999999999998
    vertex 15.0 5.000000000000002 0.0
    vertex 13.964723819589915 5.13629669484373 0.0
  endloop
endfacet
facet normal 0.13052619222005213 0.9914448613738105 -0.0
  outer loop
    vertex 15.0 5.000000000000002 0.0
    vertex 13.964723819589915 5.13629669484373 1.9999999999999998
    vertex 15.0 5.000000000000002 1.9999999999999998
  endloop
endfacet
facet normal -0.13052619222005146 0.9914448613738105 -0.0
  outer loop
    vertex 15.0 5.000000000000002 1.9999999999999998
    vertex 16.03527618041008 5.136296694843728 0.0
    vertex 15.0 5.000000000000002 0.0
  endloop
endfacet
facet normal -0.13052619222005146 0.9914448613738105 -0.0
  outer loop
    vertex 16.03527618041008 5.136296694843728 0.0
    vertex 15.0 5.000000000000002 1.9999999999999998
    vertex 16.03527618041008 5.136296694843728 1.9999999999999998
  endloop
endfacet
facet normal -0.38268343236508895 0.9238795325112871 -0.0
  outer loop
    vertex 16.03527618041008 5.136296694843728 1.9999999999999998
    vertex 16.999999999999996 5.535898384862246 0.0
    vertex 16.03527618041008 5.136296694843728 0.0
  endloop
endfacet
facet normal -0.38268343236508895 0.9238795325112871 -0.0
  outer loop
    vertex 16.999999999999996 5.535898384862246 0.0
    vertex 16.03527618041008 5.136296694843728 1.9999999999999998
    vertex 16.999999999999996 5.535898384862246 1.9999999999999998
  endloop
endfacet
facet normal -0.6087614290087201 0.7933533402912357 -0.0
  outer loop
    vertex 16.999999999999996 5.535898384862246 1.9999999999999998
    vertex 17.828427124746188 6.171572875253811 0.0
    vertex 16.999999999999996 5.535898384862246 0.0
  endloop
endfacet
facet normal -0.6087614290087201 0.7933533402912357 -0.0
  outer loop
    vertex 17.828427124746188 6.171572875253811 0.0
    vertex 16.999999999999996 5.535898384862246 1.9999999999999998
    vertex 17.828427124746188 6.171572875253811 1.9999999999999998
  endloop
endfacet
facet normal -0.7933533402912359 0.6087614290087199 0.0
  outer loop
    vertex 18.464101615137753 7.0 1.9999999999999998
    vertex 17.828427124746188 6.171572875253811 0.0
    vertex 17.828427124746188 6.171572875253811 1.9999999999999998
  endloop
endfacet
facet normal -0.7933533402912359 0.6087614290087199 0.0
  outer loop
    vertex 17.828427124746188 6.171572875253811 0.0
    vertex 18.464101615137753 7.0 1.9999999999999998
    vertex 18.464101615137753 7.0 0.0
  endloop
endfacet
facet normal -0.923879532511286 0.38268343236509184 0.0
  outer loop
    vertex 18.86370330515627 7.964723819589915 1.9999999999999998
    vertex 18.464101615137753 7.0 0.0
    vertex 18.464101615137753 7.0 1.9999999999999998
  endloop
endfacet
facet normal -0.923879532511286 0.38268343236509184 0.0
  outer loop
    vertex 18.464101615137753 7.0 0.0
    vertex 18.86370330515627 7.964723819589915 1.9999999999999998
    vertex 18.86370330515627 7.964723819589915 0.0
  endloop
endfacet
facet normal -0.9914448613738105 0.13052619222005143 0.0
  outer loop
    vertex 19.0 9.0 1.9999999999999998
    vertex 18.86370330515627 7.964723819589915 0.0
    vertex 18.86370330515627 7.964723819589915 1.9999999999999998
  endloop
endfacet
facet normal -0.9914448613738105 0.13052619222005143 0.0
  outer loop
    vertex 18.86370330515627 7.964723819589915 0.0
    vertex 19.0 9.0 1.9999999999999998
    vertex 19.0 9.0 0.0
  endloop
endfacet
facet normal -0.9914448613738105 -0.13052619222005185 0.0
  outer loop
    vertex 18.86370330515627 10.035276180410083 1.9999999999999998
    vertex 19.0 9.0 0.0
    vertex 19.0 9.0 1.9999999999999998
  endloop
endfacet
facet normal -0.9914448613738105 -0.13052619222005185 0.0
  outer loop
    vertex 19.0 9.0 0.0
    vertex 18.86370330515627 10.035276180410083 1.9999999999999998
    vertex 18.86370330515627 10.035276180410083 0.0
  endloop
endfacet
facet normal -0.9238795325112871 -0.382683432365089 0.0
  outer loop
    vertex 18.464101615137753 11.0 1.9999999999999998
    vertex 18.86370330515627 10.035276180410083 0.0
    vertex 18.86370330515627 10.035276180410083 1.9999999999999998
  endloop
endfacet
facet normal -0.9238795325112871 -0.382683432365089 0.0
  outer loop
    vertex 18.86370330515627 10.035276180410083 0.0
    vertex 18.464101615137753 11.0 1.9999999999999998
    vertex 18.464101615137753 11.0 0.0
  endloop
endfacet
facet normal -0.7933533402912347 -0.6087614290087213 0.0
  outer loop
    vertex 17.828427124746188 11.82842712474619 1.9999999999999998
    vertex 18.464101615137753 11.0 0.0
    vertex 18.464101615137753 11.0 1.9999999999999998
  endloop
endfacet
facet normal -0.7933533402912347 -0.6087614290087213 0.0
  outer loop
    vertex 18.464101615137753 11.0 0.0
    vertex 17.828427124746188 11.82842712474619 1.9999999999999998
    vertex 17.828427124746188 11.82842712474619 0.0
  endloop
endfacet
facet normal -0.6087614290087213 -0.7933533402912347 0.0
  outer loop
    vertex 17.828427124746188 11.82842712474619 1.9999999999999998
    vertex 17.0 12.464101615137753 0.0
    vertex 17.828427124746188 11.82842712474619 0.0
  endloop
endfacet
facet normal -0.6087614290087213 -0.7933533402912347 0.0
  outer loop
    vertex 17.0 12.464101615137753 0.0
    vertex 17.828427124746188 11.82842712474619 1.9999999999999998
    vertex 17.0 12.464101615137753 1.9999999999999998
  endloop
endfacet
facet normal -0.38268343236508895 -0.9238795325112871 0.0
  outer loop
    vertex 17.0 12.464101615137753 1.9999999999999998
    vertex 16.035276180410083 12.863703305156271 0.0
    vertex 17.0 12.464101615137753 0.0
  endloop
endfacet
facet normal -0.38268343236508895 -0.9238795325112871 0.0
  outer loop
    vertex 16.035276180410083 12.863703305156271 0.0
    vertex 17.0 12.464101615137753 1.9999999999999998
    vertex 16.035276180410083 12.863703305156271 1.9999999999999998
  endloop
endfacet
facet normal -0.13052619222005185 -0.9914448613738105 0.0
  outer loop
    vertex 16.035276180410083 12.863703305156271 1.9999999999999998
    vertex 15.0 12.999999999999998 0.0
    vertex 16.035276180410083 12.863703305156271 0.0
  endloop
endfacet
facet normal -0.13052619222005185 -0.9914448613738105 0.0
  outer loop
    vertex 15.0 12.999999999999998 0.0
    vertex 16.035276180410083 12.863703305156271 1.9999999999999998
    vertex 15.0 12.999999999999998 1.9999999999999998
  endloop
endfacet
facet normal 0.13052619222005185 -0.9914448613738105 0.0
  outer loop
    vertex 15.0 12.999999999999998 1.9999999999999998
    vertex 13.964723819589919 12.863703305156271 0.0
    vertex 15.0 12.999999999999998 0.0
  endloop
endfacet
facet normal 0.13052619222005185 -0.9914448613738105 0.0
  outer loop
    vertex 13.964723819589919 12.863703305156271 0.0
    vertex 15.0 12.999999999999998 1.9999999999999998
    vertex 13.964723819589919 12.863703305156271 1.9999999999999998
  endloop
endfacet
facet normal 0.382683432365089 -0.9238795325112871 0.0
  outer loop
    vertex 13.964723819589919 12.863703305156271 1.9999999999999998
    vertex 13.000000000000002 12.464101615137753 0.0
    vertex 13.964723819589919 12.863703305156271 0.0
  endloop
endfacet
facet normal 0.382683432365089 -0.9238795325112871 0.0
  outer loop
    vertex 13.000000000000002 12.464101615137753 0.0
    vertex 13.964723819589919 12.863703305156271 1.9999999999999998
    vertex 13.000000000000002 12.464101615137753 1.9999999999999998
  endloop
endfacet
facet normal 0.6087614290087214 -0.7933533402912347 0.0
  outer loop
    vertex 13.000000000000002 12.464101615137753 1.9999999999999998
    vertex 12.171572875253812 11.82842712474619 0.0
    vertex 13.000000000000002 12.464101615137753 0.0
  endloop
endfacet
facet normal 0.6087614290087214 -0.7933533402912347 0.0
  outer loop
    vertex 12.171572875253812 11.82842712474619 0.0
    vertex 13.000000000000002 12.464101615137753 1.9999999999999998
    vertex 12.171572875253812 11.82842712474619 1.9999999999999998
  endloop
endfacet
facet normal 0.793353340291235 -0.6087614290087211 -0.0
  outer loop
    vertex 12.171572875253812 11.82842712474619 0.0
    vertex 11.535898384862248 11.000000000000002 1.9999999999999998
    vertex 11.535898384862248 11.000000000000002 0.0
  endloop
endfacet
facet normal 0.793353340291235 -0.6087614290087211 -0.0
  outer loop
    vertex 11.535898384862248 11.000000000000002 1.9999999999999998
    vertex 12.171572875253812 11.82842712474619 0.0
    vertex 12.171572875253812 11.82842712474619 1.9999999999999998
  endloop
endfacet
facet normal 0.9238795325112867 -0.3826834323650903 -0.0
  outer loop
    vertex 11.535898384862248 11.000000000000002 0.0
    vertex 11.136296694843729 10.035276180410085 1.9999999999999998
    vertex 11.136296694843729 10.035276180410085 0.0
  endloop
endfacet
facet normal 0.9238795325112867 -0.3826834323650903 -0.0
  outer loop
    vertex 11.136296694843729 10.035276180410085 1.9999999999999998
    vertex 11.535898384862248 11.000000000000002 0.0
    vertex 11.535898384862248 11.000000000000002 1.9999999999999998
  endloop
endfacet
facet normal 0.9914448613738105 -0.13052619222005166 -0.0
  outer loop
    vertex 11.136296694843729 10.035276180410085 0.0
    vertex 11.000000000000002 9.0 1.9999999999999998
    vertex 11.000000000000002 9.0 0.0
  endloop
endfacet
facet normal 0.9914448613738105 -0.13052619222005166 -0.0
  outer loop
    vertex 11.000000000000002 9.0 1.9999999999999998
    vertex 11.136296694843729 10.035276180410085 0.0
    vertex 11.136296694843729 10.035276180410085 1.9999999999999998
  endloop
endfacet
facet normal 0.9914448613738105 0.13052619222005196 -0.0
  outer loop
    vertex 11.000000000000002 9.0 0.0
    vertex 11.136296694843729 7.964723819589919 1.9999999999999998
    vertex 11.136296694843729 7.964723819589919 0.0
  endloop
endfacet
facet normal 0.9914448613738105 0.13052619222005196 -0.0
  outer loop
    vertex 11.136296694843729 7.964723819589919 1.9999999999999998
    vertex 11.000000000000002 9.0 0.0
    vertex 11.000000000000002 9.0 1.9999999999999998
  endloop
endfacet
facet normal 0.9238795325112871 0.382683432365089 -0.0
  outer loop
    vertex 11.136296694843729 7.964723819589919 0.0
    vertex 11.535898384862247 7.000000000000003 1.9999999999999998
    vertex 11.535898384862247 7.000000000000003 0.0
  endloop
endfacet
facet normal 0.9238795325112871 0.382683432365089 -0.0
  outer loop
    vertex 11.535898384862247 7.000000000000003 1.9999999999999998
    vertex 11.136296694843729 7.964723819589919 0.0
    vertex 11.136296694843729 7.964723819589919 1.9999999999999998
  endloop
endfacet
facet normal 0.7933533402912353 0.6087614290087204 -0.0
  outer loop
    vertex 11.535898384862247 7.000000000000003 0.0
    vertex 12.17157287525381 6.171572875253813 1.9999999999999998
    vertex 12.17157287525381 6.171572875253813 0.0
  endloop
endfacet
facet normal 0.7933533402912353 0.6087614290087204 -0.0
  outer loop
    vertex 12.17157287525381 6.171572875253813 1.9999999999999998
    vertex 11.535898384862247 7.000000000000003 0.0
    vertex 11.535898384862247 7.000000000000003 1.9999999999999998
  endloop
endfacet
facet normal 0.6087614290087219 0.7933533402912342 -0.0
  outer loop
    vertex 12.17157287525381 6.171572875253813 1.9999999999999998
    vertex 12.999999999999998 5.535898384862248 0.0
    vertex 12.17157287525381 6.171572875253813 0.0
  endloop
endfacet
facet normal 0.6087614290087219 0.7933533402912342 -0.0
  outer loop
    vertex 12.999999999999998 5.535898384862248 0.0
    vertex 12.17157287525381 6.171572875253813 1.9999999999999998
    vertex 12.999999999999998 5.535898384862248 1.9999999999999998
  endloop
endfacet
facet normal 0.38268343236508967 0.9238795325112868 -0.0
  outer loop
    vertex 12.999999999999998 5.535898384862248 1.9999999999999998
    vertex 13.964723819589915 5.13629669484373 0.0
    vertex 12.999999999999998 5.535898384862248 0.0
  endloop
endfacet
facet normal 0.38268343236508967 0.9238795325112868 -0.0
  outer loop
    vertex 13.964723819589915 5.13629669484373 0.0
    vertex 12.999999999999998 5.535898384862248 1.9999999999999998
    vertex 13.964723819589915 5.13629669484373 1.9999999999999998
  endloop
endfacet
facet normal 0.0 0.0 1.0
  outer loop
    vertex 11.189488223348464 2.4000000000000057 1.9999999999999998
    vertex 11.000000000000002 9.0 1.9999999999999998
    vertex 7.3789764466969405 9.000000000000005 1.9999999999999998
  endloop
endfacet
facet normal 0.0 0.0 1.0
  outer loop
    vertex 11.000000000000002 9.0 1.9999999999999998
    vertex 11.189488223348464 2.4000000000000057 1.9999999999999998
    vertex 11.136296694843729 7.964723819589919 1.9999999999999998
  endloop
endfacet
facet normal 0.0 0.0 1.0
  outer loop
    vertex 11.136296694843729 7.964723819589919 1.9999999999999998
    vertex 11.189488223348464 2.4000000000000057 1.9999999999999998
    vertex 11.535898384862247 7.000000000000003 1.9999999999999998
  endloop
endfacet
facet normal 0.0 0.0 1.0
  outer loop
    vertex 11.535898384862247 7.000000000000003 1.9999999999999998
    vertex 11.189488223348464 2.4000000000000057 1.9999999999999998
    vertex 12.17157287525381 6.171572875253813 1.9999999999999998
  endloop
endfacet
facet normal 0.0 0.0 1.0
  outer loop
    vertex 12.17157287525381 6.171572875253813 1.9999999999999998
    vertex 11.189488223348464 2.4000000000000057 1.9999999999999998
    vertex 12.999999999999998 5.535898384862248 1.9999999999999998
  endloop
endfacet
facet normal 0.0 0.0 1.0
  outer loop
    vertex 12.999999999999998 5.535898384862248 1.9999999999999998
    vertex 11.189488223348464 2.4000000000000057 1.9999999999999998
    vertex 18.810511776651527 2.4 1.9999999999999998
  endloop
endfacet
facet normal 0.0 0.0 1.0
  outer loop
    vertex 12.999999999999998 5.535898384862248 1.9999999999999998
    vertex 18.810511776651527 2.4 1.9999999999999998
    vertex 13.964723819589915 5.13629669484373 1.9999999999999998
  endloop
endfacet
facet normal 0.0 0.0 1.0
  outer loop
    vertex 13.964723819589915 5.13629669484373 1.9999999999999998
    vertex 18.810511776651527 2.4 1.9999999999999998
    vertex 15.0 5.000000000000002 1.9999999999999998
  endloop
endfacet
facet normal 0.0 0.0 1.0
  outer loop
    vertex 15.0 5.000000000000002 1.9999999999999998
    vertex 18.810511776651527 2.4 1.9999999999999998
    vertex 16.03527618041008 5.136296694843728 1.9999999999999998
  endloop
endfacet
facet normal 0.0 0.0 1.0
  outer loop
    vertex 16.03527618041008 5.136296694843728 1.9999999999999998
    vertex 18.810511776651527 2.4 1.9999999999999998
    vertex 16.999999999999996 5.535898384862246 1.9999999999999998
  endloop
endfacet
facet normal 0.0 0.0 1.0
  outer loop
    vertex 16.999999999999996 5.535898384862246 1.9999999999999998
    vertex 18.810511776651527 2.4 1.9999999999999998
    vertex 17.828427124746188 6.171572875253811 1.9999999999999998
  endloop
endfacet
facet normal 0.0 0.0 1.0
  outer loop
    vertex 17.828427124746188 6.171572875253811 1.9999999999999998
    vertex 18.810511776651527 2.4 1.9999999999999998
    vertex 18.464101615137753 7.0 1.9999999999999998
  endloop
endfacet
facet normal 0.0 0.0 1.0
  outer loop
    vertex 18.464101615137753 7.0 1.9999999999999998
    vertex 18.810511776651527 2.4 1.9999999999999998
    vertex 18.86370330515627 7.964723819589915 1.9999999999999998
  endloop
endfacet
facet normal 0.0 0.0 1.0
  outer loop
    vertex 18.86370330515627 7.964723819589915 1.9999999999999998
    vertex 18.810511776651527 2.4 1.9999999999999998
    vertex 22.621023553303058 8.999999999999998 1.9999999999999998
  endloop
endfacet
facet normal 0.0 0.0 1.0
  outer loop
    vertex 18.86370330515627 7.964723819589915 1.9999999999999998
    vertex 22.621023553303058 8.999999999999998 1.9999999999999998
    vertex 19.0 9.0 1.9999999999999998
  endloop
endfacet
facet normal 0.0 0.0 1.0
  outer loop
    vertex 11.000000000000002 9.0 1.9999999999999998
    vertex 11.189488223348473 15.6 1.9999999999999998
    vertex 7.3789764466969405 9.000000000000005 1.9999999999999998
  endloop
endfacet
facet normal 0.0 0.0 1.0
  outer loop
    vertex 11.189488223348473 15.6 1.9999999999999998
    vertex 11.000000000000002 9.0 1.9999999999999998
    vertex 11.136296694843729 10.035276180410085 1.9999999999999998
  endloop
endfacet
facet normal 0.0 0.0 1.0
  outer loop
    vertex 11.189488223348473 15.6 1.9999999999999998
    vertex 11.136296694843729 10.035276180410085 1.9999999999999998
    vertex 11.535898384862248 11.000000000000002 1.9999999999999998
  endloop
endfacet
facet normal 0.0 0.0 1.0
  outer loop
    vertex 11.189488223348473 15.6 1.9999999999999998
    vertex 11.535898384862248 11.000000000000002 1.9999999999999998
    vertex 12.171572875253812 11.82842712474619 1.9999999999999998
  endloop
endfacet
facet normal 0.0 0.0 1.0
  outer loop
    vertex 11.189488223348473 15.6 1.9999999999999998
    vertex 12.171572875253812 11.82842712474619 1.9999999999999998
    vertex 13.000000000000002 12.464101615137753 1.9999999999999998
  endloop
endfacet
facet normal 0.0 0.0 1.0
  outer loop
    vertex 11.189488223348473 15.6 1.9999999999999998
    vertex 13.000000000000002 12.464101615137753 1.9999999999999998
    vertex 18.810511776651534 15.599999999999996 1.9999999999999998
  endloop
endfacet
facet normal 0.0 0.0 1.0
  outer loop
    vertex 18.810511776651534 15.599999999999996 1.9999999999999998
    vertex 13.000000000000002 12.464101615137753 1.9999999999999998
    vertex 13.964723819589919 12.863703305156271 1.9999999999999998
  endloop
endfacet
facet normal 0.0 0.0 1.0
  outer loop
    vertex 18.810511776651534 15.599999999999996 1.9999999999999998
    vertex 13.964723819589919 12.863703305156271 1.9999999999999998
    vertex 15.0 12.999999999999998 1.9999999999999998
  endloop
endfacet
facet normal 0.0 0.0 1.0
  outer loop
    vertex 18.810511776651534 15.599999999999996 1.9999999999999998
    vertex 15.0 12.999999999999998 1.9999999999999998
    vertex 16.035276180410083 12.863703305156271 1.9999999999999998
  endloop
endfacet
facet normal 0.0 0.0 1.0
  outer loop
    vertex 18.810511776651534 15.599999999999996 1.9999999999999998
    vertex 16.035276180410083 12.863703305156271 1.9999999999999998
    vertex 17.0 12.464101615137753 1.9999999999999998
  endloop
endfacet
facet normal 0.0 0.0 1.0
  outer loop
    vertex 18.810511776651534 15.599999999999996 1.9999999999999998
    vertex 17.0 12.464101615137753 1.9999999999999998
    vertex 17.828427124746188 11.82842712474619 1.9999999999999998
  endloop
endfacet
facet normal 0.0 0.0 1.0
  outer loop
    vertex 18.810511776651534 15.599999999999996 1.9999999999999998
    vertex 17.828427124746188 11.82842712474619 1.9999999999999998
    vertex 18.464101615137753 11.0 1.9999999999999998
  endloop
endfacet
facet normal 0.0 0.0 1.0
  outer loop
    vertex 18.810511776651534 15.599999999999996 1.9999999999999998
    vertex 18.464101615137753 11.0 1.9999999999999998
    vertex 18.86370330515627 10.035276180410083 1.9999999999999998
  endloop
endfacet
facet normal 0.0 0.0 1.0
  outer loop
    vertex 18.810511776651534 15.599999999999996 1.9999999999999998
    vertex 18.86370330515627 10.035276180410083 1.9999999999999998
    vertex 22.621023553303058 8.999999999999998 1.9999999999999998
  endloop
endfacet
facet normal 0.0 0.0 1.0
  outer loop
    vertex 22.621023553303058 8.999999999999998 1.9999999999999998
    vertex 18.86370330515627 10.035276180410083 1.9999999999999998
    vertex 19.0 9.0 1.9999999999999998
  endloop
endfacet
facet normal -0.8660254037844385 0.5000000000000003 -4.826721157282514e-17
  outer loop
    vertex 18.810511776651527 2.4000000000000004 9.0
    vertex 22.621023553303058 8.999999999999998 1.9999999999999998
    vertex 18.810511776651527 2.4 1.9999999999999998
  endloop
endfacet
facet normal -0.8660254037844385 0.5000000000000003 -4.826721157282514e-17
  outer loop
    vertex 22.621023553303058 8.999999999999998 1.9999999999999998
    vertex 18.810511776651527 2.4000000000000004 9.0
    vertex 20.715767664977292 5.699999999999998 9.0
  endloop
endfacet
facet normal -0.8660254037844385 0.5000000000000003 -4.826721157282514e-17
  outer loop
    vertex 22.621023553303058 8.999999999999998 1.9999999999999998
    vertex 20.715767664977292 5.699999999999998 9.0
    vertex 22.621023553303058 8.999999999999996 9.000000000000005
  endloop
endfacet
facet normal -0.866025403784439 -0.4999999999999995 2.905055390551629e-17
  outer loop
    vertex 20.7157676649773 12.299999999999997 9.0
    vertex 22.621023553303058 8.999999999999998 1.9999999999999998
    vertex 22.621023553303058 8.999999999999996 9.000000000000005
  endloop
endfacet
facet normal -0.866025403784439 -0.4999999999999995 2.905055390551629e-17
  outer loop
    vertex 22.621023553303058 8.999999999999998 1.9999999999999998
    vertex 20.7157676649773 12.299999999999997 9.0
    vertex 18.810511776651534 15.599999999999996 1.9999999999999998
  endloop
endfacet
facet normal -0.866025403784439 -0.4999999999999995 2.905055390551629e-17
  outer loop
    vertex 18.810511776651534 15.599999999999996 1.9999999999999998
    vertex 20.7157676649773 12.299999999999997 9.0
    vertex 18.810511776651534 15.599999999999996 9.0
  endloop
endfacet
facet normal -3.700246381374433e-16 -1.0 -0.0
  outer loop
    vertex 18.810511776651534 15.599999999999996 9.0
    vertex 11.189488223348473 15.6 1.9999999999999998
    vertex 18.810511776651534 15.599999999999996 1.9999999999999998
  endloop
endfacet
facet normal -3.700246381374433e-16 -1.0 -0.0
  outer loop
    vertex 11.189488223348473 15.6 1.9999999999999998
    vertex 18.810511776651534 15.599999999999996 9.0
    vertex 11.189488223348473 15.6 9.0
  endloop
endfacet
facet normal 0.8660254037844387 -0.5 -5.478740214047605e-16
  outer loop
    vertex 11.189488223348473 15.6 1.9999999999999998
    vertex 7.378976446696954 9.000000000000005 9.000000000000005
    vertex 7.3789764466969405 9.000000000000005 1.9999999999999998
  endloop
endfacet
facet normal 0.8660254037844387 -0.5 -5.478740214047605e-16
  outer loop
    vertex 7.378976446696954 9.000000000000005 9.000000000000005
    vertex 11.189488223348473 15.6 1.9999999999999998
    vertex 9.284232335022708 12.300000000000002 9.0
  endloop
endfacet
facet normal 0.8660254037844387 -0.5 -5.478740214047605e-16
  outer loop
    vertex 9.284232335022708 12.300000000000002 9.0
    vertex 11.189488223348473 15.6 1.9999999999999998
    vertex 11.189488223348473 15.6 9.0
  endloop
endfacet
facet normal 0.8660254037844394 0.4999999999999987 -6.138082585830779e-16
  outer loop
    vertex 7.3789764466969405 9.000000000000005 1.9999999999999998
    vertex 11.189488223348464 2.4000000000000057 9.0
    vertex 11.189488223348464 2.4000000000000057 1.9999999999999998
  endloop
endfacet
facet normal 0.8660254037844394 0.4999999999999987 -6.138082585830779e-16
  outer loop
    vertex 11.189488223348464 2.4000000000000057 9.0
    vertex 7.3789764466969405 9.000000000000005 1.9999999999999998
    vertex 9.284232335022704 5.7000000000000055 9.0
  endloop
endfacet
facet normal 0.8660254037844394 0.4999999999999987 -6.138082585830779e-16
  outer loop
    vertex 9.284232335022704 5.7000000000000055 9.0
    vertex 7.3789764466969405 9.000000000000005 1.9999999999999998
    vertex 7.378976446696954 9.000000000000005 9.000000000000005
  endloop
endfacet
facet normal 7.400492762748863e-16 1.0 0.0
  outer loop
    vertex 11.189488223348464 2.4000000000000057 9.0
    vertex 18.810511776651527 2.4 1.9999999999999998
    vertex 11.189488223348464 2.4000000000000057 1.9999999999999998
  endloop
endfacet
facet normal 7.400492762748863e-16 1.0 0.0
  outer loop
    vertex 18.810511776651527 2.4 1.9999999999999998
    vertex 11.189488223348464 2.4000000000000057 9.0
    vertex 18.810511776651527 2.4000000000000004 9.0
  endloop
endfacet
facet normal -1.4282950705083215e-16 1.6353950479125526e-16 1.0
  outer loop
    vertex 20.72911709488995 4.813327899475702 9.000000000000002
    vertex 20.715767664977292 5.699999999999998 9.0
    vertex 20.715767664977292 4.878099550067592 9.000000000000005
  endloop
endfacet
facet normal -1.4282950705083215e-16 1.6353950479125526e-16 1.0
  outer loop
    vertex 20.715767664977292 5.699999999999998 9.0
    vertex 20.72911709488995 4.813327899475702 9.000000000000002
    vertex 22.621023553303058 8.999999999999996 9.000000000000005
  endloop
endfacet
facet normal -1.4282950705083215e-16 1.6353950479125526e-16 1.0
  outer loop
    vertex 22.621023553303058 8.999999999999996 9.000000000000005
    vertex 20.72911709488995 4.813327899475702 9.000000000000002
    vertex 20.843237891778816 4.536842181334264 9.000000000000005
  endloop
endfacet
facet normal -1.4282950705083215e-16 1.6353950479125526e-16 1.0
  outer loop
    vertex 22.621023553303058 8.999999999999996 9.000000000000005
    vertex 20.843237891778816 4.536842181334264 9.000000000000005
    vertex 21.00707144015738 4.2865893550876395 9.000000000000005
  endloop
endfacet
facet normal -1.4282950705083215e-16 1.6353950479125526e-16 1.0
  outer loop
    vertex 22.621023553303058 8.999999999999996 9.000000000000005
    vertex 21.00707144015738 4.2865893550876395 9.000000000000005
    vertex 21.21483202586342 4.071406996038815 9.000000000000005
  endloop
endfacet
facet normal -1.4282950705083215e-16 1.6353950479125526e-16 1.0
  outer loop
    vertex 22.621023553303058 8.999999999999996 9.000000000000005
    vertex 21.21483202586342 4.071406996038815 9.000000000000005
    vertex 21.45918266953607 3.8988941804119874 9.000000000000005
  endloop
endfacet
facet normal -1.4282950705083215e-16 1.6353950479125526e-16 1.0
  outer loop
    vertex 22.621023553303058 8.999999999999996 9.000000000000005
    vertex 21.45918266953607 3.8988941804119874 9.000000000000005
    vertex 21.731494229014665 3.7751431271111318 9.000000000000005
  endloop
endfacet
facet normal -1.4282950705083215e-16 1.6353950479125526e-16 1.0
  outer loop
    vertex 22.621023553303058 8.999999999999996 9.000000000000005
    vertex 21.731494229014665 3.7751431271111318 9.000000000000005
    vertex 22.022150133933696 3.704524053523095 9.000000000000005
  endloop
endfacet
facet normal -1.4282950705083215e-16 1.6353950479125526e-16 1.0
  outer loop
    vertex 22.621023553303058 8.999999999999996 9.000000000000005
    vertex 22.022150133933696 3.704524053523095 9.000000000000005
    vertex 22.32088599093743 3.6895308430937583 9.000000000000005
  endloop
endfacet
facet normal -1.4282950705083215e-16 1.6353950479125526e-16 1.0
  outer loop
    vertex 22.621023553303058 8.999999999999996 9.000000000000005
    vertex 22.32088599093743 3.6895308430937583 9.000000000000005
    vertex 22.617152066496097 3.73069297486314 9.000000000000005
  endloop
endfacet
facet normal -1.4282950705083215e-16 1.6353950479125526e-16 1.0
  outer loop
    vertex 22.621023553303058 8.999999999999996 9.000000000000005
    vertex 22.617152066496097 3.73069297486314 9.000000000000005
    vertex 22.900485846392616 3.826556825131564 9.000000000000002
  endloop
endfacet
facet normal -1.4282950705083215e-16 1.6353950479125526e-16 1.0
  outer loop
    vertex 22.621023553303058 8.999999999999996 9.000000000000005
    vertex 22.900485846392616 3.826556825131564 9.000000000000002
    vertex 22.665115724349388 14.166707872211227 9.000000000000002
  endloop
endfacet
facet normal -1.4282950705083215e-16 1.6353950479125526e-16 1.0
  outer loop
    vertex 22.665115724349388 14.166707872211227 9.000000000000002
    vertex 22.900485846392616 3.826556825131564 9.000000000000002
    vertex 22.965515779313737 14.11618789257823 9.000000000000005
  endloop
endfacet
facet normal -1.4282950705083215e-16 1.6353950479125526e-16 1.0
  outer loop
    vertex 22.965515779313737 14.11618789257823 9.000000000000005
    vertex 22.900485846392616 3.826556825131564 9.000000000000002
    vertex 29.000000000000004 7.0 9.000000000000002
  endloop
endfacet
facet normal -1.4282950705083215e-16 1.6353950479125526e-16 1.0
  outer loop
    vertex 22.965515779313737 14.11618789257823 9.000000000000005
    vertex 29.000000000000004 7.0 9.000000000000002
    vertex 23.253123148510376 14.015816270351172 9.000000000000005
  endloop
endfacet
facet normal -1.4282950705083215e-16 1.6353950479125526e-16 1.0
  outer loop
    vertex 23.253123148510376 14.015816270351172 9.000000000000005
    vertex 29.000000000000004 7.0 9.000000000000002
    vertex 29.000000000000004 11.000000000000002 9.0
  endloop
endfacet
facet normal -1.4282950705083215e-16 1.6353950479125526e-16 1.0
  outer loop
    vertex 29.000000000000004 11.000000000000002 9.0
    vertex 29.000000000000004 7.0 9.000000000000002
    vertex 29.26236533065811 7.269319781109128 9.000000000000005
  endloop
endfacet
facet normal -1.4282950705083215e-16 1.6353950479125526e-16 1.0
  outer loop
    vertex 29.000000000000004 11.000000000000002 9.0
    vertex 29.26236533065811 7.269319781109128 9.000000000000005
    vertex 29.26236533065811 10.73068021889087 9.000000000000005
  endloop
endfacet
facet normal -1.4282950705083215e-16 1.6353950479125526e-16 1.0
  outer loop
    vertex 29.26236533065811 10.73068021889087 9.000000000000005
    vertex 29.26236533065811 7.269319781109128 9.000000000000005
    vertex 29.484454062410535 7.572709475160505 9.000000000000005
  endloop
endfacet
facet normal -1.4282950705083215e-16 1.6353950479125526e-16 1.0
  outer loop
    vertex 29.26236533065811 10.73068021889087 9.000000000000005
    vertex 29.484454062410535 7.572709475160505 9.000000000000005
    vertex 29.484454062410535 10.427290524839494 9.000000000000005
  endloop
endfacet
facet normal -1.4282950705083215e-16 1.6353950479125526e-16 1.0
  outer loop
    vertex 29.484454062410535 10.427290524839494 9.000000000000005
    vertex 29.484454062410535 7.572709475160505 9.000000000000005
    vertex 29.661894189572116 7.904196597837801 9.000000000000005
  endloop
endfacet
facet normal -1.4282950705083215e-16 1.6353950479125526e-16 1.0
  outer loop
    vertex 29.484454062410535 10.427290524839494 9.000000000000005
    vertex 29.661894189572116 7.904196597837801 9.000000000000005
    vertex 29.661894189572116 10.095803402162199 9.000000000000005
  endloop
endfacet
facet normal -1.4282950705083215e-16 1.6353950479125526e-16 1.0
  outer loop
    vertex 29.661894189572116 10.095803402162199 9.000000000000005
    vertex 29.661894189572116 7.904196597837801 9.000000000000005
    vertex 29.791192652235605 8.257255543030878 9.000000000000005
  endloop
endfacet
facet normal -1.4282950705083215e-16 1.6353950479125526e-16 1.0
  outer loop
    vertex 29.661894189572116 10.095803402162199 9.000000000000005
    vertex 29.791192652235605 8.257255543030878 9.000000000000005
    vertex 29.791192652235605 9.74274445696912 9.000000000000005
  endloop
endfacet
facet normal -1.4282950705083215e-16 1.6353950479125526e-16 1.0
  outer loop
    vertex 29.791192652235605 9.74274445696912 9.000000000000005
    vertex 29.791192652235605 8.257255543030878 9.000000000000005
    vertex 29.869804100128658 8.624936044945446 9.000000000000005
  endloop
endfacet
facet normal -1.4282950705083215e-16 1.6353950479125526e-16 1.0
  outer loop
    vertex 29.791192652235605 9.74274445696912 9.000000000000005
    vertex 29.869804100128658 8.624936044945446 9.000000000000005
    vertex 29.869804100128658 9.375063955054554 9.000000000000005
  endloop
endfacet
facet normal -1.4282950705083215e-16 1.6353950479125526e-16 1.0
  outer loop
    vertex 29.869804100128658 9.375063955054554 9.000000000000005
    vertex 29.869804100128658 8.624936044945446 9.000000000000005
    vertex 29.896181000000034 8.999999999999998 9.000000000000005
  endloop
endfacet
facet normal -1.4282950705083215e-16 1.6353950479125526e-16 1.0
  outer loop
    vertex 22.621023553303058 8.999999999999996 9.000000000000005
    vertex 20.729728098321463 12.60429848449433 9.000000000000005
    vertex 20.7157676649773 12.299999999999997 9.0
  endloop
endfacet
facet normal -1.4282950705083215e-16 1.6353950479125526e-16 1.0
  outer loop
    vertex 20.729728098321463 12.60429848449433 9.000000000000005
    vertex 22.621023553303058 8.999999999999996 9.000000000000005
    vertex 20.794718291099727 12.901903484800682 9.000000000000002
  endloop
endfacet
facet normal -1.4282950705083215e-16 1.6353950479125526e-16 1.0
  outer loop
    vertex 20.794718291099727 12.901903484800682 9.000000000000002
    vertex 22.621023553303058 8.999999999999996 9.000000000000005
    vertex 20.908883043441154 13.184319615160696 9.000000000000002
  endloop
endfacet
facet normal -1.4282950705083215e-16 1.6353950479125526e-16 1.0
  outer loop
    vertex 20.908883043441154 13.184319615160696 9.000000000000002
    vertex 22.621023553303058 8.999999999999996 9.000000000000005
    vertex 21.068963426194166 13.443485068920165 9.000000000000002
  endloop
endfacet
facet normal -1.4282950705083215e-16 1.6353950479125526e-16 1.0
  outer loop
    vertex 21.068963426194166 13.443485068920165 9.000000000000002
    vertex 22.621023553303058 8.999999999999996 9.000000000000005
    vertex 21.270389809808083 13.672001749599984 9.000000000000002
  endloop
endfacet
facet normal -1.4282950705083215e-16 1.6353950479125526e-16 1.0
  outer loop
    vertex 21.270389809808083 13.672001749599984 9.000000000000002
    vertex 22.621023553303058 8.999999999999996 9.000000000000005
    vertex 21.507412308263003 13.863346455800317 9.000000000000002
  endloop
endfacet
facet normal -1.4282950705083215e-16 1.6353950479125526e-16 1.0
  outer loop
    vertex 21.507412308263003 13.863346455800317 9.000000000000002
    vertex 22.621023553303058 8.999999999999996 9.000000000000005
    vertex 21.77326491441618 14.012057091486756 9.000000000000002
  endloop
endfacet
facet normal -1.4282950705083215e-16 1.6353950479125526e-16 1.0
  outer loop
    vertex 21.77326491441618 14.012057091486756 9.000000000000002
    vertex 22.621023553303058 8.999999999999996 9.000000000000005
    vertex 22.06035864138295 14.113888586128807 9.000000000000002
  endloop
endfacet
facet normal -1.4282950705083215e-16 1.6353950479125526e-16 1.0
  outer loop
    vertex 22.06035864138295 14.113888586128807 9.000000000000002
    vertex 22.621023553303058 8.999999999999996 9.000000000000005
    vertex 22.360498156568486 14.165934073818821 9.000000000000002
  endloop
endfacet
facet normal -1.4282950705083215e-16 1.6353950479125526e-16 1.0
  outer loop
    vertex 22.360498156568486 14.165934073818821 9.000000000000002
    vertex 22.621023553303058 8.999999999999996 9.000000000000005
    vertex 22.665115724349388 14.166707872211227 9.000000000000002
  endloop
endfacet
facet normal -1.0525145434697473e-15 -5.2588150584248785e-17 1.0
  outer loop
    vertex -0.08534709469913591 8.602856821344721 8.999999999999995
    vertex -0.08534709469913626 9.39714317865527 8.999999999999995
    vertex -0.11919799999998565 8.999999999999995 8.999999999999995
  endloop
endfacet
facet normal -1.0525145434697473e-15 -5.2588150584248785e-17 1.0
  outer loop
    vertex -0.08534709469913626 9.39714317865527 8.999999999999995
    vertex -0.08534709469913591 8.602856821344721 8.999999999999995
    vertex 0.015228985001022625 9.78282833566063 8.999999999999995
  endloop
endfacet
facet normal -1.0525145434697473e-15 -5.2588150584248785e-17 1.0
  outer loop
    vertex 0.015228985001022625 9.78282833566063 8.999999999999995
    vertex -0.08534709469913591 8.602856821344721 8.999999999999995
    vertex 0.015228985001022625 8.217171664339359 8.999999999999995
  endloop
endfacet
facet normal -1.0525145434697473e-15 -5.2588150584248785e-17 1.0
  outer loop
    vertex 0.015228985001022625 9.78282833566063 8.999999999999995
    vertex 0.015228985001022625 8.217171664339359 8.999999999999995
    vertex 0.1796285075321197 7.854071973987453 8.999999999999995
  endloop
endfacet
facet normal -1.0525145434697473e-15 -5.2588150584248785e-17 1.0
  outer loop
    vertex 0.015228985001022625 9.78282833566063 8.999999999999995
    vertex 0.1796285075321197 7.854071973987453 8.999999999999995
    vertex 0.17962850753211934 10.145928026012538 8.999999999999995
  endloop
endfacet
facet normal -1.0525145434697473e-15 -5.2588150584248785e-17 1.0
  outer loop
    vertex 0.17962850753211934 10.145928026012538 8.999999999999995
    vertex 0.1796285075321197 7.854071973987453 8.999999999999995
    vertex 0.4031083641373203 10.475966420496908 8.999999999999995
  endloop
endfacet
facet normal -1.0525145434697473e-15 -5.2588150584248785e-17 1.0
  outer loop
    vertex 0.4031083641373203 10.475966420496908 8.999999999999995
    vertex 0.1796285075321197 7.854071973987453 8.999999999999995
    vertex 0.4031083641373207 7.52403357950308 8.999999999999995
  endloop
endfacet
facet normal -1.0525145434697473e-15 -5.2588150584248785e-17 1.0
  outer loop
    vertex 0.4031083641373203 10.475966420496908 8.999999999999995
    vertex 0.4031083641373207 7.52403357950308 8.999999999999995
    vertex 0.6792209128252077 10.763421544993205 8.999999999999995
  endloop
endfacet
facet normal -1.0525145434697473e-15 -5.2588150584248785e-17 1.0
  outer loop
    vertex 0.6792209128252077 10.763421544993205 8.999999999999995
    vertex 0.4031083641373207 7.52403357950308 8.999999999999995
    vertex 0.6792209128252077 7.236578455006784 8.999999999999995
  endloop
endfacet
facet normal -1.0525145434697473e-15 -5.2588150584248785e-17 1.0
  outer loop
    vertex 0.6792209128252077 10.763421544993205 8.999999999999995
    vertex 0.6792209128252077 7.236578455006784 8.999999999999995
    vertex 1.000000000000011 7.0 9.000000000000005
  endloop
endfacet
facet normal -1.0525145434697473e-15 -5.2588150584248785e-17 1.0
  outer loop
    vertex 0.6792209128252077 10.763421544993205 8.999999999999995
    vertex 1.000000000000011 7.0 9.000000000000005
    vertex 1.0000000000000009 11.000000000000002 9.0
  endloop
endfacet
facet normal -1.0525145434697473e-15 -5.2588150584248785e-17 1.0
  outer loop
    vertex 1.0000000000000009 11.000000000000002 9.0
    vertex 1.000000000000011 7.0 9.000000000000005
    vertex 2.123145847155237 11.949034335607527 9.000000000000004
  endloop
endfacet
facet normal -1.0525145434697473e-15 -5.2588150584248785e-17 1.0
  outer loop
    vertex 2.123145847155237 11.949034335607527 9.000000000000004
    vertex 1.000000000000011 7.0 9.000000000000005
    vertex 6.863646278336804 3.931988448021965 9.000000000000005
  endloop
endfacet
facet normal -1.0525145434697473e-15 -5.2588150584248785e-17 1.0
  outer loop
    vertex 2.123145847155237 11.949034335607527 9.000000000000004
    vertex 6.863646278336804 3.931988448021965 9.000000000000005
    vertex 6.789890147009148 14.035042973213034 9.000000000000005
  endloop
endfacet
facet normal -1.0525145434697473e-15 -5.2588150584248785e-17 1.0
  outer loop
    vertex 6.789890147009148 14.035042973213034 9.000000000000005
    vertex 6.863646278336804 3.931988448021965 9.000000000000005
    vertex 7.076670484317632 14.134772973289001 9.000000000000005
  endloop
endfacet
facet normal -1.0525145434697473e-15 -5.2588150584248785e-17 1.0
  outer loop
    vertex 7.076670484317632 14.134772973289001 9.000000000000005
    vertex 6.863646278336804 3.931988448021965 9.000000000000005
    vertex 7.149194119246479 3.8333023163565594 9.000000000000005
  endloop
endfacet
facet normal -1.0525145434697473e-15 -5.2588150584248785e-17 1.0
  outer loop
    vertex 7.076670484317632 14.134772973289001 9.000000000000005
    vertex 7.149194119246479 3.8333023163565594 9.000000000000005
    vertex 7.37625639869227 14.184142140693682 9.000000000000005
  endloop
endfacet
facet normal -1.0525145434697473e-15 -5.2588150584248785e-17 1.0
  outer loop
    vertex 7.37625639869227 14.184142140693682 9.000000000000005
    vertex 7.149194119246479 3.8333023163565594 9.000000000000005
    vertex 7.378976446696954 9.000000000000005 9.000000000000005
  endloop
endfacet
facet normal -1.0525145434697473e-15 -5.2588150584248785e-17 1.0
  outer loop
    vertex 7.378976446696954 9.000000000000005 9.000000000000005
    vertex 7.149194119246479 3.8333023163565594 9.000000000000005
    vertex 7.447572157980686 3.7858990671811363 9.000000000000005
  endloop
endfacet
facet normal -1.0525145434697473e-15 -5.2588150584248785e-17 1.0
  outer loop
    vertex 7.378976446696954 9.000000000000005 9.000000000000005
    vertex 7.447572157980686 3.7858990671811363 9.000000000000005
    vertex 9.284232335022704 5.7000000000000055 9.0
  endloop
endfacet
facet normal -1.0525145434697473e-15 -5.2588150584248785e-17 1.0
  outer loop
    vertex 9.284232335022704 5.7000000000000055 9.0
    vertex 7.447572157980686 3.7858990671811363 9.000000000000005
    vertex 7.7496451674665545 3.791230011882573 9.000000000000005
  endloop
endfacet
facet normal -1.0525145434697473e-15 -5.2588150584248785e-17 1.0
  outer loop
    vertex 9.284232335022704 5.7000000000000055 9.0
    vertex 7.7496451674665545 3.791230011882573 9.000000000000005
    vertex 8.046164794353599 3.8491319367385493 9.000000000000005
  endloop
endfacet
facet normal -1.0525145434697473e-15 -5.2588150584248785e-17 1.0
  outer loop
    vertex 9.284232335022704 5.7000000000000055 9.0
    vertex 8.046164794353599 3.8491319367385493 9.000000000000005
    vertex 8.328052709235719 3.957832099915385 9.000000000000005
  endloop
endfacet
facet normal -1.0525145434697473e-15 -5.2588150584248785e-17 1.0
  outer loop
    vertex 9.284232335022704 5.7000000000000055 9.0
    vertex 8.328052709235719 3.957832099915385 9.000000000000005
    vertex 8.586678551371651 4.114002506237259 9.000000000000005
  endloop
endfacet
facet normal -1.0525145434697473e-15 -5.2588150584248785e-17 1.0
  outer loop
    vertex 9.284232335022704 5.7000000000000055 9.0
    vertex 8.586678551371651 4.114002506237259 9.000000000000005
    vertex 8.81412415826912 4.312861798035006 9.000000000000005
  endloop
endfacet
facet normal -1.0525145434697473e-15 -5.2588150584248785e-17 1.0
  outer loop
    vertex 9.284232335022704 5.7000000000000055 9.0
    vertex 8.81412415826912 4.312861798035006 9.000000000000005
    vertex 9.003425990404411 4.548321642555216 9.000000000000005
  endloop
endfacet
facet normal -1.0525145434697473e-15 -5.2588150584248785e-17 1.0
  outer loop
    vertex 9.284232335022704 5.7000000000000055 9.0
    vertex 9.003425990404411 4.548321642555216 9.000000000000005
    vertex 9.148788328933055 4.813173134091026 9.000000000000005
  endloop
endfacet
facet normal -1.0525145434697473e-15 -5.2588150584248785e-17 1.0
  outer loop
    vertex 9.284232335022704 5.7000000000000055 9.0
    vertex 9.148788328933055 4.813173134091026 9.000000000000005
    vertex 9.245760719069791 5.099307503893796 9.000000000000005
  endloop
endfacet
facet normal -1.0525145434697473e-15 -5.2588150584248785e-17 1.0
  outer loop
    vertex 9.284232335022704 5.7000000000000055 9.0
    vertex 9.245760719069791 5.099307503893796 9.000000000000005
    vertex 9.284232335022704 5.351202464674867 9.000000000000004
  endloop
endfacet
facet normal -1.0525145434697473e-15 -5.2588150584248785e-17 1.0
  outer loop
    vertex 9.284232335022704 5.7000000000000055 9.0
    vertex 9.284232335022704 5.351202464674867 9.000000000000004
    vertex 9.291374226480654 5.3979643805481565 9.000000000000005
  endloop
endfacet
facet normal -1.0525145434697473e-15 -5.2588150584248785e-17 1.0
  outer loop
    vertex 7.378976446696954 9.000000000000005 9.000000000000005
    vertex 7.679873085506302 14.181704463522728 9.000000000000005
    vertex 7.37625639869227 14.184142140693682 9.000000000000005
  endloop
endfacet
facet normal -1.0525145434697473e-15 -5.2588150584248785e-17 1.0
  outer loop
    vertex 7.679873085506302 14.181704463522728 9.000000000000005
    vertex 7.378976446696954 9.000000000000005 9.000000000000005
    vertex 9.284232335022708 12.300000000000002 9.0
  endloop
endfacet
facet normal -1.0525145434697473e-15 -5.2588150584248785e-17 1.0
  outer loop
    vertex 7.679873085506302 14.181704463522728 9.000000000000005
    vertex 9.284232335022708 12.300000000000002 9.0
    vertex 7.978627679707046 14.12753134079689 9.000000000000005
  endloop
endfacet
facet normal -1.0525145434697473e-15 -5.2588150584248785e-17 1.0
  outer loop
    vertex 7.978627679707046 14.12753134079689 9.000000000000005
    vertex 9.284232335022708 12.300000000000002 9.0
    vertex 8.263769725850256 14.023209491200639 9.000000000000005
  endloop
endfacet
facet normal -1.0525145434697473e-15 -5.2588150584248785e-17 1.0
  outer loop
    vertex 8.263769725850256 14.023209491200639 9.000000000000005
    vertex 9.284232335022708 12.300000000000002 9.0
    vertex 8.526947476988804 13.871794478445706 9.000000000000005
  endloop
endfacet
facet normal -1.0525145434697473e-15 -5.2588150584248785e-17 1.0
  outer loop
    vertex 8.526947476988804 13.871794478445706 9.000000000000005
    vertex 9.284232335022708 12.300000000000002 9.0
    vertex 8.760452515478379 13.677721214491338 9.000000000000005
  endloop
endfacet
facet normal -1.0525145434697473e-15 -5.2588150584248785e-17 1.0
  outer loop
    vertex 8.760452515478379 13.677721214491338 9.000000000000005
    vertex 9.284232335022708 12.300000000000002 9.0
    vertex 8.957445530811386 13.44667406196197 9.000000000000005
  endloop
endfacet
facet normal -1.0525145434697473e-15 -5.2588150584248785e-17 1.0
  outer loop
    vertex 8.957445530811386 13.44667406196197 9.000000000000005
    vertex 9.284232335022708 12.300000000000002 9.0
    vertex 9.112156641496595 13.185420340433511 9.000000000000005
  endloop
endfacet
facet normal -1.0525145434697473e-15 -5.2588150584248785e-17 1.0
  outer loop
    vertex 9.112156641496595 13.185420340433511 9.000000000000005
    vertex 9.284232335022708 12.300000000000002 9.0
    vertex 9.220054393601382 12.901612113152037 9.000000000000005
  endloop
endfacet
facet normal -1.0525145434697473e-15 -5.2588150584248785e-17 1.0
  outer loop
    vertex 9.220054393601382 12.901612113152037 9.000000000000005
    vertex 9.284232335022708 12.300000000000002 9.0
    vertex 9.277978486026923 12.603562059807643 9.000000000000005
  endloop
endfacet
facet normal 1.252405894651318e-16 -4.3167811146854883e-16 1.0
  outer loop
    vertex 20.715767664977292 4.321991574899573e-16 9.0
    vertex 20.72911709488995 4.813327899475702 9.000000000000002
    vertex 20.715767664977292 4.878099550067592 9.000000000000005
  endloop
endfacet
facet normal 1.252405894651318e-16 -4.3167811146854883e-16 1.0
  outer loop
    vertex 20.72911709488995 4.813327899475702 9.000000000000002
    vertex 20.715767664977292 4.321991574899573e-16 9.0
    vertex 20.843237891778816 4.536842181334264 9.000000000000005
  endloop
endfacet
facet normal 1.252405894651318e-16 -4.3167811146854883e-16 1.0
  outer loop
    vertex 20.843237891778816 4.536842181334264 9.000000000000005
    vertex 20.715767664977292 4.321991574899573e-16 9.0
    vertex 21.00707144015738 4.2865893550876395 9.000000000000005
  endloop
endfacet
facet normal 1.252405894651318e-16 -4.3167811146854883e-16 1.0
  outer loop
    vertex 21.00707144015738 4.2865893550876395 9.000000000000005
    vertex 20.715767664977292 4.321991574899573e-16 9.0
    vertex 21.21483202586342 4.071406996038815 9.000000000000005
  endloop
endfacet
facet normal 1.252405894651318e-16 -4.3167811146854883e-16 1.0
  outer loop
    vertex 21.21483202586342 4.071406996038815 9.000000000000005
    vertex 20.715767664977292 4.321991574899573e-16 9.0
    vertex 21.45918266953607 3.8988941804119874 9.000000000000005
  endloop
endfacet
facet normal 1.252405894651318e-16 -4.3167811146854883e-16 1.0
  outer loop
    vertex 21.45918266953607 3.8988941804119874 9.000000000000005
    vertex 20.715767664977292 4.321991574899573e-16 9.0
    vertex 21.731494229014665 3.7751431271111318 9.000000000000005
  endloop
endfacet
facet normal 1.252405894651318e-16 -4.3167811146854883e-16 1.0
  outer loop
    vertex 21.731494229014665 3.7751431271111318 9.000000000000005
    vertex 20.715767664977292 4.321991574899573e-16 9.0
    vertex 22.022150133933696 3.704524053523095 9.000000000000005
  endloop
endfacet
facet normal 1.252405894651318e-16 -4.3167811146854883e-16 1.0
  outer loop
    vertex 22.022150133933696 3.704524053523095 9.000000000000005
    vertex 20.715767664977292 4.321991574899573e-16 9.0
    vertex 22.32088599093743 3.6895308430937583 9.000000000000005
  endloop
endfacet
facet normal 1.252405894651318e-16 -4.3167811146854883e-16 1.0
  outer loop
    vertex 22.32088599093743 3.6895308430937583 9.000000000000005
    vertex 20.715767664977292 4.321991574899573e-16 9.0
    vertex 22.617152066496097 3.73069297486314 9.000000000000005
  endloop
endfacet
facet normal 1.252405894651318e-16 -4.3167811146854883e-16 1.0
  outer loop
    vertex 22.617152066496097 3.73069297486314 9.000000000000005
    vertex 20.715767664977292 4.321991574899573e-16 9.0
    vertex 22.900485846392616 3.826556825131564 9.000000000000002
  endloop
endfacet
facet normal 1.252405894651318e-16 -4.3167811146854883e-16 1.0
  outer loop
    vertex 22.900485846392616 3.826556825131564 9.000000000000002
    vertex 20.715767664977292 4.321991574899573e-16 9.0
    vertex 29.000000000000004 7.0 9.000000000000002
  endloop
endfacet
facet normal 1.252405894651318e-16 -4.3167811146854883e-16 1.0
  outer loop
    vertex 9.284232335022704 4.321991574899573e-16 9.0
    vertex 6.863646278336804 3.931988448021965 9.000000000000005
    vertex 1.000000000000011 7.0 9.000000000000005
  endloop
endfacet
facet normal 1.252405894651318e-16 -4.3167811146854883e-16 1.0
  outer loop
    vertex 6.863646278336804 3.931988448021965 9.000000000000005
    vertex 9.284232335022704 4.321991574899573e-16 9.0
    vertex 7.149194119246479 3.8333023163565594 9.000000000000005
  endloop
endfacet
facet normal 1.252405894651318e-16 -4.3167811146854883e-16 1.0
  outer loop
    vertex 7.149194119246479 3.8333023163565594 9.000000000000005
    vertex 9.284232335022704 4.321991574899573e-16 9.0
    vertex 7.447572157980686 3.7858990671811363 9.000000000000005
  endloop
endfacet
facet normal 1.252405894651318e-16 -4.3167811146854883e-16 1.0
  outer loop
    vertex 7.447572157980686 3.7858990671811363 9.000000000000005
    vertex 9.284232335022704 4.321991574899573e-16 9.0
    vertex 7.7496451674665545 3.791230011882573 9.000000000000005
  endloop
endfacet
facet normal 1.252405894651318e-16 -4.3167811146854883e-16 1.0
  outer loop
    vertex 7.7496451674665545 3.791230011882573 9.000000000000005
    vertex 9.284232335022704 4.321991574899573e-16 9.0
    vertex 8.046164794353599 3.8491319367385493 9.000000000000005
  endloop
endfacet
facet normal 1.252405894651318e-16 -4.3167811146854883e-16 1.0
  outer loop
    vertex 8.046164794353599 3.8491319367385493 9.000000000000005
    vertex 9.284232335022704 4.321991574899573e-16 9.0
    vertex 8.328052709235719 3.957832099915385 9.000000000000005
  endloop
endfacet
facet normal 1.252405894651318e-16 -4.3167811146854883e-16 1.0
  outer loop
    vertex 8.328052709235719 3.957832099915385 9.000000000000005
    vertex 9.284232335022704 4.321991574899573e-16 9.0
    vertex 8.586678551371651 4.114002506237259 9.000000000000005
  endloop
endfacet
facet normal 1.252405894651318e-16 -4.3167811146854883e-16 1.0
  outer loop
    vertex 8.586678551371651 4.114002506237259 9.000000000000005
    vertex 9.284232335022704 4.321991574899573e-16 9.0
    vertex 8.81412415826912 4.312861798035006 9.000000000000005
  endloop
endfacet
facet normal 1.252405894651318e-16 -4.3167811146854883e-16 1.0
  outer loop
    vertex 8.81412415826912 4.312861798035006 9.000000000000005
    vertex 9.284232335022704 4.321991574899573e-16 9.0
    vertex 9.003425990404411 4.548321642555216 9.000000000000005
  endloop
endfacet
facet normal 1.252405894651318e-16 -4.3167811146854883e-16 1.0
  outer loop
    vertex 9.003425990404411 4.548321642555216 9.000000000000005
    vertex 9.284232335022704 4.321991574899573e-16 9.0
    vertex 9.148788328933055 4.813173134091026 9.000000000000005
  endloop
endfacet
facet normal 1.252405894651318e-16 -4.3167811146854883e-16 1.0
  outer loop
    vertex 9.148788328933055 4.813173134091026 9.000000000000005
    vertex 9.284232335022704 4.321991574899573e-16 9.0
    vertex 9.245760719069791 5.099307503893796 9.000000000000005
  endloop
endfacet
facet normal 1.252405894651318e-16 -4.3167811146854883e-16 1.0
  outer loop
    vertex 9.245760719069791 5.099307503893796 9.000000000000005
    vertex 9.284232335022704 4.321991574899573e-16 9.0
    vertex 9.284232335022704 5.351202464674867 9.000000000000004
  endloop
endfacet
facet normal 1.252405894651318e-16 -4.3167811146854883e-16 1.0
  outer loop
    vertex 9.284232335022704 5.351202464674867 9.000000000000004
    vertex 9.284232335022704 4.321991574899573e-16 9.0
    vertex 11.189488223348464 2.4000000000000057 9.0
  endloop
endfacet
facet normal 1.252405894651318e-16 -4.3167811146854883e-16 1.0
  outer loop
    vertex 11.189488223348464 2.4000000000000057 9.0
    vertex 9.284232335022704 4.321991574899573e-16 9.0
    vertex 20.715767664977292 4.321991574899573e-16 9.0
  endloop
endfacet
facet normal 1.252405894651318e-16 -4.3167811146854883e-16 1.0
  outer loop
    vertex 9.284232335022704 5.351202464674867 9.000000000000004
    vertex 11.189488223348464 2.4000000000000057 9.0
    vertex 9.291374226480654 5.3979643805481565 9.000000000000005
  endloop
endfacet
facet normal 1.252405894651318e-16 -4.3167811146854883e-16 1.0
  outer loop
    vertex 11.189488223348464 2.4000000000000057 9.0
    vertex 20.715767664977292 4.321991574899573e-16 9.0
    vertex 18.810511776651527 2.4000000000000004 9.0
  endloop
endfacet
facet normal 1.252405894651318e-16 -4.3167811146854883e-16 1.0
  outer loop
    vertex 18.810511776651527 2.4000000000000004 9.0
    vertex 20.715767664977292 4.321991574899573e-16 9.0
    vertex 20.715767664977292 5.699999999999998 9.0
  endloop
endfacet
facet normal 1.252405894651318e-16 -4.3167811146854883e-16 1.0
  outer loop
    vertex 20.715767664977292 5.699999999999998 9.0
    vertex 20.715767664977292 4.321991574899573e-16 9.0
    vertex 20.715767664977292 4.878099550067592 9.000000000000005
  endloop
endfacet
facet normal 1.252405894651318e-16 -4.3167811146854883e-16 1.0
  outer loop
    vertex 11.189488223348464 2.4000000000000057 9.0
    vertex 9.284232335022704 5.7000000000000055 9.0
    vertex 9.291374226480654 5.3979643805481565 9.000000000000005
  endloop
endfacet
facet normal 1.4077480341702713e-16 8.668588024843519e-17 1.0
  outer loop
    vertex 6.789890147009148 14.035042973213034 9.000000000000005
    vertex 9.284232335022706 18.0 9.0
    vertex 2.123145847155237 11.949034335607527 9.000000000000004
  endloop
endfacet
facet normal 1.4077480341702713e-16 8.668588024843519e-17 1.0
  outer loop
    vertex 9.284232335022706 18.0 9.0
    vertex 6.789890147009148 14.035042973213034 9.000000000000005
    vertex 7.076670484317632 14.134772973289001 9.000000000000005
  endloop
endfacet
facet normal 1.4077480341702713e-16 8.668588024843519e-17 1.0
  outer loop
    vertex 9.284232335022706 18.0 9.0
    vertex 7.076670484317632 14.134772973289001 9.000000000000005
    vertex 7.37625639869227 14.184142140693682 9.000000000000005
  endloop
endfacet
facet normal 1.4077480341702713e-16 8.668588024843519e-17 1.0
  outer loop
    vertex 9.284232335022706 18.0 9.0
    vertex 7.37625639869227 14.184142140693682 9.000000000000005
    vertex 7.679873085506302 14.181704463522728 9.000000000000005
  endloop
endfacet
facet normal 1.4077480341702713e-16 8.668588024843519e-17 1.0
  outer loop
    vertex 9.284232335022706 18.0 9.0
    vertex 7.679873085506302 14.181704463522728 9.000000000000005
    vertex 7.978627679707046 14.12753134079689 9.000000000000005
  endloop
endfacet
facet normal 1.4077480341702713e-16 8.668588024843519e-17 1.0
  outer loop
    vertex 9.284232335022706 18.0 9.0
    vertex 7.978627679707046 14.12753134079689 9.000000000000005
    vertex 8.263769725850256 14.023209491200639 9.000000000000005
  endloop
endfacet
facet normal 1.4077480341702713e-16 8.668588024843519e-17 1.0
  outer loop
    vertex 9.284232335022706 18.0 9.0
    vertex 8.263769725850256 14.023209491200639 9.000000000000005
    vertex 8.526947476988804 13.871794478445706 9.000000000000005
  endloop
endfacet
facet normal 1.4077480341702713e-16 8.668588024843519e-17 1.0
  outer loop
    vertex 9.284232335022706 18.0 9.0
    vertex 8.526947476988804 13.871794478445706 9.000000000000005
    vertex 8.760452515478379 13.677721214491338 9.000000000000005
  endloop
endfacet
facet normal 1.4077480341702713e-16 8.668588024843519e-17 1.0
  outer loop
    vertex 9.284232335022706 18.0 9.0
    vertex 8.760452515478379 13.677721214491338 9.000000000000005
    vertex 8.957445530811386 13.44667406196197 9.000000000000005
  endloop
endfacet
facet normal 1.4077480341702713e-16 8.668588024843519e-17 1.0
  outer loop
    vertex 9.284232335022706 18.0 9.0
    vertex 8.957445530811386 13.44667406196197 9.000000000000005
    vertex 9.112156641496595 13.185420340433511 9.000000000000005
  endloop
endfacet
facet normal 1.4077480341702713e-16 8.668588024843519e-17 1.0
  outer loop
    vertex 9.284232335022706 18.0 9.0
    vertex 9.112156641496595 13.185420340433511 9.000000000000005
    vertex 9.220054393601382 12.901612113152037 9.000000000000005
  endloop
endfacet
facet normal 1.4077480341702713e-16 8.668588024843519e-17 1.0
  outer loop
    vertex 9.284232335022706 18.0 9.0
    vertex 9.220054393601382 12.901612113152037 9.000000000000005
    vertex 9.277978486026923 12.603562059807643 9.000000000000005
  endloop
endfacet
facet normal 1.4077480341702713e-16 8.668588024843519e-17 1.0
  outer loop
    vertex 9.284232335022706 18.0 9.0
    vertex 9.277978486026923 12.603562059807643 9.000000000000005
    vertex 9.284232335022708 12.300000000000002 9.0
  endloop
endfacet
facet normal 1.4077480341702713e-16 8.668588024843519e-17 1.0
  outer loop
    vertex 9.284232335022706 18.0 9.0
    vertex 9.284232335022708 12.300000000000002 9.0
    vertex 11.189488223348473 15.6 9.0
  endloop
endfacet
facet normal 1.4077480341702713e-16 8.668588024843519e-17 1.0
  outer loop
    vertex 9.284232335022706 18.0 9.0
    vertex 11.189488223348473 15.6 9.0
    vertex 20.7157676649773 18.0 9.0
  endloop
endfacet
facet normal 1.4077480341702713e-16 8.668588024843519e-17 1.0
  outer loop
    vertex 20.7157676649773 18.0 9.0
    vertex 11.189488223348473 15.6 9.0
    vertex 18.810511776651534 15.599999999999996 9.0
  endloop
endfacet
facet normal 1.4077480341702713e-16 8.668588024843519e-17 1.0
  outer loop
    vertex 20.7157676649773 18.0 9.0
    vertex 18.810511776651534 15.599999999999996 9.0
    vertex 20.7157676649773 12.299999999999997 9.0
  endloop
endfacet
facet normal 1.4077480341702713e-16 8.668588024843519e-17 1.0
  outer loop
    vertex 20.7157676649773 18.0 9.0
    vertex 20.7157676649773 12.299999999999997 9.0
    vertex 20.729728098321463 12.60429848449433 9.000000000000005
  endloop
endfacet
facet normal 1.4077480341702713e-16 8.668588024843519e-17 1.0
  outer loop
    vertex 20.7157676649773 18.0 9.0
    vertex 20.729728098321463 12.60429848449433 9.000000000000005
    vertex 20.794718291099727 12.901903484800682 9.000000000000002
  endloop
endfacet
facet normal 1.4077480341702713e-16 8.668588024843519e-17 1.0
  outer loop
    vertex 20.7157676649773 18.0 9.0
    vertex 20.794718291099727 12.901903484800682 9.000000000000002
    vertex 20.908883043441154 13.184319615160696 9.000000000000002
  endloop
endfacet
facet normal 1.4077480341702713e-16 8.668588024843519e-17 1.0
  outer loop
    vertex 20.7157676649773 18.0 9.0
    vertex 20.908883043441154 13.184319615160696 9.000000000000002
    vertex 21.068963426194166 13.443485068920165 9.000000000000002
  endloop
endfacet
facet normal 1.4077480341702713e-16 8.668588024843519e-17 1.0
  outer loop
    vertex 20.7157676649773 18.0 9.0
    vertex 21.068963426194166 13.443485068920165 9.000000000000002
    vertex 21.270389809808083 13.672001749599984 9.000000000000002
  endloop
endfacet
facet normal 1.4077480341702713e-16 8.668588024843519e-17 1.0
  outer loop
    vertex 20.7157676649773 18.0 9.0
    vertex 21.270389809808083 13.672001749599984 9.000000000000002
    vertex 21.507412308263003 13.863346455800317 9.000000000000002
  endloop
endfacet
facet normal 1.4077480341702713e-16 8.668588024843519e-17 1.0
  outer loop
    vertex 20.7157676649773 18.0 9.0
    vertex 21.507412308263003 13.863346455800317 9.000000000000002
    vertex 21.77326491441618 14.012057091486756 9.000000000000002
  endloop
endfacet
facet normal 1.4077480341702713e-16 8.668588024843519e-17 1.0
  outer loop
    vertex 20.7157676649773 18.0 9.0
    vertex 21.77326491441618 14.012057091486756 9.000000000000002
    vertex 22.06035864138295 14.113888586128807 9.000000000000002
  endloop
endfacet
facet normal 1.4077480341702713e-16 8.668588024843519e-17 1.0
  outer loop
    vertex 20.7157676649773 18.0 9.0
    vertex 22.06035864138295 14.113888586128807 9.000000000000002
    vertex 22.360498156568486 14.165934073818821 9.000000000000002
  endloop
endfacet
facet normal 1.4077480341702713e-16 8.668588024843519e-17 1.0
  outer loop
    vertex 20.7157676649773 18.0 9.0
    vertex 22.360498156568486 14.165934073818821 9.000000000000002
    vertex 22.665115724349388 14.166707872211227 9.000000000000002
  endloop
endfacet
facet normal 1.4077480341702713e-16 8.668588024843519e-17 1.0
  outer loop
    vertex 20.7157676649773 18.0 9.0
    vertex 22.665115724349388 14.166707872211227 9.000000000000002
    vertex 22.965515779313737 14.11618789257823 9.000000000000005
  endloop
endfacet
facet normal 1.4077480341702713e-16 8.668588024843519e-17 1.0
  outer loop
    vertex 20.7157676649773 18.0 9.0
    vertex 22.965515779313737 14.11618789257823 9.000000000000005
    vertex 23.253123148510376 14.015816270351172 9.000000000000005
  endloop
endfacet
facet normal 1.4077480341702713e-16 8.668588024843519e-17 1.0
  outer loop
    vertex 20.7157676649773 18.0 9.0
    vertex 23.253123148510376 14.015816270351172 9.000000000000005
    vertex 29.000000000000004 11.000000000000002 9.0
  endloop
endfacet
facet normal 0.6454190066820604 -0.7638287149705376 1.055379492968046e-16
  outer loop
    vertex 29.000000000000004 7.0 1.4099832412739487e-15
    vertex 20.715767664977292 4.321991574899573e-16 9.0
    vertex 20.715767664977296 -2.8469414209226624e-31 0.0
  endloop
endfacet
facet normal 0.6454190066820604 -0.7638287149705376 1.055379492968046e-16
  outer loop
    vertex 20.715767664977292 4.321991574899573e-16 9.0
    vertex 29.000000000000004 7.0 1.4099832412739487e-15
    vertex 29.000000000000004 7.0 9.000000000000002
  endloop
endfacet
facet normal 0.6454190066820604 0.7638287149705374 -0.0
  outer loop
    vertex 20.7157676649773 18.0 9.0
    vertex 29.000000000000004 11.000000000000002 1.4099832412739487e-15
    vertex 20.7157676649773 18.0 1.4099832412739487e-15
  endloop
endfacet
facet normal 0.6454190066820604 0.7638287149705374 -0.0
  outer loop
    vertex 29.000000000000004 11.000000000000002 1.4099832412739487e-15
    vertex 20.7157676649773 18.0 9.0
    vertex 29.000000000000004 11.000000000000002 9.0
  endloop
endfacet
facet normal 0.7162944784422338 -0.6977981227784784 -1.4015283681284411e-15
  outer loop
    vertex 29.262365330658078 7.26931978110913 9.971975238469032e-16
    vertex 29.000000000000004 7.0 9.000000000000002
    vertex 29.000000000000004 7.0 1.4099832412739487e-15
  endloop
endfacet
facet normal 0.7162944784422338 -0.6977981227784784 -1.4015283681284411e-15
  outer loop
    vertex 29.000000000000004 7.0 9.000000000000002
    vertex 29.262365330658078 7.26931978110913 9.971975238469032e-16
    vertex 29.26236533065811 7.269319781109128 9.000000000000005
  endloop
endfacet
facet normal 0.9778988838757611 -0.20907838940105922 -3.709703230752526e-15
  outer loop
    vertex 29.791192652235573 8.25725554303088 1.6518071436654457e-16
    vertex 29.869804100128658 8.624936044945446 9.000000000000005
    vertex 29.791192652235605 8.257255543030878 9.000000000000005
  endloop
endfacet
facet normal 0.9778988838757611 -0.20907838940105922 -3.709703230752526e-15
  outer loop
    vertex 29.869804100128658 8.624936044945446 9.000000000000005
    vertex 29.791192652235573 8.25725554303088 1.6518071436654457e-16
    vertex 29.869804100128622 8.624936044945446 4.149942295841668e-17
  endloop
endfacet
facet normal 0.9975362335506706 -0.07015313787381146 -3.761690435680019e-15
  outer loop
    vertex 29.869804100128622 8.624936044945446 4.149942295841668e-17
    vertex 29.896181000000034 8.999999999999998 9.000000000000005
    vertex 29.869804100128658 8.624936044945446 9.000000000000005
  endloop
endfacet
facet normal 0.9975362335506706 -0.07015313787381146 -3.761690435680019e-15
  outer loop
    vertex 29.896181000000034 8.999999999999998 9.000000000000005
    vertex 29.869804100128622 8.624936044945446 4.149942295841668e-17
    vertex 29.896181000000002 9.0 8.727129500832652e-24
  endloop
endfacet
facet normal 0.8816374150855455 -0.4719273972988621 -3.389077167120253e-15
  outer loop
    vertex 29.484454062410503 7.572709475160506 6.477799531680866e-16
    vertex 29.661894189572116 7.904196597837801 9.000000000000005
    vertex 29.484454062410535 7.572709475160505 9.000000000000005
  endloop
endfacet
facet normal 0.8816374150855455 -0.4719273972988621 -3.389077167120253e-15
  outer loop
    vertex 29.661894189572116 7.904196597837801 9.000000000000005
    vertex 29.484454062410503 7.572709475160506 6.477799531680866e-16
    vertex 29.66189418957208 7.904196597837803 3.6860911147561456e-16
  endloop
endfacet
facet normal 0.9390107624659547 -0.3438877549042803 -3.584268430648036e-15
  outer loop
    vertex 29.66189418957208 7.904196597837803 3.6860911147561456e-16
    vertex 29.791192652235605 8.257255543030878 9.000000000000005
    vertex 29.661894189572116 7.904196597837801 9.000000000000005
  endloop
endfacet
facet normal 0.9390107624659547 -0.3438877549042803 -3.584268430648036e-15
  outer loop
    vertex 29.791192652235605 8.257255543030878 9.000000000000005
    vertex 29.66189418957208 7.904196597837803 3.6860911147561456e-16
    vertex 29.791192652235573 8.25725554303088 1.6518071436654457e-16
  endloop
endfacet
facet normal 0.7162944784422375 0.6977981227784746 -1.2918728184129506e-15
  outer loop
    vertex 29.262365330658078 10.730680218890871 9.971975238468983e-16
    vertex 29.000000000000004 11.000000000000002 9.0
    vertex 29.26236533065811 10.73068021889087 9.000000000000005
  endloop
endfacet
facet normal 0.7162944784422375 0.6977981227784746 -1.2918728184129506e-15
  outer loop
    vertex 29.000000000000004 11.000000000000002 9.0
    vertex 29.262365330658078 10.730680218890871 9.971975238468983e-16
    vertex 29.000000000000004 11.000000000000002 1.4099832412739487e-15
  endloop
endfacet
facet normal 0.8816374150855446 0.4719273972988637 -3.2415484898123788e-15
  outer loop
    vertex 29.66189418957208 10.095803402162199 3.6860911147561205e-16
    vertex 29.484454062410535 10.427290524839494 9.000000000000005
    vertex 29.661894189572116 10.095803402162199 9.000000000000005
  endloop
endfacet
facet normal 0.8816374150855446 0.4719273972988637 -3.2415484898123788e-15
  outer loop
    vertex 29.484454062410535 10.427290524839494 9.000000000000005
    vertex 29.66189418957208 10.095803402162199 3.6860911147561205e-16
    vertex 29.484454062410503 10.427290524839494 6.477799531680828e-16
  endloop
endfacet
facet normal 0.9975362335506706 0.07015313787381121 -3.739881107402143e-15
  outer loop
    vertex 29.896181000000002 9.0 8.727129500832652e-24
    vertex 29.869804100128658 9.375063955054554 9.000000000000005
    vertex 29.896181000000034 8.999999999999998 9.000000000000005
  endloop
endfacet
facet normal 0.9975362335506706 0.07015313787381121 -3.739881107402143e-15
  outer loop
    vertex 29.869804100128658 9.375063955054554 9.000000000000005
    vertex 29.896181000000002 9.0 8.727129500832652e-24
    vertex 29.869804100128622 9.375063955054555 4.149942295841543e-17
  endloop
endfacet
facet normal 0.9778988838757608 0.20907838940105997 -3.6436212702786584e-15
  outer loop
    vertex 29.869804100128622 9.375063955054555 4.149942295841543e-17
    vertex 29.791192652235605 9.74274445696912 9.000000000000005
    vertex 29.869804100128658 9.375063955054554 9.000000000000005
  endloop
endfacet
facet normal 0.9778988838757608 0.20907838940105997 -3.6436212702786584e-15
  outer loop
    vertex 29.791192652235605 9.74274445696912 9.000000000000005
    vertex 29.869804100128622 9.375063955054555 4.149942295841543e-17
    vertex 29.791192652235573 9.742744456969122 1.651807143665433e-16
  endloop
endfacet
facet normal 0.8069082849032531 0.5906767472607084 -2.941092645036218e-15
  outer loop
    vertex 29.484454062410503 10.427290524839494 6.477799531680828e-16
    vertex 29.26236533065811 10.73068021889087 9.000000000000005
    vertex 29.484454062410535 10.427290524839494 9.000000000000005
  endloop
endfacet
facet normal 0.8069082849032531 0.5906767472607084 -2.941092645036218e-15
  outer loop
    vertex 29.26236533065811 10.73068021889087 9.000000000000005
    vertex 29.484454062410503 10.427290524839494 6.477799531680828e-16
    vertex 29.262365330658078 10.730680218890871 9.971975238468983e-16
  endloop
endfacet
facet normal 0.8069082849032531 -0.5906767472607084 -3.126763589179441e-15
  outer loop
    vertex 29.262365330658078 7.26931978110913 9.971975238469032e-16
    vertex 29.484454062410535 7.572709475160505 9.000000000000005
    vertex 29.26236533065811 7.269319781109128 9.000000000000005
  endloop
endfacet
facet normal 0.8069082849032531 -0.5906767472607084 -3.126763589179441e-15
  outer loop
    vertex 29.484454062410535 7.572709475160505 9.000000000000005
    vertex 29.262365330658078 7.26931978110913 9.971975238469032e-16
    vertex 29.484454062410503 7.572709475160506 6.477799531680866e-16
  endloop
endfacet
facet normal 0.9390107624659552 0.3438877549042791 -3.4767660777145554e-15
  outer loop
    vertex 29.791192652235573 9.742744456969122 1.651807143665433e-16
    vertex 29.661894189572116 10.095803402162199 9.000000000000005
    vertex 29.791192652235605 9.74274445696912 9.000000000000005
  endloop
endfacet
facet normal 0.9390107624659552 0.3438877549042791 -3.4767660777145554e-15
  outer loop
    vertex 29.661894189572116 10.095803402162199 9.000000000000005
    vertex 29.791192652235573 9.742744456969122 1.651807143665433e-16
    vertex 29.66189418957208 10.095803402162199 3.6860911147561205e-16
  endloop
endfacet
facet normal 3.3567018190021524e-17 5.77778568263088e-17 -1.0
  outer loop
    vertex 9.284232335022706 18.0 0.0
    vertex 11.136296694843729 10.035276180410085 0.0
    vertex 11.000000000000002 9.0 0.0
  endloop
endfacet
facet normal 3.3567018190021524e-17 5.77778568263088e-17 -1.0
  outer loop
    vertex 11.136296694843729 10.035276180410085 0.0
    vertex 9.284232335022706 18.0 0.0
    vertex 11.535898384862248 11.000000000000002 0.0
  endloop
endfacet
facet normal 3.3567018190021524e-17 5.77778568263088e-17 -1.0
  outer loop
    vertex 11.535898384862248 11.000000000000002 0.0
    vertex 9.284232335022706 18.0 0.0
    vertex 12.171572875253812 11.82842712474619 0.0
  endloop
endfacet
facet normal 3.3567018190021524e-17 5.77778568263088e-17 -1.0
  outer loop
    vertex 12.171572875253812 11.82842712474619 0.0
    vertex 9.284232335022706 18.0 0.0
    vertex 13.000000000000002 12.464101615137753 0.0
  endloop
endfacet
facet normal 3.3567018190021524e-17 5.77778568263088e-17 -1.0
  outer loop
    vertex 13.000000000000002 12.464101615137753 0.0
    vertex 9.284232335022706 18.0 0.0
    vertex 20.7157676649773 18.0 1.4099832412739487e-15
  endloop
endfacet
facet normal 3.3567018190021524e-17 5.77778568263088e-17 -1.0
  outer loop
    vertex 13.000000000000002 12.464101615137753 0.0
    vertex 20.7157676649773 18.0 1.4099832412739487e-15
    vertex 13.964723819589919 12.863703305156271 0.0
  endloop
endfacet
facet normal 3.3567018190021524e-17 5.77778568263088e-17 -1.0
  outer loop
    vertex 13.964723819589919 12.863703305156271 0.0
    vertex 20.7157676649773 18.0 1.4099832412739487e-15
    vertex 15.0 12.999999999999998 0.0
  endloop
endfacet
facet normal 3.3567018190021524e-17 5.77778568263088e-17 -1.0
  outer loop
    vertex 15.0 12.999999999999998 0.0
    vertex 20.7157676649773 18.0 1.4099832412739487e-15
    vertex 16.035276180410083 12.863703305156271 0.0
  endloop
endfacet
facet normal 3.3567018190021524e-17 5.77778568263088e-17 -1.0
  outer loop
    vertex 16.035276180410083 12.863703305156271 0.0
    vertex 20.7157676649773 18.0 1.4099832412739487e-15
    vertex 17.0 12.464101615137753 0.0
  endloop
endfacet
facet normal 3.3567018190021524e-17 5.77778568263088e-17 -1.0
  outer loop
    vertex 17.0 12.464101615137753 0.0
    vertex 20.7157676649773 18.0 1.4099832412739487e-15
    vertex 17.828427124746188 11.82842712474619 0.0
  endloop
endfacet
facet normal 3.3567018190021524e-17 5.77778568263088e-17 -1.0
  outer loop
    vertex 17.828427124746188 11.82842712474619 0.0
    vertex 20.7157676649773 18.0 1.4099832412739487e-15
    vertex 18.464101615137753 11.0 0.0
  endloop
endfacet
facet normal 3.3567018190021524e-17 5.77778568263088e-17 -1.0
  outer loop
    vertex 18.464101615137753 11.0 0.0
    vertex 20.7157676649773 18.0 1.4099832412739487e-15
    vertex 18.86370330515627 10.035276180410083 0.0
  endloop
endfacet
facet normal 3.3567018190021524e-17 5.77778568263088e-17 -1.0
  outer loop
    vertex 18.86370330515627 10.035276180410083 0.0
    vertex 20.7157676649773 18.0 1.4099832412739487e-15
    vertex 19.0 9.0 0.0
  endloop
endfacet
facet normal 3.3567018190021524e-17 5.77778568263088e-17 -1.0
  outer loop
    vertex 19.0 9.0 0.0
    vertex 20.7157676649773 18.0 1.4099832412739487e-15
    vertex 20.715767664977296 -2.8469414209226624e-31 0.0
  endloop
endfacet
facet normal 3.3567018190021524e-17 5.77778568263088e-17 -1.0
  outer loop
    vertex 20.715767664977296 -2.8469414209226624e-31 0.0
    vertex 20.7157676649773 18.0 1.4099832412739487e-15
    vertex 29.000000000000004 7.0 1.4099832412739487e-15
  endloop
endfacet
facet normal 3.3567018190021524e-17 5.77778568263088e-17 -1.0
  outer loop
    vertex 29.000000000000004 7.0 1.4099832412739487e-15
    vertex 20.7157676649773 18.0 1.4099832412739487e-15
    vertex 29.000000000000004 11.000000000000002 1.4099832412739487e-15
  endloop
endfacet
facet normal 3.3567018190021524e-17 5.77778568263088e-17 -1.0
  outer loop
    vertex 29.000000000000004 7.0 1.4099832412739487e-15
    vertex 29.000000000000004 11.000000000000002 1.4099832412739487e-15
    vertex 29.262365330658078 10.730680218890871 9.971975238468983e-16
  endloop
endfacet
facet normal 3.3567018190021524e-17 5.77778568263088e-17 -1.0
  outer loop
    vertex 29.000000000000004 7.0 1.4099832412739487e-15
    vertex 29.262365330658078 10.730680218890871 9.971975238468983e-16
    vertex 29.262365330658078 7.26931978110913 9.971975238469032e-16
  endloop
endfacet
facet normal 3.3567018190021524e-17 5.77778568263088e-17 -1.0
  outer loop
    vertex 29.262365330658078 7.26931978110913 9.971975238469032e-16
    vertex 29.262365330658078 10.730680218890871 9.971975238468983e-16
    vertex 29.484454062410503 10.427290524839494 6.477799531680828e-16
  endloop
endfacet
facet normal 3.3567018190021524e-17 5.77778568263088e-17 -1.0
  outer loop
    vertex 29.262365330658078 7.26931978110913 9.971975238469032e-16
    vertex 29.484454062410503 10.427290524839494 6.477799531680828e-16
    vertex 29.484454062410503 7.572709475160506 6.477799531680866e-16
  endloop
endfacet
facet normal 3.3567018190021524e-17 5.77778568263088e-17 -1.0
  outer loop
    vertex 29.484454062410503 7.572709475160506 6.477799531680866e-16
    vertex 29.484454062410503 10.427290524839494 6.477799531680828e-16
    vertex 29.66189418957208 10.095803402162199 3.6860911147561205e-16
  endloop
endfacet
facet normal 3.3567018190021524e-17 5.77778568263088e-17 -1.0
  outer loop
    vertex 29.484454062410503 7.572709475160506 6.477799531680866e-16
    vertex 29.66189418957208 10.095803402162199 3.6860911147561205e-16
    vertex 29.66189418957208 7.904196597837803 3.6860911147561456e-16
  endloop
endfacet
facet normal 3.3567018190021524e-17 5.77778568263088e-17 -1.0
  outer loop
    vertex 29.66189418957208 7.904196597837803 3.6860911147561456e-16
    vertex 29.66189418957208 10.095803402162199 3.6860911147561205e-16
    vertex 29.791192652235573 9.742744456969122 1.651807143665433e-16
  endloop
endfacet
facet normal 3.3567018190021524e-17 5.77778568263088e-17 -1.0
  outer loop
    vertex 29.66189418957208 7.904196597837803 3.6860911147561456e-16
    vertex 29.791192652235573 9.742744456969122 1.651807143665433e-16
    vertex 29.791192652235573 8.25725554303088 1.6518071436654457e-16
  endloop
endfacet
facet normal 3.3567018190021524e-17 5.77778568263088e-17 -1.0
  outer loop
    vertex 29.791192652235573 8.25725554303088 1.6518071436654457e-16
    vertex 29.791192652235573 9.742744456969122 1.651807143665433e-16
    vertex 29.869804100128622 9.375063955054555 4.149942295841543e-17
  endloop
endfacet
facet normal 3.3567018190021524e-17 5.77778568263088e-17 -1.0
  outer loop
    vertex 29.791192652235573 8.25725554303088 1.6518071436654457e-16
    vertex 29.869804100128622 9.375063955054555 4.149942295841543e-17
    vertex 29.869804100128622 8.624936044945446 4.149942295841668e-17
  endloop
endfacet
facet normal 3.3567018190021524e-17 5.77778568263088e-17 -1.0
  outer loop
    vertex 29.869804100128622 8.624936044945446 4.149942295841668e-17
    vertex 29.869804100128622 9.375063955054555 4.149942295841543e-17
    vertex 29.896181000000002 9.0 8.727129500832652e-24
  endloop
endfacet
facet normal 3.3567018190021524e-17 5.77778568263088e-17 -1.0
  outer loop
    vertex 9.284232335022706 18.0 0.0
    vertex 0.9999999999999999 7.0 -7.049916206369744e-16
    vertex 0.9999999999999999 11.000000000000002 0.0
  endloop
endfacet
facet normal 3.3567018190021524e-17 5.77778568263088e-17 -1.0
  outer loop
    vertex 0.9999999999999999 7.0 -7.049916206369744e-16
    vertex 9.284232335022706 18.0 0.0
    vertex 9.284232335022704 0.0 -7.049916206369744e-16
  endloop
endfacet
facet normal 3.3567018190021524e-17 5.77778568263088e-17 -1.0
  outer loop
    vertex 9.284232335022704 0.0 -7.049916206369744e-16
    vertex 9.284232335022706 18.0 0.0
    vertex 11.136296694843729 7.964723819589919 0.0
  endloop
endfacet
facet normal 3.3567018190021524e-17 5.77778568263088e-17 -1.0
  outer loop
    vertex 9.284232335022704 0.0 -7.049916206369744e-16
    vertex 11.136296694843729 7.964723819589919 0.0
    vertex 11.535898384862247 7.000000000000003 0.0
  endloop
endfacet
facet normal 3.3567018190021524e-17 5.77778568263088e-17 -1.0
  outer loop
    vertex 9.284232335022704 0.0 -7.049916206369744e-16
    vertex 11.535898384862247 7.000000000000003 0.0
    vertex 12.17157287525381 6.171572875253813 0.0
  endloop
endfacet
facet normal 3.3567018190021524e-17 5.77778568263088e-17 -1.0
  outer loop
    vertex 9.284232335022704 0.0 -7.049916206369744e-16
    vertex 12.17157287525381 6.171572875253813 0.0
    vertex 12.999999999999998 5.535898384862248 0.0
  endloop
endfacet
facet normal 3.3567018190021524e-17 5.77778568263088e-17 -1.0
  outer loop
    vertex 9.284232335022704 0.0 -7.049916206369744e-16
    vertex 12.999999999999998 5.535898384862248 0.0
    vertex 20.715767664977296 -2.8469414209226624e-31 0.0
  endloop
endfacet
facet normal 3.3567018190021524e-17 5.77778568263088e-17 -1.0
  outer loop
    vertex 11.136296694843729 7.964723819589919 0.0
    vertex 9.284232335022706 18.0 0.0
    vertex 11.000000000000002 9.0 0.0
  endloop
endfacet
facet normal 3.3567018190021524e-17 5.77778568263088e-17 -1.0
  outer loop
    vertex 20.715767664977296 -2.8469414209226624e-31 0.0
    vertex 12.999999999999998 5.535898384862248 0.0
    vertex 13.964723819589915 5.13629669484373 0.0
  endloop
endfacet
facet normal 3.3567018190021524e-17 5.77778568263088e-17 -1.0
  outer loop
    vertex 20.715767664977296 -2.8469414209226624e-31 0.0
    vertex 13.964723819589915 5.13629669484373 0.0
    vertex 15.0 5.000000000000002 0.0
  endloop
endfacet
facet normal 3.3567018190021524e-17 5.77778568263088e-17 -1.0
  outer loop
    vertex 20.715767664977296 -2.8469414209226624e-31 0.0
    vertex 15.0 5.000000000000002 0.0
    vertex 16.03527618041008 5.136296694843728 0.0
  endloop
endfacet
facet normal 3.3567018190021524e-17 5.77778568263088e-17 -1.0
  outer loop
    vertex 20.715767664977296 -2.8469414209226624e-31 0.0
    vertex 16.03527618041008 5.136296694843728 0.0
    vertex 16.999999999999996 5.535898384862246 0.0
  endloop
endfacet
facet normal 3.3567018190021524e-17 5.77778568263088e-17 -1.0
  outer loop
    vertex 20.715767664977296 -2.8469414209226624e-31 0.0
    vertex 16.999999999999996 5.535898384862246 0.0
    vertex 17.828427124746188 6.171572875253811 0.0
  endloop
endfacet
facet normal 3.3567018190021524e-17 5.77778568263088e-17 -1.0
  outer loop
    vertex 20.715767664977296 -2.8469414209226624e-31 0.0
    vertex 17.828427124746188 6.171572875253811 0.0
    vertex 18.464101615137753 7.0 0.0
  endloop
endfacet
facet normal 3.3567018190021524e-17 5.77778568263088e-17 -1.0
  outer loop
    vertex 20.715767664977296 -2.8469414209226624e-31 0.0
    vertex 18.464101615137753 7.0 0.0
    vertex 18.86370330515627 7.964723819589915 0.0
  endloop
endfacet
facet normal 3.3567018190021524e-17 5.77778568263088e-17 -1.0
  outer loop
    vertex 20.715767664977296 -2.8469414209226624e-31 0.0
    vertex 18.86370330515627 7.964723819589915 0.0
    vertex 19.0 9.0 0.0
  endloop
endfacet
facet normal -0.6454190066820608 -0.7638287149705371 4.251014686745639e-16
  outer loop
    vertex 9.284232335022704 4.321991574899573e-16 9.0
    vertex 0.9999999999999999 7.0 -7.049916206369744e-16
    vertex 9.284232335022704 0.0 -7.049916206369744e-16
  endloop
endfacet
facet normal -0.6454190066820608 -0.7638287149705371 4.251014686745639e-16
  outer loop
    vertex 0.9999999999999999 7.0 -7.049916206369744e-16
    vertex 9.284232335022704 4.321991574899573e-16 9.0
    vertex 1.000000000000011 7.0 9.000000000000005
  endloop
endfacet
facet normal -0.6454190066820605 0.7638287149705375 7.595342092339455e-17
  outer loop
    vertex 1.0000000000000009 11.000000000000002 9.0
    vertex 9.284232335022706 18.0 0.0
    vertex 0.9999999999999999 11.000000000000002 0.0
  endloop
endfacet
facet normal -0.6454190066820605 0.7638287149705375 7.595342092339455e-17
  outer loop
    vertex 9.284232335022706 18.0 0.0
    vertex 1.0000000000000009 11.000000000000002 9.0
    vertex 9.284232335022706 18.0 9.0
  endloop
endfacet
facet normal -0.6454190066820605 0.7638287149705375 7.595342092339455e-17
  outer loop
    vertex 9.284232335022706 18.0 9.0
    vertex 1.0000000000000009 11.000000000000002 9.0
    vertex 2.123145847155237 11.949034335607527 9.000000000000004
  endloop
endfacet
facet normal -0.9109758428344311 -0.4124597116956974 1.2212348242111232e-15
  outer loop
    vertex 0.015228985001022625 8.217171664339359 8.999999999999995
    vertex 0.17962850753210508 7.854071973987458 -3.494102775335767e-16
    vertex 0.1796285075321197 7.854071973987453 8.999999999999995
  endloop
endfacet
facet normal -0.9109758428344311 -0.4124597116956974 1.2212348242111232e-15
  outer loop
    vertex 0.17962850753210508 7.854071973987458 -3.494102775335767e-16
    vertex 0.015228985001022625 8.217171664339359 8.999999999999995
    vertex 0.015228985001007996 8.217171664339364 -2.4432283819730583e-16
  endloop
endfacet
facet normal -0.5935484473627712 -0.8047982608289134 6.458534983547966e-16
  outer loop
    vertex 1.000000000000011 7.0 9.000000000000005
    vertex 0.6792209128251915 7.236578455006789 -5.831160035928549e-16
    vertex 0.9999999999999999 7.0 -7.049916206369744e-16
  endloop
endfacet
facet normal -0.5935484473627712 -0.8047982608289134 6.458534983547966e-16
  outer loop
    vertex 0.6792209128251915 7.236578455006789 -5.831160035928549e-16
    vertex 1.000000000000011 7.0 9.000000000000005
    vertex 0.6792209128252077 7.236578455006784 8.999999999999995
  endloop
endfacet
facet normal -0.9676402109601646 -0.2523339496242394 1.4236210752561383e-15
  outer loop
    vertex -0.08534709469913591 8.602856821344721 8.999999999999995
    vertex 0.015228985001007996 8.217171664339364 -2.4432283819730583e-16
    vertex 0.015228985001022625 8.217171664339359 8.999999999999995
  endloop
endfacet
facet normal -0.9676402109601646 -0.2523339496242394 1.4236210752561383e-15
  outer loop
    vertex 0.015228985001007996 8.217171664339364 -2.4432283819730583e-16
    vertex -0.08534709469913591 8.602856821344721 8.999999999999995
    vertex -0.08534709469915072 8.602856821344727 -1.5120751219017323e-16
  endloop
endfacet
facet normal -0.9109758428344317 0.4124597116956967 1.739838506829298e-15
  outer loop
    vertex 0.17962850753211934 10.145928026012538 8.999999999999995
    vertex 0.015228985001007996 9.782828335660637 3.1620870321662657e-17
    vertex 0.015228985001022625 9.78282833566063 8.999999999999995
  endloop
endfacet
facet normal -0.9109758428344317 0.4124597116956967 1.739838506829298e-15
  outer loop
    vertex 0.015228985001007996 9.782828335660637 3.1620870321662657e-17
    vertex 0.17962850753211934 10.145928026012538 8.999999999999995
    vertex 0.17962850753210471 10.145928026012543 5.452455056237863e-17
  endloop
endfacet
facet normal -0.8280288101918633 0.5606855531331686 1.7580278292547681e-15
  outer loop
    vertex 0.4031083641373203 10.475966420496908 8.999999999999995
    vertex 0.17962850753210471 10.145928026012543 5.452455056237863e-17
    vertex 0.17962850753211934 10.145928026012538 8.999999999999995
  endloop
endfacet
facet normal -0.8280288101918633 0.5606855531331686 1.7580278292547681e-15
  outer loop
    vertex 0.17962850753210471 10.145928026012543 5.452455056237863e-17
    vertex 0.4031083641373203 10.475966420496908 8.999999999999995
    vertex 0.4031083641373044 10.475966420496913 5.683403849976096e-17
  endloop
endfacet
facet normal -0.9963870846345244 -0.08492807294124503 1.5858252566213352e-15
  outer loop
    vertex -0.11919799999998565 8.999999999999995 8.999999999999995
    vertex -0.08534709469915072 8.602856821344727 -1.5120751219017323e-16
    vertex -0.08534709469913591 8.602856821344721 8.999999999999995
  endloop
endfacet
facet normal -0.9963870846345244 -0.08492807294124503 1.5858252566213352e-15
  outer loop
    vertex -0.08534709469915072 8.602856821344727 -1.5120751219017323e-16
    vertex -0.11919799999998565 8.999999999999995 8.999999999999995
    vertex -0.11919800000000046 9.0 -7.275078005287728e-17
  endloop
endfacet
facet normal -0.721192227019801 0.6927349938369072 1.7197513643252182e-15
  outer loop
    vertex 0.6792209128252077 10.763421544993205 8.999999999999995
    vertex 0.4031083641373044 10.475966420496913 5.683403849976096e-17
    vertex 0.4031083641373203 10.475966420496908 8.999999999999995
  endloop
endfacet
facet normal -0.721192227019801 0.6927349938369072 1.7197513643252182e-15
  outer loop
    vertex 0.4031083641373044 10.475966420496913 5.683403849976096e-17
    vertex 0.6792209128252077 10.763421544993205 8.999999999999995
    vertex 0.6792209128251915 10.763421544993212 3.848270284260564e-17
  endloop
endfacet
facet normal -0.5935484473627864 0.8047982608289022 8.183796814820492e-16
  outer loop
    vertex 0.6792209128251915 10.763421544993212 3.848270284260564e-17
    vertex 1.0000000000000009 11.000000000000002 9.0
    vertex 0.9999999999999999 11.000000000000002 0.0
  endloop
endfacet
facet normal -0.5935484473627864 0.8047982608289022 8.183796814820492e-16
  outer loop
    vertex 1.0000000000000009 11.000000000000002 9.0
    vertex 0.6792209128251915 10.763421544993212 3.848270284260564e-17
    vertex 0.6792209128252077 10.763421544993205 8.999999999999995
  endloop
endfacet
facet normal -0.8280288101918645 -0.5606855531331669 1.0542749866100382e-15
  outer loop
    vertex 0.1796285075321197 7.854071973987453 8.999999999999995
    vertex 0.4031083641373047 7.524033579503086 -4.634379408961755e-16
    vertex 0.4031083641373207 7.52403357950308 8.999999999999995
  endloop
endfacet
facet normal -0.8280288101918645 -0.5606855531331669 1.0542749866100382e-15
  outer loop
    vertex 0.4031083641373047 7.524033579503086 -4.634379408961755e-16
    vertex 0.1796285075321197 7.854071973987453 8.999999999999995
    vertex 0.17962850753210508 7.854071973987458 -3.494102775335767e-16
  endloop
endfacet
facet normal -0.7211922270197997 -0.6927349938369087 8.511381527547335e-16
  outer loop
    vertex 0.4031083641373207 7.52403357950308 8.999999999999995
    vertex 0.6792209128251915 7.236578455006789 -5.831160035928549e-16
    vertex 0.6792209128252077 7.236578455006784 8.999999999999995
  endloop
endfacet
facet normal -0.7211922270197997 -0.6927349938369087 8.511381527547335e-16
  outer loop
    vertex 0.6792209128251915 7.236578455006789 -5.831160035928549e-16
    vertex 0.4031083641373207 7.52403357950308 8.999999999999995
    vertex 0.4031083641373047 7.524033579503086 -4.634379408961755e-16
  endloop
endfacet
facet normal -0.9676402109601644 0.2523339496242402 1.7404378009086784e-15
  outer loop
    vertex 0.015228985001022625 9.78282833566063 8.999999999999995
    vertex -0.08534709469915107 9.397143178655275 -1.121620561762241e-17
    vertex -0.08534709469913626 9.39714317865527 8.999999999999995
  endloop
endfacet
facet normal -0.9676402109601644 0.2523339496242402 1.7404378009086784e-15
  outer loop
    vertex -0.08534709469915107 9.397143178655275 -1.121620561762241e-17
    vertex 0.015228985001022625 9.78282833566063 8.999999999999995
    vertex 0.015228985001007996 9.782828335660637 3.1620870321662657e-17
  endloop
endfacet
facet normal -2.4995133145842805e-16 1.7624790515924357e-16 -1.0
  outer loop
    vertex -0.08534709469915107 9.397143178655275 -1.121620561762241e-17
    vertex -0.08534709469915072 8.602856821344727 -1.5120751219017323e-16
    vertex -0.11919800000000046 9.0 -7.275078005287728e-17
  endloop
endfacet
facet normal -2.4995133145842805e-16 1.7624790515924357e-16 -1.0
  outer loop
    vertex -0.08534709469915072 8.602856821344727 -1.5120751219017323e-16
    vertex -0.08534709469915107 9.397143178655275 -1.121620561762241e-17
    vertex 0.015228985001007996 9.782828335660637 3.1620870321662657e-17
  endloop
endfacet
facet normal -2.4995133145842805e-16 1.7624790515924357e-16 -1.0
  outer loop
    vertex -0.08534709469915072 8.602856821344727 -1.5120751219017323e-16
    vertex 0.015228985001007996 9.782828335660637 3.1620870321662657e-17
    vertex 0.015228985001007996 8.217171664339364 -2.4432283819730583e-16
  endloop
endfacet
facet normal -2.4995133145842805e-16 1.7624790515924357e-16 -1.0
  outer loop
    vertex 0.015228985001007996 8.217171664339364 -2.4432283819730583e-16
    vertex 0.015228985001007996 9.782828335660637 3.1620870321662657e-17
    vertex 0.17962850753210471 10.145928026012543 5.452455056237863e-17
  endloop
endfacet
facet normal -2.4995133145842805e-16 1.7624790515924357e-16 -1.0
  outer loop
    vertex 0.015228985001007996 8.217171664339364 -2.4432283819730583e-16
    vertex 0.17962850753210471 10.145928026012543 5.452455056237863e-17
    vertex 0.17962850753210508 7.854071973987458 -3.494102775335767e-16
  endloop
endfacet
facet normal -2.4995133145842805e-16 1.7624790515924357e-16 -1.0
  outer loop
    vertex 0.17962850753210508 7.854071973987458 -3.494102775335767e-16
    vertex 0.17962850753210471 10.145928026012543 5.452455056237863e-17
    vertex 0.4031083641373044 10.475966420496913 5.683403849976096e-17
  endloop
endfacet
facet normal -2.4995133145842805e-16 1.7624790515924357e-16 -1.0
  outer loop
    vertex 0.17962850753210508 7.854071973987458 -3.494102775335767e-16
    vertex 0.4031083641373044 10.475966420496913 5.683403849976096e-17
    vertex 0.4031083641373047 7.524033579503086 -4.634379408961755e-16
  endloop
endfacet
facet normal -2.4995133145842805e-16 1.7624790515924357e-16 -1.0
  outer loop
    vertex 0.4031083641373047 7.524033579503086 -4.634379408961755e-16
    vertex 0.4031083641373044 10.475966420496913 5.683403849976096e-17
    vertex 0.6792209128251915 10.763421544993212 3.848270284260564e-17
  endloop
endfacet
facet normal -2.4995133145842805e-16 1.7624790515924357e-16 -1.0
  outer loop
    vertex 0.4031083641373047 7.524033579503086 -4.634379408961755e-16
    vertex 0.6792209128251915 10.763421544993212 3.848270284260564e-17
    vertex 0.6792209128251915 7.236578455006789 -5.831160035928549e-16
  endloop
endfacet
facet normal -2.4995133145842805e-16 1.7624790515924357e-16 -1.0
  outer loop
    vertex 0.6792209128251915 7.236578455006789 -5.831160035928549e-16
    vertex 0.6792209128251915 10.763421544993212 3.848270284260564e-17
    vertex 0.9999999999999999 11.000000000000002 0.0
  endloop
endfacet
facet normal -2.4995133145842805e-16 1.7624790515924357e-16 -1.0
  outer loop
    vertex 0.6792209128251915 7.236578455006789 -5.831160035928549e-16
    vertex 0.9999999999999999 11.000000000000002 0.0
    vertex 0.9999999999999999 7.0 -7.049916206369744e-16
  endloop
endfacet
facet normal -0.9963870846345244 0.08492807294124413 1.6921690038875866e-15
  outer loop
    vertex -0.08534709469913626 9.39714317865527 8.999999999999995
    vertex -0.11919800000000046 9.0 -7.275078005287728e-17
    vertex -0.11919799999998565 8.999999999999995 8.999999999999995
  endloop
endfacet
facet normal -0.9963870846345244 0.08492807294124413 1.6921690038875866e-15
  outer loop
    vertex -0.11919800000000046 9.0 -7.275078005287728e-17
    vertex -0.08534709469913626 9.39714317865527 8.999999999999995
    vertex -0.08534709469915107 9.397143178655275 -1.121620561762241e-17
  endloop
endfacet
endsolid Барашек под гайку 8мм - попроще-и-поглубже
