solid Барашек под гайку 8мм - попроще
facet normal 3.133090135945486e-17 5.77778568263088e-17 -1.0
  outer loop
    vertex 9.284232335022706 18.0 0.0
    vertex 11.136296694843729 10.035276180410085 0.0
    vertex 11.000000000000002 9.0 0.0
  endloop
endfacet
facet normal 3.133090135945486e-17 5.77778568263088e-17 -1.0
  outer loop
    vertex 11.136296694843729 10.035276180410085 0.0
    vertex 9.284232335022706 18.0 0.0
    vertex 11.535898384862248 11.000000000000002 0.0
  endloop
endfacet
facet normal 3.133090135945486e-17 5.77778568263088e-17 -1.0
  outer loop
    vertex 11.535898384862248 11.000000000000002 0.0
    vertex 9.284232335022706 18.0 0.0
    vertex 12.171572875253812 11.82842712474619 0.0
  endloop
endfacet
facet normal 3.133090135945486e-17 5.77778568263088e-17 -1.0
  outer loop
    vertex 12.171572875253812 11.82842712474619 0.0
    vertex 9.284232335022706 18.0 0.0
    vertex 13.000000000000002 12.464101615137753 0.0
  endloop
endfacet
facet normal 3.133090135945486e-17 5.77778568263088e-17 -1.0
  outer loop
    vertex 13.000000000000002 12.464101615137753 0.0
    vertex 9.284232335022706 18.0 0.0
    vertex 20.7157676649773 18.0 1.4099832412739487e-15
  endloop
endfacet
facet normal 3.133090135945486e-17 5.77778568263088e-17 -1.0
  outer loop
    vertex 13.000000000000002 12.464101615137753 0.0
    vertex 20.7157676649773 18.0 1.4099832412739487e-15
    vertex 13.964723819589919 12.863703305156271 0.0
  endloop
endfacet
facet normal 3.133090135945486e-17 5.77778568263088e-17 -1.0
  outer loop
    vertex 13.964723819589919 12.863703305156271 0.0
    vertex 20.7157676649773 18.0 1.4099832412739487e-15
    vertex 15.0 12.999999999999998 0.0
  endloop
endfacet
facet normal 3.133090135945486e-17 5.77778568263088e-17 -1.0
  outer loop
    vertex 15.0 12.999999999999998 0.0
    vertex 20.7157676649773 18.0 1.4099832412739487e-15
    vertex 16.035276180410083 12.863703305156271 0.0
  endloop
endfacet
facet normal 3.133090135945486e-17 5.77778568263088e-17 -1.0
  outer loop
    vertex 16.035276180410083 12.863703305156271 0.0
    vertex 20.7157676649773 18.0 1.4099832412739487e-15
    vertex 17.0 12.464101615137753 0.0
  endloop
endfacet
facet normal 3.133090135945486e-17 5.77778568263088e-17 -1.0
  outer loop
    vertex 17.0 12.464101615137753 0.0
    vertex 20.7157676649773 18.0 1.4099832412739487e-15
    vertex 17.828427124746188 11.82842712474619 0.0
  endloop
endfacet
facet normal 3.133090135945486e-17 5.77778568263088e-17 -1.0
  outer loop
    vertex 17.828427124746188 11.82842712474619 0.0
    vertex 20.7157676649773 18.0 1.4099832412739487e-15
    vertex 18.464101615137753 11.0 0.0
  endloop
endfacet
facet normal 3.133090135945486e-17 5.77778568263088e-17 -1.0
  outer loop
    vertex 18.464101615137753 11.0 0.0
    vertex 20.7157676649773 18.0 1.4099832412739487e-15
    vertex 18.86370330515627 10.035276180410083 0.0
  endloop
endfacet
facet normal 3.133090135945486e-17 5.77778568263088e-17 -1.0
  outer loop
    vertex 18.86370330515627 10.035276180410083 0.0
    vertex 20.7157676649773 18.0 1.4099832412739487e-15
    vertex 19.0 9.0 0.0
  endloop
endfacet
facet normal 3.133090135945486e-17 5.77778568263088e-17 -1.0
  outer loop
    vertex 19.0 9.0 0.0
    vertex 20.7157676649773 18.0 1.4099832412739487e-15
    vertex 20.715767664977296 -2.8469414209226624e-31 0.0
  endloop
endfacet
facet normal 3.133090135945486e-17 5.77778568263088e-17 -1.0
  outer loop
    vertex 20.715767664977296 -2.8469414209226624e-31 0.0
    vertex 20.7157676649773 18.0 1.4099832412739487e-15
    vertex 30.0 7.0 1.4099832412739487e-15
  endloop
endfacet
facet normal 3.133090135945486e-17 5.77778568263088e-17 -1.0
  outer loop
    vertex 30.0 7.0 1.4099832412739487e-15
    vertex 20.7157676649773 18.0 1.4099832412739487e-15
    vertex 30.0 11.000000000000002 1.4099832412739487e-15
  endloop
endfacet
facet normal 3.133090135945486e-17 5.77778568263088e-17 -1.0
  outer loop
    vertex 30.0 7.0 1.4099832412739487e-15
    vertex 30.0 11.000000000000002 1.4099832412739487e-15
    vertex 30.262365330658074 10.730680218890871 9.971975238468983e-16
  endloop
endfacet
facet normal 3.133090135945486e-17 5.77778568263088e-17 -1.0
  outer loop
    vertex 30.0 7.0 1.4099832412739487e-15
    vertex 30.262365330658074 10.730680218890871 9.971975238468983e-16
    vertex 30.262365330658074 7.26931978110913 9.971975238469032e-16
  endloop
endfacet
facet normal 3.133090135945486e-17 5.77778568263088e-17 -1.0
  outer loop
    vertex 30.262365330658074 7.26931978110913 9.971975238469032e-16
    vertex 30.262365330658074 10.730680218890871 9.971975238468983e-16
    vertex 30.4844540624105 10.427290524839494 6.477799531680828e-16
  endloop
endfacet
facet normal 3.133090135945486e-17 5.77778568263088e-17 -1.0
  outer loop
    vertex 30.262365330658074 7.26931978110913 9.971975238469032e-16
    vertex 30.4844540624105 10.427290524839494 6.477799531680828e-16
    vertex 30.4844540624105 7.572709475160506 6.477799531680866e-16
  endloop
endfacet
facet normal 3.133090135945486e-17 5.77778568263088e-17 -1.0
  outer loop
    vertex 30.4844540624105 7.572709475160506 6.477799531680866e-16
    vertex 30.4844540624105 10.427290524839494 6.477799531680828e-16
    vertex 30.66189418957208 10.095803402162199 3.6860911147561205e-16
  endloop
endfacet
facet normal 3.133090135945486e-17 5.77778568263088e-17 -1.0
  outer loop
    vertex 30.4844540624105 7.572709475160506 6.477799531680866e-16
    vertex 30.66189418957208 10.095803402162199 3.6860911147561205e-16
    vertex 30.66189418957208 7.904196597837803 3.6860911147561456e-16
  endloop
endfacet
facet normal 3.133090135945486e-17 5.77778568263088e-17 -1.0
  outer loop
    vertex 30.66189418957208 7.904196597837803 3.6860911147561456e-16
    vertex 30.66189418957208 10.095803402162199 3.6860911147561205e-16
    vertex 30.79119265223557 9.742744456969122 1.651807143665433e-16
  endloop
endfacet
facet normal 3.133090135945486e-17 5.77778568263088e-17 -1.0
  outer loop
    vertex 30.66189418957208 7.904196597837803 3.6860911147561456e-16
    vertex 30.79119265223557 9.742744456969122 1.651807143665433e-16
    vertex 30.79119265223557 8.25725554303088 1.6518071436654457e-16
  endloop
endfacet
facet normal 3.133090135945486e-17 5.77778568263088e-17 -1.0
  outer loop
    vertex 30.79119265223557 8.25725554303088 1.6518071436654457e-16
    vertex 30.79119265223557 9.742744456969122 1.651807143665433e-16
    vertex 30.869804100128622 9.375063955054555 4.149942295841543e-17
  endloop
endfacet
facet normal 3.133090135945486e-17 5.77778568263088e-17 -1.0
  outer loop
    vertex 30.79119265223557 8.25725554303088 1.6518071436654457e-16
    vertex 30.869804100128622 9.375063955054555 4.149942295841543e-17
    vertex 30.869804100128622 8.624936044945446 4.149942295841668e-17
  endloop
endfacet
facet normal 3.133090135945486e-17 5.77778568263088e-17 -1.0
  outer loop
    vertex 30.869804100128622 8.624936044945446 4.149942295841668e-17
    vertex 30.869804100128622 9.375063955054555 4.149942295841543e-17
    vertex 30.896181 9.0 8.727129500832652e-24
  endloop
endfacet
facet normal 3.133090135945486e-17 5.77778568263088e-17 -1.0
  outer loop
    vertex 9.284232335022706 18.0 0.0
    vertex 0.0 7.0 -7.049916206369744e-16
    vertex 0.0 11.000000000000002 0.0
  endloop
endfacet
facet normal 3.133090135945486e-17 5.77778568263088e-17 -1.0
  outer loop
    vertex 0.0 7.0 -7.049916206369744e-16
    vertex 9.284232335022706 18.0 0.0
    vertex 9.284232335022704 0.0 -7.049916206369744e-16
  endloop
endfacet
facet normal 3.133090135945486e-17 5.77778568263088e-17 -1.0
  outer loop
    vertex 9.284232335022704 0.0 -7.049916206369744e-16
    vertex 9.284232335022706 18.0 0.0
    vertex 11.136296694843729 7.964723819589919 0.0
  endloop
endfacet
facet normal 3.133090135945486e-17 5.77778568263088e-17 -1.0
  outer loop
    vertex 9.284232335022704 0.0 -7.049916206369744e-16
    vertex 11.136296694843729 7.964723819589919 0.0
    vertex 11.535898384862247 7.000000000000003 0.0
  endloop
endfacet
facet normal 3.133090135945486e-17 5.77778568263088e-17 -1.0
  outer loop
    vertex 9.284232335022704 0.0 -7.049916206369744e-16
    vertex 11.535898384862247 7.000000000000003 0.0
    vertex 12.17157287525381 6.171572875253813 0.0
  endloop
endfacet
facet normal 3.133090135945486e-17 5.77778568263088e-17 -1.0
  outer loop
    vertex 9.284232335022704 0.0 -7.049916206369744e-16
    vertex 12.17157287525381 6.171572875253813 0.0
    vertex 12.999999999999998 5.535898384862248 0.0
  endloop
endfacet
facet normal 3.133090135945486e-17 5.77778568263088e-17 -1.0
  outer loop
    vertex 9.284232335022704 0.0 -7.049916206369744e-16
    vertex 12.999999999999998 5.535898384862248 0.0
    vertex 20.715767664977296 -2.8469414209226624e-31 0.0
  endloop
endfacet
facet normal 3.133090135945486e-17 5.77778568263088e-17 -1.0
  outer loop
    vertex 11.136296694843729 7.964723819589919 0.0
    vertex 9.284232335022706 18.0 0.0
    vertex 11.000000000000002 9.0 0.0
  endloop
endfacet
facet normal 3.133090135945486e-17 5.77778568263088e-17 -1.0
  outer loop
    vertex 20.715767664977296 -2.8469414209226624e-31 0.0
    vertex 12.999999999999998 5.535898384862248 0.0
    vertex 13.964723819589915 5.13629669484373 0.0
  endloop
endfacet
facet normal 3.133090135945486e-17 5.77778568263088e-17 -1.0
  outer loop
    vertex 20.715767664977296 -2.8469414209226624e-31 0.0
    vertex 13.964723819589915 5.13629669484373 0.0
    vertex 15.0 5.000000000000002 0.0
  endloop
endfacet
facet normal 3.133090135945486e-17 5.77778568263088e-17 -1.0
  outer loop
    vertex 20.715767664977296 -2.8469414209226624e-31 0.0
    vertex 15.0 5.000000000000002 0.0
    vertex 16.03527618041008 5.136296694843728 0.0
  endloop
endfacet
facet normal 3.133090135945486e-17 5.77778568263088e-17 -1.0
  outer loop
    vertex 20.715767664977296 -2.8469414209226624e-31 0.0
    vertex 16.03527618041008 5.136296694843728 0.0
    vertex 16.999999999999996 5.535898384862246 0.0
  endloop
endfacet
facet normal 3.133090135945486e-17 5.77778568263088e-17 -1.0
  outer loop
    vertex 20.715767664977296 -2.8469414209226624e-31 0.0
    vertex 16.999999999999996 5.535898384862246 0.0
    vertex 17.828427124746188 6.171572875253811 0.0
  endloop
endfacet
facet normal 3.133090135945486e-17 5.77778568263088e-17 -1.0
  outer loop
    vertex 20.715767664977296 -2.8469414209226624e-31 0.0
    vertex 17.828427124746188 6.171572875253811 0.0
    vertex 18.464101615137753 7.0 0.0
  endloop
endfacet
facet normal 3.133090135945486e-17 5.77778568263088e-17 -1.0
  outer loop
    vertex 20.715767664977296 -2.8469414209226624e-31 0.0
    vertex 18.464101615137753 7.0 0.0
    vertex 18.86370330515627 7.964723819589915 0.0
  endloop
endfacet
facet normal 3.133090135945486e-17 5.77778568263088e-17 -1.0
  outer loop
    vertex 20.715767664977296 -2.8469414209226624e-31 0.0
    vertex 18.86370330515627 7.964723819589915 0.0
    vertex 19.0 9.0 0.0
  endloop
endfacet
facet normal -0.0 1.0 -0.0
  outer loop
    vertex 9.284232335022706 18.0 10.0
    vertex 20.7157676649773 18.0 1.4099832412739487e-15
    vertex 9.284232335022706 18.0 0.0
  endloop
endfacet
facet normal -0.0 1.0 -0.0
  outer loop
    vertex 20.7157676649773 18.0 1.4099832412739487e-15
    vertex 9.284232335022706 18.0 10.0
    vertex 20.7157676649773 18.0 10.0
  endloop
endfacet
facet normal -1.2452139361642392e-32 -1.0 1.4234707104613312e-32
  outer loop
    vertex 20.715767664977296 -2.8469414209226624e-31 0.0
    vertex 9.284232335022704 0.0 10.0
    vertex 9.284232335022704 0.0 -7.049916206369744e-16
  endloop
endfacet
facet normal -1.2452139361642392e-32 -1.0 1.4234707104613312e-32
  outer loop
    vertex 9.284232335022704 0.0 10.0
    vertex 20.715767664977296 -2.8469414209226624e-31 0.0
    vertex 20.715767664977292 0.0 10.0
  endloop
endfacet
facet normal 0.13052619222005213 0.9914448613738105 -0.0
  outer loop
    vertex 13.964723819589915 5.13629669484373 5.0
    vertex 15.0 5.000000000000002 0.0
    vertex 13.964723819589915 5.13629669484373 0.0
  endloop
endfacet
facet normal 0.13052619222005213 0.9914448613738105 -0.0
  outer loop
    vertex 15.0 5.000000000000002 0.0
    vertex 13.964723819589915 5.13629669484373 5.0
    vertex 15.0 5.000000000000002 5.0
  endloop
endfacet
facet normal -0.13052619222005146 0.9914448613738105 -0.0
  outer loop
    vertex 15.0 5.000000000000002 5.0
    vertex 16.03527618041008 5.136296694843728 0.0
    vertex 15.0 5.000000000000002 0.0
  endloop
endfacet
facet normal -0.13052619222005146 0.9914448613738105 -0.0
  outer loop
    vertex 16.03527618041008 5.136296694843728 0.0
    vertex 15.0 5.000000000000002 5.0
    vertex 16.03527618041008 5.136296694843728 5.0
  endloop
endfacet
facet normal -0.38268343236508895 0.9238795325112871 -0.0
  outer loop
    vertex 16.03527618041008 5.136296694843728 5.0
    vertex 16.999999999999996 5.535898384862246 0.0
    vertex 16.03527618041008 5.136296694843728 0.0
  endloop
endfacet
facet normal -0.38268343236508895 0.9238795325112871 -0.0
  outer loop
    vertex 16.999999999999996 5.535898384862246 0.0
    vertex 16.03527618041008 5.136296694843728 5.0
    vertex 16.999999999999996 5.535898384862246 5.0
  endloop
endfacet
facet normal -0.6087614290087201 0.7933533402912357 -0.0
  outer loop
    vertex 16.999999999999996 5.535898384862246 5.0
    vertex 17.828427124746188 6.171572875253811 0.0
    vertex 16.999999999999996 5.535898384862246 0.0
  endloop
endfacet
facet normal -0.6087614290087201 0.7933533402912357 -0.0
  outer loop
    vertex 17.828427124746188 6.171572875253811 0.0
    vertex 16.999999999999996 5.535898384862246 5.0
    vertex 17.828427124746188 6.171572875253811 5.0
  endloop
endfacet
facet normal -0.7933533402912359 0.6087614290087199 0.0
  outer loop
    vertex 18.464101615137753 7.0 5.0
    vertex 17.828427124746188 6.171572875253811 0.0
    vertex 17.828427124746188 6.171572875253811 5.0
  endloop
endfacet
facet normal -0.7933533402912359 0.6087614290087199 0.0
  outer loop
    vertex 17.828427124746188 6.171572875253811 0.0
    vertex 18.464101615137753 7.0 5.0
    vertex 18.464101615137753 7.0 0.0
  endloop
endfacet
facet normal -0.923879532511286 0.38268343236509184 0.0
  outer loop
    vertex 18.86370330515627 7.964723819589915 5.0
    vertex 18.464101615137753 7.0 0.0
    vertex 18.464101615137753 7.0 5.0
  endloop
endfacet
facet normal -0.923879532511286 0.38268343236509184 0.0
  outer loop
    vertex 18.464101615137753 7.0 0.0
    vertex 18.86370330515627 7.964723819589915 5.0
    vertex 18.86370330515627 7.964723819589915 0.0
  endloop
endfacet
facet normal -0.9914448613738105 0.13052619222005143 0.0
  outer loop
    vertex 19.0 9.0 5.0
    vertex 18.86370330515627 7.964723819589915 0.0
    vertex 18.86370330515627 7.964723819589915 5.0
  endloop
endfacet
facet normal -0.9914448613738105 0.13052619222005143 0.0
  outer loop
    vertex 18.86370330515627 7.964723819589915 0.0
    vertex 19.0 9.0 5.0
    vertex 19.0 9.0 0.0
  endloop
endfacet
facet normal -0.9914448613738105 -0.13052619222005185 0.0
  outer loop
    vertex 18.86370330515627 10.035276180410083 5.0
    vertex 19.0 9.0 0.0
    vertex 19.0 9.0 5.0
  endloop
endfacet
facet normal -0.9914448613738105 -0.13052619222005185 0.0
  outer loop
    vertex 19.0 9.0 0.0
    vertex 18.86370330515627 10.035276180410083 5.0
    vertex 18.86370330515627 10.035276180410083 0.0
  endloop
endfacet
facet normal -0.9238795325112871 -0.382683432365089 0.0
  outer loop
    vertex 18.464101615137753 11.0 5.0
    vertex 18.86370330515627 10.035276180410083 0.0
    vertex 18.86370330515627 10.035276180410083 5.0
  endloop
endfacet
facet normal -0.9238795325112871 -0.382683432365089 0.0
  outer loop
    vertex 18.86370330515627 10.035276180410083 0.0
    vertex 18.464101615137753 11.0 5.0
    vertex 18.464101615137753 11.0 0.0
  endloop
endfacet
facet normal -0.7933533402912347 -0.6087614290087213 0.0
  outer loop
    vertex 17.828427124746188 11.82842712474619 5.0
    vertex 18.464101615137753 11.0 0.0
    vertex 18.464101615137753 11.0 5.0
  endloop
endfacet
facet normal -0.7933533402912347 -0.6087614290087213 0.0
  outer loop
    vertex 18.464101615137753 11.0 0.0
    vertex 17.828427124746188 11.82842712474619 5.0
    vertex 17.828427124746188 11.82842712474619 0.0
  endloop
endfacet
facet normal -0.6087614290087213 -0.7933533402912347 0.0
  outer loop
    vertex 17.828427124746188 11.82842712474619 5.0
    vertex 17.0 12.464101615137753 0.0
    vertex 17.828427124746188 11.82842712474619 0.0
  endloop
endfacet
facet normal -0.6087614290087213 -0.7933533402912347 0.0
  outer loop
    vertex 17.0 12.464101615137753 0.0
    vertex 17.828427124746188 11.82842712474619 5.0
    vertex 17.0 12.464101615137753 5.0
  endloop
endfacet
facet normal -0.38268343236508895 -0.9238795325112871 0.0
  outer loop
    vertex 17.0 12.464101615137753 5.0
    vertex 16.035276180410083 12.863703305156271 0.0
    vertex 17.0 12.464101615137753 0.0
  endloop
endfacet
facet normal -0.38268343236508895 -0.9238795325112871 0.0
  outer loop
    vertex 16.035276180410083 12.863703305156271 0.0
    vertex 17.0 12.464101615137753 5.0
    vertex 16.035276180410083 12.863703305156271 5.0
  endloop
endfacet
facet normal -0.13052619222005185 -0.9914448613738105 0.0
  outer loop
    vertex 16.035276180410083 12.863703305156271 5.0
    vertex 15.0 12.999999999999998 0.0
    vertex 16.035276180410083 12.863703305156271 0.0
  endloop
endfacet
facet normal -0.13052619222005185 -0.9914448613738105 0.0
  outer loop
    vertex 15.0 12.999999999999998 0.0
    vertex 16.035276180410083 12.863703305156271 5.0
    vertex 15.0 12.999999999999998 5.0
  endloop
endfacet
facet normal 0.13052619222005185 -0.9914448613738105 0.0
  outer loop
    vertex 15.0 12.999999999999998 5.0
    vertex 13.964723819589919 12.863703305156271 0.0
    vertex 15.0 12.999999999999998 0.0
  endloop
endfacet
facet normal 0.13052619222005185 -0.9914448613738105 0.0
  outer loop
    vertex 13.964723819589919 12.863703305156271 0.0
    vertex 15.0 12.999999999999998 5.0
    vertex 13.964723819589919 12.863703305156271 5.0
  endloop
endfacet
facet normal 0.382683432365089 -0.9238795325112871 0.0
  outer loop
    vertex 13.964723819589919 12.863703305156271 5.0
    vertex 13.000000000000002 12.464101615137753 0.0
    vertex 13.964723819589919 12.863703305156271 0.0
  endloop
endfacet
facet normal 0.382683432365089 -0.9238795325112871 0.0
  outer loop
    vertex 13.000000000000002 12.464101615137753 0.0
    vertex 13.964723819589919 12.863703305156271 5.0
    vertex 13.000000000000002 12.464101615137753 5.0
  endloop
endfacet
facet normal 0.6087614290087214 -0.7933533402912347 0.0
  outer loop
    vertex 13.000000000000002 12.464101615137753 5.0
    vertex 12.171572875253812 11.82842712474619 0.0
    vertex 13.000000000000002 12.464101615137753 0.0
  endloop
endfacet
facet normal 0.6087614290087214 -0.7933533402912347 0.0
  outer loop
    vertex 12.171572875253812 11.82842712474619 0.0
    vertex 13.000000000000002 12.464101615137753 5.0
    vertex 12.171572875253812 11.82842712474619 5.0
  endloop
endfacet
facet normal 0.7933533402912348 -0.608761429008721 -0.0
  outer loop
    vertex 12.171572875253812 11.82842712474619 0.0
    vertex 11.535898384862248 11.000000000000002 5.0
    vertex 11.535898384862248 11.000000000000002 0.0
  endloop
endfacet
facet normal 0.7933533402912348 -0.608761429008721 -0.0
  outer loop
    vertex 11.535898384862248 11.000000000000002 5.0
    vertex 12.171572875253812 11.82842712474619 0.0
    vertex 12.171572875253812 11.82842712474619 5.0
  endloop
endfacet
facet normal 0.9238795325112865 -0.38268343236509017 -0.0
  outer loop
    vertex 11.535898384862248 11.000000000000002 0.0
    vertex 11.136296694843729 10.035276180410085 5.0
    vertex 11.136296694843729 10.035276180410085 0.0
  endloop
endfacet
facet normal 0.9238795325112865 -0.38268343236509017 -0.0
  outer loop
    vertex 11.136296694843729 10.035276180410085 5.0
    vertex 11.535898384862248 11.000000000000002 0.0
    vertex 11.535898384862248 11.000000000000002 5.0
  endloop
endfacet
facet normal 0.9914448613738105 -0.13052619222005166 -0.0
  outer loop
    vertex 11.136296694843729 10.035276180410085 0.0
    vertex 11.000000000000002 9.0 5.0
    vertex 11.000000000000002 9.0 0.0
  endloop
endfacet
facet normal 0.9914448613738105 -0.13052619222005166 -0.0
  outer loop
    vertex 11.000000000000002 9.0 5.0
    vertex 11.136296694843729 10.035276180410085 0.0
    vertex 11.136296694843729 10.035276180410085 5.0
  endloop
endfacet
facet normal 0.9914448613738105 0.13052619222005196 -0.0
  outer loop
    vertex 11.000000000000002 9.0 0.0
    vertex 11.136296694843729 7.964723819589919 5.0
    vertex 11.136296694843729 7.964723819589919 0.0
  endloop
endfacet
facet normal 0.9914448613738105 0.13052619222005196 -0.0
  outer loop
    vertex 11.136296694843729 7.964723819589919 5.0
    vertex 11.000000000000002 9.0 0.0
    vertex 11.000000000000002 9.0 5.0
  endloop
endfacet
facet normal 0.9238795325112871 0.382683432365089 -0.0
  outer loop
    vertex 11.136296694843729 7.964723819589919 0.0
    vertex 11.535898384862247 7.000000000000003 5.0
    vertex 11.535898384862247 7.000000000000003 0.0
  endloop
endfacet
facet normal 0.9238795325112871 0.382683432365089 -0.0
  outer loop
    vertex 11.535898384862247 7.000000000000003 5.0
    vertex 11.136296694843729 7.964723819589919 0.0
    vertex 11.136296694843729 7.964723819589919 5.0
  endloop
endfacet
facet normal 0.7933533402912353 0.6087614290087204 -0.0
  outer loop
    vertex 11.535898384862247 7.000000000000003 0.0
    vertex 12.17157287525381 6.171572875253813 5.0
    vertex 12.17157287525381 6.171572875253813 0.0
  endloop
endfacet
facet normal 0.7933533402912353 0.6087614290087204 -0.0
  outer loop
    vertex 12.17157287525381 6.171572875253813 5.0
    vertex 11.535898384862247 7.000000000000003 0.0
    vertex 11.535898384862247 7.000000000000003 5.0
  endloop
endfacet
facet normal 0.6087614290087219 0.7933533402912342 -0.0
  outer loop
    vertex 12.17157287525381 6.171572875253813 5.0
    vertex 12.999999999999998 5.535898384862248 0.0
    vertex 12.17157287525381 6.171572875253813 0.0
  endloop
endfacet
facet normal 0.6087614290087219 0.7933533402912342 -0.0
  outer loop
    vertex 12.999999999999998 5.535898384862248 0.0
    vertex 12.17157287525381 6.171572875253813 5.0
    vertex 12.999999999999998 5.535898384862248 5.0
  endloop
endfacet
facet normal 0.38268343236508967 0.9238795325112868 -0.0
  outer loop
    vertex 12.999999999999998 5.535898384862248 5.0
    vertex 13.964723819589915 5.13629669484373 0.0
    vertex 12.999999999999998 5.535898384862248 0.0
  endloop
endfacet
facet normal 0.38268343236508967 0.9238795325112868 -0.0
  outer loop
    vertex 13.964723819589915 5.13629669484373 0.0
    vertex 12.999999999999998 5.535898384862248 5.0
    vertex 13.964723819589915 5.13629669484373 5.0
  endloop
endfacet
facet normal 0.0 0.0 1.0
  outer loop
    vertex 11.189488223348464 2.4000000000000057 5.0
    vertex 11.000000000000002 9.0 5.0
    vertex 7.3789764466969405 9.000000000000005 5.0
  endloop
endfacet
facet normal 0.0 0.0 1.0
  outer loop
    vertex 11.000000000000002 9.0 5.0
    vertex 11.189488223348464 2.4000000000000057 5.0
    vertex 11.136296694843729 7.964723819589919 5.0
  endloop
endfacet
facet normal 0.0 0.0 1.0
  outer loop
    vertex 11.136296694843729 7.964723819589919 5.0
    vertex 11.189488223348464 2.4000000000000057 5.0
    vertex 11.535898384862247 7.000000000000003 5.0
  endloop
endfacet
facet normal 0.0 0.0 1.0
  outer loop
    vertex 11.535898384862247 7.000000000000003 5.0
    vertex 11.189488223348464 2.4000000000000057 5.0
    vertex 12.17157287525381 6.171572875253813 5.0
  endloop
endfacet
facet normal 0.0 0.0 1.0
  outer loop
    vertex 12.17157287525381 6.171572875253813 5.0
    vertex 11.189488223348464 2.4000000000000057 5.0
    vertex 12.999999999999998 5.535898384862248 5.0
  endloop
endfacet
facet normal 0.0 0.0 1.0
  outer loop
    vertex 12.999999999999998 5.535898384862248 5.0
    vertex 11.189488223348464 2.4000000000000057 5.0
    vertex 18.810511776651527 2.4 5.0
  endloop
endfacet
facet normal 0.0 0.0 1.0
  outer loop
    vertex 12.999999999999998 5.535898384862248 5.0
    vertex 18.810511776651527 2.4 5.0
    vertex 13.964723819589915 5.13629669484373 5.0
  endloop
endfacet
facet normal 0.0 0.0 1.0
  outer loop
    vertex 13.964723819589915 5.13629669484373 5.0
    vertex 18.810511776651527 2.4 5.0
    vertex 15.0 5.000000000000002 5.0
  endloop
endfacet
facet normal 0.0 0.0 1.0
  outer loop
    vertex 15.0 5.000000000000002 5.0
    vertex 18.810511776651527 2.4 5.0
    vertex 16.03527618041008 5.136296694843728 5.0
  endloop
endfacet
facet normal 0.0 0.0 1.0
  outer loop
    vertex 16.03527618041008 5.136296694843728 5.0
    vertex 18.810511776651527 2.4 5.0
    vertex 16.999999999999996 5.535898384862246 5.0
  endloop
endfacet
facet normal 0.0 0.0 1.0
  outer loop
    vertex 16.999999999999996 5.535898384862246 5.0
    vertex 18.810511776651527 2.4 5.0
    vertex 17.828427124746188 6.171572875253811 5.0
  endloop
endfacet
facet normal 0.0 0.0 1.0
  outer loop
    vertex 17.828427124746188 6.171572875253811 5.0
    vertex 18.810511776651527 2.4 5.0
    vertex 18.464101615137753 7.0 5.0
  endloop
endfacet
facet normal 0.0 0.0 1.0
  outer loop
    vertex 18.464101615137753 7.0 5.0
    vertex 18.810511776651527 2.4 5.0
    vertex 18.86370330515627 7.964723819589915 5.0
  endloop
endfacet
facet normal 0.0 0.0 1.0
  outer loop
    vertex 18.86370330515627 7.964723819589915 5.0
    vertex 18.810511776651527 2.4 5.0
    vertex 22.621023553303058 8.999999999999998 5.0
  endloop
endfacet
facet normal 0.0 0.0 1.0
  outer loop
    vertex 18.86370330515627 7.964723819589915 5.0
    vertex 22.621023553303058 8.999999999999998 5.0
    vertex 19.0 9.0 5.0
  endloop
endfacet
facet normal 0.0 0.0 1.0
  outer loop
    vertex 11.000000000000002 9.0 5.0
    vertex 11.189488223348473 15.6 5.0
    vertex 7.3789764466969405 9.000000000000005 5.0
  endloop
endfacet
facet normal 0.0 0.0 1.0
  outer loop
    vertex 11.189488223348473 15.6 5.0
    vertex 11.000000000000002 9.0 5.0
    vertex 11.136296694843729 10.035276180410085 5.0
  endloop
endfacet
facet normal 0.0 0.0 1.0
  outer loop
    vertex 11.189488223348473 15.6 5.0
    vertex 11.136296694843729 10.035276180410085 5.0
    vertex 11.535898384862248 11.000000000000002 5.0
  endloop
endfacet
facet normal 0.0 0.0 1.0
  outer loop
    vertex 11.189488223348473 15.6 5.0
    vertex 11.535898384862248 11.000000000000002 5.0
    vertex 12.171572875253812 11.82842712474619 5.0
  endloop
endfacet
facet normal 0.0 0.0 1.0
  outer loop
    vertex 11.189488223348473 15.6 5.0
    vertex 12.171572875253812 11.82842712474619 5.0
    vertex 13.000000000000002 12.464101615137753 5.0
  endloop
endfacet
facet normal 0.0 0.0 1.0
  outer loop
    vertex 11.189488223348473 15.6 5.0
    vertex 13.000000000000002 12.464101615137753 5.0
    vertex 18.810511776651534 15.599999999999996 5.0
  endloop
endfacet
facet normal 0.0 0.0 1.0
  outer loop
    vertex 18.810511776651534 15.599999999999996 5.0
    vertex 13.000000000000002 12.464101615137753 5.0
    vertex 13.964723819589919 12.863703305156271 5.0
  endloop
endfacet
facet normal 0.0 0.0 1.0
  outer loop
    vertex 18.810511776651534 15.599999999999996 5.0
    vertex 13.964723819589919 12.863703305156271 5.0
    vertex 15.0 12.999999999999998 5.0
  endloop
endfacet
facet normal 0.0 0.0 1.0
  outer loop
    vertex 18.810511776651534 15.599999999999996 5.0
    vertex 15.0 12.999999999999998 5.0
    vertex 16.035276180410083 12.863703305156271 5.0
  endloop
endfacet
facet normal 0.0 0.0 1.0
  outer loop
    vertex 18.810511776651534 15.599999999999996 5.0
    vertex 16.035276180410083 12.863703305156271 5.0
    vertex 17.0 12.464101615137753 5.0
  endloop
endfacet
facet normal 0.0 0.0 1.0
  outer loop
    vertex 18.810511776651534 15.599999999999996 5.0
    vertex 17.0 12.464101615137753 5.0
    vertex 17.828427124746188 11.82842712474619 5.0
  endloop
endfacet
facet normal 0.0 0.0 1.0
  outer loop
    vertex 18.810511776651534 15.599999999999996 5.0
    vertex 17.828427124746188 11.82842712474619 5.0
    vertex 18.464101615137753 11.0 5.0
  endloop
endfacet
facet normal 0.0 0.0 1.0
  outer loop
    vertex 18.810511776651534 15.599999999999996 5.0
    vertex 18.464101615137753 11.0 5.0
    vertex 18.86370330515627 10.035276180410083 5.0
  endloop
endfacet
facet normal 0.0 0.0 1.0
  outer loop
    vertex 18.810511776651534 15.599999999999996 5.0
    vertex 18.86370330515627 10.035276180410083 5.0
    vertex 22.621023553303058 8.999999999999998 5.0
  endloop
endfacet
facet normal 0.0 0.0 1.0
  outer loop
    vertex 22.621023553303058 8.999999999999998 5.0
    vertex 18.86370330515627 10.035276180410083 5.0
    vertex 19.0 9.0 5.0
  endloop
endfacet
facet normal -0.8660254037844387 0.5000000000000003 -6.337248577301539e-18
  outer loop
    vertex 20.715767664977292 5.699999999999998 10.0
    vertex 18.810511776651527 2.4 5.0
    vertex 18.810511776651527 2.4 10.0
  endloop
endfacet
facet normal -0.8660254037844387 0.5000000000000003 -6.337248577301539e-18
  outer loop
    vertex 18.810511776651527 2.4 5.0
    vertex 20.715767664977292 5.699999999999998 10.0
    vertex 22.621023553303058 8.999999999999998 5.0
  endloop
endfacet
facet normal -0.8660254037844387 0.5000000000000003 -6.337248577301539e-18
  outer loop
    vertex 22.621023553303058 8.999999999999998 5.0
    vertex 20.715767664977292 5.699999999999998 10.0
    vertex 22.621023553303058 8.999999999999996 10.000000000000004
  endloop
endfacet
facet normal -0.866025403784439 -0.4999999999999996 4.3284212733456276e-17
  outer loop
    vertex 20.7157676649773 12.299999999999997 10.0
    vertex 22.621023553303058 8.999999999999998 5.0
    vertex 22.621023553303058 8.999999999999996 10.000000000000004
  endloop
endfacet
facet normal -0.866025403784439 -0.4999999999999996 4.3284212733456276e-17
  outer loop
    vertex 22.621023553303058 8.999999999999998 5.0
    vertex 20.7157676649773 12.299999999999997 10.0
    vertex 18.810511776651534 15.599999999999996 5.0
  endloop
endfacet
facet normal -0.866025403784439 -0.4999999999999996 4.3284212733456276e-17
  outer loop
    vertex 18.810511776651534 15.599999999999996 5.0
    vertex 20.7157676649773 12.299999999999997 10.0
    vertex 18.810511776651534 15.599999999999996 10.0
  endloop
endfacet
facet normal -3.700246381374433e-16 -1.0 -0.0
  outer loop
    vertex 18.810511776651534 15.599999999999996 10.0
    vertex 11.189488223348473 15.6 5.0
    vertex 18.810511776651534 15.599999999999996 5.0
  endloop
endfacet
facet normal -3.700246381374433e-16 -1.0 -0.0
  outer loop
    vertex 11.189488223348473 15.6 5.0
    vertex 18.810511776651534 15.599999999999996 10.0
    vertex 11.189488223348473 15.6 10.0
  endloop
endfacet
facet normal 0.8660254037844387 -0.5000000000000002 -6.078693419887186e-16
  outer loop
    vertex 11.189488223348473 15.6 5.0
    vertex 7.378976446696952 9.000000000000005 10.000000000000005
    vertex 7.3789764466969405 9.000000000000005 5.0
  endloop
endfacet
facet normal 0.8660254037844387 -0.5000000000000002 -6.078693419887186e-16
  outer loop
    vertex 7.378976446696952 9.000000000000005 10.000000000000005
    vertex 11.189488223348473 15.6 5.0
    vertex 9.284232335022706 12.300000000000002 10.0
  endloop
endfacet
facet normal 0.8660254037844387 -0.5000000000000002 -6.078693419887186e-16
  outer loop
    vertex 9.284232335022706 12.300000000000002 10.0
    vertex 11.189488223348473 15.6 5.0
    vertex 11.189488223348473 15.6 10.0
  endloop
endfacet
facet normal 0.8660254037844394 0.4999999999999987 -7.047926706408443e-16
  outer loop
    vertex 7.3789764466969405 9.000000000000005 5.0
    vertex 11.189488223348464 2.4000000000000057 10.0
    vertex 11.189488223348464 2.4000000000000057 5.0
  endloop
endfacet
facet normal 0.8660254037844394 0.4999999999999987 -7.047926706408443e-16
  outer loop
    vertex 11.189488223348464 2.4000000000000057 10.0
    vertex 7.3789764466969405 9.000000000000005 5.0
    vertex 9.284232335022704 5.7000000000000055 10.0
  endloop
endfacet
facet normal 0.8660254037844394 0.4999999999999987 -7.047926706408443e-16
  outer loop
    vertex 9.284232335022704 5.7000000000000055 10.0
    vertex 7.3789764466969405 9.000000000000005 5.0
    vertex 7.378976446696952 9.000000000000005 10.000000000000005
  endloop
endfacet
facet normal 7.400492762748863e-16 1.0 0.0
  outer loop
    vertex 11.189488223348464 2.4000000000000057 10.0
    vertex 18.810511776651527 2.4 5.0
    vertex 11.189488223348464 2.4000000000000057 5.0
  endloop
endfacet
facet normal 7.400492762748863e-16 1.0 0.0
  outer loop
    vertex 18.810511776651527 2.4 5.0
    vertex 11.189488223348464 2.4000000000000057 10.0
    vertex 18.810511776651527 2.4 10.0
  endloop
endfacet
facet normal 1.2341446601634589e-16 -4.3219915748995736e-16 1.0
  outer loop
    vertex 20.715767664977292 0.0 10.0
    vertex 20.72911709488995 4.813327899475702 10.000000000000002
    vertex 20.715767664977292 4.878099550067592 10.000000000000004
  endloop
endfacet
facet normal 1.2341446601634589e-16 -4.3219915748995736e-16 1.0
  outer loop
    vertex 20.72911709488995 4.813327899475702 10.000000000000002
    vertex 20.715767664977292 0.0 10.0
    vertex 20.843237891778816 4.536842181334264 10.000000000000004
  endloop
endfacet
facet normal 1.2341446601634589e-16 -4.3219915748995736e-16 1.0
  outer loop
    vertex 20.843237891778816 4.536842181334264 10.000000000000004
    vertex 20.715767664977292 0.0 10.0
    vertex 21.00707144015738 4.2865893550876395 10.000000000000004
  endloop
endfacet
facet normal 1.2341446601634589e-16 -4.3219915748995736e-16 1.0
  outer loop
    vertex 21.00707144015738 4.2865893550876395 10.000000000000004
    vertex 20.715767664977292 0.0 10.0
    vertex 21.21483202586342 4.071406996038815 10.000000000000004
  endloop
endfacet
facet normal 1.2341446601634589e-16 -4.3219915748995736e-16 1.0
  outer loop
    vertex 21.21483202586342 4.071406996038815 10.000000000000004
    vertex 20.715767664977292 0.0 10.0
    vertex 21.45918266953607 3.8988941804119874 10.000000000000004
  endloop
endfacet
facet normal 1.2341446601634589e-16 -4.3219915748995736e-16 1.0
  outer loop
    vertex 21.45918266953607 3.8988941804119874 10.000000000000004
    vertex 20.715767664977292 0.0 10.0
    vertex 21.731494229014665 3.7751431271111318 10.000000000000004
  endloop
endfacet
facet normal 1.2341446601634589e-16 -4.3219915748995736e-16 1.0
  outer loop
    vertex 21.731494229014665 3.7751431271111318 10.000000000000004
    vertex 20.715767664977292 0.0 10.0
    vertex 22.022150133933696 3.704524053523095 10.000000000000004
  endloop
endfacet
facet normal 1.2341446601634589e-16 -4.3219915748995736e-16 1.0
  outer loop
    vertex 22.022150133933696 3.704524053523095 10.000000000000004
    vertex 20.715767664977292 0.0 10.0
    vertex 22.32088599093743 3.6895308430937583 10.000000000000004
  endloop
endfacet
facet normal 1.2341446601634589e-16 -4.3219915748995736e-16 1.0
  outer loop
    vertex 22.32088599093743 3.6895308430937583 10.000000000000004
    vertex 20.715767664977292 0.0 10.0
    vertex 22.617152066496097 3.73069297486314 10.000000000000004
  endloop
endfacet
facet normal 1.2341446601634589e-16 -4.3219915748995736e-16 1.0
  outer loop
    vertex 22.617152066496097 3.73069297486314 10.000000000000004
    vertex 20.715767664977292 0.0 10.0
    vertex 22.900485846392616 3.826556825131564 10.000000000000002
  endloop
endfacet
facet normal 1.2341446601634589e-16 -4.3219915748995736e-16 1.0
  outer loop
    vertex 22.900485846392616 3.826556825131564 10.000000000000002
    vertex 20.715767664977292 0.0 10.0
    vertex 30.0 7.0 10.000000000000002
  endloop
endfacet
facet normal 1.2341446601634589e-16 -4.3219915748995736e-16 1.0
  outer loop
    vertex 9.284232335022704 0.0 10.0
    vertex 6.863646278336803 3.931988448021965 10.000000000000005
    vertex 1.0159188004351985e-14 7.0 10.000000000000005
  endloop
endfacet
facet normal 1.2341446601634589e-16 -4.3219915748995736e-16 1.0
  outer loop
    vertex 6.863646278336803 3.931988448021965 10.000000000000005
    vertex 9.284232335022704 0.0 10.0
    vertex 7.149194119246478 3.8333023163565594 10.000000000000005
  endloop
endfacet
facet normal 1.2341446601634589e-16 -4.3219915748995736e-16 1.0
  outer loop
    vertex 7.149194119246478 3.8333023163565594 10.000000000000005
    vertex 9.284232335022704 0.0 10.0
    vertex 7.447572157980685 3.7858990671811363 10.000000000000005
  endloop
endfacet
facet normal 1.2341446601634589e-16 -4.3219915748995736e-16 1.0
  outer loop
    vertex 7.447572157980685 3.7858990671811363 10.000000000000005
    vertex 9.284232335022704 0.0 10.0
    vertex 7.749645167466554 3.791230011882573 10.000000000000005
  endloop
endfacet
facet normal 1.2341446601634589e-16 -4.3219915748995736e-16 1.0
  outer loop
    vertex 7.749645167466554 3.791230011882573 10.000000000000005
    vertex 9.284232335022704 0.0 10.0
    vertex 8.046164794353597 3.8491319367385493 10.000000000000005
  endloop
endfacet
facet normal 1.2341446601634589e-16 -4.3219915748995736e-16 1.0
  outer loop
    vertex 8.046164794353597 3.8491319367385493 10.000000000000005
    vertex 9.284232335022704 0.0 10.0
    vertex 8.328052709235717 3.957832099915385 10.000000000000005
  endloop
endfacet
facet normal 1.2341446601634589e-16 -4.3219915748995736e-16 1.0
  outer loop
    vertex 8.328052709235717 3.957832099915385 10.000000000000005
    vertex 9.284232335022704 0.0 10.0
    vertex 8.58667855137165 4.114002506237259 10.000000000000005
  endloop
endfacet
facet normal 1.2341446601634589e-16 -4.3219915748995736e-16 1.0
  outer loop
    vertex 8.58667855137165 4.114002506237259 10.000000000000005
    vertex 9.284232335022704 0.0 10.0
    vertex 8.814124158269118 4.312861798035006 10.000000000000005
  endloop
endfacet
facet normal 1.2341446601634589e-16 -4.3219915748995736e-16 1.0
  outer loop
    vertex 8.814124158269118 4.312861798035006 10.000000000000005
    vertex 9.284232335022704 0.0 10.0
    vertex 9.00342599040441 4.548321642555216 10.000000000000005
  endloop
endfacet
facet normal 1.2341446601634589e-16 -4.3219915748995736e-16 1.0
  outer loop
    vertex 9.00342599040441 4.548321642555216 10.000000000000005
    vertex 9.284232335022704 0.0 10.0
    vertex 9.148788328933053 4.813173134091026 10.000000000000005
  endloop
endfacet
facet normal 1.2341446601634589e-16 -4.3219915748995736e-16 1.0
  outer loop
    vertex 9.148788328933053 4.813173134091026 10.000000000000005
    vertex 9.284232335022704 0.0 10.0
    vertex 9.24576071906979 5.099307503893796 10.000000000000005
  endloop
endfacet
facet normal 1.2341446601634589e-16 -4.3219915748995736e-16 1.0
  outer loop
    vertex 9.24576071906979 5.099307503893796 10.000000000000005
    vertex 9.284232335022704 0.0 10.0
    vertex 9.284232335022704 5.351202464674867 10.000000000000004
  endloop
endfacet
facet normal 1.2341446601634589e-16 -4.3219915748995736e-16 1.0
  outer loop
    vertex 9.284232335022704 5.351202464674867 10.000000000000004
    vertex 9.284232335022704 0.0 10.0
    vertex 11.189488223348464 2.4000000000000057 10.0
  endloop
endfacet
facet normal 1.2341446601634589e-16 -4.3219915748995736e-16 1.0
  outer loop
    vertex 11.189488223348464 2.4000000000000057 10.0
    vertex 9.284232335022704 0.0 10.0
    vertex 20.715767664977292 0.0 10.0
  endloop
endfacet
facet normal 1.2341446601634589e-16 -4.3219915748995736e-16 1.0
  outer loop
    vertex 9.284232335022704 5.351202464674867 10.000000000000004
    vertex 11.189488223348464 2.4000000000000057 10.0
    vertex 9.291374226480654 5.3979643805481565 10.000000000000005
  endloop
endfacet
facet normal 1.2341446601634589e-16 -4.3219915748995736e-16 1.0
  outer loop
    vertex 11.189488223348464 2.4000000000000057 10.0
    vertex 20.715767664977292 0.0 10.0
    vertex 18.810511776651527 2.4 10.0
  endloop
endfacet
facet normal 1.2341446601634589e-16 -4.3219915748995736e-16 1.0
  outer loop
    vertex 18.810511776651527 2.4 10.0
    vertex 20.715767664977292 0.0 10.0
    vertex 20.715767664977292 5.699999999999998 10.0
  endloop
endfacet
facet normal 1.2341446601634589e-16 -4.3219915748995736e-16 1.0
  outer loop
    vertex 20.715767664977292 5.699999999999998 10.0
    vertex 20.715767664977292 0.0 10.0
    vertex 20.715767664977292 4.878099550067592 10.000000000000004
  endloop
endfacet
facet normal 1.2341446601634589e-16 -4.3219915748995736e-16 1.0
  outer loop
    vertex 11.189488223348464 2.4000000000000057 10.0
    vertex 9.284232335022704 5.7000000000000055 10.0
    vertex 9.291374226480654 5.3979643805481565 10.000000000000005
  endloop
endfacet
facet normal 1.6070880285495528e-16 1.7634069545326377e-16 1.0
  outer loop
    vertex 1.8258909736086488 11.816163067342856 10.000000000000005
    vertex 9.284232335022706 18.0 10.0
    vertex 0.0 11.000000000000002 10.0
  endloop
endfacet
facet normal 1.6070880285495528e-16 1.7634069545326377e-16 1.0
  outer loop
    vertex 9.284232335022706 18.0 10.0
    vertex 1.8258909736086488 11.816163067342856 10.000000000000005
    vertex 6.789890147009147 14.035042973213034 10.000000000000005
  endloop
endfacet
facet normal 1.6070880285495528e-16 1.7634069545326377e-16 1.0
  outer loop
    vertex 9.284232335022706 18.0 10.0
    vertex 6.789890147009147 14.035042973213034 10.000000000000005
    vertex 7.0766704843176305 14.134772973289001 10.000000000000005
  endloop
endfacet
facet normal 1.6070880285495528e-16 1.7634069545326377e-16 1.0
  outer loop
    vertex 9.284232335022706 18.0 10.0
    vertex 7.0766704843176305 14.134772973289001 10.000000000000005
    vertex 7.376256398692269 14.184142140693682 10.000000000000005
  endloop
endfacet
facet normal 1.6070880285495528e-16 1.7634069545326377e-16 1.0
  outer loop
    vertex 9.284232335022706 18.0 10.0
    vertex 7.376256398692269 14.184142140693682 10.000000000000005
    vertex 7.6798730855063 14.181704463522728 10.000000000000005
  endloop
endfacet
facet normal 1.6070880285495528e-16 1.7634069545326377e-16 1.0
  outer loop
    vertex 9.284232335022706 18.0 10.0
    vertex 7.6798730855063 14.181704463522728 10.000000000000005
    vertex 7.978627679707044 14.12753134079689 10.000000000000005
  endloop
endfacet
facet normal 1.6070880285495528e-16 1.7634069545326377e-16 1.0
  outer loop
    vertex 9.284232335022706 18.0 10.0
    vertex 7.978627679707044 14.12753134079689 10.000000000000005
    vertex 8.263769725850256 14.023209491200639 10.000000000000005
  endloop
endfacet
facet normal 1.6070880285495528e-16 1.7634069545326377e-16 1.0
  outer loop
    vertex 9.284232335022706 18.0 10.0
    vertex 8.263769725850256 14.023209491200639 10.000000000000005
    vertex 8.526947476988802 13.871794478445706 10.000000000000005
  endloop
endfacet
facet normal 1.6070880285495528e-16 1.7634069545326377e-16 1.0
  outer loop
    vertex 9.284232335022706 18.0 10.0
    vertex 8.526947476988802 13.871794478445706 10.000000000000005
    vertex 8.760452515478377 13.677721214491338 10.000000000000005
  endloop
endfacet
facet normal 1.6070880285495528e-16 1.7634069545326377e-16 1.0
  outer loop
    vertex 9.284232335022706 18.0 10.0
    vertex 8.760452515478377 13.677721214491338 10.000000000000005
    vertex 8.957445530811384 13.44667406196197 10.000000000000005
  endloop
endfacet
facet normal 1.6070880285495528e-16 1.7634069545326377e-16 1.0
  outer loop
    vertex 9.284232335022706 18.0 10.0
    vertex 8.957445530811384 13.44667406196197 10.000000000000005
    vertex 9.112156641496593 13.185420340433511 10.000000000000005
  endloop
endfacet
facet normal 1.6070880285495528e-16 1.7634069545326377e-16 1.0
  outer loop
    vertex 9.284232335022706 18.0 10.0
    vertex 9.112156641496593 13.185420340433511 10.000000000000005
    vertex 9.22005439360138 12.901612113152037 10.000000000000005
  endloop
endfacet
facet normal 1.6070880285495528e-16 1.7634069545326377e-16 1.0
  outer loop
    vertex 9.284232335022706 18.0 10.0
    vertex 9.22005439360138 12.901612113152037 10.000000000000005
    vertex 9.277978486026921 12.603562059807643 10.000000000000004
  endloop
endfacet
facet normal 1.6070880285495528e-16 1.7634069545326377e-16 1.0
  outer loop
    vertex 9.284232335022706 18.0 10.0
    vertex 9.277978486026921 12.603562059807643 10.000000000000004
    vertex 9.284232335022706 12.300000000000002 10.0
  endloop
endfacet
facet normal 1.6070880285495528e-16 1.7634069545326377e-16 1.0
  outer loop
    vertex 9.284232335022706 18.0 10.0
    vertex 9.284232335022706 12.300000000000002 10.0
    vertex 11.189488223348473 15.6 10.0
  endloop
endfacet
facet normal 1.6070880285495528e-16 1.7634069545326377e-16 1.0
  outer loop
    vertex 9.284232335022706 18.0 10.0
    vertex 11.189488223348473 15.6 10.0
    vertex 20.7157676649773 18.0 10.0
  endloop
endfacet
facet normal 1.6070880285495528e-16 1.7634069545326377e-16 1.0
  outer loop
    vertex 20.7157676649773 18.0 10.0
    vertex 11.189488223348473 15.6 10.0
    vertex 18.810511776651534 15.599999999999996 10.0
  endloop
endfacet
facet normal 1.6070880285495528e-16 1.7634069545326377e-16 1.0
  outer loop
    vertex 20.7157676649773 18.0 10.0
    vertex 18.810511776651534 15.599999999999996 10.0
    vertex 20.7157676649773 12.299999999999997 10.0
  endloop
endfacet
facet normal 1.6070880285495528e-16 1.7634069545326377e-16 1.0
  outer loop
    vertex 20.7157676649773 18.0 10.0
    vertex 20.7157676649773 12.299999999999997 10.0
    vertex 20.729728098321463 12.60429848449433 10.000000000000004
  endloop
endfacet
facet normal 1.6070880285495528e-16 1.7634069545326377e-16 1.0
  outer loop
    vertex 20.7157676649773 18.0 10.0
    vertex 20.729728098321463 12.60429848449433 10.000000000000004
    vertex 20.794718291099727 12.901903484800682 10.000000000000002
  endloop
endfacet
facet normal 1.6070880285495528e-16 1.7634069545326377e-16 1.0
  outer loop
    vertex 20.7157676649773 18.0 10.0
    vertex 20.794718291099727 12.901903484800682 10.000000000000002
    vertex 20.908883043441154 13.184319615160696 10.000000000000002
  endloop
endfacet
facet normal 1.6070880285495528e-16 1.7634069545326377e-16 1.0
  outer loop
    vertex 20.7157676649773 18.0 10.0
    vertex 20.908883043441154 13.184319615160696 10.000000000000002
    vertex 21.068963426194166 13.443485068920165 10.000000000000002
  endloop
endfacet
facet normal 1.6070880285495528e-16 1.7634069545326377e-16 1.0
  outer loop
    vertex 20.7157676649773 18.0 10.0
    vertex 21.068963426194166 13.443485068920165 10.000000000000002
    vertex 21.270389809808083 13.672001749599984 10.000000000000002
  endloop
endfacet
facet normal 1.6070880285495528e-16 1.7634069545326377e-16 1.0
  outer loop
    vertex 20.7157676649773 18.0 10.0
    vertex 21.270389809808083 13.672001749599984 10.000000000000002
    vertex 21.507412308263003 13.863346455800317 10.000000000000002
  endloop
endfacet
facet normal 1.6070880285495528e-16 1.7634069545326377e-16 1.0
  outer loop
    vertex 20.7157676649773 18.0 10.0
    vertex 21.507412308263003 13.863346455800317 10.000000000000002
    vertex 21.77326491441618 14.012057091486756 10.000000000000002
  endloop
endfacet
facet normal 1.6070880285495528e-16 1.7634069545326377e-16 1.0
  outer loop
    vertex 20.7157676649773 18.0 10.0
    vertex 21.77326491441618 14.012057091486756 10.000000000000002
    vertex 22.06035864138295 14.113888586128807 10.000000000000002
  endloop
endfacet
facet normal 1.6070880285495528e-16 1.7634069545326377e-16 1.0
  outer loop
    vertex 20.7157676649773 18.0 10.0
    vertex 22.06035864138295 14.113888586128807 10.000000000000002
    vertex 22.360498156568486 14.165934073818821 10.000000000000002
  endloop
endfacet
facet normal 1.6070880285495528e-16 1.7634069545326377e-16 1.0
  outer loop
    vertex 20.7157676649773 18.0 10.0
    vertex 22.360498156568486 14.165934073818821 10.000000000000002
    vertex 22.665115724349388 14.166707872211227 10.000000000000002
  endloop
endfacet
facet normal 1.6070880285495528e-16 1.7634069545326377e-16 1.0
  outer loop
    vertex 20.7157676649773 18.0 10.0
    vertex 22.665115724349388 14.166707872211227 10.000000000000002
    vertex 22.965515779313737 14.11618789257823 10.000000000000004
  endloop
endfacet
facet normal 1.6070880285495528e-16 1.7634069545326377e-16 1.0
  outer loop
    vertex 20.7157676649773 18.0 10.0
    vertex 22.965515779313737 14.11618789257823 10.000000000000004
    vertex 23.253123148510376 14.015816270351172 10.000000000000004
  endloop
endfacet
facet normal 1.6070880285495528e-16 1.7634069545326377e-16 1.0
  outer loop
    vertex 20.7157676649773 18.0 10.0
    vertex 23.253123148510376 14.015816270351172 10.000000000000004
    vertex 30.0 11.000000000000002 10.0
  endloop
endfacet
facet normal -0.6020250476242153 -0.7984772019494741 3.2255933067570776e-16
  outer loop
    vertex 9.284232335022704 0.0 10.0
    vertex 0.0 7.0 -7.049916206369744e-16
    vertex 9.284232335022704 0.0 -7.049916206369744e-16
  endloop
endfacet
facet normal -0.6020250476242153 -0.7984772019494741 3.2255933067570776e-16
  outer loop
    vertex 0.0 7.0 -7.049916206369744e-16
    vertex 9.284232335022704 0.0 10.0
    vertex 1.0159188004351985e-14 7.0 10.000000000000005
  endloop
endfacet
facet normal 0.6020250476242149 -0.7984772019494745 9.844164254207172e-17
  outer loop
    vertex 30.0 7.0 1.4099832412739487e-15
    vertex 20.715767664977292 0.0 10.0
    vertex 20.715767664977296 -2.8469414209226624e-31 0.0
  endloop
endfacet
facet normal 0.6020250476242149 -0.7984772019494745 9.844164254207172e-17
  outer loop
    vertex 20.715767664977292 0.0 10.0
    vertex 30.0 7.0 1.4099832412739487e-15
    vertex 30.0 7.0 10.000000000000002
  endloop
endfacet
facet normal 0.602025047624215 0.7984772019494745 -0.0
  outer loop
    vertex 20.7157676649773 18.0 10.0
    vertex 30.0 11.000000000000002 1.4099832412739487e-15
    vertex 20.7157676649773 18.0 1.4099832412739487e-15
  endloop
endfacet
facet normal 0.602025047624215 0.7984772019494745 -0.0
  outer loop
    vertex 30.0 11.000000000000002 1.4099832412739487e-15
    vertex 20.7157676649773 18.0 10.0
    vertex 30.0 11.000000000000002 10.0
  endloop
endfacet
facet normal -0.6020250476242148 0.7984772019494745 -0.0
  outer loop
    vertex 0.0 11.000000000000002 10.0
    vertex 9.284232335022706 18.0 0.0
    vertex 0.0 11.000000000000002 0.0
  endloop
endfacet
facet normal -0.6020250476242148 0.7984772019494745 -0.0
  outer loop
    vertex 9.284232335022706 18.0 0.0
    vertex 0.0 11.000000000000002 10.0
    vertex 9.284232335022706 18.0 10.0
  endloop
endfacet
facet normal -1.25138643300599e-16 1.6320590140018824e-16 1.0
  outer loop
    vertex 20.72911709488995 4.813327899475702 10.000000000000002
    vertex 20.715767664977292 5.699999999999998 10.0
    vertex 20.715767664977292 4.878099550067592 10.000000000000004
  endloop
endfacet
facet normal -1.25138643300599e-16 1.6320590140018824e-16 1.0
  outer loop
    vertex 20.715767664977292 5.699999999999998 10.0
    vertex 20.72911709488995 4.813327899475702 10.000000000000002
    vertex 22.621023553303058 8.999999999999996 10.000000000000004
  endloop
endfacet
facet normal -1.25138643300599e-16 1.6320590140018824e-16 1.0
  outer loop
    vertex 22.621023553303058 8.999999999999996 10.000000000000004
    vertex 20.72911709488995 4.813327899475702 10.000000000000002
    vertex 20.843237891778816 4.536842181334264 10.000000000000004
  endloop
endfacet
facet normal -1.25138643300599e-16 1.6320590140018824e-16 1.0
  outer loop
    vertex 22.621023553303058 8.999999999999996 10.000000000000004
    vertex 20.843237891778816 4.536842181334264 10.000000000000004
    vertex 21.00707144015738 4.2865893550876395 10.000000000000004
  endloop
endfacet
facet normal -1.25138643300599e-16 1.6320590140018824e-16 1.0
  outer loop
    vertex 22.621023553303058 8.999999999999996 10.000000000000004
    vertex 21.00707144015738 4.2865893550876395 10.000000000000004
    vertex 21.21483202586342 4.071406996038815 10.000000000000004
  endloop
endfacet
facet normal -1.25138643300599e-16 1.6320590140018824e-16 1.0
  outer loop
    vertex 22.621023553303058 8.999999999999996 10.000000000000004
    vertex 21.21483202586342 4.071406996038815 10.000000000000004
    vertex 21.45918266953607 3.8988941804119874 10.000000000000004
  endloop
endfacet
facet normal -1.25138643300599e-16 1.6320590140018824e-16 1.0
  outer loop
    vertex 22.621023553303058 8.999999999999996 10.000000000000004
    vertex 21.45918266953607 3.8988941804119874 10.000000000000004
    vertex 21.731494229014665 3.7751431271111318 10.000000000000004
  endloop
endfacet
facet normal -1.25138643300599e-16 1.6320590140018824e-16 1.0
  outer loop
    vertex 22.621023553303058 8.999999999999996 10.000000000000004
    vertex 21.731494229014665 3.7751431271111318 10.000000000000004
    vertex 22.022150133933696 3.704524053523095 10.000000000000004
  endloop
endfacet
facet normal -1.25138643300599e-16 1.6320590140018824e-16 1.0
  outer loop
    vertex 22.621023553303058 8.999999999999996 10.000000000000004
    vertex 22.022150133933696 3.704524053523095 10.000000000000004
    vertex 22.32088599093743 3.6895308430937583 10.000000000000004
  endloop
endfacet
facet normal -1.25138643300599e-16 1.6320590140018824e-16 1.0
  outer loop
    vertex 22.621023553303058 8.999999999999996 10.000000000000004
    vertex 22.32088599093743 3.6895308430937583 10.000000000000004
    vertex 22.617152066496097 3.73069297486314 10.000000000000004
  endloop
endfacet
facet normal -1.25138643300599e-16 1.6320590140018824e-16 1.0
  outer loop
    vertex 22.621023553303058 8.999999999999996 10.000000000000004
    vertex 22.617152066496097 3.73069297486314 10.000000000000004
    vertex 22.900485846392616 3.826556825131564 10.000000000000002
  endloop
endfacet
facet normal -1.25138643300599e-16 1.6320590140018824e-16 1.0
  outer loop
    vertex 22.621023553303058 8.999999999999996 10.000000000000004
    vertex 22.900485846392616 3.826556825131564 10.000000000000002
    vertex 22.665115724349388 14.166707872211227 10.000000000000002
  endloop
endfacet
facet normal -1.25138643300599e-16 1.6320590140018824e-16 1.0
  outer loop
    vertex 22.665115724349388 14.166707872211227 10.000000000000002
    vertex 22.900485846392616 3.826556825131564 10.000000000000002
    vertex 22.965515779313737 14.11618789257823 10.000000000000004
  endloop
endfacet
facet normal -1.25138643300599e-16 1.6320590140018824e-16 1.0
  outer loop
    vertex 22.965515779313737 14.11618789257823 10.000000000000004
    vertex 22.900485846392616 3.826556825131564 10.000000000000002
    vertex 30.0 7.0 10.000000000000002
  endloop
endfacet
facet normal -1.25138643300599e-16 1.6320590140018824e-16 1.0
  outer loop
    vertex 22.965515779313737 14.11618789257823 10.000000000000004
    vertex 30.0 7.0 10.000000000000002
    vertex 23.253123148510376 14.015816270351172 10.000000000000004
  endloop
endfacet
facet normal -1.25138643300599e-16 1.6320590140018824e-16 1.0
  outer loop
    vertex 23.253123148510376 14.015816270351172 10.000000000000004
    vertex 30.0 7.0 10.000000000000002
    vertex 30.0 11.000000000000002 10.0
  endloop
endfacet
facet normal -1.25138643300599e-16 1.6320590140018824e-16 1.0
  outer loop
    vertex 30.0 11.000000000000002 10.0
    vertex 30.0 7.0 10.000000000000002
    vertex 30.26236533065811 7.269319781109128 10.000000000000004
  endloop
endfacet
facet normal -1.25138643300599e-16 1.6320590140018824e-16 1.0
  outer loop
    vertex 30.0 11.000000000000002 10.0
    vertex 30.26236533065811 7.269319781109128 10.000000000000004
    vertex 30.26236533065811 10.73068021889087 10.000000000000004
  endloop
endfacet
facet normal -1.25138643300599e-16 1.6320590140018824e-16 1.0
  outer loop
    vertex 30.26236533065811 10.73068021889087 10.000000000000004
    vertex 30.26236533065811 7.269319781109128 10.000000000000004
    vertex 30.484454062410535 7.572709475160505 10.000000000000004
  endloop
endfacet
facet normal -1.25138643300599e-16 1.6320590140018824e-16 1.0
  outer loop
    vertex 30.26236533065811 10.73068021889087 10.000000000000004
    vertex 30.484454062410535 7.572709475160505 10.000000000000004
    vertex 30.484454062410535 10.427290524839494 10.000000000000004
  endloop
endfacet
facet normal -1.25138643300599e-16 1.6320590140018824e-16 1.0
  outer loop
    vertex 30.484454062410535 10.427290524839494 10.000000000000004
    vertex 30.484454062410535 7.572709475160505 10.000000000000004
    vertex 30.661894189572113 7.904196597837801 10.000000000000004
  endloop
endfacet
facet normal -1.25138643300599e-16 1.6320590140018824e-16 1.0
  outer loop
    vertex 30.484454062410535 10.427290524839494 10.000000000000004
    vertex 30.661894189572113 7.904196597837801 10.000000000000004
    vertex 30.661894189572113 10.095803402162199 10.000000000000004
  endloop
endfacet
facet normal -1.25138643300599e-16 1.6320590140018824e-16 1.0
  outer loop
    vertex 30.661894189572113 10.095803402162199 10.000000000000004
    vertex 30.661894189572113 7.904196597837801 10.000000000000004
    vertex 30.791192652235605 8.257255543030878 10.000000000000004
  endloop
endfacet
facet normal -1.25138643300599e-16 1.6320590140018824e-16 1.0
  outer loop
    vertex 30.661894189572113 10.095803402162199 10.000000000000004
    vertex 30.791192652235605 8.257255543030878 10.000000000000004
    vertex 30.791192652235605 9.74274445696912 10.000000000000004
  endloop
endfacet
facet normal -1.25138643300599e-16 1.6320590140018824e-16 1.0
  outer loop
    vertex 30.791192652235605 9.74274445696912 10.000000000000004
    vertex 30.791192652235605 8.257255543030878 10.000000000000004
    vertex 30.869804100128654 8.624936044945446 10.000000000000004
  endloop
endfacet
facet normal -1.25138643300599e-16 1.6320590140018824e-16 1.0
  outer loop
    vertex 30.791192652235605 9.74274445696912 10.000000000000004
    vertex 30.869804100128654 8.624936044945446 10.000000000000004
    vertex 30.869804100128654 9.375063955054554 10.000000000000004
  endloop
endfacet
facet normal -1.25138643300599e-16 1.6320590140018824e-16 1.0
  outer loop
    vertex 30.869804100128654 9.375063955054554 10.000000000000004
    vertex 30.869804100128654 8.624936044945446 10.000000000000004
    vertex 30.896181000000034 8.999999999999998 10.000000000000004
  endloop
endfacet
facet normal -1.25138643300599e-16 1.6320590140018824e-16 1.0
  outer loop
    vertex 22.621023553303058 8.999999999999996 10.000000000000004
    vertex 20.729728098321463 12.60429848449433 10.000000000000004
    vertex 20.7157676649773 12.299999999999997 10.0
  endloop
endfacet
facet normal -1.25138643300599e-16 1.6320590140018824e-16 1.0
  outer loop
    vertex 20.729728098321463 12.60429848449433 10.000000000000004
    vertex 22.621023553303058 8.999999999999996 10.000000000000004
    vertex 20.794718291099727 12.901903484800682 10.000000000000002
  endloop
endfacet
facet normal -1.25138643300599e-16 1.6320590140018824e-16 1.0
  outer loop
    vertex 20.794718291099727 12.901903484800682 10.000000000000002
    vertex 22.621023553303058 8.999999999999996 10.000000000000004
    vertex 20.908883043441154 13.184319615160696 10.000000000000002
  endloop
endfacet
facet normal -1.25138643300599e-16 1.6320590140018824e-16 1.0
  outer loop
    vertex 20.908883043441154 13.184319615160696 10.000000000000002
    vertex 22.621023553303058 8.999999999999996 10.000000000000004
    vertex 21.068963426194166 13.443485068920165 10.000000000000002
  endloop
endfacet
facet normal -1.25138643300599e-16 1.6320590140018824e-16 1.0
  outer loop
    vertex 21.068963426194166 13.443485068920165 10.000000000000002
    vertex 22.621023553303058 8.999999999999996 10.000000000000004
    vertex 21.270389809808083 13.672001749599984 10.000000000000002
  endloop
endfacet
facet normal -1.25138643300599e-16 1.6320590140018824e-16 1.0
  outer loop
    vertex 21.270389809808083 13.672001749599984 10.000000000000002
    vertex 22.621023553303058 8.999999999999996 10.000000000000004
    vertex 21.507412308263003 13.863346455800317 10.000000000000002
  endloop
endfacet
facet normal -1.25138643300599e-16 1.6320590140018824e-16 1.0
  outer loop
    vertex 21.507412308263003 13.863346455800317 10.000000000000002
    vertex 22.621023553303058 8.999999999999996 10.000000000000004
    vertex 21.77326491441618 14.012057091486756 10.000000000000002
  endloop
endfacet
facet normal -1.25138643300599e-16 1.6320590140018824e-16 1.0
  outer loop
    vertex 21.77326491441618 14.012057091486756 10.000000000000002
    vertex 22.621023553303058 8.999999999999996 10.000000000000004
    vertex 22.06035864138295 14.113888586128807 10.000000000000002
  endloop
endfacet
facet normal -1.25138643300599e-16 1.6320590140018824e-16 1.0
  outer loop
    vertex 22.06035864138295 14.113888586128807 10.000000000000002
    vertex 22.621023553303058 8.999999999999996 10.000000000000004
    vertex 22.360498156568486 14.165934073818821 10.000000000000002
  endloop
endfacet
facet normal -1.25138643300599e-16 1.6320590140018824e-16 1.0
  outer loop
    vertex 22.360498156568486 14.165934073818821 10.000000000000002
    vertex 22.621023553303058 8.999999999999996 10.000000000000004
    vertex 22.665115724349388 14.166707872211227 10.000000000000002
  endloop
endfacet
facet normal -2.49951331458428e-16 1.7624790515924357e-16 -1.0
  outer loop
    vertex -1.0853470946991508 9.397143178655275 -1.121620561762241e-17
    vertex -1.0853470946991506 8.602856821344727 -1.5120751219017323e-16
    vertex -1.1191980000000001 9.0 -7.275078005287728e-17
  endloop
endfacet
facet normal -2.49951331458428e-16 1.7624790515924357e-16 -1.0
  outer loop
    vertex -1.0853470946991506 8.602856821344727 -1.5120751219017323e-16
    vertex -1.0853470946991508 9.397143178655275 -1.121620561762241e-17
    vertex -0.9847710149989919 9.782828335660637 3.1620870321662657e-17
  endloop
endfacet
facet normal -2.49951331458428e-16 1.7624790515924357e-16 -1.0
  outer loop
    vertex -1.0853470946991506 8.602856821344727 -1.5120751219017323e-16
    vertex -0.9847710149989919 9.782828335660637 3.1620870321662657e-17
    vertex -0.9847710149989919 8.217171664339364 -2.4432283819730583e-16
  endloop
endfacet
facet normal -2.49951331458428e-16 1.7624790515924357e-16 -1.0
  outer loop
    vertex -0.9847710149989919 8.217171664339364 -2.4432283819730583e-16
    vertex -0.9847710149989919 9.782828335660637 3.1620870321662657e-17
    vertex -0.8203714924678952 10.145928026012543 5.452455056237863e-17
  endloop
endfacet
facet normal -2.49951331458428e-16 1.7624790515924357e-16 -1.0
  outer loop
    vertex -0.9847710149989919 8.217171664339364 -2.4432283819730583e-16
    vertex -0.8203714924678952 10.145928026012543 5.452455056237863e-17
    vertex -0.8203714924678949 7.854071973987458 -3.494102775335767e-16
  endloop
endfacet
facet normal -2.49951331458428e-16 1.7624790515924357e-16 -1.0
  outer loop
    vertex -0.8203714924678949 7.854071973987458 -3.494102775335767e-16
    vertex -0.8203714924678952 10.145928026012543 5.452455056237863e-17
    vertex -0.5968916358626956 10.475966420496913 5.683403849976096e-17
  endloop
endfacet
facet normal -2.49951331458428e-16 1.7624790515924357e-16 -1.0
  outer loop
    vertex -0.8203714924678949 7.854071973987458 -3.494102775335767e-16
    vertex -0.5968916358626956 10.475966420496913 5.683403849976096e-17
    vertex -0.5968916358626952 7.524033579503086 -4.634379408961755e-16
  endloop
endfacet
facet normal -2.49951331458428e-16 1.7624790515924357e-16 -1.0
  outer loop
    vertex -0.5968916358626952 7.524033579503086 -4.634379408961755e-16
    vertex -0.5968916358626956 10.475966420496913 5.683403849976096e-17
    vertex -0.3207790871748084 10.763421544993212 3.848270284260564e-17
  endloop
endfacet
facet normal -2.49951331458428e-16 1.7624790515924357e-16 -1.0
  outer loop
    vertex -0.5968916358626952 7.524033579503086 -4.634379408961755e-16
    vertex -0.3207790871748084 10.763421544993212 3.848270284260564e-17
    vertex -0.3207790871748084 7.236578455006789 -5.831160035928549e-16
  endloop
endfacet
facet normal -2.49951331458428e-16 1.7624790515924357e-16 -1.0
  outer loop
    vertex -0.3207790871748084 7.236578455006789 -5.831160035928549e-16
    vertex -0.3207790871748084 10.763421544993212 3.848270284260564e-17
    vertex 0.0 11.000000000000002 0.0
  endloop
endfacet
facet normal -2.49951331458428e-16 1.7624790515924357e-16 -1.0
  outer loop
    vertex -0.3207790871748084 7.236578455006789 -5.831160035928549e-16
    vertex 0.0 11.000000000000002 0.0
    vertex 0.0 7.0 -7.049916206369744e-16
  endloop
endfacet
facet normal -9.763233089852388e-16 -2.912875101773059e-17 1.0
  outer loop
    vertex -1.085347094699137 8.602856821344721 9.999999999999995
    vertex -1.0853470946991373 9.39714317865527 9.999999999999995
    vertex -1.1191979999999866 8.999999999999995 9.999999999999995
  endloop
endfacet
facet normal -9.763233089852388e-16 -2.912875101773059e-17 1.0
  outer loop
    vertex -1.0853470946991373 9.39714317865527 9.999999999999995
    vertex -1.085347094699137 8.602856821344721 9.999999999999995
    vertex -0.9847710149989783 9.78282833566063 9.999999999999995
  endloop
endfacet
facet normal -9.763233089852388e-16 -2.912875101773059e-17 1.0
  outer loop
    vertex -0.9847710149989783 9.78282833566063 9.999999999999995
    vertex -1.085347094699137 8.602856821344721 9.999999999999995
    vertex -0.9847710149989783 8.217171664339359 9.999999999999995
  endloop
endfacet
facet normal -9.763233089852388e-16 -2.912875101773059e-17 1.0
  outer loop
    vertex -0.9847710149989783 9.78282833566063 9.999999999999995
    vertex -0.9847710149989783 8.217171664339359 9.999999999999995
    vertex -0.8203714924678813 7.854071973987453 9.999999999999995
  endloop
endfacet
facet normal -9.763233089852388e-16 -2.912875101773059e-17 1.0
  outer loop
    vertex -0.9847710149989783 9.78282833566063 9.999999999999995
    vertex -0.8203714924678813 7.854071973987453 9.999999999999995
    vertex -0.8203714924678817 10.145928026012538 9.999999999999995
  endloop
endfacet
facet normal -9.763233089852388e-16 -2.912875101773059e-17 1.0
  outer loop
    vertex -0.8203714924678817 10.145928026012538 9.999999999999995
    vertex -0.8203714924678813 7.854071973987453 9.999999999999995
    vertex -0.5968916358626806 10.475966420496908 9.999999999999995
  endloop
endfacet
facet normal -9.763233089852388e-16 -2.912875101773059e-17 1.0
  outer loop
    vertex -0.5968916358626806 10.475966420496908 9.999999999999995
    vertex -0.8203714924678813 7.854071973987453 9.999999999999995
    vertex -0.5968916358626802 7.52403357950308 9.999999999999995
  endloop
endfacet
facet normal -9.763233089852388e-16 -2.912875101773059e-17 1.0
  outer loop
    vertex -0.5968916358626806 10.475966420496908 9.999999999999995
    vertex -0.5968916358626802 7.52403357950308 9.999999999999995
    vertex -0.32077908717479325 10.763421544993205 9.999999999999995
  endloop
endfacet
facet normal -9.763233089852388e-16 -2.912875101773059e-17 1.0
  outer loop
    vertex -0.32077908717479325 10.763421544993205 9.999999999999995
    vertex -0.5968916358626802 7.52403357950308 9.999999999999995
    vertex -0.32077908717479325 7.236578455006784 9.999999999999995
  endloop
endfacet
facet normal -9.763233089852388e-16 -2.912875101773059e-17 1.0
  outer loop
    vertex -0.32077908717479325 10.763421544993205 9.999999999999995
    vertex -0.32077908717479325 7.236578455006784 9.999999999999995
    vertex 1.0159188004351985e-14 7.0 10.000000000000005
  endloop
endfacet
facet normal -9.763233089852388e-16 -2.912875101773059e-17 1.0
  outer loop
    vertex -0.32077908717479325 10.763421544993205 9.999999999999995
    vertex 1.0159188004351985e-14 7.0 10.000000000000005
    vertex 0.0 11.000000000000002 10.0
  endloop
endfacet
facet normal -9.763233089852388e-16 -2.912875101773059e-17 1.0
  outer loop
    vertex 0.0 11.000000000000002 10.0
    vertex 1.0159188004351985e-14 7.0 10.000000000000005
    vertex 1.8258909736086488 11.816163067342856 10.000000000000005
  endloop
endfacet
facet normal -9.763233089852388e-16 -2.912875101773059e-17 1.0
  outer loop
    vertex 1.8258909736086488 11.816163067342856 10.000000000000005
    vertex 1.0159188004351985e-14 7.0 10.000000000000005
    vertex 6.863646278336803 3.931988448021965 10.000000000000005
  endloop
endfacet
facet normal -9.763233089852388e-16 -2.912875101773059e-17 1.0
  outer loop
    vertex 1.8258909736086488 11.816163067342856 10.000000000000005
    vertex 6.863646278336803 3.931988448021965 10.000000000000005
    vertex 6.789890147009147 14.035042973213034 10.000000000000005
  endloop
endfacet
facet normal -9.763233089852388e-16 -2.912875101773059e-17 1.0
  outer loop
    vertex 6.789890147009147 14.035042973213034 10.000000000000005
    vertex 6.863646278336803 3.931988448021965 10.000000000000005
    vertex 7.0766704843176305 14.134772973289001 10.000000000000005
  endloop
endfacet
facet normal -9.763233089852388e-16 -2.912875101773059e-17 1.0
  outer loop
    vertex 7.0766704843176305 14.134772973289001 10.000000000000005
    vertex 6.863646278336803 3.931988448021965 10.000000000000005
    vertex 7.149194119246478 3.8333023163565594 10.000000000000005
  endloop
endfacet
facet normal -9.763233089852388e-16 -2.912875101773059e-17 1.0
  outer loop
    vertex 7.0766704843176305 14.134772973289001 10.000000000000005
    vertex 7.149194119246478 3.8333023163565594 10.000000000000005
    vertex 7.376256398692269 14.184142140693682 10.000000000000005
  endloop
endfacet
facet normal -9.763233089852388e-16 -2.912875101773059e-17 1.0
  outer loop
    vertex 7.376256398692269 14.184142140693682 10.000000000000005
    vertex 7.149194119246478 3.8333023163565594 10.000000000000005
    vertex 7.378976446696952 9.000000000000005 10.000000000000005
  endloop
endfacet
facet normal -9.763233089852388e-16 -2.912875101773059e-17 1.0
  outer loop
    vertex 7.378976446696952 9.000000000000005 10.000000000000005
    vertex 7.149194119246478 3.8333023163565594 10.000000000000005
    vertex 7.447572157980685 3.7858990671811363 10.000000000000005
  endloop
endfacet
facet normal -9.763233089852388e-16 -2.912875101773059e-17 1.0
  outer loop
    vertex 7.378976446696952 9.000000000000005 10.000000000000005
    vertex 7.447572157980685 3.7858990671811363 10.000000000000005
    vertex 9.284232335022704 5.7000000000000055 10.0
  endloop
endfacet
facet normal -9.763233089852388e-16 -2.912875101773059e-17 1.0
  outer loop
    vertex 9.284232335022704 5.7000000000000055 10.0
    vertex 7.447572157980685 3.7858990671811363 10.000000000000005
    vertex 7.749645167466554 3.791230011882573 10.000000000000005
  endloop
endfacet
facet normal -9.763233089852388e-16 -2.912875101773059e-17 1.0
  outer loop
    vertex 9.284232335022704 5.7000000000000055 10.0
    vertex 7.749645167466554 3.791230011882573 10.000000000000005
    vertex 8.046164794353597 3.8491319367385493 10.000000000000005
  endloop
endfacet
facet normal -9.763233089852388e-16 -2.912875101773059e-17 1.0
  outer loop
    vertex 9.284232335022704 5.7000000000000055 10.0
    vertex 8.046164794353597 3.8491319367385493 10.000000000000005
    vertex 8.328052709235717 3.957832099915385 10.000000000000005
  endloop
endfacet
facet normal -9.763233089852388e-16 -2.912875101773059e-17 1.0
  outer loop
    vertex 9.284232335022704 5.7000000000000055 10.0
    vertex 8.328052709235717 3.957832099915385 10.000000000000005
    vertex 8.58667855137165 4.114002506237259 10.000000000000005
  endloop
endfacet
facet normal -9.763233089852388e-16 -2.912875101773059e-17 1.0
  outer loop
    vertex 9.284232335022704 5.7000000000000055 10.0
    vertex 8.58667855137165 4.114002506237259 10.000000000000005
    vertex 8.814124158269118 4.312861798035006 10.000000000000005
  endloop
endfacet
facet normal -9.763233089852388e-16 -2.912875101773059e-17 1.0
  outer loop
    vertex 9.284232335022704 5.7000000000000055 10.0
    vertex 8.814124158269118 4.312861798035006 10.000000000000005
    vertex 9.00342599040441 4.548321642555216 10.000000000000005
  endloop
endfacet
facet normal -9.763233089852388e-16 -2.912875101773059e-17 1.0
  outer loop
    vertex 9.284232335022704 5.7000000000000055 10.0
    vertex 9.00342599040441 4.548321642555216 10.000000000000005
    vertex 9.148788328933053 4.813173134091026 10.000000000000005
  endloop
endfacet
facet normal -9.763233089852388e-16 -2.912875101773059e-17 1.0
  outer loop
    vertex 9.284232335022704 5.7000000000000055 10.0
    vertex 9.148788328933053 4.813173134091026 10.000000000000005
    vertex 9.24576071906979 5.099307503893796 10.000000000000005
  endloop
endfacet
facet normal -9.763233089852388e-16 -2.912875101773059e-17 1.0
  outer loop
    vertex 9.284232335022704 5.7000000000000055 10.0
    vertex 9.24576071906979 5.099307503893796 10.000000000000005
    vertex 9.284232335022704 5.351202464674867 10.000000000000004
  endloop
endfacet
facet normal -9.763233089852388e-16 -2.912875101773059e-17 1.0
  outer loop
    vertex 9.284232335022704 5.7000000000000055 10.0
    vertex 9.284232335022704 5.351202464674867 10.000000000000004
    vertex 9.291374226480654 5.3979643805481565 10.000000000000005
  endloop
endfacet
facet normal -9.763233089852388e-16 -2.912875101773059e-17 1.0
  outer loop
    vertex 7.378976446696952 9.000000000000005 10.000000000000005
    vertex 7.6798730855063 14.181704463522728 10.000000000000005
    vertex 7.376256398692269 14.184142140693682 10.000000000000005
  endloop
endfacet
facet normal -9.763233089852388e-16 -2.912875101773059e-17 1.0
  outer loop
    vertex 7.6798730855063 14.181704463522728 10.000000000000005
    vertex 7.378976446696952 9.000000000000005 10.000000000000005
    vertex 9.284232335022706 12.300000000000002 10.0
  endloop
endfacet
facet normal -9.763233089852388e-16 -2.912875101773059e-17 1.0
  outer loop
    vertex 7.6798730855063 14.181704463522728 10.000000000000005
    vertex 9.284232335022706 12.300000000000002 10.0
    vertex 7.978627679707044 14.12753134079689 10.000000000000005
  endloop
endfacet
facet normal -9.763233089852388e-16 -2.912875101773059e-17 1.0
  outer loop
    vertex 7.978627679707044 14.12753134079689 10.000000000000005
    vertex 9.284232335022706 12.300000000000002 10.0
    vertex 8.263769725850256 14.023209491200639 10.000000000000005
  endloop
endfacet
facet normal -9.763233089852388e-16 -2.912875101773059e-17 1.0
  outer loop
    vertex 8.263769725850256 14.023209491200639 10.000000000000005
    vertex 9.284232335022706 12.300000000000002 10.0
    vertex 8.526947476988802 13.871794478445706 10.000000000000005
  endloop
endfacet
facet normal -9.763233089852388e-16 -2.912875101773059e-17 1.0
  outer loop
    vertex 8.526947476988802 13.871794478445706 10.000000000000005
    vertex 9.284232335022706 12.300000000000002 10.0
    vertex 8.760452515478377 13.677721214491338 10.000000000000005
  endloop
endfacet
facet normal -9.763233089852388e-16 -2.912875101773059e-17 1.0
  outer loop
    vertex 8.760452515478377 13.677721214491338 10.000000000000005
    vertex 9.284232335022706 12.300000000000002 10.0
    vertex 8.957445530811384 13.44667406196197 10.000000000000005
  endloop
endfacet
facet normal -9.763233089852388e-16 -2.912875101773059e-17 1.0
  outer loop
    vertex 8.957445530811384 13.44667406196197 10.000000000000005
    vertex 9.284232335022706 12.300000000000002 10.0
    vertex 9.112156641496593 13.185420340433511 10.000000000000005
  endloop
endfacet
facet normal -9.763233089852388e-16 -2.912875101773059e-17 1.0
  outer loop
    vertex 9.112156641496593 13.185420340433511 10.000000000000005
    vertex 9.284232335022706 12.300000000000002 10.0
    vertex 9.22005439360138 12.901612113152037 10.000000000000005
  endloop
endfacet
facet normal -9.763233089852388e-16 -2.912875101773059e-17 1.0
  outer loop
    vertex 9.22005439360138 12.901612113152037 10.000000000000005
    vertex 9.284232335022706 12.300000000000002 10.0
    vertex 9.277978486026921 12.603562059807643 10.000000000000004
  endloop
endfacet
facet normal -0.5935484473627712 -0.8047982608289134 5.241409529579626e-16
  outer loop
    vertex 1.0159188004351985e-14 7.0 10.000000000000005
    vertex -0.3207790871748084 7.236578455006789 -5.831160035928549e-16
    vertex 0.0 7.0 -7.049916206369744e-16
  endloop
endfacet
facet normal -0.5935484473627712 -0.8047982608289134 5.241409529579626e-16
  outer loop
    vertex -0.3207790871748084 7.236578455006789 -5.831160035928549e-16
    vertex 1.0159188004351985e-14 7.0 10.000000000000005
    vertex -0.32077908717479325 7.236578455006784 9.999999999999995
  endloop
endfacet
facet normal -0.7211922270197999 -0.6927349938369085 5.816986588681122e-17
  outer loop
    vertex -0.5968916358626802 7.52403357950308 9.999999999999995
    vertex -0.3207790871748084 7.236578455006789 -5.831160035928549e-16
    vertex -0.32077908717479325 7.236578455006784 9.999999999999995
  endloop
endfacet
facet normal -0.7211922270197999 -0.6927349938369085 5.816986588681122e-17
  outer loop
    vertex -0.3207790871748084 7.236578455006789 -5.831160035928549e-16
    vertex -0.5968916358626802 7.52403357950308 9.999999999999995
    vertex -0.5968916358626952 7.524033579503086 -4.634379408961755e-16
  endloop
endfacet
facet normal -0.8280288101918652 -0.5606855531331658 1.0814724940062246e-16
  outer loop
    vertex -0.8203714924678813 7.854071973987453 9.999999999999995
    vertex -0.5968916358626952 7.524033579503086 -4.634379408961755e-16
    vertex -0.5968916358626802 7.52403357950308 9.999999999999995
  endloop
endfacet
facet normal -0.8280288101918652 -0.5606855531331658 1.0814724940062246e-16
  outer loop
    vertex -0.5968916358626952 7.524033579503086 -4.634379408961755e-16
    vertex -0.8203714924678813 7.854071973987453 9.999999999999995
    vertex -0.8203714924678949 7.854071973987458 -3.494102775335767e-16
  endloop
endfacet
facet normal -0.9109758428344311 -0.4124597116956974 1.5500446469397752e-16
  outer loop
    vertex -0.9847710149989783 8.217171664339359 9.999999999999995
    vertex -0.8203714924678949 7.854071973987458 -3.494102775335767e-16
    vertex -0.8203714924678813 7.854071973987453 9.999999999999995
  endloop
endfacet
facet normal -0.9109758428344311 -0.4124597116956974 1.5500446469397752e-16
  outer loop
    vertex -0.8203714924678949 7.854071973987458 -3.494102775335767e-16
    vertex -0.9847710149989783 8.217171664339359 9.999999999999995
    vertex -0.9847710149989919 8.217171664339364 -2.4432283819730583e-16
  endloop
endfacet
facet normal -0.9676402109601647 -0.25233394962423944 1.9738962908037705e-16
  outer loop
    vertex -1.085347094699137 8.602856821344721 9.999999999999995
    vertex -0.9847710149989919 8.217171664339364 -2.4432283819730583e-16
    vertex -0.9847710149989783 8.217171664339359 9.999999999999995
  endloop
endfacet
facet normal -0.9676402109601647 -0.25233394962423944 1.9738962908037705e-16
  outer loop
    vertex -0.9847710149989919 8.217171664339364 -2.4432283819730583e-16
    vertex -1.085347094699137 8.602856821344721 9.999999999999995
    vertex -1.0853470946991506 8.602856821344727 -1.5120751219017323e-16
  endloop
endfacet
facet normal -0.9963870846345244 -0.0849280729412448 2.340798835072749e-16
  outer loop
    vertex -1.1191979999999866 8.999999999999995 9.999999999999995
    vertex -1.0853470946991506 8.602856821344727 -1.5120751219017323e-16
    vertex -1.085347094699137 8.602856821344721 9.999999999999995
  endloop
endfacet
facet normal -0.9963870846345244 -0.0849280729412448 2.340798835072749e-16
  outer loop
    vertex -1.0853470946991506 8.602856821344727 -1.5120751219017323e-16
    vertex -1.1191979999999866 8.999999999999995 9.999999999999995
    vertex -1.1191980000000001 9.0 -7.275078005287728e-17
  endloop
endfacet
facet normal -0.9963870846345244 0.08492807294124391 2.640166733974864e-16
  outer loop
    vertex -1.0853470946991373 9.39714317865527 9.999999999999995
    vertex -1.1191980000000001 9.0 -7.275078005287728e-17
    vertex -1.1191979999999866 8.999999999999995 9.999999999999995
  endloop
endfacet
facet normal -0.9963870846345244 0.08492807294124391 2.640166733974864e-16
  outer loop
    vertex -1.1191980000000001 9.0 -7.275078005287728e-17
    vertex -1.0853470946991373 9.39714317865527 9.999999999999995
    vertex -1.0853470946991508 9.397143178655275 -1.121620561762241e-17
  endloop
endfacet
facet normal -0.9676402109601645 0.2523339496242403 2.863362891240377e-16
  outer loop
    vertex -0.9847710149989783 9.78282833566063 9.999999999999995
    vertex -1.0853470946991508 9.397143178655275 -1.121620561762241e-17
    vertex -1.0853470946991373 9.39714317865527 9.999999999999995
  endloop
endfacet
facet normal -0.9676402109601645 0.2523339496242403 2.863362891240377e-16
  outer loop
    vertex -1.0853470946991508 9.397143178655275 -1.121620561762241e-17
    vertex -0.9847710149989783 9.78282833566063 9.999999999999995
    vertex -0.9847710149989919 9.782828335660637 3.1620870321662657e-17
  endloop
endfacet
facet normal -0.9109758428344316 0.4124597116956967 3.0039478499188194e-16
  outer loop
    vertex -0.8203714924678817 10.145928026012538 9.999999999999995
    vertex -0.9847710149989919 9.782828335660637 3.1620870321662657e-17
    vertex -0.9847710149989783 9.78282833566063 9.999999999999995
  endloop
endfacet
facet normal -0.9109758428344316 0.4124597116956967 3.0039478499188194e-16
  outer loop
    vertex -0.9847710149989919 9.782828335660637 3.1620870321662657e-17
    vertex -0.8203714924678817 10.145928026012538 9.999999999999995
    vertex -0.8203714924678952 10.145928026012543 5.452455056237863e-17
  endloop
endfacet
facet normal -0.828028810191864 0.5606855531331674 3.057865577861669e-16
  outer loop
    vertex -0.5968916358626806 10.475966420496908 9.999999999999995
    vertex -0.8203714924678952 10.145928026012543 5.452455056237863e-17
    vertex -0.8203714924678817 10.145928026012538 9.999999999999995
  endloop
endfacet
facet normal -0.828028810191864 0.5606855531331674 3.057865577861669e-16
  outer loop
    vertex -0.8203714924678952 10.145928026012543 5.452455056237863e-17
    vertex -0.5968916358626806 10.475966420496908 9.999999999999995
    vertex -0.5968916358626956 10.475966420496913 5.683403849976096e-17
  endloop
endfacet
facet normal -0.7211922270198011 0.6927349938369072 3.0235604887532453e-16
  outer loop
    vertex -0.32077908717479325 10.763421544993205 9.999999999999995
    vertex -0.5968916358626956 10.475966420496913 5.683403849976096e-17
    vertex -0.5968916358626806 10.475966420496908 9.999999999999995
  endloop
endfacet
facet normal -0.7211922270198011 0.6927349938369072 3.0235604887532453e-16
  outer loop
    vertex -0.5968916358626956 10.475966420496913 5.683403849976096e-17
    vertex -0.32077908717479325 10.763421544993205 9.999999999999995
    vertex -0.3207790871748084 10.763421544993212 3.848270284260564e-17
  endloop
endfacet
facet normal -0.5935484473627866 0.804798260828902 6.76271371721647e-16
  outer loop
    vertex -0.3207790871748084 10.763421544993212 3.848270284260564e-17
    vertex 0.0 11.000000000000002 10.0
    vertex 0.0 11.000000000000002 0.0
  endloop
endfacet
facet normal -0.5935484473627866 0.804798260828902 6.76271371721647e-16
  outer loop
    vertex 0.0 11.000000000000002 10.0
    vertex -0.3207790871748084 10.763421544993212 3.848270284260564e-17
    vertex -0.32077908717479325 10.763421544993205 9.999999999999995
  endloop
endfacet
facet normal 0.7162944784422338 -0.6977981227784784 -1.2623459782045301e-15
  outer loop
    vertex 30.262365330658074 7.26931978110913 9.971975238469032e-16
    vertex 30.0 7.0 10.000000000000002
    vertex 30.0 7.0 1.4099832412739487e-15
  endloop
endfacet
facet normal 0.7162944784422338 -0.6977981227784784 -1.2623459782045301e-15
  outer loop
    vertex 30.0 7.0 10.000000000000002
    vertex 30.262365330658074 7.26931978110913 9.971975238469032e-16
    vertex 30.26236533065811 7.269319781109128 10.000000000000004
  endloop
endfacet
facet normal 0.7162944784422375 0.6977981227784746 -1.1627997530914172e-15
  outer loop
    vertex 30.262365330658074 10.730680218890871 9.971975238468983e-16
    vertex 30.0 11.000000000000002 10.0
    vertex 30.26236533065811 10.73068021889087 10.000000000000004
  endloop
endfacet
facet normal 0.7162944784422375 0.6977981227784746 -1.1627997530914172e-15
  outer loop
    vertex 30.0 11.000000000000002 10.0
    vertex 30.262365330658074 10.730680218890871 9.971975238468983e-16
    vertex 30.0 11.000000000000002 1.4099832412739487e-15
  endloop
endfacet
facet normal 0.806908284903253 0.5906767472607083 -1.2695283117101367e-15
  outer loop
    vertex 30.4844540624105 10.427290524839494 6.477799531680828e-16
    vertex 30.26236533065811 10.73068021889087 10.000000000000004
    vertex 30.484454062410535 10.427290524839494 10.000000000000004
  endloop
endfacet
facet normal 0.806908284903253 0.5906767472607083 -1.2695283117101367e-15
  outer loop
    vertex 30.26236533065811 10.73068021889087 10.000000000000004
    vertex 30.4844540624105 10.427290524839494 6.477799531680828e-16
    vertex 30.262365330658074 10.730680218890871 9.971975238468983e-16
  endloop
endfacet
facet normal 0.8816374150855445 0.4719273972988636 -1.387101458808591e-15
  outer loop
    vertex 30.66189418957208 10.095803402162199 3.6860911147561205e-16
    vertex 30.484454062410535 10.427290524839494 10.000000000000004
    vertex 30.661894189572113 10.095803402162199 10.000000000000004
  endloop
endfacet
facet normal 0.8816374150855445 0.4719273972988636 -1.387101458808591e-15
  outer loop
    vertex 30.484454062410535 10.427290524839494 10.000000000000004
    vertex 30.66189418957208 10.095803402162199 3.6860911147561205e-16
    vertex 30.4844540624105 10.427290524839494 6.477799531680828e-16
  endloop
endfacet
facet normal 0.9390107624659552 0.3438877549042791 -1.4773683332474186e-15
  outer loop
    vertex 30.79119265223557 9.742744456969122 1.651807143665433e-16
    vertex 30.661894189572113 10.095803402162199 10.000000000000004
    vertex 30.791192652235605 9.74274445696912 10.000000000000004
  endloop
endfacet
facet normal 0.9390107624659552 0.3438877549042791 -1.4773683332474186e-15
  outer loop
    vertex 30.661894189572113 10.095803402162199 10.000000000000004
    vertex 30.79119265223557 9.742744456969122 1.651807143665433e-16
    vertex 30.66189418957208 10.095803402162199 3.6860911147561205e-16
  endloop
endfacet
facet normal 0.9778988838757608 0.20907838940105997 -1.5385519547848884e-15
  outer loop
    vertex 30.869804100128622 9.375063955054555 4.149942295841543e-17
    vertex 30.791192652235605 9.74274445696912 10.000000000000004
    vertex 30.869804100128654 9.375063955054554 10.000000000000004
  endloop
endfacet
facet normal 0.9778988838757608 0.20907838940105997 -1.5385519547848884e-15
  outer loop
    vertex 30.791192652235605 9.74274445696912 10.000000000000004
    vertex 30.869804100128622 9.375063955054555 4.149942295841543e-17
    vertex 30.79119265223557 9.742744456969122 1.651807143665433e-16
  endloop
endfacet
facet normal 0.9975362335506706 0.0701531378738112 -1.569447871762911e-15
  outer loop
    vertex 30.896181 9.0 8.727129500832652e-24
    vertex 30.869804100128654 9.375063955054554 10.000000000000004
    vertex 30.896181000000034 8.999999999999998 10.000000000000004
  endloop
endfacet
facet normal 0.9975362335506706 0.0701531378738112 -1.569447871762911e-15
  outer loop
    vertex 30.869804100128654 9.375063955054554 10.000000000000004
    vertex 30.896181 9.0 8.727129500832652e-24
    vertex 30.869804100128622 9.375063955054555 4.149942295841543e-17
  endloop
endfacet
facet normal 0.9975362335506706 -0.07015313787381146 -1.569447871762911e-15
  outer loop
    vertex 30.869804100128622 8.624936044945446 4.149942295841668e-17
    vertex 30.896181000000034 8.999999999999998 10.000000000000004
    vertex 30.869804100128654 8.624936044945446 10.000000000000004
  endloop
endfacet
facet normal 0.9975362335506706 -0.07015313787381146 -1.569447871762911e-15
  outer loop
    vertex 30.896181000000034 8.999999999999998 10.000000000000004
    vertex 30.869804100128622 8.624936044945446 4.149942295841668e-17
    vertex 30.896181 9.0 8.727129500832652e-24
  endloop
endfacet
facet normal 0.9778988838757611 -0.20907838940105922 -1.5385519547848882e-15
  outer loop
    vertex 30.79119265223557 8.25725554303088 1.6518071436654457e-16
    vertex 30.869804100128654 8.624936044945446 10.000000000000004
    vertex 30.791192652235605 8.257255543030878 10.000000000000004
  endloop
endfacet
facet normal 0.9778988838757611 -0.20907838940105922 -1.5385519547848882e-15
  outer loop
    vertex 30.869804100128654 8.624936044945446 10.000000000000004
    vertex 30.79119265223557 8.25725554303088 1.6518071436654457e-16
    vertex 30.869804100128622 8.624936044945446 4.149942295841668e-17
  endloop
endfacet
facet normal 0.9390107624659547 -0.3438877549042803 -1.4773683332474176e-15
  outer loop
    vertex 30.66189418957208 7.904196597837803 3.6860911147561456e-16
    vertex 30.791192652235605 8.257255543030878 10.000000000000004
    vertex 30.661894189572113 7.904196597837801 10.000000000000004
  endloop
endfacet
facet normal 0.9390107624659547 -0.3438877549042803 -1.4773683332474176e-15
  outer loop
    vertex 30.791192652235605 8.257255543030878 10.000000000000004
    vertex 30.66189418957208 7.904196597837803 3.6860911147561456e-16
    vertex 30.79119265223557 8.25725554303088 1.6518071436654457e-16
  endloop
endfacet
facet normal 0.8816374150855453 -0.471927397298862 -1.3871014588085912e-15
  outer loop
    vertex 30.4844540624105 7.572709475160506 6.477799531680866e-16
    vertex 30.661894189572113 7.904196597837801 10.000000000000004
    vertex 30.484454062410535 7.572709475160505 10.000000000000004
  endloop
endfacet
facet normal 0.8816374150855453 -0.471927397298862 -1.3871014588085912e-15
  outer loop
    vertex 30.661894189572113 7.904196597837801 10.000000000000004
    vertex 30.4844540624105 7.572709475160506 6.477799531680866e-16
    vertex 30.66189418957208 7.904196597837803 3.6860911147561456e-16
  endloop
endfacet
facet normal 0.806908284903253 -0.5906767472607083 -1.269528311710136e-15
  outer loop
    vertex 30.262365330658074 7.26931978110913 9.971975238469032e-16
    vertex 30.484454062410535 7.572709475160505 10.000000000000004
    vertex 30.26236533065811 7.269319781109128 10.000000000000004
  endloop
endfacet
facet normal 0.806908284903253 -0.5906767472607083 -1.269528311710136e-15
  outer loop
    vertex 30.484454062410535 7.572709475160505 10.000000000000004
    vertex 30.262365330658074 7.26931978110913 9.971975238469032e-16
    vertex 30.4844540624105 7.572709475160506 6.477799531680866e-16
  endloop
endfacet
endsolid Барашек под гайку 8мм - попроще
