solid Клипса-Поворот-С-Фиксатором-1
facet normal 0.0995037190209989 -0.9950371902099893 4.117401832989255e-18
  outer loop
    vertex 20.0 -9.165188309831713 9.999999999999998
    vertex -1.5384116437208668e-16 -11.165188309831713 26.6
    vertex -1.5384116437208668e-16 -11.165188309831713 3.0
  endloop
endfacet
facet normal 0.0995037190209989 -0.9950371902099893 4.117401832989255e-18
  outer loop
    vertex -1.5384116437208668e-16 -11.165188309831713 26.6
    vertex 20.0 -9.165188309831713 9.999999999999998
    vertex 20.0 -9.165188309831713 19.60000000000001
  endloop
endfacet
facet normal 0.09950371902099897 0.9950371902099893 -2.0587009164946354e-18
  outer loop
    vertex 1.5638244056460355e-15 11.165188309831718 26.6
    vertex 20.0 9.165188309831716 9.999999999999998
    vertex 1.5638244056460355e-15 11.165188309831718 3.0
  endloop
endfacet
facet normal 0.09950371902099897 0.9950371902099893 -2.0587009164946354e-18
  outer loop
    vertex 20.0 9.165188309831716 9.999999999999998
    vertex 1.5638244056460355e-15 11.165188309831718 26.6
    vertex 20.0 9.165188309831716 19.60000000000001
  endloop
endfacet
facet normal -0.0 -0.7933533402912353 0.6087614290087205
  outer loop
    vertex 20.0 7.014805770653956 10.750000000000005
    vertex 0.0 5.72756492761104 9.072435072388972
    vertex 20.0 5.72756492761104 9.072435072388972
  endloop
endfacet
facet normal -0.0 -0.7933533402912353 0.6087614290087205
  outer loop
    vertex 0.0 5.72756492761104 9.072435072388972
    vertex 20.0 7.014805770653956 10.750000000000005
    vertex 0.0 7.014805770653956 10.750000000000005
  endloop
endfacet
facet normal -0.0 -0.9238795325112868 0.3826834323650896
  outer loop
    vertex 20.0 7.823999192941456 12.703565734669588
    vertex 0.0 7.014805770653956 10.750000000000005
    vertex 20.0 7.014805770653956 10.750000000000005
  endloop
endfacet
facet normal -0.0 -0.9238795325112868 0.3826834323650896
  outer loop
    vertex 0.0 7.014805770653956 10.750000000000005
    vertex 20.0 7.823999192941456 12.703565734669588
    vertex 0.0 7.823999192941456 12.703565734669588
  endloop
endfacet
facet normal -0.0 -0.9914448613738106 0.13052619222005138
  outer loop
    vertex 20.0 8.100000000000001 14.800000000000004
    vertex 0.0 7.823999192941456 12.703565734669588
    vertex 20.0 7.823999192941456 12.703565734669588
  endloop
endfacet
facet normal -0.0 -0.9914448613738106 0.13052619222005138
  outer loop
    vertex 0.0 7.823999192941456 12.703565734669588
    vertex 20.0 8.100000000000001 14.800000000000004
    vertex 0.0 8.100000000000001 14.800000000000004
  endloop
endfacet
facet normal -0.0 -0.9914448613738105 -0.13052619222005235
  outer loop
    vertex 20.0 7.823999192941454 16.896434265330424
    vertex 0.0 8.100000000000001 14.800000000000004
    vertex 20.0 8.100000000000001 14.800000000000004
  endloop
endfacet
facet normal -0.0 -0.9914448613738105 -0.13052619222005235
  outer loop
    vertex 0.0 8.100000000000001 14.800000000000004
    vertex 20.0 7.823999192941454 16.896434265330424
    vertex 0.0 7.823999192941454 16.896434265330424
  endloop
endfacet
facet normal -0.0 -0.9238795325112866 -0.38268343236509006
  outer loop
    vertex 20.0 7.014805770653953 18.850000000000005
    vertex 0.0 7.823999192941454 16.896434265330424
    vertex 20.0 7.823999192941454 16.896434265330424
  endloop
endfacet
facet normal -0.0 -0.9238795325112866 -0.38268343236509006
  outer loop
    vertex 0.0 7.823999192941454 16.896434265330424
    vertex 20.0 7.014805770653953 18.850000000000005
    vertex 0.0 7.014805770653953 18.850000000000005
  endloop
endfacet
facet normal -0.0 -0.7933533402912353 -0.6087614290087208
  outer loop
    vertex 20.0 5.727564927611036 20.52756492761104
    vertex 0.0 7.014805770653953 18.850000000000005
    vertex 20.0 7.014805770653953 18.850000000000005
  endloop
endfacet
facet normal -0.0 -0.7933533402912353 -0.6087614290087208
  outer loop
    vertex 0.0 7.014805770653953 18.850000000000005
    vertex 20.0 5.727564927611036 20.52756492761104
    vertex 0.0 5.727564927611036 20.52756492761104
  endloop
endfacet
facet normal -0.0 -0.6087614290087205 -0.7933533402912353
  outer loop
    vertex 20.0 5.727564927611036 20.52756492761104
    vertex 0.0 4.05 21.814805770653958
    vertex 0.0 5.727564927611036 20.52756492761104
  endloop
endfacet
facet normal -0.0 -0.6087614290087205 -0.7933533402912353
  outer loop
    vertex 0.0 4.05 21.814805770653958
    vertex 20.0 5.727564927611036 20.52756492761104
    vertex 20.0 4.05 21.814805770653958
  endloop
endfacet
facet normal -0.0 -0.3826834323650899 -0.9238795325112867
  outer loop
    vertex 20.0 4.05 21.814805770653958
    vertex 0.0 2.096434265330419 22.623999192941458
    vertex 0.0 4.05 21.814805770653958
  endloop
endfacet
facet normal -0.0 -0.3826834323650899 -0.9238795325112867
  outer loop
    vertex 0.0 2.096434265330419 22.623999192941458
    vertex 20.0 4.05 21.814805770653958
    vertex 20.0 2.096434265330419 22.623999192941458
  endloop
endfacet
facet normal -0.0 -0.13052619222005127 -0.9914448613738105
  outer loop
    vertex 20.0 2.096434265330419 22.623999192941458
    vertex 0.0 1.6189929082562452e-15 22.900000000000002
    vertex 0.0 2.096434265330419 22.623999192941458
  endloop
endfacet
facet normal -0.0 -0.13052619222005127 -0.9914448613738105
  outer loop
    vertex 0.0 1.6189929082562452e-15 22.900000000000002
    vertex 20.0 2.096434265330419 22.623999192941458
    vertex 20.0 1.6189929082562452e-15 22.900000000000002
  endloop
endfacet
facet normal -0.0 0.13052619222005246 -0.9914448613738103
  outer loop
    vertex 20.0 1.6189929082562452e-15 22.900000000000002
    vertex 0.0 -2.0964342653304175 22.623999192941454
    vertex 0.0 1.6189929082562452e-15 22.900000000000002
  endloop
endfacet
facet normal -0.0 0.13052619222005246 -0.9914448613738103
  outer loop
    vertex 0.0 -2.0964342653304175 22.623999192941454
    vertex 20.0 1.6189929082562452e-15 22.900000000000002
    vertex 20.0 -2.0964342653304175 22.623999192941454
  endloop
endfacet
facet normal -0.0 0.3826834323650899 -0.9238795325112867
  outer loop
    vertex 20.0 -2.0964342653304175 22.623999192941454
    vertex 0.0 -4.049999999999998 21.814805770653955
    vertex 0.0 -2.0964342653304175 22.623999192941454
  endloop
endfacet
facet normal -0.0 0.3826834323650899 -0.9238795325112867
  outer loop
    vertex 0.0 -4.049999999999998 21.814805770653955
    vertex 20.0 -2.0964342653304175 22.623999192941454
    vertex 20.0 -4.049999999999998 21.814805770653955
  endloop
endfacet
facet normal -0.0 0.6087614290087202 -0.7933533402912356
  outer loop
    vertex 20.0 -4.049999999999998 21.814805770653955
    vertex 0.0 -5.7275649276110325 20.52756492761104
    vertex 0.0 -4.049999999999998 21.814805770653955
  endloop
endfacet
facet normal -0.0 0.6087614290087202 -0.7933533402912356
  outer loop
    vertex 0.0 -5.7275649276110325 20.52756492761104
    vertex 20.0 -4.049999999999998 21.814805770653955
    vertex 20.0 -5.7275649276110325 20.52756492761104
  endloop
endfacet
facet normal -0.0 0.7933533402912354 -0.6087614290087203
  outer loop
    vertex 0.0 -5.7275649276110325 20.52756492761104
    vertex 20.0 -7.01480577065395 18.85
    vertex 0.0 -7.01480577065395 18.85
  endloop
endfacet
facet normal -0.0 0.7933533402912354 -0.6087614290087203
  outer loop
    vertex 20.0 -7.01480577065395 18.85
    vertex 0.0 -5.7275649276110325 20.52756492761104
    vertex 20.0 -5.7275649276110325 20.52756492761104
  endloop
endfacet
facet normal -0.0 0.9238795325112866 -0.38268343236509006
  outer loop
    vertex 0.0 -7.01480577065395 18.85
    vertex 20.0 -7.82399919294145 16.896434265330424
    vertex 0.0 -7.82399919294145 16.896434265330424
  endloop
endfacet
facet normal -0.0 0.9238795325112866 -0.38268343236509006
  outer loop
    vertex 20.0 -7.82399919294145 16.896434265330424
    vertex 0.0 -7.01480577065395 18.85
    vertex 20.0 -7.01480577065395 18.85
  endloop
endfacet
facet normal -0.0 0.9914448613738106 -0.1305261922200512
  outer loop
    vertex 0.0 -7.82399919294145 16.896434265330424
    vertex 20.0 -8.099999999999996 14.800000000000004
    vertex 0.0 -8.099999999999996 14.800000000000004
  endloop
endfacet
facet normal -0.0 0.9914448613738106 -0.1305261922200512
  outer loop
    vertex 20.0 -8.099999999999996 14.800000000000004
    vertex 0.0 -7.82399919294145 16.896434265330424
    vertex 20.0 -7.82399919294145 16.896434265330424
  endloop
endfacet
facet normal 0.0 0.9914448613738105 0.13052619222005218
  outer loop
    vertex 0.0 -8.099999999999996 14.800000000000004
    vertex 20.0 -7.823999192941447 12.70356573466958
    vertex 0.0 -7.823999192941447 12.70356573466958
  endloop
endfacet
facet normal 0.0 0.9914448613738105 0.13052619222005218
  outer loop
    vertex 20.0 -7.823999192941447 12.70356573466958
    vertex 0.0 -8.099999999999996 14.800000000000004
    vertex 20.0 -8.099999999999996 14.800000000000004
  endloop
endfacet
facet normal 0.0 0.9238795325112866 0.38268343236509006
  outer loop
    vertex 0.0 -7.823999192941447 12.70356573466958
    vertex 20.0 -7.014805770653948 10.75
    vertex 0.0 -7.014805770653948 10.75
  endloop
endfacet
facet normal 0.0 0.9238795325112866 0.38268343236509006
  outer loop
    vertex 20.0 -7.014805770653948 10.75
    vertex 0.0 -7.823999192941447 12.70356573466958
    vertex 20.0 -7.823999192941447 12.70356573466958
  endloop
endfacet
facet normal 0.0 0.793353340291235 0.6087614290087209
  outer loop
    vertex 0.0 -7.014805770653948 10.75
    vertex 20.0 -5.727564927611031 9.072435072388968
    vertex 0.0 -5.727564927611031 9.072435072388968
  endloop
endfacet
facet normal 0.0 0.793353340291235 0.6087614290087209
  outer loop
    vertex 20.0 -5.727564927611031 9.072435072388968
    vertex 0.0 -7.014805770653948 10.75
    vertex 20.0 -7.014805770653948 10.75
  endloop
endfacet
facet normal 0.0 0.6087614290087203 0.7933533402912355
  outer loop
    vertex 20.0 -5.727564927611031 9.072435072388968
    vertex 0.0 -4.049999999999992 7.785194229346048
    vertex 0.0 -5.727564927611031 9.072435072388968
  endloop
endfacet
facet normal 0.0 0.6087614290087203 0.7933533402912355
  outer loop
    vertex 0.0 -4.049999999999992 7.785194229346048
    vertex 20.0 -5.727564927611031 9.072435072388968
    vertex 20.0 -4.049999999999992 7.785194229346048
  endloop
endfacet
facet normal 0.0 0.38268343236508895 0.9238795325112873
  outer loop
    vertex 20.0 -4.049999999999992 7.785194229346048
    vertex 0.0 -2.0964342653304118 6.976000807058551
    vertex 0.0 -4.049999999999992 7.785194229346048
  endloop
endfacet
facet normal 0.0 0.38268343236508895 0.9238795325112873
  outer loop
    vertex 0.0 -2.0964342653304118 6.976000807058551
    vertex 20.0 -4.049999999999992 7.785194229346048
    vertex 20.0 -2.0964342653304118 6.976000807058551
  endloop
endfacet
facet normal 0.0 0.1305261922200514 0.9914448613738106
  outer loop
    vertex 20.0 -2.0964342653304118 6.976000807058551
    vertex 0.0 3.6029207228749575e-15 6.700000000000005
    vertex 0.0 -2.0964342653304118 6.976000807058551
  endloop
endfacet
facet normal 0.0 0.1305261922200514 0.9914448613738106
  outer loop
    vertex 0.0 3.6029207228749575e-15 6.700000000000005
    vertex 20.0 -2.0964342653304118 6.976000807058551
    vertex 20.0 3.6029207228749575e-15 6.700000000000005
  endloop
endfacet
facet normal -0.0 -0.13052619222005224 0.9914448613738104
  outer loop
    vertex 20.0 3.6029207228749575e-15 6.700000000000005
    vertex 0.0 2.0964342653304264 6.976000807058553
    vertex 0.0 3.6029207228749575e-15 6.700000000000005
  endloop
endfacet
facet normal -0.0 -0.13052619222005224 0.9914448613738104
  outer loop
    vertex 0.0 2.0964342653304264 6.976000807058553
    vertex 20.0 3.6029207228749575e-15 6.700000000000005
    vertex 20.0 2.0964342653304264 6.976000807058553
  endloop
endfacet
facet normal -0.0 -0.3826834323650903 0.9238795325112867
  outer loop
    vertex 20.0 2.0964342653304264 6.976000807058553
    vertex 0.0 4.050000000000005 7.785194229346053
    vertex 0.0 2.0964342653304264 6.976000807058553
  endloop
endfacet
facet normal -0.0 -0.3826834323650903 0.9238795325112867
  outer loop
    vertex 0.0 4.050000000000005 7.785194229346053
    vertex 20.0 2.0964342653304264 6.976000807058553
    vertex 20.0 4.050000000000005 7.785194229346053
  endloop
endfacet
facet normal -0.0 -0.608761429008721 0.793353340291235
  outer loop
    vertex 20.0 4.050000000000005 7.785194229346053
    vertex 0.0 5.72756492761104 9.072435072388972
    vertex 0.0 4.050000000000005 7.785194229346053
  endloop
endfacet
facet normal -0.0 -0.608761429008721 0.793353340291235
  outer loop
    vertex 0.0 5.72756492761104 9.072435072388972
    vertex 20.0 4.050000000000005 7.785194229346053
    vertex 20.0 5.72756492761104 9.072435072388972
  endloop
endfacet
facet normal 1.0 -0.0 -0.0
  outer loop
    vertex 20.0 -9.165188309831713 9.999999999999998
    vertex 20.0 -7.823999192941447 12.70356573466958
    vertex 20.0 -9.165188309831713 19.60000000000001
  endloop
endfacet
facet normal 1.0 -0.0 -0.0
  outer loop
    vertex 20.0 -7.823999192941447 12.70356573466958
    vertex 20.0 -9.165188309831713 9.999999999999998
    vertex 20.0 -7.014805770653948 10.75
  endloop
endfacet
facet normal 1.0 -0.0 -0.0
  outer loop
    vertex 20.0 -7.014805770653948 10.75
    vertex 20.0 -9.165188309831713 9.999999999999998
    vertex 20.0 -4.165188309831718 5.0
  endloop
endfacet
facet normal 1.0 -0.0 -0.0
  outer loop
    vertex 20.0 -9.165188309831713 19.60000000000001
    vertex 20.0 -7.823999192941447 12.70356573466958
    vertex 20.0 -8.099999999999996 14.800000000000004
  endloop
endfacet
facet normal 1.0 -0.0 -0.0
  outer loop
    vertex 20.0 -7.014805770653948 10.75
    vertex 20.0 -4.165188309831718 5.0
    vertex 20.0 -5.727564927611031 9.072435072388968
  endloop
endfacet
facet normal 1.0 -0.0 -0.0
  outer loop
    vertex 20.0 -5.727564927611031 9.072435072388968
    vertex 20.0 -4.165188309831718 5.0
    vertex 20.0 -4.049999999999992 7.785194229346048
  endloop
endfacet
facet normal 1.0 -0.0 -0.0
  outer loop
    vertex 20.0 -4.049999999999992 7.785194229346048
    vertex 20.0 -4.165188309831718 5.0
    vertex 20.0 -2.0964342653304118 6.976000807058551
  endloop
endfacet
facet normal 1.0 -0.0 -0.0
  outer loop
    vertex 20.0 -2.0964342653304118 6.976000807058551
    vertex 20.0 -4.165188309831718 5.0
    vertex 20.0 4.165188309831718 5.0
  endloop
endfacet
facet normal 1.0 -0.0 -0.0
  outer loop
    vertex 20.0 -2.0964342653304118 6.976000807058551
    vertex 20.0 4.165188309831718 5.0
    vertex 20.0 3.6029207228749575e-15 6.700000000000005
  endloop
endfacet
facet normal 1.0 -0.0 -0.0
  outer loop
    vertex 20.0 3.6029207228749575e-15 6.700000000000005
    vertex 20.0 4.165188309831718 5.0
    vertex 20.0 2.0964342653304264 6.976000807058553
  endloop
endfacet
facet normal 1.0 -0.0 -0.0
  outer loop
    vertex 20.0 2.0964342653304264 6.976000807058553
    vertex 20.0 4.165188309831718 5.0
    vertex 20.0 4.050000000000005 7.785194229346053
  endloop
endfacet
facet normal 1.0 -0.0 -0.0
  outer loop
    vertex 20.0 4.050000000000005 7.785194229346053
    vertex 20.0 4.165188309831718 5.0
    vertex 20.0 5.72756492761104 9.072435072388972
  endloop
endfacet
facet normal 1.0 -0.0 -0.0
  outer loop
    vertex 20.0 5.72756492761104 9.072435072388972
    vertex 20.0 4.165188309831718 5.0
    vertex 20.0 9.165188309831716 9.999999999999998
  endloop
endfacet
facet normal 1.0 -0.0 -0.0
  outer loop
    vertex 20.0 5.72756492761104 9.072435072388972
    vertex 20.0 9.165188309831716 9.999999999999998
    vertex 20.0 7.014805770653956 10.750000000000005
  endloop
endfacet
facet normal 1.0 -0.0 -0.0
  outer loop
    vertex 20.0 7.014805770653956 10.750000000000005
    vertex 20.0 9.165188309831716 9.999999999999998
    vertex 20.0 7.823999192941456 12.703565734669588
  endloop
endfacet
facet normal 1.0 -0.0 -0.0
  outer loop
    vertex 20.0 7.823999192941456 12.703565734669588
    vertex 20.0 9.165188309831716 9.999999999999998
    vertex 20.0 8.100000000000001 14.800000000000004
  endloop
endfacet
facet normal 1.0 -0.0 -0.0
  outer loop
    vertex 20.0 -9.165188309831713 19.60000000000001
    vertex 20.0 -7.01480577065395 18.85
    vertex 20.0 -4.165188309831713 24.60000000000001
  endloop
endfacet
facet normal 1.0 -0.0 -0.0
  outer loop
    vertex 20.0 -7.01480577065395 18.85
    vertex 20.0 -9.165188309831713 19.60000000000001
    vertex 20.0 -7.82399919294145 16.896434265330424
  endloop
endfacet
facet normal 1.0 -0.0 -0.0
  outer loop
    vertex 20.0 -7.82399919294145 16.896434265330424
    vertex 20.0 -9.165188309831713 19.60000000000001
    vertex 20.0 -8.099999999999996 14.800000000000004
  endloop
endfacet
facet normal 1.0 -0.0 -0.0
  outer loop
    vertex 20.0 -4.165188309831713 24.60000000000001
    vertex 20.0 -7.01480577065395 18.85
    vertex 20.0 -5.7275649276110325 20.52756492761104
  endloop
endfacet
facet normal 1.0 -0.0 -0.0
  outer loop
    vertex 20.0 -4.165188309831713 24.60000000000001
    vertex 20.0 -5.7275649276110325 20.52756492761104
    vertex 20.0 -4.049999999999998 21.814805770653955
  endloop
endfacet
facet normal 1.0 -0.0 -0.0
  outer loop
    vertex 20.0 -4.165188309831713 24.60000000000001
    vertex 20.0 -4.049999999999998 21.814805770653955
    vertex 20.0 -2.0964342653304175 22.623999192941454
  endloop
endfacet
facet normal 1.0 -0.0 -0.0
  outer loop
    vertex 20.0 -4.165188309831713 24.60000000000001
    vertex 20.0 -2.0964342653304175 22.623999192941454
    vertex 20.0 4.165188309831717 24.60000000000001
  endloop
endfacet
facet normal 1.0 -0.0 -0.0
  outer loop
    vertex 20.0 4.165188309831717 24.60000000000001
    vertex 20.0 -2.0964342653304175 22.623999192941454
    vertex 20.0 1.6189929082562452e-15 22.900000000000002
  endloop
endfacet
facet normal 1.0 -0.0 -0.0
  outer loop
    vertex 20.0 4.165188309831717 24.60000000000001
    vertex 20.0 1.6189929082562452e-15 22.900000000000002
    vertex 20.0 2.096434265330419 22.623999192941458
  endloop
endfacet
facet normal 1.0 -0.0 -0.0
  outer loop
    vertex 20.0 4.165188309831717 24.60000000000001
    vertex 20.0 2.096434265330419 22.623999192941458
    vertex 20.0 4.05 21.814805770653958
  endloop
endfacet
facet normal 1.0 -0.0 -0.0
  outer loop
    vertex 20.0 4.165188309831717 24.60000000000001
    vertex 20.0 4.05 21.814805770653958
    vertex 20.0 5.727564927611036 20.52756492761104
  endloop
endfacet
facet normal 1.0 -0.0 -0.0
  outer loop
    vertex 20.0 4.165188309831717 24.60000000000001
    vertex 20.0 5.727564927611036 20.52756492761104
    vertex 20.0 9.165188309831716 19.60000000000001
  endloop
endfacet
facet normal 1.0 -0.0 -0.0
  outer loop
    vertex 20.0 9.165188309831716 19.60000000000001
    vertex 20.0 5.727564927611036 20.52756492761104
    vertex 20.0 7.014805770653953 18.850000000000005
  endloop
endfacet
facet normal 1.0 -0.0 -0.0
  outer loop
    vertex 20.0 9.165188309831716 19.60000000000001
    vertex 20.0 7.014805770653953 18.850000000000005
    vertex 20.0 7.823999192941454 16.896434265330424
  endloop
endfacet
facet normal 1.0 -0.0 -0.0
  outer loop
    vertex 20.0 9.165188309831716 19.60000000000001
    vertex 20.0 7.823999192941454 16.896434265330424
    vertex 20.0 8.100000000000001 14.800000000000004
  endloop
endfacet
facet normal 1.0 -0.0 -0.0
  outer loop
    vertex 20.0 9.165188309831716 19.60000000000001
    vertex 20.0 8.100000000000001 14.800000000000004
    vertex 20.0 9.165188309831716 9.999999999999998
  endloop
endfacet
facet normal -1.0 7.692058218604339e-17 0.0
  outer loop
    vertex -1.5384116437208668e-16 -11.165188309831713 26.6
    vertex 0.0 -7.82399919294145 16.896434265330424
    vertex -1.5384116437208668e-16 -11.165188309831713 3.0
  endloop
endfacet
facet normal -1.0 7.692058218604339e-17 0.0
  outer loop
    vertex 0.0 -7.82399919294145 16.896434265330424
    vertex -1.5384116437208668e-16 -11.165188309831713 26.6
    vertex 0.0 -7.01480577065395 18.85
  endloop
endfacet
facet normal -1.0 7.692058218604339e-17 0.0
  outer loop
    vertex 0.0 -7.01480577065395 18.85
    vertex -1.5384116437208668e-16 -11.165188309831713 26.6
    vertex 0.0 -5.7275649276110325 20.52756492761104
  endloop
endfacet
facet normal -1.0 7.692058218604339e-17 0.0
  outer loop
    vertex 0.0 -5.7275649276110325 20.52756492761104
    vertex -1.5384116437208668e-16 -11.165188309831713 26.6
    vertex 0.0 -4.049999999999998 21.814805770653955
  endloop
endfacet
facet normal -1.0 7.692058218604339e-17 0.0
  outer loop
    vertex 0.0 -4.049999999999998 21.814805770653955
    vertex -1.5384116437208668e-16 -11.165188309831713 26.6
    vertex 0.0 -2.0964342653304175 22.623999192941454
  endloop
endfacet
facet normal -1.0 7.692058218604339e-17 0.0
  outer loop
    vertex 0.0 -2.0964342653304175 22.623999192941454
    vertex -1.5384116437208668e-16 -11.165188309831713 26.6
    vertex 1.5638244056460355e-15 11.165188309831718 26.6
  endloop
endfacet
facet normal -1.0 7.692058218604339e-17 0.0
  outer loop
    vertex -1.5384116437208668e-16 -11.165188309831713 3.0
    vertex 0.0 -7.82399919294145 16.896434265330424
    vertex 0.0 -8.099999999999996 14.800000000000004
  endloop
endfacet
facet normal -1.0 7.692058218604339e-17 0.0
  outer loop
    vertex 0.0 -2.0964342653304175 22.623999192941454
    vertex 1.5638244056460355e-15 11.165188309831718 26.6
    vertex 0.0 1.6189929082562452e-15 22.900000000000002
  endloop
endfacet
facet normal -1.0 7.692058218604339e-17 0.0
  outer loop
    vertex 0.0 1.6189929082562452e-15 22.900000000000002
    vertex 1.5638244056460355e-15 11.165188309831718 26.6
    vertex 0.0 2.096434265330419 22.623999192941458
  endloop
endfacet
facet normal -1.0 7.692058218604339e-17 0.0
  outer loop
    vertex 0.0 2.096434265330419 22.623999192941458
    vertex 1.5638244056460355e-15 11.165188309831718 26.6
    vertex 0.0 4.05 21.814805770653958
  endloop
endfacet
facet normal -1.0 7.692058218604339e-17 0.0
  outer loop
    vertex 0.0 4.05 21.814805770653958
    vertex 1.5638244056460355e-15 11.165188309831718 26.6
    vertex 0.0 5.727564927611036 20.52756492761104
  endloop
endfacet
facet normal -1.0 7.692058218604339e-17 0.0
  outer loop
    vertex 0.0 5.727564927611036 20.52756492761104
    vertex 1.5638244056460355e-15 11.165188309831718 26.6
    vertex 0.0 7.014805770653953 18.850000000000005
  endloop
endfacet
facet normal -1.0 7.692058218604339e-17 0.0
  outer loop
    vertex 0.0 7.014805770653953 18.850000000000005
    vertex 1.5638244056460355e-15 11.165188309831718 26.6
    vertex 0.0 7.823999192941454 16.896434265330424
  endloop
endfacet
facet normal -1.0 7.692058218604339e-17 0.0
  outer loop
    vertex 0.0 7.823999192941454 16.896434265330424
    vertex 1.5638244056460355e-15 11.165188309831718 26.6
    vertex 0.0 8.100000000000001 14.800000000000004
  endloop
endfacet
facet normal -1.0 7.692058218604339e-17 0.0
  outer loop
    vertex -1.5384116437208668e-16 -11.165188309831713 3.0
    vertex 0.0 -2.0964342653304118 6.976000807058551
    vertex 1.5638244056460355e-15 11.165188309831718 3.0
  endloop
endfacet
facet normal -1.0 7.692058218604339e-17 0.0
  outer loop
    vertex 0.0 -2.0964342653304118 6.976000807058551
    vertex -1.5384116437208668e-16 -11.165188309831713 3.0
    vertex 0.0 -4.049999999999992 7.785194229346048
  endloop
endfacet
facet normal -1.0 7.692058218604339e-17 0.0
  outer loop
    vertex 0.0 -4.049999999999992 7.785194229346048
    vertex -1.5384116437208668e-16 -11.165188309831713 3.0
    vertex 0.0 -5.727564927611031 9.072435072388968
  endloop
endfacet
facet normal -1.0 7.692058218604339e-17 0.0
  outer loop
    vertex 0.0 -5.727564927611031 9.072435072388968
    vertex -1.5384116437208668e-16 -11.165188309831713 3.0
    vertex 0.0 -7.014805770653948 10.75
  endloop
endfacet
facet normal -1.0 7.692058218604339e-17 0.0
  outer loop
    vertex 0.0 -7.014805770653948 10.75
    vertex -1.5384116437208668e-16 -11.165188309831713 3.0
    vertex 0.0 -7.823999192941447 12.70356573466958
  endloop
endfacet
facet normal -1.0 7.692058218604339e-17 0.0
  outer loop
    vertex 0.0 -7.823999192941447 12.70356573466958
    vertex -1.5384116437208668e-16 -11.165188309831713 3.0
    vertex 0.0 -8.099999999999996 14.800000000000004
  endloop
endfacet
facet normal -1.0 7.692058218604339e-17 0.0
  outer loop
    vertex 1.5638244056460355e-15 11.165188309831718 3.0
    vertex 0.0 -2.0964342653304118 6.976000807058551
    vertex 0.0 3.6029207228749575e-15 6.700000000000005
  endloop
endfacet
facet normal -1.0 7.692058218604339e-17 0.0
  outer loop
    vertex 1.5638244056460355e-15 11.165188309831718 3.0
    vertex 0.0 3.6029207228749575e-15 6.700000000000005
    vertex 0.0 2.0964342653304264 6.976000807058553
  endloop
endfacet
facet normal -1.0 7.692058218604339e-17 0.0
  outer loop
    vertex 1.5638244056460355e-15 11.165188309831718 3.0
    vertex 0.0 2.0964342653304264 6.976000807058553
    vertex 0.0 4.050000000000005 7.785194229346053
  endloop
endfacet
facet normal -1.0 7.692058218604339e-17 0.0
  outer loop
    vertex 1.5638244056460355e-15 11.165188309831718 3.0
    vertex 0.0 4.050000000000005 7.785194229346053
    vertex 0.0 5.72756492761104 9.072435072388972
  endloop
endfacet
facet normal -1.0 7.692058218604339e-17 0.0
  outer loop
    vertex 1.5638244056460355e-15 11.165188309831718 3.0
    vertex 0.0 5.72756492761104 9.072435072388972
    vertex 0.0 7.014805770653956 10.750000000000005
  endloop
endfacet
facet normal -1.0 7.692058218604339e-17 0.0
  outer loop
    vertex 1.5638244056460355e-15 11.165188309831718 3.0
    vertex 0.0 7.014805770653956 10.750000000000005
    vertex 0.0 7.823999192941456 12.703565734669588
  endloop
endfacet
facet normal -1.0 7.692058218604339e-17 0.0
  outer loop
    vertex 1.5638244056460355e-15 11.165188309831718 3.0
    vertex 0.0 7.823999192941456 12.703565734669588
    vertex 0.0 8.100000000000001 14.800000000000004
  endloop
endfacet
facet normal -1.0 7.692058218604339e-17 0.0
  outer loop
    vertex 1.5638244056460355e-15 11.165188309831718 3.0
    vertex 0.0 8.100000000000001 14.800000000000004
    vertex 1.5638244056460355e-15 11.165188309831718 26.6
  endloop
endfacet
facet normal 0.18077122895225134 0.24428805298006312 0.952704104092295
  outer loop
    vertex 20.0 4.165188309831717 24.60000000000001
    vertex 1.5638244056460355e-15 11.165188309831718 26.6
    vertex 4.081698472904855 8.144763691605505 26.599999999999998
  endloop
endfacet
facet normal 0.3032177042381439 0.6738171205292091 0.6738171205292093
  outer loop
    vertex 20.0 9.165188309831716 19.60000000000001
    vertex 1.5638244056460355e-15 11.165188309831718 26.6
    vertex 20.0 4.165188309831717 24.60000000000001
  endloop
endfacet
facet normal 0.18077122895225156 -0.24428805298006406 0.9527041040922948
  outer loop
    vertex 20.0 -4.165188309831713 24.60000000000001
    vertex 4.0816984729048835 -8.144763691605492 26.599999999999998
    vertex -1.5384116437208668e-16 -11.165188309831713 26.6
  endloop
endfacet
facet normal 0.3032177042381438 -0.673817120529209 0.6738171205292093
  outer loop
    vertex 20.0 -4.165188309831713 24.60000000000001
    vertex -1.5384116437208668e-16 -11.165188309831713 26.6
    vertex 20.0 -9.165188309831713 19.60000000000001
  endloop
endfacet
facet normal 0.18077122895225312 -0.24428805298006773 -0.9527041040922936
  outer loop
    vertex 1.6076898725599962 -9.975510507370885 3.0
    vertex 20.0 -4.165188309831718 5.0
    vertex -1.5384116437208668e-16 -11.165188309831713 3.0
  endloop
endfacet
facet normal 0.18077122895225312 -0.24428805298006773 -0.9527041040922936
  outer loop
    vertex 20.0 -4.165188309831718 5.0
    vertex 1.6076898725599962 -9.975510507370885 3.0
    vertex 4.081698472904877 -8.144763691605494 3.0
  endloop
endfacet
facet normal 0.303217704238144 -0.6738171205292095 -0.6738171205292088
  outer loop
    vertex 20.0 -9.165188309831713 9.999999999999998
    vertex -1.5384116437208668e-16 -11.165188309831713 3.0
    vertex 20.0 -4.165188309831718 5.0
  endloop
endfacet
facet normal 0.30321770423814415 0.6738171205292092 -0.6738171205292092
  outer loop
    vertex 20.0 9.165188309831716 9.999999999999998
    vertex 20.0 4.165188309831718 5.0
    vertex 1.5638244056460355e-15 11.165188309831718 3.0
  endloop
endfacet
facet normal 0.18077122895225278 0.2442880529800664 -0.952704104092294
  outer loop
    vertex 20.0 4.165188309831718 5.0
    vertex 4.081698472904856 8.144763691605503 3.0
    vertex 1.5638244056460355e-15 11.165188309831718 3.0
  endloop
endfacet
facet normal 0.18077122895225278 0.2442880529800664 -0.952704104092294
  outer loop
    vertex 20.0 4.165188309831718 5.0
    vertex 4.081698472904856 8.144763691605503 3.0
    vertex 1.5638244056460355e-15 11.165188309831718 3.0
  endloop
endfacet
facet normal 1.3817612943569446e-15 7.969271259460503e-31 1.0
  outer loop
    vertex 4.0816984729048835 -8.144763691605492 26.599999999999998
    vertex 1.5638244056460355e-15 11.165188309831718 26.6
    vertex -1.5384116437208668e-16 -11.165188309831713 26.6
  endloop
endfacet
facet normal 1.3817612943569446e-15 7.969271259460503e-31 1.0
  outer loop
    vertex 1.5638244056460355e-15 11.165188309831718 26.6
    vertex 4.0816984729048835 -8.144763691605492 26.599999999999998
    vertex 4.081698472904855 8.144763691605505 26.599999999999998
  endloop
endfacet
facet normal 0.0 0.0 -1.0
  outer loop
    vertex 1.5638244056460355e-15 11.165188309831718 3.0
    vertex 1.6076898725599962 -9.975510507370885 3.0
    vertex -1.5384116437208668e-16 -11.165188309831713 3.0
  endloop
endfacet
facet normal 0.0 0.0 -1.0
  outer loop
    vertex 1.6076898725599962 -9.975510507370885 3.0
    vertex 1.5638244056460355e-15 11.165188309831718 3.0
    vertex 4.081698472904856 8.144763691605503 3.0
  endloop
endfacet
facet normal 0.0 0.0 -1.0
  outer loop
    vertex 1.6076898725599962 -9.975510507370885 3.0
    vertex 4.081698472904856 8.144763691605503 3.0
    vertex 4.081698472904877 -8.144763691605494 3.0
  endloop
endfacet
facet normal 0.1246614575836389 1.269084541688213e-16 -0.9921993353117723
  outer loop
    vertex 20.0 4.165188309831718 5.0
    vertex 4.081698472904877 -8.144763691605494 3.0
    vertex 4.081698472904856 8.144763691605503 3.0
  endloop
endfacet
facet normal 0.1246614575836389 1.269084541688213e-16 -0.9921993353117723
  outer loop
    vertex 4.081698472904877 -8.144763691605494 3.0
    vertex 20.0 4.165188309831718 5.0
    vertex 20.0 -4.165188309831718 5.0
  endloop
endfacet
facet normal 0.09950371902099892 -4.705097649184578e-18 -0.9950371902099893
  outer loop
    vertex 1.5638244056460355e-15 11.165188309831718 3.0
    vertex 20.0 -4.165188309831718 5.0
    vertex -1.5384116437208668e-16 -11.165188309831713 3.0
  endloop
endfacet
facet normal 0.09950371902099892 -4.705097649184578e-18 -0.9950371902099893
  outer loop
    vertex 20.0 -4.165188309831718 5.0
    vertex 1.5638244056460355e-15 11.165188309831718 3.0
    vertex 20.0 4.165188309831718 5.0
  endloop
endfacet
facet normal 0.12466145758363818 1.7362298068506742e-16 0.9921993353117725
  outer loop
    vertex 4.0816984729048835 -8.144763691605492 26.599999999999998
    vertex 20.0 4.165188309831717 24.60000000000001
    vertex 4.081698472904855 8.144763691605505 26.599999999999998
  endloop
endfacet
facet normal 0.12466145758363818 1.7362298068506742e-16 0.9921993353117725
  outer loop
    vertex 20.0 4.165188309831717 24.60000000000001
    vertex 4.0816984729048835 -8.144763691605492 26.599999999999998
    vertex 20.0 -4.165188309831713 24.60000000000001
  endloop
endfacet
facet normal 0.09950371902099861 -6.273463532246081e-18 0.9950371902099893
  outer loop
    vertex 20.0 -4.165188309831713 24.60000000000001
    vertex 1.5638244056460355e-15 11.165188309831718 26.6
    vertex -1.5384116437208668e-16 -11.165188309831713 26.6
  endloop
endfacet
facet normal 0.09950371902099861 -6.273463532246081e-18 0.9950371902099893
  outer loop
    vertex 1.5638244056460355e-15 11.165188309831718 26.6
    vertex 20.0 -4.165188309831713 24.60000000000001
    vertex 20.0 4.165188309831717 24.60000000000001
  endloop
endfacet
endsolid Клипса-Поворот-С-Фиксатором-1
