solid Клипса-Уголок-20х10-Соединит
facet normal 0.0 0.0 -1.0
  outer loop
    vertex -3.0 12.999999999999998 0.0
    vertex 0.0 10.0 0.0
    vertex -3.0 -6.1000000000000005 0.0
  endloop
endfacet
facet normal 0.0 0.0 -1.0
  outer loop
    vertex 0.0 10.0 0.0
    vertex -3.0 12.999999999999998 0.0
    vertex 23.0 12.999999999999998 0.0
  endloop
endfacet
facet normal 0.0 0.0 -1.0
  outer loop
    vertex 0.0 10.0 0.0
    vertex 23.0 12.999999999999998 0.0
    vertex 2.9999999999999996 10.0 3.641577375945009e-34
  endloop
endfacet
facet normal 0.0 0.0 -1.0
  outer loop
    vertex 2.9999999999999996 10.0 3.641577375945009e-34
    vertex 23.0 12.999999999999998 0.0
    vertex 14.0 4.999999999999999 0.0
  endloop
endfacet
facet normal 0.0 0.0 -1.0
  outer loop
    vertex 14.0 4.999999999999999 0.0
    vertex 23.0 12.999999999999998 0.0
    vertex 14.0 3.0 0.0
  endloop
endfacet
facet normal 0.0 0.0 -1.0
  outer loop
    vertex 14.0 3.0 0.0
    vertex 23.0 12.999999999999998 0.0
    vertex 20.0 3.0 0.0
  endloop
endfacet
facet normal 0.0 0.0 -1.0
  outer loop
    vertex 20.0 3.0 0.0
    vertex 23.0 12.999999999999998 0.0
    vertex 20.0 0.0 0.0
  endloop
endfacet
facet normal 0.0 0.0 -1.0
  outer loop
    vertex 20.0 0.0 0.0
    vertex 23.0 12.999999999999998 0.0
    vertex 22.999999999999996 -6.1000000000000005 0.0
  endloop
endfacet
facet normal 0.0 0.0 -1.0
  outer loop
    vertex -3.0 -6.1000000000000005 0.0
    vertex 0.0 0.0 0.0
    vertex 22.999999999999996 -6.1000000000000005 0.0
  endloop
endfacet
facet normal 0.0 0.0 -1.0
  outer loop
    vertex 0.0 0.0 0.0
    vertex -3.0 -6.1000000000000005 0.0
    vertex 0.0 10.0 0.0
  endloop
endfacet
facet normal 0.0 0.0 -1.0
  outer loop
    vertex 22.999999999999996 -6.1000000000000005 0.0
    vertex 0.0 0.0 0.0
    vertex 20.0 0.0 0.0
  endloop
endfacet
facet normal 0.0 0.0 -1.0
  outer loop
    vertex 14.0 4.999999999999999 0.0
    vertex 2.999999999999999 5.000000000000001 3.641577375945009e-34
    vertex 2.9999999999999996 10.0 3.641577375945009e-34
  endloop
endfacet
facet normal -0.0 1.0 -0.0
  outer loop
    vertex -3.0 12.999999999999998 0.0
    vertex 6.939339828220178 12.999999999999998 18.939339828220177
    vertex 23.0 12.999999999999998 0.0
  endloop
endfacet
facet normal -0.0 1.0 -0.0
  outer loop
    vertex 6.939339828220178 12.999999999999998 18.939339828220177
    vertex -3.0 12.999999999999998 0.0
    vertex 6.700961894323341 12.999999999999998 19.25
  endloop
endfacet
facet normal -0.0 1.0 -0.0
  outer loop
    vertex 6.700961894323341 12.999999999999998 19.25
    vertex -3.0 12.999999999999998 0.0
    vertex -3.0 12.999999999999998 40.0
  endloop
endfacet
facet normal -0.0 1.0 -0.0
  outer loop
    vertex 23.0 12.999999999999998 0.0
    vertex 6.939339828220178 12.999999999999998 18.939339828220177
    vertex 7.249999999999999 12.999999999999998 18.700961894323342
  endloop
endfacet
facet normal -0.0 1.0 -0.0
  outer loop
    vertex 23.0 12.999999999999998 0.0
    vertex 7.249999999999999 12.999999999999998 18.700961894323342
    vertex 7.611771432346217 12.999999999999998 18.551111260566397
  endloop
endfacet
facet normal -0.0 1.0 -0.0
  outer loop
    vertex 23.0 12.999999999999998 0.0
    vertex 7.611771432346217 12.999999999999998 18.551111260566397
    vertex 7.999999999999999 12.999999999999998 18.5
  endloop
endfacet
facet normal -0.0 1.0 -0.0
  outer loop
    vertex 6.700961894323341 12.999999999999998 19.25
    vertex -3.0 12.999999999999998 40.0
    vertex 6.551111260566397 12.999999999999998 19.61177143234622
  endloop
endfacet
facet normal -0.0 1.0 -0.0
  outer loop
    vertex 6.551111260566397 12.999999999999998 19.61177143234622
    vertex -3.0 12.999999999999998 40.0
    vertex 6.499999999999999 12.999999999999998 20.0
  endloop
endfacet
facet normal -0.0 1.0 -0.0
  outer loop
    vertex 6.499999999999999 12.999999999999998 20.0
    vertex -3.0 12.999999999999998 40.0
    vertex 6.551111260566397 12.999999999999998 20.38822856765378
  endloop
endfacet
facet normal -0.0 1.0 -0.0
  outer loop
    vertex 6.551111260566397 12.999999999999998 20.38822856765378
    vertex -3.0 12.999999999999998 40.0
    vertex 6.700961894323342 12.999999999999998 20.75
  endloop
endfacet
facet normal -0.0 1.0 -0.0
  outer loop
    vertex 6.700961894323342 12.999999999999998 20.75
    vertex -3.0 12.999999999999998 40.0
    vertex 6.939339828220178 12.999999999999998 21.060660171779823
  endloop
endfacet
facet normal -0.0 1.0 -0.0
  outer loop
    vertex 6.939339828220178 12.999999999999998 21.060660171779823
    vertex -3.0 12.999999999999998 40.0
    vertex 7.249999999999999 12.999999999999998 21.299038105676658
  endloop
endfacet
facet normal -0.0 1.0 -0.0
  outer loop
    vertex 7.249999999999999 12.999999999999998 21.299038105676658
    vertex -3.0 12.999999999999998 40.0
    vertex 7.6117714323462184 12.999999999999998 21.448888739433603
  endloop
endfacet
facet normal -0.0 1.0 -0.0
  outer loop
    vertex 7.6117714323462184 12.999999999999998 21.448888739433603
    vertex -3.0 12.999999999999998 40.0
    vertex 7.999999999999999 12.999999999999998 21.5
  endloop
endfacet
facet normal -0.0 1.0 -0.0
  outer loop
    vertex 23.0 12.999999999999998 0.0
    vertex 9.299038105676656 12.999999999999998 19.25
    vertex 23.0 12.999999999999998 40.0
  endloop
endfacet
facet normal -0.0 1.0 -0.0
  outer loop
    vertex 9.299038105676656 12.999999999999998 19.25
    vertex 23.0 12.999999999999998 0.0
    vertex 9.060660171779821 12.999999999999998 18.939339828220177
  endloop
endfacet
facet normal -0.0 1.0 -0.0
  outer loop
    vertex 9.060660171779821 12.999999999999998 18.939339828220177
    vertex 23.0 12.999999999999998 0.0
    vertex 8.749999999999998 12.999999999999998 18.700961894323342
  endloop
endfacet
facet normal -0.0 1.0 -0.0
  outer loop
    vertex 8.749999999999998 12.999999999999998 18.700961894323342
    vertex 23.0 12.999999999999998 0.0
    vertex 8.38822856765378 12.999999999999998 18.551111260566397
  endloop
endfacet
facet normal -0.0 1.0 -0.0
  outer loop
    vertex 8.38822856765378 12.999999999999998 18.551111260566397
    vertex 23.0 12.999999999999998 0.0
    vertex 7.999999999999999 12.999999999999998 18.5
  endloop
endfacet
facet normal -0.0 1.0 -0.0
  outer loop
    vertex 23.0 12.999999999999998 40.0
    vertex 9.299038105676656 12.999999999999998 19.25
    vertex 9.448888739433603 12.999999999999998 19.61177143234622
  endloop
endfacet
facet normal -0.0 1.0 -0.0
  outer loop
    vertex 23.0 12.999999999999998 40.0
    vertex 9.448888739433603 12.999999999999998 19.61177143234622
    vertex 9.5 12.999999999999998 20.0
  endloop
endfacet
facet normal -0.0 1.0 -0.0
  outer loop
    vertex 23.0 12.999999999999998 40.0
    vertex 9.5 12.999999999999998 20.0
    vertex 9.448888739433603 12.999999999999998 20.38822856765378
  endloop
endfacet
facet normal -0.0 1.0 -0.0
  outer loop
    vertex 23.0 12.999999999999998 40.0
    vertex 9.448888739433603 12.999999999999998 20.38822856765378
    vertex 9.299038105676656 12.999999999999998 20.75
  endloop
endfacet
facet normal -0.0 1.0 -0.0
  outer loop
    vertex 23.0 12.999999999999998 40.0
    vertex 9.299038105676656 12.999999999999998 20.75
    vertex 9.060660171779821 12.999999999999998 21.060660171779823
  endloop
endfacet
facet normal -0.0 1.0 -0.0
  outer loop
    vertex 23.0 12.999999999999998 40.0
    vertex 9.060660171779821 12.999999999999998 21.060660171779823
    vertex 8.75 12.999999999999998 21.299038105676658
  endloop
endfacet
facet normal -0.0 1.0 -0.0
  outer loop
    vertex 23.0 12.999999999999998 40.0
    vertex 8.75 12.999999999999998 21.299038105676658
    vertex 8.388228567653782 12.999999999999998 21.448888739433603
  endloop
endfacet
facet normal -0.0 1.0 -0.0
  outer loop
    vertex 23.0 12.999999999999998 40.0
    vertex 8.388228567653782 12.999999999999998 21.448888739433603
    vertex 7.999999999999999 12.999999999999998 21.5
  endloop
endfacet
facet normal -0.0 1.0 -0.0
  outer loop
    vertex 23.0 12.999999999999998 40.0
    vertex 7.999999999999999 12.999999999999998 21.5
    vertex -3.0 12.999999999999998 40.0
  endloop
endfacet
facet normal 1.0 -1.830635787218724e-16 -2.3621106931854657e-19
  outer loop
    vertex 22.999999999999996 -6.1000000000000005 0.0
    vertex 22.999999999999996 -3.0 10.0
    vertex 22.999999999999996 -6.1000000000000005 15.0
  endloop
endfacet
facet normal 1.0 -1.830635787218724e-16 -2.3621106931854657e-19
  outer loop
    vertex 22.999999999999996 -3.0 10.0
    vertex 22.999999999999996 -6.1000000000000005 0.0
    vertex 23.0 12.999999999999998 0.0
  endloop
endfacet
facet normal 1.0 -1.830635787218724e-16 -2.3621106931854657e-19
  outer loop
    vertex 22.999999999999996 -3.0 10.0
    vertex 23.0 12.999999999999998 0.0
    vertex 22.999999999999996 0.0 10.0
  endloop
endfacet
facet normal 1.0 -1.830635787218724e-16 -2.3621106931854657e-19
  outer loop
    vertex 22.999999999999996 0.0 10.0
    vertex 23.0 12.999999999999998 0.0
    vertex 22.999999999999996 2.8199664825478975e-15 30.3
  endloop
endfacet
facet normal 1.0 -1.830635787218724e-16 -2.3621106931854657e-19
  outer loop
    vertex 22.999999999999996 2.8199664825478975e-15 30.3
    vertex 22.999999999999996 -3.0 40.0
    vertex 22.999999999999996 -3.0 30.3
  endloop
endfacet
facet normal 1.0 -1.830635787218724e-16 -2.3621106931854657e-19
  outer loop
    vertex 22.999999999999996 -3.0 40.0
    vertex 22.999999999999996 2.8199664825478975e-15 30.3
    vertex 23.0 12.999999999999998 40.0
  endloop
endfacet
facet normal 1.0 -1.830635787218724e-16 -2.3621106931854657e-19
  outer loop
    vertex 23.0 12.999999999999998 40.0
    vertex 22.999999999999996 2.8199664825478975e-15 30.3
    vertex 23.0 12.999999999999998 0.0
  endloop
endfacet
facet normal 1.0 -1.830635787218724e-16 -2.3621106931854657e-19
  outer loop
    vertex 22.999999999999996 -3.0 15.0
    vertex 22.999999999999996 -6.1000000000000005 15.0
    vertex 22.999999999999996 -3.0 10.0
  endloop
endfacet
facet normal -1.0 -2.043453972860795e-17 7.373344486160201e-34
  outer loop
    vertex -3.0 12.999999999999998 40.0
    vertex -3.0 -3.0 30.3
    vertex -3.0 -3.0 40.0
  endloop
endfacet
facet normal -1.0 -2.043453972860795e-17 7.373344486160201e-34
  outer loop
    vertex -3.0 -3.0 30.3
    vertex -3.0 12.999999999999998 40.0
    vertex -2.9999999999999987 2.8199664825478975e-15 30.3
  endloop
endfacet
facet normal -1.0 -2.043453972860795e-17 7.373344486160201e-34
  outer loop
    vertex -3.0 -3.0 15.0
    vertex -3.0 -6.1000000000000005 0.0
    vertex -3.0 -6.1000000000000005 15.0
  endloop
endfacet
facet normal -1.0 -2.043453972860795e-17 7.373344486160201e-34
  outer loop
    vertex -3.0 -6.1000000000000005 0.0
    vertex -3.0 -3.0 15.0
    vertex -3.0 -3.0 10.0
  endloop
endfacet
facet normal -1.0 -2.043453972860795e-17 7.373344486160201e-34
  outer loop
    vertex -3.0 -6.1000000000000005 0.0
    vertex -3.0 -3.0 10.0
    vertex -3.0 12.999999999999998 0.0
  endloop
endfacet
facet normal -1.0 -2.043453972860795e-17 7.373344486160201e-34
  outer loop
    vertex -3.0 12.999999999999998 0.0
    vertex -3.0 -3.0 10.0
    vertex -2.9999999999999987 0.0 10.0
  endloop
endfacet
facet normal -1.0 -2.043453972860795e-17 7.373344486160201e-34
  outer loop
    vertex -3.0 12.999999999999998 0.0
    vertex -2.9999999999999987 0.0 10.0
    vertex -2.9999999999999987 2.8199664825478975e-15 30.3
  endloop
endfacet
facet normal -1.0 -2.043453972860795e-17 7.373344486160201e-34
  outer loop
    vertex -3.0 12.999999999999998 0.0
    vertex -2.9999999999999987 2.8199664825478975e-15 30.3
    vertex -3.0 12.999999999999998 40.0
  endloop
endfacet
facet normal -1.0 0.0 0.0
  outer loop
    vertex 14.0 4.999999999999999 40.0
    vertex 14.0 3.0 0.0
    vertex 14.0 3.0 40.0
  endloop
endfacet
facet normal -1.0 0.0 0.0
  outer loop
    vertex 14.0 3.0 0.0
    vertex 14.0 4.999999999999999 40.0
    vertex 14.0 4.999999999999999 0.0
  endloop
endfacet
facet normal -1.174986034394957e-16 -1.0 -6.958616027413436e-34
  outer loop
    vertex 14.0 4.999999999999999 0.0
    vertex 9.448888739433603 4.999999999999968 19.61177143234622
    vertex 2.999999999999999 5.000000000000001 3.641577375945009e-34
  endloop
endfacet
facet normal -1.174986034394957e-16 -1.0 -6.958616027413436e-34
  outer loop
    vertex 9.448888739433603 4.999999999999968 19.61177143234622
    vertex 14.0 4.999999999999999 0.0
    vertex 14.0 4.999999999999999 40.0
  endloop
endfacet
facet normal -1.174986034394957e-16 -1.0 -6.958616027413436e-34
  outer loop
    vertex 2.999999999999999 5.000000000000001 3.641577375945009e-34
    vertex 9.448888739433603 4.999999999999968 19.61177143234622
    vertex 9.299038105676656 4.999999999999968 19.25
  endloop
endfacet
facet normal -1.174986034394957e-16 -1.0 -6.958616027413436e-34
  outer loop
    vertex 2.999999999999999 5.000000000000001 3.641577375945009e-34
    vertex 9.299038105676656 4.999999999999968 19.25
    vertex 9.060660171779821 4.999999999999968 18.939339828220177
  endloop
endfacet
facet normal -1.174986034394957e-16 -1.0 -6.958616027413436e-34
  outer loop
    vertex 2.999999999999999 5.000000000000001 3.641577375945009e-34
    vertex 9.060660171779821 4.999999999999968 18.939339828220177
    vertex 8.749999999999998 4.999999999999968 18.700961894323342
  endloop
endfacet
facet normal -1.174986034394957e-16 -1.0 -6.958616027413436e-34
  outer loop
    vertex 2.999999999999999 5.000000000000001 3.641577375945009e-34
    vertex 8.749999999999998 4.999999999999968 18.700961894323342
    vertex 8.38822856765378 4.999999999999968 18.551111260566397
  endloop
endfacet
facet normal -1.174986034394957e-16 -1.0 -6.958616027413436e-34
  outer loop
    vertex 2.999999999999999 5.000000000000001 3.641577375945009e-34
    vertex 8.38822856765378 4.999999999999968 18.551111260566397
    vertex 7.999999999999999 4.999999999999968 18.5
  endloop
endfacet
facet normal -1.174986034394957e-16 -1.0 -6.958616027413436e-34
  outer loop
    vertex 9.448888739433603 4.999999999999968 19.61177143234622
    vertex 14.0 4.999999999999999 40.0
    vertex 9.5 4.999999999999968 20.0
  endloop
endfacet
facet normal -1.174986034394957e-16 -1.0 -6.958616027413436e-34
  outer loop
    vertex 9.5 4.999999999999968 20.0
    vertex 14.0 4.999999999999999 40.0
    vertex 9.448888739433603 4.999999999999968 20.38822856765378
  endloop
endfacet
facet normal -1.174986034394957e-16 -1.0 -6.958616027413436e-34
  outer loop
    vertex 9.448888739433603 4.999999999999968 20.38822856765378
    vertex 14.0 4.999999999999999 40.0
    vertex 9.299038105676656 4.999999999999968 20.75
  endloop
endfacet
facet normal -1.174986034394957e-16 -1.0 -6.958616027413436e-34
  outer loop
    vertex 9.299038105676656 4.999999999999968 20.75
    vertex 14.0 4.999999999999999 40.0
    vertex 9.060660171779821 4.999999999999968 21.060660171779823
  endloop
endfacet
facet normal -1.174986034394957e-16 -1.0 -6.958616027413436e-34
  outer loop
    vertex 9.060660171779821 4.999999999999968 21.060660171779823
    vertex 14.0 4.999999999999999 40.0
    vertex 8.75 4.999999999999968 21.299038105676658
  endloop
endfacet
facet normal -1.174986034394957e-16 -1.0 -6.958616027413436e-34
  outer loop
    vertex 8.75 4.999999999999968 21.299038105676658
    vertex 14.0 4.999999999999999 40.0
    vertex 8.388228567653782 4.999999999999968 21.448888739433603
  endloop
endfacet
facet normal -1.174986034394957e-16 -1.0 -6.958616027413436e-34
  outer loop
    vertex 8.388228567653782 4.999999999999968 21.448888739433603
    vertex 14.0 4.999999999999999 40.0
    vertex 7.999999999999999 4.999999999999968 21.5
  endloop
endfacet
facet normal -1.174986034394957e-16 -1.0 -6.958616027413436e-34
  outer loop
    vertex 2.999999999999999 5.000000000000001 3.641577375945009e-34
    vertex 6.551111260566397 4.999999999999968 19.61177143234622
    vertex 2.999999999999999 5.000000000000001 40.0
  endloop
endfacet
facet normal -1.174986034394957e-16 -1.0 -6.958616027413436e-34
  outer loop
    vertex 6.551111260566397 4.999999999999968 19.61177143234622
    vertex 2.999999999999999 5.000000000000001 3.641577375945009e-34
    vertex 6.700961894323341 4.999999999999968 19.25
  endloop
endfacet
facet normal -1.174986034394957e-16 -1.0 -6.958616027413436e-34
  outer loop
    vertex 6.700961894323341 4.999999999999968 19.25
    vertex 2.999999999999999 5.000000000000001 3.641577375945009e-34
    vertex 6.939339828220178 4.999999999999968 18.939339828220177
  endloop
endfacet
facet normal -1.174986034394957e-16 -1.0 -6.958616027413436e-34
  outer loop
    vertex 6.939339828220178 4.999999999999968 18.939339828220177
    vertex 2.999999999999999 5.000000000000001 3.641577375945009e-34
    vertex 7.249999999999999 4.999999999999968 18.700961894323342
  endloop
endfacet
facet normal -1.174986034394957e-16 -1.0 -6.958616027413436e-34
  outer loop
    vertex 7.249999999999999 4.999999999999968 18.700961894323342
    vertex 2.999999999999999 5.000000000000001 3.641577375945009e-34
    vertex 7.611771432346217 4.999999999999968 18.551111260566397
  endloop
endfacet
facet normal -1.174986034394957e-16 -1.0 -6.958616027413436e-34
  outer loop
    vertex 7.611771432346217 4.999999999999968 18.551111260566397
    vertex 2.999999999999999 5.000000000000001 3.641577375945009e-34
    vertex 7.999999999999999 4.999999999999968 18.5
  endloop
endfacet
facet normal -1.174986034394957e-16 -1.0 -6.958616027413436e-34
  outer loop
    vertex 2.999999999999999 5.000000000000001 40.0
    vertex 6.551111260566397 4.999999999999968 19.61177143234622
    vertex 6.499999999999999 4.999999999999968 20.0
  endloop
endfacet
facet normal -1.174986034394957e-16 -1.0 -6.958616027413436e-34
  outer loop
    vertex 2.999999999999999 5.000000000000001 40.0
    vertex 6.499999999999999 4.999999999999968 20.0
    vertex 6.551111260566397 4.999999999999968 20.38822856765378
  endloop
endfacet
facet normal -1.174986034394957e-16 -1.0 -6.958616027413436e-34
  outer loop
    vertex 2.999999999999999 5.000000000000001 40.0
    vertex 6.551111260566397 4.999999999999968 20.38822856765378
    vertex 6.700961894323342 4.999999999999968 20.75
  endloop
endfacet
facet normal -1.174986034394957e-16 -1.0 -6.958616027413436e-34
  outer loop
    vertex 2.999999999999999 5.000000000000001 40.0
    vertex 6.700961894323342 4.999999999999968 20.75
    vertex 6.939339828220178 4.999999999999968 21.060660171779823
  endloop
endfacet
facet normal -1.174986034394957e-16 -1.0 -6.958616027413436e-34
  outer loop
    vertex 2.999999999999999 5.000000000000001 40.0
    vertex 6.939339828220178 4.999999999999968 21.060660171779823
    vertex 7.249999999999999 4.999999999999968 21.299038105676658
  endloop
endfacet
facet normal -1.174986034394957e-16 -1.0 -6.958616027413436e-34
  outer loop
    vertex 2.999999999999999 5.000000000000001 40.0
    vertex 7.249999999999999 4.999999999999968 21.299038105676658
    vertex 7.6117714323462184 4.999999999999968 21.448888739433603
  endloop
endfacet
facet normal -1.174986034394957e-16 -1.0 -6.958616027413436e-34
  outer loop
    vertex 2.999999999999999 5.000000000000001 40.0
    vertex 7.6117714323462184 4.999999999999968 21.448888739433603
    vertex 7.999999999999999 4.999999999999968 21.5
  endloop
endfacet
facet normal -1.174986034394957e-16 -1.0 -6.958616027413436e-34
  outer loop
    vertex 2.999999999999999 5.000000000000001 40.0
    vertex 7.999999999999999 4.999999999999968 21.5
    vertex 14.0 4.999999999999999 40.0
  endloop
endfacet
facet normal -1.0 7.049916206369745e-17 -3.641577375945009e-34
  outer loop
    vertex 2.9999999999999996 10.0 40.0
    vertex 2.999999999999999 5.000000000000001 3.641577375945009e-34
    vertex 2.999999999999999 5.000000000000001 40.0
  endloop
endfacet
facet normal -1.0 7.049916206369745e-17 -3.641577375945009e-34
  outer loop
    vertex 2.999999999999999 5.000000000000001 3.641577375945009e-34
    vertex 2.9999999999999996 10.0 40.0
    vertex 2.9999999999999996 10.0 3.641577375945009e-34
  endloop
endfacet
facet normal 0.0 -1.0 0.0
  outer loop
    vertex 2.9999999999999996 10.0 3.641577375945009e-34
    vertex 0.0 10.0 40.0
    vertex 0.0 10.0 0.0
  endloop
endfacet
facet normal 0.0 -1.0 0.0
  outer loop
    vertex 0.0 10.0 40.0
    vertex 2.9999999999999996 10.0 3.641577375945009e-34
    vertex 2.9999999999999996 10.0 40.0
  endloop
endfacet
facet normal -0.0 1.0 -0.0
  outer loop
    vertex 0.0 0.0 10.0
    vertex 20.0 0.0 0.0
    vertex 0.0 0.0 0.0
  endloop
endfacet
facet normal -0.0 1.0 -0.0
  outer loop
    vertex 20.0 0.0 0.0
    vertex 0.0 0.0 10.0
    vertex 20.0 0.0 10.0
  endloop
endfacet
facet normal -1.0 0.0 0.0
  outer loop
    vertex 20.0 3.0 40.0
    vertex 20.0 0.0 30.3
    vertex 20.0 0.0 40.0
  endloop
endfacet
facet normal -1.0 0.0 0.0
  outer loop
    vertex 20.0 0.0 30.3
    vertex 20.0 3.0 40.0
    vertex 20.0 0.0 10.0
  endloop
endfacet
facet normal -1.0 0.0 0.0
  outer loop
    vertex 20.0 0.0 10.0
    vertex 20.0 3.0 40.0
    vertex 20.0 0.0 0.0
  endloop
endfacet
facet normal -1.0 0.0 0.0
  outer loop
    vertex 20.0 0.0 0.0
    vertex 20.0 3.0 40.0
    vertex 20.0 3.0 0.0
  endloop
endfacet
facet normal 0.0 -1.0 0.0
  outer loop
    vertex 20.0 3.0 40.0
    vertex 14.0 3.0 0.0
    vertex 20.0 3.0 0.0
  endloop
endfacet
facet normal 0.0 -1.0 0.0
  outer loop
    vertex 14.0 3.0 0.0
    vertex 20.0 3.0 40.0
    vertex 14.0 3.0 40.0
  endloop
endfacet
facet normal 0.0 0.0 -1.0
  outer loop
    vertex -2.9999999999999987 2.8199664825478975e-15 30.3
    vertex 22.999999999999996 -3.0 30.3
    vertex -3.0 -3.0 30.3
  endloop
endfacet
facet normal 0.0 0.0 -1.0
  outer loop
    vertex 22.999999999999996 -3.0 30.3
    vertex -2.9999999999999987 2.8199664825478975e-15 30.3
    vertex 0.0 0.0 30.3
  endloop
endfacet
facet normal 0.0 0.0 -1.0
  outer loop
    vertex 22.999999999999996 -3.0 30.3
    vertex 0.0 0.0 30.3
    vertex 20.0 0.0 30.3
  endloop
endfacet
facet normal 0.0 0.0 -1.0
  outer loop
    vertex 22.999999999999996 -3.0 30.3
    vertex 20.0 0.0 30.3
    vertex 22.999999999999996 2.8199664825478975e-15 30.3
  endloop
endfacet
facet normal 0.0 0.0 1.0
  outer loop
    vertex 14.0 4.999999999999999 40.0
    vertex 2.9999999999999996 10.0 40.0
    vertex 2.999999999999999 5.000000000000001 40.0
  endloop
endfacet
facet normal 0.0 0.0 1.0
  outer loop
    vertex 20.0 3.0 40.0
    vertex 14.0 4.999999999999999 40.0
    vertex 14.0 3.0 40.0
  endloop
endfacet
facet normal 0.0 0.0 1.0
  outer loop
    vertex -3.0 -3.0 40.0
    vertex 0.0 0.0 40.0
    vertex -3.0 12.999999999999998 40.0
  endloop
endfacet
facet normal 0.0 0.0 1.0
  outer loop
    vertex 0.0 0.0 40.0
    vertex -3.0 -3.0 40.0
    vertex 22.999999999999996 -3.0 40.0
  endloop
endfacet
facet normal 0.0 0.0 1.0
  outer loop
    vertex 0.0 0.0 40.0
    vertex 22.999999999999996 -3.0 40.0
    vertex 20.0 0.0 40.0
  endloop
endfacet
facet normal 0.0 0.0 1.0
  outer loop
    vertex 20.0 0.0 40.0
    vertex 22.999999999999996 -3.0 40.0
    vertex 20.0 3.0 40.0
  endloop
endfacet
facet normal 0.0 0.0 1.0
  outer loop
    vertex -3.0 12.999999999999998 40.0
    vertex 0.0 10.0 40.0
    vertex 23.0 12.999999999999998 40.0
  endloop
endfacet
facet normal 0.0 0.0 1.0
  outer loop
    vertex 0.0 10.0 40.0
    vertex -3.0 12.999999999999998 40.0
    vertex 0.0 0.0 40.0
  endloop
endfacet
facet normal 0.0 0.0 1.0
  outer loop
    vertex 23.0 12.999999999999998 40.0
    vertex 0.0 10.0 40.0
    vertex 2.9999999999999996 10.0 40.0
  endloop
endfacet
facet normal 0.0 0.0 1.0
  outer loop
    vertex 23.0 12.999999999999998 40.0
    vertex 2.9999999999999996 10.0 40.0
    vertex 14.0 4.999999999999999 40.0
  endloop
endfacet
facet normal 0.0 0.0 1.0
  outer loop
    vertex 23.0 12.999999999999998 40.0
    vertex 14.0 4.999999999999999 40.0
    vertex 20.0 3.0 40.0
  endloop
endfacet
facet normal 0.0 0.0 1.0
  outer loop
    vertex 23.0 12.999999999999998 40.0
    vertex 20.0 3.0 40.0
    vertex 22.999999999999996 -3.0 40.0
  endloop
endfacet
facet normal -1.3557531166095661e-17 -1.0 0.0
  outer loop
    vertex 22.999999999999996 -3.0 40.0
    vertex -3.0 -3.0 30.3
    vertex 22.999999999999996 -3.0 30.3
  endloop
endfacet
facet normal -1.3557531166095661e-17 -1.0 0.0
  outer loop
    vertex -3.0 -3.0 30.3
    vertex 22.999999999999996 -3.0 40.0
    vertex -3.0 -3.0 40.0
  endloop
endfacet
facet normal -0.0 1.0 -0.0
  outer loop
    vertex 0.0 0.0 40.0
    vertex 20.0 0.0 30.3
    vertex 0.0 0.0 30.3
  endloop
endfacet
facet normal -0.0 1.0 -0.0
  outer loop
    vertex 20.0 0.0 30.3
    vertex 0.0 0.0 40.0
    vertex 20.0 0.0 40.0
  endloop
endfacet
facet normal -4.699944137579831e-16 -1.0 7.049916206369743e-17
  outer loop
    vertex 0.0 0.0 30.3
    vertex -2.9999999999999987 0.0 10.0
    vertex 0.0 0.0 10.0
  endloop
endfacet
facet normal -4.699944137579831e-16 -1.0 7.049916206369743e-17
  outer loop
    vertex -2.9999999999999987 0.0 10.0
    vertex 0.0 0.0 30.3
    vertex -2.9999999999999987 2.8199664825478975e-15 30.3
  endloop
endfacet
facet normal -0.0 -0.0 1.0
  outer loop
    vertex 22.999999999999996 -3.0 10.0
    vertex -2.9999999999999987 0.0 10.0
    vertex -3.0 -3.0 10.0
  endloop
endfacet
facet normal -0.0 -0.0 1.0
  outer loop
    vertex -2.9999999999999987 0.0 10.0
    vertex 22.999999999999996 -3.0 10.0
    vertex 0.0 0.0 10.0
  endloop
endfacet
facet normal -0.0 -0.0 1.0
  outer loop
    vertex 0.0 0.0 10.0
    vertex 22.999999999999996 -3.0 10.0
    vertex 20.0 0.0 10.0
  endloop
endfacet
facet normal -0.0 -0.0 1.0
  outer loop
    vertex 20.0 0.0 10.0
    vertex 22.999999999999996 -3.0 10.0
    vertex 22.999999999999996 0.0 10.0
  endloop
endfacet
facet normal 4.699944137579833e-16 -1.0 7.049916206369744e-17
  outer loop
    vertex 22.999999999999996 2.8199664825478975e-15 30.3
    vertex 20.0 0.0 10.0
    vertex 22.999999999999996 0.0 10.0
  endloop
endfacet
facet normal 4.699944137579833e-16 -1.0 7.049916206369744e-17
  outer loop
    vertex 20.0 0.0 10.0
    vertex 22.999999999999996 2.8199664825478975e-15 30.3
    vertex 20.0 0.0 30.3
  endloop
endfacet
facet normal 1.0 -0.0 -0.0
  outer loop
    vertex 0.0 10.0 0.0
    vertex 0.0 0.0 10.0
    vertex 0.0 0.0 0.0
  endloop
endfacet
facet normal 1.0 -0.0 -0.0
  outer loop
    vertex 0.0 0.0 10.0
    vertex 0.0 10.0 0.0
    vertex 0.0 0.0 30.3
  endloop
endfacet
facet normal 1.0 -0.0 -0.0
  outer loop
    vertex 0.0 0.0 30.3
    vertex 0.0 10.0 0.0
    vertex 0.0 0.0 40.0
  endloop
endfacet
facet normal 1.0 -0.0 -0.0
  outer loop
    vertex 0.0 0.0 40.0
    vertex 0.0 10.0 0.0
    vertex 0.0 10.0 40.0
  endloop
endfacet
facet normal -1.3557531166095661e-17 -1.0 0.0
  outer loop
    vertex 22.999999999999996 -6.1000000000000005 15.0
    vertex -3.0 -6.1000000000000005 0.0
    vertex 22.999999999999996 -6.1000000000000005 0.0
  endloop
endfacet
facet normal -1.3557531166095661e-17 -1.0 0.0
  outer loop
    vertex -3.0 -6.1000000000000005 0.0
    vertex 22.999999999999996 -6.1000000000000005 15.0
    vertex -3.0 -6.1000000000000005 15.0
  endloop
endfacet
facet normal 0.0 0.0 1.0
  outer loop
    vertex 22.999999999999996 -6.1000000000000005 15.0
    vertex -3.0 -3.0 15.0
    vertex -3.0 -6.1000000000000005 15.0
  endloop
endfacet
facet normal 0.0 0.0 1.0
  outer loop
    vertex -3.0 -3.0 15.0
    vertex 22.999999999999996 -6.1000000000000005 15.0
    vertex 22.999999999999996 -3.0 15.0
  endloop
endfacet
facet normal 1.3557531166095663e-17 1.0 0.0
  outer loop
    vertex -3.0 -3.0 15.0
    vertex 22.999999999999996 -3.0 10.0
    vertex -3.0 -3.0 10.0
  endloop
endfacet
facet normal 1.3557531166095663e-17 1.0 0.0
  outer loop
    vertex 22.999999999999996 -3.0 10.0
    vertex -3.0 -3.0 15.0
    vertex 22.999999999999996 -3.0 15.0
  endloop
endfacet
facet normal 0.6087614290087225 -0.0 -0.7933533402912339
  outer loop
    vertex 7.249999999999999 12.999999999999998 21.299038105676658
    vertex 6.939339828220178 4.999999999999968 21.060660171779823
    vertex 6.939339828220178 12.999999999999998 21.060660171779823
  endloop
endfacet
facet normal 0.6087614290087225 -0.0 -0.7933533402912339
  outer loop
    vertex 6.939339828220178 4.999999999999968 21.060660171779823
    vertex 7.249999999999999 12.999999999999998 21.299038105676658
    vertex 7.249999999999999 4.999999999999968 21.299038105676658
  endloop
endfacet
facet normal 0.3826834323650882 -0.0 -0.9238795325112874
  outer loop
    vertex 7.6117714323462184 12.999999999999998 21.448888739433603
    vertex 7.249999999999999 4.999999999999968 21.299038105676658
    vertex 7.249999999999999 12.999999999999998 21.299038105676658
  endloop
endfacet
facet normal 0.3826834323650882 -0.0 -0.9238795325112874
  outer loop
    vertex 7.249999999999999 4.999999999999968 21.299038105676658
    vertex 7.6117714323462184 12.999999999999998 21.448888739433603
    vertex 7.6117714323462184 4.999999999999968 21.448888739433603
  endloop
endfacet
facet normal 0.13052619222005168 -0.0 -0.9914448613738105
  outer loop
    vertex 7.999999999999999 12.999999999999998 21.5
    vertex 7.6117714323462184 4.999999999999968 21.448888739433603
    vertex 7.6117714323462184 12.999999999999998 21.448888739433603
  endloop
endfacet
facet normal 0.13052619222005168 -0.0 -0.9914448613738105
  outer loop
    vertex 7.6117714323462184 4.999999999999968 21.448888739433603
    vertex 7.999999999999999 12.999999999999998 21.5
    vertex 7.999999999999999 4.999999999999968 21.5
  endloop
endfacet
facet normal -0.13052619222005168 -0.0 -0.9914448613738105
  outer loop
    vertex 8.388228567653782 12.999999999999998 21.448888739433603
    vertex 7.999999999999999 4.999999999999968 21.5
    vertex 7.999999999999999 12.999999999999998 21.5
  endloop
endfacet
facet normal -0.13052619222005168 -0.0 -0.9914448613738105
  outer loop
    vertex 7.999999999999999 4.999999999999968 21.5
    vertex 8.388228567653782 12.999999999999998 21.448888739433603
    vertex 8.388228567653782 4.999999999999968 21.448888739433603
  endloop
endfacet
facet normal -0.3826834323650882 -0.0 -0.9238795325112874
  outer loop
    vertex 8.75 12.999999999999998 21.299038105676658
    vertex 8.388228567653782 4.999999999999968 21.448888739433603
    vertex 8.388228567653782 12.999999999999998 21.448888739433603
  endloop
endfacet
facet normal -0.3826834323650882 -0.0 -0.9238795325112874
  outer loop
    vertex 8.388228567653782 4.999999999999968 21.448888739433603
    vertex 8.75 12.999999999999998 21.299038105676658
    vertex 8.75 4.999999999999968 21.299038105676658
  endloop
endfacet
facet normal -0.6087614290087225 -0.0 -0.7933533402912339
  outer loop
    vertex 9.060660171779821 12.999999999999998 21.060660171779823
    vertex 8.75 4.999999999999968 21.299038105676658
    vertex 8.75 12.999999999999998 21.299038105676658
  endloop
endfacet
facet normal -0.6087614290087225 -0.0 -0.7933533402912339
  outer loop
    vertex 8.75 4.999999999999968 21.299038105676658
    vertex 9.060660171779821 12.999999999999998 21.060660171779823
    vertex 9.060660171779821 4.999999999999968 21.060660171779823
  endloop
endfacet
facet normal -0.7933533402912368 -0.0 -0.6087614290087184
  outer loop
    vertex 9.060660171779821 12.999999999999998 21.060660171779823
    vertex 9.299038105676656 4.999999999999968 20.75
    vertex 9.060660171779821 4.999999999999968 21.060660171779823
  endloop
endfacet
facet normal -0.7933533402912368 -0.0 -0.6087614290087184
  outer loop
    vertex 9.299038105676656 4.999999999999968 20.75
    vertex 9.060660171779821 12.999999999999998 21.060660171779823
    vertex 9.299038105676656 12.999999999999998 20.75
  endloop
endfacet
facet normal -0.9238795325112856 -0.0 -0.38268343236509256
  outer loop
    vertex 9.299038105676656 12.999999999999998 20.75
    vertex 9.448888739433603 4.999999999999968 20.38822856765378
    vertex 9.299038105676656 4.999999999999968 20.75
  endloop
endfacet
facet normal -0.9238795325112856 -0.0 -0.38268343236509256
  outer loop
    vertex 9.448888739433603 4.999999999999968 20.38822856765378
    vertex 9.299038105676656 12.999999999999998 20.75
    vertex 9.448888739433603 12.999999999999998 20.38822856765378
  endloop
endfacet
facet normal -0.9914448613738105 -0.0 -0.13052619222005168
  outer loop
    vertex 9.448888739433603 12.999999999999998 20.38822856765378
    vertex 9.5 4.999999999999968 20.0
    vertex 9.448888739433603 4.999999999999968 20.38822856765378
  endloop
endfacet
facet normal -0.9914448613738105 -0.0 -0.13052619222005168
  outer loop
    vertex 9.5 4.999999999999968 20.0
    vertex 9.448888739433603 12.999999999999998 20.38822856765378
    vertex 9.5 12.999999999999998 20.0
  endloop
endfacet
facet normal -0.9914448613738105 -0.0 0.13052619222005168
  outer loop
    vertex 9.5 12.999999999999998 20.0
    vertex 9.448888739433603 4.999999999999968 19.61177143234622
    vertex 9.5 4.999999999999968 20.0
  endloop
endfacet
facet normal -0.9914448613738105 -0.0 0.13052619222005168
  outer loop
    vertex 9.448888739433603 4.999999999999968 19.61177143234622
    vertex 9.5 12.999999999999998 20.0
    vertex 9.448888739433603 12.999999999999998 19.61177143234622
  endloop
endfacet
facet normal -0.9238795325112867 -0.0 0.38268343236509006
  outer loop
    vertex 9.448888739433603 12.999999999999998 19.61177143234622
    vertex 9.299038105676656 4.999999999999968 19.25
    vertex 9.448888739433603 4.999999999999968 19.61177143234622
  endloop
endfacet
facet normal -0.9238795325112867 -0.0 0.38268343236509006
  outer loop
    vertex 9.299038105676656 4.999999999999968 19.25
    vertex 9.448888739433603 12.999999999999998 19.61177143234622
    vertex 9.299038105676656 12.999999999999998 19.25
  endloop
endfacet
facet normal -0.7933533402912343 -0.0 0.608761429008722
  outer loop
    vertex 9.299038105676656 12.999999999999998 19.25
    vertex 9.060660171779821 4.999999999999968 18.939339828220177
    vertex 9.299038105676656 4.999999999999968 19.25
  endloop
endfacet
facet normal -0.7933533402912343 -0.0 0.608761429008722
  outer loop
    vertex 9.060660171779821 4.999999999999968 18.939339828220177
    vertex 9.299038105676656 12.999999999999998 19.25
    vertex 9.060660171779821 12.999999999999998 18.939339828220177
  endloop
endfacet
facet normal -0.6087614290087208 -0.0 0.7933533402912353
  outer loop
    vertex 9.060660171779821 4.999999999999968 18.939339828220177
    vertex 8.749999999999998 12.999999999999998 18.700961894323342
    vertex 8.749999999999998 4.999999999999968 18.700961894323342
  endloop
endfacet
facet normal -0.6087614290087208 -0.0 0.7933533402912353
  outer loop
    vertex 8.749999999999998 12.999999999999998 18.700961894323342
    vertex 9.060660171779821 4.999999999999968 18.939339828220177
    vertex 9.060660171779821 12.999999999999998 18.939339828220177
  endloop
endfacet
facet normal -0.3826834323650882 -0.0 0.9238795325112874
  outer loop
    vertex 8.749999999999998 4.999999999999968 18.700961894323342
    vertex 8.38822856765378 12.999999999999998 18.551111260566397
    vertex 8.38822856765378 4.999999999999968 18.551111260566397
  endloop
endfacet
facet normal -0.3826834323650882 -0.0 0.9238795325112874
  outer loop
    vertex 8.38822856765378 12.999999999999998 18.551111260566397
    vertex 8.749999999999998 4.999999999999968 18.700961894323342
    vertex 8.749999999999998 12.999999999999998 18.700961894323342
  endloop
endfacet
facet normal -0.13052619222005216 -0.0 0.9914448613738104
  outer loop
    vertex 8.38822856765378 4.999999999999968 18.551111260566397
    vertex 7.999999999999999 12.999999999999998 18.5
    vertex 7.999999999999999 4.999999999999968 18.5
  endloop
endfacet
facet normal -0.13052619222005216 -0.0 0.9914448613738104
  outer loop
    vertex 7.999999999999999 12.999999999999998 18.5
    vertex 8.38822856765378 4.999999999999968 18.551111260566397
    vertex 8.38822856765378 12.999999999999998 18.551111260566397
  endloop
endfacet
facet normal 0.13052619222005124 0.0 0.9914448613738106
  outer loop
    vertex 7.999999999999999 4.999999999999968 18.5
    vertex 7.611771432346217 12.999999999999998 18.551111260566397
    vertex 7.611771432346217 4.999999999999968 18.551111260566397
  endloop
endfacet
facet normal 0.13052619222005124 0.0 0.9914448613738106
  outer loop
    vertex 7.611771432346217 12.999999999999998 18.551111260566397
    vertex 7.999999999999999 4.999999999999968 18.5
    vertex 7.999999999999999 12.999999999999998 18.5
  endloop
endfacet
facet normal 0.3826834323650895 0.0 0.9238795325112868
  outer loop
    vertex 7.611771432346217 4.999999999999968 18.551111260566397
    vertex 7.249999999999999 12.999999999999998 18.700961894323342
    vertex 7.249999999999999 4.999999999999968 18.700961894323342
  endloop
endfacet
facet normal 0.3826834323650895 0.0 0.9238795325112868
  outer loop
    vertex 7.249999999999999 12.999999999999998 18.700961894323342
    vertex 7.611771432346217 4.999999999999968 18.551111260566397
    vertex 7.611771432346217 12.999999999999998 18.551111260566397
  endloop
endfacet
facet normal 0.6087614290087225 0.0 0.7933533402912339
  outer loop
    vertex 7.249999999999999 4.999999999999968 18.700961894323342
    vertex 6.939339828220178 12.999999999999998 18.939339828220177
    vertex 6.939339828220178 4.999999999999968 18.939339828220177
  endloop
endfacet
facet normal 0.6087614290087225 0.0 0.7933533402912339
  outer loop
    vertex 6.939339828220178 12.999999999999998 18.939339828220177
    vertex 7.249999999999999 4.999999999999968 18.700961894323342
    vertex 7.249999999999999 12.999999999999998 18.700961894323342
  endloop
endfacet
facet normal 0.7933533402912353 0.0 0.6087614290087208
  outer loop
    vertex 6.939339828220178 12.999999999999998 18.939339828220177
    vertex 6.700961894323341 4.999999999999968 19.25
    vertex 6.939339828220178 4.999999999999968 18.939339828220177
  endloop
endfacet
facet normal 0.7933533402912353 0.0 0.6087614290087208
  outer loop
    vertex 6.700961894323341 4.999999999999968 19.25
    vertex 6.939339828220178 12.999999999999998 18.939339828220177
    vertex 6.700961894323341 12.999999999999998 19.25
  endloop
endfacet
facet normal 0.9238795325112868 0.0 0.3826834323650895
  outer loop
    vertex 6.700961894323341 12.999999999999998 19.25
    vertex 6.551111260566397 4.999999999999968 19.61177143234622
    vertex 6.700961894323341 4.999999999999968 19.25
  endloop
endfacet
facet normal 0.9238795325112868 0.0 0.3826834323650895
  outer loop
    vertex 6.551111260566397 4.999999999999968 19.61177143234622
    vertex 6.700961894323341 12.999999999999998 19.25
    vertex 6.551111260566397 12.999999999999998 19.61177143234622
  endloop
endfacet
facet normal 0.9914448613738105 0.0 0.13052619222005168
  outer loop
    vertex 6.551111260566397 12.999999999999998 19.61177143234622
    vertex 6.499999999999999 4.999999999999968 20.0
    vertex 6.551111260566397 4.999999999999968 19.61177143234622
  endloop
endfacet
facet normal 0.9914448613738105 0.0 0.13052619222005168
  outer loop
    vertex 6.499999999999999 4.999999999999968 20.0
    vertex 6.551111260566397 12.999999999999998 19.61177143234622
    vertex 6.499999999999999 12.999999999999998 20.0
  endloop
endfacet
facet normal 0.9914448613738105 -0.0 -0.13052619222005168
  outer loop
    vertex 6.499999999999999 12.999999999999998 20.0
    vertex 6.551111260566397 4.999999999999968 20.38822856765378
    vertex 6.499999999999999 4.999999999999968 20.0
  endloop
endfacet
facet normal 0.9914448613738105 -0.0 -0.13052619222005168
  outer loop
    vertex 6.551111260566397 4.999999999999968 20.38822856765378
    vertex 6.499999999999999 12.999999999999998 20.0
    vertex 6.551111260566397 12.999999999999998 20.38822856765378
  endloop
endfacet
facet normal 0.9238795325112867 -0.0 -0.38268343236509006
  outer loop
    vertex 6.551111260566397 12.999999999999998 20.38822856765378
    vertex 6.700961894323342 4.999999999999968 20.75
    vertex 6.551111260566397 4.999999999999968 20.38822856765378
  endloop
endfacet
facet normal 0.9238795325112867 -0.0 -0.38268343236509006
  outer loop
    vertex 6.700961894323342 4.999999999999968 20.75
    vertex 6.551111260566397 12.999999999999998 20.38822856765378
    vertex 6.700961894323342 12.999999999999998 20.75
  endloop
endfacet
facet normal 0.7933533402912343 -0.0 -0.608761429008722
  outer loop
    vertex 6.700961894323342 12.999999999999998 20.75
    vertex 6.939339828220178 4.999999999999968 21.060660171779823
    vertex 6.700961894323342 4.999999999999968 20.75
  endloop
endfacet
facet normal 0.7933533402912343 -0.0 -0.608761429008722
  outer loop
    vertex 6.939339828220178 4.999999999999968 21.060660171779823
    vertex 6.700961894323342 12.999999999999998 20.75
    vertex 6.939339828220178 12.999999999999998 21.060660171779823
  endloop
endfacet
endsolid Клипса-Уголок-20х10-Соединит
