solid Прищепка-верх-вариант-2
facet normal 1.1239573795761226e-33 4.376111859943975e-17 -1.0
  outer loop
    vertex -60.0 12.499999999999998 10.000000000000002
    vertex -63.0 -9.500000000000002 10.000000000000002
    vertex -63.0 9.499999999999998 10.000000000000002
  endloop
endfacet
facet normal 1.1239573795761226e-33 4.376111859943975e-17 -1.0
  outer loop
    vertex -63.0 -9.500000000000002 10.000000000000002
    vertex -60.0 12.499999999999998 10.000000000000002
    vertex -60.0 -12.500000000000002 10.000000000000002
  endloop
endfacet
facet normal 1.1239573795761226e-33 4.376111859943975e-17 -1.0
  outer loop
    vertex -60.0 -12.500000000000002 10.000000000000002
    vertex -60.0 12.499999999999998 10.000000000000002
    vertex -32.5 4.330127018922189 10.000000000000005
  endloop
endfacet
facet normal 1.1239573795761226e-33 4.376111859943975e-17 -1.0
  outer loop
    vertex -32.5 4.330127018922189 10.000000000000005
    vertex -60.0 12.499999999999998 10.000000000000002
    vertex -15.0 12.5 10.000000000000004
  endloop
endfacet
facet normal 1.1239573795761226e-33 4.376111859943975e-17 -1.0
  outer loop
    vertex -60.0 -12.500000000000002 10.000000000000002
    vertex -32.5 4.330127018922189 10.000000000000005
    vertex -33.53553390593274 3.5355339059327346 10.000000000000005
  endloop
endfacet
facet normal 1.1239573795761226e-33 4.376111859943975e-17 -1.0
  outer loop
    vertex -60.0 -12.500000000000002 10.000000000000002
    vertex -33.53553390593274 3.5355339059327346 10.000000000000005
    vertex -34.3301270189222 2.4999999999999947 10.000000000000005
  endloop
endfacet
facet normal 1.1239573795761226e-33 4.376111859943975e-17 -1.0
  outer loop
    vertex -60.0 -12.500000000000002 10.000000000000002
    vertex -34.3301270189222 2.4999999999999947 10.000000000000005
    vertex -34.829629131445344 1.2940952255125997 10.000000000000005
  endloop
endfacet
facet normal 1.1239573795761226e-33 4.376111859943975e-17 -1.0
  outer loop
    vertex -60.0 -12.500000000000002 10.000000000000002
    vertex -34.829629131445344 1.2940952255125997 10.000000000000005
    vertex -35.0 -2.328468340634463e-15 10.000000000000005
  endloop
endfacet
facet normal 1.1239573795761226e-33 4.376111859943975e-17 -1.0
  outer loop
    vertex -32.5 4.330127018922189 10.000000000000005
    vertex -15.0 12.5 10.000000000000004
    vertex -31.29409522551261 4.829629131445338 10.000000000000005
  endloop
endfacet
facet normal 1.1239573795761226e-33 4.376111859943975e-17 -1.0
  outer loop
    vertex -31.29409522551261 4.829629131445338 10.000000000000005
    vertex -15.0 12.5 10.000000000000004
    vertex -30.0 4.999999999999997 10.000000000000005
  endloop
endfacet
facet normal 1.1239573795761226e-33 4.376111859943975e-17 -1.0
  outer loop
    vertex -30.0 4.999999999999997 10.000000000000005
    vertex -15.0 12.5 10.000000000000004
    vertex -28.705904774487397 4.829629131445339 10.000000000000005
  endloop
endfacet
facet normal 1.1239573795761226e-33 4.376111859943975e-17 -1.0
  outer loop
    vertex -28.705904774487397 4.829629131445339 10.000000000000005
    vertex -15.0 12.5 10.000000000000004
    vertex -27.5 4.330127018922191 10.000000000000005
  endloop
endfacet
facet normal 1.1239573795761226e-33 4.376111859943975e-17 -1.0
  outer loop
    vertex -27.5 4.330127018922191 10.000000000000005
    vertex -15.0 12.5 10.000000000000004
    vertex -26.464466094067266 3.535533905932735 10.000000000000005
  endloop
endfacet
facet normal 1.1239573795761226e-33 4.376111859943975e-17 -1.0
  outer loop
    vertex -26.464466094067266 3.535533905932735 10.000000000000005
    vertex -15.0 12.5 10.000000000000004
    vertex -25.669872981077813 2.4999999999999987 10.000000000000005
  endloop
endfacet
facet normal 1.1239573795761226e-33 4.376111859943975e-17 -1.0
  outer loop
    vertex -25.669872981077813 2.4999999999999987 10.000000000000005
    vertex -15.0 12.5 10.000000000000004
    vertex -25.17037086855466 1.294095225512603 10.000000000000005
  endloop
endfacet
facet normal 1.1239573795761226e-33 4.376111859943975e-17 -1.0
  outer loop
    vertex -25.17037086855466 1.294095225512603 10.000000000000005
    vertex -15.0 12.5 10.000000000000004
    vertex -25.000000000000004 -1.1038215414871105e-15 10.000000000000005
  endloop
endfacet
facet normal 1.1239573795761226e-33 4.376111859943975e-17 -1.0
  outer loop
    vertex -25.000000000000004 -1.1038215414871105e-15 10.000000000000005
    vertex -15.0 12.5 10.000000000000004
    vertex -15.000000000000004 -12.499999999999998 10.0
  endloop
endfacet
facet normal 1.1239573795761226e-33 4.376111859943975e-17 -1.0
  outer loop
    vertex -60.0 -12.500000000000002 10.000000000000002
    vertex -32.5 -4.3301270189221945 10.000000000000005
    vertex -15.000000000000004 -12.499999999999998 10.0
  endloop
endfacet
facet normal 1.1239573795761226e-33 4.376111859943975e-17 -1.0
  outer loop
    vertex -32.5 -4.3301270189221945 10.000000000000005
    vertex -60.0 -12.500000000000002 10.000000000000002
    vertex -33.53553390593274 -3.5355339059327395 10.000000000000005
  endloop
endfacet
facet normal 1.1239573795761226e-33 4.376111859943975e-17 -1.0
  outer loop
    vertex -33.53553390593274 -3.5355339059327395 10.000000000000005
    vertex -60.0 -12.500000000000002 10.000000000000002
    vertex -34.33012701892219 -2.5000000000000027 10.000000000000005
  endloop
endfacet
facet normal 1.1239573795761226e-33 4.376111859943975e-17 -1.0
  outer loop
    vertex -34.33012701892219 -2.5000000000000027 10.000000000000005
    vertex -60.0 -12.500000000000002 10.000000000000002
    vertex -34.82962913144534 -1.2940952255126086 10.000000000000005
  endloop
endfacet
facet normal 1.1239573795761226e-33 4.376111859943975e-17 -1.0
  outer loop
    vertex -34.82962913144534 -1.2940952255126086 10.000000000000005
    vertex -60.0 -12.500000000000002 10.000000000000002
    vertex -35.0 -2.328468340634463e-15 10.000000000000005
  endloop
endfacet
facet normal 1.1239573795761226e-33 4.376111859943975e-17 -1.0
  outer loop
    vertex -15.000000000000004 -12.499999999999998 10.0
    vertex -32.5 -4.3301270189221945 10.000000000000005
    vertex -31.294095225512603 -4.829629131445342 10.000000000000005
  endloop
endfacet
facet normal 1.1239573795761226e-33 4.376111859943975e-17 -1.0
  outer loop
    vertex -15.000000000000004 -12.499999999999998 10.0
    vertex -31.294095225512603 -4.829629131445342 10.000000000000005
    vertex -30.0 -5.0 10.000000000000005
  endloop
endfacet
facet normal 1.1239573795761226e-33 4.376111859943975e-17 -1.0
  outer loop
    vertex -15.000000000000004 -12.499999999999998 10.0
    vertex -30.0 -5.0 10.000000000000005
    vertex -28.705904774487397 -4.8296291314453415 10.000000000000005
  endloop
endfacet
facet normal 1.1239573795761226e-33 4.376111859943975e-17 -1.0
  outer loop
    vertex -15.000000000000004 -12.499999999999998 10.0
    vertex -28.705904774487397 -4.8296291314453415 10.000000000000005
    vertex -27.5 -4.330127018922193 10.000000000000005
  endloop
endfacet
facet normal 1.1239573795761226e-33 4.376111859943975e-17 -1.0
  outer loop
    vertex -15.000000000000004 -12.499999999999998 10.0
    vertex -27.5 -4.330127018922193 10.000000000000005
    vertex -26.464466094067266 -3.5355339059327373 10.000000000000005
  endloop
endfacet
facet normal 1.1239573795761226e-33 4.376111859943975e-17 -1.0
  outer loop
    vertex -15.000000000000004 -12.499999999999998 10.0
    vertex -26.464466094067266 -3.5355339059327373 10.000000000000005
    vertex -25.669872981077813 -2.4999999999999996 10.000000000000005
  endloop
endfacet
facet normal 1.1239573795761226e-33 4.376111859943975e-17 -1.0
  outer loop
    vertex -15.000000000000004 -12.499999999999998 10.0
    vertex -25.669872981077813 -2.4999999999999996 10.000000000000005
    vertex -25.17037086855466 -1.2940952255126041 10.000000000000005
  endloop
endfacet
facet normal 1.1239573795761226e-33 4.376111859943975e-17 -1.0
  outer loop
    vertex -15.000000000000004 -12.499999999999998 10.0
    vertex -25.17037086855466 -1.2940952255126041 10.000000000000005
    vertex -25.000000000000004 -1.1038215414871105e-15 10.000000000000005
  endloop
endfacet
facet normal 3.38428597529606e-17 -4.376111859943975e-17 1.0
  outer loop
    vertex -60.0 -12.500000000000002 20.000000000000004
    vertex -63.0 9.499999999999998 20.000000000000004
    vertex -63.0 -9.500000000000002 20.000000000000004
  endloop
endfacet
facet normal 3.38428597529606e-17 -4.376111859943975e-17 1.0
  outer loop
    vertex -63.0 9.499999999999998 20.000000000000004
    vertex -60.0 -12.500000000000002 20.000000000000004
    vertex -60.0 12.499999999999998 20.000000000000004
  endloop
endfacet
facet normal 3.38428597529606e-17 -4.376111859943975e-17 1.0
  outer loop
    vertex -60.0 12.499999999999998 20.000000000000004
    vertex -60.0 -12.500000000000002 20.000000000000004
    vertex -19.999999999999996 -12.499999999999998 20.0
  endloop
endfacet
facet normal 3.38428597529606e-17 -4.376111859943975e-17 1.0
  outer loop
    vertex -60.0 12.499999999999998 20.000000000000004
    vertex -19.999999999999996 -12.499999999999998 20.0
    vertex -32.5 -4.330127018922195 20.000000000000007
  endloop
endfacet
facet normal 3.38428597529606e-17 -4.376111859943975e-17 1.0
  outer loop
    vertex -60.0 12.499999999999998 20.000000000000004
    vertex -32.5 -4.330127018922195 20.000000000000007
    vertex -33.53553390593274 -3.53553390593274 20.000000000000007
  endloop
endfacet
facet normal 3.38428597529606e-17 -4.376111859943975e-17 1.0
  outer loop
    vertex -60.0 12.499999999999998 20.000000000000004
    vertex -33.53553390593274 -3.53553390593274 20.000000000000007
    vertex -34.33012701892219 -2.500000000000003 20.000000000000007
  endloop
endfacet
facet normal 3.38428597529606e-17 -4.376111859943975e-17 1.0
  outer loop
    vertex -60.0 12.499999999999998 20.000000000000004
    vertex -34.33012701892219 -2.500000000000003 20.000000000000007
    vertex -34.82962913144534 -1.2940952255126088 20.000000000000007
  endloop
endfacet
facet normal 3.38428597529606e-17 -4.376111859943975e-17 1.0
  outer loop
    vertex -60.0 12.499999999999998 20.000000000000004
    vertex -34.82962913144534 -1.2940952255126088 20.000000000000007
    vertex -35.0 -2.7660795266288604e-15 20.000000000000007
  endloop
endfacet
facet normal 3.38428597529606e-17 -4.376111859943975e-17 1.0
  outer loop
    vertex -32.5 -4.330127018922195 20.000000000000007
    vertex -19.999999999999996 -12.499999999999998 20.0
    vertex -31.294095225512603 -4.829629131445342 20.000000000000007
  endloop
endfacet
facet normal 3.38428597529606e-17 -4.376111859943975e-17 1.0
  outer loop
    vertex -31.294095225512603 -4.829629131445342 20.000000000000007
    vertex -19.999999999999996 -12.499999999999998 20.0
    vertex -30.0 -5.000000000000001 20.000000000000007
  endloop
endfacet
facet normal 3.38428597529606e-17 -4.376111859943975e-17 1.0
  outer loop
    vertex -30.0 -5.000000000000001 20.000000000000007
    vertex -19.999999999999996 -12.499999999999998 20.0
    vertex -28.705904774487397 -4.829629131445342 20.000000000000007
  endloop
endfacet
facet normal 3.38428597529606e-17 -4.376111859943975e-17 1.0
  outer loop
    vertex -28.705904774487397 -4.829629131445342 20.000000000000007
    vertex -19.999999999999996 -12.499999999999998 20.0
    vertex -27.5 -4.330127018922193 20.000000000000007
  endloop
endfacet
facet normal 3.38428597529606e-17 -4.376111859943975e-17 1.0
  outer loop
    vertex -27.5 -4.330127018922193 20.000000000000007
    vertex -19.999999999999996 -12.499999999999998 20.0
    vertex -26.464466094067266 -3.535533905932738 20.000000000000007
  endloop
endfacet
facet normal 3.38428597529606e-17 -4.376111859943975e-17 1.0
  outer loop
    vertex -26.464466094067266 -3.535533905932738 20.000000000000007
    vertex -19.999999999999996 -12.499999999999998 20.0
    vertex -25.669872981077813 -2.5 20.000000000000007
  endloop
endfacet
facet normal 3.38428597529606e-17 -4.376111859943975e-17 1.0
  outer loop
    vertex -25.669872981077813 -2.5 20.000000000000007
    vertex -19.999999999999996 -12.499999999999998 20.0
    vertex -25.17037086855466 -1.2940952255126046 20.000000000000007
  endloop
endfacet
facet normal 3.38428597529606e-17 -4.376111859943975e-17 1.0
  outer loop
    vertex -25.17037086855466 -1.2940952255126046 20.000000000000007
    vertex -19.999999999999996 -12.499999999999998 20.0
    vertex -25.000000000000004 -1.5414327274815081e-15 20.000000000000007
  endloop
endfacet
facet normal 3.38428597529606e-17 -4.376111859943975e-17 1.0
  outer loop
    vertex -25.000000000000004 -1.5414327274815081e-15 20.000000000000007
    vertex -19.999999999999996 -12.499999999999998 20.0
    vertex -20.0 12.5 20.000000000000004
  endloop
endfacet
facet normal 3.38428597529606e-17 -4.376111859943975e-17 1.0
  outer loop
    vertex -60.0 12.499999999999998 20.000000000000004
    vertex -32.5 4.330127018922188 20.000000000000007
    vertex -20.0 12.5 20.000000000000004
  endloop
endfacet
facet normal 3.38428597529606e-17 -4.376111859943975e-17 1.0
  outer loop
    vertex -32.5 4.330127018922188 20.000000000000007
    vertex -60.0 12.499999999999998 20.000000000000004
    vertex -33.53553390593274 3.5355339059327338 20.000000000000007
  endloop
endfacet
facet normal 3.38428597529606e-17 -4.376111859943975e-17 1.0
  outer loop
    vertex -33.53553390593274 3.5355339059327338 20.000000000000007
    vertex -60.0 12.499999999999998 20.000000000000004
    vertex -34.3301270189222 2.4999999999999942 20.000000000000007
  endloop
endfacet
facet normal 3.38428597529606e-17 -4.376111859943975e-17 1.0
  outer loop
    vertex -34.3301270189222 2.4999999999999942 20.000000000000007
    vertex -60.0 12.499999999999998 20.000000000000004
    vertex -34.829629131445344 1.2940952255125995 20.000000000000007
  endloop
endfacet
facet normal 3.38428597529606e-17 -4.376111859943975e-17 1.0
  outer loop
    vertex -34.829629131445344 1.2940952255125995 20.000000000000007
    vertex -60.0 12.499999999999998 20.000000000000004
    vertex -35.0 -2.7660795266288604e-15 20.000000000000007
  endloop
endfacet
facet normal 3.38428597529606e-17 -4.376111859943975e-17 1.0
  outer loop
    vertex -20.0 12.5 20.000000000000004
    vertex -32.5 4.330127018922188 20.000000000000007
    vertex -31.29409522551261 4.829629131445337 20.000000000000007
  endloop
endfacet
facet normal 3.38428597529606e-17 -4.376111859943975e-17 1.0
  outer loop
    vertex -20.0 12.5 20.000000000000004
    vertex -31.29409522551261 4.829629131445337 20.000000000000007
    vertex -30.0 4.9999999999999964 20.000000000000007
  endloop
endfacet
facet normal 3.38428597529606e-17 -4.376111859943975e-17 1.0
  outer loop
    vertex -20.0 12.5 20.000000000000004
    vertex -30.0 4.9999999999999964 20.000000000000007
    vertex -28.705904774487397 4.829629131445338 20.000000000000007
  endloop
endfacet
facet normal 3.38428597529606e-17 -4.376111859943975e-17 1.0
  outer loop
    vertex -20.0 12.5 20.000000000000004
    vertex -28.705904774487397 4.829629131445338 20.000000000000007
    vertex -27.5 4.33012701892219 20.000000000000007
  endloop
endfacet
facet normal 3.38428597529606e-17 -4.376111859943975e-17 1.0
  outer loop
    vertex -20.0 12.5 20.000000000000004
    vertex -27.5 4.33012701892219 20.000000000000007
    vertex -26.464466094067266 3.5355339059327346 20.000000000000007
  endloop
endfacet
facet normal 3.38428597529606e-17 -4.376111859943975e-17 1.0
  outer loop
    vertex -20.0 12.5 20.000000000000004
    vertex -26.464466094067266 3.5355339059327346 20.000000000000007
    vertex -25.669872981077813 2.4999999999999982 20.000000000000007
  endloop
endfacet
facet normal 3.38428597529606e-17 -4.376111859943975e-17 1.0
  outer loop
    vertex -20.0 12.5 20.000000000000004
    vertex -25.669872981077813 2.4999999999999982 20.000000000000007
    vertex -25.17037086855466 1.2940952255126028 20.000000000000007
  endloop
endfacet
facet normal 3.38428597529606e-17 -4.376111859943975e-17 1.0
  outer loop
    vertex -20.0 12.5 20.000000000000004
    vertex -25.17037086855466 1.2940952255126028 20.000000000000007
    vertex -25.000000000000004 -1.5414327274815081e-15 20.000000000000007
  endloop
endfacet
facet normal -0.7071067811865482 -0.7071067811865469 -3.0943783713972575e-17
  outer loop
    vertex -63.0 -9.500000000000002 20.000000000000004
    vertex -60.0 -12.500000000000002 10.000000000000002
    vertex -60.0 -12.500000000000002 20.000000000000004
  endloop
endfacet
facet normal -0.7071067811865482 -0.7071067811865469 -3.0943783713972575e-17
  outer loop
    vertex -60.0 -12.500000000000002 10.000000000000002
    vertex -63.0 -9.500000000000002 20.000000000000004
    vertex -63.0 -9.500000000000002 10.000000000000002
  endloop
endfacet
facet normal 4.948818476051515e-17 -1.0 -8.960094787133779e-17
  outer loop
    vertex -15.000000000000004 -12.499999999999998 10.0
    vertex -19.999999999999996 -12.499999999999998 20.0
    vertex -60.0 -12.500000000000002 10.000000000000002
  endloop
endfacet
facet normal 4.948818476051515e-17 -1.0 -8.960094787133779e-17
  outer loop
    vertex -19.999999999999996 -12.499999999999998 20.0
    vertex -15.000000000000004 -12.499999999999998 10.0
    vertex -15.000000000000004 -12.500000000000002 39.99999999999999
  endloop
endfacet
facet normal 4.948818476051515e-17 -1.0 -8.960094787133779e-17
  outer loop
    vertex -19.999999999999996 -12.499999999999998 20.0
    vertex -15.000000000000004 -12.500000000000002 39.99999999999999
    vertex -20.000000000000004 -12.500000000000002 44.999999999999986
  endloop
endfacet
facet normal 4.948818476051515e-17 -1.0 -8.960094787133779e-17
  outer loop
    vertex -20.000000000000004 -12.500000000000002 44.999999999999986
    vertex -15.000000000000004 -12.500000000000002 39.99999999999999
    vertex 11.999999999999998 -12.5 40.0
  endloop
endfacet
facet normal 4.948818476051515e-17 -1.0 -8.960094787133779e-17
  outer loop
    vertex -20.000000000000004 -12.500000000000002 44.999999999999986
    vertex 11.999999999999998 -12.5 40.0
    vertex 12.0 -12.5 40.60918819648706
  endloop
endfacet
facet normal 4.948818476051515e-17 -1.0 -8.960094787133779e-17
  outer loop
    vertex -20.000000000000004 -12.500000000000002 44.999999999999986
    vertex 12.0 -12.5 40.60918819648706
    vertex 11.93758354735269 -12.5 41.150197861142935
  endloop
endfacet
facet normal 4.948818476051515e-17 -1.0 -8.960094787133779e-17
  outer loop
    vertex -20.000000000000004 -12.500000000000002 44.999999999999986
    vertex 11.93758354735269 -12.5 41.150197861142935
    vertex 11.802579716995975 -12.5 41.71118794122759
  endloop
endfacet
facet normal 4.948818476051515e-17 -1.0 -8.960094787133779e-17
  outer loop
    vertex -20.000000000000004 -12.500000000000002 44.999999999999986
    vertex 11.802579716995975 -12.5 41.71118794122759
    vertex 11.600686718523372 -12.5 42.2517201986666
  endloop
endfacet
facet normal 4.948818476051515e-17 -1.0 -8.960094787133779e-17
  outer loop
    vertex -20.000000000000004 -12.500000000000002 44.999999999999986
    vertex 11.600686718523372 -12.5 42.2517201986666
    vertex 11.334871484889307 -12.5 42.76385120312976
  endloop
endfacet
facet normal 4.948818476051515e-17 -1.0 -8.960094787133779e-17
  outer loop
    vertex -20.000000000000004 -12.500000000000002 44.999999999999986
    vertex 11.334871484889307 -12.5 42.76385120312976
    vertex 11.009040322812805 -12.5 43.24005489692502
  endloop
endfacet
facet normal 4.948818476051515e-17 -1.0 -8.960094787133779e-17
  outer loop
    vertex -20.000000000000004 -12.500000000000002 44.999999999999986
    vertex 11.009040322812805 -12.5 43.24005489692502
    vertex 10.62798150736856 -12.5 43.67333319471594
  endloop
endfacet
facet normal 4.948818476051515e-17 -1.0 -8.960094787133779e-17
  outer loop
    vertex -20.000000000000004 -12.500000000000002 44.999999999999986
    vertex 10.62798150736856 -12.5 43.67333319471594
    vertex 10.197294915549184 -12.5 44.05731882438375
  endloop
endfacet
facet normal 4.948818476051515e-17 -1.0 -8.960094787133779e-17
  outer loop
    vertex -20.000000000000004 -12.500000000000002 44.999999999999986
    vertex 10.197294915549184 -12.5 44.05731882438375
    vertex 9.723309732873565 -12.5 44.38636889772872
  endloop
endfacet
facet normal 4.948818476051515e-17 -1.0 -8.960094787133779e-17
  outer loop
    vertex -20.000000000000004 -12.500000000000002 44.999999999999986
    vertex 9.723309732873565 -12.5 44.38636889772872
    vertex 9.212991442389791 -12.5 44.655647835936094
  endloop
endfacet
facet normal 4.948818476051515e-17 -1.0 -8.960094787133779e-17
  outer loop
    vertex -20.000000000000004 -12.500000000000002 44.999999999999986
    vertex 9.212991442389791 -12.5 44.655647835936094
    vertex 8.673839462922372 -12.5 44.86119843116933
  endloop
endfacet
facet normal 4.948818476051515e-17 -1.0 -8.960094787133779e-17
  outer loop
    vertex -20.000000000000004 -12.500000000000002 44.999999999999986
    vertex 8.673839462922372 -12.5 44.86119843116933
    vertex 8.113776940828172 -12.500000000000002 45.0
  endloop
endfacet
facet normal 4.948818476051515e-17 -1.0 -8.960094787133779e-17
  outer loop
    vertex -60.0 -12.500000000000002 20.000000000000004
    vertex -60.0 -12.500000000000002 10.000000000000002
    vertex -19.999999999999996 -12.499999999999998 20.0
  endloop
endfacet
facet normal -0.7071067811865482 0.7071067811865469 3.0943783713972575e-17
  outer loop
    vertex -60.0 12.499999999999998 20.000000000000004
    vertex -63.0 9.499999999999998 10.000000000000002
    vertex -63.0 9.499999999999998 20.000000000000004
  endloop
endfacet
facet normal -0.7071067811865482 0.7071067811865469 3.0943783713972575e-17
  outer loop
    vertex -63.0 9.499999999999998 10.000000000000002
    vertex -60.0 12.499999999999998 20.000000000000004
    vertex -60.0 12.499999999999998 10.000000000000002
  endloop
endfacet
facet normal -1.0 -0.0 -1.1239573795761226e-33
  outer loop
    vertex -63.0 9.499999999999998 20.000000000000004
    vertex -63.0 -9.500000000000002 10.000000000000002
    vertex -63.0 -9.500000000000002 20.000000000000004
  endloop
endfacet
facet normal -1.0 -0.0 -1.1239573795761226e-33
  outer loop
    vertex -63.0 -9.500000000000002 10.000000000000002
    vertex -63.0 9.499999999999998 20.000000000000004
    vertex -63.0 9.499999999999998 10.000000000000002
  endloop
endfacet
facet normal -0.608761429008722 -0.7933533402912342 -3.471802961574638e-17
  outer loop
    vertex -26.464466094067266 3.5355339059327346 20.000000000000007
    vertex -27.5 4.330127018922191 10.000000000000005
    vertex -26.464466094067266 3.535533905932735 10.000000000000005
  endloop
endfacet
facet normal -0.608761429008722 -0.7933533402912342 -3.471802961574638e-17
  outer loop
    vertex -27.5 4.330127018922191 10.000000000000005
    vertex -26.464466094067266 3.5355339059327346 20.000000000000007
    vertex -27.5 4.33012701892219 20.000000000000007
  endloop
endfacet
facet normal -0.7933533402912352 -0.6087614290087208 -2.6640081093615053e-17
  outer loop
    vertex -26.464466094067266 3.5355339059327346 20.000000000000007
    vertex -25.669872981077813 2.4999999999999987 10.000000000000005
    vertex -25.669872981077813 2.4999999999999982 20.000000000000007
  endloop
endfacet
facet normal -0.7933533402912352 -0.6087614290087208 -2.6640081093615053e-17
  outer loop
    vertex -25.669872981077813 2.4999999999999987 10.000000000000005
    vertex -26.464466094067266 3.5355339059327346 20.000000000000007
    vertex -26.464466094067266 3.535533905932735 10.000000000000005
  endloop
endfacet
facet normal -0.9238795325112862 -0.38268343236509134 -1.6746655069769446e-17
  outer loop
    vertex -25.669872981077813 2.4999999999999982 20.000000000000007
    vertex -25.17037086855466 1.294095225512603 10.000000000000005
    vertex -25.17037086855466 1.2940952255126028 20.000000000000007
  endloop
endfacet
facet normal -0.9238795325112862 -0.38268343236509134 -1.6746655069769446e-17
  outer loop
    vertex -25.17037086855466 1.294095225512603 10.000000000000005
    vertex -25.669872981077813 2.4999999999999982 20.000000000000007
    vertex -25.669872981077813 2.4999999999999987 10.000000000000005
  endloop
endfacet
facet normal -0.9914448613738104 -0.1305261922200517 -5.711972178074954e-18
  outer loop
    vertex -25.17037086855466 1.2940952255126028 20.000000000000007
    vertex -25.000000000000004 -1.1038215414871105e-15 10.000000000000005
    vertex -25.000000000000004 -1.5414327274815081e-15 20.000000000000007
  endloop
endfacet
facet normal -0.9914448613738104 -0.1305261922200517 -5.711972178074954e-18
  outer loop
    vertex -25.000000000000004 -1.1038215414871105e-15 10.000000000000005
    vertex -25.17037086855466 1.2940952255126028 20.000000000000007
    vertex -25.17037086855466 1.294095225512603 10.000000000000005
  endloop
endfacet
facet normal -0.9914448613738105 0.13052619222005182 5.711972178074958e-18
  outer loop
    vertex -25.000000000000004 -1.5414327274815081e-15 20.000000000000007
    vertex -25.17037086855466 -1.2940952255126041 10.000000000000005
    vertex -25.17037086855466 -1.2940952255126046 20.000000000000007
  endloop
endfacet
facet normal -0.9914448613738105 0.13052619222005182 5.711972178074958e-18
  outer loop
    vertex -25.17037086855466 -1.2940952255126041 10.000000000000005
    vertex -25.000000000000004 -1.5414327274815081e-15 20.000000000000007
    vertex -25.000000000000004 -1.1038215414871105e-15 10.000000000000005
  endloop
endfacet
facet normal -0.9238795325112862 0.38268343236509134 1.674665506976944e-17
  outer loop
    vertex -25.17037086855466 -1.2940952255126046 20.000000000000007
    vertex -25.669872981077813 -2.4999999999999996 10.000000000000005
    vertex -25.669872981077813 -2.5 20.000000000000007
  endloop
endfacet
facet normal -0.9238795325112862 0.38268343236509134 1.674665506976944e-17
  outer loop
    vertex -25.669872981077813 -2.4999999999999996 10.000000000000005
    vertex -25.17037086855466 -1.2940952255126046 20.000000000000007
    vertex -25.17037086855466 -1.2940952255126041 10.000000000000005
  endloop
endfacet
facet normal -0.7933533402912354 0.6087614290087203 2.6640081093615035e-17
  outer loop
    vertex -25.669872981077813 -2.5 20.000000000000007
    vertex -26.464466094067266 -3.5355339059327373 10.000000000000005
    vertex -26.464466094067266 -3.535533905932738 20.000000000000007
  endloop
endfacet
facet normal -0.7933533402912354 0.6087614290087203 2.6640081093615035e-17
  outer loop
    vertex -26.464466094067266 -3.5355339059327373 10.000000000000005
    vertex -25.669872981077813 -2.5 20.000000000000007
    vertex -25.669872981077813 -2.4999999999999996 10.000000000000005
  endloop
endfacet
facet normal -0.6087614290087217 0.7933533402912344 3.471802961574639e-17
  outer loop
    vertex -27.5 -4.330127018922193 20.000000000000007
    vertex -26.464466094067266 -3.5355339059327373 10.000000000000005
    vertex -27.5 -4.330127018922193 10.000000000000005
  endloop
endfacet
facet normal -0.6087614290087217 0.7933533402912344 3.471802961574639e-17
  outer loop
    vertex -26.464466094067266 -3.5355339059327373 10.000000000000005
    vertex -27.5 -4.330127018922193 20.000000000000007
    vertex -26.464466094067266 -3.535533905932738 20.000000000000007
  endloop
endfacet
facet normal -0.38268343236508956 0.9238795325112867 4.0430001793821367e-17
  outer loop
    vertex -28.705904774487397 -4.829629131445342 20.000000000000007
    vertex -27.5 -4.330127018922193 10.000000000000005
    vertex -28.705904774487397 -4.8296291314453415 10.000000000000005
  endloop
endfacet
facet normal -0.38268343236508956 0.9238795325112867 4.0430001793821367e-17
  outer loop
    vertex -27.5 -4.330127018922193 10.000000000000005
    vertex -28.705904774487397 -4.829629131445342 20.000000000000007
    vertex -27.5 -4.330127018922193 20.000000000000007
  endloop
endfacet
facet normal -0.13052619222005188 0.9914448613738104 4.338673616338442e-17
  outer loop
    vertex -30.0 -5.000000000000001 20.000000000000007
    vertex -28.705904774487397 -4.8296291314453415 10.000000000000005
    vertex -30.0 -5.0 10.000000000000005
  endloop
endfacet
facet normal -0.13052619222005188 0.9914448613738104 4.338673616338442e-17
  outer loop
    vertex -28.705904774487397 -4.8296291314453415 10.000000000000005
    vertex -30.0 -5.000000000000001 20.000000000000007
    vertex -28.705904774487397 -4.829629131445342 20.000000000000007
  endloop
endfacet
facet normal 0.13052619222005135 0.9914448613738106 4.338673616338443e-17
  outer loop
    vertex -31.294095225512603 -4.829629131445342 20.000000000000007
    vertex -30.0 -5.0 10.000000000000005
    vertex -31.294095225512603 -4.829629131445342 10.000000000000005
  endloop
endfacet
facet normal 0.13052619222005135 0.9914448613738106 4.338673616338443e-17
  outer loop
    vertex -30.0 -5.0 10.000000000000005
    vertex -31.294095225512603 -4.829629131445342 20.000000000000007
    vertex -30.0 -5.000000000000001 20.000000000000007
  endloop
endfacet
facet normal 0.3826834323650902 0.9238795325112866 4.0430001793821367e-17
  outer loop
    vertex -32.5 -4.330127018922195 20.000000000000007
    vertex -31.294095225512603 -4.829629131445342 10.000000000000005
    vertex -32.5 -4.3301270189221945 10.000000000000005
  endloop
endfacet
facet normal 0.3826834323650902 0.9238795325112866 4.0430001793821367e-17
  outer loop
    vertex -31.294095225512603 -4.829629131445342 10.000000000000005
    vertex -32.5 -4.330127018922195 20.000000000000007
    vertex -31.294095225512603 -4.829629131445342 20.000000000000007
  endloop
endfacet
facet normal 0.6087614290087197 0.7933533402912362 3.4718029615746467e-17
  outer loop
    vertex -33.53553390593274 -3.53553390593274 20.000000000000007
    vertex -32.5 -4.3301270189221945 10.000000000000005
    vertex -33.53553390593274 -3.5355339059327395 10.000000000000005
  endloop
endfacet
facet normal 0.6087614290087197 0.7933533402912362 3.4718029615746467e-17
  outer loop
    vertex -32.5 -4.3301270189221945 10.000000000000005
    vertex -33.53553390593274 -3.53553390593274 20.000000000000007
    vertex -32.5 -4.330127018922195 20.000000000000007
  endloop
endfacet
facet normal 0.7933533402912352 0.6087614290087208 2.6640081093615053e-17
  outer loop
    vertex -33.53553390593274 -3.5355339059327395 10.000000000000005
    vertex -34.33012701892219 -2.500000000000003 20.000000000000007
    vertex -33.53553390593274 -3.53553390593274 20.000000000000007
  endloop
endfacet
facet normal 0.7933533402912352 0.6087614290087208 2.6640081093615053e-17
  outer loop
    vertex -34.33012701892219 -2.500000000000003 20.000000000000007
    vertex -33.53553390593274 -3.5355339059327395 10.000000000000005
    vertex -34.33012701892219 -2.5000000000000027 10.000000000000005
  endloop
endfacet
facet normal 0.9238795325112867 0.38268343236508984 1.6746655069769378e-17
  outer loop
    vertex -34.33012701892219 -2.5000000000000027 10.000000000000005
    vertex -34.82962913144534 -1.2940952255126088 20.000000000000007
    vertex -34.33012701892219 -2.500000000000003 20.000000000000007
  endloop
endfacet
facet normal 0.9238795325112867 0.38268343236508984 1.6746655069769378e-17
  outer loop
    vertex -34.82962913144534 -1.2940952255126088 20.000000000000007
    vertex -34.33012701892219 -2.5000000000000027 10.000000000000005
    vertex -34.82962913144534 -1.2940952255126086 10.000000000000005
  endloop
endfacet
facet normal 0.99144486137381 0.13052619222005576 5.711972178075131e-18
  outer loop
    vertex -34.82962913144534 -1.2940952255126086 10.000000000000005
    vertex -35.0 -2.7660795266288604e-15 20.000000000000007
    vertex -34.82962913144534 -1.2940952255126088 20.000000000000007
  endloop
endfacet
facet normal 0.99144486137381 0.13052619222005576 5.711972178075131e-18
  outer loop
    vertex -35.0 -2.7660795266288604e-15 20.000000000000007
    vertex -34.82962913144534 -1.2940952255126086 10.000000000000005
    vertex -35.0 -2.328468340634463e-15 10.000000000000005
  endloop
endfacet
facet normal 0.9914448613738104 -0.1305261922200519 -5.7119721780749616e-18
  outer loop
    vertex -35.0 -2.328468340634463e-15 10.000000000000005
    vertex -34.829629131445344 1.2940952255125995 20.000000000000007
    vertex -35.0 -2.7660795266288604e-15 20.000000000000007
  endloop
endfacet
facet normal 0.9914448613738104 -0.1305261922200519 -5.7119721780749616e-18
  outer loop
    vertex -34.829629131445344 1.2940952255125995 20.000000000000007
    vertex -35.0 -2.328468340634463e-15 10.000000000000005
    vertex -34.829629131445344 1.2940952255125997 10.000000000000005
  endloop
endfacet
facet normal 0.923879532511287 -0.3826834323650897 -1.6746655069769366e-17
  outer loop
    vertex -34.829629131445344 1.2940952255125997 10.000000000000005
    vertex -34.3301270189222 2.4999999999999942 20.000000000000007
    vertex -34.829629131445344 1.2940952255125995 20.000000000000007
  endloop
endfacet
facet normal 0.923879532511287 -0.3826834323650897 -1.6746655069769366e-17
  outer loop
    vertex -34.3301270189222 2.4999999999999942 20.000000000000007
    vertex -34.829629131445344 1.2940952255125997 10.000000000000005
    vertex -34.3301270189222 2.4999999999999947 10.000000000000005
  endloop
endfacet
facet normal 0.793353340291234 -0.6087614290087223 -2.664008109361512e-17
  outer loop
    vertex -34.3301270189222 2.4999999999999947 10.000000000000005
    vertex -33.53553390593274 3.5355339059327338 20.000000000000007
    vertex -34.3301270189222 2.4999999999999942 20.000000000000007
  endloop
endfacet
facet normal 0.793353340291234 -0.6087614290087223 -2.664008109361512e-17
  outer loop
    vertex -33.53553390593274 3.5355339059327338 20.000000000000007
    vertex -34.3301270189222 2.4999999999999947 10.000000000000005
    vertex -33.53553390593274 3.5355339059327346 10.000000000000005
  endloop
endfacet
facet normal 0.6087614290087214 -0.7933533402912347 -3.4718029615746405e-17
  outer loop
    vertex -32.5 4.330127018922188 20.000000000000007
    vertex -33.53553390593274 3.5355339059327346 10.000000000000005
    vertex -32.5 4.330127018922189 10.000000000000005
  endloop
endfacet
facet normal 0.6087614290087214 -0.7933533402912347 -3.4718029615746405e-17
  outer loop
    vertex -33.53553390593274 3.5355339059327346 10.000000000000005
    vertex -32.5 4.330127018922188 20.000000000000007
    vertex -33.53553390593274 3.5355339059327338 20.000000000000007
  endloop
endfacet
facet normal 0.38268343236509117 -0.9238795325112863 -4.043000179382135e-17
  outer loop
    vertex -31.29409522551261 4.829629131445337 20.000000000000007
    vertex -32.5 4.330127018922189 10.000000000000005
    vertex -31.29409522551261 4.829629131445338 10.000000000000005
  endloop
endfacet
facet normal 0.38268343236509117 -0.9238795325112863 -4.043000179382135e-17
  outer loop
    vertex -32.5 4.330127018922189 10.000000000000005
    vertex -31.29409522551261 4.829629131445337 20.000000000000007
    vertex -32.5 4.330127018922188 20.000000000000007
  endloop
endfacet
facet normal 0.13052619222005185 -0.9914448613738104 -4.338673616338442e-17
  outer loop
    vertex -30.0 4.9999999999999964 20.000000000000007
    vertex -31.29409522551261 4.829629131445338 10.000000000000005
    vertex -30.0 4.999999999999997 10.000000000000005
  endloop
endfacet
facet normal 0.13052619222005185 -0.9914448613738104 -4.338673616338442e-17
  outer loop
    vertex -31.29409522551261 4.829629131445338 10.000000000000005
    vertex -30.0 4.9999999999999964 20.000000000000007
    vertex -31.29409522551261 4.829629131445337 20.000000000000007
  endloop
endfacet
facet normal -0.13052619222005188 -0.9914448613738104 -4.338673616338442e-17
  outer loop
    vertex -28.705904774487397 4.829629131445338 20.000000000000007
    vertex -30.0 4.999999999999997 10.000000000000005
    vertex -28.705904774487397 4.829629131445339 10.000000000000005
  endloop
endfacet
facet normal -0.13052619222005188 -0.9914448613738104 -4.338673616338442e-17
  outer loop
    vertex -30.0 4.999999999999997 10.000000000000005
    vertex -28.705904774487397 4.829629131445338 20.000000000000007
    vertex -30.0 4.9999999999999964 20.000000000000007
  endloop
endfacet
facet normal -0.3826834323650887 -0.9238795325112873 -4.043000179382139e-17
  outer loop
    vertex -27.5 4.33012701892219 20.000000000000007
    vertex -28.705904774487397 4.829629131445339 10.000000000000005
    vertex -27.5 4.330127018922191 10.000000000000005
  endloop
endfacet
facet normal -0.3826834323650887 -0.9238795325112873 -4.043000179382139e-17
  outer loop
    vertex -28.705904774487397 4.829629131445339 10.000000000000005
    vertex -27.5 4.33012701892219 20.000000000000007
    vertex -28.705904774487397 4.829629131445338 20.000000000000007
  endloop
endfacet
facet normal -1.0 -1.127986593019159e-16 -1.27235375403097e-32
  outer loop
    vertex -20.000000000000007 12.499999999999996 45.0
    vertex -19.999999999999996 -12.499999999999998 20.0
    vertex -20.000000000000004 -12.500000000000002 44.999999999999986
  endloop
endfacet
facet normal -1.0 -1.127986593019159e-16 -1.27235375403097e-32
  outer loop
    vertex -19.999999999999996 -12.499999999999998 20.0
    vertex -20.000000000000007 12.499999999999996 45.0
    vertex -20.0 12.5 20.000000000000004
  endloop
endfacet
facet normal -4.167821365328046e-16 1.0 -3.612713455620587e-16
  outer loop
    vertex 8.113776940828172 -2.1740799788611813 45.0
    vertex 12.0 -2.1740799788611813 40.0
    vertex 8.113776940828172 -2.174079978861181 40.0
  endloop
endfacet
facet normal -4.167821365328046e-16 1.0 -3.612713455620587e-16
  outer loop
    vertex 12.0 -2.1740799788611813 40.0
    vertex 8.113776940828172 -2.1740799788611813 45.0
    vertex 12.003714251178474 -2.1740799788611804 40.57699402813422
  endloop
endfacet
facet normal -4.167821365328046e-16 1.0 -3.612713455620587e-16
  outer loop
    vertex 12.003714251178474 -2.1740799788611804 40.57699402813422
    vertex 8.113776940828172 -2.1740799788611813 45.0
    vertex 12.0 -2.174079978861181 40.60918819648706
  endloop
endfacet
facet normal -4.167821365328046e-16 1.0 -3.612713455620587e-16
  outer loop
    vertex 12.0 -2.174079978861181 40.60918819648706
    vertex 8.113776940828172 -2.1740799788611813 45.0
    vertex 11.93758354735269 -2.17407997886118 41.150197861142935
  endloop
endfacet
facet normal -4.167821365328046e-16 1.0 -3.612713455620587e-16
  outer loop
    vertex 11.93758354735269 -2.17407997886118 41.150197861142935
    vertex 8.113776940828172 -2.1740799788611813 45.0
    vertex 11.802579716995975 -2.1740799788611795 41.71118794122759
  endloop
endfacet
facet normal -4.167821365328046e-16 1.0 -3.612713455620587e-16
  outer loop
    vertex 11.802579716995975 -2.1740799788611795 41.71118794122759
    vertex 8.113776940828172 -2.1740799788611813 45.0
    vertex 11.600686718523372 -2.174079978861179 42.2517201986666
  endloop
endfacet
facet normal -4.167821365328046e-16 1.0 -3.612713455620587e-16
  outer loop
    vertex 11.600686718523372 -2.174079978861179 42.2517201986666
    vertex 8.113776940828172 -2.1740799788611813 45.0
    vertex 11.334871484889307 -2.1740799788611787 42.76385120312976
  endloop
endfacet
facet normal -4.167821365328046e-16 1.0 -3.612713455620587e-16
  outer loop
    vertex 11.334871484889307 -2.1740799788611787 42.76385120312976
    vertex 8.113776940828172 -2.1740799788611813 45.0
    vertex 11.009040322812805 -2.1740799788611787 43.24005489692502
  endloop
endfacet
facet normal -4.167821365328046e-16 1.0 -3.612713455620587e-16
  outer loop
    vertex 11.009040322812805 -2.1740799788611787 43.24005489692502
    vertex 8.113776940828172 -2.1740799788611813 45.0
    vertex 10.62798150736856 -2.1740799788611787 43.67333319471594
  endloop
endfacet
facet normal -4.167821365328046e-16 1.0 -3.612713455620587e-16
  outer loop
    vertex 10.62798150736856 -2.1740799788611787 43.67333319471594
    vertex 8.113776940828172 -2.1740799788611813 45.0
    vertex 10.197294915549184 -2.174079978861179 44.05731882438375
  endloop
endfacet
facet normal -4.167821365328046e-16 1.0 -3.612713455620587e-16
  outer loop
    vertex 10.197294915549184 -2.174079978861179 44.05731882438375
    vertex 8.113776940828172 -2.1740799788611813 45.0
    vertex 9.723309732873565 -2.1740799788611795 44.38636889772872
  endloop
endfacet
facet normal -4.167821365328046e-16 1.0 -3.612713455620587e-16
  outer loop
    vertex 9.723309732873565 -2.1740799788611795 44.38636889772872
    vertex 8.113776940828172 -2.1740799788611813 45.0
    vertex 9.212991442389791 -2.17407997886118 44.655647835936094
  endloop
endfacet
facet normal -4.167821365328046e-16 1.0 -3.612713455620587e-16
  outer loop
    vertex 9.212991442389791 -2.17407997886118 44.655647835936094
    vertex 8.113776940828172 -2.1740799788611813 45.0
    vertex 8.673839462922372 -2.1740799788611804 44.86119843116933
  endloop
endfacet
facet normal -0.9238795325112867 0.3826834323650903 1.7131576936548028e-17
  outer loop
    vertex 8.113776940828172 -2.1740799788611813 45.0
    vertex 7.274613391789283 -4.200000000000005 40.0
    vertex 7.274613391789283 -4.200000000000005 45.0
  endloop
endfacet
facet normal -0.9238795325112867 0.3826834323650903 1.7131576936548028e-17
  outer loop
    vertex 7.274613391789283 -4.200000000000005 40.0
    vertex 8.113776940828172 -2.1740799788611813 45.0
    vertex 8.113776940828172 -2.174079978861181 40.0
  endloop
endfacet
facet normal -0.7933533402912348 0.6087614290087213 -1.0375784665401631e-17
  outer loop
    vertex 7.274613391789283 -4.200000000000005 45.0
    vertex 5.9396969619669955 -5.9396969619670035 40.0
    vertex 5.9396969619669955 -5.9396969619670035 45.0
  endloop
endfacet
facet normal -0.7933533402912348 0.6087614290087213 -1.0375784665401631e-17
  outer loop
    vertex 5.9396969619669955 -5.9396969619670035 40.0
    vertex 7.274613391789283 -4.200000000000005 45.0
    vertex 7.274613391789283 -4.200000000000005 40.0
  endloop
endfacet
facet normal -0.6087614290087187 0.7933533402912368 6.788119568885592e-18
  outer loop
    vertex 5.535302169532676 -6.250000000000005 45.0
    vertex 5.9396969619669955 -5.9396969619670035 40.0
    vertex 5.535302169532676 -6.250000000000005 40.0
  endloop
endfacet
facet normal -0.6087614290087187 0.7933533402912368 6.788119568885592e-18
  outer loop
    vertex 5.9396969619669955 -5.9396969619670035 40.0
    vertex 5.535302169532676 -6.250000000000005 45.0
    vertex 5.9396969619669955 -5.9396969619670035 45.0
  endloop
endfacet
facet normal -0.6087614290087208 0.7933533402912352 6.78811956888542e-18
  outer loop
    vertex 4.199999999999995 -7.274613391789289 45.0
    vertex 5.535302169532676 -6.250000000000005 40.0
    vertex 4.199999999999995 -7.274613391789289 40.0
  endloop
endfacet
facet normal -0.6087614290087208 0.7933533402912352 6.78811956888542e-18
  outer loop
    vertex 5.535302169532676 -6.250000000000005 40.0
    vertex 4.199999999999995 -7.274613391789289 45.0
    vertex 5.535302169532676 -6.250000000000005 45.0
  endloop
endfacet
facet normal -0.382683432365089 0.9238795325112872 2.348942467245103e-17
  outer loop
    vertex 2.17407997886117 -8.113776940828176 45.0
    vertex 4.199999999999995 -7.274613391789289 40.0
    vertex 2.17407997886117 -8.113776940828176 40.0
  endloop
endfacet
facet normal -0.382683432365089 0.9238795325112872 2.348942467245103e-17
  outer loop
    vertex 4.199999999999995 -7.274613391789289 40.0
    vertex 2.17407997886117 -8.113776940828176 45.0
    vertex 4.199999999999995 -7.274613391789289 45.0
  endloop
endfacet
facet normal -0.13052619222005116 0.9914448613738105 3.858996430269868e-17
  outer loop
    vertex -1.781909275088695e-15 -8.4 45.0
    vertex 2.17407997886117 -8.113776940828176 40.0
    vertex -1.5430549669256649e-15 -8.4 40.0
  endloop
endfacet
facet normal -0.13052619222005116 0.9914448613738105 3.858996430269868e-17
  outer loop
    vertex 2.17407997886117 -8.113776940828176 40.0
    vertex -1.781909275088695e-15 -8.4 45.0
    vertex 2.17407997886117 -8.113776940828176 45.0
  endloop
endfacet
facet normal 0.13052619222005196 0.9914448613738104 5.106066163864873e-17
  outer loop
    vertex -2.174079978861181 -8.113776940828172 45.0
    vertex -1.5430549669256649e-15 -8.4 40.0
    vertex -2.1740799788611804 -8.113776940828172 40.0
  endloop
endfacet
facet normal 0.13052619222005196 0.9914448613738104 5.106066163864873e-17
  outer loop
    vertex -1.5430549669256649e-15 -8.4 40.0
    vertex -2.174079978861181 -8.113776940828172 45.0
    vertex -1.781909275088695e-15 -8.4 45.0
  endloop
endfacet
facet normal 0.38268343236509034 0.9238795325112867 6.005165926565796e-17
  outer loop
    vertex -4.200000000000004 -7.274613391789283 45.0
    vertex -2.1740799788611804 -8.113776940828172 40.0
    vertex -4.200000000000004 -7.274613391789283 40.0
  endloop
endfacet
facet normal 0.38268343236509034 0.9238795325112867 6.005165926565796e-17
  outer loop
    vertex -2.1740799788611804 -8.113776940828172 40.0
    vertex -4.200000000000004 -7.274613391789283 45.0
    vertex -2.174079978861181 -8.113776940828172 45.0
  endloop
endfacet
facet normal 0.6087614290087211 0.7933533402912347 6.495023555377172e-17
  outer loop
    vertex -5.939696961967003 -5.939696961966996 45.0
    vertex -4.200000000000004 -7.274613391789283 40.0
    vertex -5.939696961967003 -5.939696961966996 40.0
  endloop
endfacet
facet normal 0.6087614290087211 0.7933533402912347 6.495023555377172e-17
  outer loop
    vertex -4.200000000000004 -7.274613391789283 40.0
    vertex -5.939696961967003 -5.939696961966996 45.0
    vertex -4.200000000000004 -7.274613391789283 45.0
  endloop
endfacet
facet normal 0.7933533402912356 0.6087614290087203 6.542256062423522e-17
  outer loop
    vertex -7.274613391789286 -4.1999999999999975 40.0
    vertex -5.939696961967003 -5.939696961966996 45.0
    vertex -5.939696961967003 -5.939696961966996 40.0
  endloop
endfacet
facet normal 0.7933533402912356 0.6087614290087203 6.542256062423522e-17
  outer loop
    vertex -5.939696961967003 -5.939696961966996 45.0
    vertex -7.274613391789286 -4.1999999999999975 40.0
    vertex -7.274613391789286 -4.1999999999999975 45.0
  endloop
endfacet
facet normal 0.923879532511287 0.3826834323650897 6.14364463040504e-17
  outer loop
    vertex -8.113776940828176 -2.174079978861171 40.0
    vertex -7.274613391789286 -4.1999999999999975 45.0
    vertex -7.274613391789286 -4.1999999999999975 40.0
  endloop
endfacet
facet normal 0.923879532511287 0.3826834323650897 6.14364463040504e-17
  outer loop
    vertex -7.274613391789286 -4.1999999999999975 45.0
    vertex -8.113776940828176 -2.174079978861171 40.0
    vertex -8.113776940828176 -2.1740799788611715 45.0
  endloop
endfacet
facet normal 0.9914448613738106 0.13052619222005113 5.326353969677249e-17
  outer loop
    vertex -8.113776940828176 -2.174079978861171 40.0
    vertex -8.4 8.026427671373235e-16 45.0
    vertex -8.113776940828176 -2.1740799788611715 45.0
  endloop
endfacet
facet normal 0.9914448613738106 0.13052619222005113 5.326353969677249e-17
  outer loop
    vertex -8.4 8.026427671373235e-16 45.0
    vertex -8.113776940828176 -2.174079978861171 40.0
    vertex -8.4 1.0287033112837768e-15 40.0
  endloop
endfacet
facet normal 0.9914448613738106 -0.13052619222005155 4.1460810881320755e-17
  outer loop
    vertex -8.4 1.0287033112837768e-15 40.0
    vertex -8.113776940828174 2.1740799788611764 45.0
    vertex -8.4 8.026427671373235e-16 45.0
  endloop
endfacet
facet normal 0.9914448613738106 -0.13052619222005155 4.1460810881320755e-17
  outer loop
    vertex -8.113776940828174 2.1740799788611764 45.0
    vertex -8.4 1.0287033112837768e-15 40.0
    vertex -8.113776940828174 2.174079978861177 40.0
  endloop
endfacet
facet normal 0.9238795325112866 -0.38268343236509034 2.683259632153652e-17
  outer loop
    vertex -8.113776940828174 2.174079978861177 40.0
    vertex -7.274613391789283 4.200000000000003 45.0
    vertex -8.113776940828174 2.1740799788611764 45.0
  endloop
endfacet
facet normal 0.9238795325112866 -0.38268343236509034 2.683259632153652e-17
  outer loop
    vertex -7.274613391789283 4.200000000000003 45.0
    vertex -8.113776940828174 2.174079978861177 40.0
    vertex -7.274613391789283 4.200000000000003 40.0
  endloop
endfacet
facet normal 0.793353340291235 -0.6087614290087208 1.0375784665401676e-17
  outer loop
    vertex -5.939696961966999 5.939696961967 40.0
    vertex -7.274613391789283 4.200000000000003 45.0
    vertex -7.274613391789283 4.200000000000003 40.0
  endloop
endfacet
facet normal 0.793353340291235 -0.6087614290087208 1.0375784665401676e-17
  outer loop
    vertex -7.274613391789283 4.200000000000003 45.0
    vertex -5.939696961966999 5.939696961967 40.0
    vertex -5.939696961966999 5.939696961967 45.0
  endloop
endfacet
facet normal 0.6087614290087204 -0.7933533402912353 -6.788119568885441e-18
  outer loop
    vertex -4.1999999999999975 7.274613391789286 45.0
    vertex -5.939696961966999 5.939696961967 40.0
    vertex -4.1999999999999975 7.274613391789286 40.0
  endloop
endfacet
facet normal 0.6087614290087204 -0.7933533402912353 -6.788119568885441e-18
  outer loop
    vertex -5.939696961966999 5.939696961967 40.0
    vertex -4.1999999999999975 7.274613391789286 45.0
    vertex -5.939696961966999 5.939696961967 45.0
  endloop
endfacet
facet normal 0.38268343236508945 -0.9238795325112868 -2.3489424672451e-17
  outer loop
    vertex -2.1740799788611738 8.113776940828174 45.0
    vertex -4.1999999999999975 7.274613391789286 40.0
    vertex -2.1740799788611733 8.113776940828174 40.0
  endloop
endfacet
facet normal 0.38268343236508945 -0.9238795325112868 -2.3489424672451e-17
  outer loop
    vertex -4.1999999999999975 7.274613391789286 40.0
    vertex -2.1740799788611738 8.113776940828174 45.0
    vertex -4.1999999999999975 7.274613391789286 45.0
  endloop
endfacet
facet normal 0.13052619222005166 -0.9914448613738105 -3.858996430269865e-17
  outer loop
    vertex 2.7549734747885786e-16 8.4 45.0
    vertex -2.1740799788611733 8.113776940828174 40.0
    vertex 5.143516556418884e-16 8.4 40.0
  endloop
endfacet
facet normal 0.13052619222005166 -0.9914448613738105 -3.858996430269865e-17
  outer loop
    vertex -2.1740799788611733 8.113776940828174 40.0
    vertex 2.7549734747885786e-16 8.4 45.0
    vertex -2.1740799788611738 8.113776940828174 45.0
  endloop
endfacet
facet normal -0.13052619222005155 -0.9914448613738106 -5.1060661638648727e-17
  outer loop
    vertex 2.1740799788611755 8.113776940828174 45.0
    vertex 5.143516556418884e-16 8.4 40.0
    vertex 2.174079978861176 8.113776940828174 40.0
  endloop
endfacet
facet normal -0.13052619222005155 -0.9914448613738106 -5.1060661638648727e-17
  outer loop
    vertex 5.143516556418884e-16 8.4 40.0
    vertex 2.1740799788611755 8.113776940828174 45.0
    vertex 2.7549734747885786e-16 8.4 45.0
  endloop
endfacet
facet normal -0.38268343236509 -0.9238795325112867 -6.005165926565794e-17
  outer loop
    vertex 4.200000000000001 7.274613391789284 45.0
    vertex 2.174079978861176 8.113776940828174 40.0
    vertex 4.200000000000001 7.274613391789284 40.0
  endloop
endfacet
facet normal -0.38268343236509 -0.9238795325112867 -6.005165926565794e-17
  outer loop
    vertex 2.174079978861176 8.113776940828174 40.0
    vertex 4.200000000000001 7.274613391789284 45.0
    vertex 2.1740799788611755 8.113776940828174 45.0
  endloop
endfacet
facet normal -0.6087614290087208 -0.7933533402912352 -6.495023555377173e-17
  outer loop
    vertex 5.5353021695326845 6.249999999999999 45.0
    vertex 4.200000000000001 7.274613391789284 40.0
    vertex 5.5353021695326845 6.249999999999999 40.0
  endloop
endfacet
facet normal -0.6087614290087208 -0.7933533402912352 -6.495023555377173e-17
  outer loop
    vertex 4.200000000000001 7.274613391789284 40.0
    vertex 5.5353021695326845 6.249999999999999 45.0
    vertex 4.200000000000001 7.274613391789284 45.0
  endloop
endfacet
facet normal -0.6087614290087219 -0.7933533402912342 -6.495023555377173e-17
  outer loop
    vertex 5.939696961967001 5.939696961966997 45.0
    vertex 5.5353021695326845 6.249999999999999 40.0
    vertex 5.939696961967001 5.939696961966997 40.0
  endloop
endfacet
facet normal -0.6087614290087219 -0.7933533402912342 -6.495023555377173e-17
  outer loop
    vertex 5.5353021695326845 6.249999999999999 40.0
    vertex 5.939696961967001 5.939696961966997 45.0
    vertex 5.5353021695326845 6.249999999999999 45.0
  endloop
endfacet
facet normal -0.7933533402912354 -0.6087614290087203 -6.542256062423522e-17
  outer loop
    vertex 5.939696961967001 5.939696961966997 45.0
    vertex 7.274613391789289 4.199999999999994 40.0
    vertex 7.274613391789289 4.199999999999994 45.0
  endloop
endfacet
facet normal -0.7933533402912354 -0.6087614290087203 -6.542256062423522e-17
  outer loop
    vertex 7.274613391789289 4.199999999999994 40.0
    vertex 5.939696961967001 5.939696961966997 45.0
    vertex 5.939696961967001 5.939696961966997 40.0
  endloop
endfacet
facet normal -0.9238795325112871 -0.38268343236508906 -1.7131576936547976e-17
  outer loop
    vertex 7.274613391789289 4.199999999999994 45.0
    vertex 8.113776940828176 2.17407997886117 40.0
    vertex 8.113776940828176 2.1740799788611698 45.0
  endloop
endfacet
facet normal -0.9238795325112871 -0.38268343236508906 -1.7131576936547976e-17
  outer loop
    vertex 8.113776940828176 2.17407997886117 40.0
    vertex 7.274613391789289 4.199999999999994 45.0
    vertex 7.274613391789289 4.199999999999994 40.0
  endloop
endfacet
facet normal 7.326900990878115e-17 1.0 9.96915131015366e-17
  outer loop
    vertex -60.0 12.499999999999998 20.000000000000004
    vertex -15.0 12.5 10.000000000000004
    vertex -60.0 12.499999999999998 10.000000000000002
  endloop
endfacet
facet normal 7.326900990878115e-17 1.0 9.96915131015366e-17
  outer loop
    vertex -15.0 12.5 10.000000000000004
    vertex -60.0 12.499999999999998 20.000000000000004
    vertex -20.0 12.5 20.000000000000004
  endloop
endfacet
facet normal 7.326900990878115e-17 1.0 9.96915131015366e-17
  outer loop
    vertex -15.0 12.5 10.000000000000004
    vertex -20.0 12.5 20.000000000000004
    vertex -15.0 12.499999999999998 40.0
  endloop
endfacet
facet normal 7.326900990878115e-17 1.0 9.96915131015366e-17
  outer loop
    vertex -15.0 12.499999999999998 40.0
    vertex -20.0 12.5 20.000000000000004
    vertex -20.000000000000007 12.499999999999996 45.0
  endloop
endfacet
facet normal 7.326900990878115e-17 1.0 9.96915131015366e-17
  outer loop
    vertex -15.0 12.499999999999998 40.0
    vertex -20.000000000000007 12.499999999999996 45.0
    vertex 11.999999999999998 12.5 40.0
  endloop
endfacet
facet normal 7.326900990878115e-17 1.0 9.96915131015366e-17
  outer loop
    vertex 11.999999999999998 12.5 40.0
    vertex -20.000000000000007 12.499999999999996 45.0
    vertex 11.996082107171867 12.499999999999991 40.57493374978486
  endloop
endfacet
facet normal 7.326900990878115e-17 1.0 9.96915131015366e-17
  outer loop
    vertex 11.996082107171867 12.499999999999991 40.57493374978486
    vertex -20.000000000000007 12.499999999999996 45.0
    vertex 11.923998759468798 12.499999999999991 41.145344266439146
  endloop
endfacet
facet normal 7.326900990878115e-17 1.0 9.96915131015366e-17
  outer loop
    vertex 11.923998759468798 12.499999999999991 41.145344266439146
    vertex -20.000000000000007 12.499999999999996 45.0
    vertex 11.784767647905007 12.499999999999991 41.703178349387294
  endloop
endfacet
facet normal 7.326900990878115e-17 1.0 9.96915131015366e-17
  outer loop
    vertex 11.784767647905007 12.499999999999991 41.703178349387294
    vertex -20.000000000000007 12.499999999999996 45.0
    vertex 11.580354472682442 12.499999999999993 42.240560355339596
  endloop
endfacet
facet normal 7.326900990878115e-17 1.0 9.96915131015366e-17
  outer loop
    vertex 11.580354472682442 12.499999999999993 42.240560355339596
    vertex -20.000000000000007 12.499999999999996 45.0
    vertex 11.313645190935993 12.499999999999993 42.749903388624816
  endloop
endfacet
facet normal 7.326900990878115e-17 1.0 9.96915131015366e-17
  outer loop
    vertex 11.313645190935993 12.499999999999993 42.749903388624816
    vertex -20.000000000000007 12.499999999999996 45.0
    vertex 10.988405272057546 12.499999999999993 43.22401641491056
  endloop
endfacet
facet normal 7.326900990878115e-17 1.0 9.96915131015366e-17
  outer loop
    vertex 10.988405272057546 12.499999999999993 43.22401641491056
    vertex -20.000000000000007 12.499999999999996 45.0
    vertex 10.609226535842552 12.499999999999993 43.656205786052766
  endloop
endfacet
facet normal 7.326900990878115e-17 1.0 9.96915131015366e-17
  outer loop
    vertex 10.609226535842552 12.499999999999993 43.656205786052766
    vertex -20.000000000000007 12.499999999999996 45.0
    vertex 10.181462324011708 12.499999999999993 44.04036974272052
  endloop
endfacet
facet normal 7.326900990878115e-17 1.0 9.96915131015366e-17
  outer loop
    vertex 10.181462324011708 12.499999999999993 44.04036974272052
    vertex -20.000000000000007 12.499999999999996 45.0
    vertex 9.711151920372625 12.499999999999991 44.37108456058439
  endloop
endfacet
facet normal 7.326900990878115e-17 1.0 9.96915131015366e-17
  outer loop
    vertex 9.711151920372625 12.499999999999991 44.37108456058439
    vertex -20.000000000000007 12.499999999999996 45.0
    vertex 9.204935286676882 12.499999999999991 44.64368112383426
  endloop
endfacet
facet normal 7.326900990878115e-17 1.0 9.96915131015366e-17
  outer loop
    vertex 9.204935286676882 12.499999999999991 44.64368112383426
    vertex -20.000000000000007 12.499999999999996 45.0
    vertex 8.669959317953252 12.49999999999999 44.854310844942425
  endloop
endfacet
facet normal 7.326900990878115e-17 1.0 9.96915131015366e-17
  outer loop
    vertex 8.669959317953252 12.49999999999999 44.854310844942425
    vertex -20.000000000000007 12.499999999999996 45.0
    vertex 8.113776940828174 12.499999999999988 45.0
  endloop
endfacet
facet normal -2.2919832365887415e-16 -1.1356514834313303e-16 1.0
  outer loop
    vertex -20.000000000000004 -12.500000000000002 44.999999999999986
    vertex -8.113776940828176 -2.1740799788611715 45.0
    vertex -8.4 8.026427671373235e-16 45.0
  endloop
endfacet
facet normal -2.2919832365887415e-16 -1.1356514834313303e-16 1.0
  outer loop
    vertex -8.113776940828176 -2.1740799788611715 45.0
    vertex -20.000000000000004 -12.500000000000002 44.999999999999986
    vertex -7.274613391789286 -4.1999999999999975 45.0
  endloop
endfacet
facet normal -2.2919832365887415e-16 -1.1356514834313303e-16 1.0
  outer loop
    vertex -7.274613391789286 -4.1999999999999975 45.0
    vertex -20.000000000000004 -12.500000000000002 44.999999999999986
    vertex -5.939696961967003 -5.939696961966996 45.0
  endloop
endfacet
facet normal -2.2919832365887415e-16 -1.1356514834313303e-16 1.0
  outer loop
    vertex -5.939696961967003 -5.939696961966996 45.0
    vertex -20.000000000000004 -12.500000000000002 44.999999999999986
    vertex -4.200000000000004 -7.274613391789283 45.0
  endloop
endfacet
facet normal -2.2919832365887415e-16 -1.1356514834313303e-16 1.0
  outer loop
    vertex -4.200000000000004 -7.274613391789283 45.0
    vertex -20.000000000000004 -12.500000000000002 44.999999999999986
    vertex 8.113776940828172 -12.500000000000002 45.0
  endloop
endfacet
facet normal -2.2919832365887415e-16 -1.1356514834313303e-16 1.0
  outer loop
    vertex -4.200000000000004 -7.274613391789283 45.0
    vertex 8.113776940828172 -12.500000000000002 45.0
    vertex -2.174079978861181 -8.113776940828172 45.0
  endloop
endfacet
facet normal -2.2919832365887415e-16 -1.1356514834313303e-16 1.0
  outer loop
    vertex -2.174079978861181 -8.113776940828172 45.0
    vertex 8.113776940828172 -12.500000000000002 45.0
    vertex -1.781909275088695e-15 -8.4 45.0
  endloop
endfacet
facet normal -2.2919832365887415e-16 -1.1356514834313303e-16 1.0
  outer loop
    vertex -1.781909275088695e-15 -8.4 45.0
    vertex 8.113776940828172 -12.500000000000002 45.0
    vertex 2.17407997886117 -8.113776940828176 45.0
  endloop
endfacet
facet normal -2.2919832365887415e-16 -1.1356514834313303e-16 1.0
  outer loop
    vertex 2.17407997886117 -8.113776940828176 45.0
    vertex 8.113776940828172 -12.500000000000002 45.0
    vertex 4.199999999999995 -7.274613391789289 45.0
  endloop
endfacet
facet normal -2.2919832365887415e-16 -1.1356514834313303e-16 1.0
  outer loop
    vertex 4.199999999999995 -7.274613391789289 45.0
    vertex 8.113776940828172 -12.500000000000002 45.0
    vertex 5.535302169532676 -6.250000000000005 45.0
  endloop
endfacet
facet normal -2.2919832365887415e-16 -1.1356514834313303e-16 1.0
  outer loop
    vertex 5.535302169532676 -6.250000000000005 45.0
    vertex 8.113776940828172 -12.500000000000002 45.0
    vertex 5.9396969619669955 -5.9396969619670035 45.0
  endloop
endfacet
facet normal -2.2919832365887415e-16 -1.1356514834313303e-16 1.0
  outer loop
    vertex 5.9396969619669955 -5.9396969619670035 45.0
    vertex 8.113776940828172 -12.500000000000002 45.0
    vertex 7.274613391789283 -4.200000000000005 45.0
  endloop
endfacet
facet normal -2.2919832365887415e-16 -1.1356514834313303e-16 1.0
  outer loop
    vertex 7.274613391789283 -4.200000000000005 45.0
    vertex 8.113776940828172 -12.500000000000002 45.0
    vertex 8.113776940828172 -2.1740799788611813 45.0
  endloop
endfacet
facet normal -2.2919832365887415e-16 -1.1356514834313303e-16 1.0
  outer loop
    vertex -20.000000000000007 12.499999999999996 45.0
    vertex -4.1999999999999975 7.274613391789286 45.0
    vertex 8.113776940828174 12.499999999999988 45.0
  endloop
endfacet
facet normal -2.2919832365887415e-16 -1.1356514834313303e-16 1.0
  outer loop
    vertex -4.1999999999999975 7.274613391789286 45.0
    vertex -20.000000000000007 12.499999999999996 45.0
    vertex -5.939696961966999 5.939696961967 45.0
  endloop
endfacet
facet normal -2.2919832365887415e-16 -1.1356514834313303e-16 1.0
  outer loop
    vertex -5.939696961966999 5.939696961967 45.0
    vertex -20.000000000000007 12.499999999999996 45.0
    vertex -7.274613391789283 4.200000000000003 45.0
  endloop
endfacet
facet normal -2.2919832365887415e-16 -1.1356514834313303e-16 1.0
  outer loop
    vertex -7.274613391789283 4.200000000000003 45.0
    vertex -20.000000000000007 12.499999999999996 45.0
    vertex -20.000000000000004 -12.500000000000002 44.999999999999986
  endloop
endfacet
facet normal -2.2919832365887415e-16 -1.1356514834313303e-16 1.0
  outer loop
    vertex -7.274613391789283 4.200000000000003 45.0
    vertex -20.000000000000004 -12.500000000000002 44.999999999999986
    vertex -8.113776940828174 2.1740799788611764 45.0
  endloop
endfacet
facet normal -2.2919832365887415e-16 -1.1356514834313303e-16 1.0
  outer loop
    vertex -8.113776940828174 2.1740799788611764 45.0
    vertex -20.000000000000004 -12.500000000000002 44.999999999999986
    vertex -8.4 8.026427671373235e-16 45.0
  endloop
endfacet
facet normal -2.2919832365887415e-16 -1.1356514834313303e-16 1.0
  outer loop
    vertex 8.113776940828174 12.499999999999988 45.0
    vertex -4.1999999999999975 7.274613391789286 45.0
    vertex -2.1740799788611738 8.113776940828174 45.0
  endloop
endfacet
facet normal -2.2919832365887415e-16 -1.1356514834313303e-16 1.0
  outer loop
    vertex 8.113776940828174 12.499999999999988 45.0
    vertex -2.1740799788611738 8.113776940828174 45.0
    vertex 2.7549734747885786e-16 8.4 45.0
  endloop
endfacet
facet normal -2.2919832365887415e-16 -1.1356514834313303e-16 1.0
  outer loop
    vertex 8.113776940828174 12.499999999999988 45.0
    vertex 2.7549734747885786e-16 8.4 45.0
    vertex 2.1740799788611755 8.113776940828174 45.0
  endloop
endfacet
facet normal -2.2919832365887415e-16 -1.1356514834313303e-16 1.0
  outer loop
    vertex 8.113776940828174 12.499999999999988 45.0
    vertex 2.1740799788611755 8.113776940828174 45.0
    vertex 4.200000000000001 7.274613391789284 45.0
  endloop
endfacet
facet normal -2.2919832365887415e-16 -1.1356514834313303e-16 1.0
  outer loop
    vertex 8.113776940828174 12.499999999999988 45.0
    vertex 4.200000000000001 7.274613391789284 45.0
    vertex 5.5353021695326845 6.249999999999999 45.0
  endloop
endfacet
facet normal -2.2919832365887415e-16 -1.1356514834313303e-16 1.0
  outer loop
    vertex 8.113776940828174 12.499999999999988 45.0
    vertex 5.5353021695326845 6.249999999999999 45.0
    vertex 5.939696961967001 5.939696961966997 45.0
  endloop
endfacet
facet normal -2.2919832365887415e-16 -1.1356514834313303e-16 1.0
  outer loop
    vertex 8.113776940828174 12.499999999999988 45.0
    vertex 5.939696961967001 5.939696961966997 45.0
    vertex 7.274613391789289 4.199999999999994 45.0
  endloop
endfacet
facet normal -2.2919832365887415e-16 -1.1356514834313303e-16 1.0
  outer loop
    vertex 8.113776940828174 12.499999999999988 45.0
    vertex 7.274613391789289 4.199999999999994 45.0
    vertex 8.113776940828176 2.1740799788611698 45.0
  endloop
endfacet
facet normal 0.999998708376913 -0.00010579789576150703 -0.0016037616130246415
  outer loop
    vertex 12.0 -2.1740799788611813 40.0
    vertex 12.0 -12.5 40.60918819648706
    vertex 11.999999999999998 -12.5 40.0
  endloop
endfacet
facet normal 0.999998708376913 -0.00010579789576150703 -0.0016037616130246415
  outer loop
    vertex 12.0 -12.5 40.60918819648706
    vertex 12.0 -2.1740799788611813 40.0
    vertex 12.0 -2.174079978861181 40.60918819648706
  endloop
endfacet
facet normal 0.999998708376913 -0.00010579789576150703 -0.0016037616130246415
  outer loop
    vertex 12.0 -2.174079978861181 40.60918819648706
    vertex 12.0 -2.1740799788611813 40.0
    vertex 12.003714251178474 -2.1740799788611804 40.57699402813422
  endloop
endfacet
facet normal 0.9999767820230294 6.828603602762539e-17 0.006814353591263534
  outer loop
    vertex 11.999999999999998 12.5 40.0
    vertex 11.996082107171867 2.174079978861171 40.57493374978486
    vertex 11.999999999999998 2.17407997886117 40.0
  endloop
endfacet
facet normal 0.9999767820230294 6.828603602762539e-17 0.006814353591263534
  outer loop
    vertex 11.996082107171867 2.174079978861171 40.57493374978486
    vertex 11.999999999999998 12.5 40.0
    vertex 11.996082107171867 12.499999999999991 40.57493374978486
  endloop
endfacet
facet normal 1.0 -1.1279865930191588e-16 -8.69441731921163e-33
  outer loop
    vertex -15.000000000000004 -12.499999999999998 10.0
    vertex -15.0 12.499999999999998 40.0
    vertex -15.000000000000004 -12.500000000000002 39.99999999999999
  endloop
endfacet
facet normal 1.0 -1.1279865930191588e-16 -8.69441731921163e-33
  outer loop
    vertex -15.0 12.499999999999998 40.0
    vertex -15.000000000000004 -12.499999999999998 10.0
    vertex -15.0 12.5 10.000000000000004
  endloop
endfacet
facet normal 4.777086163260604e-17 4.521210882929063e-17 -1.0
  outer loop
    vertex -15.0 12.499999999999998 40.0
    vertex -8.113776940828174 2.174079978861177 40.0
    vertex -8.4 1.0287033112837768e-15 40.0
  endloop
endfacet
facet normal 4.777086163260604e-17 4.521210882929063e-17 -1.0
  outer loop
    vertex -8.113776940828174 2.174079978861177 40.0
    vertex -15.0 12.499999999999998 40.0
    vertex -7.274613391789283 4.200000000000003 40.0
  endloop
endfacet
facet normal 4.777086163260604e-17 4.521210882929063e-17 -1.0
  outer loop
    vertex -7.274613391789283 4.200000000000003 40.0
    vertex -15.0 12.499999999999998 40.0
    vertex -5.939696961966999 5.939696961967 40.0
  endloop
endfacet
facet normal 4.777086163260604e-17 4.521210882929063e-17 -1.0
  outer loop
    vertex -5.939696961966999 5.939696961967 40.0
    vertex -15.0 12.499999999999998 40.0
    vertex -4.1999999999999975 7.274613391789286 40.0
  endloop
endfacet
facet normal 4.777086163260604e-17 4.521210882929063e-17 -1.0
  outer loop
    vertex -4.1999999999999975 7.274613391789286 40.0
    vertex -15.0 12.499999999999998 40.0
    vertex -2.1740799788611733 8.113776940828174 40.0
  endloop
endfacet
facet normal 4.777086163260604e-17 4.521210882929063e-17 -1.0
  outer loop
    vertex -2.1740799788611733 8.113776940828174 40.0
    vertex -15.0 12.499999999999998 40.0
    vertex 11.999999999999998 12.5 40.0
  endloop
endfacet
facet normal 4.777086163260604e-17 4.521210882929063e-17 -1.0
  outer loop
    vertex -2.1740799788611733 8.113776940828174 40.0
    vertex 11.999999999999998 12.5 40.0
    vertex 5.143516556418884e-16 8.4 40.0
  endloop
endfacet
facet normal 4.777086163260604e-17 4.521210882929063e-17 -1.0
  outer loop
    vertex 5.143516556418884e-16 8.4 40.0
    vertex 11.999999999999998 12.5 40.0
    vertex 2.174079978861176 8.113776940828174 40.0
  endloop
endfacet
facet normal 4.777086163260604e-17 4.521210882929063e-17 -1.0
  outer loop
    vertex 2.174079978861176 8.113776940828174 40.0
    vertex 11.999999999999998 12.5 40.0
    vertex 4.200000000000001 7.274613391789284 40.0
  endloop
endfacet
facet normal 4.777086163260604e-17 4.521210882929063e-17 -1.0
  outer loop
    vertex 4.200000000000001 7.274613391789284 40.0
    vertex 11.999999999999998 12.5 40.0
    vertex 5.5353021695326845 6.249999999999999 40.0
  endloop
endfacet
facet normal 4.777086163260604e-17 4.521210882929063e-17 -1.0
  outer loop
    vertex 5.5353021695326845 6.249999999999999 40.0
    vertex 11.999999999999998 12.5 40.0
    vertex 5.939696961967001 5.939696961966997 40.0
  endloop
endfacet
facet normal 4.777086163260604e-17 4.521210882929063e-17 -1.0
  outer loop
    vertex 5.939696961967001 5.939696961966997 40.0
    vertex 11.999999999999998 12.5 40.0
    vertex 7.274613391789289 4.199999999999994 40.0
  endloop
endfacet
facet normal 4.777086163260604e-17 4.521210882929063e-17 -1.0
  outer loop
    vertex 7.274613391789289 4.199999999999994 40.0
    vertex 11.999999999999998 12.5 40.0
    vertex 8.113776940828176 2.17407997886117 40.0
  endloop
endfacet
facet normal 4.777086163260604e-17 4.521210882929063e-17 -1.0
  outer loop
    vertex 8.113776940828176 2.17407997886117 40.0
    vertex 11.999999999999998 12.5 40.0
    vertex 11.999999999999998 2.17407997886117 40.0
  endloop
endfacet
facet normal 4.777086163260604e-17 4.521210882929063e-17 -1.0
  outer loop
    vertex -15.000000000000004 -12.500000000000002 39.99999999999999
    vertex -2.1740799788611804 -8.113776940828172 40.0
    vertex 11.999999999999998 -12.5 40.0
  endloop
endfacet
facet normal 4.777086163260604e-17 4.521210882929063e-17 -1.0
  outer loop
    vertex -2.1740799788611804 -8.113776940828172 40.0
    vertex -15.000000000000004 -12.500000000000002 39.99999999999999
    vertex -4.200000000000004 -7.274613391789283 40.0
  endloop
endfacet
facet normal 4.777086163260604e-17 4.521210882929063e-17 -1.0
  outer loop
    vertex -4.200000000000004 -7.274613391789283 40.0
    vertex -15.000000000000004 -12.500000000000002 39.99999999999999
    vertex -5.939696961967003 -5.939696961966996 40.0
  endloop
endfacet
facet normal 4.777086163260604e-17 4.521210882929063e-17 -1.0
  outer loop
    vertex -5.939696961967003 -5.939696961966996 40.0
    vertex -15.000000000000004 -12.500000000000002 39.99999999999999
    vertex -7.274613391789286 -4.1999999999999975 40.0
  endloop
endfacet
facet normal 4.777086163260604e-17 4.521210882929063e-17 -1.0
  outer loop
    vertex -7.274613391789286 -4.1999999999999975 40.0
    vertex -15.000000000000004 -12.500000000000002 39.99999999999999
    vertex -15.0 12.499999999999998 40.0
  endloop
endfacet
facet normal 4.777086163260604e-17 4.521210882929063e-17 -1.0
  outer loop
    vertex -7.274613391789286 -4.1999999999999975 40.0
    vertex -15.0 12.499999999999998 40.0
    vertex -8.113776940828176 -2.174079978861171 40.0
  endloop
endfacet
facet normal 4.777086163260604e-17 4.521210882929063e-17 -1.0
  outer loop
    vertex -8.113776940828176 -2.174079978861171 40.0
    vertex -15.0 12.499999999999998 40.0
    vertex -8.4 1.0287033112837768e-15 40.0
  endloop
endfacet
facet normal 4.777086163260604e-17 4.521210882929063e-17 -1.0
  outer loop
    vertex 11.999999999999998 -12.5 40.0
    vertex -2.1740799788611804 -8.113776940828172 40.0
    vertex -1.5430549669256649e-15 -8.4 40.0
  endloop
endfacet
facet normal 4.777086163260604e-17 4.521210882929063e-17 -1.0
  outer loop
    vertex 11.999999999999998 -12.5 40.0
    vertex -1.5430549669256649e-15 -8.4 40.0
    vertex 2.17407997886117 -8.113776940828176 40.0
  endloop
endfacet
facet normal 4.777086163260604e-17 4.521210882929063e-17 -1.0
  outer loop
    vertex 11.999999999999998 -12.5 40.0
    vertex 2.17407997886117 -8.113776940828176 40.0
    vertex 4.199999999999995 -7.274613391789289 40.0
  endloop
endfacet
facet normal 4.777086163260604e-17 4.521210882929063e-17 -1.0
  outer loop
    vertex 11.999999999999998 -12.5 40.0
    vertex 4.199999999999995 -7.274613391789289 40.0
    vertex 5.535302169532676 -6.250000000000005 40.0
  endloop
endfacet
facet normal 4.777086163260604e-17 4.521210882929063e-17 -1.0
  outer loop
    vertex 11.999999999999998 -12.5 40.0
    vertex 5.535302169532676 -6.250000000000005 40.0
    vertex 5.9396969619669955 -5.9396969619670035 40.0
  endloop
endfacet
facet normal 4.777086163260604e-17 4.521210882929063e-17 -1.0
  outer loop
    vertex 11.999999999999998 -12.5 40.0
    vertex 5.9396969619669955 -5.9396969619670035 40.0
    vertex 7.274613391789283 -4.200000000000005 40.0
  endloop
endfacet
facet normal 4.777086163260604e-17 4.521210882929063e-17 -1.0
  outer loop
    vertex 11.999999999999998 -12.5 40.0
    vertex 7.274613391789283 -4.200000000000005 40.0
    vertex 8.113776940828172 -2.174079978861181 40.0
  endloop
endfacet
facet normal 4.777086163260604e-17 4.521210882929063e-17 -1.0
  outer loop
    vertex 11.999999999999998 -12.5 40.0
    vertex 8.113776940828172 -2.174079978861181 40.0
    vertex 12.0 -2.1740799788611813 40.0
  endloop
endfacet
facet normal 7.344710762429928e-16 -1.0 4.243976843810439e-16
  outer loop
    vertex 11.996082107171867 2.174079978861171 40.57493374978486
    vertex 8.113776940828176 2.17407997886117 40.0
    vertex 11.999999999999998 2.17407997886117 40.0
  endloop
endfacet
facet normal 7.344710762429928e-16 -1.0 4.243976843810439e-16
  outer loop
    vertex 8.113776940828176 2.17407997886117 40.0
    vertex 11.996082107171867 2.174079978861171 40.57493374978486
    vertex 8.113776940828176 2.1740799788611698 45.0
  endloop
endfacet
facet normal 7.344710762429928e-16 -1.0 4.243976843810439e-16
  outer loop
    vertex 8.113776940828176 2.1740799788611698 45.0
    vertex 11.996082107171867 2.174079978861171 40.57493374978486
    vertex 11.923998759468798 2.174079978861172 41.145344266439146
  endloop
endfacet
facet normal 7.344710762429928e-16 -1.0 4.243976843810439e-16
  outer loop
    vertex 8.113776940828176 2.1740799788611698 45.0
    vertex 11.923998759468798 2.174079978861172 41.145344266439146
    vertex 11.784767647905008 2.1740799788611724 41.703178349387294
  endloop
endfacet
facet normal 7.344710762429928e-16 -1.0 4.243976843810439e-16
  outer loop
    vertex 8.113776940828176 2.1740799788611698 45.0
    vertex 11.784767647905008 2.1740799788611724 41.703178349387294
    vertex 11.580354472682444 2.174079978861173 42.240560355339596
  endloop
endfacet
facet normal 7.344710762429928e-16 -1.0 4.243976843810439e-16
  outer loop
    vertex 8.113776940828176 2.1740799788611698 45.0
    vertex 11.580354472682444 2.174079978861173 42.240560355339596
    vertex 11.313645190935995 2.1740799788611733 42.749903388624816
  endloop
endfacet
facet normal 7.344710762429928e-16 -1.0 4.243976843810439e-16
  outer loop
    vertex 8.113776940828176 2.1740799788611698 45.0
    vertex 11.313645190935995 2.1740799788611733 42.749903388624816
    vertex 10.988405272057546 2.1740799788611733 43.22401641491056
  endloop
endfacet
facet normal 7.344710762429928e-16 -1.0 4.243976843810439e-16
  outer loop
    vertex 8.113776940828176 2.1740799788611698 45.0
    vertex 10.988405272057546 2.1740799788611733 43.22401641491056
    vertex 10.609226535842554 2.1740799788611733 43.656205786052766
  endloop
endfacet
facet normal 7.344710762429928e-16 -1.0 4.243976843810439e-16
  outer loop
    vertex 8.113776940828176 2.1740799788611698 45.0
    vertex 10.609226535842554 2.1740799788611733 43.656205786052766
    vertex 10.18146232401171 2.174079978861173 44.04036974272052
  endloop
endfacet
facet normal 7.344710762429928e-16 -1.0 4.243976843810439e-16
  outer loop
    vertex 8.113776940828176 2.1740799788611698 45.0
    vertex 10.18146232401171 2.174079978861173 44.04036974272052
    vertex 9.711151920372627 2.174079978861172 44.37108456058439
  endloop
endfacet
facet normal 7.344710762429928e-16 -1.0 4.243976843810439e-16
  outer loop
    vertex 8.113776940828176 2.1740799788611698 45.0
    vertex 9.711151920372627 2.174079978861172 44.37108456058439
    vertex 9.204935286676884 2.1740799788611715 44.64368112383426
  endloop
endfacet
facet normal 7.344710762429928e-16 -1.0 4.243976843810439e-16
  outer loop
    vertex 8.113776940828176 2.1740799788611698 45.0
    vertex 9.204935286676884 2.1740799788611715 44.64368112383426
    vertex 8.669959317953252 2.1740799788611707 44.854310844942425
  endloop
endfacet
facet normal 0.9934105539887739 2.5102748005961607e-20 0.11461008342950235
  outer loop
    vertex 12.0 -2.174079978861181 40.60918819648706
    vertex 11.93758354735269 -12.5 41.150197861142935
    vertex 12.0 -12.5 40.60918819648706
  endloop
endfacet
facet normal 0.9934105539887739 2.5102748005961607e-20 0.11461008342950235
  outer loop
    vertex 11.93758354735269 -12.5 41.150197861142935
    vertex 12.0 -2.174079978861181 40.60918819648706
    vertex 11.93758354735269 -2.17407997886118 41.150197861142935
  endloop
endfacet
facet normal 0.9722430907586653 -4.781335009263305e-17 0.23397301654686167
  outer loop
    vertex 11.93758354735269 -2.17407997886118 41.150197861142935
    vertex 11.802579716995975 -12.5 41.71118794122759
    vertex 11.93758354735269 -12.5 41.150197861142935
  endloop
endfacet
facet normal 0.9722430907586653 -4.781335009263305e-17 0.23397301654686167
  outer loop
    vertex 11.802579716995975 -12.5 41.71118794122759
    vertex 11.93758354735269 -2.17407997886118 41.150197861142935
    vertex 11.802579716995975 -2.1740799788611795 41.71118794122759
  endloop
endfacet
facet normal 0.9367879598654574 -6.612877406896664e-17 0.3498975825168193
  outer loop
    vertex 11.802579716995975 -2.1740799788611795 41.71118794122759
    vertex 11.600686718523372 -12.5 42.2517201986666
    vertex 11.802579716995975 -12.5 41.71118794122759
  endloop
endfacet
facet normal 0.9367879598654574 -6.612877406896664e-17 0.3498975825168193
  outer loop
    vertex 11.600686718523372 -12.5 42.2517201986666
    vertex 11.802579716995975 -2.1740799788611795 41.71118794122759
    vertex 11.600686718523372 -2.174079978861179 42.2517201986666
  endloop
endfacet
facet normal 0.8875661947132139 -8.347239793085703e-17 0.4606802036145093
  outer loop
    vertex 11.600686718523372 -2.174079978861179 42.2517201986666
    vertex 11.334871484889307 -12.5 42.76385120312976
    vertex 11.600686718523372 -12.5 42.2517201986666
  endloop
endfacet
facet normal 0.8875661947132139 -8.347239793085703e-17 0.4606802036145093
  outer loop
    vertex 11.334871484889307 -12.5 42.76385120312976
    vertex 11.600686718523372 -2.174079978861179 42.2517201986666
    vertex 11.334871484889307 -2.1740799788611787 42.76385120312976
  endloop
endfacet
facet normal 0.8253011372613377 -9.958934721720754e-17 0.564692865932573
  outer loop
    vertex 11.334871484889307 -2.1740799788611787 42.76385120312976
    vertex 11.009040322812805 -12.5 43.24005489692502
    vertex 11.334871484889307 -12.5 42.76385120312976
  endloop
endfacet
facet normal 0.8253011372613377 -9.958934721720754e-17 0.564692865932573
  outer loop
    vertex 11.009040322812805 -12.5 43.24005489692502
    vertex 11.334871484889307 -2.1740799788611787 42.76385120312976
    vertex 11.009040322812805 -2.1740799788611787 43.24005489692502
  endloop
endfacet
facet normal 0.7509078081012304 -1.1424277415061098e-16 0.6604070439756119
  outer loop
    vertex 11.009040322812805 -2.1740799788611787 43.24005489692502
    vertex 10.62798150736856 -12.5 43.67333319471594
    vertex 11.009040322812805 -12.5 43.24005489692502
  endloop
endfacet
facet normal 0.7509078081012304 -1.1424277415061098e-16 0.6604070439756119
  outer loop
    vertex 10.62798150736856 -12.5 43.67333319471594
    vertex 11.009040322812805 -2.1740799788611787 43.24005489692502
    vertex 10.62798150736856 -2.1740799788611787 43.67333319471594
  endloop
endfacet
facet normal 0.6654794597059656 -1.2721733825074742e-16 0.7464161632155725
  outer loop
    vertex 10.62798150736856 -12.5 43.67333319471594
    vertex 10.197294915549184 -2.174079978861179 44.05731882438375
    vertex 10.197294915549184 -12.5 44.05731882438375
  endloop
endfacet
facet normal 0.6654794597059656 -1.2721733825074742e-16 0.7464161632155725
  outer loop
    vertex 10.197294915549184 -2.174079978861179 44.05731882438375
    vertex 10.62798150736856 -12.5 43.67333319471594
    vertex 10.62798150736856 -2.1740799788611787 43.67333319471594
  endloop
endfacet
facet normal 0.5702715104605901 -1.3832237088577246e-16 0.8214562705080516
  outer loop
    vertex 10.197294915549184 -12.5 44.05731882438375
    vertex 9.723309732873565 -2.1740799788611795 44.38636889772872
    vertex 9.723309732873565 -12.5 44.38636889772872
  endloop
endfacet
facet normal 0.5702715104605901 -1.3832237088577246e-16 0.8214562705080516
  outer loop
    vertex 9.723309732873565 -2.1740799788611795 44.38636889772872
    vertex 10.197294915549184 -12.5 44.05731882438375
    vertex 10.197294915549184 -2.174079978861179 44.05731882438375
  endloop
endfacet
facet normal 0.4666830955717439 -1.4739467725678796e-16 0.8844246086058296
  outer loop
    vertex 9.723309732873565 -12.5 44.38636889772872
    vertex 9.212991442389791 -2.17407997886118 44.655647835936094
    vertex 9.212991442389791 -12.5 44.655647835936094
  endloop
endfacet
facet normal 0.4666830955717439 -1.4739467725678796e-16 0.8844246086058296
  outer loop
    vertex 9.212991442389791 -2.17407997886118 44.655647835936094
    vertex 9.723309732873565 -12.5 44.38636889772872
    vertex 9.723309732873565 -2.1740799788611795 44.38636889772872
  endloop
endfacet
facet normal 0.3562365059765096 -1.5430093463864325e-16 0.9343958218066092
  outer loop
    vertex 9.212991442389791 -12.5 44.655647835936094
    vertex 8.673839462922372 -2.1740799788611804 44.86119843116933
    vertex 8.673839462922372 -12.5 44.86119843116933
  endloop
endfacet
facet normal 0.3562365059765096 -1.5430093463864325e-16 0.9343958218066092
  outer loop
    vertex 8.673839462922372 -2.1740799788611804 44.86119843116933
    vertex 9.212991442389791 -12.5 44.655647835936094
    vertex 9.212991442389791 -2.17407997886118 44.655647835936094
  endloop
endfacet
facet normal 0.24055481740733134 -1.2459153465507677e-18 0.9706355545837612
  outer loop
    vertex 8.673839462922372 -12.5 44.86119843116933
    vertex 8.113776940828172 -2.1740799788611813 45.0
    vertex 8.113776940828172 -12.500000000000002 45.0
  endloop
endfacet
facet normal 0.24055481740733134 -1.2459153465507677e-18 0.9706355545837612
  outer loop
    vertex 8.113776940828172 -2.1740799788611813 45.0
    vertex 8.673839462922372 -12.5 44.86119843116933
    vertex 8.673839462922372 -2.1740799788611804 44.86119843116933
  endloop
endfacet
facet normal 0.2533957564756675 3.518093827510498e-17 0.9673626985780072
  outer loop
    vertex 8.113776940828176 2.1740799788611698 45.0
    vertex 8.669959317953252 12.49999999999999 44.854310844942425
    vertex 8.113776940828174 12.499999999999988 45.0
  endloop
endfacet
facet normal 0.2533957564756675 3.518093827510498e-17 0.9673626985780072
  outer loop
    vertex 8.669959317953252 12.49999999999999 44.854310844942425
    vertex 8.113776940828176 2.1740799788611698 45.0
    vertex 8.669959317953252 2.1740799788611707 44.854310844942425
  endloop
endfacet
facet normal 0.3663462630102454 -1.452886843397583e-16 0.930478594906099
  outer loop
    vertex 8.669959317953252 2.1740799788611707 44.854310844942425
    vertex 9.204935286676882 12.499999999999991 44.64368112383426
    vertex 8.669959317953252 12.49999999999999 44.854310844942425
  endloop
endfacet
facet normal 0.3663462630102454 -1.452886843397583e-16 0.930478594906099
  outer loop
    vertex 9.204935286676882 12.499999999999991 44.64368112383426
    vertex 8.669959317953252 2.1740799788611707 44.854310844942425
    vertex 9.204935286676884 2.1740799788611715 44.64368112383426
  endloop
endfacet
facet normal 0.47412459994068445 -1.1677975120766156e-16 0.8804577580617289
  outer loop
    vertex 9.204935286676884 2.1740799788611715 44.64368112383426
    vertex 9.711151920372625 12.499999999999991 44.37108456058439
    vertex 9.204935286676882 12.499999999999991 44.64368112383426
  endloop
endfacet
facet normal 0.47412459994068445 -1.1677975120766156e-16 0.8804577580617289
  outer loop
    vertex 9.711151920372625 12.499999999999991 44.37108456058439
    vertex 9.204935286676884 2.1740799788611715 44.64368112383426
    vertex 9.711151920372627 2.174079978861172 44.37108456058439
  endloop
endfacet
facet normal 0.5752091253272213 -8.662209188244895e-17 0.8180063949262825
  outer loop
    vertex 9.711151920372627 2.174079978861172 44.37108456058439
    vertex 10.181462324011708 12.499999999999993 44.04036974272052
    vertex 9.711151920372625 12.499999999999991 44.37108456058439
  endloop
endfacet
facet normal 0.5752091253272213 -8.662209188244895e-17 0.8180063949262825
  outer loop
    vertex 10.181462324011708 12.499999999999993 44.04036974272052
    vertex 9.711151920372627 2.174079978861172 44.37108456058439
    vertex 10.18146232401171 2.174079978861173 44.04036974272052
  endloop
endfacet
facet normal 0.668172702161961 -5.524147985942064e-17 0.7440062097090208
  outer loop
    vertex 10.18146232401171 2.174079978861173 44.04036974272052
    vertex 10.609226535842552 12.499999999999993 43.656205786052766
    vertex 10.181462324011708 12.499999999999993 44.04036974272052
  endloop
endfacet
facet normal 0.668172702161961 -5.524147985942064e-17 0.7440062097090208
  outer loop
    vertex 10.609226535842552 12.499999999999993 43.656205786052766
    vertex 10.18146232401171 2.174079978861173 44.04036974272052
    vertex 10.609226535842554 2.1740799788611733 43.656205786052766
  endloop
endfacet
facet normal 0.7517028470516107 -2.3080954590734717e-17 0.6595019558231067
  outer loop
    vertex 10.988405272057546 12.499999999999993 43.22401641491056
    vertex 10.609226535842554 2.1740799788611733 43.656205786052766
    vertex 10.988405272057546 2.1740799788611733 43.22401641491056
  endloop
endfacet
facet normal 0.7517028470516107 -2.3080954590734717e-17 0.6595019558231067
  outer loop
    vertex 10.609226535842554 2.1740799788611733 43.656205786052766
    vertex 10.988405272057546 12.499999999999993 43.22401641491056
    vertex 10.609226535842552 12.499999999999993 43.656205786052766
  endloop
endfacet
facet normal 0.8246202601914272 9.405433458116415e-18 0.5656866857915457
  outer loop
    vertex 11.313645190935993 12.499999999999993 42.749903388624816
    vertex 10.988405272057546 2.1740799788611733 43.22401641491056
    vertex 11.313645190935995 2.1740799788611733 42.749903388624816
  endloop
endfacet
facet normal 0.8246202601914272 9.405433458116415e-18 0.5656866857915457
  outer loop
    vertex 10.988405272057546 2.1740799788611733 43.22401641491056
    vertex 11.313645190935993 12.499999999999993 42.749903388624816
    vertex 10.988405272057546 12.499999999999993 43.22401641491056
  endloop
endfacet
facet normal 0.8858954750195001 4.1759033208144887e-17 0.46388490742852856
  outer loop
    vertex 11.580354472682442 12.499999999999993 42.240560355339596
    vertex 11.313645190935995 2.1740799788611733 42.749903388624816
    vertex 11.580354472682444 2.174079978861173 42.240560355339596
  endloop
endfacet
facet normal 0.8858954750195001 4.1759033208144887e-17 0.46388490742852856
  outer loop
    vertex 11.313645190935995 2.1740799788611733 42.749903388624816
    vertex 11.580354472682442 12.499999999999993 42.240560355339596
    vertex 11.313645190935993 12.499999999999993 42.749903388624816
  endloop
endfacet
facet normal 0.9346633924871312 7.352306831928879e-17 0.3555338841017085
  outer loop
    vertex 11.784767647905007 12.499999999999991 41.703178349387294
    vertex 11.580354472682444 2.174079978861173 42.240560355339596
    vertex 11.784767647905008 2.1740799788611724 41.703178349387294
  endloop
endfacet
facet normal 0.9346633924871312 7.352306831928879e-17 0.3555338841017085
  outer loop
    vertex 11.580354472682444 2.174079978861173 42.240560355339596
    vertex 11.784767647905007 12.499999999999991 41.703178349387294
    vertex 11.580354472682442 12.499999999999993 42.240560355339596
  endloop
endfacet
facet normal 0.9702354947469957 1.0424908607482935e-16 0.2421633430828302
  outer loop
    vertex 11.923998759468798 12.499999999999991 41.145344266439146
    vertex 11.784767647905008 2.1740799788611724 41.703178349387294
    vertex 11.923998759468798 2.174079978861172 41.145344266439146
  endloop
endfacet
facet normal 0.9702354947469957 1.0424908607482935e-16 0.2421633430828302
  outer loop
    vertex 11.784767647905008 2.1740799788611724 41.703178349387294
    vertex 11.923998759468798 12.499999999999991 41.145344266439146
    vertex 11.784767647905007 12.499999999999991 41.703178349387294
  endloop
endfacet
facet normal 0.9921095658230021 1.3504747004593106e-16 0.12537387846953713
  outer loop
    vertex 11.996082107171867 12.499999999999991 40.57493374978486
    vertex 11.923998759468798 2.174079978861172 41.145344266439146
    vertex 11.996082107171867 2.174079978861171 40.57493374978486
  endloop
endfacet
facet normal 0.9921095658230021 1.3504747004593106e-16 0.12537387846953713
  outer loop
    vertex 11.923998759468798 2.174079978861172 41.145344266439146
    vertex 11.996082107171867 12.499999999999991 40.57493374978486
    vertex 11.923998759468798 12.499999999999991 41.145344266439146
  endloop
endfacet
endsolid Прищепка-верх-вариант-2
