solid Прищепка-верх-вариант1
facet normal -1.0 0.0 0.0
  outer loop
    vertex -63.0 9.499999999999998 10.000000000000002
    vertex -63.0 -9.500000000000002 2.8199664825478975e-15
    vertex -63.0 -9.500000000000002 10.000000000000002
  endloop
endfacet
facet normal -1.0 0.0 0.0
  outer loop
    vertex -63.0 -9.500000000000002 2.8199664825478975e-15
    vertex -63.0 9.499999999999998 10.000000000000002
    vertex -63.0 9.499999999999998 2.8199664825478975e-15
  endloop
endfacet
facet normal -0.7071067811865482 0.7071067811865468 0.0
  outer loop
    vertex -60.0 12.499999999999998 10.000000000000002
    vertex -63.0 9.499999999999998 2.8199664825478975e-15
    vertex -63.0 9.499999999999998 10.000000000000002
  endloop
endfacet
facet normal -0.7071067811865482 0.7071067811865468 0.0
  outer loop
    vertex -63.0 9.499999999999998 2.8199664825478975e-15
    vertex -60.0 12.499999999999998 10.000000000000002
    vertex -60.0 12.499999999999998 2.8199664825478975e-15
  endloop
endfacet
facet normal -0.7071067811865482 -0.7071067811865468 0.0
  outer loop
    vertex -63.0 -9.500000000000002 10.000000000000002
    vertex -60.0 -12.500000000000002 2.8199664825478975e-15
    vertex -60.0 -12.500000000000002 10.000000000000002
  endloop
endfacet
facet normal -0.7071067811865482 -0.7071067811865468 0.0
  outer loop
    vertex -60.0 -12.500000000000002 2.8199664825478975e-15
    vertex -63.0 -9.500000000000002 10.000000000000002
    vertex -63.0 -9.500000000000002 2.8199664825478975e-15
  endloop
endfacet
facet normal 6.180915578111756e-17 -1.0 5.313222092121039e-18
  outer loop
    vertex 6.999999999999998 -12.499999999999996 10.00000000000002
    vertex -8.000000000000002 -12.499999999999998 -19.999999999999996
    vertex 6.999999999999998 -12.499999999999996 -20.0
  endloop
endfacet
facet normal 6.180915578111756e-17 -1.0 5.313222092121039e-18
  outer loop
    vertex -8.000000000000002 -12.499999999999998 -19.999999999999996
    vertex 6.999999999999998 -12.499999999999996 10.00000000000002
    vertex -8.000000000000002 -12.499999999999998 2.8199664825478975e-15
  endloop
endfacet
facet normal 6.180915578111756e-17 -1.0 5.313222092121039e-18
  outer loop
    vertex -8.000000000000002 -12.499999999999998 2.8199664825478975e-15
    vertex 6.999999999999998 -12.499999999999996 10.00000000000002
    vertex -60.0 -12.500000000000002 2.8199664825478975e-15
  endloop
endfacet
facet normal 6.180915578111756e-17 -1.0 5.313222092121039e-18
  outer loop
    vertex -60.0 -12.500000000000002 2.8199664825478975e-15
    vertex 6.999999999999998 -12.499999999999996 10.00000000000002
    vertex -60.0 -12.500000000000002 10.000000000000002
  endloop
endfacet
facet normal -2.1947541116235707e-17 1.0 3.6226514264461575e-18
  outer loop
    vertex -60.0 12.499999999999998 10.000000000000002
    vertex -8.000000000000002 12.5 2.8199664825478975e-15
    vertex -60.0 12.499999999999998 2.8199664825478975e-15
  endloop
endfacet
facet normal -2.1947541116235707e-17 1.0 3.6226514264461575e-18
  outer loop
    vertex -8.000000000000002 12.5 -19.999999999999996
    vertex 6.999999999999998 12.5 10.00000000000002
    vertex 6.999999999999998 12.5 -20.0
  endloop
endfacet
facet normal -2.1947541116235707e-17 1.0 3.6226514264461575e-18
  outer loop
    vertex 6.999999999999998 12.5 10.00000000000002
    vertex -8.000000000000002 12.5 -19.999999999999996
    vertex -8.000000000000002 12.5 2.8199664825478975e-15
  endloop
endfacet
facet normal -2.1947541116235707e-17 1.0 3.6226514264461575e-18
  outer loop
    vertex 6.999999999999998 12.5 10.00000000000002
    vertex -8.000000000000002 12.5 2.8199664825478975e-15
    vertex -60.0 12.499999999999998 10.000000000000002
  endloop
endfacet
facet normal 1.0 -0.0 -0.0
  outer loop
    vertex 11.999999999999998 7.5 -20.0
    vertex 11.999999999999998 -7.499999999999997 10.00000000000002
    vertex 11.999999999999998 -7.499999999999997 -20.0
  endloop
endfacet
facet normal 1.0 -0.0 -0.0
  outer loop
    vertex 11.999999999999998 -7.499999999999997 10.00000000000002
    vertex 11.999999999999998 7.5 -20.0
    vertex 11.999999999999998 7.5 10.00000000000002
  endloop
endfacet
facet normal -2.5569833565921107e-16 5.799471055186663e-18 1.0
  outer loop
    vertex -60.0 -12.500000000000002 10.000000000000002
    vertex -63.0 9.499999999999998 10.000000000000002
    vertex -63.0 -9.500000000000002 10.000000000000002
  endloop
endfacet
facet normal -2.5569833565921107e-16 5.799471055186663e-18 1.0
  outer loop
    vertex -63.0 9.499999999999998 10.000000000000002
    vertex -60.0 -12.500000000000002 10.000000000000002
    vertex -60.0 12.499999999999998 10.000000000000002
  endloop
endfacet
facet normal -2.5569833565921107e-16 5.799471055186663e-18 1.0
  outer loop
    vertex -60.0 12.499999999999998 10.000000000000002
    vertex -60.0 -12.500000000000002 10.000000000000002
    vertex -32.25 -3.897114317029979 10.000000000000027
  endloop
endfacet
facet normal -2.5569833565921107e-16 5.799471055186663e-18 1.0
  outer loop
    vertex -32.25 -3.897114317029979 10.000000000000027
    vertex -60.0 -12.500000000000002 10.000000000000002
    vertex -31.16468570296135 -4.346666218300813 10.000000000000027
  endloop
endfacet
facet normal -2.5569833565921107e-16 5.799471055186663e-18 1.0
  outer loop
    vertex -31.16468570296135 -4.346666218300813 10.000000000000027
    vertex -60.0 -12.500000000000002 10.000000000000002
    vertex 6.999999999999998 -12.499999999999996 10.00000000000002
  endloop
endfacet
facet normal -2.5569833565921107e-16 5.799471055186663e-18 1.0
  outer loop
    vertex -60.0 12.499999999999998 10.000000000000002
    vertex -32.25 -3.897114317029979 10.000000000000027
    vertex -33.18198051533947 -3.181980515339469 10.000000000000027
  endloop
endfacet
facet normal -2.5569833565921107e-16 5.799471055186663e-18 1.0
  outer loop
    vertex -60.0 12.499999999999998 10.000000000000002
    vertex -33.18198051533947 -3.181980515339469 10.000000000000027
    vertex -33.89711431702998 -2.250000000000003 10.000000000000027
  endloop
endfacet
facet normal -2.5569833565921107e-16 5.799471055186663e-18 1.0
  outer loop
    vertex -60.0 12.499999999999998 10.000000000000002
    vertex -33.89711431702998 -2.250000000000003 10.000000000000027
    vertex -34.34666621830081 -1.1646857029613455 10.000000000000027
  endloop
endfacet
facet normal -2.5569833565921107e-16 5.799471055186663e-18 1.0
  outer loop
    vertex -60.0 12.499999999999998 10.000000000000002
    vertex -34.34666621830081 -1.1646857029613455 10.000000000000027
    vertex -34.50000000000001 -1.2806831501279857e-15 10.000000000000027
  endloop
endfacet
facet normal -2.5569833565921107e-16 5.799471055186663e-18 1.0
  outer loop
    vertex -31.16468570296135 -4.346666218300813 10.000000000000027
    vertex 6.999999999999998 -12.499999999999996 10.00000000000002
    vertex -30.0 -4.500000000000006 10.000000000000027
  endloop
endfacet
facet normal -2.5569833565921107e-16 5.799471055186663e-18 1.0
  outer loop
    vertex -30.0 -4.500000000000006 10.000000000000027
    vertex 6.999999999999998 -12.499999999999996 10.00000000000002
    vertex -28.83531429703866 -4.346666218300813 10.000000000000027
  endloop
endfacet
facet normal -2.5569833565921107e-16 5.799471055186663e-18 1.0
  outer loop
    vertex -28.83531429703866 -4.346666218300813 10.000000000000027
    vertex 6.999999999999998 -12.499999999999996 10.00000000000002
    vertex -27.75 -3.89711431702998 10.000000000000027
  endloop
endfacet
facet normal -2.5569833565921107e-16 5.799471055186663e-18 1.0
  outer loop
    vertex -27.75 -3.89711431702998 10.000000000000027
    vertex 6.999999999999998 -12.499999999999996 10.00000000000002
    vertex -26.818019484660535 -3.181980515339469 10.000000000000027
  endloop
endfacet
facet normal -2.5569833565921107e-16 5.799471055186663e-18 1.0
  outer loop
    vertex -26.818019484660535 -3.181980515339469 10.000000000000027
    vertex 6.999999999999998 -12.499999999999996 10.00000000000002
    vertex -26.10288568297003 -2.250000000000005 10.000000000000027
  endloop
endfacet
facet normal -2.5569833565921107e-16 5.799471055186663e-18 1.0
  outer loop
    vertex -26.10288568297003 -2.250000000000005 10.000000000000027
    vertex 6.999999999999998 -12.499999999999996 10.00000000000002
    vertex -25.653333781699192 -1.1646857029613469 10.000000000000027
  endloop
endfacet
facet normal -2.5569833565921107e-16 5.799471055186663e-18 1.0
  outer loop
    vertex -25.653333781699192 -1.1646857029613469 10.000000000000027
    vertex 6.999999999999998 -12.499999999999996 10.00000000000002
    vertex -25.5 -1.8317742097442957e-15 10.000000000000027
  endloop
endfacet
facet normal -2.5569833565921107e-16 5.799471055186663e-18 1.0
  outer loop
    vertex -25.5 -1.8317742097442957e-15 10.000000000000027
    vertex 6.999999999999998 -12.499999999999996 10.00000000000002
    vertex -4.000000000000003 -6.928203230275508 10.000000000000016
  endloop
endfacet
facet normal -2.5569833565921107e-16 5.799471055186663e-18 1.0
  outer loop
    vertex -25.5 -1.8317742097442957e-15 10.000000000000027
    vertex -4.000000000000003 -6.928203230275508 10.000000000000016
    vertex -5.656854249492382 -5.656854249492381 10.000000000000016
  endloop
endfacet
facet normal -2.5569833565921107e-16 5.799471055186663e-18 1.0
  outer loop
    vertex -25.5 -1.8317742097442957e-15 10.000000000000027
    vertex -5.656854249492382 -5.656854249492381 10.000000000000016
    vertex -6.928203230275515 -3.999999999999999 10.000000000000016
  endloop
endfacet
facet normal -2.5569833565921107e-16 5.799471055186663e-18 1.0
  outer loop
    vertex -25.5 -1.8317742097442957e-15 10.000000000000027
    vertex -6.928203230275515 -3.999999999999999 10.000000000000016
    vertex -7.727406610312551 -2.070552360820166 10.000000000000016
  endloop
endfacet
facet normal -2.5569833565921107e-16 5.799471055186663e-18 1.0
  outer loop
    vertex -25.5 -1.8317742097442957e-15 10.000000000000027
    vertex -7.727406610312551 -2.070552360820166 10.000000000000016
    vertex -8.000000000000005 -9.161112825899094e-18 10.000000000000016
  endloop
endfacet
facet normal -2.5569833565921107e-16 5.799471055186663e-18 1.0
  outer loop
    vertex -4.000000000000003 -6.928203230275508 10.000000000000016
    vertex 6.999999999999998 -12.499999999999996 10.00000000000002
    vertex -2.0705523608201672 -7.727406610312546 10.000000000000016
  endloop
endfacet
facet normal -2.5569833565921107e-16 5.799471055186663e-18 1.0
  outer loop
    vertex -2.0705523608201672 -7.727406610312546 10.000000000000016
    vertex 6.999999999999998 -12.499999999999996 10.00000000000002
    vertex -1.8838343236821848e-16 -7.999999999999999 10.000000000000016
  endloop
endfacet
facet normal -2.5569833565921107e-16 5.799471055186663e-18 1.0
  outer loop
    vertex -1.8838343236821848e-16 -7.999999999999999 10.000000000000016
    vertex 6.999999999999998 -12.499999999999996 10.00000000000002
    vertex 2.0705523608201646 -7.727406610312546 10.000000000000016
  endloop
endfacet
facet normal -2.5569833565921107e-16 5.799471055186663e-18 1.0
  outer loop
    vertex 2.0705523608201646 -7.727406610312546 10.000000000000016
    vertex 6.999999999999998 -12.499999999999996 10.00000000000002
    vertex 3.9999999999999942 -6.928203230275509 10.000000000000016
  endloop
endfacet
facet normal -2.5569833565921107e-16 5.799471055186663e-18 1.0
  outer loop
    vertex 3.9999999999999942 -6.928203230275509 10.000000000000016
    vertex 6.999999999999998 -12.499999999999996 10.00000000000002
    vertex 5.656854249492376 -5.656854249492381 10.000000000000016
  endloop
endfacet
facet normal -2.5569833565921107e-16 5.799471055186663e-18 1.0
  outer loop
    vertex 5.656854249492376 -5.656854249492381 10.000000000000016
    vertex 6.999999999999998 -12.499999999999996 10.00000000000002
    vertex 6.928203230275499 -4.000000000000003 10.000000000000016
  endloop
endfacet
facet normal -2.5569833565921107e-16 5.799471055186663e-18 1.0
  outer loop
    vertex 6.928203230275499 -4.000000000000003 10.000000000000016
    vertex 6.999999999999998 -12.499999999999996 10.00000000000002
    vertex 7.727406610312537 -2.070552360820168 10.000000000000016
  endloop
endfacet
facet normal -2.5569833565921107e-16 5.799471055186663e-18 1.0
  outer loop
    vertex 7.727406610312537 -2.070552360820168 10.000000000000016
    vertex 6.999999999999998 -12.499999999999996 10.00000000000002
    vertex 11.999999999999998 -7.499999999999997 10.00000000000002
  endloop
endfacet
facet normal -2.5569833565921107e-16 5.799471055186663e-18 1.0
  outer loop
    vertex 7.727406610312537 -2.070552360820168 10.000000000000016
    vertex 11.999999999999998 -7.499999999999997 10.00000000000002
    vertex 7.999999999999991 -9.888785521437814e-16 10.000000000000016
  endloop
endfacet
facet normal -2.5569833565921107e-16 5.799471055186663e-18 1.0
  outer loop
    vertex -60.0 12.499999999999998 10.000000000000002
    vertex -31.164685702961343 4.3466662183008085 10.000000000000027
    vertex 6.999999999999998 12.5 10.00000000000002
  endloop
endfacet
facet normal -2.5569833565921107e-16 5.799471055186663e-18 1.0
  outer loop
    vertex -31.164685702961343 4.3466662183008085 10.000000000000027
    vertex -60.0 12.499999999999998 10.000000000000002
    vertex -32.25 3.8971143170299753 10.000000000000027
  endloop
endfacet
facet normal -2.5569833565921107e-16 5.799471055186663e-18 1.0
  outer loop
    vertex -32.25 3.8971143170299753 10.000000000000027
    vertex -60.0 12.499999999999998 10.000000000000002
    vertex -33.18198051533947 3.1819805153394642 10.000000000000027
  endloop
endfacet
facet normal -2.5569833565921107e-16 5.799471055186663e-18 1.0
  outer loop
    vertex -33.18198051533947 3.1819805153394642 10.000000000000027
    vertex -60.0 12.499999999999998 10.000000000000002
    vertex -33.897114317029974 2.2500000000000013 10.000000000000027
  endloop
endfacet
facet normal -2.5569833565921107e-16 5.799471055186663e-18 1.0
  outer loop
    vertex -33.897114317029974 2.2500000000000013 10.000000000000027
    vertex -60.0 12.499999999999998 10.000000000000002
    vertex -34.34666621830081 1.1646857029613464 10.000000000000027
  endloop
endfacet
facet normal -2.5569833565921107e-16 5.799471055186663e-18 1.0
  outer loop
    vertex -34.34666621830081 1.1646857029613464 10.000000000000027
    vertex -60.0 12.499999999999998 10.000000000000002
    vertex -34.50000000000001 -1.2806831501279857e-15 10.000000000000027
  endloop
endfacet
facet normal -2.5569833565921107e-16 5.799471055186663e-18 1.0
  outer loop
    vertex 6.999999999999998 12.5 10.00000000000002
    vertex -31.164685702961343 4.3466662183008085 10.000000000000027
    vertex -30.0 4.5 10.000000000000027
  endloop
endfacet
facet normal -2.5569833565921107e-16 5.799471055186663e-18 1.0
  outer loop
    vertex 6.999999999999998 12.5 10.00000000000002
    vertex -30.0 4.5 10.000000000000027
    vertex -28.835314297038654 4.346666218300807 10.000000000000027
  endloop
endfacet
facet normal -2.5569833565921107e-16 5.799471055186663e-18 1.0
  outer loop
    vertex 6.999999999999998 12.5 10.00000000000002
    vertex -28.835314297038654 4.346666218300807 10.000000000000027
    vertex -27.75 3.8971143170299727 10.000000000000027
  endloop
endfacet
facet normal -2.5569833565921107e-16 5.799471055186663e-18 1.0
  outer loop
    vertex 6.999999999999998 12.5 10.00000000000002
    vertex -27.75 3.8971143170299727 10.000000000000027
    vertex -26.818019484660535 3.181980515339461 10.000000000000027
  endloop
endfacet
facet normal -2.5569833565921107e-16 5.799471055186663e-18 1.0
  outer loop
    vertex 6.999999999999998 12.5 10.00000000000002
    vertex -26.818019484660535 3.181980515339461 10.000000000000027
    vertex -26.102885682970022 2.249999999999998 10.000000000000027
  endloop
endfacet
facet normal -2.5569833565921107e-16 5.799471055186663e-18 1.0
  outer loop
    vertex 6.999999999999998 12.5 10.00000000000002
    vertex -26.102885682970022 2.249999999999998 10.000000000000027
    vertex -25.65333378169919 1.164685702961341 10.000000000000027
  endloop
endfacet
facet normal -2.5569833565921107e-16 5.799471055186663e-18 1.0
  outer loop
    vertex 6.999999999999998 12.5 10.00000000000002
    vertex -25.65333378169919 1.164685702961341 10.000000000000027
    vertex -25.5 -1.8317742097442957e-15 10.000000000000027
  endloop
endfacet
facet normal -2.5569833565921107e-16 5.799471055186663e-18 1.0
  outer loop
    vertex 6.999999999999998 12.5 10.00000000000002
    vertex -25.5 -1.8317742097442957e-15 10.000000000000027
    vertex -3.999999999999996 6.928203230275512 10.000000000000016
  endloop
endfacet
facet normal -2.5569833565921107e-16 5.799471055186663e-18 1.0
  outer loop
    vertex -3.999999999999996 6.928203230275512 10.000000000000016
    vertex -25.5 -1.8317742097442957e-15 10.000000000000027
    vertex -5.656854249492381 5.656854249492381 10.000000000000016
  endloop
endfacet
facet normal -2.5569833565921107e-16 5.799471055186663e-18 1.0
  outer loop
    vertex -5.656854249492381 5.656854249492381 10.000000000000016
    vertex -25.5 -1.8317742097442957e-15 10.000000000000027
    vertex -6.928203230275512 4.0000000000000036 10.000000000000016
  endloop
endfacet
facet normal -2.5569833565921107e-16 5.799471055186663e-18 1.0
  outer loop
    vertex -6.928203230275512 4.0000000000000036 10.000000000000016
    vertex -25.5 -1.8317742097442957e-15 10.000000000000027
    vertex -7.72740661031255 2.070552360820172 10.000000000000016
  endloop
endfacet
facet normal -2.5569833565921107e-16 5.799471055186663e-18 1.0
  outer loop
    vertex -7.72740661031255 2.070552360820172 10.000000000000016
    vertex -25.5 -1.8317742097442957e-15 10.000000000000027
    vertex -8.000000000000005 -9.161112825899094e-18 10.000000000000016
  endloop
endfacet
facet normal -2.5569833565921107e-16 5.799471055186663e-18 1.0
  outer loop
    vertex 6.999999999999998 12.5 10.00000000000002
    vertex -3.999999999999996 6.928203230275512 10.000000000000016
    vertex -2.070552360820162 7.7274066103125465 10.000000000000016
  endloop
endfacet
facet normal -2.5569833565921107e-16 5.799471055186663e-18 1.0
  outer loop
    vertex 6.999999999999998 12.5 10.00000000000002
    vertex -2.070552360820162 7.7274066103125465 10.000000000000016
    vertex 1.7710514462675458e-15 7.999999999999999 10.000000000000016
  endloop
endfacet
facet normal -2.5569833565921107e-16 5.799471055186663e-18 1.0
  outer loop
    vertex 6.999999999999998 12.5 10.00000000000002
    vertex 1.7710514462675458e-15 7.999999999999999 10.000000000000016
    vertex 2.0705523608201717 7.727406610312544 10.000000000000016
  endloop
endfacet
facet normal -2.5569833565921107e-16 5.799471055186663e-18 1.0
  outer loop
    vertex 6.999999999999998 12.5 10.00000000000002
    vertex 2.0705523608201717 7.727406610312544 10.000000000000016
    vertex 3.9999999999999996 6.928203230275508 10.000000000000016
  endloop
endfacet
facet normal -2.5569833565921107e-16 5.799471055186663e-18 1.0
  outer loop
    vertex 6.999999999999998 12.5 10.00000000000002
    vertex 3.9999999999999996 6.928203230275508 10.000000000000016
    vertex 5.65685424949238 5.656854249492377 10.000000000000016
  endloop
endfacet
facet normal -2.5569833565921107e-16 5.799471055186663e-18 1.0
  outer loop
    vertex 6.999999999999998 12.5 10.00000000000002
    vertex 5.65685424949238 5.656854249492377 10.000000000000016
    vertex 6.928203230275502 3.999999999999998 10.000000000000016
  endloop
endfacet
facet normal -2.5569833565921107e-16 5.799471055186663e-18 1.0
  outer loop
    vertex 6.999999999999998 12.5 10.00000000000002
    vertex 6.928203230275502 3.999999999999998 10.000000000000016
    vertex 7.7274066103125385 2.070552360820163 10.000000000000016
  endloop
endfacet
facet normal -2.5569833565921107e-16 5.799471055186663e-18 1.0
  outer loop
    vertex 6.999999999999998 12.5 10.00000000000002
    vertex 7.7274066103125385 2.070552360820163 10.000000000000016
    vertex 11.999999999999998 7.5 10.00000000000002
  endloop
endfacet
facet normal -2.5569833565921107e-16 5.799471055186663e-18 1.0
  outer loop
    vertex 11.999999999999998 7.5 10.00000000000002
    vertex 7.7274066103125385 2.070552360820163 10.000000000000016
    vertex 7.999999999999991 -9.888785521437814e-16 10.000000000000016
  endloop
endfacet
facet normal -2.5569833565921107e-16 5.799471055186663e-18 1.0
  outer loop
    vertex 11.999999999999998 7.5 10.00000000000002
    vertex 7.999999999999991 -9.888785521437814e-16 10.000000000000016
    vertex 11.999999999999998 -7.499999999999997 10.00000000000002
  endloop
endfacet
facet normal -0.3826834323650896 0.9238795325112867 1.2383336234853956e-17
  outer loop
    vertex 2.0705523608201646 -7.727406610312546 10.000000000000016
    vertex 3.999999999999996 -6.928203230275509 -20.0
    vertex 2.0705523608201637 -7.727406610312546 -20.0
  endloop
endfacet
facet normal -0.3826834323650896 0.9238795325112867 1.2383336234853956e-17
  outer loop
    vertex 3.999999999999996 -6.928203230275509 -20.0
    vertex 2.0705523608201646 -7.727406610312546 10.000000000000016
    vertex 3.9999999999999942 -6.928203230275509 10.000000000000016
  endloop
endfacet
facet normal -0.1305261922200518 0.9914448613738104 4.843315953420743e-18
  outer loop
    vertex -1.8838343236821848e-16 -7.999999999999999 10.000000000000016
    vertex 2.0705523608201637 -7.727406610312546 -20.0
    vertex -1.0651250814823183e-15 -7.999999999999999 -20.0
  endloop
endfacet
facet normal -0.1305261922200518 0.9914448613738104 4.843315953420743e-18
  outer loop
    vertex 2.0705523608201637 -7.727406610312546 -20.0
    vertex -1.8838343236821848e-16 -7.999999999999999 10.000000000000016
    vertex 2.0705523608201646 -7.727406610312546 10.000000000000016
  endloop
endfacet
facet normal 0.13052619222005168 0.9914448613738104 -3.0267683062800603e-18
  outer loop
    vertex -2.0705523608201672 -7.727406610312546 10.000000000000016
    vertex -1.0651250814823183e-15 -7.999999999999999 -20.0
    vertex -2.070552360820168 -7.727406610312546 -20.0
  endloop
endfacet
facet normal 0.13052619222005168 0.9914448613738104 -3.0267683062800603e-18
  outer loop
    vertex -1.0651250814823183e-15 -7.999999999999999 -20.0
    vertex -2.0705523608201672 -7.727406610312546 10.000000000000016
    vertex -1.8838343236821848e-16 -7.999999999999999 10.000000000000016
  endloop
endfacet
facet normal 0.38268343236509034 0.9238795325112867 -1.069058330787901e-17
  outer loop
    vertex -4.000000000000003 -6.928203230275508 10.000000000000016
    vertex -2.070552360820168 -7.727406610312546 -20.0
    vertex -4.0 -6.928203230275508 -20.0
  endloop
endfacet
facet normal 0.38268343236509034 0.9238795325112867 -1.069058330787901e-17
  outer loop
    vertex -2.070552360820168 -7.727406610312546 -20.0
    vertex -4.000000000000003 -6.928203230275508 10.000000000000016
    vertex -2.0705523608201672 -7.727406610312546 10.000000000000016
  endloop
endfacet
facet normal 0.6087614290087203 0.7933533402912356 -1.762585272407021e-17
  outer loop
    vertex -5.656854249492382 -5.656854249492381 10.000000000000016
    vertex -4.0 -6.928203230275508 -20.0
    vertex -5.656854249492381 -5.656854249492381 -20.0
  endloop
endfacet
facet normal 0.6087614290087203 0.7933533402912356 -1.762585272407021e-17
  outer loop
    vertex -4.0 -6.928203230275508 -20.0
    vertex -5.656854249492382 -5.656854249492381 10.000000000000016
    vertex -4.000000000000003 -6.928203230275508 10.000000000000016
  endloop
endfacet
facet normal 0.7933533402912356 0.6087614290087202 -2.3359949405214918e-17
  outer loop
    vertex -6.928203230275508 -3.999999999999999 -20.0
    vertex -5.656854249492382 -5.656854249492381 10.000000000000016
    vertex -5.656854249492381 -5.656854249492381 -20.0
  endloop
endfacet
facet normal 0.7933533402912356 0.6087614290087202 -2.3359949405214918e-17
  outer loop
    vertex -5.656854249492382 -5.656854249492381 10.000000000000016
    vertex -6.928203230275508 -3.999999999999999 -20.0
    vertex -6.928203230275515 -3.999999999999999 10.000000000000016
  endloop
endfacet
facet normal 0.9238795325112868 0.38268343236508956 -2.750210413853586e-17
  outer loop
    vertex -7.727406610312544 -2.070552360820166 -20.0
    vertex -6.928203230275515 -3.999999999999999 10.000000000000016
    vertex -6.928203230275508 -3.999999999999999 -20.0
  endloop
endfacet
facet normal 0.9238795325112868 0.38268343236508956 -2.750210413853586e-17
  outer loop
    vertex -6.928203230275515 -3.999999999999999 10.000000000000016
    vertex -7.727406610312544 -2.070552360820166 -20.0
    vertex -7.727406610312551 -2.070552360820166 10.000000000000016
  endloop
endfacet
facet normal 0.9914448613738104 0.13052619222005174 -2.9770035924191597e-17
  outer loop
    vertex -7.999999999999998 -4.502407656471739e-17 -20.0
    vertex -7.727406610312551 -2.070552360820166 10.000000000000016
    vertex -7.727406610312544 -2.070552360820166 -20.0
  endloop
endfacet
facet normal 0.9914448613738104 0.13052619222005174 -2.9770035924191597e-17
  outer loop
    vertex -7.727406610312551 -2.070552360820166 10.000000000000016
    vertex -7.999999999999998 -4.502407656471739e-17 -20.0
    vertex -8.000000000000005 -9.161112825899094e-18 10.000000000000016
  endloop
endfacet
facet normal 0.9914448613738104 -0.13052619222005202 -3.0009188958924176e-17
  outer loop
    vertex -7.727406610312543 2.070552360820172 -20.0
    vertex -8.000000000000005 -9.161112825899094e-18 10.000000000000016
    vertex -7.999999999999998 -4.502407656471739e-17 -20.0
  endloop
endfacet
facet normal 0.9914448613738104 -0.13052619222005202 -3.0009188958924176e-17
  outer loop
    vertex -8.000000000000005 -9.161112825899094e-18 10.000000000000016
    vertex -7.727406610312543 2.070552360820172 -20.0
    vertex -7.72740661031255 2.070552360820172 10.000000000000016
  endloop
endfacet
facet normal 0.9238795325112865 -0.3826834323650905 -2.8203265358635635e-17
  outer loop
    vertex -6.928203230275505 4.0000000000000036 -20.0
    vertex -7.72740661031255 2.070552360820172 10.000000000000016
    vertex -7.727406610312543 2.070552360820172 -20.0
  endloop
endfacet
facet normal 0.9238795325112865 -0.3826834323650905 -2.8203265358635635e-17
  outer loop
    vertex -7.72740661031255 2.070552360820172 10.000000000000016
    vertex -6.928203230275505 4.0000000000000036 -20.0
    vertex -6.928203230275512 4.0000000000000036 10.000000000000016
  endloop
endfacet
facet normal 0.793353340291235 -0.6087614290087208 -2.4475335832255793e-17
  outer loop
    vertex -5.656854249492378 5.656854249492381 -20.0
    vertex -6.928203230275512 4.0000000000000036 10.000000000000016
    vertex -6.928203230275505 4.0000000000000036 -20.0
  endloop
endfacet
facet normal 0.793353340291235 -0.6087614290087208 -2.4475335832255793e-17
  outer loop
    vertex -6.928203230275512 4.0000000000000036 10.000000000000016
    vertex -5.656854249492378 5.656854249492381 -20.0
    vertex -5.656854249492381 5.656854249492381 10.000000000000016
  endloop
endfacet
facet normal 0.6087614290087204 -0.7933533402912355 -1.9079452616312598e-17
  outer loop
    vertex -3.999999999999996 6.928203230275512 10.000000000000016
    vertex -5.656854249492378 5.656854249492381 -20.0
    vertex -3.9999999999999942 6.928203230275512 -20.0
  endloop
endfacet
facet normal 0.6087614290087204 -0.7933533402912355 -1.9079452616312598e-17
  outer loop
    vertex -5.656854249492378 5.656854249492381 -20.0
    vertex -3.999999999999996 6.928203230275512 10.000000000000016
    vertex -5.656854249492381 5.656854249492381 10.000000000000016
  endloop
endfacet
facet normal 0.3826834323650892 -0.923879532511287 -1.2383336234853944e-17
  outer loop
    vertex -2.070552360820162 7.7274066103125465 10.000000000000016
    vertex -3.9999999999999942 6.928203230275512 -20.0
    vertex -2.0705523608201624 7.7274066103125465 -20.0
  endloop
endfacet
facet normal 0.3826834323650892 -0.923879532511287 -1.2383336234853944e-17
  outer loop
    vertex -3.9999999999999942 6.928203230275512 -20.0
    vertex -2.070552360820162 7.7274066103125465 10.000000000000016
    vertex -3.999999999999996 6.928203230275512 10.000000000000016
  endloop
endfacet
facet normal 0.13052619222005127 -0.9914448613738106 -4.843315953420726e-18
  outer loop
    vertex 1.7710514462675458e-15 7.999999999999999 10.000000000000016
    vertex -2.0705523608201624 7.7274066103125465 -20.0
    vertex 8.94309797153446e-16 7.999999999999999 -20.0
  endloop
endfacet
facet normal 0.13052619222005127 -0.9914448613738106 -4.843315953420726e-18
  outer loop
    vertex -2.0705523608201624 7.7274066103125465 -20.0
    vertex 1.7710514462675458e-15 7.999999999999999 10.000000000000016
    vertex -2.070552360820162 7.7274066103125465 10.000000000000016
  endloop
endfacet
facet normal -0.13052619222005216 -0.9914448613738104 3.0267683062800753e-18
  outer loop
    vertex 2.0705523608201717 7.727406610312544 10.000000000000016
    vertex 8.94309797153446e-16 7.999999999999999 -20.0
    vertex 2.070552360820171 7.727406610312544 -20.0
  endloop
endfacet
facet normal -0.13052619222005216 -0.9914448613738104 3.0267683062800753e-18
  outer loop
    vertex 8.94309797153446e-16 7.999999999999999 -20.0
    vertex 2.0705523608201717 7.727406610312544 10.000000000000016
    vertex 1.7710514462675458e-15 7.999999999999999 10.000000000000016
  endloop
endfacet
facet normal -0.38268343236509 -0.9238795325112868 1.0690583307879e-17
  outer loop
    vertex 3.9999999999999996 6.928203230275508 10.000000000000016
    vertex 2.070552360820171 7.727406610312544 -20.0
    vertex 4.000000000000002 6.928203230275508 -20.0
  endloop
endfacet
facet normal -0.38268343236509 -0.9238795325112868 1.0690583307879e-17
  outer loop
    vertex 2.070552360820171 7.727406610312544 -20.0
    vertex 3.9999999999999996 6.928203230275508 10.000000000000016
    vertex 2.0705523608201717 7.727406610312544 10.000000000000016
  endloop
endfacet
facet normal -0.6087614290087213 -0.7933533402912346 1.7625852724070237e-17
  outer loop
    vertex 5.65685424949238 5.656854249492377 10.000000000000016
    vertex 4.000000000000002 6.928203230275508 -20.0
    vertex 5.6568542494923815 5.656854249492377 -20.0
  endloop
endfacet
facet normal -0.6087614290087213 -0.7933533402912346 1.7625852724070237e-17
  outer loop
    vertex 4.000000000000002 6.928203230275508 -20.0
    vertex 5.65685424949238 5.656854249492377 10.000000000000016
    vertex 3.9999999999999996 6.928203230275508 10.000000000000016
  endloop
endfacet
facet normal -0.7933533402912355 -0.6087614290087203 2.3359949405214918e-17
  outer loop
    vertex 5.65685424949238 5.656854249492377 10.000000000000016
    vertex 6.928203230275509 3.999999999999998 -20.0
    vertex 6.928203230275502 3.999999999999998 10.000000000000016
  endloop
endfacet
facet normal -0.7933533402912355 -0.6087614290087203 2.3359949405214918e-17
  outer loop
    vertex 6.928203230275509 3.999999999999998 -20.0
    vertex 5.65685424949238 5.656854249492377 10.000000000000016
    vertex 5.6568542494923815 5.656854249492377 -20.0
  endloop
endfacet
facet normal -0.9238795325112871 -0.38268343236508934 2.7502104138535865e-17
  outer loop
    vertex 6.928203230275502 3.999999999999998 10.000000000000016
    vertex 7.727406610312546 2.070552360820163 -20.0
    vertex 7.7274066103125385 2.070552360820163 10.000000000000016
  endloop
endfacet
facet normal -0.9238795325112871 -0.38268343236508934 2.7502104138535865e-17
  outer loop
    vertex 7.727406610312546 2.070552360820163 -20.0
    vertex 6.928203230275502 3.999999999999998 10.000000000000016
    vertex 6.928203230275509 3.999999999999998 -20.0
  endloop
endfacet
facet normal -0.9914448613738106 -0.13052619222005124 2.97700359241916e-17
  outer loop
    vertex 7.999999999999991 -9.888785521437814e-16 10.000000000000016
    vertex 7.727406610312546 2.070552360820163 -20.0
    vertex 7.999999999999998 -1.0247415158825998e-15 -20.0
  endloop
endfacet
facet normal -0.9914448613738106 -0.13052619222005124 2.97700359241916e-17
  outer loop
    vertex 7.727406610312546 2.070552360820163 -20.0
    vertex 7.999999999999991 -9.888785521437814e-16 10.000000000000016
    vertex 7.7274066103125385 2.070552360820163 10.000000000000016
  endloop
endfacet
facet normal -0.9914448613738104 0.13052619222005168 3.000918895892417e-17
  outer loop
    vertex 7.999999999999991 -9.888785521437814e-16 10.000000000000016
    vertex 7.727406610312544 -2.070552360820168 -20.0
    vertex 7.727406610312537 -2.070552360820168 10.000000000000016
  endloop
endfacet
facet normal -0.9914448613738104 0.13052619222005168 3.000918895892417e-17
  outer loop
    vertex 7.727406610312544 -2.070552360820168 -20.0
    vertex 7.999999999999991 -9.888785521437814e-16 10.000000000000016
    vertex 7.999999999999998 -1.0247415158825998e-15 -20.0
  endloop
endfacet
facet normal -0.9238795325112867 0.3826834323650899 2.820326535863564e-17
  outer loop
    vertex 7.727406610312537 -2.070552360820168 10.000000000000016
    vertex 6.928203230275506 -4.000000000000003 -20.0
    vertex 6.928203230275499 -4.000000000000003 10.000000000000016
  endloop
endfacet
facet normal -0.9238795325112867 0.3826834323650899 2.820326535863564e-17
  outer loop
    vertex 6.928203230275506 -4.000000000000003 -20.0
    vertex 7.727406610312537 -2.070552360820168 10.000000000000016
    vertex 7.727406610312544 -2.070552360820168 -20.0
  endloop
endfacet
facet normal -0.793353340291235 0.6087614290087208 2.4475335832255793e-17
  outer loop
    vertex 6.928203230275499 -4.000000000000003 10.000000000000016
    vertex 5.656854249492378 -5.656854249492381 -20.0
    vertex 5.656854249492376 -5.656854249492381 10.000000000000016
  endloop
endfacet
facet normal -0.793353340291235 0.6087614290087208 2.4475335832255793e-17
  outer loop
    vertex 5.656854249492378 -5.656854249492381 -20.0
    vertex 6.928203230275499 -4.000000000000003 10.000000000000016
    vertex 6.928203230275506 -4.000000000000003 -20.0
  endloop
endfacet
facet normal -0.6087614290087202 0.7933533402912355 1.9079452616312592e-17
  outer loop
    vertex 3.9999999999999942 -6.928203230275509 10.000000000000016
    vertex 5.656854249492378 -5.656854249492381 -20.0
    vertex 3.999999999999996 -6.928203230275509 -20.0
  endloop
endfacet
facet normal -0.6087614290087202 0.7933533402912355 1.9079452616312592e-17
  outer loop
    vertex 5.656854249492378 -5.656854249492381 -20.0
    vertex 3.9999999999999942 -6.928203230275509 10.000000000000016
    vertex 5.656854249492376 -5.656854249492381 10.000000000000016
  endloop
endfacet
facet normal -4.17118735592943e-18 -1.2930009114596055e-17 -1.0
  outer loop
    vertex -60.0 12.499999999999998 2.8199664825478975e-15
    vertex -63.0 -9.500000000000002 2.8199664825478975e-15
    vertex -63.0 9.499999999999998 2.8199664825478975e-15
  endloop
endfacet
facet normal -4.17118735592943e-18 -1.2930009114596055e-17 -1.0
  outer loop
    vertex -63.0 -9.500000000000002 2.8199664825478975e-15
    vertex -60.0 12.499999999999998 2.8199664825478975e-15
    vertex -60.0 -12.500000000000002 2.8199664825478975e-15
  endloop
endfacet
facet normal -4.17118735592943e-18 -1.2930009114596055e-17 -1.0
  outer loop
    vertex -60.0 -12.500000000000002 2.8199664825478975e-15
    vertex -60.0 12.499999999999998 2.8199664825478975e-15
    vertex -32.25 3.897114317029977 -2.2600736412472162e-14
  endloop
endfacet
facet normal -4.17118735592943e-18 -1.2930009114596055e-17 -1.0
  outer loop
    vertex -32.25 3.897114317029977 -2.2600736412472162e-14
    vertex -60.0 12.499999999999998 2.8199664825478975e-15
    vertex -31.164685702961343 4.346666218300809 -2.2611076171926094e-14
  endloop
endfacet
facet normal -4.17118735592943e-18 -1.2930009114596055e-17 -1.0
  outer loop
    vertex -31.164685702961343 4.346666218300809 -2.2611076171926094e-14
    vertex -60.0 12.499999999999998 2.8199664825478975e-15
    vertex -8.000000000000002 12.5 2.8199664825478975e-15
  endloop
endfacet
facet normal -4.17118735592943e-18 -1.2930009114596055e-17 -1.0
  outer loop
    vertex -60.0 -12.500000000000002 2.8199664825478975e-15
    vertex -32.25 3.897114317029977 -2.2600736412472162e-14
    vertex -33.18198051533947 3.1819805153394656 -2.2587602260556593e-14
  endloop
endfacet
facet normal -4.17118735592943e-18 -1.2930009114596055e-17 -1.0
  outer loop
    vertex -60.0 -12.500000000000002 2.8199664825478975e-15
    vertex -33.18198051533947 3.1819805153394656 -2.2587602260556593e-14
    vertex -33.897114317029974 2.250000000000002 -2.2572568786927218e-14
  endloop
endfacet
facet normal -4.17118735592943e-18 -1.2930009114596055e-17 -1.0
  outer loop
    vertex -60.0 -12.500000000000002 2.8199664825478975e-15
    vertex -33.897114317029974 2.250000000000002 -2.2572568786927218e-14
    vertex -34.34666621830081 1.1646857029613464 -2.255666049796789e-14
  endloop
endfacet
facet normal -4.17118735592943e-18 -1.2930009114596055e-17 -1.0
  outer loop
    vertex -60.0 -12.500000000000002 2.8199664825478975e-15
    vertex -34.34666621830081 1.1646857029613464 -2.255666049796789e-14
    vertex -34.50000000000001 -1.4099832412739487e-15 -2.2540961517281498e-14
  endloop
endfacet
facet normal -4.17118735592943e-18 -1.2930009114596055e-17 -1.0
  outer loop
    vertex -31.164685702961343 4.346666218300809 -2.2611076171926094e-14
    vertex -8.000000000000002 12.5 2.8199664825478975e-15
    vertex -30.0 4.500000000000002 -2.2617916901398864e-14
  endloop
endfacet
facet normal -4.17118735592943e-18 -1.2930009114596055e-17 -1.0
  outer loop
    vertex -30.0 4.500000000000002 -2.2617916901398864e-14
    vertex -8.000000000000002 12.5 2.8199664825478975e-15
    vertex -28.835314297038654 4.3466662183008085 -2.2620792416481742e-14
  endloop
endfacet
facet normal -4.17118735592943e-18 -1.2930009114596055e-17 -1.0
  outer loop
    vertex -28.835314297038654 4.3466662183008085 -2.2620792416481742e-14
    vertex -8.000000000000002 12.5 2.8199664825478975e-15
    vertex -27.75 3.897114317029974 -2.261950675557384e-14
  endloop
endfacet
facet normal -4.17118735592943e-18 -1.2930009114596055e-17 -1.0
  outer loop
    vertex -27.75 3.897114317029974 -2.261950675557384e-14
    vertex -8.000000000000002 12.5 2.8199664825478975e-15
    vertex -26.818019484660535 3.1819805153394625 -2.2614147534341386e-14
  endloop
endfacet
facet normal -4.17118735592943e-18 -1.2930009114596055e-17 -1.0
  outer loop
    vertex -26.818019484660535 3.1819805153394625 -2.2614147534341386e-14
    vertex -8.000000000000002 12.5 2.8199664825478975e-15
    vertex -26.102885682970022 2.2499999999999987 -2.2605079974854825e-14
  endloop
endfacet
facet normal -4.17118735592943e-18 -1.2930009114596055e-17 -1.0
  outer loop
    vertex -26.102885682970022 2.2499999999999987 -2.2605079974854825e-14
    vertex -8.000000000000002 12.5 2.8199664825478975e-15
    vertex -25.65333378169919 1.164685702961341 -2.259292201630833e-14
  endloop
endfacet
facet normal -4.17118735592943e-18 -1.2930009114596055e-17 -1.0
  outer loop
    vertex -25.65333378169919 1.164685702961341 -2.259292201630833e-14
    vertex -8.000000000000002 12.5 2.8199664825478975e-15
    vertex -25.5 -1.961074300890258e-15 -2.257850220348486e-14
  endloop
endfacet
facet normal -4.17118735592943e-18 -1.2930009114596055e-17 -1.0
  outer loop
    vertex -25.5 -1.961074300890258e-15 -2.257850220348486e-14
    vertex -8.000000000000002 12.5 2.8199664825478975e-15
    vertex -12.999999999999998 7.5 2.8199664825478975e-15
  endloop
endfacet
facet normal -4.17118735592943e-18 -1.2930009114596055e-17 -1.0
  outer loop
    vertex -25.5 -1.961074300890258e-15 -2.257850220348486e-14
    vertex -12.999999999999998 7.5 2.8199664825478975e-15
    vertex -13.000000000000002 -7.499999999999997 2.8199664825478975e-15
  endloop
endfacet
facet normal -4.17118735592943e-18 -1.2930009114596055e-17 -1.0
  outer loop
    vertex -60.0 -12.500000000000002 2.8199664825478975e-15
    vertex -31.16468570296135 -4.346666218300811 -2.249867130428462e-14
    vertex -8.000000000000002 -12.499999999999998 2.8199664825478975e-15
  endloop
endfacet
facet normal -4.17118735592943e-18 -1.2930009114596055e-17 -1.0
  outer loop
    vertex -31.16468570296135 -4.346666218300811 -2.249867130428462e-14
    vertex -60.0 -12.500000000000002 2.8199664825478975e-15
    vertex -32.25 -3.8971143170299776 -2.249995696519252e-14
  endloop
endfacet
facet normal -4.17118735592943e-18 -1.2930009114596055e-17 -1.0
  outer loop
    vertex -32.25 -3.8971143170299776 -2.249995696519252e-14
    vertex -60.0 -12.500000000000002 2.8199664825478975e-15
    vertex -33.18198051533947 -3.1819805153394674 -2.2505316186424976e-14
  endloop
endfacet
facet normal -4.17118735592943e-18 -1.2930009114596055e-17 -1.0
  outer loop
    vertex -33.18198051533947 -3.1819805153394674 -2.2505316186424976e-14
    vertex -60.0 -12.500000000000002 2.8199664825478975e-15
    vertex -33.89711431702998 -2.2500000000000027 -2.2514383745911534e-14
  endloop
endfacet
facet normal -4.17118735592943e-18 -1.2930009114596055e-17 -1.0
  outer loop
    vertex -33.89711431702998 -2.2500000000000027 -2.2514383745911534e-14
    vertex -60.0 -12.500000000000002 2.8199664825478975e-15
    vertex -34.34666621830081 -1.1646857029613455 -2.252654170445803e-14
  endloop
endfacet
facet normal -4.17118735592943e-18 -1.2930009114596055e-17 -1.0
  outer loop
    vertex -34.34666621830081 -1.1646857029613455 -2.252654170445803e-14
    vertex -60.0 -12.500000000000002 2.8199664825478975e-15
    vertex -34.50000000000001 -1.4099832412739487e-15 -2.2540961517281498e-14
  endloop
endfacet
facet normal -4.17118735592943e-18 -1.2930009114596055e-17 -1.0
  outer loop
    vertex -8.000000000000002 -12.499999999999998 2.8199664825478975e-15
    vertex -31.16468570296135 -4.346666218300811 -2.249867130428462e-14
    vertex -30.0 -4.500000000000004 -2.2501546819367496e-14
  endloop
endfacet
facet normal -4.17118735592943e-18 -1.2930009114596055e-17 -1.0
  outer loop
    vertex -8.000000000000002 -12.499999999999998 2.8199664825478975e-15
    vertex -30.0 -4.500000000000004 -2.2501546819367496e-14
    vertex -28.83531429703866 -4.346666218300811 -2.2508387548840266e-14
  endloop
endfacet
facet normal -4.17118735592943e-18 -1.2930009114596055e-17 -1.0
  outer loop
    vertex -8.000000000000002 -12.499999999999998 2.8199664825478975e-15
    vertex -28.83531429703866 -4.346666218300811 -2.2508387548840266e-14
    vertex -27.75 -3.8971143170299785 -2.2518727308294197e-14
  endloop
endfacet
facet normal -4.17118735592943e-18 -1.2930009114596055e-17 -1.0
  outer loop
    vertex -8.000000000000002 -12.499999999999998 2.8199664825478975e-15
    vertex -27.75 -3.8971143170299785 -2.2518727308294197e-14
    vertex -26.818019484660535 -3.1819805153394674 -2.253186146020977e-14
  endloop
endfacet
facet normal -4.17118735592943e-18 -1.2930009114596055e-17 -1.0
  outer loop
    vertex -8.000000000000002 -12.499999999999998 2.8199664825478975e-15
    vertex -26.818019484660535 -3.1819805153394674 -2.253186146020977e-14
    vertex -26.10288568297003 -2.2500000000000044 -2.2546894933839144e-14
  endloop
endfacet
facet normal -4.17118735592943e-18 -1.2930009114596055e-17 -1.0
  outer loop
    vertex -8.000000000000002 -12.499999999999998 2.8199664825478975e-15
    vertex -26.10288568297003 -2.2500000000000044 -2.2546894933839144e-14
    vertex -25.653333781699192 -1.1646857029613469 -2.2562803222798472e-14
  endloop
endfacet
facet normal -4.17118735592943e-18 -1.2930009114596055e-17 -1.0
  outer loop
    vertex -8.000000000000002 -12.499999999999998 2.8199664825478975e-15
    vertex -25.653333781699192 -1.1646857029613469 -2.2562803222798472e-14
    vertex -25.5 -1.961074300890258e-15 -2.257850220348486e-14
  endloop
endfacet
facet normal -4.17118735592943e-18 -1.2930009114596055e-17 -1.0
  outer loop
    vertex -8.000000000000002 -12.499999999999998 2.8199664825478975e-15
    vertex -25.5 -1.961074300890258e-15 -2.257850220348486e-14
    vertex -13.000000000000002 -7.499999999999997 2.8199664825478975e-15
  endloop
endfacet
facet normal -1.0 1.879977655031932e-16 0.0
  outer loop
    vertex -12.999999999999998 7.5 2.8199664825478975e-15
    vertex -13.000000000000002 -7.499999999999997 -19.999999999999996
    vertex -13.000000000000002 -7.499999999999997 2.8199664825478975e-15
  endloop
endfacet
facet normal -1.0 1.879977655031932e-16 0.0
  outer loop
    vertex -13.000000000000002 -7.499999999999997 -19.999999999999996
    vertex -12.999999999999998 7.5 2.8199664825478975e-15
    vertex -12.999999999999998 7.5 -19.999999999999996
  endloop
endfacet
facet normal -0.7071067811865476 -0.7071067811865475 5.668398236917363e-33
  outer loop
    vertex -13.000000000000002 -7.499999999999997 2.8199664825478975e-15
    vertex -8.000000000000002 -12.499999999999998 -19.999999999999996
    vertex -8.000000000000002 -12.499999999999998 2.8199664825478975e-15
  endloop
endfacet
facet normal -0.7071067811865476 -0.7071067811865475 5.668398236917363e-33
  outer loop
    vertex -8.000000000000002 -12.499999999999998 -19.999999999999996
    vertex -13.000000000000002 -7.499999999999997 2.8199664825478975e-15
    vertex -13.000000000000002 -7.499999999999997 -19.999999999999996
  endloop
endfacet
facet normal -0.7071067811865477 0.7071067811865474 0.0
  outer loop
    vertex -8.000000000000002 12.5 2.8199664825478975e-15
    vertex -12.999999999999998 7.5 -19.999999999999996
    vertex -12.999999999999998 7.5 2.8199664825478975e-15
  endloop
endfacet
facet normal -0.7071067811865477 0.7071067811865474 0.0
  outer loop
    vertex -12.999999999999998 7.5 -19.999999999999996
    vertex -8.000000000000002 12.5 2.8199664825478975e-15
    vertex -8.000000000000002 12.5 -19.999999999999996
  endloop
endfacet
facet normal -1.3270430506107749e-16 7.930197921966383e-33 -1.0
  outer loop
    vertex -12.999999999999998 7.5 -19.999999999999996
    vertex -8.000000000000002 -12.499999999999998 -19.999999999999996
    vertex -13.000000000000002 -7.499999999999997 -19.999999999999996
  endloop
endfacet
facet normal -1.3270430506107749e-16 7.930197921966383e-33 -1.0
  outer loop
    vertex -8.000000000000002 -12.499999999999998 -19.999999999999996
    vertex -12.999999999999998 7.5 -19.999999999999996
    vertex -8.000000000000002 12.5 -19.999999999999996
  endloop
endfacet
facet normal -1.3270430506107749e-16 7.930197921966383e-33 -1.0
  outer loop
    vertex -8.000000000000002 -12.499999999999998 -19.999999999999996
    vertex -8.000000000000002 12.5 -19.999999999999996
    vertex -7.999999999999998 -4.502407656471739e-17 -20.0
  endloop
endfacet
facet normal -1.3270430506107749e-16 7.930197921966383e-33 -1.0
  outer loop
    vertex -7.999999999999998 -4.502407656471739e-17 -20.0
    vertex -8.000000000000002 12.5 -19.999999999999996
    vertex -7.727406610312543 2.070552360820172 -20.0
  endloop
endfacet
facet normal -1.3270430506107749e-16 7.930197921966383e-33 -1.0
  outer loop
    vertex -7.727406610312543 2.070552360820172 -20.0
    vertex -8.000000000000002 12.5 -19.999999999999996
    vertex -6.928203230275505 4.0000000000000036 -20.0
  endloop
endfacet
facet normal -1.3270430506107749e-16 7.930197921966383e-33 -1.0
  outer loop
    vertex -6.928203230275505 4.0000000000000036 -20.0
    vertex -8.000000000000002 12.5 -19.999999999999996
    vertex -5.656854249492378 5.656854249492381 -20.0
  endloop
endfacet
facet normal -1.3270430506107749e-16 7.930197921966383e-33 -1.0
  outer loop
    vertex -5.656854249492378 5.656854249492381 -20.0
    vertex -8.000000000000002 12.5 -19.999999999999996
    vertex -3.9999999999999942 6.928203230275512 -20.0
  endloop
endfacet
facet normal -1.3270430506107749e-16 7.930197921966383e-33 -1.0
  outer loop
    vertex -3.9999999999999942 6.928203230275512 -20.0
    vertex -8.000000000000002 12.5 -19.999999999999996
    vertex 6.999999999999998 12.5 -20.0
  endloop
endfacet
facet normal -1.3270430506107749e-16 7.930197921966383e-33 -1.0
  outer loop
    vertex -3.9999999999999942 6.928203230275512 -20.0
    vertex 6.999999999999998 12.5 -20.0
    vertex -2.0705523608201624 7.7274066103125465 -20.0
  endloop
endfacet
facet normal -1.3270430506107749e-16 7.930197921966383e-33 -1.0
  outer loop
    vertex -2.0705523608201624 7.7274066103125465 -20.0
    vertex 6.999999999999998 12.5 -20.0
    vertex 8.94309797153446e-16 7.999999999999999 -20.0
  endloop
endfacet
facet normal -1.3270430506107749e-16 7.930197921966383e-33 -1.0
  outer loop
    vertex 8.94309797153446e-16 7.999999999999999 -20.0
    vertex 6.999999999999998 12.5 -20.0
    vertex 2.070552360820171 7.727406610312544 -20.0
  endloop
endfacet
facet normal -1.3270430506107749e-16 7.930197921966383e-33 -1.0
  outer loop
    vertex 2.070552360820171 7.727406610312544 -20.0
    vertex 6.999999999999998 12.5 -20.0
    vertex 4.000000000000002 6.928203230275508 -20.0
  endloop
endfacet
facet normal -1.3270430506107749e-16 7.930197921966383e-33 -1.0
  outer loop
    vertex 4.000000000000002 6.928203230275508 -20.0
    vertex 6.999999999999998 12.5 -20.0
    vertex 5.6568542494923815 5.656854249492377 -20.0
  endloop
endfacet
facet normal -1.3270430506107749e-16 7.930197921966383e-33 -1.0
  outer loop
    vertex 5.6568542494923815 5.656854249492377 -20.0
    vertex 6.999999999999998 12.5 -20.0
    vertex 6.928203230275509 3.999999999999998 -20.0
  endloop
endfacet
facet normal -1.3270430506107749e-16 7.930197921966383e-33 -1.0
  outer loop
    vertex 6.928203230275509 3.999999999999998 -20.0
    vertex 6.999999999999998 12.5 -20.0
    vertex 7.727406610312546 2.070552360820163 -20.0
  endloop
endfacet
facet normal -1.3270430506107749e-16 7.930197921966383e-33 -1.0
  outer loop
    vertex 7.727406610312546 2.070552360820163 -20.0
    vertex 6.999999999999998 12.5 -20.0
    vertex 11.999999999999998 7.5 -20.0
  endloop
endfacet
facet normal -1.3270430506107749e-16 7.930197921966383e-33 -1.0
  outer loop
    vertex 7.727406610312546 2.070552360820163 -20.0
    vertex 11.999999999999998 7.5 -20.0
    vertex 7.999999999999998 -1.0247415158825998e-15 -20.0
  endloop
endfacet
facet normal -1.3270430506107749e-16 7.930197921966383e-33 -1.0
  outer loop
    vertex -8.000000000000002 -12.499999999999998 -19.999999999999996
    vertex -4.0 -6.928203230275508 -20.0
    vertex 6.999999999999998 -12.499999999999996 -20.0
  endloop
endfacet
facet normal -1.3270430506107749e-16 7.930197921966383e-33 -1.0
  outer loop
    vertex -4.0 -6.928203230275508 -20.0
    vertex -8.000000000000002 -12.499999999999998 -19.999999999999996
    vertex -5.656854249492381 -5.656854249492381 -20.0
  endloop
endfacet
facet normal -1.3270430506107749e-16 7.930197921966383e-33 -1.0
  outer loop
    vertex -5.656854249492381 -5.656854249492381 -20.0
    vertex -8.000000000000002 -12.499999999999998 -19.999999999999996
    vertex -6.928203230275508 -3.999999999999999 -20.0
  endloop
endfacet
facet normal -1.3270430506107749e-16 7.930197921966383e-33 -1.0
  outer loop
    vertex -6.928203230275508 -3.999999999999999 -20.0
    vertex -8.000000000000002 -12.499999999999998 -19.999999999999996
    vertex -7.727406610312544 -2.070552360820166 -20.0
  endloop
endfacet
facet normal -1.3270430506107749e-16 7.930197921966383e-33 -1.0
  outer loop
    vertex -7.727406610312544 -2.070552360820166 -20.0
    vertex -8.000000000000002 -12.499999999999998 -19.999999999999996
    vertex -7.999999999999998 -4.502407656471739e-17 -20.0
  endloop
endfacet
facet normal -1.3270430506107749e-16 7.930197921966383e-33 -1.0
  outer loop
    vertex 6.999999999999998 -12.499999999999996 -20.0
    vertex -4.0 -6.928203230275508 -20.0
    vertex -2.070552360820168 -7.727406610312546 -20.0
  endloop
endfacet
facet normal -1.3270430506107749e-16 7.930197921966383e-33 -1.0
  outer loop
    vertex 6.999999999999998 -12.499999999999996 -20.0
    vertex -2.070552360820168 -7.727406610312546 -20.0
    vertex -1.0651250814823183e-15 -7.999999999999999 -20.0
  endloop
endfacet
facet normal -1.3270430506107749e-16 7.930197921966383e-33 -1.0
  outer loop
    vertex 6.999999999999998 -12.499999999999996 -20.0
    vertex -1.0651250814823183e-15 -7.999999999999999 -20.0
    vertex 2.0705523608201637 -7.727406610312546 -20.0
  endloop
endfacet
facet normal -1.3270430506107749e-16 7.930197921966383e-33 -1.0
  outer loop
    vertex 6.999999999999998 -12.499999999999996 -20.0
    vertex 2.0705523608201637 -7.727406610312546 -20.0
    vertex 3.999999999999996 -6.928203230275509 -20.0
  endloop
endfacet
facet normal -1.3270430506107749e-16 7.930197921966383e-33 -1.0
  outer loop
    vertex 6.999999999999998 -12.499999999999996 -20.0
    vertex 3.999999999999996 -6.928203230275509 -20.0
    vertex 5.656854249492378 -5.656854249492381 -20.0
  endloop
endfacet
facet normal -1.3270430506107749e-16 7.930197921966383e-33 -1.0
  outer loop
    vertex 6.999999999999998 -12.499999999999996 -20.0
    vertex 5.656854249492378 -5.656854249492381 -20.0
    vertex 6.928203230275506 -4.000000000000003 -20.0
  endloop
endfacet
facet normal -1.3270430506107749e-16 7.930197921966383e-33 -1.0
  outer loop
    vertex 6.999999999999998 -12.499999999999996 -20.0
    vertex 6.928203230275506 -4.000000000000003 -20.0
    vertex 7.727406610312544 -2.070552360820168 -20.0
  endloop
endfacet
facet normal -1.3270430506107749e-16 7.930197921966383e-33 -1.0
  outer loop
    vertex 6.999999999999998 -12.499999999999996 -20.0
    vertex 7.727406610312544 -2.070552360820168 -20.0
    vertex 11.999999999999998 -7.499999999999997 -20.0
  endloop
endfacet
facet normal -1.3270430506107749e-16 7.930197921966383e-33 -1.0
  outer loop
    vertex 11.999999999999998 -7.499999999999997 -20.0
    vertex 7.727406610312544 -2.070552360820168 -20.0
    vertex 7.999999999999998 -1.0247415158825998e-15 -20.0
  endloop
endfacet
facet normal -1.3270430506107749e-16 7.930197921966383e-33 -1.0
  outer loop
    vertex 11.999999999999998 -7.499999999999997 -20.0
    vertex 7.999999999999998 -1.0247415158825998e-15 -20.0
    vertex 11.999999999999998 7.5 -20.0
  endloop
endfacet
facet normal 0.7071067811865476 0.7071067811865476 -0.0
  outer loop
    vertex 6.999999999999998 12.5 -20.0
    vertex 11.999999999999998 7.5 10.00000000000002
    vertex 11.999999999999998 7.5 -20.0
  endloop
endfacet
facet normal 0.7071067811865476 0.7071067811865476 -0.0
  outer loop
    vertex 11.999999999999998 7.5 10.00000000000002
    vertex 6.999999999999998 12.5 -20.0
    vertex 6.999999999999998 12.5 10.00000000000002
  endloop
endfacet
facet normal 0.7071067811865476 -0.7071067811865476 3.517225175848697e-18
  outer loop
    vertex 11.999999999999998 -7.499999999999997 -20.0
    vertex 6.999999999999998 -12.499999999999996 10.00000000000002
    vertex 6.999999999999998 -12.499999999999996 -20.0
  endloop
endfacet
facet normal 0.7071067811865476 -0.7071067811865476 3.517225175848697e-18
  outer loop
    vertex 6.999999999999998 -12.499999999999996 10.00000000000002
    vertex 11.999999999999998 -7.499999999999997 -20.0
    vertex 11.999999999999998 -7.499999999999997 10.00000000000002
  endloop
endfacet
facet normal 0.9238795325112884 0.38268343236508595 -8.801774892898096e-18
  outer loop
    vertex -33.89711431702998 -2.2500000000000027 -2.2514383745911534e-14
    vertex -34.34666621830081 -1.1646857029613455 10.000000000000027
    vertex -33.89711431702998 -2.250000000000003 10.000000000000027
  endloop
endfacet
facet normal 0.9238795325112884 0.38268343236508595 -8.801774892898096e-18
  outer loop
    vertex -34.34666621830081 -1.1646857029613455 10.000000000000027
    vertex -33.89711431702998 -2.2500000000000027 -2.2514383745911534e-14
    vertex -34.34666621830081 -1.1646857029613455 -2.252654170445803e-14
  endloop
endfacet
facet normal 0.9914448613738102 0.13052619222005402 -5.823207124961936e-18
  outer loop
    vertex -34.50000000000001 -1.4099832412739487e-15 -2.2540961517281498e-14
    vertex -34.34666621830081 -1.1646857029613455 10.000000000000027
    vertex -34.34666621830081 -1.1646857029613455 -2.252654170445803e-14
  endloop
endfacet
facet normal 0.9914448613738102 0.13052619222005402 -5.823207124961936e-18
  outer loop
    vertex -34.34666621830081 -1.1646857029613455 10.000000000000027
    vertex -34.50000000000001 -1.4099832412739487e-15 -2.2540961517281498e-14
    vertex -34.50000000000001 -1.2806831501279857e-15 10.000000000000027
  endloop
endfacet
facet normal 0.9914448613738102 -0.13052619222005363 -2.4477974147642697e-18
  outer loop
    vertex -34.34666621830081 1.1646857029613464 -2.255666049796789e-14
    vertex -34.50000000000001 -1.2806831501279857e-15 10.000000000000027
    vertex -34.50000000000001 -1.4099832412739487e-15 -2.2540961517281498e-14
  endloop
endfacet
facet normal 0.9914448613738102 -0.13052619222005363 -2.4477974147642697e-18
  outer loop
    vertex -34.50000000000001 -1.2806831501279857e-15 10.000000000000027
    vertex -34.34666621830081 1.1646857029613464 -2.255666049796789e-14
    vertex -34.34666621830081 1.1646857029613464 10.000000000000027
  endloop
endfacet
facet normal 0.9238795325112866 -0.38268343236509045 1.0944256440730165e-18
  outer loop
    vertex -33.897114317029974 2.250000000000002 -2.2572568786927218e-14
    vertex -34.34666621830081 1.1646857029613464 10.000000000000027
    vertex -34.34666621830081 1.1646857029613464 -2.255666049796789e-14
  endloop
endfacet
facet normal 0.9238795325112866 -0.38268343236509045 1.0944256440730165e-18
  outer loop
    vertex -34.34666621830081 1.1646857029613464 10.000000000000027
    vertex -33.897114317029974 2.250000000000002 -2.2572568786927218e-14
    vertex -33.897114317029974 2.2500000000000013 10.000000000000027
  endloop
endfacet
facet normal 0.793353340291236 -0.6087614290087194 4.56206540389061e-18
  outer loop
    vertex -33.897114317029974 2.250000000000002 -2.2572568786927218e-14
    vertex -33.18198051533947 3.1819805153394642 10.000000000000027
    vertex -33.897114317029974 2.2500000000000013 10.000000000000027
  endloop
endfacet
facet normal 0.793353340291236 -0.6087614290087194 4.56206540389061e-18
  outer loop
    vertex -33.18198051533947 3.1819805153394642 10.000000000000027
    vertex -33.897114317029974 2.250000000000002 -2.2572568786927218e-14
    vertex -33.18198051533947 3.1819805153394656 -2.2587602260556593e-14
  endloop
endfacet
facet normal 0.6087614290087189 -0.7933533402912366 7.718807945602674e-18
  outer loop
    vertex -32.25 3.8971143170299753 10.000000000000027
    vertex -33.18198051533947 3.1819805153394656 -2.2587602260556593e-14
    vertex -32.25 3.897114317029977 -2.2600736412472162e-14
  endloop
endfacet
facet normal 0.6087614290087189 -0.7933533402912366 7.718807945602674e-18
  outer loop
    vertex -33.18198051533947 3.1819805153394656 -2.2587602260556593e-14
    vertex -32.25 3.8971143170299753 10.000000000000027
    vertex -33.18198051533947 3.1819805153394642 10.000000000000027
  endloop
endfacet
facet normal 0.3826834323650897 -0.9238795325112868 1.0349526481755099e-17
  outer loop
    vertex -31.164685702961343 4.3466662183008085 10.000000000000027
    vertex -32.25 3.897114317029977 -2.2600736412472162e-14
    vertex -31.164685702961343 4.346666218300809 -2.2611076171926094e-14
  endloop
endfacet
facet normal 0.3826834323650897 -0.9238795325112868 1.0349526481755099e-17
  outer loop
    vertex -32.25 3.897114317029977 -2.2600736412472162e-14
    vertex -31.164685702961343 4.3466662183008085 10.000000000000027
    vertex -32.25 3.8971143170299753 10.000000000000027
  endloop
endfacet
facet normal 0.1305261922200514 -0.9914448613738105 1.2274941891577127e-17
  outer loop
    vertex -30.0 4.5 10.000000000000027
    vertex -31.164685702961343 4.346666218300809 -2.2611076171926094e-14
    vertex -30.0 4.500000000000002 -2.2617916901398864e-14
  endloop
endfacet
facet normal 0.1305261922200514 -0.9914448613738105 1.2274941891577127e-17
  outer loop
    vertex -31.164685702961343 4.346666218300809 -2.2611076171926094e-14
    vertex -30.0 4.5 10.000000000000027
    vertex -31.164685702961343 4.3466662183008085 10.000000000000027
  endloop
endfacet
facet normal -0.13052619222005196 -0.9914448613738105 1.3363840296788772e-17
  outer loop
    vertex -28.835314297038654 4.346666218300807 10.000000000000027
    vertex -30.0 4.500000000000002 -2.2617916901398864e-14
    vertex -28.835314297038654 4.3466662183008085 -2.2620792416481742e-14
  endloop
endfacet
facet normal -0.13052619222005196 -0.9914448613738105 1.3363840296788772e-17
  outer loop
    vertex -30.0 4.500000000000002 -2.2617916901398864e-14
    vertex -28.835314297038654 4.346666218300807 10.000000000000027
    vertex -30.0 4.5 10.000000000000027
  endloop
endfacet
facet normal -0.3826834323650908 -0.9238795325112865 1.3542015070564554e-17
  outer loop
    vertex -27.75 3.897114317029974 -2.261950675557384e-14
    vertex -28.835314297038654 4.346666218300807 10.000000000000027
    vertex -28.835314297038654 4.3466662183008085 -2.2620792416481742e-14
  endloop
endfacet
facet normal -0.3826834323650908 -0.9238795325112865 1.3542015070564554e-17
  outer loop
    vertex -28.835314297038654 4.346666218300807 10.000000000000027
    vertex -27.75 3.897114317029974 -2.261950675557384e-14
    vertex -27.75 3.8971143170299727 10.000000000000027
  endloop
endfacet
facet normal -0.6087614290087211 -0.7933533402912348 1.279732389651939e-17
  outer loop
    vertex -26.818019484660535 3.1819805153394625 -2.2614147534341386e-14
    vertex -27.75 3.8971143170299727 10.000000000000027
    vertex -27.75 3.897114317029974 -2.261950675557384e-14
  endloop
endfacet
facet normal -0.6087614290087211 -0.7933533402912348 1.279732389651939e-17
  outer loop
    vertex -27.75 3.8971143170299727 10.000000000000027
    vertex -26.818019484660535 3.1819805153394625 -2.2614147534341386e-14
    vertex -26.818019484660535 3.181980515339461 10.000000000000027
  endloop
endfacet
facet normal -0.793353340291234 -0.6087614290087222 1.1180516247504134e-17
  outer loop
    vertex -26.818019484660535 3.181980515339461 10.000000000000027
    vertex -26.102885682970022 2.2499999999999987 -2.2605079974854825e-14
    vertex -26.102885682970022 2.249999999999998 10.000000000000027
  endloop
endfacet
facet normal -0.793353340291234 -0.6087614290087222 1.1180516247504134e-17
  outer loop
    vertex -26.102885682970022 2.2499999999999987 -2.2605079974854825e-14
    vertex -26.818019484660535 3.181980515339461 10.000000000000027
    vertex -26.818019484660535 3.1819805153394625 -2.2614147534341386e-14
  endloop
endfacet
facet normal -0.9238795325112867 -0.3826834323650898 8.80177489289814e-18
  outer loop
    vertex -26.102885682970022 2.249999999999998 10.000000000000027
    vertex -25.65333378169919 1.164685702961341 -2.259292201630833e-14
    vertex -25.65333378169919 1.164685702961341 10.000000000000027
  endloop
endfacet
facet normal -0.9238795325112867 -0.3826834323650898 8.80177489289814e-18
  outer loop
    vertex -25.65333378169919 1.164685702961341 -2.259292201630833e-14
    vertex -26.102885682970022 2.249999999999998 10.000000000000027
    vertex -26.102885682970022 2.2499999999999987 -2.2605079974854825e-14
  endloop
endfacet
facet normal -0.9914448613738107 -0.13052619222004944 5.8232071249618794e-18
  outer loop
    vertex -25.5 -1.8317742097442957e-15 10.000000000000027
    vertex -25.65333378169919 1.164685702961341 -2.259292201630833e-14
    vertex -25.5 -1.961074300890258e-15 -2.257850220348486e-14
  endloop
endfacet
facet normal -0.9914448613738107 -0.13052619222004944 5.8232071249618794e-18
  outer loop
    vertex -25.65333378169919 1.164685702961341 -2.259292201630833e-14
    vertex -25.5 -1.8317742097442957e-15 10.000000000000027
    vertex -25.65333378169919 1.164685702961341 10.000000000000027
  endloop
endfacet
facet normal -0.99144486137381 0.13052619222005393 2.4477974147642655e-18
  outer loop
    vertex -25.5 -1.8317742097442957e-15 10.000000000000027
    vertex -25.653333781699192 -1.1646857029613469 -2.2562803222798472e-14
    vertex -25.653333781699192 -1.1646857029613469 10.000000000000027
  endloop
endfacet
facet normal -0.99144486137381 0.13052619222005393 2.4477974147642655e-18
  outer loop
    vertex -25.653333781699192 -1.1646857029613469 -2.2562803222798472e-14
    vertex -25.5 -1.8317742097442957e-15 10.000000000000027
    vertex -25.5 -1.961074300890258e-15 -2.257850220348486e-14
  endloop
endfacet
facet normal -0.9238795325112867 0.38268343236508984 -1.0944256440730088e-18
  outer loop
    vertex -25.653333781699192 -1.1646857029613469 10.000000000000027
    vertex -26.10288568297003 -2.2500000000000044 -2.2546894933839144e-14
    vertex -26.10288568297003 -2.250000000000005 10.000000000000027
  endloop
endfacet
facet normal -0.9238795325112867 0.38268343236508984 -1.0944256440730088e-18
  outer loop
    vertex -26.10288568297003 -2.2500000000000044 -2.2546894933839144e-14
    vertex -25.653333781699192 -1.1646857029613469 10.000000000000027
    vertex -25.653333781699192 -1.1646857029613469 -2.2562803222798472e-14
  endloop
endfacet
facet normal -0.793353340291236 0.6087614290087194 -4.56206540389061e-18
  outer loop
    vertex -26.10288568297003 -2.250000000000005 10.000000000000027
    vertex -26.818019484660535 -3.1819805153394674 -2.253186146020977e-14
    vertex -26.818019484660535 -3.181980515339469 10.000000000000027
  endloop
endfacet
facet normal -0.793353340291236 0.6087614290087194 -4.56206540389061e-18
  outer loop
    vertex -26.818019484660535 -3.1819805153394674 -2.253186146020977e-14
    vertex -26.10288568297003 -2.250000000000005 10.000000000000027
    vertex -26.10288568297003 -2.2500000000000044 -2.2546894933839144e-14
  endloop
endfacet
facet normal -0.6087614290087208 0.793353340291235 -7.718807945602645e-18
  outer loop
    vertex -27.75 -3.8971143170299785 -2.2518727308294197e-14
    vertex -26.818019484660535 -3.181980515339469 10.000000000000027
    vertex -26.818019484660535 -3.1819805153394674 -2.253186146020977e-14
  endloop
endfacet
facet normal -0.6087614290087208 0.793353340291235 -7.718807945602645e-18
  outer loop
    vertex -26.818019484660535 -3.181980515339469 10.000000000000027
    vertex -27.75 -3.8971143170299785 -2.2518727308294197e-14
    vertex -27.75 -3.89711431702998 10.000000000000027
  endloop
endfacet
facet normal -0.3826834323650885 0.9238795325112873 -1.034952648175511e-17
  outer loop
    vertex -28.83531429703866 -4.346666218300811 -2.2508387548840266e-14
    vertex -27.75 -3.89711431702998 10.000000000000027
    vertex -27.75 -3.8971143170299785 -2.2518727308294197e-14
  endloop
endfacet
facet normal -0.3826834323650885 0.9238795325112873 -1.034952648175511e-17
  outer loop
    vertex -27.75 -3.89711431702998 10.000000000000027
    vertex -28.83531429703866 -4.346666218300811 -2.2508387548840266e-14
    vertex -28.83531429703866 -4.346666218300813 10.000000000000027
  endloop
endfacet
facet normal -0.13052619222005202 0.9914448613738105 -1.2274941891577124e-17
  outer loop
    vertex -30.0 -4.500000000000004 -2.2501546819367496e-14
    vertex -28.83531429703866 -4.346666218300813 10.000000000000027
    vertex -28.83531429703866 -4.346666218300811 -2.2508387548840266e-14
  endloop
endfacet
facet normal -0.13052619222005202 0.9914448613738105 -1.2274941891577124e-17
  outer loop
    vertex -28.83531429703866 -4.346666218300813 10.000000000000027
    vertex -30.0 -4.500000000000004 -2.2501546819367496e-14
    vertex -30.0 -4.500000000000006 10.000000000000027
  endloop
endfacet
facet normal 0.13052619222005138 0.9914448613738106 -1.336384029678877e-17
  outer loop
    vertex -31.16468570296135 -4.346666218300811 -2.249867130428462e-14
    vertex -30.0 -4.500000000000006 10.000000000000027
    vertex -30.0 -4.500000000000004 -2.2501546819367496e-14
  endloop
endfacet
facet normal 0.13052619222005138 0.9914448613738106 -1.336384029678877e-17
  outer loop
    vertex -30.0 -4.500000000000006 10.000000000000027
    vertex -31.16468570296135 -4.346666218300811 -2.249867130428462e-14
    vertex -31.16468570296135 -4.346666218300813 10.000000000000027
  endloop
endfacet
facet normal 0.3826834323650908 0.9238795325112865 -1.3542015070564554e-17
  outer loop
    vertex -32.25 -3.897114317029979 10.000000000000027
    vertex -31.16468570296135 -4.346666218300811 -2.249867130428462e-14
    vertex -32.25 -3.8971143170299776 -2.249995696519252e-14
  endloop
endfacet
facet normal 0.3826834323650908 0.9238795325112865 -1.3542015070564554e-17
  outer loop
    vertex -31.16468570296135 -4.346666218300811 -2.249867130428462e-14
    vertex -32.25 -3.897114317029979 10.000000000000027
    vertex -31.16468570296135 -4.346666218300813 10.000000000000027
  endloop
endfacet
facet normal 0.6087614290087203 0.7933533402912354 -1.2797323896519395e-17
  outer loop
    vertex -33.18198051533947 -3.181980515339469 10.000000000000027
    vertex -32.25 -3.8971143170299776 -2.249995696519252e-14
    vertex -33.18198051533947 -3.1819805153394674 -2.2505316186424976e-14
  endloop
endfacet
facet normal 0.6087614290087203 0.7933533402912354 -1.2797323896519395e-17
  outer loop
    vertex -32.25 -3.8971143170299776 -2.249995696519252e-14
    vertex -33.18198051533947 -3.181980515339469 10.000000000000027
    vertex -32.25 -3.897114317029979 10.000000000000027
  endloop
endfacet
facet normal 0.7933533402912344 0.6087614290087218 -1.1180516247504127e-17
  outer loop
    vertex -33.18198051533947 -3.1819805153394674 -2.2505316186424976e-14
    vertex -33.89711431702998 -2.250000000000003 10.000000000000027
    vertex -33.18198051533947 -3.181980515339469 10.000000000000027
  endloop
endfacet
facet normal 0.7933533402912344 0.6087614290087218 -1.1180516247504127e-17
  outer loop
    vertex -33.89711431702998 -2.250000000000003 10.000000000000027
    vertex -33.18198051533947 -3.1819805153394674 -2.2505316186424976e-14
    vertex -33.89711431702998 -2.2500000000000027 -2.2514383745911534e-14
  endloop
endfacet
endsolid Прищепка-верх-вариант1
