solid Box
facet normal 1.0 0.0 0.0
  outer loop
    vertex 211.903299 40.0 -55.0
    vertex 211.903299 1.7624790515924363e-17 -1.9999999999999962
    vertex 211.903299 0.0 -55.0
  endloop
endfacet
facet normal 1.0 0.0 0.0
  outer loop
    vertex 211.903299 1.7624790515924363e-17 -1.9999999999999962
    vertex 211.903299 40.0 -55.0
    vertex 211.903299 40.0 -1.9999999999999962
  endloop
endfacet
facet normal 1.1620474294454667e-33 -2.0910768408723812e-17 1.0
  outer loop
    vertex 211.903299 1.7624790515924363e-17 -1.9999999999999962
    vertex 209.903299 1.9999999999999998 -2.0000000000000075
    vertex 209.903299 1.7624790515924363e-17 -1.9999999999999962
  endloop
endfacet
facet normal 1.1620474294454667e-33 -2.0910768408723812e-17 1.0
  outer loop
    vertex 209.903299 1.9999999999999998 -2.0000000000000075
    vertex 211.903299 1.7624790515924363e-17 -1.9999999999999962
    vertex 209.903299 3.9999999999999996 -2.0000000000000075
  endloop
endfacet
facet normal 1.1620474294454667e-33 -2.0910768408723812e-17 1.0
  outer loop
    vertex 209.903299 3.9999999999999996 -2.0000000000000075
    vertex 211.903299 1.7624790515924363e-17 -1.9999999999999962
    vertex 209.903299 38.0 -1.9999999999999962
  endloop
endfacet
facet normal 1.1620474294454667e-33 -2.0910768408723812e-17 1.0
  outer loop
    vertex 133.903299 1.7624790515924363e-17 -1.9999999999999962
    vertex 131.903299 40.0 -1.9999999999999962
    vertex 131.903299 1.7624790515924363e-17 -1.9999999999999962
  endloop
endfacet
facet normal 1.1620474294454667e-33 -2.0910768408723812e-17 1.0
  outer loop
    vertex 131.903299 40.0 -1.9999999999999962
    vertex 133.903299 1.7624790515924363e-17 -1.9999999999999962
    vertex 133.903299 38.0 -1.9999999999999962
  endloop
endfacet
facet normal 1.1620474294454667e-33 -2.0910768408723812e-17 1.0
  outer loop
    vertex 131.903299 40.0 -1.9999999999999962
    vertex 133.903299 38.0 -1.9999999999999962
    vertex 211.903299 40.0 -1.9999999999999962
  endloop
endfacet
facet normal 1.1620474294454667e-33 -2.0910768408723812e-17 1.0
  outer loop
    vertex 133.903299 38.0 -1.9999999999999962
    vertex 133.903299 1.7624790515924363e-17 -1.9999999999999962
    vertex 133.903299 1.9999999999999998 -2.0000000000000075
  endloop
endfacet
facet normal 1.1620474294454667e-33 -2.0910768408723812e-17 1.0
  outer loop
    vertex 133.903299 38.0 -1.9999999999999962
    vertex 133.903299 1.9999999999999998 -2.0000000000000075
    vertex 133.903299 3.9999999999999996 -2.0000000000000075
  endloop
endfacet
facet normal 1.1620474294454667e-33 -2.0910768408723812e-17 1.0
  outer loop
    vertex 211.903299 40.0 -1.9999999999999962
    vertex 133.903299 38.0 -1.9999999999999962
    vertex 209.903299 38.0 -1.9999999999999962
  endloop
endfacet
facet normal 1.1620474294454667e-33 -2.0910768408723812e-17 1.0
  outer loop
    vertex 211.903299 40.0 -1.9999999999999962
    vertex 209.903299 38.0 -1.9999999999999962
    vertex 211.903299 1.7624790515924363e-17 -1.9999999999999962
  endloop
endfacet
facet normal -1.0 0.0 0.0
  outer loop
    vertex 131.903299 1.7624790515924363e-17 -1.9999999999999962
    vertex 131.903299 40.0 -55.0
    vertex 131.903299 0.0 -55.0
  endloop
endfacet
facet normal -1.0 0.0 0.0
  outer loop
    vertex 131.903299 40.0 -55.0
    vertex 131.903299 1.7624790515924363e-17 -1.9999999999999962
    vertex 131.903299 40.0 -1.9999999999999962
  endloop
endfacet
facet normal 0.0 0.0 -1.0
  outer loop
    vertex 211.903299 40.0 -55.0
    vertex 131.903299 0.0 -55.0
    vertex 131.903299 40.0 -55.0
  endloop
endfacet
facet normal 0.0 0.0 -1.0
  outer loop
    vertex 131.903299 0.0 -55.0
    vertex 211.903299 40.0 -55.0
    vertex 211.903299 0.0 -55.0
  endloop
endfacet
facet normal 0.0 1.0 0.0
  outer loop
    vertex 131.903299 40.0 -1.9999999999999962
    vertex 211.903299 40.0 -55.0
    vertex 131.903299 40.0 -55.0
  endloop
endfacet
facet normal 0.0 1.0 0.0
  outer loop
    vertex 211.903299 40.0 -55.0
    vertex 131.903299 40.0 -1.9999999999999962
    vertex 211.903299 40.0 -1.9999999999999962
  endloop
endfacet
facet normal 0.0 -1.0 0.0
  outer loop
    vertex 211.903299 0.0 -55.0
    vertex 209.903299 0.0 -53.00000000000001
    vertex 131.903299 0.0 -55.0
  endloop
endfacet
facet normal 0.0 -1.0 0.0
  outer loop
    vertex 209.903299 0.0 -53.00000000000001
    vertex 211.903299 0.0 -55.0
    vertex 211.903299 1.7624790515924363e-17 -1.9999999999999962
  endloop
endfacet
facet normal 0.0 -1.0 0.0
  outer loop
    vertex 209.903299 0.0 -53.00000000000001
    vertex 211.903299 1.7624790515924363e-17 -1.9999999999999962
    vertex 209.903299 1.7624790515924363e-17 -1.9999999999999962
  endloop
endfacet
facet normal 0.0 -1.0 0.0
  outer loop
    vertex 131.903299 0.0 -55.0
    vertex 133.903299 0.0 -53.00000000000001
    vertex 131.903299 1.7624790515924363e-17 -1.9999999999999962
  endloop
endfacet
facet normal 0.0 -1.0 0.0
  outer loop
    vertex 133.903299 0.0 -53.00000000000001
    vertex 131.903299 0.0 -55.0
    vertex 209.903299 0.0 -53.00000000000001
  endloop
endfacet
facet normal 0.0 -1.0 0.0
  outer loop
    vertex 131.903299 1.7624790515924363e-17 -1.9999999999999962
    vertex 133.903299 0.0 -53.00000000000001
    vertex 133.903299 1.7624790515924363e-17 -1.9999999999999962
  endloop
endfacet
facet normal -1.0 0.0 0.0
  outer loop
    vertex 209.903299 1.7624790515924363e-17 -1.9999999999999962
    vertex 209.903299 1.9999999999999998 -53.00000000000001
    vertex 209.903299 0.0 -53.00000000000001
  endloop
endfacet
facet normal -1.0 0.0 0.0
  outer loop
    vertex 209.903299 1.9999999999999998 -53.00000000000001
    vertex 209.903299 1.7624790515924363e-17 -1.9999999999999962
    vertex 209.903299 1.9999999999999998 -2.0000000000000075
  endloop
endfacet
facet normal -1.0 0.0 0.0
  outer loop
    vertex 209.903299 1.9999999999999998 -53.00000000000001
    vertex 209.903299 1.9999999999999998 -2.0000000000000075
    vertex 209.903299 1.9999999999999998 -22.000000000000007
  endloop
endfacet
facet normal 1.0 0.0 0.0
  outer loop
    vertex 133.903299 38.0 -53.00000000000001
    vertex 133.903299 3.9999999999999996 -22.000000000000007
    vertex 133.903299 3.9999999999999996 -53.00000000000001
  endloop
endfacet
facet normal 1.0 0.0 0.0
  outer loop
    vertex 133.903299 3.9999999999999996 -22.000000000000007
    vertex 133.903299 38.0 -53.00000000000001
    vertex 133.903299 3.9999999999999996 -2.0000000000000075
  endloop
endfacet
facet normal 1.0 0.0 0.0
  outer loop
    vertex 133.903299 3.9999999999999996 -2.0000000000000075
    vertex 133.903299 38.0 -53.00000000000001
    vertex 133.903299 38.0 -1.9999999999999962
  endloop
endfacet
facet normal 0.0 -1.0 0.0
  outer loop
    vertex 209.903299 38.0 -1.9999999999999962
    vertex 133.903299 38.0 -53.00000000000001
    vertex 209.903299 38.0 -53.00000000000001
  endloop
endfacet
facet normal 0.0 -1.0 0.0
  outer loop
    vertex 133.903299 38.0 -53.00000000000001
    vertex 209.903299 38.0 -1.9999999999999962
    vertex 133.903299 38.0 -1.9999999999999962
  endloop
endfacet
facet normal 0.0 0.0 1.0
  outer loop
    vertex 209.903299 0.0 -53.00000000000001
    vertex 133.903299 1.9999999999999998 -53.00000000000001
    vertex 133.903299 0.0 -53.00000000000001
  endloop
endfacet
facet normal 0.0 0.0 1.0
  outer loop
    vertex 133.903299 1.9999999999999998 -53.00000000000001
    vertex 209.903299 0.0 -53.00000000000001
    vertex 135.903299 1.9999999999999998 -53.00000000000001
  endloop
endfacet
facet normal 0.0 0.0 1.0
  outer loop
    vertex 135.903299 1.9999999999999998 -53.00000000000001
    vertex 209.903299 0.0 -53.00000000000001
    vertex 135.903299 3.9999999999999996 -53.00000000000001
  endloop
endfacet
facet normal 0.0 0.0 1.0
  outer loop
    vertex 135.903299 3.9999999999999996 -53.00000000000001
    vertex 209.903299 0.0 -53.00000000000001
    vertex 207.903299 1.9999999999999998 -53.00000000000001
  endloop
endfacet
facet normal 0.0 0.0 1.0
  outer loop
    vertex 207.903299 1.9999999999999998 -53.00000000000001
    vertex 209.903299 0.0 -53.00000000000001
    vertex 209.903299 1.9999999999999998 -53.00000000000001
  endloop
endfacet
facet normal 0.0 0.0 1.0
  outer loop
    vertex 135.903299 3.9999999999999996 -53.00000000000001
    vertex 133.903299 38.0 -53.00000000000001
    vertex 133.903299 3.9999999999999996 -53.00000000000001
  endloop
endfacet
facet normal 0.0 0.0 1.0
  outer loop
    vertex 133.903299 38.0 -53.00000000000001
    vertex 135.903299 3.9999999999999996 -53.00000000000001
    vertex 209.903299 38.0 -53.00000000000001
  endloop
endfacet
facet normal 0.0 0.0 1.0
  outer loop
    vertex 209.903299 38.0 -53.00000000000001
    vertex 135.903299 3.9999999999999996 -53.00000000000001
    vertex 207.903299 3.9999999999999996 -53.00000000000001
  endloop
endfacet
facet normal 0.0 0.0 1.0
  outer loop
    vertex 207.903299 3.9999999999999996 -53.00000000000001
    vertex 135.903299 3.9999999999999996 -53.00000000000001
    vertex 207.903299 1.9999999999999998 -53.00000000000001
  endloop
endfacet
facet normal 0.0 0.0 1.0
  outer loop
    vertex 209.903299 38.0 -53.00000000000001
    vertex 207.903299 3.9999999999999996 -53.00000000000001
    vertex 209.903299 3.9999999999999996 -53.00000000000001
  endloop
endfacet
facet normal 0.0 -1.0 0.0
  outer loop
    vertex 135.903299 1.9999999999999998 -22.000000000000007
    vertex 133.903299 1.9999999999999998 -53.00000000000001
    vertex 135.903299 1.9999999999999998 -53.00000000000001
  endloop
endfacet
facet normal 0.0 -1.0 0.0
  outer loop
    vertex 133.903299 1.9999999999999998 -53.00000000000001
    vertex 135.903299 1.9999999999999998 -22.000000000000007
    vertex 133.903299 1.9999999999999998 -22.000000000000007
  endloop
endfacet
facet normal 1.0 0.0 0.0
  outer loop
    vertex 135.903299 3.9999999999999996 -53.00000000000001
    vertex 135.903299 1.9999999999999998 -22.000000000000007
    vertex 135.903299 1.9999999999999998 -53.00000000000001
  endloop
endfacet
facet normal 1.0 0.0 0.0
  outer loop
    vertex 135.903299 1.9999999999999998 -22.000000000000007
    vertex 135.903299 3.9999999999999996 -53.00000000000001
    vertex 135.903299 3.9999999999999996 -22.000000000000007
  endloop
endfacet
facet normal 0.0 1.0 0.0
  outer loop
    vertex 133.903299 3.9999999999999996 -22.000000000000007
    vertex 135.903299 3.9999999999999996 -53.00000000000001
    vertex 133.903299 3.9999999999999996 -53.00000000000001
  endloop
endfacet
facet normal 0.0 1.0 0.0
  outer loop
    vertex 135.903299 3.9999999999999996 -53.00000000000001
    vertex 133.903299 3.9999999999999996 -22.000000000000007
    vertex 135.903299 3.9999999999999996 -22.000000000000007
  endloop
endfacet
facet normal 1.0 0.0 0.0
  outer loop
    vertex 133.903299 1.9999999999999998 -53.00000000000001
    vertex 133.903299 1.7624790515924363e-17 -1.9999999999999962
    vertex 133.903299 0.0 -53.00000000000001
  endloop
endfacet
facet normal 1.0 0.0 0.0
  outer loop
    vertex 133.903299 1.7624790515924363e-17 -1.9999999999999962
    vertex 133.903299 1.9999999999999998 -53.00000000000001
    vertex 133.903299 1.9999999999999998 -2.0000000000000075
  endloop
endfacet
facet normal 1.0 0.0 0.0
  outer loop
    vertex 133.903299 1.9999999999999998 -2.0000000000000075
    vertex 133.903299 1.9999999999999998 -53.00000000000001
    vertex 133.903299 1.9999999999999998 -22.000000000000007
  endloop
endfacet
facet normal 0.0 1.0 0.0
  outer loop
    vertex 207.903299 3.9999999999999996 -22.000000000000007
    vertex 209.903299 3.9999999999999996 -53.00000000000001
    vertex 207.903299 3.9999999999999996 -53.00000000000001
  endloop
endfacet
facet normal 0.0 1.0 0.0
  outer loop
    vertex 209.903299 3.9999999999999996 -53.00000000000001
    vertex 207.903299 3.9999999999999996 -22.000000000000007
    vertex 209.903299 3.9999999999999996 -22.000000000000007
  endloop
endfacet
facet normal -1.0 -0.0 -0.0
  outer loop
    vertex 207.903299 3.9999999999999996 -22.000000000000007
    vertex 207.903299 1.9999999999999998 -53.00000000000001
    vertex 207.903299 1.9999999999999998 -22.000000000000007
  endloop
endfacet
facet normal -1.0 -0.0 -0.0
  outer loop
    vertex 207.903299 1.9999999999999998 -53.00000000000001
    vertex 207.903299 3.9999999999999996 -22.000000000000007
    vertex 207.903299 3.9999999999999996 -53.00000000000001
  endloop
endfacet
facet normal 0.0 -1.0 0.0
  outer loop
    vertex 209.903299 1.9999999999999998 -22.000000000000007
    vertex 207.903299 1.9999999999999998 -53.00000000000001
    vertex 209.903299 1.9999999999999998 -53.00000000000001
  endloop
endfacet
facet normal 0.0 -1.0 0.0
  outer loop
    vertex 207.903299 1.9999999999999998 -53.00000000000001
    vertex 209.903299 1.9999999999999998 -22.000000000000007
    vertex 207.903299 1.9999999999999998 -22.000000000000007
  endloop
endfacet
facet normal -1.0 0.0 0.0
  outer loop
    vertex 209.903299 38.0 -1.9999999999999962
    vertex 209.903299 3.9999999999999996 -22.000000000000007
    vertex 209.903299 3.9999999999999996 -2.0000000000000075
  endloop
endfacet
facet normal -1.0 0.0 0.0
  outer loop
    vertex 209.903299 3.9999999999999996 -22.000000000000007
    vertex 209.903299 38.0 -1.9999999999999962
    vertex 209.903299 3.9999999999999996 -53.00000000000001
  endloop
endfacet
facet normal -1.0 0.0 0.0
  outer loop
    vertex 209.903299 3.9999999999999996 -53.00000000000001
    vertex 209.903299 38.0 -1.9999999999999962
    vertex 209.903299 38.0 -53.00000000000001
  endloop
endfacet
facet normal 0.0 0.0 1.0
  outer loop
    vertex 209.903299 1.9999999999999998 -22.000000000000007
    vertex 207.903299 3.9999999999999996 -22.000000000000007
    vertex 207.903299 1.9999999999999998 -22.000000000000007
  endloop
endfacet
facet normal 0.0 0.0 1.0
  outer loop
    vertex 207.903299 3.9999999999999996 -22.000000000000007
    vertex 209.903299 1.9999999999999998 -22.000000000000007
    vertex 209.903299 3.9999999999999996 -22.000000000000007
  endloop
endfacet
facet normal -1.0 -0.0 -0.0
  outer loop
    vertex 209.903299 3.9999999999999996 -2.0000000000000075
    vertex 209.903299 1.9999999999999998 -22.000000000000007
    vertex 209.903299 1.9999999999999998 -2.0000000000000075
  endloop
endfacet
facet normal -1.0 -0.0 -0.0
  outer loop
    vertex 209.903299 1.9999999999999998 -22.000000000000007
    vertex 209.903299 3.9999999999999996 -2.0000000000000075
    vertex 209.903299 3.9999999999999996 -22.000000000000007
  endloop
endfacet
facet normal 0.0 0.0 1.0
  outer loop
    vertex 135.903299 1.9999999999999998 -22.000000000000007
    vertex 133.903299 3.9999999999999996 -22.000000000000007
    vertex 133.903299 1.9999999999999998 -22.000000000000007
  endloop
endfacet
facet normal 0.0 0.0 1.0
  outer loop
    vertex 133.903299 3.9999999999999996 -22.000000000000007
    vertex 135.903299 1.9999999999999998 -22.000000000000007
    vertex 135.903299 3.9999999999999996 -22.000000000000007
  endloop
endfacet
facet normal 1.0 -0.0 -0.0
  outer loop
    vertex 133.903299 3.9999999999999996 -22.000000000000007
    vertex 133.903299 1.9999999999999998 -2.0000000000000075
    vertex 133.903299 1.9999999999999998 -22.000000000000007
  endloop
endfacet
facet normal 1.0 -0.0 -0.0
  outer loop
    vertex 133.903299 1.9999999999999998 -2.0000000000000075
    vertex 133.903299 3.9999999999999996 -22.000000000000007
    vertex 133.903299 3.9999999999999996 -2.0000000000000075
  endloop
endfacet
endsolid Box
