solid Box
facet normal 1.0 0.0 0.0
  outer loop
    vertex -17.98779373713638 -18.531475370091282 0.0
    vertex -17.98779373713638 32.46852462990875 2.0000000000000018
    vertex -17.98779373713638 -18.531475370091286 1.9999999999999991
  endloop
endfacet
facet normal 1.0 0.0 0.0
  outer loop
    vertex -17.98779373713638 32.46852462990875 2.0000000000000018
    vertex -17.98779373713638 -18.531475370091282 0.0
    vertex -17.98779373713638 32.468524629908714 -1.762479051592436e-16
  endloop
endfacet
facet normal -1.0 0.0 0.0
  outer loop
    vertex -93.98779373713637 32.46852462990875 2.0000000000000018
    vertex -93.98779373713637 -18.531475370091282 0.0
    vertex -93.98779373713637 -18.531475370091286 1.9999999999999991
  endloop
endfacet
facet normal -1.0 0.0 0.0
  outer loop
    vertex -93.98779373713637 -18.531475370091282 0.0
    vertex -93.98779373713637 32.46852462990875 2.0000000000000018
    vertex -93.98779373713637 32.468524629908714 -1.762479051592436e-16
  endloop
endfacet
facet normal 0.0 -1.0 8.326672684688672e-17
  outer loop
    vertex -17.98779373713638 -18.531475370091286 1.9999999999999991
    vertex -93.98779373713637 -18.531475370091282 0.0
    vertex -17.98779373713638 -18.531475370091282 0.0
  endloop
endfacet
facet normal 0.0 -1.0 8.326672684688672e-17
  outer loop
    vertex -93.98779373713637 -18.531475370091282 0.0
    vertex -17.98779373713638 -18.531475370091286 1.9999999999999991
    vertex -93.98779373713637 -18.531475370091286 1.9999999999999991
  endloop
endfacet
facet normal 0.0 8.326672684688672e-17 1.0
  outer loop
    vertex -17.98779373713638 -18.531475370091286 1.9999999999999991
    vertex -93.98779373713637 32.46852462990875 2.0000000000000018
    vertex -93.98779373713637 -18.531475370091286 1.9999999999999991
  endloop
endfacet
facet normal 0.0 8.326672684688672e-17 1.0
  outer loop
    vertex -93.98779373713637 32.46852462990875 2.0000000000000018
    vertex -17.98779373713638 -18.531475370091286 1.9999999999999991
    vertex -17.98779373713638 32.46852462990875 2.0000000000000018
  endloop
endfacet
facet normal 0.0 -8.326672684688672e-17 -1.0
  outer loop
    vertex -17.98779373713638 32.468524629908714 -1.762479051592436e-16
    vertex -93.98779373713637 -18.531475370091282 0.0
    vertex -93.98779373713637 32.468524629908714 -1.762479051592436e-16
  endloop
endfacet
facet normal 0.0 -8.326672684688672e-17 -1.0
  outer loop
    vertex -93.98779373713637 -18.531475370091282 0.0
    vertex -17.98779373713638 32.468524629908714 -1.762479051592436e-16
    vertex -17.98779373713638 -18.531475370091282 0.0
  endloop
endfacet
facet normal 0.0 1.0 -8.326672684688672e-17
  outer loop
    vertex -93.98779373713637 32.46852462990875 2.0000000000000018
    vertex -17.98779373713638 32.468524629908714 -1.762479051592436e-16
    vertex -93.98779373713637 32.468524629908714 -1.762479051592436e-16
  endloop
endfacet
facet normal 0.0 1.0 -8.326672684688672e-17
  outer loop
    vertex -17.98779373713638 32.468524629908714 -1.762479051592436e-16
    vertex -93.98779373713637 32.46852462990875 2.0000000000000018
    vertex -17.98779373713638 32.46852462990875 2.0000000000000018
  endloop
endfacet
endsolid Box
