solid Крепление-тяги-низ
facet normal 1.689272124492594e-15 2.0966898463723563e-15 1.0
  outer loop
    vertex -15.000000030416949 1.339745979716779 3.000000000000027
    vertex -14.829629131445424 8.705904774487385 2.9999999999999982
    vertex -15.000000000000082 9.999999999999988 2.999999999999999
  endloop
endfacet
facet normal 1.689272124492594e-15 2.0966898463723563e-15 1.0
  outer loop
    vertex -14.829629131445424 8.705904774487385 2.9999999999999982
    vertex -15.000000030416949 1.339745979716779 3.000000000000027
    vertex -12.588190467988078 0.34074174165448873 3.000000000000027
  endloop
endfacet
facet normal 1.689272124492594e-15 2.0966898463723563e-15 1.0
  outer loop
    vertex -14.829629131445424 8.705904774487385 2.9999999999999982
    vertex -12.588190467988078 0.34074174165448873 3.000000000000027
    vertex -14.330127018922276 7.499999999999978 3.0000000000000004
  endloop
endfacet
facet normal 1.689272124492594e-15 2.0966898463723563e-15 1.0
  outer loop
    vertex -14.330127018922276 7.499999999999978 3.0000000000000004
    vertex -12.588190467988078 0.34074174165448873 3.000000000000027
    vertex -13.535533905932832 6.464466094067238 3.0
  endloop
endfacet
facet normal 1.689272124492594e-15 2.0966898463723563e-15 1.0
  outer loop
    vertex -13.535533905932832 6.464466094067238 3.0
    vertex -12.588190467988078 0.34074174165448873 3.000000000000027
    vertex -12.50000000000011 5.669872981077817 3.0
  endloop
endfacet
facet normal 1.689272124492594e-15 2.0966898463723563e-15 1.0
  outer loop
    vertex -12.50000000000011 5.669872981077817 3.0
    vertex -12.588190467988078 0.34074174165448873 3.000000000000027
    vertex -10.000000000000071 2.8199664825478976e-14 3.000000000000023
  endloop
endfacet
facet normal 1.689272124492594e-15 2.0966898463723563e-15 1.0
  outer loop
    vertex -12.50000000000011 5.669872981077817 3.0
    vertex -10.000000000000071 2.8199664825478976e-14 3.000000000000023
    vertex -11.294095225512692 5.170370868554669 3.000000000000003
  endloop
endfacet
facet normal 1.689272124492594e-15 2.0966898463723563e-15 1.0
  outer loop
    vertex -11.294095225512692 5.170370868554669 3.000000000000003
    vertex -10.000000000000071 2.8199664825478976e-14 3.000000000000023
    vertex -10.000000000000071 5.000000000000005 3.0000000000000004
  endloop
endfacet
facet normal 1.689272124492594e-15 2.0966898463723563e-15 1.0
  outer loop
    vertex -10.000000000000071 5.000000000000005 3.0000000000000004
    vertex -10.000000000000071 2.8199664825478976e-14 3.000000000000023
    vertex -7.41180965075178 0.34074170983826574 2.999999999999966
  endloop
endfacet
facet normal 1.689272124492594e-15 2.0966898463723563e-15 1.0
  outer loop
    vertex -10.000000000000071 5.000000000000005 3.0000000000000004
    vertex -7.41180965075178 0.34074170983826574 2.999999999999966
    vertex -8.705904774487458 5.170370868554658 2.9999999999999933
  endloop
endfacet
facet normal 1.689272124492594e-15 2.0966898463723563e-15 1.0
  outer loop
    vertex -8.705904774487458 5.170370868554658 2.9999999999999933
    vertex -7.41180965075178 0.34074170983826574 2.999999999999966
    vertex -7.500000000000122 5.669872981077817 2.999999999999989
  endloop
endfacet
facet normal 1.689272124492594e-15 2.0966898463723563e-15 1.0
  outer loop
    vertex -7.500000000000122 5.669872981077817 2.999999999999989
    vertex -7.41180965075178 0.34074170983826574 2.999999999999966
    vertex -6.464466094067325 6.464466094067238 2.999999999999985
  endloop
endfacet
facet normal 1.689272124492594e-15 2.0966898463723563e-15 1.0
  outer loop
    vertex -6.464466094067325 6.464466094067238 2.999999999999985
    vertex -7.41180965075178 0.34074170983826574 2.999999999999966
    vertex -5.000000091250771 1.3397459094720015 2.999999999999966
  endloop
endfacet
facet normal 1.689272124492594e-15 2.0966898463723563e-15 1.0
  outer loop
    vertex -6.464466094067325 6.464466094067238 2.999999999999985
    vertex -5.000000091250771 1.3397459094720015 2.999999999999966
    vertex -5.669872981077887 7.499999999999989 2.999999999999988
  endloop
endfacet
facet normal 1.689272124492594e-15 2.0966898463723563e-15 1.0
  outer loop
    vertex -5.669872981077887 7.499999999999989 2.999999999999988
    vertex -5.000000091250771 1.3397459094720015 2.999999999999966
    vertex -5.170370868554779 8.705904774487385 2.999999999999983
  endloop
endfacet
facet normal 1.689272124492594e-15 2.0966898463723563e-15 1.0
  outer loop
    vertex -5.170370868554779 8.705904774487385 2.999999999999983
    vertex -5.000000091250771 1.3397459094720015 2.999999999999966
    vertex -5.000000000000121 9.999999999999988 2.999999999999975
  endloop
endfacet
facet normal 1.689272124492594e-15 2.0966898463723563e-15 1.0
  outer loop
    vertex -5.000000000000121 9.999999999999988 2.999999999999975
    vertex -5.000000091250771 1.3397459094720015 2.999999999999966
    vertex -2.928932262640496 2.9289321136286484 2.999999999999966
  endloop
endfacet
facet normal 1.689272124492594e-15 2.0966898463723563e-15 1.0
  outer loop
    vertex -5.000000000000121 9.999999999999988 2.999999999999975
    vertex -2.928932262640496 2.9289321136286484 2.999999999999966
    vertex -4.999999908749458 18.660253985160704 2.999999999999966
  endloop
endfacet
facet normal 1.689272124492594e-15 2.0966898463723563e-15 1.0
  outer loop
    vertex -4.999999908749458 18.660253985160704 2.999999999999966
    vertex -2.928932262640496 2.9289321136286484 2.999999999999966
    vertex -2.928932113628799 17.07106773735954 2.999999999999966
  endloop
endfacet
facet normal 1.689272124492594e-15 2.0966898463723563e-15 1.0
  outer loop
    vertex -2.928932113628799 17.07106773735954 2.999999999999966
    vertex -2.928932262640496 2.9289321136286484 2.999999999999966
    vertex -1.3397460148393345 4.999999908749305 2.999999999999966
  endloop
endfacet
facet normal 1.689272124492594e-15 2.0966898463723563e-15 1.0
  outer loop
    vertex -2.928932113628799 17.07106773735954 2.999999999999966
    vertex -1.3397460148393345 4.999999908749305 2.999999999999966
    vertex -1.3397459094721527 14.999999908749267 2.999999999999966
  endloop
endfacet
facet normal 1.689272124492594e-15 2.0966898463723563e-15 1.0
  outer loop
    vertex -1.3397459094721527 14.999999908749267 2.999999999999966
    vertex -1.3397460148393345 4.999999908749305 2.999999999999966
    vertex -0.3407417643804843 7.4118094471978635 2.999999999999966
  endloop
endfacet
facet normal 1.689272124492594e-15 2.0966898463723563e-15 1.0
  outer loop
    vertex -1.3397459094721527 14.999999908749267 2.999999999999966
    vertex -0.3407417643804843 7.4118094471978635 2.999999999999966
    vertex -0.340741709838417 12.588190349248256 2.999999999999966
  endloop
endfacet
facet normal 1.689272124492594e-15 2.0966898463723563e-15 1.0
  outer loop
    vertex -0.340741709838417 12.588190349248256 2.999999999999966
    vertex -0.3407417643804843 7.4118094471978635 2.999999999999966
    vertex -1.3526599195807862e-13 9.999999894632762 2.999999999999966
  endloop
endfacet
facet normal 1.689272124492594e-15 2.0966898463723563e-15 1.0
  outer loop
    vertex -19.65925828561656 7.411809633788813 3.0000000000000067
    vertex -19.65925823107454 12.58819056976483 2.9999999999999867
    vertex -20.000000000000064 10.000000105367155 2.999999999999995
  endloop
endfacet
facet normal 1.689272124492594e-15 2.0966898463723563e-15 1.0
  outer loop
    vertex -19.65925823107454 12.58819056976483 2.9999999999999867
    vertex -19.65925828561656 7.411809633788813 3.0000000000000067
    vertex -18.660254072966822 5.000000060833777 3.000000000000007
  endloop
endfacet
facet normal 1.689272124492594e-15 2.0966898463723563e-15 1.0
  outer loop
    vertex -19.65925823107454 12.58819056976483 2.9999999999999867
    vertex -18.660254072966822 5.000000060833777 3.000000000000007
    vertex -18.6602539675997 15.000000121667497 2.999999999999972
  endloop
endfacet
facet normal 1.689272124492594e-15 2.0966898463723563e-15 1.0
  outer loop
    vertex -18.6602539675997 15.000000121667497 2.999999999999972
    vertex -18.660254072966822 5.000000060833777 3.000000000000007
    vertex -17.071067849118457 2.928932225387422 3.00000000000001
  endloop
endfacet
facet normal 1.689272124492594e-15 2.0966898463723563e-15 1.0
  outer loop
    vertex -18.6602539675997 15.000000121667497 2.999999999999972
    vertex -17.071067849118457 2.928932225387422 3.00000000000001
    vertex -17.071067700106823 17.071067923624213 2.999999999999964
  endloop
endfacet
facet normal 1.689272124492594e-15 2.0966898463723563e-15 1.0
  outer loop
    vertex -17.071067700106823 17.071067923624213 2.999999999999964
    vertex -17.071067849118457 2.928932225387422 3.00000000000001
    vertex -15.000000030416949 1.339745979716779 3.000000000000027
  endloop
endfacet
facet normal 1.689272124492594e-15 2.0966898463723563e-15 1.0
  outer loop
    vertex -17.071067700106823 17.071067923624213 2.999999999999964
    vertex -15.000000030416949 1.339745979716779 3.000000000000027
    vertex -15.000000000000082 9.999999999999988 2.999999999999999
  endloop
endfacet
facet normal 1.689272124492594e-15 2.0966898463723563e-15 1.0
  outer loop
    vertex -17.071067700106823 17.071067923624213 2.999999999999964
    vertex -15.000000000000082 9.999999999999988 2.999999999999999
    vertex -14.999999847915712 18.66025412565032 2.99999999999996
  endloop
endfacet
facet normal 1.689272124492594e-15 2.0966898463723563e-15 1.0
  outer loop
    vertex -14.999999847915712 18.66025412565032 2.99999999999996
    vertex -15.000000000000082 9.999999999999988 2.999999999999999
    vertex -14.829629131445405 11.294095225512601 2.99999999999999
  endloop
endfacet
facet normal 1.689272124492594e-15 2.0966898463723563e-15 1.0
  outer loop
    vertex -14.999999847915712 18.66025412565032 2.99999999999996
    vertex -14.829629131445405 11.294095225512601 2.99999999999999
    vertex -12.588190264434436 19.659258312887516 2.9999999999999547
  endloop
endfacet
facet normal 1.689272124492594e-15 2.0966898463723563e-15 1.0
  outer loop
    vertex -12.588190264434436 19.659258312887516 2.9999999999999547
    vertex -14.829629131445405 11.294095225512601 2.99999999999999
    vertex -14.330127018922285 12.49999999999998 2.999999999999981
  endloop
endfacet
facet normal 1.689272124492594e-15 2.0966898463723563e-15 1.0
  outer loop
    vertex -12.588190264434436 19.659258312887516 2.9999999999999547
    vertex -14.330127018922285 12.49999999999998 2.999999999999981
    vertex -13.535533905932835 13.535533905932708 2.9999999999999845
  endloop
endfacet
facet normal 1.689272124492594e-15 2.0966898463723563e-15 1.0
  outer loop
    vertex -12.588190264434436 19.659258312887516 2.9999999999999547
    vertex -13.535533905932835 13.535533905932708 2.9999999999999845
    vertex -12.500000000000087 14.330127018922186 2.9999999999999782
  endloop
endfacet
facet normal 1.689272124492594e-15 2.0966898463723563e-15 1.0
  outer loop
    vertex -12.588190264434436 19.659258312887516 2.9999999999999547
    vertex -12.500000000000087 14.330127018922186 2.9999999999999782
    vertex -9.999999789265827 20.000000000000004 2.9999999999999556
  endloop
endfacet
facet normal 1.689272124492594e-15 2.0966898463723563e-15 1.0
  outer loop
    vertex -9.999999789265827 20.000000000000004 2.9999999999999556
    vertex -12.500000000000087 14.330127018922186 2.9999999999999782
    vertex -11.294095225512706 14.829629131445289 2.9999999999999774
  endloop
endfacet
facet normal 1.689272124492594e-15 2.0966898463723563e-15 1.0
  outer loop
    vertex -9.999999789265827 20.000000000000004 2.9999999999999556
    vertex -11.294095225512706 14.829629131445289 2.9999999999999774
    vertex -10.000000000000078 14.999999999999986 2.9999999999999725
  endloop
endfacet
facet normal 1.689272124492594e-15 2.0966898463723563e-15 1.0
  outer loop
    vertex -9.999999789265827 20.000000000000004 2.9999999999999556
    vertex -10.000000000000078 14.999999999999986 2.9999999999999725
    vertex -8.70590477448747 14.829629131445323 2.9999999999999676
  endloop
endfacet
facet normal 1.689272124492594e-15 2.0966898463723563e-15 1.0
  outer loop
    vertex -9.999999789265827 20.000000000000004 2.9999999999999556
    vertex -8.70590477448747 14.829629131445323 2.9999999999999676
    vertex -7.411809447198011 19.65925823561955 2.999999999999966
  endloop
endfacet
facet normal 1.689272124492594e-15 2.0966898463723563e-15 1.0
  outer loop
    vertex -7.411809447198011 19.65925823561955 2.999999999999966
    vertex -8.70590477448747 14.829629131445323 2.9999999999999676
    vertex -7.500000000000088 14.330127018922152 2.9999999999999667
  endloop
endfacet
facet normal 1.689272124492594e-15 2.0966898463723563e-15 1.0
  outer loop
    vertex -7.411809447198011 19.65925823561955 2.999999999999966
    vertex -7.500000000000088 14.330127018922152 2.9999999999999667
    vertex -6.464466094067342 13.535533905932787 2.9999999999999702
  endloop
endfacet
facet normal 1.689272124492594e-15 2.0966898463723563e-15 1.0
  outer loop
    vertex -7.411809447198011 19.65925823561955 2.999999999999966
    vertex -6.464466094067342 13.535533905932787 2.9999999999999702
    vertex -4.999999908749458 18.660253985160704 2.999999999999966
  endloop
endfacet
facet normal 1.689272124492594e-15 2.0966898463723563e-15 1.0
  outer loop
    vertex -4.999999908749458 18.660253985160704 2.999999999999966
    vertex -6.464466094067342 13.535533905932787 2.9999999999999702
    vertex -5.669872981077916 12.500000000000002 2.9999999999999676
  endloop
endfacet
facet normal 1.689272124492594e-15 2.0966898463723563e-15 1.0
  outer loop
    vertex -4.999999908749458 18.660253985160704 2.999999999999966
    vertex -5.669872981077916 12.500000000000002 2.9999999999999676
    vertex -5.170370868554746 11.294095225512658 2.999999999999968
  endloop
endfacet
facet normal 1.689272124492594e-15 2.0966898463723563e-15 1.0
  outer loop
    vertex -4.999999908749458 18.660253985160704 2.999999999999966
    vertex -5.170370868554746 11.294095225512658 2.999999999999968
    vertex -5.000000000000121 9.999999999999988 2.999999999999975
  endloop
endfacet
facet normal -0.1305261930905915 -0.9914448612592016 6.590251899342701e-15
  outer loop
    vertex -10.000000000000068 -1.1059436445955541e-14 -1.9999999999999776
    vertex -12.588190467988078 0.34074174165448873 3.000000000000027
    vertex -12.588190467988076 0.34074174165446075 -1.9999999999999827
  endloop
endfacet
facet normal -0.1305261930905915 -0.9914448612592016 6.590251899342701e-15
  outer loop
    vertex -12.588190467988078 0.34074174165448873 3.000000000000027
    vertex -10.000000000000068 -1.1059436445955541e-14 -1.9999999999999776
    vertex -10.000000000000071 2.8199664825478976e-14 3.000000000000023
  endloop
endfacet
facet normal -0.382683434798747 -0.923879531503233 3.0099577963496295e-15
  outer loop
    vertex -12.588190467988076 0.34074174165446075 -1.9999999999999827
    vertex -15.000000030416949 1.339745979716779 3.000000000000027
    vertex -15.00000003041692 1.3397459797167621 -1.999999999999987
  endloop
endfacet
facet normal -0.382683434798747 -0.923879531503233 3.0099577963496295e-15
  outer loop
    vertex -15.000000030416949 1.339745979716779 3.000000000000027
    vertex -12.588190467988076 0.34074174165446075 -1.9999999999999827
    vertex -12.588190467988078 0.34074174165448873 3.000000000000027
  endloop
endfacet
facet normal -0.6087614324917822 -0.7933533376185881 -1.1673702280255469e-15
  outer loop
    vertex -15.00000003041692 1.3397459797167621 -1.999999999999987
    vertex -17.071067849118457 2.928932225387422 3.00000000000001
    vertex -17.071067849118435 2.928932225387417 -1.9999999999999998
  endloop
endfacet
facet normal -0.6087614324917822 -0.7933533376185881 -1.1673702280255469e-15
  outer loop
    vertex -17.071067849118457 2.928932225387422 3.00000000000001
    vertex -15.00000003041692 1.3397459797167621 -1.999999999999987
    vertex -15.000000030416949 1.339745979716779 3.000000000000027
  endloop
endfacet
facet normal -0.7933533440329421 -0.6087614241324332 2.6030536864672877e-16
  outer loop
    vertex -17.071067849118457 2.928932225387422 3.00000000000001
    vertex -18.6602540729668 5.0000000608337265 -2.000000000000002
    vertex -17.071067849118435 2.928932225387417 -1.9999999999999998
  endloop
endfacet
facet normal -0.7933533440329421 -0.6087614241324332 2.6030536864672877e-16
  outer loop
    vertex -18.6602540729668 5.0000000608337265 -2.000000000000002
    vertex -17.071067849118457 2.928932225387422 3.00000000000001
    vertex -18.660254072966822 5.000000060833777 3.000000000000007
  endloop
endfacet
facet normal -0.923879535535458 -0.38268342506409475 4.2209291558309535e-16
  outer loop
    vertex -18.660254072966822 5.000000060833777 3.000000000000007
    vertex -19.65925828561655 7.411809633788785 -2.000000000000007
    vertex -18.6602540729668 5.0000000608337265 -2.000000000000002
  endloop
endfacet
facet normal -0.923879535535458 -0.38268342506409475 4.2209291558309535e-16
  outer loop
    vertex -19.65925828561655 7.411809633788785 -2.000000000000007
    vertex -18.660254072966822 5.000000060833777 3.000000000000007
    vertex -19.65925828561656 7.411809633788813 3.0000000000000067
  endloop
endfacet
facet normal -0.991444862634516 -0.13052618264404275 -7.922223831543511e-16
  outer loop
    vertex -19.65925828561656 7.411809633788813 3.0000000000000067
    vertex -20.000000000000057 10.000000105367116 -2.0000000000000173
    vertex -19.65925828561655 7.411809633788785 -2.000000000000007
  endloop
endfacet
facet normal -0.991444862634516 -0.13052618264404275 -7.922223831543511e-16
  outer loop
    vertex -20.000000000000057 10.000000105367116 -2.0000000000000173
    vertex -19.65925828561656 7.411809633788813 3.0000000000000067
    vertex -20.000000000000064 10.000000105367155 2.999999999999995
  endloop
endfacet
facet normal -0.9914448598838828 0.13052620353717534 -9.990353250177198e-16
  outer loop
    vertex -20.000000000000064 10.000000105367155 2.999999999999995
    vertex -19.659258231074542 12.588190569764835 -2.000000000000008
    vertex -20.000000000000057 10.000000105367116 -2.0000000000000173
  endloop
endfacet
facet normal -0.9914448598838828 0.13052620353717534 -9.990353250177198e-16
  outer loop
    vertex -19.659258231074542 12.588190569764835 -2.000000000000008
    vertex -20.000000000000064 10.000000105367155 2.999999999999995
    vertex -19.65925823107454 12.58819056976483 2.9999999999999867
  endloop
endfacet
facet normal -0.9238795274710103 0.38268344453339387 1.3946017191783153e-15
  outer loop
    vertex -18.6602539675997 15.000000121667497 2.999999999999972
    vertex -19.659258231074542 12.588190569764835 -2.000000000000008
    vertex -19.65925823107454 12.58819056976483 2.9999999999999867
  endloop
endfacet
facet normal -0.9238795274710103 0.38268344453339387 1.3946017191783153e-15
  outer loop
    vertex -19.659258231074542 12.588190569764835 -2.000000000000008
    vertex -18.6602539675997 15.000000121667497 2.999999999999972
    vertex -18.660253967599704 15.000000121667513 -2.000000000000021
  endloop
endfacet
facet normal -0.7933533312042446 0.6087614408511174 1.160464652207871e-17
  outer loop
    vertex -17.071067700106823 17.071067923624213 2.999999999999964
    vertex -18.660253967599704 15.000000121667513 -2.000000000000021
    vertex -18.6602539675997 15.000000121667497 2.999999999999972
  endloop
endfacet
facet normal -0.7933533312042446 0.6087614408511174 1.160464652207871e-17
  outer loop
    vertex -18.660253967599704 15.000000121667513 -2.000000000000021
    vertex -17.071067700106823 17.071067923624213 2.999999999999964
    vertex -17.071067700106813 17.071067923624206 -2.0000000000000293
  endloop
endfacet
facet normal -0.6087614157731012 0.7933533504472832 3.6518186875881834e-16
  outer loop
    vertex -17.071067700106813 17.071067923624206 -2.0000000000000293
    vertex -14.999999847915712 18.66025412565032 2.99999999999996
    vertex -14.999999847915714 18.660254125650336 -2.0000000000000338
  endloop
endfacet
facet normal -0.6087614157731012 0.7933533504472832 3.6518186875881834e-16
  outer loop
    vertex -14.999999847915712 18.66025412565032 2.99999999999996
    vertex -17.071067700106813 17.071067923624206 -2.0000000000000293
    vertex -17.071067700106823 17.071067923624213 2.999999999999964
  endloop
endfacet
facet normal -0.3826834153294397 0.9238795395676841 2.3587967503855366e-15
  outer loop
    vertex -14.999999847915714 18.660254125650336 -2.0000000000000338
    vertex -12.588190264434436 19.659258312887516 2.9999999999999547
    vertex -12.588190264434441 19.659258312887523 -2.0000000000000404
  endloop
endfacet
facet normal -0.3826834153294397 0.9238795395676841 2.3587967503855366e-15
  outer loop
    vertex -12.588190264434436 19.659258312887516 2.9999999999999547
    vertex -14.999999847915714 18.660254125650336 -2.0000000000000338
    vertex -14.999999847915712 18.66025412565032 2.99999999999996
  endloop
endfacet
facet normal -0.13052617219747106 0.991444864009833 1.9192121697090048e-18
  outer loop
    vertex -12.588190264434436 19.659258312887516 2.9999999999999547
    vertex -9.999999789265823 19.999999999999996 -2.000000000000036
    vertex -12.588190264434441 19.659258312887523 -2.0000000000000404
  endloop
endfacet
facet normal -0.13052617219747106 0.991444864009833 1.9192121697090048e-18
  outer loop
    vertex -9.999999789265823 19.999999999999996 -2.000000000000036
    vertex -12.588190264434436 19.659258312887516 2.9999999999999547
    vertex -9.999999789265827 20.000000000000004 2.9999999999999556
  endloop
endfacet
facet normal 4.441560972340813e-15 2.202875823048349e-15 1.0
  outer loop
    vertex -14.829629131445376 8.705904774487475 24.999999999999968
    vertex -14.829629131445362 11.294095225512692 24.999999999999982
    vertex -15.000000000000043 10.000000000000089 24.999999999999975
  endloop
endfacet
facet normal 4.441560972340813e-15 2.202875823048349e-15 1.0
  outer loop
    vertex -14.829629131445362 11.294095225512692 24.999999999999982
    vertex -14.829629131445376 8.705904774487475 24.999999999999968
    vertex -14.330127018922218 7.500000000000057 24.99999999999998
  endloop
endfacet
facet normal 4.441560972340813e-15 2.202875823048349e-15 1.0
  outer loop
    vertex -14.829629131445362 11.294095225512692 24.999999999999982
    vertex -14.330127018922218 7.500000000000057 24.99999999999998
    vertex -14.330127018922223 12.500000000000092 24.999999999999982
  endloop
endfacet
facet normal 4.441560972340813e-15 2.202875823048349e-15 1.0
  outer loop
    vertex -14.330127018922223 12.500000000000092 24.999999999999982
    vertex -14.330127018922218 7.500000000000057 24.99999999999998
    vertex -13.535533905932782 13.53553390593281 24.99999999999998
  endloop
endfacet
facet normal 4.441560972340813e-15 2.202875823048349e-15 1.0
  outer loop
    vertex -13.535533905932782 13.53553390593281 24.99999999999998
    vertex -14.330127018922218 7.500000000000057 24.99999999999998
    vertex -13.535533905932782 6.464466094067328 24.99999999999999
  endloop
endfacet
facet normal 4.441560972340813e-15 2.202875823048349e-15 1.0
  outer loop
    vertex -13.535533905932782 13.53553390593281 24.99999999999998
    vertex -13.535533905932782 6.464466094067328 24.99999999999999
    vertex -13.100000000000044 10.000000000000078 24.99999999999998
  endloop
endfacet
facet normal 4.441560972340813e-15 2.202875823048349e-15 1.0
  outer loop
    vertex -13.100000000000044 10.000000000000078 24.99999999999998
    vertex -13.535533905932782 6.464466094067328 24.99999999999999
    vertex -12.994370061496136 9.197660960182278 24.999999999999986
  endloop
endfacet
facet normal 4.441560972340813e-15 2.202875823048349e-15 1.0
  outer loop
    vertex -12.994370061496136 9.197660960182278 24.999999999999986
    vertex -13.535533905932782 6.464466094067328 24.99999999999999
    vertex -12.50000000000005 5.669872981077896 24.99999999999998
  endloop
endfacet
facet normal 4.441560972340813e-15 2.202875823048349e-15 1.0
  outer loop
    vertex -12.994370061496136 9.197660960182278 24.999999999999986
    vertex -12.50000000000005 5.669872981077896 24.99999999999998
    vertex -12.684678751731814 8.450000000000067 24.999999999999986
  endloop
endfacet
facet normal 4.441560972340813e-15 2.202875823048349e-15 1.0
  outer loop
    vertex -12.684678751731814 8.450000000000067 24.999999999999986
    vertex -12.50000000000005 5.669872981077896 24.99999999999998
    vertex -12.192031021678366 7.80796897832177 24.999999999999986
  endloop
endfacet
facet normal 4.441560972340813e-15 2.202875823048349e-15 1.0
  outer loop
    vertex -12.192031021678366 7.80796897832177 24.999999999999986
    vertex -12.50000000000005 5.669872981077896 24.99999999999998
    vertex -11.29409522551263 5.1703708685547936 24.999999999999986
  endloop
endfacet
facet normal 4.441560972340813e-15 2.202875823048349e-15 1.0
  outer loop
    vertex -12.192031021678366 7.80796897832177 24.999999999999986
    vertex -11.29409522551263 5.1703708685547936 24.999999999999986
    vertex -11.55000000000008 7.31532124826834 24.999999999999986
  endloop
endfacet
facet normal 4.441560972340813e-15 2.202875823048349e-15 1.0
  outer loop
    vertex -11.55000000000008 7.31532124826834 24.999999999999986
    vertex -11.29409522551263 5.1703708685547936 24.999999999999986
    vertex -10.802339039817863 7.00562993850397 24.999999999999993
  endloop
endfacet
facet normal 4.441560972340813e-15 2.202875823048349e-15 1.0
  outer loop
    vertex -10.802339039817863 7.00562993850397 24.999999999999993
    vertex -11.29409522551263 5.1703708685547936 24.999999999999986
    vertex -10.00000000000005 5.000000000000118 24.999999999999975
  endloop
endfacet
facet normal 4.441560972340813e-15 2.202875823048349e-15 1.0
  outer loop
    vertex -10.802339039817863 7.00562993850397 24.999999999999993
    vertex -10.00000000000005 5.000000000000118 24.999999999999975
    vertex -10.000000000000055 6.900000000000092 24.999999999999975
  endloop
endfacet
facet normal 4.441560972340813e-15 2.202875823048349e-15 1.0
  outer loop
    vertex -10.000000000000055 6.900000000000092 24.999999999999975
    vertex -10.00000000000005 5.000000000000118 24.999999999999975
    vertex -9.197660960182239 7.005629938504027 24.999999999999982
  endloop
endfacet
facet normal 4.441560972340813e-15 2.202875823048349e-15 1.0
  outer loop
    vertex -9.197660960182239 7.005629938504027 24.999999999999982
    vertex -10.00000000000005 5.000000000000118 24.999999999999975
    vertex -8.705904774487447 5.1703708685547705 24.99999999999995
  endloop
endfacet
facet normal 4.441560972340813e-15 2.202875823048349e-15 1.0
  outer loop
    vertex -9.197660960182239 7.005629938504027 24.999999999999982
    vertex -8.705904774487447 5.1703708685547705 24.99999999999995
    vertex -8.45000000000011 7.315321248268362 24.99999999999995
  endloop
endfacet
facet normal 4.441560972340813e-15 2.202875823048349e-15 1.0
  outer loop
    vertex -8.45000000000011 7.315321248268362 24.99999999999995
    vertex -8.705904774487447 5.1703708685547705 24.99999999999995
    vertex -7.5000000000000595 5.66987298107793 24.99999999999995
  endloop
endfacet
facet normal 4.441560972340813e-15 2.202875823048349e-15 1.0
  outer loop
    vertex -8.45000000000011 7.315321248268362 24.99999999999995
    vertex -7.5000000000000595 5.66987298107793 24.99999999999995
    vertex -7.807968978321783 7.807968978321826 24.999999999999957
  endloop
endfacet
facet normal 4.441560972340813e-15 2.202875823048349e-15 1.0
  outer loop
    vertex -7.807968978321783 7.807968978321826 24.999999999999957
    vertex -7.5000000000000595 5.66987298107793 24.99999999999995
    vertex -7.315321248268297 8.450000000000088 24.99999999999995
  endloop
endfacet
facet normal 4.441560972340813e-15 2.202875823048349e-15 1.0
  outer loop
    vertex -7.315321248268297 8.450000000000088 24.99999999999995
    vertex -7.5000000000000595 5.66987298107793 24.99999999999995
    vertex -6.46446609406728 6.4644660940673395 24.999999999999964
  endloop
endfacet
facet normal 4.441560972340813e-15 2.202875823048349e-15 1.0
  outer loop
    vertex -7.315321248268297 8.450000000000088 24.99999999999995
    vertex -6.46446609406728 6.4644660940673395 24.999999999999964
    vertex -7.0056299385039225 9.197660960182256 24.999999999999954
  endloop
endfacet
facet normal 4.441560972340813e-15 2.202875823048349e-15 1.0
  outer loop
    vertex -7.0056299385039225 9.197660960182256 24.999999999999954
    vertex -6.46446609406728 6.4644660940673395 24.999999999999964
    vertex -6.900000000000055 10.000000000000089 24.999999999999943
  endloop
endfacet
facet normal 4.441560972340813e-15 2.202875823048349e-15 1.0
  outer loop
    vertex -6.900000000000055 10.000000000000089 24.999999999999943
    vertex -6.46446609406728 6.4644660940673395 24.999999999999964
    vertex -6.464466094067292 13.535533905932889 24.999999999999932
  endloop
endfacet
facet normal 4.441560972340813e-15 2.202875823048349e-15 1.0
  outer loop
    vertex -6.464466094067292 13.535533905932889 24.999999999999932
    vertex -6.46446609406728 6.4644660940673395 24.999999999999964
    vertex -5.669872981077887 12.500000000000115 24.999999999999936
  endloop
endfacet
facet normal 4.441560972340813e-15 2.202875823048349e-15 1.0
  outer loop
    vertex -5.669872981077887 12.500000000000115 24.999999999999936
    vertex -6.46446609406728 6.4644660940673395 24.999999999999964
    vertex -5.6698729810778365 7.500000000000057 24.99999999999995
  endloop
endfacet
facet normal 4.441560972340813e-15 2.202875823048349e-15 1.0
  outer loop
    vertex -5.669872981077887 12.500000000000115 24.999999999999936
    vertex -5.6698729810778365 7.500000000000057 24.99999999999995
    vertex -5.170370868554717 11.294095225512736 24.999999999999936
  endloop
endfacet
facet normal 4.441560972340813e-15 2.202875823048349e-15 1.0
  outer loop
    vertex -5.170370868554717 11.294095225512736 24.999999999999936
    vertex -5.6698729810778365 7.500000000000057 24.99999999999995
    vertex -5.1703708685547225 8.705904774487486 24.999999999999943
  endloop
endfacet
facet normal 4.441560972340813e-15 2.202875823048349e-15 1.0
  outer loop
    vertex -5.170370868554717 11.294095225512736 24.999999999999936
    vertex -5.1703708685547225 8.705904774487486 24.999999999999943
    vertex -5.000000000000059 10.000000000000089 24.99999999999995
  endloop
endfacet
facet normal 4.441560972340813e-15 2.202875823048349e-15 1.0
  outer loop
    vertex -13.535533905932782 13.53553390593281 24.99999999999998
    vertex -12.99437006149616 10.802339039817888 24.999999999999975
    vertex -12.500000000000034 14.330127018922287 24.999999999999968
  endloop
endfacet
facet normal 4.441560972340813e-15 2.202875823048349e-15 1.0
  outer loop
    vertex -12.99437006149616 10.802339039817888 24.999999999999975
    vertex -13.535533905932782 13.53553390593281 24.99999999999998
    vertex -13.100000000000044 10.000000000000078 24.99999999999998
  endloop
endfacet
facet normal 4.441560972340813e-15 2.202875823048349e-15 1.0
  outer loop
    vertex -12.500000000000034 14.330127018922287 24.999999999999968
    vertex -12.99437006149616 10.802339039817888 24.999999999999975
    vertex -12.684678751731813 11.550000000000072 24.999999999999986
  endloop
endfacet
facet normal 4.441560972340813e-15 2.202875823048349e-15 1.0
  outer loop
    vertex -12.500000000000034 14.330127018922287 24.999999999999968
    vertex -12.684678751731813 11.550000000000072 24.999999999999986
    vertex -12.192031021678329 12.19203102167837 24.999999999999975
  endloop
endfacet
facet normal 4.441560972340813e-15 2.202875823048349e-15 1.0
  outer loop
    vertex -12.500000000000034 14.330127018922287 24.999999999999968
    vertex -12.192031021678329 12.19203102167837 24.999999999999975
    vertex -11.294095225512649 14.829629131445447 24.99999999999996
  endloop
endfacet
facet normal 4.441560972340813e-15 2.202875823048349e-15 1.0
  outer loop
    vertex -11.294095225512649 14.829629131445447 24.99999999999996
    vertex -12.192031021678329 12.19203102167837 24.999999999999975
    vertex -11.550000000000024 12.684678751731822 24.999999999999975
  endloop
endfacet
facet normal 4.441560972340813e-15 2.202875823048349e-15 1.0
  outer loop
    vertex -11.294095225512649 14.829629131445447 24.99999999999996
    vertex -11.550000000000024 12.684678751731822 24.999999999999975
    vertex -10.802339039817868 12.994370061496202 24.99999999999996
  endloop
endfacet
facet normal 4.441560972340813e-15 2.202875823048349e-15 1.0
  outer loop
    vertex -11.294095225512649 14.829629131445447 24.99999999999996
    vertex -10.802339039817868 12.994370061496202 24.99999999999996
    vertex -10.00000000000005 15.0000000000001 24.99999999999995
  endloop
endfacet
facet normal 4.441560972340813e-15 2.202875823048349e-15 1.0
  outer loop
    vertex -10.00000000000005 15.0000000000001 24.99999999999995
    vertex -10.802339039817868 12.994370061496202 24.99999999999996
    vertex -10.000000000000055 13.100000000000092 24.99999999999995
  endloop
endfacet
facet normal 4.441560972340813e-15 2.202875823048349e-15 1.0
  outer loop
    vertex -10.00000000000005 15.0000000000001 24.99999999999995
    vertex -10.000000000000055 13.100000000000092 24.99999999999995
    vertex -9.197660960182233 12.994370061496202 24.99999999999995
  endloop
endfacet
facet normal 4.441560972340813e-15 2.202875823048349e-15 1.0
  outer loop
    vertex -10.00000000000005 15.0000000000001 24.99999999999995
    vertex -9.197660960182233 12.994370061496202 24.99999999999995
    vertex -8.70590477448743 14.829629131445447 24.999999999999936
  endloop
endfacet
facet normal 4.441560972340813e-15 2.202875823048349e-15 1.0
  outer loop
    vertex -8.70590477448743 14.829629131445447 24.999999999999936
    vertex -9.197660960182233 12.994370061496202 24.99999999999995
    vertex -8.450000000000053 12.684678751731822 24.999999999999943
  endloop
endfacet
facet normal 4.441560972340813e-15 2.202875823048349e-15 1.0
  outer loop
    vertex -8.70590477448743 14.829629131445447 24.999999999999936
    vertex -8.450000000000053 12.684678751731822 24.999999999999943
    vertex -7.500000000000082 14.330127018922253 24.999999999999922
  endloop
endfacet
facet normal 4.441560972340813e-15 2.202875823048349e-15 1.0
  outer loop
    vertex -7.500000000000082 14.330127018922253 24.999999999999922
    vertex -8.450000000000053 12.684678751731822 24.999999999999943
    vertex -7.80796897832175 12.192031021678313 24.99999999999994
  endloop
endfacet
facet normal 4.441560972340813e-15 2.202875823048349e-15 1.0
  outer loop
    vertex -7.500000000000082 14.330127018922253 24.999999999999922
    vertex -7.80796897832175 12.192031021678313 24.99999999999994
    vertex -7.315321248268309 11.550000000000116 24.999999999999936
  endloop
endfacet
facet normal 4.441560972340813e-15 2.202875823048349e-15 1.0
  outer loop
    vertex -7.500000000000082 14.330127018922253 24.999999999999922
    vertex -7.315321248268309 11.550000000000116 24.999999999999936
    vertex -6.464466094067292 13.535533905932889 24.999999999999932
  endloop
endfacet
facet normal 4.441560972340813e-15 2.202875823048349e-15 1.0
  outer loop
    vertex -6.464466094067292 13.535533905932889 24.999999999999932
    vertex -7.315321248268309 11.550000000000116 24.999999999999936
    vertex -7.005629938503939 10.8023390398179 24.999999999999947
  endloop
endfacet
facet normal 4.441560972340813e-15 2.202875823048349e-15 1.0
  outer loop
    vertex -6.464466094067292 13.535533905932889 24.999999999999932
    vertex -7.005629938503939 10.8023390398179 24.999999999999947
    vertex -6.900000000000055 10.000000000000089 24.999999999999943
  endloop
endfacet
facet normal 0.38268343236512004 0.9238795325112742 -5.129344663021043e-15
  outer loop
    vertex -8.70590477448747 14.829629131445323 2.9999999999999676
    vertex -7.500000000000082 14.330127018922253 24.999999999999922
    vertex -7.500000000000088 14.330127018922152 2.9999999999999667
  endloop
endfacet
facet normal 0.38268343236512004 0.9238795325112742 -5.129344663021043e-15
  outer loop
    vertex -7.500000000000082 14.330127018922253 24.999999999999922
    vertex -8.70590477448747 14.829629131445323 2.9999999999999676
    vertex -8.70590477448743 14.829629131445447 24.999999999999936
  endloop
endfacet
facet normal 0.13052619222005074 0.9914448613738105 -5.538213771305831e-15
  outer loop
    vertex -10.000000000000078 14.999999999999986 2.9999999999999725
    vertex -8.70590477448743 14.829629131445447 24.999999999999936
    vertex -8.70590477448747 14.829629131445323 2.9999999999999676
  endloop
endfacet
facet normal 0.13052619222005074 0.9914448613738105 -5.538213771305831e-15
  outer loop
    vertex -8.70590477448743 14.829629131445447 24.999999999999936
    vertex -10.000000000000078 14.999999999999986 2.9999999999999725
    vertex -10.00000000000005 15.0000000000001 24.99999999999995
  endloop
endfacet
facet normal -0.13052619222006348 0.9914448613738088 -5.849587610146574e-15
  outer loop
    vertex -11.294095225512706 14.829629131445289 2.9999999999999774
    vertex -10.00000000000005 15.0000000000001 24.99999999999995
    vertex -10.000000000000078 14.999999999999986 2.9999999999999725
  endloop
endfacet
facet normal -0.13052619222006348 0.9914448613738088 -5.849587610146574e-15
  outer loop
    vertex -10.00000000000005 15.0000000000001 24.99999999999995
    vertex -11.294095225512706 14.829629131445289 2.9999999999999774
    vertex -11.294095225512649 14.829629131445447 24.99999999999996
  endloop
endfacet
facet normal -0.38268343236508184 0.9238795325112901 -4.491396200575649e-15
  outer loop
    vertex -12.500000000000087 14.330127018922186 2.9999999999999782
    vertex -11.294095225512649 14.829629131445447 24.99999999999996
    vertex -11.294095225512706 14.829629131445289 2.9999999999999774
  endloop
endfacet
facet normal -0.38268343236508184 0.9238795325112901 -4.491396200575649e-15
  outer loop
    vertex -11.294095225512649 14.829629131445447 24.99999999999996
    vertex -12.500000000000087 14.330127018922186 2.9999999999999782
    vertex -12.500000000000034 14.330127018922287 24.999999999999968
  endloop
endfacet
facet normal -0.6087614290087273 0.7933533402912301 -2.180145645692976e-15
  outer loop
    vertex -13.535533905932835 13.535533905932708 2.9999999999999845
    vertex -12.500000000000034 14.330127018922287 24.999999999999968
    vertex -12.500000000000087 14.330127018922186 2.9999999999999782
  endloop
endfacet
facet normal -0.6087614290087273 0.7933533402912301 -2.180145645692976e-15
  outer loop
    vertex -12.500000000000034 14.330127018922287 24.999999999999968
    vertex -13.535533905932835 13.535533905932708 2.9999999999999845
    vertex -13.535533905932782 13.53553390593281 24.99999999999998
  endloop
endfacet
facet normal -0.7933533402912347 0.6087614290087211 -8.792012971595288e-16
  outer loop
    vertex -14.330127018922223 12.500000000000092 24.999999999999982
    vertex -13.535533905932835 13.535533905932708 2.9999999999999845
    vertex -14.330127018922285 12.49999999999998 2.999999999999981
  endloop
endfacet
facet normal -0.7933533402912347 0.6087614290087211 -8.792012971595288e-16
  outer loop
    vertex -13.535533905932835 13.535533905932708 2.9999999999999845
    vertex -14.330127018922223 12.500000000000092 24.999999999999982
    vertex -13.535533905932782 13.53553390593281 24.99999999999998
  endloop
endfacet
facet normal -0.9238795325112913 0.38268343236507896 4.255883516462649e-16
  outer loop
    vertex -14.829629131445362 11.294095225512692 24.999999999999982
    vertex -14.330127018922285 12.49999999999998 2.999999999999981
    vertex -14.829629131445405 11.294095225512601 2.99999999999999
  endloop
endfacet
facet normal -0.9238795325112913 0.38268343236507896 4.255883516462649e-16
  outer loop
    vertex -14.330127018922285 12.49999999999998 2.999999999999981
    vertex -14.829629131445362 11.294095225512692 24.999999999999982
    vertex -14.330127018922223 12.500000000000092 24.999999999999982
  endloop
endfacet
facet normal -0.9914448613738084 0.1305261922200672 1.27404490436184e-15
  outer loop
    vertex -15.000000000000043 10.000000000000089 24.999999999999975
    vertex -14.829629131445405 11.294095225512601 2.99999999999999
    vertex -15.000000000000082 9.999999999999988 2.999999999999999
  endloop
endfacet
facet normal -0.9914448613738084 0.1305261922200672 1.27404490436184e-15
  outer loop
    vertex -14.829629131445405 11.294095225512601 2.99999999999999
    vertex -15.000000000000043 10.000000000000089 24.999999999999975
    vertex -14.829629131445362 11.294095225512692 24.999999999999982
  endloop
endfacet
facet normal -0.99144486137381 -0.13052619222005452 2.5385907402321554e-15
  outer loop
    vertex -14.829629131445376 8.705904774487475 24.999999999999968
    vertex -15.000000000000082 9.999999999999988 2.999999999999999
    vertex -14.829629131445424 8.705904774487385 2.9999999999999982
  endloop
endfacet
facet normal -0.99144486137381 -0.13052619222005452 2.5385907402321554e-15
  outer loop
    vertex -15.000000000000082 9.999999999999988 2.999999999999999
    vertex -14.829629131445376 8.705904774487475 24.999999999999968
    vertex -15.000000000000043 10.000000000000089 24.999999999999975
  endloop
endfacet
facet normal -0.9238795325112873 -0.3826834323650886 3.722232869342741e-15
  outer loop
    vertex -14.330127018922218 7.500000000000057 24.99999999999998
    vertex -14.829629131445424 8.705904774487385 2.9999999999999982
    vertex -14.330127018922276 7.499999999999978 3.0000000000000004
  endloop
endfacet
facet normal -0.9238795325112873 -0.3826834323650886 3.722232869342741e-15
  outer loop
    vertex -14.829629131445424 8.705904774487385 2.9999999999999982
    vertex -14.330127018922218 7.500000000000057 24.99999999999998
    vertex -14.829629131445376 8.705904774487475 24.999999999999968
  endloop
endfacet
facet normal -0.7933533402912403 -0.6087614290087142 4.324838051891989e-15
  outer loop
    vertex -13.535533905932782 6.464466094067328 24.99999999999999
    vertex -14.330127018922276 7.499999999999978 3.0000000000000004
    vertex -13.535533905932832 6.464466094067238 3.0
  endloop
endfacet
facet normal -0.7933533402912403 -0.6087614290087142 4.324838051891989e-15
  outer loop
    vertex -14.330127018922276 7.499999999999978 3.0000000000000004
    vertex -13.535533905932782 6.464466094067328 24.99999999999999
    vertex -14.330127018922218 7.500000000000057 24.99999999999998
  endloop
endfacet
facet normal -0.6087614290087106 -0.7933533402912428 4.573749277610054e-15
  outer loop
    vertex -12.50000000000005 5.669872981077896 24.99999999999998
    vertex -13.535533905932832 6.464466094067238 3.0
    vertex -12.50000000000011 5.669872981077817 3.0
  endloop
endfacet
facet normal -0.6087614290087106 -0.7933533402912428 4.573749277610054e-15
  outer loop
    vertex -13.535533905932832 6.464466094067238 3.0
    vertex -12.50000000000005 5.669872981077896 24.99999999999998
    vertex -13.535533905932782 6.464466094067328 24.99999999999999
  endloop
endfacet
facet normal -0.3826834323650682 -0.9238795325112956 5.317102346653571e-15
  outer loop
    vertex -11.294095225512692 5.170370868554669 3.000000000000003
    vertex -12.50000000000005 5.669872981077896 24.99999999999998
    vertex -12.50000000000011 5.669872981077817 3.0
  endloop
endfacet
facet normal -0.3826834323650682 -0.9238795325112956 5.317102346653571e-15
  outer loop
    vertex -12.50000000000005 5.669872981077896 24.99999999999998
    vertex -11.294095225512692 5.170370868554669 3.000000000000003
    vertex -11.29409522551263 5.1703708685547936 24.999999999999986
  endloop
endfacet
facet normal -0.13052619222006062 -0.9914448613738094 5.588361873655587e-15
  outer loop
    vertex -10.00000000000005 5.000000000000118 24.999999999999975
    vertex -11.294095225512692 5.170370868554669 3.000000000000003
    vertex -10.000000000000071 5.000000000000005 3.0000000000000004
  endloop
endfacet
facet normal -0.13052619222006062 -0.9914448613738094 5.588361873655587e-15
  outer loop
    vertex -11.294095225512692 5.170370868554669 3.000000000000003
    vertex -10.00000000000005 5.000000000000118 24.999999999999975
    vertex -11.29409522551263 5.1703708685547936 24.999999999999986
  endloop
endfacet
facet normal 0.13052619222004705 -0.9914448613738109 4.982979307573342e-15
  outer loop
    vertex -8.705904774487447 5.1703708685547705 24.99999999999995
    vertex -10.000000000000071 5.000000000000005 3.0000000000000004
    vertex -8.705904774487458 5.170370868554658 2.9999999999999933
  endloop
endfacet
facet normal 0.13052619222004705 -0.9914448613738109 4.982979307573342e-15
  outer loop
    vertex -10.000000000000071 5.000000000000005 3.0000000000000004
    vertex -8.705904774487447 5.1703708685547705 24.99999999999995
    vertex -10.00000000000005 5.000000000000118 24.999999999999975
  endloop
endfacet
facet normal 0.382683432365106 -0.9238795325112801 4.100514841255513e-15
  outer loop
    vertex -7.5000000000000595 5.66987298107793 24.99999999999995
    vertex -8.705904774487458 5.170370868554658 2.9999999999999933
    vertex -7.500000000000122 5.669872981077817 2.999999999999989
  endloop
endfacet
facet normal 0.382683432365106 -0.9238795325112801 4.100514841255513e-15
  outer loop
    vertex -8.705904774487458 5.170370868554658 2.9999999999999933
    vertex -7.5000000000000595 5.66987298107793 24.99999999999995
    vertex -8.705904774487447 5.1703708685547705 24.99999999999995
  endloop
endfacet
facet normal 0.6087614290086828 -0.7933533402912641 2.382840316140847e-15
  outer loop
    vertex -6.46446609406728 6.4644660940673395 24.999999999999964
    vertex -7.500000000000122 5.669872981077817 2.999999999999989
    vertex -6.464466094067325 6.464466094067238 2.999999999999985
  endloop
endfacet
facet normal 0.6087614290086828 -0.7933533402912641 2.382840316140847e-15
  outer loop
    vertex -7.500000000000122 5.669872981077817 2.999999999999989
    vertex -6.46446609406728 6.4644660940673395 24.999999999999964
    vertex -7.5000000000000595 5.66987298107793 24.99999999999995
  endloop
endfacet
facet normal 0.7933533402912396 -0.6087614290087148 6.131433212291688e-16
  outer loop
    vertex -5.669872981077887 7.499999999999989 2.999999999999988
    vertex -6.46446609406728 6.4644660940673395 24.999999999999964
    vertex -6.464466094067325 6.464466094067238 2.999999999999985
  endloop
endfacet
facet normal 0.7933533402912396 -0.6087614290087148 6.131433212291688e-16
  outer loop
    vertex -6.46446609406728 6.4644660940673395 24.999999999999964
    vertex -5.669872981077887 7.499999999999989 2.999999999999988
    vertex -5.6698729810778365 7.500000000000057 24.99999999999995
  endloop
endfacet
facet normal 0.9238795325112988 -0.38268343236506097 -7.777561078194322e-16
  outer loop
    vertex -5.170370868554779 8.705904774487385 2.999999999999983
    vertex -5.6698729810778365 7.500000000000057 24.99999999999995
    vertex -5.669872981077887 7.499999999999989 2.999999999999988
  endloop
endfacet
facet normal 0.9238795325112988 -0.38268343236506097 -7.777561078194322e-16
  outer loop
    vertex -5.6698729810778365 7.500000000000057 24.99999999999995
    vertex -5.170370868554779 8.705904774487385 2.999999999999983
    vertex -5.1703708685547225 8.705904774487486 24.999999999999943
  endloop
endfacet
facet normal 0.99144486137381 -0.13052619222005402 -2.0664225681183282e-15
  outer loop
    vertex -5.000000000000121 9.999999999999988 2.999999999999975
    vertex -5.1703708685547225 8.705904774487486 24.999999999999943
    vertex -5.170370868554779 8.705904774487385 2.999999999999983
  endloop
endfacet
facet normal 0.99144486137381 -0.13052619222005402 -2.0664225681183282e-15
  outer loop
    vertex -5.1703708685547225 8.705904774487486 24.999999999999943
    vertex -5.000000000000121 9.999999999999988 2.999999999999975
    vertex -5.000000000000059 10.000000000000089 24.99999999999995
  endloop
endfacet
facet normal 0.9914448613738129 0.13052619222003356 -2.5687496842013713e-15
  outer loop
    vertex -5.170370868554746 11.294095225512658 2.999999999999968
    vertex -5.000000000000059 10.000000000000089 24.99999999999995
    vertex -5.000000000000121 9.999999999999988 2.999999999999975
  endloop
endfacet
facet normal 0.9914448613738129 0.13052619222003356 -2.5687496842013713e-15
  outer loop
    vertex -5.000000000000059 10.000000000000089 24.99999999999995
    vertex -5.170370868554746 11.294095225512658 2.999999999999968
    vertex -5.170370868554717 11.294095225512736 24.999999999999936
  endloop
endfacet
facet normal 0.9238795325112771 0.3826834323651134 -2.8504848649804446e-15
  outer loop
    vertex -5.669872981077916 12.500000000000002 2.9999999999999676
    vertex -5.170370868554717 11.294095225512736 24.999999999999936
    vertex -5.170370868554746 11.294095225512658 2.999999999999968
  endloop
endfacet
facet normal 0.9238795325112771 0.3826834323651134 -2.8504848649804446e-15
  outer loop
    vertex -5.170370868554717 11.294095225512736 24.999999999999936
    vertex -5.669872981077916 12.500000000000002 2.9999999999999676
    vertex -5.669872981077887 12.500000000000115 24.999999999999936
  endloop
endfacet
facet normal 0.7933533402912618 0.608761429008686 -4.3885464539104984e-15
  outer loop
    vertex -6.464466094067342 13.535533905932787 2.9999999999999702
    vertex -5.669872981077887 12.500000000000115 24.999999999999936
    vertex -5.669872981077916 12.500000000000002 2.9999999999999676
  endloop
endfacet
facet normal 0.7933533402912618 0.608761429008686 -4.3885464539104984e-15
  outer loop
    vertex -5.669872981077887 12.500000000000115 24.999999999999936
    vertex -6.464466094067342 13.535533905932787 2.9999999999999702
    vertex -6.464466094067292 13.535533905932889 24.999999999999932
  endloop
endfacet
facet normal 0.6087614290086656 0.7933533402912774 -4.441710058532307e-15
  outer loop
    vertex -7.500000000000082 14.330127018922253 24.999999999999922
    vertex -6.464466094067342 13.535533905932787 2.9999999999999702
    vertex -7.500000000000088 14.330127018922152 2.9999999999999667
  endloop
endfacet
facet normal 0.6087614290086656 0.7933533402912774 -4.441710058532307e-15
  outer loop
    vertex -6.464466094067342 13.535533905932787 2.9999999999999702
    vertex -7.500000000000082 14.330127018922253 24.999999999999922
    vertex -6.464466094067292 13.535533905932889 24.999999999999932
  endloop
endfacet
facet normal 0.13052619222006479 -0.9914448613738088 5.689980427322065e-15
  outer loop
    vertex -10.000000000000055 13.100000000000092 24.99999999999995
    vertex -10.802339039817912 12.994370061496038 -1.9999999999999996
    vertex -10.000000000000062 13.09999999999995 -2.0000000000000013
  endloop
endfacet
facet normal 0.13052619222006479 -0.9914448613738088 5.689980427322065e-15
  outer loop
    vertex -10.802339039817912 12.994370061496038 -1.9999999999999996
    vertex -10.000000000000055 13.100000000000092 24.99999999999995
    vertex -10.802339039817868 12.994370061496202 24.99999999999996
  endloop
endfacet
facet normal 0.38268343236512653 -0.9238795325112715 4.958006526607678e-15
  outer loop
    vertex -10.802339039817868 12.994370061496202 24.99999999999996
    vertex -11.55000000000007 12.684678751731669 -1.9999999999999816
    vertex -10.802339039817912 12.994370061496038 -1.9999999999999996
  endloop
endfacet
facet normal 0.38268343236512653 -0.9238795325112715 4.958006526607678e-15
  outer loop
    vertex -11.55000000000007 12.684678751731669 -1.9999999999999816
    vertex -10.802339039817868 12.994370061496202 24.99999999999996
    vertex -11.550000000000024 12.684678751731822 24.999999999999975
  endloop
endfacet
facet normal 0.608761429008703 -0.7933533402912487 3.3420961158203482e-15
  outer loop
    vertex -11.55000000000007 12.684678751731669 -1.9999999999999816
    vertex -12.192031021678329 12.19203102167837 24.999999999999975
    vertex -12.192031021678378 12.192031021678227 -2.0
  endloop
endfacet
facet normal 0.608761429008703 -0.7933533402912487 3.3420961158203482e-15
  outer loop
    vertex -12.192031021678329 12.19203102167837 24.999999999999975
    vertex -11.55000000000007 12.684678751731669 -1.9999999999999816
    vertex -11.550000000000024 12.684678751731822 24.999999999999975
  endloop
endfacet
facet normal 0.793353340291231 -0.6087614290087263 2.2282378199848196e-15
  outer loop
    vertex -12.192031021678378 12.192031021678227 -2.0
    vertex -12.684678751731813 11.550000000000072 24.999999999999986
    vertex -12.68467875173185 11.549999999999908 -1.9999999999999793
  endloop
endfacet
facet normal 0.793353340291231 -0.6087614290087263 2.2282378199848196e-15
  outer loop
    vertex -12.684678751731813 11.550000000000072 24.999999999999986
    vertex -12.192031021678378 12.192031021678227 -2.0
    vertex -12.192031021678329 12.19203102167837 24.999999999999975
  endloop
endfacet
facet normal 0.9238795325112881 -0.38268343236508656 1.0117323215189177e-15
  outer loop
    vertex -12.68467875173185 11.549999999999908 -1.9999999999999793
    vertex -12.99437006149616 10.802339039817888 24.999999999999975
    vertex -12.994370061496188 10.802339039817758 -1.9999999999999905
  endloop
endfacet
facet normal 0.9238795325112881 -0.38268343236508656 1.0117323215189177e-15
  outer loop
    vertex -12.99437006149616 10.802339039817888 24.999999999999975
    vertex -12.68467875173185 11.549999999999908 -1.9999999999999793
    vertex -12.684678751731813 11.550000000000072 24.999999999999986
  endloop
endfacet
facet normal 0.9914448613738107 -0.1305261922200501 -4.409507111538251e-16
  outer loop
    vertex -12.994370061496188 10.802339039817758 -1.9999999999999905
    vertex -13.100000000000044 10.000000000000078 24.99999999999998
    vertex -13.100000000000078 9.999999999999936 -1.9999999999999816
  endloop
endfacet
facet normal 0.9914448613738107 -0.1305261922200501 -4.409507111538251e-16
  outer loop
    vertex -13.100000000000044 10.000000000000078 24.99999999999998
    vertex -12.994370061496188 10.802339039817758 -1.9999999999999905
    vertex -12.99437006149616 10.802339039817888 24.999999999999975
  endloop
endfacet
facet normal 0.9914448613738077 0.13052619222007245 -2.0783398842656756e-15
  outer loop
    vertex -13.100000000000078 9.999999999999936 -1.9999999999999816
    vertex -12.994370061496136 9.197660960182278 24.999999999999986
    vertex -12.994370061496175 9.197660960182127 -1.999999999999968
  endloop
endfacet
facet normal 0.9914448613738077 0.13052619222007245 -2.0783398842656756e-15
  outer loop
    vertex -12.994370061496136 9.197660960182278 24.999999999999986
    vertex -13.100000000000078 9.999999999999936 -1.9999999999999816
    vertex -13.100000000000044 10.000000000000078 24.99999999999998
  endloop
endfacet
facet normal 0.923879532511304 0.3826834323650485 -3.5130121540133325e-15
  outer loop
    vertex -12.994370061496175 9.197660960182127 -1.999999999999968
    vertex -12.684678751731814 8.450000000000067 24.999999999999986
    vertex -12.684678751731854 8.449999999999925 -1.9999999999999791
  endloop
endfacet
facet normal 0.923879532511304 0.3826834323650485 -3.5130121540133325e-15
  outer loop
    vertex -12.684678751731814 8.450000000000067 24.999999999999986
    vertex -12.994370061496175 9.197660960182127 -1.999999999999968
    vertex -12.994370061496136 9.197660960182278 24.999999999999986
  endloop
endfacet
facet normal 0.7933533402912477 0.6087614290087043 -4.733024722499041e-15
  outer loop
    vertex -12.684678751731854 8.449999999999925 -1.9999999999999791
    vertex -12.192031021678366 7.80796897832177 24.999999999999986
    vertex -12.192031021678403 7.807968978321606 -1.9999999999999776
  endloop
endfacet
facet normal 0.7933533402912477 0.6087614290087043 -4.733024722499041e-15
  outer loop
    vertex -12.192031021678366 7.80796897832177 24.999999999999986
    vertex -12.684678751731854 8.449999999999925 -1.9999999999999791
    vertex -12.684678751731814 8.450000000000067 24.999999999999986
  endloop
endfacet
facet normal 0.608761429008698 0.7933533402912526 -5.725000433290191e-15
  outer loop
    vertex -12.192031021678403 7.807968978321606 -1.9999999999999776
    vertex -11.55000000000008 7.31532124826834 24.999999999999986
    vertex -11.550000000000118 7.315321248268187 -1.999999999999992
  endloop
endfacet
facet normal 0.608761429008698 0.7933533402912526 -5.725000433290191e-15
  outer loop
    vertex -11.55000000000008 7.31532124826834 24.999999999999986
    vertex -12.192031021678403 7.807968978321606 -1.9999999999999776
    vertex -12.192031021678366 7.80796897832177 24.999999999999986
  endloop
endfacet
facet normal 0.38268343236508334 0.9238795325112894 -5.6066413289395395e-15
  outer loop
    vertex -11.55000000000008 7.31532124826834 24.999999999999986
    vertex -10.802339039817907 7.005629938503841 -1.9999999999999793
    vertex -11.550000000000118 7.315321248268187 -1.999999999999992
  endloop
endfacet
facet normal 0.38268343236508334 0.9238795325112894 -5.6066413289395395e-15
  outer loop
    vertex -10.802339039817907 7.005629938503841 -1.9999999999999793
    vertex -11.55000000000008 7.31532124826834 24.999999999999986
    vertex -10.802339039817863 7.00562993850397 24.999999999999993
  endloop
endfacet
facet normal 0.13052619222006698 0.9914448613738084 -5.984782937923393e-15
  outer loop
    vertex -10.802339039817907 7.005629938503841 -1.9999999999999793
    vertex -10.000000000000055 6.900000000000092 24.999999999999975
    vertex -10.000000000000078 6.899999999999917 -1.9999999999999805
  endloop
endfacet
facet normal 0.13052619222006698 0.9914448613738084 -5.984782937923393e-15
  outer loop
    vertex -10.000000000000055 6.900000000000092 24.999999999999975
    vertex -10.802339039817907 7.005629938503841 -1.9999999999999793
    vertex -10.802339039817863 7.00562993850397 24.999999999999993
  endloop
endfacet
facet normal -0.1305261922201097 0.9914448613738028 -6.548088166233273e-15
  outer loop
    vertex -10.000000000000078 6.899999999999917 -1.9999999999999805
    vertex -9.197660960182239 7.005629938504027 24.999999999999982
    vertex -9.19766096018228 7.005629938503852 -1.9999999999999822
  endloop
endfacet
facet normal -0.1305261922201097 0.9914448613738028 -6.548088166233273e-15
  outer loop
    vertex -9.197660960182239 7.005629938504027 24.999999999999982
    vertex -10.000000000000078 6.899999999999917 -1.9999999999999805
    vertex -10.000000000000055 6.900000000000092 24.999999999999975
  endloop
endfacet
facet normal -0.38268343236510344 0.9238795325112812 -5.411283702275122e-15
  outer loop
    vertex -9.19766096018228 7.005629938503852 -1.9999999999999822
    vertex -8.45000000000011 7.315321248268362 24.99999999999995
    vertex -8.450000000000099 7.315321248268221 -1.9999999999999984
  endloop
endfacet
facet normal -0.38268343236510344 0.9238795325112812 -5.411283702275122e-15
  outer loop
    vertex -8.45000000000011 7.315321248268362 24.99999999999995
    vertex -9.19766096018228 7.005629938503852 -1.9999999999999822
    vertex -9.197660960182239 7.005629938504027 24.999999999999982
  endloop
endfacet
facet normal -0.6087614290087066 0.793353340291246 -4.515974869347716e-15
  outer loop
    vertex -8.45000000000011 7.315321248268362 24.99999999999995
    vertex -7.807968978321807 7.807968978321663 -1.9999999999999818
    vertex -8.450000000000099 7.315321248268221 -1.9999999999999984
  endloop
endfacet
facet normal -0.6087614290087066 0.793353340291246 -4.515974869347716e-15
  outer loop
    vertex -7.807968978321807 7.807968978321663 -1.9999999999999818
    vertex -8.45000000000011 7.315321248268362 24.99999999999995
    vertex -7.807968978321783 7.807968978321826 24.999999999999957
  endloop
endfacet
facet normal -0.793353340291207 0.6087614290087576 -3.0402572865237416e-15
  outer loop
    vertex -7.807968978321783 7.807968978321826 24.999999999999957
    vertex -7.315321248268327 8.449999999999925 -1.9999999999999851
    vertex -7.807968978321807 7.807968978321663 -1.9999999999999818
  endloop
endfacet
facet normal -0.793353340291207 0.6087614290087576 -3.0402572865237416e-15
  outer loop
    vertex -7.315321248268327 8.449999999999925 -1.9999999999999851
    vertex -7.807968978321783 7.807968978321826 24.999999999999957
    vertex -7.315321248268297 8.450000000000088 24.99999999999995
  endloop
endfacet
facet normal -0.9238795325112753 0.38268343236511726 -1.2024549661167552e-15
  outer loop
    vertex -7.315321248268297 8.450000000000088 24.99999999999995
    vertex -7.005629938503952 9.197660960182114 -1.9999999999999858
    vertex -7.315321248268327 8.449999999999925 -1.9999999999999851
  endloop
endfacet
facet normal -0.9238795325112753 0.38268343236511726 -1.2024549661167552e-15
  outer loop
    vertex -7.005629938503952 9.197660960182114 -1.9999999999999858
    vertex -7.315321248268297 8.450000000000088 24.99999999999995
    vertex -7.0056299385039225 9.197660960182256 24.999999999999954
  endloop
endfacet
facet normal -0.9914448613738145 0.1305261922200209 4.936763420590903e-16
  outer loop
    vertex -7.0056299385039225 9.197660960182256 24.999999999999954
    vertex -6.90000000000009 9.999999999999936 -1.9999999999999858
    vertex -7.005629938503952 9.197660960182114 -1.9999999999999858
  endloop
endfacet
facet normal -0.9914448613738145 0.1305261922200209 4.936763420590903e-16
  outer loop
    vertex -6.90000000000009 9.999999999999936 -1.9999999999999858
    vertex -7.0056299385039225 9.197660960182256 24.999999999999954
    vertex -6.900000000000055 10.000000000000089 24.999999999999943
  endloop
endfacet
facet normal -0.9914448613738136 -0.13052619222002868 1.4896989350839921e-15
  outer loop
    vertex -6.900000000000055 10.000000000000089 24.999999999999943
    vertex -7.005629938503946 10.80233903981777 -1.9999999999999971
    vertex -6.90000000000009 9.999999999999936 -1.9999999999999858
  endloop
endfacet
facet normal -0.9914448613738136 -0.13052619222002868 1.4896989350839921e-15
  outer loop
    vertex -7.005629938503946 10.80233903981777 -1.9999999999999971
    vertex -6.900000000000055 10.000000000000089 24.999999999999943
    vertex -7.005629938503939 10.8023390398179 24.999999999999947
  endloop
endfacet
facet normal -0.9238795325112793 -0.382683432365108 2.593186183261856e-15
  outer loop
    vertex -7.005629938503939 10.8023390398179 24.999999999999947
    vertex -7.315321248268333 11.549999999999965 -2.000000000000008
    vertex -7.005629938503946 10.80233903981777 -1.9999999999999971
  endloop
endfacet
facet normal -0.9238795325112793 -0.382683432365108 2.593186183261856e-15
  outer loop
    vertex -7.315321248268333 11.549999999999965 -2.000000000000008
    vertex -7.005629938503939 10.8023390398179 24.999999999999947
    vertex -7.315321248268309 11.550000000000116 24.999999999999936
  endloop
endfacet
facet normal -0.7933533402911943 -0.6087614290087738 4.643788077330104e-15
  outer loop
    vertex -7.315321248268309 11.550000000000116 24.999999999999936
    vertex -7.807968978321797 12.19203102167816 -2.000000000000005
    vertex -7.315321248268333 11.549999999999965 -2.000000000000008
  endloop
endfacet
facet normal -0.7933533402911943 -0.6087614290087738 4.643788077330104e-15
  outer loop
    vertex -7.807968978321797 12.19203102167816 -2.000000000000005
    vertex -7.315321248268309 11.550000000000116 24.999999999999936
    vertex -7.80796897832175 12.192031021678313 24.99999999999994
  endloop
endfacet
facet normal -0.6087614290087693 -0.793353340291198 5.1192728702518055e-15
  outer loop
    vertex -7.80796897832175 12.192031021678313 24.99999999999994
    vertex -8.450000000000076 12.684678751731692 -1.999999999999987
    vertex -7.807968978321797 12.19203102167816 -2.000000000000005
  endloop
endfacet
facet normal -0.6087614290087693 -0.793353340291198 5.1192728702518055e-15
  outer loop
    vertex -8.450000000000076 12.684678751731692 -1.999999999999987
    vertex -7.80796897832175 12.192031021678313 24.99999999999994
    vertex -8.450000000000053 12.684678751731822 24.999999999999943
  endloop
endfacet
facet normal -0.38268343236512675 -0.9238795325112715 4.76524253064539e-15
  outer loop
    vertex -8.450000000000076 12.684678751731692 -1.999999999999987
    vertex -9.197660960182233 12.994370061496202 24.99999999999995
    vertex -9.197660960182263 12.994370061496083 -2.0000000000000027
  endloop
endfacet
facet normal -0.38268343236512675 -0.9238795325112715 4.76524253064539e-15
  outer loop
    vertex -9.197660960182233 12.994370061496202 24.99999999999995
    vertex -8.450000000000076 12.684678751731692 -1.999999999999987
    vertex -8.450000000000053 12.684678751731822 24.999999999999943
  endloop
endfacet
facet normal -0.1305261922200407 -0.9914448613738118 5.008875039942946e-15
  outer loop
    vertex -9.197660960182233 12.994370061496202 24.99999999999995
    vertex -10.000000000000062 13.09999999999995 -2.0000000000000013
    vertex -9.197660960182263 12.994370061496083 -2.0000000000000027
  endloop
endfacet
facet normal -0.1305261922200407 -0.9914448613738118 5.008875039942946e-15
  outer loop
    vertex -10.000000000000062 13.09999999999995 -2.0000000000000013
    vertex -9.197660960182233 12.994370061496202 24.99999999999995
    vertex -10.000000000000055 13.100000000000092 24.99999999999995
  endloop
endfacet
facet normal 1.754977849990911e-15 -1.5407234315344146e-15 -1.0
  outer loop
    vertex -12.588190264434441 19.659258312887523 -2.0000000000000404
    vertex -13.100000000000078 9.999999999999936 -1.9999999999999816
    vertex -14.999999847915714 18.660254125650336 -2.0000000000000338
  endloop
endfacet
facet normal 1.754977849990911e-15 -1.5407234315344146e-15 -1.0
  outer loop
    vertex -13.100000000000078 9.999999999999936 -1.9999999999999816
    vertex -12.588190264434441 19.659258312887523 -2.0000000000000404
    vertex -12.994370061496188 10.802339039817758 -1.9999999999999905
  endloop
endfacet
facet normal 1.754977849990911e-15 -1.5407234315344146e-15 -1.0
  outer loop
    vertex -12.994370061496188 10.802339039817758 -1.9999999999999905
    vertex -12.588190264434441 19.659258312887523 -2.0000000000000404
    vertex -12.68467875173185 11.549999999999908 -1.9999999999999793
  endloop
endfacet
facet normal 1.754977849990911e-15 -1.5407234315344146e-15 -1.0
  outer loop
    vertex -12.68467875173185 11.549999999999908 -1.9999999999999793
    vertex -12.588190264434441 19.659258312887523 -2.0000000000000404
    vertex -12.192031021678378 12.192031021678227 -2.0
  endloop
endfacet
facet normal 1.754977849990911e-15 -1.5407234315344146e-15 -1.0
  outer loop
    vertex -12.192031021678378 12.192031021678227 -2.0
    vertex -12.588190264434441 19.659258312887523 -2.0000000000000404
    vertex -9.999999789265823 19.999999999999996 -2.000000000000036
  endloop
endfacet
facet normal 1.754977849990911e-15 -1.5407234315344146e-15 -1.0
  outer loop
    vertex -12.192031021678378 12.192031021678227 -2.0
    vertex -9.999999789265823 19.999999999999996 -2.000000000000036
    vertex -11.55000000000007 12.684678751731669 -1.9999999999999816
  endloop
endfacet
facet normal 1.754977849990911e-15 -1.5407234315344146e-15 -1.0
  outer loop
    vertex -11.55000000000007 12.684678751731669 -1.9999999999999816
    vertex -9.999999789265823 19.999999999999996 -2.000000000000036
    vertex -10.802339039817912 12.994370061496038 -1.9999999999999996
  endloop
endfacet
facet normal 1.754977849990911e-15 -1.5407234315344146e-15 -1.0
  outer loop
    vertex -10.802339039817912 12.994370061496038 -1.9999999999999996
    vertex -9.999999789265823 19.999999999999996 -2.000000000000036
    vertex -10.000000000000062 13.09999999999995 -2.0000000000000013
  endloop
endfacet
facet normal 1.754977849990911e-15 -1.5407234315344146e-15 -1.0
  outer loop
    vertex -10.000000000000062 13.09999999999995 -2.0000000000000013
    vertex -9.999999789265823 19.999999999999996 -2.000000000000036
    vertex -9.197660960182263 12.994370061496083 -2.0000000000000027
  endloop
endfacet
facet normal 1.754977849990911e-15 -1.5407234315344146e-15 -1.0
  outer loop
    vertex -9.197660960182263 12.994370061496083 -2.0000000000000027
    vertex -9.999999789265823 19.999999999999996 -2.000000000000036
    vertex -7.411809447198011 19.659258235619546 -1.999999999999984
  endloop
endfacet
facet normal 1.754977849990911e-15 -1.5407234315344146e-15 -1.0
  outer loop
    vertex -9.197660960182263 12.994370061496083 -2.0000000000000027
    vertex -7.411809447198011 19.659258235619546 -1.999999999999984
    vertex -8.450000000000076 12.684678751731692 -1.999999999999987
  endloop
endfacet
facet normal 1.754977849990911e-15 -1.5407234315344146e-15 -1.0
  outer loop
    vertex -8.450000000000076 12.684678751731692 -1.999999999999987
    vertex -7.411809447198011 19.659258235619546 -1.999999999999984
    vertex -7.807968978321797 12.19203102167816 -2.000000000000005
  endloop
endfacet
facet normal 1.754977849990911e-15 -1.5407234315344146e-15 -1.0
  outer loop
    vertex -7.807968978321797 12.19203102167816 -2.000000000000005
    vertex -7.411809447198011 19.659258235619546 -1.999999999999984
    vertex -7.315321248268333 11.549999999999965 -2.000000000000008
  endloop
endfacet
facet normal 1.754977849990911e-15 -1.5407234315344146e-15 -1.0
  outer loop
    vertex -7.315321248268333 11.549999999999965 -2.000000000000008
    vertex -7.411809447198011 19.659258235619546 -1.999999999999984
    vertex -4.999999908749458 18.6602539851607 -1.999999999999984
  endloop
endfacet
facet normal 1.754977849990911e-15 -1.5407234315344146e-15 -1.0
  outer loop
    vertex -7.315321248268333 11.549999999999965 -2.000000000000008
    vertex -4.999999908749458 18.6602539851607 -1.999999999999984
    vertex -7.005629938503946 10.80233903981777 -1.9999999999999971
  endloop
endfacet
facet normal 1.754977849990911e-15 -1.5407234315344146e-15 -1.0
  outer loop
    vertex -7.005629938503946 10.80233903981777 -1.9999999999999971
    vertex -4.999999908749458 18.6602539851607 -1.999999999999984
    vertex -6.90000000000009 9.999999999999936 -1.9999999999999858
  endloop
endfacet
facet normal 1.754977849990911e-15 -1.5407234315344146e-15 -1.0
  outer loop
    vertex -6.90000000000009 9.999999999999936 -1.9999999999999858
    vertex -4.999999908749458 18.6602539851607 -1.999999999999984
    vertex -5.000000091250771 1.3397459094719948 -1.999999999999984
  endloop
endfacet
facet normal 1.754977849990911e-15 -1.5407234315344146e-15 -1.0
  outer loop
    vertex -5.000000091250771 1.3397459094719948 -1.999999999999984
    vertex -4.999999908749458 18.6602539851607 -1.999999999999984
    vertex -2.928932262640496 2.928932113628642 -1.999999999999984
  endloop
endfacet
facet normal 1.754977849990911e-15 -1.5407234315344146e-15 -1.0
  outer loop
    vertex -2.928932262640496 2.928932113628642 -1.999999999999984
    vertex -4.999999908749458 18.6602539851607 -1.999999999999984
    vertex -2.928932113628799 17.071067737359535 -1.999999999999984
  endloop
endfacet
facet normal 1.754977849990911e-15 -1.5407234315344146e-15 -1.0
  outer loop
    vertex -2.928932262640496 2.928932113628642 -1.999999999999984
    vertex -2.928932113628799 17.071067737359535 -1.999999999999984
    vertex -1.3397460148393345 4.999999908749299 -1.999999999999984
  endloop
endfacet
facet normal 1.754977849990911e-15 -1.5407234315344146e-15 -1.0
  outer loop
    vertex -1.3397460148393345 4.999999908749299 -1.999999999999984
    vertex -2.928932113628799 17.071067737359535 -1.999999999999984
    vertex -1.3397459094721527 14.999999908749261 -1.999999999999984
  endloop
endfacet
facet normal 1.754977849990911e-15 -1.5407234315344146e-15 -1.0
  outer loop
    vertex -1.3397460148393345 4.999999908749299 -1.999999999999984
    vertex -1.3397459094721527 14.999999908749261 -1.999999999999984
    vertex -0.3407417643804844 7.411809447197857 -1.999999999999984
  endloop
endfacet
facet normal 1.754977849990911e-15 -1.5407234315344146e-15 -1.0
  outer loop
    vertex -0.3407417643804844 7.411809447197857 -1.999999999999984
    vertex -1.3397459094721527 14.999999908749261 -1.999999999999984
    vertex -0.3407417098384171 12.58819034924825 -1.999999999999984
  endloop
endfacet
facet normal 1.754977849990911e-15 -1.5407234315344146e-15 -1.0
  outer loop
    vertex -0.3407417643804844 7.411809447197857 -1.999999999999984
    vertex -0.3407417098384171 12.58819034924825 -1.999999999999984
    vertex -1.3535839116229907e-13 9.999999894632756 -1.999999999999984
  endloop
endfacet
facet normal 1.754977849990911e-15 -1.5407234315344146e-15 -1.0
  outer loop
    vertex -19.659258231074542 12.588190569764835 -2.000000000000008
    vertex -19.65925828561655 7.411809633788785 -2.000000000000007
    vertex -20.000000000000057 10.000000105367116 -2.0000000000000173
  endloop
endfacet
facet normal 1.754977849990911e-15 -1.5407234315344146e-15 -1.0
  outer loop
    vertex -19.65925828561655 7.411809633788785 -2.000000000000007
    vertex -19.659258231074542 12.588190569764835 -2.000000000000008
    vertex -18.6602540729668 5.0000000608337265 -2.000000000000002
  endloop
endfacet
facet normal 1.754977849990911e-15 -1.5407234315344146e-15 -1.0
  outer loop
    vertex -18.6602540729668 5.0000000608337265 -2.000000000000002
    vertex -19.659258231074542 12.588190569764835 -2.000000000000008
    vertex -18.660253967599704 15.000000121667513 -2.000000000000021
  endloop
endfacet
facet normal 1.754977849990911e-15 -1.5407234315344146e-15 -1.0
  outer loop
    vertex -18.6602540729668 5.0000000608337265 -2.000000000000002
    vertex -18.660253967599704 15.000000121667513 -2.000000000000021
    vertex -17.071067849118435 2.928932225387417 -1.9999999999999998
  endloop
endfacet
facet normal 1.754977849990911e-15 -1.5407234315344146e-15 -1.0
  outer loop
    vertex -17.071067849118435 2.928932225387417 -1.9999999999999998
    vertex -18.660253967599704 15.000000121667513 -2.000000000000021
    vertex -17.071067700106813 17.071067923624206 -2.0000000000000293
  endloop
endfacet
facet normal 1.754977849990911e-15 -1.5407234315344146e-15 -1.0
  outer loop
    vertex -17.071067849118435 2.928932225387417 -1.9999999999999998
    vertex -17.071067700106813 17.071067923624206 -2.0000000000000293
    vertex -15.00000003041692 1.3397459797167621 -1.999999999999987
  endloop
endfacet
facet normal 1.754977849990911e-15 -1.5407234315344146e-15 -1.0
  outer loop
    vertex -15.00000003041692 1.3397459797167621 -1.999999999999987
    vertex -17.071067700106813 17.071067923624206 -2.0000000000000293
    vertex -14.999999847915714 18.660254125650336 -2.0000000000000338
  endloop
endfacet
facet normal 1.754977849990911e-15 -1.5407234315344146e-15 -1.0
  outer loop
    vertex -15.00000003041692 1.3397459797167621 -1.999999999999987
    vertex -14.999999847915714 18.660254125650336 -2.0000000000000338
    vertex -12.588190467988076 0.34074174165446075 -1.9999999999999827
  endloop
endfacet
facet normal 1.754977849990911e-15 -1.5407234315344146e-15 -1.0
  outer loop
    vertex -12.588190467988076 0.34074174165446075 -1.9999999999999827
    vertex -14.999999847915714 18.660254125650336 -2.0000000000000338
    vertex -13.100000000000078 9.999999999999936 -1.9999999999999816
  endloop
endfacet
facet normal 1.754977849990911e-15 -1.5407234315344146e-15 -1.0
  outer loop
    vertex -12.588190467988076 0.34074174165446075 -1.9999999999999827
    vertex -13.100000000000078 9.999999999999936 -1.9999999999999816
    vertex -12.994370061496175 9.197660960182127 -1.999999999999968
  endloop
endfacet
facet normal 1.754977849990911e-15 -1.5407234315344146e-15 -1.0
  outer loop
    vertex -12.588190467988076 0.34074174165446075 -1.9999999999999827
    vertex -12.994370061496175 9.197660960182127 -1.999999999999968
    vertex -12.684678751731854 8.449999999999925 -1.9999999999999791
  endloop
endfacet
facet normal 1.754977849990911e-15 -1.5407234315344146e-15 -1.0
  outer loop
    vertex -12.588190467988076 0.34074174165446075 -1.9999999999999827
    vertex -12.684678751731854 8.449999999999925 -1.9999999999999791
    vertex -12.192031021678403 7.807968978321606 -1.9999999999999776
  endloop
endfacet
facet normal 1.754977849990911e-15 -1.5407234315344146e-15 -1.0
  outer loop
    vertex -12.588190467988076 0.34074174165446075 -1.9999999999999827
    vertex -12.192031021678403 7.807968978321606 -1.9999999999999776
    vertex -10.000000000000068 -1.1059436445955541e-14 -1.9999999999999776
  endloop
endfacet
facet normal 1.754977849990911e-15 -1.5407234315344146e-15 -1.0
  outer loop
    vertex -10.000000000000068 -1.1059436445955541e-14 -1.9999999999999776
    vertex -12.192031021678403 7.807968978321606 -1.9999999999999776
    vertex -11.550000000000118 7.315321248268187 -1.999999999999992
  endloop
endfacet
facet normal 1.754977849990911e-15 -1.5407234315344146e-15 -1.0
  outer loop
    vertex -10.000000000000068 -1.1059436445955541e-14 -1.9999999999999776
    vertex -11.550000000000118 7.315321248268187 -1.999999999999992
    vertex -10.802339039817907 7.005629938503841 -1.9999999999999793
  endloop
endfacet
facet normal 1.754977849990911e-15 -1.5407234315344146e-15 -1.0
  outer loop
    vertex -10.000000000000068 -1.1059436445955541e-14 -1.9999999999999776
    vertex -10.802339039817907 7.005629938503841 -1.9999999999999793
    vertex -10.000000000000078 6.899999999999917 -1.9999999999999805
  endloop
endfacet
facet normal 1.754977849990911e-15 -1.5407234315344146e-15 -1.0
  outer loop
    vertex -10.000000000000068 -1.1059436445955541e-14 -1.9999999999999776
    vertex -10.000000000000078 6.899999999999917 -1.9999999999999805
    vertex -9.19766096018228 7.005629938503852 -1.9999999999999822
  endloop
endfacet
facet normal 1.754977849990911e-15 -1.5407234315344146e-15 -1.0
  outer loop
    vertex -10.000000000000068 -1.1059436445955541e-14 -1.9999999999999776
    vertex -9.19766096018228 7.005629938503852 -1.9999999999999822
    vertex -7.41180965075178 0.3407417098382592 -1.999999999999984
  endloop
endfacet
facet normal 1.754977849990911e-15 -1.5407234315344146e-15 -1.0
  outer loop
    vertex -7.41180965075178 0.3407417098382592 -1.999999999999984
    vertex -9.19766096018228 7.005629938503852 -1.9999999999999822
    vertex -8.450000000000099 7.315321248268221 -1.9999999999999984
  endloop
endfacet
facet normal 1.754977849990911e-15 -1.5407234315344146e-15 -1.0
  outer loop
    vertex -7.41180965075178 0.3407417098382592 -1.999999999999984
    vertex -8.450000000000099 7.315321248268221 -1.9999999999999984
    vertex -7.807968978321807 7.807968978321663 -1.9999999999999818
  endloop
endfacet
facet normal 1.754977849990911e-15 -1.5407234315344146e-15 -1.0
  outer loop
    vertex -7.41180965075178 0.3407417098382592 -1.999999999999984
    vertex -7.807968978321807 7.807968978321663 -1.9999999999999818
    vertex -7.315321248268327 8.449999999999925 -1.9999999999999851
  endloop
endfacet
facet normal 1.754977849990911e-15 -1.5407234315344146e-15 -1.0
  outer loop
    vertex -7.41180965075178 0.3407417098382592 -1.999999999999984
    vertex -7.315321248268327 8.449999999999925 -1.9999999999999851
    vertex -5.000000091250771 1.3397459094719948 -1.999999999999984
  endloop
endfacet
facet normal 1.754977849990911e-15 -1.5407234315344146e-15 -1.0
  outer loop
    vertex -5.000000091250771 1.3397459094719948 -1.999999999999984
    vertex -7.315321248268327 8.449999999999925 -1.9999999999999851
    vertex -7.005629938503952 9.197660960182114 -1.9999999999999858
  endloop
endfacet
facet normal 1.754977849990911e-15 -1.5407234315344146e-15 -1.0
  outer loop
    vertex -5.000000091250771 1.3397459094719948 -1.999999999999984
    vertex -7.005629938503952 9.197660960182114 -1.9999999999999858
    vertex -6.90000000000009 9.999999999999936 -1.9999999999999858
  endloop
endfacet
facet normal 0.9238795365435142 0.38268342263043154 -5.131844205081611e-16
  outer loop
    vertex -1.3397459094721527 14.999999908749261 -1.999999999999984
    vertex -0.340741709838417 12.588190349248256 2.999999999999966
    vertex -0.3407417098384171 12.58819034924825 -1.999999999999984
  endloop
endfacet
facet normal 0.9238795365435142 0.38268342263043154 -5.131844205081611e-16
  outer loop
    vertex -0.340741709838417 12.588190349248256 2.999999999999966
    vertex -1.3397459094721527 14.999999908749261 -1.999999999999984
    vertex -1.3397459094721527 14.999999908749267 2.999999999999966
  endloop
endfacet
facet normal 0.7933533467055829 0.6087614206493799 -8.038601202222544e-16
  outer loop
    vertex -2.928932113628799 17.071067737359535 -1.999999999999984
    vertex -1.3397459094721527 14.999999908749267 2.999999999999966
    vertex -1.3397459094721527 14.999999908749261 -1.999999999999984
  endloop
endfacet
facet normal 0.7933533467055829 0.6087614206493799 -8.038601202222544e-16
  outer loop
    vertex -1.3397459094721527 14.999999908749267 2.999999999999966
    vertex -2.928932113628799 17.071067737359535 -1.999999999999984
    vertex -2.928932113628799 17.07106773735954 2.999999999999966
  endloop
endfacet
facet normal 0.6087614373680618 0.7933533338768872 -1.0397540811848606e-15
  outer loop
    vertex -4.999999908749458 18.660253985160704 2.999999999999966
    vertex -2.928932113628799 17.071067737359535 -1.999999999999984
    vertex -4.999999908749458 18.6602539851607 -1.999999999999984
  endloop
endfacet
facet normal 0.6087614373680618 0.7933533338768872 -1.0397540811848606e-15
  outer loop
    vertex -2.928932113628799 17.071067737359535 -1.999999999999984
    vertex -4.999999908749458 18.660253985160704 2.999999999999966
    vertex -2.928932113628799 17.07106773735954 2.999999999999966
  endloop
endfacet
facet normal 0.3826834420997471 0.9238795284790595 -1.2047905197895815e-15
  outer loop
    vertex -7.411809447198011 19.65925823561955 2.999999999999966
    vertex -4.999999908749458 18.6602539851607 -1.999999999999984
    vertex -7.411809447198011 19.659258235619546 -1.999999999999984
  endloop
endfacet
facet normal 0.3826834420997471 0.9238795284790595 -1.2047905197895815e-15
  outer loop
    vertex -4.999999908749458 18.6602539851607 -1.999999999999984
    vertex -7.411809447198011 19.65925823561955 2.999999999999966
    vertex -4.999999908749458 18.660253985160704 2.999999999999966
  endloop
endfacet
facet normal 0.13052620788994873 0.9914448593108293 -1.061329966902589e-15
  outer loop
    vertex -9.999999789265827 20.000000000000004 2.9999999999999556
    vertex -7.411809447198011 19.659258235619546 -1.999999999999984
    vertex -9.999999789265823 19.999999999999996 -2.000000000000036
  endloop
endfacet
facet normal 0.13052620788994873 0.9914448593108293 -1.061329966902589e-15
  outer loop
    vertex -7.411809447198011 19.659258235619546 -1.999999999999984
    vertex -9.999999789265827 20.000000000000004 2.9999999999999556
    vertex -7.411809447198011 19.65925823561955 2.999999999999966
  endloop
endfacet
facet normal 0.38268342263043176 -0.9238795365435141 1.1906466723967952e-15
  outer loop
    vertex -5.000000091250771 1.3397459094720015 2.999999999999966
    vertex -7.41180965075178 0.3407417098382592 -1.999999999999984
    vertex -5.000000091250771 1.3397459094719948 -1.999999999999984
  endloop
endfacet
facet normal 0.38268342263043176 -0.9238795365435141 1.1906466723967952e-15
  outer loop
    vertex -7.41180965075178 0.3407417098382592 -1.999999999999984
    vertex -5.000000091250771 1.3397459094720015 2.999999999999966
    vertex -7.41180965075178 0.34074170983826574 2.999999999999966
  endloop
endfacet
facet normal 0.60876142064938 -0.7933533467055829 1.0172544691757915e-15
  outer loop
    vertex -2.928932262640496 2.9289321136286484 2.999999999999966
    vertex -5.000000091250771 1.3397459094719948 -1.999999999999984
    vertex -2.928932262640496 2.928932113628642 -1.999999999999984
  endloop
endfacet
facet normal 0.60876142064938 -0.7933533467055829 1.0172544691757915e-15
  outer loop
    vertex -5.000000091250771 1.3397459094719948 -1.999999999999984
    vertex -2.928932262640496 2.9289321136286484 2.999999999999966
    vertex -5.000000091250771 1.3397459094720015 2.999999999999966
  endloop
endfacet
facet normal 0.7933533338768873 -0.6087614373680614 7.745380549729527e-16
  outer loop
    vertex -1.3397460148393345 4.999999908749299 -1.999999999999984
    vertex -2.928932262640496 2.9289321136286484 2.999999999999966
    vertex -2.928932262640496 2.928932113628642 -1.999999999999984
  endloop
endfacet
facet normal 0.7933533338768873 -0.6087614373680614 7.745380549729527e-16
  outer loop
    vertex -2.928932262640496 2.9289321136286484 2.999999999999966
    vertex -1.3397460148393345 4.999999908749299 -1.999999999999984
    vertex -1.3397460148393345 4.999999908749305 2.999999999999966
  endloop
endfacet
facet normal 0.13052618699675436 -0.9914448620614705 4.593282893676962e-15
  outer loop
    vertex -7.41180965075178 0.34074170983826574 2.999999999999966
    vertex -10.000000000000068 -1.1059436445955541e-14 -1.9999999999999776
    vertex -7.41180965075178 0.3407417098382592 -1.999999999999984
  endloop
endfacet
facet normal 0.13052618699675436 -0.9914448620614705 4.593282893676962e-15
  outer loop
    vertex -10.000000000000068 -1.1059436445955541e-14 -1.9999999999999776
    vertex -7.41180965075178 0.34074170983826574 2.999999999999966
    vertex -10.000000000000071 2.8199664825478976e-14 3.000000000000023
  endloop
endfacet
facet normal 0.9238795284790593 -0.3826834420997478 4.79038152308362e-16
  outer loop
    vertex -0.3407417643804844 7.411809447197857 -1.999999999999984
    vertex -1.3397460148393345 4.999999908749305 2.999999999999966
    vertex -1.3397460148393345 4.999999908749299 -1.999999999999984
  endloop
endfacet
facet normal 0.9238795284790593 -0.3826834420997478 4.79038152308362e-16
  outer loop
    vertex -1.3397460148393345 4.999999908749305 2.999999999999966
    vertex -0.3407417643804844 7.411809447197857 -1.999999999999984
    vertex -0.3407417643804843 7.4118094471978635 2.999999999999966
  endloop
endfacet
facet normal 0.9914448627491282 0.13052618177347639 -1.6272552740654153e-16
  outer loop
    vertex -0.3407417098384171 12.58819034924825 -1.999999999999984
    vertex -1.3526599195807862e-13 9.999999894632762 2.999999999999966
    vertex -1.3535839116229907e-13 9.999999894632756 -1.999999999999984
  endloop
endfacet
facet normal 0.9914448627491282 0.13052618177347639 -1.6272552740654153e-16
  outer loop
    vertex -1.3526599195807862e-13 9.999999894632762 2.999999999999966
    vertex -0.3407417098384171 12.58819034924825 -1.999999999999984
    vertex -0.340741709838417 12.588190349248256 2.999999999999966
  endloop
endfacet
facet normal 0.9914448599984926 -0.1305262026666266 1.2943756556904066e-16
  outer loop
    vertex -1.3535839116229907e-13 9.999999894632756 -1.999999999999984
    vertex -0.3407417643804843 7.4118094471978635 2.999999999999966
    vertex -0.3407417643804844 7.411809447197857 -1.999999999999984
  endloop
endfacet
facet normal 0.9914448599984926 -0.1305262026666266 1.2943756556904066e-16
  outer loop
    vertex -0.3407417643804843 7.4118094471978635 2.999999999999966
    vertex -1.3535839116229907e-13 9.999999894632756 -1.999999999999984
    vertex -1.3526599195807862e-13 9.999999894632762 2.999999999999966
  endloop
endfacet
endsolid Крепление-тяги-низ
