solid P2-3
facet normal -1.0 0.0 0.0
  outer loop
    vertex -11.0 11.92068766012592 69.99999999999999
    vertex -11.0 -8.158624679748167 -5.0
    vertex -11.0 -8.158624679748167 70.0
  endloop
endfacet
facet normal -1.0 0.0 0.0
  outer loop
    vertex -11.0 -8.158624679748167 -5.0
    vertex -11.0 11.92068766012592 69.99999999999999
    vertex -11.0 11.92068766012592 -5.0
  endloop
endfacet
facet normal 1.0 2.8088277475000237e-16 1.498457008619498e-33
  outer loop
    vertex 31.0 11.92068766012592 -5.0
    vertex 31.000000000000004 -8.158624679748167 70.0
    vertex 31.000000000000004 -8.158624679748167 -5.0
  endloop
endfacet
facet normal 1.0 2.8088277475000237e-16 1.498457008619498e-33
  outer loop
    vertex 31.000000000000004 -8.158624679748167 70.0
    vertex 31.0 11.92068766012592 -5.0
    vertex 31.0 11.92068766012592 69.99999999999999
  endloop
endfacet
facet normal -3.8824064766492627e-17 -1.0 -5.190439713384556e-34
  outer loop
    vertex 28.158624679748172 -11.0 70.0
    vertex -8.15862467974817 -10.999999999999998 -5.0
    vertex 28.158624679748172 -11.0 -5.0
  endloop
endfacet
facet normal -3.8824064766492627e-17 -1.0 -5.190439713384556e-34
  outer loop
    vertex -8.15862467974817 -10.999999999999998 -5.0
    vertex 28.158624679748172 -11.0 70.0
    vertex -8.15862467974817 -10.999999999999998 1.9999999999999998
  endloop
endfacet
facet normal -3.8824064766492627e-17 -1.0 -5.190439713384556e-34
  outer loop
    vertex -8.15862467974817 -10.999999999999998 1.9999999999999998
    vertex 28.158624679748172 -11.0 70.0
    vertex -8.15862467974817 -10.999999999999998 70.0
  endloop
endfacet
facet normal -1.0445243210498083e-17 -1.2086466495191497e-17 -1.0
  outer loop
    vertex -11.0 11.92068766012592 -5.0
    vertex -8.886517601859588 2.381135214943192 -5.000000000000059
    vertex -11.0 -8.158624679748167 -5.0
  endloop
endfacet
facet normal -1.0445243210498083e-17 -1.2086466495191497e-17 -1.0
  outer loop
    vertex -8.886517601859588 2.381135214943192 -5.000000000000059
    vertex -11.0 11.92068766012592 -5.0
    vertex -7.967433714816996 4.6 -5.000000000000059
  endloop
endfacet
facet normal -1.0445243210498083e-17 -1.2086466495191497e-17 -1.0
  outer loop
    vertex -7.967433714816996 4.6 -5.000000000000059
    vertex -11.0 11.92068766012592 -5.0
    vertex -6.505382386916399 6.505382386916237 -5.000000000000059
  endloop
endfacet
facet normal -1.0445243210498083e-17 -1.2086466495191497e-17 -1.0
  outer loop
    vertex -6.505382386916399 6.505382386916237 -5.000000000000059
    vertex -11.0 11.92068766012592 -5.0
    vertex -4.60000000000016 7.967433714816836 -5.000000000000059
  endloop
endfacet
facet normal -1.0445243210498083e-17 -1.2086466495191497e-17 -1.0
  outer loop
    vertex -4.60000000000016 7.967433714816836 -5.000000000000059
    vertex -11.0 11.92068766012592 -5.0
    vertex -2.381135214943353 8.886517601859428 -5.000000000000059
  endloop
endfacet
facet normal -1.0445243210498083e-17 -1.2086466495191497e-17 -1.0
  outer loop
    vertex -2.381135214943353 8.886517601859428 -5.000000000000059
    vertex -11.0 11.92068766012592 -5.0
    vertex -1.6245607777747146e-13 9.2 -5.000000000000059
  endloop
endfacet
facet normal -1.0445243210498083e-17 -1.2086466495191497e-17 -1.0
  outer loop
    vertex -1.6245607777747146e-13 9.2 -5.000000000000059
    vertex -11.0 11.92068766012592 -5.0
    vertex 31.0 11.92068766012592 -5.0
  endloop
endfacet
facet normal -1.0445243210498083e-17 -1.2086466495191497e-17 -1.0
  outer loop
    vertex -11.0 -8.158624679748167 -5.0
    vertex -8.886517601859588 2.381135214943192 -5.000000000000059
    vertex -10.964018965135978 -8.720538061559923 -5.0
  endloop
endfacet
facet normal -1.0445243210498083e-17 -1.2086466495191497e-17 -1.0
  outer loop
    vertex -10.964018965135978 -8.720538061559923 -5.0
    vertex -8.886517601859588 2.381135214943192 -5.000000000000059
    vertex -10.813791334918962 -9.263191673589175 -4.999999999999999
  endloop
endfacet
facet normal -1.0445243210498083e-17 -1.2086466495191497e-17 -1.0
  outer loop
    vertex -10.813791334918962 -9.263191673589175 -4.999999999999999
    vertex -8.886517601859588 2.381135214943192 -5.000000000000059
    vertex -10.55567760285017 -9.763610083368961 -4.999999999999999
  endloop
endfacet
facet normal -1.0445243210498083e-17 -1.2086466495191497e-17 -1.0
  outer loop
    vertex -10.55567760285017 -9.763610083368961 -4.999999999999999
    vertex -8.886517601859588 2.381135214943192 -5.000000000000059
    vertex -9.200000000000161 5.633375276078002e-16 -5.000000000000059
  endloop
endfacet
facet normal -1.0445243210498083e-17 -1.2086466495191497e-17 -1.0
  outer loop
    vertex -10.55567760285017 -9.763610083368961 -4.999999999999999
    vertex -9.200000000000161 5.633375276078002e-16 -5.000000000000059
    vertex -10.200606056309395 -10.200606056309391 -4.999999999999999
  endloop
endfacet
facet normal -1.0445243210498083e-17 -1.2086466495191497e-17 -1.0
  outer loop
    vertex -10.200606056309395 -10.200606056309391 -4.999999999999999
    vertex -9.200000000000161 5.633375276078002e-16 -5.000000000000059
    vertex -9.763610083368963 -10.555677602850166 -4.999999999999999
  endloop
endfacet
facet normal -1.0445243210498083e-17 -1.2086466495191497e-17 -1.0
  outer loop
    vertex -9.763610083368963 -10.555677602850166 -4.999999999999999
    vertex -9.200000000000161 5.633375276078002e-16 -5.000000000000059
    vertex -9.263191673589176 -10.81379133491896 -4.999999999999999
  endloop
endfacet
facet normal -1.0445243210498083e-17 -1.2086466495191497e-17 -1.0
  outer loop
    vertex -1.6245607777747146e-13 9.2 -5.000000000000059
    vertex 31.0 11.92068766012592 -5.0
    vertex 2.3811352149430354 8.886517601859424 -5.000000000000059
  endloop
endfacet
facet normal -1.0445243210498083e-17 -1.2086466495191497e-17 -1.0
  outer loop
    vertex 2.3811352149430354 8.886517601859424 -5.000000000000059
    vertex 31.0 11.92068766012592 -5.0
    vertex 4.5999999999998415 7.967433714816832 -5.000000000000059
  endloop
endfacet
facet normal -1.0445243210498083e-17 -1.2086466495191497e-17 -1.0
  outer loop
    vertex 4.5999999999998415 7.967433714816832 -5.000000000000059
    vertex 31.0 11.92068766012592 -5.0
    vertex 6.505382386916076 6.505382386916234 -5.000000000000059
  endloop
endfacet
facet normal -1.0445243210498083e-17 -1.2086466495191497e-17 -1.0
  outer loop
    vertex 6.505382386916076 6.505382386916234 -5.000000000000059
    vertex 31.0 11.92068766012592 -5.0
    vertex 6.532511492745444 6.470027047856909 -5.000000000000059
  endloop
endfacet
facet normal -1.0445243210498083e-17 -1.2086466495191497e-17 -1.0
  outer loop
    vertex 6.532511492745444 6.470027047856909 -5.000000000000059
    vertex 31.0 11.92068766012592 -5.0
    vertex 17.618864785056786 8.88651760185941 -4.9999999999999964
  endloop
endfacet
facet normal -1.0445243210498083e-17 -1.2086466495191497e-17 -1.0
  outer loop
    vertex 6.532511492745444 6.470027047856909 -5.000000000000059
    vertex 17.618864785056786 8.88651760185941 -4.9999999999999964
    vertex 15.399999999999977 7.967433714816817 -4.9999999999999964
  endloop
endfacet
facet normal -1.0445243210498083e-17 -1.2086466495191497e-17 -1.0
  outer loop
    vertex 6.532511492745444 6.470027047856909 -5.000000000000059
    vertex 15.399999999999977 7.967433714816817 -4.9999999999999964
    vertex 13.494617613083733 6.505382386916213 -4.9999999999999964
  endloop
endfacet
facet normal -1.0445243210498083e-17 -1.2086466495191497e-17 -1.0
  outer loop
    vertex 6.532511492745444 6.470027047856909 -5.000000000000059
    vertex 13.494617613083733 6.505382386916213 -4.9999999999999964
    vertex 13.467488507254371 6.470027047856893 -4.9999999999999964
  endloop
endfacet
facet normal -1.0445243210498083e-17 -1.2086466495191497e-17 -1.0
  outer loop
    vertex 17.618864785056786 8.88651760185941 -4.9999999999999964
    vertex 31.0 11.92068766012592 -5.0
    vertex 19.99999999999998 9.199999999999982 -4.9999999999999964
  endloop
endfacet
facet normal -1.0445243210498083e-17 -1.2086466495191497e-17 -1.0
  outer loop
    vertex 19.99999999999998 9.199999999999982 -4.9999999999999964
    vertex 31.0 11.92068766012592 -5.0
    vertex 22.381135214943168 8.886517601859412 -4.999999999999974
  endloop
endfacet
facet normal -1.0445243210498083e-17 -1.2086466495191497e-17 -1.0
  outer loop
    vertex 22.381135214943168 8.886517601859412 -4.999999999999974
    vertex 31.0 11.92068766012592 -5.0
    vertex 24.599999999999977 7.967433714816818 -4.999999999999974
  endloop
endfacet
facet normal -1.0445243210498083e-17 -1.2086466495191497e-17 -1.0
  outer loop
    vertex 24.599999999999977 7.967433714816818 -4.999999999999974
    vertex 31.0 11.92068766012592 -5.0
    vertex 26.5053823869162 6.505382386916222 -4.999999999999951
  endloop
endfacet
facet normal -1.0445243210498083e-17 -1.2086466495191497e-17 -1.0
  outer loop
    vertex 26.5053823869162 6.505382386916222 -4.999999999999951
    vertex 31.0 11.92068766012592 -5.0
    vertex 27.967433714816796 4.5999999999999766 -4.999999999999951
  endloop
endfacet
facet normal -1.0445243210498083e-17 -1.2086466495191497e-17 -1.0
  outer loop
    vertex 27.967433714816796 4.5999999999999766 -4.999999999999951
    vertex 31.0 11.92068766012592 -5.0
    vertex 28.88651760185939 2.3811352149431686 -4.999999999999951
  endloop
endfacet
facet normal -1.0445243210498083e-17 -1.2086466495191497e-17 -1.0
  outer loop
    vertex 28.88651760185939 2.3811352149431686 -4.999999999999951
    vertex 31.0 11.92068766012592 -5.0
    vertex 29.199999999999964 -2.0494205716775364e-14 -4.999999999999951
  endloop
endfacet
facet normal -1.0445243210498083e-17 -1.2086466495191497e-17 -1.0
  outer loop
    vertex 29.199999999999964 -2.0494205716775364e-14 -4.999999999999951
    vertex 31.0 11.92068766012592 -5.0
    vertex 29.28446323761719 -10.85219507547931 -5.0
  endloop
endfacet
facet normal -1.0445243210498083e-17 -1.2086466495191497e-17 -1.0
  outer loop
    vertex 29.28446323761719 -10.85219507547931 -5.0
    vertex 31.0 11.92068766012592 -5.0
    vertex 29.7967561376672 -10.59967542193466 -5.0
  endloop
endfacet
facet normal -1.0445243210498083e-17 -1.2086466495191497e-17 -1.0
  outer loop
    vertex 29.7967561376672 -10.59967542193466 -5.0
    vertex 31.0 11.92068766012592 -5.0
    vertex 30.24220726956695 -10.242207269566942 -5.0
  endloop
endfacet
facet normal -1.0445243210498083e-17 -1.2086466495191497e-17 -1.0
  outer loop
    vertex 30.24220726956695 -10.242207269566942 -5.0
    vertex 31.0 11.92068766012592 -5.0
    vertex 30.599675421934663 -9.796756137667192 -5.0
  endloop
endfacet
facet normal -1.0445243210498083e-17 -1.2086466495191497e-17 -1.0
  outer loop
    vertex 30.599675421934663 -9.796756137667192 -5.0
    vertex 31.0 11.92068766012592 -5.0
    vertex 30.852195075479315 -9.284463237617185 -5.0
  endloop
endfacet
facet normal -1.0445243210498083e-17 -1.2086466495191497e-17 -1.0
  outer loop
    vertex 30.852195075479315 -9.284463237617185 -5.0
    vertex 31.0 11.92068766012592 -5.0
    vertex 30.987781590379978 -8.729642106219824 -5.0
  endloop
endfacet
facet normal -1.0445243210498083e-17 -1.2086466495191497e-17 -1.0
  outer loop
    vertex 30.987781590379978 -8.729642106219824 -5.0
    vertex 31.0 11.92068766012592 -5.0
    vertex 31.000000000000004 -8.158624679748167 -5.0
  endloop
endfacet
facet normal -1.0445243210498083e-17 -1.2086466495191497e-17 -1.0
  outer loop
    vertex -9.200000000000161 5.633375276078002e-16 -5.000000000000059
    vertex -8.720538061559926 -10.964018965135974 -4.999999999999999
    vertex -9.263191673589176 -10.81379133491896 -4.999999999999999
  endloop
endfacet
facet normal -1.0445243210498083e-17 -1.2086466495191497e-17 -1.0
  outer loop
    vertex -8.720538061559926 -10.964018965135974 -4.999999999999999
    vertex -9.200000000000161 5.633375276078002e-16 -5.000000000000059
    vertex -8.88651760185959 -2.3811352149431895 -5.000000000000059
  endloop
endfacet
facet normal -1.0445243210498083e-17 -1.2086466495191497e-17 -1.0
  outer loop
    vertex -8.720538061559926 -10.964018965135974 -4.999999999999999
    vertex -8.88651760185959 -2.3811352149431895 -5.000000000000059
    vertex -7.967433714816997 -4.599999999999997 -5.000000000000059
  endloop
endfacet
facet normal -1.0445243210498083e-17 -1.2086466495191497e-17 -1.0
  outer loop
    vertex -8.720538061559926 -10.964018965135974 -4.999999999999999
    vertex -7.967433714816997 -4.599999999999997 -5.000000000000059
    vertex -8.15862467974817 -10.999999999999998 -5.0
  endloop
endfacet
facet normal -1.0445243210498083e-17 -1.2086466495191497e-17 -1.0
  outer loop
    vertex -8.15862467974817 -10.999999999999998 -5.0
    vertex -7.967433714816997 -4.599999999999997 -5.000000000000059
    vertex -6.505382386916399 -6.505382386916235 -5.000000000000059
  endloop
endfacet
facet normal -1.0445243210498083e-17 -1.2086466495191497e-17 -1.0
  outer loop
    vertex -8.15862467974817 -10.999999999999998 -5.0
    vertex -6.505382386916399 -6.505382386916235 -5.000000000000059
    vertex -4.600000000000164 -7.967433714816832 -5.000000000000059
  endloop
endfacet
facet normal -1.0445243210498083e-17 -1.2086466495191497e-17 -1.0
  outer loop
    vertex -8.15862467974817 -10.999999999999998 -5.0
    vertex -4.600000000000164 -7.967433714816832 -5.000000000000059
    vertex -2.3811352149433556 -8.886517601859426 -5.000000000000059
  endloop
endfacet
facet normal -1.0445243210498083e-17 -1.2086466495191497e-17 -1.0
  outer loop
    vertex -8.15862467974817 -10.999999999999998 -5.0
    vertex -2.3811352149433556 -8.886517601859426 -5.000000000000059
    vertex -1.6358275283268702e-13 -9.2 -5.000000000000059
  endloop
endfacet
facet normal -1.0445243210498083e-17 -1.2086466495191497e-17 -1.0
  outer loop
    vertex -8.15862467974817 -10.999999999999998 -5.0
    vertex -1.6358275283268702e-13 -9.2 -5.000000000000059
    vertex 28.158624679748172 -11.0 -5.0
  endloop
endfacet
facet normal -1.0445243210498083e-17 -1.2086466495191497e-17 -1.0
  outer loop
    vertex 28.158624679748172 -11.0 -5.0
    vertex -1.6358275283268702e-13 -9.2 -5.000000000000059
    vertex 2.3811352149430247 -8.88651760185943 -5.000000000000059
  endloop
endfacet
facet normal -1.0445243210498083e-17 -1.2086466495191497e-17 -1.0
  outer loop
    vertex 28.158624679748172 -11.0 -5.0
    vertex 2.3811352149430247 -8.88651760185943 -5.000000000000059
    vertex 4.599999999999834 -7.967433714816836 -5.000000000000059
  endloop
endfacet
facet normal -1.0445243210498083e-17 -1.2086466495191497e-17 -1.0
  outer loop
    vertex 28.158624679748172 -11.0 -5.0
    vertex 4.599999999999834 -7.967433714816836 -5.000000000000059
    vertex 17.61886478505679 -8.886517601859449 -4.999999999999974
  endloop
endfacet
facet normal -1.0445243210498083e-17 -1.2086466495191497e-17 -1.0
  outer loop
    vertex 17.61886478505679 -8.886517601859449 -4.999999999999974
    vertex 4.599999999999834 -7.967433714816836 -5.000000000000059
    vertex 6.505382386916071 -6.5053823869162395 -5.000000000000059
  endloop
endfacet
facet normal -1.0445243210498083e-17 -1.2086466495191497e-17 -1.0
  outer loop
    vertex 17.61886478505679 -8.886517601859449 -4.999999999999974
    vertex 6.505382386916071 -6.5053823869162395 -5.000000000000059
    vertex 6.532511492745437 -6.470027047856914 -5.000000000000059
  endloop
endfacet
facet normal -1.0445243210498083e-17 -1.2086466495191497e-17 -1.0
  outer loop
    vertex 17.61886478505679 -8.886517601859449 -4.999999999999974
    vertex 6.532511492745437 -6.470027047856914 -5.000000000000059
    vertex 15.39999999999998 -7.967433714816856 -4.9999999999999964
  endloop
endfacet
facet normal -1.0445243210498083e-17 -1.2086466495191497e-17 -1.0
  outer loop
    vertex 15.39999999999998 -7.967433714816856 -4.9999999999999964
    vertex 6.532511492745437 -6.470027047856914 -5.000000000000059
    vertex 13.494617613083745 -6.505382386916261 -4.9999999999999964
  endloop
endfacet
facet normal -1.0445243210498083e-17 -1.2086466495191497e-17 -1.0
  outer loop
    vertex 13.494617613083745 -6.505382386916261 -4.9999999999999964
    vertex 6.532511492745437 -6.470027047856914 -5.000000000000059
    vertex 13.467488507254371 -6.470027047856928 -4.9999999999999964
  endloop
endfacet
facet normal -1.0445243210498083e-17 -1.2086466495191497e-17 -1.0
  outer loop
    vertex 28.158624679748172 -11.0 -5.0
    vertex 17.61886478505679 -8.886517601859449 -4.999999999999974
    vertex 19.99999999999998 -9.200000000000017 -4.999999999999974
  endloop
endfacet
facet normal -1.0445243210498083e-17 -1.2086466495191497e-17 -1.0
  outer loop
    vertex 28.158624679748172 -11.0 -5.0
    vertex 19.99999999999998 -9.200000000000017 -4.999999999999974
    vertex 22.38113521494317 -8.886517601859445 -4.999999999999974
  endloop
endfacet
facet normal -1.0445243210498083e-17 -1.2086466495191497e-17 -1.0
  outer loop
    vertex 28.158624679748172 -11.0 -5.0
    vertex 22.38113521494317 -8.886517601859445 -4.999999999999974
    vertex 24.599999999999977 -7.9674337148168535 -4.999999999999951
  endloop
endfacet
facet normal -1.0445243210498083e-17 -1.2086466495191497e-17 -1.0
  outer loop
    vertex 28.158624679748172 -11.0 -5.0
    vertex 24.599999999999977 -7.9674337148168535 -4.999999999999951
    vertex 26.5053823869162 -6.505382386916252 -4.999999999999951
  endloop
endfacet
facet normal -1.0445243210498083e-17 -1.2086466495191497e-17 -1.0
  outer loop
    vertex 28.158624679748172 -11.0 -5.0
    vertex 26.5053823869162 -6.505382386916252 -4.999999999999951
    vertex 27.967433714816803 -4.600000000000022 -4.999999999999951
  endloop
endfacet
facet normal -1.0445243210498083e-17 -1.2086466495191497e-17 -1.0
  outer loop
    vertex 28.158624679748172 -11.0 -5.0
    vertex 27.967433714816803 -4.600000000000022 -4.999999999999951
    vertex 28.88651760185939 -2.3811352149432135 -4.999999999999951
  endloop
endfacet
facet normal -1.0445243210498083e-17 -1.2086466495191497e-17 -1.0
  outer loop
    vertex 28.158624679748172 -11.0 -5.0
    vertex 28.88651760185939 -2.3811352149432135 -4.999999999999951
    vertex 28.729642106219828 -10.987781590379972 -5.0
  endloop
endfacet
facet normal -1.0445243210498083e-17 -1.2086466495191497e-17 -1.0
  outer loop
    vertex 28.729642106219828 -10.987781590379972 -5.0
    vertex 28.88651760185939 -2.3811352149432135 -4.999999999999951
    vertex 29.28446323761719 -10.85219507547931 -5.0
  endloop
endfacet
facet normal -1.0445243210498083e-17 -1.2086466495191497e-17 -1.0
  outer loop
    vertex 29.28446323761719 -10.85219507547931 -5.0
    vertex 28.88651760185939 -2.3811352149432135 -4.999999999999951
    vertex 29.199999999999964 -2.0494205716775364e-14 -4.999999999999951
  endloop
endfacet
facet normal 7.116016872347794e-16 1.0 -1.2219854757707478e-16
  outer loop
    vertex 6.532511492745437 -6.470027047856914 70.0
    vertex 13.467488507254371 -6.470027047856928 -4.9999999999999964
    vertex 6.532511492745437 -6.470027047856914 -5.000000000000059
  endloop
endfacet
facet normal 7.116016872347794e-16 1.0 -1.2219854757707478e-16
  outer loop
    vertex 13.467488507254371 -6.470027047856928 -4.9999999999999964
    vertex 6.532511492745437 -6.470027047856914 70.0
    vertex 13.467488507254231 -6.4700270478569095 70.00000000000006
  endloop
endfacet
facet normal -9.149164550161418e-16 -1.0 1.2219854757707458e-16
  outer loop
    vertex 13.467488507254371 6.470027047856893 -4.9999999999999964
    vertex 6.532511492745444 6.470027047856909 70.0
    vertex 6.532511492745444 6.470027047856909 -5.000000000000059
  endloop
endfacet
facet normal -9.149164550161418e-16 -1.0 1.2219854757707458e-16
  outer loop
    vertex 6.532511492745444 6.470027047856909 70.0
    vertex 13.467488507254371 6.470027047856893 -4.9999999999999964
    vertex 13.467488507254231 6.470027047856911 70.00000000000006
  endloop
endfacet
facet normal -0.0 1.0 -0.0
  outer loop
    vertex -11.0 11.92068766012592 69.99999999999999
    vertex 31.0 11.92068766012592 -5.0
    vertex -11.0 11.92068766012592 -5.0
  endloop
endfacet
facet normal -0.0 1.0 -0.0
  outer loop
    vertex 31.0 11.92068766012592 -5.0
    vertex -11.0 11.92068766012592 69.99999999999999
    vertex -2.381135214943353 11.9206876601259 64.99999999999999
  endloop
endfacet
facet normal -0.0 1.0 -0.0
  outer loop
    vertex -2.381135214943353 11.9206876601259 64.99999999999999
    vertex -11.0 11.92068766012592 69.99999999999999
    vertex -2.381135214943353 11.92068766012592 69.99999999999999
  endloop
endfacet
facet normal -0.0 1.0 -0.0
  outer loop
    vertex 2.3811352149430363 11.92068766012592 69.99999999999999
    vertex 17.618864785056655 11.920687660125923 65.00000000000006
    vertex 2.3811352149430363 11.9206876601259 64.99999999999999
  endloop
endfacet
facet normal -0.0 1.0 -0.0
  outer loop
    vertex 17.618864785056655 11.920687660125923 65.00000000000006
    vertex 2.3811352149430363 11.92068766012592 69.99999999999999
    vertex 17.618864785056644 11.92068766012592 70.00000000000006
  endloop
endfacet
facet normal -0.0 1.0 -0.0
  outer loop
    vertex 31.0 11.92068766012592 -5.0
    vertex 22.38113521494304 11.920687660125923 65.00000000000006
    vertex 31.0 11.92068766012592 69.99999999999999
  endloop
endfacet
facet normal -0.0 1.0 -0.0
  outer loop
    vertex 22.38113521494304 11.920687660125923 65.00000000000006
    vertex 31.0 11.92068766012592 -5.0
    vertex 2.3811352149430363 11.9206876601259 64.99999999999999
  endloop
endfacet
facet normal -0.0 1.0 -0.0
  outer loop
    vertex 2.3811352149430363 11.9206876601259 64.99999999999999
    vertex 31.0 11.92068766012592 -5.0
    vertex -2.381135214943353 11.9206876601259 64.99999999999999
  endloop
endfacet
facet normal -0.0 1.0 -0.0
  outer loop
    vertex 22.38113521494304 11.920687660125923 65.00000000000006
    vertex 2.3811352149430363 11.9206876601259 64.99999999999999
    vertex 17.618864785056655 11.920687660125923 65.00000000000006
  endloop
endfacet
facet normal -0.0 1.0 -0.0
  outer loop
    vertex 31.0 11.92068766012592 69.99999999999999
    vertex 22.38113521494304 11.920687660125923 65.00000000000006
    vertex 22.38113521494303 11.92068766012592 70.00000000000006
  endloop
endfacet
facet normal 0.999771149672425 -0.02139271564523694 3.91964958370329e-21
  outer loop
    vertex 31.000000000000004 -8.158624679748167 -5.0
    vertex 30.987781590379978 -8.729642106219824 70.0
    vertex 30.987781590379978 -8.729642106219824 -5.0
  endloop
endfacet
facet normal 0.999771149672425 -0.02139271564523694 3.91964958370329e-21
  outer loop
    vertex 30.987781590379978 -8.729642106219824 70.0
    vertex 31.000000000000004 -8.158624679748167 -5.0
    vertex 31.000000000000004 -8.158624679748167 70.0
  endloop
endfacet
facet normal 0.9714137164380033 -0.23739290536177887 0.0
  outer loop
    vertex 30.987781590379978 -8.729642106219824 -5.0
    vertex 30.852195075479315 -9.284463237617185 70.0
    vertex 30.852195075479315 -9.284463237617185 -5.0
  endloop
endfacet
facet normal 0.9714137164380033 -0.23739290536177887 0.0
  outer loop
    vertex 30.852195075479315 -9.284463237617185 70.0
    vertex 30.987781590379978 -8.729642106219824 -5.0
    vertex 30.987781590379978 -8.729642106219824 70.0
  endloop
endfacet
facet normal 0.8969527687040528 -0.4421263741444681 0.0
  outer loop
    vertex 30.852195075479315 -9.284463237617185 -5.0
    vertex 30.599675421934663 -9.796756137667192 70.0
    vertex 30.599675421934663 -9.796756137667192 -5.0
  endloop
endfacet
facet normal 0.8969527687040528 -0.4421263741444681 0.0
  outer loop
    vertex 30.599675421934663 -9.796756137667192 70.0
    vertex 30.852195075479315 -9.284463237617185 -5.0
    vertex 30.852195075479315 -9.284463237617185 70.0
  endloop
endfacet
facet normal 0.779922239876513 -0.6258764252997576 0.0
  outer loop
    vertex 30.599675421934663 -9.796756137667192 -5.0
    vertex 30.24220726956695 -10.242207269566942 70.0
    vertex 30.24220726956695 -10.242207269566942 -5.0
  endloop
endfacet
facet normal 0.779922239876513 -0.6258764252997576 0.0
  outer loop
    vertex 30.24220726956695 -10.242207269566942 70.0
    vertex 30.599675421934663 -9.796756137667192 -5.0
    vertex 30.599675421934663 -9.796756137667192 70.0
  endloop
endfacet
facet normal 0.6258764252997597 -0.7799222398765114 0.0
  outer loop
    vertex 30.24220726956695 -10.242207269566942 70.0
    vertex 29.7967561376672 -10.59967542193466 -5.0
    vertex 30.24220726956695 -10.242207269566942 -5.0
  endloop
endfacet
facet normal 0.6258764252997597 -0.7799222398765114 0.0
  outer loop
    vertex 29.7967561376672 -10.59967542193466 -5.0
    vertex 30.24220726956695 -10.242207269566942 70.0
    vertex 29.7967561376672 -10.59967542193466 70.0
  endloop
endfacet
facet normal 0.44212637414446515 -0.8969527687040543 0.0
  outer loop
    vertex 29.7967561376672 -10.59967542193466 70.0
    vertex 29.28446323761719 -10.85219507547931 -5.0
    vertex 29.7967561376672 -10.59967542193466 -5.0
  endloop
endfacet
facet normal 0.44212637414446515 -0.8969527687040543 0.0
  outer loop
    vertex 29.28446323761719 -10.85219507547931 -5.0
    vertex 29.7967561376672 -10.59967542193466 70.0
    vertex 29.28446323761719 -10.85219507547931 70.0
  endloop
endfacet
facet normal 0.23739290536177948 -0.9714137164380033 0.0
  outer loop
    vertex 29.28446323761719 -10.85219507547931 70.0
    vertex 28.729642106219828 -10.987781590379972 -5.0
    vertex 29.28446323761719 -10.85219507547931 -5.0
  endloop
endfacet
facet normal 0.23739290536177948 -0.9714137164380033 0.0
  outer loop
    vertex 28.729642106219828 -10.987781590379972 -5.0
    vertex 29.28446323761719 -10.85219507547931 70.0
    vertex 28.729642106219828 -10.987781590379972 70.0
  endloop
endfacet
facet normal 0.021392715645236995 -0.999771149672425 3.9196495837033e-21
  outer loop
    vertex 28.729642106219828 -10.987781590379972 70.0
    vertex 28.158624679748172 -11.0 -5.0
    vertex 28.729642106219828 -10.987781590379972 -5.0
  endloop
endfacet
facet normal 0.021392715645236995 -0.999771149672425 3.9196495837033e-21
  outer loop
    vertex 28.158624679748172 -11.0 -5.0
    vertex 28.729642106219828 -10.987781590379972 70.0
    vertex 28.158624679748172 -11.0 70.0
  endloop
endfacet
facet normal -0.06390218987413931 -0.9979561664368279 3.204182809613777e-16
  outer loop
    vertex -8.15862467974817 -10.999999999999998 1.9999999999999998
    vertex -8.720538061559926 -10.964018965135974 -4.999999999999999
    vertex -8.15862467974817 -10.999999999999998 -5.0
  endloop
endfacet
facet normal -0.06390218987413931 -0.9979561664368279 3.204182809613777e-16
  outer loop
    vertex -8.720538061559926 -10.964018965135974 -4.999999999999999
    vertex -8.15862467974817 -10.999999999999998 1.9999999999999998
    vertex -8.720538061559884 -10.964018965135924 70.0
  endloop
endfacet
facet normal -0.06390218987413931 -0.9979561664368279 3.204182809613777e-16
  outer loop
    vertex -8.720538061559884 -10.964018965135924 70.0
    vertex -8.15862467974817 -10.999999999999998 1.9999999999999998
    vertex -8.15862467974817 -10.999999999999998 70.0
  endloop
endfacet
facet normal -0.266803736655777 -0.9637508838421447 7.952208426077676e-16
  outer loop
    vertex -8.720538061559884 -10.964018965135924 70.0
    vertex -9.263191673589176 -10.81379133491896 -4.999999999999999
    vertex -8.720538061559926 -10.964018965135974 -4.999999999999999
  endloop
endfacet
facet normal -0.266803736655777 -0.9637508838421447 7.952208426077676e-16
  outer loop
    vertex -9.263191673589176 -10.81379133491896 -4.999999999999999
    vertex -8.720538061559884 -10.964018965135924 70.0
    vertex -9.263191673589134 -10.813791334918909 70.0
  endloop
endfacet
facet normal -0.45840906961416494 -0.8887413149479865 8.54267784942858e-16
  outer loop
    vertex -9.263191673589134 -10.813791334918909 70.0
    vertex -9.763610083368963 -10.555677602850166 -4.999999999999999
    vertex -9.263191673589176 -10.81379133491896 -4.999999999999999
  endloop
endfacet
facet normal -0.45840906961416494 -0.8887413149479865 8.54267784942858e-16
  outer loop
    vertex -9.763610083368963 -10.555677602850166 -4.999999999999999
    vertex -9.263191673589134 -10.813791334918909 70.0
    vertex -9.76361008336892 -10.555677602850116 70.0
  endloop
endfacet
facet normal -0.6306058030761315 -0.7761032928204257 8.771458501774071e-16
  outer loop
    vertex -9.76361008336892 -10.555677602850116 70.0
    vertex -10.200606056309395 -10.200606056309391 -4.999999999999999
    vertex -9.763610083368963 -10.555677602850166 -4.999999999999999
  endloop
endfacet
facet normal -0.6306058030761315 -0.7761032928204257 8.771458501774071e-16
  outer loop
    vertex -10.200606056309395 -10.200606056309391 -4.999999999999999
    vertex -9.76361008336892 -10.555677602850116 70.0
    vertex -10.200606056309352 -10.20060605630934 70.0
  endloop
endfacet
facet normal -0.7761032928204247 -0.6306058030761327 8.62886403014205e-16
  outer loop
    vertex -10.200606056309352 -10.20060605630934 70.0
    vertex -10.55567760285017 -9.763610083368961 -4.999999999999999
    vertex -10.200606056309395 -10.200606056309391 -4.999999999999999
  endloop
endfacet
facet normal -0.7761032928204247 -0.6306058030761327 8.62886403014205e-16
  outer loop
    vertex -10.55567760285017 -9.763610083368961 -4.999999999999999
    vertex -10.200606056309352 -10.20060605630934 70.0
    vertex -10.555677602850128 -9.76361008336891 70.0
  endloop
endfacet
facet normal -0.8887413149479874 -0.4584090696141629 8.12093174743436e-16
  outer loop
    vertex -10.555677602850128 -9.76361008336891 70.0
    vertex -10.813791334918962 -9.263191673589175 -4.999999999999999
    vertex -10.55567760285017 -9.763610083368961 -4.999999999999999
  endloop
endfacet
facet normal -0.8887413149479874 -0.4584090696141629 8.12093174743436e-16
  outer loop
    vertex -10.813791334918962 -9.263191673589175 -4.999999999999999
    vertex -10.555677602850128 -9.76361008336891 70.0
    vertex -10.813791334918921 -9.263191673589123 70.0
  endloop
endfacet
facet normal -0.9637508838421447 -0.266803736655777 7.269167018400165e-16
  outer loop
    vertex -10.813791334918921 -9.263191673589123 70.0
    vertex -10.964018965135978 -8.720538061559923 -5.0
    vertex -10.813791334918962 -9.263191673589175 -4.999999999999999
  endloop
endfacet
facet normal -0.9637508838421447 -0.266803736655777 7.269167018400165e-16
  outer loop
    vertex -10.964018965135978 -8.720538061559923 -5.0
    vertex -10.813791334918921 -9.263191673589123 70.0
    vertex -10.964018965135935 -8.720538061559873 70.0
  endloop
endfacet
facet normal -0.9979561664368282 -0.06390218987413546 3.030703131885257e-16
  outer loop
    vertex -10.964018965135935 -8.720538061559873 70.0
    vertex -11.0 -8.158624679748167 -5.0
    vertex -10.964018965135978 -8.720538061559923 -5.0
  endloop
endfacet
facet normal -0.9979561664368282 -0.06390218987413546 3.030703131885257e-16
  outer loop
    vertex -11.0 -8.158624679748167 -5.0
    vertex -10.964018965135935 -8.720538061559873 70.0
    vertex -11.0 -8.158624679748167 70.0
  endloop
endfacet
facet normal -0.7933533402912314 -0.6087614290087259 0.0
  outer loop
    vertex 6.505382386916076 6.505382386916234 70.0
    vertex 6.532511492745444 6.470027047856909 -5.000000000000059
    vertex 6.532511492745444 6.470027047856909 70.0
  endloop
endfacet
facet normal -0.7933533402912314 -0.6087614290087259 0.0
  outer loop
    vertex 6.532511492745444 6.470027047856909 -5.000000000000059
    vertex 6.505382386916076 6.505382386916234 70.0
    vertex 6.505382386916076 6.505382386916234 -5.000000000000059
  endloop
endfacet
facet normal -0.6087614290087212 -0.7933533402912347 -0.0
  outer loop
    vertex 6.505382386916076 6.505382386916234 70.0
    vertex 4.5999999999998415 7.967433714816832 -5.000000000000059
    vertex 6.505382386916076 6.505382386916234 -5.000000000000059
  endloop
endfacet
facet normal -0.6087614290087212 -0.7933533402912347 -0.0
  outer loop
    vertex 4.5999999999998415 7.967433714816832 -5.000000000000059
    vertex 6.505382386916076 6.505382386916234 70.0
    vertex 4.5999999999998415 7.967433714816832 70.0
  endloop
endfacet
facet normal -0.38268343236509 -0.9238795325112867 -0.0
  outer loop
    vertex 4.5999999999998415 7.967433714816832 70.0
    vertex 2.3811352149430354 8.886517601859424 -5.000000000000059
    vertex 4.5999999999998415 7.967433714816832 -5.000000000000059
  endloop
endfacet
facet normal -0.38268343236509 -0.9238795325112867 -0.0
  outer loop
    vertex 2.3811352149430354 8.886517601859424 -5.000000000000059
    vertex 4.5999999999998415 7.967433714816832 70.0
    vertex 2.3811352149430354 8.886517601859405 65.0
  endloop
endfacet
facet normal -0.38268343236509 -0.9238795325112867 -0.0
  outer loop
    vertex 2.3811352149430354 8.886517601859405 65.0
    vertex 4.5999999999998415 7.967433714816832 70.0
    vertex 2.3811352149430354 8.886517601859424 70.0
  endloop
endfacet
facet normal -0.13052619222005218 -0.9914448613738104 -0.0
  outer loop
    vertex 2.3811352149430354 8.886517601859405 65.0
    vertex -1.6245607777747146e-13 9.2 -5.000000000000059
    vertex 2.3811352149430354 8.886517601859424 -5.000000000000059
  endloop
endfacet
facet normal -0.13052619222005218 -0.9914448613738104 -0.0
  outer loop
    vertex -1.6245607777747146e-13 9.2 -5.000000000000059
    vertex 2.3811352149430354 8.886517601859405 65.0
    vertex -1.6245607777747146e-13 9.19999999999998 65.0
  endloop
endfacet
facet normal 0.13052619222005143 -0.9914448613738105 -0.0
  outer loop
    vertex -1.6245607777747146e-13 9.19999999999998 65.0
    vertex -2.381135214943353 8.886517601859428 -5.000000000000059
    vertex -1.6245607777747146e-13 9.2 -5.000000000000059
  endloop
endfacet
facet normal 0.13052619222005143 -0.9914448613738105 -0.0
  outer loop
    vertex -2.381135214943353 8.886517601859428 -5.000000000000059
    vertex -1.6245607777747146e-13 9.19999999999998 65.0
    vertex -2.381135214943353 8.886517601859408 65.0
  endloop
endfacet
facet normal 0.38268343236508984 -0.9238795325112868 -0.0
  outer loop
    vertex -2.381135214943353 8.886517601859408 65.0
    vertex -4.60000000000016 7.967433714816836 -5.000000000000059
    vertex -2.381135214943353 8.886517601859428 -5.000000000000059
  endloop
endfacet
facet normal 0.38268343236508984 -0.9238795325112868 -0.0
  outer loop
    vertex -4.60000000000016 7.967433714816836 -5.000000000000059
    vertex -2.381135214943353 8.886517601859408 65.0
    vertex -4.60000000000016 7.967433714816836 70.0
  endloop
endfacet
facet normal 0.38268343236508984 -0.9238795325112868 -0.0
  outer loop
    vertex -4.60000000000016 7.967433714816836 70.0
    vertex -2.381135214943353 8.886517601859408 65.0
    vertex -2.381135214943353 8.886517601859428 70.0
  endloop
endfacet
facet normal 0.6087614290087204 -0.7933533402912353 -0.0
  outer loop
    vertex -4.60000000000016 7.967433714816836 70.0
    vertex -6.505382386916399 6.505382386916237 -5.000000000000059
    vertex -4.60000000000016 7.967433714816836 -5.000000000000059
  endloop
endfacet
facet normal 0.6087614290087204 -0.7933533402912353 -0.0
  outer loop
    vertex -6.505382386916399 6.505382386916237 -5.000000000000059
    vertex -4.60000000000016 7.967433714816836 70.0
    vertex -6.505382386916399 6.505382386916237 70.0
  endloop
endfacet
facet normal 0.7933533402912354 -0.6087614290087204 -0.0
  outer loop
    vertex -6.505382386916399 6.505382386916237 -5.000000000000059
    vertex -7.967433714816996 4.6 70.0
    vertex -7.967433714816996 4.6 -5.000000000000059
  endloop
endfacet
facet normal 0.7933533402912354 -0.6087614290087204 -0.0
  outer loop
    vertex -7.967433714816996 4.6 70.0
    vertex -6.505382386916399 6.505382386916237 -5.000000000000059
    vertex -6.505382386916399 6.505382386916237 70.0
  endloop
endfacet
facet normal 0.9238795325112868 -0.38268343236508984 -0.0
  outer loop
    vertex -7.967433714816996 4.6 -5.000000000000059
    vertex -8.886517601859588 2.381135214943192 70.0
    vertex -8.886517601859588 2.381135214943192 -5.000000000000059
  endloop
endfacet
facet normal 0.9238795325112868 -0.38268343236508984 -0.0
  outer loop
    vertex -8.886517601859588 2.381135214943192 70.0
    vertex -7.967433714816996 4.6 -5.000000000000059
    vertex -7.967433714816996 4.6 70.0
  endloop
endfacet
facet normal 0.9914448613738105 -0.13052619222005196 -0.0
  outer loop
    vertex -8.886517601859588 2.381135214943192 -5.000000000000059
    vertex -9.200000000000161 5.633375276078002e-16 70.0
    vertex -9.200000000000161 5.633375276078002e-16 -5.000000000000059
  endloop
endfacet
facet normal 0.9914448613738105 -0.13052619222005196 -0.0
  outer loop
    vertex -9.200000000000161 5.633375276078002e-16 70.0
    vertex -8.886517601859588 2.381135214943192 -5.000000000000059
    vertex -8.886517601859588 2.381135214943192 70.0
  endloop
endfacet
facet normal 0.9914448613738106 0.13052619222005146 0.0
  outer loop
    vertex -9.200000000000161 5.633375276078002e-16 -5.000000000000059
    vertex -8.88651760185959 -2.3811352149431895 70.0
    vertex -8.88651760185959 -2.3811352149431895 -5.000000000000059
  endloop
endfacet
facet normal 0.9914448613738106 0.13052619222005146 0.0
  outer loop
    vertex -8.88651760185959 -2.3811352149431895 70.0
    vertex -9.200000000000161 5.633375276078002e-16 -5.000000000000059
    vertex -9.200000000000161 5.633375276078002e-16 70.0
  endloop
endfacet
facet normal 0.9238795325112868 0.38268343236508984 0.0
  outer loop
    vertex -8.88651760185959 -2.3811352149431895 -5.000000000000059
    vertex -7.967433714816997 -4.599999999999997 70.0
    vertex -7.967433714816997 -4.599999999999997 -5.000000000000059
  endloop
endfacet
facet normal 0.9238795325112868 0.38268343236508984 0.0
  outer loop
    vertex -7.967433714816997 -4.599999999999997 70.0
    vertex -8.88651760185959 -2.3811352149431895 -5.000000000000059
    vertex -8.88651760185959 -2.3811352149431895 70.0
  endloop
endfacet
facet normal 0.7933533402912353 0.6087614290087204 0.0
  outer loop
    vertex -7.967433714816997 -4.599999999999997 -5.000000000000059
    vertex -6.505382386916399 -6.505382386916235 70.0
    vertex -6.505382386916399 -6.505382386916235 -5.000000000000059
  endloop
endfacet
facet normal 0.7933533402912353 0.6087614290087204 0.0
  outer loop
    vertex -6.505382386916399 -6.505382386916235 70.0
    vertex -7.967433714816997 -4.599999999999997 -5.000000000000059
    vertex -7.967433714816997 -4.599999999999997 70.0
  endloop
endfacet
facet normal 0.6087614290087208 0.793353340291235 0.0
  outer loop
    vertex -6.505382386916399 -6.505382386916235 70.0
    vertex -4.600000000000164 -7.967433714816832 -5.000000000000059
    vertex -6.505382386916399 -6.505382386916235 -5.000000000000059
  endloop
endfacet
facet normal 0.6087614290087208 0.793353340291235 0.0
  outer loop
    vertex -4.600000000000164 -7.967433714816832 -5.000000000000059
    vertex -6.505382386916399 -6.505382386916235 70.0
    vertex -4.600000000000164 -7.967433714816832 70.0
  endloop
endfacet
facet normal 0.3826834323650901 0.9238795325112866 0.0
  outer loop
    vertex -4.600000000000164 -7.967433714816832 70.0
    vertex -2.3811352149433556 -8.886517601859426 -5.000000000000059
    vertex -4.600000000000164 -7.967433714816832 -5.000000000000059
  endloop
endfacet
facet normal 0.3826834323650901 0.9238795325112866 0.0
  outer loop
    vertex -2.3811352149433556 -8.886517601859426 -5.000000000000059
    vertex -4.600000000000164 -7.967433714816832 70.0
    vertex -2.3811352149433556 -8.886517601859426 70.0
  endloop
endfacet
facet normal 0.13052619222005193 0.9914448613738105 0.0
  outer loop
    vertex -2.3811352149433556 -8.886517601859426 70.0
    vertex -1.6358275283268702e-13 -9.2 -5.000000000000059
    vertex -2.3811352149433556 -8.886517601859426 -5.000000000000059
  endloop
endfacet
facet normal 0.13052619222005193 0.9914448613738105 0.0
  outer loop
    vertex -1.6358275283268702e-13 -9.2 -5.000000000000059
    vertex -2.3811352149433556 -8.886517601859426 70.0
    vertex -1.6358275283268702e-13 -9.2 70.0
  endloop
endfacet
facet normal -0.13052619222005096 0.9914448613738105 -0.0
  outer loop
    vertex -1.6358275283268702e-13 -9.2 70.0
    vertex 2.3811352149430247 -8.88651760185943 -5.000000000000059
    vertex -1.6358275283268702e-13 -9.2 -5.000000000000059
  endloop
endfacet
facet normal -0.13052619222005096 0.9914448613738105 -0.0
  outer loop
    vertex 2.3811352149430247 -8.88651760185943 -5.000000000000059
    vertex -1.6358275283268702e-13 -9.2 70.0
    vertex 2.3811352149430247 -8.88651760185943 70.0
  endloop
endfacet
facet normal -0.38268343236509 0.9238795325112868 -0.0
  outer loop
    vertex 2.3811352149430247 -8.88651760185943 70.0
    vertex 4.599999999999834 -7.967433714816836 -5.000000000000059
    vertex 2.3811352149430247 -8.88651760185943 -5.000000000000059
  endloop
endfacet
facet normal -0.38268343236509 0.9238795325112868 -0.0
  outer loop
    vertex 4.599999999999834 -7.967433714816836 -5.000000000000059
    vertex 2.3811352149430247 -8.88651760185943 70.0
    vertex 4.599999999999834 -7.967433714816836 70.0
  endloop
endfacet
facet normal -0.6087614290087202 0.7933533402912357 -0.0
  outer loop
    vertex 4.599999999999834 -7.967433714816836 70.0
    vertex 6.505382386916071 -6.5053823869162395 -5.000000000000059
    vertex 4.599999999999834 -7.967433714816836 -5.000000000000059
  endloop
endfacet
facet normal -0.6087614290087202 0.7933533402912357 -0.0
  outer loop
    vertex 6.505382386916071 -6.5053823869162395 -5.000000000000059
    vertex 4.599999999999834 -7.967433714816836 70.0
    vertex 6.505382386916071 -6.5053823869162395 70.0
  endloop
endfacet
facet normal -0.7933533402912466 0.6087614290087059 0.0
  outer loop
    vertex 6.532511492745437 -6.470027047856914 70.0
    vertex 6.505382386916071 -6.5053823869162395 -5.000000000000059
    vertex 6.505382386916071 -6.5053823869162395 70.0
  endloop
endfacet
facet normal -0.7933533402912466 0.6087614290087059 0.0
  outer loop
    vertex 6.505382386916071 -6.5053823869162395 -5.000000000000059
    vertex 6.532511492745437 -6.470027047856914 70.0
    vertex 6.532511492745437 -6.470027047856914 -5.000000000000059
  endloop
endfacet
facet normal 0.7933533402912287 0.608761429008729 1.3427071512237128e-15
  outer loop
    vertex 13.467488507254371 -6.470027047856928 -4.9999999999999964
    vertex 13.494617613083603 -6.505382386916242 70.00000000000004
    vertex 13.494617613083745 -6.505382386916261 -4.9999999999999964
  endloop
endfacet
facet normal 0.7933533402912287 0.608761429008729 1.3427071512237128e-15
  outer loop
    vertex 13.494617613083603 -6.505382386916242 70.00000000000004
    vertex 13.467488507254371 -6.470027047856928 -4.9999999999999964
    vertex 13.467488507254231 -6.4700270478569095 70.00000000000006
  endloop
endfacet
facet normal 0.6087614290087203 0.7933533402912354 8.346676681121605e-16
  outer loop
    vertex 13.494617613083603 -6.505382386916242 70.00000000000004
    vertex 15.39999999999998 -7.967433714816856 -4.9999999999999964
    vertex 13.494617613083745 -6.505382386916261 -4.9999999999999964
  endloop
endfacet
facet normal 0.6087614290087203 0.7933533402912354 8.346676681121605e-16
  outer loop
    vertex 15.39999999999998 -7.967433714816856 -4.9999999999999964
    vertex 13.494617613083603 -6.505382386916242 70.00000000000004
    vertex 15.399999999999839 -7.967433714816838 70.00000000000006
  endloop
endfacet
facet normal 0.3826834323650894 0.9238795325112871 3.8853522840395046e-16
  outer loop
    vertex 15.399999999999839 -7.967433714816838 70.00000000000006
    vertex 17.61886478505679 -8.886517601859449 -4.999999999999974
    vertex 15.39999999999998 -7.967433714816856 -4.9999999999999964
  endloop
endfacet
facet normal 0.3826834323650894 0.9238795325112871 3.8853522840395046e-16
  outer loop
    vertex 17.61886478505679 -8.886517601859449 -4.999999999999974
    vertex 15.399999999999839 -7.967433714816838 70.00000000000006
    vertex 17.61886478505665 -8.88651760185943 70.00000000000006
  endloop
endfacet
facet normal 0.13052619222005035 0.9914448613738106 -8.407524503516632e-17
  outer loop
    vertex 17.61886478505665 -8.88651760185943 70.00000000000006
    vertex 19.99999999999998 -9.200000000000017 -4.999999999999974
    vertex 17.61886478505679 -8.886517601859449 -4.999999999999974
  endloop
endfacet
facet normal 0.13052619222005035 0.9914448613738106 -8.407524503516632e-17
  outer loop
    vertex 19.99999999999998 -9.200000000000017 -4.999999999999974
    vertex 17.61886478505665 -8.88651760185943 70.00000000000006
    vertex 19.99999999999984 -9.2 70.00000000000007
  endloop
endfacet
facet normal -0.13052619222005135 0.9914448613738105 -5.509561294660443e-16
  outer loop
    vertex 19.99999999999984 -9.2 70.00000000000007
    vertex 22.38113521494317 -8.886517601859445 -4.999999999999974
    vertex 19.99999999999998 -9.200000000000017 -4.999999999999974
  endloop
endfacet
facet normal -0.13052619222005135 0.9914448613738105 -5.509561294660443e-16
  outer loop
    vertex 22.38113521494317 -8.886517601859445 -4.999999999999974
    vertex 19.99999999999984 -9.2 70.00000000000007
    vertex 22.381135214943033 -8.886517601859428 70.00000000000007
  endloop
endfacet
facet normal -0.3826834323650902 0.9238795325112867 -9.802902641718688e-16
  outer loop
    vertex 22.381135214943033 -8.886517601859428 70.00000000000007
    vertex 24.599999999999977 -7.9674337148168535 -4.999999999999951
    vertex 22.38113521494317 -8.886517601859445 -4.999999999999974
  endloop
endfacet
facet normal -0.3826834323650902 0.9238795325112867 -9.802902641718688e-16
  outer loop
    vertex 24.599999999999977 -7.9674337148168535 -4.999999999999951
    vertex 22.381135214943033 -8.886517601859428 70.00000000000007
    vertex 24.599999999999838 -7.967433714816836 70.00000000000009
  endloop
endfacet
facet normal -0.6087614290087212 0.7933533402912347 -1.342819237380638e-15
  outer loop
    vertex 24.599999999999838 -7.967433714816836 70.00000000000009
    vertex 26.5053823869162 -6.505382386916252 -4.999999999999951
    vertex 24.599999999999977 -7.9674337148168535 -4.999999999999951
  endloop
endfacet
facet normal -0.6087614290087212 0.7933533402912347 -1.342819237380638e-15
  outer loop
    vertex 26.5053823869162 -6.505382386916252 -4.999999999999951
    vertex 24.599999999999838 -7.967433714816836 70.00000000000009
    vertex 26.505382386916075 -6.505382386916234 70.00000000000009
  endloop
endfacet
facet normal -0.7933533402912343 0.608761429008722 -1.613837298675627e-15
  outer loop
    vertex 26.505382386916075 -6.505382386916234 70.00000000000009
    vertex 27.967433714816803 -4.600000000000022 -4.999999999999951
    vertex 26.5053823869162 -6.505382386916252 -4.999999999999951
  endloop
endfacet
facet normal -0.7933533402912343 0.608761429008722 -1.613837298675627e-15
  outer loop
    vertex 27.967433714816803 -4.600000000000022 -4.999999999999951
    vertex 26.505382386916075 -6.505382386916234 70.00000000000009
    vertex 27.96743371481668 -4.599999999999997 70.0000000000001
  endloop
endfacet
facet normal -0.9238795325112876 0.3826834323650877 -1.7748750150581121e-15
  outer loop
    vertex 27.96743371481668 -4.599999999999997 70.0000000000001
    vertex 28.88651760185939 -2.3811352149432135 -4.999999999999951
    vertex 27.967433714816803 -4.600000000000022 -4.999999999999951
  endloop
endfacet
facet normal -0.9238795325112876 0.3826834323650877 -1.7748750150581121e-15
  outer loop
    vertex 28.88651760185939 -2.3811352149432135 -4.999999999999951
    vertex 27.96743371481668 -4.599999999999997 70.0000000000001
    vertex 28.886517601859264 -2.381135214943189 70.0000000000001
  endloop
endfacet
facet normal -0.9914448613738103 0.13052619222005304 -1.8149579322840294e-15
  outer loop
    vertex 28.886517601859264 -2.381135214943189 70.0000000000001
    vertex 29.199999999999964 -2.0494205716775364e-14 -4.999999999999951
    vertex 28.88651760185939 -2.3811352149432135 -4.999999999999951
  endloop
endfacet
facet normal -0.9914448613738103 0.13052619222005304 -1.8149579322840294e-15
  outer loop
    vertex 29.199999999999964 -2.0494205716775364e-14 -4.999999999999951
    vertex 28.886517601859264 -2.381135214943189 70.0000000000001
    vertex 29.19999999999984 3.52495810318489e-15 70.0000000000001
  endloop
endfacet
facet normal -0.9914448613738103 -0.1305261922200532 -1.7313544657845877e-15
  outer loop
    vertex 29.19999999999984 3.52495810318489e-15 70.0000000000001
    vertex 28.88651760185939 2.3811352149431686 -4.999999999999951
    vertex 29.199999999999964 -2.0494205716775364e-14 -4.999999999999951
  endloop
endfacet
facet normal -0.9914448613738103 -0.1305261922200532 -1.7313544657845877e-15
  outer loop
    vertex 28.88651760185939 2.3811352149431686 -4.999999999999951
    vertex 29.19999999999984 3.52495810318489e-15 70.0000000000001
    vertex 28.886517601859264 2.381135214943193 70.0000000000001
  endloop
endfacet
facet normal -0.9238795325112868 -0.38268343236508967 -1.5297620536404644e-15
  outer loop
    vertex 28.886517601859264 2.381135214943193 70.0000000000001
    vertex 27.967433714816796 4.5999999999999766 -4.999999999999951
    vertex 28.88651760185939 2.3811352149431686 -4.999999999999951
  endloop
endfacet
facet normal -0.9238795325112868 -0.38268343236508967 -1.5297620536404644e-15
  outer loop
    vertex 27.967433714816796 4.5999999999999766 -4.999999999999951
    vertex 28.886517601859264 2.381135214943193 70.0000000000001
    vertex 27.96743371481667 4.600000000000001 70.00000000000009
  endloop
endfacet
facet normal -0.7933533402912357 -0.6087614290087202 -1.2239188855920677e-15
  outer loop
    vertex 27.96743371481667 4.600000000000001 70.00000000000009
    vertex 26.5053823869162 6.505382386916222 -4.999999999999951
    vertex 27.967433714816796 4.5999999999999766 -4.999999999999951
  endloop
endfacet
facet normal -0.7933533402912357 -0.6087614290087202 -1.2239188855920677e-15
  outer loop
    vertex 26.5053823869162 6.505382386916222 -4.999999999999951
    vertex 27.96743371481667 4.600000000000001 70.00000000000009
    vertex 26.505382386916075 6.5053823869162395 70.00000000000009
  endloop
endfacet
facet normal -0.6087614290087202 -0.7933533402912357 -8.346676681121602e-16
  outer loop
    vertex 26.5053823869162 6.505382386916222 -4.999999999999951
    vertex 24.599999999999838 7.967433714816837 70.00000000000007
    vertex 24.599999999999977 7.967433714816818 -4.999999999999974
  endloop
endfacet
facet normal -0.6087614290087202 -0.7933533402912357 -8.346676681121602e-16
  outer loop
    vertex 24.599999999999838 7.967433714816837 70.00000000000007
    vertex 26.5053823869162 6.505382386916222 -4.999999999999951
    vertex 26.505382386916075 6.5053823869162395 70.00000000000009
  endloop
endfacet
facet normal -0.3826834323650902 -0.9238795325112866 -3.885352284039521e-16
  outer loop
    vertex 24.599999999999838 7.967433714816837 70.00000000000007
    vertex 22.381135214943168 8.886517601859412 -4.999999999999974
    vertex 24.599999999999977 7.967433714816818 -4.999999999999974
  endloop
endfacet
facet normal -0.3826834323650902 -0.9238795325112866 -3.885352284039521e-16
  outer loop
    vertex 22.381135214943168 8.886517601859412 -4.999999999999974
    vertex 24.599999999999838 7.967433714816837 70.00000000000007
    vertex 22.38113521494304 8.886517601859433 65.00000000000006
  endloop
endfacet
facet normal -0.3826834323650902 -0.9238795325112866 -3.885352284039521e-16
  outer loop
    vertex 22.38113521494304 8.886517601859433 65.00000000000006
    vertex 24.599999999999838 7.967433714816837 70.00000000000007
    vertex 22.38113521494303 8.88651760185943 70.00000000000006
  endloop
endfacet
facet normal -0.13052619222005077 -0.9914448613738106 8.407524503516557e-17
  outer loop
    vertex 22.381135214943168 8.886517601859412 -4.999999999999974
    vertex 19.999999999999847 9.200000000000003 65.00000000000006
    vertex 19.99999999999998 9.199999999999982 -4.9999999999999964
  endloop
endfacet
facet normal -0.13052619222005077 -0.9914448613738106 8.407524503516557e-17
  outer loop
    vertex 19.999999999999847 9.200000000000003 65.00000000000006
    vertex 22.381135214943168 8.886517601859412 -4.999999999999974
    vertex 22.38113521494304 8.886517601859433 65.00000000000006
  endloop
endfacet
facet normal 0.13052619222005135 -0.9914448613738105 5.509561294660443e-16
  outer loop
    vertex 19.999999999999847 9.200000000000003 65.00000000000006
    vertex 17.618864785056786 8.88651760185941 -4.9999999999999964
    vertex 19.99999999999998 9.199999999999982 -4.9999999999999964
  endloop
endfacet
facet normal 0.13052619222005135 -0.9914448613738105 5.509561294660443e-16
  outer loop
    vertex 17.618864785056786 8.88651760185941 -4.9999999999999964
    vertex 19.999999999999847 9.200000000000003 65.00000000000006
    vertex 17.618864785056655 8.886517601859431 65.00000000000006
  endloop
endfacet
facet normal 0.3826834323650902 -0.9238795325112866 9.80290264171869e-16
  outer loop
    vertex 17.618864785056655 8.886517601859431 65.00000000000006
    vertex 15.399999999999977 7.967433714816817 -4.9999999999999964
    vertex 17.618864785056786 8.88651760185941 -4.9999999999999964
  endloop
endfacet
facet normal 0.3826834323650902 -0.9238795325112866 9.80290264171869e-16
  outer loop
    vertex 15.399999999999977 7.967433714816817 -4.9999999999999964
    vertex 17.618864785056655 8.886517601859431 65.00000000000006
    vertex 15.399999999999837 7.967433714816836 70.00000000000004
  endloop
endfacet
facet normal 0.3826834323650902 -0.9238795325112866 9.80290264171869e-16
  outer loop
    vertex 15.399999999999837 7.967433714816836 70.00000000000004
    vertex 17.618864785056655 8.886517601859431 65.00000000000006
    vertex 17.618864785056644 8.88651760185943 70.00000000000006
  endloop
endfacet
facet normal 0.6087614290087209 -0.793353340291235 1.3428192373806374e-15
  outer loop
    vertex 15.399999999999837 7.967433714816836 70.00000000000004
    vertex 13.494617613083733 6.505382386916213 -4.9999999999999964
    vertex 15.399999999999977 7.967433714816817 -4.9999999999999964
  endloop
endfacet
facet normal 0.6087614290087209 -0.793353340291235 1.3428192373806374e-15
  outer loop
    vertex 13.494617613083733 6.505382386916213 -4.9999999999999964
    vertex 15.399999999999837 7.967433714816836 70.00000000000004
    vertex 13.494617613083593 6.5053823869162315 70.00000000000004
  endloop
endfacet
facet normal 0.7933533402912455 -0.6087614290087071 1.6402731154400333e-15
  outer loop
    vertex 13.494617613083733 6.505382386916213 -4.9999999999999964
    vertex 13.467488507254231 6.470027047856911 70.00000000000006
    vertex 13.467488507254371 6.470027047856893 -4.9999999999999964
  endloop
endfacet
facet normal 0.7933533402912455 -0.6087614290087071 1.6402731154400333e-15
  outer loop
    vertex 13.467488507254231 6.470027047856911 70.00000000000006
    vertex 13.494617613083733 6.505382386916213 -4.9999999999999964
    vertex 13.494617613083593 6.5053823869162315 70.00000000000004
  endloop
endfacet
facet normal -4.549594776265495e-15 3.7657836848197523e-16 1.0
  outer loop
    vertex 4.5999999999998415 7.967433714816832 70.0
    vertex 2.3811352149430363 11.92068766012592 69.99999999999999
    vertex 2.3811352149430354 8.886517601859424 70.0
  endloop
endfacet
facet normal -4.549594776265495e-15 3.7657836848197523e-16 1.0
  outer loop
    vertex 2.3811352149430363 11.92068766012592 69.99999999999999
    vertex 4.5999999999998415 7.967433714816832 70.0
    vertex 17.618864785056644 11.92068766012592 70.00000000000006
  endloop
endfacet
facet normal -4.549594776265495e-15 3.7657836848197523e-16 1.0
  outer loop
    vertex 17.618864785056644 11.92068766012592 70.00000000000006
    vertex 4.5999999999998415 7.967433714816832 70.0
    vertex 6.505382386916076 6.505382386916234 70.0
  endloop
endfacet
facet normal -4.549594776265495e-15 3.7657836848197523e-16 1.0
  outer loop
    vertex 17.618864785056644 11.92068766012592 70.00000000000006
    vertex 6.505382386916076 6.505382386916234 70.0
    vertex 6.532511492745444 6.470027047856909 70.0
  endloop
endfacet
facet normal -4.549594776265495e-15 3.7657836848197523e-16 1.0
  outer loop
    vertex 17.618864785056644 11.92068766012592 70.00000000000006
    vertex 6.532511492745444 6.470027047856909 70.0
    vertex 13.467488507254231 6.470027047856911 70.00000000000006
  endloop
endfacet
facet normal -4.549594776265495e-15 3.7657836848197523e-16 1.0
  outer loop
    vertex 17.618864785056644 11.92068766012592 70.00000000000006
    vertex 13.467488507254231 6.470027047856911 70.00000000000006
    vertex 13.494617613083593 6.5053823869162315 70.00000000000004
  endloop
endfacet
facet normal -4.549594776265495e-15 3.7657836848197523e-16 1.0
  outer loop
    vertex 17.618864785056644 11.92068766012592 70.00000000000006
    vertex 13.494617613083593 6.5053823869162315 70.00000000000004
    vertex 15.399999999999837 7.967433714816836 70.00000000000004
  endloop
endfacet
facet normal -4.549594776265495e-15 3.7657836848197523e-16 1.0
  outer loop
    vertex 17.618864785056644 11.92068766012592 70.00000000000006
    vertex 15.399999999999837 7.967433714816836 70.00000000000004
    vertex 17.618864785056644 8.88651760185943 70.00000000000006
  endloop
endfacet
facet normal -1.419829530783525e-15 -7.962462201936772e-16 1.0
  outer loop
    vertex -8.720538061559884 -10.964018965135924 70.0
    vertex -9.200000000000161 5.633375276078002e-16 70.0
    vertex -9.263191673589134 -10.813791334918909 70.0
  endloop
endfacet
facet normal -1.419829530783525e-15 -7.962462201936772e-16 1.0
  outer loop
    vertex -9.200000000000161 5.633375276078002e-16 70.0
    vertex -8.720538061559884 -10.964018965135924 70.0
    vertex -8.88651760185959 -2.3811352149431895 70.0
  endloop
endfacet
facet normal -1.419829530783525e-15 -7.962462201936772e-16 1.0
  outer loop
    vertex -8.88651760185959 -2.3811352149431895 70.0
    vertex -8.720538061559884 -10.964018965135924 70.0
    vertex -7.967433714816997 -4.599999999999997 70.0
  endloop
endfacet
facet normal -1.419829530783525e-15 -7.962462201936772e-16 1.0
  outer loop
    vertex -7.967433714816997 -4.599999999999997 70.0
    vertex -8.720538061559884 -10.964018965135924 70.0
    vertex -8.15862467974817 -10.999999999999998 70.0
  endloop
endfacet
facet normal -1.419829530783525e-15 -7.962462201936772e-16 1.0
  outer loop
    vertex -7.967433714816997 -4.599999999999997 70.0
    vertex -8.15862467974817 -10.999999999999998 70.0
    vertex -6.505382386916399 -6.505382386916235 70.0
  endloop
endfacet
facet normal -1.419829530783525e-15 -7.962462201936772e-16 1.0
  outer loop
    vertex -6.505382386916399 -6.505382386916235 70.0
    vertex -8.15862467974817 -10.999999999999998 70.0
    vertex -4.600000000000164 -7.967433714816832 70.0
  endloop
endfacet
facet normal -1.419829530783525e-15 -7.962462201936772e-16 1.0
  outer loop
    vertex -4.600000000000164 -7.967433714816832 70.0
    vertex -8.15862467974817 -10.999999999999998 70.0
    vertex -2.3811352149433556 -8.886517601859426 70.0
  endloop
endfacet
facet normal -1.419829530783525e-15 -7.962462201936772e-16 1.0
  outer loop
    vertex -2.3811352149433556 -8.886517601859426 70.0
    vertex -8.15862467974817 -10.999999999999998 70.0
    vertex -1.6358275283268702e-13 -9.2 70.0
  endloop
endfacet
facet normal -1.419829530783525e-15 -7.962462201936772e-16 1.0
  outer loop
    vertex -1.6358275283268702e-13 -9.2 70.0
    vertex -8.15862467974817 -10.999999999999998 70.0
    vertex 28.158624679748172 -11.0 70.0
  endloop
endfacet
facet normal -1.419829530783525e-15 -7.962462201936772e-16 1.0
  outer loop
    vertex -1.6358275283268702e-13 -9.2 70.0
    vertex 28.158624679748172 -11.0 70.0
    vertex 2.3811352149430247 -8.88651760185943 70.0
  endloop
endfacet
facet normal -1.419829530783525e-15 -7.962462201936772e-16 1.0
  outer loop
    vertex 2.3811352149430247 -8.88651760185943 70.0
    vertex 28.158624679748172 -11.0 70.0
    vertex 4.599999999999834 -7.967433714816836 70.0
  endloop
endfacet
facet normal -1.419829530783525e-15 -7.962462201936772e-16 1.0
  outer loop
    vertex 4.599999999999834 -7.967433714816836 70.0
    vertex 28.158624679748172 -11.0 70.0
    vertex 17.61886478505665 -8.88651760185943 70.00000000000006
  endloop
endfacet
facet normal -1.419829530783525e-15 -7.962462201936772e-16 1.0
  outer loop
    vertex 4.599999999999834 -7.967433714816836 70.0
    vertex 17.61886478505665 -8.88651760185943 70.00000000000006
    vertex 6.505382386916071 -6.5053823869162395 70.0
  endloop
endfacet
facet normal -1.419829530783525e-15 -7.962462201936772e-16 1.0
  outer loop
    vertex 6.505382386916071 -6.5053823869162395 70.0
    vertex 17.61886478505665 -8.88651760185943 70.00000000000006
    vertex 6.532511492745437 -6.470027047856914 70.0
  endloop
endfacet
facet normal -1.419829530783525e-15 -7.962462201936772e-16 1.0
  outer loop
    vertex 6.532511492745437 -6.470027047856914 70.0
    vertex 17.61886478505665 -8.88651760185943 70.00000000000006
    vertex 15.399999999999839 -7.967433714816838 70.00000000000006
  endloop
endfacet
facet normal -1.419829530783525e-15 -7.962462201936772e-16 1.0
  outer loop
    vertex 6.532511492745437 -6.470027047856914 70.0
    vertex 15.399999999999839 -7.967433714816838 70.00000000000006
    vertex 13.494617613083603 -6.505382386916242 70.00000000000004
  endloop
endfacet
facet normal -1.419829530783525e-15 -7.962462201936772e-16 1.0
  outer loop
    vertex 6.532511492745437 -6.470027047856914 70.0
    vertex 13.494617613083603 -6.505382386916242 70.00000000000004
    vertex 13.467488507254231 -6.4700270478569095 70.00000000000006
  endloop
endfacet
facet normal -1.419829530783525e-15 -7.962462201936772e-16 1.0
  outer loop
    vertex 17.61886478505665 -8.88651760185943 70.00000000000006
    vertex 28.158624679748172 -11.0 70.0
    vertex 19.99999999999984 -9.2 70.00000000000007
  endloop
endfacet
facet normal -1.419829530783525e-15 -7.962462201936772e-16 1.0
  outer loop
    vertex 19.99999999999984 -9.2 70.00000000000007
    vertex 28.158624679748172 -11.0 70.0
    vertex 22.381135214943033 -8.886517601859428 70.00000000000007
  endloop
endfacet
facet normal -1.419829530783525e-15 -7.962462201936772e-16 1.0
  outer loop
    vertex 22.381135214943033 -8.886517601859428 70.00000000000007
    vertex 28.158624679748172 -11.0 70.0
    vertex 24.599999999999838 -7.967433714816836 70.00000000000009
  endloop
endfacet
facet normal -1.419829530783525e-15 -7.962462201936772e-16 1.0
  outer loop
    vertex 24.599999999999838 -7.967433714816836 70.00000000000009
    vertex 28.158624679748172 -11.0 70.0
    vertex 26.505382386916075 -6.505382386916234 70.00000000000009
  endloop
endfacet
facet normal -1.419829530783525e-15 -7.962462201936772e-16 1.0
  outer loop
    vertex 26.505382386916075 -6.505382386916234 70.00000000000009
    vertex 28.158624679748172 -11.0 70.0
    vertex 27.96743371481668 -4.599999999999997 70.0000000000001
  endloop
endfacet
facet normal -1.419829530783525e-15 -7.962462201936772e-16 1.0
  outer loop
    vertex 27.96743371481668 -4.599999999999997 70.0000000000001
    vertex 28.158624679748172 -11.0 70.0
    vertex 28.886517601859264 -2.381135214943189 70.0000000000001
  endloop
endfacet
facet normal -1.419829530783525e-15 -7.962462201936772e-16 1.0
  outer loop
    vertex 28.886517601859264 -2.381135214943189 70.0000000000001
    vertex 28.158624679748172 -11.0 70.0
    vertex 28.729642106219828 -10.987781590379972 70.0
  endloop
endfacet
facet normal -1.419829530783525e-15 -7.962462201936772e-16 1.0
  outer loop
    vertex 28.886517601859264 -2.381135214943189 70.0000000000001
    vertex 28.729642106219828 -10.987781590379972 70.0
    vertex 29.28446323761719 -10.85219507547931 70.0
  endloop
endfacet
facet normal -1.419829530783525e-15 -7.962462201936772e-16 1.0
  outer loop
    vertex 28.886517601859264 -2.381135214943189 70.0000000000001
    vertex 29.28446323761719 -10.85219507547931 70.0
    vertex 29.19999999999984 3.52495810318489e-15 70.0000000000001
  endloop
endfacet
facet normal -1.419829530783525e-15 -7.962462201936772e-16 1.0
  outer loop
    vertex 24.599999999999838 7.967433714816837 70.00000000000007
    vertex 22.38113521494303 11.92068766012592 70.00000000000006
    vertex 22.38113521494303 8.88651760185943 70.00000000000006
  endloop
endfacet
facet normal -1.419829530783525e-15 -7.962462201936772e-16 1.0
  outer loop
    vertex 22.38113521494303 11.92068766012592 70.00000000000006
    vertex 24.599999999999838 7.967433714816837 70.00000000000007
    vertex 31.0 11.92068766012592 69.99999999999999
  endloop
endfacet
facet normal -1.419829530783525e-15 -7.962462201936772e-16 1.0
  outer loop
    vertex 31.0 11.92068766012592 69.99999999999999
    vertex 24.599999999999838 7.967433714816837 70.00000000000007
    vertex 26.505382386916075 6.5053823869162395 70.00000000000009
  endloop
endfacet
facet normal -1.419829530783525e-15 -7.962462201936772e-16 1.0
  outer loop
    vertex 31.0 11.92068766012592 69.99999999999999
    vertex 26.505382386916075 6.5053823869162395 70.00000000000009
    vertex 27.96743371481667 4.600000000000001 70.00000000000009
  endloop
endfacet
facet normal -1.419829530783525e-15 -7.962462201936772e-16 1.0
  outer loop
    vertex 31.0 11.92068766012592 69.99999999999999
    vertex 27.96743371481667 4.600000000000001 70.00000000000009
    vertex 28.886517601859264 2.381135214943193 70.0000000000001
  endloop
endfacet
facet normal -1.419829530783525e-15 -7.962462201936772e-16 1.0
  outer loop
    vertex 31.0 11.92068766012592 69.99999999999999
    vertex 28.886517601859264 2.381135214943193 70.0000000000001
    vertex 29.19999999999984 3.52495810318489e-15 70.0000000000001
  endloop
endfacet
facet normal -1.419829530783525e-15 -7.962462201936772e-16 1.0
  outer loop
    vertex 31.0 11.92068766012592 69.99999999999999
    vertex 29.19999999999984 3.52495810318489e-15 70.0000000000001
    vertex 29.28446323761719 -10.85219507547931 70.0
  endloop
endfacet
facet normal -1.419829530783525e-15 -7.962462201936772e-16 1.0
  outer loop
    vertex 31.0 11.92068766012592 69.99999999999999
    vertex 29.28446323761719 -10.85219507547931 70.0
    vertex 29.7967561376672 -10.59967542193466 70.0
  endloop
endfacet
facet normal -1.419829530783525e-15 -7.962462201936772e-16 1.0
  outer loop
    vertex 31.0 11.92068766012592 69.99999999999999
    vertex 29.7967561376672 -10.59967542193466 70.0
    vertex 30.24220726956695 -10.242207269566942 70.0
  endloop
endfacet
facet normal -1.419829530783525e-15 -7.962462201936772e-16 1.0
  outer loop
    vertex 31.0 11.92068766012592 69.99999999999999
    vertex 30.24220726956695 -10.242207269566942 70.0
    vertex 30.599675421934663 -9.796756137667192 70.0
  endloop
endfacet
facet normal -1.419829530783525e-15 -7.962462201936772e-16 1.0
  outer loop
    vertex 31.0 11.92068766012592 69.99999999999999
    vertex 30.599675421934663 -9.796756137667192 70.0
    vertex 30.852195075479315 -9.284463237617185 70.0
  endloop
endfacet
facet normal -1.419829530783525e-15 -7.962462201936772e-16 1.0
  outer loop
    vertex 31.0 11.92068766012592 69.99999999999999
    vertex 30.852195075479315 -9.284463237617185 70.0
    vertex 30.987781590379978 -8.729642106219824 70.0
  endloop
endfacet
facet normal -1.419829530783525e-15 -7.962462201936772e-16 1.0
  outer loop
    vertex 31.0 11.92068766012592 69.99999999999999
    vertex 30.987781590379978 -8.729642106219824 70.0
    vertex 31.000000000000004 -8.158624679748167 70.0
  endloop
endfacet
facet normal -1.419829530783525e-15 -7.962462201936772e-16 1.0
  outer loop
    vertex -10.964018965135935 -8.720538061559873 70.0
    vertex -11.0 11.92068766012592 69.99999999999999
    vertex -11.0 -8.158624679748167 70.0
  endloop
endfacet
facet normal -1.419829530783525e-15 -7.962462201936772e-16 1.0
  outer loop
    vertex -11.0 11.92068766012592 69.99999999999999
    vertex -10.964018965135935 -8.720538061559873 70.0
    vertex -8.886517601859588 2.381135214943192 70.0
  endloop
endfacet
facet normal -1.419829530783525e-15 -7.962462201936772e-16 1.0
  outer loop
    vertex -11.0 11.92068766012592 69.99999999999999
    vertex -8.886517601859588 2.381135214943192 70.0
    vertex -7.967433714816996 4.6 70.0
  endloop
endfacet
facet normal -1.419829530783525e-15 -7.962462201936772e-16 1.0
  outer loop
    vertex -11.0 11.92068766012592 69.99999999999999
    vertex -7.967433714816996 4.6 70.0
    vertex -2.381135214943353 11.92068766012592 69.99999999999999
  endloop
endfacet
facet normal -1.419829530783525e-15 -7.962462201936772e-16 1.0
  outer loop
    vertex -8.886517601859588 2.381135214943192 70.0
    vertex -10.964018965135935 -8.720538061559873 70.0
    vertex -10.813791334918921 -9.263191673589123 70.0
  endloop
endfacet
facet normal -1.419829530783525e-15 -7.962462201936772e-16 1.0
  outer loop
    vertex -8.886517601859588 2.381135214943192 70.0
    vertex -10.813791334918921 -9.263191673589123 70.0
    vertex -10.555677602850128 -9.76361008336891 70.0
  endloop
endfacet
facet normal -1.419829530783525e-15 -7.962462201936772e-16 1.0
  outer loop
    vertex -8.886517601859588 2.381135214943192 70.0
    vertex -10.555677602850128 -9.76361008336891 70.0
    vertex -9.200000000000161 5.633375276078002e-16 70.0
  endloop
endfacet
facet normal -1.419829530783525e-15 -7.962462201936772e-16 1.0
  outer loop
    vertex -9.200000000000161 5.633375276078002e-16 70.0
    vertex -10.555677602850128 -9.76361008336891 70.0
    vertex -10.200606056309352 -10.20060605630934 70.0
  endloop
endfacet
facet normal -1.419829530783525e-15 -7.962462201936772e-16 1.0
  outer loop
    vertex -9.200000000000161 5.633375276078002e-16 70.0
    vertex -10.200606056309352 -10.20060605630934 70.0
    vertex -9.76361008336892 -10.555677602850116 70.0
  endloop
endfacet
facet normal -1.419829530783525e-15 -7.962462201936772e-16 1.0
  outer loop
    vertex -9.200000000000161 5.633375276078002e-16 70.0
    vertex -9.76361008336892 -10.555677602850116 70.0
    vertex -9.263191673589134 -10.813791334918909 70.0
  endloop
endfacet
facet normal -1.419829530783525e-15 -7.962462201936772e-16 1.0
  outer loop
    vertex -2.381135214943353 11.92068766012592 69.99999999999999
    vertex -7.967433714816996 4.6 70.0
    vertex -6.505382386916399 6.505382386916237 70.0
  endloop
endfacet
facet normal -1.419829530783525e-15 -7.962462201936772e-16 1.0
  outer loop
    vertex -2.381135214943353 11.92068766012592 69.99999999999999
    vertex -6.505382386916399 6.505382386916237 70.0
    vertex -4.60000000000016 7.967433714816836 70.0
  endloop
endfacet
facet normal -1.419829530783525e-15 -7.962462201936772e-16 1.0
  outer loop
    vertex -2.381135214943353 11.92068766012592 69.99999999999999
    vertex -4.60000000000016 7.967433714816836 70.0
    vertex -2.381135214943353 8.886517601859428 70.0
  endloop
endfacet
facet normal 1.4052425178837474e-30 3.825873668363601e-15 1.0
  outer loop
    vertex -1.6245607777747146e-13 9.19999999999998 65.0
    vertex -2.381135214943353 11.9206876601259 64.99999999999999
    vertex -2.381135214943353 8.886517601859408 65.0
  endloop
endfacet
facet normal 1.4052425178837474e-30 3.825873668363601e-15 1.0
  outer loop
    vertex -2.381135214943353 11.9206876601259 64.99999999999999
    vertex -1.6245607777747146e-13 9.19999999999998 65.0
    vertex 2.3811352149430363 11.9206876601259 64.99999999999999
  endloop
endfacet
facet normal 1.4052425178837474e-30 3.825873668363601e-15 1.0
  outer loop
    vertex 2.3811352149430363 11.9206876601259 64.99999999999999
    vertex -1.6245607777747146e-13 9.19999999999998 65.0
    vertex 2.3811352149430354 8.886517601859405 65.0
  endloop
endfacet
facet normal -1.0 2.3235072757911125e-16 5.162979874137015e-31
  outer loop
    vertex 2.3811352149430354 8.886517601859424 70.0
    vertex 2.3811352149430363 11.9206876601259 64.99999999999999
    vertex 2.3811352149430354 8.886517601859405 65.0
  endloop
endfacet
facet normal -1.0 2.3235072757911125e-16 5.162979874137015e-31
  outer loop
    vertex 2.3811352149430363 11.9206876601259 64.99999999999999
    vertex 2.3811352149430354 8.886517601859424 70.0
    vertex 2.3811352149430363 11.92068766012592 69.99999999999999
  endloop
endfacet
facet normal 1.0 -1.1617536378955572e-16 -9.60770252648724e-31
  outer loop
    vertex -2.381135214943353 11.9206876601259 64.99999999999999
    vertex -2.381135214943353 8.886517601859428 70.0
    vertex -2.381135214943353 8.886517601859408 65.0
  endloop
endfacet
facet normal 1.0 -1.1617536378955572e-16 -9.60770252648724e-31
  outer loop
    vertex -2.381135214943353 8.886517601859428 70.0
    vertex -2.381135214943353 11.9206876601259 64.99999999999999
    vertex -2.381135214943353 11.92068766012592 69.99999999999999
  endloop
endfacet
facet normal -2.368589960663091e-15 -5.239295778899601e-16 1.0
  outer loop
    vertex 19.999999999999847 9.200000000000003 65.00000000000006
    vertex 17.618864785056655 11.920687660125923 65.00000000000006
    vertex 17.618864785056655 8.886517601859431 65.00000000000006
  endloop
endfacet
facet normal -2.368589960663091e-15 -5.239295778899601e-16 1.0
  outer loop
    vertex 17.618864785056655 11.920687660125923 65.00000000000006
    vertex 19.999999999999847 9.200000000000003 65.00000000000006
    vertex 22.38113521494304 11.920687660125923 65.00000000000006
  endloop
endfacet
facet normal -2.368589960663091e-15 -5.239295778899601e-16 1.0
  outer loop
    vertex 22.38113521494304 11.920687660125923 65.00000000000006
    vertex 19.999999999999847 9.200000000000003 65.00000000000006
    vertex 22.38113521494304 8.886517601859433 65.00000000000006
  endloop
endfacet
facet normal -1.0 0.0 -2.3685899606630905e-15
  outer loop
    vertex 22.38113521494303 11.92068766012592 70.00000000000006
    vertex 22.38113521494304 8.886517601859433 65.00000000000006
    vertex 22.38113521494303 8.88651760185943 70.00000000000006
  endloop
endfacet
facet normal -1.0 0.0 -2.3685899606630905e-15
  outer loop
    vertex 22.38113521494304 8.886517601859433 65.00000000000006
    vertex 22.38113521494303 11.92068766012592 70.00000000000006
    vertex 22.38113521494304 11.920687660125923 65.00000000000006
  endloop
endfacet
facet normal 1.0 0.0 2.368589960663091e-15
  outer loop
    vertex 17.618864785056655 8.886517601859431 65.00000000000006
    vertex 17.618864785056644 11.92068766012592 70.00000000000006
    vertex 17.618864785056644 8.88651760185943 70.00000000000006
  endloop
endfacet
facet normal 1.0 0.0 2.368589960663091e-15
  outer loop
    vertex 17.618864785056644 11.92068766012592 70.00000000000006
    vertex 17.618864785056655 8.886517601859431 65.00000000000006
    vertex 17.618864785056655 11.920687660125923 65.00000000000006
  endloop
endfacet
endsolid P2-3
