solid PowerBank-Double-Cup
facet normal 0.0 -0.8944271909999161 0.44721359549995804
  outer loop
    vertex 90.46000000000004 0.9999999999999999 1.9999999999999998
    vertex 2.8199664825478975e-15 0.0 0.0
    vertex 91.46000000000004 0.0 0.0
  endloop
endfacet
facet normal 0.0 -0.8944271909999161 0.44721359549995804
  outer loop
    vertex 2.8199664825478975e-15 0.0 0.0
    vertex 90.46000000000004 0.9999999999999999 1.9999999999999998
    vertex 1.0000000000000027 0.9999999999999999 1.9999999999999998
  endloop
endfacet
facet normal -0.8944271909999161 -3.225329019550439e-17 0.44721359549995804
  outer loop
    vertex 1.0000000000000027 0.9999999999999999 1.9999999999999998
    vertex 0.0 87.3 7.049916206369744e-16
    vertex 2.8199664825478975e-15 0.0 0.0
  endloop
endfacet
facet normal -0.8944271909999161 -3.225329019550439e-17 0.44721359549995804
  outer loop
    vertex 0.0 87.3 7.049916206369744e-16
    vertex 1.0000000000000027 0.9999999999999999 1.9999999999999998
    vertex 0.9999999999999999 86.3 2.0000000000000004
  endloop
endfacet
facet normal -0.0 0.8944271909999162 0.4472135954999573
  outer loop
    vertex 0.9999999999999999 86.3 2.0000000000000004
    vertex 91.46000000000004 87.3 7.049916206369744e-16
    vertex 0.0 87.3 7.049916206369744e-16
  endloop
endfacet
facet normal -0.0 0.8944271909999162 0.4472135954999573
  outer loop
    vertex 91.46000000000004 87.3 7.049916206369744e-16
    vertex 0.9999999999999999 86.3 2.0000000000000004
    vertex 90.46000000000004 86.3 2.0000000000000004
  endloop
endfacet
facet normal 0.8944271909999162 -3.225329019550434e-18 0.4472135954999573
  outer loop
    vertex 91.46000000000004 87.3 7.049916206369744e-16
    vertex 90.46000000000004 0.9999999999999999 1.9999999999999998
    vertex 91.46000000000004 0.0 0.0
  endloop
endfacet
facet normal 0.8944271909999162 -3.225329019550434e-18 0.4472135954999573
  outer loop
    vertex 90.46000000000004 0.9999999999999999 1.9999999999999998
    vertex 91.46000000000004 87.3 7.049916206369744e-16
    vertex 90.46000000000004 86.3 2.0000000000000004
  endloop
endfacet
facet normal 1.3525057712140125e-19 8.202718474711567e-18 -1.0
  outer loop
    vertex 91.46000000000004 87.3 -0.9999999999999992
    vertex 2.8201017331250187e-15 8.202718474711567e-18 -0.9999999999999999
    vertex 1.3525057712140125e-19 87.3 -0.9999999999999992
  endloop
endfacet
facet normal 1.3525057712140125e-19 8.202718474711567e-18 -1.0
  outer loop
    vertex 2.8201017331250187e-15 8.202718474711567e-18 -0.9999999999999999
    vertex 91.46000000000004 87.3 -0.9999999999999992
    vertex 91.46000000000004 8.202718474711567e-18 -0.9999999999999999
  endloop
endfacet
facet normal -0.0 -1.0 -8.202718474711569e-18
  outer loop
    vertex 91.46000000000004 0.0 0.0
    vertex 2.8201017331250187e-15 8.202718474711567e-18 -0.9999999999999999
    vertex 91.46000000000004 8.202718474711567e-18 -0.9999999999999999
  endloop
endfacet
facet normal -0.0 -1.0 -8.202718474711569e-18
  outer loop
    vertex 2.8201017331250187e-15 8.202718474711567e-18 -0.9999999999999999
    vertex 91.46000000000004 0.0 0.0
    vertex 2.8199664825478975e-15 0.0 0.0
  endloop
endfacet
facet normal -1.0 -3.230202156412254e-17 -1.352505771214015e-19
  outer loop
    vertex 0.0 87.3 7.049916206369744e-16
    vertex 2.8201017331250187e-15 8.202718474711567e-18 -0.9999999999999999
    vertex 2.8199664825478975e-15 0.0 0.0
  endloop
endfacet
facet normal -1.0 -3.230202156412254e-17 -1.352505771214015e-19
  outer loop
    vertex 2.8201017331250187e-15 8.202718474711567e-18 -0.9999999999999999
    vertex 0.0 87.3 7.049916206369744e-16
    vertex 1.3525057712140125e-19 87.3 -0.9999999999999992
  endloop
endfacet
facet normal -0.0 1.0 8.202718474711569e-18
  outer loop
    vertex 0.0 87.3 7.049916206369744e-16
    vertex 91.46000000000004 87.3 -0.9999999999999992
    vertex 1.3525057712140125e-19 87.3 -0.9999999999999992
  endloop
endfacet
facet normal -0.0 1.0 8.202718474711569e-18
  outer loop
    vertex 91.46000000000004 87.3 -0.9999999999999992
    vertex 0.0 87.3 7.049916206369744e-16
    vertex 91.46000000000004 87.3 7.049916206369744e-16
  endloop
endfacet
facet normal 1.0 -1.0922167646838804e-36 1.3525057712140125e-19
  outer loop
    vertex 91.46000000000004 8.202718474711567e-18 -0.9999999999999999
    vertex 91.46000000000004 87.3 7.049916206369744e-16
    vertex 91.46000000000004 0.0 0.0
  endloop
endfacet
facet normal 1.0 -1.0922167646838804e-36 1.3525057712140125e-19
  outer loop
    vertex 91.46000000000004 87.3 7.049916206369744e-16
    vertex 91.46000000000004 8.202718474711567e-18 -0.9999999999999999
    vertex 91.46000000000004 87.3 -0.9999999999999992
  endloop
endfacet
facet normal -0.0 -9.120202078097988e-18 1.0
  outer loop
    vertex 5.000000000000002 4.999999999999999 5.0
    vertex 86.46000000000004 82.3 5.000000000000001
    vertex 4.999999999999999 82.3 5.000000000000001
  endloop
endfacet
facet normal -0.0 -9.120202078097988e-18 1.0
  outer loop
    vertex 86.46000000000004 82.3 5.000000000000001
    vertex 5.000000000000002 4.999999999999999 5.0
    vertex 86.46000000000004 4.999999999999999 5.0
  endloop
endfacet
facet normal -4.89295810722795e-19 -0.6000000000000002 0.8
  outer loop
    vertex 90.46000000000004 0.9999999999999999 1.9999999999999998
    vertex 5.000000000000002 4.999999999999999 5.0
    vertex 1.0000000000000027 0.9999999999999999 1.9999999999999998
  endloop
endfacet
facet normal -4.89295810722795e-19 -0.6000000000000002 0.8
  outer loop
    vertex 5.000000000000002 4.999999999999999 5.0
    vertex 90.46000000000004 0.9999999999999999 1.9999999999999998
    vertex 86.46000000000004 4.999999999999999 5.0
  endloop
endfacet
facet normal 0.5999999999999996 -7.567363408143399e-18 0.8000000000000003
  outer loop
    vertex 90.46000000000004 0.9999999999999999 1.9999999999999998
    vertex 86.46000000000004 82.3 5.000000000000001
    vertex 86.46000000000004 4.999999999999999 5.0
  endloop
endfacet
facet normal 0.5999999999999996 -7.567363408143399e-18 0.8000000000000003
  outer loop
    vertex 86.46000000000004 82.3 5.000000000000001
    vertex 90.46000000000004 0.9999999999999999 1.9999999999999998
    vertex 90.46000000000004 86.3 2.0000000000000004
  endloop
endfacet
facet normal -0.0 0.5999999999999996 0.8000000000000003
  outer loop
    vertex 4.999999999999999 82.3 5.000000000000001
    vertex 90.46000000000004 86.3 2.0000000000000004
    vertex 0.9999999999999999 86.3 2.0000000000000004
  endloop
endfacet
facet normal -0.0 0.5999999999999996 0.8000000000000003
  outer loop
    vertex 90.46000000000004 86.3 2.0000000000000004
    vertex 4.999999999999999 82.3 5.000000000000001
    vertex 86.46000000000004 82.3 5.000000000000001
  endloop
endfacet
facet normal -0.6 -2.86478757594e-17 0.8
  outer loop
    vertex 1.0000000000000027 0.9999999999999999 1.9999999999999998
    vertex 4.999999999999999 82.3 5.000000000000001
    vertex 0.9999999999999999 86.3 2.0000000000000004
  endloop
endfacet
facet normal -0.6 -2.86478757594e-17 0.8
  outer loop
    vertex 4.999999999999999 82.3 5.000000000000001
    vertex 1.0000000000000027 0.9999999999999999 1.9999999999999998
    vertex 5.000000000000002 4.999999999999999 5.0
  endloop
endfacet
endsolid PowerBank-Double-Cup
