solid Муфта-Кулачковая-5.1мм-под-608
facet normal -0.0 -0.0 1.0
  outer loop
    vertex 4.949747468305832 -4.949747468305834 3.9999999999999996
    vertex 2.25166604983954 -1.3000000000000003 3.9999999999999996
    vertex 1.8384776310850237 -1.8384776310850237 3.9999999999999996
  endloop
endfacet
facet normal -0.0 -0.0 1.0
  outer loop
    vertex 2.25166604983954 -1.3000000000000003 3.9999999999999996
    vertex 4.949747468305832 -4.949747468305834 3.9999999999999996
    vertex 2.511407148351577 -0.6729295172665544 3.9999999999999996
  endloop
endfacet
facet normal -0.0 -0.0 1.0
  outer loop
    vertex 2.511407148351577 -0.6729295172665544 3.9999999999999996
    vertex 4.949747468305832 -4.949747468305834 3.9999999999999996
    vertex 2.5999999999999996 -1.592040838891559e-16 3.9999999999999996
  endloop
endfacet
facet normal -0.0 -0.0 1.0
  outer loop
    vertex 2.5999999999999996 -1.592040838891559e-16 3.9999999999999996
    vertex 4.949747468305832 -4.949747468305834 3.9999999999999996
    vertex 7.0 0.0 3.9999999999999996
  endloop
endfacet
facet normal -0.0 -0.0 1.0
  outer loop
    vertex 7.0 0.0 3.9999999999999996
    vertex 4.949747468305832 -4.949747468305834 3.9999999999999996
    vertex 6.062177826491069 -3.5000000000000027 3.9999999999999996
  endloop
endfacet
facet normal -0.0 -0.0 1.0
  outer loop
    vertex 7.0 0.0 3.9999999999999996
    vertex 6.062177826491069 -3.5000000000000027 3.9999999999999996
    vertex 6.761480784023476 -1.811733315717651 3.9999999999999996
  endloop
endfacet
facet normal 0.9914448613738105 0.13052619222005177 0.0
  outer loop
    vertex 6.761480784023478 1.8117333157176452 0.0
    vertex 7.0 0.0 3.9999999999999996
    vertex 7.0 0.0 0.0
  endloop
endfacet
facet normal 0.9914448613738105 0.13052619222005177 0.0
  outer loop
    vertex 7.0 0.0 3.9999999999999996
    vertex 6.761480784023478 1.8117333157176452 0.0
    vertex 7.0 0.0 7.999999999999999
  endloop
endfacet
facet normal 0.9914448613738105 0.13052619222005177 0.0
  outer loop
    vertex 7.0 0.0 7.999999999999999
    vertex 6.761480784023478 1.8117333157176452 0.0
    vertex 6.761480784023478 1.8117333157176452 7.999999999999999
  endloop
endfacet
facet normal 0.9914448613738105 -0.13052619222005213 0.0
  outer loop
    vertex 7.0 0.0 0.0
    vertex 6.761480784023476 -1.811733315717651 3.9999999999999996
    vertex 6.761480784023476 -1.811733315717651 0.0
  endloop
endfacet
facet normal 0.9914448613738105 -0.13052619222005213 0.0
  outer loop
    vertex 6.761480784023476 -1.811733315717651 3.9999999999999996
    vertex 7.0 0.0 0.0
    vertex 7.0 0.0 3.9999999999999996
  endloop
endfacet
facet normal 0.9238795325112865 -0.3826834323650904 0.0
  outer loop
    vertex 6.761480784023476 -1.811733315717651 0.0
    vertex 6.062177826491069 -3.5000000000000027 3.9999999999999996
    vertex 6.062177826491069 -3.5000000000000027 0.0
  endloop
endfacet
facet normal 0.9238795325112865 -0.3826834323650904 0.0
  outer loop
    vertex 6.062177826491069 -3.5000000000000027 3.9999999999999996
    vertex 6.761480784023476 -1.811733315717651 0.0
    vertex 6.761480784023476 -1.811733315717651 3.9999999999999996
  endloop
endfacet
facet normal 0.793353340291235 -0.6087614290087208 0.0
  outer loop
    vertex 6.062177826491069 -3.5000000000000027 0.0
    vertex 4.949747468305832 -4.949747468305834 3.9999999999999996
    vertex 4.949747468305832 -4.949747468305834 0.0
  endloop
endfacet
facet normal 0.793353340291235 -0.6087614290087208 0.0
  outer loop
    vertex 4.949747468305832 -4.949747468305834 3.9999999999999996
    vertex 6.062177826491069 -3.5000000000000027 0.0
    vertex 6.062177826491069 -3.5000000000000027 3.9999999999999996
  endloop
endfacet
facet normal -0.13052619222005224 -0.9914448613738104 -0.0
  outer loop
    vertex -1.2858791391047208e-15 -7.0 3.9999999999999996
    vertex -1.8117333157176505 -6.761480784023476 0.0
    vertex -1.2858791391047208e-15 -7.0 0.0
  endloop
endfacet
facet normal -0.13052619222005224 -0.9914448613738104 -0.0
  outer loop
    vertex -1.8117333157176505 -6.761480784023476 0.0
    vertex -1.2858791391047208e-15 -7.0 3.9999999999999996
    vertex -1.8117333157176505 -6.761480784023476 3.9999999999999996
  endloop
endfacet
facet normal -0.38268343236509 -0.9238795325112867 -0.0
  outer loop
    vertex -1.8117333157176505 -6.761480784023476 3.9999999999999996
    vertex -3.5000000000000027 -6.0621778264910695 0.0
    vertex -1.8117333157176505 -6.761480784023476 0.0
  endloop
endfacet
facet normal -0.38268343236509 -0.9238795325112867 -0.0
  outer loop
    vertex -3.5000000000000027 -6.0621778264910695 0.0
    vertex -1.8117333157176505 -6.761480784023476 3.9999999999999996
    vertex -3.5000000000000027 -6.0621778264910695 3.9999999999999996
  endloop
endfacet
facet normal -0.6087614290087213 -0.7933533402912346 -0.0
  outer loop
    vertex -3.5000000000000027 -6.0621778264910695 3.9999999999999996
    vertex -4.949747468305835 -4.949747468305829 0.0
    vertex -3.5000000000000027 -6.0621778264910695 0.0
  endloop
endfacet
facet normal -0.6087614290087213 -0.7933533402912346 -0.0
  outer loop
    vertex -4.949747468305835 -4.949747468305829 0.0
    vertex -3.5000000000000027 -6.0621778264910695 3.9999999999999996
    vertex -4.949747468305835 -4.949747468305829 3.9999999999999996
  endloop
endfacet
facet normal -0.7933533402912354 -0.6087614290087203 -0.0
  outer loop
    vertex -6.062177826491071 -3.499999999999998 7.999999999999999
    vertex -4.949747468305835 -4.949747468305829 3.9999999999999996
    vertex -4.949747468305835 -4.949747468305829 7.999999999999999
  endloop
endfacet
facet normal -0.7933533402912354 -0.6087614290087203 -0.0
  outer loop
    vertex -4.949747468305835 -4.949747468305829 3.9999999999999996
    vertex -6.062177826491071 -3.499999999999998 7.999999999999999
    vertex -4.949747468305835 -4.949747468305829 0.0
  endloop
endfacet
facet normal -0.7933533402912354 -0.6087614290087203 -0.0
  outer loop
    vertex -4.949747468305835 -4.949747468305829 0.0
    vertex -6.062177826491071 -3.499999999999998 7.999999999999999
    vertex -6.062177826491071 -3.499999999999998 0.0
  endloop
endfacet
facet normal -0.9238795325112868 -0.3826834323650898 -0.0
  outer loop
    vertex -6.761480784023479 -1.8117333157176425 7.999999999999999
    vertex -6.062177826491071 -3.499999999999998 0.0
    vertex -6.062177826491071 -3.499999999999998 7.999999999999999
  endloop
endfacet
facet normal -0.9238795325112868 -0.3826834323650898 -0.0
  outer loop
    vertex -6.062177826491071 -3.499999999999998 0.0
    vertex -6.761480784023479 -1.8117333157176425 7.999999999999999
    vertex -6.761480784023479 -1.8117333157176425 0.0
  endloop
endfacet
facet normal -0.9914448613738105 -0.13052619222005113 -0.0
  outer loop
    vertex -7.0 8.572527594031472e-16 7.999999999999999
    vertex -6.761480784023479 -1.8117333157176425 0.0
    vertex -6.761480784023479 -1.8117333157176425 7.999999999999999
  endloop
endfacet
facet normal -0.9914448613738105 -0.13052619222005113 -0.0
  outer loop
    vertex -6.761480784023479 -1.8117333157176425 0.0
    vertex -7.0 8.572527594031472e-16 7.999999999999999
    vertex -7.0 8.572527594031472e-16 0.0
  endloop
endfacet
facet normal -0.9914448613738105 -0.13052619222005113 -0.0
  outer loop
    vertex -7.0 8.572527594031472e-16 0.0
    vertex -7.0 8.572527594031472e-16 7.999999999999999
    vertex -7.0 8.572527594031472e-16 3.9999999999999996
  endloop
endfacet
facet normal -0.9914448613738104 0.13052619222005168 0.0
  outer loop
    vertex -6.761480784023478 1.811733315717647 3.9999999999999996
    vertex -7.0 8.572527594031472e-16 0.0
    vertex -7.0 8.572527594031472e-16 3.9999999999999996
  endloop
endfacet
facet normal -0.9914448613738104 0.13052619222005168 0.0
  outer loop
    vertex -7.0 8.572527594031472e-16 0.0
    vertex -6.761480784023478 1.811733315717647 3.9999999999999996
    vertex -6.761480784023478 1.811733315717647 0.0
  endloop
endfacet
facet normal -0.9238795325112867 0.3826834323650901 0.0
  outer loop
    vertex -6.0621778264910695 3.500000000000002 3.9999999999999996
    vertex -6.761480784023478 1.811733315717647 0.0
    vertex -6.761480784023478 1.811733315717647 3.9999999999999996
  endloop
endfacet
facet normal -0.9238795325112867 0.3826834323650901 0.0
  outer loop
    vertex -6.761480784023478 1.811733315717647 0.0
    vertex -6.0621778264910695 3.500000000000002 3.9999999999999996
    vertex -6.0621778264910695 3.500000000000002 0.0
  endloop
endfacet
facet normal -0.793353340291235 0.6087614290087208 0.0
  outer loop
    vertex -4.949747468305833 4.949747468305833 3.9999999999999996
    vertex -6.0621778264910695 3.500000000000002 0.0
    vertex -6.0621778264910695 3.500000000000002 3.9999999999999996
  endloop
endfacet
facet normal -0.793353340291235 0.6087614290087208 0.0
  outer loop
    vertex -6.0621778264910695 3.500000000000002 0.0
    vertex -4.949747468305833 4.949747468305833 3.9999999999999996
    vertex -4.949747468305833 4.949747468305833 0.0
  endloop
endfacet
facet normal -0.6087614290087203 0.7933533402912356 0.0
  outer loop
    vertex -4.949747468305833 4.949747468305833 3.9999999999999996
    vertex -3.4999999999999987 6.06217782649107 0.0
    vertex -4.949747468305833 4.949747468305833 0.0
  endloop
endfacet
facet normal -0.6087614290087203 0.7933533402912356 0.0
  outer loop
    vertex -3.4999999999999987 6.06217782649107 0.0
    vertex -4.949747468305833 4.949747468305833 3.9999999999999996
    vertex -3.4999999999999987 6.06217782649107 7.999999999999999
  endloop
endfacet
facet normal -0.6087614290087203 0.7933533402912356 0.0
  outer loop
    vertex -3.4999999999999987 6.06217782649107 7.999999999999999
    vertex -4.949747468305833 4.949747468305833 3.9999999999999996
    vertex -4.949747468305833 4.949747468305833 7.999999999999999
  endloop
endfacet
facet normal -0.38268343236508967 0.923879532511287 0.0
  outer loop
    vertex -3.4999999999999987 6.06217782649107 7.999999999999999
    vertex -1.8117333157176443 6.761480784023478 0.0
    vertex -3.4999999999999987 6.06217782649107 0.0
  endloop
endfacet
facet normal -0.38268343236508967 0.923879532511287 0.0
  outer loop
    vertex -1.8117333157176443 6.761480784023478 0.0
    vertex -3.4999999999999987 6.06217782649107 7.999999999999999
    vertex -1.8117333157176443 6.761480784023478 7.999999999999999
  endloop
endfacet
facet normal -0.1305261922200518 0.9914448613738105 0.0
  outer loop
    vertex -1.8117333157176443 6.761480784023478 7.999999999999999
    vertex 4.286263797015736e-16 7.0 0.0
    vertex -1.8117333157176443 6.761480784023478 0.0
  endloop
endfacet
facet normal -0.1305261922200518 0.9914448613738105 0.0
  outer loop
    vertex 4.286263797015736e-16 7.0 0.0
    vertex -1.8117333157176443 6.761480784023478 7.999999999999999
    vertex 4.286263797015736e-16 7.0 3.9999999999999996
  endloop
endfacet
facet normal -0.1305261922200518 0.9914448613738105 0.0
  outer loop
    vertex 4.286263797015736e-16 7.0 3.9999999999999996
    vertex -1.8117333157176443 6.761480784023478 7.999999999999999
    vertex 4.286263797015736e-16 7.0 7.999999999999999
  endloop
endfacet
facet normal 0.13052619222005168 0.9914448613738104 0.0
  outer loop
    vertex 4.286263797015736e-16 7.0 3.9999999999999996
    vertex 1.8117333157176467 6.761480784023478 0.0
    vertex 4.286263797015736e-16 7.0 0.0
  endloop
endfacet
facet normal 0.13052619222005168 0.9914448613738104 0.0
  outer loop
    vertex 1.8117333157176467 6.761480784023478 0.0
    vertex 4.286263797015736e-16 7.0 3.9999999999999996
    vertex 1.8117333157176467 6.761480784023478 3.9999999999999996
  endloop
endfacet
facet normal 0.38268343236509006 0.9238795325112868 0.0
  outer loop
    vertex 1.8117333157176467 6.761480784023478 3.9999999999999996
    vertex 3.5000000000000004 6.06217782649107 0.0
    vertex 1.8117333157176467 6.761480784023478 0.0
  endloop
endfacet
facet normal 0.38268343236509006 0.9238795325112868 0.0
  outer loop
    vertex 3.5000000000000004 6.06217782649107 0.0
    vertex 1.8117333157176467 6.761480784023478 3.9999999999999996
    vertex 3.5000000000000004 6.06217782649107 3.9999999999999996
  endloop
endfacet
facet normal 0.6087614290087204 0.7933533402912354 0.0
  outer loop
    vertex 3.5000000000000004 6.06217782649107 3.9999999999999996
    vertex 4.949747468305833 4.949747468305833 0.0
    vertex 3.5000000000000004 6.06217782649107 0.0
  endloop
endfacet
facet normal 0.6087614290087204 0.7933533402912354 0.0
  outer loop
    vertex 4.949747468305833 4.949747468305833 0.0
    vertex 3.5000000000000004 6.06217782649107 3.9999999999999996
    vertex 4.949747468305833 4.949747468305833 3.9999999999999996
  endloop
endfacet
facet normal 0.7933533402912356 0.6087614290087203 0.0
  outer loop
    vertex 4.949747468305833 4.949747468305833 0.0
    vertex 6.06217782649107 3.499999999999999 7.999999999999999
    vertex 6.06217782649107 3.499999999999999 0.0
  endloop
endfacet
facet normal 0.7933533402912356 0.6087614290087203 0.0
  outer loop
    vertex 6.06217782649107 3.499999999999999 7.999999999999999
    vertex 4.949747468305833 4.949747468305833 0.0
    vertex 4.949747468305833 4.949747468305833 7.999999999999999
  endloop
endfacet
facet normal 0.7933533402912356 0.6087614290087203 0.0
  outer loop
    vertex 4.949747468305833 4.949747468305833 7.999999999999999
    vertex 4.949747468305833 4.949747468305833 0.0
    vertex 4.949747468305833 4.949747468305833 3.9999999999999996
  endloop
endfacet
facet normal 0.9238795325112868 0.38268343236508967 0.0
  outer loop
    vertex 6.06217782649107 3.499999999999999 0.0
    vertex 6.761480784023478 1.8117333157176452 7.999999999999999
    vertex 6.761480784023478 1.8117333157176452 0.0
  endloop
endfacet
facet normal 0.9238795325112868 0.38268343236508967 0.0
  outer loop
    vertex 6.761480784023478 1.8117333157176452 7.999999999999999
    vertex 6.06217782649107 3.499999999999999 0.0
    vertex 6.06217782649107 3.499999999999999 7.999999999999999
  endloop
endfacet
facet normal -0.7933533402912353 0.6087614290087205 0.0
  outer loop
    vertex 2.25166604983954 -1.3000000000000003 3.9999999999999996
    vertex 1.8384776310850237 -1.8384776310850237 -15.0
    vertex 1.8384776310850237 -1.8384776310850237 3.9999999999999996
  endloop
endfacet
facet normal -0.7933533402912353 0.6087614290087205 0.0
  outer loop
    vertex 1.8384776310850237 -1.8384776310850237 -15.0
    vertex 2.25166604983954 -1.3000000000000003 3.9999999999999996
    vertex 2.25166604983954 -1.3000000000000003 -15.0
  endloop
endfacet
facet normal -0.9238795325112871 0.38268343236508934 0.0
  outer loop
    vertex 2.511407148351577 -0.6729295172665544 3.9999999999999996
    vertex 2.25166604983954 -1.3000000000000003 -15.0
    vertex 2.25166604983954 -1.3000000000000003 3.9999999999999996
  endloop
endfacet
facet normal -0.9238795325112871 0.38268343236508934 0.0
  outer loop
    vertex 2.25166604983954 -1.3000000000000003 -15.0
    vertex 2.511407148351577 -0.6729295172665544 3.9999999999999996
    vertex 2.511407148351577 -0.6729295172665544 -15.0
  endloop
endfacet
facet normal -0.9914448613738105 0.1305261922200521 0.0
  outer loop
    vertex 2.5999999999999996 -1.592040838891559e-16 3.9999999999999996
    vertex 2.511407148351577 -0.6729295172665544 -15.0
    vertex 2.511407148351577 -0.6729295172665544 3.9999999999999996
  endloop
endfacet
facet normal -0.9914448613738105 0.1305261922200521 0.0
  outer loop
    vertex 2.511407148351577 -0.6729295172665544 -15.0
    vertex 2.5999999999999996 -1.592040838891559e-16 3.9999999999999996
    vertex 2.5999999999999996 -1.592040838891559e-16 -15.0
  endloop
endfacet
facet normal -0.9914448613738104 -0.13052619222005166 -0.0
  outer loop
    vertex 2.5114071483515774 0.6729295172665536 7.999999999999999
    vertex 2.5999999999999996 -1.592040838891559e-16 3.9999999999999996
    vertex 2.5999999999999996 -1.592040838891559e-16 7.999999999999999
  endloop
endfacet
facet normal -0.9914448613738104 -0.13052619222005166 -0.0
  outer loop
    vertex 2.5999999999999996 -1.592040838891559e-16 3.9999999999999996
    vertex 2.5114071483515774 0.6729295172665536 7.999999999999999
    vertex 2.5999999999999996 -1.592040838891559e-16 -15.0
  endloop
endfacet
facet normal -0.9914448613738104 -0.13052619222005166 -0.0
  outer loop
    vertex 2.5999999999999996 -1.592040838891559e-16 -15.0
    vertex 2.5114071483515774 0.6729295172665536 7.999999999999999
    vertex 2.5114071483515774 0.6729295172665536 -15.0
  endloop
endfacet
facet normal -0.9238795325112867 -0.3826834323650898 -0.0
  outer loop
    vertex 2.25166604983954 1.2999999999999994 7.999999999999999
    vertex 2.5114071483515774 0.6729295172665536 -15.0
    vertex 2.5114071483515774 0.6729295172665536 7.999999999999999
  endloop
endfacet
facet normal -0.9238795325112867 -0.3826834323650898 -0.0
  outer loop
    vertex 2.5114071483515774 0.6729295172665536 -15.0
    vertex 2.25166604983954 1.2999999999999994 7.999999999999999
    vertex 2.25166604983954 1.2999999999999994 -15.0
  endloop
endfacet
facet normal -0.7933533402912357 -0.6087614290087201 -0.0
  outer loop
    vertex 1.8384776310850237 1.8384776310850233 7.999999999999999
    vertex 2.25166604983954 1.2999999999999994 -15.0
    vertex 2.25166604983954 1.2999999999999994 7.999999999999999
  endloop
endfacet
facet normal -0.7933533402912357 -0.6087614290087201 -0.0
  outer loop
    vertex 2.25166604983954 1.2999999999999994 -15.0
    vertex 1.8384776310850237 1.8384776310850233 7.999999999999999
    vertex 1.8384776310850237 1.8384776310850233 -15.0
  endloop
endfacet
facet normal -0.7933533402912357 -0.6087614290087201 -0.0
  outer loop
    vertex 1.8384776310850237 1.8384776310850233 -15.0
    vertex 1.8384776310850237 1.8384776310850233 7.999999999999999
    vertex 1.8384776310850237 1.8384776310850233 3.9999999999999996
  endloop
endfacet
facet normal -0.6087614290087209 -0.7933533402912349 -0.0
  outer loop
    vertex 1.8384776310850237 1.8384776310850233 3.9999999999999996
    vertex 1.3000000000000007 2.25166604983954 -15.0
    vertex 1.8384776310850237 1.8384776310850233 -15.0
  endloop
endfacet
facet normal -0.6087614290087209 -0.7933533402912349 -0.0
  outer loop
    vertex 1.3000000000000007 2.25166604983954 -15.0
    vertex 1.8384776310850237 1.8384776310850233 3.9999999999999996
    vertex 1.3000000000000007 2.25166604983954 3.9999999999999996
  endloop
endfacet
facet normal -0.3826834323650896 -0.923879532511287 -0.0
  outer loop
    vertex 1.3000000000000007 2.25166604983954 3.9999999999999996
    vertex 0.6729295172665546 2.511407148351577 -15.0
    vertex 1.3000000000000007 2.25166604983954 -15.0
  endloop
endfacet
facet normal -0.3826834323650896 -0.923879532511287 -0.0
  outer loop
    vertex 0.6729295172665546 2.511407148351577 -15.0
    vertex 1.3000000000000007 2.25166604983954 3.9999999999999996
    vertex 0.6729295172665546 2.511407148351577 3.9999999999999996
  endloop
endfacet
facet normal -0.1305261922200521 -0.9914448613738105 -0.0
  outer loop
    vertex 0.6729295172665546 2.511407148351577 3.9999999999999996
    vertex 3.184081677783118e-16 2.5999999999999996 -15.0
    vertex 0.6729295172665546 2.511407148351577 -15.0
  endloop
endfacet
facet normal -0.1305261922200521 -0.9914448613738105 -0.0
  outer loop
    vertex 3.184081677783118e-16 2.5999999999999996 -15.0
    vertex 0.6729295172665546 2.511407148351577 3.9999999999999996
    vertex 3.184081677783118e-16 2.5999999999999996 3.9999999999999996
  endloop
endfacet
facet normal 0.1305261922200513 -0.9914448613738106 0.0
  outer loop
    vertex 3.184081677783118e-16 2.5999999999999996 3.9999999999999996
    vertex -0.6729295172665528 2.511407148351578 -15.0
    vertex 3.184081677783118e-16 2.5999999999999996 -15.0
  endloop
endfacet
facet normal 0.1305261922200513 -0.9914448613738106 0.0
  outer loop
    vertex -0.6729295172665528 2.511407148351578 -15.0
    vertex 3.184081677783118e-16 2.5999999999999996 3.9999999999999996
    vertex -0.6729295172665528 2.511407148351578 7.999999999999999
  endloop
endfacet
facet normal 0.1305261922200513 -0.9914448613738106 0.0
  outer loop
    vertex -0.6729295172665528 2.511407148351578 7.999999999999999
    vertex 3.184081677783118e-16 2.5999999999999996 3.9999999999999996
    vertex 3.184081677783118e-16 2.5999999999999996 7.999999999999999
  endloop
endfacet
facet normal 0.3826834323650895 -0.923879532511287 0.0
  outer loop
    vertex -0.6729295172665528 2.511407148351578 7.999999999999999
    vertex -1.2999999999999992 2.2516660498395407 -15.0
    vertex -0.6729295172665528 2.511407148351578 -15.0
  endloop
endfacet
facet normal 0.3826834323650895 -0.923879532511287 0.0
  outer loop
    vertex -1.2999999999999992 2.2516660498395407 -15.0
    vertex -0.6729295172665528 2.511407148351578 7.999999999999999
    vertex -1.2999999999999992 2.2516660498395407 7.999999999999999
  endloop
endfacet
facet normal 0.6087614290087204 -0.7933533402912355 0.0
  outer loop
    vertex -1.2999999999999992 2.2516660498395407 7.999999999999999
    vertex -1.8384776310850224 1.8384776310850244 -15.0
    vertex -1.2999999999999992 2.2516660498395407 -15.0
  endloop
endfacet
facet normal 0.6087614290087204 -0.7933533402912355 0.0
  outer loop
    vertex -1.8384776310850224 1.8384776310850244 -15.0
    vertex -1.2999999999999992 2.2516660498395407 7.999999999999999
    vertex -1.8384776310850224 1.8384776310850244 3.9999999999999996
  endloop
endfacet
facet normal 0.6087614290087204 -0.7933533402912355 0.0
  outer loop
    vertex -1.8384776310850224 1.8384776310850244 3.9999999999999996
    vertex -1.2999999999999992 2.2516660498395407 7.999999999999999
    vertex -1.8384776310850224 1.8384776310850244 7.999999999999999
  endloop
endfacet
facet normal 0.7933533402912345 -0.6087614290087215 0.0
  outer loop
    vertex -1.8384776310850224 1.8384776310850244 -15.0
    vertex -2.25166604983954 1.3000000000000012 3.9999999999999996
    vertex -2.25166604983954 1.3000000000000012 -15.0
  endloop
endfacet
facet normal 0.7933533402912345 -0.6087614290087215 0.0
  outer loop
    vertex -2.25166604983954 1.3000000000000012 3.9999999999999996
    vertex -1.8384776310850224 1.8384776310850244 -15.0
    vertex -1.8384776310850224 1.8384776310850244 3.9999999999999996
  endloop
endfacet
facet normal 0.9238795325112866 -0.38268343236509006 0.0
  outer loop
    vertex -2.25166604983954 1.3000000000000012 -15.0
    vertex -2.511407148351577 0.6729295172665559 3.9999999999999996
    vertex -2.511407148351577 0.6729295172665559 -15.0
  endloop
endfacet
facet normal 0.9238795325112866 -0.38268343236509006 0.0
  outer loop
    vertex -2.511407148351577 0.6729295172665559 3.9999999999999996
    vertex -2.25166604983954 1.3000000000000012 -15.0
    vertex -2.25166604983954 1.3000000000000012 3.9999999999999996
  endloop
endfacet
facet normal 0.9914448613738104 -0.13052619222005185 0.0
  outer loop
    vertex -2.511407148351577 0.6729295172665559 -15.0
    vertex -2.5999999999999996 4.776122516674677e-16 3.9999999999999996
    vertex -2.5999999999999996 4.776122516674677e-16 -15.0
  endloop
endfacet
facet normal 0.9914448613738104 -0.13052619222005185 0.0
  outer loop
    vertex -2.5999999999999996 4.776122516674677e-16 3.9999999999999996
    vertex -2.511407148351577 0.6729295172665559 -15.0
    vertex -2.511407148351577 0.6729295172665559 3.9999999999999996
  endloop
endfacet
facet normal 0.9914448613738106 0.1305261922200513 0.0
  outer loop
    vertex -2.5999999999999996 4.776122516674677e-16 -15.0
    vertex -2.511407148351578 -0.6729295172665527 7.999999999999999
    vertex -2.511407148351578 -0.6729295172665527 -15.0
  endloop
endfacet
facet normal 0.9914448613738106 0.1305261922200513 0.0
  outer loop
    vertex -2.511407148351578 -0.6729295172665527 7.999999999999999
    vertex -2.5999999999999996 4.776122516674677e-16 -15.0
    vertex -2.5999999999999996 4.776122516674677e-16 7.999999999999999
  endloop
endfacet
facet normal 0.9914448613738106 0.1305261922200513 0.0
  outer loop
    vertex -2.5999999999999996 4.776122516674677e-16 7.999999999999999
    vertex -2.5999999999999996 4.776122516674677e-16 -15.0
    vertex -2.5999999999999996 4.776122516674677e-16 3.9999999999999996
  endloop
endfacet
facet normal 0.9238795325112871 0.3826834323650891 0.0
  outer loop
    vertex -2.511407148351578 -0.6729295172665527 -15.0
    vertex -2.2516660498395416 -1.299999999999998 7.999999999999999
    vertex -2.2516660498395416 -1.299999999999998 -15.0
  endloop
endfacet
facet normal 0.9238795325112871 0.3826834323650891 0.0
  outer loop
    vertex -2.2516660498395416 -1.299999999999998 7.999999999999999
    vertex -2.511407148351578 -0.6729295172665527 -15.0
    vertex -2.511407148351578 -0.6729295172665527 7.999999999999999
  endloop
endfacet
facet normal 0.7933533402912353 0.6087614290087204 0.0
  outer loop
    vertex -2.2516660498395416 -1.299999999999998 -15.0
    vertex -1.8384776310850237 -1.838477631085023 3.9999999999999996
    vertex -1.8384776310850237 -1.838477631085023 -15.0
  endloop
endfacet
facet normal 0.7933533402912353 0.6087614290087204 0.0
  outer loop
    vertex -1.8384776310850237 -1.838477631085023 3.9999999999999996
    vertex -2.2516660498395416 -1.299999999999998 -15.0
    vertex -1.8384776310850237 -1.838477631085023 7.999999999999999
  endloop
endfacet
facet normal 0.7933533402912353 0.6087614290087204 0.0
  outer loop
    vertex -1.8384776310850237 -1.838477631085023 7.999999999999999
    vertex -2.2516660498395416 -1.299999999999998 -15.0
    vertex -2.2516660498395416 -1.299999999999998 7.999999999999999
  endloop
endfacet
facet normal 0.6087614290087212 0.7933533402912349 0.0
  outer loop
    vertex -1.8384776310850237 -1.838477631085023 3.9999999999999996
    vertex -1.3000000000000012 -2.2516660498395398 -15.0
    vertex -1.8384776310850237 -1.838477631085023 -15.0
  endloop
endfacet
facet normal 0.6087614290087212 0.7933533402912349 0.0
  outer loop
    vertex -1.3000000000000012 -2.2516660498395398 -15.0
    vertex -1.8384776310850237 -1.838477631085023 3.9999999999999996
    vertex -1.3000000000000012 -2.2516660498395398 3.9999999999999996
  endloop
endfacet
facet normal 0.3826834323650906 0.9238795325112866 0.0
  outer loop
    vertex -1.3000000000000012 -2.2516660498395398 3.9999999999999996
    vertex -0.672929517266556 -2.511407148351577 -15.0
    vertex -1.3000000000000012 -2.2516660498395398 -15.0
  endloop
endfacet
facet normal 0.3826834323650906 0.9238795325112866 0.0
  outer loop
    vertex -0.672929517266556 -2.511407148351577 -15.0
    vertex -1.3000000000000012 -2.2516660498395398 3.9999999999999996
    vertex -0.672929517266556 -2.511407148351577 3.9999999999999996
  endloop
endfacet
facet normal 0.13052619222005177 0.9914448613738104 0.0
  outer loop
    vertex -0.672929517266556 -2.511407148351577 3.9999999999999996
    vertex 0.0 -2.5999999999999996 -15.0
    vertex -0.672929517266556 -2.511407148351577 -15.0
  endloop
endfacet
facet normal 0.13052619222005177 0.9914448613738104 0.0
  outer loop
    vertex 0.0 -2.5999999999999996 -15.0
    vertex -0.672929517266556 -2.511407148351577 3.9999999999999996
    vertex 0.0 -2.5999999999999996 3.9999999999999996
  endloop
endfacet
facet normal -0.0 -0.0 1.0
  outer loop
    vertex 0.6729295172665546 2.511407148351577 3.9999999999999996
    vertex 4.286263797015736e-16 7.0 3.9999999999999996
    vertex 3.184081677783118e-16 2.5999999999999996 3.9999999999999996
  endloop
endfacet
facet normal -0.0 -0.0 1.0
  outer loop
    vertex 4.286263797015736e-16 7.0 3.9999999999999996
    vertex 0.6729295172665546 2.511407148351577 3.9999999999999996
    vertex 1.8117333157176467 6.761480784023478 3.9999999999999996
  endloop
endfacet
facet normal -0.0 -0.0 1.0
  outer loop
    vertex 1.8117333157176467 6.761480784023478 3.9999999999999996
    vertex 0.6729295172665546 2.511407148351577 3.9999999999999996
    vertex 1.3000000000000007 2.25166604983954 3.9999999999999996
  endloop
endfacet
facet normal -0.0 -0.0 1.0
  outer loop
    vertex 1.8117333157176467 6.761480784023478 3.9999999999999996
    vertex 1.3000000000000007 2.25166604983954 3.9999999999999996
    vertex 1.8384776310850237 1.8384776310850233 3.9999999999999996
  endloop
endfacet
facet normal -0.0 -0.0 1.0
  outer loop
    vertex 1.8117333157176467 6.761480784023478 3.9999999999999996
    vertex 1.8384776310850237 1.8384776310850233 3.9999999999999996
    vertex 3.5000000000000004 6.06217782649107 3.9999999999999996
  endloop
endfacet
facet normal -0.0 -0.0 1.0
  outer loop
    vertex 3.5000000000000004 6.06217782649107 3.9999999999999996
    vertex 1.8384776310850237 1.8384776310850233 3.9999999999999996
    vertex 4.949747468305833 4.949747468305833 3.9999999999999996
  endloop
endfacet
facet normal -0.0 -0.0 1.0
  outer loop
    vertex -3.5000000000000027 -6.0621778264910695 3.9999999999999996
    vertex -1.8384776310850237 -1.838477631085023 3.9999999999999996
    vertex -4.949747468305835 -4.949747468305829 3.9999999999999996
  endloop
endfacet
facet normal -0.0 -0.0 1.0
  outer loop
    vertex -1.8384776310850237 -1.838477631085023 3.9999999999999996
    vertex -3.5000000000000027 -6.0621778264910695 3.9999999999999996
    vertex -1.8117333157176505 -6.761480784023476 3.9999999999999996
  endloop
endfacet
facet normal -0.0 -0.0 1.0
  outer loop
    vertex -1.8384776310850237 -1.838477631085023 3.9999999999999996
    vertex -1.8117333157176505 -6.761480784023476 3.9999999999999996
    vertex -1.3000000000000012 -2.2516660498395398 3.9999999999999996
  endloop
endfacet
facet normal -0.0 -0.0 1.0
  outer loop
    vertex -1.3000000000000012 -2.2516660498395398 3.9999999999999996
    vertex -1.8117333157176505 -6.761480784023476 3.9999999999999996
    vertex -1.2858791391047208e-15 -7.0 3.9999999999999996
  endloop
endfacet
facet normal -0.0 -0.0 1.0
  outer loop
    vertex -1.3000000000000012 -2.2516660498395398 3.9999999999999996
    vertex -1.2858791391047208e-15 -7.0 3.9999999999999996
    vertex -0.672929517266556 -2.511407148351577 3.9999999999999996
  endloop
endfacet
facet normal -0.0 -0.0 1.0
  outer loop
    vertex -0.672929517266556 -2.511407148351577 3.9999999999999996
    vertex -1.2858791391047208e-15 -7.0 3.9999999999999996
    vertex 0.0 -2.5999999999999996 3.9999999999999996
  endloop
endfacet
facet normal -0.0 -0.0 1.0
  outer loop
    vertex -2.5999999999999996 4.776122516674677e-16 3.9999999999999996
    vertex -6.761480784023478 1.811733315717647 3.9999999999999996
    vertex -7.0 8.572527594031472e-16 3.9999999999999996
  endloop
endfacet
facet normal -0.0 -0.0 1.0
  outer loop
    vertex -6.761480784023478 1.811733315717647 3.9999999999999996
    vertex -2.5999999999999996 4.776122516674677e-16 3.9999999999999996
    vertex -6.0621778264910695 3.500000000000002 3.9999999999999996
  endloop
endfacet
facet normal -0.0 -0.0 1.0
  outer loop
    vertex -6.0621778264910695 3.500000000000002 3.9999999999999996
    vertex -2.5999999999999996 4.776122516674677e-16 3.9999999999999996
    vertex -4.949747468305833 4.949747468305833 3.9999999999999996
  endloop
endfacet
facet normal -0.0 -0.0 1.0
  outer loop
    vertex -4.949747468305833 4.949747468305833 3.9999999999999996
    vertex -2.5999999999999996 4.776122516674677e-16 3.9999999999999996
    vertex -2.511407148351577 0.6729295172665559 3.9999999999999996
  endloop
endfacet
facet normal -0.0 -0.0 1.0
  outer loop
    vertex -4.949747468305833 4.949747468305833 3.9999999999999996
    vertex -2.511407148351577 0.6729295172665559 3.9999999999999996
    vertex -2.25166604983954 1.3000000000000012 3.9999999999999996
  endloop
endfacet
facet normal -0.0 -0.0 1.0
  outer loop
    vertex -4.949747468305833 4.949747468305833 3.9999999999999996
    vertex -2.25166604983954 1.3000000000000012 3.9999999999999996
    vertex -1.8384776310850224 1.8384776310850244 3.9999999999999996
  endloop
endfacet
facet normal 0.0 0.0 1.0
  outer loop
    vertex 2.25166604983954 1.2999999999999994 7.999999999999999
    vertex 4.949747468305833 4.949747468305833 7.999999999999999
    vertex 1.8384776310850237 1.8384776310850233 7.999999999999999
  endloop
endfacet
facet normal 0.0 0.0 1.0
  outer loop
    vertex 4.949747468305833 4.949747468305833 7.999999999999999
    vertex 2.25166604983954 1.2999999999999994 7.999999999999999
    vertex 2.5114071483515774 0.6729295172665536 7.999999999999999
  endloop
endfacet
facet normal 0.0 0.0 1.0
  outer loop
    vertex 4.949747468305833 4.949747468305833 7.999999999999999
    vertex 2.5114071483515774 0.6729295172665536 7.999999999999999
    vertex 2.5999999999999996 -1.592040838891559e-16 7.999999999999999
  endloop
endfacet
facet normal 0.0 0.0 1.0
  outer loop
    vertex 4.949747468305833 4.949747468305833 7.999999999999999
    vertex 2.5999999999999996 -1.592040838891559e-16 7.999999999999999
    vertex 7.0 0.0 7.999999999999999
  endloop
endfacet
facet normal 0.0 0.0 1.0
  outer loop
    vertex 4.949747468305833 4.949747468305833 7.999999999999999
    vertex 7.0 0.0 7.999999999999999
    vertex 6.06217782649107 3.499999999999999 7.999999999999999
  endloop
endfacet
facet normal 0.0 0.0 1.0
  outer loop
    vertex 6.06217782649107 3.499999999999999 7.999999999999999
    vertex 7.0 0.0 7.999999999999999
    vertex 6.761480784023478 1.8117333157176452 7.999999999999999
  endloop
endfacet
facet normal 3.618274633844452e-17 -1.0 0.0
  outer loop
    vertex 7.0 0.0 7.999999999999999
    vertex 2.5999999999999996 -1.592040838891559e-16 3.9999999999999996
    vertex 7.0 0.0 3.9999999999999996
  endloop
endfacet
facet normal 3.618274633844452e-17 -1.0 0.0
  outer loop
    vertex 2.5999999999999996 -1.592040838891559e-16 3.9999999999999996
    vertex 7.0 0.0 7.999999999999999
    vertex 2.5999999999999996 -1.592040838891559e-16 7.999999999999999
  endloop
endfacet
facet normal -0.7071067811865476 0.7071067811865475 0.0
  outer loop
    vertex 4.949747468305833 4.949747468305833 7.999999999999999
    vertex 1.8384776310850237 1.8384776310850233 3.9999999999999996
    vertex 1.8384776310850237 1.8384776310850233 7.999999999999999
  endloop
endfacet
facet normal -0.7071067811865476 0.7071067811865475 0.0
  outer loop
    vertex 1.8384776310850237 1.8384776310850233 3.9999999999999996
    vertex 4.949747468305833 4.949747468305833 7.999999999999999
    vertex 4.949747468305833 4.949747468305833 3.9999999999999996
  endloop
endfacet
facet normal 0.38268343236508917 -0.923879532511287 0.0
  outer loop
    vertex 3.499999999999995 -6.062177826491073 7.999999999999999
    vertex 1.811733315717642 -6.761480784023479 0.0
    vertex 3.499999999999995 -6.062177826491073 0.0
  endloop
endfacet
facet normal 0.38268343236508917 -0.923879532511287 0.0
  outer loop
    vertex 1.811733315717642 -6.761480784023479 0.0
    vertex 3.499999999999995 -6.062177826491073 7.999999999999999
    vertex 1.811733315717642 -6.761480784023479 7.999999999999999
  endloop
endfacet
facet normal 0.13052619222005113 -0.9914448613738106 0.0
  outer loop
    vertex 1.811733315717642 -6.761480784023479 7.999999999999999
    vertex -1.2858791391047208e-15 -7.0 0.0
    vertex 1.811733315717642 -6.761480784023479 0.0
  endloop
endfacet
facet normal 0.13052619222005113 -0.9914448613738106 0.0
  outer loop
    vertex -1.2858791391047208e-15 -7.0 0.0
    vertex 1.811733315717642 -6.761480784023479 7.999999999999999
    vertex -1.2858791391047208e-15 -7.0 3.9999999999999996
  endloop
endfacet
facet normal 0.13052619222005113 -0.9914448613738106 0.0
  outer loop
    vertex -1.2858791391047208e-15 -7.0 3.9999999999999996
    vertex 1.811733315717642 -6.761480784023479 7.999999999999999
    vertex -1.2858791391047208e-15 -7.0 7.999999999999999
  endloop
endfacet
facet normal -0.6087614290087201 0.7933533402912357 0.0
  outer loop
    vertex 1.2999999999999998 -2.25166604983954 7.999999999999999
    vertex 1.8384776310850237 -1.8384776310850237 -15.0
    vertex 1.2999999999999998 -2.25166604983954 -15.0
  endloop
endfacet
facet normal -0.6087614290087201 0.7933533402912357 0.0
  outer loop
    vertex 1.8384776310850237 -1.8384776310850237 -15.0
    vertex 1.2999999999999998 -2.25166604983954 7.999999999999999
    vertex 1.8384776310850237 -1.8384776310850237 3.9999999999999996
  endloop
endfacet
facet normal -0.6087614290087201 0.7933533402912357 0.0
  outer loop
    vertex 1.8384776310850237 -1.8384776310850237 3.9999999999999996
    vertex 1.2999999999999998 -2.25166604983954 7.999999999999999
    vertex 1.8384776310850237 -1.8384776310850237 7.999999999999999
  endloop
endfacet
facet normal -0.3826834323650897 0.9238795325112867 0.0
  outer loop
    vertex 0.6729295172665539 -2.5114071483515774 7.999999999999999
    vertex 1.2999999999999998 -2.25166604983954 -15.0
    vertex 0.6729295172665539 -2.5114071483515774 -15.0
  endloop
endfacet
facet normal -0.3826834323650897 0.9238795325112867 0.0
  outer loop
    vertex 1.2999999999999998 -2.25166604983954 -15.0
    vertex 0.6729295172665539 -2.5114071483515774 7.999999999999999
    vertex 1.2999999999999998 -2.25166604983954 7.999999999999999
  endloop
endfacet
facet normal 0.6087614290087203 -0.7933533402912356 0.0
  outer loop
    vertex 4.949747468305832 -4.949747468305834 3.9999999999999996
    vertex 3.499999999999995 -6.062177826491073 0.0
    vertex 4.949747468305832 -4.949747468305834 0.0
  endloop
endfacet
facet normal 0.6087614290087203 -0.7933533402912356 0.0
  outer loop
    vertex 3.499999999999995 -6.062177826491073 0.0
    vertex 4.949747468305832 -4.949747468305834 3.9999999999999996
    vertex 3.499999999999995 -6.062177826491073 7.999999999999999
  endloop
endfacet
facet normal 0.6087614290087203 -0.7933533402912356 0.0
  outer loop
    vertex 3.499999999999995 -6.062177826491073 7.999999999999999
    vertex 4.949747468305832 -4.949747468305834 3.9999999999999996
    vertex 4.949747468305832 -4.949747468305834 7.999999999999999
  endloop
endfacet
facet normal -0.13052619222005166 0.9914448613738105 0.0
  outer loop
    vertex 0.0 -2.5999999999999996 3.9999999999999996
    vertex 0.6729295172665539 -2.5114071483515774 -15.0
    vertex 0.0 -2.5999999999999996 -15.0
  endloop
endfacet
facet normal -0.13052619222005166 0.9914448613738105 0.0
  outer loop
    vertex 0.6729295172665539 -2.5114071483515774 -15.0
    vertex 0.0 -2.5999999999999996 3.9999999999999996
    vertex 0.6729295172665539 -2.5114071483515774 7.999999999999999
  endloop
endfacet
facet normal -0.13052619222005166 0.9914448613738105 0.0
  outer loop
    vertex 0.6729295172665539 -2.5114071483515774 7.999999999999999
    vertex 0.0 -2.5999999999999996 3.9999999999999996
    vertex 0.0 -2.5999999999999996 7.999999999999999
  endloop
endfacet
facet normal 0.0 0.0 1.0
  outer loop
    vertex 1.811733315717642 -6.761480784023479 7.999999999999999
    vertex 0.0 -2.5999999999999996 7.999999999999999
    vertex -1.2858791391047208e-15 -7.0 7.999999999999999
  endloop
endfacet
facet normal 0.0 0.0 1.0
  outer loop
    vertex 0.0 -2.5999999999999996 7.999999999999999
    vertex 1.811733315717642 -6.761480784023479 7.999999999999999
    vertex 0.6729295172665539 -2.5114071483515774 7.999999999999999
  endloop
endfacet
facet normal 0.0 0.0 1.0
  outer loop
    vertex 0.6729295172665539 -2.5114071483515774 7.999999999999999
    vertex 1.811733315717642 -6.761480784023479 7.999999999999999
    vertex 1.2999999999999998 -2.25166604983954 7.999999999999999
  endloop
endfacet
facet normal 0.0 0.0 1.0
  outer loop
    vertex 1.2999999999999998 -2.25166604983954 7.999999999999999
    vertex 1.811733315717642 -6.761480784023479 7.999999999999999
    vertex 1.8384776310850237 -1.8384776310850237 7.999999999999999
  endloop
endfacet
facet normal 0.0 0.0 1.0
  outer loop
    vertex 1.8384776310850237 -1.8384776310850237 7.999999999999999
    vertex 1.811733315717642 -6.761480784023479 7.999999999999999
    vertex 3.499999999999995 -6.062177826491073 7.999999999999999
  endloop
endfacet
facet normal 0.0 0.0 1.0
  outer loop
    vertex 1.8384776310850237 -1.8384776310850237 7.999999999999999
    vertex 3.499999999999995 -6.062177826491073 7.999999999999999
    vertex 4.949747468305832 -4.949747468305834 7.999999999999999
  endloop
endfacet
facet normal -1.0 2.922452588874365e-16 0.0
  outer loop
    vertex 0.0 -2.5999999999999996 7.999999999999999
    vertex -1.2858791391047208e-15 -7.0 3.9999999999999996
    vertex -1.2858791391047208e-15 -7.0 7.999999999999999
  endloop
endfacet
facet normal -1.0 2.922452588874365e-16 0.0
  outer loop
    vertex -1.2858791391047208e-15 -7.0 3.9999999999999996
    vertex 0.0 -2.5999999999999996 7.999999999999999
    vertex 0.0 -2.5999999999999996 3.9999999999999996
  endloop
endfacet
facet normal 0.7071067811865478 0.7071067811865472 0.0
  outer loop
    vertex 1.8384776310850237 -1.8384776310850237 3.9999999999999996
    vertex 4.949747468305832 -4.949747468305834 7.999999999999999
    vertex 4.949747468305832 -4.949747468305834 3.9999999999999996
  endloop
endfacet
facet normal 0.7071067811865478 0.7071067811865472 0.0
  outer loop
    vertex 4.949747468305832 -4.949747468305834 7.999999999999999
    vertex 1.8384776310850237 -1.8384776310850237 3.9999999999999996
    vertex 1.8384776310850237 -1.8384776310850237 7.999999999999999
  endloop
endfacet
facet normal 0.0 0.0 1.0
  outer loop
    vertex -6.761480784023479 -1.8117333157176425 7.999999999999999
    vertex -2.5999999999999996 4.776122516674677e-16 7.999999999999999
    vertex -7.0 8.572527594031472e-16 7.999999999999999
  endloop
endfacet
facet normal 0.0 0.0 1.0
  outer loop
    vertex -2.5999999999999996 4.776122516674677e-16 7.999999999999999
    vertex -6.761480784023479 -1.8117333157176425 7.999999999999999
    vertex -6.062177826491071 -3.499999999999998 7.999999999999999
  endloop
endfacet
facet normal 0.0 0.0 1.0
  outer loop
    vertex -2.5999999999999996 4.776122516674677e-16 7.999999999999999
    vertex -6.062177826491071 -3.499999999999998 7.999999999999999
    vertex -4.949747468305835 -4.949747468305829 7.999999999999999
  endloop
endfacet
facet normal 0.0 0.0 1.0
  outer loop
    vertex -2.5999999999999996 4.776122516674677e-16 7.999999999999999
    vertex -4.949747468305835 -4.949747468305829 7.999999999999999
    vertex -2.511407148351578 -0.6729295172665527 7.999999999999999
  endloop
endfacet
facet normal 0.0 0.0 1.0
  outer loop
    vertex -2.511407148351578 -0.6729295172665527 7.999999999999999
    vertex -4.949747468305835 -4.949747468305829 7.999999999999999
    vertex -2.2516660498395416 -1.299999999999998 7.999999999999999
  endloop
endfacet
facet normal 0.0 0.0 1.0
  outer loop
    vertex -2.2516660498395416 -1.299999999999998 7.999999999999999
    vertex -4.949747468305835 -4.949747468305829 7.999999999999999
    vertex -1.8384776310850237 -1.838477631085023 7.999999999999999
  endloop
endfacet
facet normal 8.628193357629079e-17 1.0 0.0
  outer loop
    vertex -7.0 8.572527594031472e-16 7.999999999999999
    vertex -2.5999999999999996 4.776122516674677e-16 3.9999999999999996
    vertex -7.0 8.572527594031472e-16 3.9999999999999996
  endloop
endfacet
facet normal 8.628193357629079e-17 1.0 0.0
  outer loop
    vertex -2.5999999999999996 4.776122516674677e-16 3.9999999999999996
    vertex -7.0 8.572527594031472e-16 7.999999999999999
    vertex -2.5999999999999996 4.776122516674677e-16 7.999999999999999
  endloop
endfacet
facet normal 0.707106781186547 -0.7071067811865481 0.0
  outer loop
    vertex -1.8384776310850237 -1.838477631085023 7.999999999999999
    vertex -4.949747468305835 -4.949747468305829 3.9999999999999996
    vertex -1.8384776310850237 -1.838477631085023 3.9999999999999996
  endloop
endfacet
facet normal 0.707106781186547 -0.7071067811865481 0.0
  outer loop
    vertex -4.949747468305835 -4.949747468305829 3.9999999999999996
    vertex -1.8384776310850237 -1.838477631085023 7.999999999999999
    vertex -4.949747468305835 -4.949747468305829 7.999999999999999
  endloop
endfacet
facet normal 0.0 0.0 1.0
  outer loop
    vertex -1.8384776310850224 1.8384776310850244 7.999999999999999
    vertex -3.4999999999999987 6.06217782649107 7.999999999999999
    vertex -4.949747468305833 4.949747468305833 7.999999999999999
  endloop
endfacet
facet normal 0.0 0.0 1.0
  outer loop
    vertex -3.4999999999999987 6.06217782649107 7.999999999999999
    vertex -1.8384776310850224 1.8384776310850244 7.999999999999999
    vertex -1.8117333157176443 6.761480784023478 7.999999999999999
  endloop
endfacet
facet normal 0.0 0.0 1.0
  outer loop
    vertex -1.8117333157176443 6.761480784023478 7.999999999999999
    vertex -1.8384776310850224 1.8384776310850244 7.999999999999999
    vertex -1.2999999999999992 2.2516660498395407 7.999999999999999
  endloop
endfacet
facet normal 0.0 0.0 1.0
  outer loop
    vertex -1.8117333157176443 6.761480784023478 7.999999999999999
    vertex -1.2999999999999992 2.2516660498395407 7.999999999999999
    vertex 4.286263797015736e-16 7.0 7.999999999999999
  endloop
endfacet
facet normal 0.0 0.0 1.0
  outer loop
    vertex 4.286263797015736e-16 7.0 7.999999999999999
    vertex -1.2999999999999992 2.2516660498395407 7.999999999999999
    vertex -0.6729295172665528 2.511407148351578 7.999999999999999
  endloop
endfacet
facet normal 0.0 0.0 1.0
  outer loop
    vertex 4.286263797015736e-16 7.0 7.999999999999999
    vertex -0.6729295172665528 2.511407148351578 7.999999999999999
    vertex 3.184081677783118e-16 2.5999999999999996 7.999999999999999
  endloop
endfacet
facet normal -0.7071067811865474 -0.7071067811865477 -0.0
  outer loop
    vertex -1.8384776310850224 1.8384776310850244 7.999999999999999
    vertex -4.949747468305833 4.949747468305833 3.9999999999999996
    vertex -1.8384776310850224 1.8384776310850244 3.9999999999999996
  endloop
endfacet
facet normal -0.7071067811865474 -0.7071067811865477 -0.0
  outer loop
    vertex -4.949747468305833 4.949747468305833 3.9999999999999996
    vertex -1.8384776310850224 1.8384776310850244 7.999999999999999
    vertex -4.949747468305833 4.949747468305833 7.999999999999999
  endloop
endfacet
facet normal 1.0 -2.504959361892313e-17 0.0
  outer loop
    vertex 4.286263797015736e-16 7.0 3.9999999999999996
    vertex 3.184081677783118e-16 2.5999999999999996 7.999999999999999
    vertex 3.184081677783118e-16 2.5999999999999996 3.9999999999999996
  endloop
endfacet
facet normal 1.0 -2.504959361892313e-17 0.0
  outer loop
    vertex 3.184081677783118e-16 2.5999999999999996 7.999999999999999
    vertex 4.286263797015736e-16 7.0 3.9999999999999996
    vertex 4.286263797015736e-16 7.0 7.999999999999999
  endloop
endfacet
facet normal 0.0 0.0 -1.0
  outer loop
    vertex -2.8284271247461885 2.828427124746191 -15.0
    vertex -2.511407148351577 0.6729295172665559 -15.0
    vertex -2.5999999999999996 4.776122516674677e-16 -15.0
  endloop
endfacet
facet normal 0.0 0.0 -1.0
  outer loop
    vertex -2.511407148351577 0.6729295172665559 -15.0
    vertex -2.8284271247461885 2.828427124746191 -15.0
    vertex -1.999999999999999 3.4641016151377544 -15.0
  endloop
endfacet
facet normal 0.0 0.0 -1.0
  outer loop
    vertex -2.511407148351577 0.6729295172665559 -15.0
    vertex -1.999999999999999 3.4641016151377544 -15.0
    vertex -2.25166604983954 1.3000000000000012 -15.0
  endloop
endfacet
facet normal 0.0 0.0 -1.0
  outer loop
    vertex -2.25166604983954 1.3000000000000012 -15.0
    vertex -1.999999999999999 3.4641016151377544 -15.0
    vertex -1.8384776310850224 1.8384776310850244 -15.0
  endloop
endfacet
facet normal 0.0 0.0 -1.0
  outer loop
    vertex -1.8384776310850224 1.8384776310850244 -15.0
    vertex -1.999999999999999 3.4641016151377544 -15.0
    vertex -1.0352761804100814 3.863703305156273 -15.0
  endloop
endfacet
facet normal 0.0 0.0 -1.0
  outer loop
    vertex -1.8384776310850224 1.8384776310850244 -15.0
    vertex -1.0352761804100814 3.863703305156273 -15.0
    vertex -1.2999999999999992 2.2516660498395407 -15.0
  endloop
endfacet
facet normal 0.0 0.0 -1.0
  outer loop
    vertex -1.2999999999999992 2.2516660498395407 -15.0
    vertex -1.0352761804100814 3.863703305156273 -15.0
    vertex -0.6729295172665528 2.511407148351578 -15.0
  endloop
endfacet
facet normal 0.0 0.0 -1.0
  outer loop
    vertex -0.6729295172665528 2.511407148351578 -15.0
    vertex -1.0352761804100814 3.863703305156273 -15.0
    vertex 4.898587196589412e-16 3.999999999999999 -15.0
  endloop
endfacet
facet normal 0.0 0.0 -1.0
  outer loop
    vertex -0.6729295172665528 2.511407148351578 -15.0
    vertex 4.898587196589412e-16 3.999999999999999 -15.0
    vertex 3.184081677783118e-16 2.5999999999999996 -15.0
  endloop
endfacet
facet normal 0.0 0.0 -1.0
  outer loop
    vertex 3.184081677783118e-16 2.5999999999999996 -15.0
    vertex 4.898587196589412e-16 3.999999999999999 -15.0
    vertex 0.6729295172665546 2.511407148351577 -15.0
  endloop
endfacet
facet normal 0.0 0.0 -1.0
  outer loop
    vertex 0.6729295172665546 2.511407148351577 -15.0
    vertex 4.898587196589412e-16 3.999999999999999 -15.0
    vertex 1.035276180410084 3.863703305156272 -15.0
  endloop
endfacet
facet normal 0.0 0.0 -1.0
  outer loop
    vertex 0.6729295172665546 2.511407148351577 -15.0
    vertex 1.035276180410084 3.863703305156272 -15.0
    vertex 1.3000000000000007 2.25166604983954 -15.0
  endloop
endfacet
facet normal 0.0 0.0 -1.0
  outer loop
    vertex 1.3000000000000007 2.25166604983954 -15.0
    vertex 1.035276180410084 3.863703305156272 -15.0
    vertex 2.0000000000000013 3.464101615137753 -15.0
  endloop
endfacet
facet normal 0.0 0.0 -1.0
  outer loop
    vertex 1.3000000000000007 2.25166604983954 -15.0
    vertex 2.0000000000000013 3.464101615137753 -15.0
    vertex 1.8384776310850237 1.8384776310850233 -15.0
  endloop
endfacet
facet normal 0.0 0.0 -1.0
  outer loop
    vertex 1.8384776310850237 1.8384776310850233 -15.0
    vertex 2.0000000000000013 3.464101615137753 -15.0
    vertex 2.25166604983954 1.2999999999999994 -15.0
  endloop
endfacet
facet normal 0.0 0.0 -1.0
  outer loop
    vertex 2.25166604983954 1.2999999999999994 -15.0
    vertex 2.0000000000000013 3.464101615137753 -15.0
    vertex 2.8284271247461903 2.8284271247461894 -15.0
  endloop
endfacet
facet normal 0.0 0.0 -1.0
  outer loop
    vertex 2.25166604983954 1.2999999999999994 -15.0
    vertex 2.8284271247461903 2.8284271247461894 -15.0
    vertex 2.5114071483515774 0.6729295172665536 -15.0
  endloop
endfacet
facet normal 0.0 0.0 -1.0
  outer loop
    vertex 2.5114071483515774 0.6729295172665536 -15.0
    vertex 2.8284271247461903 2.8284271247461894 -15.0
    vertex 2.5999999999999996 -1.592040838891559e-16 -15.0
  endloop
endfacet
facet normal 0.0 0.0 -1.0
  outer loop
    vertex -3.863703305156272 1.0352761804100858 -15.0
    vertex -3.8637033051562732 -1.035276180410081 -15.0
    vertex -3.9999999999999996 7.347880794884117e-16 -15.0
  endloop
endfacet
facet normal 0.0 0.0 -1.0
  outer loop
    vertex -3.8637033051562732 -1.035276180410081 -15.0
    vertex -3.863703305156272 1.0352761804100858 -15.0
    vertex -3.464101615137756 -1.9999999999999967 -15.0
  endloop
endfacet
facet normal 0.0 0.0 -1.0
  outer loop
    vertex -3.464101615137756 -1.9999999999999967 -15.0
    vertex -3.863703305156272 1.0352761804100858 -15.0
    vertex -3.464101615137753 2.0000000000000013 -15.0
  endloop
endfacet
facet normal 0.0 0.0 -1.0
  outer loop
    vertex -3.464101615137756 -1.9999999999999967 -15.0
    vertex -3.464101615137753 2.0000000000000013 -15.0
    vertex -2.8284271247461903 -2.8284271247461885 -15.0
  endloop
endfacet
facet normal 0.0 0.0 -1.0
  outer loop
    vertex -2.8284271247461903 -2.8284271247461885 -15.0
    vertex -3.464101615137753 2.0000000000000013 -15.0
    vertex -2.8284271247461885 2.828427124746191 -15.0
  endloop
endfacet
facet normal 0.0 0.0 -1.0
  outer loop
    vertex -2.8284271247461903 -2.8284271247461885 -15.0
    vertex -2.8284271247461885 2.828427124746191 -15.0
    vertex -2.5999999999999996 4.776122516674677e-16 -15.0
  endloop
endfacet
facet normal 0.0 0.0 -1.0
  outer loop
    vertex -2.8284271247461903 -2.8284271247461885 -15.0
    vertex -2.5999999999999996 4.776122516674677e-16 -15.0
    vertex -2.511407148351578 -0.6729295172665527 -15.0
  endloop
endfacet
facet normal 0.0 0.0 -1.0
  outer loop
    vertex -2.8284271247461903 -2.8284271247461885 -15.0
    vertex -2.511407148351578 -0.6729295172665527 -15.0
    vertex -2.0000000000000018 -3.4641016151377526 -15.0
  endloop
endfacet
facet normal 0.0 0.0 -1.0
  outer loop
    vertex -2.0000000000000018 -3.4641016151377526 -15.0
    vertex -2.511407148351578 -0.6729295172665527 -15.0
    vertex -2.2516660498395416 -1.299999999999998 -15.0
  endloop
endfacet
facet normal 0.0 0.0 -1.0
  outer loop
    vertex -2.0000000000000018 -3.4641016151377526 -15.0
    vertex -2.2516660498395416 -1.299999999999998 -15.0
    vertex -1.8384776310850237 -1.838477631085023 -15.0
  endloop
endfacet
facet normal 0.0 0.0 -1.0
  outer loop
    vertex -2.0000000000000018 -3.4641016151377526 -15.0
    vertex -1.8384776310850237 -1.838477631085023 -15.0
    vertex -1.035276180410086 -3.8637033051562715 -15.0
  endloop
endfacet
facet normal 0.0 0.0 -1.0
  outer loop
    vertex -1.035276180410086 -3.8637033051562715 -15.0
    vertex -1.8384776310850237 -1.838477631085023 -15.0
    vertex -1.3000000000000012 -2.2516660498395398 -15.0
  endloop
endfacet
facet normal 0.0 0.0 -1.0
  outer loop
    vertex -1.035276180410086 -3.8637033051562715 -15.0
    vertex -1.3000000000000012 -2.2516660498395398 -15.0
    vertex -0.672929517266556 -2.511407148351577 -15.0
  endloop
endfacet
facet normal 0.0 0.0 -1.0
  outer loop
    vertex -1.035276180410086 -3.8637033051562715 -15.0
    vertex -0.672929517266556 -2.511407148351577 -15.0
    vertex 0.0 -3.999999999999999 -15.0
  endloop
endfacet
facet normal 0.0 0.0 -1.0
  outer loop
    vertex 0.0 -3.999999999999999 -15.0
    vertex -0.672929517266556 -2.511407148351577 -15.0
    vertex 0.0 -2.5999999999999996 -15.0
  endloop
endfacet
facet normal 0.0 0.0 -1.0
  outer loop
    vertex 0.0 -3.999999999999999 -15.0
    vertex 0.0 -2.5999999999999996 -15.0
    vertex 0.6729295172665539 -2.5114071483515774 -15.0
  endloop
endfacet
facet normal 0.0 0.0 -1.0
  outer loop
    vertex 0.0 -3.999999999999999 -15.0
    vertex 0.6729295172665539 -2.5114071483515774 -15.0
    vertex 1.035276180410083 -3.863703305156272 -15.0
  endloop
endfacet
facet normal 0.0 0.0 -1.0
  outer loop
    vertex 1.035276180410083 -3.863703305156272 -15.0
    vertex 0.6729295172665539 -2.5114071483515774 -15.0
    vertex 1.2999999999999998 -2.25166604983954 -15.0
  endloop
endfacet
facet normal 0.0 0.0 -1.0
  outer loop
    vertex 1.035276180410083 -3.863703305156272 -15.0
    vertex 1.2999999999999998 -2.25166604983954 -15.0
    vertex 1.9999999999999996 -3.464101615137754 -15.0
  endloop
endfacet
facet normal 0.0 0.0 -1.0
  outer loop
    vertex 1.9999999999999996 -3.464101615137754 -15.0
    vertex 1.2999999999999998 -2.25166604983954 -15.0
    vertex 1.8384776310850237 -1.8384776310850237 -15.0
  endloop
endfacet
facet normal 0.0 0.0 -1.0
  outer loop
    vertex 1.9999999999999996 -3.464101615137754 -15.0
    vertex 1.8384776310850237 -1.8384776310850237 -15.0
    vertex 2.25166604983954 -1.3000000000000003 -15.0
  endloop
endfacet
facet normal 0.0 0.0 -1.0
  outer loop
    vertex 1.9999999999999996 -3.464101615137754 -15.0
    vertex 2.25166604983954 -1.3000000000000003 -15.0
    vertex 2.8284271247461903 -2.82842712474619 -15.0
  endloop
endfacet
facet normal 0.0 0.0 -1.0
  outer loop
    vertex 2.8284271247461903 -2.82842712474619 -15.0
    vertex 2.25166604983954 -1.3000000000000003 -15.0
    vertex 2.511407148351577 -0.6729295172665544 -15.0
  endloop
endfacet
facet normal 0.0 0.0 -1.0
  outer loop
    vertex 2.8284271247461903 -2.82842712474619 -15.0
    vertex 2.511407148351577 -0.6729295172665544 -15.0
    vertex 2.5999999999999996 -1.592040838891559e-16 -15.0
  endloop
endfacet
facet normal 0.0 0.0 -1.0
  outer loop
    vertex 2.8284271247461903 -2.82842712474619 -15.0
    vertex 2.5999999999999996 -1.592040838891559e-16 -15.0
    vertex 2.8284271247461903 2.8284271247461894 -15.0
  endloop
endfacet
facet normal 0.0 0.0 -1.0
  outer loop
    vertex 2.8284271247461903 -2.82842712474619 -15.0
    vertex 2.8284271247461903 2.8284271247461894 -15.0
    vertex 3.4641016151377544 1.9999999999999984 -15.0
  endloop
endfacet
facet normal 0.0 0.0 -1.0
  outer loop
    vertex 2.8284271247461903 -2.82842712474619 -15.0
    vertex 3.4641016151377544 1.9999999999999984 -15.0
    vertex 3.464101615137754 -1.9999999999999998 -15.0
  endloop
endfacet
facet normal 0.0 0.0 -1.0
  outer loop
    vertex 3.464101615137754 -1.9999999999999998 -15.0
    vertex 3.4641016151377544 1.9999999999999984 -15.0
    vertex 3.863703305156273 -1.0352761804100836 -15.0
  endloop
endfacet
facet normal 0.0 0.0 -1.0
  outer loop
    vertex 3.863703305156273 -1.0352761804100836 -15.0
    vertex 3.4641016151377544 1.9999999999999984 -15.0
    vertex 3.863703305156273 1.0352761804100823 -15.0
  endloop
endfacet
facet normal 0.0 0.0 -1.0
  outer loop
    vertex 3.863703305156273 -1.0352761804100836 -15.0
    vertex 3.863703305156273 1.0352761804100823 -15.0
    vertex 3.9999999999999996 -2.449293598294706e-16 -15.0
  endloop
endfacet
facet normal 0.553226967028556 0.07283371194200934 -0.8298404505428341
  outer loop
    vertex 6.761480784023478 1.8117333157176452 0.0
    vertex 3.9999999999999996 -1.762479051592436e-16 -1.9999999999999998
    vertex 3.863703305156273 1.0352761804100825 -1.9999999999999998
  endloop
endfacet
facet normal 0.553226967028556 0.07283371194200934 -0.8298404505428341
  outer loop
    vertex 3.9999999999999996 -1.762479051592436e-16 -1.9999999999999998
    vertex 6.761480784023478 1.8117333157176452 0.0
    vertex 7.0 0.0 0.0
  endloop
endfacet
facet normal 0.553226967028556 -0.07283371194200954 -0.8298404505428341
  outer loop
    vertex 3.9999999999999996 -1.762479051592436e-16 -1.9999999999999998
    vertex 6.761480784023476 -1.811733315717651 0.0
    vertex 3.863703305156273 -1.0352761804100836 -1.9999999999999998
  endloop
endfacet
facet normal 0.553226967028556 -0.07283371194200954 -0.8298404505428341
  outer loop
    vertex 6.761480784023476 -1.811733315717651 0.0
    vertex 3.9999999999999996 -1.762479051592436e-16 -1.9999999999999998
    vertex 7.0 0.0 0.0
  endloop
endfacet
facet normal 0.51552546347635 -0.21353763872058013 -0.829840450542834
  outer loop
    vertex 3.863703305156273 -1.0352761804100836 -1.9999999999999998
    vertex 6.062177826491069 -3.5000000000000027 0.0
    vertex 3.464101615137754 -1.9999999999999998 -1.9999999999999998
  endloop
endfacet
facet normal 0.51552546347635 -0.21353763872058013 -0.829840450542834
  outer loop
    vertex 6.062177826491069 -3.5000000000000027 0.0
    vertex 3.863703305156273 -1.0352761804100836 -1.9999999999999998
    vertex 6.761480784023476 -1.811733315717651 0.0
  endloop
endfacet
facet normal 0.44269175153434054 -0.33968932830797616 -0.829840450542834
  outer loop
    vertex 3.464101615137754 -1.9999999999999998 -1.9999999999999998
    vertex 4.949747468305832 -4.949747468305834 0.0
    vertex 2.82842712474619 -2.8284271247461903 -1.9999999999999998
  endloop
endfacet
facet normal 0.44269175153434054 -0.33968932830797616 -0.829840450542834
  outer loop
    vertex 4.949747468305832 -4.949747468305834 0.0
    vertex 3.464101615137754 -1.9999999999999998 -1.9999999999999998
    vertex 6.062177826491069 -3.5000000000000027 0.0
  endloop
endfacet
facet normal 0.33968932830797594 -0.4426917515343408 -0.829840450542834
  outer loop
    vertex 2.82842712474619 -2.8284271247461903 -1.9999999999999998
    vertex 3.499999999999995 -6.062177826491073 0.0
    vertex 1.999999999999999 -3.464101615137754 -1.9999999999999998
  endloop
endfacet
facet normal 0.33968932830797594 -0.4426917515343408 -0.829840450542834
  outer loop
    vertex 3.499999999999995 -6.062177826491073 0.0
    vertex 2.82842712474619 -2.8284271247461903 -1.9999999999999998
    vertex 4.949747468305832 -4.949747468305834 0.0
  endloop
endfacet
facet normal 0.2135376387205797 -0.51552546347635 -0.829840450542834
  outer loop
    vertex 1.999999999999999 -3.464101615137754 -1.9999999999999998
    vertex 1.811733315717642 -6.761480784023479 0.0
    vertex 1.0352761804100825 -3.863703305156272 -1.9999999999999998
  endloop
endfacet
facet normal 0.2135376387205797 -0.51552546347635 -0.829840450542834
  outer loop
    vertex 1.811733315717642 -6.761480784023479 0.0
    vertex 1.999999999999999 -3.464101615137754 -1.9999999999999998
    vertex 3.499999999999995 -6.062177826491073 0.0
  endloop
endfacet
facet normal 0.07283371194200908 -0.5532269670285558 -0.829840450542834
  outer loop
    vertex 0.0 -3.999999999999999 -1.9999999999999998
    vertex 1.811733315717642 -6.761480784023479 0.0
    vertex -1.2858791391047208e-15 -7.0 0.0
  endloop
endfacet
facet normal 0.07283371194200908 -0.5532269670285558 -0.829840450542834
  outer loop
    vertex 1.811733315717642 -6.761480784023479 0.0
    vertex 0.0 -3.999999999999999 -1.9999999999999998
    vertex 1.0352761804100825 -3.863703305156272 -1.9999999999999998
  endloop
endfacet
facet normal -0.07283371194200958 -0.5532269670285558 -0.829840450542834
  outer loop
    vertex -1.035276180410086 -3.8637033051562715 -1.9999999999999998
    vertex -1.2858791391047208e-15 -7.0 0.0
    vertex -1.8117333157176505 -6.761480784023476 0.0
  endloop
endfacet
facet normal -0.07283371194200958 -0.5532269670285558 -0.829840450542834
  outer loop
    vertex -1.2858791391047208e-15 -7.0 0.0
    vertex -1.035276180410086 -3.8637033051562715 -1.9999999999999998
    vertex 0.0 -3.999999999999999 -1.9999999999999998
  endloop
endfacet
facet normal -0.21353763872057996 -0.5155254634763499 -0.8298404505428342
  outer loop
    vertex -2.0000000000000018 -3.4641016151377526 -1.9999999999999998
    vertex -1.8117333157176505 -6.761480784023476 0.0
    vertex -3.5000000000000027 -6.0621778264910695 0.0
  endloop
endfacet
facet normal -0.21353763872057996 -0.5155254634763499 -0.8298404505428342
  outer loop
    vertex -1.8117333157176505 -6.761480784023476 0.0
    vertex -2.0000000000000018 -3.4641016151377526 -1.9999999999999998
    vertex -1.035276180410086 -3.8637033051562715 -1.9999999999999998
  endloop
endfacet
facet normal -0.33968932830797643 -0.4426917515343404 -0.829840450542834
  outer loop
    vertex -2.8284271247461903 -2.8284271247461885 -1.9999999999999998
    vertex -3.5000000000000027 -6.0621778264910695 0.0
    vertex -4.949747468305835 -4.949747468305829 0.0
  endloop
endfacet
facet normal -0.33968932830797643 -0.4426917515343404 -0.829840450542834
  outer loop
    vertex -3.5000000000000027 -6.0621778264910695 0.0
    vertex -2.8284271247461903 -2.8284271247461885 -1.9999999999999998
    vertex -2.0000000000000018 -3.4641016151377526 -1.9999999999999998
  endloop
endfacet
facet normal -0.44269175153434087 -0.3396893283079759 -0.829840450542834
  outer loop
    vertex -3.464101615137756 -1.9999999999999971 -1.9999999999999998
    vertex -4.949747468305835 -4.949747468305829 0.0
    vertex -6.062177826491071 -3.499999999999998 0.0
  endloop
endfacet
facet normal -0.44269175153434087 -0.3396893283079759 -0.829840450542834
  outer loop
    vertex -4.949747468305835 -4.949747468305829 0.0
    vertex -3.464101615137756 -1.9999999999999971 -1.9999999999999998
    vertex -2.8284271247461903 -2.8284271247461885 -1.9999999999999998
  endloop
endfacet
facet normal -0.5155254634763503 -0.21353763872057968 -0.8298404505428341
  outer loop
    vertex -3.8637033051562732 -1.035276180410081 -1.9999999999999998
    vertex -6.062177826491071 -3.499999999999998 0.0
    vertex -6.761480784023479 -1.8117333157176425 0.0
  endloop
endfacet
facet normal -0.5155254634763503 -0.21353763872057968 -0.8298404505428341
  outer loop
    vertex -6.062177826491071 -3.499999999999998 0.0
    vertex -3.8637033051562732 -1.035276180410081 -1.9999999999999998
    vertex -3.464101615137756 -1.9999999999999971 -1.9999999999999998
  endloop
endfacet
facet normal -0.5532269670285558 -0.07283371194200901 -0.829840450542834
  outer loop
    vertex -3.9999999999999996 5.287437154777307e-16 -1.9999999999999998
    vertex -6.761480784023479 -1.8117333157176425 0.0
    vertex -7.0 8.572527594031472e-16 0.0
  endloop
endfacet
facet normal -0.5532269670285558 -0.07283371194200901 -0.829840450542834
  outer loop
    vertex -6.761480784023479 -1.8117333157176425 0.0
    vertex -3.9999999999999996 5.287437154777307e-16 -1.9999999999999998
    vertex -3.8637033051562732 -1.035276180410081 -1.9999999999999998
  endloop
endfacet
facet normal -0.5532269670285558 0.07283371194200942 -0.8298404505428342
  outer loop
    vertex -6.761480784023478 1.811733315717647 0.0
    vertex -3.9999999999999996 5.287437154777307e-16 -1.9999999999999998
    vertex -7.0 8.572527594031472e-16 0.0
  endloop
endfacet
facet normal -0.5532269670285558 0.07283371194200942 -0.8298404505428342
  outer loop
    vertex -3.9999999999999996 5.287437154777307e-16 -1.9999999999999998
    vertex -6.761480784023478 1.811733315717647 0.0
    vertex -3.863703305156272 1.0352761804100867 -1.9999999999999998
  endloop
endfacet
facet normal -0.5155254634763501 0.21353763872058013 -0.8298404505428341
  outer loop
    vertex -6.0621778264910695 3.500000000000002 0.0
    vertex -3.863703305156272 1.0352761804100867 -1.9999999999999998
    vertex -6.761480784023478 1.811733315717647 0.0
  endloop
endfacet
facet normal -0.5155254634763501 0.21353763872058013 -0.8298404505428341
  outer loop
    vertex -3.863703305156272 1.0352761804100867 -1.9999999999999998
    vertex -6.0621778264910695 3.500000000000002 0.0
    vertex -3.464101615137753 2.0000000000000018 -1.9999999999999998
  endloop
endfacet
facet normal -0.4426917515343407 0.339689328307976 -0.8298404505428342
  outer loop
    vertex -4.949747468305833 4.949747468305833 0.0
    vertex -3.464101615137753 2.0000000000000018 -1.9999999999999998
    vertex -6.0621778264910695 3.500000000000002 0.0
  endloop
endfacet
facet normal -0.4426917515343407 0.339689328307976 -0.8298404505428342
  outer loop
    vertex -3.464101615137753 2.0000000000000018 -1.9999999999999998
    vertex -4.949747468305833 4.949747468305833 0.0
    vertex -2.8284271247461885 2.8284271247461916 -1.9999999999999998
  endloop
endfacet
facet normal -0.3396893283079756 0.4426917515343413 -0.8298404505428341
  outer loop
    vertex -3.4999999999999987 6.06217782649107 0.0
    vertex -2.8284271247461885 2.8284271247461916 -1.9999999999999998
    vertex -4.949747468305833 4.949747468305833 0.0
  endloop
endfacet
facet normal -0.3396893283079756 0.4426917515343413 -0.8298404505428341
  outer loop
    vertex -2.8284271247461885 2.8284271247461916 -1.9999999999999998
    vertex -3.4999999999999987 6.06217782649107 0.0
    vertex -1.999999999999999 3.464101615137754 -1.9999999999999998
  endloop
endfacet
facet normal -0.21353763872058004 0.5155254634763501 -0.8298404505428341
  outer loop
    vertex -1.8117333157176443 6.761480784023478 0.0
    vertex -1.999999999999999 3.464101615137754 -1.9999999999999998
    vertex -3.4999999999999987 6.06217782649107 0.0
  endloop
endfacet
facet normal -0.21353763872058004 0.5155254634763501 -0.8298404505428341
  outer loop
    vertex -1.999999999999999 3.464101615137754 -1.9999999999999998
    vertex -1.8117333157176443 6.761480784023478 0.0
    vertex -1.0352761804100816 3.863703305156274 -1.9999999999999998
  endloop
endfacet
facet normal -0.07283371194200905 0.553226967028556 -0.8298404505428341
  outer loop
    vertex 4.286263797015736e-16 7.0 0.0
    vertex -1.0352761804100816 3.863703305156274 -1.9999999999999998
    vertex -1.8117333157176443 6.761480784023478 0.0
  endloop
endfacet
facet normal -0.07283371194200905 0.553226967028556 -0.8298404505428341
  outer loop
    vertex -1.0352761804100816 3.863703305156274 -1.9999999999999998
    vertex 4.286263797015736e-16 7.0 0.0
    vertex 3.524958103184872e-16 3.9999999999999982 -1.9999999999999998
  endloop
endfacet
facet normal 0.07283371194200927 0.5532269670285558 -0.8298404505428342
  outer loop
    vertex 4.286263797015736e-16 7.0 0.0
    vertex 1.035276180410084 3.8637033051562715 -1.9999999999999998
    vertex 3.524958103184872e-16 3.9999999999999982 -1.9999999999999998
  endloop
endfacet
facet normal 0.07283371194200927 0.5532269670285558 -0.8298404505428342
  outer loop
    vertex 1.035276180410084 3.8637033051562715 -1.9999999999999998
    vertex 4.286263797015736e-16 7.0 0.0
    vertex 1.8117333157176467 6.761480784023478 0.0
  endloop
endfacet
facet normal 0.21353763872057982 0.51552546347635 -0.8298404505428342
  outer loop
    vertex 1.8117333157176467 6.761480784023478 0.0
    vertex 2.0 3.464101615137754 -1.9999999999999998
    vertex 1.035276180410084 3.8637033051562715 -1.9999999999999998
  endloop
endfacet
facet normal 0.21353763872057982 0.51552546347635 -0.8298404505428342
  outer loop
    vertex 2.0 3.464101615137754 -1.9999999999999998
    vertex 1.8117333157176467 6.761480784023478 0.0
    vertex 3.5000000000000004 6.06217782649107 0.0
  endloop
endfacet
facet normal 0.339689328307976 0.4426917515343407 -0.8298404505428342
  outer loop
    vertex 3.5000000000000004 6.06217782649107 0.0
    vertex 2.82842712474619 2.8284271247461885 -1.9999999999999998
    vertex 2.0 3.464101615137754 -1.9999999999999998
  endloop
endfacet
facet normal 0.339689328307976 0.4426917515343407 -0.8298404505428342
  outer loop
    vertex 2.82842712474619 2.8284271247461885 -1.9999999999999998
    vertex 3.5000000000000004 6.06217782649107 0.0
    vertex 4.949747468305833 4.949747468305833 0.0
  endloop
endfacet
facet normal 0.4426917515343408 0.3396893283079758 -0.8298404505428342
  outer loop
    vertex 4.949747468305833 4.949747468305833 0.0
    vertex 3.464101615137754 1.9999999999999991 -1.9999999999999998
    vertex 2.82842712474619 2.8284271247461885 -1.9999999999999998
  endloop
endfacet
facet normal 0.4426917515343408 0.3396893283079758 -0.8298404505428342
  outer loop
    vertex 3.464101615137754 1.9999999999999991 -1.9999999999999998
    vertex 4.949747468305833 4.949747468305833 0.0
    vertex 6.06217782649107 3.499999999999999 0.0
  endloop
endfacet
facet normal 0.51552546347635 0.21353763872057985 -0.829840450542834
  outer loop
    vertex 6.06217782649107 3.499999999999999 0.0
    vertex 3.863703305156273 1.0352761804100825 -1.9999999999999998
    vertex 3.464101615137754 1.9999999999999991 -1.9999999999999998
  endloop
endfacet
facet normal 0.51552546347635 0.21353763872057985 -0.829840450542834
  outer loop
    vertex 3.863703305156273 1.0352761804100825 -1.9999999999999998
    vertex 6.06217782649107 3.499999999999999 0.0
    vertex 6.761480784023478 1.8117333157176452 0.0
  endloop
endfacet
facet normal 0.13052619222005177 -0.9914448613738105 2.853155204388676e-18
  outer loop
    vertex 1.0352761804100825 -3.863703305156272 -1.9999999999999998
    vertex 0.0 -3.999999999999999 -15.0
    vertex 1.035276180410083 -3.863703305156272 -15.0
  endloop
endfacet
facet normal 0.13052619222005177 -0.9914448613738105 2.853155204388676e-18
  outer loop
    vertex 0.0 -3.999999999999999 -15.0
    vertex 1.0352761804100825 -3.863703305156272 -1.9999999999999998
    vertex 0.0 -3.999999999999999 -1.9999999999999998
  endloop
endfacet
facet normal -0.13052619222005205 -0.9914448613738105 7.699393257346692e-33
  outer loop
    vertex 0.0 -3.999999999999999 -1.9999999999999998
    vertex -1.035276180410086 -3.8637033051562715 -15.0
    vertex 0.0 -3.999999999999999 -15.0
  endloop
endfacet
facet normal -0.13052619222005205 -0.9914448613738105 7.699393257346692e-33
  outer loop
    vertex -1.035276180410086 -3.8637033051562715 -15.0
    vertex 0.0 -3.999999999999999 -1.9999999999999998
    vertex -1.035276180410086 -3.8637033051562715 -1.9999999999999998
  endloop
endfacet
facet normal -0.38268343236509056 -0.9238795325112865 -1.4859274346166374e-33
  outer loop
    vertex -1.035276180410086 -3.8637033051562715 -1.9999999999999998
    vertex -2.0000000000000018 -3.4641016151377526 -15.0
    vertex -1.035276180410086 -3.8637033051562715 -15.0
  endloop
endfacet
facet normal -0.38268343236509056 -0.9238795325112865 -1.4859274346166374e-33
  outer loop
    vertex -2.0000000000000018 -3.4641016151377526 -15.0
    vertex -1.035276180410086 -3.8637033051562715 -1.9999999999999998
    vertex -2.0000000000000018 -3.4641016151377526 -1.9999999999999998
  endloop
endfacet
facet normal -0.6087614290087208 -0.7933533402912352 0.0
  outer loop
    vertex -2.0000000000000018 -3.4641016151377526 -1.9999999999999998
    vertex -2.8284271247461903 -2.8284271247461885 -15.0
    vertex -2.0000000000000018 -3.4641016151377526 -15.0
  endloop
endfacet
facet normal -0.6087614290087208 -0.7933533402912352 0.0
  outer loop
    vertex -2.8284271247461903 -2.8284271247461885 -15.0
    vertex -2.0000000000000018 -3.4641016151377526 -1.9999999999999998
    vertex -2.8284271247461903 -2.8284271247461885 -1.9999999999999998
  endloop
endfacet
facet normal -0.7933533402912353 -0.6087614290087204 -1.3306837576929577e-17
  outer loop
    vertex -3.464101615137756 -1.9999999999999971 -1.9999999999999998
    vertex -2.8284271247461903 -2.8284271247461885 -15.0
    vertex -2.8284271247461903 -2.8284271247461885 -1.9999999999999998
  endloop
endfacet
facet normal -0.7933533402912353 -0.6087614290087204 -1.3306837576929577e-17
  outer loop
    vertex -2.8284271247461903 -2.8284271247461885 -15.0
    vertex -3.464101615137756 -1.9999999999999971 -1.9999999999999998
    vertex -3.464101615137756 -1.9999999999999967 -15.0
  endloop
endfacet
facet normal -0.9238795325112871 -0.3826834323650893 -8.365027801048828e-18
  outer loop
    vertex -3.8637033051562732 -1.035276180410081 -1.9999999999999998
    vertex -3.464101615137756 -1.9999999999999967 -15.0
    vertex -3.464101615137756 -1.9999999999999971 -1.9999999999999998
  endloop
endfacet
facet normal -0.9238795325112871 -0.3826834323650893 -8.365027801048828e-18
  outer loop
    vertex -3.464101615137756 -1.9999999999999967 -15.0
    vertex -3.8637033051562732 -1.035276180410081 -1.9999999999999998
    vertex -3.8637033051562732 -1.035276180410081 -15.0
  endloop
endfacet
facet normal -0.9914448613738105 -0.13052619222005127 -5.994654473059974e-19
  outer loop
    vertex -3.9999999999999996 5.287437154777307e-16 -1.9999999999999998
    vertex -3.8637033051562732 -1.035276180410081 -15.0
    vertex -3.8637033051562732 -1.035276180410081 -1.9999999999999998
  endloop
endfacet
facet normal -0.9914448613738105 -0.13052619222005127 -5.994654473059974e-19
  outer loop
    vertex -3.8637033051562732 -1.035276180410081 -15.0
    vertex -3.9999999999999996 5.287437154777307e-16 -1.9999999999999998
    vertex -3.9999999999999996 7.347880794884117e-16 -15.0
  endloop
endfacet
facet normal -0.9914448613738105 0.13052619222005213 -5.706310408777376e-18
  outer loop
    vertex -3.863703305156272 1.0352761804100867 -1.9999999999999998
    vertex -3.9999999999999996 7.347880794884117e-16 -15.0
    vertex -3.9999999999999996 5.287437154777307e-16 -1.9999999999999998
  endloop
endfacet
facet normal -0.9914448613738105 0.13052619222005213 -5.706310408777376e-18
  outer loop
    vertex -3.9999999999999996 7.347880794884117e-16 -15.0
    vertex -3.863703305156272 1.0352761804100867 -1.9999999999999998
    vertex -3.863703305156272 1.0352761804100858 -15.0
  endloop
endfacet
facet normal -0.9238795325112865 0.38268343236509056 -4.0152133445034504e-17
  outer loop
    vertex -3.863703305156272 1.0352761804100867 -1.9999999999999998
    vertex -3.464101615137753 2.0000000000000013 -15.0
    vertex -3.863703305156272 1.0352761804100858 -15.0
  endloop
endfacet
facet normal -0.9238795325112865 0.38268343236509056 -4.0152133445034504e-17
  outer loop
    vertex -3.464101615137753 2.0000000000000013 -15.0
    vertex -3.863703305156272 1.0352761804100867 -1.9999999999999998
    vertex -3.464101615137753 2.0000000000000018 -1.9999999999999998
  endloop
endfacet
facet normal -0.793353340291235 0.6087614290087211 -3.9920512730788774e-17
  outer loop
    vertex -3.464101615137753 2.0000000000000018 -1.9999999999999998
    vertex -2.8284271247461885 2.828427124746191 -15.0
    vertex -3.464101615137753 2.0000000000000013 -15.0
  endloop
endfacet
facet normal -0.793353340291235 0.6087614290087211 -3.9920512730788774e-17
  outer loop
    vertex -2.8284271247461885 2.828427124746191 -15.0
    vertex -3.464101615137753 2.0000000000000018 -1.9999999999999998
    vertex -2.8284271247461885 2.8284271247461916 -1.9999999999999998
  endloop
endfacet
facet normal -0.60876142900872 0.7933533402912357 1.7341808362531432e-17
  outer loop
    vertex -2.8284271247461885 2.8284271247461916 -1.9999999999999998
    vertex -1.999999999999999 3.4641016151377544 -15.0
    vertex -2.8284271247461885 2.828427124746191 -15.0
  endloop
endfacet
facet normal -0.60876142900872 0.7933533402912357 1.7341808362531432e-17
  outer loop
    vertex -1.999999999999999 3.4641016151377544 -15.0
    vertex -2.8284271247461885 2.8284271247461916 -1.9999999999999998
    vertex -1.999999999999999 3.464101615137754 -1.9999999999999998
  endloop
endfacet
facet normal -0.38268343236509034 0.9238795325112867 -4.3735938254259735e-17
  outer loop
    vertex -1.999999999999999 3.464101615137754 -1.9999999999999998
    vertex -1.0352761804100814 3.863703305156273 -15.0
    vertex -1.999999999999999 3.4641016151377544 -15.0
  endloop
endfacet
facet normal -0.38268343236509034 0.9238795325112867 -4.3735938254259735e-17
  outer loop
    vertex -1.0352761804100814 3.863703305156273 -15.0
    vertex -1.999999999999999 3.464101615137754 -1.9999999999999998
    vertex -1.0352761804100816 3.863703305156274 -1.9999999999999998
  endloop
endfacet
facet normal -0.13052619222005027 0.9914448613738107 -4.673868259479496e-17
  outer loop
    vertex -1.0352761804100816 3.863703305156274 -1.9999999999999998
    vertex 4.898587196589412e-16 3.999999999999999 -15.0
    vertex -1.0352761804100814 3.863703305156273 -15.0
  endloop
endfacet
facet normal -0.13052619222005027 0.9914448613738107 -4.673868259479496e-17
  outer loop
    vertex 4.898587196589412e-16 3.999999999999999 -15.0
    vertex -1.0352761804100816 3.863703305156274 -1.9999999999999998
    vertex 3.524958103184872e-16 3.9999999999999982 -1.9999999999999998
  endloop
endfacet
facet normal 0.13052619222005166 0.9914448613738105 8.891231686256807e-17
  outer loop
    vertex 3.524958103184872e-16 3.9999999999999982 -1.9999999999999998
    vertex 1.035276180410084 3.863703305156272 -15.0
    vertex 4.898587196589412e-16 3.999999999999999 -15.0
  endloop
endfacet
facet normal 0.13052619222005166 0.9914448613738105 8.891231686256807e-17
  outer loop
    vertex 1.035276180410084 3.863703305156272 -15.0
    vertex 3.524958103184872e-16 3.9999999999999982 -1.9999999999999998
    vertex 1.035276180410084 3.8637033051562715 -1.9999999999999998
  endloop
endfacet
facet normal 0.38268343236508956 0.9238795325112868 2.5095083403146502e-17
  outer loop
    vertex 1.035276180410084 3.8637033051562715 -1.9999999999999998
    vertex 2.0000000000000013 3.464101615137753 -15.0
    vertex 1.035276180410084 3.863703305156272 -15.0
  endloop
endfacet
facet normal 0.38268343236508956 0.9238795325112868 2.5095083403146502e-17
  outer loop
    vertex 2.0000000000000013 3.464101615137753 -15.0
    vertex 1.035276180410084 3.8637033051562715 -1.9999999999999998
    vertex 2.0 3.464101615137754 -1.9999999999999998
  endloop
endfacet
facet normal 0.6087614290087211 0.793353340291235 5.322735030771839e-17
  outer loop
    vertex 2.0 3.464101615137754 -1.9999999999999998
    vertex 2.8284271247461903 2.8284271247461894 -15.0
    vertex 2.0000000000000013 3.464101615137753 -15.0
  endloop
endfacet
facet normal 0.6087614290087211 0.793353340291235 5.322735030771839e-17
  outer loop
    vertex 2.8284271247461903 2.8284271247461894 -15.0
    vertex 2.0 3.464101615137754 -1.9999999999999998
    vertex 2.82842712474619 2.8284271247461885 -1.9999999999999998
  endloop
endfacet
facet normal 0.7933533402912353 0.6087614290087204 5.2025425087594267e-17
  outer loop
    vertex 2.8284271247461903 2.8284271247461894 -15.0
    vertex 3.464101615137754 1.9999999999999991 -1.9999999999999998
    vertex 3.4641016151377544 1.9999999999999984 -15.0
  endloop
endfacet
facet normal 0.7933533402912353 0.6087614290087204 5.2025425087594267e-17
  outer loop
    vertex 3.464101615137754 1.9999999999999991 -1.9999999999999998
    vertex 2.8284271247461903 2.8284271247461894 -15.0
    vertex 2.82842712474619 2.8284271247461885 -1.9999999999999998
  endloop
endfacet
facet normal 0.9238795325112867 0.3826834323650899 1.8640854851113212e-17
  outer loop
    vertex 3.4641016151377544 1.9999999999999984 -15.0
    vertex 3.863703305156273 1.0352761804100825 -1.9999999999999998
    vertex 3.863703305156273 1.0352761804100823 -15.0
  endloop
endfacet
facet normal 0.9238795325112867 0.3826834323650899 1.8640854851113212e-17
  outer loop
    vertex 3.863703305156273 1.0352761804100825 -1.9999999999999998
    vertex 3.4641016151377544 1.9999999999999984 -15.0
    vertex 3.464101615137754 1.9999999999999991 -1.9999999999999998
  endloop
endfacet
facet normal 0.9914448613738105 0.1305261922200518 -1.7118931226332054e-18
  outer loop
    vertex 3.863703305156273 1.0352761804100823 -15.0
    vertex 3.9999999999999996 -1.762479051592436e-16 -1.9999999999999998
    vertex 3.9999999999999996 -2.449293598294706e-16 -15.0
  endloop
endfacet
facet normal 0.9914448613738105 0.1305261922200518 -1.7118931226332054e-18
  outer loop
    vertex 3.9999999999999996 -1.762479051592436e-16 -1.9999999999999998
    vertex 3.863703305156273 1.0352761804100823 -15.0
    vertex 3.863703305156273 1.0352761804100825 -1.9999999999999998
  endloop
endfacet
facet normal 0.9914448613738105 -0.1305261922200517 5.706310408777348e-19
  outer loop
    vertex 3.9999999999999996 -2.449293598294706e-16 -15.0
    vertex 3.863703305156273 -1.0352761804100836 -1.9999999999999998
    vertex 3.863703305156273 -1.0352761804100836 -15.0
  endloop
endfacet
facet normal 0.9914448613738105 -0.1305261922200517 5.706310408777348e-19
  outer loop
    vertex 3.863703305156273 -1.0352761804100836 -1.9999999999999998
    vertex 3.9999999999999996 -2.449293598294706e-16 -15.0
    vertex 3.9999999999999996 -1.762479051592436e-16 -1.9999999999999998
  endloop
endfacet
facet normal 0.9238795325112867 -0.3826834323650903 -0.0
  outer loop
    vertex 3.863703305156273 -1.0352761804100836 -15.0
    vertex 3.464101615137754 -1.9999999999999998 -1.9999999999999998
    vertex 3.464101615137754 -1.9999999999999998 -15.0
  endloop
endfacet
facet normal 0.9238795325112867 -0.3826834323650903 -0.0
  outer loop
    vertex 3.464101615137754 -1.9999999999999998 -1.9999999999999998
    vertex 3.863703305156273 -1.0352761804100836 -15.0
    vertex 3.863703305156273 -1.0352761804100836 -1.9999999999999998
  endloop
endfacet
facet normal 0.7933533402912356 -0.6087614290087203 4.034970785601855e-18
  outer loop
    vertex 2.8284271247461903 -2.82842712474619 -15.0
    vertex 3.464101615137754 -1.9999999999999998 -1.9999999999999998
    vertex 2.82842712474619 -2.8284271247461903 -1.9999999999999998
  endloop
endfacet
facet normal 0.7933533402912356 -0.6087614290087203 4.034970785601855e-18
  outer loop
    vertex 3.464101615137754 -1.9999999999999998 -1.9999999999999998
    vertex 2.8284271247461903 -2.82842712474619 -15.0
    vertex 3.464101615137754 -1.9999999999999998 -15.0
  endloop
endfacet
facet normal 0.60876142900872 -0.7933533402912357 2.2578704368257268e-17
  outer loop
    vertex 2.82842712474619 -2.8284271247461903 -1.9999999999999998
    vertex 1.9999999999999996 -3.464101615137754 -15.0
    vertex 2.8284271247461903 -2.82842712474619 -15.0
  endloop
endfacet
facet normal 0.60876142900872 -0.7933533402912357 2.2578704368257268e-17
  outer loop
    vertex 1.9999999999999996 -3.464101615137754 -15.0
    vertex 2.82842712474619 -2.8284271247461903 -1.9999999999999998
    vertex 1.999999999999999 -3.464101615137754 -1.9999999999999998
  endloop
endfacet
facet normal 0.3826834323650896 -0.9238795325112868 2.5095083403146508e-17
  outer loop
    vertex 1.999999999999999 -3.464101615137754 -1.9999999999999998
    vertex 1.035276180410083 -3.863703305156272 -15.0
    vertex 1.9999999999999996 -3.464101615137754 -15.0
  endloop
endfacet
facet normal 0.3826834323650896 -0.9238795325112868 2.5095083403146508e-17
  outer loop
    vertex 1.035276180410083 -3.863703305156272 -15.0
    vertex 1.999999999999999 -3.464101615137754 -1.9999999999999998
    vertex 1.0352761804100825 -3.863703305156272 -1.9999999999999998
  endloop
endfacet
endsolid Муфта-Кулачковая-5.1мм-под-608
