 0
SECTION
 2
ENTITIES
  0
POLYLINE
 8
Layer0
 66
     1
70
    8
 10
0.0
 20
 0.0
 30
0.0
  0
VERTEX
  8
MY3DLAYER
10
47.62499999999993
20
87.08499999999992
30
0.0
 70
     32
  0
VERTEX
  8
MY3DLAYER
10
48.25499999999993
20
86.55399999999995
30
0.0
 70
     32
  0
VERTEX
  8
MY3DLAYER
10
17.319
20
68.50999999999993
30
0.0
 70
     32
  0
VERTEX
  8
MY3DLAYER
10
17.233999999999998
20
86.89399999999995
30
0.0
 70
     32
  0
VERTEX
  8
MY3DLAYER
10
24.680999999999994
20
91.27799999999995
30
0.0
 70
     32
  0
VERTEX
  8
MY3DLAYER
10
27.604999999999958
20
92.98699999999994
30
0.0
 70
     32
  0
VERTEX
  8
MY3DLAYER
10
30.07999999999996
20
94.38399999999996
30
0.0
 70
     32
  0
VERTEX
  8
MY3DLAYER
10
31.843999999999966
20
95.33599999999997
30
0.0
 70
     32
  0
VERTEX
  8
MY3DLAYER
10
32.63899999999998
20
95.704
30
0.0
 70
     32
  0
VERTEX
  8
MY3DLAYER
10
33.517999999999965
20
95.34299999999999
30
0.0
 70
     32
  0
VERTEX
  8
MY3DLAYER
10
35.38899999999996
20
94.35799999999996
30
0.0
 70
     32
  0
VERTEX
  8
MY3DLAYER
10
37.907999999999944
20
92.95099999999994
30
0.0
 70
     32
  0
VERTEX
  8
MY3DLAYER
10
40.73399999999996
20
91.32099999999993
30
0.0
 70
     32
  0
VERTEX
  8
MY3DLAYER
10
43.52299999999995
20
89.66699999999994
30
0.0
 70
     32
  0
VERTEX
  8
MY3DLAYER
10
45.933999999999926
20
88.18799999999996
30
0.0
 70
     32
  0
VERTEX
  8
MY3DLAYER
10
47.62499999999993
20
87.08499999999992
30
0.0
 70
     32
  0
SEQEND
  0
POLYLINE
 8
Layer0
 66
     1
70
    8
 10
0.0
 20
 0.0
 30
0.0
  0
VERTEX
  8
MY3DLAYER
10
15.446
20
65.91699999999994
30
0.0
 70
     32
  0
VERTEX
  8
MY3DLAYER
10
15.507000000000005
20
65.56299999999993
30
0.0
 70
     32
  0
VERTEX
  8
MY3DLAYER
10
15.507000000000005
20
30.15799999999999
30
0.0
 70
     32
  0
VERTEX
  8
MY3DLAYER
10
15.446
20
29.788999999999994
30
0.0
 70
     32
  0
VERTEX
  8
MY3DLAYER
10
0.0
20
38.46999999999999
30
0.0
 70
     32
  0
VERTEX
  8
MY3DLAYER
10
0.04300000000000015
20
57.23499999999993
30
0.0
 70
     32
  0
VERTEX
  8
MY3DLAYER
10
15.446
20
65.91699999999994
30
0.0
 70
     32
  0
SEQEND
  0
POLYLINE
 8
Layer0
 66
     1
70
    8
 10
0.0
 20
 0.0
 30
0.0
  0
VERTEX
  8
MY3DLAYER
10
20.425
20
64.89399999999996
30
0.0
 70
     32
  0
VERTEX
  8
MY3DLAYER
10
30.211999999999964
20
70.42029599999991
30
0.0
 70
     32
  0
VERTEX
  8
MY3DLAYER
10
30.211999999999964
20
66.04199999999992
30
0.0
 70
     32
  0
VERTEX
  8
MY3DLAYER
10
24.468999999999998
20
62.767999999999944
30
0.0
 70
     32
  0
VERTEX
  8
MY3DLAYER
10
24.339999999999996
20
47.829999999999984
30
0.0
 70
     32
  0
VERTEX
  8
MY3DLAYER
10
24.255
20
32.938
30
0.0
 70
     32
  0
VERTEX
  8
MY3DLAYER
10
36.93599999999994
20
25.619000000000007
30
0.0
 70
     32
  0
VERTEX
  8
MY3DLAYER
10
39.503999999999955
20
24.144000000000002
30
0.0
 70
     32
  0
VERTEX
  8
MY3DLAYER
10
41.908999999999935
20
22.77
30
0.0
 70
     32
  0
VERTEX
  8
MY3DLAYER
10
44.09899999999992
20
21.526000000000003
30
0.0
 70
     32
  0
VERTEX
  8
MY3DLAYER
10
46.02099999999993
20
20.44300000000001
30
0.0
 70
     32
  0
VERTEX
  8
MY3DLAYER
10
47.62399999999993
20
19.550000000000022
30
0.0
 70
     32
  0
VERTEX
  8
MY3DLAYER
10
48.85599999999993
20
18.875000000000018
30
0.0
 70
     32
  0
VERTEX
  8
MY3DLAYER
10
49.66399999999992
20
18.446999999999996
30
0.0
 70
     32
  0
VERTEX
  8
MY3DLAYER
10
49.99899999999993
20
18.29899999999999
30
0.0
 70
     32
  0
VERTEX
  8
MY3DLAYER
10
50.63899999999997
20
18.590999999999998
30
0.0
 70
     32
  0
VERTEX
  8
MY3DLAYER
10
52.14799999999996
20
19.38500000000001
30
0.0
 70
     32
  0
VERTEX
  8
MY3DLAYER
10
54.295999999999964
20
20.561000000000014
30
0.0
 70
     32
  0
VERTEX
  8
MY3DLAYER
10
56.85099999999996
20
22.001000000000005
30
0.0
 70
     32
  0
VERTEX
  8
MY3DLAYER
10
63.40499999999996
20
25.747000000000003
30
0.0
 70
     32
  0
VERTEX
  8
MY3DLAYER
10
63.40499999999996
20
38.00199999999998
30
0.0
 70
     32
  0
VERTEX
  8
MY3DLAYER
10
63.38899999999996
20
42.745999999999974
30
0.0
 70
     32
  0
VERTEX
  8
MY3DLAYER
10
63.345999999999954
20
46.62999999999996
30
0.0
 70
     32
  0
VERTEX
  8
MY3DLAYER
10
63.27799999999996
20
49.25099999999995
30
0.0
 70
     32
  0
VERTEX
  8
MY3DLAYER
10
63.19099999999996
20
50.21299999999995
30
0.0
 70
     32
  0
VERTEX
  8
MY3DLAYER
10
62.91699999999996
20
50.108999999999945
30
0.0
 70
     32
  0
VERTEX
  8
MY3DLAYER
10
62.344999999999956
20
49.824999999999946
30
0.0
 70
     32
  0
VERTEX
  8
MY3DLAYER
10
61.55699999999995
20
49.40699999999994
30
0.0
 70
     32
  0
VERTEX
  8
MY3DLAYER
10
60.63799999999995
20
48.894999999999946
30
0.0
 70
     32
  0
VERTEX
  8
MY3DLAYER
10
58.29799999999996
20
47.575999999999965
30
0.0
 70
     32
  0
VERTEX
  8
MY3DLAYER
10
55.10599999999995
20
49.36399999999994
30
0.0
 70
     32
  0
VERTEX
  8
MY3DLAYER
10
51.91499999999995
20
51.106999999999964
30
0.0
 70
     32
  0
VERTEX
  8
MY3DLAYER
10
51.82899999999995
20
42.169999999999966
30
0.0
 70
     32
  0
VERTEX
  8
MY3DLAYER
10
51.70299999999995
20
33.233999999999995
30
0.0
 70
     32
  0
VERTEX
  8
MY3DLAYER
10
47.233999999999945
20
35.83099999999998
30
0.0
 70
     32
  0
VERTEX
  8
MY3DLAYER
10
42.765999999999934
20
38.46999999999999
30
0.0
 70
     32
  0
VERTEX
  8
MY3DLAYER
10
38.21299999999995
20
36.04199999999998
30
0.0
 70
     32
  0
VERTEX
  8
MY3DLAYER
10
36.44499999999996
20
35.10799999999999
30
0.0
 70
     32
  0
VERTEX
  8
MY3DLAYER
10
34.95099999999997
20
34.33599999999999
30
0.0
 70
     32
  0
VERTEX
  8
MY3DLAYER
10
33.39799999999996
20
34.011
30
0.0
 70
     32
  0
VERTEX
  8
MY3DLAYER
10
33.35299999999998
20
35.14099999999998
30
0.0
 70
     32
  0
VERTEX
  8
MY3DLAYER
10
33.30999999999995
20
36.92599999999997
30
0.0
 70
     32
  0
VERTEX
  8
MY3DLAYER
10
33.27099999999996
20
39.28899999999998
30
0.0
 70
     32
  0
VERTEX
  8
MY3DLAYER
10
33.23799999999998
20
42.15099999999998
30
0.0
 70
     32
  0
VERTEX
  8
MY3DLAYER
10
33.21199999999998
20
45.43199999999997
30
0.0
 70
     32
  0
VERTEX
  8
MY3DLAYER
10
33.19699999999996
20
49.05499999999995
30
0.0
 70
     32
  0
VERTEX
  8
MY3DLAYER
10
33.190999999999946
20
52.93899999999992
30
0.0
 70
     32
  0
VERTEX
  8
MY3DLAYER
10
33.190999999999946
20
72.25699999999996
30
0.0
 70
     32
  0
VERTEX
  8
MY3DLAYER
10
41.40499999999995
20
76.97999999999996
30
0.0
 70
     32
  0
VERTEX
  8
MY3DLAYER
10
44.617999999999924
20
78.79899999999995
30
0.0
 70
     32
  0
VERTEX
  8
MY3DLAYER
10
47.361999999999945
20
80.26199999999996
30
0.0
 70
     32
  0
VERTEX
  8
MY3DLAYER
10
49.33899999999993
20
81.22399999999993
30
0.0
 70
     32
  0
VERTEX
  8
MY3DLAYER
10
50.25599999999993
20
81.53399999999992
30
0.0
 70
     32
  0
VERTEX
  8
MY3DLAYER
10
50.686999999999976
20
81.33399999999993
30
0.0
 70
     32
  0
VERTEX
  8
MY3DLAYER
10
51.65699999999995
20
80.82299999999994
30
0.0
 70
     32
  0
VERTEX
  8
MY3DLAYER
10
53.099999999999945
20
80.03299999999994
30
0.0
 70
     32
  0
VERTEX
  8
MY3DLAYER
10
54.95799999999995
20
79.00199999999995
30
0.0
 70
     32
  0
VERTEX
  8
MY3DLAYER
10
57.16499999999995
20
77.76399999999994
30
0.0
 70
     32
  0
VERTEX
  8
MY3DLAYER
10
59.66199999999996
20
76.35099999999991
30
0.0
 70
     32
  0
VERTEX
  8
MY3DLAYER
10
62.38699999999996
20
74.80199999999995
30
0.0
 70
     32
  0
VERTEX
  8
MY3DLAYER
10
65.27599999999995
20
73.14999999999996
30
0.0
 70
     32
  0
VERTEX
  8
MY3DLAYER
10
79.57499999999999
20
64.89399999999996
30
0.0
 70
     32
  0
VERTEX
  8
MY3DLAYER
10
79.57499999999999
20
30.724000000000004
30
0.0
 70
     32
  0
VERTEX
  8
MY3DLAYER
10
75.10599999999998
20
28.130000000000017
30
0.0
 70
     32
  0
VERTEX
  8
MY3DLAYER
10
73.353
20
27.11400000000002
30
0.0
 70
     32
  0
VERTEX
  8
MY3DLAYER
10
71.84500000000001
20
26.288
30
0.0
 70
     32
  0
VERTEX
  8
MY3DLAYER
10
70.055
20
25.690000000000005
30
0.0
 70
     32
  0
VERTEX
  8
MY3DLAYER
10
69.919
20
26.12300000000001
30
0.0
 70
     32
  0
VERTEX
  8
MY3DLAYER
10
69.823
20
26.77200000000002
30
0.0
 70
     32
  0
VERTEX
  8
MY3DLAYER
10
69.787
20
27.573999999999998
30
0.0
 70
     32
  0
VERTEX
  8
MY3DLAYER
10
69.787
20
29.574999999999996
30
0.0
 70
     32
  0
VERTEX
  8
MY3DLAYER
10
72.76600000000002
20
31.233999999999998
30
0.0
 70
     32
  0
VERTEX
  8
MY3DLAYER
10
75.745
20
32.938
30
0.0
 70
     32
  0
VERTEX
  8
MY3DLAYER
10
75.66
20
47.829999999999984
30
0.0
 70
     32
  0
VERTEX
  8
MY3DLAYER
10
75.531
20
62.767999999999944
30
0.0
 70
     32
  0
VERTEX
  8
MY3DLAYER
10
63.616999999999976
20
69.65899999999995
30
0.0
 70
     32
  0
VERTEX
  8
MY3DLAYER
10
61.20599999999997
20
71.05399999999996
30
0.0
 70
     32
  0
VERTEX
  8
MY3DLAYER
10
58.92199999999995
20
72.37299999999996
30
0.0
 70
     32
  0
VERTEX
  8
MY3DLAYER
10
56.81799999999995
20
73.58799999999994
30
0.0
 70
     32
  0
VERTEX
  8
MY3DLAYER
10
54.94699999999995
20
74.66699999999993
30
0.0
 70
     32
  0
VERTEX
  8
MY3DLAYER
10
53.35799999999995
20
75.57899999999997
30
0.0
 70
     32
  0
VERTEX
  8
MY3DLAYER
10
52.10299999999998
20
76.29699999999997
30
0.0
 70
     32
  0
VERTEX
  8
MY3DLAYER
10
51.234999999999985
20
76.78799999999993
30
0.0
 70
     32
  0
VERTEX
  8
MY3DLAYER
10
50.807999999999964
20
77.02099999999994
30
0.0
 70
     32
  0
VERTEX
  8
MY3DLAYER
10
50.133999999999965
20
77.13799999999993
30
0.0
 70
     32
  0
VERTEX
  8
MY3DLAYER
10
48.93599999999992
20
76.73599999999993
30
0.0
 70
     32
  0
VERTEX
  8
MY3DLAYER
10
46.80999999999995
20
75.64699999999993
30
0.0
 70
     32
  0
VERTEX
  8
MY3DLAYER
10
43.36099999999995
20
73.70399999999994
30
0.0
 70
     32
  0
VERTEX
  8
MY3DLAYER
10
36.80899999999997
20
69.87399999999992
30
0.0
 70
     32
  0
VERTEX
  8
MY3DLAYER
10
36.68099999999995
20
55.36399999999993
30
0.0
 70
     32
  0
VERTEX
  8
MY3DLAYER
10
36.663999999999966
20
49.721999999999944
30
0.0
 70
     32
  0
VERTEX
  8
MY3DLAYER
10
36.68099999999995
20
45.107999999999976
30
0.0
 70
     32
  0
VERTEX
  8
MY3DLAYER
10
36.726999999999954
20
41.99499999999998
30
0.0
 70
     32
  0
VERTEX
  8
MY3DLAYER
10
36.80899999999997
20
40.85299999999999
30
0.0
 70
     32
  0
VERTEX
  8
MY3DLAYER
10
37.12599999999995
20
40.96599999999999
30
0.0
 70
     32
  0
VERTEX
  8
MY3DLAYER
10
37.81699999999996
20
41.272999999999975
30
0.0
 70
     32
  0
VERTEX
  8
MY3DLAYER
10
38.78199999999997
20
41.734
30
0.0
 70
     32
  0
VERTEX
  8
MY3DLAYER
10
39.91499999999995
20
42.29999999999997
30
0.0
 70
     32
  0
VERTEX
  8
MY3DLAYER
10
42.765999999999934
20
43.74699999999997
30
0.0
 70
     32
  0
VERTEX
  8
MY3DLAYER
10
45.233999999999945
20
42.29999999999997
30
0.0
 70
     32
  0
VERTEX
  8
MY3DLAYER
10
46.20799999999995
20
41.734
30
0.0
 70
     32
  0
VERTEX
  8
MY3DLAYER
10
47.03099999999994
20
41.272999999999975
30
0.0
 70
     32
  0
VERTEX
  8
MY3DLAYER
10
47.61499999999994
20
40.96599999999999
30
0.0
 70
     32
  0
VERTEX
  8
MY3DLAYER
10
47.871999999999936
20
40.85299999999999
30
0.0
 70
     32
  0
VERTEX
  8
MY3DLAYER
10
47.957999999999934
20
41.54099999999999
30
0.0
 70
     32
  0
VERTEX
  8
MY3DLAYER
10
48.02599999999993
20
43.411999999999985
30
0.0
 70
     32
  0
VERTEX
  8
MY3DLAYER
10
48.06899999999995
20
46.185999999999986
30
0.0
 70
     32
  0
VERTEX
  8
MY3DLAYER
10
48.08499999999993
20
49.575999999999965
30
0.0
 70
     32
  0
VERTEX
  8
MY3DLAYER
10
48.09899999999993
20
52.96699999999992
30
0.0
 70
     32
  0
VERTEX
  8
MY3DLAYER
10
48.13799999999993
20
55.74099999999994
30
0.0
 70
     32
  0
VERTEX
  8
MY3DLAYER
10
48.19299999999992
20
57.612999999999936
30
0.0
 70
     32
  0
VERTEX
  8
MY3DLAYER
10
48.25499999999993
20
58.298999999999936
30
0.0
 70
     32
  0
VERTEX
  8
MY3DLAYER
10
48.69699999999995
20
58.082999999999934
30
0.0
 70
     32
  0
VERTEX
  8
MY3DLAYER
10
49.786999999999914
20
57.49099999999995
30
0.0
 70
     32
  0
VERTEX
  8
MY3DLAYER
10
51.35399999999995
20
56.61199999999996
30
0.0
 70
     32
  0
VERTEX
  8
MY3DLAYER
10
53.23399999999996
20
55.531999999999925
30
0.0
 70
     32
  0
VERTEX
  8
MY3DLAYER
10
58.042999999999964
20
52.80999999999992
30
0.0
 70
     32
  0
VERTEX
  8
MY3DLAYER
10
59.53099999999996
20
53.7029999999999
30
0.0
 70
     32
  0
VERTEX
  8
MY3DLAYER
10
60.34599999999996
20
54.20699999999994
30
0.0
 70
     32
  0
VERTEX
  8
MY3DLAYER
10
61.42499999999995
20
54.88999999999993
30
0.0
 70
     32
  0
VERTEX
  8
MY3DLAYER
10
62.62999999999995
20
55.66099999999995
30
0.0
 70
     32
  0
VERTEX
  8
MY3DLAYER
10
63.82999999999998
20
56.426999999999964
30
0.0
 70
     32
  0
VERTEX
  8
MY3DLAYER
10
66.59499999999996
20
58.21499999999994
30
0.0
 70
     32
  0
VERTEX
  8
MY3DLAYER
10
66.72299999999996
20
40.93699999999998
30
0.0
 70
     32
  0
VERTEX
  8
MY3DLAYER
10
66.74399999999994
20
36.31599999999998
30
0.0
 70
     32
  0
VERTEX
  8
MY3DLAYER
10
66.74499999999998
20
32.522999999999996
30
0.0
 70
     32
  0
VERTEX
  8
MY3DLAYER
10
66.72599999999997
20
29.48599999999999
30
0.0
 70
     32
  0
VERTEX
  8
MY3DLAYER
10
66.68599999999996
20
27.135000000000005
30
0.0
 70
     32
  0
VERTEX
  8
MY3DLAYER
10
66.62299999999996
20
25.401
30
0.0
 70
     32
  0
VERTEX
  8
MY3DLAYER
10
66.53699999999996
20
24.212999999999997
30
0.0
 70
     32
  0
VERTEX
  8
MY3DLAYER
10
66.42799999999994
20
23.501000000000005
30
0.0
 70
     32
  0
VERTEX
  8
MY3DLAYER
10
66.29799999999996
20
23.193000000000016
30
0.0
 70
     32
  0
VERTEX
  8
MY3DLAYER
10
65.37299999999995
20
22.57600000000001
30
0.0
 70
     32
  0
VERTEX
  8
MY3DLAYER
10
63.46299999999996
20
21.421000000000017
30
0.0
 70
     32
  0
VERTEX
  8
MY3DLAYER
10
60.90099999999996
20
19.921999999999997
30
0.0
 70
     32
  0
VERTEX
  8
MY3DLAYER
10
58.02099999999995
20
18.268000000000008
30
0.0
 70
     32
  0
VERTEX
  8
MY3DLAYER
10
55.15599999999996
20
16.650999999999982
30
0.0
 70
     32
  0
VERTEX
  8
MY3DLAYER
10
52.64099999999995
20
15.258999999999997
30
0.0
 70
     32
  0
VERTEX
  8
MY3DLAYER
10
50.81099999999995
20
14.283999999999994
30
0.0
 70
     32
  0
VERTEX
  8
MY3DLAYER
10
49.99899999999993
20
13.916
30
0.0
 70
     32
  0
VERTEX
  8
MY3DLAYER
10
49.608999999999924
20
14.089000000000002
30
0.0
 70
     32
  0
VERTEX
  8
MY3DLAYER
10
20.425
20
30.766000000000002
30
0.0
 70
     32
  0
VERTEX
  8
MY3DLAYER
10
20.425
20
64.89399999999996
30
0.0
 70
     32
  0
SEQEND
  0
POLYLINE
 8
Layer0
 66
     1
70
    8
 10
0.0
 20
 0.0
 30
0.0
  0
VERTEX
  8
MY3DLAYER
10
56.313999999999965
20
5.959999999999994
30
0.0
 70
     32
  0
VERTEX
  8
MY3DLAYER
10
51.488999999999955
20
8.935999999999995
30
0.0
 70
     32
  0
VERTEX
  8
MY3DLAYER
10
82.681
20
27.191000000000003
30
0.0
 70
     32
  0
VERTEX
  8
MY3DLAYER
10
82.798
20
26.487
30
0.0
 70
     32
  0
VERTEX
  8
MY3DLAYER
10
82.979
20
8.725000000000001
30
0.0
 70
     32
  0
VERTEX
  8
MY3DLAYER
10
75.36200000000001
20
4.3850000000000025
30
0.0
 70
     32
  0
VERTEX
  8
MY3DLAYER
10
72.373
20
2.677000000000004
30
0.0
 70
     32
  0
VERTEX
  8
MY3DLAYER
10
69.84399999999998
20
1.2829999999999933
30
0.0
 70
     32
  0
VERTEX
  8
MY3DLAYER
10
68.043
20
0.3440000000000012
30
0.0
 70
     32
  0
VERTEX
  8
MY3DLAYER
10
67.23499999999997
20
0.0
30
0.0
 70
     32
  0
VERTEX
  8
MY3DLAYER
10
66.38599999999995
20
0.36999999999999705
30
0.0
 70
     32
  0
VERTEX
  8
MY3DLAYER
10
64.52199999999996
20
1.3490000000000073
30
0.0
 70
     32
  0
VERTEX
  8
MY3DLAYER
10
61.98999999999996
20
2.7390000000000003
30
0.0
 70
     32
  0
VERTEX
  8
MY3DLAYER
10
59.13699999999995
20
4.342000000000002
30
0.0
 70
     32
  0
VERTEX
  8
MY3DLAYER
10
56.313999999999965
20
5.959999999999994
30
0.0
 70
     32
  0
SEQEND
  0
POLYLINE
 8
Layer0
 66
     1
70
    8
 10
0.0
 20
 0.0
 30
0.0
  0
VERTEX
  8
MY3DLAYER
10
51.469476561519244
20
86.50715831065038
30
0.0
 70
     32
  0
VERTEX
  8
MY3DLAYER
10
66.33153402842626
20
95.98381752695127
30
0.0
 70
     32
  0
VERTEX
  8
MY3DLAYER
10
82.58751837141148
20
86.50715831065038
30
0.0
 70
     32
  0
VERTEX
  8
MY3DLAYER
10
82.58751837141148
20
68.50999999999993
30
0.0
 70
     32
  0
VERTEX
  8
MY3DLAYER
10
51.469476561519244
20
86.50715831065038
30
0.0
 70
     32
  0
SEQEND
  0
POLYLINE
 8
Layer0
 66
     1
70
    8
 10
0.0
 20
 0.0
 30
0.0
  0
VERTEX
  8
MY3DLAYER
10
85.275
20
30.132999999999996
30
0.0
 70
     32
  0
VERTEX
  8
MY3DLAYER
10
84.554
20
29.788999999999994
30
0.0
 70
     32
  0
VERTEX
  8
MY3DLAYER
10
84.63799999999999
20
65.87399999999992
30
0.0
 70
     32
  0
VERTEX
  8
MY3DLAYER
10
85.383
20
65.49999999999993
30
0.0
 70
     32
  0
VERTEX
  8
MY3DLAYER
10
99.958
20
57.23499999999993
30
0.0
 70
     32
  0
VERTEX
  8
MY3DLAYER
10
100.0
20
47.87299999999998
30
0.0
 70
     32
  0
VERTEX
  8
MY3DLAYER
10
100.0
20
38.46999999999999
30
0.0
 70
     32
  0
VERTEX
  8
MY3DLAYER
10
92.42500000000001
20
34.12999999999999
30
0.0
 70
     32
  0
VERTEX
  8
MY3DLAYER
10
89.47800000000001
20
32.446999999999996
30
0.0
 70
     32
  0
VERTEX
  8
MY3DLAYER
10
87.00499999999998
20
31.066000000000003
30
0.0
 70
     32
  0
VERTEX
  8
MY3DLAYER
10
85.275
20
30.132999999999996
30
0.0
 70
     32
  0
SEQEND
  0
POLYLINE
 8
Layer0
 66
     1
70
    8
 10
0.0
 20
 0.0
 30
0.0
  0
VERTEX
  8
MY3DLAYER
10
17.129000000000016
20
26.505000000000006
30
0.0
 70
     32
  0
VERTEX
  8
MY3DLAYER
10
17.191
20
27.235000000000007
30
0.0
 70
     32
  0
VERTEX
  8
MY3DLAYER
10
48.38299999999995
20
9.022999999999998
30
0.0
 70
     32
  0
VERTEX
  8
MY3DLAYER
10
47.78099999999995
20
8.537999999999998
30
0.0
 70
     32
  0
VERTEX
  8
MY3DLAYER
10
32.80799999999998
20
0.0
30
0.0
 70
     32
  0
VERTEX
  8
MY3DLAYER
10
17.022000000000002
20
8.725000000000001
30
0.0
 70
     32
  0
VERTEX
  8
MY3DLAYER
10
17.035
20
21.581
30
0.0
 70
     32
  0
VERTEX
  8
MY3DLAYER
10
17.073999999999995
20
24.518000000000008
30
0.0
 70
     32
  0
VERTEX
  8
MY3DLAYER
10
17.129000000000016
20
26.505000000000006
30
0.0
 70
     32
  0
SEQEND
 0
ENDSEC
 0
EOF
