solid 4x18650
facet normal -0.0 1.0 1.0292622039949255e-32
  outer loop
    vertex 0.9066585480485316 -13.0814754519511 70.0
    vertex 9.250000000000085 -13.0814754519511 0.0
    vertex 0.9066585480485316 -13.0814754519511 0.0
  endloop
endfacet
facet normal -0.0 1.0 1.0292622039949255e-32
  outer loop
    vertex 9.250000000000085 -13.0814754519511 0.0
    vertex 0.9066585480485316 -13.0814754519511 70.0
    vertex 9.250000000000085 -13.0814754519511 70.0
  endloop
endfacet
facet normal -0.04906767432741891 -0.9987954562051725 -1.1856125248542698e-32
  outer loop
    vertex 9.249999999999995 -15.750000000000005 72.0
    vertex 6.799571491760978 -15.629618166804924 -2.000000000000022
    vertex 9.249999999999995 -15.750000000000005 -2.000000000000022
  endloop
endfacet
facet normal -0.04906767432741891 -0.9987954562051725 -1.1856125248542698e-32
  outer loop
    vertex 6.799571491760978 -15.629618166804924 -2.000000000000022
    vertex 9.249999999999995 -15.750000000000005 72.0
    vertex 6.799571491760978 -15.629618166804924 72.0
  endloop
endfacet
facet normal -0.14673047445536333 -0.9891765099647808 -1.4893746526390202e-32
  outer loop
    vertex 6.799571491760978 -15.629618166804924 72.0
    vertex 4.372741949596782 -15.269632010080759 -2.000000000000022
    vertex 6.799571491760978 -15.629618166804924 -2.000000000000022
  endloop
endfacet
facet normal -0.14673047445536333 -0.9891765099647808 -1.4893746526390202e-32
  outer loop
    vertex 4.372741949596782 -15.269632010080759 -2.000000000000022
    vertex 6.799571491760978 -15.629618166804924 72.0
    vertex 4.372741949596782 -15.269632010080759 72.0
  endloop
endfacet
facet normal -0.24298017990326384 -0.9700312531945441 -1.7787932883438458e-32
  outer loop
    vertex 4.372741949596782 -15.269632010080759 72.0
    vertex 1.9928830686384371 -14.673508393305221 -2.000000000000022
    vertex 4.372741949596782 -15.269632010080759 -2.000000000000022
  endloop
endfacet
facet normal -0.24298017990326384 -0.9700312531945441 -1.7787932883438458e-32
  outer loop
    vertex 1.9928830686384371 -14.673508393305221 -2.000000000000022
    vertex 4.372741949596782 -15.269632010080759 72.0
    vertex 1.9928830686384371 -14.673508393305221 72.0
  endloop
endfacet
facet normal -0.33688985339221883 -0.9415440651830214 -2.051081172294599e-32
  outer loop
    vertex 1.9928830686384371 -14.673508393305221 72.0
    vertex -0.31708580912725093 -13.846988312782171 -2.000000000000022
    vertex 1.9928830686384371 -14.673508393305221 -2.000000000000022
  endloop
endfacet
facet normal -0.33688985339221883 -0.9415440651830214 -2.051081172294599e-32
  outer loop
    vertex -0.31708580912725093 -13.846988312782171 -2.000000000000022
    vertex 1.9928830686384371 -14.673508393305221 72.0
    vertex -0.31708580912725093 -13.846988312782171 72.0
  endloop
endfacet
facet normal -0.42755509343028353 -0.9039892931234429 -2.303616023321144e-32
  outer loop
    vertex -0.31708580912725093 -13.846988312782171 72.0
    vertex -2.5349184206499493 -12.798031608708873 -2.000000000000022
    vertex -0.31708580912725093 -13.846988312782171 -2.000000000000022
  endloop
endfacet
facet normal -0.42755509343028353 -0.9039892931234429 -2.303616023321144e-32
  outer loop
    vertex -2.5349184206499493 -12.798031608708873 -2.000000000000022
    vertex -0.31708580912725093 -13.846988312782171 72.0
    vertex -2.5349184206499493 -12.798031608708873 72.0
  endloop
endfacet
facet normal -0.5141027441932218 -0.857728610000272 -2.5339657927584814e-32
  outer loop
    vertex -2.5349184206499493 -12.798031608708873 72.0
    vertex -4.639255825490056 -11.536740307563633 -2.000000000000022
    vertex -2.5349184206499493 -12.798031608708873 -2.000000000000022
  endloop
endfacet
facet normal -0.5141027441932218 -0.857728610000272 -2.5339657927584814e-32
  outer loop
    vertex -4.639255825490056 -11.536740307563633 -2.000000000000022
    vertex -2.5349184206499493 -12.798031608708873 72.0
    vertex -4.639255825490056 -11.536740307563633 72.0
  endloop
endfacet
facet normal -0.5956993044924342 -0.8032075314806443 -2.739912086404954e-32
  outer loop
    vertex -4.639255825490056 -11.536740307563633 72.0
    vertex -6.60983210409114 -10.075261334068422 -2.000000000000022
    vertex -4.639255825490056 -11.536740307563633 -2.000000000000022
  endloop
endfacet
facet normal -0.5956993044924342 -0.8032075314806443 -2.739912086404954e-32
  outer loop
    vertex -6.60983210409114 -10.075261334068422 -2.000000000000022
    vertex -4.639255825490056 -11.536740307563633 72.0
    vertex -6.60983210409114 -10.075261334068422 72.0
  endloop
endfacet
facet normal -0.6715589548470187 -0.740951125354959 -2.919471528871041e-32
  outer loop
    vertex -6.60983210409114 -10.075261334068422 72.0
    vertex -8.427669529663692 -8.427669529663683 -2.000000000000022
    vertex -6.60983210409114 -10.075261334068422 -2.000000000000022
  endloop
endfacet
facet normal -0.6715589548470187 -0.740951125354959 -2.919471528871041e-32
  outer loop
    vertex -8.427669529663692 -8.427669529663683 -2.000000000000022
    vertex -6.60983210409114 -10.075261334068422 72.0
    vertex -8.427669529663692 -8.427669529663683 72.0
  endloop
endfacet
facet normal -0.7409511253549595 -0.671558954847018 -3.0709148645686224e-32
  outer loop
    vertex -10.07526133406843 -6.609832104091129 72.0
    vertex -8.427669529663692 -8.427669529663683 -2.000000000000022
    vertex -8.427669529663692 -8.427669529663683 72.0
  endloop
endfacet
facet normal -0.7409511253549595 -0.671558954847018 -3.0709148645686224e-32
  outer loop
    vertex -8.427669529663692 -8.427669529663683 -2.000000000000022
    vertex -10.07526133406843 -6.609832104091129 72.0
    vertex -10.07526133406843 -6.609832104091129 -2.000000000000022
  endloop
endfacet
facet normal -0.8032075314806448 -0.5956993044924335 -3.19278361138758e-32
  outer loop
    vertex -11.536740307563637 -4.6392558254900464 72.0
    vertex -10.07526133406843 -6.609832104091129 -2.000000000000022
    vertex -10.07526133406843 -6.609832104091129 72.0
  endloop
endfacet
facet normal -0.8032075314806448 -0.5956993044924335 -3.19278361138758e-32
  outer loop
    vertex -10.07526133406843 -6.609832104091129 -2.000000000000022
    vertex -11.536740307563637 -4.6392558254900464 72.0
    vertex -11.536740307563637 -4.6392558254900464 -2.000000000000022
  endloop
endfacet
facet normal -0.8577286100002721 -0.5141027441932218 -3.2839041066758163e-32
  outer loop
    vertex -12.798031608708879 -2.534918420649937 72.0
    vertex -11.536740307563637 -4.6392558254900464 -2.000000000000022
    vertex -11.536740307563637 -4.6392558254900464 72.0
  endloop
endfacet
facet normal -0.8577286100002721 -0.5141027441932218 -3.2839041066758163e-32
  outer loop
    vertex -11.536740307563637 -4.6392558254900464 -2.000000000000022
    vertex -12.798031608708879 -2.534918420649937 72.0
    vertex -12.798031608708879 -2.534918420649937 -2.000000000000022
  endloop
endfacet
facet normal -0.903989293123443 -0.4275550934302827 -3.343398810252173e-32
  outer loop
    vertex -13.846988312782175 -0.31708580912723966 72.0
    vertex -12.798031608708879 -2.534918420649937 -2.000000000000022
    vertex -12.798031608708879 -2.534918420649937 72.0
  endloop
endfacet
facet normal -0.903989293123443 -0.4275550934302827 -3.343398810252173e-32
  outer loop
    vertex -12.798031608708879 -2.534918420649937 -2.000000000000022
    vertex -13.846988312782175 -0.31708580912723966 72.0
    vertex -13.846988312782175 -0.31708580912723966 -2.000000000000022
  endloop
endfacet
facet normal -0.941544065183021 -0.33688985339221933 -3.370694755598099e-32
  outer loop
    vertex -14.284851045205995 0.9066585480484399 72.0
    vertex -13.846988312782175 -0.31708580912723966 -2.000000000000022
    vertex -13.846988312782175 -0.31708580912723966 72.0
  endloop
endfacet
facet normal -0.941544065183021 -0.33688985339221933 -3.370694755598099e-32
  outer loop
    vertex -13.846988312782175 -0.31708580912723966 -2.000000000000022
    vertex -14.284851045205995 0.9066585480484399 72.0
    vertex -14.284851045205995 0.9066585480484399 -2.000000000000022
  endloop
endfacet
facet normal 1.0 -1.9848286106828813e-17 -3.0227022688008706e-16
  outer loop
    vertex 9.249999999999995 -15.750000000000005 -2.000000000000022
    vertex 9.250000000000085 -13.0814754519511 0.0
    vertex 9.249999999999995 -15.750000000000005 72.0
  endloop
endfacet
facet normal 1.0 -1.9848286106828813e-17 -3.0227022688008706e-16
  outer loop
    vertex 9.250000000000085 -13.0814754519511 0.0
    vertex 9.249999999999995 -15.750000000000005 -2.000000000000022
    vertex 9.250000000000004 34.25 -2.000000000000022
  endloop
endfacet
facet normal 1.0 -1.9848286106828813e-17 -3.0227022688008706e-16
  outer loop
    vertex 9.250000000000085 -13.0814754519511 0.0
    vertex 9.250000000000004 34.25 -2.000000000000022
    vertex 9.250000000000092 31.58147545195109 5.009266788446522e-30
  endloop
endfacet
facet normal 1.0 -1.9848286106828813e-17 -3.0227022688008706e-16
  outer loop
    vertex 9.250000000000092 31.58147545195109 5.009266788446522e-30
    vertex 9.250000000000004 34.25 -2.000000000000022
    vertex 9.250000000000092 31.58147545195109 70.0
  endloop
endfacet
facet normal 1.0 -1.9848286106828813e-17 -3.0227022688008706e-16
  outer loop
    vertex 9.249999999999995 -15.750000000000005 72.0
    vertex 9.250000000000085 -13.0814754519511 70.0
    vertex 9.250000000000004 34.25 72.0
  endloop
endfacet
facet normal 1.0 -1.9848286106828813e-17 -3.0227022688008706e-16
  outer loop
    vertex 9.250000000000085 -13.0814754519511 70.0
    vertex 9.249999999999995 -15.750000000000005 72.0
    vertex 9.250000000000085 -13.0814754519511 0.0
  endloop
endfacet
facet normal 1.0 -1.9848286106828813e-17 -3.0227022688008706e-16
  outer loop
    vertex 9.250000000000004 34.25 72.0
    vertex 9.250000000000085 -13.0814754519511 70.0
    vertex 9.250000000000092 31.58147545195109 70.0
  endloop
endfacet
facet normal 1.0 -1.9848286106828813e-17 -3.0227022688008706e-16
  outer loop
    vertex 9.250000000000004 34.25 72.0
    vertex 9.250000000000092 31.58147545195109 70.0
    vertex 9.250000000000004 34.25 -2.000000000000022
  endloop
endfacet
facet normal -6.759801211032284e-16 -1.0 -1.0292622039949275e-32
  outer loop
    vertex 9.250000000000092 31.58147545195109 70.0
    vertex 0.9066585480485414 31.581475451951093 5.009266788446522e-30
    vertex 9.250000000000092 31.58147545195109 5.009266788446522e-30
  endloop
endfacet
facet normal -6.759801211032284e-16 -1.0 -1.0292622039949275e-32
  outer loop
    vertex 0.9066585480485414 31.581475451951093 5.009266788446522e-30
    vertex 9.250000000000092 31.58147545195109 70.0
    vertex 0.9066585480485414 31.581475451951093 70.0
  endloop
endfacet
facet normal 1.0 -2.6782654297920622e-14 3.2116890482489144e-32
  outer loop
    vertex 0.9066585480485414 31.581475451951093 5.009266788446522e-30
    vertex 0.9066585480484376 27.705458721717818 70.0
    vertex 0.9066585480484376 27.705458721717818 0.0
  endloop
endfacet
facet normal 1.0 -2.6782654297920622e-14 3.2116890482489144e-32
  outer loop
    vertex 0.9066585480484376 27.705458721717818 70.0
    vertex 0.9066585480485414 31.581475451951093 5.009266788446522e-30
    vertex 0.9066585480485414 31.581475451951093 70.0
  endloop
endfacet
facet normal -0.049067674327420784 -0.9987954562051723 -1.1856125248542757e-32
  outer loop
    vertex 0.9066585480484376 27.705458721717818 70.0
    vertex 1.1327982892113017e-15 27.75 0.0
    vertex 0.9066585480484376 27.705458721717818 0.0
  endloop
endfacet
facet normal -0.049067674327420784 -0.9987954562051723 -1.1856125248542757e-32
  outer loop
    vertex 1.1327982892113017e-15 27.75 0.0
    vertex 0.9066585480484376 27.705458721717818 70.0
    vertex 1.1327982892112995e-15 27.75 70.0
  endloop
endfacet
facet normal 0.049067674327414594 -0.9987954562051726 -8.704323003334497e-33
  outer loop
    vertex 1.1327982892112995e-15 27.75 70.0
    vertex -0.9066585480484355 27.705458721717825 0.0
    vertex 1.1327982892113017e-15 27.75 0.0
  endloop
endfacet
facet normal 0.049067674327414594 -0.9987954562051726 -8.704323003334497e-33
  outer loop
    vertex -0.9066585480484355 27.705458721717825 0.0
    vertex 1.1327982892112995e-15 27.75 70.0
    vertex -0.9066585480484355 27.705458721717825 70.0
  endloop
endfacet
facet normal 0.14673047445536377 -0.9891765099647808 -5.468693369336956e-33
  outer loop
    vertex -0.9066585480484355 27.705458721717825 70.0
    vertex -1.8045854786491873 27.572263843729882 0.0
    vertex -0.9066585480484355 27.705458721717825 0.0
  endloop
endfacet
facet normal 0.14673047445536377 -0.9891765099647808 -5.468693369336956e-33
  outer loop
    vertex -1.8045854786491873 27.572263843729882 0.0
    vertex -0.9066585480484355 27.705458721717825 70.0
    vertex -1.8045854786491873 27.572263843729882 70.0
  endloop
endfacet
facet normal 0.24298017990326243 -0.9700312531945445 -2.1803972287011083e-33
  outer loop
    vertex -1.8045854786491873 27.572263843729882 70.0
    vertex -2.6851332646037744 27.351698105522935 0.0
    vertex -1.8045854786491873 27.572263843729882 0.0
  endloop
endfacet
facet normal 0.24298017990326243 -0.9700312531945445 -2.1803972287011083e-33
  outer loop
    vertex -2.6851332646037744 27.351698105522935 0.0
    vertex -1.8045854786491873 27.572263843729882 70.0
    vertex -2.6851332646037744 27.351698105522935 70.0
  endloop
endfacet
facet normal 0.33688985339222394 -0.9415440651830195 1.128897329173809e-33
  outer loop
    vertex -2.6851332646037744 27.351698105522935 70.0
    vertex -3.5398217493770785 27.0458856757294 0.0
    vertex -2.6851332646037744 27.351698105522935 0.0
  endloop
endfacet
facet normal 0.33688985339222394 -0.9415440651830195 1.128897329173809e-33
  outer loop
    vertex -3.5398217493770785 27.0458856757294 0.0
    vertex -2.6851332646037744 27.351698105522935 70.0
    vertex -3.5398217493770785 27.0458856757294 70.0
  endloop
endfacet
facet normal 0.42755509343027975 -0.9039892931234446 4.427319988650314e-33
  outer loop
    vertex -3.5398217493770785 27.0458856757294 70.0
    vertex -4.360419815640478 26.657771695222284 0.0
    vertex -3.5398217493770785 27.0458856757294 0.0
  endloop
endfacet
facet normal 0.42755509343027975 -0.9039892931234446 4.427319988650314e-33
  outer loop
    vertex -4.360419815640478 26.657771695222284 0.0
    vertex -3.5398217493770785 27.0458856757294 70.0
    vertex -4.360419815640478 26.657771695222284 70.0
  endloop
endfacet
facet normal 0.5141027441932232 -0.8577286100002712 7.683105136417192e-33
  outer loop
    vertex -4.360419815640478 26.657771695222284 70.0
    vertex -5.139024655431318 26.191093913798543 0.0
    vertex -4.360419815640478 26.657771695222284 0.0
  endloop
endfacet
facet normal 0.5141027441932232 -0.8577286100002712 7.683105136417192e-33
  outer loop
    vertex -5.139024655431318 26.191093913798543 0.0
    vertex -4.360419815640478 26.657771695222284 70.0
    vertex -5.139024655431318 26.191093913798543 70.0
  endloop
endfacet
facet normal 0.5956993044924325 -0.8032075314806457 1.0864897781707645e-32
  outer loop
    vertex -5.139024655431318 26.191093913798543 70.0
    vertex -5.868137878513719 25.650346693605318 0.0
    vertex -5.139024655431318 26.191093913798543 0.0
  endloop
endfacet
facet normal 0.5956993044924325 -0.8032075314806457 1.0864897781707645e-32
  outer loop
    vertex -5.868137878513719 25.650346693605318 0.0
    vertex -5.139024655431318 26.191093913798543 70.0
    vertex -5.868137878513719 25.650346693605318 70.0
  endloop
endfacet
facet normal 0.671558954847019 -0.7409511253549587 1.3942055522003114e-32
  outer loop
    vertex -5.868137878513719 25.650346693605318 70.0
    vertex -6.540737725975564 25.040737725975564 0.0
    vertex -5.868137878513719 25.650346693605318 0.0
  endloop
endfacet
facet normal 0.671558954847019 -0.7409511253549587 1.3942055522003114e-32
  outer loop
    vertex -6.540737725975564 25.040737725975564 0.0
    vertex -5.868137878513719 25.650346693605318 70.0
    vertex -6.540737725975564 25.040737725975564 70.0
  endloop
endfacet
facet normal 0.7409511253549574 -0.6715589548470203 1.6884943646118732e-32
  outer loop
    vertex -6.540737725975564 25.040737725975564 0.0
    vertex -7.150346693605314 24.368137878513725 70.0
    vertex -7.150346693605314 24.368137878513725 0.0
  endloop
endfacet
facet normal 0.7409511253549574 -0.6715589548470203 1.6884943646118732e-32
  outer loop
    vertex -7.150346693605314 24.368137878513725 70.0
    vertex -6.540737725975564 25.040737725975564 0.0
    vertex -6.540737725975564 25.040737725975564 70.0
  endloop
endfacet
facet normal 0.8032075314806464 -0.5956993044924315 1.966522053267335e-32
  outer loop
    vertex -7.150346693605314 24.368137878513725 0.0
    vertex -7.691093913798543 23.63902465543132 70.0
    vertex -7.691093913798543 23.63902465543132 0.0
  endloop
endfacet
facet normal 0.8032075314806464 -0.5956993044924315 1.966522053267335e-32
  outer loop
    vertex -7.691093913798543 23.63902465543132 70.0
    vertex -7.150346693605314 24.368137878513725 0.0
    vertex -7.150346693605314 24.368137878513725 70.0
  endloop
endfacet
facet normal 0.8577286100002709 -0.514102744193224 2.225611059539501e-32
  outer loop
    vertex -7.691093913798543 23.63902465543132 0.0
    vertex -8.157771695222284 22.86041981564048 70.0
    vertex -8.157771695222284 22.86041981564048 0.0
  endloop
endfacet
facet normal 0.8577286100002709 -0.514102744193224 2.225611059539501e-32
  outer loop
    vertex -8.157771695222284 22.86041981564048 70.0
    vertex -7.691093913798543 23.63902465543132 0.0
    vertex -7.691093913798543 23.63902465543132 70.0
  endloop
endfacet
facet normal 0.9039892931234434 -0.4275550934302818 2.4632662146655577e-32
  outer loop
    vertex -8.157771695222284 22.86041981564048 0.0
    vertex -8.5458856757294 22.039821749377086 70.0
    vertex -8.5458856757294 22.039821749377086 0.0
  endloop
endfacet
facet normal 0.9039892931234434 -0.4275550934302818 2.4632662146655577e-32
  outer loop
    vertex -8.5458856757294 22.039821749377086 70.0
    vertex -8.157771695222284 22.86041981564048 0.0
    vertex -8.157771695222284 22.86041981564048 70.0
  endloop
endfacet
facet normal 0.9415440651830211 -0.33688985339221933 2.6771987695860935e-32
  outer loop
    vertex -8.5458856757294 22.039821749377086 0.0
    vertex -8.851698105522932 21.185133264603778 70.0
    vertex -8.851698105522932 21.185133264603778 0.0
  endloop
endfacet
facet normal 0.9415440651830211 -0.33688985339221933 2.6771987695860935e-32
  outer loop
    vertex -8.851698105522932 21.185133264603778 70.0
    vertex -8.5458856757294 22.039821749377086 0.0
    vertex -8.5458856757294 22.039821749377086 70.0
  endloop
endfacet
facet normal 0.970031253194544 -0.242980179903264 2.865348436849796e-32
  outer loop
    vertex -8.851698105522932 21.185133264603778 0.0
    vertex -9.07226384372988 20.30458547864919 70.0
    vertex -9.07226384372988 20.30458547864919 0.0
  endloop
endfacet
facet normal 0.970031253194544 -0.242980179903264 2.865348436849796e-32
  outer loop
    vertex -9.07226384372988 20.30458547864919 70.0
    vertex -8.851698105522932 21.185133264603778 0.0
    vertex -8.851698105522932 21.185133264603778 70.0
  endloop
endfacet
facet normal 0.9891765099647808 -0.1467304744553628 3.0259032323078484e-32
  outer loop
    vertex -9.07226384372988 20.30458547864919 0.0
    vertex -9.205458721717822 19.406658548048433 70.0
    vertex -9.205458721717822 19.406658548048433 0.0
  endloop
endfacet
facet normal 0.9891765099647808 -0.1467304744553628 3.0259032323078484e-32
  outer loop
    vertex -9.205458721717822 19.406658548048433 70.0
    vertex -9.07226384372988 20.30458547864919 0.0
    vertex -9.07226384372988 20.30458547864919 70.0
  endloop
endfacet
facet normal 0.9987954562051725 -0.049067674327418036 3.1573169255118147e-32
  outer loop
    vertex -9.205458721717822 19.406658548048433 0.0
    vertex -9.25 18.500000000000004 70.0
    vertex -9.25 18.500000000000004 0.0
  endloop
endfacet
facet normal 0.9987954562051725 -0.049067674327418036 3.1573169255118147e-32
  outer loop
    vertex -9.25 18.500000000000004 70.0
    vertex -9.205458721717822 19.406658548048433 0.0
    vertex -9.205458721717822 19.406658548048433 70.0
  endloop
endfacet
facet normal 0.9987954562051724 0.04906767432741788 3.258323930758101e-32
  outer loop
    vertex -9.25 18.500000000000004 0.0
    vertex -9.205458721717822 17.59334145195157 70.0
    vertex -9.205458721717822 17.59334145195157 0.0
  endloop
endfacet
facet normal 0.9987954562051724 0.04906767432741788 3.258323930758101e-32
  outer loop
    vertex -9.205458721717822 17.59334145195157 70.0
    vertex -9.25 18.500000000000004 0.0
    vertex -9.25 18.500000000000004 70.0
  endloop
endfacet
facet normal -0.0 -1.0 -1.0292622039949253e-32
  outer loop
    vertex -9.205458721717822 17.59334145195157 70.0
    vertex -13.081475451951128 17.59334145195157 0.0
    vertex -9.205458721717822 17.59334145195157 0.0
  endloop
endfacet
facet normal -0.0 -1.0 -1.0292622039949253e-32
  outer loop
    vertex -13.081475451951128 17.59334145195157 0.0
    vertex -9.205458721717822 17.59334145195157 70.0
    vertex -13.081475451951128 17.59334145195157 70.0
  endloop
endfacet
facet normal 1.0 0.0 3.211689048248942e-32
  outer loop
    vertex -13.081475451951128 17.59334145195157 0.0
    vertex -13.081475451951128 0.9066585480484389 70.0
    vertex -13.081475451951128 0.9066585480484389 0.0
  endloop
endfacet
facet normal 1.0 0.0 3.211689048248942e-32
  outer loop
    vertex -13.081475451951128 0.9066585480484389 70.0
    vertex -13.081475451951128 17.59334145195157 0.0
    vertex -13.081475451951128 17.59334145195157 70.0
  endloop
endfacet
facet normal 4.547139948713141e-16 1.0 1.0292622039949273e-32
  outer loop
    vertex -13.081475451951128 0.9066585480484389 70.0
    vertex -9.20545872171782 0.9066585480484372 0.0
    vertex -13.081475451951128 0.9066585480484389 0.0
  endloop
endfacet
facet normal 4.547139948713141e-16 1.0 1.0292622039949273e-32
  outer loop
    vertex -9.20545872171782 0.9066585480484372 0.0
    vertex -13.081475451951128 0.9066585480484389 70.0
    vertex -9.20545872171782 0.9066585480484372 70.0
  endloop
endfacet
facet normal 0.9987954562051724 -0.049067674327419236 3.157316925511813e-32
  outer loop
    vertex -9.25 5.663991446056508e-16 0.0
    vertex -9.20545872171782 0.9066585480484372 70.0
    vertex -9.25 5.663991446056501e-16 70.0
  endloop
endfacet
facet normal 0.9987954562051724 -0.049067674327419236 3.157316925511813e-32
  outer loop
    vertex -9.20545872171782 0.9066585480484372 70.0
    vertex -9.25 5.663991446056508e-16 0.0
    vertex -9.20545872171782 0.9066585480484372 0.0
  endloop
endfacet
facet normal 0.9987954562051725 0.049067674327417696 3.258323930758101e-32
  outer loop
    vertex -9.25 5.663991446056508e-16 0.0
    vertex -9.205458721717822 -0.9066585480484359 70.0
    vertex -9.205458721717822 -0.9066585480484359 0.0
  endloop
endfacet
facet normal 0.9987954562051725 0.049067674327417696 3.258323930758101e-32
  outer loop
    vertex -9.205458721717822 -0.9066585480484359 70.0
    vertex -9.25 5.663991446056508e-16 0.0
    vertex -9.25 5.663991446056501e-16 70.0
  endloop
endfacet
facet normal 0.989176509964781 0.14673047445536253 3.327951495370145e-32
  outer loop
    vertex -9.205458721717822 -0.9066585480484359 0.0
    vertex -9.072263843729882 -1.804585478649186 70.0
    vertex -9.072263843729882 -1.804585478649186 0.0
  endloop
endfacet
facet normal 0.989176509964781 0.14673047445536253 3.327951495370145e-32
  outer loop
    vertex -9.072263843729882 -1.804585478649186 70.0
    vertex -9.205458721717822 -0.9066585480484359 0.0
    vertex -9.205458721717822 -0.9066585480484359 70.0
  endloop
endfacet
facet normal 0.9700312531945443 0.24298017990326334 3.3655290678384305e-32
  outer loop
    vertex -9.072263843729882 -1.804585478649186 0.0
    vertex -8.851698105522933 -2.6851332646037753 70.0
    vertex -8.851698105522933 -2.6851332646037753 0.0
  endloop
endfacet
facet normal 0.9700312531945443 0.24298017990326334 3.3655290678384305e-32
  outer loop
    vertex -8.851698105522933 -2.6851332646037753 70.0
    vertex -9.072263843729882 -1.804585478649186 0.0
    vertex -9.072263843729882 -1.804585478649186 70.0
  endloop
endfacet
facet normal 0.9415440651830206 0.3368898533922209 3.3706947555980986e-32
  outer loop
    vertex -8.851698105522933 -2.6851332646037753 0.0
    vertex -8.545885675729401 -3.5398217493770803 70.0
    vertex -8.545885675729401 -3.5398217493770803 0.0
  endloop
endfacet
facet normal 0.9415440651830206 0.3368898533922209 3.3706947555980986e-32
  outer loop
    vertex -8.545885675729401 -3.5398217493770803 70.0
    vertex -8.851698105522933 -2.6851332646037753 0.0
    vertex -8.851698105522933 -2.6851332646037753 70.0
  endloop
endfacet
facet normal 0.9039892931234438 0.4275550934302813 3.3433988102521743e-32
  outer loop
    vertex -8.545885675729401 -3.5398217493770803 0.0
    vertex -8.157771695222284 -4.360419815640479 70.0
    vertex -8.157771695222284 -4.360419815640479 0.0
  endloop
endfacet
facet normal 0.9039892931234438 0.4275550934302813 3.3433988102521743e-32
  outer loop
    vertex -8.157771695222284 -4.360419815640479 70.0
    vertex -8.545885675729401 -3.5398217493770803 0.0
    vertex -8.545885675729401 -3.5398217493770803 70.0
  endloop
endfacet
facet normal 0.8577286100002718 0.5141027441932224 3.283904106675816e-32
  outer loop
    vertex -8.157771695222284 -4.360419815640479 0.0
    vertex -7.691093913798544 -5.139024655431318 70.0
    vertex -7.691093913798544 -5.139024655431318 0.0
  endloop
endfacet
facet normal 0.8577286100002718 0.5141027441932224 3.283904106675816e-32
  outer loop
    vertex -7.691093913798544 -5.139024655431318 70.0
    vertex -8.157771695222284 -4.360419815640479 0.0
    vertex -8.157771695222284 -4.360419815640479 70.0
  endloop
endfacet
facet normal 0.8032075314806462 0.5956993044924317 3.192783611387583e-32
  outer loop
    vertex -7.691093913798544 -5.139024655431318 0.0
    vertex -7.150346693605319 -5.86813787851372 70.0
    vertex -7.150346693605319 -5.86813787851372 0.0
  endloop
endfacet
facet normal 0.8032075314806462 0.5956993044924317 3.192783611387583e-32
  outer loop
    vertex -7.150346693605319 -5.86813787851372 70.0
    vertex -7.691093913798544 -5.139024655431318 0.0
    vertex -7.691093913798544 -5.139024655431318 70.0
  endloop
endfacet
facet normal 0.7409511253549588 0.6715589548470189 3.0709148645686213e-32
  outer loop
    vertex -7.150346693605319 -5.86813787851372 0.0
    vertex -6.540737725975565 -6.540737725975564 70.0
    vertex -6.540737725975565 -6.540737725975564 0.0
  endloop
endfacet
facet normal 0.7409511253549588 0.6715589548470189 3.0709148645686213e-32
  outer loop
    vertex -6.540737725975565 -6.540737725975564 70.0
    vertex -7.150346693605319 -5.86813787851372 0.0
    vertex -7.150346693605319 -5.86813787851372 70.0
  endloop
endfacet
facet normal 0.6715589548470186 0.7409511253549591 2.919471528871041e-32
  outer loop
    vertex -6.540737725975565 -6.540737725975564 70.0
    vertex -5.86813787851372 -7.150346693605317 0.0
    vertex -6.540737725975565 -6.540737725975564 0.0
  endloop
endfacet
facet normal 0.6715589548470186 0.7409511253549591 2.919471528871041e-32
  outer loop
    vertex -5.86813787851372 -7.150346693605317 0.0
    vertex -6.540737725975565 -6.540737725975564 70.0
    vertex -5.86813787851372 -7.150346693605317 70.0
  endloop
endfacet
facet normal 0.5956993044924335 0.803207531480645 2.739912086404953e-32
  outer loop
    vertex -5.86813787851372 -7.150346693605317 70.0
    vertex -5.13902465543132 -7.691093913798544 0.0
    vertex -5.86813787851372 -7.150346693605317 0.0
  endloop
endfacet
facet normal 0.5956993044924335 0.803207531480645 2.739912086404953e-32
  outer loop
    vertex -5.13902465543132 -7.691093913798544 0.0
    vertex -5.86813787851372 -7.150346693605317 70.0
    vertex -5.13902465543132 -7.691093913798544 70.0
  endloop
endfacet
facet normal 0.5141027441932218 0.8577286100002722 2.5339657927584814e-32
  outer loop
    vertex -5.13902465543132 -7.691093913798544 70.0
    vertex -4.36041981564048 -8.157771695222284 0.0
    vertex -5.13902465543132 -7.691093913798544 0.0
  endloop
endfacet
facet normal 0.5141027441932218 0.8577286100002722 2.5339657927584814e-32
  outer loop
    vertex -4.36041981564048 -8.157771695222284 0.0
    vertex -5.13902465543132 -7.691093913798544 70.0
    vertex -4.36041981564048 -8.157771695222284 70.0
  endloop
endfacet
facet normal 0.42755509343028164 0.9039892931234437 2.3036160233211384e-32
  outer loop
    vertex -4.36041981564048 -8.157771695222284 70.0
    vertex -3.5398217493770816 -8.545885675729401 0.0
    vertex -4.36041981564048 -8.157771695222284 0.0
  endloop
endfacet
facet normal 0.42755509343028164 0.9039892931234437 2.3036160233211384e-32
  outer loop
    vertex -3.5398217493770816 -8.545885675729401 0.0
    vertex -4.36041981564048 -8.157771695222284 70.0
    vertex -3.5398217493770816 -8.545885675729401 70.0
  endloop
endfacet
facet normal 0.33688985339221966 0.9415440651830209 2.051081172294601e-32
  outer loop
    vertex -3.5398217493770816 -8.545885675729401 70.0
    vertex -2.685133264603777 -8.851698105522932 0.0
    vertex -3.5398217493770816 -8.545885675729401 0.0
  endloop
endfacet
facet normal 0.33688985339221966 0.9415440651830209 2.051081172294601e-32
  outer loop
    vertex -2.685133264603777 -8.851698105522932 0.0
    vertex -3.5398217493770816 -8.545885675729401 70.0
    vertex -2.685133264603777 -8.851698105522932 70.0
  endloop
endfacet
facet normal 0.24298017990326526 0.9700312531945439 1.7787932883438502e-32
  outer loop
    vertex -2.685133264603777 -8.851698105522932 70.0
    vertex -1.8045854786491895 -9.072263843729882 0.0
    vertex -2.685133264603777 -8.851698105522932 0.0
  endloop
endfacet
facet normal 0.24298017990326526 0.9700312531945439 1.7787932883438502e-32
  outer loop
    vertex -1.8045854786491895 -9.072263843729882 0.0
    vertex -2.685133264603777 -8.851698105522932 70.0
    vertex -1.8045854786491895 -9.072263843729882 70.0
  endloop
endfacet
facet normal 0.14673047445536072 0.9891765099647811 1.489374652639012e-32
  outer loop
    vertex -1.8045854786491895 -9.072263843729882 70.0
    vertex -0.9066585480484376 -9.20545872171782 0.0
    vertex -1.8045854786491895 -9.072263843729882 0.0
  endloop
endfacet
facet normal 0.14673047445536072 0.9891765099647811 1.489374652639012e-32
  outer loop
    vertex -0.9066585480484376 -9.20545872171782 0.0
    vertex -1.8045854786491895 -9.072263843729882 70.0
    vertex -0.9066585480484376 -9.20545872171782 70.0
  endloop
endfacet
facet normal 0.049067674327419236 0.9987954562051724 1.185612524854271e-32
  outer loop
    vertex -0.9066585480484376 -9.20545872171782 70.0
    vertex -1.1327982892113017e-15 -9.25 0.0
    vertex -0.9066585480484376 -9.20545872171782 0.0
  endloop
endfacet
facet normal 0.049067674327419236 0.9987954562051724 1.185612524854271e-32
  outer loop
    vertex -1.1327982892113017e-15 -9.25 0.0
    vertex -0.9066585480484376 -9.20545872171782 70.0
    vertex -1.1327982892113039e-15 -9.25 70.0
  endloop
endfacet
facet normal -0.04906767432741768 0.9987954562051724 8.704323003334395e-33
  outer loop
    vertex -1.1327982892113039e-15 -9.25 70.0
    vertex 0.9066585480484355 -9.205458721717822 0.0
    vertex -1.1327982892113017e-15 -9.25 0.0
  endloop
endfacet
facet normal -0.04906767432741768 0.9987954562051724 8.704323003334395e-33
  outer loop
    vertex 0.9066585480484355 -9.205458721717822 0.0
    vertex -1.1327982892113039e-15 -9.25 70.0
    vertex 0.9066585480484355 -9.205458721717822 70.0
  endloop
endfacet
facet normal -9.700379490552613e-32 -2.0389803603182976e-32 1.0
  outer loop
    vertex -9.205458721717822 -0.9066585480484359 0.0
    vertex -9.20545872171782 0.9066585480484372 0.0
    vertex -9.25 5.663991446056508e-16 0.0
  endloop
endfacet
facet normal -9.700379490552613e-32 -2.0389803603182976e-32 1.0
  outer loop
    vertex -9.20545872171782 0.9066585480484372 0.0
    vertex -9.205458721717822 -0.9066585480484359 0.0
    vertex -9.072263843729882 -1.804585478649186 0.0
  endloop
endfacet
facet normal -9.700379490552613e-32 -2.0389803603182976e-32 1.0
  outer loop
    vertex -9.20545872171782 0.9066585480484372 0.0
    vertex -13.081475451951128 17.59334145195157 0.0
    vertex -13.081475451951128 0.9066585480484389 0.0
  endloop
endfacet
facet normal -9.700379490552613e-32 -2.0389803603182976e-32 1.0
  outer loop
    vertex -13.081475451951128 17.59334145195157 0.0
    vertex -9.20545872171782 0.9066585480484372 0.0
    vertex -9.205458721717822 17.59334145195157 0.0
  endloop
endfacet
facet normal -9.700379490552613e-32 -2.0389803603182976e-32 1.0
  outer loop
    vertex -9.205458721717822 17.59334145195157 0.0
    vertex -9.20545872171782 0.9066585480484372 0.0
    vertex -9.205458721717822 19.406658548048433 0.0
  endloop
endfacet
facet normal -9.700379490552613e-32 -2.0389803603182976e-32 1.0
  outer loop
    vertex -9.205458721717822 19.406658548048433 0.0
    vertex -9.20545872171782 0.9066585480484372 0.0
    vertex -9.07226384372988 20.30458547864919 0.0
  endloop
endfacet
facet normal -9.700379490552613e-32 -2.0389803603182976e-32 1.0
  outer loop
    vertex -9.07226384372988 20.30458547864919 0.0
    vertex -9.20545872171782 0.9066585480484372 0.0
    vertex -9.072263843729882 -1.804585478649186 0.0
  endloop
endfacet
facet normal -9.700379490552613e-32 -2.0389803603182976e-32 1.0
  outer loop
    vertex -9.07226384372988 20.30458547864919 0.0
    vertex -9.072263843729882 -1.804585478649186 0.0
    vertex -8.851698105522933 -2.6851332646037753 0.0
  endloop
endfacet
facet normal -9.700379490552613e-32 -2.0389803603182976e-32 1.0
  outer loop
    vertex -9.07226384372988 20.30458547864919 0.0
    vertex -8.851698105522933 -2.6851332646037753 0.0
    vertex -8.851698105522932 21.185133264603778 0.0
  endloop
endfacet
facet normal -9.700379490552613e-32 -2.0389803603182976e-32 1.0
  outer loop
    vertex -8.851698105522932 21.185133264603778 0.0
    vertex -8.851698105522933 -2.6851332646037753 0.0
    vertex -8.545885675729401 -3.5398217493770803 0.0
  endloop
endfacet
facet normal -9.700379490552613e-32 -2.0389803603182976e-32 1.0
  outer loop
    vertex -8.851698105522932 21.185133264603778 0.0
    vertex -8.545885675729401 -3.5398217493770803 0.0
    vertex -8.5458856757294 22.039821749377086 0.0
  endloop
endfacet
facet normal -9.700379490552613e-32 -2.0389803603182976e-32 1.0
  outer loop
    vertex -8.5458856757294 22.039821749377086 0.0
    vertex -8.545885675729401 -3.5398217493770803 0.0
    vertex -8.157771695222284 -4.360419815640479 0.0
  endloop
endfacet
facet normal -9.700379490552613e-32 -2.0389803603182976e-32 1.0
  outer loop
    vertex -8.5458856757294 22.039821749377086 0.0
    vertex -8.157771695222284 -4.360419815640479 0.0
    vertex -8.157771695222284 22.86041981564048 0.0
  endloop
endfacet
facet normal -9.700379490552613e-32 -2.0389803603182976e-32 1.0
  outer loop
    vertex -8.157771695222284 22.86041981564048 0.0
    vertex -8.157771695222284 -4.360419815640479 0.0
    vertex -7.691093913798544 -5.139024655431318 0.0
  endloop
endfacet
facet normal -9.700379490552613e-32 -2.0389803603182976e-32 1.0
  outer loop
    vertex -8.157771695222284 22.86041981564048 0.0
    vertex -7.691093913798544 -5.139024655431318 0.0
    vertex -7.691093913798543 23.63902465543132 0.0
  endloop
endfacet
facet normal -9.700379490552613e-32 -2.0389803603182976e-32 1.0
  outer loop
    vertex -7.691093913798543 23.63902465543132 0.0
    vertex -7.691093913798544 -5.139024655431318 0.0
    vertex -7.150346693605319 -5.86813787851372 0.0
  endloop
endfacet
facet normal -9.700379490552613e-32 -2.0389803603182976e-32 1.0
  outer loop
    vertex -7.691093913798543 23.63902465543132 0.0
    vertex -7.150346693605319 -5.86813787851372 0.0
    vertex -7.150346693605314 24.368137878513725 0.0
  endloop
endfacet
facet normal -9.700379490552613e-32 -2.0389803603182976e-32 1.0
  outer loop
    vertex -7.150346693605314 24.368137878513725 0.0
    vertex -7.150346693605319 -5.86813787851372 0.0
    vertex -6.540737725975565 -6.540737725975564 0.0
  endloop
endfacet
facet normal -9.700379490552613e-32 -2.0389803603182976e-32 1.0
  outer loop
    vertex -7.150346693605314 24.368137878513725 0.0
    vertex -6.540737725975565 -6.540737725975564 0.0
    vertex -6.540737725975564 25.040737725975564 0.0
  endloop
endfacet
facet normal -9.700379490552613e-32 -2.0389803603182976e-32 1.0
  outer loop
    vertex -6.540737725975564 25.040737725975564 0.0
    vertex -6.540737725975565 -6.540737725975564 0.0
    vertex -5.86813787851372 -7.150346693605317 0.0
  endloop
endfacet
facet normal -9.700379490552613e-32 -2.0389803603182976e-32 1.0
  outer loop
    vertex -6.540737725975564 25.040737725975564 0.0
    vertex -5.86813787851372 -7.150346693605317 0.0
    vertex -5.868137878513719 25.650346693605318 0.0
  endloop
endfacet
facet normal -9.700379490552613e-32 -2.0389803603182976e-32 1.0
  outer loop
    vertex -5.868137878513719 25.650346693605318 0.0
    vertex -5.86813787851372 -7.150346693605317 0.0
    vertex -5.13902465543132 -7.691093913798544 0.0
  endloop
endfacet
facet normal -9.700379490552613e-32 -2.0389803603182976e-32 1.0
  outer loop
    vertex -5.868137878513719 25.650346693605318 0.0
    vertex -5.13902465543132 -7.691093913798544 0.0
    vertex -5.139024655431318 26.191093913798543 0.0
  endloop
endfacet
facet normal -9.700379490552613e-32 -2.0389803603182976e-32 1.0
  outer loop
    vertex -5.139024655431318 26.191093913798543 0.0
    vertex -5.13902465543132 -7.691093913798544 0.0
    vertex -4.36041981564048 -8.157771695222284 0.0
  endloop
endfacet
facet normal -9.700379490552613e-32 -2.0389803603182976e-32 1.0
  outer loop
    vertex -5.139024655431318 26.191093913798543 0.0
    vertex -4.36041981564048 -8.157771695222284 0.0
    vertex -4.360419815640478 26.657771695222284 0.0
  endloop
endfacet
facet normal -9.700379490552613e-32 -2.0389803603182976e-32 1.0
  outer loop
    vertex -4.360419815640478 26.657771695222284 0.0
    vertex -4.36041981564048 -8.157771695222284 0.0
    vertex -3.5398217493770816 -8.545885675729401 0.0
  endloop
endfacet
facet normal -9.700379490552613e-32 -2.0389803603182976e-32 1.0
  outer loop
    vertex -4.360419815640478 26.657771695222284 0.0
    vertex -3.5398217493770816 -8.545885675729401 0.0
    vertex -3.5398217493770785 27.0458856757294 0.0
  endloop
endfacet
facet normal -9.700379490552613e-32 -2.0389803603182976e-32 1.0
  outer loop
    vertex -3.5398217493770785 27.0458856757294 0.0
    vertex -3.5398217493770816 -8.545885675729401 0.0
    vertex -2.685133264603777 -8.851698105522932 0.0
  endloop
endfacet
facet normal -9.700379490552613e-32 -2.0389803603182976e-32 1.0
  outer loop
    vertex -3.5398217493770785 27.0458856757294 0.0
    vertex -2.685133264603777 -8.851698105522932 0.0
    vertex -2.6851332646037744 27.351698105522935 0.0
  endloop
endfacet
facet normal -9.700379490552613e-32 -2.0389803603182976e-32 1.0
  outer loop
    vertex -2.6851332646037744 27.351698105522935 0.0
    vertex -2.685133264603777 -8.851698105522932 0.0
    vertex -1.8045854786491895 -9.072263843729882 0.0
  endloop
endfacet
facet normal -9.700379490552613e-32 -2.0389803603182976e-32 1.0
  outer loop
    vertex -2.6851332646037744 27.351698105522935 0.0
    vertex -1.8045854786491895 -9.072263843729882 0.0
    vertex -1.8045854786491873 27.572263843729882 0.0
  endloop
endfacet
facet normal -9.700379490552613e-32 -2.0389803603182976e-32 1.0
  outer loop
    vertex -1.8045854786491873 27.572263843729882 0.0
    vertex -1.8045854786491895 -9.072263843729882 0.0
    vertex -0.9066585480484376 -9.20545872171782 0.0
  endloop
endfacet
facet normal -9.700379490552613e-32 -2.0389803603182976e-32 1.0
  outer loop
    vertex -1.8045854786491873 27.572263843729882 0.0
    vertex -0.9066585480484376 -9.20545872171782 0.0
    vertex -0.9066585480484355 27.705458721717825 0.0
  endloop
endfacet
facet normal -9.700379490552613e-32 -2.0389803603182976e-32 1.0
  outer loop
    vertex -0.9066585480484355 27.705458721717825 0.0
    vertex -0.9066585480484376 -9.20545872171782 0.0
    vertex -1.1327982892113017e-15 -9.25 0.0
  endloop
endfacet
facet normal -9.700379490552613e-32 -2.0389803603182976e-32 1.0
  outer loop
    vertex -0.9066585480484355 27.705458721717825 0.0
    vertex -1.1327982892113017e-15 -9.25 0.0
    vertex 1.1327982892113017e-15 27.75 0.0
  endloop
endfacet
facet normal -9.700379490552613e-32 -2.0389803603182976e-32 1.0
  outer loop
    vertex 1.1327982892113017e-15 27.75 0.0
    vertex -1.1327982892113017e-15 -9.25 0.0
    vertex 0.9066585480484355 -9.205458721717822 0.0
  endloop
endfacet
facet normal -9.700379490552613e-32 -2.0389803603182976e-32 1.0
  outer loop
    vertex 1.1327982892113017e-15 27.75 0.0
    vertex 0.9066585480484355 -9.205458721717822 0.0
    vertex 0.9066585480484376 27.705458721717818 0.0
  endloop
endfacet
facet normal -9.700379490552613e-32 -2.0389803603182976e-32 1.0
  outer loop
    vertex 0.9066585480484376 27.705458721717818 0.0
    vertex 0.9066585480484355 -9.205458721717822 0.0
    vertex 0.9066585480485316 -13.0814754519511 0.0
  endloop
endfacet
facet normal -9.700379490552613e-32 -2.0389803603182976e-32 1.0
  outer loop
    vertex 0.9066585480484376 27.705458721717818 0.0
    vertex 0.9066585480485316 -13.0814754519511 0.0
    vertex 0.9066585480485414 31.581475451951093 5.009266788446522e-30
  endloop
endfacet
facet normal -9.700379490552613e-32 -2.0389803603182976e-32 1.0
  outer loop
    vertex 0.9066585480485414 31.581475451951093 5.009266788446522e-30
    vertex 0.9066585480485316 -13.0814754519511 0.0
    vertex 9.250000000000085 -13.0814754519511 0.0
  endloop
endfacet
facet normal -9.700379490552613e-32 -2.0389803603182976e-32 1.0
  outer loop
    vertex 0.9066585480485414 31.581475451951093 5.009266788446522e-30
    vertex 9.250000000000085 -13.0814754519511 0.0
    vertex 9.250000000000092 31.58147545195109 5.009266788446522e-30
  endloop
endfacet
facet normal -9.700379490552613e-32 -2.0389803603182976e-32 1.0
  outer loop
    vertex -9.205458721717822 19.406658548048433 0.0
    vertex -9.25 18.500000000000004 0.0
    vertex -9.205458721717822 17.59334145195157 0.0
  endloop
endfacet
facet normal 2.4616665951064614e-16 -6.141003972606492e-32 -1.0
  outer loop
    vertex -15.629618166804924 11.700428508239023 -2.000000000000022
    vertex -15.629618166804924 6.7995714917609895 -2.000000000000022
    vertex -15.75 9.250000000000005 -2.000000000000022
  endloop
endfacet
facet normal 2.4616665951064614e-16 -6.141003972606492e-32 -1.0
  outer loop
    vertex -15.629618166804924 6.7995714917609895 -2.000000000000022
    vertex -15.629618166804924 11.700428508239023 -2.000000000000022
    vertex -15.269632010080759 14.127258050403219 -2.000000000000022
  endloop
endfacet
facet normal 2.4616665951064614e-16 -6.141003972606492e-32 -1.0
  outer loop
    vertex -15.629618166804924 6.7995714917609895 -2.000000000000022
    vertex -15.269632010080759 14.127258050403219 -2.000000000000022
    vertex -15.269632010080764 4.372741949596796 -2.000000000000022
  endloop
endfacet
facet normal 2.4616665951064614e-16 -6.141003972606492e-32 -1.0
  outer loop
    vertex -15.269632010080764 4.372741949596796 -2.000000000000022
    vertex -15.269632010080759 14.127258050403219 -2.000000000000022
    vertex -14.673508393305225 1.9928830686384469 -2.000000000000022
  endloop
endfacet
facet normal 2.4616665951064614e-16 -6.141003972606492e-32 -1.0
  outer loop
    vertex -14.673508393305225 1.9928830686384469 -2.000000000000022
    vertex -15.269632010080759 14.127258050403219 -2.000000000000022
    vertex -14.673508393305225 16.507116931361566 -2.000000000000022
  endloop
endfacet
facet normal 2.4616665951064614e-16 -6.141003972606492e-32 -1.0
  outer loop
    vertex -14.673508393305225 1.9928830686384469 -2.000000000000022
    vertex -14.673508393305225 16.507116931361566 -2.000000000000022
    vertex -14.284851045205995 17.59334145195157 -2.000000000000022
  endloop
endfacet
facet normal 2.4616665951064614e-16 -6.141003972606492e-32 -1.0
  outer loop
    vertex -14.673508393305225 1.9928830686384469 -2.000000000000022
    vertex -14.284851045205995 17.59334145195157 -2.000000000000022
    vertex -14.284851045205995 0.9066585480484399 -2.000000000000022
  endloop
endfacet
facet normal 2.4616665951064614e-16 -6.141003972606492e-32 -1.0
  outer loop
    vertex -14.284851045205995 0.9066585480484399 -2.000000000000022
    vertex -14.284851045205995 17.59334145195157 -2.000000000000022
    vertex -13.846988312782171 18.81708580912725 -2.000000000000022
  endloop
endfacet
facet normal 2.4616665951064614e-16 -6.141003972606492e-32 -1.0
  outer loop
    vertex -14.284851045205995 0.9066585480484399 -2.000000000000022
    vertex -13.846988312782171 18.81708580912725 -2.000000000000022
    vertex -13.846988312782175 -0.31708580912723966 -2.000000000000022
  endloop
endfacet
facet normal 2.4616665951064614e-16 -6.141003972606492e-32 -1.0
  outer loop
    vertex -13.846988312782175 -0.31708580912723966 -2.000000000000022
    vertex -13.846988312782171 18.81708580912725 -2.000000000000022
    vertex -12.798031608708879 -2.534918420649937 -2.000000000000022
  endloop
endfacet
facet normal 2.4616665951064614e-16 -6.141003972606492e-32 -1.0
  outer loop
    vertex -12.798031608708879 -2.534918420649937 -2.000000000000022
    vertex -13.846988312782171 18.81708580912725 -2.000000000000022
    vertex -12.798031608708873 21.03491842064995 -2.000000000000022
  endloop
endfacet
facet normal 2.4616665951064614e-16 -6.141003972606492e-32 -1.0
  outer loop
    vertex -12.798031608708879 -2.534918420649937 -2.000000000000022
    vertex -12.798031608708873 21.03491842064995 -2.000000000000022
    vertex -11.536740307563637 -4.6392558254900464 -2.000000000000022
  endloop
endfacet
facet normal 2.4616665951064614e-16 -6.141003972606492e-32 -1.0
  outer loop
    vertex -11.536740307563637 -4.6392558254900464 -2.000000000000022
    vertex -12.798031608708873 21.03491842064995 -2.000000000000022
    vertex -11.53674030756363 23.13925582549006 -2.000000000000022
  endloop
endfacet
facet normal 2.4616665951064614e-16 -6.141003972606492e-32 -1.0
  outer loop
    vertex -11.536740307563637 -4.6392558254900464 -2.000000000000022
    vertex -11.53674030756363 23.13925582549006 -2.000000000000022
    vertex -10.07526133406843 -6.609832104091129 -2.000000000000022
  endloop
endfacet
facet normal 2.4616665951064614e-16 -6.141003972606492e-32 -1.0
  outer loop
    vertex -10.07526133406843 -6.609832104091129 -2.000000000000022
    vertex -11.53674030756363 23.13925582549006 -2.000000000000022
    vertex -10.075261334068426 25.10983210409114 -2.000000000000022
  endloop
endfacet
facet normal 2.4616665951064614e-16 -6.141003972606492e-32 -1.0
  outer loop
    vertex -10.07526133406843 -6.609832104091129 -2.000000000000022
    vertex -10.075261334068426 25.10983210409114 -2.000000000000022
    vertex -8.427669529663692 -8.427669529663683 -2.000000000000022
  endloop
endfacet
facet normal 2.4616665951064614e-16 -6.141003972606492e-32 -1.0
  outer loop
    vertex -8.427669529663692 -8.427669529663683 -2.000000000000022
    vertex -10.075261334068426 25.10983210409114 -2.000000000000022
    vertex -8.427669529663687 26.927669529663692 -2.000000000000022
  endloop
endfacet
facet normal 2.4616665951064614e-16 -6.141003972606492e-32 -1.0
  outer loop
    vertex -8.427669529663692 -8.427669529663683 -2.000000000000022
    vertex -8.427669529663687 26.927669529663692 -2.000000000000022
    vertex -6.60983210409114 -10.075261334068422 -2.000000000000022
  endloop
endfacet
facet normal 2.4616665951064614e-16 -6.141003972606492e-32 -1.0
  outer loop
    vertex -6.60983210409114 -10.075261334068422 -2.000000000000022
    vertex -8.427669529663687 26.927669529663692 -2.000000000000022
    vertex -6.609832104091134 28.575261334068433 -2.000000000000022
  endloop
endfacet
facet normal 2.4616665951064614e-16 -6.141003972606492e-32 -1.0
  outer loop
    vertex -6.60983210409114 -10.075261334068422 -2.000000000000022
    vertex -6.609832104091134 28.575261334068433 -2.000000000000022
    vertex -4.639255825490056 -11.536740307563633 -2.000000000000022
  endloop
endfacet
facet normal 2.4616665951064614e-16 -6.141003972606492e-32 -1.0
  outer loop
    vertex -4.639255825490056 -11.536740307563633 -2.000000000000022
    vertex -6.609832104091134 28.575261334068433 -2.000000000000022
    vertex -4.639255825490051 30.036740307563633 -2.000000000000022
  endloop
endfacet
facet normal 2.4616665951064614e-16 -6.141003972606492e-32 -1.0
  outer loop
    vertex -4.639255825490056 -11.536740307563633 -2.000000000000022
    vertex -4.639255825490051 30.036740307563633 -2.000000000000022
    vertex -2.5349184206499493 -12.798031608708873 -2.000000000000022
  endloop
endfacet
facet normal 2.4616665951064614e-16 -6.141003972606492e-32 -1.0
  outer loop
    vertex -2.5349184206499493 -12.798031608708873 -2.000000000000022
    vertex -4.639255825490051 30.036740307563633 -2.000000000000022
    vertex -2.534918420649944 31.29803160870888 -2.000000000000022
  endloop
endfacet
facet normal 2.4616665951064614e-16 -6.141003972606492e-32 -1.0
  outer loop
    vertex -2.5349184206499493 -12.798031608708873 -2.000000000000022
    vertex -2.534918420649944 31.29803160870888 -2.000000000000022
    vertex -0.31708580912725093 -13.846988312782171 -2.000000000000022
  endloop
endfacet
facet normal 2.4616665951064614e-16 -6.141003972606492e-32 -1.0
  outer loop
    vertex -0.31708580912725093 -13.846988312782171 -2.000000000000022
    vertex -2.534918420649944 31.29803160870888 -2.000000000000022
    vertex -0.3170858091272439 32.34698831278218 -2.000000000000022
  endloop
endfacet
facet normal 2.4616665951064614e-16 -6.141003972606492e-32 -1.0
  outer loop
    vertex -0.31708580912725093 -13.846988312782171 -2.000000000000022
    vertex -0.3170858091272439 32.34698831278218 -2.000000000000022
    vertex 1.9928830686384371 -14.673508393305221 -2.000000000000022
  endloop
endfacet
facet normal 2.4616665951064614e-16 -6.141003972606492e-32 -1.0
  outer loop
    vertex 1.9928830686384371 -14.673508393305221 -2.000000000000022
    vertex -0.3170858091272439 32.34698831278218 -2.000000000000022
    vertex 1.9928830686384469 33.17350839330523 -2.000000000000022
  endloop
endfacet
facet normal 2.4616665951064614e-16 -6.141003972606492e-32 -1.0
  outer loop
    vertex 1.9928830686384371 -14.673508393305221 -2.000000000000022
    vertex 1.9928830686384469 33.17350839330523 -2.000000000000022
    vertex 4.372741949596782 -15.269632010080759 -2.000000000000022
  endloop
endfacet
facet normal 2.4616665951064614e-16 -6.141003972606492e-32 -1.0
  outer loop
    vertex 4.372741949596782 -15.269632010080759 -2.000000000000022
    vertex 1.9928830686384469 33.17350839330523 -2.000000000000022
    vertex 4.372741949596796 33.76963201008076 -2.000000000000022
  endloop
endfacet
facet normal 2.4616665951064614e-16 -6.141003972606492e-32 -1.0
  outer loop
    vertex 4.372741949596782 -15.269632010080759 -2.000000000000022
    vertex 4.372741949596796 33.76963201008076 -2.000000000000022
    vertex 6.799571491760978 -15.629618166804924 -2.000000000000022
  endloop
endfacet
facet normal 2.4616665951064614e-16 -6.141003972606492e-32 -1.0
  outer loop
    vertex 6.799571491760978 -15.629618166804924 -2.000000000000022
    vertex 4.372741949596796 33.76963201008076 -2.000000000000022
    vertex 6.7995714917609895 34.129618166804924 -2.000000000000022
  endloop
endfacet
facet normal 2.4616665951064614e-16 -6.141003972606492e-32 -1.0
  outer loop
    vertex 6.799571491760978 -15.629618166804924 -2.000000000000022
    vertex 6.7995714917609895 34.129618166804924 -2.000000000000022
    vertex 9.249999999999995 -15.750000000000005 -2.000000000000022
  endloop
endfacet
facet normal 2.4616665951064614e-16 -6.141003972606492e-32 -1.0
  outer loop
    vertex 9.249999999999995 -15.750000000000005 -2.000000000000022
    vertex 6.7995714917609895 34.129618166804924 -2.000000000000022
    vertex 9.250000000000004 34.25 -2.000000000000022
  endloop
endfacet
facet normal 0.0 0.0 -1.0
  outer loop
    vertex -9.205458721717822 19.406658548048433 70.0
    vertex -9.205458721717822 17.59334145195157 70.0
    vertex -9.25 18.500000000000004 70.0
  endloop
endfacet
facet normal 0.0 0.0 -1.0
  outer loop
    vertex -9.205458721717822 17.59334145195157 70.0
    vertex -9.205458721717822 19.406658548048433 70.0
    vertex -9.07226384372988 20.30458547864919 70.0
  endloop
endfacet
facet normal 0.0 0.0 -1.0
  outer loop
    vertex -9.205458721717822 17.59334145195157 70.0
    vertex -9.07226384372988 20.30458547864919 70.0
    vertex -9.20545872171782 0.9066585480484372 70.0
  endloop
endfacet
facet normal 0.0 0.0 -1.0
  outer loop
    vertex -9.20545872171782 0.9066585480484372 70.0
    vertex -9.07226384372988 20.30458547864919 70.0
    vertex -9.072263843729882 -1.804585478649186 70.0
  endloop
endfacet
facet normal 0.0 0.0 -1.0
  outer loop
    vertex -9.072263843729882 -1.804585478649186 70.0
    vertex -9.07226384372988 20.30458547864919 70.0
    vertex -8.851698105522933 -2.6851332646037753 70.0
  endloop
endfacet
facet normal 0.0 0.0 -1.0
  outer loop
    vertex -8.851698105522933 -2.6851332646037753 70.0
    vertex -9.07226384372988 20.30458547864919 70.0
    vertex -8.851698105522932 21.185133264603778 70.0
  endloop
endfacet
facet normal 0.0 0.0 -1.0
  outer loop
    vertex -8.851698105522933 -2.6851332646037753 70.0
    vertex -8.851698105522932 21.185133264603778 70.0
    vertex -8.545885675729401 -3.5398217493770803 70.0
  endloop
endfacet
facet normal 0.0 0.0 -1.0
  outer loop
    vertex -8.545885675729401 -3.5398217493770803 70.0
    vertex -8.851698105522932 21.185133264603778 70.0
    vertex -8.5458856757294 22.039821749377086 70.0
  endloop
endfacet
facet normal 0.0 0.0 -1.0
  outer loop
    vertex -8.545885675729401 -3.5398217493770803 70.0
    vertex -8.5458856757294 22.039821749377086 70.0
    vertex -8.157771695222284 -4.360419815640479 70.0
  endloop
endfacet
facet normal 0.0 0.0 -1.0
  outer loop
    vertex -8.157771695222284 -4.360419815640479 70.0
    vertex -8.5458856757294 22.039821749377086 70.0
    vertex -8.157771695222284 22.86041981564048 70.0
  endloop
endfacet
facet normal 0.0 0.0 -1.0
  outer loop
    vertex -8.157771695222284 -4.360419815640479 70.0
    vertex -8.157771695222284 22.86041981564048 70.0
    vertex -7.691093913798543 23.63902465543132 70.0
  endloop
endfacet
facet normal 0.0 0.0 -1.0
  outer loop
    vertex -8.157771695222284 -4.360419815640479 70.0
    vertex -7.691093913798543 23.63902465543132 70.0
    vertex -7.691093913798544 -5.139024655431318 70.0
  endloop
endfacet
facet normal 0.0 0.0 -1.0
  outer loop
    vertex -7.691093913798544 -5.139024655431318 70.0
    vertex -7.691093913798543 23.63902465543132 70.0
    vertex -7.150346693605319 -5.86813787851372 70.0
  endloop
endfacet
facet normal 0.0 0.0 -1.0
  outer loop
    vertex -7.150346693605319 -5.86813787851372 70.0
    vertex -7.691093913798543 23.63902465543132 70.0
    vertex -7.150346693605314 24.368137878513725 70.0
  endloop
endfacet
facet normal 0.0 0.0 -1.0
  outer loop
    vertex -7.150346693605319 -5.86813787851372 70.0
    vertex -7.150346693605314 24.368137878513725 70.0
    vertex -6.540737725975565 -6.540737725975564 70.0
  endloop
endfacet
facet normal 0.0 0.0 -1.0
  outer loop
    vertex -6.540737725975565 -6.540737725975564 70.0
    vertex -7.150346693605314 24.368137878513725 70.0
    vertex -6.540737725975564 25.040737725975564 70.0
  endloop
endfacet
facet normal 0.0 0.0 -1.0
  outer loop
    vertex -6.540737725975565 -6.540737725975564 70.0
    vertex -6.540737725975564 25.040737725975564 70.0
    vertex -5.86813787851372 -7.150346693605317 70.0
  endloop
endfacet
facet normal 0.0 0.0 -1.0
  outer loop
    vertex -5.86813787851372 -7.150346693605317 70.0
    vertex -6.540737725975564 25.040737725975564 70.0
    vertex -5.868137878513719 25.650346693605318 70.0
  endloop
endfacet
facet normal 0.0 0.0 -1.0
  outer loop
    vertex -5.86813787851372 -7.150346693605317 70.0
    vertex -5.868137878513719 25.650346693605318 70.0
    vertex -5.13902465543132 -7.691093913798544 70.0
  endloop
endfacet
facet normal 0.0 0.0 -1.0
  outer loop
    vertex -5.13902465543132 -7.691093913798544 70.0
    vertex -5.868137878513719 25.650346693605318 70.0
    vertex -5.139024655431318 26.191093913798543 70.0
  endloop
endfacet
facet normal 0.0 0.0 -1.0
  outer loop
    vertex -5.13902465543132 -7.691093913798544 70.0
    vertex -5.139024655431318 26.191093913798543 70.0
    vertex -4.36041981564048 -8.157771695222284 70.0
  endloop
endfacet
facet normal 0.0 0.0 -1.0
  outer loop
    vertex -4.36041981564048 -8.157771695222284 70.0
    vertex -5.139024655431318 26.191093913798543 70.0
    vertex -4.360419815640478 26.657771695222284 70.0
  endloop
endfacet
facet normal 0.0 0.0 -1.0
  outer loop
    vertex -4.36041981564048 -8.157771695222284 70.0
    vertex -4.360419815640478 26.657771695222284 70.0
    vertex -3.5398217493770816 -8.545885675729401 70.0
  endloop
endfacet
facet normal 0.0 0.0 -1.0
  outer loop
    vertex -3.5398217493770816 -8.545885675729401 70.0
    vertex -4.360419815640478 26.657771695222284 70.0
    vertex -3.5398217493770785 27.0458856757294 70.0
  endloop
endfacet
facet normal 0.0 0.0 -1.0
  outer loop
    vertex -3.5398217493770816 -8.545885675729401 70.0
    vertex -3.5398217493770785 27.0458856757294 70.0
    vertex -2.685133264603777 -8.851698105522932 70.0
  endloop
endfacet
facet normal 0.0 0.0 -1.0
  outer loop
    vertex -2.685133264603777 -8.851698105522932 70.0
    vertex -3.5398217493770785 27.0458856757294 70.0
    vertex -2.6851332646037744 27.351698105522935 70.0
  endloop
endfacet
facet normal 0.0 0.0 -1.0
  outer loop
    vertex -2.685133264603777 -8.851698105522932 70.0
    vertex -2.6851332646037744 27.351698105522935 70.0
    vertex -1.8045854786491895 -9.072263843729882 70.0
  endloop
endfacet
facet normal 0.0 0.0 -1.0
  outer loop
    vertex -1.8045854786491895 -9.072263843729882 70.0
    vertex -2.6851332646037744 27.351698105522935 70.0
    vertex -1.8045854786491873 27.572263843729882 70.0
  endloop
endfacet
facet normal 0.0 0.0 -1.0
  outer loop
    vertex -1.8045854786491895 -9.072263843729882 70.0
    vertex -1.8045854786491873 27.572263843729882 70.0
    vertex -0.9066585480484376 -9.20545872171782 70.0
  endloop
endfacet
facet normal 0.0 0.0 -1.0
  outer loop
    vertex -0.9066585480484376 -9.20545872171782 70.0
    vertex -1.8045854786491873 27.572263843729882 70.0
    vertex -0.9066585480484355 27.705458721717825 70.0
  endloop
endfacet
facet normal 0.0 0.0 -1.0
  outer loop
    vertex -0.9066585480484376 -9.20545872171782 70.0
    vertex -0.9066585480484355 27.705458721717825 70.0
    vertex -1.1327982892113039e-15 -9.25 70.0
  endloop
endfacet
facet normal 0.0 0.0 -1.0
  outer loop
    vertex -1.1327982892113039e-15 -9.25 70.0
    vertex -0.9066585480484355 27.705458721717825 70.0
    vertex 1.1327982892112995e-15 27.75 70.0
  endloop
endfacet
facet normal 0.0 0.0 -1.0
  outer loop
    vertex -1.1327982892113039e-15 -9.25 70.0
    vertex 1.1327982892112995e-15 27.75 70.0
    vertex 0.9066585480484355 -9.205458721717822 70.0
  endloop
endfacet
facet normal 0.0 0.0 -1.0
  outer loop
    vertex 0.9066585480484355 -9.205458721717822 70.0
    vertex 1.1327982892112995e-15 27.75 70.0
    vertex 0.9066585480484376 27.705458721717818 70.0
  endloop
endfacet
facet normal 0.0 0.0 -1.0
  outer loop
    vertex 0.9066585480484355 -9.205458721717822 70.0
    vertex 0.9066585480484376 27.705458721717818 70.0
    vertex 0.9066585480485316 -13.0814754519511 70.0
  endloop
endfacet
facet normal 0.0 0.0 -1.0
  outer loop
    vertex 0.9066585480485316 -13.0814754519511 70.0
    vertex 0.9066585480484376 27.705458721717818 70.0
    vertex 0.9066585480485414 31.581475451951093 70.0
  endloop
endfacet
facet normal 0.0 0.0 -1.0
  outer loop
    vertex 0.9066585480485316 -13.0814754519511 70.0
    vertex 0.9066585480485414 31.581475451951093 70.0
    vertex 9.250000000000085 -13.0814754519511 70.0
  endloop
endfacet
facet normal 0.0 0.0 -1.0
  outer loop
    vertex 9.250000000000085 -13.0814754519511 70.0
    vertex 0.9066585480485414 31.581475451951093 70.0
    vertex 9.250000000000092 31.58147545195109 70.0
  endloop
endfacet
facet normal 0.0 0.0 -1.0
  outer loop
    vertex -9.20545872171782 0.9066585480484372 70.0
    vertex -9.205458721717822 -0.9066585480484359 70.0
    vertex -9.25 5.663991446056501e-16 70.0
  endloop
endfacet
facet normal 0.0 0.0 -1.0
  outer loop
    vertex -9.205458721717822 -0.9066585480484359 70.0
    vertex -9.20545872171782 0.9066585480484372 70.0
    vertex -9.072263843729882 -1.804585478649186 70.0
  endloop
endfacet
facet normal 0.0 0.0 -1.0
  outer loop
    vertex -9.205458721717822 17.59334145195157 70.0
    vertex -13.081475451951128 0.9066585480484389 70.0
    vertex -13.081475451951128 17.59334145195157 70.0
  endloop
endfacet
facet normal 0.0 0.0 -1.0
  outer loop
    vertex -13.081475451951128 0.9066585480484389 70.0
    vertex -9.205458721717822 17.59334145195157 70.0
    vertex -9.20545872171782 0.9066585480484372 70.0
  endloop
endfacet
facet normal 1.230833297553228e-16 -1.9353891111733813e-31 1.0
  outer loop
    vertex -15.629618166804924 6.7995714917609895 72.0
    vertex -15.629618166804924 11.700428508239023 72.0
    vertex -15.75 9.250000000000005 72.0
  endloop
endfacet
facet normal 1.230833297553228e-16 -1.9353891111733813e-31 1.0
  outer loop
    vertex -15.629618166804924 11.700428508239023 72.0
    vertex -15.629618166804924 6.7995714917609895 72.0
    vertex -15.269632010080764 4.372741949596796 72.0
  endloop
endfacet
facet normal 1.230833297553228e-16 -1.9353891111733813e-31 1.0
  outer loop
    vertex -15.629618166804924 11.700428508239023 72.0
    vertex -15.269632010080764 4.372741949596796 72.0
    vertex -15.269632010080759 14.127258050403219 72.0
  endloop
endfacet
facet normal 1.230833297553228e-16 -1.9353891111733813e-31 1.0
  outer loop
    vertex -15.269632010080759 14.127258050403219 72.0
    vertex -15.269632010080764 4.372741949596796 72.0
    vertex -14.673508393305225 1.9928830686384469 72.0
  endloop
endfacet
facet normal 1.230833297553228e-16 -1.9353891111733813e-31 1.0
  outer loop
    vertex -15.269632010080759 14.127258050403219 72.0
    vertex -14.673508393305225 1.9928830686384469 72.0
    vertex -14.673508393305225 16.507116931361566 72.0
  endloop
endfacet
facet normal 1.230833297553228e-16 -1.9353891111733813e-31 1.0
  outer loop
    vertex -14.673508393305225 16.507116931361566 72.0
    vertex -14.673508393305225 1.9928830686384469 72.0
    vertex -14.284851045205995 0.9066585480484399 72.0
  endloop
endfacet
facet normal 1.230833297553228e-16 -1.9353891111733813e-31 1.0
  outer loop
    vertex -14.673508393305225 16.507116931361566 72.0
    vertex -14.284851045205995 0.9066585480484399 72.0
    vertex -14.284851045205995 17.59334145195157 72.0
  endloop
endfacet
facet normal 1.230833297553228e-16 -1.9353891111733813e-31 1.0
  outer loop
    vertex -14.284851045205995 17.59334145195157 72.0
    vertex -14.284851045205995 0.9066585480484399 72.0
    vertex -13.846988312782175 -0.31708580912723966 72.0
  endloop
endfacet
facet normal 1.230833297553228e-16 -1.9353891111733813e-31 1.0
  outer loop
    vertex -14.284851045205995 17.59334145195157 72.0
    vertex -13.846988312782175 -0.31708580912723966 72.0
    vertex -13.846988312782171 18.81708580912725 72.0
  endloop
endfacet
facet normal 1.230833297553228e-16 -1.9353891111733813e-31 1.0
  outer loop
    vertex -13.846988312782171 18.81708580912725 72.0
    vertex -13.846988312782175 -0.31708580912723966 72.0
    vertex -12.798031608708879 -2.534918420649937 72.0
  endloop
endfacet
facet normal 1.230833297553228e-16 -1.9353891111733813e-31 1.0
  outer loop
    vertex -13.846988312782171 18.81708580912725 72.0
    vertex -12.798031608708879 -2.534918420649937 72.0
    vertex -12.798031608708873 21.03491842064995 72.0
  endloop
endfacet
facet normal 1.230833297553228e-16 -1.9353891111733813e-31 1.0
  outer loop
    vertex -12.798031608708873 21.03491842064995 72.0
    vertex -12.798031608708879 -2.534918420649937 72.0
    vertex -11.536740307563637 -4.6392558254900464 72.0
  endloop
endfacet
facet normal 1.230833297553228e-16 -1.9353891111733813e-31 1.0
  outer loop
    vertex -12.798031608708873 21.03491842064995 72.0
    vertex -11.536740307563637 -4.6392558254900464 72.0
    vertex -11.53674030756363 23.13925582549006 72.0
  endloop
endfacet
facet normal 1.230833297553228e-16 -1.9353891111733813e-31 1.0
  outer loop
    vertex -11.53674030756363 23.13925582549006 72.0
    vertex -11.536740307563637 -4.6392558254900464 72.0
    vertex -10.07526133406843 -6.609832104091129 72.0
  endloop
endfacet
facet normal 1.230833297553228e-16 -1.9353891111733813e-31 1.0
  outer loop
    vertex -11.53674030756363 23.13925582549006 72.0
    vertex -10.07526133406843 -6.609832104091129 72.0
    vertex -10.075261334068426 25.10983210409114 72.0
  endloop
endfacet
facet normal 1.230833297553228e-16 -1.9353891111733813e-31 1.0
  outer loop
    vertex -10.075261334068426 25.10983210409114 72.0
    vertex -10.07526133406843 -6.609832104091129 72.0
    vertex -8.427669529663692 -8.427669529663683 72.0
  endloop
endfacet
facet normal 1.230833297553228e-16 -1.9353891111733813e-31 1.0
  outer loop
    vertex -10.075261334068426 25.10983210409114 72.0
    vertex -8.427669529663692 -8.427669529663683 72.0
    vertex -8.427669529663687 26.927669529663692 72.0
  endloop
endfacet
facet normal 1.230833297553228e-16 -1.9353891111733813e-31 1.0
  outer loop
    vertex -8.427669529663687 26.927669529663692 72.0
    vertex -8.427669529663692 -8.427669529663683 72.0
    vertex -6.60983210409114 -10.075261334068422 72.0
  endloop
endfacet
facet normal 1.230833297553228e-16 -1.9353891111733813e-31 1.0
  outer loop
    vertex -8.427669529663687 26.927669529663692 72.0
    vertex -6.60983210409114 -10.075261334068422 72.0
    vertex -6.609832104091134 28.575261334068433 72.0
  endloop
endfacet
facet normal 1.230833297553228e-16 -1.9353891111733813e-31 1.0
  outer loop
    vertex -6.609832104091134 28.575261334068433 72.0
    vertex -6.60983210409114 -10.075261334068422 72.0
    vertex -4.639255825490056 -11.536740307563633 72.0
  endloop
endfacet
facet normal 1.230833297553228e-16 -1.9353891111733813e-31 1.0
  outer loop
    vertex -6.609832104091134 28.575261334068433 72.0
    vertex -4.639255825490056 -11.536740307563633 72.0
    vertex -4.639255825490051 30.036740307563633 72.0
  endloop
endfacet
facet normal 1.230833297553228e-16 -1.9353891111733813e-31 1.0
  outer loop
    vertex -4.639255825490051 30.036740307563633 72.0
    vertex -4.639255825490056 -11.536740307563633 72.0
    vertex -2.5349184206499493 -12.798031608708873 72.0
  endloop
endfacet
facet normal 1.230833297553228e-16 -1.9353891111733813e-31 1.0
  outer loop
    vertex -4.639255825490051 30.036740307563633 72.0
    vertex -2.5349184206499493 -12.798031608708873 72.0
    vertex -2.534918420649944 31.29803160870888 72.0
  endloop
endfacet
facet normal 1.230833297553228e-16 -1.9353891111733813e-31 1.0
  outer loop
    vertex -2.534918420649944 31.29803160870888 72.0
    vertex -2.5349184206499493 -12.798031608708873 72.0
    vertex -0.31708580912725093 -13.846988312782171 72.0
  endloop
endfacet
facet normal 1.230833297553228e-16 -1.9353891111733813e-31 1.0
  outer loop
    vertex -2.534918420649944 31.29803160870888 72.0
    vertex -0.31708580912725093 -13.846988312782171 72.0
    vertex -0.3170858091272439 32.34698831278218 72.0
  endloop
endfacet
facet normal 1.230833297553228e-16 -1.9353891111733813e-31 1.0
  outer loop
    vertex -0.3170858091272439 32.34698831278218 72.0
    vertex -0.31708580912725093 -13.846988312782171 72.0
    vertex 1.9928830686384371 -14.673508393305221 72.0
  endloop
endfacet
facet normal 1.230833297553228e-16 -1.9353891111733813e-31 1.0
  outer loop
    vertex -0.3170858091272439 32.34698831278218 72.0
    vertex 1.9928830686384371 -14.673508393305221 72.0
    vertex 1.9928830686384469 33.17350839330523 72.0
  endloop
endfacet
facet normal 1.230833297553228e-16 -1.9353891111733813e-31 1.0
  outer loop
    vertex 1.9928830686384469 33.17350839330523 72.0
    vertex 1.9928830686384371 -14.673508393305221 72.0
    vertex 4.372741949596782 -15.269632010080759 72.0
  endloop
endfacet
facet normal 1.230833297553228e-16 -1.9353891111733813e-31 1.0
  outer loop
    vertex 1.9928830686384469 33.17350839330523 72.0
    vertex 4.372741949596782 -15.269632010080759 72.0
    vertex 4.372741949596796 33.76963201008076 72.0
  endloop
endfacet
facet normal 1.230833297553228e-16 -1.9353891111733813e-31 1.0
  outer loop
    vertex 4.372741949596796 33.76963201008076 72.0
    vertex 4.372741949596782 -15.269632010080759 72.0
    vertex 6.799571491760978 -15.629618166804924 72.0
  endloop
endfacet
facet normal 1.230833297553228e-16 -1.9353891111733813e-31 1.0
  outer loop
    vertex 4.372741949596796 33.76963201008076 72.0
    vertex 6.799571491760978 -15.629618166804924 72.0
    vertex 6.7995714917609895 34.129618166804924 72.0
  endloop
endfacet
facet normal 1.230833297553228e-16 -1.9353891111733813e-31 1.0
  outer loop
    vertex 6.7995714917609895 34.129618166804924 72.0
    vertex 6.799571491760978 -15.629618166804924 72.0
    vertex 9.249999999999995 -15.750000000000005 72.0
  endloop
endfacet
facet normal 1.230833297553228e-16 -1.9353891111733813e-31 1.0
  outer loop
    vertex 6.7995714917609895 34.129618166804924 72.0
    vertex 9.249999999999995 -15.750000000000005 72.0
    vertex 9.250000000000004 34.25 72.0
  endloop
endfacet
facet normal -0.9891765099647808 0.1467304744553634 -3.0259032323078484e-32
  outer loop
    vertex -15.269632010080759 14.127258050403219 72.0
    vertex -15.629618166804924 11.700428508239023 -2.000000000000022
    vertex -15.629618166804924 11.700428508239023 72.0
  endloop
endfacet
facet normal -0.9891765099647808 0.1467304744553634 -3.0259032323078484e-32
  outer loop
    vertex -15.629618166804924 11.700428508239023 -2.000000000000022
    vertex -15.269632010080759 14.127258050403219 72.0
    vertex -15.269632010080759 14.127258050403219 -2.000000000000022
  endloop
endfacet
facet normal -0.941544065183021 0.3368898533922194 -2.6771987695860935e-32
  outer loop
    vertex -14.284851045205995 17.59334145195157 72.0
    vertex -14.673508393305225 16.507116931361566 -2.000000000000022
    vertex -14.673508393305225 16.507116931361566 72.0
  endloop
endfacet
facet normal -0.941544065183021 0.3368898533922194 -2.6771987695860935e-32
  outer loop
    vertex -14.673508393305225 16.507116931361566 -2.000000000000022
    vertex -14.284851045205995 17.59334145195157 72.0
    vertex -14.284851045205995 17.59334145195157 -2.000000000000022
  endloop
endfacet
facet normal -0.24298017990326343 0.9700312531945441 2.180397228701071e-33
  outer loop
    vertex 1.9928830686384469 33.17350839330523 72.0
    vertex 4.372741949596796 33.76963201008076 -2.000000000000022
    vertex 1.9928830686384469 33.17350839330523 -2.000000000000022
  endloop
endfacet
facet normal -0.24298017990326343 0.9700312531945441 2.180397228701071e-33
  outer loop
    vertex 4.372741949596796 33.76963201008076 -2.000000000000022
    vertex 1.9928830686384469 33.17350839330523 72.0
    vertex 4.372741949596796 33.76963201008076 72.0
  endloop
endfacet
facet normal -0.6715589548470187 0.740951125354959 -1.39420555220031e-32
  outer loop
    vertex -8.427669529663687 26.927669529663692 72.0
    vertex -6.609832104091134 28.575261334068433 -2.000000000000022
    vertex -8.427669529663687 26.927669529663692 -2.000000000000022
  endloop
endfacet
facet normal -0.6715589548470187 0.740951125354959 -1.39420555220031e-32
  outer loop
    vertex -6.609832104091134 28.575261334068433 -2.000000000000022
    vertex -8.427669529663687 26.927669529663692 72.0
    vertex -6.609832104091134 28.575261334068433 72.0
  endloop
endfacet
facet normal -0.740951125354959 0.6715589548470187 -1.6884943646118797e-32
  outer loop
    vertex -8.427669529663687 26.927669529663692 72.0
    vertex -10.075261334068426 25.10983210409114 -2.000000000000022
    vertex -10.075261334068426 25.10983210409114 72.0
  endloop
endfacet
facet normal -0.740951125354959 0.6715589548470187 -1.6884943646118797e-32
  outer loop
    vertex -10.075261334068426 25.10983210409114 -2.000000000000022
    vertex -8.427669529663687 26.927669529663692 72.0
    vertex -8.427669529663687 26.927669529663692 -2.000000000000022
  endloop
endfacet
facet normal -0.8032075314806453 0.5956993044924331 -1.9665220532673293e-32
  outer loop
    vertex -10.075261334068426 25.10983210409114 72.0
    vertex -11.53674030756363 23.13925582549006 -2.000000000000022
    vertex -11.53674030756363 23.13925582549006 72.0
  endloop
endfacet
facet normal -0.8032075314806453 0.5956993044924331 -1.9665220532673293e-32
  outer loop
    vertex -11.53674030756363 23.13925582549006 -2.000000000000022
    vertex -10.075261334068426 25.10983210409114 72.0
    vertex -10.075261334068426 25.10983210409114 -2.000000000000022
  endloop
endfacet
facet normal -0.9987954562051725 0.04906767432741658 -3.1573169255118163e-32
  outer loop
    vertex -15.629618166804924 11.700428508239023 72.0
    vertex -15.75 9.250000000000005 -2.000000000000022
    vertex -15.75 9.250000000000005 72.0
  endloop
endfacet
facet normal -0.9987954562051725 0.04906767432741658 -3.1573169255118163e-32
  outer loop
    vertex -15.75 9.250000000000005 -2.000000000000022
    vertex -15.629618166804924 11.700428508239023 72.0
    vertex -15.629618166804924 11.700428508239023 -2.000000000000022
  endloop
endfacet
facet normal -0.14673047445536125 0.989176509964781 5.4686933693370385e-33
  outer loop
    vertex 4.372741949596796 33.76963201008076 72.0
    vertex 6.7995714917609895 34.129618166804924 -2.000000000000022
    vertex 4.372741949596796 33.76963201008076 -2.000000000000022
  endloop
endfacet
facet normal -0.14673047445536125 0.989176509964781 5.4686933693370385e-33
  outer loop
    vertex 6.7995714917609895 34.129618166804924 -2.000000000000022
    vertex 4.372741949596796 33.76963201008076 72.0
    vertex 6.7995714917609895 34.129618166804924 72.0
  endloop
endfacet
facet normal -0.33688985339221844 0.9415440651830214 -1.1288973291736129e-33
  outer loop
    vertex -0.3170858091272439 32.34698831278218 72.0
    vertex 1.9928830686384469 33.17350839330523 -2.000000000000022
    vertex -0.3170858091272439 32.34698831278218 -2.000000000000022
  endloop
endfacet
facet normal -0.33688985339221844 0.9415440651830214 -1.1288973291736129e-33
  outer loop
    vertex 1.9928830686384469 33.17350839330523 -2.000000000000022
    vertex -0.3170858091272439 32.34698831278218 72.0
    vertex 1.9928830686384469 33.17350839330523 72.0
  endloop
endfacet
facet normal -0.514102744193224 0.8577286100002709 -7.68310513641722e-33
  outer loop
    vertex -4.639255825490051 30.036740307563633 72.0
    vertex -2.534918420649944 31.29803160870888 -2.000000000000022
    vertex -4.639255825490051 30.036740307563633 -2.000000000000022
  endloop
endfacet
facet normal -0.514102744193224 0.8577286100002709 -7.68310513641722e-33
  outer loop
    vertex -2.534918420649944 31.29803160870888 -2.000000000000022
    vertex -4.639255825490051 30.036740307563633 72.0
    vertex -2.534918420649944 31.29803160870888 72.0
  endloop
endfacet
facet normal -0.04906767432741666 0.9987954562051725 8.704323003334432e-33
  outer loop
    vertex 6.7995714917609895 34.129618166804924 72.0
    vertex 9.250000000000004 34.25 -2.000000000000022
    vertex 6.7995714917609895 34.129618166804924 -2.000000000000022
  endloop
endfacet
facet normal -0.04906767432741666 0.9987954562051725 8.704323003334432e-33
  outer loop
    vertex 9.250000000000004 34.25 -2.000000000000022
    vertex 6.7995714917609895 34.129618166804924 72.0
    vertex 9.250000000000004 34.25 72.0
  endloop
endfacet
facet normal -0.5956993044924312 0.8032075314806465 -1.0864897781707596e-32
  outer loop
    vertex -6.609832104091134 28.575261334068433 72.0
    vertex -4.639255825490051 30.036740307563633 -2.000000000000022
    vertex -6.609832104091134 28.575261334068433 -2.000000000000022
  endloop
endfacet
facet normal -0.5956993044924312 0.8032075314806465 -1.0864897781707596e-32
  outer loop
    vertex -4.639255825490051 30.036740307563633 -2.000000000000022
    vertex -6.609832104091134 28.575261334068433 72.0
    vertex -4.639255825490051 30.036740307563633 72.0
  endloop
endfacet
facet normal -0.9700312531945444 0.24298017990326248 -2.865348436849799e-32
  outer loop
    vertex -14.673508393305225 16.507116931361566 72.0
    vertex -15.269632010080759 14.127258050403219 -2.000000000000022
    vertex -15.269632010080759 14.127258050403219 72.0
  endloop
endfacet
facet normal -0.9700312531945444 0.24298017990326248 -2.865348436849799e-32
  outer loop
    vertex -15.269632010080759 14.127258050403219 -2.000000000000022
    vertex -14.673508393305225 16.507116931361566 72.0
    vertex -14.673508393305225 16.507116931361566 -2.000000000000022
  endloop
endfacet
facet normal -0.8577286100002715 0.5141027441932225 -2.225611059539504e-32
  outer loop
    vertex -11.53674030756363 23.13925582549006 72.0
    vertex -12.798031608708873 21.03491842064995 -2.000000000000022
    vertex -12.798031608708873 21.03491842064995 72.0
  endloop
endfacet
facet normal -0.8577286100002715 0.5141027441932225 -2.225611059539504e-32
  outer loop
    vertex -12.798031608708873 21.03491842064995 -2.000000000000022
    vertex -11.53674030756363 23.13925582549006 72.0
    vertex -11.53674030756363 23.13925582549006 -2.000000000000022
  endloop
endfacet
facet normal -0.9987954562051725 -0.049067674327416606 -3.2583239307581e-32
  outer loop
    vertex -15.75 9.250000000000005 72.0
    vertex -15.629618166804924 6.7995714917609895 -2.000000000000022
    vertex -15.629618166804924 6.7995714917609895 72.0
  endloop
endfacet
facet normal -0.9987954562051725 -0.049067674327416606 -3.2583239307581e-32
  outer loop
    vertex -15.629618166804924 6.7995714917609895 -2.000000000000022
    vertex -15.75 9.250000000000005 72.0
    vertex -15.75 9.250000000000005 -2.000000000000022
  endloop
endfacet
facet normal -0.4275550934302832 0.9039892931234428 -4.427319988650442e-33
  outer loop
    vertex -2.534918420649944 31.29803160870888 72.0
    vertex -0.3170858091272439 32.34698831278218 -2.000000000000022
    vertex -2.534918420649944 31.29803160870888 -2.000000000000022
  endloop
endfacet
facet normal -0.4275550934302832 0.9039892931234428 -4.427319988650442e-33
  outer loop
    vertex -0.3170858091272439 32.34698831278218 -2.000000000000022
    vertex -2.534918420649944 31.29803160870888 72.0
    vertex -0.3170858091272439 32.34698831278218 72.0
  endloop
endfacet
facet normal -0.989176509964781 -0.14673047445536125 -3.327951495370144e-32
  outer loop
    vertex -15.629618166804924 6.7995714917609895 72.0
    vertex -15.269632010080764 4.372741949596796 -2.000000000000022
    vertex -15.269632010080764 4.372741949596796 72.0
  endloop
endfacet
facet normal -0.989176509964781 -0.14673047445536125 -3.327951495370144e-32
  outer loop
    vertex -15.269632010080764 4.372741949596796 -2.000000000000022
    vertex -15.629618166804924 6.7995714917609895 72.0
    vertex -15.629618166804924 6.7995714917609895 -2.000000000000022
  endloop
endfacet
facet normal -0.970031253194544 -0.24298017990326456 -3.3655290678384305e-32
  outer loop
    vertex -15.269632010080764 4.372741949596796 72.0
    vertex -14.673508393305225 1.9928830686384469 -2.000000000000022
    vertex -14.673508393305225 1.9928830686384469 72.0
  endloop
endfacet
facet normal -0.970031253194544 -0.24298017990326456 -3.3655290678384305e-32
  outer loop
    vertex -14.673508393305225 1.9928830686384469 -2.000000000000022
    vertex -15.269632010080764 4.372741949596796 72.0
    vertex -15.269632010080764 4.372741949596796 -2.000000000000022
  endloop
endfacet
facet normal -0.9415440651830214 -0.3368898533922186 -3.3706947555981e-32
  outer loop
    vertex -14.673508393305225 1.9928830686384469 72.0
    vertex -14.284851045205995 0.9066585480484399 -2.000000000000022
    vertex -14.284851045205995 0.9066585480484399 72.0
  endloop
endfacet
facet normal -0.9415440651830214 -0.3368898533922186 -3.3706947555981e-32
  outer loop
    vertex -14.284851045205995 0.9066585480484399 -2.000000000000022
    vertex -14.673508393305225 1.9928830686384469 72.0
    vertex -14.673508393305225 1.9928830686384469 -2.000000000000022
  endloop
endfacet
facet normal -0.903989293123443 0.42755509343028275 -2.4632662146655553e-32
  outer loop
    vertex -12.798031608708873 21.03491842064995 72.0
    vertex -13.846988312782171 18.81708580912725 -2.000000000000022
    vertex -13.846988312782171 18.81708580912725 72.0
  endloop
endfacet
facet normal -0.903989293123443 0.42755509343028275 -2.4632662146655553e-32
  outer loop
    vertex -13.846988312782171 18.81708580912725 -2.000000000000022
    vertex -12.798031608708873 21.03491842064995 72.0
    vertex -12.798031608708873 21.03491842064995 -2.000000000000022
  endloop
endfacet
facet normal -0.9415440651830204 0.3368898533922213 -2.6771987695860886e-32
  outer loop
    vertex -13.846988312782171 18.81708580912725 72.0
    vertex -14.284851045205995 17.59334145195157 -2.000000000000022
    vertex -14.284851045205995 17.59334145195157 72.0
  endloop
endfacet
facet normal -0.9415440651830204 0.3368898533922213 -2.6771987695860886e-32
  outer loop
    vertex -14.284851045205995 17.59334145195157 -2.000000000000022
    vertex -13.846988312782171 18.81708580912725 72.0
    vertex -13.846988312782171 18.81708580912725 -2.000000000000022
  endloop
endfacet
facet normal 1.0 2.4781912720486805e-14 3.2116890482489675e-32
  outer loop
    vertex 0.9066585480484355 -9.205458721717822 0.0
    vertex 0.9066585480485316 -13.0814754519511 70.0
    vertex 0.9066585480485316 -13.0814754519511 0.0
  endloop
endfacet
facet normal 1.0 2.4781912720486805e-14 3.2116890482489675e-32
  outer loop
    vertex 0.9066585480485316 -13.0814754519511 70.0
    vertex 0.9066585480484355 -9.205458721717822 0.0
    vertex 0.9066585480484355 -9.205458721717822 70.0
  endloop
endfacet
endsolid 4x18650
