solid clips-50х50-simple
facet normal 0.21486178267511935 -2.921397405528323e-33 0.9766444667050901
  outer loop
    vertex -27.96581480118636 -49.68096857271654 2.199999999999999
    vertex -37.96581480118637 -50.68096857271654 4.399999999999995
    vertex -37.96581480118637 -53.680968572716544 4.399999999999995
  endloop
endfacet
facet normal 0.21486178267511935 -2.921397405528323e-33 0.9766444667050901
  outer loop
    vertex -37.96581480118637 -50.68096857271654 4.399999999999995
    vertex -27.96581480118636 -49.68096857271654 2.199999999999999
    vertex -37.96581480118637 -0.6809685727165394 4.399999999999995
  endloop
endfacet
facet normal 0.21486178267511935 -2.921397405528323e-33 0.9766444667050901
  outer loop
    vertex -37.96581480118637 -0.6809685727165394 4.399999999999995
    vertex -27.96581480118636 -49.68096857271654 2.199999999999999
    vertex -37.96581480118637 2.3190314272834662 4.399999999999995
  endloop
endfacet
facet normal 0.21486178267511935 -2.921397405528323e-33 0.9766444667050901
  outer loop
    vertex -37.96581480118637 2.3190314272834662 4.399999999999995
    vertex -27.96581480118636 -49.68096857271654 2.199999999999999
    vertex -27.96581480118636 -1.6809685727165375 2.199999999999999
  endloop
endfacet
facet normal 1.0 0.0 0.0
  outer loop
    vertex -27.96581480118636 -41.52096857271654 1.4099832412739487e-15
    vertex -27.96581480118636 -50.68096857271654 1.1999999999999964
    vertex -27.96581480118636 -50.68096857271654 1.4099832412739487e-15
  endloop
endfacet
facet normal 1.0 0.0 0.0
  outer loop
    vertex -27.96581480118636 -50.68096857271654 1.1999999999999964
    vertex -27.96581480118636 -41.52096857271654 1.4099832412739487e-15
    vertex -27.96581480118636 -49.68096857271654 2.199999999999999
  endloop
endfacet
facet normal 1.0 0.0 0.0
  outer loop
    vertex -27.96581480118636 -49.68096857271654 2.199999999999999
    vertex -27.96581480118636 -41.52096857271654 1.4099832412739487e-15
    vertex -27.96581480118636 -1.6809685727165375 2.199999999999999
  endloop
endfacet
facet normal 1.0 0.0 0.0
  outer loop
    vertex -27.96581480118636 -1.6809685727165375 2.199999999999999
    vertex -27.96581480118636 -41.52096857271654 1.4099832412739487e-15
    vertex -27.96581480118636 -36.77668778792969 1.4099832412739487e-15
  endloop
endfacet
facet normal 1.0 0.0 0.0
  outer loop
    vertex -27.96581480118636 -1.6809685727165375 2.199999999999999
    vertex -27.96581480118636 -36.77668778792969 1.4099832412739487e-15
    vertex -27.96581480118636 -29.276687787929692 1.4099832412739487e-15
  endloop
endfacet
facet normal 1.0 0.0 0.0
  outer loop
    vertex -27.96581480118636 -1.6809685727165375 2.199999999999999
    vertex -27.96581480118636 -29.276687787929692 1.4099832412739487e-15
    vertex -27.96581480118636 -22.180968572716534 1.4099832412739487e-15
  endloop
endfacet
facet normal 1.0 0.0 0.0
  outer loop
    vertex -27.96581480118636 -1.6809685727165375 2.199999999999999
    vertex -27.96581480118636 -22.180968572716534 1.4099832412739487e-15
    vertex -27.96581480118636 -14.680968572716536 1.4099832412739487e-15
  endloop
endfacet
facet normal 1.0 0.0 0.0
  outer loop
    vertex -27.96581480118636 -1.6809685727165375 2.199999999999999
    vertex -27.96581480118636 -14.680968572716536 1.4099832412739487e-15
    vertex -27.96581480118636 -9.936687787929674 1.4099832412739487e-15
  endloop
endfacet
facet normal 1.0 0.0 0.0
  outer loop
    vertex -27.96581480118636 -1.6809685727165375 2.199999999999999
    vertex -27.96581480118636 -9.936687787929674 1.4099832412739487e-15
    vertex -27.96581480118636 -0.6809685727165394 1.0574874309554614e-15
  endloop
endfacet
facet normal 1.0 0.0 0.0
  outer loop
    vertex -27.96581480118636 -1.6809685727165375 2.199999999999999
    vertex -27.96581480118636 -0.6809685727165394 1.0574874309554614e-15
    vertex -27.96581480118636 -0.6809685727165394 1.1999999999999964
  endloop
endfacet
facet normal 0.40151533135761525 -0.647605373157444 0.647605373157444
  outer loop
    vertex -27.96581480118636 -49.68096857271654 2.199999999999999
    vertex -37.96581480118637 -54.680968572716544 3.399999999999997
    vertex -27.96581480118636 -50.68096857271654 1.1999999999999964
  endloop
endfacet
facet normal 0.40151533135761525 -0.647605373157444 0.647605373157444
  outer loop
    vertex -37.96581480118637 -54.680968572716544 3.399999999999997
    vertex -27.96581480118636 -49.68096857271654 2.199999999999999
    vertex -37.96581480118637 -53.680968572716544 4.399999999999995
  endloop
endfacet
facet normal 0.0 0.0 1.0
  outer loop
    vertex -51.96581480118635 2.3190314272834662 4.399999999999995
    vertex -47.965814801186355 -0.6809685727165394 4.399999999999995
    vertex -37.96581480118637 2.3190314272834662 4.399999999999995
  endloop
endfacet
facet normal 0.0 0.0 1.0
  outer loop
    vertex -47.965814801186355 -0.6809685727165394 4.399999999999995
    vertex -51.96581480118635 2.3190314272834662 4.399999999999995
    vertex -47.965814801186355 -50.68096857271654 4.399999999999995
  endloop
endfacet
facet normal 0.0 0.0 1.0
  outer loop
    vertex -37.96581480118637 2.3190314272834662 4.399999999999995
    vertex -47.965814801186355 -0.6809685727165394 4.399999999999995
    vertex -37.96581480118637 -0.6809685727165394 4.399999999999995
  endloop
endfacet
facet normal 0.0 0.0 1.0
  outer loop
    vertex -51.96581480118635 -53.68096857271652 4.399999999999995
    vertex -47.965814801186355 -50.68096857271654 4.399999999999995
    vertex -51.96581480118635 2.3190314272834662 4.399999999999995
  endloop
endfacet
facet normal 0.0 0.0 1.0
  outer loop
    vertex -47.965814801186355 -50.68096857271654 4.399999999999995
    vertex -51.96581480118635 -53.68096857271652 4.399999999999995
    vertex -37.96581480118637 -53.680968572716544 4.399999999999995
  endloop
endfacet
facet normal 0.0 0.0 1.0
  outer loop
    vertex -47.965814801186355 -50.68096857271654 4.399999999999995
    vertex -37.96581480118637 -53.680968572716544 4.399999999999995
    vertex -37.96581480118637 -50.68096857271654 4.399999999999995
  endloop
endfacet
facet normal 4.0722015777096536e-17 1.6717053553067966e-18 -1.0
  outer loop
    vertex -50.57692591229748 3.3190314272834645 1.0574874309554614e-15
    vertex -51.965814801186355 -53.68096857271653 0.0
    vertex -51.965814801186355 2.319031427283455 0.0
  endloop
endfacet
facet normal 4.0722015777096536e-17 1.6717053553067966e-18 -1.0
  outer loop
    vertex -51.965814801186355 -53.68096857271653 0.0
    vertex -50.57692591229748 3.3190314272834645 1.0574874309554614e-15
    vertex -50.57692591229748 -54.680968572716544 7.049916206369744e-16
  endloop
endfacet
facet normal 4.0722015777096536e-17 1.6717053553067966e-18 -1.0
  outer loop
    vertex -50.57692591229748 -54.680968572716544 7.049916206369744e-16
    vertex -50.57692591229748 3.3190314272834645 1.0574874309554614e-15
    vertex -47.965814801186355 -0.6809685727165394 1.0574874309554614e-15
  endloop
endfacet
facet normal 4.0722015777096536e-17 1.6717053553067966e-18 -1.0
  outer loop
    vertex -47.965814801186355 -0.6809685727165394 1.0574874309554614e-15
    vertex -50.57692591229748 3.3190314272834645 1.0574874309554614e-15
    vertex -37.96581480118636 3.3190314272834645 1.0574874309554614e-15
  endloop
endfacet
facet normal 4.0722015777096536e-17 1.6717053553067966e-18 -1.0
  outer loop
    vertex -47.965814801186355 -0.6809685727165394 1.0574874309554614e-15
    vertex -37.96581480118636 3.3190314272834645 1.0574874309554614e-15
    vertex -37.96581480118636 -0.6809685727165394 1.0574874309554614e-15
  endloop
endfacet
facet normal 4.0722015777096536e-17 1.6717053553067966e-18 -1.0
  outer loop
    vertex -37.96581480118636 -0.6809685727165394 1.0574874309554614e-15
    vertex -37.96581480118636 3.3190314272834645 1.0574874309554614e-15
    vertex -27.96581480118636 -0.6809685727165394 1.0574874309554614e-15
  endloop
endfacet
facet normal 4.0722015777096536e-17 1.6717053553067966e-18 -1.0
  outer loop
    vertex -37.96581480118636 -0.6809685727165394 1.0574874309554614e-15
    vertex -27.96581480118636 -0.6809685727165394 1.0574874309554614e-15
    vertex -37.96581480118636 -50.68096857271654 1.0574874309554614e-15
  endloop
endfacet
facet normal 4.0722015777096536e-17 1.6717053553067966e-18 -1.0
  outer loop
    vertex -37.96581480118636 -50.68096857271654 1.0574874309554614e-15
    vertex -27.96581480118636 -0.6809685727165394 1.0574874309554614e-15
    vertex -37.96581480118636 -54.680968572716544 7.049916206369744e-16
  endloop
endfacet
facet normal 4.0722015777096536e-17 1.6717053553067966e-18 -1.0
  outer loop
    vertex -37.96581480118636 -54.680968572716544 7.049916206369744e-16
    vertex -27.96581480118636 -0.6809685727165394 1.0574874309554614e-15
    vertex -27.96581480118636 -50.68096857271654 1.4099832412739487e-15
  endloop
endfacet
facet normal 4.0722015777096536e-17 1.6717053553067966e-18 -1.0
  outer loop
    vertex -27.96581480118636 -50.68096857271654 1.4099832412739487e-15
    vertex -27.96581480118636 -0.6809685727165394 1.0574874309554614e-15
    vertex -27.96581480118636 -9.936687787929674 1.4099832412739487e-15
  endloop
endfacet
facet normal 4.0722015777096536e-17 1.6717053553067966e-18 -1.0
  outer loop
    vertex -27.96581480118636 -50.68096857271654 1.4099832412739487e-15
    vertex -27.96581480118636 -9.936687787929674 1.4099832412739487e-15
    vertex -27.96581480118636 -14.680968572716536 1.4099832412739487e-15
  endloop
endfacet
facet normal 4.0722015777096536e-17 1.6717053553067966e-18 -1.0
  outer loop
    vertex -27.96581480118636 -50.68096857271654 1.4099832412739487e-15
    vertex -27.96581480118636 -14.680968572716536 1.4099832412739487e-15
    vertex -27.96581480118636 -22.180968572716534 1.4099832412739487e-15
  endloop
endfacet
facet normal 4.0722015777096536e-17 1.6717053553067966e-18 -1.0
  outer loop
    vertex -27.96581480118636 -50.68096857271654 1.4099832412739487e-15
    vertex -27.96581480118636 -22.180968572716534 1.4099832412739487e-15
    vertex -27.96581480118636 -29.276687787929692 1.4099832412739487e-15
  endloop
endfacet
facet normal 4.0722015777096536e-17 1.6717053553067966e-18 -1.0
  outer loop
    vertex -27.96581480118636 -50.68096857271654 1.4099832412739487e-15
    vertex -27.96581480118636 -29.276687787929692 1.4099832412739487e-15
    vertex -27.96581480118636 -36.77668778792969 1.4099832412739487e-15
  endloop
endfacet
facet normal 4.0722015777096536e-17 1.6717053553067966e-18 -1.0
  outer loop
    vertex -27.96581480118636 -50.68096857271654 1.4099832412739487e-15
    vertex -27.96581480118636 -36.77668778792969 1.4099832412739487e-15
    vertex -27.96581480118636 -41.52096857271654 1.4099832412739487e-15
  endloop
endfacet
facet normal 4.0722015777096536e-17 1.6717053553067966e-18 -1.0
  outer loop
    vertex -50.57692591229748 -54.680968572716544 7.049916206369744e-16
    vertex -47.965814801186355 -50.68096857271654 1.0574874309554614e-15
    vertex -37.96581480118636 -54.680968572716544 7.049916206369744e-16
  endloop
endfacet
facet normal 4.0722015777096536e-17 1.6717053553067966e-18 -1.0
  outer loop
    vertex -47.965814801186355 -50.68096857271654 1.0574874309554614e-15
    vertex -50.57692591229748 -54.680968572716544 7.049916206369744e-16
    vertex -47.965814801186355 -0.6809685727165394 1.0574874309554614e-15
  endloop
endfacet
facet normal 4.0722015777096536e-17 1.6717053553067966e-18 -1.0
  outer loop
    vertex -37.96581480118636 -54.680968572716544 7.049916206369744e-16
    vertex -47.965814801186355 -50.68096857271654 1.0574874309554614e-15
    vertex -37.96581480118636 -50.68096857271654 1.0574874309554614e-15
  endloop
endfacet
facet normal 0.40151533135761525 0.647605373157444 0.647605373157444
  outer loop
    vertex -37.96581480118637 3.3190314272834645 3.399999999999997
    vertex -27.96581480118636 -1.6809685727165375 2.199999999999999
    vertex -27.96581480118636 -0.6809685727165394 1.1999999999999964
  endloop
endfacet
facet normal 0.40151533135761525 0.647605373157444 0.647605373157444
  outer loop
    vertex -27.96581480118636 -1.6809685727165375 2.199999999999999
    vertex -37.96581480118637 3.3190314272834645 3.399999999999997
    vertex -37.96581480118637 2.3190314272834662 4.399999999999995
  endloop
endfacet
facet normal 0.0 1.0 0.0
  outer loop
    vertex -50.576925912297455 3.3190314272834645 3.399999999999997
    vertex -37.96581480118636 3.3190314272834645 1.0574874309554614e-15
    vertex -50.57692591229748 3.3190314272834645 1.0574874309554614e-15
  endloop
endfacet
facet normal 0.0 1.0 0.0
  outer loop
    vertex -37.96581480118636 3.3190314272834645 1.0574874309554614e-15
    vertex -50.576925912297455 3.3190314272834645 3.399999999999997
    vertex -37.96581480118637 3.3190314272834645 3.399999999999997
  endloop
endfacet
facet normal 0.0 0.7071067811865476 0.7071067811865476
  outer loop
    vertex -51.96581480118635 2.3190314272834662 4.399999999999995
    vertex -37.96581480118637 3.3190314272834645 3.399999999999997
    vertex -50.576925912297455 3.3190314272834645 3.399999999999997
  endloop
endfacet
facet normal 0.0 0.7071067811865476 0.7071067811865476
  outer loop
    vertex -37.96581480118637 3.3190314272834645 3.399999999999997
    vertex -51.96581480118635 2.3190314272834662 4.399999999999995
    vertex -37.96581480118637 2.3190314272834662 4.399999999999995
  endloop
endfacet
facet normal -6.284428240896667e-16 -0.7071067811865438 0.7071067811865513
  outer loop
    vertex -50.576925912297455 -54.680968572716544 3.399999999999997
    vertex -37.96581480118637 -53.680968572716544 4.399999999999995
    vertex -51.96581480118635 -53.68096857271652 4.399999999999995
  endloop
endfacet
facet normal -6.284428240896667e-16 -0.7071067811865438 0.7071067811865513
  outer loop
    vertex -37.96581480118637 -53.680968572716544 4.399999999999995
    vertex -50.576925912297455 -54.680968572716544 3.399999999999997
    vertex -37.96581480118637 -54.680968572716544 3.399999999999997
  endloop
endfacet
facet normal 0.37139067635410405 -0.9284766908852592 5.156948274973562e-16
  outer loop
    vertex -27.96581480118636 -50.68096857271654 1.4099832412739487e-15
    vertex -37.96581480118637 -54.680968572716544 3.399999999999997
    vertex -37.96581480118636 -54.680968572716544 7.049916206369744e-16
  endloop
endfacet
facet normal 0.37139067635410405 -0.9284766908852592 5.156948274973562e-16
  outer loop
    vertex -37.96581480118637 -54.680968572716544 3.399999999999997
    vertex -27.96581480118636 -50.68096857271654 1.4099832412739487e-15
    vertex -27.96581480118636 -50.68096857271654 1.1999999999999964
  endloop
endfacet
facet normal -0.5843047258450788 0.8115343414514924 1.088913638366208e-15
  outer loop
    vertex -51.96581480118635 2.3190314272834662 4.399999999999995
    vertex -50.57692591229748 3.3190314272834645 1.0574874309554614e-15
    vertex -51.965814801186355 2.319031427283455 0.0
  endloop
endfacet
facet normal -0.5843047258450788 0.8115343414514924 1.088913638366208e-15
  outer loop
    vertex -50.57692591229748 3.3190314272834645 1.0574874309554614e-15
    vertex -51.96581480118635 2.3190314272834662 4.399999999999995
    vertex -50.576925912297455 3.3190314272834645 3.399999999999997
  endloop
endfacet
facet normal 0.0 -1.0 0.0
  outer loop
    vertex -37.96581480118637 -54.680968572716544 3.399999999999997
    vertex -50.57692591229748 -54.680968572716544 7.049916206369744e-16
    vertex -37.96581480118636 -54.680968572716544 7.049916206369744e-16
  endloop
endfacet
facet normal 0.0 -1.0 0.0
  outer loop
    vertex -50.57692591229748 -54.680968572716544 7.049916206369744e-16
    vertex -37.96581480118637 -54.680968572716544 3.399999999999997
    vertex -50.576925912297455 -54.680968572716544 3.399999999999997
  endloop
endfacet
facet normal -0.5843047258450824 -0.8115343414514896 3.6744839074383815e-15
  outer loop
    vertex -50.57692591229748 -54.680968572716544 7.049916206369744e-16
    vertex -51.96581480118635 -53.68096857271652 4.399999999999995
    vertex -51.965814801186355 -53.68096857271653 0.0
  endloop
endfacet
facet normal -0.5843047258450824 -0.8115343414514896 3.6744839074383815e-15
  outer loop
    vertex -51.96581480118635 -53.68096857271652 4.399999999999995
    vertex -50.57692591229748 -54.680968572716544 7.049916206369744e-16
    vertex -50.576925912297455 -54.680968572716544 3.399999999999997
  endloop
endfacet
facet normal 0.37139067635410405 0.9284766908852592 6.44618534371695e-16
  outer loop
    vertex -37.96581480118637 3.3190314272834645 3.399999999999997
    vertex -27.96581480118636 -0.6809685727165394 1.0574874309554614e-15
    vertex -37.96581480118636 3.3190314272834645 1.0574874309554614e-15
  endloop
endfacet
facet normal 0.37139067635410405 0.9284766908852592 6.44618534371695e-16
  outer loop
    vertex -27.96581480118636 -0.6809685727165394 1.0574874309554614e-15
    vertex -37.96581480118637 3.3190314272834645 3.399999999999997
    vertex -27.96581480118636 -0.6809685727165394 1.1999999999999964
  endloop
endfacet
facet normal -1.0 -3.342621143293671e-33 2.563605893225364e-15
  outer loop
    vertex -51.96581480118635 -53.68096857271652 4.399999999999995
    vertex -51.965814801186355 2.319031427283455 0.0
    vertex -51.965814801186355 -53.68096857271653 0.0
  endloop
endfacet
facet normal -1.0 -3.342621143293671e-33 2.563605893225364e-15
  outer loop
    vertex -51.965814801186355 2.319031427283455 0.0
    vertex -51.96581480118635 -53.68096857271652 4.399999999999995
    vertex -51.96581480118635 2.3190314272834662 4.399999999999995
  endloop
endfacet
facet normal 0.0 -1.0 0.0
  outer loop
    vertex -37.96581480118637 -0.6809685727165394 4.399999999999995
    vertex -47.965814801186355 -0.6809685727165394 1.0574874309554614e-15
    vertex -37.96581480118636 -0.6809685727165394 1.0574874309554614e-15
  endloop
endfacet
facet normal 0.0 -1.0 0.0
  outer loop
    vertex -47.965814801186355 -0.6809685727165394 1.0574874309554614e-15
    vertex -37.96581480118637 -0.6809685727165394 4.399999999999995
    vertex -47.965814801186355 -0.6809685727165394 4.399999999999995
  endloop
endfacet
facet normal -1.0 0.0 -1.2818029466126825e-15
  outer loop
    vertex -37.96581480118637 -0.6809685727165394 4.399999999999995
    vertex -37.96581480118636 -50.68096857271654 1.0574874309554614e-15
    vertex -37.96581480118637 -50.68096857271654 4.399999999999995
  endloop
endfacet
facet normal -1.0 0.0 -1.2818029466126825e-15
  outer loop
    vertex -37.96581480118636 -50.68096857271654 1.0574874309554614e-15
    vertex -37.96581480118637 -0.6809685727165394 4.399999999999995
    vertex -37.96581480118636 -0.6809685727165394 1.0574874309554614e-15
  endloop
endfacet
facet normal 1.0 0.0 0.0
  outer loop
    vertex -47.965814801186355 -0.6809685727165394 1.0574874309554614e-15
    vertex -47.965814801186355 -50.68096857271654 4.399999999999995
    vertex -47.965814801186355 -50.68096857271654 1.0574874309554614e-15
  endloop
endfacet
facet normal 1.0 0.0 0.0
  outer loop
    vertex -47.965814801186355 -50.68096857271654 4.399999999999995
    vertex -47.965814801186355 -0.6809685727165394 1.0574874309554614e-15
    vertex -47.965814801186355 -0.6809685727165394 4.399999999999995
  endloop
endfacet
facet normal 0.0 1.0 0.0
  outer loop
    vertex -47.965814801186355 -50.68096857271654 4.399999999999995
    vertex -37.96581480118636 -50.68096857271654 1.0574874309554614e-15
    vertex -47.965814801186355 -50.68096857271654 1.0574874309554614e-15
  endloop
endfacet
facet normal 0.0 1.0 0.0
  outer loop
    vertex -37.96581480118636 -50.68096857271654 1.0574874309554614e-15
    vertex -47.965814801186355 -50.68096857271654 4.399999999999995
    vertex -37.96581480118637 -50.68096857271654 4.399999999999995
  endloop
endfacet
endsolid clips-50х50-simple
