solid clips-50х50-simple
facet normal 0.0 0.0 1.0
  outer loop
    vertex 45.0 -28.59571921521315 6.8000000000000105
    vertex 0.0 -21.499999999999993 6.8000000000000105
    vertex 0.0 -28.59571921521315 6.8000000000000105
  endloop
endfacet
facet normal 0.0 0.0 1.0
  outer loop
    vertex 0.0 -21.499999999999993 6.8000000000000105
    vertex 45.0 -28.59571921521315 6.8000000000000105
    vertex 44.99999999999999 -21.499999999999993 6.8000000000000105
  endloop
endfacet
facet normal 0.0 0.0 1.0
  outer loop
    vertex 44.99999999999999 -21.499999999999993 6.8000000000000105
    vertex 45.0 -28.59571921521315 6.8000000000000105
    vertex 45.80626363509794 -21.73528636742143 6.8000000000000105
  endloop
endfacet
facet normal 0.0 0.0 1.0
  outer loop
    vertex 45.80626363509794 -21.73528636742143 6.8000000000000105
    vertex 45.0 -28.59571921521315 6.8000000000000105
    vertex 45.806263635097956 -28.360432847791717 6.8000000000000105
  endloop
endfacet
facet normal 0.0 0.0 1.0
  outer loop
    vertex 45.80626363509794 -21.73528636742143 6.8000000000000105
    vertex 45.806263635097956 -28.360432847791717 6.8000000000000105
    vertex 46.53600872297313 -22.151090204221653 6.8000000000000105
  endloop
endfacet
facet normal 0.0 0.0 1.0
  outer loop
    vertex 46.53600872297313 -22.151090204221653 6.8000000000000105
    vertex 45.806263635097956 -28.360432847791717 6.8000000000000105
    vertex 46.53600872297313 -27.944629010991488 6.8000000000000105
  endloop
endfacet
facet normal 0.0 0.0 1.0
  outer loop
    vertex 46.53600872297313 -22.151090204221653 6.8000000000000105
    vertex 46.53600872297313 -27.944629010991488 6.8000000000000105
    vertex 47.14946807147509 -27.370966783098392 6.8000000000000105
  endloop
endfacet
facet normal 0.0 0.0 1.0
  outer loop
    vertex 46.53600872297313 -22.151090204221653 6.8000000000000105
    vertex 47.14946807147509 -27.370966783098392 6.8000000000000105
    vertex 47.149468071475084 -22.72475243211475 6.8000000000000105
  endloop
endfacet
facet normal 0.0 0.0 1.0
  outer loop
    vertex 47.149468071475084 -22.72475243211475 6.8000000000000105
    vertex 47.14946807147509 -27.370966783098392 6.8000000000000105
    vertex 47.61321143736729 -23.425011537422716 6.8000000000000105
  endloop
endfacet
facet normal 0.0 0.0 1.0
  outer loop
    vertex 47.61321143736729 -23.425011537422716 6.8000000000000105
    vertex 47.14946807147509 -27.370966783098392 6.8000000000000105
    vertex 47.61321143736729 -26.67070767779042 6.8000000000000105
  endloop
endfacet
facet normal 0.0 0.0 1.0
  outer loop
    vertex 47.61321143736729 -23.425011537422716 6.8000000000000105
    vertex 47.61321143736729 -26.67070767779042 6.8000000000000105
    vertex 47.90196729522755 -25.88201205936268 6.8000000000000105
  endloop
endfacet
facet normal 0.0 0.0 1.0
  outer loop
    vertex 47.61321143736729 -23.425011537422716 6.8000000000000105
    vertex 47.90196729522755 -25.88201205936268 6.8000000000000105
    vertex 47.90196729522755 -24.213707155850454 6.8000000000000105
  endloop
endfacet
facet normal 0.0 0.0 1.0
  outer loop
    vertex 47.90196729522755 -24.213707155850454 6.8000000000000105
    vertex 47.90196729522755 -25.88201205936268 6.8000000000000105
    vertex 48.00000000000001 -25.04785960760657 6.8000000000000105
  endloop
endfacet
facet normal -1.0 0.0 0.0
  outer loop
    vertex -9.999999999999998 0.0 11.200000000000001
    vertex -9.999999999999998 -50.0 2.1999999999999997
    vertex -9.999999999999998 -50.0 11.200000000000001
  endloop
endfacet
facet normal -1.0 0.0 0.0
  outer loop
    vertex -9.999999999999998 -50.0 2.1999999999999997
    vertex -9.999999999999998 0.0 11.200000000000001
    vertex -9.999999999999998 0.0 2.1999999999999997
  endloop
endfacet
facet normal -0.8944271909999155 0.0 0.44721359549995854
  outer loop
    vertex -15.999999999999998 0.0 5.2
    vertex -17.5 -50.0 2.1999999999999997
    vertex -15.999999999999998 -50.0 5.2
  endloop
endfacet
facet normal -0.8944271909999155 0.0 0.44721359549995854
  outer loop
    vertex -17.5 -50.0 2.1999999999999997
    vertex -15.999999999999998 0.0 5.2
    vertex -17.5 0.0 2.1999999999999997
  endloop
endfacet
facet normal 0.0 0.0 1.0
  outer loop
    vertex 43.37612685087358 -13.999999999999996 6.800000000000009
    vertex 0.0 -9.255719215213135 6.800000000000009
    vertex 0.0 -13.999999999999996 6.800000000000009
  endloop
endfacet
facet normal 0.0 0.0 1.0
  outer loop
    vertex 0.0 -9.255719215213135 6.800000000000009
    vertex 43.37612685087358 -13.999999999999996 6.800000000000009
    vertex 14.727503373522046 -9.255719215213135 6.800000000000009
  endloop
endfacet
facet normal 0.0 0.0 1.0
  outer loop
    vertex 14.727503373522046 -9.255719215213135 6.800000000000009
    vertex 43.37612685087358 -13.999999999999996 6.800000000000009
    vertex 15.886953135251884 -2.050707876045436 6.800000000000009
  endloop
endfacet
facet normal 0.0 0.0 1.0
  outer loop
    vertex 15.886953135251884 -2.050707876045436 6.800000000000009
    vertex 43.37612685087358 -13.999999999999996 6.800000000000009
    vertex 43.37612685087358 -9.255719215213135 6.800000000000009
  endloop
endfacet
facet normal 0.0 0.0 1.0
  outer loop
    vertex 43.37612685087358 -9.255719215213135 6.800000000000009
    vertex 43.37612685087358 -13.999999999999996 6.800000000000009
    vertex 43.86313357518553 -13.796643016315686 6.800000000000009
  endloop
endfacet
facet normal 0.0 0.0 1.0
  outer loop
    vertex 43.37612685087358 -9.255719215213135 6.800000000000009
    vertex 43.86313357518553 -13.796643016315686 6.800000000000009
    vertex 43.86313357518553 -9.459076198897446 6.800000000000009
  endloop
endfacet
facet normal 0.0 0.0 1.0
  outer loop
    vertex 43.86313357518553 -9.459076198897446 6.800000000000009
    vertex 43.86313357518553 -13.796643016315686 6.800000000000009
    vertex 44.295940985039884 -13.494637456245353 6.800000000000009
  endloop
endfacet
facet normal 0.0 0.0 1.0
  outer loop
    vertex 43.86313357518553 -9.459076198897446 6.800000000000009
    vertex 44.295940985039884 -13.494637456245353 6.800000000000009
    vertex 44.295940985039884 -9.761081758967773 6.800000000000009
  endloop
endfacet
facet normal 0.0 0.0 1.0
  outer loop
    vertex 44.295940985039884 -9.761081758967773 6.800000000000009
    vertex 44.295940985039884 -13.494637456245353 6.800000000000009
    vertex 44.65486254343161 -13.107720246418927 6.800000000000009
  endloop
endfacet
facet normal 0.0 0.0 1.0
  outer loop
    vertex 44.295940985039884 -9.761081758967773 6.800000000000009
    vertex 44.65486254343161 -13.107720246418927 6.800000000000009
    vertex 44.65486254343161 -10.147998968794212 6.800000000000009
  endloop
endfacet
facet normal 0.0 0.0 1.0
  outer loop
    vertex 44.65486254343161 -10.147998968794212 6.800000000000009
    vertex 44.65486254343161 -13.107720246418927 6.800000000000009
    vertex 44.92357246115217 -12.653490577136045 6.800000000000009
  endloop
endfacet
facet normal 0.0 0.0 1.0
  outer loop
    vertex 44.65486254343161 -10.147998968794212 6.800000000000009
    vertex 44.92357246115217 -12.653490577136045 6.800000000000009
    vertex 44.92357246115217 -10.602228638077086 6.800000000000009
  endloop
endfacet
facet normal 0.0 0.0 1.0
  outer loop
    vertex 44.92357246115217 -10.602228638077086 6.800000000000009
    vertex 44.92357246115217 -12.653490577136045 6.800000000000009
    vertex 45.089848286324866 -12.15260939132311 6.800000000000009
  endloop
endfacet
facet normal 0.0 0.0 1.0
  outer loop
    vertex 44.92357246115217 -10.602228638077086 6.800000000000009
    vertex 45.089848286324866 -12.15260939132311 6.800000000000009
    vertex 45.089848286324866 -11.103109823890021 6.800000000000009
  endloop
endfacet
facet normal 0.0 0.0 1.0
  outer loop
    vertex 45.089848286324866 -11.103109823890021 6.800000000000009
    vertex 45.089848286324866 -12.15260939132311 6.800000000000009
    vertex 45.146126850873586 -11.627859607606567 6.800000000000009
  endloop
endfacet
facet normal 0.21486178267511985 0.0 0.9766444667050901
  outer loop
    vertex 0.0 -49.0 9.0
    vertex -9.999999999999998 -50.0 11.200000000000001
    vertex -9.999999999999998 -53.00000000000001 11.200000000000001
  endloop
endfacet
facet normal 0.21486178267511985 0.0 0.9766444667050901
  outer loop
    vertex -9.999999999999998 -50.0 11.200000000000001
    vertex 0.0 -49.0 9.0
    vertex -9.999999999999998 0.0 11.200000000000001
  endloop
endfacet
facet normal 0.21486178267511985 0.0 0.9766444667050901
  outer loop
    vertex -9.999999999999998 0.0 11.200000000000001
    vertex 0.0 -49.0 9.0
    vertex -9.999999999999998 3.0000000000000058 11.200000000000001
  endloop
endfacet
facet normal 0.21486178267511985 0.0 0.9766444667050901
  outer loop
    vertex -9.999999999999998 3.0000000000000058 11.200000000000001
    vertex 0.0 -49.0 9.0
    vertex 0.0 -0.9999999999999981 9.0
  endloop
endfacet
facet normal 0.949071717628723 -0.3150601129899907 1.0492161020163822e-17
  outer loop
    vertex 45.08984828632489 -38.99260939132312 2.2000000000000006
    vertex 44.92357246115219 -39.49349057713605 6.800000000000004
    vertex 44.92357246115219 -39.49349057713605 2.2000000000000006
  endloop
endfacet
facet normal 0.949071717628723 -0.3150601129899907 1.0492161020163822e-17
  outer loop
    vertex 44.92357246115219 -39.49349057713605 6.800000000000004
    vertex 45.08984828632489 -38.99260939132312 2.2000000000000006
    vertex 45.08984828632489 -38.99260939132312 6.800000000000004
  endloop
endfacet
facet normal 0.8606762334755275 -0.5091526501260497 1.2580810138589011e-17
  outer loop
    vertex 44.92357246115219 -39.49349057713605 2.2000000000000006
    vertex 44.654862543431626 -39.94772024641893 6.800000000000004
    vertex 44.654862543431626 -39.94772024641893 2.2000000000000006
  endloop
endfacet
facet normal 0.8606762334755275 -0.5091526501260497 1.2580810138589011e-17
  outer loop
    vertex 44.654862543431626 -39.94772024641893 6.800000000000004
    vertex 44.92357246115219 -39.49349057713605 2.2000000000000006
    vertex 44.92357246115219 -39.49349057713605 6.800000000000004
  endloop
endfacet
facet normal 0.8337477164035397 0.5521455835120685 0.0
  outer loop
    vertex 47.149468071475084 -22.72475243211475 2.2
    vertex 47.61321143736729 -23.425011537422716 6.8000000000000105
    vertex 47.61321143736729 -23.425011537422716 2.2
  endloop
endfacet
facet normal 0.8337477164035397 0.5521455835120685 0.0
  outer loop
    vertex 47.61321143736729 -23.425011537422716 6.8000000000000105
    vertex 47.149468071475084 -22.72475243211475 2.2
    vertex 47.149468071475084 -22.72475243211475 6.8000000000000105
  endloop
endfacet
facet normal 0.6830179984342968 0.7304015428617379 0.0
  outer loop
    vertex 46.53600872297313 -22.151090204221653 6.8000000000000105
    vertex 47.149468071475084 -22.72475243211475 2.2
    vertex 46.53600872297313 -22.151090204221653 2.2
  endloop
endfacet
facet normal 0.6830179984342968 0.7304015428617379 0.0
  outer loop
    vertex 47.149468071475084 -22.72475243211475 2.2
    vertex 46.53600872297313 -22.151090204221653 6.8000000000000105
    vertex 47.149468071475084 -22.72475243211475 6.8000000000000105
  endloop
endfacet
facet normal 0.49506746399470203 0.8688545367861379 0.0
  outer loop
    vertex 45.80626363509794 -21.73528636742143 6.8000000000000105
    vertex 46.53600872297313 -22.151090204221653 2.2
    vertex 45.80626363509794 -21.73528636742143 2.2
  endloop
endfacet
facet normal 0.49506746399470203 0.8688545367861379 0.0
  outer loop
    vertex 46.53600872297313 -22.151090204221653 2.2
    vertex 45.80626363509794 -21.73528636742143 6.8000000000000105
    vertex 46.53600872297313 -22.151090204221653 6.8000000000000105
  endloop
endfacet
facet normal 1.0 0.0 0.0
  outer loop
    vertex 0.0 -28.59571921521315 2.2
    vertex 0.0 -36.09571921521315 6.800000000000004
    vertex 0.0 -36.09571921521315 2.2
  endloop
endfacet
facet normal 1.0 0.0 0.0
  outer loop
    vertex 0.0 -13.999999999999996 2.2
    vertex 0.0 -21.499999999999993 6.8000000000000105
    vertex 0.0 -21.499999999999993 2.2
  endloop
endfacet
facet normal 1.0 0.0 0.0
  outer loop
    vertex 0.0 0.0 2.1999999999999997
    vertex 0.0 -9.255719215213135 6.800000000000009
    vertex 0.0 -9.255719215213135 2.2
  endloop
endfacet
facet normal 1.0 0.0 0.0
  outer loop
    vertex 0.0 -9.255719215213135 6.800000000000009
    vertex 0.0 0.0 2.1999999999999997
    vertex 0.0 -0.9999999999999981 9.0
  endloop
endfacet
facet normal 1.0 0.0 0.0
  outer loop
    vertex 0.0 -0.9999999999999981 9.0
    vertex 0.0 0.0 2.1999999999999997
    vertex 0.0 0.0 8.0
  endloop
endfacet
facet normal 1.0 0.0 0.0
  outer loop
    vertex 0.0 -40.839999999999996 2.2
    vertex 0.0 -50.0 8.0
    vertex 0.0 -50.0 2.2
  endloop
endfacet
facet normal 1.0 0.0 0.0
  outer loop
    vertex 0.0 -50.0 8.0
    vertex 0.0 -40.839999999999996 2.2
    vertex 0.0 -49.0 9.0
  endloop
endfacet
facet normal 1.0 0.0 0.0
  outer loop
    vertex 0.0 -49.0 9.0
    vertex 0.0 -40.839999999999996 2.2
    vertex 0.0 -40.839999999999996 6.800000000000004
  endloop
endfacet
facet normal 1.0 0.0 0.0
  outer loop
    vertex 0.0 -49.0 9.0
    vertex 0.0 -40.839999999999996 6.800000000000004
    vertex 0.0 -0.9999999999999981 9.0
  endloop
endfacet
facet normal 1.0 0.0 0.0
  outer loop
    vertex 0.0 -0.9999999999999981 9.0
    vertex 0.0 -40.839999999999996 6.800000000000004
    vertex 0.0 -36.09571921521315 6.800000000000004
  endloop
endfacet
facet normal 1.0 0.0 0.0
  outer loop
    vertex 0.0 -0.9999999999999981 9.0
    vertex 0.0 -36.09571921521315 6.800000000000004
    vertex 0.0 -28.59571921521315 6.8000000000000105
  endloop
endfacet
facet normal 1.0 0.0 0.0
  outer loop
    vertex 0.0 -28.59571921521315 6.8000000000000105
    vertex 0.0 -36.09571921521315 6.800000000000004
    vertex 0.0 -28.59571921521315 2.2
  endloop
endfacet
facet normal 1.0 0.0 0.0
  outer loop
    vertex 0.0 -0.9999999999999981 9.0
    vertex 0.0 -28.59571921521315 6.8000000000000105
    vertex 0.0 -21.499999999999993 6.8000000000000105
  endloop
endfacet
facet normal 1.0 0.0 0.0
  outer loop
    vertex 0.0 -0.9999999999999981 9.0
    vertex 0.0 -21.499999999999993 6.8000000000000105
    vertex 0.0 -13.999999999999996 6.800000000000009
  endloop
endfacet
facet normal 1.0 0.0 0.0
  outer loop
    vertex 0.0 -13.999999999999996 6.800000000000009
    vertex 0.0 -21.499999999999993 6.8000000000000105
    vertex 0.0 -13.999999999999996 2.2
  endloop
endfacet
facet normal 1.0 0.0 0.0
  outer loop
    vertex 0.0 -0.9999999999999981 9.0
    vertex 0.0 -13.999999999999996 6.800000000000009
    vertex 0.0 -9.255719215213135 6.800000000000009
  endloop
endfacet
facet normal 0.40151533135761563 -0.6476053731574433 0.6476053731574445
  outer loop
    vertex 0.0 -50.0 8.0
    vertex -9.999999999999998 -53.00000000000001 11.200000000000001
    vertex -9.999999999999998 -54.0 10.200000000000001
  endloop
endfacet
facet normal 0.40151533135761563 -0.6476053731574433 0.6476053731574445
  outer loop
    vertex -9.999999999999998 -53.00000000000001 11.200000000000001
    vertex 0.0 -50.0 8.0
    vertex 0.0 -49.0 9.0
  endloop
endfacet
facet normal 0.0 0.0 1.0
  outer loop
    vertex -23.999999999999996 3.0000000000000058 11.200000000000001
    vertex -19.999999999999996 0.0 11.200000000000001
    vertex -9.999999999999998 3.0000000000000058 11.200000000000001
  endloop
endfacet
facet normal 0.0 0.0 1.0
  outer loop
    vertex -19.999999999999996 0.0 11.200000000000001
    vertex -23.999999999999996 3.0000000000000058 11.200000000000001
    vertex -19.999999999999996 -50.0 11.200000000000001
  endloop
endfacet
facet normal 0.0 0.0 1.0
  outer loop
    vertex -9.999999999999998 3.0000000000000058 11.200000000000001
    vertex -19.999999999999996 0.0 11.200000000000001
    vertex -9.999999999999998 0.0 11.200000000000001
  endloop
endfacet
facet normal 0.0 0.0 1.0
  outer loop
    vertex -23.999999999999996 -52.99999999999998 11.200000000000001
    vertex -19.999999999999996 -50.0 11.200000000000001
    vertex -23.999999999999996 3.0000000000000058 11.200000000000001
  endloop
endfacet
facet normal 0.0 0.0 1.0
  outer loop
    vertex -19.999999999999996 -50.0 11.200000000000001
    vertex -23.999999999999996 -52.99999999999998 11.200000000000001
    vertex -9.999999999999998 -53.00000000000001 11.200000000000001
  endloop
endfacet
facet normal 0.0 0.0 1.0
  outer loop
    vertex -19.999999999999996 -50.0 11.200000000000001
    vertex -9.999999999999998 -53.00000000000001 11.200000000000001
    vertex -9.999999999999998 -50.0 11.200000000000001
  endloop
endfacet
facet normal 0.0 -1.0 0.0
  outer loop
    vertex -9.999999999999998 -54.0 10.200000000000001
    vertex -22.61111111111111 -54.0 2.1999999999999993
    vertex -9.999999999999998 -54.0 2.1999999999999993
  endloop
endfacet
facet normal 0.0 -1.0 0.0
  outer loop
    vertex -22.61111111111111 -54.0 2.1999999999999993
    vertex -9.999999999999998 -54.0 10.200000000000001
    vertex -22.61111111111111 -54.0 10.200000000000001
  endloop
endfacet
facet normal 0.949071717628725 0.31506011298998426 1.8459999001104436e-18
  outer loop
    vertex 44.92357246115219 -37.442228638077104 2.2000000000000006
    vertex 45.08984828632489 -37.94310982389003 6.800000000000004
    vertex 45.08984828632489 -37.94310982389003 2.2000000000000006
  endloop
endfacet
facet normal 0.949071717628725 0.31506011298998426 1.8459999001104436e-18
  outer loop
    vertex 45.08984828632489 -37.94310982389003 6.800000000000004
    vertex 44.92357246115219 -37.442228638077104 2.2000000000000006
    vertex 44.92357246115219 -37.442228638077104 6.800000000000004
  endloop
endfacet
facet normal 0.99429803447073 0.10663685407795627 4.999845052497809e-18
  outer loop
    vertex 45.08984828632489 -37.94310982389003 2.2000000000000006
    vertex 45.1461268508736 -38.46785960760658 6.800000000000004
    vertex 45.1461268508736 -38.46785960760658 2.2000000000000006
  endloop
endfacet
facet normal 0.99429803447073 0.10663685407795627 4.999845052497809e-18
  outer loop
    vertex 45.1461268508736 -38.46785960760658 6.800000000000004
    vertex 45.08984828632489 -37.94310982389003 2.2000000000000006
    vertex 45.08984828632489 -37.94310982389003 6.800000000000004
  endloop
endfacet
facet normal 0.9942980344707302 -0.106636854077954 7.926268879822862e-18
  outer loop
    vertex 45.1461268508736 -38.46785960760658 2.2000000000000006
    vertex 45.08984828632489 -38.99260939132312 6.800000000000004
    vertex 45.08984828632489 -38.99260939132312 2.2000000000000006
  endloop
endfacet
facet normal 0.9942980344707302 -0.106636854077954 7.926268879822862e-18
  outer loop
    vertex 45.08984828632489 -38.99260939132312 6.800000000000004
    vertex 45.1461268508736 -38.46785960760658 2.2000000000000006
    vertex 45.1461268508736 -38.46785960760658 6.800000000000004
  endloop
endfacet
facet normal 6.612290942810536e-18 -1.5460050349420258e-17 -1.0
  outer loop
    vertex 43.376126850873604 -36.09571921521315 2.2000000000000006
    vertex 0.0 -40.839999999999996 2.2
    vertex 0.0 -36.09571921521315 2.2
  endloop
endfacet
facet normal 6.612290942810536e-18 -1.5460050349420258e-17 -1.0
  outer loop
    vertex 0.0 -40.839999999999996 2.2
    vertex 43.376126850873604 -36.09571921521315 2.2000000000000006
    vertex 14.727503373522062 -40.839999999999996 2.2000000000000006
  endloop
endfacet
facet normal 6.612290942810536e-18 -1.5460050349420258e-17 -1.0
  outer loop
    vertex 14.727503373522062 -40.839999999999996 2.2000000000000006
    vertex 43.376126850873604 -36.09571921521315 2.2000000000000006
    vertex 15.88695313525189 -48.0450113391677 2.2000000000000006
  endloop
endfacet
facet normal 6.612290942810536e-18 -1.5460050349420258e-17 -1.0
  outer loop
    vertex 15.88695313525189 -48.0450113391677 2.2000000000000006
    vertex 43.376126850873604 -36.09571921521315 2.2000000000000006
    vertex 43.376126850873604 -40.839999999999996 2.2000000000000006
  endloop
endfacet
facet normal 6.612290942810536e-18 -1.5460050349420258e-17 -1.0
  outer loop
    vertex 43.376126850873604 -40.839999999999996 2.2000000000000006
    vertex 43.376126850873604 -36.09571921521315 2.2000000000000006
    vertex 43.86313357518554 -36.29907619889746 2.2000000000000006
  endloop
endfacet
facet normal 6.612290942810536e-18 -1.5460050349420258e-17 -1.0
  outer loop
    vertex 43.376126850873604 -40.839999999999996 2.2000000000000006
    vertex 43.86313357518554 -36.29907619889746 2.2000000000000006
    vertex 43.86313357518554 -40.6366430163157 2.2000000000000006
  endloop
endfacet
facet normal 6.612290942810536e-18 -1.5460050349420258e-17 -1.0
  outer loop
    vertex 43.86313357518554 -40.6366430163157 2.2000000000000006
    vertex 43.86313357518554 -36.29907619889746 2.2000000000000006
    vertex 44.29594098503991 -36.60108175896778 2.2000000000000006
  endloop
endfacet
facet normal 6.612290942810536e-18 -1.5460050349420258e-17 -1.0
  outer loop
    vertex 43.86313357518554 -40.6366430163157 2.2000000000000006
    vertex 44.29594098503991 -36.60108175896778 2.2000000000000006
    vertex 44.29594098503991 -40.33463745624537 2.2000000000000006
  endloop
endfacet
facet normal 6.612290942810536e-18 -1.5460050349420258e-17 -1.0
  outer loop
    vertex 44.29594098503991 -40.33463745624537 2.2000000000000006
    vertex 44.29594098503991 -36.60108175896778 2.2000000000000006
    vertex 44.654862543431626 -36.98799896879422 2.2000000000000006
  endloop
endfacet
facet normal 6.612290942810536e-18 -1.5460050349420258e-17 -1.0
  outer loop
    vertex 44.29594098503991 -40.33463745624537 2.2000000000000006
    vertex 44.654862543431626 -36.98799896879422 2.2000000000000006
    vertex 44.654862543431626 -39.94772024641893 2.2000000000000006
  endloop
endfacet
facet normal 6.612290942810536e-18 -1.5460050349420258e-17 -1.0
  outer loop
    vertex 44.654862543431626 -39.94772024641893 2.2000000000000006
    vertex 44.654862543431626 -36.98799896879422 2.2000000000000006
    vertex 44.92357246115219 -37.442228638077104 2.2000000000000006
  endloop
endfacet
facet normal 6.612290942810536e-18 -1.5460050349420258e-17 -1.0
  outer loop
    vertex 44.654862543431626 -39.94772024641893 2.2000000000000006
    vertex 44.92357246115219 -37.442228638077104 2.2000000000000006
    vertex 44.92357246115219 -39.49349057713605 2.2000000000000006
  endloop
endfacet
facet normal 6.612290942810536e-18 -1.5460050349420258e-17 -1.0
  outer loop
    vertex 44.92357246115219 -39.49349057713605 2.2000000000000006
    vertex 44.92357246115219 -37.442228638077104 2.2000000000000006
    vertex 45.08984828632489 -37.94310982389003 2.2000000000000006
  endloop
endfacet
facet normal 6.612290942810536e-18 -1.5460050349420258e-17 -1.0
  outer loop
    vertex 44.92357246115219 -39.49349057713605 2.2000000000000006
    vertex 45.08984828632489 -37.94310982389003 2.2000000000000006
    vertex 45.08984828632489 -38.99260939132312 2.2000000000000006
  endloop
endfacet
facet normal 6.612290942810536e-18 -1.5460050349420258e-17 -1.0
  outer loop
    vertex 45.08984828632489 -38.99260939132312 2.2000000000000006
    vertex 45.08984828632489 -37.94310982389003 2.2000000000000006
    vertex 45.1461268508736 -38.46785960760658 2.2000000000000006
  endloop
endfacet
facet normal 0.3713906763541041 -0.9284766908852592 0.0
  outer loop
    vertex 0.0 -50.0 2.2
    vertex -9.999999999999998 -54.0 10.200000000000001
    vertex -9.999999999999998 -54.0 2.1999999999999993
  endloop
endfacet
facet normal 0.3713906763541041 -0.9284766908852592 0.0
  outer loop
    vertex -9.999999999999998 -54.0 10.200000000000001
    vertex 0.0 -50.0 2.2
    vertex 0.0 -50.0 8.0
  endloop
endfacet
facet normal 0.0 1.0 0.0
  outer loop
    vertex 0.0 -21.499999999999993 6.8000000000000105
    vertex 44.99999999999999 -21.499999999999993 2.2
    vertex 0.0 -21.499999999999993 2.2
  endloop
endfacet
facet normal 0.0 1.0 0.0
  outer loop
    vertex 44.99999999999999 -21.499999999999993 2.2
    vertex 0.0 -21.499999999999993 6.8000000000000105
    vertex 44.99999999999999 -21.499999999999993 6.8000000000000105
  endloop
endfacet
facet normal 0.5722413693063243 -0.8200852487726036 1.4972393877428135e-17
  outer loop
    vertex 44.29594098503991 -40.33463745624537 6.800000000000004
    vertex 43.86313357518554 -40.6366430163157 2.2000000000000006
    vertex 44.29594098503991 -40.33463745624537 2.2000000000000006
  endloop
endfacet
facet normal 0.5722413693063243 -0.8200852487726036 1.4972393877428135e-17
  outer loop
    vertex 43.86313357518554 -40.6366430163157 2.2000000000000006
    vertex 44.29594098503991 -40.33463745624537 6.800000000000004
    vertex 43.86313357518554 -40.6366430163157 6.800000000000004
  endloop
endfacet
facet normal 0.38532164366249383 -0.9227823312814536 1.5166545698141046e-17
  outer loop
    vertex 43.86313357518554 -40.6366430163157 6.800000000000004
    vertex 43.376126850873604 -40.839999999999996 2.2000000000000006
    vertex 43.86313357518554 -40.6366430163157 2.2000000000000006
  endloop
endfacet
facet normal 0.38532164366249383 -0.9227823312814536 1.5166545698141046e-17
  outer loop
    vertex 43.376126850873604 -40.839999999999996 2.2000000000000006
    vertex 43.86313357518554 -40.6366430163157 6.800000000000004
    vertex 43.376126850873604 -40.839999999999996 6.800000000000004
  endloop
endfacet
facet normal 0.0 0.0 1.0
  outer loop
    vertex -14.0 -50.0 5.2
    vertex -15.999999999999998 0.0 5.2
    vertex -15.999999999999998 -50.0 5.2
  endloop
endfacet
facet normal 0.0 0.0 1.0
  outer loop
    vertex -15.999999999999998 0.0 5.2
    vertex -14.0 -50.0 5.2
    vertex -14.0 0.0 5.2
  endloop
endfacet
facet normal -0.9872981163571699 0.158878662625238 -3.4135240239015138e-18
  outer loop
    vertex 15.886953135251884 -2.050707876045436 6.800000000000009
    vertex 14.727503373522046 -9.255719215213135 2.2
    vertex 14.727503373522046 -9.255719215213135 6.800000000000009
  endloop
endfacet
facet normal -0.9872981163571699 0.158878662625238 -3.4135240239015138e-18
  outer loop
    vertex 14.727503373522046 -9.255719215213135 2.2
    vertex 15.886953135251884 -2.050707876045436 6.800000000000009
    vertex 15.886953135251884 -2.050707876045436 2.2
  endloop
endfacet
facet normal 0.7331323102386352 -0.6800860355015104 1.409721262096412e-17
  outer loop
    vertex 44.654862543431626 -39.94772024641893 2.2000000000000006
    vertex 44.29594098503991 -40.33463745624537 6.800000000000004
    vertex 44.29594098503991 -40.33463745624537 2.2000000000000006
  endloop
endfacet
facet normal 0.7331323102386352 -0.6800860355015104 1.409721262096412e-17
  outer loop
    vertex 44.29594098503991 -40.33463745624537 6.800000000000004
    vertex 44.654862543431626 -39.94772024641893 2.2000000000000006
    vertex 44.654862543431626 -39.94772024641893 6.800000000000004
  endloop
endfacet
facet normal 0.0 -1.0 0.0
  outer loop
    vertex 14.727503373522062 -40.839999999999996 2.2000000000000006
    vertex 0.0 -40.839999999999996 6.800000000000004
    vertex 0.0 -40.839999999999996 2.2
  endloop
endfacet
facet normal 0.0 -1.0 0.0
  outer loop
    vertex 0.0 -40.839999999999996 6.800000000000004
    vertex 14.727503373522062 -40.839999999999996 2.2000000000000006
    vertex 14.727503373522062 -40.839999999999996 6.800000000000004
  endloop
endfacet
facet normal 0.2535393802271637 0.9673250656702873 3.4108546135659583e-17
  outer loop
    vertex 15.886953135251884 -2.050707876045436 6.800000000000009
    vertex 43.37612685087358 -9.255719215213135 2.2
    vertex 15.886953135251884 -2.050707876045436 2.2
  endloop
endfacet
facet normal 0.2535393802271637 0.9673250656702873 3.4108546135659583e-17
  outer loop
    vertex 43.37612685087358 -9.255719215213135 2.2
    vertex 15.886953135251884 -2.050707876045436 6.800000000000009
    vertex 43.37612685087358 -9.255719215213135 6.800000000000009
  endloop
endfacet
facet normal -0.9872981163571702 -0.1588786626252366 -4.237511548229022e-18
  outer loop
    vertex 14.727503373522062 -40.839999999999996 6.800000000000004
    vertex 15.88695313525189 -48.0450113391677 2.2000000000000006
    vertex 15.88695313525189 -48.0450113391677 6.800000000000004
  endloop
endfacet
facet normal -0.9872981163571702 -0.1588786626252366 -4.237511548229022e-18
  outer loop
    vertex 15.88695313525189 -48.0450113391677 2.2000000000000006
    vertex 14.727503373522062 -40.839999999999996 6.800000000000004
    vertex 14.727503373522062 -40.839999999999996 2.2000000000000006
  endloop
endfacet
facet normal 0.25353938022716355 -0.9673250656702875 6.886303424860961e-31
  outer loop
    vertex 43.376126850873604 -40.839999999999996 6.800000000000004
    vertex 15.88695313525189 -48.0450113391677 2.2000000000000006
    vertex 43.376126850873604 -40.839999999999996 2.2000000000000006
  endloop
endfacet
facet normal 0.25353938022716355 -0.9673250656702875 6.886303424860961e-31
  outer loop
    vertex 15.88695313525189 -48.0450113391677 2.2000000000000006
    vertex 43.376126850873604 -40.839999999999996 6.800000000000004
    vertex 15.88695313525189 -48.0450113391677 6.800000000000004
  endloop
endfacet
facet normal 0.9490717176287278 0.31506011298997627 9.687766612814206e-18
  outer loop
    vertex 44.92357246115217 -10.602228638077086 2.2
    vertex 45.089848286324866 -11.103109823890021 6.800000000000009
    vertex 45.089848286324866 -11.103109823890021 2.2
  endloop
endfacet
facet normal 0.9490717176287278 0.31506011298997627 9.687766612814206e-18
  outer loop
    vertex 45.089848286324866 -11.103109823890021 6.800000000000009
    vertex 44.92357246115217 -10.602228638077086 2.2
    vertex 44.92357246115217 -10.602228638077086 6.800000000000009
  endloop
endfacet
facet normal 0.5722413693063322 0.820085248772598 1.447080336535942e-17
  outer loop
    vertex 43.86313357518553 -9.459076198897446 6.800000000000009
    vertex 44.295940985039884 -9.761081758967773 2.2
    vertex 43.86313357518553 -9.459076198897446 2.2
  endloop
endfacet
facet normal 0.5722413693063322 0.820085248772598 1.447080336535942e-17
  outer loop
    vertex 44.295940985039884 -9.761081758967773 2.2
    vertex 43.86313357518553 -9.459076198897446 6.800000000000009
    vertex 44.295940985039884 -9.761081758967773 6.800000000000009
  endloop
endfacet
facet normal 0.3853216436625059 0.9227823312814484 1.4819045229346575e-17
  outer loop
    vertex 43.37612685087358 -9.255719215213135 6.800000000000009
    vertex 43.86313357518553 -9.459076198897446 2.2
    vertex 43.37612685087358 -9.255719215213135 2.2
  endloop
endfacet
facet normal 0.3853216436625059 0.9227823312814484 1.4819045229346575e-17
  outer loop
    vertex 43.86313357518553 -9.459076198897446 2.2
    vertex 43.37612685087358 -9.255719215213135 6.800000000000009
    vertex 43.86313357518553 -9.459076198897446 6.800000000000009
  endloop
endfacet
facet normal 0.7331323102386168 0.6800860355015304 1.3464347248431061e-17
  outer loop
    vertex 44.295940985039884 -9.761081758967773 2.2
    vertex 44.65486254343161 -10.147998968794212 6.800000000000009
    vertex 44.65486254343161 -10.147998968794212 2.2
  endloop
endfacet
facet normal 0.7331323102386168 0.6800860355015304 1.3464347248431061e-17
  outer loop
    vertex 44.65486254343161 -10.147998968794212 6.800000000000009
    vertex 44.295940985039884 -9.761081758967773 2.2
    vertex 44.295940985039884 -9.761081758967773 6.800000000000009
  endloop
endfacet
facet normal 0.8606762334755315 0.5091526501260429 1.184545621398591e-17
  outer loop
    vertex 44.65486254343161 -10.147998968794212 2.2
    vertex 44.92357246115217 -10.602228638077086 6.800000000000009
    vertex 44.92357246115217 -10.602228638077086 2.2
  endloop
endfacet
facet normal 0.8606762334755315 0.5091526501260429 1.184545621398591e-17
  outer loop
    vertex 44.92357246115217 -10.602228638077086 6.800000000000009
    vertex 44.65486254343161 -10.147998968794212 2.2
    vertex 44.65486254343161 -10.147998968794212 6.800000000000009
  endloop
endfacet
facet normal 0.9942980344707277 0.10663685407797624 7.089422411982479e-18
  outer loop
    vertex 45.089848286324866 -11.103109823890021 2.2
    vertex 45.146126850873586 -11.627859607606567 6.800000000000009
    vertex 45.146126850873586 -11.627859607606567 2.2
  endloop
endfacet
facet normal 0.9942980344707277 0.10663685407797624 7.089422411982479e-18
  outer loop
    vertex 45.146126850873586 -11.627859607606567 6.800000000000009
    vertex 45.089848286324866 -11.103109823890021 2.2
    vertex 45.089848286324866 -11.103109823890021 6.800000000000009
  endloop
endfacet
facet normal -0.5843047258450805 0.811534341451491 -1.8387087977363625e-16
  outer loop
    vertex -23.999999999999996 3.0000000000000058 11.200000000000001
    vertex -22.61111111111111 4.0000000000000036 2.1999999999999997
    vertex -23.999999999999996 2.9999999999999947 2.199999999999999
  endloop
endfacet
facet normal -0.5843047258450805 0.811534341451491 -1.8387087977363625e-16
  outer loop
    vertex -22.61111111111111 4.0000000000000036 2.1999999999999997
    vertex -23.999999999999996 3.0000000000000058 11.200000000000001
    vertex -22.61111111111111 4.0000000000000036 10.2
  endloop
endfacet
facet normal 0.8944271909999159 0.0 0.44721359549995787
  outer loop
    vertex -12.5 0.0 2.1999999999999997
    vertex -14.0 -50.0 5.2
    vertex -12.5 -50.0 2.1999999999999997
  endloop
endfacet
facet normal 0.8944271909999159 0.0 0.44721359549995787
  outer loop
    vertex -14.0 -50.0 5.2
    vertex -12.5 0.0 2.1999999999999997
    vertex -14.0 0.0 5.2
  endloop
endfacet
facet normal 0.9390426569496874 0.34380065216469824 0.0
  outer loop
    vertex 47.61321143736729 -23.425011537422716 2.2
    vertex 47.90196729522755 -24.213707155850454 6.8000000000000105
    vertex 47.90196729522755 -24.213707155850454 2.2
  endloop
endfacet
facet normal 0.9390426569496874 0.34380065216469824 0.0
  outer loop
    vertex 47.90196729522755 -24.213707155850454 6.8000000000000105
    vertex 47.61321143736729 -23.425011537422716 2.2
    vertex 47.61321143736729 -23.425011537422716 6.8000000000000105
  endloop
endfacet
facet normal 0.0 -1.0 0.0
  outer loop
    vertex 45.0 -28.59571921521315 6.8000000000000105
    vertex 0.0 -28.59571921521315 2.2
    vertex 45.0 -28.59571921521315 2.2
  endloop
endfacet
facet normal 0.0 -1.0 0.0
  outer loop
    vertex 0.0 -28.59571921521315 2.2
    vertex 45.0 -28.59571921521315 6.8000000000000105
    vertex 0.0 -28.59571921521315 6.8000000000000105
  endloop
endfacet
facet normal -5.300551741890826e-16 -0.7071067811865457 0.7071067811865495
  outer loop
    vertex -22.61111111111111 -54.0 10.200000000000001
    vertex -9.999999999999998 -53.00000000000001 11.200000000000001
    vertex -23.999999999999996 -52.99999999999998 11.200000000000001
  endloop
endfacet
facet normal -5.300551741890826e-16 -0.7071067811865457 0.7071067811865495
  outer loop
    vertex -9.999999999999998 -53.00000000000001 11.200000000000001
    vertex -22.61111111111111 -54.0 10.200000000000001
    vertex -9.999999999999998 -54.0 10.200000000000001
  endloop
endfacet
facet normal 0.28013840884258384 -0.9599596199273934 0.0
  outer loop
    vertex 45.806263635097956 -28.360432847791717 6.8000000000000105
    vertex 45.0 -28.59571921521315 2.2
    vertex 45.806263635097956 -28.360432847791717 2.2
  endloop
endfacet
facet normal 0.28013840884258384 -0.9599596199273934 0.0
  outer loop
    vertex 45.0 -28.59571921521315 2.2
    vertex 45.806263635097956 -28.360432847791717 6.8000000000000105
    vertex 45.0 -28.59571921521315 6.8000000000000105
  endloop
endfacet
facet normal 0.8606762334755321 -0.5091526501260417 -2.100368221528068e-18
  outer loop
    vertex 44.92357246115217 -12.653490577136045 2.2
    vertex 44.65486254343161 -13.107720246418927 6.800000000000009
    vertex 44.65486254343161 -13.107720246418927 2.2
  endloop
endfacet
facet normal 0.8606762334755321 -0.5091526501260417 -2.100368221528068e-18
  outer loop
    vertex 44.65486254343161 -13.107720246418927 6.800000000000009
    vertex 44.92357246115217 -12.653490577136045 2.2
    vertex 44.92357246115217 -12.653490577136045 6.800000000000009
  endloop
endfacet
facet normal 0.49506746399471013 -0.8688545367861336 0.0
  outer loop
    vertex 46.53600872297313 -27.944629010991488 6.8000000000000105
    vertex 45.806263635097956 -28.360432847791717 2.2
    vertex 46.53600872297313 -27.944629010991488 2.2
  endloop
endfacet
facet normal 0.49506746399471013 -0.8688545367861336 0.0
  outer loop
    vertex 45.806263635097956 -28.360432847791717 2.2
    vertex 46.53600872297313 -27.944629010991488 6.8000000000000105
    vertex 45.806263635097956 -28.360432847791717 6.8000000000000105
  endloop
endfacet
facet normal 0.993164810728466 -0.11672042979140591 0.0
  outer loop
    vertex 48.00000000000001 -25.04785960760657 2.2
    vertex 47.90196729522755 -25.88201205936268 6.8000000000000105
    vertex 47.90196729522755 -25.88201205936268 2.2
  endloop
endfacet
facet normal 0.993164810728466 -0.11672042979140591 0.0
  outer loop
    vertex 47.90196729522755 -25.88201205936268 6.8000000000000105
    vertex 48.00000000000001 -25.04785960760657 2.2
    vertex 48.00000000000001 -25.04785960760657 6.8000000000000105
  endloop
endfacet
facet normal 0.9490717176287276 -0.31506011298997705 1.0581876028577205e-18
  outer loop
    vertex 45.089848286324866 -12.15260939132311 2.2
    vertex 44.92357246115217 -12.653490577136045 6.800000000000009
    vertex 44.92357246115217 -12.653490577136045 2.2
  endloop
endfacet
facet normal 0.9490717176287276 -0.31506011298997705 1.0581876028577205e-18
  outer loop
    vertex 44.92357246115217 -12.653490577136045 6.800000000000009
    vertex 45.089848286324866 -12.15260939132311 2.2
    vertex 45.089848286324866 -12.15260939132311 6.800000000000009
  endloop
endfacet
facet normal 0.9942980344707277 -0.10663685407797596 4.1686110502841114e-18
  outer loop
    vertex 45.146126850873586 -11.627859607606567 2.2
    vertex 45.089848286324866 -12.15260939132311 6.800000000000009
    vertex 45.089848286324866 -12.15260939132311 2.2
  endloop
endfacet
facet normal 0.9942980344707277 -0.10663685407797596 4.1686110502841114e-18
  outer loop
    vertex 45.089848286324866 -12.15260939132311 6.800000000000009
    vertex 45.146126850873586 -11.627859607606567 2.2
    vertex 45.146126850873586 -11.627859607606567 6.800000000000009
  endloop
endfacet
facet normal 0.7331323102386142 -0.6800860355015329 -5.163387380468962e-18
  outer loop
    vertex 44.65486254343161 -13.107720246418927 2.2
    vertex 44.295940985039884 -13.494637456245353 6.800000000000009
    vertex 44.295940985039884 -13.494637456245353 2.2
  endloop
endfacet
facet normal 0.7331323102386142 -0.6800860355015329 -5.163387380468962e-18
  outer loop
    vertex 44.295940985039884 -13.494637456245353 6.800000000000009
    vertex 44.65486254343161 -13.107720246418927 2.2
    vertex 44.65486254343161 -13.107720246418927 6.800000000000009
  endloop
endfacet
facet normal 0.683017998434295 -0.7304015428617395 0.0
  outer loop
    vertex 47.14946807147509 -27.370966783098392 6.8000000000000105
    vertex 46.53600872297313 -27.944629010991488 2.2
    vertex 47.14946807147509 -27.370966783098392 2.2
  endloop
endfacet
facet normal 0.683017998434295 -0.7304015428617395 0.0
  outer loop
    vertex 46.53600872297313 -27.944629010991488 2.2
    vertex 47.14946807147509 -27.370966783098392 6.8000000000000105
    vertex 46.53600872297313 -27.944629010991488 6.8000000000000105
  endloop
endfacet
facet normal 0.0 -1.0 0.0
  outer loop
    vertex 43.37612685087358 -13.999999999999996 6.800000000000009
    vertex 0.0 -13.999999999999996 2.2
    vertex 43.37612685087358 -13.999999999999996 2.2
  endloop
endfacet
facet normal 0.0 -1.0 0.0
  outer loop
    vertex 0.0 -13.999999999999996 2.2
    vertex 43.37612685087358 -13.999999999999996 6.800000000000009
    vertex 0.0 -13.999999999999996 6.800000000000009
  endloop
endfacet
facet normal 0.8337477164035418 -0.5521455835120656 0.0
  outer loop
    vertex 47.61321143736729 -26.67070767779042 2.2
    vertex 47.14946807147509 -27.370966783098392 6.8000000000000105
    vertex 47.14946807147509 -27.370966783098392 2.2
  endloop
endfacet
facet normal 0.8337477164035418 -0.5521455835120656 0.0
  outer loop
    vertex 47.14946807147509 -27.370966783098392 6.8000000000000105
    vertex 47.61321143736729 -26.67070767779042 2.2
    vertex 47.61321143736729 -26.67070767779042 6.8000000000000105
  endloop
endfacet
facet normal 0.9390426569496896 -0.34380065216469236 0.0
  outer loop
    vertex 47.90196729522755 -25.88201205936268 2.2
    vertex 47.61321143736729 -26.67070767779042 6.8000000000000105
    vertex 47.61321143736729 -26.67070767779042 2.2
  endloop
endfacet
facet normal 0.9390426569496896 -0.34380065216469236 0.0
  outer loop
    vertex 47.61321143736729 -26.67070767779042 6.8000000000000105
    vertex 47.90196729522755 -25.88201205936268 2.2
    vertex 47.90196729522755 -25.88201205936268 6.8000000000000105
  endloop
endfacet
facet normal -1.581211150032546e-16 0.7071067811865476 0.7071067811865476
  outer loop
    vertex -23.999999999999996 3.0000000000000058 11.200000000000001
    vertex -9.999999999999998 4.0000000000000036 10.200000000000001
    vertex -22.61111111111111 4.0000000000000036 10.2
  endloop
endfacet
facet normal -1.581211150032546e-16 0.7071067811865476 0.7071067811865476
  outer loop
    vertex -9.999999999999998 4.0000000000000036 10.200000000000001
    vertex -23.999999999999996 3.0000000000000058 11.200000000000001
    vertex -9.999999999999998 3.0000000000000058 11.200000000000001
  endloop
endfacet
facet normal 1.0 0.0 0.0
  outer loop
    vertex -19.999999999999996 0.0 2.1999999999999997
    vertex -19.999999999999996 -50.0 11.200000000000001
    vertex -19.999999999999996 -50.0 2.1999999999999997
  endloop
endfacet
facet normal 1.0 0.0 0.0
  outer loop
    vertex -19.999999999999996 -50.0 11.200000000000001
    vertex -19.999999999999996 0.0 2.1999999999999997
    vertex -19.999999999999996 0.0 11.200000000000001
  endloop
endfacet
facet normal 0.0 -1.0 0.0
  outer loop
    vertex -9.999999999999998 0.0 11.200000000000001
    vertex -12.5 0.0 2.1999999999999997
    vertex -9.999999999999998 0.0 2.1999999999999997
  endloop
endfacet
facet normal 0.0 -1.0 0.0
  outer loop
    vertex -12.5 0.0 2.1999999999999997
    vertex -9.999999999999998 0.0 11.200000000000001
    vertex -14.0 0.0 5.2
  endloop
endfacet
facet normal 0.0 -1.0 0.0
  outer loop
    vertex -14.0 0.0 5.2
    vertex -9.999999999999998 0.0 11.200000000000001
    vertex -15.999999999999998 0.0 5.2
  endloop
endfacet
facet normal 0.0 -1.0 0.0
  outer loop
    vertex -15.999999999999998 0.0 5.2
    vertex -19.999999999999996 0.0 2.1999999999999997
    vertex -17.5 0.0 2.1999999999999997
  endloop
endfacet
facet normal 0.0 -1.0 0.0
  outer loop
    vertex -19.999999999999996 0.0 2.1999999999999997
    vertex -15.999999999999998 0.0 5.2
    vertex -19.999999999999996 0.0 11.200000000000001
  endloop
endfacet
facet normal 0.0 -1.0 0.0
  outer loop
    vertex -19.999999999999996 0.0 11.200000000000001
    vertex -15.999999999999998 0.0 5.2
    vertex -9.999999999999998 0.0 11.200000000000001
  endloop
endfacet
facet normal 0.5722413693063357 -0.8200852487725955 -7.991546381236663e-18
  outer loop
    vertex 44.295940985039884 -13.494637456245353 6.800000000000009
    vertex 43.86313357518553 -13.796643016315686 2.2
    vertex 44.295940985039884 -13.494637456245353 2.2
  endloop
endfacet
facet normal 0.5722413693063357 -0.8200852487725955 -7.991546381236663e-18
  outer loop
    vertex 43.86313357518553 -13.796643016315686 2.2
    vertex 44.295940985039884 -13.494637456245353 6.800000000000009
    vertex 43.86313357518553 -13.796643016315686 6.800000000000009
  endloop
endfacet
facet normal 0.3853216436625036 -0.9227823312814494 -1.0456204503831957e-17
  outer loop
    vertex 43.86313357518553 -13.796643016315686 6.800000000000009
    vertex 43.37612685087358 -13.999999999999996 2.2
    vertex 43.86313357518553 -13.796643016315686 2.2
  endloop
endfacet
facet normal 0.3853216436625036 -0.9227823312814494 -1.0456204503831957e-17
  outer loop
    vertex 43.37612685087358 -13.999999999999996 2.2
    vertex 43.86313357518553 -13.796643016315686 6.800000000000009
    vertex 43.37612685087358 -13.999999999999996 6.800000000000009
  endloop
endfacet
facet normal 0.0 1.0 0.0
  outer loop
    vertex 0.0 -9.255719215213135 6.800000000000009
    vertex 14.727503373522046 -9.255719215213135 2.2
    vertex 0.0 -9.255719215213135 2.2
  endloop
endfacet
facet normal 0.0 1.0 0.0
  outer loop
    vertex 14.727503373522046 -9.255719215213135 2.2
    vertex 0.0 -9.255719215213135 6.800000000000009
    vertex 14.727503373522046 -9.255719215213135 6.800000000000009
  endloop
endfacet
facet normal 0.9931648107284661 0.11672042979140552 0.0
  outer loop
    vertex 47.90196729522755 -24.213707155850454 2.2
    vertex 48.00000000000001 -25.04785960760657 6.8000000000000105
    vertex 48.00000000000001 -25.04785960760657 2.2
  endloop
endfacet
facet normal 0.9931648107284661 0.11672042979140552 0.0
  outer loop
    vertex 48.00000000000001 -25.04785960760657 6.8000000000000105
    vertex 47.90196729522755 -24.213707155850454 2.2
    vertex 47.90196729522755 -24.213707155850454 6.8000000000000105
  endloop
endfacet
facet normal 0.5722413693063099 0.8200852487726136 -7.533118247784642e-18
  outer loop
    vertex 43.86313357518554 -36.29907619889746 6.800000000000004
    vertex 44.29594098503991 -36.60108175896778 2.2000000000000006
    vertex 43.86313357518554 -36.29907619889746 2.2000000000000006
  endloop
endfacet
facet normal 0.5722413693063099 0.8200852487726136 -7.533118247784642e-18
  outer loop
    vertex 44.29594098503991 -36.60108175896778 2.2000000000000006
    vertex 43.86313357518554 -36.29907619889746 6.800000000000004
    vertex 44.29594098503991 -36.60108175896778 6.800000000000004
  endloop
endfacet
facet normal 0.385321643662512 0.9227823312814459 -1.0157271522896444e-17
  outer loop
    vertex 43.376126850873604 -36.09571921521315 6.800000000000004
    vertex 43.86313357518554 -36.29907619889746 2.2000000000000006
    vertex 43.376126850873604 -36.09571921521315 2.2000000000000006
  endloop
endfacet
facet normal 0.385321643662512 0.9227823312814459 -1.0157271522896444e-17
  outer loop
    vertex 43.86313357518554 -36.29907619889746 2.2000000000000006
    vertex 43.376126850873604 -36.09571921521315 6.800000000000004
    vertex 43.86313357518554 -36.29907619889746 6.800000000000004
  endloop
endfacet
facet normal 0.0 1.0 0.0
  outer loop
    vertex 0.0 -36.09571921521315 6.800000000000004
    vertex 43.376126850873604 -36.09571921521315 2.2000000000000006
    vertex 0.0 -36.09571921521315 2.2
  endloop
endfacet
facet normal 0.0 1.0 0.0
  outer loop
    vertex 43.376126850873604 -36.09571921521315 2.2000000000000006
    vertex 0.0 -36.09571921521315 6.800000000000004
    vertex 43.376126850873604 -36.09571921521315 6.800000000000004
  endloop
endfacet
facet normal 0.0 0.0 1.0
  outer loop
    vertex 14.727503373522062 -40.839999999999996 6.800000000000004
    vertex 0.0 -36.09571921521315 6.800000000000004
    vertex 0.0 -40.839999999999996 6.800000000000004
  endloop
endfacet
facet normal 0.0 0.0 1.0
  outer loop
    vertex 0.0 -36.09571921521315 6.800000000000004
    vertex 14.727503373522062 -40.839999999999996 6.800000000000004
    vertex 43.376126850873604 -36.09571921521315 6.800000000000004
  endloop
endfacet
facet normal 0.0 0.0 1.0
  outer loop
    vertex 43.376126850873604 -36.09571921521315 6.800000000000004
    vertex 14.727503373522062 -40.839999999999996 6.800000000000004
    vertex 15.88695313525189 -48.0450113391677 6.800000000000004
  endloop
endfacet
facet normal 0.0 0.0 1.0
  outer loop
    vertex 43.376126850873604 -36.09571921521315 6.800000000000004
    vertex 15.88695313525189 -48.0450113391677 6.800000000000004
    vertex 43.376126850873604 -40.839999999999996 6.800000000000004
  endloop
endfacet
facet normal 0.0 0.0 1.0
  outer loop
    vertex 43.376126850873604 -36.09571921521315 6.800000000000004
    vertex 43.376126850873604 -40.839999999999996 6.800000000000004
    vertex 43.86313357518554 -40.6366430163157 6.800000000000004
  endloop
endfacet
facet normal 0.0 0.0 1.0
  outer loop
    vertex 43.376126850873604 -36.09571921521315 6.800000000000004
    vertex 43.86313357518554 -40.6366430163157 6.800000000000004
    vertex 43.86313357518554 -36.29907619889746 6.800000000000004
  endloop
endfacet
facet normal 0.0 0.0 1.0
  outer loop
    vertex 43.86313357518554 -36.29907619889746 6.800000000000004
    vertex 43.86313357518554 -40.6366430163157 6.800000000000004
    vertex 44.29594098503991 -40.33463745624537 6.800000000000004
  endloop
endfacet
facet normal 0.0 0.0 1.0
  outer loop
    vertex 43.86313357518554 -36.29907619889746 6.800000000000004
    vertex 44.29594098503991 -40.33463745624537 6.800000000000004
    vertex 44.29594098503991 -36.60108175896778 6.800000000000004
  endloop
endfacet
facet normal 0.0 0.0 1.0
  outer loop
    vertex 44.29594098503991 -36.60108175896778 6.800000000000004
    vertex 44.29594098503991 -40.33463745624537 6.800000000000004
    vertex 44.654862543431626 -39.94772024641893 6.800000000000004
  endloop
endfacet
facet normal 0.0 0.0 1.0
  outer loop
    vertex 44.29594098503991 -36.60108175896778 6.800000000000004
    vertex 44.654862543431626 -39.94772024641893 6.800000000000004
    vertex 44.654862543431626 -36.98799896879422 6.800000000000004
  endloop
endfacet
facet normal 0.0 0.0 1.0
  outer loop
    vertex 44.654862543431626 -36.98799896879422 6.800000000000004
    vertex 44.654862543431626 -39.94772024641893 6.800000000000004
    vertex 44.92357246115219 -39.49349057713605 6.800000000000004
  endloop
endfacet
facet normal 0.0 0.0 1.0
  outer loop
    vertex 44.654862543431626 -36.98799896879422 6.800000000000004
    vertex 44.92357246115219 -39.49349057713605 6.800000000000004
    vertex 44.92357246115219 -37.442228638077104 6.800000000000004
  endloop
endfacet
facet normal 0.0 0.0 1.0
  outer loop
    vertex 44.92357246115219 -37.442228638077104 6.800000000000004
    vertex 44.92357246115219 -39.49349057713605 6.800000000000004
    vertex 45.08984828632489 -38.99260939132312 6.800000000000004
  endloop
endfacet
facet normal 0.0 0.0 1.0
  outer loop
    vertex 44.92357246115219 -37.442228638077104 6.800000000000004
    vertex 45.08984828632489 -38.99260939132312 6.800000000000004
    vertex 45.08984828632489 -37.94310982389003 6.800000000000004
  endloop
endfacet
facet normal 0.0 0.0 1.0
  outer loop
    vertex 45.08984828632489 -37.94310982389003 6.800000000000004
    vertex 45.08984828632489 -38.99260939132312 6.800000000000004
    vertex 45.1461268508736 -38.46785960760658 6.800000000000004
  endloop
endfacet
facet normal 0.0 1.0 0.0
  outer loop
    vertex -19.999999999999996 -50.0 11.200000000000001
    vertex -17.5 -50.0 2.1999999999999997
    vertex -19.999999999999996 -50.0 2.1999999999999997
  endloop
endfacet
facet normal 0.0 1.0 0.0
  outer loop
    vertex -17.5 -50.0 2.1999999999999997
    vertex -19.999999999999996 -50.0 11.200000000000001
    vertex -15.999999999999998 -50.0 5.2
  endloop
endfacet
facet normal 0.0 1.0 0.0
  outer loop
    vertex -15.999999999999998 -50.0 5.2
    vertex -19.999999999999996 -50.0 11.200000000000001
    vertex -14.0 -50.0 5.2
  endloop
endfacet
facet normal 0.0 1.0 0.0
  outer loop
    vertex -14.0 -50.0 5.2
    vertex -9.999999999999998 -50.0 2.1999999999999997
    vertex -12.5 -50.0 2.1999999999999997
  endloop
endfacet
facet normal 0.0 1.0 0.0
  outer loop
    vertex -9.999999999999998 -50.0 2.1999999999999997
    vertex -14.0 -50.0 5.2
    vertex -9.999999999999998 -50.0 11.200000000000001
  endloop
endfacet
facet normal 0.0 1.0 0.0
  outer loop
    vertex -9.999999999999998 -50.0 11.200000000000001
    vertex -14.0 -50.0 5.2
    vertex -19.999999999999996 -50.0 11.200000000000001
  endloop
endfacet
facet normal 0.2801384088425856 0.9599596199273928 0.0
  outer loop
    vertex 44.99999999999999 -21.499999999999993 6.8000000000000105
    vertex 45.80626363509794 -21.73528636742143 2.2
    vertex 44.99999999999999 -21.499999999999993 2.2
  endloop
endfacet
facet normal 0.2801384088425856 0.9599596199273928 0.0
  outer loop
    vertex 45.80626363509794 -21.73528636742143 2.2
    vertex 44.99999999999999 -21.499999999999993 6.8000000000000105
    vertex 45.80626363509794 -21.73528636742143 6.8000000000000105
  endloop
endfacet
facet normal 0.40151533135761547 0.6476053731574432 0.6476053731574448
  outer loop
    vertex 0.0 -0.9999999999999981 9.0
    vertex -9.999999999999998 4.0000000000000036 10.200000000000001
    vertex -9.999999999999998 3.0000000000000058 11.200000000000001
  endloop
endfacet
facet normal 0.40151533135761547 0.6476053731574432 0.6476053731574448
  outer loop
    vertex -9.999999999999998 4.0000000000000036 10.200000000000001
    vertex 0.0 -0.9999999999999981 9.0
    vertex 0.0 0.0 8.0
  endloop
endfacet
facet normal 0.3713906763541041 0.9284766908852592 -9.762396256794046e-18
  outer loop
    vertex -9.999999999999998 4.0000000000000036 10.200000000000001
    vertex 0.0 0.0 2.1999999999999997
    vertex -9.999999999999998 4.0000000000000036 2.1999999999999997
  endloop
endfacet
facet normal 0.3713906763541041 0.9284766908852592 -9.762396256794046e-18
  outer loop
    vertex 0.0 0.0 2.1999999999999997
    vertex -9.999999999999998 4.0000000000000036 10.200000000000001
    vertex 0.0 0.0 8.0
  endloop
endfacet
facet normal 0.8606762334755275 0.5091526501260497 -1.3918118030272547e-18
  outer loop
    vertex 44.654862543431626 -36.98799896879422 2.2000000000000006
    vertex 44.92357246115219 -37.442228638077104 6.800000000000004
    vertex 44.92357246115219 -37.442228638077104 2.2000000000000006
  endloop
endfacet
facet normal 0.8606762334755275 0.5091526501260497 -1.3918118030272547e-18
  outer loop
    vertex 44.92357246115219 -37.442228638077104 6.800000000000004
    vertex 44.654862543431626 -36.98799896879422 2.2000000000000006
    vertex 44.654862543431626 -36.98799896879422 6.800000000000004
  endloop
endfacet
facet normal 0.7331323102386352 0.6800860355015104 -4.5663160074004575e-18
  outer loop
    vertex 44.29594098503991 -36.60108175896778 2.2000000000000006
    vertex 44.654862543431626 -36.98799896879422 6.800000000000004
    vertex 44.654862543431626 -36.98799896879422 2.2000000000000006
  endloop
endfacet
facet normal 0.7331323102386352 0.6800860355015104 -4.5663160074004575e-18
  outer loop
    vertex 44.654862543431626 -36.98799896879422 6.800000000000004
    vertex 44.29594098503991 -36.60108175896778 2.2000000000000006
    vertex 44.29594098503991 -36.60108175896778 6.800000000000004
  endloop
endfacet
facet normal 0.0 1.0 0.0
  outer loop
    vertex -22.61111111111111 4.0000000000000036 10.2
    vertex -9.999999999999998 4.0000000000000036 2.1999999999999997
    vertex -22.61111111111111 4.0000000000000036 2.1999999999999997
  endloop
endfacet
facet normal 0.0 1.0 0.0
  outer loop
    vertex -9.999999999999998 4.0000000000000036 2.1999999999999997
    vertex -22.61111111111111 4.0000000000000036 10.2
    vertex -9.999999999999998 4.0000000000000036 10.200000000000001
  endloop
endfacet
facet normal -1.0 0.0 0.0
  outer loop
    vertex -23.999999999999996 -52.99999999999998 11.200000000000001
    vertex -23.999999999999996 2.9999999999999947 2.199999999999999
    vertex -23.999999999999996 -52.99999999999999 2.199999999999999
  endloop
endfacet
facet normal -1.0 0.0 0.0
  outer loop
    vertex -23.999999999999996 2.9999999999999947 2.199999999999999
    vertex -23.999999999999996 -52.99999999999998 11.200000000000001
    vertex -23.999999999999996 3.0000000000000058 11.200000000000001
  endloop
endfacet
facet normal -0.5843047258450832 -0.8115343414514891 5.978538082650051e-16
  outer loop
    vertex -22.61111111111111 -54.0 2.1999999999999993
    vertex -23.999999999999996 -52.99999999999998 11.200000000000001
    vertex -23.999999999999996 -52.99999999999999 2.199999999999999
  endloop
endfacet
facet normal -0.5843047258450832 -0.8115343414514891 5.978538082650051e-16
  outer loop
    vertex -23.999999999999996 -52.99999999999998 11.200000000000001
    vertex -22.61111111111111 -54.0 2.1999999999999993
    vertex -22.61111111111111 -54.0 10.200000000000001
  endloop
endfacet
facet normal 0.0 0.0 -1.0
  outer loop
    vertex 14.727503373522046 -9.255719215213135 2.2
    vertex 0.0 -13.999999999999996 2.2
    vertex 0.0 -9.255719215213135 2.2
  endloop
endfacet
facet normal 0.0 0.0 -1.0
  outer loop
    vertex 0.0 -13.999999999999996 2.2
    vertex 14.727503373522046 -9.255719215213135 2.2
    vertex 43.37612685087358 -13.999999999999996 2.2
  endloop
endfacet
facet normal 0.0 0.0 -1.0
  outer loop
    vertex 43.37612685087358 -13.999999999999996 2.2
    vertex 14.727503373522046 -9.255719215213135 2.2
    vertex 15.886953135251884 -2.050707876045436 2.2
  endloop
endfacet
facet normal 0.0 0.0 -1.0
  outer loop
    vertex 43.37612685087358 -13.999999999999996 2.2
    vertex 15.886953135251884 -2.050707876045436 2.2
    vertex 43.37612685087358 -9.255719215213135 2.2
  endloop
endfacet
facet normal 0.0 0.0 -1.0
  outer loop
    vertex 43.37612685087358 -13.999999999999996 2.2
    vertex 43.37612685087358 -9.255719215213135 2.2
    vertex 43.86313357518553 -9.459076198897446 2.2
  endloop
endfacet
facet normal 0.0 0.0 -1.0
  outer loop
    vertex 43.37612685087358 -13.999999999999996 2.2
    vertex 43.86313357518553 -9.459076198897446 2.2
    vertex 43.86313357518553 -13.796643016315686 2.2
  endloop
endfacet
facet normal 0.0 0.0 -1.0
  outer loop
    vertex 43.86313357518553 -13.796643016315686 2.2
    vertex 43.86313357518553 -9.459076198897446 2.2
    vertex 44.295940985039884 -9.761081758967773 2.2
  endloop
endfacet
facet normal 0.0 0.0 -1.0
  outer loop
    vertex 43.86313357518553 -13.796643016315686 2.2
    vertex 44.295940985039884 -9.761081758967773 2.2
    vertex 44.295940985039884 -13.494637456245353 2.2
  endloop
endfacet
facet normal 0.0 0.0 -1.0
  outer loop
    vertex 44.295940985039884 -13.494637456245353 2.2
    vertex 44.295940985039884 -9.761081758967773 2.2
    vertex 44.65486254343161 -10.147998968794212 2.2
  endloop
endfacet
facet normal 0.0 0.0 -1.0
  outer loop
    vertex 44.295940985039884 -13.494637456245353 2.2
    vertex 44.65486254343161 -10.147998968794212 2.2
    vertex 44.65486254343161 -13.107720246418927 2.2
  endloop
endfacet
facet normal 0.0 0.0 -1.0
  outer loop
    vertex 44.65486254343161 -13.107720246418927 2.2
    vertex 44.65486254343161 -10.147998968794212 2.2
    vertex 44.92357246115217 -10.602228638077086 2.2
  endloop
endfacet
facet normal 0.0 0.0 -1.0
  outer loop
    vertex 44.65486254343161 -13.107720246418927 2.2
    vertex 44.92357246115217 -10.602228638077086 2.2
    vertex 44.92357246115217 -12.653490577136045 2.2
  endloop
endfacet
facet normal 0.0 0.0 -1.0
  outer loop
    vertex 44.92357246115217 -12.653490577136045 2.2
    vertex 44.92357246115217 -10.602228638077086 2.2
    vertex 45.089848286324866 -11.103109823890021 2.2
  endloop
endfacet
facet normal 0.0 0.0 -1.0
  outer loop
    vertex 44.92357246115217 -12.653490577136045 2.2
    vertex 45.089848286324866 -11.103109823890021 2.2
    vertex 45.089848286324866 -12.15260939132311 2.2
  endloop
endfacet
facet normal 0.0 0.0 -1.0
  outer loop
    vertex 45.089848286324866 -12.15260939132311 2.2
    vertex 45.089848286324866 -11.103109823890021 2.2
    vertex 45.146126850873586 -11.627859607606567 2.2
  endloop
endfacet
facet normal 0.0 0.0 -1.0
  outer loop
    vertex 44.99999999999999 -21.499999999999993 2.2
    vertex 0.0 -28.59571921521315 2.2
    vertex 0.0 -21.499999999999993 2.2
  endloop
endfacet
facet normal 0.0 0.0 -1.0
  outer loop
    vertex 0.0 -28.59571921521315 2.2
    vertex 44.99999999999999 -21.499999999999993 2.2
    vertex 45.0 -28.59571921521315 2.2
  endloop
endfacet
facet normal 0.0 0.0 -1.0
  outer loop
    vertex 45.0 -28.59571921521315 2.2
    vertex 44.99999999999999 -21.499999999999993 2.2
    vertex 45.80626363509794 -21.73528636742143 2.2
  endloop
endfacet
facet normal 0.0 0.0 -1.0
  outer loop
    vertex 45.0 -28.59571921521315 2.2
    vertex 45.80626363509794 -21.73528636742143 2.2
    vertex 45.806263635097956 -28.360432847791717 2.2
  endloop
endfacet
facet normal 0.0 0.0 -1.0
  outer loop
    vertex 45.806263635097956 -28.360432847791717 2.2
    vertex 45.80626363509794 -21.73528636742143 2.2
    vertex 46.53600872297313 -22.151090204221653 2.2
  endloop
endfacet
facet normal 0.0 0.0 -1.0
  outer loop
    vertex 45.806263635097956 -28.360432847791717 2.2
    vertex 46.53600872297313 -22.151090204221653 2.2
    vertex 46.53600872297313 -27.944629010991488 2.2
  endloop
endfacet
facet normal 0.0 0.0 -1.0
  outer loop
    vertex 46.53600872297313 -27.944629010991488 2.2
    vertex 46.53600872297313 -22.151090204221653 2.2
    vertex 47.149468071475084 -22.72475243211475 2.2
  endloop
endfacet
facet normal 0.0 0.0 -1.0
  outer loop
    vertex 46.53600872297313 -27.944629010991488 2.2
    vertex 47.149468071475084 -22.72475243211475 2.2
    vertex 47.14946807147509 -27.370966783098392 2.2
  endloop
endfacet
facet normal 0.0 0.0 -1.0
  outer loop
    vertex 47.14946807147509 -27.370966783098392 2.2
    vertex 47.149468071475084 -22.72475243211475 2.2
    vertex 47.61321143736729 -23.425011537422716 2.2
  endloop
endfacet
facet normal 0.0 0.0 -1.0
  outer loop
    vertex 47.14946807147509 -27.370966783098392 2.2
    vertex 47.61321143736729 -23.425011537422716 2.2
    vertex 47.61321143736729 -26.67070767779042 2.2
  endloop
endfacet
facet normal 0.0 0.0 -1.0
  outer loop
    vertex 47.61321143736729 -26.67070767779042 2.2
    vertex 47.61321143736729 -23.425011537422716 2.2
    vertex 47.90196729522755 -24.213707155850454 2.2
  endloop
endfacet
facet normal 0.0 0.0 -1.0
  outer loop
    vertex 47.61321143736729 -26.67070767779042 2.2
    vertex 47.90196729522755 -24.213707155850454 2.2
    vertex 47.90196729522755 -25.88201205936268 2.2
  endloop
endfacet
facet normal 0.0 0.0 -1.0
  outer loop
    vertex 47.90196729522755 -25.88201205936268 2.2
    vertex 47.90196729522755 -24.213707155850454 2.2
    vertex 48.00000000000001 -25.04785960760657 2.2
  endloop
endfacet
facet normal 4.0722015777096536e-17 1.6717053553067968e-18 -1.0
  outer loop
    vertex -22.61111111111111 4.0000000000000036 2.1999999999999997
    vertex -23.999999999999996 -52.99999999999999 2.199999999999999
    vertex -23.999999999999996 2.9999999999999947 2.199999999999999
  endloop
endfacet
facet normal 4.0722015777096536e-17 1.6717053553067968e-18 -1.0
  outer loop
    vertex -23.999999999999996 -52.99999999999999 2.199999999999999
    vertex -22.61111111111111 4.0000000000000036 2.1999999999999997
    vertex -22.61111111111111 -54.0 2.1999999999999993
  endloop
endfacet
facet normal 4.0722015777096536e-17 1.6717053553067968e-18 -1.0
  outer loop
    vertex -22.61111111111111 -54.0 2.1999999999999993
    vertex -22.61111111111111 4.0000000000000036 2.1999999999999997
    vertex -19.999999999999996 0.0 2.1999999999999997
  endloop
endfacet
facet normal 4.0722015777096536e-17 1.6717053553067968e-18 -1.0
  outer loop
    vertex -19.999999999999996 0.0 2.1999999999999997
    vertex -22.61111111111111 4.0000000000000036 2.1999999999999997
    vertex -9.999999999999998 4.0000000000000036 2.1999999999999997
  endloop
endfacet
facet normal 4.0722015777096536e-17 1.6717053553067968e-18 -1.0
  outer loop
    vertex -19.999999999999996 0.0 2.1999999999999997
    vertex -9.999999999999998 4.0000000000000036 2.1999999999999997
    vertex -17.5 0.0 2.1999999999999997
  endloop
endfacet
facet normal 4.0722015777096536e-17 1.6717053553067968e-18 -1.0
  outer loop
    vertex -17.5 0.0 2.1999999999999997
    vertex -9.999999999999998 4.0000000000000036 2.1999999999999997
    vertex -12.5 0.0 2.1999999999999997
  endloop
endfacet
facet normal 4.0722015777096536e-17 1.6717053553067968e-18 -1.0
  outer loop
    vertex -17.5 0.0 2.1999999999999997
    vertex -12.5 0.0 2.1999999999999997
    vertex -17.5 -50.0 2.1999999999999997
  endloop
endfacet
facet normal 4.0722015777096536e-17 1.6717053553067968e-18 -1.0
  outer loop
    vertex -12.5 0.0 2.1999999999999997
    vertex -9.999999999999998 4.0000000000000036 2.1999999999999997
    vertex -9.999999999999998 0.0 2.1999999999999997
  endloop
endfacet
facet normal 4.0722015777096536e-17 1.6717053553067968e-18 -1.0
  outer loop
    vertex -9.999999999999998 0.0 2.1999999999999997
    vertex -9.999999999999998 4.0000000000000036 2.1999999999999997
    vertex 0.0 0.0 2.1999999999999997
  endloop
endfacet
facet normal 4.0722015777096536e-17 1.6717053553067968e-18 -1.0
  outer loop
    vertex -9.999999999999998 0.0 2.1999999999999997
    vertex 0.0 0.0 2.1999999999999997
    vertex -9.999999999999998 -50.0 2.1999999999999997
  endloop
endfacet
facet normal 4.0722015777096536e-17 1.6717053553067968e-18 -1.0
  outer loop
    vertex -9.999999999999998 -50.0 2.1999999999999997
    vertex 0.0 0.0 2.1999999999999997
    vertex -9.999999999999998 -54.0 2.1999999999999993
  endloop
endfacet
facet normal 4.0722015777096536e-17 1.6717053553067968e-18 -1.0
  outer loop
    vertex -9.999999999999998 -54.0 2.1999999999999993
    vertex 0.0 0.0 2.1999999999999997
    vertex 0.0 -50.0 2.2
  endloop
endfacet
facet normal 4.0722015777096536e-17 1.6717053553067968e-18 -1.0
  outer loop
    vertex 0.0 -50.0 2.2
    vertex 0.0 0.0 2.1999999999999997
    vertex 0.0 -9.255719215213135 2.2
  endloop
endfacet
facet normal 4.0722015777096536e-17 1.6717053553067968e-18 -1.0
  outer loop
    vertex 0.0 -50.0 2.2
    vertex 0.0 -9.255719215213135 2.2
    vertex 0.0 -13.999999999999996 2.2
  endloop
endfacet
facet normal 4.0722015777096536e-17 1.6717053553067968e-18 -1.0
  outer loop
    vertex 0.0 -50.0 2.2
    vertex 0.0 -13.999999999999996 2.2
    vertex 0.0 -21.499999999999993 2.2
  endloop
endfacet
facet normal 4.0722015777096536e-17 1.6717053553067968e-18 -1.0
  outer loop
    vertex 0.0 -50.0 2.2
    vertex 0.0 -21.499999999999993 2.2
    vertex 0.0 -28.59571921521315 2.2
  endloop
endfacet
facet normal 4.0722015777096536e-17 1.6717053553067968e-18 -1.0
  outer loop
    vertex 0.0 -50.0 2.2
    vertex 0.0 -28.59571921521315 2.2
    vertex 0.0 -36.09571921521315 2.2
  endloop
endfacet
facet normal 4.0722015777096536e-17 1.6717053553067968e-18 -1.0
  outer loop
    vertex 0.0 -50.0 2.2
    vertex 0.0 -36.09571921521315 2.2
    vertex 0.0 -40.839999999999996 2.2
  endloop
endfacet
facet normal 4.0722015777096536e-17 1.6717053553067968e-18 -1.0
  outer loop
    vertex -22.61111111111111 -54.0 2.1999999999999993
    vertex -19.999999999999996 -50.0 2.1999999999999997
    vertex -9.999999999999998 -54.0 2.1999999999999993
  endloop
endfacet
facet normal 4.0722015777096536e-17 1.6717053553067968e-18 -1.0
  outer loop
    vertex -19.999999999999996 -50.0 2.1999999999999997
    vertex -22.61111111111111 -54.0 2.1999999999999993
    vertex -19.999999999999996 0.0 2.1999999999999997
  endloop
endfacet
facet normal 4.0722015777096536e-17 1.6717053553067968e-18 -1.0
  outer loop
    vertex -9.999999999999998 -54.0 2.1999999999999993
    vertex -19.999999999999996 -50.0 2.1999999999999997
    vertex -17.5 -50.0 2.1999999999999997
  endloop
endfacet
facet normal 4.0722015777096536e-17 1.6717053553067968e-18 -1.0
  outer loop
    vertex -9.999999999999998 -54.0 2.1999999999999993
    vertex -17.5 -50.0 2.1999999999999997
    vertex -12.5 -50.0 2.1999999999999997
  endloop
endfacet
facet normal 4.0722015777096536e-17 1.6717053553067968e-18 -1.0
  outer loop
    vertex -12.5 -50.0 2.1999999999999997
    vertex -17.5 -50.0 2.1999999999999997
    vertex -12.5 0.0 2.1999999999999997
  endloop
endfacet
facet normal 4.0722015777096536e-17 1.6717053553067968e-18 -1.0
  outer loop
    vertex -9.999999999999998 -54.0 2.1999999999999993
    vertex -12.5 -50.0 2.1999999999999997
    vertex -9.999999999999998 -50.0 2.1999999999999997
  endloop
endfacet
endsolid clips-50х50-simple
