solid clips-50х50-exp
facet normal 0.0 -1.0 0.0
  outer loop
    vertex 21.25092467823891 -48.04501133916772 6.800000000000004
    vertex 16.38817886897156 -48.04501133916772 2.2
    vertex 21.25092467823891 -48.04501133916772 2.2
  endloop
endfacet
facet normal 0.0 -1.0 0.0
  outer loop
    vertex 16.38817886897156 -48.04501133916772 2.2
    vertex 21.25092467823891 -48.04501133916772 6.800000000000004
    vertex 16.38817886897156 -48.04501133916772 6.800000000000002
  endloop
endfacet
facet normal 0.0 1.0 0.0
  outer loop
    vertex 16.38817886897157 -2.050707876045436 6.800000000000004
    vertex 21.25092467823889 -2.050707876045436 2.2000000000000046
    vertex 16.38817886897157 -2.050707876045436 2.2000000000000024
  endloop
endfacet
facet normal 0.0 1.0 0.0
  outer loop
    vertex 21.25092467823889 -2.050707876045436 2.2000000000000046
    vertex 16.38817886897157 -2.050707876045436 6.800000000000004
    vertex 21.25092467823889 -2.050707876045436 6.8000000000000105
  endloop
endfacet
facet normal 0.0 1.0 0.0
  outer loop
    vertex 0.0 -21.999999999999993 6.8000000000000105
    vertex 35.11833217094739 -21.999999999999993 2.2
    vertex 0.0 -21.999999999999993 2.1999999999999993
  endloop
endfacet
facet normal 0.0 1.0 0.0
  outer loop
    vertex 35.11833217094739 -21.999999999999993 2.2
    vertex 0.0 -21.999999999999993 6.8000000000000105
    vertex 35.11833217094739 -21.999999999999993 6.8000000000000105
  endloop
endfacet
facet normal -4.834228255796397e-16 -1.0 5.637200587924402e-33
  outer loop
    vertex 34.999999999999986 -28.09571921521317 2.2000000000000113
    vertex 0.0 -28.09571921521315 6.8000000000000105
    vertex 0.0 -28.09571921521315 2.1999999999999993
  endloop
endfacet
facet normal -4.834228255796397e-16 -1.0 5.637200587924402e-33
  outer loop
    vertex 0.0 -28.09571921521315 6.8000000000000105
    vertex 34.999999999999986 -28.09571921521317 2.2000000000000113
    vertex 34.999999999999986 -28.09571921521317 6.800000000000021
  endloop
endfacet
facet normal -1.506288539539424e-16 1.4287885607140133e-15 1.0
  outer loop
    vertex 34.999999999999986 -28.09571921521317 6.800000000000021
    vertex 0.0 -21.999999999999993 6.8000000000000105
    vertex 0.0 -28.09571921521315 6.8000000000000105
  endloop
endfacet
facet normal -1.506288539539424e-16 1.4287885607140133e-15 1.0
  outer loop
    vertex 0.0 -21.999999999999993 6.8000000000000105
    vertex 34.999999999999986 -28.09571921521317 6.800000000000021
    vertex 35.11833217094739 -21.999999999999993 6.8000000000000105
  endloop
endfacet
facet normal -1.506288539539424e-16 1.4287885607140133e-15 1.0
  outer loop
    vertex 35.11833217094739 -21.999999999999993 6.8000000000000105
    vertex 34.999999999999986 -28.09571921521317 6.800000000000021
    vertex 35.77960986672478 -27.994364226025546 6.800000000000021
  endloop
endfacet
facet normal -1.506288539539424e-16 1.4287885607140133e-15 1.0
  outer loop
    vertex 35.11833217094739 -21.999999999999993 6.8000000000000105
    vertex 35.77960986672478 -27.994364226025546 6.800000000000021
    vertex 35.89342109173042 -22.131535329882436 6.8000000000000105
  endloop
endfacet
facet normal -1.506288539539424e-16 1.4287885607140133e-15 1.0
  outer loop
    vertex 35.89342109173042 -22.131535329882436 6.8000000000000105
    vertex 35.77960986672478 -27.994364226025546 6.800000000000021
    vertex 36.50738822269427 -27.69703773425218 6.80000000000002
  endloop
endfacet
facet normal -1.506288539539424e-16 1.4287885607140133e-15 1.0
  outer loop
    vertex 35.89342109173042 -22.131535329882436 6.8000000000000105
    vertex 36.50738822269427 -27.69703773425218 6.80000000000002
    vertex 36.609111886730865 -22.456882934882856 6.800000000000011
  endloop
endfacet
facet normal -1.506288539539424e-16 1.4287885607140133e-15 1.0
  outer loop
    vertex 36.609111886730865 -22.456882934882856 6.800000000000011
    vertex 36.50738822269427 -27.69703773425218 6.80000000000002
    vertex 37.13494951855229 -27.223507167056283 6.80000000000002
  endloop
endfacet
facet normal -1.506288539539424e-16 1.4287885607140133e-15 1.0
  outer loop
    vertex 36.609111886730865 -22.456882934882856 6.800000000000011
    vertex 37.13494951855229 -27.223507167056283 6.80000000000002
    vertex 37.21782263488557 -22.95441243472063 6.800000000000011
  endloop
endfacet
facet normal -1.506288539539424e-16 1.4287885607140133e-15 1.0
  outer loop
    vertex 37.21782263488557 -22.95441243472063 6.800000000000011
    vertex 37.13494951855229 -27.223507167056283 6.80000000000002
    vertex 37.62057102676012 -26.60525468716328 6.8000000000000185
  endloop
endfacet
facet normal -1.506288539539424e-16 1.4287885607140133e-15 1.0
  outer loop
    vertex 37.21782263488557 -22.95441243472063 6.800000000000011
    vertex 37.62057102676012 -26.60525468716328 6.8000000000000185
    vertex 37.67908386673745 -23.59104612383735 6.800000000000013
  endloop
endfacet
facet normal -1.506288539539424e-16 1.4287885607140133e-15 1.0
  outer loop
    vertex 37.67908386673745 -23.59104612383735 6.800000000000013
    vertex 37.62057102676012 -26.60525468716328 6.8000000000000185
    vertex 37.93196673158086 -25.883384135646544 6.800000000000018
  endloop
endfacet
facet normal -1.506288539539424e-16 1.4287885607140133e-15 1.0
  outer loop
    vertex 37.67908386673745 -23.59104612383735 6.800000000000013
    vertex 37.93196673158086 -25.883384135646544 6.800000000000018
    vertex 37.96222913292489 -24.324458106534344 6.800000000000014
  endloop
endfacet
facet normal -1.506288539539424e-16 1.4287885607140133e-15 1.0
  outer loop
    vertex 37.96222913292489 -24.324458106534344 6.800000000000014
    vertex 37.93196673158086 -25.883384135646544 6.800000000000018
    vertex 38.048433829583644 -25.105888287933713 6.800000000000016
  endloop
endfacet
facet normal 0.8097906532169075 0.5867189258601895 -1.3855167571251791e-15
  outer loop
    vertex 37.21782263488557 -22.95441243472063 2.200000000000003
    vertex 37.67908386673745 -23.59104612383735 6.800000000000013
    vertex 37.67908386673745 -23.59104612383735 2.200000000000003
  endloop
endfacet
facet normal 0.8097906532169075 0.5867189258601895 -1.3855167571251791e-15
  outer loop
    vertex 37.67908386673745 -23.59104612383735 6.800000000000013
    vertex 37.21782263488557 -22.95441243472063 2.200000000000003
    vertex 37.21782263488557 -22.95441243472063 6.800000000000011
  endloop
endfacet
facet normal 0.6328517412066135 0.7742729968504374 -1.3810753126246905e-15
  outer loop
    vertex 36.609111886730865 -22.456882934882856 6.800000000000011
    vertex 37.21782263488557 -22.95441243472063 2.200000000000003
    vertex 36.609111886730865 -22.456882934882856 2.200000000000003
  endloop
endfacet
facet normal 0.6328517412066135 0.7742729968504374 -1.3810753126246905e-15
  outer loop
    vertex 37.21782263488557 -22.95441243472063 2.200000000000003
    vertex 36.609111886730865 -22.456882934882856 6.800000000000011
    vertex 37.21782263488557 -22.95441243472063 6.800000000000011
  endloop
endfacet
facet normal 0.9939701084885342 0.10965137222712552 -1.1238847916935991e-15
  outer loop
    vertex 37.96222913292489 -24.324458106534344 2.200000000000006
    vertex 38.048433829583644 -25.105888287933713 6.800000000000016
    vertex 38.048433829583644 -25.105888287933713 2.200000000000006
  endloop
endfacet
facet normal 0.9939701084885342 0.10965137222712552 -1.1238847916935991e-15
  outer loop
    vertex 38.048433829583644 -25.105888287933713 6.800000000000016
    vertex 37.96222913292489 -24.324458106534344 2.200000000000006
    vertex 37.96222913292489 -24.324458106534344 6.800000000000014
  endloop
endfacet
facet normal 0.9328915178354896 0.36015748770585954 -1.2978436328345965e-15
  outer loop
    vertex 37.67908386673745 -23.59104612383735 2.200000000000003
    vertex 37.96222913292489 -24.324458106534344 6.800000000000014
    vertex 37.96222913292489 -24.324458106534344 2.200000000000006
  endloop
endfacet
facet normal 0.9328915178354896 0.36015748770585954 -1.2978436328345965e-15
  outer loop
    vertex 37.96222913292489 -24.324458106534344 6.800000000000014
    vertex 37.67908386673745 -23.59104612383735 2.200000000000003
    vertex 37.67908386673745 -23.59104612383735 6.800000000000013
  endloop
endfacet
facet normal 0.7750586124871127 0.6318893472828545 0.0
  outer loop
    vertex 35.46531870562551 -6.6493322647306154 2.2000000000000015
    vertex 35.64353175703834 -6.867923638282101 6.800000000000007
    vertex 35.64353175703834 -6.867923638282101 2.2000000000000015
  endloop
endfacet
facet normal 0.7750586124871127 0.6318893472828545 0.0
  outer loop
    vertex 35.64353175703834 -6.867923638282101 6.800000000000007
    vertex 35.46531870562551 -6.6493322647306154 2.2000000000000015
    vertex 35.46531870562551 -6.6493322647306154 6.800000000000007
  endloop
endfacet
facet normal 0.8830081430618824 0.4693576666960989 0.0
  outer loop
    vertex 35.64353175703834 -6.867923638282101 2.2000000000000015
    vertex 35.77590566450424 -7.116960239823317 6.800000000000007
    vertex 35.77590566450424 -7.116960239823317 2.2000000000000015
  endloop
endfacet
facet normal 0.8830081430618824 0.4693576666960989 0.0
  outer loop
    vertex 35.77590566450424 -7.116960239823317 6.800000000000007
    vertex 35.64353175703834 -6.867923638282101 2.2000000000000015
    vertex 35.64353175703834 -6.867923638282101 6.800000000000007
  endloop
endfacet
facet normal 0.9573418641439144 0.2889577047899137 0.0
  outer loop
    vertex 35.77590566450424 -7.116960239823317 2.2000000000000015
    vertex 35.857400999915875 -7.386961333508388 6.800000000000007
    vertex 35.857400999915875 -7.386961333508388 2.2000000000000015
  endloop
endfacet
facet normal 0.9573418641439144 0.2889577047899137 0.0
  outer loop
    vertex 35.857400999915875 -7.386961333508388 6.800000000000007
    vertex 35.77590566450424 -7.116960239823317 2.2000000000000015
    vertex 35.77590566450424 -7.116960239823317 6.800000000000007
  endloop
endfacet
facet normal 0.99522991711141 0.09755722467565499 0.0
  outer loop
    vertex 35.857400999915875 -7.386961333508388 2.2000000000000015
    vertex 35.884915264512316 -7.667648072647789 6.800000000000007
    vertex 35.884915264512316 -7.667648072647789 2.2000000000000015
  endloop
endfacet
facet normal 0.99522991711141 0.09755722467565499 0.0
  outer loop
    vertex 35.884915264512316 -7.667648072647789 6.800000000000007
    vertex 35.857400999915875 -7.386961333508388 2.2000000000000015
    vertex 35.857400999915875 -7.386961333508388 6.800000000000007
  endloop
endfacet
facet normal 0.99522991711141 -0.09755722467565499 0.0
  outer loop
    vertex 35.884915264512316 -7.667648072647789 2.2000000000000015
    vertex 35.857400999915875 -7.948334811787179 6.800000000000007
    vertex 35.857400999915875 -7.948334811787179 2.2000000000000015
  endloop
endfacet
facet normal 0.99522991711141 -0.09755722467565499 0.0
  outer loop
    vertex 35.857400999915875 -7.948334811787179 6.800000000000007
    vertex 35.884915264512316 -7.667648072647789 2.2000000000000015
    vertex 35.884915264512316 -7.667648072647789 6.800000000000007
  endloop
endfacet
facet normal 0.9573418641439144 -0.2889577047899137 0.0
  outer loop
    vertex 35.857400999915875 -7.948334811787179 2.2000000000000015
    vertex 35.77590566450424 -8.21833590547226 6.800000000000007
    vertex 35.77590566450424 -8.21833590547226 2.2000000000000015
  endloop
endfacet
facet normal 0.9573418641439144 -0.2889577047899137 0.0
  outer loop
    vertex 35.77590566450424 -8.21833590547226 6.800000000000007
    vertex 35.857400999915875 -7.948334811787179 2.2000000000000015
    vertex 35.857400999915875 -7.948334811787179 6.800000000000007
  endloop
endfacet
facet normal 0.8830081430618657 -0.46935766669613005 0.0
  outer loop
    vertex 35.77590566450424 -8.21833590547226 2.2000000000000015
    vertex 35.64353175703832 -8.467372507013476 6.800000000000007
    vertex 35.64353175703832 -8.467372507013476 2.2000000000000015
  endloop
endfacet
facet normal 0.8830081430618657 -0.46935766669613005 0.0
  outer loop
    vertex 35.64353175703832 -8.467372507013476 6.800000000000007
    vertex 35.77590566450424 -8.21833590547226 2.2000000000000015
    vertex 35.77590566450424 -8.21833590547226 6.800000000000007
  endloop
endfacet
facet normal 0.7750586124871127 -0.6318893472828545 0.0
  outer loop
    vertex 35.64353175703832 -8.467372507013476 2.2000000000000015
    vertex 35.46531870562551 -8.685963880564962 6.800000000000007
    vertex 35.46531870562551 -8.685963880564962 2.2000000000000015
  endloop
endfacet
facet normal 0.7750586124871127 -0.6318893472828545 0.0
  outer loop
    vertex 35.46531870562551 -8.685963880564962 6.800000000000007
    vertex 35.64353175703832 -8.467372507013476 2.2000000000000015
    vertex 35.64353175703832 -8.467372507013476 6.800000000000007
  endloop
endfacet
facet normal 0.6376028730877615 -0.7703652226251079 0.0
  outer loop
    vertex 35.46531870562551 -8.685963880564962 6.800000000000007
    vertex 35.248051018463705 -8.86578832940423 2.2000000000000015
    vertex 35.46531870562551 -8.685963880564962 2.2000000000000015
  endloop
endfacet
facet normal 0.6376028730877615 -0.7703652226251079 0.0
  outer loop
    vertex 35.248051018463705 -8.86578832940423 2.2000000000000015
    vertex 35.46531870562551 -8.685963880564962 6.800000000000007
    vertex 35.248051018463705 -8.86578832940423 6.800000000000007
  endloop
endfacet
facet normal 0.47587381652569144 -0.8795135648443817 0.0
  outer loop
    vertex 35.248051018463705 -8.86578832940423 6.800000000000007
    vertex 34.999999999999986 -9.000000000000005 2.2000000000000015
    vertex 35.248051018463705 -8.86578832940423 2.2000000000000015
  endloop
endfacet
facet normal 0.47587381652569144 -0.8795135648443817 0.0
  outer loop
    vertex 34.999999999999986 -9.000000000000005 2.2000000000000015
    vertex 35.248051018463705 -8.86578832940423 6.800000000000007
    vertex 34.999999999999986 -9.000000000000005 6.800000000000007
  endloop
endfacet
facet normal 0.2975159102641941 0.9547168601945124 3.0061798937869226e-17
  outer loop
    vertex 21.25092467823889 -2.050707876045436 2.2000000000000046
    vertex 35.00000000000001 -6.335296145295572 6.800000000000007
    vertex 35.00000000000001 -6.335296145295572 2.2000000000000015
  endloop
endfacet
facet normal 0.2975159102641941 0.9547168601945124 3.0061798937869226e-17
  outer loop
    vertex 35.00000000000001 -6.335296145295572 6.800000000000007
    vertex 21.25092467823889 -2.050707876045436 2.2000000000000046
    vertex 21.25092467823889 -2.050707876045436 6.8000000000000105
  endloop
endfacet
facet normal 0.4758738165257083 0.8795135648443727 0.0
  outer loop
    vertex 35.00000000000001 -6.335296145295572 6.800000000000007
    vertex 35.248051018463705 -6.469507815891347 2.2000000000000015
    vertex 35.00000000000001 -6.335296145295572 2.2000000000000015
  endloop
endfacet
facet normal 0.4758738165257083 0.8795135648443727 0.0
  outer loop
    vertex 35.248051018463705 -6.469507815891347 2.2000000000000015
    vertex 35.00000000000001 -6.335296145295572 6.800000000000007
    vertex 35.248051018463705 -6.469507815891347 6.800000000000007
  endloop
endfacet
facet normal 0.6376028730877419 0.7703652226251241 0.0
  outer loop
    vertex 35.248051018463705 -6.469507815891347 6.800000000000007
    vertex 35.46531870562551 -6.6493322647306154 2.2000000000000015
    vertex 35.248051018463705 -6.469507815891347 2.2000000000000015
  endloop
endfacet
facet normal 0.6376028730877419 0.7703652226251241 0.0
  outer loop
    vertex 35.46531870562551 -6.6493322647306154 2.2000000000000015
    vertex 35.248051018463705 -6.469507815891347 6.800000000000007
    vertex 35.46531870562551 -6.6493322647306154 6.800000000000007
  endloop
endfacet
facet normal -5.575680133363671e-16 -2.7568131818501097e-15 1.0
  outer loop
    vertex 16.38817886897156 -48.04501133916772 6.800000000000002
    vertex 15.888178868971563 -46.19571921521313 6.800000000000003
    vertex 15.888178868971563 -47.54501133916772 6.800000000000002
  endloop
endfacet
facet normal -5.575680133363671e-16 -2.7568131818501097e-15 1.0
  outer loop
    vertex 15.888178868971563 -46.19571921521313 6.800000000000003
    vertex 0.0 -41.095719215213144 6.800000000000004
    vertex 0.0 -46.19571921521313 6.800000000000002
  endloop
endfacet
facet normal -5.575680133363671e-16 -2.7568131818501097e-15 1.0
  outer loop
    vertex 0.0 -41.095719215213144 6.800000000000004
    vertex 15.888178868971563 -46.19571921521313 6.800000000000003
    vertex 35.00000000000001 -41.09571921521317 6.800000000000035
  endloop
endfacet
facet normal -5.575680133363671e-16 -2.7568131818501097e-15 1.0
  outer loop
    vertex 35.00000000000001 -41.09571921521317 6.800000000000035
    vertex 15.888178868971563 -46.19571921521313 6.800000000000003
    vertex 16.38817886897156 -48.04501133916772 6.800000000000002
  endloop
endfacet
facet normal -5.575680133363671e-16 -2.7568131818501097e-15 1.0
  outer loop
    vertex 35.00000000000001 -41.09571921521317 6.800000000000035
    vertex 16.38817886897156 -48.04501133916772 6.800000000000002
    vertex 21.25092467823891 -48.04501133916772 6.800000000000004
  endloop
endfacet
facet normal -5.575680133363671e-16 -2.7568131818501097e-15 1.0
  outer loop
    vertex 35.00000000000001 -41.09571921521317 6.800000000000035
    vertex 21.25092467823891 -48.04501133916772 6.800000000000004
    vertex 35.00000000000001 -43.76042306991762 6.8000000000000185
  endloop
endfacet
facet normal -5.575680133363671e-16 -2.7568131818501097e-15 1.0
  outer loop
    vertex 35.00000000000001 -41.09571921521317 6.800000000000035
    vertex 35.00000000000001 -43.76042306991762 6.8000000000000185
    vertex 35.248051018463705 -43.62621139932184 6.8000000000000185
  endloop
endfacet
facet normal -5.575680133363671e-16 -2.7568131818501097e-15 1.0
  outer loop
    vertex 35.00000000000001 -41.09571921521317 6.800000000000035
    vertex 35.248051018463705 -43.62621139932184 6.8000000000000185
    vertex 35.248051018463705 -41.22993088580895 6.8000000000000345
  endloop
endfacet
facet normal -5.575680133363671e-16 -2.7568131818501097e-15 1.0
  outer loop
    vertex 35.248051018463705 -41.22993088580895 6.8000000000000345
    vertex 35.248051018463705 -43.62621139932184 6.8000000000000185
    vertex 35.465318705625535 -43.44638695048258 6.80000000000002
  endloop
endfacet
facet normal -5.575680133363671e-16 -2.7568131818501097e-15 1.0
  outer loop
    vertex 35.248051018463705 -41.22993088580895 6.8000000000000345
    vertex 35.465318705625535 -43.44638695048258 6.80000000000002
    vertex 35.465318705625535 -41.40975533464822 6.800000000000033
  endloop
endfacet
facet normal -5.575680133363671e-16 -2.7568131818501097e-15 1.0
  outer loop
    vertex 35.465318705625535 -41.40975533464822 6.800000000000033
    vertex 35.465318705625535 -43.44638695048258 6.80000000000002
    vertex 35.64353175703834 -43.227795576931086 6.800000000000021
  endloop
endfacet
facet normal -5.575680133363671e-16 -2.7568131818501097e-15 1.0
  outer loop
    vertex 35.465318705625535 -41.40975533464822 6.800000000000033
    vertex 35.64353175703834 -43.227795576931086 6.800000000000021
    vertex 35.64353175703834 -41.6283467081997 6.800000000000031
  endloop
endfacet
facet normal -5.575680133363671e-16 -2.7568131818501097e-15 1.0
  outer loop
    vertex 35.64353175703834 -41.6283467081997 6.800000000000031
    vertex 35.64353175703834 -43.227795576931086 6.800000000000021
    vertex 35.77590566450424 -42.978758975389866 6.800000000000023
  endloop
endfacet
facet normal -5.575680133363671e-16 -2.7568131818501097e-15 1.0
  outer loop
    vertex 35.64353175703834 -41.6283467081997 6.800000000000031
    vertex 35.77590566450424 -42.978758975389866 6.800000000000023
    vertex 35.77590566450424 -41.87738330974092 6.80000000000003
  endloop
endfacet
facet normal -5.575680133363671e-16 -2.7568131818501097e-15 1.0
  outer loop
    vertex 35.77590566450424 -41.87738330974092 6.80000000000003
    vertex 35.77590566450424 -42.978758975389866 6.800000000000023
    vertex 35.857400999915875 -42.70875788170479 6.800000000000024
  endloop
endfacet
facet normal -5.575680133363671e-16 -2.7568131818501097e-15 1.0
  outer loop
    vertex 35.77590566450424 -41.87738330974092 6.80000000000003
    vertex 35.857400999915875 -42.70875788170479 6.800000000000024
    vertex 35.857400999915875 -42.147384403425995 6.800000000000028
  endloop
endfacet
facet normal -5.575680133363671e-16 -2.7568131818501097e-15 1.0
  outer loop
    vertex 35.857400999915875 -42.147384403425995 6.800000000000028
    vertex 35.857400999915875 -42.70875788170479 6.800000000000024
    vertex 35.884915264512316 -42.42807114256539 6.800000000000026
  endloop
endfacet
facet normal -0.7071067811865476 -0.7071067811865476 0.0
  outer loop
    vertex 15.888178868971563 -47.54501133916772 6.800000000000002
    vertex 16.38817886897156 -48.04501133916772 2.2
    vertex 16.38817886897156 -48.04501133916772 6.800000000000002
  endloop
endfacet
facet normal -0.7071067811865476 -0.7071067811865476 0.0
  outer loop
    vertex 16.38817886897156 -48.04501133916772 2.2
    vertex 15.888178868971563 -47.54501133916772 6.800000000000002
    vertex 15.888178868971563 -47.54501133916772 2.2
  endloop
endfacet
facet normal 0.12892236823802553 -0.9916546893792713 -3.726770931988792e-31
  outer loop
    vertex 35.77960986672478 -27.994364226025546 6.800000000000021
    vertex 34.999999999999986 -28.09571921521317 2.2000000000000113
    vertex 35.77960986672478 -27.994364226025546 2.2000000000000113
  endloop
endfacet
facet normal 0.12892236823802553 -0.9916546893792713 -3.726770931988792e-31
  outer loop
    vertex 34.999999999999986 -28.09571921521317 2.2000000000000113
    vertex 35.77960986672478 -27.994364226025546 6.800000000000021
    vertex 34.999999999999986 -28.09571921521317 6.800000000000021
  endloop
endfacet
facet normal 0.3781958418284404 -0.9257256101154799 4.863277786677437e-16
  outer loop
    vertex 36.50738822269427 -27.69703773425218 6.80000000000002
    vertex 35.77960986672478 -27.994364226025546 2.2000000000000113
    vertex 36.50738822269427 -27.69703773425218 2.2000000000000113
  endloop
endfacet
facet normal 0.3781958418284404 -0.9257256101154799 4.863277786677437e-16
  outer loop
    vertex 35.77960986672478 -27.994364226025546 2.2000000000000113
    vertex 36.50738822269427 -27.69703773425218 6.80000000000002
    vertex 35.77960986672478 -27.994364226025546 6.800000000000021
  endloop
endfacet
facet normal 0.6023253778161857 -0.7982506744366642 1.3583537948409949e-16
  outer loop
    vertex 37.13494951855229 -27.223507167056283 6.80000000000002
    vertex 36.50738822269427 -27.69703773425218 2.2000000000000113
    vertex 37.13494951855229 -27.223507167056283 2.2000000000000113
  endloop
endfacet
facet normal 0.6023253778161857 -0.7982506744366642 1.3583537948409949e-16
  outer loop
    vertex 36.50738822269427 -27.69703773425218 2.2000000000000113
    vertex 37.13494951855229 -27.223507167056283 6.80000000000002
    vertex 36.50738822269427 -27.69703773425218 6.80000000000002
  endloop
endfacet
facet normal -1.0 0.0 0.0
  outer loop
    vertex 15.888178868971563 -46.19571921521313 6.800000000000003
    vertex 15.888178868971563 -47.54501133916772 2.2
    vertex 15.888178868971563 -47.54501133916772 6.800000000000002
  endloop
endfacet
facet normal -1.0 0.0 0.0
  outer loop
    vertex 15.888178868971563 -47.54501133916772 2.2
    vertex 15.888178868971563 -46.19571921521313 6.800000000000003
    vertex 15.888178868971563 -46.19571921521313 2.1999999999999993
  endloop
endfacet
facet normal 0.0 -1.0 0.0
  outer loop
    vertex 15.888178868971563 -46.19571921521313 2.1999999999999993
    vertex 0.0 -46.19571921521313 6.800000000000002
    vertex 0.0 -46.19571921521313 2.199999999999999
  endloop
endfacet
facet normal 0.0 -1.0 0.0
  outer loop
    vertex 0.0 -46.19571921521313 6.800000000000002
    vertex 15.888178868971563 -46.19571921521313 2.1999999999999993
    vertex 15.888178868971563 -46.19571921521313 6.800000000000003
  endloop
endfacet
facet normal 0.9182109515156555 -0.3960917173038519 -5.683395077621593e-16
  outer loop
    vertex 37.93196673158086 -25.883384135646544 2.2000000000000086
    vertex 37.62057102676012 -26.60525468716328 6.8000000000000185
    vertex 37.62057102676012 -26.60525468716328 2.2000000000000086
  endloop
endfacet
facet normal 0.9182109515156555 -0.3960917173038519 -5.683395077621593e-16
  outer loop
    vertex 37.62057102676012 -26.60525468716328 6.8000000000000185
    vertex 37.93196673158086 -25.883384135646544 2.2000000000000086
    vertex 37.93196673158086 -25.883384135646544 6.800000000000018
  endloop
endfacet
facet normal 0.9889656817664458 -0.14814479500890068 -8.752056973147413e-16
  outer loop
    vertex 38.048433829583644 -25.105888287933713 2.200000000000006
    vertex 37.93196673158086 -25.883384135646544 6.800000000000018
    vertex 37.93196673158086 -25.883384135646544 2.2000000000000086
  endloop
endfacet
facet normal 0.9889656817664458 -0.14814479500890068 -8.752056973147413e-16
  outer loop
    vertex 37.93196673158086 -25.883384135646544 6.800000000000018
    vertex 38.048433829583644 -25.105888287933713 2.200000000000006
    vertex 38.048433829583644 -25.105888287933713 6.800000000000016
  endloop
endfacet
facet normal 0.7864099687218022 -0.6177049142551596 -2.236878865897667e-16
  outer loop
    vertex 37.62057102676012 -26.60525468716328 2.2000000000000086
    vertex 37.13494951855229 -27.223507167056283 6.80000000000002
    vertex 37.13494951855229 -27.223507167056283 2.2000000000000113
  endloop
endfacet
facet normal 0.7864099687218022 -0.6177049142551596 -2.236878865897667e-16
  outer loop
    vertex 37.13494951855229 -27.223507167056283 6.80000000000002
    vertex 37.62057102676012 -26.60525468716328 2.2000000000000086
    vertex 37.62057102676012 -26.60525468716328 6.8000000000000185
  endloop
endfacet
facet normal 0.4138383721750356 0.9103503730517809 -1.2848145839212564e-15
  outer loop
    vertex 35.89342109173042 -22.131535329882436 6.8000000000000105
    vertex 36.609111886730865 -22.456882934882856 2.200000000000003
    vertex 35.89342109173042 -22.131535329882436 2.2
  endloop
endfacet
facet normal 0.4138383721750356 0.9103503730517809 -1.2848145839212564e-15
  outer loop
    vertex 36.609111886730865 -22.456882934882856 2.200000000000003
    vertex 35.89342109173042 -22.131535329882436 6.8000000000000105
    vertex 36.609111886730865 -22.456882934882856 6.800000000000011
  endloop
endfacet
facet normal 0.16731141082776532 0.9859040986864913 -6.287786556560851e-32
  outer loop
    vertex 35.11833217094739 -21.999999999999993 6.8000000000000105
    vertex 35.89342109173042 -22.131535329882436 2.2
    vertex 35.11833217094739 -21.999999999999993 2.2
  endloop
endfacet
facet normal 0.16731141082776532 0.9859040986864913 -6.287786556560851e-32
  outer loop
    vertex 35.89342109173042 -22.131535329882436 2.2
    vertex 35.11833217094739 -21.999999999999993 6.8000000000000105
    vertex 35.89342109173042 -22.131535329882436 6.8000000000000105
  endloop
endfacet
facet normal 0.2975159102641938 -0.9547168601945124 -4.290977569357435e-15
  outer loop
    vertex 34.999999999999986 -43.760423069917586 2.200000000000006
    vertex 21.25092467823891 -48.04501133916772 6.800000000000004
    vertex 21.25092467823891 -48.04501133916772 2.2
  endloop
endfacet
facet normal 0.2975159102641938 -0.9547168601945124 -4.290977569357435e-15
  outer loop
    vertex 21.25092467823891 -48.04501133916772 6.800000000000004
    vertex 34.999999999999986 -43.760423069917586 2.200000000000006
    vertex 35.00000000000001 -43.76042306991762 6.8000000000000185
  endloop
endfacet
facet normal 3.222818837197568e-16 1.0 3.678217151149423e-15
  outer loop
    vertex 0.0 -41.095719215213144 6.800000000000004
    vertex 34.999999999999986 -41.09571921521314 2.200000000000023
    vertex 0.0 -41.095719215213144 2.199999999999994
  endloop
endfacet
facet normal 3.222818837197568e-16 1.0 3.678217151149423e-15
  outer loop
    vertex 34.999999999999986 -41.09571921521314 2.200000000000023
    vertex 0.0 -41.095719215213144 6.800000000000004
    vertex 35.00000000000001 -41.09571921521317 6.800000000000035
  endloop
endfacet
facet normal -2.0998381633188998e-17 2.2618131452285e-16 1.0
  outer loop
    vertex 34.999999999999986 -9.000000000000005 6.800000000000007
    vertex 0.0 -3.899999999999993 6.800000000000004
    vertex 0.0 -8.999999999999995 6.800000000000009
  endloop
endfacet
facet normal -2.0998381633188998e-17 2.2618131452285e-16 1.0
  outer loop
    vertex 0.0 -3.899999999999993 6.800000000000004
    vertex 34.999999999999986 -9.000000000000005 6.800000000000007
    vertex 15.888178868971568 -3.899999999999993 6.800000000000004
  endloop
endfacet
facet normal -2.0998381633188998e-17 2.2618131452285e-16 1.0
  outer loop
    vertex 15.888178868971568 -3.899999999999993 6.800000000000004
    vertex 34.999999999999986 -9.000000000000005 6.800000000000007
    vertex 15.888178868971568 -2.5614825709175175 6.800000000000004
  endloop
endfacet
facet normal -2.0998381633188998e-17 2.2618131452285e-16 1.0
  outer loop
    vertex 15.888178868971568 -2.5614825709175175 6.800000000000004
    vertex 34.999999999999986 -9.000000000000005 6.800000000000007
    vertex 16.38817886897157 -2.050707876045436 6.800000000000004
  endloop
endfacet
facet normal -2.0998381633188998e-17 2.2618131452285e-16 1.0
  outer loop
    vertex 16.38817886897157 -2.050707876045436 6.800000000000004
    vertex 34.999999999999986 -9.000000000000005 6.800000000000007
    vertex 21.25092467823889 -2.050707876045436 6.8000000000000105
  endloop
endfacet
facet normal -2.0998381633188998e-17 2.2618131452285e-16 1.0
  outer loop
    vertex 21.25092467823889 -2.050707876045436 6.8000000000000105
    vertex 34.999999999999986 -9.000000000000005 6.800000000000007
    vertex 35.00000000000001 -6.335296145295572 6.800000000000007
  endloop
endfacet
facet normal -2.0998381633188998e-17 2.2618131452285e-16 1.0
  outer loop
    vertex 35.00000000000001 -6.335296145295572 6.800000000000007
    vertex 34.999999999999986 -9.000000000000005 6.800000000000007
    vertex 35.248051018463705 -8.86578832940423 6.800000000000007
  endloop
endfacet
facet normal -2.0998381633188998e-17 2.2618131452285e-16 1.0
  outer loop
    vertex 35.00000000000001 -6.335296145295572 6.800000000000007
    vertex 35.248051018463705 -8.86578832940423 6.800000000000007
    vertex 35.248051018463705 -6.469507815891347 6.800000000000007
  endloop
endfacet
facet normal -2.0998381633188998e-17 2.2618131452285e-16 1.0
  outer loop
    vertex 35.248051018463705 -6.469507815891347 6.800000000000007
    vertex 35.248051018463705 -8.86578832940423 6.800000000000007
    vertex 35.46531870562551 -8.685963880564962 6.800000000000007
  endloop
endfacet
facet normal -2.0998381633188998e-17 2.2618131452285e-16 1.0
  outer loop
    vertex 35.248051018463705 -6.469507815891347 6.800000000000007
    vertex 35.46531870562551 -8.685963880564962 6.800000000000007
    vertex 35.46531870562551 -6.6493322647306154 6.800000000000007
  endloop
endfacet
facet normal -2.0998381633188998e-17 2.2618131452285e-16 1.0
  outer loop
    vertex 35.46531870562551 -6.6493322647306154 6.800000000000007
    vertex 35.46531870562551 -8.685963880564962 6.800000000000007
    vertex 35.64353175703832 -8.467372507013476 6.800000000000007
  endloop
endfacet
facet normal -2.0998381633188998e-17 2.2618131452285e-16 1.0
  outer loop
    vertex 35.46531870562551 -6.6493322647306154 6.800000000000007
    vertex 35.64353175703832 -8.467372507013476 6.800000000000007
    vertex 35.64353175703834 -6.867923638282101 6.800000000000007
  endloop
endfacet
facet normal -2.0998381633188998e-17 2.2618131452285e-16 1.0
  outer loop
    vertex 35.64353175703834 -6.867923638282101 6.800000000000007
    vertex 35.64353175703832 -8.467372507013476 6.800000000000007
    vertex 35.77590566450424 -8.21833590547226 6.800000000000007
  endloop
endfacet
facet normal -2.0998381633188998e-17 2.2618131452285e-16 1.0
  outer loop
    vertex 35.64353175703834 -6.867923638282101 6.800000000000007
    vertex 35.77590566450424 -8.21833590547226 6.800000000000007
    vertex 35.77590566450424 -7.116960239823317 6.800000000000007
  endloop
endfacet
facet normal -2.0998381633188998e-17 2.2618131452285e-16 1.0
  outer loop
    vertex 35.77590566450424 -7.116960239823317 6.800000000000007
    vertex 35.77590566450424 -8.21833590547226 6.800000000000007
    vertex 35.857400999915875 -7.948334811787179 6.800000000000007
  endloop
endfacet
facet normal -2.0998381633188998e-17 2.2618131452285e-16 1.0
  outer loop
    vertex 35.77590566450424 -7.116960239823317 6.800000000000007
    vertex 35.857400999915875 -7.948334811787179 6.800000000000007
    vertex 35.857400999915875 -7.386961333508388 6.800000000000007
  endloop
endfacet
facet normal -2.0998381633188998e-17 2.2618131452285e-16 1.0
  outer loop
    vertex 35.857400999915875 -7.386961333508388 6.800000000000007
    vertex 35.857400999915875 -7.948334811787179 6.800000000000007
    vertex 35.884915264512316 -7.667648072647789 6.800000000000007
  endloop
endfacet
facet normal -1.611409418598799e-16 -1.0 8.321581820263992e-33
  outer loop
    vertex 34.999999999999986 -9.000000000000005 2.2000000000000015
    vertex 0.0 -8.999999999999995 6.800000000000009
    vertex 0.0 -8.999999999999995 2.1999999999999993
  endloop
endfacet
facet normal -1.611409418598799e-16 -1.0 8.321581820263992e-33
  outer loop
    vertex 0.0 -8.999999999999995 6.800000000000009
    vertex 34.999999999999986 -9.000000000000005 2.2000000000000015
    vertex 34.999999999999986 -9.000000000000005 6.800000000000007
  endloop
endfacet
facet normal 2.1873629201156704e-16 -1.4405305610595956e-16 -1.0
  outer loop
    vertex 16.38817886897157 -2.050707876045436 2.2000000000000024
    vertex 15.888178868971568 -3.899999999999993 2.2000000000000024
    vertex 15.888178868971568 -2.5614825709175175 2.2000000000000024
  endloop
endfacet
facet normal 2.1873629201156704e-16 -1.4405305610595956e-16 -1.0
  outer loop
    vertex 15.888178868971568 -3.899999999999993 2.2000000000000024
    vertex 0.0 -8.999999999999995 2.1999999999999993
    vertex 0.0 -3.899999999999993 2.2
  endloop
endfacet
facet normal 2.1873629201156704e-16 -1.4405305610595956e-16 -1.0
  outer loop
    vertex 0.0 -8.999999999999995 2.1999999999999993
    vertex 15.888178868971568 -3.899999999999993 2.2000000000000024
    vertex 34.999999999999986 -9.000000000000005 2.2000000000000015
  endloop
endfacet
facet normal 2.1873629201156704e-16 -1.4405305610595956e-16 -1.0
  outer loop
    vertex 34.999999999999986 -9.000000000000005 2.2000000000000015
    vertex 15.888178868971568 -3.899999999999993 2.2000000000000024
    vertex 16.38817886897157 -2.050707876045436 2.2000000000000024
  endloop
endfacet
facet normal 2.1873629201156704e-16 -1.4405305610595956e-16 -1.0
  outer loop
    vertex 34.999999999999986 -9.000000000000005 2.2000000000000015
    vertex 16.38817886897157 -2.050707876045436 2.2000000000000024
    vertex 21.25092467823889 -2.050707876045436 2.2000000000000046
  endloop
endfacet
facet normal 2.1873629201156704e-16 -1.4405305610595956e-16 -1.0
  outer loop
    vertex 34.999999999999986 -9.000000000000005 2.2000000000000015
    vertex 21.25092467823889 -2.050707876045436 2.2000000000000046
    vertex 35.00000000000001 -6.335296145295572 2.2000000000000015
  endloop
endfacet
facet normal 2.1873629201156704e-16 -1.4405305610595956e-16 -1.0
  outer loop
    vertex 34.999999999999986 -9.000000000000005 2.2000000000000015
    vertex 35.00000000000001 -6.335296145295572 2.2000000000000015
    vertex 35.248051018463705 -8.86578832940423 2.2000000000000015
  endloop
endfacet
facet normal 2.1873629201156704e-16 -1.4405305610595956e-16 -1.0
  outer loop
    vertex 35.248051018463705 -8.86578832940423 2.2000000000000015
    vertex 35.00000000000001 -6.335296145295572 2.2000000000000015
    vertex 35.248051018463705 -6.469507815891347 2.2000000000000015
  endloop
endfacet
facet normal 2.1873629201156704e-16 -1.4405305610595956e-16 -1.0
  outer loop
    vertex 35.248051018463705 -8.86578832940423 2.2000000000000015
    vertex 35.248051018463705 -6.469507815891347 2.2000000000000015
    vertex 35.46531870562551 -6.6493322647306154 2.2000000000000015
  endloop
endfacet
facet normal 2.1873629201156704e-16 -1.4405305610595956e-16 -1.0
  outer loop
    vertex 35.248051018463705 -8.86578832940423 2.2000000000000015
    vertex 35.46531870562551 -6.6493322647306154 2.2000000000000015
    vertex 35.46531870562551 -8.685963880564962 2.2000000000000015
  endloop
endfacet
facet normal 2.1873629201156704e-16 -1.4405305610595956e-16 -1.0
  outer loop
    vertex 35.46531870562551 -8.685963880564962 2.2000000000000015
    vertex 35.46531870562551 -6.6493322647306154 2.2000000000000015
    vertex 35.64353175703834 -6.867923638282101 2.2000000000000015
  endloop
endfacet
facet normal 2.1873629201156704e-16 -1.4405305610595956e-16 -1.0
  outer loop
    vertex 35.46531870562551 -8.685963880564962 2.2000000000000015
    vertex 35.64353175703834 -6.867923638282101 2.2000000000000015
    vertex 35.64353175703832 -8.467372507013476 2.2000000000000015
  endloop
endfacet
facet normal 2.1873629201156704e-16 -1.4405305610595956e-16 -1.0
  outer loop
    vertex 35.64353175703832 -8.467372507013476 2.2000000000000015
    vertex 35.64353175703834 -6.867923638282101 2.2000000000000015
    vertex 35.77590566450424 -8.21833590547226 2.2000000000000015
  endloop
endfacet
facet normal 2.1873629201156704e-16 -1.4405305610595956e-16 -1.0
  outer loop
    vertex 35.77590566450424 -8.21833590547226 2.2000000000000015
    vertex 35.64353175703834 -6.867923638282101 2.2000000000000015
    vertex 35.77590566450424 -7.116960239823317 2.2000000000000015
  endloop
endfacet
facet normal 2.1873629201156704e-16 -1.4405305610595956e-16 -1.0
  outer loop
    vertex 35.77590566450424 -8.21833590547226 2.2000000000000015
    vertex 35.77590566450424 -7.116960239823317 2.2000000000000015
    vertex 35.857400999915875 -7.386961333508388 2.2000000000000015
  endloop
endfacet
facet normal 2.1873629201156704e-16 -1.4405305610595956e-16 -1.0
  outer loop
    vertex 35.77590566450424 -8.21833590547226 2.2000000000000015
    vertex 35.857400999915875 -7.386961333508388 2.2000000000000015
    vertex 35.857400999915875 -7.948334811787179 2.2000000000000015
  endloop
endfacet
facet normal 2.1873629201156704e-16 -1.4405305610595956e-16 -1.0
  outer loop
    vertex 35.857400999915875 -7.948334811787179 2.2000000000000015
    vertex 35.857400999915875 -7.386961333508388 2.2000000000000015
    vertex 35.884915264512316 -7.667648072647789 2.2000000000000015
  endloop
endfacet
facet normal 2.1873629201156704e-16 -1.4405305610595956e-16 -1.0
  outer loop
    vertex 35.11833217094739 -21.999999999999993 2.2
    vertex 0.0 -28.09571921521315 2.1999999999999993
    vertex 0.0 -21.999999999999993 2.1999999999999993
  endloop
endfacet
facet normal 2.1873629201156704e-16 -1.4405305610595956e-16 -1.0
  outer loop
    vertex 0.0 -28.09571921521315 2.1999999999999993
    vertex 35.11833217094739 -21.999999999999993 2.2
    vertex 34.999999999999986 -28.09571921521317 2.2000000000000113
  endloop
endfacet
facet normal 2.1873629201156704e-16 -1.4405305610595956e-16 -1.0
  outer loop
    vertex 34.999999999999986 -28.09571921521317 2.2000000000000113
    vertex 35.11833217094739 -21.999999999999993 2.2
    vertex 35.77960986672478 -27.994364226025546 2.2000000000000113
  endloop
endfacet
facet normal 2.1873629201156704e-16 -1.4405305610595956e-16 -1.0
  outer loop
    vertex 35.77960986672478 -27.994364226025546 2.2000000000000113
    vertex 35.11833217094739 -21.999999999999993 2.2
    vertex 35.89342109173042 -22.131535329882436 2.2
  endloop
endfacet
facet normal 2.1873629201156704e-16 -1.4405305610595956e-16 -1.0
  outer loop
    vertex 35.77960986672478 -27.994364226025546 2.2000000000000113
    vertex 35.89342109173042 -22.131535329882436 2.2
    vertex 36.50738822269427 -27.69703773425218 2.2000000000000113
  endloop
endfacet
facet normal 2.1873629201156704e-16 -1.4405305610595956e-16 -1.0
  outer loop
    vertex 36.50738822269427 -27.69703773425218 2.2000000000000113
    vertex 35.89342109173042 -22.131535329882436 2.2
    vertex 36.609111886730865 -22.456882934882856 2.200000000000003
  endloop
endfacet
facet normal 2.1873629201156704e-16 -1.4405305610595956e-16 -1.0
  outer loop
    vertex 36.50738822269427 -27.69703773425218 2.2000000000000113
    vertex 36.609111886730865 -22.456882934882856 2.200000000000003
    vertex 37.13494951855229 -27.223507167056283 2.2000000000000113
  endloop
endfacet
facet normal 2.1873629201156704e-16 -1.4405305610595956e-16 -1.0
  outer loop
    vertex 37.13494951855229 -27.223507167056283 2.2000000000000113
    vertex 36.609111886730865 -22.456882934882856 2.200000000000003
    vertex 37.21782263488557 -22.95441243472063 2.200000000000003
  endloop
endfacet
facet normal 2.1873629201156704e-16 -1.4405305610595956e-16 -1.0
  outer loop
    vertex 37.13494951855229 -27.223507167056283 2.2000000000000113
    vertex 37.21782263488557 -22.95441243472063 2.200000000000003
    vertex 37.62057102676012 -26.60525468716328 2.2000000000000086
  endloop
endfacet
facet normal 2.1873629201156704e-16 -1.4405305610595956e-16 -1.0
  outer loop
    vertex 37.62057102676012 -26.60525468716328 2.2000000000000086
    vertex 37.21782263488557 -22.95441243472063 2.200000000000003
    vertex 37.67908386673745 -23.59104612383735 2.200000000000003
  endloop
endfacet
facet normal 2.1873629201156704e-16 -1.4405305610595956e-16 -1.0
  outer loop
    vertex 37.62057102676012 -26.60525468716328 2.2000000000000086
    vertex 37.67908386673745 -23.59104612383735 2.200000000000003
    vertex 37.93196673158086 -25.883384135646544 2.2000000000000086
  endloop
endfacet
facet normal 2.1873629201156704e-16 -1.4405305610595956e-16 -1.0
  outer loop
    vertex 37.93196673158086 -25.883384135646544 2.2000000000000086
    vertex 37.67908386673745 -23.59104612383735 2.200000000000003
    vertex 37.96222913292489 -24.324458106534344 2.200000000000006
  endloop
endfacet
facet normal 2.1873629201156704e-16 -1.4405305610595956e-16 -1.0
  outer loop
    vertex 37.93196673158086 -25.883384135646544 2.2000000000000086
    vertex 37.96222913292489 -24.324458106534344 2.200000000000006
    vertex 38.048433829583644 -25.105888287933713 2.200000000000006
  endloop
endfacet
facet normal 2.1873629201156704e-16 -1.4405305610595956e-16 -1.0
  outer loop
    vertex 34.999999999999986 -41.09571921521314 2.200000000000023
    vertex 0.0 -46.19571921521313 2.199999999999999
    vertex 0.0 -41.095719215213144 2.199999999999994
  endloop
endfacet
facet normal 2.1873629201156704e-16 -1.4405305610595956e-16 -1.0
  outer loop
    vertex 0.0 -46.19571921521313 2.199999999999999
    vertex 34.999999999999986 -41.09571921521314 2.200000000000023
    vertex 15.888178868971563 -46.19571921521313 2.1999999999999993
  endloop
endfacet
facet normal 2.1873629201156704e-16 -1.4405305610595956e-16 -1.0
  outer loop
    vertex 15.888178868971563 -46.19571921521313 2.1999999999999993
    vertex 34.999999999999986 -41.09571921521314 2.200000000000023
    vertex 15.888178868971563 -47.54501133916772 2.2
  endloop
endfacet
facet normal 2.1873629201156704e-16 -1.4405305610595956e-16 -1.0
  outer loop
    vertex 15.888178868971563 -47.54501133916772 2.2
    vertex 34.999999999999986 -41.09571921521314 2.200000000000023
    vertex 16.38817886897156 -48.04501133916772 2.2
  endloop
endfacet
facet normal 2.1873629201156704e-16 -1.4405305610595956e-16 -1.0
  outer loop
    vertex 16.38817886897156 -48.04501133916772 2.2
    vertex 34.999999999999986 -41.09571921521314 2.200000000000023
    vertex 21.25092467823891 -48.04501133916772 2.2
  endloop
endfacet
facet normal 2.1873629201156704e-16 -1.4405305610595956e-16 -1.0
  outer loop
    vertex 21.25092467823891 -48.04501133916772 2.2
    vertex 34.999999999999986 -41.09571921521314 2.200000000000023
    vertex 34.999999999999986 -43.760423069917586 2.200000000000006
  endloop
endfacet
facet normal 2.1873629201156704e-16 -1.4405305610595956e-16 -1.0
  outer loop
    vertex 34.999999999999986 -43.760423069917586 2.200000000000006
    vertex 34.999999999999986 -41.09571921521314 2.200000000000023
    vertex 35.248051018463684 -41.22993088580891 2.2000000000000215
  endloop
endfacet
facet normal 2.1873629201156704e-16 -1.4405305610595956e-16 -1.0
  outer loop
    vertex 34.999999999999986 -43.760423069917586 2.200000000000006
    vertex 35.248051018463684 -41.22993088580891 2.2000000000000215
    vertex 35.248051018463684 -43.626211399321804 2.200000000000006
  endloop
endfacet
facet normal 2.1873629201156704e-16 -1.4405305610595956e-16 -1.0
  outer loop
    vertex 35.248051018463684 -43.626211399321804 2.200000000000006
    vertex 35.248051018463684 -41.22993088580891 2.2000000000000215
    vertex 35.46531870562551 -41.40975533464818 2.2000000000000197
  endloop
endfacet
facet normal 2.1873629201156704e-16 -1.4405305610595956e-16 -1.0
  outer loop
    vertex 35.248051018463684 -43.626211399321804 2.200000000000006
    vertex 35.46531870562551 -41.40975533464818 2.2000000000000197
    vertex 35.46531870562551 -43.44638695048254 2.2000000000000073
  endloop
endfacet
facet normal 2.1873629201156704e-16 -1.4405305610595956e-16 -1.0
  outer loop
    vertex 35.46531870562551 -43.44638695048254 2.2000000000000073
    vertex 35.46531870562551 -41.40975533464818 2.2000000000000197
    vertex 35.64353175703832 -41.62834670819967 2.2000000000000184
  endloop
endfacet
facet normal 2.1873629201156704e-16 -1.4405305610595956e-16 -1.0
  outer loop
    vertex 35.46531870562551 -43.44638695048254 2.2000000000000073
    vertex 35.64353175703832 -41.62834670819967 2.2000000000000184
    vertex 35.64353175703832 -43.22779557693105 2.2000000000000086
  endloop
endfacet
facet normal 2.1873629201156704e-16 -1.4405305610595956e-16 -1.0
  outer loop
    vertex 35.64353175703832 -43.22779557693105 2.2000000000000086
    vertex 35.64353175703832 -41.62834670819967 2.2000000000000184
    vertex 35.77590566450422 -41.877383309740885 2.200000000000017
  endloop
endfacet
facet normal 2.1873629201156704e-16 -1.4405305610595956e-16 -1.0
  outer loop
    vertex 35.64353175703832 -43.22779557693105 2.2000000000000086
    vertex 35.77590566450422 -41.877383309740885 2.200000000000017
    vertex 35.77590566450422 -42.97875897538984 2.20000000000001
  endloop
endfacet
facet normal 2.1873629201156704e-16 -1.4405305610595956e-16 -1.0
  outer loop
    vertex 35.77590566450422 -42.97875897538984 2.20000000000001
    vertex 35.77590566450422 -41.877383309740885 2.200000000000017
    vertex 35.85740099991585 -42.14738440342596 2.2000000000000157
  endloop
endfacet
facet normal 2.1873629201156704e-16 -1.4405305610595956e-16 -1.0
  outer loop
    vertex 35.77590566450422 -42.97875897538984 2.20000000000001
    vertex 35.85740099991585 -42.14738440342596 2.2000000000000157
    vertex 35.85740099991585 -42.708757881704756 2.2000000000000113
  endloop
endfacet
facet normal 2.1873629201156704e-16 -1.4405305610595956e-16 -1.0
  outer loop
    vertex 35.85740099991585 -42.708757881704756 2.2000000000000113
    vertex 35.85740099991585 -42.14738440342596 2.2000000000000157
    vertex 35.884915264512294 -42.428071142565365 2.200000000000013
  endloop
endfacet
facet normal 2.1873629201156704e-16 -1.4405305610595956e-16 -1.0
  outer loop
    vertex 0.0 0.0 2.1999999999999993
    vertex -4.999999999999999 -50.0 2.1999999999999993
    vertex -4.999999999999999 0.0 2.1999999999999993
  endloop
endfacet
facet normal 2.1873629201156704e-16 -1.4405305610595956e-16 -1.0
  outer loop
    vertex -4.999999999999999 -50.0 2.1999999999999993
    vertex 0.0 0.0 2.1999999999999993
    vertex 0.0 -50.0 2.1999999999999993
  endloop
endfacet
facet normal 2.1873629201156704e-16 -1.4405305610595956e-16 -1.0
  outer loop
    vertex 0.0 -50.0 2.1999999999999993
    vertex 0.0 0.0 2.1999999999999993
    vertex 0.0 -3.899999999999993 2.2
  endloop
endfacet
facet normal 2.1873629201156704e-16 -1.4405305610595956e-16 -1.0
  outer loop
    vertex 0.0 -50.0 2.1999999999999993
    vertex 0.0 -3.899999999999993 2.2
    vertex 0.0 -8.999999999999995 2.1999999999999993
  endloop
endfacet
facet normal 2.1873629201156704e-16 -1.4405305610595956e-16 -1.0
  outer loop
    vertex 0.0 -50.0 2.1999999999999993
    vertex 0.0 -8.999999999999995 2.1999999999999993
    vertex 0.0 -21.999999999999993 2.1999999999999993
  endloop
endfacet
facet normal 2.1873629201156704e-16 -1.4405305610595956e-16 -1.0
  outer loop
    vertex 0.0 -50.0 2.1999999999999993
    vertex 0.0 -21.999999999999993 2.1999999999999993
    vertex 0.0 -28.09571921521315 2.1999999999999993
  endloop
endfacet
facet normal 2.1873629201156704e-16 -1.4405305610595956e-16 -1.0
  outer loop
    vertex 0.0 -50.0 2.1999999999999993
    vertex 0.0 -28.09571921521315 2.1999999999999993
    vertex 0.0 -41.095719215213144 2.199999999999994
  endloop
endfacet
facet normal 2.1873629201156704e-16 -1.4405305610595956e-16 -1.0
  outer loop
    vertex 0.0 -50.0 2.1999999999999993
    vertex 0.0 -41.095719215213144 2.199999999999994
    vertex 0.0 -46.19571921521313 2.199999999999999
  endloop
endfacet
facet normal 0.47587381652569144 0.8795135648443817 4.136545584764666e-15
  outer loop
    vertex 34.999999999999986 -41.09571921521314 2.200000000000023
    vertex 35.248051018463705 -41.22993088580895 6.8000000000000345
    vertex 35.248051018463684 -41.22993088580891 2.2000000000000215
  endloop
endfacet
facet normal 0.47587381652569144 0.8795135648443817 4.136545584764666e-15
  outer loop
    vertex 35.248051018463705 -41.22993088580895 6.8000000000000345
    vertex 34.999999999999986 -41.09571921521314 2.200000000000023
    vertex 35.00000000000001 -41.09571921521317 6.800000000000035
  endloop
endfacet
facet normal 0.6376028730877418 0.7703652226251241 2.5412053278256893e-15
  outer loop
    vertex 35.248051018463684 -41.22993088580891 2.2000000000000215
    vertex 35.465318705625535 -41.40975533464822 6.800000000000033
    vertex 35.46531870562551 -41.40975533464818 2.2000000000000197
  endloop
endfacet
facet normal 0.6376028730877418 0.7703652226251241 2.5412053278256893e-15
  outer loop
    vertex 35.465318705625535 -41.40975533464822 6.800000000000033
    vertex 35.248051018463684 -41.22993088580891 2.2000000000000215
    vertex 35.248051018463705 -41.22993088580895 6.8000000000000345
  endloop
endfacet
facet normal 0.7750586124871127 0.6318893472828545 8.473787434029561e-16
  outer loop
    vertex 35.64353175703832 -41.62834670819967 2.2000000000000184
    vertex 35.465318705625535 -41.40975533464822 6.800000000000033
    vertex 35.64353175703834 -41.6283467081997 6.800000000000031
  endloop
endfacet
facet normal 0.7750586124871127 0.6318893472828545 8.473787434029561e-16
  outer loop
    vertex 35.465318705625535 -41.40975533464822 6.800000000000033
    vertex 35.64353175703832 -41.62834670819967 2.2000000000000184
    vertex 35.46531870562551 -41.40975533464818 2.2000000000000197
  endloop
endfacet
facet normal 0.8830081430618824 0.4693576666960989 -8.785234479110413e-16
  outer loop
    vertex 35.77590566450422 -41.877383309740885 2.200000000000017
    vertex 35.64353175703834 -41.6283467081997 6.800000000000031
    vertex 35.77590566450424 -41.87738330974092 6.80000000000003
  endloop
endfacet
facet normal 0.8830081430618824 0.4693576666960989 -8.785234479110413e-16
  outer loop
    vertex 35.64353175703834 -41.6283467081997 6.800000000000031
    vertex 35.77590566450422 -41.877383309740885 2.200000000000017
    vertex 35.64353175703832 -41.62834670819967 2.2000000000000184
  endloop
endfacet
facet normal 0.9573418641439144 0.2889577047899138 -2.5699719046106994e-15
  outer loop
    vertex 35.85740099991585 -42.14738440342596 2.2000000000000157
    vertex 35.77590566450424 -41.87738330974092 6.80000000000003
    vertex 35.857400999915875 -42.147384403425995 6.800000000000028
  endloop
endfacet
facet normal 0.9573418641439144 0.2889577047899138 -2.5699719046106994e-15
  outer loop
    vertex 35.77590566450424 -41.87738330974092 6.80000000000003
    vertex 35.85740099991585 -42.14738440342596 2.2000000000000157
    vertex 35.77590566450422 -41.877383309740885 2.200000000000017
  endloop
endfacet
facet normal 0.9952299171114102 0.09755722467565309 -4.162661397743406e-15
  outer loop
    vertex 35.884915264512294 -42.428071142565365 2.200000000000013
    vertex 35.857400999915875 -42.147384403425995 6.800000000000028
    vertex 35.884915264512316 -42.42807114256539 6.800000000000026
  endloop
endfacet
facet normal 0.9952299171114102 0.09755722467565309 -4.162661397743406e-15
  outer loop
    vertex 35.857400999915875 -42.147384403425995 6.800000000000028
    vertex 35.884915264512294 -42.428071142565365 2.200000000000013
    vertex 35.85740099991585 -42.14738440342596 2.2000000000000157
  endloop
endfacet
facet normal 0.99522991711141 -0.09755722467565499 -5.5982678856285625e-15
  outer loop
    vertex 35.85740099991585 -42.708757881704756 2.2000000000000113
    vertex 35.884915264512316 -42.42807114256539 6.800000000000026
    vertex 35.857400999915875 -42.70875788170479 6.800000000000024
  endloop
endfacet
facet normal 0.99522991711141 -0.09755722467565499 -5.5982678856285625e-15
  outer loop
    vertex 35.884915264512316 -42.42807114256539 6.800000000000026
    vertex 35.85740099991585 -42.708757881704756 2.2000000000000113
    vertex 35.884915264512294 -42.428071142565365 2.200000000000013
  endloop
endfacet
facet normal 0.9573418641439144 -0.2889577047899138 -6.8196183365207145e-15
  outer loop
    vertex 35.77590566450422 -42.97875897538984 2.20000000000001
    vertex 35.857400999915875 -42.70875788170479 6.800000000000024
    vertex 35.77590566450424 -42.978758975389866 6.800000000000023
  endloop
endfacet
facet normal 0.9573418641439144 -0.2889577047899138 -6.8196183365207145e-15
  outer loop
    vertex 35.857400999915875 -42.70875788170479 6.800000000000024
    vertex 35.77590566450422 -42.97875897538984 2.20000000000001
    vertex 35.85740099991585 -42.708757881704756 2.2000000000000113
  endloop
endfacet
facet normal 0.8830081430618824 -0.4693576666960989 -7.783462588993752e-15
  outer loop
    vertex 35.64353175703832 -43.22779557693105 2.2000000000000086
    vertex 35.77590566450424 -42.978758975389866 6.800000000000023
    vertex 35.64353175703834 -43.227795576931086 6.800000000000021
  endloop
endfacet
facet normal 0.8830081430618824 -0.4693576666960989 -7.783462588993752e-15
  outer loop
    vertex 35.77590566450424 -42.978758975389866 6.800000000000023
    vertex 35.64353175703832 -43.22779557693105 2.2000000000000086
    vertex 35.77590566450422 -42.97875897538984 2.20000000000001
  endloop
endfacet
facet normal 0.7750586124871401 -0.6318893472828205 -8.449138424748859e-15
  outer loop
    vertex 35.46531870562551 -43.44638695048254 2.2000000000000073
    vertex 35.64353175703834 -43.227795576931086 6.800000000000021
    vertex 35.465318705625535 -43.44638695048258 6.80000000000002
  endloop
endfacet
facet normal 0.7750586124871401 -0.6318893472828205 -8.449138424748859e-15
  outer loop
    vertex 35.64353175703834 -43.227795576931086 6.800000000000021
    vertex 35.46531870562551 -43.44638695048254 2.2000000000000073
    vertex 35.64353175703832 -43.22779557693105 2.2000000000000086
  endloop
endfacet
facet normal 0.6376028730877104 -0.7703652226251502 -8.794801811058624e-15
  outer loop
    vertex 35.46531870562551 -43.44638695048254 2.2000000000000073
    vertex 35.248051018463705 -43.62621139932184 6.8000000000000185
    vertex 35.248051018463684 -43.626211399321804 2.200000000000006
  endloop
endfacet
facet normal 0.6376028730877104 -0.7703652226251502 -8.794801811058624e-15
  outer loop
    vertex 35.248051018463705 -43.62621139932184 6.8000000000000185
    vertex 35.46531870562551 -43.44638695048254 2.2000000000000073
    vertex 35.465318705625535 -43.44638695048258 6.80000000000002
  endloop
endfacet
facet normal 0.47587381652572375 -0.8795135648443643 -8.804882783413937e-15
  outer loop
    vertex 35.248051018463705 -43.62621139932184 6.8000000000000185
    vertex 34.999999999999986 -43.760423069917586 2.200000000000006
    vertex 35.248051018463684 -43.626211399321804 2.200000000000006
  endloop
endfacet
facet normal 0.47587381652572375 -0.8795135648443643 -8.804882783413937e-15
  outer loop
    vertex 34.999999999999986 -43.760423069917586 2.200000000000006
    vertex 35.248051018463705 -43.62621139932184 6.8000000000000185
    vertex 35.00000000000001 -43.76042306991762 6.8000000000000185
  endloop
endfacet
facet normal 1.0 0.0 0.0
  outer loop
    vertex 0.0 -28.09571921521315 2.1999999999999993
    vertex 0.0 -41.095719215213144 6.800000000000004
    vertex 0.0 -41.095719215213144 2.199999999999994
  endloop
endfacet
facet normal 1.0 0.0 0.0
  outer loop
    vertex 0.0 -8.999999999999995 2.1999999999999993
    vertex 0.0 -21.999999999999993 6.8000000000000105
    vertex 0.0 -21.999999999999993 2.1999999999999993
  endloop
endfacet
facet normal 1.0 0.0 0.0
  outer loop
    vertex 0.0 0.0 2.1999999999999993
    vertex 0.0 -3.899999999999993 6.800000000000004
    vertex 0.0 -3.899999999999993 2.2
  endloop
endfacet
facet normal 1.0 0.0 0.0
  outer loop
    vertex 0.0 -3.899999999999993 6.800000000000004
    vertex 0.0 0.0 2.1999999999999993
    vertex 0.0 -0.9999999999999981 9.0
  endloop
endfacet
facet normal 1.0 0.0 0.0
  outer loop
    vertex 0.0 -0.9999999999999981 9.0
    vertex 0.0 0.0 2.1999999999999993
    vertex 0.0 0.0 8.000000000000002
  endloop
endfacet
facet normal 1.0 0.0 0.0
  outer loop
    vertex 0.0 -46.19571921521313 2.199999999999999
    vertex 0.0 -50.0 7.9999999999999964
    vertex 0.0 -50.0 2.1999999999999993
  endloop
endfacet
facet normal 1.0 0.0 0.0
  outer loop
    vertex 0.0 -50.0 7.9999999999999964
    vertex 0.0 -46.19571921521313 2.199999999999999
    vertex 0.0 -48.99999999999999 9.0
  endloop
endfacet
facet normal 1.0 0.0 0.0
  outer loop
    vertex 0.0 -48.99999999999999 9.0
    vertex 0.0 -46.19571921521313 2.199999999999999
    vertex 0.0 -46.19571921521313 6.800000000000002
  endloop
endfacet
facet normal 1.0 0.0 0.0
  outer loop
    vertex 0.0 -48.99999999999999 9.0
    vertex 0.0 -46.19571921521313 6.800000000000002
    vertex 0.0 -0.9999999999999981 9.0
  endloop
endfacet
facet normal 1.0 0.0 0.0
  outer loop
    vertex 0.0 -0.9999999999999981 9.0
    vertex 0.0 -46.19571921521313 6.800000000000002
    vertex 0.0 -41.095719215213144 6.800000000000004
  endloop
endfacet
facet normal 1.0 0.0 0.0
  outer loop
    vertex 0.0 -0.9999999999999981 9.0
    vertex 0.0 -41.095719215213144 6.800000000000004
    vertex 0.0 -28.09571921521315 6.8000000000000105
  endloop
endfacet
facet normal 1.0 0.0 0.0
  outer loop
    vertex 0.0 -28.09571921521315 6.8000000000000105
    vertex 0.0 -41.095719215213144 6.800000000000004
    vertex 0.0 -28.09571921521315 2.1999999999999993
  endloop
endfacet
facet normal 1.0 0.0 0.0
  outer loop
    vertex 0.0 -0.9999999999999981 9.0
    vertex 0.0 -28.09571921521315 6.8000000000000105
    vertex 0.0 -21.999999999999993 6.8000000000000105
  endloop
endfacet
facet normal 1.0 0.0 0.0
  outer loop
    vertex 0.0 -0.9999999999999981 9.0
    vertex 0.0 -21.999999999999993 6.8000000000000105
    vertex 0.0 -8.999999999999995 6.800000000000009
  endloop
endfacet
facet normal 1.0 0.0 0.0
  outer loop
    vertex 0.0 -8.999999999999995 6.800000000000009
    vertex 0.0 -21.999999999999993 6.8000000000000105
    vertex 0.0 -8.999999999999995 2.1999999999999993
  endloop
endfacet
facet normal 1.0 0.0 0.0
  outer loop
    vertex 0.0 -0.9999999999999981 9.0
    vertex 0.0 -8.999999999999995 6.800000000000009
    vertex 0.0 -3.899999999999993 6.800000000000004
  endloop
endfacet
facet normal -1.0 0.0 0.0
  outer loop
    vertex 15.888178868971568 -2.5614825709175175 6.800000000000004
    vertex 15.888178868971568 -3.899999999999993 2.2000000000000024
    vertex 15.888178868971568 -3.899999999999993 6.800000000000004
  endloop
endfacet
facet normal -1.0 0.0 0.0
  outer loop
    vertex 15.888178868971568 -3.899999999999993 2.2000000000000024
    vertex 15.888178868971568 -2.5614825709175175 6.800000000000004
    vertex 15.888178868971568 -2.5614825709175175 2.2000000000000024
  endloop
endfacet
facet normal 0.0 1.0 0.0
  outer loop
    vertex 0.0 -3.899999999999993 6.800000000000004
    vertex 15.888178868971568 -3.899999999999993 2.2000000000000024
    vertex 0.0 -3.899999999999993 2.2
  endloop
endfacet
facet normal 0.0 1.0 0.0
  outer loop
    vertex 15.888178868971568 -3.899999999999993 2.2000000000000024
    vertex 0.0 -3.899999999999993 6.800000000000004
    vertex 15.888178868971568 -3.899999999999993 6.800000000000004
  endloop
endfacet
facet normal -0.7146038253490757 0.6995293938044831 0.0
  outer loop
    vertex 16.38817886897157 -2.050707876045436 6.800000000000004
    vertex 15.888178868971568 -2.5614825709175175 2.2000000000000024
    vertex 15.888178868971568 -2.5614825709175175 6.800000000000004
  endloop
endfacet
facet normal -0.7146038253490757 0.6995293938044831 0.0
  outer loop
    vertex 15.888178868971568 -2.5614825709175175 2.2000000000000024
    vertex 16.38817886897157 -2.050707876045436 6.800000000000004
    vertex 16.38817886897157 -2.050707876045436 2.2000000000000024
  endloop
endfacet
facet normal 0.0 1.0 0.0
  outer loop
    vertex -4.999999999999999 0.0 8.000000000000002
    vertex 0.0 0.0 2.1999999999999993
    vertex -4.999999999999999 0.0 2.1999999999999993
  endloop
endfacet
facet normal 0.0 1.0 0.0
  outer loop
    vertex 0.0 0.0 2.1999999999999993
    vertex -4.999999999999999 0.0 8.000000000000002
    vertex 0.0 0.0 8.000000000000002
  endloop
endfacet
facet normal 0.0 0.7071067811865476 0.7071067811865476
  outer loop
    vertex -4.999999999999999 -0.9999999999999981 9.0
    vertex 0.0 0.0 8.000000000000002
    vertex -4.999999999999999 0.0 8.000000000000002
  endloop
endfacet
facet normal 0.0 0.7071067811865476 0.7071067811865476
  outer loop
    vertex 0.0 0.0 8.000000000000002
    vertex -4.999999999999999 -0.9999999999999981 9.0
    vertex 0.0 -0.9999999999999981 9.0
  endloop
endfacet
facet normal 0.0 0.0 1.0
  outer loop
    vertex 0.0 -48.99999999999999 9.0
    vertex -4.999999999999999 -0.9999999999999981 9.0
    vertex -4.999999999999999 -48.99999999999999 9.0
  endloop
endfacet
facet normal 0.0 0.0 1.0
  outer loop
    vertex -4.999999999999999 -0.9999999999999981 9.0
    vertex 0.0 -48.99999999999999 9.0
    vertex 0.0 -0.9999999999999981 9.0
  endloop
endfacet
facet normal 0.0 -0.7071067811865476 0.7071067811865476
  outer loop
    vertex 0.0 -48.99999999999999 9.0
    vertex -4.999999999999999 -50.0 7.9999999999999964
    vertex 0.0 -50.0 7.9999999999999964
  endloop
endfacet
facet normal 0.0 -0.7071067811865476 0.7071067811865476
  outer loop
    vertex -4.999999999999999 -50.0 7.9999999999999964
    vertex 0.0 -48.99999999999999 9.0
    vertex -4.999999999999999 -48.99999999999999 9.0
  endloop
endfacet
facet normal 0.0 -1.0 0.0
  outer loop
    vertex 0.0 -50.0 7.9999999999999964
    vertex -4.999999999999999 -50.0 2.1999999999999993
    vertex 0.0 -50.0 2.1999999999999993
  endloop
endfacet
facet normal 0.0 -1.0 0.0
  outer loop
    vertex -4.999999999999999 -50.0 2.1999999999999993
    vertex 0.0 -50.0 7.9999999999999964
    vertex -4.999999999999999 -50.0 7.9999999999999964
  endloop
endfacet
facet normal -1.0 0.0 0.0
  outer loop
    vertex -4.999999999999999 -48.99999999999999 9.0
    vertex -4.999999999999999 -50.0 2.1999999999999993
    vertex -4.999999999999999 -50.0 7.9999999999999964
  endloop
endfacet
facet normal -1.0 0.0 0.0
  outer loop
    vertex -4.999999999999999 -50.0 2.1999999999999993
    vertex -4.999999999999999 -48.99999999999999 9.0
    vertex -4.999999999999999 0.0 2.1999999999999993
  endloop
endfacet
facet normal -1.0 0.0 0.0
  outer loop
    vertex -4.999999999999999 0.0 2.1999999999999993
    vertex -4.999999999999999 -48.99999999999999 9.0
    vertex -4.999999999999999 -0.9999999999999981 9.0
  endloop
endfacet
facet normal -1.0 0.0 0.0
  outer loop
    vertex -4.999999999999999 0.0 2.1999999999999993
    vertex -4.999999999999999 -0.9999999999999981 9.0
    vertex -4.999999999999999 0.0 8.000000000000002
  endloop
endfacet
endsolid clips-50х50-exp
