solid Держатель-Моб-Тел-Ползунок
facet normal 1.662693559525556e-16 4.440892098500626e-16 1.0
  outer loop
    vertex 5.000000000000002 3.5 19.999999999999996
    vertex 3.000000000000002 6.000000000000013 19.999999999999996
    vertex 3.0000000000000018 1.0000000000000053 19.999999999999993
  endloop
endfacet
facet normal 1.662693559525556e-16 4.440892098500626e-16 1.0
  outer loop
    vertex 15.999999999999998 3.4274666438349722e-15 19.99999999999999
    vertex 12.999999999999998 1.0000000000000029 19.999999999999993
    vertex 12.999999999999998 4.484954074790435e-15 19.999999999999993
  endloop
endfacet
facet normal 1.662693559525556e-16 4.440892098500626e-16 1.0
  outer loop
    vertex 12.999999999999998 1.0000000000000029 19.999999999999993
    vertex 15.999999999999998 3.4274666438349722e-15 19.99999999999999
    vertex 12.999999999999998 6.000000000000011 20.000000000000004
  endloop
endfacet
facet normal 1.662693559525556e-16 4.440892098500626e-16 1.0
  outer loop
    vertex 12.999999999999998 6.000000000000011 20.000000000000004
    vertex 15.999999999999998 3.4274666438349722e-15 19.99999999999999
    vertex 12.999999999999998 7.000000000000008 20.000000000000007
  endloop
endfacet
facet normal 1.662693559525556e-16 4.440892098500626e-16 1.0
  outer loop
    vertex 3.0000000000000018 5.938999292354195e-15 19.999999999999993
    vertex 1.8930829780343683e-15 10.000000000000009 19.999999999999993
    vertex 1.0111001508117848e-15 7.348982533628143e-15 19.999999999999993
  endloop
endfacet
facet normal 1.662693559525556e-16 4.440892098500626e-16 1.0
  outer loop
    vertex 1.8930829780343683e-15 10.000000000000009 19.999999999999993
    vertex 3.0000000000000018 5.938999292354195e-15 19.999999999999993
    vertex 3.0000000000000018 1.0000000000000053 19.999999999999993
  endloop
endfacet
facet normal 1.662693559525556e-16 4.440892098500626e-16 1.0
  outer loop
    vertex 1.8930829780343683e-15 10.000000000000009 19.999999999999993
    vertex 3.0000000000000018 1.0000000000000053 19.999999999999993
    vertex 3.000000000000002 7.0000000000000115 19.999999999999993
  endloop
endfacet
facet normal 1.662693559525556e-16 4.440892098500626e-16 1.0
  outer loop
    vertex 1.8930829780343683e-15 10.000000000000009 19.999999999999993
    vertex 3.000000000000002 7.0000000000000115 19.999999999999993
    vertex 15.999999999999998 10.000000000000004 19.999999999999993
  endloop
endfacet
facet normal 1.662693559525556e-16 4.440892098500626e-16 1.0
  outer loop
    vertex 3.000000000000002 7.0000000000000115 19.999999999999993
    vertex 3.0000000000000018 1.0000000000000053 19.999999999999993
    vertex 3.000000000000002 6.000000000000013 19.999999999999996
  endloop
endfacet
facet normal 1.662693559525556e-16 4.440892098500626e-16 1.0
  outer loop
    vertex 15.999999999999998 10.000000000000004 19.999999999999993
    vertex 3.000000000000002 7.0000000000000115 19.999999999999993
    vertex 12.999999999999998 7.000000000000008 20.000000000000007
  endloop
endfacet
facet normal 1.662693559525556e-16 4.440892098500626e-16 1.0
  outer loop
    vertex 15.999999999999998 10.000000000000004 19.999999999999993
    vertex 12.999999999999998 7.000000000000008 20.000000000000007
    vertex 15.999999999999998 3.4274666438349722e-15 19.99999999999999
  endloop
endfacet
facet normal 1.662693559525556e-16 4.440892098500626e-16 1.0
  outer loop
    vertex 12.999999999999998 6.000000000000011 20.000000000000004
    vertex 10.999999999999991 3.5000000000000013 20.000000000000004
    vertex 12.999999999999998 1.0000000000000029 19.999999999999993
  endloop
endfacet
facet normal -4.996762996384899e-18 -1.6653345369377348e-16 -1.0
  outer loop
    vertex 1.8431153480705203e-15 10.0 10.000000000000004
    vertex 3.0000000000000075 7.0000000000000115 9.999999999999977
    vertex 3.0000000000000067 0.9999999999999959 9.99999999999999
  endloop
endfacet
facet normal -4.996762996384899e-18 -1.6653345369377348e-16 -1.0
  outer loop
    vertex 3.0000000000000075 7.0000000000000115 9.999999999999977
    vertex 1.8431153480705203e-15 10.0 10.000000000000004
    vertex 16.0 10.0 10.000000000000002
  endloop
endfacet
facet normal -4.996762996384899e-18 -1.6653345369377348e-16 -1.0
  outer loop
    vertex 3.0000000000000075 7.0000000000000115 9.999999999999977
    vertex 16.0 10.0 10.000000000000002
    vertex 12.999999999999988 7.000000000000008 9.999999999999986
  endloop
endfacet
facet normal -4.996762996384899e-18 -1.6653345369377348e-16 -1.0
  outer loop
    vertex 12.999999999999988 7.000000000000008 9.999999999999986
    vertex 16.0 10.0 10.000000000000002
    vertex 12.999999999999988 6.000000000000009 9.99999999999999
  endloop
endfacet
facet normal -4.996762996384899e-18 -1.6653345369377348e-16 -1.0
  outer loop
    vertex 12.999999999999988 6.000000000000009 9.99999999999999
    vertex 16.0 10.0 10.000000000000002
    vertex 12.999999999999988 0.9999999999999948 9.999999999999988
  endloop
endfacet
facet normal -4.996762996384899e-18 -1.6653345369377348e-16 -1.0
  outer loop
    vertex 12.999999999999988 0.9999999999999948 9.999999999999988
    vertex 16.0 10.0 10.000000000000002
    vertex 12.999999999999988 -2.450123437469645e-15 9.99999999999999
  endloop
endfacet
facet normal -4.996762996384899e-18 -1.6653345369377348e-16 -1.0
  outer loop
    vertex 7.914969362535116e-17 -9.99999999999999 10.000000000000002
    vertex 3.0000000000000067 -1.1282641487753177e-15 9.999999999999991
    vertex 16.0 -9.99999999999999 9.999999999999998
  endloop
endfacet
facet normal -4.996762996384899e-18 -1.6653345369377348e-16 -1.0
  outer loop
    vertex 3.0000000000000067 -1.1282641487753177e-15 9.999999999999991
    vertex 7.914969362535116e-17 -9.99999999999999 10.000000000000002
    vertex 1.8431153480705203e-15 10.0 10.000000000000004
  endloop
endfacet
facet normal -4.996762996384899e-18 -1.6653345369377348e-16 -1.0
  outer loop
    vertex 3.0000000000000067 -1.1282641487753177e-15 9.999999999999991
    vertex 1.8431153480705203e-15 10.0 10.000000000000004
    vertex 3.0000000000000067 0.9999999999999959 9.99999999999999
  endloop
endfacet
facet normal -4.996762996384899e-18 -1.6653345369377348e-16 -1.0
  outer loop
    vertex 16.0 -9.99999999999999 9.999999999999998
    vertex 3.0000000000000067 -1.1282641487753177e-15 9.999999999999991
    vertex 12.999999999999988 -2.450123437469645e-15 9.99999999999999
  endloop
endfacet
facet normal -4.996762996384899e-18 -1.6653345369377348e-16 -1.0
  outer loop
    vertex 16.0 -9.99999999999999 9.999999999999998
    vertex 12.999999999999988 -2.450123437469645e-15 9.99999999999999
    vertex 16.0 10.0 10.000000000000002
  endloop
endfacet
facet normal -4.996762996384899e-18 -1.6653345369377348e-16 -1.0
  outer loop
    vertex 12.999999999999988 0.9999999999999948 9.999999999999988
    vertex 10.99999999999998 3.5000000000000036 9.999999999999995
    vertex 12.999999999999988 6.000000000000009 9.99999999999999
  endloop
endfacet
facet normal -4.996762996384899e-18 -1.6653345369377348e-16 -1.0
  outer loop
    vertex 3.0000000000000067 0.9999999999999959 9.99999999999999
    vertex 3.0000000000000075 6.00000000000001 9.99999999999998
    vertex 5.000000000000003 3.500000000000005 9.999999999999996
  endloop
endfacet
facet normal -4.996762996384899e-18 -1.6653345369377348e-16 -1.0
  outer loop
    vertex 3.0000000000000075 6.00000000000001 9.99999999999998
    vertex 3.0000000000000067 0.9999999999999959 9.99999999999999
    vertex 3.0000000000000075 7.0000000000000115 9.999999999999977
  endloop
endfacet
facet normal 8.81982827222585e-17 1.0 -1.6653345369377348e-16
  outer loop
    vertex 1.8431153480705203e-15 10.0 10.000000000000004
    vertex 15.999999999999998 10.000000000000004 19.999999999999993
    vertex 16.0 10.0 10.000000000000002
  endloop
endfacet
facet normal 8.81982827222585e-17 1.0 -1.6653345369377348e-16
  outer loop
    vertex 15.999999999999998 10.000000000000004 19.999999999999993
    vertex 1.8431153480705203e-15 10.0 10.000000000000004
    vertex 1.8930829780343683e-15 10.000000000000009 19.999999999999993
  endloop
endfacet
facet normal -5.693074292380319e-16 -1.0 4.440892098500626e-16
  outer loop
    vertex 3.0000000000000018 5.938999292354195e-15 19.999999999999993
    vertex 9.861163358298606e-16 3.727226860483767e-15 14.999999999999998
    vertex 3.000000000000004 1.6122519985728435e-15 14.999999999999998
  endloop
endfacet
facet normal -5.693074292380319e-16 -1.0 4.440892098500626e-16
  outer loop
    vertex 9.861163358298606e-16 3.727226860483767e-15 14.999999999999998
    vertex 3.0000000000000018 5.938999292354195e-15 19.999999999999993
    vertex 1.0111001508117848e-15 7.348982533628143e-15 19.999999999999993
  endloop
endfacet
facet normal 1.0 -1.6083058672693673e-16 3.6353050836996625e-17
  outer loop
    vertex 16.0 -9.99999999999999 9.999999999999998
    vertex 15.999999999999998 -8.738895448118054 13.408524825540068
    vertex 15.999999999999998 -9.99999999999999 13.408524825540038
  endloop
endfacet
facet normal 1.0 -1.6083058672693673e-16 3.6353050836996625e-17
  outer loop
    vertex 15.999999999999998 -8.738895448118054 13.408524825540068
    vertex 16.0 -9.99999999999999 9.999999999999998
    vertex 15.999999999999998 -7.915475947422644 12.807540087628936
  endloop
endfacet
facet normal 1.0 -1.6083058672693673e-16 3.6353050836996625e-17
  outer loop
    vertex 15.999999999999998 -7.915475947422644 12.807540087628936
    vertex 16.0 -9.99999999999999 9.999999999999998
    vertex 15.999999999999998 -6.997703766585563 12.363809816620563
  endloop
endfacet
facet normal 1.0 -1.6083058672693673e-16 3.6353050836996625e-17
  outer loop
    vertex 15.999999999999998 -6.997703766585563 12.363809816620563
    vertex 16.0 -9.99999999999999 9.999999999999998
    vertex 15.999999999999998 -6.015280493472074 12.091694323175966
  endloop
endfacet
facet normal 1.0 -1.6083058672693673e-16 3.6353050836996625e-17
  outer loop
    vertex 15.999999999999998 -6.015280493472074 12.091694323175966
    vertex 16.0 -9.99999999999999 9.999999999999998
    vertex 16.0 10.0 10.000000000000002
  endloop
endfacet
facet normal 1.0 -1.6083058672693673e-16 3.6353050836996625e-17
  outer loop
    vertex 15.999999999999998 -6.015280493472074 12.091694323175966
    vertex 16.0 10.0 10.000000000000002
    vertex 15.999999999999998 -4.999999999999997 11.999999999999995
  endloop
endfacet
facet normal 1.0 -1.6083058672693673e-16 3.6353050836996625e-17
  outer loop
    vertex 15.999999999999998 -4.999999999999997 11.999999999999995
    vertex 16.0 10.0 10.000000000000002
    vertex 15.999999999999998 -3.984719506527914 12.091694323175963
  endloop
endfacet
facet normal 1.0 -1.6083058672693673e-16 3.6353050836996625e-17
  outer loop
    vertex 15.999999999999998 -3.984719506527914 12.091694323175963
    vertex 16.0 10.0 10.000000000000002
    vertex 15.999999999999998 -3.0022962334144276 12.363809816620567
  endloop
endfacet
facet normal 1.0 -1.6083058672693673e-16 3.6353050836996625e-17
  outer loop
    vertex 15.999999999999998 -3.0022962334144276 12.363809816620567
    vertex 16.0 10.0 10.000000000000002
    vertex 15.999999999999998 -2.0845240525773447 12.80754008762892
  endloop
endfacet
facet normal 1.0 -1.6083058672693673e-16 3.6353050836996625e-17
  outer loop
    vertex 15.999999999999998 -2.0845240525773447 12.80754008762892
    vertex 16.0 10.0 10.000000000000002
    vertex 15.999999999999998 -1.2611045518819288 13.408524825540054
  endloop
endfacet
facet normal 1.0 -1.6083058672693673e-16 3.6353050836996625e-17
  outer loop
    vertex 15.999999999999998 -1.2611045518819288 13.408524825540054
    vertex 16.0 10.0 10.000000000000002
    vertex 15.999999999999998 -0.558685811495061 14.147314540195689
  endloop
endfacet
facet normal 1.0 -1.6083058672693673e-16 3.6353050836996625e-17
  outer loop
    vertex 15.999999999999998 -0.558685811495061 14.147314540195689
    vertex 16.0 10.0 10.000000000000002
    vertex 15.999999999999998 3.154421168716225e-15 14.999999999999998
  endloop
endfacet
facet normal 1.0 -1.6083058672693673e-16 3.6353050836996625e-17
  outer loop
    vertex 15.999999999999998 3.154421168716225e-15 14.999999999999998
    vertex 16.0 10.0 10.000000000000002
    vertex 15.999999999999998 3.4274666438349722e-15 19.99999999999999
  endloop
endfacet
facet normal 1.0 -1.6083058672693673e-16 3.6353050836996625e-17
  outer loop
    vertex 15.999999999999998 3.4274666438349722e-15 19.99999999999999
    vertex 16.0 10.0 10.000000000000002
    vertex 15.999999999999998 10.000000000000004 19.999999999999993
  endloop
endfacet
facet normal -8.819828272225859e-17 -1.0 5.551115123125783e-17
  outer loop
    vertex 15.999999999999998 -9.99999999999999 13.408524825540038
    vertex 7.914969362535116e-17 -9.99999999999999 10.000000000000002
    vertex 16.0 -9.99999999999999 9.999999999999998
  endloop
endfacet
facet normal -8.819828272225859e-17 -1.0 5.551115123125783e-17
  outer loop
    vertex 7.914969362535116e-17 -9.99999999999999 10.000000000000002
    vertex 15.999999999999998 -9.99999999999999 13.408524825540038
    vertex -1.1187036217014236e-15 -9.999999999999986 13.408524825540038
  endloop
endfacet
facet normal 2.0490813799140197e-16 0.5895401497526332 0.8077390741010632
  outer loop
    vertex -1.0074763658922147e-15 -8.738895448118054 13.408524825540075
    vertex 15.999999999999998 -7.915475947422644 12.807540087628936
    vertex -1.0486235777106612e-15 -7.915475947422644 12.807540087628936
  endloop
endfacet
facet normal 2.0490813799140197e-16 0.5895401497526332 0.8077390741010632
  outer loop
    vertex 15.999999999999998 -7.915475947422644 12.807540087628936
    vertex -1.0074763658922147e-15 -8.738895448118054 13.408524825540075
    vertex 15.999999999999998 -8.738895448118054 13.408524825540068
  endloop
endfacet
facet normal 2.0882428617439146e-16 0.43528028902911026 0.9002949905351769
  outer loop
    vertex -1.0486235777106612e-15 -7.915475947422644 12.807540087628936
    vertex 15.999999999999998 -6.997703766585563 12.363809816620563
    vertex -1.0516794697190187e-15 -6.997703766585561 12.363809816620563
  endloop
endfacet
facet normal 2.0882428617439146e-16 0.43528028902911026 0.9002949905351769
  outer loop
    vertex 15.999999999999998 -6.997703766585563 12.363809816620563
    vertex -1.0486235777106612e-15 -7.915475947422644 12.807540087628936
    vertex 15.999999999999998 -7.915475947422644 12.807540087628936
  endloop
endfacet
facet normal 2.0598231615145263e-16 0.26693358189581257 0.9637149282107605
  outer loop
    vertex 15.999999999999998 -6.997703766585563 12.363809816620563
    vertex -1.0165451449939662e-15 -6.015280493472073 12.09169432317597
    vertex -1.0516794697190187e-15 -6.997703766585561 12.363809816620563
  endloop
endfacet
facet normal 2.0598231615145263e-16 0.26693358189581257 0.9637149282107605
  outer loop
    vertex -1.0165451449939662e-15 -6.015280493472073 12.09169432317597
    vertex 15.999999999999998 -6.997703766585563 12.363809816620563
    vertex 15.999999999999998 -6.015280493472074 12.091694323175966
  endloop
endfacet
facet normal 1.9647420175237515e-16 0.08994818271843985 0.9959464465651005
  outer loop
    vertex 15.999999999999998 -6.015280493472074 12.091694323175966
    vertex -9.443576452270029e-16 -4.999999999999991 12.0
    vertex -1.0165451449939662e-15 -6.015280493472073 12.09169432317597
  endloop
endfacet
facet normal 1.9647420175237515e-16 0.08994818271843985 0.9959464465651005
  outer loop
    vertex -9.443576452270029e-16 -4.999999999999991 12.0
    vertex 15.999999999999998 -6.015280493472074 12.091694323175966
    vertex 15.999999999999998 -4.999999999999997 11.999999999999995
  endloop
endfacet
facet normal 1.8060765125286647e-16 -0.08994818271844018 0.9959464465651002
  outer loop
    vertex 15.999999999999998 -4.999999999999997 11.999999999999995
    vertex -8.374531529826783e-16 -3.984719506527912 12.091694323175965
    vertex -9.443576452270029e-16 -4.999999999999991 12.0
  endloop
endfacet
facet normal 1.8060765125286647e-16 -0.08994818271844018 0.9959464465651002
  outer loop
    vertex -8.374531529826783e-16 -3.984719506527912 12.091694323175965
    vertex 15.999999999999998 -4.999999999999997 11.999999999999995
    vertex 15.999999999999998 -3.984719506527914 12.091694323175963
  endloop
endfacet
facet normal 1.588961491032287e-16 -0.2669335818958122 0.9637149282107609
  outer loop
    vertex 15.999999999999998 -3.984719506527914 12.091694323175963
    vertex -6.992913865177495e-16 -3.0022962334144263 12.363809816620574
    vertex -8.374531529826783e-16 -3.984719506527912 12.091694323175965
  endloop
endfacet
facet normal 1.588961491032287e-16 -0.2669335818958122 0.9637149282107609
  outer loop
    vertex -6.992913865177495e-16 -3.0022962334144263 12.363809816620574
    vertex 15.999999999999998 -3.984719506527914 12.091694323175963
    vertex 15.999999999999998 -3.0022962334144276 12.363809816620567
  endloop
endfacet
facet normal 1.3204233818396027e-16 -0.4352802890291089 0.9002949905351776
  outer loop
    vertex 15.999999999999998 -3.0022962334144276 12.363809816620567
    vertex -5.343436339492075e-16 -2.084524052577344 12.80754008762892
    vertex -6.992913865177495e-16 -3.0022962334144263 12.363809816620574
  endloop
endfacet
facet normal 1.3204233818396027e-16 -0.4352802890291089 0.9002949905351776
  outer loop
    vertex -5.343436339492075e-16 -2.084524052577344 12.80754008762892
    vertex 15.999999999999998 -3.0022962334144276 12.363809816620567
    vertex 15.999999999999998 -2.0845240525773447 12.80754008762892
  endloop
endfacet
facet normal 1.5864231178384554e-17 -0.5895401497526349 0.807739074101062
  outer loop
    vertex 15.999999999999998 -2.0845240525773447 12.80754008762892
    vertex -3.479480502880494e-16 -1.2611045518819275 13.408524825540061
    vertex -5.343436339492075e-16 -2.084524052577344 12.80754008762892
  endloop
endfacet
facet normal 1.5864231178384554e-17 -0.5895401497526349 0.807739074101062
  outer loop
    vertex -3.479480502880494e-16 -1.2611045518819275 13.408524825540061
    vertex 15.999999999999998 -2.0845240525773447 12.80754008762892
    vertex 3.0 -1.2611045518819304 13.408524825540061
  endloop
endfacet
facet normal 1.5864231178384554e-17 -0.5895401497526349 0.807739074101062
  outer loop
    vertex 3.0 -1.2611045518819304 13.408524825540061
    vertex 15.999999999999998 -2.0845240525773447 12.80754008762892
    vertex 12.999999999999991 -1.2611045518819395 13.408524825540054
  endloop
endfacet
facet normal 1.5864231178384554e-17 -0.5895401497526349 0.807739074101062
  outer loop
    vertex 12.999999999999991 -1.2611045518819395 13.408524825540054
    vertex 15.999999999999998 -2.0845240525773447 12.80754008762892
    vertex 15.999999999999998 -1.2611045518819288 13.408524825540054
  endloop
endfacet
facet normal 3.6875781758889575e-17 -0.8364477198075856 0.5480467243116147
  outer loop
    vertex 15.999999999999998 -0.558685811495061 14.147314540195689
    vertex 12.999999999999993 1.9206858326015197e-15 14.999999999999998
    vertex 12.999999999999991 -0.5586858114950732 14.147314540195682
  endloop
endfacet
facet normal 3.6875781758889575e-17 -0.8364477198075856 0.5480467243116147
  outer loop
    vertex 12.999999999999993 1.9206858326015197e-15 14.999999999999998
    vertex 15.999999999999998 -0.558685811495061 14.147314540195689
    vertex 15.999999999999998 3.154421168716225e-15 14.999999999999998
  endloop
endfacet
facet normal 1.893082978034371e-16 3.191891195797325e-16 1.0
  outer loop
    vertex 15.999999999999998 -9.99999999999999 13.408524825540038
    vertex -1.0074763658922147e-15 -8.738895448118054 13.408524825540075
    vertex -1.1187036217014236e-15 -9.999999999999986 13.408524825540038
  endloop
endfacet
facet normal 1.893082978034371e-16 3.191891195797325e-16 1.0
  outer loop
    vertex -1.0074763658922147e-15 -8.738895448118054 13.408524825540075
    vertex 15.999999999999998 -9.99999999999999 13.408524825540038
    vertex 15.999999999999998 -8.738895448118054 13.408524825540068
  endloop
endfacet
facet normal -8.819828272225878e-17 -1.0 5.828670879282072e-16
  outer loop
    vertex 12.999999999999988 7.000000000000008 9.999999999999986
    vertex 3.000000000000002 7.0000000000000115 19.999999999999993
    vertex 3.0000000000000075 7.0000000000000115 9.999999999999977
  endloop
endfacet
facet normal -8.819828272225878e-17 -1.0 5.828670879282072e-16
  outer loop
    vertex 3.000000000000002 7.0000000000000115 19.999999999999993
    vertex 12.999999999999988 7.000000000000008 9.999999999999986
    vertex 12.999999999999998 7.000000000000008 20.000000000000007
  endloop
endfacet
facet normal 1.0 -8.819828272225693e-17 3.34584557899269e-16
  outer loop
    vertex 3.0000000000000075 7.0000000000000115 9.999999999999977
    vertex 3.000000000000002 6.000000000000013 19.999999999999996
    vertex 3.0000000000000075 6.00000000000001 9.99999999999998
  endloop
endfacet
facet normal 1.0 -8.819828272225693e-17 3.34584557899269e-16
  outer loop
    vertex 3.000000000000002 6.000000000000013 19.999999999999996
    vertex 3.0000000000000075 7.0000000000000115 9.999999999999977
    vertex 3.000000000000002 7.0000000000000115 19.999999999999993
  endloop
endfacet
facet normal 0.7808688094430313 0.6246950475544233 -1.421796119847992e-16
  outer loop
    vertex 5.000000000000003 3.500000000000005 9.999999999999996
    vertex 3.000000000000002 6.000000000000013 19.999999999999996
    vertex 5.000000000000002 3.5 19.999999999999996
  endloop
endfacet
facet normal 0.7808688094430313 0.6246950475544233 -1.421796119847992e-16
  outer loop
    vertex 3.000000000000002 6.000000000000013 19.999999999999996
    vertex 5.000000000000003 3.500000000000005 9.999999999999996
    vertex 3.0000000000000075 6.00000000000001 9.99999999999998
  endloop
endfacet
facet normal 0.7808688094430303 -0.6246950475544244 7.493328285766819e-16
  outer loop
    vertex 5.000000000000003 3.500000000000005 9.999999999999996
    vertex 3.0000000000000018 1.0000000000000053 19.999999999999993
    vertex 3.0000000000000067 0.9999999999999959 9.99999999999999
  endloop
endfacet
facet normal 0.7808688094430303 -0.6246950475544244 7.493328285766819e-16
  outer loop
    vertex 3.0000000000000018 1.0000000000000053 19.999999999999993
    vertex 5.000000000000003 3.500000000000005 9.999999999999996
    vertex 5.000000000000002 3.5 19.999999999999996
  endloop
endfacet
facet normal 1.0 1.8514035433815405e-16 4.526246271106795e-16
  outer loop
    vertex 3.0000000000000067 0.9999999999999959 9.99999999999999
    vertex 3.0000000000000053 1.3469974747915126e-15 13.408524825540058
    vertex 3.0000000000000067 -1.1282641487753177e-15 9.999999999999991
  endloop
endfacet
facet normal 1.0 1.8514035433815405e-16 4.526246271106795e-16
  outer loop
    vertex 3.0000000000000053 1.3469974747915126e-15 13.408524825540058
    vertex 3.0000000000000067 0.9999999999999959 9.99999999999999
    vertex 3.000000000000004 1.6122519985728435e-15 14.999999999999998
  endloop
endfacet
facet normal 1.0 1.8514035433815405e-16 4.526246271106795e-16
  outer loop
    vertex 3.000000000000004 1.6122519985728435e-15 14.999999999999998
    vertex 3.0000000000000067 0.9999999999999959 9.99999999999999
    vertex 3.0000000000000018 5.938999292354195e-15 19.999999999999993
  endloop
endfacet
facet normal 1.0 1.8514035433815405e-16 4.526246271106795e-16
  outer loop
    vertex 3.0000000000000018 5.938999292354195e-15 19.999999999999993
    vertex 3.0000000000000067 0.9999999999999959 9.99999999999999
    vertex 3.0000000000000018 1.0000000000000053 19.999999999999993
  endloop
endfacet
facet normal -1.0 -3.5222610298476574e-16 1.2962671565402099e-15
  outer loop
    vertex 12.999999999999993 1.9206858326015197e-15 14.999999999999998
    vertex 12.999999999999988 -2.450123437469645e-15 9.99999999999999
    vertex 12.999999999999993 -3.720129798536742e-15 13.408524825540052
  endloop
endfacet
facet normal -1.0 -3.5222610298476574e-16 1.2962671565402099e-15
  outer loop
    vertex 12.999999999999988 -2.450123437469645e-15 9.99999999999999
    vertex 12.999999999999993 1.9206858326015197e-15 14.999999999999998
    vertex 12.999999999999988 0.9999999999999948 9.999999999999988
  endloop
endfacet
facet normal -1.0 -3.5222610298476574e-16 1.2962671565402099e-15
  outer loop
    vertex 12.999999999999988 0.9999999999999948 9.999999999999988
    vertex 12.999999999999993 1.9206858326015197e-15 14.999999999999998
    vertex 12.999999999999998 4.484954074790435e-15 19.999999999999993
  endloop
endfacet
facet normal -1.0 -3.5222610298476574e-16 1.2962671565402099e-15
  outer loop
    vertex 12.999999999999988 0.9999999999999948 9.999999999999988
    vertex 12.999999999999998 4.484954074790435e-15 19.999999999999993
    vertex 12.999999999999998 1.0000000000000029 19.999999999999993
  endloop
endfacet
facet normal -0.7808688094430295 -0.6246950475544252 1.0748514246526348e-16
  outer loop
    vertex 12.999999999999998 1.0000000000000029 19.999999999999993
    vertex 10.99999999999998 3.5000000000000036 9.999999999999995
    vertex 12.999999999999988 0.9999999999999948 9.999999999999988
  endloop
endfacet
facet normal -0.7808688094430295 -0.6246950475544252 1.0748514246526348e-16
  outer loop
    vertex 10.99999999999998 3.5000000000000036 9.999999999999995
    vertex 12.999999999999998 1.0000000000000029 19.999999999999993
    vertex 10.999999999999991 3.5000000000000013 20.000000000000004
  endloop
endfacet
facet normal -0.7808688094430299 0.6246950475544247 -8.013745328559861e-16
  outer loop
    vertex 12.999999999999998 6.000000000000011 20.000000000000004
    vertex 10.99999999999998 3.5000000000000036 9.999999999999995
    vertex 10.999999999999991 3.5000000000000013 20.000000000000004
  endloop
endfacet
facet normal -0.7808688094430299 0.6246950475544247 -8.013745328559861e-16
  outer loop
    vertex 10.99999999999998 3.5000000000000036 9.999999999999995
    vertex 12.999999999999998 6.000000000000011 20.000000000000004
    vertex 12.999999999999988 6.000000000000009 9.99999999999999
  endloop
endfacet
facet normal -1.0 8.819828272225841e-17 -3.345845578992691e-16
  outer loop
    vertex 12.999999999999998 6.000000000000011 20.000000000000004
    vertex 12.999999999999988 7.000000000000008 9.999999999999986
    vertex 12.999999999999988 6.000000000000009 9.99999999999999
  endloop
endfacet
facet normal -1.0 8.819828272225841e-17 -3.345845578992691e-16
  outer loop
    vertex 12.999999999999988 7.000000000000008 9.999999999999986
    vertex 12.999999999999998 6.000000000000011 20.000000000000004
    vertex 12.999999999999998 7.000000000000008 20.000000000000007
  endloop
endfacet
facet normal 3.929108637935154e-16 -1.0 4.440892098500626e-16
  outer loop
    vertex 15.999999999999998 3.4274666438349722e-15 19.99999999999999
    vertex 12.999999999999993 1.9206858326015197e-15 14.999999999999998
    vertex 15.999999999999998 3.154421168716225e-15 14.999999999999998
  endloop
endfacet
facet normal 3.929108637935154e-16 -1.0 4.440892098500626e-16
  outer loop
    vertex 12.999999999999993 1.9206858326015197e-15 14.999999999999998
    vertex 15.999999999999998 3.4274666438349722e-15 19.99999999999999
    vertex 12.999999999999998 4.484954074790435e-15 19.999999999999993
  endloop
endfacet
facet normal 2.9597835769787055e-16 1.0 -3.191891195797325e-16
  outer loop
    vertex 3.0000000000000067 -1.1282641487753177e-15 9.999999999999991
    vertex 12.999999999999993 -3.720129798536742e-15 13.408524825540052
    vertex 12.999999999999988 -2.450123437469645e-15 9.99999999999999
  endloop
endfacet
facet normal 2.9597835769787055e-16 1.0 -3.191891195797325e-16
  outer loop
    vertex 12.999999999999993 -3.720129798536742e-15 13.408524825540052
    vertex 3.0000000000000067 -1.1282641487753177e-15 9.999999999999991
    vertex 3.0000000000000053 1.3469974747915126e-15 13.408524825540058
  endloop
endfacet
facet normal -1.0 1.3875329026284768e-16 5.0555007540589175e-17
  outer loop
    vertex 7.914969362535116e-17 -9.99999999999999 10.000000000000002
    vertex -1.0165451449939662e-15 -6.015280493472073 12.09169432317597
    vertex 1.8431153480705203e-15 10.0 10.000000000000004
  endloop
endfacet
facet normal -1.0 1.3875329026284768e-16 5.0555007540589175e-17
  outer loop
    vertex -1.0165451449939662e-15 -6.015280493472073 12.09169432317597
    vertex 7.914969362535116e-17 -9.99999999999999 10.000000000000002
    vertex -1.0516794697190187e-15 -6.997703766585561 12.363809816620563
  endloop
endfacet
facet normal -1.0 1.3875329026284768e-16 5.0555007540589175e-17
  outer loop
    vertex -1.0516794697190187e-15 -6.997703766585561 12.363809816620563
    vertex 7.914969362535116e-17 -9.99999999999999 10.000000000000002
    vertex -1.1187036217014236e-15 -9.999999999999986 13.408524825540038
  endloop
endfacet
facet normal -1.0 1.3875329026284768e-16 5.0555007540589175e-17
  outer loop
    vertex -1.0516794697190187e-15 -6.997703766585561 12.363809816620563
    vertex -1.1187036217014236e-15 -9.999999999999986 13.408524825540038
    vertex -1.0486235777106612e-15 -7.915475947422644 12.807540087628936
  endloop
endfacet
facet normal -1.0 1.3875329026284768e-16 5.0555007540589175e-17
  outer loop
    vertex -1.0486235777106612e-15 -7.915475947422644 12.807540087628936
    vertex -1.1187036217014236e-15 -9.999999999999986 13.408524825540038
    vertex -1.0074763658922147e-15 -8.738895448118054 13.408524825540075
  endloop
endfacet
facet normal -1.0 1.3875329026284768e-16 5.0555007540589175e-17
  outer loop
    vertex 1.8431153480705203e-15 10.0 10.000000000000004
    vertex -1.0165451449939662e-15 -6.015280493472073 12.09169432317597
    vertex -9.443576452270029e-16 -4.999999999999991 12.0
  endloop
endfacet
facet normal -1.0 1.3875329026284768e-16 5.0555007540589175e-17
  outer loop
    vertex 1.8431153480705203e-15 10.0 10.000000000000004
    vertex -9.443576452270029e-16 -4.999999999999991 12.0
    vertex -8.374531529826783e-16 -3.984719506527912 12.091694323175965
  endloop
endfacet
facet normal -1.0 1.3875329026284768e-16 5.0555007540589175e-17
  outer loop
    vertex 1.8431153480705203e-15 10.0 10.000000000000004
    vertex -8.374531529826783e-16 -3.984719506527912 12.091694323175965
    vertex -6.992913865177495e-16 -3.0022962334144263 12.363809816620574
  endloop
endfacet
facet normal -1.0 1.3875329026284768e-16 5.0555007540589175e-17
  outer loop
    vertex 1.8431153480705203e-15 10.0 10.000000000000004
    vertex -6.992913865177495e-16 -3.0022962334144263 12.363809816620574
    vertex -5.343436339492075e-16 -2.084524052577344 12.80754008762892
  endloop
endfacet
facet normal -1.0 1.3875329026284768e-16 5.0555007540589175e-17
  outer loop
    vertex 1.8431153480705203e-15 10.0 10.000000000000004
    vertex -5.343436339492075e-16 -2.084524052577344 12.80754008762892
    vertex -3.479480502880494e-16 -1.2611045518819275 13.408524825540061
  endloop
endfacet
facet normal -1.0 1.3875329026284768e-16 5.0555007540589175e-17
  outer loop
    vertex 1.8431153480705203e-15 10.0 10.000000000000004
    vertex -3.479480502880494e-16 -1.2611045518819275 13.408524825540061
    vertex -1.461369003178529e-16 -0.5586858114950597 14.147314540195689
  endloop
endfacet
facet normal -1.0 1.3875329026284768e-16 5.0555007540589175e-17
  outer loop
    vertex 1.8431153480705203e-15 10.0 10.000000000000004
    vertex -1.461369003178529e-16 -0.5586858114950597 14.147314540195689
    vertex 9.861163358298606e-16 3.727226860483767e-15 14.999999999999998
  endloop
endfacet
facet normal -1.0 1.3875329026284768e-16 5.0555007540589175e-17
  outer loop
    vertex 1.8431153480705203e-15 10.0 10.000000000000004
    vertex 9.861163358298606e-16 3.727226860483767e-15 14.999999999999998
    vertex 1.0111001508117848e-15 7.348982533628143e-15 19.999999999999993
  endloop
endfacet
facet normal -1.0 1.3875329026284768e-16 5.0555007540589175e-17
  outer loop
    vertex 1.8431153480705203e-15 10.0 10.000000000000004
    vertex 1.0111001508117848e-15 7.348982533628143e-15 19.999999999999993
    vertex 1.8930829780343683e-15 10.000000000000009 19.999999999999993
  endloop
endfacet
facet normal -2.0285999931791875e-18 -0.7247208981173492 0.689042538477838
  outer loop
    vertex 15.999999999999998 -0.558685811495061 14.147314540195689
    vertex 12.999999999999991 -1.2611045518819395 13.408524825540054
    vertex 15.999999999999998 -1.2611045518819288 13.408524825540054
  endloop
endfacet
facet normal -2.0285999931791875e-18 -0.7247208981173492 0.689042538477838
  outer loop
    vertex 12.999999999999991 -1.2611045518819395 13.408524825540054
    vertex 15.999999999999998 -0.558685811495061 14.147314540195689
    vertex 12.999999999999991 -0.5586858114950732 14.147314540195682
  endloop
endfacet
facet normal 1.0 -4.410864078260441e-15 1.0407693141811696e-15
  outer loop
    vertex 3.0000000000000053 1.3469974747915126e-15 13.408524825540058
    vertex 3.0000000000000004 -0.558685811495064 14.147314540195682
    vertex 3.0 -1.2611045518819304 13.408524825540061
  endloop
endfacet
facet normal 1.0 -4.410864078260441e-15 1.0407693141811696e-15
  outer loop
    vertex 3.0000000000000004 -0.558685811495064 14.147314540195682
    vertex 3.0000000000000053 1.3469974747915126e-15 13.408524825540058
    vertex 3.000000000000004 1.6122519985728435e-15 14.999999999999998
  endloop
endfacet
facet normal -5.965755492877312e-16 -0.8364477198075868 0.5480467243116126
  outer loop
    vertex 3.000000000000004 1.6122519985728435e-15 14.999999999999998
    vertex -1.461369003178529e-16 -0.5586858114950597 14.147314540195689
    vertex 3.0000000000000004 -0.558685811495064 14.147314540195682
  endloop
endfacet
facet normal -5.965755492877312e-16 -0.8364477198075868 0.5480467243116126
  outer loop
    vertex -1.461369003178529e-16 -0.5586858114950597 14.147314540195689
    vertex 3.000000000000004 1.6122519985728435e-15 14.999999999999998
    vertex 9.861163358298606e-16 3.727226860483767e-15 14.999999999999998
  endloop
endfacet
facet normal -4.96733869809636e-16 -0.7247208981173492 0.689042538477838
  outer loop
    vertex 3.0000000000000004 -0.558685811495064 14.147314540195682
    vertex -3.479480502880494e-16 -1.2611045518819275 13.408524825540061
    vertex 3.0 -1.2611045518819304 13.408524825540061
  endloop
endfacet
facet normal -4.96733869809636e-16 -0.7247208981173492 0.689042538477838
  outer loop
    vertex -3.479480502880494e-16 -1.2611045518819275 13.408524825540061
    vertex 3.0000000000000004 -0.558685811495064 14.147314540195682
    vertex -1.461369003178529e-16 -0.5586858114950597 14.147314540195689
  endloop
endfacet
facet normal -1.0 2.6314264004237462e-15 -6.879058805336646e-17
  outer loop
    vertex 12.999999999999991 -0.5586858114950732 14.147314540195682
    vertex 12.999999999999993 -3.720129798536742e-15 13.408524825540052
    vertex 12.999999999999991 -1.2611045518819395 13.408524825540054
  endloop
endfacet
facet normal -1.0 2.6314264004237462e-15 -6.879058805336646e-17
  outer loop
    vertex 12.999999999999993 -3.720129798536742e-15 13.408524825540052
    vertex 12.999999999999991 -0.5586858114950732 14.147314540195682
    vertex 12.999999999999993 1.9206858326015197e-15 14.999999999999998
  endloop
endfacet
facet normal 1.893082978034371e-16 3.191891195797325e-16 1.0
  outer loop
    vertex 12.999999999999991 -1.2611045518819395 13.408524825540054
    vertex 3.0000000000000053 1.3469974747915126e-15 13.408524825540058
    vertex 3.0 -1.2611045518819304 13.408524825540061
  endloop
endfacet
facet normal 1.893082978034371e-16 3.191891195797325e-16 1.0
  outer loop
    vertex 3.0000000000000053 1.3469974747915126e-15 13.408524825540058
    vertex 12.999999999999991 -1.2611045518819395 13.408524825540054
    vertex 12.999999999999993 -3.720129798536742e-15 13.408524825540052
  endloop
endfacet
endsolid Держатель-Моб-Тел-Ползунок
