solid Держатель-Моб-Тел-Ползунок-Гайка
facet normal 2.3919600423533054e-17 1.0588012481927678e-16 -1.0
  outer loop
    vertex 2.3340743916456614e-15 15.000000000000009 10.000000000000004
    vertex 3.0000000000000075 7.0000000000000115 9.999999999999977
    vertex 3.0000000000000067 0.9999999999999959 9.99999999999999
  endloop
endfacet
facet normal 2.3919600423533054e-17 1.0588012481927678e-16 -1.0
  outer loop
    vertex 3.0000000000000075 7.0000000000000115 9.999999999999977
    vertex 2.3340743916456614e-15 15.000000000000009 10.000000000000004
    vertex 5.000000000000002 20.000000000000007 10.000000000000004
  endloop
endfacet
facet normal 2.3919600423533054e-17 1.0588012481927678e-16 -1.0
  outer loop
    vertex 3.0000000000000075 7.0000000000000115 9.999999999999977
    vertex 5.000000000000002 20.000000000000007 10.000000000000004
    vertex 4.900000000000001 15.000000000000007 10.000000000000021
  endloop
endfacet
facet normal 2.3919600423533054e-17 1.0588012481927678e-16 -1.0
  outer loop
    vertex 4.900000000000001 15.000000000000007 10.000000000000021
    vertex 5.000000000000002 20.000000000000007 10.000000000000004
    vertex 5.005629938503889 15.80233903981782 10.000000000000021
  endloop
endfacet
facet normal 2.3919600423533054e-17 1.0588012481927678e-16 -1.0
  outer loop
    vertex 5.005629938503889 15.80233903981782 10.000000000000021
    vertex 5.000000000000002 20.000000000000007 10.000000000000004
    vertex 5.31532124826824 16.550000000000004 10.000000000000021
  endloop
endfacet
facet normal 2.3919600423533054e-17 1.0588012481927678e-16 -1.0
  outer loop
    vertex 5.31532124826824 16.550000000000004 10.000000000000021
    vertex 5.000000000000002 20.000000000000007 10.000000000000004
    vertex 5.807968978321703 17.192031021678304 10.000000000000021
  endloop
endfacet
facet normal 2.3919600423533054e-17 1.0588012481927678e-16 -1.0
  outer loop
    vertex 5.807968978321703 17.192031021678304 10.000000000000021
    vertex 5.000000000000002 20.000000000000007 10.000000000000004
    vertex 6.449999999999999 17.684678751731763 10.000000000000021
  endloop
endfacet
facet normal 2.3919600423533054e-17 1.0588012481927678e-16 -1.0
  outer loop
    vertex 6.449999999999999 17.684678751731763 10.000000000000021
    vertex 5.000000000000002 20.000000000000007 10.000000000000004
    vertex 11.0 20.000000000000007 10.000000000000004
  endloop
endfacet
facet normal 2.3919600423533054e-17 1.0588012481927678e-16 -1.0
  outer loop
    vertex 6.449999999999999 17.684678751731763 10.000000000000021
    vertex 11.0 20.000000000000007 10.000000000000004
    vertex 7.1976609601821835 17.994370061496117 10.000000000000021
  endloop
endfacet
facet normal 2.3919600423533054e-17 1.0588012481927678e-16 -1.0
  outer loop
    vertex 7.1976609601821835 17.994370061496117 10.000000000000021
    vertex 11.0 20.000000000000007 10.000000000000004
    vertex 8.0 18.100000000000005 10.000000000000021
  endloop
endfacet
facet normal 2.3919600423533054e-17 1.0588012481927678e-16 -1.0
  outer loop
    vertex 8.0 18.100000000000005 10.000000000000021
    vertex 11.0 20.000000000000007 10.000000000000004
    vertex 8.802339039817815 17.99437006149612 10.000000000000021
  endloop
endfacet
facet normal 2.3919600423533054e-17 1.0588012481927678e-16 -1.0
  outer loop
    vertex 8.802339039817815 17.99437006149612 10.000000000000021
    vertex 11.0 20.000000000000007 10.000000000000004
    vertex 9.55 17.684678751731767 10.000000000000021
  endloop
endfacet
facet normal 2.3919600423533054e-17 1.0588012481927678e-16 -1.0
  outer loop
    vertex 9.55 17.684678751731767 10.000000000000021
    vertex 11.0 20.000000000000007 10.000000000000004
    vertex 10.192031021678298 17.192031021678304 10.000000000000021
  endloop
endfacet
facet normal 2.3919600423533054e-17 1.0588012481927678e-16 -1.0
  outer loop
    vertex 10.192031021678298 17.192031021678304 10.000000000000021
    vertex 11.0 20.000000000000007 10.000000000000004
    vertex 10.68467875173176 16.550000000000008 10.000000000000021
  endloop
endfacet
facet normal 2.3919600423533054e-17 1.0588012481927678e-16 -1.0
  outer loop
    vertex 10.68467875173176 16.550000000000008 10.000000000000021
    vertex 11.0 20.000000000000007 10.000000000000004
    vertex 10.994370061496111 15.802339039817822 10.000000000000021
  endloop
endfacet
facet normal 2.3919600423533054e-17 1.0588012481927678e-16 -1.0
  outer loop
    vertex 10.994370061496111 15.802339039817822 10.000000000000021
    vertex 11.0 20.000000000000007 10.000000000000004
    vertex 11.100000000000001 15.000000000000007 10.000000000000021
  endloop
endfacet
facet normal 2.3919600423533054e-17 1.0588012481927678e-16 -1.0
  outer loop
    vertex 11.100000000000001 15.000000000000007 10.000000000000021
    vertex 11.0 20.000000000000007 10.000000000000004
    vertex 15.999999999999998 15.000000000000004 10.000000000000004
  endloop
endfacet
facet normal 2.3919600423533054e-17 1.0588012481927678e-16 -1.0
  outer loop
    vertex 11.100000000000001 15.000000000000007 10.000000000000021
    vertex 15.999999999999998 15.000000000000004 10.000000000000004
    vertex 12.999999999999988 7.000000000000008 9.999999999999986
  endloop
endfacet
facet normal 2.3919600423533054e-17 1.0588012481927678e-16 -1.0
  outer loop
    vertex 12.999999999999988 7.000000000000008 9.999999999999986
    vertex 15.999999999999998 15.000000000000004 10.000000000000004
    vertex 12.999999999999988 6.000000000000009 9.99999999999999
  endloop
endfacet
facet normal 2.3919600423533054e-17 1.0588012481927678e-16 -1.0
  outer loop
    vertex 12.999999999999988 6.000000000000009 9.99999999999999
    vertex 15.999999999999998 15.000000000000004 10.000000000000004
    vertex 12.999999999999988 0.9999999999999948 9.999999999999988
  endloop
endfacet
facet normal 2.3919600423533054e-17 1.0588012481927678e-16 -1.0
  outer loop
    vertex 12.999999999999988 0.9999999999999948 9.999999999999988
    vertex 15.999999999999998 15.000000000000004 10.000000000000004
    vertex 12.999999999999988 -2.450123437469645e-15 9.99999999999999
  endloop
endfacet
facet normal 2.3919600423533054e-17 1.0588012481927678e-16 -1.0
  outer loop
    vertex 7.914969362535116e-17 -9.99999999999999 10.000000000000002
    vertex 3.0000000000000067 -1.1282641487753177e-15 9.999999999999991
    vertex 16.0 -9.99999999999999 9.999999999999998
  endloop
endfacet
facet normal 2.3919600423533054e-17 1.0588012481927678e-16 -1.0
  outer loop
    vertex 3.0000000000000067 -1.1282641487753177e-15 9.999999999999991
    vertex 7.914969362535116e-17 -9.99999999999999 10.000000000000002
    vertex 2.3340743916456614e-15 15.000000000000009 10.000000000000004
  endloop
endfacet
facet normal 2.3919600423533054e-17 1.0588012481927678e-16 -1.0
  outer loop
    vertex 3.0000000000000067 -1.1282641487753177e-15 9.999999999999991
    vertex 2.3340743916456614e-15 15.000000000000009 10.000000000000004
    vertex 3.0000000000000067 0.9999999999999959 9.99999999999999
  endloop
endfacet
facet normal 2.3919600423533054e-17 1.0588012481927678e-16 -1.0
  outer loop
    vertex 16.0 -9.99999999999999 9.999999999999998
    vertex 3.0000000000000067 -1.1282641487753177e-15 9.999999999999991
    vertex 12.999999999999988 -2.450123437469645e-15 9.99999999999999
  endloop
endfacet
facet normal 2.3919600423533054e-17 1.0588012481927678e-16 -1.0
  outer loop
    vertex 16.0 -9.99999999999999 9.999999999999998
    vertex 12.999999999999988 -2.450123437469645e-15 9.99999999999999
    vertex 15.999999999999998 15.000000000000004 10.000000000000004
  endloop
endfacet
facet normal 2.3919600423533054e-17 1.0588012481927678e-16 -1.0
  outer loop
    vertex 12.999999999999988 0.9999999999999948 9.999999999999988
    vertex 10.99999999999998 3.5000000000000036 9.999999999999995
    vertex 12.999999999999988 6.000000000000009 9.99999999999999
  endloop
endfacet
facet normal 2.3919600423533054e-17 1.0588012481927678e-16 -1.0
  outer loop
    vertex 3.0000000000000075 7.0000000000000115 9.999999999999977
    vertex 5.807968978321704 12.807968978321707 10.000000000000021
    vertex 12.999999999999988 7.000000000000008 9.999999999999986
  endloop
endfacet
facet normal 2.3919600423533054e-17 1.0588012481927678e-16 -1.0
  outer loop
    vertex 5.807968978321704 12.807968978321707 10.000000000000021
    vertex 3.0000000000000075 7.0000000000000115 9.999999999999977
    vertex 5.315321248268242 13.450000000000003 10.000000000000021
  endloop
endfacet
facet normal 2.3919600423533054e-17 1.0588012481927678e-16 -1.0
  outer loop
    vertex 5.315321248268242 13.450000000000003 10.000000000000021
    vertex 3.0000000000000075 7.0000000000000115 9.999999999999977
    vertex 5.00562993850389 14.19766096018219 10.000000000000021
  endloop
endfacet
facet normal 2.3919600423533054e-17 1.0588012481927678e-16 -1.0
  outer loop
    vertex 5.00562993850389 14.19766096018219 10.000000000000021
    vertex 3.0000000000000075 7.0000000000000115 9.999999999999977
    vertex 4.900000000000001 15.000000000000007 10.000000000000021
  endloop
endfacet
facet normal 2.3919600423533054e-17 1.0588012481927678e-16 -1.0
  outer loop
    vertex 12.999999999999988 7.000000000000008 9.999999999999986
    vertex 5.807968978321704 12.807968978321707 10.000000000000021
    vertex 6.450000000000002 12.315321248268246 10.000000000000021
  endloop
endfacet
facet normal 2.3919600423533054e-17 1.0588012481927678e-16 -1.0
  outer loop
    vertex 12.999999999999988 7.000000000000008 9.999999999999986
    vertex 6.450000000000002 12.315321248268246 10.000000000000021
    vertex 7.197660960182188 12.005629938503894 10.000000000000021
  endloop
endfacet
facet normal 2.3919600423533054e-17 1.0588012481927678e-16 -1.0
  outer loop
    vertex 12.999999999999988 7.000000000000008 9.999999999999986
    vertex 7.197660960182188 12.005629938503894 10.000000000000021
    vertex 8.0 11.900000000000006 10.000000000000021
  endloop
endfacet
facet normal 2.3919600423533054e-17 1.0588012481927678e-16 -1.0
  outer loop
    vertex 12.999999999999988 7.000000000000008 9.999999999999986
    vertex 8.0 11.900000000000006 10.000000000000021
    vertex 8.802339039817815 12.005629938503896 10.000000000000021
  endloop
endfacet
facet normal 2.3919600423533054e-17 1.0588012481927678e-16 -1.0
  outer loop
    vertex 12.999999999999988 7.000000000000008 9.999999999999986
    vertex 8.802339039817815 12.005629938503896 10.000000000000021
    vertex 9.550000000000002 12.315321248268248 10.000000000000021
  endloop
endfacet
facet normal 2.3919600423533054e-17 1.0588012481927678e-16 -1.0
  outer loop
    vertex 12.999999999999988 7.000000000000008 9.999999999999986
    vertex 9.550000000000002 12.315321248268248 10.000000000000021
    vertex 10.192031021678298 12.80796897832171 10.000000000000021
  endloop
endfacet
facet normal 2.3919600423533054e-17 1.0588012481927678e-16 -1.0
  outer loop
    vertex 12.999999999999988 7.000000000000008 9.999999999999986
    vertex 10.192031021678298 12.80796897832171 10.000000000000021
    vertex 10.684678751731761 13.450000000000006 10.000000000000021
  endloop
endfacet
facet normal 2.3919600423533054e-17 1.0588012481927678e-16 -1.0
  outer loop
    vertex 12.999999999999988 7.000000000000008 9.999999999999986
    vertex 10.684678751731761 13.450000000000006 10.000000000000021
    vertex 10.994370061496111 14.197660960182192 10.000000000000021
  endloop
endfacet
facet normal 2.3919600423533054e-17 1.0588012481927678e-16 -1.0
  outer loop
    vertex 12.999999999999988 7.000000000000008 9.999999999999986
    vertex 10.994370061496111 14.197660960182192 10.000000000000021
    vertex 11.100000000000001 15.000000000000007 10.000000000000021
  endloop
endfacet
facet normal 2.3919600423533054e-17 1.0588012481927678e-16 -1.0
  outer loop
    vertex 3.0000000000000067 0.9999999999999959 9.99999999999999
    vertex 3.0000000000000075 6.00000000000001 9.99999999999998
    vertex 5.000000000000003 3.500000000000005 9.999999999999996
  endloop
endfacet
facet normal 2.3919600423533054e-17 1.0588012481927678e-16 -1.0
  outer loop
    vertex 3.0000000000000075 6.00000000000001 9.99999999999998
    vertex 3.0000000000000067 0.9999999999999959 9.99999999999999
    vertex 3.0000000000000075 7.0000000000000115 9.999999999999977
  endloop
endfacet
facet normal -5.693074292380319e-16 -1.0 4.440892098500626e-16
  outer loop
    vertex 3.0000000000000018 5.938999292354195e-15 19.999999999999993
    vertex 9.861163358298606e-16 3.727226860483767e-15 14.999999999999998
    vertex 3.000000000000004 1.6122519985728435e-15 14.999999999999998
  endloop
endfacet
facet normal -5.693074292380319e-16 -1.0 4.440892098500626e-16
  outer loop
    vertex 9.861163358298606e-16 3.727226860483767e-15 14.999999999999998
    vertex 3.0000000000000018 5.938999292354195e-15 19.999999999999993
    vertex 1.0111001508117848e-15 7.348982533628143e-15 19.999999999999993
  endloop
endfacet
facet normal 1.0 1.6574496294887857e-17 6.459142420778684e-17
  outer loop
    vertex 16.0 -9.99999999999999 9.999999999999998
    vertex 15.999999999999998 -8.738895448118054 13.408524825540068
    vertex 15.999999999999998 -9.99999999999999 13.408524825540038
  endloop
endfacet
facet normal 1.0 1.6574496294887857e-17 6.459142420778684e-17
  outer loop
    vertex 15.999999999999998 -8.738895448118054 13.408524825540068
    vertex 16.0 -9.99999999999999 9.999999999999998
    vertex 15.999999999999998 -7.915475947422644 12.807540087628936
  endloop
endfacet
facet normal 1.0 1.6574496294887857e-17 6.459142420778684e-17
  outer loop
    vertex 15.999999999999998 -7.915475947422644 12.807540087628936
    vertex 16.0 -9.99999999999999 9.999999999999998
    vertex 15.999999999999998 -6.997703766585563 12.363809816620563
  endloop
endfacet
facet normal 1.0 1.6574496294887857e-17 6.459142420778684e-17
  outer loop
    vertex 15.999999999999998 -6.997703766585563 12.363809816620563
    vertex 16.0 -9.99999999999999 9.999999999999998
    vertex 15.999999999999998 -6.015280493472074 12.091694323175966
  endloop
endfacet
facet normal 1.0 1.6574496294887857e-17 6.459142420778684e-17
  outer loop
    vertex 15.999999999999998 -6.015280493472074 12.091694323175966
    vertex 16.0 -9.99999999999999 9.999999999999998
    vertex 15.999999999999998 15.000000000000004 10.000000000000004
  endloop
endfacet
facet normal 1.0 1.6574496294887857e-17 6.459142420778684e-17
  outer loop
    vertex 15.999999999999998 -6.015280493472074 12.091694323175966
    vertex 15.999999999999998 15.000000000000004 10.000000000000004
    vertex 15.999999999999998 -4.999999999999997 11.999999999999995
  endloop
endfacet
facet normal 1.0 1.6574496294887857e-17 6.459142420778684e-17
  outer loop
    vertex 15.999999999999998 -4.999999999999997 11.999999999999995
    vertex 15.999999999999998 15.000000000000004 10.000000000000004
    vertex 15.999999999999998 -3.984719506527914 12.091694323175963
  endloop
endfacet
facet normal 1.0 1.6574496294887857e-17 6.459142420778684e-17
  outer loop
    vertex 15.999999999999998 -3.984719506527914 12.091694323175963
    vertex 15.999999999999998 15.000000000000004 10.000000000000004
    vertex 15.999999999999998 -3.0022962334144276 12.363809816620567
  endloop
endfacet
facet normal 1.0 1.6574496294887857e-17 6.459142420778684e-17
  outer loop
    vertex 15.999999999999998 -3.0022962334144276 12.363809816620567
    vertex 15.999999999999998 15.000000000000004 10.000000000000004
    vertex 15.999999999999998 -2.0845240525773447 12.80754008762892
  endloop
endfacet
facet normal 1.0 1.6574496294887857e-17 6.459142420778684e-17
  outer loop
    vertex 15.999999999999998 -2.0845240525773447 12.80754008762892
    vertex 15.999999999999998 15.000000000000004 10.000000000000004
    vertex 15.999999999999998 -1.2611045518819288 13.408524825540054
  endloop
endfacet
facet normal 1.0 1.6574496294887857e-17 6.459142420778684e-17
  outer loop
    vertex 15.999999999999998 -1.2611045518819288 13.408524825540054
    vertex 15.999999999999998 15.000000000000004 10.000000000000004
    vertex 15.999999999999998 -0.558685811495061 14.147314540195689
  endloop
endfacet
facet normal 1.0 1.6574496294887857e-17 6.459142420778684e-17
  outer loop
    vertex 15.999999999999998 -0.558685811495061 14.147314540195689
    vertex 15.999999999999998 15.000000000000004 10.000000000000004
    vertex 15.999999999999998 3.154421168716225e-15 14.999999999999998
  endloop
endfacet
facet normal 1.0 1.6574496294887857e-17 6.459142420778684e-17
  outer loop
    vertex 15.999999999999998 3.154421168716225e-15 14.999999999999998
    vertex 15.999999999999998 15.000000000000004 10.000000000000004
    vertex 15.999999999999998 3.4274666438349722e-15 19.99999999999999
  endloop
endfacet
facet normal 1.0 1.6574496294887857e-17 6.459142420778684e-17
  outer loop
    vertex 15.999999999999998 3.4274666438349722e-15 19.99999999999999
    vertex 15.999999999999998 15.000000000000004 10.000000000000004
    vertex 15.999999999999998 15.000000000000004 19.999999999999993
  endloop
endfacet
facet normal -8.819828272225859e-17 -1.0 5.551115123125783e-17
  outer loop
    vertex 15.999999999999998 -9.99999999999999 13.408524825540038
    vertex 7.914969362535116e-17 -9.99999999999999 10.000000000000002
    vertex 16.0 -9.99999999999999 9.999999999999998
  endloop
endfacet
facet normal -8.819828272225859e-17 -1.0 5.551115123125783e-17
  outer loop
    vertex 7.914969362535116e-17 -9.99999999999999 10.000000000000002
    vertex 15.999999999999998 -9.99999999999999 13.408524825540038
    vertex -1.1187036217014236e-15 -9.999999999999986 13.408524825540038
  endloop
endfacet
facet normal 2.0490813799140197e-16 0.5895401497526332 0.8077390741010632
  outer loop
    vertex -1.0074763658922147e-15 -8.738895448118054 13.408524825540075
    vertex 15.999999999999998 -7.915475947422644 12.807540087628936
    vertex -1.0486235777106612e-15 -7.915475947422644 12.807540087628936
  endloop
endfacet
facet normal 2.0490813799140197e-16 0.5895401497526332 0.8077390741010632
  outer loop
    vertex 15.999999999999998 -7.915475947422644 12.807540087628936
    vertex -1.0074763658922147e-15 -8.738895448118054 13.408524825540075
    vertex 15.999999999999998 -8.738895448118054 13.408524825540068
  endloop
endfacet
facet normal 2.0882428617439146e-16 0.43528028902911026 0.9002949905351769
  outer loop
    vertex -1.0486235777106612e-15 -7.915475947422644 12.807540087628936
    vertex 15.999999999999998 -6.997703766585563 12.363809816620563
    vertex -1.0516794697190187e-15 -6.997703766585561 12.363809816620563
  endloop
endfacet
facet normal 2.0882428617439146e-16 0.43528028902911026 0.9002949905351769
  outer loop
    vertex 15.999999999999998 -6.997703766585563 12.363809816620563
    vertex -1.0486235777106612e-15 -7.915475947422644 12.807540087628936
    vertex 15.999999999999998 -7.915475947422644 12.807540087628936
  endloop
endfacet
facet normal 2.0598231615145263e-16 0.26693358189581257 0.9637149282107605
  outer loop
    vertex 15.999999999999998 -6.997703766585563 12.363809816620563
    vertex -1.0165451449939662e-15 -6.015280493472073 12.09169432317597
    vertex -1.0516794697190187e-15 -6.997703766585561 12.363809816620563
  endloop
endfacet
facet normal 2.0598231615145263e-16 0.26693358189581257 0.9637149282107605
  outer loop
    vertex -1.0165451449939662e-15 -6.015280493472073 12.09169432317597
    vertex 15.999999999999998 -6.997703766585563 12.363809816620563
    vertex 15.999999999999998 -6.015280493472074 12.091694323175966
  endloop
endfacet
facet normal 1.9647420175237515e-16 0.08994818271843985 0.9959464465651005
  outer loop
    vertex 15.999999999999998 -6.015280493472074 12.091694323175966
    vertex -9.443576452270029e-16 -4.999999999999991 12.0
    vertex -1.0165451449939662e-15 -6.015280493472073 12.09169432317597
  endloop
endfacet
facet normal 1.9647420175237515e-16 0.08994818271843985 0.9959464465651005
  outer loop
    vertex -9.443576452270029e-16 -4.999999999999991 12.0
    vertex 15.999999999999998 -6.015280493472074 12.091694323175966
    vertex 15.999999999999998 -4.999999999999997 11.999999999999995
  endloop
endfacet
facet normal 1.8060765125286647e-16 -0.08994818271844018 0.9959464465651002
  outer loop
    vertex 15.999999999999998 -4.999999999999997 11.999999999999995
    vertex -8.374531529826783e-16 -3.984719506527912 12.091694323175965
    vertex -9.443576452270029e-16 -4.999999999999991 12.0
  endloop
endfacet
facet normal 1.8060765125286647e-16 -0.08994818271844018 0.9959464465651002
  outer loop
    vertex -8.374531529826783e-16 -3.984719506527912 12.091694323175965
    vertex 15.999999999999998 -4.999999999999997 11.999999999999995
    vertex 15.999999999999998 -3.984719506527914 12.091694323175963
  endloop
endfacet
facet normal 1.588961491032287e-16 -0.2669335818958122 0.9637149282107609
  outer loop
    vertex 15.999999999999998 -3.984719506527914 12.091694323175963
    vertex -6.992913865177495e-16 -3.0022962334144263 12.363809816620574
    vertex -8.374531529826783e-16 -3.984719506527912 12.091694323175965
  endloop
endfacet
facet normal 1.588961491032287e-16 -0.2669335818958122 0.9637149282107609
  outer loop
    vertex -6.992913865177495e-16 -3.0022962334144263 12.363809816620574
    vertex 15.999999999999998 -3.984719506527914 12.091694323175963
    vertex 15.999999999999998 -3.0022962334144276 12.363809816620567
  endloop
endfacet
facet normal 1.3204233818396027e-16 -0.4352802890291089 0.9002949905351776
  outer loop
    vertex 15.999999999999998 -3.0022962334144276 12.363809816620567
    vertex -5.343436339492075e-16 -2.084524052577344 12.80754008762892
    vertex -6.992913865177495e-16 -3.0022962334144263 12.363809816620574
  endloop
endfacet
facet normal 1.3204233818396027e-16 -0.4352802890291089 0.9002949905351776
  outer loop
    vertex -5.343436339492075e-16 -2.084524052577344 12.80754008762892
    vertex 15.999999999999998 -3.0022962334144276 12.363809816620567
    vertex 15.999999999999998 -2.0845240525773447 12.80754008762892
  endloop
endfacet
facet normal 1.5864231178384554e-17 -0.5895401497526349 0.807739074101062
  outer loop
    vertex 15.999999999999998 -2.0845240525773447 12.80754008762892
    vertex -3.479480502880494e-16 -1.2611045518819275 13.408524825540061
    vertex -5.343436339492075e-16 -2.084524052577344 12.80754008762892
  endloop
endfacet
facet normal 1.5864231178384554e-17 -0.5895401497526349 0.807739074101062
  outer loop
    vertex -3.479480502880494e-16 -1.2611045518819275 13.408524825540061
    vertex 15.999999999999998 -2.0845240525773447 12.80754008762892
    vertex 3.0 -1.2611045518819304 13.408524825540061
  endloop
endfacet
facet normal 1.5864231178384554e-17 -0.5895401497526349 0.807739074101062
  outer loop
    vertex 3.0 -1.2611045518819304 13.408524825540061
    vertex 15.999999999999998 -2.0845240525773447 12.80754008762892
    vertex 12.999999999999991 -1.2611045518819395 13.408524825540054
  endloop
endfacet
facet normal 1.5864231178384554e-17 -0.5895401497526349 0.807739074101062
  outer loop
    vertex 12.999999999999991 -1.2611045518819395 13.408524825540054
    vertex 15.999999999999998 -2.0845240525773447 12.80754008762892
    vertex 15.999999999999998 -1.2611045518819288 13.408524825540054
  endloop
endfacet
facet normal 3.6875781758889575e-17 -0.8364477198075856 0.5480467243116147
  outer loop
    vertex 15.999999999999998 -0.558685811495061 14.147314540195689
    vertex 12.999999999999993 1.9206858326015197e-15 14.999999999999998
    vertex 12.999999999999991 -0.5586858114950732 14.147314540195682
  endloop
endfacet
facet normal 3.6875781758889575e-17 -0.8364477198075856 0.5480467243116147
  outer loop
    vertex 12.999999999999993 1.9206858326015197e-15 14.999999999999998
    vertex 15.999999999999998 -0.558685811495061 14.147314540195689
    vertex 15.999999999999998 3.154421168716225e-15 14.999999999999998
  endloop
endfacet
facet normal 1.893082978034371e-16 3.191891195797325e-16 1.0
  outer loop
    vertex 15.999999999999998 -9.99999999999999 13.408524825540038
    vertex -1.0074763658922147e-15 -8.738895448118054 13.408524825540075
    vertex -1.1187036217014236e-15 -9.999999999999986 13.408524825540038
  endloop
endfacet
facet normal 1.893082978034371e-16 3.191891195797325e-16 1.0
  outer loop
    vertex -1.0074763658922147e-15 -8.738895448118054 13.408524825540075
    vertex 15.999999999999998 -9.99999999999999 13.408524825540038
    vertex 15.999999999999998 -8.738895448118054 13.408524825540068
  endloop
endfacet
facet normal -8.819828272225878e-17 -1.0 5.828670879282072e-16
  outer loop
    vertex 12.999999999999988 7.000000000000008 9.999999999999986
    vertex 3.000000000000002 7.0000000000000115 19.999999999999993
    vertex 3.0000000000000075 7.0000000000000115 9.999999999999977
  endloop
endfacet
facet normal -8.819828272225878e-17 -1.0 5.828670879282072e-16
  outer loop
    vertex 3.000000000000002 7.0000000000000115 19.999999999999993
    vertex 12.999999999999988 7.000000000000008 9.999999999999986
    vertex 12.999999999999998 7.000000000000008 20.000000000000007
  endloop
endfacet
facet normal 1.0 -8.819828272225693e-17 3.34584557899269e-16
  outer loop
    vertex 3.0000000000000075 7.0000000000000115 9.999999999999977
    vertex 3.000000000000002 6.000000000000013 19.999999999999996
    vertex 3.0000000000000075 6.00000000000001 9.99999999999998
  endloop
endfacet
facet normal 1.0 -8.819828272225693e-17 3.34584557899269e-16
  outer loop
    vertex 3.000000000000002 6.000000000000013 19.999999999999996
    vertex 3.0000000000000075 7.0000000000000115 9.999999999999977
    vertex 3.000000000000002 7.0000000000000115 19.999999999999993
  endloop
endfacet
facet normal 0.7808688094430313 0.6246950475544233 -1.421796119847992e-16
  outer loop
    vertex 5.000000000000003 3.500000000000005 9.999999999999996
    vertex 3.000000000000002 6.000000000000013 19.999999999999996
    vertex 5.000000000000002 3.5 19.999999999999996
  endloop
endfacet
facet normal 0.7808688094430313 0.6246950475544233 -1.421796119847992e-16
  outer loop
    vertex 3.000000000000002 6.000000000000013 19.999999999999996
    vertex 5.000000000000003 3.500000000000005 9.999999999999996
    vertex 3.0000000000000075 6.00000000000001 9.99999999999998
  endloop
endfacet
facet normal 0.7808688094430303 -0.6246950475544244 7.493328285766819e-16
  outer loop
    vertex 5.000000000000003 3.500000000000005 9.999999999999996
    vertex 3.0000000000000018 1.0000000000000053 19.999999999999993
    vertex 3.0000000000000067 0.9999999999999959 9.99999999999999
  endloop
endfacet
facet normal 0.7808688094430303 -0.6246950475544244 7.493328285766819e-16
  outer loop
    vertex 3.0000000000000018 1.0000000000000053 19.999999999999993
    vertex 5.000000000000003 3.500000000000005 9.999999999999996
    vertex 5.000000000000002 3.5 19.999999999999996
  endloop
endfacet
facet normal 1.0 1.8514035433815405e-16 4.526246271106795e-16
  outer loop
    vertex 3.0000000000000067 0.9999999999999959 9.99999999999999
    vertex 3.0000000000000053 1.3469974747915126e-15 13.408524825540058
    vertex 3.0000000000000067 -1.1282641487753177e-15 9.999999999999991
  endloop
endfacet
facet normal 1.0 1.8514035433815405e-16 4.526246271106795e-16
  outer loop
    vertex 3.0000000000000053 1.3469974747915126e-15 13.408524825540058
    vertex 3.0000000000000067 0.9999999999999959 9.99999999999999
    vertex 3.000000000000004 1.6122519985728435e-15 14.999999999999998
  endloop
endfacet
facet normal 1.0 1.8514035433815405e-16 4.526246271106795e-16
  outer loop
    vertex 3.000000000000004 1.6122519985728435e-15 14.999999999999998
    vertex 3.0000000000000067 0.9999999999999959 9.99999999999999
    vertex 3.0000000000000018 5.938999292354195e-15 19.999999999999993
  endloop
endfacet
facet normal 1.0 1.8514035433815405e-16 4.526246271106795e-16
  outer loop
    vertex 3.0000000000000018 5.938999292354195e-15 19.999999999999993
    vertex 3.0000000000000067 0.9999999999999959 9.99999999999999
    vertex 3.0000000000000018 1.0000000000000053 19.999999999999993
  endloop
endfacet
facet normal -1.0 -3.5222610298476574e-16 1.2962671565402099e-15
  outer loop
    vertex 12.999999999999993 1.9206858326015197e-15 14.999999999999998
    vertex 12.999999999999988 -2.450123437469645e-15 9.99999999999999
    vertex 12.999999999999993 -3.720129798536742e-15 13.408524825540052
  endloop
endfacet
facet normal -1.0 -3.5222610298476574e-16 1.2962671565402099e-15
  outer loop
    vertex 12.999999999999988 -2.450123437469645e-15 9.99999999999999
    vertex 12.999999999999993 1.9206858326015197e-15 14.999999999999998
    vertex 12.999999999999988 0.9999999999999948 9.999999999999988
  endloop
endfacet
facet normal -1.0 -3.5222610298476574e-16 1.2962671565402099e-15
  outer loop
    vertex 12.999999999999988 0.9999999999999948 9.999999999999988
    vertex 12.999999999999993 1.9206858326015197e-15 14.999999999999998
    vertex 12.999999999999998 4.484954074790435e-15 19.999999999999993
  endloop
endfacet
facet normal -1.0 -3.5222610298476574e-16 1.2962671565402099e-15
  outer loop
    vertex 12.999999999999988 0.9999999999999948 9.999999999999988
    vertex 12.999999999999998 4.484954074790435e-15 19.999999999999993
    vertex 12.999999999999998 1.0000000000000029 19.999999999999993
  endloop
endfacet
facet normal -0.7808688094430295 -0.6246950475544252 1.0748514246526348e-16
  outer loop
    vertex 12.999999999999998 1.0000000000000029 19.999999999999993
    vertex 10.99999999999998 3.5000000000000036 9.999999999999995
    vertex 12.999999999999988 0.9999999999999948 9.999999999999988
  endloop
endfacet
facet normal -0.7808688094430295 -0.6246950475544252 1.0748514246526348e-16
  outer loop
    vertex 10.99999999999998 3.5000000000000036 9.999999999999995
    vertex 12.999999999999998 1.0000000000000029 19.999999999999993
    vertex 10.999999999999991 3.5000000000000013 20.000000000000004
  endloop
endfacet
facet normal -0.7808688094430299 0.6246950475544247 -8.013745328559861e-16
  outer loop
    vertex 12.999999999999998 6.000000000000011 20.000000000000004
    vertex 10.99999999999998 3.5000000000000036 9.999999999999995
    vertex 10.999999999999991 3.5000000000000013 20.000000000000004
  endloop
endfacet
facet normal -0.7808688094430299 0.6246950475544247 -8.013745328559861e-16
  outer loop
    vertex 10.99999999999998 3.5000000000000036 9.999999999999995
    vertex 12.999999999999998 6.000000000000011 20.000000000000004
    vertex 12.999999999999988 6.000000000000009 9.99999999999999
  endloop
endfacet
facet normal -1.0 8.819828272225841e-17 -3.345845578992691e-16
  outer loop
    vertex 12.999999999999998 6.000000000000011 20.000000000000004
    vertex 12.999999999999988 7.000000000000008 9.999999999999986
    vertex 12.999999999999988 6.000000000000009 9.99999999999999
  endloop
endfacet
facet normal -1.0 8.819828272225841e-17 -3.345845578992691e-16
  outer loop
    vertex 12.999999999999988 7.000000000000008 9.999999999999986
    vertex 12.999999999999998 6.000000000000011 20.000000000000004
    vertex 12.999999999999998 7.000000000000008 20.000000000000007
  endloop
endfacet
facet normal 3.929108637935154e-16 -1.0 4.440892098500626e-16
  outer loop
    vertex 15.999999999999998 3.4274666438349722e-15 19.99999999999999
    vertex 12.999999999999993 1.9206858326015197e-15 14.999999999999998
    vertex 15.999999999999998 3.154421168716225e-15 14.999999999999998
  endloop
endfacet
facet normal 3.929108637935154e-16 -1.0 4.440892098500626e-16
  outer loop
    vertex 12.999999999999993 1.9206858326015197e-15 14.999999999999998
    vertex 15.999999999999998 3.4274666438349722e-15 19.99999999999999
    vertex 12.999999999999998 4.484954074790435e-15 19.999999999999993
  endloop
endfacet
facet normal 2.9597835769787055e-16 1.0 -3.191891195797325e-16
  outer loop
    vertex 3.0000000000000067 -1.1282641487753177e-15 9.999999999999991
    vertex 12.999999999999993 -3.720129798536742e-15 13.408524825540052
    vertex 12.999999999999988 -2.450123437469645e-15 9.99999999999999
  endloop
endfacet
facet normal 2.9597835769787055e-16 1.0 -3.191891195797325e-16
  outer loop
    vertex 12.999999999999993 -3.720129798536742e-15 13.408524825540052
    vertex 3.0000000000000067 -1.1282641487753177e-15 9.999999999999991
    vertex 3.0000000000000053 1.3469974747915126e-15 13.408524825540058
  endloop
endfacet
facet normal -1.0 1.3193342620519073e-16 4.964834715980237e-17
  outer loop
    vertex 7.914969362535116e-17 -9.99999999999999 10.000000000000002
    vertex -1.0165451449939662e-15 -6.015280493472073 12.09169432317597
    vertex 2.3340743916456614e-15 15.000000000000009 10.000000000000004
  endloop
endfacet
facet normal -1.0 1.3193342620519073e-16 4.964834715980237e-17
  outer loop
    vertex -1.0165451449939662e-15 -6.015280493472073 12.09169432317597
    vertex 7.914969362535116e-17 -9.99999999999999 10.000000000000002
    vertex -1.0516794697190187e-15 -6.997703766585561 12.363809816620563
  endloop
endfacet
facet normal -1.0 1.3193342620519073e-16 4.964834715980237e-17
  outer loop
    vertex -1.0516794697190187e-15 -6.997703766585561 12.363809816620563
    vertex 7.914969362535116e-17 -9.99999999999999 10.000000000000002
    vertex -1.1187036217014236e-15 -9.999999999999986 13.408524825540038
  endloop
endfacet
facet normal -1.0 1.3193342620519073e-16 4.964834715980237e-17
  outer loop
    vertex -1.0516794697190187e-15 -6.997703766585561 12.363809816620563
    vertex -1.1187036217014236e-15 -9.999999999999986 13.408524825540038
    vertex -1.0486235777106612e-15 -7.915475947422644 12.807540087628936
  endloop
endfacet
facet normal -1.0 1.3193342620519073e-16 4.964834715980237e-17
  outer loop
    vertex -1.0486235777106612e-15 -7.915475947422644 12.807540087628936
    vertex -1.1187036217014236e-15 -9.999999999999986 13.408524825540038
    vertex -1.0074763658922147e-15 -8.738895448118054 13.408524825540075
  endloop
endfacet
facet normal -1.0 1.3193342620519073e-16 4.964834715980237e-17
  outer loop
    vertex 2.3340743916456614e-15 15.000000000000009 10.000000000000004
    vertex -1.0165451449939662e-15 -6.015280493472073 12.09169432317597
    vertex -9.443576452270029e-16 -4.999999999999991 12.0
  endloop
endfacet
facet normal -1.0 1.3193342620519073e-16 4.964834715980237e-17
  outer loop
    vertex 2.3340743916456614e-15 15.000000000000009 10.000000000000004
    vertex -9.443576452270029e-16 -4.999999999999991 12.0
    vertex -8.374531529826783e-16 -3.984719506527912 12.091694323175965
  endloop
endfacet
facet normal -1.0 1.3193342620519073e-16 4.964834715980237e-17
  outer loop
    vertex 2.3340743916456614e-15 15.000000000000009 10.000000000000004
    vertex -8.374531529826783e-16 -3.984719506527912 12.091694323175965
    vertex -6.992913865177495e-16 -3.0022962334144263 12.363809816620574
  endloop
endfacet
facet normal -1.0 1.3193342620519073e-16 4.964834715980237e-17
  outer loop
    vertex 2.3340743916456614e-15 15.000000000000009 10.000000000000004
    vertex -6.992913865177495e-16 -3.0022962334144263 12.363809816620574
    vertex -5.343436339492075e-16 -2.084524052577344 12.80754008762892
  endloop
endfacet
facet normal -1.0 1.3193342620519073e-16 4.964834715980237e-17
  outer loop
    vertex 2.3340743916456614e-15 15.000000000000009 10.000000000000004
    vertex -5.343436339492075e-16 -2.084524052577344 12.80754008762892
    vertex -3.479480502880494e-16 -1.2611045518819275 13.408524825540061
  endloop
endfacet
facet normal -1.0 1.3193342620519073e-16 4.964834715980237e-17
  outer loop
    vertex 2.3340743916456614e-15 15.000000000000009 10.000000000000004
    vertex -3.479480502880494e-16 -1.2611045518819275 13.408524825540061
    vertex -1.461369003178529e-16 -0.5586858114950597 14.147314540195689
  endloop
endfacet
facet normal -1.0 1.3193342620519073e-16 4.964834715980237e-17
  outer loop
    vertex 2.3340743916456614e-15 15.000000000000009 10.000000000000004
    vertex -1.461369003178529e-16 -0.5586858114950597 14.147314540195689
    vertex 9.861163358298606e-16 3.727226860483767e-15 14.999999999999998
  endloop
endfacet
facet normal -1.0 1.3193342620519073e-16 4.964834715980237e-17
  outer loop
    vertex 2.3340743916456614e-15 15.000000000000009 10.000000000000004
    vertex 9.861163358298606e-16 3.727226860483767e-15 14.999999999999998
    vertex 1.0111001508117848e-15 7.348982533628143e-15 19.999999999999993
  endloop
endfacet
facet normal -1.0 1.3193342620519073e-16 4.964834715980237e-17
  outer loop
    vertex 2.3340743916456614e-15 15.000000000000009 10.000000000000004
    vertex 1.0111001508117848e-15 7.348982533628143e-15 19.999999999999993
    vertex 2.3340743916456614e-15 15.000000000000009 19.999999999999993
  endloop
endfacet
facet normal -2.0285999931791875e-18 -0.7247208981173492 0.689042538477838
  outer loop
    vertex 15.999999999999998 -0.558685811495061 14.147314540195689
    vertex 12.999999999999991 -1.2611045518819395 13.408524825540054
    vertex 15.999999999999998 -1.2611045518819288 13.408524825540054
  endloop
endfacet
facet normal -2.0285999931791875e-18 -0.7247208981173492 0.689042538477838
  outer loop
    vertex 12.999999999999991 -1.2611045518819395 13.408524825540054
    vertex 15.999999999999998 -0.558685811495061 14.147314540195689
    vertex 12.999999999999991 -0.5586858114950732 14.147314540195682
  endloop
endfacet
facet normal 1.0 -4.410864078260441e-15 1.0407693141811696e-15
  outer loop
    vertex 3.0000000000000053 1.3469974747915126e-15 13.408524825540058
    vertex 3.0000000000000004 -0.558685811495064 14.147314540195682
    vertex 3.0 -1.2611045518819304 13.408524825540061
  endloop
endfacet
facet normal 1.0 -4.410864078260441e-15 1.0407693141811696e-15
  outer loop
    vertex 3.0000000000000004 -0.558685811495064 14.147314540195682
    vertex 3.0000000000000053 1.3469974747915126e-15 13.408524825540058
    vertex 3.000000000000004 1.6122519985728435e-15 14.999999999999998
  endloop
endfacet
facet normal -5.965755492877312e-16 -0.8364477198075868 0.5480467243116126
  outer loop
    vertex 3.000000000000004 1.6122519985728435e-15 14.999999999999998
    vertex -1.461369003178529e-16 -0.5586858114950597 14.147314540195689
    vertex 3.0000000000000004 -0.558685811495064 14.147314540195682
  endloop
endfacet
facet normal -5.965755492877312e-16 -0.8364477198075868 0.5480467243116126
  outer loop
    vertex -1.461369003178529e-16 -0.5586858114950597 14.147314540195689
    vertex 3.000000000000004 1.6122519985728435e-15 14.999999999999998
    vertex 9.861163358298606e-16 3.727226860483767e-15 14.999999999999998
  endloop
endfacet
facet normal -4.96733869809636e-16 -0.7247208981173492 0.689042538477838
  outer loop
    vertex 3.0000000000000004 -0.558685811495064 14.147314540195682
    vertex -3.479480502880494e-16 -1.2611045518819275 13.408524825540061
    vertex 3.0 -1.2611045518819304 13.408524825540061
  endloop
endfacet
facet normal -4.96733869809636e-16 -0.7247208981173492 0.689042538477838
  outer loop
    vertex -3.479480502880494e-16 -1.2611045518819275 13.408524825540061
    vertex 3.0000000000000004 -0.558685811495064 14.147314540195682
    vertex -1.461369003178529e-16 -0.5586858114950597 14.147314540195689
  endloop
endfacet
facet normal -1.0 2.6314264004237462e-15 -6.879058805336646e-17
  outer loop
    vertex 12.999999999999991 -0.5586858114950732 14.147314540195682
    vertex 12.999999999999993 -3.720129798536742e-15 13.408524825540052
    vertex 12.999999999999991 -1.2611045518819395 13.408524825540054
  endloop
endfacet
facet normal -1.0 2.6314264004237462e-15 -6.879058805336646e-17
  outer loop
    vertex 12.999999999999993 -3.720129798536742e-15 13.408524825540052
    vertex 12.999999999999991 -0.5586858114950732 14.147314540195682
    vertex 12.999999999999993 1.9206858326015197e-15 14.999999999999998
  endloop
endfacet
facet normal 1.893082978034371e-16 3.191891195797325e-16 1.0
  outer loop
    vertex 12.999999999999991 -1.2611045518819395 13.408524825540054
    vertex 3.0000000000000053 1.3469974747915126e-15 13.408524825540058
    vertex 3.0 -1.2611045518819304 13.408524825540061
  endloop
endfacet
facet normal 1.893082978034371e-16 3.191891195797325e-16 1.0
  outer loop
    vertex 3.0000000000000053 1.3469974747915126e-15 13.408524825540058
    vertex 12.999999999999991 -1.2611045518819395 13.408524825540054
    vertex 12.999999999999993 -3.720129798536742e-15 13.408524825540052
  endloop
endfacet
facet normal 4.699944137579831e-16 1.0 -1.1596974320594873e-33
  outer loop
    vertex 5.000000000000002 20.000000000000007 19.999999999999993
    vertex 11.0 20.000000000000007 10.000000000000004
    vertex 5.000000000000002 20.000000000000007 10.000000000000004
  endloop
endfacet
facet normal 4.699944137579831e-16 1.0 -1.1596974320594873e-33
  outer loop
    vertex 11.0 20.000000000000007 10.000000000000004
    vertex 5.000000000000002 20.000000000000007 19.999999999999993
    vertex 11.0 20.000000000000007 19.999999999999993
  endloop
endfacet
facet normal -0.13052619222005032 -0.9914448613738106 -0.0
  outer loop
    vertex 8.802339039817815 17.99437006149612 19.999999999999993
    vertex 8.0 18.100000000000005 10.000000000000021
    vertex 8.802339039817815 17.99437006149612 10.000000000000021
  endloop
endfacet
facet normal -0.13052619222005032 -0.9914448613738106 -0.0
  outer loop
    vertex 8.0 18.100000000000005 10.000000000000021
    vertex 8.802339039817815 17.99437006149612 19.999999999999993
    vertex 8.0 18.100000000000005 19.999999999999993
  endloop
endfacet
facet normal 0.1305261922200533 -0.9914448613738102 -0.0
  outer loop
    vertex 8.0 18.100000000000005 19.999999999999993
    vertex 7.1976609601821835 17.994370061496117 10.000000000000021
    vertex 8.0 18.100000000000005 10.000000000000021
  endloop
endfacet
facet normal 0.1305261922200533 -0.9914448613738102 -0.0
  outer loop
    vertex 7.1976609601821835 17.994370061496117 10.000000000000021
    vertex 8.0 18.100000000000005 19.999999999999993
    vertex 7.1976609601821835 17.994370061496117 19.999999999999993
  endloop
endfacet
facet normal 0.382683432365091 -0.9238795325112863 -0.0
  outer loop
    vertex 7.1976609601821835 17.994370061496117 19.999999999999993
    vertex 6.449999999999999 17.684678751731763 10.000000000000021
    vertex 7.1976609601821835 17.994370061496117 10.000000000000021
  endloop
endfacet
facet normal 0.382683432365091 -0.9238795325112863 -0.0
  outer loop
    vertex 6.449999999999999 17.684678751731763 10.000000000000021
    vertex 7.1976609601821835 17.994370061496117 19.999999999999993
    vertex 6.449999999999999 17.684678751731763 19.999999999999993
  endloop
endfacet
facet normal 0.6087614290087199 -0.7933533402912358 -0.0
  outer loop
    vertex 6.449999999999999 17.684678751731763 19.999999999999993
    vertex 5.807968978321703 17.192031021678304 10.000000000000021
    vertex 6.449999999999999 17.684678751731763 10.000000000000021
  endloop
endfacet
facet normal 0.6087614290087199 -0.7933533402912358 -0.0
  outer loop
    vertex 5.807968978321703 17.192031021678304 10.000000000000021
    vertex 6.449999999999999 17.684678751731763 19.999999999999993
    vertex 5.807968978321703 17.192031021678304 19.999999999999993
  endloop
endfacet
facet normal 0.7933533402912359 -0.6087614290087199 -0.0
  outer loop
    vertex 5.807968978321703 17.192031021678304 10.000000000000021
    vertex 5.31532124826824 16.550000000000004 19.999999999999993
    vertex 5.31532124826824 16.550000000000004 10.000000000000021
  endloop
endfacet
facet normal 0.7933533402912359 -0.6087614290087199 -0.0
  outer loop
    vertex 5.31532124826824 16.550000000000004 19.999999999999993
    vertex 5.807968978321703 17.192031021678304 10.000000000000021
    vertex 5.807968978321703 17.192031021678304 19.999999999999993
  endloop
endfacet
facet normal 0.9238795325112868 -0.38268343236508956 -0.0
  outer loop
    vertex 5.31532124826824 16.550000000000004 10.000000000000021
    vertex 5.005629938503889 15.80233903981782 19.999999999999993
    vertex 5.005629938503889 15.80233903981782 10.000000000000021
  endloop
endfacet
facet normal 0.9238795325112868 -0.38268343236508956 -0.0
  outer loop
    vertex 5.005629938503889 15.80233903981782 19.999999999999993
    vertex 5.31532124826824 16.550000000000004 10.000000000000021
    vertex 5.31532124826824 16.550000000000004 19.999999999999993
  endloop
endfacet
facet normal 0.9914448613738104 -0.1305261922200514 -0.0
  outer loop
    vertex 5.005629938503889 15.80233903981782 10.000000000000021
    vertex 4.900000000000001 15.000000000000007 19.999999999999993
    vertex 4.900000000000001 15.000000000000007 10.000000000000021
  endloop
endfacet
facet normal 0.9914448613738104 -0.1305261922200514 -0.0
  outer loop
    vertex 4.900000000000001 15.000000000000007 19.999999999999993
    vertex 5.005629938503889 15.80233903981782 10.000000000000021
    vertex 5.005629938503889 15.80233903981782 19.999999999999993
  endloop
endfacet
facet normal 0.9914448613738104 0.13052619222005182 0.0
  outer loop
    vertex 4.900000000000001 15.000000000000007 10.000000000000021
    vertex 5.00562993850389 14.19766096018219 19.999999999999993
    vertex 5.00562993850389 14.19766096018219 10.000000000000021
  endloop
endfacet
facet normal 0.9914448613738104 0.13052619222005182 0.0
  outer loop
    vertex 5.00562993850389 14.19766096018219 19.999999999999993
    vertex 4.900000000000001 15.000000000000007 10.000000000000021
    vertex 4.900000000000001 15.000000000000007 19.999999999999993
  endloop
endfacet
facet normal 0.9238795325112868 0.38268343236508984 0.0
  outer loop
    vertex 5.00562993850389 14.19766096018219 10.000000000000021
    vertex 5.315321248268242 13.450000000000003 19.999999999999993
    vertex 5.315321248268242 13.450000000000003 10.000000000000021
  endloop
endfacet
facet normal 0.9238795325112868 0.38268343236508984 0.0
  outer loop
    vertex 5.315321248268242 13.450000000000003 19.999999999999993
    vertex 5.00562993850389 14.19766096018219 10.000000000000021
    vertex 5.00562993850389 14.19766096018219 19.999999999999993
  endloop
endfacet
facet normal 0.793353340291235 0.608761429008721 0.0
  outer loop
    vertex 5.315321248268242 13.450000000000003 10.000000000000021
    vertex 5.807968978321704 12.807968978321707 19.999999999999993
    vertex 5.807968978321704 12.807968978321707 10.000000000000021
  endloop
endfacet
facet normal 0.793353340291235 0.608761429008721 0.0
  outer loop
    vertex 5.807968978321704 12.807968978321707 19.999999999999993
    vertex 5.315321248268242 13.450000000000003 10.000000000000021
    vertex 5.315321248268242 13.450000000000003 19.999999999999993
  endloop
endfacet
facet normal 0.608761429008719 0.7933533402912364 0.0
  outer loop
    vertex 5.807968978321704 12.807968978321707 19.999999999999993
    vertex 6.450000000000002 12.315321248268246 10.000000000000021
    vertex 5.807968978321704 12.807968978321707 10.000000000000021
  endloop
endfacet
facet normal 0.608761429008719 0.7933533402912364 0.0
  outer loop
    vertex 6.450000000000002 12.315321248268246 10.000000000000021
    vertex 5.807968978321704 12.807968978321707 19.999999999999993
    vertex 6.450000000000002 12.315321248268246 19.999999999999993
  endloop
endfacet
facet normal 0.3826834323650905 0.9238795325112866 0.0
  outer loop
    vertex 6.450000000000002 12.315321248268246 19.999999999999993
    vertex 7.197660960182188 12.005629938503894 10.000000000000021
    vertex 6.450000000000002 12.315321248268246 10.000000000000021
  endloop
endfacet
facet normal 0.3826834323650905 0.9238795325112866 0.0
  outer loop
    vertex 7.197660960182188 12.005629938503894 10.000000000000021
    vertex 6.450000000000002 12.315321248268246 19.999999999999993
    vertex 7.197660960182188 12.005629938503894 19.999999999999993
  endloop
endfacet
facet normal 0.13052619222005057 0.9914448613738106 0.0
  outer loop
    vertex 7.197660960182188 12.005629938503894 19.999999999999993
    vertex 8.0 11.900000000000006 10.000000000000021
    vertex 7.197660960182188 12.005629938503894 10.000000000000021
  endloop
endfacet
facet normal 0.13052619222005057 0.9914448613738106 0.0
  outer loop
    vertex 8.0 11.900000000000006 10.000000000000021
    vertex 7.197660960182188 12.005629938503894 19.999999999999993
    vertex 8.0 11.900000000000006 19.999999999999993
  endloop
endfacet
facet normal -0.13052619222005205 0.9914448613738104 -0.0
  outer loop
    vertex 8.0 11.900000000000006 19.999999999999993
    vertex 8.802339039817815 12.005629938503896 10.000000000000021
    vertex 8.0 11.900000000000006 10.000000000000021
  endloop
endfacet
facet normal -0.13052619222005205 0.9914448613738104 -0.0
  outer loop
    vertex 8.802339039817815 12.005629938503896 10.000000000000021
    vertex 8.0 11.900000000000006 19.999999999999993
    vertex 8.802339039817815 12.005629938503896 19.999999999999993
  endloop
endfacet
facet normal -0.38268343236508984 0.9238795325112868 -0.0
  outer loop
    vertex 8.802339039817815 12.005629938503896 19.999999999999993
    vertex 9.550000000000002 12.315321248268248 10.000000000000021
    vertex 8.802339039817815 12.005629938503896 10.000000000000021
  endloop
endfacet
facet normal -0.38268343236508984 0.9238795325112868 -0.0
  outer loop
    vertex 9.550000000000002 12.315321248268248 10.000000000000021
    vertex 8.802339039817815 12.005629938503896 19.999999999999993
    vertex 9.550000000000002 12.315321248268248 19.999999999999993
  endloop
endfacet
facet normal -0.608761429008721 0.793353340291235 -0.0
  outer loop
    vertex 9.550000000000002 12.315321248268248 19.999999999999993
    vertex 10.192031021678298 12.80796897832171 10.000000000000021
    vertex 9.550000000000002 12.315321248268248 10.000000000000021
  endloop
endfacet
facet normal -0.608761429008721 0.793353340291235 -0.0
  outer loop
    vertex 10.192031021678298 12.80796897832171 10.000000000000021
    vertex 9.550000000000002 12.315321248268248 19.999999999999993
    vertex 10.192031021678298 12.80796897832171 19.999999999999993
  endloop
endfacet
facet normal -0.793353340291235 0.608761429008721 -0.0
  outer loop
    vertex 10.684678751731761 13.450000000000006 19.999999999999993
    vertex 10.192031021678298 12.80796897832171 10.000000000000021
    vertex 10.192031021678298 12.80796897832171 19.999999999999993
  endloop
endfacet
facet normal -0.793353340291235 0.608761429008721 -0.0
  outer loop
    vertex 10.192031021678298 12.80796897832171 10.000000000000021
    vertex 10.684678751731761 13.450000000000006 19.999999999999993
    vertex 10.684678751731761 13.450000000000006 10.000000000000021
  endloop
endfacet
facet normal -0.9238795325112873 0.3826834323650883 -0.0
  outer loop
    vertex 10.994370061496111 14.197660960182192 19.999999999999993
    vertex 10.684678751731761 13.450000000000006 10.000000000000021
    vertex 10.684678751731761 13.450000000000006 19.999999999999993
  endloop
endfacet
facet normal -0.9238795325112873 0.3826834323650883 -0.0
  outer loop
    vertex 10.684678751731761 13.450000000000006 10.000000000000021
    vertex 10.994370061496111 14.197660960182192 19.999999999999993
    vertex 10.994370061496111 14.197660960182192 10.000000000000021
  endloop
endfacet
facet normal -0.9914448613738104 0.13052619222005227 -0.0
  outer loop
    vertex 11.100000000000001 15.000000000000007 19.999999999999993
    vertex 10.994370061496111 14.197660960182192 10.000000000000021
    vertex 10.994370061496111 14.197660960182192 19.999999999999993
  endloop
endfacet
facet normal -0.9914448613738104 0.13052619222005227 -0.0
  outer loop
    vertex 10.994370061496111 14.197660960182192 10.000000000000021
    vertex 11.100000000000001 15.000000000000007 19.999999999999993
    vertex 11.100000000000001 15.000000000000007 10.000000000000021
  endloop
endfacet
facet normal -0.9914448613738104 -0.13052619222005182 -0.0
  outer loop
    vertex 10.994370061496111 15.802339039817822 19.999999999999993
    vertex 11.100000000000001 15.000000000000007 10.000000000000021
    vertex 11.100000000000001 15.000000000000007 19.999999999999993
  endloop
endfacet
facet normal -0.9914448613738104 -0.13052619222005182 -0.0
  outer loop
    vertex 11.100000000000001 15.000000000000007 10.000000000000021
    vertex 10.994370061496111 15.802339039817822 19.999999999999993
    vertex 10.994370061496111 15.802339039817822 10.000000000000021
  endloop
endfacet
facet normal -0.9238795325112863 -0.382683432365091 -0.0
  outer loop
    vertex 10.68467875173176 16.550000000000008 19.999999999999993
    vertex 10.994370061496111 15.802339039817822 10.000000000000021
    vertex 10.994370061496111 15.802339039817822 19.999999999999993
  endloop
endfacet
facet normal -0.9238795325112863 -0.382683432365091 -0.0
  outer loop
    vertex 10.994370061496111 15.802339039817822 10.000000000000021
    vertex 10.68467875173176 16.550000000000008 19.999999999999993
    vertex 10.68467875173176 16.550000000000008 10.000000000000021
  endloop
endfacet
facet normal -0.7933533402912358 -0.6087614290087199 -0.0
  outer loop
    vertex 10.192031021678298 17.192031021678304 19.999999999999993
    vertex 10.68467875173176 16.550000000000008 10.000000000000021
    vertex 10.68467875173176 16.550000000000008 19.999999999999993
  endloop
endfacet
facet normal -0.7933533402912358 -0.6087614290087199 -0.0
  outer loop
    vertex 10.68467875173176 16.550000000000008 10.000000000000021
    vertex 10.192031021678298 17.192031021678304 19.999999999999993
    vertex 10.192031021678298 17.192031021678304 10.000000000000021
  endloop
endfacet
facet normal -0.6087614290087212 -0.7933533402912347 -0.0
  outer loop
    vertex 10.192031021678298 17.192031021678304 19.999999999999993
    vertex 9.55 17.684678751731767 10.000000000000021
    vertex 10.192031021678298 17.192031021678304 10.000000000000021
  endloop
endfacet
facet normal -0.6087614290087212 -0.7933533402912347 -0.0
  outer loop
    vertex 9.55 17.684678751731767 10.000000000000021
    vertex 10.192031021678298 17.192031021678304 19.999999999999993
    vertex 9.55 17.684678751731767 19.999999999999993
  endloop
endfacet
facet normal -0.3826834323650905 -0.9238795325112866 -0.0
  outer loop
    vertex 9.55 17.684678751731767 19.999999999999993
    vertex 8.802339039817815 17.99437006149612 10.000000000000021
    vertex 9.55 17.684678751731767 10.000000000000021
  endloop
endfacet
facet normal -0.3826834323650905 -0.9238795325112866 -0.0
  outer loop
    vertex 8.802339039817815 17.99437006149612 10.000000000000021
    vertex 9.55 17.684678751731767 19.999999999999993
    vertex 8.802339039817815 17.99437006149612 19.999999999999993
  endloop
endfacet
facet normal -1.146327838434106e-16 1.2006788555117697e-16 1.0
  outer loop
    vertex 5.000000000000002 3.5 19.999999999999996
    vertex 3.000000000000002 6.000000000000013 19.999999999999996
    vertex 3.0000000000000018 1.0000000000000053 19.999999999999993
  endloop
endfacet
facet normal -1.146327838434106e-16 1.2006788555117697e-16 1.0
  outer loop
    vertex 3.000000000000002 7.0000000000000115 19.999999999999993
    vertex 5.00562993850389 14.19766096018219 19.999999999999993
    vertex 4.900000000000001 15.000000000000007 19.999999999999993
  endloop
endfacet
facet normal -1.146327838434106e-16 1.2006788555117697e-16 1.0
  outer loop
    vertex 5.00562993850389 14.19766096018219 19.999999999999993
    vertex 3.000000000000002 7.0000000000000115 19.999999999999993
    vertex 5.315321248268242 13.450000000000003 19.999999999999993
  endloop
endfacet
facet normal -1.146327838434106e-16 1.2006788555117697e-16 1.0
  outer loop
    vertex 5.315321248268242 13.450000000000003 19.999999999999993
    vertex 3.000000000000002 7.0000000000000115 19.999999999999993
    vertex 5.807968978321704 12.807968978321707 19.999999999999993
  endloop
endfacet
facet normal -1.146327838434106e-16 1.2006788555117697e-16 1.0
  outer loop
    vertex 5.807968978321704 12.807968978321707 19.999999999999993
    vertex 3.000000000000002 7.0000000000000115 19.999999999999993
    vertex 12.999999999999998 7.000000000000008 20.000000000000007
  endloop
endfacet
facet normal -1.146327838434106e-16 1.2006788555117697e-16 1.0
  outer loop
    vertex 5.807968978321704 12.807968978321707 19.999999999999993
    vertex 12.999999999999998 7.000000000000008 20.000000000000007
    vertex 6.450000000000002 12.315321248268246 19.999999999999993
  endloop
endfacet
facet normal -1.146327838434106e-16 1.2006788555117697e-16 1.0
  outer loop
    vertex 6.450000000000002 12.315321248268246 19.999999999999993
    vertex 12.999999999999998 7.000000000000008 20.000000000000007
    vertex 7.197660960182188 12.005629938503894 19.999999999999993
  endloop
endfacet
facet normal -1.146327838434106e-16 1.2006788555117697e-16 1.0
  outer loop
    vertex 7.197660960182188 12.005629938503894 19.999999999999993
    vertex 12.999999999999998 7.000000000000008 20.000000000000007
    vertex 8.0 11.900000000000006 19.999999999999993
  endloop
endfacet
facet normal -1.146327838434106e-16 1.2006788555117697e-16 1.0
  outer loop
    vertex 8.0 11.900000000000006 19.999999999999993
    vertex 12.999999999999998 7.000000000000008 20.000000000000007
    vertex 8.802339039817815 12.005629938503896 19.999999999999993
  endloop
endfacet
facet normal -1.146327838434106e-16 1.2006788555117697e-16 1.0
  outer loop
    vertex 8.802339039817815 12.005629938503896 19.999999999999993
    vertex 12.999999999999998 7.000000000000008 20.000000000000007
    vertex 9.550000000000002 12.315321248268248 19.999999999999993
  endloop
endfacet
facet normal -1.146327838434106e-16 1.2006788555117697e-16 1.0
  outer loop
    vertex 9.550000000000002 12.315321248268248 19.999999999999993
    vertex 12.999999999999998 7.000000000000008 20.000000000000007
    vertex 10.192031021678298 12.80796897832171 19.999999999999993
  endloop
endfacet
facet normal -1.146327838434106e-16 1.2006788555117697e-16 1.0
  outer loop
    vertex 10.192031021678298 12.80796897832171 19.999999999999993
    vertex 12.999999999999998 7.000000000000008 20.000000000000007
    vertex 10.684678751731761 13.450000000000006 19.999999999999993
  endloop
endfacet
facet normal -1.146327838434106e-16 1.2006788555117697e-16 1.0
  outer loop
    vertex 10.684678751731761 13.450000000000006 19.999999999999993
    vertex 12.999999999999998 7.000000000000008 20.000000000000007
    vertex 10.994370061496111 14.197660960182192 19.999999999999993
  endloop
endfacet
facet normal -1.146327838434106e-16 1.2006788555117697e-16 1.0
  outer loop
    vertex 10.994370061496111 14.197660960182192 19.999999999999993
    vertex 12.999999999999998 7.000000000000008 20.000000000000007
    vertex 11.100000000000001 15.000000000000007 19.999999999999993
  endloop
endfacet
facet normal -1.146327838434106e-16 1.2006788555117697e-16 1.0
  outer loop
    vertex 15.999999999999998 3.4274666438349722e-15 19.99999999999999
    vertex 12.999999999999998 1.0000000000000029 19.999999999999993
    vertex 12.999999999999998 4.484954074790435e-15 19.999999999999993
  endloop
endfacet
facet normal -1.146327838434106e-16 1.2006788555117697e-16 1.0
  outer loop
    vertex 12.999999999999998 1.0000000000000029 19.999999999999993
    vertex 15.999999999999998 3.4274666438349722e-15 19.99999999999999
    vertex 12.999999999999998 6.000000000000011 20.000000000000004
  endloop
endfacet
facet normal -1.146327838434106e-16 1.2006788555117697e-16 1.0
  outer loop
    vertex 12.999999999999998 6.000000000000011 20.000000000000004
    vertex 15.999999999999998 3.4274666438349722e-15 19.99999999999999
    vertex 12.999999999999998 7.000000000000008 20.000000000000007
  endloop
endfacet
facet normal -1.146327838434106e-16 1.2006788555117697e-16 1.0
  outer loop
    vertex 3.0000000000000018 5.938999292354195e-15 19.999999999999993
    vertex 2.3340743916456614e-15 15.000000000000009 19.999999999999993
    vertex 1.0111001508117848e-15 7.348982533628143e-15 19.999999999999993
  endloop
endfacet
facet normal -1.146327838434106e-16 1.2006788555117697e-16 1.0
  outer loop
    vertex 2.3340743916456614e-15 15.000000000000009 19.999999999999993
    vertex 3.0000000000000018 5.938999292354195e-15 19.999999999999993
    vertex 3.0000000000000018 1.0000000000000053 19.999999999999993
  endloop
endfacet
facet normal -1.146327838434106e-16 1.2006788555117697e-16 1.0
  outer loop
    vertex 2.3340743916456614e-15 15.000000000000009 19.999999999999993
    vertex 3.0000000000000018 1.0000000000000053 19.999999999999993
    vertex 3.000000000000002 7.0000000000000115 19.999999999999993
  endloop
endfacet
facet normal -1.146327838434106e-16 1.2006788555117697e-16 1.0
  outer loop
    vertex 2.3340743916456614e-15 15.000000000000009 19.999999999999993
    vertex 3.000000000000002 7.0000000000000115 19.999999999999993
    vertex 5.000000000000002 20.000000000000007 19.999999999999993
  endloop
endfacet
facet normal -1.146327838434106e-16 1.2006788555117697e-16 1.0
  outer loop
    vertex 3.000000000000002 7.0000000000000115 19.999999999999993
    vertex 3.0000000000000018 1.0000000000000053 19.999999999999993
    vertex 3.000000000000002 6.000000000000013 19.999999999999996
  endloop
endfacet
facet normal -1.146327838434106e-16 1.2006788555117697e-16 1.0
  outer loop
    vertex 5.000000000000002 20.000000000000007 19.999999999999993
    vertex 3.000000000000002 7.0000000000000115 19.999999999999993
    vertex 4.900000000000001 15.000000000000007 19.999999999999993
  endloop
endfacet
facet normal -1.146327838434106e-16 1.2006788555117697e-16 1.0
  outer loop
    vertex 5.000000000000002 20.000000000000007 19.999999999999993
    vertex 4.900000000000001 15.000000000000007 19.999999999999993
    vertex 5.005629938503889 15.80233903981782 19.999999999999993
  endloop
endfacet
facet normal -1.146327838434106e-16 1.2006788555117697e-16 1.0
  outer loop
    vertex 5.000000000000002 20.000000000000007 19.999999999999993
    vertex 5.005629938503889 15.80233903981782 19.999999999999993
    vertex 5.31532124826824 16.550000000000004 19.999999999999993
  endloop
endfacet
facet normal -1.146327838434106e-16 1.2006788555117697e-16 1.0
  outer loop
    vertex 5.000000000000002 20.000000000000007 19.999999999999993
    vertex 5.31532124826824 16.550000000000004 19.999999999999993
    vertex 5.807968978321703 17.192031021678304 19.999999999999993
  endloop
endfacet
facet normal -1.146327838434106e-16 1.2006788555117697e-16 1.0
  outer loop
    vertex 5.000000000000002 20.000000000000007 19.999999999999993
    vertex 5.807968978321703 17.192031021678304 19.999999999999993
    vertex 6.449999999999999 17.684678751731763 19.999999999999993
  endloop
endfacet
facet normal -1.146327838434106e-16 1.2006788555117697e-16 1.0
  outer loop
    vertex 5.000000000000002 20.000000000000007 19.999999999999993
    vertex 6.449999999999999 17.684678751731763 19.999999999999993
    vertex 11.0 20.000000000000007 19.999999999999993
  endloop
endfacet
facet normal -1.146327838434106e-16 1.2006788555117697e-16 1.0
  outer loop
    vertex 11.0 20.000000000000007 19.999999999999993
    vertex 6.449999999999999 17.684678751731763 19.999999999999993
    vertex 7.1976609601821835 17.994370061496117 19.999999999999993
  endloop
endfacet
facet normal -1.146327838434106e-16 1.2006788555117697e-16 1.0
  outer loop
    vertex 11.0 20.000000000000007 19.999999999999993
    vertex 7.1976609601821835 17.994370061496117 19.999999999999993
    vertex 8.0 18.100000000000005 19.999999999999993
  endloop
endfacet
facet normal -1.146327838434106e-16 1.2006788555117697e-16 1.0
  outer loop
    vertex 11.0 20.000000000000007 19.999999999999993
    vertex 8.0 18.100000000000005 19.999999999999993
    vertex 8.802339039817815 17.99437006149612 19.999999999999993
  endloop
endfacet
facet normal -1.146327838434106e-16 1.2006788555117697e-16 1.0
  outer loop
    vertex 11.0 20.000000000000007 19.999999999999993
    vertex 8.802339039817815 17.99437006149612 19.999999999999993
    vertex 9.55 17.684678751731767 19.999999999999993
  endloop
endfacet
facet normal -1.146327838434106e-16 1.2006788555117697e-16 1.0
  outer loop
    vertex 11.0 20.000000000000007 19.999999999999993
    vertex 9.55 17.684678751731767 19.999999999999993
    vertex 10.192031021678298 17.192031021678304 19.999999999999993
  endloop
endfacet
facet normal -1.146327838434106e-16 1.2006788555117697e-16 1.0
  outer loop
    vertex 11.0 20.000000000000007 19.999999999999993
    vertex 10.192031021678298 17.192031021678304 19.999999999999993
    vertex 10.68467875173176 16.550000000000008 19.999999999999993
  endloop
endfacet
facet normal -1.146327838434106e-16 1.2006788555117697e-16 1.0
  outer loop
    vertex 11.0 20.000000000000007 19.999999999999993
    vertex 10.68467875173176 16.550000000000008 19.999999999999993
    vertex 10.994370061496111 15.802339039817822 19.999999999999993
  endloop
endfacet
facet normal -1.146327838434106e-16 1.2006788555117697e-16 1.0
  outer loop
    vertex 11.0 20.000000000000007 19.999999999999993
    vertex 10.994370061496111 15.802339039817822 19.999999999999993
    vertex 11.100000000000001 15.000000000000007 19.999999999999993
  endloop
endfacet
facet normal -1.146327838434106e-16 1.2006788555117697e-16 1.0
  outer loop
    vertex 11.0 20.000000000000007 19.999999999999993
    vertex 11.100000000000001 15.000000000000007 19.999999999999993
    vertex 15.999999999999998 15.000000000000004 19.999999999999993
  endloop
endfacet
facet normal -1.146327838434106e-16 1.2006788555117697e-16 1.0
  outer loop
    vertex 15.999999999999998 15.000000000000004 19.999999999999993
    vertex 11.100000000000001 15.000000000000007 19.999999999999993
    vertex 12.999999999999998 7.000000000000008 20.000000000000007
  endloop
endfacet
facet normal -1.146327838434106e-16 1.2006788555117697e-16 1.0
  outer loop
    vertex 15.999999999999998 15.000000000000004 19.999999999999993
    vertex 12.999999999999998 7.000000000000008 20.000000000000007
    vertex 15.999999999999998 3.4274666438349722e-15 19.99999999999999
  endloop
endfacet
facet normal -1.146327838434106e-16 1.2006788555117697e-16 1.0
  outer loop
    vertex 12.999999999999998 6.000000000000011 20.000000000000004
    vertex 10.999999999999991 3.5000000000000013 20.000000000000004
    vertex 12.999999999999998 1.0000000000000029 19.999999999999993
  endloop
endfacet
facet normal 0.7071067811865477 0.7071067811865474 -0.0
  outer loop
    vertex 11.0 20.000000000000007 10.000000000000004
    vertex 15.999999999999998 15.000000000000004 19.999999999999993
    vertex 15.999999999999998 15.000000000000004 10.000000000000004
  endloop
endfacet
facet normal 0.7071067811865477 0.7071067811865474 -0.0
  outer loop
    vertex 15.999999999999998 15.000000000000004 19.999999999999993
    vertex 11.0 20.000000000000007 10.000000000000004
    vertex 11.0 20.000000000000007 19.999999999999993
  endloop
endfacet
facet normal -0.7071067811865476 0.7071067811865476 -3.117619030304559e-32
  outer loop
    vertex 5.000000000000002 20.000000000000007 19.999999999999993
    vertex 2.3340743916456614e-15 15.000000000000009 10.000000000000004
    vertex 2.3340743916456614e-15 15.000000000000009 19.999999999999993
  endloop
endfacet
facet normal -0.7071067811865476 0.7071067811865476 -3.117619030304559e-32
  outer loop
    vertex 2.3340743916456614e-15 15.000000000000009 10.000000000000004
    vertex 5.000000000000002 20.000000000000007 19.999999999999993
    vertex 5.000000000000002 20.000000000000007 10.000000000000004
  endloop
endfacet
endsolid Держатель-Моб-Тел-Ползунок-Гайка
