solid Верхний-Уголок-Под-12мм-вал-МФКС
facet normal -2.9471058749618658e-05 0.9999999995519295 5.25333708389586e-06
  outer loop
    vertex -20.07663675664637 -0.013320093326169756 5.000000000000124
    vertex -10.076636756646312 -0.013320093326072468 4.000000000000124
    vertex -15.0766367566464 -0.013320093326181037 9.975030797646454e-14
  endloop
endfacet
facet normal -2.9471058749618658e-05 0.9999999995519295 5.25333708389586e-06
  outer loop
    vertex -10.076636756646312 -0.013320093326072468 4.000000000000124
    vertex -20.07663675664637 -0.013320093326169756 5.000000000000124
    vertex -11.629551027261435 -0.013320093326072468 4.204445042265721
  endloop
endfacet
facet normal -2.9471058749618658e-05 0.9999999995519295 5.25333708389586e-06
  outer loop
    vertex -11.629551027261435 -0.013320093326072468 4.204445042265721
    vertex -20.07663675664637 -0.013320093326169756 5.000000000000124
    vertex -13.076636756646314 -0.013320093326072468 4.803847577293505
  endloop
endfacet
facet normal -2.9471058749618658e-05 0.9999999995519295 5.25333708389586e-06
  outer loop
    vertex -13.076636756646314 -0.013320093326072468 4.803847577293505
    vertex -20.07663675664637 -0.013320093326169756 5.000000000000124
    vertex -14.319277443765598 -0.013320093326072468 5.757359312880858
  endloop
endfacet
facet normal -2.9471058749618658e-05 0.9999999995519295 5.25333708389586e-06
  outer loop
    vertex -14.319277443765598 -0.013320093326072468 5.757359312880858
    vertex -20.07663675664637 -0.013320093326169756 5.000000000000124
    vertex -15.272789179352937 -0.013320093326072468 7.000000000000148
  endloop
endfacet
facet normal -2.9471058749618658e-05 0.9999999995519295 5.25333708389586e-06
  outer loop
    vertex -15.272789179352937 -0.013320093326072468 7.000000000000148
    vertex -20.07663675664637 -0.013320093326169756 5.000000000000124
    vertex -15.872191714380708 -0.013320093326072468 8.447085729385025
  endloop
endfacet
facet normal -2.9471058749618658e-05 0.9999999995519295 5.25333708389586e-06
  outer loop
    vertex -15.872191714380708 -0.013320093326072468 8.447085729385025
    vertex -20.07663675664637 -0.013320093326169756 5.000000000000124
    vertex -16.076636756646295 -0.013320093326027349 10.000000000000155
  endloop
endfacet
facet normal -2.9471058749618658e-05 0.9999999995519295 5.25333708389586e-06
  outer loop
    vertex -16.076636756646295 -0.013320093326027349 10.000000000000155
    vertex -20.07663675664637 -0.013320093326169756 5.000000000000124
    vertex -20.07663675664601 -0.013320093326207039 49.950000000000145
  endloop
endfacet
facet normal -2.9471058749618658e-05 0.9999999995519295 5.25333708389586e-06
  outer loop
    vertex -16.076636756646295 -0.013320093326027349 10.000000000000155
    vertex -20.07663675664601 -0.013320093326207039 49.950000000000145
    vertex -15.872191714380698 -0.013320093326027349 11.552914270615279
  endloop
endfacet
facet normal -2.9471058749618658e-05 0.9999999995519295 5.25333708389586e-06
  outer loop
    vertex -15.872191714380698 -0.013320093326027349 11.552914270615279
    vertex -20.07663675664601 -0.013320093326207039 49.950000000000145
    vertex -15.272789179352912 -0.013320093326027349 13.000000000000146
  endloop
endfacet
facet normal -2.9471058749618658e-05 0.9999999995519295 5.25333708389586e-06
  outer loop
    vertex -15.272789179352912 -0.013320093326027349 13.000000000000146
    vertex -20.07663675664601 -0.013320093326207039 49.950000000000145
    vertex -14.319277443765559 -0.013320093326027349 14.24264068711943
  endloop
endfacet
facet normal -2.9471058749618658e-05 0.9999999995519295 5.25333708389586e-06
  outer loop
    vertex -14.319277443765559 -0.013320093326027349 14.24264068711943
    vertex -20.07663675664601 -0.013320093326207039 49.950000000000145
    vertex -13.076636756646272 -0.013320093326027349 15.196152422706769
  endloop
endfacet
facet normal -2.9471058749618658e-05 0.9999999995519295 5.25333708389586e-06
  outer loop
    vertex -13.076636756646272 -0.013320093326027349 15.196152422706769
    vertex -20.07663675664601 -0.013320093326207039 49.950000000000145
    vertex -11.629551027261385 -0.013320093326072468 15.795554957734538
  endloop
endfacet
facet normal -2.9471058749618658e-05 0.9999999995519295 5.25333708389586e-06
  outer loop
    vertex -11.629551027261385 -0.013320093326072468 15.795554957734538
    vertex -20.07663675664601 -0.013320093326207039 49.950000000000145
    vertex -10.07663675664626 -0.013320093326072468 16.000000000000124
  endloop
endfacet
facet normal -2.9471058749618658e-05 0.9999999995519295 5.25333708389586e-06
  outer loop
    vertex -10.07663675664626 -0.013320093326072468 16.000000000000124
    vertex -20.07663675664601 -0.013320093326207039 49.950000000000145
    vertex 1.4481807013708306e-13 1.0834955178044463e-13 49.95000000000008
  endloop
endfacet
facet normal -2.9471058749618658e-05 0.9999999995519295 5.25333708389586e-06
  outer loop
    vertex 0.0 0.0 0.0
    vertex -4.076636756646288 -0.013320093326072468 10.0000000000001
    vertex 1.4481807013708306e-13 1.0834955178044463e-13 49.95000000000008
  endloop
endfacet
facet normal -2.9471058749618658e-05 0.9999999995519295 5.25333708389586e-06
  outer loop
    vertex -4.076636756646288 -0.013320093326072468 10.0000000000001
    vertex 0.0 0.0 0.0
    vertex -4.2810817989118854 -0.013320093326072468 8.447085729384977
  endloop
endfacet
facet normal -2.9471058749618658e-05 0.9999999995519295 5.25333708389586e-06
  outer loop
    vertex -4.2810817989118854 -0.013320093326072468 8.447085729384977
    vertex 0.0 0.0 0.0
    vertex -4.88048433393967 -0.013320093326072468 7.000000000000104
  endloop
endfacet
facet normal -2.9471058749618658e-05 0.9999999995519295 5.25333708389586e-06
  outer loop
    vertex -4.88048433393967 -0.013320093326072468 7.000000000000104
    vertex 0.0 0.0 0.0
    vertex -5.8339960695270205 -0.013320093326072468 5.757359312880822
  endloop
endfacet
facet normal -2.9471058749618658e-05 0.9999999995519295 5.25333708389586e-06
  outer loop
    vertex -5.8339960695270205 -0.013320093326072468 5.757359312880822
    vertex 0.0 0.0 0.0
    vertex -7.076636756646309 -0.013320093326072468 4.803847577293479
  endloop
endfacet
facet normal -2.9471058749618658e-05 0.9999999995519295 5.25333708389586e-06
  outer loop
    vertex -7.076636756646309 -0.013320093326072468 4.803847577293479
    vertex 0.0 0.0 0.0
    vertex -15.0766367566464 -0.013320093326181037 9.975030797646454e-14
  endloop
endfacet
facet normal -2.9471058749618658e-05 0.9999999995519295 5.25333708389586e-06
  outer loop
    vertex -7.076636756646309 -0.013320093326072468 4.803847577293479
    vertex -15.0766367566464 -0.013320093326181037 9.975030797646454e-14
    vertex -8.523722486031184 -0.013320093326072468 4.204445042265709
  endloop
endfacet
facet normal -2.9471058749618658e-05 0.9999999995519295 5.25333708389586e-06
  outer loop
    vertex -8.523722486031184 -0.013320093326072468 4.204445042265709
    vertex -15.0766367566464 -0.013320093326181037 9.975030797646454e-14
    vertex -10.076636756646312 -0.013320093326072468 4.000000000000124
  endloop
endfacet
facet normal -2.9471058749618658e-05 0.9999999995519295 5.25333708389586e-06
  outer loop
    vertex 1.4481807013708306e-13 1.0834955178044463e-13 49.95000000000008
    vertex -4.076636756646288 -0.013320093326072468 10.0000000000001
    vertex -4.281081798911872 -0.013320093326072468 11.552914270615226
  endloop
endfacet
facet normal -2.9471058749618658e-05 0.9999999995519295 5.25333708389586e-06
  outer loop
    vertex 1.4481807013708306e-13 1.0834955178044463e-13 49.95000000000008
    vertex -4.281081798911872 -0.013320093326072468 11.552914270615226
    vertex -4.880484333939643 -0.013320093326072468 13.0000000000001
  endloop
endfacet
facet normal -2.9471058749618658e-05 0.9999999995519295 5.25333708389586e-06
  outer loop
    vertex 1.4481807013708306e-13 1.0834955178044463e-13 49.95000000000008
    vertex -4.880484333939643 -0.013320093326072468 13.0000000000001
    vertex -5.833996069526984 -0.013320093326072468 14.24264068711939
  endloop
endfacet
facet normal -2.9471058749618658e-05 0.9999999995519295 5.25333708389586e-06
  outer loop
    vertex 1.4481807013708306e-13 1.0834955178044463e-13 49.95000000000008
    vertex -5.833996069526984 -0.013320093326072468 14.24264068711939
    vertex -7.076636756646264 -0.013320093326072468 15.19615242270674
  endloop
endfacet
facet normal -2.9471058749618658e-05 0.9999999995519295 5.25333708389586e-06
  outer loop
    vertex 1.4481807013708306e-13 1.0834955178044463e-13 49.95000000000008
    vertex -7.076636756646264 -0.013320093326072468 15.19615242270674
    vertex -8.523722486031136 -0.013320093326072468 15.795554957734527
  endloop
endfacet
facet normal -2.9471058749618658e-05 0.9999999995519295 5.25333708389586e-06
  outer loop
    vertex 1.4481807013708306e-13 1.0834955178044463e-13 49.95000000000008
    vertex -8.523722486031136 -0.013320093326072468 15.795554957734527
    vertex -10.07663675664626 -0.013320093326072468 16.000000000000124
  endloop
endfacet
facet normal -1.0 1.2407852523210809e-15 7.0263903458368135e-15
  outer loop
    vertex -20.076636756646085 -25.013320093325977 49.95000000000011
    vertex -20.07663675664637 -0.013320093326169756 5.000000000000124
    vertex -20.07663675664636 -25.013320093326122 5.000000000000194
  endloop
endfacet
facet normal -1.0 1.2407852523210809e-15 7.0263903458368135e-15
  outer loop
    vertex -20.07663675664637 -0.013320093326169756 5.000000000000124
    vertex -20.076636756646085 -25.013320093325977 49.95000000000011
    vertex -20.07663675664601 -0.013320093326207039 49.950000000000145
  endloop
endfacet
facet normal 0.99144486137381 -1.9117100193315738e-15 -0.13052619222005535
  outer loop
    vertex -16.076636756646295 -0.013320093326027349 10.000000000000155
    vertex -15.872191714380737 -25.013320093326044 11.552914270615304
    vertex -16.076636756646334 -25.013320093326044 10.00000000000018
  endloop
endfacet
facet normal 0.99144486137381 -1.9117100193315738e-15 -0.13052619222005535
  outer loop
    vertex -15.872191714380737 -25.013320093326044 11.552914270615304
    vertex -16.076636756646295 -0.013320093326027349 10.000000000000155
    vertex -15.872191714380698 -0.013320093326027349 11.552914270615279
  endloop
endfacet
facet normal 0.991444861373811 -1.6416226100196645e-15 0.1305261922200477
  outer loop
    vertex -15.872191714380708 -0.013320093326072468 8.447085729385025
    vertex -16.076636756646334 -25.013320093326044 10.00000000000018
    vertex -15.87219171438075 -25.013320093326048 8.447085729385048
  endloop
endfacet
facet normal 0.991444861373811 -1.6416226100196645e-15 0.1305261922200477
  outer loop
    vertex -16.076636756646334 -25.013320093326044 10.00000000000018
    vertex -15.872191714380708 -0.013320093326072468 8.447085729385025
    vertex -16.076636756646295 -0.013320093326027349 10.000000000000155
  endloop
endfacet
facet normal 0.9238795325112883 -1.2596613327445479e-15 0.38268343236508645
  outer loop
    vertex -15.272789179352937 -0.013320093326072468 7.000000000000148
    vertex -15.87219171438075 -25.013320093326048 8.447085729385048
    vertex -15.272789179352976 -25.013320093326048 7.000000000000172
  endloop
endfacet
facet normal 0.9238795325112883 -1.2596613327445479e-15 0.38268343236508645
  outer loop
    vertex -15.87219171438075 -25.013320093326048 8.447085729385048
    vertex -15.272789179352937 -0.013320093326072468 7.000000000000148
    vertex -15.872191714380708 -0.013320093326072468 8.447085729385025
  endloop
endfacet
facet normal 0.793353340291238 -7.91856217331671e-16 0.6087614290087168
  outer loop
    vertex -14.319277443765598 -0.013320093326072468 5.757359312880858
    vertex -15.272789179352976 -25.013320093326048 7.000000000000172
    vertex -14.319277443765637 -25.01332009332605 5.757359312880884
  endloop
endfacet
facet normal 0.793353340291238 -7.91856217331671e-16 0.6087614290087168
  outer loop
    vertex -15.272789179352976 -25.013320093326048 7.000000000000172
    vertex -14.319277443765598 -0.013320093326072468 5.757359312880858
    vertex -15.272789179352937 -0.013320093326072468 7.000000000000148
  endloop
endfacet
facet normal 0.6087614290087235 -2.700874093119088e-16 0.7933533402912328
  outer loop
    vertex -13.076636756646353 -25.013320093326055 4.8038475772935305
    vertex -14.319277443765598 -0.013320093326072468 5.757359312880858
    vertex -14.319277443765637 -25.01332009332605 5.757359312880884
  endloop
endfacet
facet normal 0.6087614290087235 -2.700874093119088e-16 0.7933533402912328
  outer loop
    vertex -14.319277443765598 -0.013320093326072468 5.757359312880858
    vertex -13.076636756646353 -25.013320093326055 4.8038475772935305
    vertex -13.076636756646314 -0.013320093326072468 4.803847577293505
  endloop
endfacet
facet normal 0.3826834323650938 2.70087409311909e-16 0.9238795325112851
  outer loop
    vertex -11.629551027261483 -25.013320093326058 4.204445042265747
    vertex -13.076636756646314 -0.013320093326072468 4.803847577293505
    vertex -13.076636756646353 -25.013320093326055 4.8038475772935305
  endloop
endfacet
facet normal 0.3826834323650938 2.70087409311909e-16 0.9238795325112851
  outer loop
    vertex -13.076636756646314 -0.013320093326072468 4.803847577293505
    vertex -11.629551027261483 -25.013320093326058 4.204445042265747
    vertex -11.629551027261435 -0.013320093326072468 4.204445042265721
  endloop
endfacet
facet normal 0.1305261922200559 7.918562173316694e-16 0.9914448613738099
  outer loop
    vertex -10.07663675664636 -25.01332009332606 4.000000000000151
    vertex -11.629551027261435 -0.013320093326072468 4.204445042265721
    vertex -11.629551027261483 -25.013320093326058 4.204445042265747
  endloop
endfacet
facet normal 0.1305261922200559 7.918562173316694e-16 0.9914448613738099
  outer loop
    vertex -11.629551027261435 -0.013320093326072468 4.204445042265721
    vertex -10.07663675664636 -25.01332009332606 4.000000000000151
    vertex -10.076636756646312 -0.013320093326072468 4.000000000000124
  endloop
endfacet
facet normal -0.13052619222004747 1.2596613327445485e-15 0.9914448613738109
  outer loop
    vertex -8.523722486031232 -25.01332009332606 4.204445042265735
    vertex -10.076636756646312 -0.013320093326072468 4.000000000000124
    vertex -10.07663675664636 -25.01332009332606 4.000000000000151
  endloop
endfacet
facet normal -0.13052619222004747 1.2596613327445485e-15 0.9914448613738109
  outer loop
    vertex -10.076636756646312 -0.013320093326072468 4.000000000000124
    vertex -8.523722486031232 -25.01332009332606 4.204445042265735
    vertex -8.523722486031184 -0.013320093326072468 4.204445042265709
  endloop
endfacet
facet normal -0.3826834323650856 1.6416226100196639e-15 0.9238795325112885
  outer loop
    vertex -7.076636756646355 -25.013320093326065 4.803847577293506
    vertex -8.523722486031184 -0.013320093326072468 4.204445042265709
    vertex -8.523722486031232 -25.01332009332606 4.204445042265735
  endloop
endfacet
facet normal -0.3826834323650856 1.6416226100196639e-15 0.9238795325112885
  outer loop
    vertex -8.523722486031184 -0.013320093326072468 4.204445042265709
    vertex -7.076636756646355 -25.013320093326065 4.803847577293506
    vertex -7.076636756646309 -0.013320093326072468 4.803847577293479
  endloop
endfacet
facet normal -0.6087614290087177 1.911710019331574e-15 0.7933533402912375
  outer loop
    vertex -5.833996069527066 -25.013320093326065 5.7573593128808485
    vertex -7.076636756646309 -0.013320093326072468 4.803847577293479
    vertex -7.076636756646355 -25.013320093326065 4.803847577293506
  endloop
endfacet
facet normal -0.6087614290087177 1.911710019331574e-15 0.7933533402912375
  outer loop
    vertex -7.076636756646309 -0.013320093326072468 4.803847577293479
    vertex -5.833996069527066 -25.013320093326065 5.7573593128808485
    vertex -5.8339960695270205 -0.013320093326072468 5.757359312880822
  endloop
endfacet
facet normal -0.7933533402912328 2.0515175500762185e-15 0.6087614290087238
  outer loop
    vertex -4.88048433393967 -0.013320093326072468 7.000000000000104
    vertex -5.833996069527066 -25.013320093326065 5.7573593128808485
    vertex -4.880484333939715 -25.01332009332607 7.000000000000128
  endloop
endfacet
facet normal -0.7933533402912328 2.0515175500762185e-15 0.6087614290087238
  outer loop
    vertex -5.833996069527066 -25.013320093326065 5.7573593128808485
    vertex -4.88048433393967 -0.013320093326072468 7.000000000000104
    vertex -5.8339960695270205 -0.013320093326072468 5.757359312880822
  endloop
endfacet
facet normal -0.9238795325112851 2.0515175500762185e-15 0.38268343236509395
  outer loop
    vertex -4.28108179891193 -25.013320093326065 8.447085729385002
    vertex -4.88048433393967 -0.013320093326072468 7.000000000000104
    vertex -4.880484333939715 -25.01332009332607 7.000000000000128
  endloop
endfacet
facet normal -0.9238795325112851 2.0515175500762185e-15 0.38268343236509395
  outer loop
    vertex -4.88048433393967 -0.013320093326072468 7.000000000000104
    vertex -4.28108179891193 -25.013320093326065 8.447085729385002
    vertex -4.2810817989118854 -0.013320093326072468 8.447085729384977
  endloop
endfacet
facet normal -0.9914448613738099 1.9117100193315745e-15 0.1305261922200559
  outer loop
    vertex -4.076636756646288 -0.013320093326072468 10.0000000000001
    vertex -4.28108179891193 -25.013320093326065 8.447085729385002
    vertex -4.076636756646334 -25.013320093326065 10.000000000000124
  endloop
endfacet
facet normal -0.9914448613738099 1.9117100193315745e-15 0.1305261922200559
  outer loop
    vertex -4.28108179891193 -25.013320093326065 8.447085729385002
    vertex -4.076636756646288 -0.013320093326072468 10.0000000000001
    vertex -4.2810817989118854 -0.013320093326072468 8.447085729384977
  endloop
endfacet
facet normal -0.9914448613738112 1.641622610019665e-15 -0.13052619222004727
  outer loop
    vertex -4.2810817989119165 -25.01332009332606 11.552914270615249
    vertex -4.076636756646288 -0.013320093326072468 10.0000000000001
    vertex -4.076636756646334 -25.013320093326065 10.000000000000124
  endloop
endfacet
facet normal -0.9914448613738112 1.641622610019665e-15 -0.13052619222004727
  outer loop
    vertex -4.076636756646288 -0.013320093326072468 10.0000000000001
    vertex -4.2810817989119165 -25.01332009332606 11.552914270615249
    vertex -4.281081798911872 -0.013320093326072468 11.552914270615226
  endloop
endfacet
facet normal -0.9238795325112886 1.2596613327445498e-15 -0.3826834323650854
  outer loop
    vertex -4.880484333939688 -25.01332009332606 13.000000000000128
    vertex -4.281081798911872 -0.013320093326072468 11.552914270615226
    vertex -4.2810817989119165 -25.01332009332606 11.552914270615249
  endloop
endfacet
facet normal -0.9238795325112886 1.2596613327445498e-15 -0.3826834323650854
  outer loop
    vertex -4.281081798911872 -0.013320093326072468 11.552914270615226
    vertex -4.880484333939688 -25.01332009332606 13.000000000000128
    vertex -4.880484333939643 -0.013320093326072468 13.0000000000001
  endloop
endfacet
facet normal -0.7933533402912383 7.918562173316712e-16 -0.6087614290087168
  outer loop
    vertex -5.8339960695270285 -25.013320093326058 14.242640687119419
    vertex -4.880484333939643 -0.013320093326072468 13.0000000000001
    vertex -4.880484333939688 -25.01332009332606 13.000000000000128
  endloop
endfacet
facet normal -0.7933533402912383 7.918562173316712e-16 -0.6087614290087168
  outer loop
    vertex -4.880484333939643 -0.013320093326072468 13.0000000000001
    vertex -5.8339960695270285 -25.013320093326058 14.242640687119419
    vertex -5.833996069526984 -0.013320093326072468 14.24264068711939
  endloop
endfacet
facet normal -0.6087614290087233 2.7008740931190823e-16 -0.7933533402912332
  outer loop
    vertex -7.076636756646264 -0.013320093326072468 15.19615242270674
    vertex -5.8339960695270285 -25.013320093326058 14.242640687119419
    vertex -7.076636756646311 -25.013320093326055 15.196152422706769
  endloop
endfacet
facet normal -0.6087614290087233 2.7008740931190823e-16 -0.7933533402912332
  outer loop
    vertex -5.8339960695270285 -25.013320093326058 14.242640687119419
    vertex -7.076636756646264 -0.013320093326072468 15.19615242270674
    vertex -5.833996069526984 -0.013320093326072468 14.24264068711939
  endloop
endfacet
facet normal -0.382683432365095 -2.700874093119064e-16 -0.9238795325112845
  outer loop
    vertex -8.523722486031136 -0.013320093326072468 15.795554957734527
    vertex -7.076636756646311 -25.013320093326055 15.196152422706769
    vertex -8.523722486031183 -25.01332009332605 15.795554957734556
  endloop
endfacet
facet normal -0.382683432365095 -2.700874093119064e-16 -0.9238795325112845
  outer loop
    vertex -7.076636756646311 -25.013320093326055 15.196152422706769
    vertex -8.523722486031136 -0.013320093326072468 15.795554957734527
    vertex -7.076636756646264 -0.013320093326072468 15.19615242270674
  endloop
endfacet
facet normal -0.13052619222005546 -7.918562173316702e-16 -0.9914448613738099
  outer loop
    vertex -10.07663675664626 -0.013320093326072468 16.000000000000124
    vertex -8.523722486031183 -25.01332009332605 15.795554957734556
    vertex -10.076636756646305 -25.013320093326048 16.000000000000153
  endloop
endfacet
facet normal -0.13052619222005546 -7.918562173316702e-16 -0.9914448613738099
  outer loop
    vertex -8.523722486031183 -25.01332009332605 15.795554957734556
    vertex -10.07663675664626 -0.013320093326072468 16.000000000000124
    vertex -8.523722486031136 -0.013320093326072468 15.795554957734527
  endloop
endfacet
facet normal 0.13052619222004802 -1.2596613327445494e-15 -0.9914448613738109
  outer loop
    vertex -11.629551027261385 -0.013320093326072468 15.795554957734538
    vertex -10.076636756646305 -25.013320093326048 16.000000000000153
    vertex -11.629551027261432 -25.013320093326048 15.795554957734566
  endloop
endfacet
facet normal 0.13052619222004802 -1.2596613327445494e-15 -0.9914448613738109
  outer loop
    vertex -10.076636756646305 -25.013320093326048 16.000000000000153
    vertex -11.629551027261385 -0.013320093326072468 15.795554957734538
    vertex -10.07663675664626 -0.013320093326072468 16.000000000000124
  endloop
endfacet
facet normal 0.3826834323650842 -1.641622610019662e-15 -0.9238795325112891
  outer loop
    vertex -13.076636756646272 -0.013320093326027349 15.196152422706769
    vertex -11.629551027261432 -25.013320093326048 15.795554957734566
    vertex -13.07663675664631 -25.013320093326044 15.196152422706797
  endloop
endfacet
facet normal 0.3826834323650842 -1.641622610019662e-15 -0.9238795325112891
  outer loop
    vertex -11.629551027261432 -25.013320093326048 15.795554957734566
    vertex -13.076636756646272 -0.013320093326027349 15.196152422706769
    vertex -11.629551027261385 -0.013320093326072468 15.795554957734538
  endloop
endfacet
facet normal 0.6087614290087171 -1.9117100193315738e-15 -0.793353340291238
  outer loop
    vertex -14.319277443765559 -0.013320093326027349 14.24264068711943
    vertex -13.07663675664631 -25.013320093326044 15.196152422706797
    vertex -14.319277443765598 -25.013320093326044 14.242640687119458
  endloop
endfacet
facet normal 0.6087614290087171 -1.9117100193315738e-15 -0.793353340291238
  outer loop
    vertex -13.07663675664631 -25.013320093326044 15.196152422706797
    vertex -14.319277443765559 -0.013320093326027349 14.24264068711943
    vertex -13.076636756646272 -0.013320093326027349 15.196152422706769
  endloop
endfacet
facet normal 0.7933533402912328 -2.051517550076218e-15 -0.6087614290087235
  outer loop
    vertex -15.272789179352952 -25.01332009332604 13.000000000000174
    vertex -14.319277443765559 -0.013320093326027349 14.24264068711943
    vertex -14.319277443765598 -25.013320093326044 14.242640687119458
  endloop
endfacet
facet normal 0.7933533402912328 -2.051517550076218e-15 -0.6087614290087235
  outer loop
    vertex -14.319277443765559 -0.013320093326027349 14.24264068711943
    vertex -15.272789179352952 -25.01332009332604 13.000000000000174
    vertex -15.272789179352912 -0.013320093326027349 13.000000000000146
  endloop
endfacet
facet normal 0.9238795325112845 -2.051517550076219e-15 -0.38268343236509533
  outer loop
    vertex -15.872191714380698 -0.013320093326027349 11.552914270615279
    vertex -15.272789179352952 -25.01332009332604 13.000000000000174
    vertex -15.872191714380737 -25.013320093326044 11.552914270615304
  endloop
endfacet
facet normal 0.9238795325112845 -2.051517550076219e-15 -0.38268343236509533
  outer loop
    vertex -15.272789179352952 -25.01332009332604 13.000000000000174
    vertex -15.872191714380698 -0.013320093326027349 11.552914270615279
    vertex -15.272789179352912 -0.013320093326027349 13.000000000000146
  endloop
endfacet
facet normal -0.7071067811865515 -2.3095507394692884e-15 -0.7071067811865436
  outer loop
    vertex -20.07663675664636 -25.013320093326122 5.000000000000194
    vertex -15.0766367566464 -0.013320093326181037 9.975030797646454e-14
    vertex -15.076636756646389 -25.013320093326133 1.702494700401618e-13
  endloop
endfacet
facet normal -0.7071067811865515 -2.3095507394692884e-15 -0.7071067811865436
  outer loop
    vertex -15.0766367566464 -0.013320093326181037 9.975030797646454e-14
    vertex -20.07663675664636 -25.013320093326122 5.000000000000194
    vertex -20.07663675664637 -0.013320093326169756 5.000000000000124
  endloop
endfacet
facet normal -3.786856938304724e-15 -2.3889179458585857e-15 -1.0
  outer loop
    vertex 0.0 0.0 0.0
    vertex 4.502771467783142 -10.391003923485234 5.924973040421423e-14
    vertex 4.223363243353501 -12.51332009332591 6.466345143686602e-14
  endloop
endfacet
facet normal -3.786856938304724e-15 -2.3889179458585857e-15 -1.0
  outer loop
    vertex 4.502771467783142 -10.391003923485234 5.924973040421423e-14
    vertex 0.0 0.0 0.0
    vertex 5.3219549323211055 -8.41332009332591 5.258479096509925e-14
  endloop
endfacet
facet normal -3.786856938304724e-15 -2.3889179458585857e-15 -1.0
  outer loop
    vertex 5.3219549323211055 -8.41332009332591 5.258479096509925e-14
    vertex 0.0 0.0 0.0
    vertex 6.625087637623811 -6.715044487596223 4.512283772796356e-14
  endloop
endfacet
facet normal -3.786856938304724e-15 -2.3889179458585857e-15 -1.0
  outer loop
    vertex 6.625087637623811 -6.715044487596223 4.512283772796356e-14
    vertex 0.0 0.0 0.0
    vertex 8.323363243353505 -5.411911782293513 3.737239047445713e-14
  endloop
endfacet
facet normal -3.786856938304724e-15 -2.3889179458585857e-15 -1.0
  outer loop
    vertex 8.323363243353505 -5.411911782293513 3.737239047445713e-14
    vertex 0.0 0.0 0.0
    vertex 19.92336324335378 -0.013320093325738726 -2.255973186038318e-14
  endloop
endfacet
facet normal -3.786856938304724e-15 -2.3889179458585857e-15 -1.0
  outer loop
    vertex 8.323363243353505 -5.411911782293513 3.737239047445713e-14
    vertex 19.92336324335378 -0.013320093325738726 -2.255973186038318e-14
    vertex 10.301047073512832 -4.592728317755554 2.98616293766868e-14
  endloop
endfacet
facet normal -3.786856938304724e-15 -2.3889179458585857e-15 -1.0
  outer loop
    vertex 10.301047073512832 -4.592728317755554 2.98616293766868e-14
    vertex 19.92336324335378 -0.013320093325738726 -2.255973186038318e-14
    vertex 12.4233632433535 -4.313320093325914 2.3102400391346014e-14
  endloop
endfacet
facet normal -3.786856938304724e-15 -2.3889179458585857e-15 -1.0
  outer loop
    vertex 12.4233632433535 -4.313320093325914 2.3102400391346014e-14
    vertex 19.92336324335378 -0.013320093325738726 -2.255973186038318e-14
    vertex 14.545679413194174 -4.5927283177555545 1.7555333803631692e-14
  endloop
endfacet
facet normal -3.786856938304724e-15 -2.3889179458585857e-15 -1.0
  outer loop
    vertex 14.545679413194174 -4.5927283177555545 1.7555333803631692e-14
    vertex 19.92336324335378 -0.013320093325738726 -2.255973186038318e-14
    vertex 16.5233632433535 -5.411911782293518 1.3598453034535639e-14
  endloop
endfacet
facet normal -3.786856938304724e-15 -2.3889179458585857e-15 -1.0
  outer loop
    vertex 16.5233632433535 -5.411911782293518 1.3598453034535639e-14
    vertex 19.92336324335378 -0.013320093325738726 -2.255973186038318e-14
    vertex 18.221638849083188 -6.715044487596226 1.1501412969417074e-14
  endloop
endfacet
facet normal -3.786856938304724e-15 -2.3889179458585857e-15 -1.0
  outer loop
    vertex 18.221638849083188 -6.715044487596226 1.1501412969417074e-14
    vertex 19.92336324335378 -0.013320093325738726 -2.255973186038318e-14
    vertex 19.524771554385893 -8.413320093325915 1.1407123423191265e-14
  endloop
endfacet
facet normal -3.786856938304724e-15 -2.3889179458585857e-15 -1.0
  outer loop
    vertex 19.524771554385893 -8.413320093325915 1.1407123423191265e-14
    vertex 19.92336324335378 -0.013320093325738726 -2.255973186038318e-14
    vertex 20.343955018923854 -10.391003923485245 1.3322010072612668e-14
  endloop
endfacet
facet normal -3.786856938304724e-15 -2.3889179458585857e-15 -1.0
  outer loop
    vertex 20.343955018923854 -10.391003923485245 1.3322010072612668e-14
    vertex 19.92336324335378 -0.013320093325738726 -2.255973186038318e-14
    vertex 24.92336324335378 -5.0133200933257385 -2.255973186038318e-14
  endloop
endfacet
facet normal -3.786856938304724e-15 -2.3889179458585857e-15 -1.0
  outer loop
    vertex 20.343955018923854 -10.391003923485245 1.3322010072612668e-14
    vertex 24.92336324335378 -5.0133200933257385 -2.255973186038318e-14
    vertex 20.62336324335349 -12.513320093325913 1.7115576557023008e-14
  endloop
endfacet
facet normal -3.786856938304724e-15 -2.3889179458585857e-15 -1.0
  outer loop
    vertex 20.62336324335349 -12.513320093325913 1.7115576557023008e-14
    vertex 24.92336324335378 -5.0133200933257385 -2.255973186038318e-14
    vertex 24.92336324335372 -25.0133200933261 -1.8671629690661762e-14
  endloop
endfacet
facet normal -3.786856938304724e-15 -2.3889179458585857e-15 -1.0
  outer loop
    vertex 0.0 0.0 0.0
    vertex -15.076636756646389 -25.013320093326133 1.702494700401618e-13
    vertex -15.0766367566464 -0.013320093326181037 9.975030797646454e-14
  endloop
endfacet
facet normal -3.786856938304724e-15 -2.3889179458585857e-15 -1.0
  outer loop
    vertex -15.076636756646389 -25.013320093326133 1.702494700401618e-13
    vertex 0.0 0.0 0.0
    vertex 4.50277146778314 -14.63563626316658 6.845701792127636e-14
  endloop
endfacet
facet normal -3.786856938304724e-15 -2.3889179458585857e-15 -1.0
  outer loop
    vertex -15.076636756646389 -25.013320093326133 1.702494700401618e-13
    vertex 4.50277146778314 -14.63563626316658 6.845701792127636e-14
    vertex 5.321954932321105 -16.61332009332591 7.037190457069777e-14
  endloop
endfacet
facet normal -3.786856938304724e-15 -2.3889179458585857e-15 -1.0
  outer loop
    vertex -15.076636756646389 -25.013320093326133 1.702494700401618e-13
    vertex 5.321954932321105 -16.61332009332591 7.037190457069777e-14
    vertex 6.62508763762381 -18.3115956990556 7.027761502447195e-14
  endloop
endfacet
facet normal -3.786856938304724e-15 -2.3889179458585857e-15 -1.0
  outer loop
    vertex -15.076636756646389 -25.013320093326133 1.702494700401618e-13
    vertex 6.62508763762381 -18.3115956990556 7.027761502447195e-14
    vertex 8.323363243353498 -19.614728404358306 6.818057495935338e-14
  endloop
endfacet
facet normal -3.786856938304724e-15 -2.3889179458585857e-15 -1.0
  outer loop
    vertex -15.076636756646389 -25.013320093326133 1.702494700401618e-13
    vertex 8.323363243353498 -19.614728404358306 6.818057495935338e-14
    vertex 10.301047073512827 -20.433911868896267 6.422369419025732e-14
  endloop
endfacet
facet normal -3.786856938304724e-15 -2.3889179458585857e-15 -1.0
  outer loop
    vertex -15.076636756646389 -25.013320093326133 1.702494700401618e-13
    vertex 10.301047073512827 -20.433911868896267 6.422369419025732e-14
    vertex 24.92336324335372 -25.0133200933261 -1.8671629690661762e-14
  endloop
endfacet
facet normal -3.786856938304724e-15 -2.3889179458585857e-15 -1.0
  outer loop
    vertex 4.50277146778314 -14.63563626316658 6.845701792127636e-14
    vertex 0.0 0.0 0.0
    vertex 4.223363243353501 -12.51332009332591 6.466345143686602e-14
  endloop
endfacet
facet normal -3.786856938304724e-15 -2.3889179458585857e-15 -1.0
  outer loop
    vertex 24.92336324335372 -25.0133200933261 -1.8671629690661762e-14
    vertex 10.301047073512827 -20.433911868896267 6.422369419025732e-14
    vertex 12.423363243353498 -20.713320093325912 5.867662760254301e-14
  endloop
endfacet
facet normal -3.786856938304724e-15 -2.3889179458585857e-15 -1.0
  outer loop
    vertex 24.92336324335372 -25.0133200933261 -1.8671629690661762e-14
    vertex 12.423363243353498 -20.713320093325912 5.867662760254301e-14
    vertex 14.545679413194165 -20.43391186889627 5.191739861720222e-14
  endloop
endfacet
facet normal -3.786856938304724e-15 -2.3889179458585857e-15 -1.0
  outer loop
    vertex 24.92336324335372 -25.0133200933261 -1.8671629690661762e-14
    vertex 14.545679413194165 -20.43391186889627 5.191739861720222e-14
    vertex 16.523363243353494 -19.614728404358306 4.440663751943189e-14
  endloop
endfacet
facet normal -3.786856938304724e-15 -2.3889179458585857e-15 -1.0
  outer loop
    vertex 24.92336324335372 -25.0133200933261 -1.8671629690661762e-14
    vertex 16.523363243353494 -19.614728404358306 4.440663751943189e-14
    vertex 18.221638849083185 -18.3115956990556 3.665619026592547e-14
  endloop
endfacet
facet normal -3.786856938304724e-15 -2.3889179458585857e-15 -1.0
  outer loop
    vertex 24.92336324335372 -25.0133200933261 -1.8671629690661762e-14
    vertex 18.221638849083185 -18.3115956990556 3.665619026592547e-14
    vertex 19.52477155438589 -16.613320093325914 2.9194237028789763e-14
  endloop
endfacet
facet normal -3.786856938304724e-15 -2.3889179458585857e-15 -1.0
  outer loop
    vertex 24.92336324335372 -25.0133200933261 -1.8671629690661762e-14
    vertex 19.52477155438589 -16.613320093325914 2.9194237028789763e-14
    vertex 20.343955018923854 -14.635636263166584 2.2529297589674783e-14
  endloop
endfacet
facet normal -3.786856938304724e-15 -2.3889179458585857e-15 -1.0
  outer loop
    vertex 24.92336324335372 -25.0133200933261 -1.8671629690661762e-14
    vertex 20.343955018923854 -14.635636263166584 2.2529297589674783e-14
    vertex 20.62336324335349 -12.513320093325913 1.7115576557023008e-14
  endloop
endfacet
facet normal -9.09536039966647e-16 -1.0 2.8211982500131244e-15
  outer loop
    vertex 24.92336324335372 -25.0133200933261 -1.8671629690661762e-14
    vertex -7.076636756646355 -25.013320093326065 4.803847577293506
    vertex -15.076636756646389 -25.013320093326133 1.702494700401618e-13
  endloop
endfacet
facet normal -9.09536039966647e-16 -1.0 2.8211982500131244e-15
  outer loop
    vertex -7.076636756646355 -25.013320093326065 4.803847577293506
    vertex 24.92336324335372 -25.0133200933261 -1.8671629690661762e-14
    vertex -5.833996069527066 -25.013320093326065 5.7573593128808485
  endloop
endfacet
facet normal -9.09536039966647e-16 -1.0 2.8211982500131244e-15
  outer loop
    vertex -5.833996069527066 -25.013320093326065 5.7573593128808485
    vertex 24.92336324335372 -25.0133200933261 -1.8671629690661762e-14
    vertex -4.880484333939715 -25.01332009332607 7.000000000000128
  endloop
endfacet
facet normal -9.09536039966647e-16 -1.0 2.8211982500131244e-15
  outer loop
    vertex -4.880484333939715 -25.01332009332607 7.000000000000128
    vertex 24.92336324335372 -25.0133200933261 -1.8671629690661762e-14
    vertex 24.92336324335372 -25.0133200933261 49.95
  endloop
endfacet
facet normal -9.09536039966647e-16 -1.0 2.8211982500131244e-15
  outer loop
    vertex -15.076636756646389 -25.013320093326133 1.702494700401618e-13
    vertex -7.076636756646355 -25.013320093326065 4.803847577293506
    vertex -8.523722486031232 -25.01332009332606 4.204445042265735
  endloop
endfacet
facet normal -9.09536039966647e-16 -1.0 2.8211982500131244e-15
  outer loop
    vertex -15.076636756646389 -25.013320093326133 1.702494700401618e-13
    vertex -8.523722486031232 -25.01332009332606 4.204445042265735
    vertex -10.07663675664636 -25.01332009332606 4.000000000000151
  endloop
endfacet
facet normal -9.09536039966647e-16 -1.0 2.8211982500131244e-15
  outer loop
    vertex -4.880484333939715 -25.01332009332607 7.000000000000128
    vertex 24.92336324335372 -25.0133200933261 49.95
    vertex -4.28108179891193 -25.013320093326065 8.447085729385002
  endloop
endfacet
facet normal -9.09536039966647e-16 -1.0 2.8211982500131244e-15
  outer loop
    vertex -4.28108179891193 -25.013320093326065 8.447085729385002
    vertex 24.92336324335372 -25.0133200933261 49.95
    vertex -4.076636756646334 -25.013320093326065 10.000000000000124
  endloop
endfacet
facet normal -9.09536039966647e-16 -1.0 2.8211982500131244e-15
  outer loop
    vertex -4.076636756646334 -25.013320093326065 10.000000000000124
    vertex 24.92336324335372 -25.0133200933261 49.95
    vertex -4.2810817989119165 -25.01332009332606 11.552914270615249
  endloop
endfacet
facet normal -9.09536039966647e-16 -1.0 2.8211982500131244e-15
  outer loop
    vertex -4.2810817989119165 -25.01332009332606 11.552914270615249
    vertex 24.92336324335372 -25.0133200933261 49.95
    vertex -4.880484333939688 -25.01332009332606 13.000000000000128
  endloop
endfacet
facet normal -9.09536039966647e-16 -1.0 2.8211982500131244e-15
  outer loop
    vertex -4.880484333939688 -25.01332009332606 13.000000000000128
    vertex 24.92336324335372 -25.0133200933261 49.95
    vertex -5.8339960695270285 -25.013320093326058 14.242640687119419
  endloop
endfacet
facet normal -9.09536039966647e-16 -1.0 2.8211982500131244e-15
  outer loop
    vertex -5.8339960695270285 -25.013320093326058 14.242640687119419
    vertex 24.92336324335372 -25.0133200933261 49.95
    vertex -7.076636756646311 -25.013320093326055 15.196152422706769
  endloop
endfacet
facet normal -9.09536039966647e-16 -1.0 2.8211982500131244e-15
  outer loop
    vertex -7.076636756646311 -25.013320093326055 15.196152422706769
    vertex 24.92336324335372 -25.0133200933261 49.95
    vertex -8.523722486031183 -25.01332009332605 15.795554957734556
  endloop
endfacet
facet normal -9.09536039966647e-16 -1.0 2.8211982500131244e-15
  outer loop
    vertex -8.523722486031183 -25.01332009332605 15.795554957734556
    vertex 24.92336324335372 -25.0133200933261 49.95
    vertex -10.076636756646305 -25.013320093326048 16.000000000000153
  endloop
endfacet
facet normal -9.09536039966647e-16 -1.0 2.8211982500131244e-15
  outer loop
    vertex -10.07663675664636 -25.01332009332606 4.000000000000151
    vertex -20.07663675664636 -25.013320093326122 5.000000000000194
    vertex -15.076636756646389 -25.013320093326133 1.702494700401618e-13
  endloop
endfacet
facet normal -9.09536039966647e-16 -1.0 2.8211982500131244e-15
  outer loop
    vertex -20.07663675664636 -25.013320093326122 5.000000000000194
    vertex -10.07663675664636 -25.01332009332606 4.000000000000151
    vertex -11.629551027261483 -25.013320093326058 4.204445042265747
  endloop
endfacet
facet normal -9.09536039966647e-16 -1.0 2.8211982500131244e-15
  outer loop
    vertex -20.07663675664636 -25.013320093326122 5.000000000000194
    vertex -11.629551027261483 -25.013320093326058 4.204445042265747
    vertex -13.076636756646353 -25.013320093326055 4.8038475772935305
  endloop
endfacet
facet normal -9.09536039966647e-16 -1.0 2.8211982500131244e-15
  outer loop
    vertex -20.07663675664636 -25.013320093326122 5.000000000000194
    vertex -13.076636756646353 -25.013320093326055 4.8038475772935305
    vertex -14.319277443765637 -25.01332009332605 5.757359312880884
  endloop
endfacet
facet normal -9.09536039966647e-16 -1.0 2.8211982500131244e-15
  outer loop
    vertex -20.07663675664636 -25.013320093326122 5.000000000000194
    vertex -14.319277443765637 -25.01332009332605 5.757359312880884
    vertex -15.272789179352976 -25.013320093326048 7.000000000000172
  endloop
endfacet
facet normal -9.09536039966647e-16 -1.0 2.8211982500131244e-15
  outer loop
    vertex -20.07663675664636 -25.013320093326122 5.000000000000194
    vertex -15.272789179352976 -25.013320093326048 7.000000000000172
    vertex -15.87219171438075 -25.013320093326048 8.447085729385048
  endloop
endfacet
facet normal -9.09536039966647e-16 -1.0 2.8211982500131244e-15
  outer loop
    vertex -20.07663675664636 -25.013320093326122 5.000000000000194
    vertex -15.87219171438075 -25.013320093326048 8.447085729385048
    vertex -16.076636756646334 -25.013320093326044 10.00000000000018
  endloop
endfacet
facet normal -9.09536039966647e-16 -1.0 2.8211982500131244e-15
  outer loop
    vertex -20.07663675664636 -25.013320093326122 5.000000000000194
    vertex -16.076636756646334 -25.013320093326044 10.00000000000018
    vertex -20.076636756646085 -25.013320093325977 49.95000000000011
  endloop
endfacet
facet normal -9.09536039966647e-16 -1.0 2.8211982500131244e-15
  outer loop
    vertex -20.076636756646085 -25.013320093325977 49.95000000000011
    vertex -16.076636756646334 -25.013320093326044 10.00000000000018
    vertex -15.872191714380737 -25.013320093326044 11.552914270615304
  endloop
endfacet
facet normal -9.09536039966647e-16 -1.0 2.8211982500131244e-15
  outer loop
    vertex -20.076636756646085 -25.013320093325977 49.95000000000011
    vertex -15.872191714380737 -25.013320093326044 11.552914270615304
    vertex -15.272789179352952 -25.01332009332604 13.000000000000174
  endloop
endfacet
facet normal -9.09536039966647e-16 -1.0 2.8211982500131244e-15
  outer loop
    vertex -20.076636756646085 -25.013320093325977 49.95000000000011
    vertex -15.272789179352952 -25.01332009332604 13.000000000000174
    vertex -14.319277443765598 -25.013320093326044 14.242640687119458
  endloop
endfacet
facet normal -9.09536039966647e-16 -1.0 2.8211982500131244e-15
  outer loop
    vertex -20.076636756646085 -25.013320093325977 49.95000000000011
    vertex -14.319277443765598 -25.013320093326044 14.242640687119458
    vertex -13.07663675664631 -25.013320093326044 15.196152422706797
  endloop
endfacet
facet normal -9.09536039966647e-16 -1.0 2.8211982500131244e-15
  outer loop
    vertex -20.076636756646085 -25.013320093325977 49.95000000000011
    vertex -13.07663675664631 -25.013320093326044 15.196152422706797
    vertex -11.629551027261432 -25.013320093326048 15.795554957734566
  endloop
endfacet
facet normal -9.09536039966647e-16 -1.0 2.8211982500131244e-15
  outer loop
    vertex -20.076636756646085 -25.013320093325977 49.95000000000011
    vertex -11.629551027261432 -25.013320093326048 15.795554957734566
    vertex -10.076636756646305 -25.013320093326048 16.000000000000153
  endloop
endfacet
facet normal -9.09536039966647e-16 -1.0 2.8211982500131244e-15
  outer loop
    vertex -20.076636756646085 -25.013320093325977 49.95000000000011
    vertex -10.076636756646305 -25.013320093326048 16.000000000000153
    vertex 24.92336324335372 -25.0133200933261 49.95
  endloop
endfacet
facet normal 0.00066856635530656 0.9999997765094895 2.5025723178463075e-15
  outer loop
    vertex 0.0 0.0 0.0
    vertex 19.92336324335368 -0.013320093326097114 49.950000000000145
    vertex 19.92336324335378 -0.013320093325738726 -2.255973186038318e-14
  endloop
endfacet
facet normal 0.00066856635530656 0.9999997765094895 2.5025723178463075e-15
  outer loop
    vertex 19.92336324335368 -0.013320093326097114 49.950000000000145
    vertex 0.0 0.0 0.0
    vertex 1.4481807013708306e-13 1.0834955178044463e-13 49.95000000000008
  endloop
endfacet
facet normal 0.707106781186522 0.7071067811865731 1.4032234196318283e-15
  outer loop
    vertex 19.92336324335368 -0.013320093326097114 49.950000000000145
    vertex 24.92336324335378 -5.0133200933257385 -2.255973186038318e-14
    vertex 19.92336324335378 -0.013320093325738726 -2.255973186038318e-14
  endloop
endfacet
facet normal 0.707106781186522 0.7071067811865731 1.4032234196318283e-15
  outer loop
    vertex 24.92336324335378 -5.0133200933257385 -2.255973186038318e-14
    vertex 19.92336324335368 -0.013320093326097114 49.950000000000145
    vertex 24.923363243353936 -5.0133200933256346 49.95000000000005
  endloop
endfacet
facet normal 1.0 -6.838418720178519e-15 -1.5525340995008367e-15
  outer loop
    vertex 24.92336324335378 -5.0133200933257385 -2.255973186038318e-14
    vertex 24.92336324335372 -25.0133200933261 49.95
    vertex 24.92336324335372 -25.0133200933261 -1.8671629690661762e-14
  endloop
endfacet
facet normal 1.0 -6.838418720178519e-15 -1.5525340995008367e-15
  outer loop
    vertex 24.92336324335372 -25.0133200933261 49.95
    vertex 24.92336324335378 -5.0133200933257385 -2.255973186038318e-14
    vertex 24.923363243353936 -5.0133200933256346 49.95000000000005
  endloop
endfacet
facet normal -0.13052619222005216 0.9914448613738104 -1.7721732749795278e-15
  outer loop
    vertex 12.423363243353498 -20.713320093325912 5.867662760254301e-14
    vertex 14.545679413194321 -20.433911868896164 49.950000000000124
    vertex 14.545679413194165 -20.43391186889627 5.191739861720222e-14
  endloop
endfacet
facet normal -0.13052619222005216 0.9914448613738104 -1.7721732749795278e-15
  outer loop
    vertex 14.545679413194321 -20.433911868896164 49.950000000000124
    vertex 12.423363243353498 -20.713320093325912 5.867662760254301e-14
    vertex 12.42336324335365 -20.7133200933258 49.950000000000145
  endloop
endfacet
facet normal -0.3826834323650895 0.9238795325112868 -8.94543685649197e-16
  outer loop
    vertex 14.545679413194165 -20.43391186889627 5.191739861720222e-14
    vertex 16.52336324335365 -19.6147284043582 49.950000000000124
    vertex 16.523363243353494 -19.614728404358306 4.440663751943189e-14
  endloop
endfacet
facet normal -0.3826834323650895 0.9238795325112868 -8.94543685649197e-16
  outer loop
    vertex 16.52336324335365 -19.6147284043582 49.950000000000124
    vertex 14.545679413194165 -20.43391186889627 5.191739861720222e-14
    vertex 14.545679413194321 -20.433911868896164 49.950000000000124
  endloop
endfacet
facet normal -0.6087614290087204 0.7933533402912355 4.404757755479191e-17
  outer loop
    vertex 16.523363243353494 -19.614728404358306 4.440663751943189e-14
    vertex 18.22163884908334 -18.311595699055495 49.950000000000124
    vertex 18.221638849083185 -18.3115956990556 3.665619026592547e-14
  endloop
endfacet
facet normal -0.6087614290087204 0.7933533402912355 4.404757755479191e-17
  outer loop
    vertex 18.22163884908334 -18.311595699055495 49.950000000000124
    vertex 16.523363243353494 -19.614728404358306 4.440663751943189e-14
    vertex 16.52336324335365 -19.6147284043582 49.950000000000124
  endloop
endfacet
facet normal -0.7933533402912355 0.6087614290087202 9.796370711404886e-16
  outer loop
    vertex 18.22163884908334 -18.311595699055495 49.950000000000124
    vertex 19.52477155438589 -16.613320093325914 2.9194237028789763e-14
    vertex 18.221638849083185 -18.3115956990556 3.665619026592547e-14
  endloop
endfacet
facet normal -0.7933533402912355 0.6087614290087202 9.796370711404886e-16
  outer loop
    vertex 19.52477155438589 -16.613320093325914 2.9194237028789763e-14
    vertex 18.22163884908334 -18.311595699055495 49.950000000000124
    vertex 19.524771554386046 -16.613320093325804 49.9500000000001
  endloop
endfacet
facet normal -0.9238795325112865 0.38268343236509067 1.8484659172547587e-15
  outer loop
    vertex 19.524771554386046 -16.613320093325804 49.9500000000001
    vertex 20.343955018923854 -14.635636263166584 2.2529297589674783e-14
    vertex 19.52477155438589 -16.613320093325914 2.9194237028789763e-14
  endloop
endfacet
facet normal -0.9238795325112865 0.38268343236509067 1.8484659172547587e-15
  outer loop
    vertex 20.343955018923854 -14.635636263166584 2.2529297589674783e-14
    vertex 19.524771554386046 -16.613320093325804 49.9500000000001
    vertex 20.34395501892401 -14.635636263166477 49.9500000000001
  endloop
endfacet
facet normal -0.9914448613738107 0.1305261922200507 2.591324865842488e-15
  outer loop
    vertex 20.34395501892401 -14.635636263166477 49.9500000000001
    vertex 20.62336324335349 -12.513320093325913 1.7115576557023008e-14
    vertex 20.343955018923854 -14.635636263166584 2.2529297589674783e-14
  endloop
endfacet
facet normal -0.9914448613738107 0.1305261922200507 2.591324865842488e-15
  outer loop
    vertex 20.62336324335349 -12.513320093325913 1.7115576557023008e-14
    vertex 20.34395501892401 -14.635636263166477 49.9500000000001
    vertex 20.623363243353648 -12.5133200933258 49.9500000000001
  endloop
endfacet
facet normal -0.9914448613738105 -0.13052619222005085 3.157589307189861e-15
  outer loop
    vertex 20.623363243353648 -12.5133200933258 49.9500000000001
    vertex 20.343955018923854 -10.391003923485245 1.3322010072612668e-14
    vertex 20.62336324335349 -12.513320093325913 1.7115576557023008e-14
  endloop
endfacet
facet normal -0.9914448613738105 -0.13052619222005085 3.157589307189861e-15
  outer loop
    vertex 20.343955018923854 -10.391003923485245 1.3322010072612668e-14
    vertex 20.623363243353648 -12.5133200933258 49.9500000000001
    vertex 20.34395501892401 -10.391003923485131 49.9500000000001
  endloop
endfacet
facet normal -0.923879532511287 -0.3826834323650893 3.5086692554153018e-15
  outer loop
    vertex 20.34395501892401 -10.391003923485131 49.9500000000001
    vertex 19.524771554385893 -8.413320093325915 1.1407123423191265e-14
    vertex 20.343955018923854 -10.391003923485245 1.3322010072612668e-14
  endloop
endfacet
facet normal -0.923879532511287 -0.3826834323650893 3.5086692554153018e-15
  outer loop
    vertex 19.524771554385893 -8.413320093325915 1.1407123423191265e-14
    vertex 20.34395501892401 -10.391003923485131 49.9500000000001
    vertex 19.524771554386046 -8.413320093325801 49.95000000000009
  endloop
endfacet
facet normal -0.7933533402912355 -0.6087614290087202 3.6206391922342905e-15
  outer loop
    vertex 19.524771554386046 -8.413320093325801 49.95000000000009
    vertex 18.221638849083188 -6.715044487596226 1.1501412969417074e-14
    vertex 19.524771554385893 -8.413320093325915 1.1407123423191265e-14
  endloop
endfacet
facet normal -0.7933533402912355 -0.6087614290087202 3.6206391922342905e-15
  outer loop
    vertex 18.221638849083188 -6.715044487596226 1.1501412969417074e-14
    vertex 19.524771554386046 -8.413320093325801 49.95000000000009
    vertex 18.221638849083345 -6.7150444875961135 49.95000000000009
  endloop
endfacet
facet normal -0.6087614290087215 -0.7933533402912346 3.485868551491683e-15
  outer loop
    vertex 18.221638849083345 -6.7150444875961135 49.95000000000009
    vertex 16.5233632433535 -5.411911782293518 1.3598453034535639e-14
    vertex 18.221638849083188 -6.715044487596226 1.1501412969417074e-14
  endloop
endfacet
facet normal -0.6087614290087215 -0.7933533402912346 3.485868551491683e-15
  outer loop
    vertex 16.5233632433535 -5.411911782293518 1.3598453034535639e-14
    vertex 18.221638849083345 -6.7150444875961135 49.95000000000009
    vertex 16.523363243353653 -5.411911782293415 49.9500000000001
  endloop
endfacet
facet normal -0.3826834323650906 -0.9238795325112865 3.113541729635071e-15
  outer loop
    vertex 16.523363243353653 -5.411911782293415 49.9500000000001
    vertex 14.545679413194174 -4.5927283177555545 1.7555333803631692e-14
    vertex 16.5233632433535 -5.411911782293518 1.3598453034535639e-14
  endloop
endfacet
facet normal -0.3826834323650906 -0.9238795325112865 3.113541729635071e-15
  outer loop
    vertex 14.545679413194174 -4.5927283177555545 1.7555333803631692e-14
    vertex 16.523363243353653 -5.411911782293415 49.9500000000001
    vertex 14.545679413194328 -4.592728317755451 49.9500000000001
  endloop
endfacet
facet normal -0.1305261922200517 -0.9914448613738104 2.529032184274817e-15
  outer loop
    vertex 14.545679413194328 -4.592728317755451 49.9500000000001
    vertex 12.4233632433535 -4.313320093325914 2.3102400391346014e-14
    vertex 14.545679413194174 -4.5927283177555545 1.7555333803631692e-14
  endloop
endfacet
facet normal -0.1305261922200517 -0.9914448613738104 2.529032184274817e-15
  outer loop
    vertex 12.4233632433535 -4.313320093325914 2.3102400391346014e-14
    vertex 14.545679413194328 -4.592728317755451 49.9500000000001
    vertex 12.423363243353652 -4.31332009332581 49.9500000000001
  endloop
endfacet
facet normal 0.1305261922200516 -0.9914448613738105 1.7721732749795294e-15
  outer loop
    vertex 12.423363243353652 -4.31332009332581 49.9500000000001
    vertex 10.301047073512832 -4.592728317755554 2.98616293766868e-14
    vertex 12.4233632433535 -4.313320093325914 2.3102400391346014e-14
  endloop
endfacet
facet normal 0.1305261922200516 -0.9914448613738105 1.7721732749795294e-15
  outer loop
    vertex 10.301047073512832 -4.592728317755554 2.98616293766868e-14
    vertex 12.423363243353652 -4.31332009332581 49.9500000000001
    vertex 10.301047073512986 -4.59272831775545 49.9500000000001
  endloop
endfacet
facet normal 0.38268343236508917 -0.923879532511287 8.945436856491985e-16
  outer loop
    vertex 10.301047073512986 -4.59272831775545 49.9500000000001
    vertex 8.323363243353505 -5.411911782293513 3.737239047445713e-14
    vertex 10.301047073512832 -4.592728317755554 2.98616293766868e-14
  endloop
endfacet
facet normal 0.38268343236508917 -0.923879532511287 8.945436856491985e-16
  outer loop
    vertex 8.323363243353505 -5.411911782293513 3.737239047445713e-14
    vertex 10.301047073512986 -4.59272831775545 49.9500000000001
    vertex 8.32336324335366 -5.41191178229341 49.950000000000124
  endloop
endfacet
facet normal 0.6087614290087202 -0.7933533402912357 -4.404757755479068e-17
  outer loop
    vertex 8.32336324335366 -5.41191178229341 49.950000000000124
    vertex 6.625087637623811 -6.715044487596223 4.512283772796356e-14
    vertex 8.323363243353505 -5.411911782293513 3.737239047445713e-14
  endloop
endfacet
facet normal 0.6087614290087202 -0.7933533402912357 -4.404757755479068e-17
  outer loop
    vertex 6.625087637623811 -6.715044487596223 4.512283772796356e-14
    vertex 8.32336324335366 -5.41191178229341 49.950000000000124
    vertex 6.625087637623965 -6.71504448759611 49.950000000000124
  endloop
endfacet
facet normal 0.7933533402912349 -0.6087614290087209 -9.796370711404852e-16
  outer loop
    vertex 6.625087637623811 -6.715044487596223 4.512283772796356e-14
    vertex 5.3219549323212485 -8.413320093325796 49.950000000000124
    vertex 5.3219549323211055 -8.41332009332591 5.258479096509925e-14
  endloop
endfacet
facet normal 0.7933533402912349 -0.6087614290087209 -9.796370711404852e-16
  outer loop
    vertex 5.3219549323212485 -8.413320093325796 49.950000000000124
    vertex 6.625087637623811 -6.715044487596223 4.512283772796356e-14
    vertex 6.625087637623965 -6.71504448759611 49.950000000000124
  endloop
endfacet
facet normal 0.9238795325112865 -0.3826834323650906 -1.8484659172547595e-15
  outer loop
    vertex 5.3219549323211055 -8.41332009332591 5.258479096509925e-14
    vertex 4.502771467783285 -10.391003923485123 49.950000000000145
    vertex 4.502771467783142 -10.391003923485234 5.924973040421423e-14
  endloop
endfacet
facet normal 0.9238795325112865 -0.3826834323650906 -1.8484659172547595e-15
  outer loop
    vertex 4.502771467783285 -10.391003923485123 49.950000000000145
    vertex 5.3219549323211055 -8.41332009332591 5.258479096509925e-14
    vertex 5.3219549323212485 -8.413320093325796 49.950000000000124
  endloop
endfacet
facet normal 0.9914448613738105 -0.13052619222005163 -2.5913248658424853e-15
  outer loop
    vertex 4.502771467783142 -10.391003923485234 5.924973040421423e-14
    vertex 4.223363243353645 -12.513320093325799 49.950000000000145
    vertex 4.223363243353501 -12.51332009332591 6.466345143686602e-14
  endloop
endfacet
facet normal 0.9914448613738105 -0.13052619222005163 -2.5913248658424853e-15
  outer loop
    vertex 4.223363243353645 -12.513320093325799 49.950000000000145
    vertex 4.502771467783142 -10.391003923485234 5.924973040421423e-14
    vertex 4.502771467783285 -10.391003923485123 49.950000000000145
  endloop
endfacet
facet normal 0.9914448613738106 0.13052619222005143 -3.1575893071898627e-15
  outer loop
    vertex 4.223363243353501 -12.51332009332591 6.466345143686602e-14
    vertex 4.502771467783284 -14.635636263166473 49.950000000000145
    vertex 4.50277146778314 -14.63563626316658 6.845701792127636e-14
  endloop
endfacet
facet normal 0.9914448613738106 0.13052619222005143 -3.1575893071898627e-15
  outer loop
    vertex 4.502771467783284 -14.635636263166473 49.950000000000145
    vertex 4.223363243353501 -12.51332009332591 6.466345143686602e-14
    vertex 4.223363243353645 -12.513320093325799 49.950000000000145
  endloop
endfacet
facet normal 0.9238795325112867 0.3826834323650901 -3.5086692554153033e-15
  outer loop
    vertex 4.50277146778314 -14.63563626316658 6.845701792127636e-14
    vertex 5.321954932321248 -16.613320093325804 49.950000000000145
    vertex 5.321954932321105 -16.61332009332591 7.037190457069777e-14
  endloop
endfacet
facet normal 0.9238795325112867 0.3826834323650901 -3.5086692554153033e-15
  outer loop
    vertex 5.321954932321248 -16.613320093325804 49.950000000000145
    vertex 4.50277146778314 -14.63563626316658 6.845701792127636e-14
    vertex 4.502771467783284 -14.635636263166473 49.950000000000145
  endloop
endfacet
facet normal 0.7933533402912358 0.60876142900872 -3.620639192234291e-15
  outer loop
    vertex 5.321954932321105 -16.61332009332591 7.037190457069777e-14
    vertex 6.625087637623964 -18.311595699055495 49.950000000000145
    vertex 6.62508763762381 -18.3115956990556 7.027761502447195e-14
  endloop
endfacet
facet normal 0.7933533402912358 0.60876142900872 -3.620639192234291e-15
  outer loop
    vertex 6.625087637623964 -18.311595699055495 49.950000000000145
    vertex 5.321954932321105 -16.61332009332591 7.037190457069777e-14
    vertex 5.321954932321248 -16.613320093325804 49.950000000000145
  endloop
endfacet
facet normal 0.6087614290087211 0.793353340291235 -3.485868551491683e-15
  outer loop
    vertex 6.62508763762381 -18.3115956990556 7.027761502447195e-14
    vertex 8.323363243353652 -19.6147284043582 49.950000000000145
    vertex 8.323363243353498 -19.614728404358306 6.818057495935338e-14
  endloop
endfacet
facet normal 0.6087614290087211 0.793353340291235 -3.485868551491683e-15
  outer loop
    vertex 8.323363243353652 -19.6147284043582 49.950000000000145
    vertex 6.62508763762381 -18.3115956990556 7.027761502447195e-14
    vertex 6.625087637623964 -18.311595699055495 49.950000000000145
  endloop
endfacet
facet normal 0.3826834323650884 0.9238795325112874 -3.1135417296350664e-15
  outer loop
    vertex 8.323363243353498 -19.614728404358306 6.818057495935338e-14
    vertex 10.301047073512981 -20.43391186889616 49.950000000000145
    vertex 10.301047073512827 -20.433911868896267 6.422369419025732e-14
  endloop
endfacet
facet normal 0.3826834323650884 0.9238795325112874 -3.1135417296350664e-15
  outer loop
    vertex 10.301047073512981 -20.43391186889616 49.950000000000145
    vertex 8.323363243353498 -19.614728404358306 6.818057495935338e-14
    vertex 8.323363243353652 -19.6147284043582 49.950000000000145
  endloop
endfacet
facet normal 0.13052619222005327 0.9914448613738102 -2.529032184274821e-15
  outer loop
    vertex 10.301047073512827 -20.433911868896267 6.422369419025732e-14
    vertex 12.42336324335365 -20.7133200933258 49.950000000000145
    vertex 12.423363243353498 -20.713320093325912 5.867662760254301e-14
  endloop
endfacet
facet normal 0.13052619222005327 0.9914448613738102 -2.529032184274821e-15
  outer loop
    vertex 12.42336324335365 -20.7133200933258 49.950000000000145
    vertex 10.301047073512827 -20.433911868896267 6.422369419025732e-14
    vertex 10.301047073512981 -20.43391186889616 49.950000000000145
  endloop
endfacet
facet normal 1.5773470259893687e-15 -1.2608902626274699e-15 1.0
  outer loop
    vertex -20.076636756646085 -25.013320093325977 49.95000000000011
    vertex 8.323363243353652 -19.6147284043582 49.950000000000145
    vertex -20.07663675664601 -0.013320093326207039 49.950000000000145
  endloop
endfacet
facet normal 1.5773470259893687e-15 -1.2608902626274699e-15 1.0
  outer loop
    vertex 8.323363243353652 -19.6147284043582 49.950000000000145
    vertex -20.076636756646085 -25.013320093325977 49.95000000000011
    vertex 10.301047073512981 -20.43391186889616 49.950000000000145
  endloop
endfacet
facet normal 1.5773470259893687e-15 -1.2608902626274699e-15 1.0
  outer loop
    vertex 10.301047073512981 -20.43391186889616 49.950000000000145
    vertex -20.076636756646085 -25.013320093325977 49.95000000000011
    vertex 24.92336324335372 -25.0133200933261 49.95
  endloop
endfacet
facet normal 1.5773470259893687e-15 -1.2608902626274699e-15 1.0
  outer loop
    vertex -20.07663675664601 -0.013320093326207039 49.950000000000145
    vertex 8.323363243353652 -19.6147284043582 49.950000000000145
    vertex 6.625087637623964 -18.311595699055495 49.950000000000145
  endloop
endfacet
facet normal 1.5773470259893687e-15 -1.2608902626274699e-15 1.0
  outer loop
    vertex -20.07663675664601 -0.013320093326207039 49.950000000000145
    vertex 6.625087637623964 -18.311595699055495 49.950000000000145
    vertex 5.321954932321248 -16.613320093325804 49.950000000000145
  endloop
endfacet
facet normal 1.5773470259893687e-15 -1.2608902626274699e-15 1.0
  outer loop
    vertex -20.07663675664601 -0.013320093326207039 49.950000000000145
    vertex 5.321954932321248 -16.613320093325804 49.950000000000145
    vertex 4.502771467783284 -14.635636263166473 49.950000000000145
  endloop
endfacet
facet normal 1.5773470259893687e-15 -1.2608902626274699e-15 1.0
  outer loop
    vertex -20.07663675664601 -0.013320093326207039 49.950000000000145
    vertex 4.502771467783284 -14.635636263166473 49.950000000000145
    vertex 1.4481807013708306e-13 1.0834955178044463e-13 49.95000000000008
  endloop
endfacet
facet normal 1.5773470259893687e-15 -1.2608902626274699e-15 1.0
  outer loop
    vertex 1.4481807013708306e-13 1.0834955178044463e-13 49.95000000000008
    vertex 4.502771467783284 -14.635636263166473 49.950000000000145
    vertex 4.223363243353645 -12.513320093325799 49.950000000000145
  endloop
endfacet
facet normal 1.5773470259893687e-15 -1.2608902626274699e-15 1.0
  outer loop
    vertex 10.301047073512981 -20.43391186889616 49.950000000000145
    vertex 24.92336324335372 -25.0133200933261 49.95
    vertex 12.42336324335365 -20.7133200933258 49.950000000000145
  endloop
endfacet
facet normal 1.5773470259893687e-15 -1.2608902626274699e-15 1.0
  outer loop
    vertex 12.42336324335365 -20.7133200933258 49.950000000000145
    vertex 24.92336324335372 -25.0133200933261 49.95
    vertex 14.545679413194321 -20.433911868896164 49.950000000000124
  endloop
endfacet
facet normal 1.5773470259893687e-15 -1.2608902626274699e-15 1.0
  outer loop
    vertex 14.545679413194321 -20.433911868896164 49.950000000000124
    vertex 24.92336324335372 -25.0133200933261 49.95
    vertex 16.52336324335365 -19.6147284043582 49.950000000000124
  endloop
endfacet
facet normal 1.5773470259893687e-15 -1.2608902626274699e-15 1.0
  outer loop
    vertex 16.52336324335365 -19.6147284043582 49.950000000000124
    vertex 24.92336324335372 -25.0133200933261 49.95
    vertex 18.22163884908334 -18.311595699055495 49.950000000000124
  endloop
endfacet
facet normal 1.5773470259893687e-15 -1.2608902626274699e-15 1.0
  outer loop
    vertex 18.22163884908334 -18.311595699055495 49.950000000000124
    vertex 24.92336324335372 -25.0133200933261 49.95
    vertex 19.524771554386046 -16.613320093325804 49.9500000000001
  endloop
endfacet
facet normal 1.5773470259893687e-15 -1.2608902626274699e-15 1.0
  outer loop
    vertex 19.524771554386046 -16.613320093325804 49.9500000000001
    vertex 24.92336324335372 -25.0133200933261 49.95
    vertex 20.34395501892401 -14.635636263166477 49.9500000000001
  endloop
endfacet
facet normal 1.5773470259893687e-15 -1.2608902626274699e-15 1.0
  outer loop
    vertex 20.34395501892401 -14.635636263166477 49.9500000000001
    vertex 24.92336324335372 -25.0133200933261 49.95
    vertex 20.623363243353648 -12.5133200933258 49.9500000000001
  endloop
endfacet
facet normal 1.5773470259893687e-15 -1.2608902626274699e-15 1.0
  outer loop
    vertex 1.4481807013708306e-13 1.0834955178044463e-13 49.95000000000008
    vertex 8.32336324335366 -5.41191178229341 49.950000000000124
    vertex 19.92336324335368 -0.013320093326097114 49.950000000000145
  endloop
endfacet
facet normal 1.5773470259893687e-15 -1.2608902626274699e-15 1.0
  outer loop
    vertex 8.32336324335366 -5.41191178229341 49.950000000000124
    vertex 1.4481807013708306e-13 1.0834955178044463e-13 49.95000000000008
    vertex 6.625087637623965 -6.71504448759611 49.950000000000124
  endloop
endfacet
facet normal 1.5773470259893687e-15 -1.2608902626274699e-15 1.0
  outer loop
    vertex 6.625087637623965 -6.71504448759611 49.950000000000124
    vertex 1.4481807013708306e-13 1.0834955178044463e-13 49.95000000000008
    vertex 5.3219549323212485 -8.413320093325796 49.950000000000124
  endloop
endfacet
facet normal 1.5773470259893687e-15 -1.2608902626274699e-15 1.0
  outer loop
    vertex 5.3219549323212485 -8.413320093325796 49.950000000000124
    vertex 1.4481807013708306e-13 1.0834955178044463e-13 49.95000000000008
    vertex 4.502771467783285 -10.391003923485123 49.950000000000145
  endloop
endfacet
facet normal 1.5773470259893687e-15 -1.2608902626274699e-15 1.0
  outer loop
    vertex 4.502771467783285 -10.391003923485123 49.950000000000145
    vertex 1.4481807013708306e-13 1.0834955178044463e-13 49.95000000000008
    vertex 4.223363243353645 -12.513320093325799 49.950000000000145
  endloop
endfacet
facet normal 1.5773470259893687e-15 -1.2608902626274699e-15 1.0
  outer loop
    vertex 19.92336324335368 -0.013320093326097114 49.950000000000145
    vertex 8.32336324335366 -5.41191178229341 49.950000000000124
    vertex 10.301047073512986 -4.59272831775545 49.9500000000001
  endloop
endfacet
facet normal 1.5773470259893687e-15 -1.2608902626274699e-15 1.0
  outer loop
    vertex 19.92336324335368 -0.013320093326097114 49.950000000000145
    vertex 10.301047073512986 -4.59272831775545 49.9500000000001
    vertex 12.423363243353652 -4.31332009332581 49.9500000000001
  endloop
endfacet
facet normal 1.5773470259893687e-15 -1.2608902626274699e-15 1.0
  outer loop
    vertex 19.92336324335368 -0.013320093326097114 49.950000000000145
    vertex 12.423363243353652 -4.31332009332581 49.9500000000001
    vertex 14.545679413194328 -4.592728317755451 49.9500000000001
  endloop
endfacet
facet normal 1.5773470259893687e-15 -1.2608902626274699e-15 1.0
  outer loop
    vertex 19.92336324335368 -0.013320093326097114 49.950000000000145
    vertex 14.545679413194328 -4.592728317755451 49.9500000000001
    vertex 16.523363243353653 -5.411911782293415 49.9500000000001
  endloop
endfacet
facet normal 1.5773470259893687e-15 -1.2608902626274699e-15 1.0
  outer loop
    vertex 19.92336324335368 -0.013320093326097114 49.950000000000145
    vertex 16.523363243353653 -5.411911782293415 49.9500000000001
    vertex 18.221638849083345 -6.7150444875961135 49.95000000000009
  endloop
endfacet
facet normal 1.5773470259893687e-15 -1.2608902626274699e-15 1.0
  outer loop
    vertex 19.92336324335368 -0.013320093326097114 49.950000000000145
    vertex 18.221638849083345 -6.7150444875961135 49.95000000000009
    vertex 19.524771554386046 -8.413320093325801 49.95000000000009
  endloop
endfacet
facet normal 1.5773470259893687e-15 -1.2608902626274699e-15 1.0
  outer loop
    vertex 19.92336324335368 -0.013320093326097114 49.950000000000145
    vertex 19.524771554386046 -8.413320093325801 49.95000000000009
    vertex 20.34395501892401 -10.391003923485131 49.9500000000001
  endloop
endfacet
facet normal 1.5773470259893687e-15 -1.2608902626274699e-15 1.0
  outer loop
    vertex 19.92336324335368 -0.013320093326097114 49.950000000000145
    vertex 20.34395501892401 -10.391003923485131 49.9500000000001
    vertex 24.923363243353936 -5.0133200933256346 49.95000000000005
  endloop
endfacet
facet normal 1.5773470259893687e-15 -1.2608902626274699e-15 1.0
  outer loop
    vertex 24.923363243353936 -5.0133200933256346 49.95000000000005
    vertex 20.34395501892401 -10.391003923485131 49.9500000000001
    vertex 20.623363243353648 -12.5133200933258 49.9500000000001
  endloop
endfacet
facet normal 1.5773470259893687e-15 -1.2608902626274699e-15 1.0
  outer loop
    vertex 24.923363243353936 -5.0133200933256346 49.95000000000005
    vertex 20.623363243353648 -12.5133200933258 49.9500000000001
    vertex 24.92336324335372 -25.0133200933261 49.95
  endloop
endfacet
endsolid Верхний-Уголок-Под-12мм-вал-МФКС
