solid Клешня-Муфта
facet normal -0.9914448613738105 -0.13052619222005174 -0.0
  outer loop
    vertex 4.346666218300808 1.1646857029613435 20.0
    vertex 4.5 0.0 10.0
    vertex 4.5 0.0 20.0
  endloop
endfacet
facet normal -0.9914448613738105 -0.13052619222005174 -0.0
  outer loop
    vertex 4.5 0.0 10.0
    vertex 4.346666218300808 1.1646857029613435 20.0
    vertex 4.346666218300808 1.1646857029613435 10.0
  endloop
endfacet
facet normal -0.9238795325112868 -0.3826834323650897 -0.0
  outer loop
    vertex 3.897114317029974 2.2499999999999996 20.0
    vertex 4.346666218300808 1.1646857029613435 10.0
    vertex 4.346666218300808 1.1646857029613435 20.0
  endloop
endfacet
facet normal -0.9238795325112868 -0.3826834323650897 -0.0
  outer loop
    vertex 4.346666218300808 1.1646857029613435 10.0
    vertex 3.897114317029974 2.2499999999999996 20.0
    vertex 3.897114317029974 2.2499999999999996 10.0
  endloop
endfacet
facet normal -0.7933533402912353 -0.6087614290087205 -0.0
  outer loop
    vertex 3.1819805153394642 3.1819805153394642 20.0
    vertex 3.897114317029974 2.2499999999999996 10.0
    vertex 3.897114317029974 2.2499999999999996 20.0
  endloop
endfacet
facet normal -0.7933533402912353 -0.6087614290087205 -0.0
  outer loop
    vertex 3.897114317029974 2.2499999999999996 10.0
    vertex 3.1819805153394642 3.1819805153394642 20.0
    vertex 3.1819805153394642 3.1819805153394642 10.0
  endloop
endfacet
facet normal -0.6087614290087209 -0.793353340291235 -0.0
  outer loop
    vertex 3.1819805153394642 3.1819805153394642 20.0
    vertex 2.2500000000000004 3.897114317029974 10.0
    vertex 3.1819805153394642 3.1819805153394642 10.0
  endloop
endfacet
facet normal -0.6087614290087209 -0.793353340291235 -0.0
  outer loop
    vertex 2.2500000000000004 3.897114317029974 10.0
    vertex 3.1819805153394642 3.1819805153394642 20.0
    vertex 2.2500000000000004 3.897114317029974 20.0
  endloop
endfacet
facet normal -0.3826834323650897 -0.9238795325112867 -0.0
  outer loop
    vertex 2.2500000000000004 3.897114317029974 20.0
    vertex 1.1646857029613444 4.346666218300808 10.0
    vertex 2.2500000000000004 3.897114317029974 10.0
  endloop
endfacet
facet normal -0.3826834323650897 -0.9238795325112867 -0.0
  outer loop
    vertex 1.1646857029613444 4.346666218300808 10.0
    vertex 2.2500000000000004 3.897114317029974 20.0
    vertex 1.1646857029613444 4.346666218300808 20.0
  endloop
endfacet
facet normal -0.13052619222005168 -0.9914448613738105 -0.0
  outer loop
    vertex 1.1646857029613444 4.346666218300808 20.0
    vertex 2.755455298081545e-16 4.5 10.0
    vertex 1.1646857029613444 4.346666218300808 10.0
  endloop
endfacet
facet normal -0.13052619222005168 -0.9914448613738105 -0.0
  outer loop
    vertex 2.755455298081545e-16 4.5 10.0
    vertex 1.1646857029613444 4.346666218300808 20.0
    vertex 2.755455298081545e-16 4.5 20.0
  endloop
endfacet
facet normal 0.13052619222005174 -0.9914448613738104 0.0
  outer loop
    vertex 2.755455298081545e-16 4.5 20.0
    vertex -1.1646857029613429 4.346666218300808 10.0
    vertex 2.755455298081545e-16 4.5 10.0
  endloop
endfacet
facet normal 0.13052619222005174 -0.9914448613738104 0.0
  outer loop
    vertex -1.1646857029613429 4.346666218300808 10.0
    vertex 2.755455298081545e-16 4.5 20.0
    vertex -1.1646857029613429 4.346666218300808 20.0
  endloop
endfacet
facet normal 0.3826834323650897 -0.9238795325112867 0.0
  outer loop
    vertex -1.1646857029613429 4.346666218300808 20.0
    vertex -2.249999999999999 3.897114317029974 10.0
    vertex -1.1646857029613429 4.346666218300808 10.0
  endloop
endfacet
facet normal 0.3826834323650897 -0.9238795325112867 0.0
  outer loop
    vertex -2.249999999999999 3.897114317029974 10.0
    vertex -1.1646857029613429 4.346666218300808 20.0
    vertex -2.249999999999999 3.897114317029974 20.0
  endloop
endfacet
facet normal 0.6087614290087202 -0.7933533402912356 0.0
  outer loop
    vertex -2.249999999999999 3.897114317029974 20.0
    vertex -3.1819805153394642 3.1819805153394642 10.0
    vertex -2.249999999999999 3.897114317029974 10.0
  endloop
endfacet
facet normal 0.6087614290087202 -0.7933533402912356 0.0
  outer loop
    vertex -3.1819805153394642 3.1819805153394642 10.0
    vertex -2.249999999999999 3.897114317029974 20.0
    vertex -3.1819805153394642 3.1819805153394642 20.0
  endloop
endfacet
facet normal 0.7933533402912349 -0.6087614290087209 0.0
  outer loop
    vertex -3.1819805153394642 3.1819805153394642 10.0
    vertex -3.8971143170299736 2.2500000000000013 20.0
    vertex -3.8971143170299736 2.2500000000000013 10.0
  endloop
endfacet
facet normal 0.7933533402912349 -0.6087614290087209 0.0
  outer loop
    vertex -3.8971143170299736 2.2500000000000013 20.0
    vertex -3.1819805153394642 3.1819805153394642 10.0
    vertex -3.1819805153394642 3.1819805153394642 20.0
  endloop
endfacet
facet normal 0.9238795325112867 -0.3826834323650901 0.0
  outer loop
    vertex -3.8971143170299736 2.2500000000000013 10.0
    vertex -4.346666218300808 1.1646857029613447 20.0
    vertex -4.346666218300808 1.1646857029613447 10.0
  endloop
endfacet
facet normal 0.9238795325112867 -0.3826834323650901 0.0
  outer loop
    vertex -4.346666218300808 1.1646857029613447 20.0
    vertex -3.8971143170299736 2.2500000000000013 10.0
    vertex -3.8971143170299736 2.2500000000000013 20.0
  endloop
endfacet
facet normal 0.9914448613738105 -0.13052619222005166 0.0
  outer loop
    vertex -4.346666218300808 1.1646857029613447 10.0
    vertex -4.5 5.51091059616309e-16 20.0
    vertex -4.5 5.51091059616309e-16 10.0
  endloop
endfacet
facet normal 0.9914448613738105 -0.13052619222005166 0.0
  outer loop
    vertex -4.5 5.51091059616309e-16 20.0
    vertex -4.346666218300808 1.1646857029613447 10.0
    vertex -4.346666218300808 1.1646857029613447 20.0
  endloop
endfacet
facet normal 0.9914448613738106 0.1305261922200513 0.0
  outer loop
    vertex -4.5 5.51091059616309e-16 10.0
    vertex -4.3466662183008085 -1.1646857029613418 20.0
    vertex -4.3466662183008085 -1.1646857029613418 10.0
  endloop
endfacet
facet normal 0.9914448613738106 0.1305261922200513 0.0
  outer loop
    vertex -4.3466662183008085 -1.1646857029613418 20.0
    vertex -4.5 5.51091059616309e-16 10.0
    vertex -4.5 5.51091059616309e-16 20.0
  endloop
endfacet
facet normal 0.9238795325112868 0.3826834323650895 0.0
  outer loop
    vertex -4.3466662183008085 -1.1646857029613418 10.0
    vertex -3.897114317029975 -2.2499999999999987 20.0
    vertex -3.897114317029975 -2.2499999999999987 10.0
  endloop
endfacet
facet normal 0.9238795325112868 0.3826834323650895 0.0
  outer loop
    vertex -3.897114317029975 -2.2499999999999987 20.0
    vertex -4.3466662183008085 -1.1646857029613418 10.0
    vertex -4.3466662183008085 -1.1646857029613418 20.0
  endloop
endfacet
facet normal 0.7933533402912352 0.6087614290087205 0.0
  outer loop
    vertex -3.897114317029975 -2.2499999999999987 10.0
    vertex -3.1819805153394656 -3.181980515339462 20.0
    vertex -3.1819805153394656 -3.181980515339462 10.0
  endloop
endfacet
facet normal 0.7933533402912352 0.6087614290087205 0.0
  outer loop
    vertex -3.1819805153394656 -3.181980515339462 20.0
    vertex -3.897114317029975 -2.2499999999999987 10.0
    vertex -3.897114317029975 -2.2499999999999987 20.0
  endloop
endfacet
facet normal 0.6087614290087213 0.7933533402912347 0.0
  outer loop
    vertex -3.1819805153394656 -3.181980515339462 20.0
    vertex -2.250000000000002 -3.8971143170299727 10.0
    vertex -3.1819805153394656 -3.181980515339462 10.0
  endloop
endfacet
facet normal 0.6087614290087213 0.7933533402912347 0.0
  outer loop
    vertex -2.250000000000002 -3.8971143170299727 10.0
    vertex -3.1819805153394656 -3.181980515339462 20.0
    vertex -2.250000000000002 -3.8971143170299727 20.0
  endloop
endfacet
facet normal 0.38268343236509045 0.9238795325112864 0.0
  outer loop
    vertex -2.250000000000002 -3.8971143170299727 20.0
    vertex -1.1646857029613469 -4.346666218300807 10.0
    vertex -2.250000000000002 -3.8971143170299727 10.0
  endloop
endfacet
facet normal 0.38268343236509045 0.9238795325112864 0.0
  outer loop
    vertex -1.1646857029613469 -4.346666218300807 10.0
    vertex -2.250000000000002 -3.8971143170299727 20.0
    vertex -1.1646857029613469 -4.346666218300807 20.0
  endloop
endfacet
facet normal 0.13052619222005207 0.9914448613738105 0.0
  outer loop
    vertex -1.1646857029613469 -4.346666218300807 20.0
    vertex -8.266365894244633e-16 -4.5 10.0
    vertex -1.1646857029613469 -4.346666218300807 10.0
  endloop
endfacet
facet normal 0.13052619222005207 0.9914448613738105 0.0
  outer loop
    vertex -8.266365894244633e-16 -4.5 10.0
    vertex -1.1646857029613469 -4.346666218300807 20.0
    vertex -8.266365894244633e-16 -4.5 20.0
  endloop
endfacet
facet normal -0.1305261922200513 0.9914448613738106 0.0
  outer loop
    vertex -8.266365894244633e-16 -4.5 20.0
    vertex 1.1646857029613413 -4.3466662183008085 10.0
    vertex -8.266365894244633e-16 -4.5 10.0
  endloop
endfacet
facet normal -0.1305261922200513 0.9914448613738106 0.0
  outer loop
    vertex 1.1646857029613413 -4.3466662183008085 10.0
    vertex -8.266365894244633e-16 -4.5 20.0
    vertex 1.1646857029613413 -4.3466662183008085 20.0
  endloop
endfacet
facet normal -0.3826834323650894 0.9238795325112868 0.0
  outer loop
    vertex 1.1646857029613413 -4.3466662183008085 20.0
    vertex 2.249999999999997 -3.8971143170299753 10.0
    vertex 1.1646857029613413 -4.3466662183008085 10.0
  endloop
endfacet
facet normal -0.3826834323650894 0.9238795325112868 0.0
  outer loop
    vertex 2.249999999999997 -3.8971143170299753 10.0
    vertex 1.1646857029613413 -4.3466662183008085 20.0
    vertex 2.249999999999997 -3.8971143170299753 20.0
  endloop
endfacet
facet normal -0.60876142900872 0.7933533402912357 0.0
  outer loop
    vertex 2.249999999999997 -3.8971143170299753 20.0
    vertex 3.1819805153394634 -3.1819805153394647 10.0
    vertex 2.249999999999997 -3.8971143170299753 10.0
  endloop
endfacet
facet normal -0.60876142900872 0.7933533402912357 0.0
  outer loop
    vertex 3.1819805153394634 -3.1819805153394647 10.0
    vertex 2.249999999999997 -3.8971143170299753 20.0
    vertex 3.1819805153394634 -3.1819805153394647 20.0
  endloop
endfacet
facet normal -0.7933533402912349 0.6087614290087209 0.0
  outer loop
    vertex 3.8971143170299727 -2.250000000000002 20.0
    vertex 3.1819805153394634 -3.1819805153394647 10.0
    vertex 3.1819805153394634 -3.1819805153394647 20.0
  endloop
endfacet
facet normal -0.7933533402912349 0.6087614290087209 0.0
  outer loop
    vertex 3.1819805153394634 -3.1819805153394647 10.0
    vertex 3.8971143170299727 -2.250000000000002 20.0
    vertex 3.8971143170299727 -2.250000000000002 10.0
  endloop
endfacet
facet normal -0.9238795325112864 0.3826834323650906 0.0
  outer loop
    vertex 4.346666218300807 -1.164685702961347 20.0
    vertex 3.8971143170299727 -2.250000000000002 10.0
    vertex 3.8971143170299727 -2.250000000000002 20.0
  endloop
endfacet
facet normal -0.9238795325112864 0.3826834323650906 0.0
  outer loop
    vertex 3.8971143170299727 -2.250000000000002 10.0
    vertex 4.346666218300807 -1.164685702961347 20.0
    vertex 4.346666218300807 -1.164685702961347 10.0
  endloop
endfacet
facet normal -0.9914448613738104 0.13052619222005193 0.0
  outer loop
    vertex 4.5 0.0 20.0
    vertex 4.346666218300807 -1.164685702961347 10.0
    vertex 4.346666218300807 -1.164685702961347 20.0
  endloop
endfacet
facet normal -0.9914448613738104 0.13052619222005193 0.0
  outer loop
    vertex 4.346666218300807 -1.164685702961347 10.0
    vertex 4.5 0.0 20.0
    vertex 4.5 0.0 10.0
  endloop
endfacet
facet normal -0.0 -0.0 1.0
  outer loop
    vertex -5.000000000000001 -2.8867513459481273 20.0
    vertex -4.3466662183008085 -1.1646857029613418 20.0
    vertex -4.999999999999998 2.8867513459481304 20.0
  endloop
endfacet
facet normal -0.0 -0.0 1.0
  outer loop
    vertex -4.3466662183008085 -1.1646857029613418 20.0
    vertex -5.000000000000001 -2.8867513459481273 20.0
    vertex -3.897114317029975 -2.2499999999999987 20.0
  endloop
endfacet
facet normal -0.0 -0.0 1.0
  outer loop
    vertex -3.897114317029975 -2.2499999999999987 20.0
    vertex -5.000000000000001 -2.8867513459481273 20.0
    vertex -3.1819805153394656 -3.181980515339462 20.0
  endloop
endfacet
facet normal -0.0 -0.0 1.0
  outer loop
    vertex -3.1819805153394656 -3.181980515339462 20.0
    vertex -5.000000000000001 -2.8867513459481273 20.0
    vertex -3.524958103184872e-15 -5.773502691896257 20.0
  endloop
endfacet
facet normal -0.0 -0.0 1.0
  outer loop
    vertex -4.999999999999998 2.8867513459481304 20.0
    vertex -4.3466662183008085 -1.1646857029613418 20.0
    vertex -4.5 5.51091059616309e-16 20.0
  endloop
endfacet
facet normal -0.0 -0.0 1.0
  outer loop
    vertex -3.1819805153394656 -3.181980515339462 20.0
    vertex -3.524958103184872e-15 -5.773502691896257 20.0
    vertex -2.250000000000002 -3.8971143170299727 20.0
  endloop
endfacet
facet normal -0.0 -0.0 1.0
  outer loop
    vertex -2.250000000000002 -3.8971143170299727 20.0
    vertex -3.524958103184872e-15 -5.773502691896257 20.0
    vertex -1.1646857029613469 -4.346666218300807 20.0
  endloop
endfacet
facet normal -0.0 -0.0 1.0
  outer loop
    vertex -1.1646857029613469 -4.346666218300807 20.0
    vertex -3.524958103184872e-15 -5.773502691896257 20.0
    vertex -8.266365894244633e-16 -4.5 20.0
  endloop
endfacet
facet normal -0.0 -0.0 1.0
  outer loop
    vertex -8.266365894244633e-16 -4.5 20.0
    vertex -3.524958103184872e-15 -5.773502691896257 20.0
    vertex 1.1646857029613413 -4.3466662183008085 20.0
  endloop
endfacet
facet normal -0.0 -0.0 1.0
  outer loop
    vertex 1.1646857029613413 -4.3466662183008085 20.0
    vertex -3.524958103184872e-15 -5.773502691896257 20.0
    vertex 4.9999999999999964 -2.886751345948133 20.0
  endloop
endfacet
facet normal -0.0 -0.0 1.0
  outer loop
    vertex 1.1646857029613413 -4.3466662183008085 20.0
    vertex 4.9999999999999964 -2.886751345948133 20.0
    vertex 2.249999999999997 -3.8971143170299753 20.0
  endloop
endfacet
facet normal -0.0 -0.0 1.0
  outer loop
    vertex 2.249999999999997 -3.8971143170299753 20.0
    vertex 4.9999999999999964 -2.886751345948133 20.0
    vertex 3.1819805153394634 -3.1819805153394647 20.0
  endloop
endfacet
facet normal -0.0 -0.0 1.0
  outer loop
    vertex 3.1819805153394634 -3.1819805153394647 20.0
    vertex 4.9999999999999964 -2.886751345948133 20.0
    vertex 3.8971143170299727 -2.250000000000002 20.0
  endloop
endfacet
facet normal -0.0 -0.0 1.0
  outer loop
    vertex 3.8971143170299727 -2.250000000000002 20.0
    vertex 4.9999999999999964 -2.886751345948133 20.0
    vertex 4.346666218300807 -1.164685702961347 20.0
  endloop
endfacet
facet normal -0.0 -0.0 1.0
  outer loop
    vertex 4.346666218300807 -1.164685702961347 20.0
    vertex 4.9999999999999964 -2.886751345948133 20.0
    vertex 4.5 0.0 20.0
  endloop
endfacet
facet normal -0.0 -0.0 1.0
  outer loop
    vertex -4.999999999999998 2.8867513459481304 20.0
    vertex -3.1819805153394642 3.1819805153394642 20.0
    vertex 1.4099832412739487e-15 5.773502691896258 20.0
  endloop
endfacet
facet normal -0.0 -0.0 1.0
  outer loop
    vertex -3.1819805153394642 3.1819805153394642 20.0
    vertex -4.999999999999998 2.8867513459481304 20.0
    vertex -3.8971143170299736 2.2500000000000013 20.0
  endloop
endfacet
facet normal -0.0 -0.0 1.0
  outer loop
    vertex -3.8971143170299736 2.2500000000000013 20.0
    vertex -4.999999999999998 2.8867513459481304 20.0
    vertex -4.346666218300808 1.1646857029613447 20.0
  endloop
endfacet
facet normal -0.0 -0.0 1.0
  outer loop
    vertex -4.346666218300808 1.1646857029613447 20.0
    vertex -4.999999999999998 2.8867513459481304 20.0
    vertex -4.5 5.51091059616309e-16 20.0
  endloop
endfacet
facet normal -0.0 -0.0 1.0
  outer loop
    vertex 1.4099832412739487e-15 5.773502691896258 20.0
    vertex -3.1819805153394642 3.1819805153394642 20.0
    vertex -2.249999999999999 3.897114317029974 20.0
  endloop
endfacet
facet normal -0.0 -0.0 1.0
  outer loop
    vertex 1.4099832412739487e-15 5.773502691896258 20.0
    vertex -2.249999999999999 3.897114317029974 20.0
    vertex -1.1646857029613429 4.346666218300808 20.0
  endloop
endfacet
facet normal -0.0 -0.0 1.0
  outer loop
    vertex 1.4099832412739487e-15 5.773502691896258 20.0
    vertex -1.1646857029613429 4.346666218300808 20.0
    vertex 2.755455298081545e-16 4.5 20.0
  endloop
endfacet
facet normal -0.0 -0.0 1.0
  outer loop
    vertex 1.4099832412739487e-15 5.773502691896258 20.0
    vertex 2.755455298081545e-16 4.5 20.0
    vertex 1.1646857029613444 4.346666218300808 20.0
  endloop
endfacet
facet normal -0.0 -0.0 1.0
  outer loop
    vertex 1.4099832412739487e-15 5.773502691896258 20.0
    vertex 1.1646857029613444 4.346666218300808 20.0
    vertex 5.0 2.886751345948128 20.0
  endloop
endfacet
facet normal -0.0 -0.0 1.0
  outer loop
    vertex 5.0 2.886751345948128 20.0
    vertex 1.1646857029613444 4.346666218300808 20.0
    vertex 2.2500000000000004 3.897114317029974 20.0
  endloop
endfacet
facet normal -0.0 -0.0 1.0
  outer loop
    vertex 5.0 2.886751345948128 20.0
    vertex 2.2500000000000004 3.897114317029974 20.0
    vertex 3.1819805153394642 3.1819805153394642 20.0
  endloop
endfacet
facet normal -0.0 -0.0 1.0
  outer loop
    vertex 5.0 2.886751345948128 20.0
    vertex 3.1819805153394642 3.1819805153394642 20.0
    vertex 3.897114317029974 2.2499999999999996 20.0
  endloop
endfacet
facet normal -0.0 -0.0 1.0
  outer loop
    vertex 5.0 2.886751345948128 20.0
    vertex 3.897114317029974 2.2499999999999996 20.0
    vertex 4.346666218300808 1.1646857029613435 20.0
  endloop
endfacet
facet normal -0.0 -0.0 1.0
  outer loop
    vertex 5.0 2.886751345948128 20.0
    vertex 4.346666218300808 1.1646857029613435 20.0
    vertex 4.5 0.0 20.0
  endloop
endfacet
facet normal -0.0 -0.0 1.0
  outer loop
    vertex 5.0 2.886751345948128 20.0
    vertex 4.5 0.0 20.0
    vertex 4.9999999999999964 -2.886751345948133 20.0
  endloop
endfacet
facet normal -0.5000000000000002 -0.8660254037844386 0.0
  outer loop
    vertex 5.0 2.886751345948128 25.0
    vertex 1.4099832412739487e-15 5.773502691896258 20.0
    vertex 5.0 2.886751345948128 20.0
  endloop
endfacet
facet normal -0.5000000000000002 -0.8660254037844386 0.0
  outer loop
    vertex 1.4099832412739487e-15 5.773502691896258 20.0
    vertex 5.0 2.886751345948128 25.0
    vertex 1.4099832412739487e-15 5.773502691896258 25.0
  endloop
endfacet
facet normal -1.0 6.105406529267812e-16 0.0
  outer loop
    vertex 5.0 2.886751345948128 25.0
    vertex 4.9999999999999964 -2.886751345948133 20.0
    vertex 4.9999999999999964 -2.886751345948133 25.0
  endloop
endfacet
facet normal -1.0 6.105406529267812e-16 0.0
  outer loop
    vertex 4.9999999999999964 -2.886751345948133 20.0
    vertex 5.0 2.886751345948128 25.0
    vertex 5.0 2.886751345948128 20.0
  endloop
endfacet
facet normal -0.4999999999999994 0.866025403784439 0.0
  outer loop
    vertex -3.524958103184872e-15 -5.773502691896257 25.0
    vertex 4.9999999999999964 -2.886751345948133 20.0
    vertex -3.524958103184872e-15 -5.773502691896257 20.0
  endloop
endfacet
facet normal -0.4999999999999994 0.866025403784439 0.0
  outer loop
    vertex 4.9999999999999964 -2.886751345948133 20.0
    vertex -3.524958103184872e-15 -5.773502691896257 25.0
    vertex 4.9999999999999964 -2.886751345948133 25.0
  endloop
endfacet
facet normal 0.5000000000000003 0.8660254037844385 -0.0
  outer loop
    vertex -5.000000000000001 -2.8867513459481273 25.0
    vertex -3.524958103184872e-15 -5.773502691896257 20.0
    vertex -5.000000000000001 -2.8867513459481273 20.0
  endloop
endfacet
facet normal 0.5000000000000003 0.8660254037844385 -0.0
  outer loop
    vertex -3.524958103184872e-15 -5.773502691896257 20.0
    vertex -5.000000000000001 -2.8867513459481273 25.0
    vertex -3.524958103184872e-15 -5.773502691896257 25.0
  endloop
endfacet
facet normal 1.0 -4.884325223414252e-16 0.0
  outer loop
    vertex -4.999999999999998 2.8867513459481304 20.0
    vertex -5.000000000000001 -2.8867513459481273 25.0
    vertex -5.000000000000001 -2.8867513459481273 20.0
  endloop
endfacet
facet normal 1.0 -4.884325223414252e-16 0.0
  outer loop
    vertex -5.000000000000001 -2.8867513459481273 25.0
    vertex -4.999999999999998 2.8867513459481304 20.0
    vertex -4.999999999999998 2.8867513459481304 25.0
  endloop
endfacet
facet normal 0.4999999999999999 -0.8660254037844387 0.0
  outer loop
    vertex 1.4099832412739487e-15 5.773502691896258 25.0
    vertex -4.999999999999998 2.8867513459481304 20.0
    vertex 1.4099832412739487e-15 5.773502691896258 20.0
  endloop
endfacet
facet normal 0.4999999999999999 -0.8660254037844387 0.0
  outer loop
    vertex -4.999999999999998 2.8867513459481304 20.0
    vertex 1.4099832412739487e-15 5.773502691896258 25.0
    vertex -4.999999999999998 2.8867513459481304 25.0
  endloop
endfacet
facet normal -0.0 -0.0 1.0
  outer loop
    vertex -3.999999999999997 -6.928203230275509 25.0
    vertex -5.000000000000001 -2.8867513459481273 25.0
    vertex -5.656854249492379 -5.656854249492381 25.0
  endloop
endfacet
facet normal -0.0 -0.0 1.0
  outer loop
    vertex -5.000000000000001 -2.8867513459481273 25.0
    vertex -3.999999999999997 -6.928203230275509 25.0
    vertex -3.524958103184872e-15 -5.773502691896257 25.0
  endloop
endfacet
facet normal -0.0 -0.0 1.0
  outer loop
    vertex -3.524958103184872e-15 -5.773502691896257 25.0
    vertex -3.999999999999997 -6.928203230275509 25.0
    vertex -2.0705523608201646 -7.727406610312546 25.0
  endloop
endfacet
facet normal -0.0 -0.0 1.0
  outer loop
    vertex -3.524958103184872e-15 -5.773502691896257 25.0
    vertex -2.0705523608201646 -7.727406610312546 25.0
    vertex 4.898587196589412e-16 -7.999999999999999 25.0
  endloop
endfacet
facet normal -0.0 -0.0 1.0
  outer loop
    vertex -3.524958103184872e-15 -5.773502691896257 25.0
    vertex 4.898587196589412e-16 -7.999999999999999 25.0
    vertex 4.9999999999999964 -2.886751345948133 25.0
  endloop
endfacet
facet normal -0.0 -0.0 1.0
  outer loop
    vertex 4.9999999999999964 -2.886751345948133 25.0
    vertex 4.898587196589412e-16 -7.999999999999999 25.0
    vertex 2.0705523608201672 -7.727406610312546 25.0
  endloop
endfacet
facet normal -0.0 -0.0 1.0
  outer loop
    vertex 4.9999999999999964 -2.886751345948133 25.0
    vertex 2.0705523608201672 -7.727406610312546 25.0
    vertex 3.9999999999999996 -6.928203230275508 25.0
  endloop
endfacet
facet normal -0.0 -0.0 1.0
  outer loop
    vertex 4.9999999999999964 -2.886751345948133 25.0
    vertex 3.9999999999999996 -6.928203230275508 25.0
    vertex 5.65685424949238 -5.656854249492381 25.0
  endloop
endfacet
facet normal -0.0 -0.0 1.0
  outer loop
    vertex 4.9999999999999964 -2.886751345948133 25.0
    vertex 5.65685424949238 -5.656854249492381 25.0
    vertex 5.0 2.886751345948128 25.0
  endloop
endfacet
facet normal -0.0 -0.0 1.0
  outer loop
    vertex 5.0 2.886751345948128 25.0
    vertex 5.65685424949238 -5.656854249492381 25.0
    vertex 5.656854249492377 5.656854249492381 25.0
  endloop
endfacet
facet normal -0.0 -0.0 1.0
  outer loop
    vertex 5.656854249492377 5.656854249492381 25.0
    vertex 5.65685424949238 -5.656854249492381 25.0
    vertex 6.928203230275505 4.0000000000000036 25.0
  endloop
endfacet
facet normal -0.0 -0.0 1.0
  outer loop
    vertex 6.928203230275505 4.0000000000000036 25.0
    vertex 5.65685424949238 -5.656854249492381 25.0
    vertex 6.928203230275508 -3.999999999999999 25.0
  endloop
endfacet
facet normal -0.0 -0.0 1.0
  outer loop
    vertex 6.928203230275505 4.0000000000000036 25.0
    vertex 6.928203230275508 -3.999999999999999 25.0
    vertex 7.727406610312543 2.070552360820172 25.0
  endloop
endfacet
facet normal -0.0 -0.0 1.0
  outer loop
    vertex 7.727406610312543 2.070552360820172 25.0
    vertex 6.928203230275508 -3.999999999999999 25.0
    vertex 7.727406610312544 -2.070552360820166 25.0
  endloop
endfacet
facet normal -0.0 -0.0 1.0
  outer loop
    vertex 7.727406610312543 2.070552360820172 25.0
    vertex 7.727406610312544 -2.070552360820166 25.0
    vertex 7.999999999999998 0.0 25.0
  endloop
endfacet
facet normal -0.0 -0.0 1.0
  outer loop
    vertex -7.727406610312544 -2.070552360820168 25.0
    vertex -7.727406610312546 2.070552360820163 25.0
    vertex -7.999999999999998 -9.797174393178824e-16 25.0
  endloop
endfacet
facet normal -0.0 -0.0 1.0
  outer loop
    vertex -7.727406610312546 2.070552360820163 25.0
    vertex -7.727406610312544 -2.070552360820168 25.0
    vertex -6.928203230275509 3.999999999999998 25.0
  endloop
endfacet
facet normal -0.0 -0.0 1.0
  outer loop
    vertex -6.928203230275509 3.999999999999998 25.0
    vertex -7.727406610312544 -2.070552360820168 25.0
    vertex -6.928203230275506 -4.000000000000003 25.0
  endloop
endfacet
facet normal -0.0 -0.0 1.0
  outer loop
    vertex -6.928203230275509 3.999999999999998 25.0
    vertex -6.928203230275506 -4.000000000000003 25.0
    vertex -5.656854249492382 5.656854249492377 25.0
  endloop
endfacet
facet normal -0.0 -0.0 1.0
  outer loop
    vertex -5.656854249492382 5.656854249492377 25.0
    vertex -6.928203230275506 -4.000000000000003 25.0
    vertex -5.656854249492379 -5.656854249492381 25.0
  endloop
endfacet
facet normal -0.0 -0.0 1.0
  outer loop
    vertex -5.656854249492382 5.656854249492377 25.0
    vertex -5.656854249492379 -5.656854249492381 25.0
    vertex -4.999999999999998 2.8867513459481304 25.0
  endloop
endfacet
facet normal -0.0 -0.0 1.0
  outer loop
    vertex -5.656854249492382 5.656854249492377 25.0
    vertex -4.999999999999998 2.8867513459481304 25.0
    vertex -4.000000000000003 6.928203230275506 25.0
  endloop
endfacet
facet normal -0.0 -0.0 1.0
  outer loop
    vertex -4.999999999999998 2.8867513459481304 25.0
    vertex -5.656854249492379 -5.656854249492381 25.0
    vertex -5.000000000000001 -2.8867513459481273 25.0
  endloop
endfacet
facet normal -0.0 -0.0 1.0
  outer loop
    vertex -4.000000000000003 6.928203230275506 25.0
    vertex -4.999999999999998 2.8867513459481304 25.0
    vertex 1.4099832412739487e-15 5.773502691896258 25.0
  endloop
endfacet
facet normal -0.0 -0.0 1.0
  outer loop
    vertex -4.000000000000003 6.928203230275506 25.0
    vertex 1.4099832412739487e-15 5.773502691896258 25.0
    vertex -2.0705523608201717 7.727406610312544 25.0
  endloop
endfacet
facet normal -0.0 -0.0 1.0
  outer loop
    vertex -2.0705523608201717 7.727406610312544 25.0
    vertex 1.4099832412739487e-15 5.773502691896258 25.0
    vertex -1.4695761589768234e-15 7.999999999999999 25.0
  endloop
endfacet
facet normal -0.0 -0.0 1.0
  outer loop
    vertex -1.4695761589768234e-15 7.999999999999999 25.0
    vertex 1.4099832412739487e-15 5.773502691896258 25.0
    vertex 2.070552360820162 7.7274066103125465 25.0
  endloop
endfacet
facet normal -0.0 -0.0 1.0
  outer loop
    vertex 2.070552360820162 7.7274066103125465 25.0
    vertex 1.4099832412739487e-15 5.773502691896258 25.0
    vertex 5.0 2.886751345948128 25.0
  endloop
endfacet
facet normal -0.0 -0.0 1.0
  outer loop
    vertex 2.070552360820162 7.7274066103125465 25.0
    vertex 5.0 2.886751345948128 25.0
    vertex 3.9999999999999933 6.928203230275512 25.0
  endloop
endfacet
facet normal -0.0 -0.0 1.0
  outer loop
    vertex 3.9999999999999933 6.928203230275512 25.0
    vertex 5.0 2.886751345948128 25.0
    vertex 5.656854249492377 5.656854249492381 25.0
  endloop
endfacet
facet normal 0.9914448613738104 -0.13052619222005174 -0.0
  outer loop
    vertex 7.999999999999998 0.0 9.999999999999995
    vertex 7.727406610312544 -2.070552360820166 25.0
    vertex 7.727406610312544 -2.070552360820166 9.999999999999995
  endloop
endfacet
facet normal 0.9914448613738104 -0.13052619222005174 -0.0
  outer loop
    vertex 7.727406610312544 -2.070552360820166 25.0
    vertex 7.999999999999998 0.0 9.999999999999995
    vertex 7.999999999999998 0.0 25.0
  endloop
endfacet
facet normal 0.9238795325112868 -0.38268343236508956 -0.0
  outer loop
    vertex 7.727406610312544 -2.070552360820166 9.999999999999995
    vertex 6.928203230275508 -3.999999999999999 25.0
    vertex 6.928203230275508 -3.999999999999999 9.999999999999995
  endloop
endfacet
facet normal 0.9238795325112868 -0.38268343236508956 -0.0
  outer loop
    vertex 6.928203230275508 -3.999999999999999 25.0
    vertex 7.727406610312544 -2.070552360820166 9.999999999999995
    vertex 7.727406610312544 -2.070552360820166 25.0
  endloop
endfacet
facet normal 0.7933533402912356 -0.6087614290087202 -0.0
  outer loop
    vertex 6.928203230275508 -3.999999999999999 9.999999999999995
    vertex 5.65685424949238 -5.656854249492381 25.0
    vertex 5.65685424949238 -5.656854249492381 9.999999999999995
  endloop
endfacet
facet normal 0.7933533402912356 -0.6087614290087202 -0.0
  outer loop
    vertex 5.65685424949238 -5.656854249492381 25.0
    vertex 6.928203230275508 -3.999999999999999 9.999999999999995
    vertex 6.928203230275508 -3.999999999999999 25.0
  endloop
endfacet
facet normal 0.6087614290087203 -0.7933533402912356 -0.0
  outer loop
    vertex 5.65685424949238 -5.656854249492381 25.0
    vertex 3.9999999999999996 -6.928203230275508 9.999999999999995
    vertex 5.65685424949238 -5.656854249492381 9.999999999999995
  endloop
endfacet
facet normal 0.6087614290087203 -0.7933533402912356 -0.0
  outer loop
    vertex 3.9999999999999996 -6.928203230275508 9.999999999999995
    vertex 5.65685424949238 -5.656854249492381 25.0
    vertex 3.9999999999999996 -6.928203230275508 25.0
  endloop
endfacet
facet normal 0.38268343236509034 -0.9238795325112867 -0.0
  outer loop
    vertex 3.9999999999999996 -6.928203230275508 25.0
    vertex 2.0705523608201672 -7.727406610312546 9.999999999999995
    vertex 3.9999999999999996 -6.928203230275508 9.999999999999995
  endloop
endfacet
facet normal 0.38268343236509034 -0.9238795325112867 -0.0
  outer loop
    vertex 2.0705523608201672 -7.727406610312546 9.999999999999995
    vertex 3.9999999999999996 -6.928203230275508 25.0
    vertex 2.0705523608201672 -7.727406610312546 25.0
  endloop
endfacet
facet normal 0.13052619222005168 -0.9914448613738104 -0.0
  outer loop
    vertex 2.0705523608201672 -7.727406610312546 25.0
    vertex 4.898587196589412e-16 -7.999999999999999 9.999999999999995
    vertex 2.0705523608201672 -7.727406610312546 9.999999999999995
  endloop
endfacet
facet normal 0.13052619222005168 -0.9914448613738104 -0.0
  outer loop
    vertex 4.898587196589412e-16 -7.999999999999999 9.999999999999995
    vertex 2.0705523608201672 -7.727406610312546 25.0
    vertex 4.898587196589412e-16 -7.999999999999999 25.0
  endloop
endfacet
facet normal -0.1305261922200518 -0.9914448613738104 0.0
  outer loop
    vertex 4.898587196589412e-16 -7.999999999999999 25.0
    vertex -2.0705523608201646 -7.727406610312546 9.999999999999995
    vertex 4.898587196589412e-16 -7.999999999999999 9.999999999999995
  endloop
endfacet
facet normal -0.1305261922200518 -0.9914448613738104 0.0
  outer loop
    vertex -2.0705523608201646 -7.727406610312546 9.999999999999995
    vertex 4.898587196589412e-16 -7.999999999999999 25.0
    vertex -2.0705523608201646 -7.727406610312546 25.0
  endloop
endfacet
facet normal -0.3826834323650896 -0.9238795325112867 0.0
  outer loop
    vertex -2.0705523608201646 -7.727406610312546 25.0
    vertex -3.999999999999997 -6.928203230275509 9.999999999999995
    vertex -2.0705523608201646 -7.727406610312546 9.999999999999995
  endloop
endfacet
facet normal -0.3826834323650896 -0.9238795325112867 0.0
  outer loop
    vertex -3.999999999999997 -6.928203230275509 9.999999999999995
    vertex -2.0705523608201646 -7.727406610312546 25.0
    vertex -3.999999999999997 -6.928203230275509 25.0
  endloop
endfacet
facet normal -0.6087614290087202 -0.7933533402912355 0.0
  outer loop
    vertex -3.999999999999997 -6.928203230275509 25.0
    vertex -5.656854249492379 -5.656854249492381 9.999999999999995
    vertex -3.999999999999997 -6.928203230275509 9.999999999999995
  endloop
endfacet
facet normal -0.6087614290087202 -0.7933533402912355 0.0
  outer loop
    vertex -5.656854249492379 -5.656854249492381 9.999999999999995
    vertex -3.999999999999997 -6.928203230275509 25.0
    vertex -5.656854249492379 -5.656854249492381 25.0
  endloop
endfacet
facet normal -0.793353340291235 -0.6087614290087208 0.0
  outer loop
    vertex -6.928203230275506 -4.000000000000003 25.0
    vertex -5.656854249492379 -5.656854249492381 9.999999999999995
    vertex -5.656854249492379 -5.656854249492381 25.0
  endloop
endfacet
facet normal -0.793353340291235 -0.6087614290087208 0.0
  outer loop
    vertex -5.656854249492379 -5.656854249492381 9.999999999999995
    vertex -6.928203230275506 -4.000000000000003 25.0
    vertex -6.928203230275506 -4.000000000000003 9.999999999999995
  endloop
endfacet
facet normal -0.9238795325112867 -0.3826834323650899 0.0
  outer loop
    vertex -7.727406610312544 -2.070552360820168 25.0
    vertex -6.928203230275506 -4.000000000000003 9.999999999999995
    vertex -6.928203230275506 -4.000000000000003 25.0
  endloop
endfacet
facet normal -0.9238795325112867 -0.3826834323650899 0.0
  outer loop
    vertex -6.928203230275506 -4.000000000000003 9.999999999999995
    vertex -7.727406610312544 -2.070552360820168 25.0
    vertex -7.727406610312544 -2.070552360820168 9.999999999999995
  endloop
endfacet
facet normal -0.9914448613738104 -0.13052619222005168 0.0
  outer loop
    vertex -7.999999999999998 -9.797174393178824e-16 25.0
    vertex -7.727406610312544 -2.070552360820168 9.999999999999995
    vertex -7.727406610312544 -2.070552360820168 25.0
  endloop
endfacet
facet normal -0.9914448613738104 -0.13052619222005168 0.0
  outer loop
    vertex -7.727406610312544 -2.070552360820168 9.999999999999995
    vertex -7.999999999999998 -9.797174393178824e-16 25.0
    vertex -7.999999999999998 -9.797174393178824e-16 9.999999999999995
  endloop
endfacet
facet normal -0.9914448613738106 0.13052619222005124 -0.0
  outer loop
    vertex -7.727406610312546 2.070552360820163 25.0
    vertex -7.999999999999998 -9.797174393178824e-16 9.999999999999995
    vertex -7.999999999999998 -9.797174393178824e-16 25.0
  endloop
endfacet
facet normal -0.9914448613738106 0.13052619222005124 -0.0
  outer loop
    vertex -7.999999999999998 -9.797174393178824e-16 9.999999999999995
    vertex -7.727406610312546 2.070552360820163 25.0
    vertex -7.727406610312546 2.070552360820163 9.999999999999995
  endloop
endfacet
facet normal -0.9238795325112871 0.38268343236508934 -0.0
  outer loop
    vertex -6.928203230275509 3.999999999999998 25.0
    vertex -7.727406610312546 2.070552360820163 9.999999999999995
    vertex -7.727406610312546 2.070552360820163 25.0
  endloop
endfacet
facet normal -0.9238795325112871 0.38268343236508934 -0.0
  outer loop
    vertex -7.727406610312546 2.070552360820163 9.999999999999995
    vertex -6.928203230275509 3.999999999999998 25.0
    vertex -6.928203230275509 3.999999999999998 9.999999999999995
  endloop
endfacet
facet normal -0.7933533402912355 0.6087614290087203 -0.0
  outer loop
    vertex -5.656854249492382 5.656854249492377 25.0
    vertex -6.928203230275509 3.999999999999998 9.999999999999995
    vertex -6.928203230275509 3.999999999999998 25.0
  endloop
endfacet
facet normal -0.7933533402912355 0.6087614290087203 -0.0
  outer loop
    vertex -6.928203230275509 3.999999999999998 9.999999999999995
    vertex -5.656854249492382 5.656854249492377 25.0
    vertex -5.656854249492382 5.656854249492377 9.999999999999995
  endloop
endfacet
facet normal -0.6087614290087209 0.7933533402912349 -0.0
  outer loop
    vertex -5.656854249492382 5.656854249492377 25.0
    vertex -4.000000000000003 6.928203230275506 9.999999999999995
    vertex -5.656854249492382 5.656854249492377 9.999999999999995
  endloop
endfacet
facet normal -0.6087614290087209 0.7933533402912349 -0.0
  outer loop
    vertex -4.000000000000003 6.928203230275506 9.999999999999995
    vertex -5.656854249492382 5.656854249492377 25.0
    vertex -4.000000000000003 6.928203230275506 25.0
  endloop
endfacet
facet normal -0.3826834323650905 0.9238795325112865 -0.0
  outer loop
    vertex -4.000000000000003 6.928203230275506 25.0
    vertex -2.0705523608201717 7.727406610312544 9.999999999999995
    vertex -4.000000000000003 6.928203230275506 9.999999999999995
  endloop
endfacet
facet normal -0.3826834323650905 0.9238795325112865 -0.0
  outer loop
    vertex -2.0705523608201717 7.727406610312544 9.999999999999995
    vertex -4.000000000000003 6.928203230275506 25.0
    vertex -2.0705523608201717 7.727406610312544 25.0
  endloop
endfacet
facet normal -0.13052619222005216 0.9914448613738104 -0.0
  outer loop
    vertex -2.0705523608201717 7.727406610312544 25.0
    vertex -1.4695761589768234e-15 7.999999999999999 9.999999999999995
    vertex -2.0705523608201717 7.727406610312544 9.999999999999995
  endloop
endfacet
facet normal -0.13052619222005216 0.9914448613738104 -0.0
  outer loop
    vertex -1.4695761589768234e-15 7.999999999999999 9.999999999999995
    vertex -2.0705523608201717 7.727406610312544 25.0
    vertex -1.4695761589768234e-15 7.999999999999999 25.0
  endloop
endfacet
facet normal 0.13052619222005127 0.9914448613738106 -0.0
  outer loop
    vertex -1.4695761589768234e-15 7.999999999999999 25.0
    vertex 2.070552360820162 7.7274066103125465 9.999999999999995
    vertex -1.4695761589768234e-15 7.999999999999999 9.999999999999995
  endloop
endfacet
facet normal 0.13052619222005127 0.9914448613738106 -0.0
  outer loop
    vertex 2.070552360820162 7.7274066103125465 9.999999999999995
    vertex -1.4695761589768234e-15 7.999999999999999 25.0
    vertex 2.070552360820162 7.7274066103125465 25.0
  endloop
endfacet
facet normal 0.3826834323650892 0.923879532511287 -0.0
  outer loop
    vertex 2.070552360820162 7.7274066103125465 25.0
    vertex 3.9999999999999933 6.928203230275512 9.999999999999995
    vertex 2.070552360820162 7.7274066103125465 9.999999999999995
  endloop
endfacet
facet normal 0.3826834323650892 0.923879532511287 -0.0
  outer loop
    vertex 3.9999999999999933 6.928203230275512 9.999999999999995
    vertex 2.070552360820162 7.7274066103125465 25.0
    vertex 3.9999999999999933 6.928203230275512 25.0
  endloop
endfacet
facet normal 0.6087614290087204 0.7933533402912355 -0.0
  outer loop
    vertex 3.9999999999999933 6.928203230275512 25.0
    vertex 5.656854249492377 5.656854249492381 9.999999999999995
    vertex 3.9999999999999933 6.928203230275512 9.999999999999995
  endloop
endfacet
facet normal 0.6087614290087204 0.7933533402912355 -0.0
  outer loop
    vertex 5.656854249492377 5.656854249492381 9.999999999999995
    vertex 3.9999999999999933 6.928203230275512 25.0
    vertex 5.656854249492377 5.656854249492381 25.0
  endloop
endfacet
facet normal 0.793353340291235 0.6087614290087208 -0.0
  outer loop
    vertex 5.656854249492377 5.656854249492381 9.999999999999995
    vertex 6.928203230275505 4.0000000000000036 25.0
    vertex 6.928203230275505 4.0000000000000036 9.999999999999995
  endloop
endfacet
facet normal 0.793353340291235 0.6087614290087208 -0.0
  outer loop
    vertex 6.928203230275505 4.0000000000000036 25.0
    vertex 5.656854249492377 5.656854249492381 9.999999999999995
    vertex 5.656854249492377 5.656854249492381 25.0
  endloop
endfacet
facet normal 0.9238795325112865 0.3826834323650905 -0.0
  outer loop
    vertex 6.928203230275505 4.0000000000000036 9.999999999999995
    vertex 7.727406610312543 2.070552360820172 25.0
    vertex 7.727406610312543 2.070552360820172 9.999999999999995
  endloop
endfacet
facet normal 0.9238795325112865 0.3826834323650905 -0.0
  outer loop
    vertex 7.727406610312543 2.070552360820172 25.0
    vertex 6.928203230275505 4.0000000000000036 9.999999999999995
    vertex 6.928203230275505 4.0000000000000036 25.0
  endloop
endfacet
facet normal 0.9914448613738104 0.13052619222005202 -0.0
  outer loop
    vertex 7.727406610312543 2.070552360820172 9.999999999999995
    vertex 7.999999999999998 0.0 25.0
    vertex 7.999999999999998 0.0 9.999999999999995
  endloop
endfacet
facet normal 0.9914448613738104 0.13052619222005202 -0.0
  outer loop
    vertex 7.999999999999998 0.0 25.0
    vertex 7.727406610312543 2.070552360820172 9.999999999999995
    vertex 7.727406610312543 2.070552360820172 25.0
  endloop
endfacet
endsolid Клешня-Муфта
