solid P2-Velo
facet normal -1.0 0.0 0.0
  outer loop
    vertex -11.0 32.0 70.0
    vertex -11.0 -8.158624679748167 -10.0
    vertex -11.0 -8.158624679748167 70.0
  endloop
endfacet
facet normal -1.0 0.0 0.0
  outer loop
    vertex -11.0 -8.158624679748167 -10.0
    vertex -11.0 32.0 70.0
    vertex -11.0 32.0 -10.0
  endloop
endfacet
facet normal 1.0 1.3819800373912508e-16 3.313421234455651e-33
  outer loop
    vertex 31.0 32.0 -10.0
    vertex 31.000000000000004 -8.158624679748167 70.0
    vertex 31.000000000000004 -8.158624679748167 -10.0
  endloop
endfacet
facet normal 1.0 1.3819800373912508e-16 3.313421234455651e-33
  outer loop
    vertex 31.000000000000004 -8.158624679748167 70.0
    vertex 31.0 32.0 -10.0
    vertex 31.0 32.0 70.0
  endloop
endfacet
facet normal 0.7071067811865478 -0.7071067811865474 0.0
  outer loop
    vertex 31.000000000000004 -8.158624679748167 -10.0
    vertex 28.158624679748172 -11.0 70.0
    vertex 28.158624679748172 -11.0 -10.0
  endloop
endfacet
facet normal 0.7071067811865478 -0.7071067811865474 0.0
  outer loop
    vertex 28.158624679748172 -11.0 70.0
    vertex 31.000000000000004 -8.158624679748167 -10.0
    vertex 31.000000000000004 -8.158624679748167 70.0
  endloop
endfacet
facet normal -0.7071067811865479 -0.7071067811865472 -0.0
  outer loop
    vertex -11.0 -8.158624679748167 70.0
    vertex -8.15862467974817 -10.999999999999998 1.9999999999999998
    vertex -8.15862467974817 -10.999999999999998 70.0
  endloop
endfacet
facet normal -0.7071067811865479 -0.7071067811865472 -0.0
  outer loop
    vertex -8.15862467974817 -10.999999999999998 1.9999999999999998
    vertex -11.0 -8.158624679748167 70.0
    vertex -8.15862467974817 -10.999999999999998 -10.0
  endloop
endfacet
facet normal -0.7071067811865479 -0.7071067811865472 -0.0
  outer loop
    vertex -8.15862467974817 -10.999999999999998 -10.0
    vertex -11.0 -8.158624679748167 70.0
    vertex -11.0 -8.158624679748167 -10.0
  endloop
endfacet
facet normal -3.882406476649262e-17 -1.0 -0.0
  outer loop
    vertex 28.158624679748172 -11.0 70.0
    vertex -8.15862467974817 -10.999999999999998 -10.0
    vertex 28.158624679748172 -11.0 -10.0
  endloop
endfacet
facet normal -3.882406476649262e-17 -1.0 -0.0
  outer loop
    vertex -8.15862467974817 -10.999999999999998 -10.0
    vertex 28.158624679748172 -11.0 70.0
    vertex -8.15862467974817 -10.999999999999998 1.9999999999999998
  endloop
endfacet
facet normal -3.882406476649262e-17 -1.0 -0.0
  outer loop
    vertex -8.15862467974817 -10.999999999999998 1.9999999999999998
    vertex 28.158624679748172 -11.0 70.0
    vertex -8.15862467974817 -10.999999999999998 70.0
  endloop
endfacet
facet normal 0.0 0.0 -1.0
  outer loop
    vertex -7.320508075688775 22.000000000000004 -10.0
    vertex -9.15 5.602759106099141e-16 -10.000000000000068
    vertex -9.318516525781366 26.82361909794959 -10.0
  endloop
endfacet
facet normal 0.0 0.0 -1.0
  outer loop
    vertex -9.15 5.602759106099141e-16 -10.000000000000068
    vertex -7.320508075688775 22.000000000000004 -10.0
    vertex -8.838221310544974 2.3681942626880668 -10.000000000000068
  endloop
endfacet
facet normal 0.0 0.0 -1.0
  outer loop
    vertex -8.838221310544974 2.3681942626880668 -10.000000000000068
    vertex -7.320508075688775 22.000000000000004 -10.0
    vertex -7.924132444627614 4.575000000000001 -10.000000000000068
  endloop
endfacet
facet normal 0.0 0.0 -1.0
  outer loop
    vertex -7.924132444627614 4.575000000000001 -10.000000000000068
    vertex -7.320508075688775 22.000000000000004 -10.0
    vertex -6.470027047856911 6.470027047856911 -10.000000000000068
  endloop
endfacet
facet normal 0.0 0.0 -1.0
  outer loop
    vertex -6.470027047856911 6.470027047856911 -10.000000000000068
    vertex -7.320508075688775 22.000000000000004 -10.0
    vertex -4.142135623730952 17.857864376269053 -10.0
  endloop
endfacet
facet normal 0.0 0.0 -1.0
  outer loop
    vertex -6.470027047856911 6.470027047856911 -10.000000000000068
    vertex -4.142135623730952 17.857864376269053 -10.0
    vertex -4.574999999999999 7.924132444627614 -10.000000000000068
  endloop
endfacet
facet normal 0.0 0.0 -1.0
  outer loop
    vertex -4.574999999999999 7.924132444627614 -10.000000000000068
    vertex -4.142135623730952 17.857864376269053 -10.0
    vertex -2.368194262688065 8.838221310544975 -10.000000000000068
  endloop
endfacet
facet normal 0.0 0.0 -1.0
  outer loop
    vertex -2.368194262688065 8.838221310544975 -10.000000000000068
    vertex -4.142135623730952 17.857864376269053 -10.0
    vertex -2.8199664825478975e-15 14.67949192431123 -10.0
  endloop
endfacet
facet normal 0.0 0.0 -1.0
  outer loop
    vertex -2.368194262688065 8.838221310544975 -10.000000000000068
    vertex -2.8199664825478975e-15 14.67949192431123 -10.0
    vertex -1.0109737619138137e-32 9.15 -10.000000000000068
  endloop
endfacet
facet normal 0.0 0.0 -1.0
  outer loop
    vertex -1.0109737619138137e-32 9.15 -10.000000000000068
    vertex -2.8199664825478975e-15 14.67949192431123 -10.0
    vertex 4.823619097949581 12.681483474218638 -10.0
  endloop
endfacet
facet normal 0.0 0.0 -1.0
  outer loop
    vertex -1.0109737619138137e-32 9.15 -10.000000000000068
    vertex 4.823619097949581 12.681483474218638 -10.0
    vertex 2.3681942626880725 8.838221310544974 -10.000000000000068
  endloop
endfacet
facet normal 0.0 0.0 -1.0
  outer loop
    vertex 2.3681942626880725 8.838221310544974 -10.000000000000068
    vertex 4.823619097949581 12.681483474218638 -10.0
    vertex 4.575000000000005 7.924132444627611 -10.000000000000068
  endloop
endfacet
facet normal 0.0 0.0 -1.0
  outer loop
    vertex 4.575000000000005 7.924132444627611 -10.000000000000068
    vertex 4.823619097949581 12.681483474218638 -10.0
    vertex 6.470027047856911 6.470027047856909 -10.000000000000068
  endloop
endfacet
facet normal 0.0 0.0 -1.0
  outer loop
    vertex 6.470027047856911 6.470027047856909 -10.000000000000068
    vertex 4.823619097949581 12.681483474218638 -10.0
    vertex 9.999999999999998 12.000000000000004 -10.0
  endloop
endfacet
facet normal 0.0 0.0 -1.0
  outer loop
    vertex 6.470027047856911 6.470027047856909 -10.000000000000068
    vertex 9.999999999999998 12.000000000000004 -10.0
    vertex 13.52997295214309 6.470027047856911 -10.0
  endloop
endfacet
facet normal 0.0 0.0 -1.0
  outer loop
    vertex 13.52997295214309 6.470027047856911 -10.0
    vertex 9.999999999999998 12.000000000000004 -10.0
    vertex 15.176380902050411 12.681483474218638 -10.0
  endloop
endfacet
facet normal 0.0 0.0 -1.0
  outer loop
    vertex 13.52997295214309 6.470027047856911 -10.0
    vertex 15.176380902050411 12.681483474218638 -10.0
    vertex 15.425 7.924132444627614 -10.0
  endloop
endfacet
facet normal 0.0 0.0 -1.0
  outer loop
    vertex 15.425 7.924132444627614 -10.0
    vertex 15.176380902050411 12.681483474218638 -10.0
    vertex 19.999999999999996 14.679491924311229 -10.0
  endloop
endfacet
facet normal 0.0 0.0 -1.0
  outer loop
    vertex 15.425 7.924132444627614 -10.0
    vertex 19.999999999999996 14.679491924311229 -10.0
    vertex 17.631805737311936 8.838221310544975 -10.0
  endloop
endfacet
facet normal 0.0 0.0 -1.0
  outer loop
    vertex 17.631805737311936 8.838221310544975 -10.0
    vertex 19.999999999999996 14.679491924311229 -10.0
    vertex 20.0 9.15 -10.0
  endloop
endfacet
facet normal 0.0 0.0 -1.0
  outer loop
    vertex 20.0 9.15 -10.0
    vertex 19.999999999999996 14.679491924311229 -10.0
    vertex 24.14213562373095 17.857864376269053 -10.0
  endloop
endfacet
facet normal 0.0 0.0 -1.0
  outer loop
    vertex 20.0 9.15 -10.0
    vertex 24.14213562373095 17.857864376269053 -10.0
    vertex 22.36819426268807 8.838221310544974 -10.0
  endloop
endfacet
facet normal 0.0 0.0 -1.0
  outer loop
    vertex 22.36819426268807 8.838221310544974 -10.0
    vertex 24.14213562373095 17.857864376269053 -10.0
    vertex 24.575000000000006 7.924132444627611 -10.0
  endloop
endfacet
facet normal 0.0 0.0 -1.0
  outer loop
    vertex 24.575000000000006 7.924132444627611 -10.0
    vertex 24.14213562373095 17.857864376269053 -10.0
    vertex 27.32050807568877 21.999999999999996 -10.0
  endloop
endfacet
facet normal 0.0 0.0 -1.0
  outer loop
    vertex 24.575000000000006 7.924132444627611 -10.0
    vertex 27.32050807568877 21.999999999999996 -10.0
    vertex 26.47002704785691 6.470027047856909 -10.0
  endloop
endfacet
facet normal 0.0 0.0 -1.0
  outer loop
    vertex 26.47002704785691 6.470027047856909 -10.0
    vertex 27.32050807568877 21.999999999999996 -10.0
    vertex 27.924132444627617 4.574999999999994 -10.0
  endloop
endfacet
facet normal 0.0 0.0 -1.0
  outer loop
    vertex 27.924132444627617 4.574999999999994 -10.0
    vertex 27.32050807568877 21.999999999999996 -10.0
    vertex 29.318516525781366 26.82361909794958 -10.0
  endloop
endfacet
facet normal 0.0 0.0 -1.0
  outer loop
    vertex 27.924132444627617 4.574999999999994 -10.0
    vertex 29.318516525781366 26.82361909794958 -10.0
    vertex 28.838221310544977 2.3681942626880605 -10.0
  endloop
endfacet
facet normal 0.0 0.0 -1.0
  outer loop
    vertex 28.838221310544977 2.3681942626880605 -10.0
    vertex 29.318516525781366 26.82361909794958 -10.0
    vertex 29.150000000000002 -1.6808277318297421e-15 -10.0
  endloop
endfacet
facet normal 0.0 0.0 -1.0
  outer loop
    vertex -10.0 32.0 -10.0
    vertex -11.0 -8.158624679748167 -10.0
    vertex -11.0 32.0 -10.0
  endloop
endfacet
facet normal 0.0 0.0 -1.0
  outer loop
    vertex -11.0 -8.158624679748167 -10.0
    vertex -10.0 32.0 -10.0
    vertex -9.15 5.602759106099141e-16 -10.000000000000068
  endloop
endfacet
facet normal 0.0 0.0 -1.0
  outer loop
    vertex -11.0 -8.158624679748167 -10.0
    vertex -9.15 5.602759106099141e-16 -10.000000000000068
    vertex -8.15862467974817 -10.999999999999998 -10.0
  endloop
endfacet
facet normal 0.0 0.0 -1.0
  outer loop
    vertex -9.15 5.602759106099141e-16 -10.000000000000068
    vertex -10.0 32.0 -10.0
    vertex -9.318516525781366 26.82361909794959 -10.0
  endloop
endfacet
facet normal 0.0 0.0 -1.0
  outer loop
    vertex -8.15862467974817 -10.999999999999998 -10.0
    vertex -9.15 5.602759106099141e-16 -10.000000000000068
    vertex -8.838221310544975 -2.3681942626880637 -10.000000000000068
  endloop
endfacet
facet normal 0.0 0.0 -1.0
  outer loop
    vertex -8.15862467974817 -10.999999999999998 -10.0
    vertex -8.838221310544975 -2.3681942626880637 -10.000000000000068
    vertex -7.924132444627614 -4.574999999999998 -10.000000000000068
  endloop
endfacet
facet normal 0.0 0.0 -1.0
  outer loop
    vertex -8.15862467974817 -10.999999999999998 -10.0
    vertex -7.924132444627614 -4.574999999999998 -10.000000000000068
    vertex -6.470027047856911 -6.4700270478569095 -10.000000000000068
  endloop
endfacet
facet normal 0.0 0.0 -1.0
  outer loop
    vertex -8.15862467974817 -10.999999999999998 -10.0
    vertex -6.470027047856911 -6.4700270478569095 -10.000000000000068
    vertex -4.575000000000003 -7.924132444627612 -10.000000000000068
  endloop
endfacet
facet normal 0.0 0.0 -1.0
  outer loop
    vertex -8.15862467974817 -10.999999999999998 -10.0
    vertex -4.575000000000003 -7.924132444627612 -10.000000000000068
    vertex -2.368194262688067 -8.838221310544974 -10.000000000000068
  endloop
endfacet
facet normal 0.0 0.0 -1.0
  outer loop
    vertex -8.15862467974817 -10.999999999999998 -10.0
    vertex -2.368194262688067 -8.838221310544974 -10.000000000000068
    vertex -1.1205518212198281e-15 -9.15 -10.000000000000068
  endloop
endfacet
facet normal 0.0 0.0 -1.0
  outer loop
    vertex -8.15862467974817 -10.999999999999998 -10.0
    vertex -1.1205518212198281e-15 -9.15 -10.000000000000068
    vertex 28.158624679748172 -11.0 -10.0
  endloop
endfacet
facet normal 0.0 0.0 -1.0
  outer loop
    vertex 28.158624679748172 -11.0 -10.0
    vertex -1.1205518212198281e-15 -9.15 -10.000000000000068
    vertex 2.3681942626880614 -8.838221310544977 -10.000000000000068
  endloop
endfacet
facet normal 0.0 0.0 -1.0
  outer loop
    vertex 28.158624679748172 -11.0 -10.0
    vertex 2.3681942626880614 -8.838221310544977 -10.000000000000068
    vertex 4.5749999999999975 -7.924132444627615 -10.000000000000068
  endloop
endfacet
facet normal 0.0 0.0 -1.0
  outer loop
    vertex 28.158624679748172 -11.0 -10.0
    vertex 4.5749999999999975 -7.924132444627615 -10.000000000000068
    vertex 17.631805737311932 -8.838221310544974 -10.0
  endloop
endfacet
facet normal 0.0 0.0 -1.0
  outer loop
    vertex 17.631805737311932 -8.838221310544974 -10.0
    vertex 4.5749999999999975 -7.924132444627615 -10.000000000000068
    vertex 6.470027047856907 -6.470027047856914 -10.000000000000068
  endloop
endfacet
facet normal 0.0 0.0 -1.0
  outer loop
    vertex 17.631805737311932 -8.838221310544974 -10.0
    vertex 6.470027047856907 -6.470027047856914 -10.000000000000068
    vertex 15.424999999999997 -7.924132444627612 -10.0
  endloop
endfacet
facet normal 0.0 0.0 -1.0
  outer loop
    vertex 15.424999999999997 -7.924132444627612 -10.0
    vertex 6.470027047856907 -6.470027047856914 -10.000000000000068
    vertex 13.52997295214309 -6.4700270478569095 -10.0
  endloop
endfacet
facet normal 0.0 0.0 -1.0
  outer loop
    vertex 28.158624679748172 -11.0 -10.0
    vertex 17.631805737311932 -8.838221310544974 -10.0
    vertex 20.0 -9.15 -10.0
  endloop
endfacet
facet normal 0.0 0.0 -1.0
  outer loop
    vertex 28.158624679748172 -11.0 -10.0
    vertex 20.0 -9.15 -10.0
    vertex 22.368194262688064 -8.838221310544977 -10.0
  endloop
endfacet
facet normal 0.0 0.0 -1.0
  outer loop
    vertex 28.158624679748172 -11.0 -10.0
    vertex 22.368194262688064 -8.838221310544977 -10.0
    vertex 24.574999999999996 -7.924132444627615 -10.0
  endloop
endfacet
facet normal 0.0 0.0 -1.0
  outer loop
    vertex 28.158624679748172 -11.0 -10.0
    vertex 24.574999999999996 -7.924132444627615 -10.0
    vertex 26.47002704785691 -6.470027047856914 -10.0
  endloop
endfacet
facet normal 0.0 0.0 -1.0
  outer loop
    vertex 28.158624679748172 -11.0 -10.0
    vertex 26.47002704785691 -6.470027047856914 -10.0
    vertex 27.924132444627613 -4.575000000000005 -10.0
  endloop
endfacet
facet normal 0.0 0.0 -1.0
  outer loop
    vertex 28.158624679748172 -11.0 -10.0
    vertex 27.924132444627613 -4.575000000000005 -10.0
    vertex 28.838221310544974 -2.368194262688072 -10.0
  endloop
endfacet
facet normal 0.0 0.0 -1.0
  outer loop
    vertex 28.158624679748172 -11.0 -10.0
    vertex 28.838221310544974 -2.368194262688072 -10.0
    vertex 31.000000000000004 -8.158624679748167 -10.0
  endloop
endfacet
facet normal 0.0 0.0 -1.0
  outer loop
    vertex 31.000000000000004 -8.158624679748167 -10.0
    vertex 28.838221310544974 -2.368194262688072 -10.0
    vertex 29.150000000000002 -1.6808277318297421e-15 -10.0
  endloop
endfacet
facet normal 0.0 0.0 -1.0
  outer loop
    vertex 31.000000000000004 -8.158624679748167 -10.0
    vertex 29.150000000000002 -1.6808277318297421e-15 -10.0
    vertex 29.318516525781366 26.82361909794958 -10.0
  endloop
endfacet
facet normal 0.0 0.0 -1.0
  outer loop
    vertex 31.000000000000004 -8.158624679748167 -10.0
    vertex 29.318516525781366 26.82361909794958 -10.0
    vertex 30.0 32.0 -10.0
  endloop
endfacet
facet normal 0.0 0.0 -1.0
  outer loop
    vertex 31.000000000000004 -8.158624679748167 -10.0
    vertex 30.0 32.0 -10.0
    vertex 31.0 32.0 -10.0
  endloop
endfacet
facet normal 0.6087614290087211 0.7933533402912349 1.4128142008423619e-15
  outer loop
    vertex 13.529972952142927 -6.4700270478569095 70.00000000000006
    vertex 15.424999999999997 -7.924132444627612 -10.0
    vertex 13.52997295214309 -6.4700270478569095 -10.0
  endloop
endfacet
facet normal 0.6087614290087211 0.7933533402912349 1.4128142008423619e-15
  outer loop
    vertex 15.424999999999997 -7.924132444627612 -10.0
    vertex 13.529972952142927 -6.4700270478569095 70.00000000000006
    vertex 15.424999999999834 -7.924132444627612 70.00000000000006
  endloop
endfacet
facet normal -5.991476112095688e-16 1.0 -1.6455020024682195e-30
  outer loop
    vertex 6.470027047856732 -6.470027047856914 70.0
    vertex 13.52997295214309 -6.4700270478569095 -10.0
    vertex 6.470027047856907 -6.470027047856914 -10.000000000000068
  endloop
endfacet
facet normal -5.991476112095688e-16 1.0 -1.6455020024682195e-30
  outer loop
    vertex 13.52997295214309 -6.4700270478569095 -10.0
    vertex 6.470027047856732 -6.470027047856914 70.0
    vertex 13.529972952142927 -6.4700270478569095 70.00000000000006
  endloop
endfacet
facet normal -0.6087614290087201 0.7933533402912356 -1.41281420084236e-15
  outer loop
    vertex 4.574999999999833 -7.924132444627615 70.0
    vertex 6.470027047856907 -6.470027047856914 -10.000000000000068
    vertex 4.5749999999999975 -7.924132444627615 -10.000000000000068
  endloop
endfacet
facet normal -0.6087614290087201 0.7933533402912356 -1.41281420084236e-15
  outer loop
    vertex 6.470027047856907 -6.470027047856914 -10.000000000000068
    vertex 4.574999999999833 -7.924132444627615 70.0
    vertex 6.470027047856732 -6.470027047856914 70.0
  endloop
endfacet
facet normal -0.38268343236508956 0.9238795325112868 -8.8813213503503825e-16
  outer loop
    vertex 2.368194262687897 -8.838221310544977 70.0
    vertex 4.5749999999999975 -7.924132444627615 -10.000000000000068
    vertex 2.3681942626880614 -8.838221310544977 -10.000000000000068
  endloop
endfacet
facet normal -0.38268343236508956 0.9238795325112868 -8.8813213503503825e-16
  outer loop
    vertex 4.5749999999999975 -7.924132444627615 -10.000000000000068
    vertex 2.368194262687897 -8.838221310544977 70.0
    vertex 4.574999999999833 -7.924132444627615 70.0
  endloop
endfacet
facet normal -0.13052619222005118 0.9914448613738105 -3.02925331932826e-16
  outer loop
    vertex -1.635766295986914e-13 -9.15 70.0
    vertex 2.3681942626880614 -8.838221310544977 -10.000000000000068
    vertex -1.1205518212198281e-15 -9.15 -10.000000000000068
  endloop
endfacet
facet normal -0.13052619222005118 0.9914448613738105 -3.02925331932826e-16
  outer loop
    vertex 2.3681942626880614 -8.838221310544977 -10.000000000000068
    vertex -1.635766295986914e-13 -9.15 70.0
    vertex 2.368194262687897 -8.838221310544977 70.0
  endloop
endfacet
facet normal 0.13052619222005213 0.9914448613738104 3.0292533193282767e-16
  outer loop
    vertex -2.3681942626882315 -8.838221310544974 70.0
    vertex -1.1205518212198281e-15 -9.15 -10.000000000000068
    vertex -2.368194262688067 -8.838221310544974 -10.000000000000068
  endloop
endfacet
facet normal 0.13052619222005213 0.9914448613738104 3.0292533193282767e-16
  outer loop
    vertex -1.1205518212198281e-15 -9.15 -10.000000000000068
    vertex -2.3681942626882315 -8.838221310544974 70.0
    vertex -1.635766295986914e-13 -9.15 70.0
  endloop
endfacet
facet normal 0.3826834323650896 0.9238795325112868 8.881321350350379e-16
  outer loop
    vertex -4.575000000000167 -7.924132444627612 70.0
    vertex -2.368194262688067 -8.838221310544974 -10.000000000000068
    vertex -4.575000000000003 -7.924132444627612 -10.000000000000068
  endloop
endfacet
facet normal 0.3826834323650896 0.9238795325112868 8.881321350350379e-16
  outer loop
    vertex -2.368194262688067 -8.838221310544974 -10.000000000000068
    vertex -4.575000000000167 -7.924132444627612 70.0
    vertex -2.3681942626882315 -8.838221310544974 70.0
  endloop
endfacet
facet normal 0.6087614290087208 0.7933533402912352 1.4128142008423613e-15
  outer loop
    vertex -6.470027047857086 -6.4700270478569095 70.0
    vertex -4.575000000000003 -7.924132444627612 -10.000000000000068
    vertex -6.470027047856911 -6.4700270478569095 -10.000000000000068
  endloop
endfacet
facet normal 0.6087614290087208 0.7933533402912352 1.4128142008423613e-15
  outer loop
    vertex -4.575000000000003 -7.924132444627612 -10.000000000000068
    vertex -6.470027047857086 -6.4700270478569095 70.0
    vertex -4.575000000000167 -7.924132444627612 70.0
  endloop
endfacet
facet normal 0.7933533402912357 0.6087614290087201 1.841215313648137e-15
  outer loop
    vertex -7.924132444627614 -4.574999999999998 -10.000000000000068
    vertex -6.470027047857086 -6.4700270478569095 70.0
    vertex -6.470027047856911 -6.4700270478569095 -10.000000000000068
  endloop
endfacet
facet normal 0.7933533402912357 0.6087614290087201 1.841215313648137e-15
  outer loop
    vertex -6.470027047857086 -6.4700270478569095 70.0
    vertex -7.924132444627614 -4.574999999999998 -10.000000000000068
    vertex -7.924132444627789 -4.574999999999998 70.0
  endloop
endfacet
facet normal 0.9238795325112867 0.38268343236508984 2.1441406455809626e-15
  outer loop
    vertex -8.838221310544975 -2.3681942626880637 -10.000000000000068
    vertex -7.924132444627789 -4.574999999999998 70.0
    vertex -7.924132444627614 -4.574999999999998 -10.000000000000068
  endloop
endfacet
facet normal 0.9238795325112867 0.38268343236508984 2.1441406455809626e-15
  outer loop
    vertex -7.924132444627789 -4.574999999999998 70.0
    vertex -8.838221310544975 -2.3681942626880637 -10.000000000000068
    vertex -8.83822131054515 -2.3681942626880637 70.0
  endloop
endfacet
facet normal 0.9914448613738104 0.13052619222005166 2.3009463358773994e-15
  outer loop
    vertex -9.15 5.602759106099141e-16 -10.000000000000068
    vertex -8.83822131054515 -2.3681942626880637 70.0
    vertex -8.838221310544975 -2.3681942626880637 -10.000000000000068
  endloop
endfacet
facet normal 0.9914448613738104 0.13052619222005166 2.3009463358773994e-15
  outer loop
    vertex -8.83822131054515 -2.3681942626880637 70.0
    vertex -9.15 5.602759106099141e-16 -10.000000000000068
    vertex -9.150000000000174 5.60275910609932e-16 70.0
  endloop
endfacet
facet normal 0.9914448613738104 -0.13052619222005216 2.3009463358773994e-15
  outer loop
    vertex -8.838221310544974 2.3681942626880668 -10.000000000000068
    vertex -9.150000000000174 5.60275910609932e-16 70.0
    vertex -9.15 5.602759106099141e-16 -10.000000000000068
  endloop
endfacet
facet normal 0.9914448613738104 -0.13052619222005216 2.3009463358773994e-15
  outer loop
    vertex -9.150000000000174 5.60275910609932e-16 70.0
    vertex -8.838221310544974 2.3681942626880668 -10.000000000000068
    vertex -8.838221310545148 2.3681942626880668 70.0
  endloop
endfacet
facet normal 0.9238795325112871 -0.3826834323650894 2.1441406455809634e-15
  outer loop
    vertex -7.924132444627614 4.575000000000001 -10.000000000000068
    vertex -8.838221310545148 2.3681942626880668 70.0
    vertex -8.838221310544974 2.3681942626880668 -10.000000000000068
  endloop
endfacet
facet normal 0.9238795325112871 -0.3826834323650894 2.1441406455809634e-15
  outer loop
    vertex -8.838221310545148 2.3681942626880668 70.0
    vertex -7.924132444627614 4.575000000000001 -10.000000000000068
    vertex -7.924132444627789 4.575000000000001 70.0
  endloop
endfacet
facet normal 0.7933533402912355 -0.6087614290087203 1.8412153136481374e-15
  outer loop
    vertex -6.470027047856911 6.470027047856911 -10.000000000000068
    vertex -7.924132444627789 4.575000000000001 70.0
    vertex -7.924132444627614 4.575000000000001 -10.000000000000068
  endloop
endfacet
facet normal 0.7933533402912355 -0.6087614290087203 1.8412153136481374e-15
  outer loop
    vertex -7.924132444627789 4.575000000000001 70.0
    vertex -6.470027047856911 6.470027047856911 -10.000000000000068
    vertex -6.470027047857086 6.470027047856911 70.0
  endloop
endfacet
facet normal 0.6087614290087201 -0.7933533402912357 1.41281420084236e-15
  outer loop
    vertex -4.575000000000164 7.924132444627614 70.0
    vertex -6.470027047856911 6.470027047856911 -10.000000000000068
    vertex -4.574999999999999 7.924132444627614 -10.000000000000068
  endloop
endfacet
facet normal 0.6087614290087201 -0.7933533402912357 1.41281420084236e-15
  outer loop
    vertex -6.470027047856911 6.470027047856911 -10.000000000000068
    vertex -4.575000000000164 7.924132444627614 70.0
    vertex -6.470027047857086 6.470027047856911 70.0
  endloop
endfacet
facet normal 0.3826834323650899 -0.9238795325112868 8.881321350350388e-16
  outer loop
    vertex -2.3681942626882293 8.838221310544975 70.0
    vertex -4.574999999999999 7.924132444627614 -10.000000000000068
    vertex -2.368194262688065 8.838221310544975 -10.000000000000068
  endloop
endfacet
facet normal 0.3826834323650899 -0.9238795325112868 8.881321350350388e-16
  outer loop
    vertex -4.574999999999999 7.924132444627614 -10.000000000000068
    vertex -2.3681942626882293 8.838221310544975 70.0
    vertex -4.575000000000164 7.924132444627614 70.0
  endloop
endfacet
facet normal 0.13052619222005163 -0.9914448613738104 3.0292533193282703e-16
  outer loop
    vertex -1.6245607777747146e-13 9.15 70.0
    vertex -2.368194262688065 8.838221310544975 -10.000000000000068
    vertex -1.0109737619138137e-32 9.15 -10.000000000000068
  endloop
endfacet
facet normal 0.13052619222005163 -0.9914448613738104 3.0292533193282703e-16
  outer loop
    vertex -2.368194262688065 8.838221310544975 -10.000000000000068
    vertex -1.6245607777747146e-13 9.15 70.0
    vertex -2.3681942626882293 8.838221310544975 70.0
  endloop
endfacet
facet normal -0.1305261922200518 -0.9914448613738104 -3.029253319328269e-16
  outer loop
    vertex 2.3681942626879082 8.838221310544974 70.0
    vertex -1.0109737619138137e-32 9.15 -10.000000000000068
    vertex 2.3681942626880725 8.838221310544974 -10.000000000000068
  endloop
endfacet
facet normal -0.1305261922200518 -0.9914448613738104 -3.029253319328269e-16
  outer loop
    vertex -1.0109737619138137e-32 9.15 -10.000000000000068
    vertex 2.3681942626879082 8.838221310544974 70.0
    vertex -1.6245607777747146e-13 9.15 70.0
  endloop
endfacet
facet normal -0.38268343236509067 -0.9238795325112864 -8.881321350350402e-16
  outer loop
    vertex 4.57499999999984 7.924132444627611 70.0
    vertex 2.3681942626880725 8.838221310544974 -10.000000000000068
    vertex 4.575000000000005 7.924132444627611 -10.000000000000068
  endloop
endfacet
facet normal -0.38268343236509067 -0.9238795325112864 -8.881321350350402e-16
  outer loop
    vertex 2.3681942626880725 8.838221310544974 -10.000000000000068
    vertex 4.57499999999984 7.924132444627611 70.0
    vertex 2.3681942626879082 8.838221310544974 70.0
  endloop
endfacet
facet normal -0.6087614290087211 -0.7933533402912349 -1.4128142008423619e-15
  outer loop
    vertex 6.470027047856736 6.470027047856909 70.0
    vertex 4.575000000000005 7.924132444627611 -10.000000000000068
    vertex 6.470027047856911 6.470027047856909 -10.000000000000068
  endloop
endfacet
facet normal -0.6087614290087211 -0.7933533402912349 -1.4128142008423619e-15
  outer loop
    vertex 4.575000000000005 7.924132444627611 -10.000000000000068
    vertex 6.470027047856736 6.470027047856909 70.0
    vertex 4.57499999999984 7.924132444627611 70.0
  endloop
endfacet
facet normal 3.994317408063795e-16 -1.0 1.1820011885308497e-30
  outer loop
    vertex 13.52997295214309 6.470027047856911 -10.0
    vertex 6.470027047856736 6.470027047856909 70.0
    vertex 6.470027047856911 6.470027047856909 -10.000000000000068
  endloop
endfacet
facet normal 3.994317408063795e-16 -1.0 1.1820011885308497e-30
  outer loop
    vertex 6.470027047856736 6.470027047856909 70.0
    vertex 13.52997295214309 6.470027047856911 -10.0
    vertex 13.529972952142927 6.470027047856911 70.00000000000006
  endloop
endfacet
facet normal 0.6087614290087204 -0.7933533402912353 1.4128142008423609e-15
  outer loop
    vertex 15.424999999999836 7.924132444627614 70.00000000000006
    vertex 13.52997295214309 6.470027047856911 -10.0
    vertex 15.425 7.924132444627614 -10.0
  endloop
endfacet
facet normal 0.6087614290087204 -0.7933533402912353 1.4128142008423609e-15
  outer loop
    vertex 13.52997295214309 6.470027047856911 -10.0
    vertex 15.424999999999836 7.924132444627614 70.00000000000006
    vertex 13.529972952142927 6.470027047856911 70.00000000000006
  endloop
endfacet
facet normal 0.3826834323650898 -0.9238795325112868 8.881321350350386e-16
  outer loop
    vertex 17.631805737311772 8.838221310544975 70.00000000000006
    vertex 15.425 7.924132444627614 -10.0
    vertex 17.631805737311936 8.838221310544975 -10.0
  endloop
endfacet
facet normal 0.3826834323650898 -0.9238795325112868 8.881321350350386e-16
  outer loop
    vertex 15.425 7.924132444627614 -10.0
    vertex 17.631805737311772 8.838221310544975 70.00000000000006
    vertex 15.424999999999836 7.924132444627614 70.00000000000006
  endloop
endfacet
facet normal 0.1305261922200516 -0.9914448613738104 3.02925331932827e-16
  outer loop
    vertex 19.999999999999837 9.15 70.00000000000006
    vertex 17.631805737311936 8.838221310544975 -10.0
    vertex 20.0 9.15 -10.0
  endloop
endfacet
facet normal 0.1305261922200516 -0.9914448613738104 3.02925331932827e-16
  outer loop
    vertex 17.631805737311936 8.838221310544975 -10.0
    vertex 19.999999999999837 9.15 70.00000000000006
    vertex 17.631805737311772 8.838221310544975 70.00000000000006
  endloop
endfacet
facet normal -0.13052619222005188 -0.9914448613738104 -3.0292533193282713e-16
  outer loop
    vertex 22.368194262687908 8.838221310544974 70.00000000000006
    vertex 20.0 9.15 -10.0
    vertex 22.36819426268807 8.838221310544974 -10.0
  endloop
endfacet
facet normal -0.13052619222005188 -0.9914448613738104 -3.0292533193282713e-16
  outer loop
    vertex 20.0 9.15 -10.0
    vertex 22.368194262687908 8.838221310544974 70.00000000000006
    vertex 19.999999999999837 9.15 70.00000000000006
  endloop
endfacet
facet normal -0.38268343236509034 -0.9238795325112867 -8.881321350350393e-16
  outer loop
    vertex 24.574999999999843 7.924132444627611 70.00000000000006
    vertex 22.36819426268807 8.838221310544974 -10.0
    vertex 24.575000000000006 7.924132444627611 -10.0
  endloop
endfacet
facet normal -0.38268343236509034 -0.9238795325112867 -8.881321350350393e-16
  outer loop
    vertex 22.36819426268807 8.838221310544974 -10.0
    vertex 24.574999999999843 7.924132444627611 70.00000000000006
    vertex 22.368194262687908 8.838221310544974 70.00000000000006
  endloop
endfacet
facet normal -0.6087614290087217 -0.7933533402912346 -1.4128142008423634e-15
  outer loop
    vertex 26.470027047856757 6.470027047856909 70.00000000000006
    vertex 24.575000000000006 7.924132444627611 -10.0
    vertex 26.47002704785691 6.470027047856909 -10.0
  endloop
endfacet
facet normal -0.6087614290087217 -0.7933533402912346 -1.4128142008423634e-15
  outer loop
    vertex 24.575000000000006 7.924132444627611 -10.0
    vertex 26.470027047856757 6.470027047856909 70.00000000000006
    vertex 24.574999999999843 7.924132444627611 70.00000000000006
  endloop
endfacet
facet normal -0.7933533402912349 -0.608761429008721 -1.8412153136481354e-15
  outer loop
    vertex 26.470027047856757 6.470027047856909 70.00000000000006
    vertex 27.924132444627617 4.574999999999994 -10.0
    vertex 27.924132444627467 4.574999999999994 70.00000000000006
  endloop
endfacet
facet normal -0.7933533402912349 -0.608761429008721 -1.8412153136481354e-15
  outer loop
    vertex 27.924132444627617 4.574999999999994 -10.0
    vertex 26.470027047856757 6.470027047856909 70.00000000000006
    vertex 26.47002704785691 6.470027047856909 -10.0
  endloop
endfacet
facet normal -0.9238795325112868 -0.3826834323650895 -2.144140645580963e-15
  outer loop
    vertex 27.924132444627467 4.574999999999994 70.00000000000006
    vertex 28.838221310544977 2.3681942626880605 -10.0
    vertex 28.838221310544824 2.3681942626880605 70.00000000000006
  endloop
endfacet
facet normal -0.9238795325112868 -0.3826834323650895 -2.144140645580963e-15
  outer loop
    vertex 28.838221310544977 2.3681942626880605 -10.0
    vertex 27.924132444627467 4.574999999999994 70.00000000000006
    vertex 27.924132444627617 4.574999999999994 -10.0
  endloop
endfacet
facet normal -0.9914448613738104 -0.13052619222005177 -2.3009463358773994e-15
  outer loop
    vertex 29.14999999999985 -1.6808277318297242e-15 70.00000000000006
    vertex 28.838221310544977 2.3681942626880605 -10.0
    vertex 29.150000000000002 -1.6808277318297421e-15 -10.0
  endloop
endfacet
facet normal -0.9914448613738104 -0.13052619222005177 -2.3009463358773994e-15
  outer loop
    vertex 28.838221310544977 2.3681942626880605 -10.0
    vertex 29.14999999999985 -1.6808277318297242e-15 70.00000000000006
    vertex 28.838221310544824 2.3681942626880605 70.00000000000006
  endloop
endfacet
facet normal -0.9914448613738103 0.13052619222005368 -2.3009463358773994e-15
  outer loop
    vertex 29.14999999999985 -1.6808277318297242e-15 70.00000000000006
    vertex 28.838221310544974 -2.368194262688072 -10.0
    vertex 28.83822131054482 -2.368194262688072 70.00000000000006
  endloop
endfacet
facet normal -0.9914448613738103 0.13052619222005368 -2.3009463358773994e-15
  outer loop
    vertex 28.838221310544974 -2.368194262688072 -10.0
    vertex 29.14999999999985 -1.6808277318297242e-15 70.00000000000006
    vertex 29.150000000000002 -1.6808277318297421e-15 -10.0
  endloop
endfacet
facet normal -0.9238795325112868 0.3826834323650896 -2.144140645580963e-15
  outer loop
    vertex 28.83822131054482 -2.368194262688072 70.00000000000006
    vertex 27.924132444627613 -4.575000000000005 -10.0
    vertex 27.92413244462746 -4.575000000000005 70.00000000000006
  endloop
endfacet
facet normal -0.9238795325112868 0.3826834323650896 -2.144140645580963e-15
  outer loop
    vertex 27.924132444627613 -4.575000000000005 -10.0
    vertex 28.83822131054482 -2.368194262688072 70.00000000000006
    vertex 28.838221310544974 -2.368194262688072 -10.0
  endloop
endfacet
facet normal -0.7933533402912353 0.6087614290087204 -1.8412153136481366e-15
  outer loop
    vertex 27.92413244462746 -4.575000000000005 70.00000000000006
    vertex 26.47002704785691 -6.470027047856914 -10.0
    vertex 26.470027047856757 -6.470027047856914 70.00000000000006
  endloop
endfacet
facet normal -0.7933533402912353 0.6087614290087204 -1.8412153136481366e-15
  outer loop
    vertex 26.47002704785691 -6.470027047856914 -10.0
    vertex 27.92413244462746 -4.575000000000005 70.00000000000006
    vertex 27.924132444627613 -4.575000000000005 -10.0
  endloop
endfacet
facet normal -0.6087614290087195 0.793353340291236 -1.4128142008423589e-15
  outer loop
    vertex 24.574999999999832 -7.924132444627615 70.00000000000006
    vertex 26.47002704785691 -6.470027047856914 -10.0
    vertex 24.574999999999996 -7.924132444627615 -10.0
  endloop
endfacet
facet normal -0.6087614290087195 0.793353340291236 -1.4128142008423589e-15
  outer loop
    vertex 26.47002704785691 -6.470027047856914 -10.0
    vertex 24.574999999999832 -7.924132444627615 70.00000000000006
    vertex 26.470027047856757 -6.470027047856914 70.00000000000006
  endloop
endfacet
facet normal -0.3826834323650898 0.9238795325112868 -8.881321350350386e-16
  outer loop
    vertex 22.3681942626879 -8.838221310544977 70.00000000000006
    vertex 24.574999999999996 -7.924132444627615 -10.0
    vertex 22.368194262688064 -8.838221310544977 -10.0
  endloop
endfacet
facet normal -0.3826834323650898 0.9238795325112868 -8.881321350350386e-16
  outer loop
    vertex 24.574999999999996 -7.924132444627615 -10.0
    vertex 22.3681942626879 -8.838221310544977 70.00000000000006
    vertex 24.574999999999832 -7.924132444627615 70.00000000000006
  endloop
endfacet
facet normal -0.13052619222005118 0.9914448613738105 -3.02925331932826e-16
  outer loop
    vertex 19.999999999999837 -9.15 70.00000000000006
    vertex 22.368194262688064 -8.838221310544977 -10.0
    vertex 20.0 -9.15 -10.0
  endloop
endfacet
facet normal -0.13052619222005118 0.9914448613738105 -3.02925331932826e-16
  outer loop
    vertex 22.368194262688064 -8.838221310544977 -10.0
    vertex 19.999999999999837 -9.15 70.00000000000006
    vertex 22.3681942626879 -8.838221310544977 70.00000000000006
  endloop
endfacet
facet normal 0.13052619222005205 0.9914448613738104 3.0292533193282747e-16
  outer loop
    vertex 17.63180573731177 -8.838221310544974 70.00000000000006
    vertex 20.0 -9.15 -10.0
    vertex 17.631805737311932 -8.838221310544974 -10.0
  endloop
endfacet
facet normal 0.13052619222005205 0.9914448613738104 3.0292533193282747e-16
  outer loop
    vertex 20.0 -9.15 -10.0
    vertex 17.63180573731177 -8.838221310544974 70.00000000000006
    vertex 19.999999999999837 -9.15 70.00000000000006
  endloop
endfacet
facet normal 0.3826834323650898 0.9238795325112868 8.881321350350382e-16
  outer loop
    vertex 15.424999999999834 -7.924132444627612 70.00000000000006
    vertex 17.631805737311932 -8.838221310544974 -10.0
    vertex 15.424999999999997 -7.924132444627612 -10.0
  endloop
endfacet
facet normal 0.3826834323650898 0.9238795325112868 8.881321350350382e-16
  outer loop
    vertex 17.631805737311932 -8.838221310544974 -10.0
    vertex 15.424999999999834 -7.924132444627612 70.00000000000006
    vertex 17.63180573731177 -8.838221310544974 70.00000000000006
  endloop
endfacet
facet normal -6.350500998965158e-17 -3.402320523977381e-17 1.0
  outer loop
    vertex -11.0 -8.158624679748167 70.0
    vertex -9.150000000000174 5.60275910609932e-16 70.0
    vertex -11.0 32.0 70.0
  endloop
endfacet
facet normal -6.350500998965158e-17 -3.402320523977381e-17 1.0
  outer loop
    vertex -9.150000000000174 5.60275910609932e-16 70.0
    vertex -11.0 -8.158624679748167 70.0
    vertex -8.15862467974817 -10.999999999999998 70.0
  endloop
endfacet
facet normal -6.350500998965158e-17 -3.402320523977381e-17 1.0
  outer loop
    vertex -11.0 32.0 70.0
    vertex -9.150000000000174 5.60275910609932e-16 70.0
    vertex -10.0 32.0 70.0
  endloop
endfacet
facet normal -6.350500998965158e-17 -3.402320523977381e-17 1.0
  outer loop
    vertex -10.0 32.0 70.0
    vertex -9.150000000000174 5.60275910609932e-16 70.0
    vertex -9.318516525781366 26.82361909794959 70.0
  endloop
endfacet
facet normal -6.350500998965158e-17 -3.402320523977381e-17 1.0
  outer loop
    vertex -9.150000000000174 5.60275910609932e-16 70.0
    vertex -8.15862467974817 -10.999999999999998 70.0
    vertex -8.83822131054515 -2.3681942626880637 70.0
  endloop
endfacet
facet normal -6.350500998965158e-17 -3.402320523977381e-17 1.0
  outer loop
    vertex -8.83822131054515 -2.3681942626880637 70.0
    vertex -8.15862467974817 -10.999999999999998 70.0
    vertex -7.924132444627789 -4.574999999999998 70.0
  endloop
endfacet
facet normal -6.350500998965158e-17 -3.402320523977381e-17 1.0
  outer loop
    vertex -7.924132444627789 -4.574999999999998 70.0
    vertex -8.15862467974817 -10.999999999999998 70.0
    vertex -6.470027047857086 -6.4700270478569095 70.0
  endloop
endfacet
facet normal -6.350500998965158e-17 -3.402320523977381e-17 1.0
  outer loop
    vertex -6.470027047857086 -6.4700270478569095 70.0
    vertex -8.15862467974817 -10.999999999999998 70.0
    vertex -4.575000000000167 -7.924132444627612 70.0
  endloop
endfacet
facet normal -6.350500998965158e-17 -3.402320523977381e-17 1.0
  outer loop
    vertex -4.575000000000167 -7.924132444627612 70.0
    vertex -8.15862467974817 -10.999999999999998 70.0
    vertex -2.3681942626882315 -8.838221310544974 70.0
  endloop
endfacet
facet normal -6.350500998965158e-17 -3.402320523977381e-17 1.0
  outer loop
    vertex -2.3681942626882315 -8.838221310544974 70.0
    vertex -8.15862467974817 -10.999999999999998 70.0
    vertex -1.635766295986914e-13 -9.15 70.0
  endloop
endfacet
facet normal -6.350500998965158e-17 -3.402320523977381e-17 1.0
  outer loop
    vertex -1.635766295986914e-13 -9.15 70.0
    vertex -8.15862467974817 -10.999999999999998 70.0
    vertex 28.158624679748172 -11.0 70.0
  endloop
endfacet
facet normal -6.350500998965158e-17 -3.402320523977381e-17 1.0
  outer loop
    vertex -1.635766295986914e-13 -9.15 70.0
    vertex 28.158624679748172 -11.0 70.0
    vertex 2.368194262687897 -8.838221310544977 70.0
  endloop
endfacet
facet normal -6.350500998965158e-17 -3.402320523977381e-17 1.0
  outer loop
    vertex 2.368194262687897 -8.838221310544977 70.0
    vertex 28.158624679748172 -11.0 70.0
    vertex 4.574999999999833 -7.924132444627615 70.0
  endloop
endfacet
facet normal -6.350500998965158e-17 -3.402320523977381e-17 1.0
  outer loop
    vertex 4.574999999999833 -7.924132444627615 70.0
    vertex 28.158624679748172 -11.0 70.0
    vertex 17.63180573731177 -8.838221310544974 70.00000000000006
  endloop
endfacet
facet normal -6.350500998965158e-17 -3.402320523977381e-17 1.0
  outer loop
    vertex 4.574999999999833 -7.924132444627615 70.0
    vertex 17.63180573731177 -8.838221310544974 70.00000000000006
    vertex 6.470027047856732 -6.470027047856914 70.0
  endloop
endfacet
facet normal -6.350500998965158e-17 -3.402320523977381e-17 1.0
  outer loop
    vertex 6.470027047856732 -6.470027047856914 70.0
    vertex 17.63180573731177 -8.838221310544974 70.00000000000006
    vertex 15.424999999999834 -7.924132444627612 70.00000000000006
  endloop
endfacet
facet normal -6.350500998965158e-17 -3.402320523977381e-17 1.0
  outer loop
    vertex 6.470027047856732 -6.470027047856914 70.0
    vertex 15.424999999999834 -7.924132444627612 70.00000000000006
    vertex 13.529972952142927 -6.4700270478569095 70.00000000000006
  endloop
endfacet
facet normal -6.350500998965158e-17 -3.402320523977381e-17 1.0
  outer loop
    vertex 17.63180573731177 -8.838221310544974 70.00000000000006
    vertex 28.158624679748172 -11.0 70.0
    vertex 19.999999999999837 -9.15 70.00000000000006
  endloop
endfacet
facet normal -6.350500998965158e-17 -3.402320523977381e-17 1.0
  outer loop
    vertex 19.999999999999837 -9.15 70.00000000000006
    vertex 28.158624679748172 -11.0 70.0
    vertex 22.3681942626879 -8.838221310544977 70.00000000000006
  endloop
endfacet
facet normal -6.350500998965158e-17 -3.402320523977381e-17 1.0
  outer loop
    vertex 22.3681942626879 -8.838221310544977 70.00000000000006
    vertex 28.158624679748172 -11.0 70.0
    vertex 24.574999999999832 -7.924132444627615 70.00000000000006
  endloop
endfacet
facet normal -6.350500998965158e-17 -3.402320523977381e-17 1.0
  outer loop
    vertex 24.574999999999832 -7.924132444627615 70.00000000000006
    vertex 28.158624679748172 -11.0 70.0
    vertex 26.470027047856757 -6.470027047856914 70.00000000000006
  endloop
endfacet
facet normal -6.350500998965158e-17 -3.402320523977381e-17 1.0
  outer loop
    vertex 26.470027047856757 -6.470027047856914 70.00000000000006
    vertex 28.158624679748172 -11.0 70.0
    vertex 27.92413244462746 -4.575000000000005 70.00000000000006
  endloop
endfacet
facet normal -6.350500998965158e-17 -3.402320523977381e-17 1.0
  outer loop
    vertex 27.92413244462746 -4.575000000000005 70.00000000000006
    vertex 28.158624679748172 -11.0 70.0
    vertex 28.83822131054482 -2.368194262688072 70.00000000000006
  endloop
endfacet
facet normal -6.350500998965158e-17 -3.402320523977381e-17 1.0
  outer loop
    vertex 28.83822131054482 -2.368194262688072 70.00000000000006
    vertex 28.158624679748172 -11.0 70.0
    vertex 31.000000000000004 -8.158624679748167 70.0
  endloop
endfacet
facet normal -6.350500998965158e-17 -3.402320523977381e-17 1.0
  outer loop
    vertex 28.83822131054482 -2.368194262688072 70.00000000000006
    vertex 31.000000000000004 -8.158624679748167 70.0
    vertex 29.14999999999985 -1.6808277318297242e-15 70.00000000000006
  endloop
endfacet
facet normal -6.350500998965158e-17 -3.402320523977381e-17 1.0
  outer loop
    vertex 29.14999999999985 -1.6808277318297242e-15 70.00000000000006
    vertex 31.000000000000004 -8.158624679748167 70.0
    vertex 29.318516525781366 26.82361909794958 70.0
  endloop
endfacet
facet normal -6.350500998965158e-17 -3.402320523977381e-17 1.0
  outer loop
    vertex 29.318516525781366 26.82361909794958 70.0
    vertex 31.000000000000004 -8.158624679748167 70.0
    vertex 30.0 32.0 70.0
  endloop
endfacet
facet normal -6.350500998965158e-17 -3.402320523977381e-17 1.0
  outer loop
    vertex 30.0 32.0 70.0
    vertex 31.000000000000004 -8.158624679748167 70.0
    vertex 31.0 32.0 70.0
  endloop
endfacet
facet normal -6.350500998965158e-17 -3.402320523977381e-17 1.0
  outer loop
    vertex -9.150000000000174 5.60275910609932e-16 70.0
    vertex -8.674700191365355 25.269308971725124 70.0
    vertex -9.318516525781366 26.82361909794959 70.0
  endloop
endfacet
facet normal -6.350500998965158e-17 -3.402320523977381e-17 1.0
  outer loop
    vertex -8.674700191365355 25.269308971725124 70.0
    vertex -9.150000000000174 5.60275910609932e-16 70.0
    vertex -8.838221310545148 2.3681942626880668 70.0
  endloop
endfacet
facet normal -6.350500998965158e-17 -3.402320523977381e-17 1.0
  outer loop
    vertex -8.674700191365355 25.269308971725124 70.0
    vertex -8.838221310545148 2.3681942626880668 70.0
    vertex -7.924132444627789 4.575000000000001 70.0
  endloop
endfacet
facet normal -6.350500998965158e-17 -3.402320523977381e-17 1.0
  outer loop
    vertex -8.674700191365355 25.269308971725124 70.0
    vertex -7.924132444627789 4.575000000000001 70.0
    vertex -7.320508075688775 22.000000000000004 70.0
  endloop
endfacet
facet normal -6.350500998965158e-17 -3.402320523977381e-17 1.0
  outer loop
    vertex -7.320508075688775 22.000000000000004 70.0
    vertex -7.924132444627789 4.575000000000001 70.0
    vertex -6.470027047857086 6.470027047856911 70.0
  endloop
endfacet
facet normal -6.350500998965158e-17 -3.402320523977381e-17 1.0
  outer loop
    vertex -7.320508075688775 22.000000000000004 70.0
    vertex -6.470027047857086 6.470027047856911 70.0
    vertex -4.142135623730952 17.857864376269053 70.0
  endloop
endfacet
facet normal -6.350500998965158e-17 -3.402320523977381e-17 1.0
  outer loop
    vertex -4.142135623730952 17.857864376269053 70.0
    vertex -6.470027047857086 6.470027047856911 70.0
    vertex -4.575000000000164 7.924132444627614 70.0
  endloop
endfacet
facet normal -6.350500998965158e-17 -3.402320523977381e-17 1.0
  outer loop
    vertex -4.142135623730952 17.857864376269053 70.0
    vertex -4.575000000000164 7.924132444627614 70.0
    vertex -2.3681942626882293 8.838221310544975 70.0
  endloop
endfacet
facet normal -6.350500998965158e-17 -3.402320523977381e-17 1.0
  outer loop
    vertex -4.142135623730952 17.857864376269053 70.0
    vertex -2.3681942626882293 8.838221310544975 70.0
    vertex -2.8199664825478975e-15 14.67949192431123 70.0
  endloop
endfacet
facet normal -6.350500998965158e-17 -3.402320523977381e-17 1.0
  outer loop
    vertex -2.8199664825478975e-15 14.67949192431123 70.0
    vertex -2.3681942626882293 8.838221310544975 70.0
    vertex -1.6245607777747146e-13 9.15 70.0
  endloop
endfacet
facet normal -6.350500998965158e-17 -3.402320523977381e-17 1.0
  outer loop
    vertex -2.8199664825478975e-15 14.67949192431123 70.0
    vertex -1.6245607777747146e-13 9.15 70.0
    vertex 2.3681942626879082 8.838221310544974 70.0
  endloop
endfacet
facet normal -6.350500998965158e-17 -3.402320523977381e-17 1.0
  outer loop
    vertex -2.8199664825478975e-15 14.67949192431123 70.0
    vertex 2.3681942626879082 8.838221310544974 70.0
    vertex 4.823619097949581 12.681483474218638 70.0
  endloop
endfacet
facet normal -6.350500998965158e-17 -3.402320523977381e-17 1.0
  outer loop
    vertex 4.823619097949581 12.681483474218638 70.0
    vertex 2.3681942626879082 8.838221310544974 70.0
    vertex 4.57499999999984 7.924132444627611 70.0
  endloop
endfacet
facet normal -6.350500998965158e-17 -3.402320523977381e-17 1.0
  outer loop
    vertex 4.823619097949581 12.681483474218638 70.0
    vertex 4.57499999999984 7.924132444627611 70.0
    vertex 6.470027047856736 6.470027047856909 70.0
  endloop
endfacet
facet normal -6.350500998965158e-17 -3.402320523977381e-17 1.0
  outer loop
    vertex 4.823619097949581 12.681483474218638 70.0
    vertex 6.470027047856736 6.470027047856909 70.0
    vertex 9.999999999999998 12.000000000000004 70.0
  endloop
endfacet
facet normal -6.350500998965158e-17 -3.402320523977381e-17 1.0
  outer loop
    vertex 9.999999999999998 12.000000000000004 70.0
    vertex 6.470027047856736 6.470027047856909 70.0
    vertex 13.529972952142927 6.470027047856911 70.00000000000006
  endloop
endfacet
facet normal -6.350500998965158e-17 -3.402320523977381e-17 1.0
  outer loop
    vertex 9.999999999999998 12.000000000000004 70.0
    vertex 13.529972952142927 6.470027047856911 70.00000000000006
    vertex 15.176380902050411 12.681483474218638 70.0
  endloop
endfacet
facet normal -6.350500998965158e-17 -3.402320523977381e-17 1.0
  outer loop
    vertex 15.176380902050411 12.681483474218638 70.0
    vertex 13.529972952142927 6.470027047856911 70.00000000000006
    vertex 15.424999999999836 7.924132444627614 70.00000000000006
  endloop
endfacet
facet normal -6.350500998965158e-17 -3.402320523977381e-17 1.0
  outer loop
    vertex 15.176380902050411 12.681483474218638 70.0
    vertex 15.424999999999836 7.924132444627614 70.00000000000006
    vertex 19.999999999999996 14.679491924311229 70.0
  endloop
endfacet
facet normal -6.350500998965158e-17 -3.402320523977381e-17 1.0
  outer loop
    vertex 19.999999999999996 14.679491924311229 70.0
    vertex 15.424999999999836 7.924132444627614 70.00000000000006
    vertex 17.631805737311772 8.838221310544975 70.00000000000006
  endloop
endfacet
facet normal -6.350500998965158e-17 -3.402320523977381e-17 1.0
  outer loop
    vertex 19.999999999999996 14.679491924311229 70.0
    vertex 17.631805737311772 8.838221310544975 70.00000000000006
    vertex 19.999999999999837 9.15 70.00000000000006
  endloop
endfacet
facet normal -6.350500998965158e-17 -3.402320523977381e-17 1.0
  outer loop
    vertex 19.999999999999996 14.679491924311229 70.0
    vertex 19.999999999999837 9.15 70.00000000000006
    vertex 22.368194262687908 8.838221310544974 70.00000000000006
  endloop
endfacet
facet normal -6.350500998965158e-17 -3.402320523977381e-17 1.0
  outer loop
    vertex 19.999999999999996 14.679491924311229 70.0
    vertex 22.368194262687908 8.838221310544974 70.00000000000006
    vertex 24.14213562373095 17.857864376269053 70.0
  endloop
endfacet
facet normal -6.350500998965158e-17 -3.402320523977381e-17 1.0
  outer loop
    vertex 24.14213562373095 17.857864376269053 70.0
    vertex 22.368194262687908 8.838221310544974 70.00000000000006
    vertex 24.574999999999843 7.924132444627611 70.00000000000006
  endloop
endfacet
facet normal -6.350500998965158e-17 -3.402320523977381e-17 1.0
  outer loop
    vertex 24.14213562373095 17.857864376269053 70.0
    vertex 24.574999999999843 7.924132444627611 70.00000000000006
    vertex 27.32050807568877 21.999999999999996 70.0
  endloop
endfacet
facet normal -6.350500998965158e-17 -3.402320523977381e-17 1.0
  outer loop
    vertex 27.32050807568877 21.999999999999996 70.0
    vertex 24.574999999999843 7.924132444627611 70.00000000000006
    vertex 26.470027047856757 6.470027047856909 70.00000000000006
  endloop
endfacet
facet normal -6.350500998965158e-17 -3.402320523977381e-17 1.0
  outer loop
    vertex 27.32050807568877 21.999999999999996 70.0
    vertex 26.470027047856757 6.470027047856909 70.00000000000006
    vertex 27.924132444627467 4.574999999999994 70.00000000000006
  endloop
endfacet
facet normal -6.350500998965158e-17 -3.402320523977381e-17 1.0
  outer loop
    vertex 27.32050807568877 21.999999999999996 70.0
    vertex 27.924132444627467 4.574999999999994 70.00000000000006
    vertex 28.674700191365353 25.26930897172512 70.0
  endloop
endfacet
facet normal -6.350500998965158e-17 -3.402320523977381e-17 1.0
  outer loop
    vertex 28.674700191365353 25.26930897172512 70.0
    vertex 27.924132444627467 4.574999999999994 70.00000000000006
    vertex 28.838221310544824 2.3681942626880605 70.00000000000006
  endloop
endfacet
facet normal -6.350500998965158e-17 -3.402320523977381e-17 1.0
  outer loop
    vertex 28.674700191365353 25.26930897172512 70.0
    vertex 28.838221310544824 2.3681942626880605 70.00000000000006
    vertex 29.318516525781366 26.82361909794958 70.0
  endloop
endfacet
facet normal -6.350500998965158e-17 -3.402320523977381e-17 1.0
  outer loop
    vertex 29.318516525781366 26.82361909794958 70.0
    vertex 28.838221310544824 2.3681942626880605 70.00000000000006
    vertex 29.14999999999985 -1.6808277318297242e-15 70.00000000000006
  endloop
endfacet
facet normal -0.0 1.0 -0.0
  outer loop
    vertex 30.0 32.0 70.0
    vertex 31.0 32.0 -10.0
    vertex 30.0 32.0 -10.0
  endloop
endfacet
facet normal -0.0 1.0 -0.0
  outer loop
    vertex 31.0 32.0 -10.0
    vertex 30.0 32.0 70.0
    vertex 31.0 32.0 70.0
  endloop
endfacet
facet normal -0.9914448613738105 0.13052619222005157 0.0
  outer loop
    vertex 30.0 32.0 70.0
    vertex 29.318516525781366 26.82361909794958 -10.0
    vertex 29.318516525781366 26.82361909794958 70.0
  endloop
endfacet
facet normal -0.9914448613738105 0.13052619222005157 0.0
  outer loop
    vertex 29.318516525781366 26.82361909794958 -10.0
    vertex 30.0 32.0 70.0
    vertex 30.0 32.0 -10.0
  endloop
endfacet
facet normal -0.9238795325112867 0.3826834323650902 -5.712660963408625e-18
  outer loop
    vertex 28.674700191365353 25.26930897172512 70.0
    vertex 27.32050807568877 21.999999999999996 -10.0
    vertex 27.32050807568877 21.999999999999996 70.0
  endloop
endfacet
facet normal -0.9238795325112867 0.3826834323650902 -5.712660963408625e-18
  outer loop
    vertex 27.32050807568877 21.999999999999996 -10.0
    vertex 28.674700191365353 25.26930897172512 70.0
    vertex 29.318516525781366 26.82361909794958 -10.0
  endloop
endfacet
facet normal -0.9238795325112867 0.3826834323650902 -5.712660963408625e-18
  outer loop
    vertex 29.318516525781366 26.82361909794958 -10.0
    vertex 28.674700191365353 25.26930897172512 70.0
    vertex 29.318516525781366 26.82361909794958 70.0
  endloop
endfacet
facet normal -0.793353340291235 0.6087614290087209 -0.0
  outer loop
    vertex 27.32050807568877 21.999999999999996 70.0
    vertex 24.14213562373095 17.857864376269053 -10.0
    vertex 24.14213562373095 17.857864376269053 70.0
  endloop
endfacet
facet normal -0.793353340291235 0.6087614290087209 -0.0
  outer loop
    vertex 24.14213562373095 17.857864376269053 -10.0
    vertex 27.32050807568877 21.999999999999996 70.0
    vertex 27.32050807568877 21.999999999999996 -10.0
  endloop
endfacet
facet normal -0.6087614290087204 0.7933533402912353 -0.0
  outer loop
    vertex 19.999999999999996 14.679491924311229 70.0
    vertex 24.14213562373095 17.857864376269053 -10.0
    vertex 19.999999999999996 14.679491924311229 -10.0
  endloop
endfacet
facet normal -0.6087614290087204 0.7933533402912353 -0.0
  outer loop
    vertex 24.14213562373095 17.857864376269053 -10.0
    vertex 19.999999999999996 14.679491924311229 70.0
    vertex 24.14213562373095 17.857864376269053 70.0
  endloop
endfacet
facet normal -0.3826834323650893 0.923879532511287 -0.0
  outer loop
    vertex 15.176380902050411 12.681483474218638 70.0
    vertex 19.999999999999996 14.679491924311229 -10.0
    vertex 15.176380902050411 12.681483474218638 -10.0
  endloop
endfacet
facet normal -0.3826834323650893 0.923879532511287 -0.0
  outer loop
    vertex 19.999999999999996 14.679491924311229 -10.0
    vertex 15.176380902050411 12.681483474218638 70.0
    vertex 19.999999999999996 14.679491924311229 70.0
  endloop
endfacet
facet normal -0.1305261922200518 0.9914448613738104 -0.0
  outer loop
    vertex 9.999999999999998 12.000000000000004 70.0
    vertex 15.176380902050411 12.681483474218638 -10.0
    vertex 9.999999999999998 12.000000000000004 -10.0
  endloop
endfacet
facet normal -0.1305261922200518 0.9914448613738104 -0.0
  outer loop
    vertex 15.176380902050411 12.681483474218638 -10.0
    vertex 9.999999999999998 12.000000000000004 70.0
    vertex 15.176380902050411 12.681483474218638 70.0
  endloop
endfacet
facet normal 0.13052619222005168 0.9914448613738105 0.0
  outer loop
    vertex 4.823619097949581 12.681483474218638 70.0
    vertex 9.999999999999998 12.000000000000004 -10.0
    vertex 4.823619097949581 12.681483474218638 -10.0
  endloop
endfacet
facet normal 0.13052619222005168 0.9914448613738105 0.0
  outer loop
    vertex 9.999999999999998 12.000000000000004 -10.0
    vertex 4.823619097949581 12.681483474218638 70.0
    vertex 9.999999999999998 12.000000000000004 70.0
  endloop
endfacet
facet normal 0.3826834323650899 0.9238795325112867 0.0
  outer loop
    vertex -2.8199664825478975e-15 14.67949192431123 70.0
    vertex 4.823619097949581 12.681483474218638 -10.0
    vertex -2.8199664825478975e-15 14.67949192431123 -10.0
  endloop
endfacet
facet normal 0.3826834323650899 0.9238795325112867 0.0
  outer loop
    vertex 4.823619097949581 12.681483474218638 -10.0
    vertex -2.8199664825478975e-15 14.67949192431123 70.0
    vertex 4.823619097949581 12.681483474218638 70.0
  endloop
endfacet
facet normal 0.6087614290087204 0.7933533402912353 0.0
  outer loop
    vertex -4.142135623730952 17.857864376269053 70.0
    vertex -2.8199664825478975e-15 14.67949192431123 -10.0
    vertex -4.142135623730952 17.857864376269053 -10.0
  endloop
endfacet
facet normal 0.6087614290087204 0.7933533402912353 0.0
  outer loop
    vertex -2.8199664825478975e-15 14.67949192431123 -10.0
    vertex -4.142135623730952 17.857864376269053 70.0
    vertex -2.8199664825478975e-15 14.67949192431123 70.0
  endloop
endfacet
facet normal 0.7933533402912353 0.6087614290087204 0.0
  outer loop
    vertex -7.320508075688775 22.000000000000004 -10.0
    vertex -4.142135623730952 17.857864376269053 70.0
    vertex -4.142135623730952 17.857864376269053 -10.0
  endloop
endfacet
facet normal 0.7933533402912353 0.6087614290087204 0.0
  outer loop
    vertex -4.142135623730952 17.857864376269053 70.0
    vertex -7.320508075688775 22.000000000000004 -10.0
    vertex -7.320508075688775 22.000000000000004 70.0
  endloop
endfacet
facet normal 0.9238795325112868 0.38268343236508945 -2.5135708238997985e-18
  outer loop
    vertex -9.318516525781366 26.82361909794959 -10.0
    vertex -7.320508075688775 22.000000000000004 70.0
    vertex -7.320508075688775 22.000000000000004 -10.0
  endloop
endfacet
facet normal 0.9238795325112868 0.38268343236508945 -2.5135708238997985e-18
  outer loop
    vertex -7.320508075688775 22.000000000000004 70.0
    vertex -9.318516525781366 26.82361909794959 -10.0
    vertex -8.674700191365355 25.269308971725124 70.0
  endloop
endfacet
facet normal 0.9238795325112868 0.38268343236508945 -2.5135708238997985e-18
  outer loop
    vertex -8.674700191365355 25.269308971725124 70.0
    vertex -9.318516525781366 26.82361909794959 -10.0
    vertex -9.318516525781366 26.82361909794959 70.0
  endloop
endfacet
facet normal 0.9914448613738105 0.1305261922200517 -3.6520386616175112e-19
  outer loop
    vertex -10.0 32.0 -10.0
    vertex -9.318516525781366 26.82361909794959 70.0
    vertex -9.318516525781366 26.82361909794959 -10.0
  endloop
endfacet
facet normal 0.9914448613738105 0.1305261922200517 -3.6520386616175112e-19
  outer loop
    vertex -9.318516525781366 26.82361909794959 70.0
    vertex -10.0 32.0 -10.0
    vertex -10.0 32.0 70.0
  endloop
endfacet
facet normal -0.0 1.0 -0.0
  outer loop
    vertex -11.0 32.0 70.0
    vertex -10.0 32.0 -10.0
    vertex -11.0 32.0 -10.0
  endloop
endfacet
facet normal -0.0 1.0 -0.0
  outer loop
    vertex -10.0 32.0 -10.0
    vertex -11.0 32.0 70.0
    vertex -10.0 32.0 70.0
  endloop
endfacet
endsolid P2-Velo
