solid Втулка крепления
facet normal -0.0 -0.0 1.0
  outer loop
    vertex -3.863703305156273 -1.0352761804100814 28.0
    vertex -3.863703305156272 1.035276180410084 28.0
    vertex -3.999999999999999 4.898587196589412e-16 28.0
  endloop
endfacet
facet normal -0.0 -0.0 1.0
  outer loop
    vertex -3.863703305156272 1.035276180410084 28.0
    vertex -3.863703305156273 -1.0352761804100814 28.0
    vertex -3.4641016151377544 -1.999999999999999 28.0
  endloop
endfacet
facet normal -0.0 -0.0 1.0
  outer loop
    vertex -3.863703305156272 1.035276180410084 28.0
    vertex -3.4641016151377544 -1.999999999999999 28.0
    vertex -3.464101615137753 2.0000000000000013 28.0
  endloop
endfacet
facet normal -0.0 -0.0 1.0
  outer loop
    vertex -3.464101615137753 2.0000000000000013 28.0
    vertex -3.4641016151377544 -1.999999999999999 28.0
    vertex -2.828427124746191 -2.8284271247461885 28.0
  endloop
endfacet
facet normal -0.0 -0.0 1.0
  outer loop
    vertex -3.464101615137753 2.0000000000000013 28.0
    vertex -2.828427124746191 -2.8284271247461885 28.0
    vertex -3.0 -3.67394039744206e-16 28.0
  endloop
endfacet
facet normal -0.0 -0.0 1.0
  outer loop
    vertex -3.0 -3.67394039744206e-16 28.0
    vertex -2.828427124746191 -2.8284271247461885 28.0
    vertex -2.8977774788672046 -0.7764571353075631 28.0
  endloop
endfacet
facet normal -0.0 -0.0 1.0
  outer loop
    vertex -2.8977774788672046 -0.7764571353075631 28.0
    vertex -2.828427124746191 -2.8284271247461885 28.0
    vertex -2.5980762113533156 -1.500000000000001 28.0
  endloop
endfacet
facet normal -0.0 -0.0 1.0
  outer loop
    vertex -2.5980762113533156 -1.500000000000001 28.0
    vertex -2.828427124746191 -2.8284271247461885 28.0
    vertex -2.0000000000000013 -3.464101615137753 28.0
  endloop
endfacet
facet normal -0.0 -0.0 1.0
  outer loop
    vertex -2.5980762113533156 -1.500000000000001 28.0
    vertex -2.0000000000000013 -3.464101615137753 28.0
    vertex -2.1213203435596424 -2.121320343559643 28.0
  endloop
endfacet
facet normal -0.0 -0.0 1.0
  outer loop
    vertex -2.1213203435596424 -2.121320343559643 28.0
    vertex -2.0000000000000013 -3.464101615137753 28.0
    vertex -1.4999999999999991 -2.598076211353316 28.0
  endloop
endfacet
facet normal -0.0 -0.0 1.0
  outer loop
    vertex -1.4999999999999991 -2.598076211353316 28.0
    vertex -2.0000000000000013 -3.464101615137753 28.0
    vertex -1.0352761804100858 -3.863703305156272 28.0
  endloop
endfacet
facet normal -0.0 -0.0 1.0
  outer loop
    vertex -1.4999999999999991 -2.598076211353316 28.0
    vertex -1.0352761804100858 -3.863703305156272 28.0
    vertex -0.7764571353075619 -2.897777478867205 28.0
  endloop
endfacet
facet normal -0.0 -0.0 1.0
  outer loop
    vertex -0.7764571353075619 -2.897777478867205 28.0
    vertex -1.0352761804100858 -3.863703305156272 28.0
    vertex -7.347880794884117e-16 -3.9999999999999996 28.0
  endloop
endfacet
facet normal -0.0 -0.0 1.0
  outer loop
    vertex -0.7764571353075619 -2.897777478867205 28.0
    vertex -7.347880794884117e-16 -3.9999999999999996 28.0
    vertex 1.8369701987210297e-16 -3.0 28.0
  endloop
endfacet
facet normal -0.0 -0.0 1.0
  outer loop
    vertex 1.8369701987210297e-16 -3.0 28.0
    vertex -7.347880794884117e-16 -3.9999999999999996 28.0
    vertex 1.035276180410081 -3.8637033051562732 28.0
  endloop
endfacet
facet normal -0.0 -0.0 1.0
  outer loop
    vertex 1.8369701987210297e-16 -3.0 28.0
    vertex 1.035276180410081 -3.8637033051562732 28.0
    vertex 0.7764571353075629 -2.897777478867205 28.0
  endloop
endfacet
facet normal -0.0 -0.0 1.0
  outer loop
    vertex 0.7764571353075629 -2.897777478867205 28.0
    vertex 1.035276180410081 -3.8637033051562732 28.0
    vertex 1.5000000000000002 -2.5980762113533156 28.0
  endloop
endfacet
facet normal -0.0 -0.0 1.0
  outer loop
    vertex 1.5000000000000002 -2.5980762113533156 28.0
    vertex 1.035276180410081 -3.8637033051562732 28.0
    vertex 1.9999999999999967 -3.464101615137756 28.0
  endloop
endfacet
facet normal -0.0 -0.0 1.0
  outer loop
    vertex 1.5000000000000002 -2.5980762113533156 28.0
    vertex 1.9999999999999967 -3.464101615137756 28.0
    vertex 2.1213203435596424 -2.1213203435596424 28.0
  endloop
endfacet
facet normal -0.0 -0.0 1.0
  outer loop
    vertex 2.1213203435596424 -2.1213203435596424 28.0
    vertex 1.9999999999999967 -3.464101615137756 28.0
    vertex 2.8284271247461885 -2.8284271247461903 28.0
  endloop
endfacet
facet normal -0.0 -0.0 1.0
  outer loop
    vertex 2.1213203435596424 -2.1213203435596424 28.0
    vertex 2.8284271247461885 -2.8284271247461903 28.0
    vertex 2.5980762113533156 -1.5 28.0
  endloop
endfacet
facet normal -0.0 -0.0 1.0
  outer loop
    vertex 2.5980762113533156 -1.5 28.0
    vertex 2.8284271247461885 -2.8284271247461903 28.0
    vertex 2.897777478867205 -0.7764571353075622 28.0
  endloop
endfacet
facet normal -0.0 -0.0 1.0
  outer loop
    vertex 2.897777478867205 -0.7764571353075622 28.0
    vertex 2.8284271247461885 -2.8284271247461903 28.0
    vertex 3.4641016151377526 -2.0000000000000018 28.0
  endloop
endfacet
facet normal -0.0 -0.0 1.0
  outer loop
    vertex 2.897777478867205 -0.7764571353075622 28.0
    vertex 3.4641016151377526 -2.0000000000000018 28.0
    vertex 3.0 0.0 28.0
  endloop
endfacet
facet normal -0.0 -0.0 1.0
  outer loop
    vertex -3.0 -3.67394039744206e-16 28.0
    vertex -2.8284271247461894 2.8284271247461903 28.0
    vertex -3.464101615137753 2.0000000000000013 28.0
  endloop
endfacet
facet normal -0.0 -0.0 1.0
  outer loop
    vertex -2.8284271247461894 2.8284271247461903 28.0
    vertex -3.0 -3.67394039744206e-16 28.0
    vertex -2.897777478867205 0.7764571353075611 28.0
  endloop
endfacet
facet normal -0.0 -0.0 1.0
  outer loop
    vertex -2.8284271247461894 2.8284271247461903 28.0
    vertex -2.897777478867205 0.7764571353075611 28.0
    vertex -2.598076211353316 1.4999999999999991 28.0
  endloop
endfacet
facet normal -0.0 -0.0 1.0
  outer loop
    vertex -2.8284271247461894 2.8284271247461903 28.0
    vertex -2.598076211353316 1.4999999999999991 28.0
    vertex -1.9999999999999984 3.4641016151377544 28.0
  endloop
endfacet
facet normal -0.0 -0.0 1.0
  outer loop
    vertex -1.9999999999999984 3.4641016151377544 28.0
    vertex -2.598076211353316 1.4999999999999991 28.0
    vertex -2.1213203435596437 2.1213203435596415 28.0
  endloop
endfacet
facet normal -0.0 -0.0 1.0
  outer loop
    vertex -1.9999999999999984 3.4641016151377544 28.0
    vertex -2.1213203435596437 2.1213203435596415 28.0
    vertex -1.5000000000000013 2.5980762113533156 28.0
  endloop
endfacet
facet normal -0.0 -0.0 1.0
  outer loop
    vertex -1.9999999999999984 3.4641016151377544 28.0
    vertex -1.5000000000000013 2.5980762113533156 28.0
    vertex -1.0352761804100823 3.863703305156273 28.0
  endloop
endfacet
facet normal -0.0 -0.0 1.0
  outer loop
    vertex -1.0352761804100823 3.863703305156273 28.0
    vertex -1.5000000000000013 2.5980762113533156 28.0
    vertex -0.7764571353075645 2.8977774788672046 28.0
  endloop
endfacet
facet normal -0.0 -0.0 1.0
  outer loop
    vertex -1.0352761804100823 3.863703305156273 28.0
    vertex -0.7764571353075645 2.8977774788672046 28.0
    vertex 2.449293598294706e-16 3.9999999999999996 28.0
  endloop
endfacet
facet normal -0.0 -0.0 1.0
  outer loop
    vertex 2.449293598294706e-16 3.9999999999999996 28.0
    vertex -0.7764571353075645 2.8977774788672046 28.0
    vertex -5.510910596163089e-16 3.0 28.0
  endloop
endfacet
facet normal -0.0 -0.0 1.0
  outer loop
    vertex 2.449293598294706e-16 3.9999999999999996 28.0
    vertex -5.510910596163089e-16 3.0 28.0
    vertex 0.7764571353075608 2.897777478867205 28.0
  endloop
endfacet
facet normal -0.0 -0.0 1.0
  outer loop
    vertex 2.449293598294706e-16 3.9999999999999996 28.0
    vertex 0.7764571353075608 2.897777478867205 28.0
    vertex 1.0352761804100836 3.863703305156273 28.0
  endloop
endfacet
facet normal -0.0 -0.0 1.0
  outer loop
    vertex 1.0352761804100836 3.863703305156273 28.0
    vertex 0.7764571353075608 2.897777478867205 28.0
    vertex 1.499999999999998 2.5980762113533173 28.0
  endloop
endfacet
facet normal -0.0 -0.0 1.0
  outer loop
    vertex 1.0352761804100836 3.863703305156273 28.0
    vertex 1.499999999999998 2.5980762113533173 28.0
    vertex 1.9999999999999998 3.464101615137754 28.0
  endloop
endfacet
facet normal -0.0 -0.0 1.0
  outer loop
    vertex 1.9999999999999998 3.464101615137754 28.0
    vertex 1.499999999999998 2.5980762113533173 28.0
    vertex 2.121320343559642 2.1213203435596433 28.0
  endloop
endfacet
facet normal -0.0 -0.0 1.0
  outer loop
    vertex 1.9999999999999998 3.464101615137754 28.0
    vertex 2.121320343559642 2.1213203435596433 28.0
    vertex 2.82842712474619 2.82842712474619 28.0
  endloop
endfacet
facet normal -0.0 -0.0 1.0
  outer loop
    vertex 2.82842712474619 2.82842712474619 28.0
    vertex 2.121320343559642 2.1213203435596433 28.0
    vertex 2.598076211353315 1.5000000000000016 28.0
  endloop
endfacet
facet normal -0.0 -0.0 1.0
  outer loop
    vertex 2.82842712474619 2.82842712474619 28.0
    vertex 2.598076211353315 1.5000000000000016 28.0
    vertex 2.897777478867204 0.7764571353075648 28.0
  endloop
endfacet
facet normal -0.0 -0.0 1.0
  outer loop
    vertex 2.82842712474619 2.82842712474619 28.0
    vertex 2.897777478867204 0.7764571353075648 28.0
    vertex 3.464101615137754 1.9999999999999996 28.0
  endloop
endfacet
facet normal -0.0 -0.0 1.0
  outer loop
    vertex 3.464101615137754 1.9999999999999996 28.0
    vertex 2.897777478867204 0.7764571353075648 28.0
    vertex 3.0 0.0 28.0
  endloop
endfacet
facet normal -0.0 -0.0 1.0
  outer loop
    vertex 3.464101615137754 1.9999999999999996 28.0
    vertex 3.0 0.0 28.0
    vertex 3.4641016151377526 -2.0000000000000018 28.0
  endloop
endfacet
facet normal -0.0 -0.0 1.0
  outer loop
    vertex 3.464101615137754 1.9999999999999996 28.0
    vertex 3.4641016151377526 -2.0000000000000018 28.0
    vertex 3.8637033051562715 -1.035276180410086 28.0
  endloop
endfacet
facet normal -0.0 -0.0 1.0
  outer loop
    vertex 3.464101615137754 1.9999999999999996 28.0
    vertex 3.8637033051562715 -1.035276180410086 28.0
    vertex 3.863703305156272 1.035276180410083 28.0
  endloop
endfacet
facet normal -0.0 -0.0 1.0
  outer loop
    vertex 3.863703305156272 1.035276180410083 28.0
    vertex 3.8637033051562715 -1.035276180410086 28.0
    vertex 3.999999999999999 0.0 28.0
  endloop
endfacet
facet normal 0.7933533402912354 0.6087614290087203 0.0
  outer loop
    vertex 2.82842712474619 2.82842712474619 0.0
    vertex 3.464101615137754 1.9999999999999996 28.0
    vertex 3.464101615137754 1.9999999999999996 0.0
  endloop
endfacet
facet normal 0.7933533402912354 0.6087614290087203 0.0
  outer loop
    vertex 3.464101615137754 1.9999999999999996 28.0
    vertex 2.82842712474619 2.82842712474619 0.0
    vertex 2.82842712474619 2.82842712474619 28.0
  endloop
endfacet
facet normal 0.9238795325112868 0.38268343236508956 0.0
  outer loop
    vertex 3.464101615137754 1.9999999999999996 0.0
    vertex 3.863703305156272 1.035276180410083 28.0
    vertex 3.863703305156272 1.035276180410083 0.0
  endloop
endfacet
facet normal 0.9238795325112868 0.38268343236508956 0.0
  outer loop
    vertex 3.863703305156272 1.035276180410083 28.0
    vertex 3.464101615137754 1.9999999999999996 0.0
    vertex 3.464101615137754 1.9999999999999996 28.0
  endloop
endfacet
facet normal 0.9914448613738104 0.13052619222005174 0.0
  outer loop
    vertex 3.863703305156272 1.035276180410083 0.0
    vertex 3.999999999999999 0.0 28.0
    vertex 3.999999999999999 0.0 0.0
  endloop
endfacet
facet normal 0.9914448613738104 0.13052619222005174 0.0
  outer loop
    vertex 3.999999999999999 0.0 28.0
    vertex 3.863703305156272 1.035276180410083 0.0
    vertex 3.863703305156272 1.035276180410083 28.0
  endloop
endfacet
facet normal 0.9914448613738104 -0.13052619222005202 0.0
  outer loop
    vertex 3.999999999999999 0.0 0.0
    vertex 3.8637033051562715 -1.035276180410086 28.0
    vertex 3.8637033051562715 -1.035276180410086 0.0
  endloop
endfacet
facet normal 0.9914448613738104 -0.13052619222005202 0.0
  outer loop
    vertex 3.8637033051562715 -1.035276180410086 28.0
    vertex 3.999999999999999 0.0 0.0
    vertex 3.999999999999999 0.0 28.0
  endloop
endfacet
facet normal 0.9238795325112865 -0.3826834323650905 0.0
  outer loop
    vertex 3.8637033051562715 -1.035276180410086 0.0
    vertex 3.4641016151377526 -2.0000000000000018 28.0
    vertex 3.4641016151377526 -2.0000000000000018 0.0
  endloop
endfacet
facet normal 0.9238795325112865 -0.3826834323650905 0.0
  outer loop
    vertex 3.4641016151377526 -2.0000000000000018 28.0
    vertex 3.8637033051562715 -1.035276180410086 0.0
    vertex 3.8637033051562715 -1.035276180410086 28.0
  endloop
endfacet
facet normal 0.793353340291235 -0.6087614290087208 0.0
  outer loop
    vertex 3.4641016151377526 -2.0000000000000018 0.0
    vertex 2.8284271247461885 -2.8284271247461903 28.0
    vertex 2.8284271247461885 -2.8284271247461903 0.0
  endloop
endfacet
facet normal 0.793353340291235 -0.6087614290087208 0.0
  outer loop
    vertex 2.8284271247461885 -2.8284271247461903 28.0
    vertex 3.4641016151377526 -2.0000000000000018 0.0
    vertex 3.4641016151377526 -2.0000000000000018 28.0
  endloop
endfacet
facet normal 0.6087614290087204 -0.7933533402912355 0.0
  outer loop
    vertex 2.8284271247461885 -2.8284271247461903 28.0
    vertex 1.9999999999999967 -3.464101615137756 0.0
    vertex 2.8284271247461885 -2.8284271247461903 0.0
  endloop
endfacet
facet normal 0.6087614290087204 -0.7933533402912355 0.0
  outer loop
    vertex 1.9999999999999967 -3.464101615137756 0.0
    vertex 2.8284271247461885 -2.8284271247461903 28.0
    vertex 1.9999999999999967 -3.464101615137756 28.0
  endloop
endfacet
facet normal 0.3826834323650892 -0.923879532511287 0.0
  outer loop
    vertex 1.9999999999999967 -3.464101615137756 28.0
    vertex 1.035276180410081 -3.8637033051562732 0.0
    vertex 1.9999999999999967 -3.464101615137756 0.0
  endloop
endfacet
facet normal 0.3826834323650892 -0.923879532511287 0.0
  outer loop
    vertex 1.035276180410081 -3.8637033051562732 0.0
    vertex 1.9999999999999967 -3.464101615137756 28.0
    vertex 1.035276180410081 -3.8637033051562732 28.0
  endloop
endfacet
facet normal 0.13052619222005127 -0.9914448613738106 0.0
  outer loop
    vertex 1.035276180410081 -3.8637033051562732 28.0
    vertex -7.347880794884117e-16 -3.9999999999999996 0.0
    vertex 1.035276180410081 -3.8637033051562732 0.0
  endloop
endfacet
facet normal 0.13052619222005127 -0.9914448613738106 0.0
  outer loop
    vertex -7.347880794884117e-16 -3.9999999999999996 0.0
    vertex 1.035276180410081 -3.8637033051562732 28.0
    vertex -7.347880794884117e-16 -3.9999999999999996 28.0
  endloop
endfacet
facet normal -0.13052619222005216 -0.9914448613738104 -0.0
  outer loop
    vertex -7.347880794884117e-16 -3.9999999999999996 28.0
    vertex -1.0352761804100858 -3.863703305156272 0.0
    vertex -7.347880794884117e-16 -3.9999999999999996 0.0
  endloop
endfacet
facet normal -0.13052619222005216 -0.9914448613738104 -0.0
  outer loop
    vertex -1.0352761804100858 -3.863703305156272 0.0
    vertex -7.347880794884117e-16 -3.9999999999999996 28.0
    vertex -1.0352761804100858 -3.863703305156272 28.0
  endloop
endfacet
facet normal -0.3826834323650905 -0.9238795325112865 -0.0
  outer loop
    vertex -1.0352761804100858 -3.863703305156272 28.0
    vertex -2.0000000000000013 -3.464101615137753 0.0
    vertex -1.0352761804100858 -3.863703305156272 0.0
  endloop
endfacet
facet normal -0.3826834323650905 -0.9238795325112865 -0.0
  outer loop
    vertex -2.0000000000000013 -3.464101615137753 0.0
    vertex -1.0352761804100858 -3.863703305156272 28.0
    vertex -2.0000000000000013 -3.464101615137753 28.0
  endloop
endfacet
facet normal -0.6087614290087209 -0.7933533402912349 -0.0
  outer loop
    vertex -2.0000000000000013 -3.464101615137753 28.0
    vertex -2.828427124746191 -2.8284271247461885 0.0
    vertex -2.0000000000000013 -3.464101615137753 0.0
  endloop
endfacet
facet normal -0.6087614290087209 -0.7933533402912349 -0.0
  outer loop
    vertex -2.828427124746191 -2.8284271247461885 0.0
    vertex -2.0000000000000013 -3.464101615137753 28.0
    vertex -2.828427124746191 -2.8284271247461885 28.0
  endloop
endfacet
facet normal -0.7933533402912355 -0.6087614290087203 -0.0
  outer loop
    vertex -3.4641016151377544 -1.999999999999999 28.0
    vertex -2.828427124746191 -2.8284271247461885 0.0
    vertex -2.828427124746191 -2.8284271247461885 28.0
  endloop
endfacet
facet normal -0.7933533402912355 -0.6087614290087203 -0.0
  outer loop
    vertex -2.828427124746191 -2.8284271247461885 0.0
    vertex -3.4641016151377544 -1.999999999999999 28.0
    vertex -3.4641016151377544 -1.999999999999999 0.0
  endloop
endfacet
facet normal -0.9238795325112871 -0.38268343236508934 -0.0
  outer loop
    vertex -3.863703305156273 -1.0352761804100814 28.0
    vertex -3.4641016151377544 -1.999999999999999 0.0
    vertex -3.4641016151377544 -1.999999999999999 28.0
  endloop
endfacet
facet normal -0.9238795325112871 -0.38268343236508934 -0.0
  outer loop
    vertex -3.4641016151377544 -1.999999999999999 0.0
    vertex -3.863703305156273 -1.0352761804100814 28.0
    vertex -3.863703305156273 -1.0352761804100814 0.0
  endloop
endfacet
facet normal -0.9914448613738106 -0.13052619222005124 -0.0
  outer loop
    vertex -3.999999999999999 4.898587196589412e-16 28.0
    vertex -3.863703305156273 -1.0352761804100814 0.0
    vertex -3.863703305156273 -1.0352761804100814 28.0
  endloop
endfacet
facet normal -0.9914448613738106 -0.13052619222005124 -0.0
  outer loop
    vertex -3.863703305156273 -1.0352761804100814 0.0
    vertex -3.999999999999999 4.898587196589412e-16 28.0
    vertex -3.999999999999999 4.898587196589412e-16 0.0
  endloop
endfacet
facet normal -0.9914448613738104 0.13052619222005168 0.0
  outer loop
    vertex -3.863703305156272 1.035276180410084 28.0
    vertex -3.999999999999999 4.898587196589412e-16 0.0
    vertex -3.999999999999999 4.898587196589412e-16 28.0
  endloop
endfacet
facet normal -0.9914448613738104 0.13052619222005168 0.0
  outer loop
    vertex -3.999999999999999 4.898587196589412e-16 0.0
    vertex -3.863703305156272 1.035276180410084 28.0
    vertex -3.863703305156272 1.035276180410084 0.0
  endloop
endfacet
facet normal -0.9238795325112867 0.3826834323650899 0.0
  outer loop
    vertex -3.464101615137753 2.0000000000000013 28.0
    vertex -3.863703305156272 1.035276180410084 0.0
    vertex -3.863703305156272 1.035276180410084 28.0
  endloop
endfacet
facet normal -0.9238795325112867 0.3826834323650899 0.0
  outer loop
    vertex -3.863703305156272 1.035276180410084 0.0
    vertex -3.464101615137753 2.0000000000000013 28.0
    vertex -3.464101615137753 2.0000000000000013 0.0
  endloop
endfacet
facet normal -0.793353340291235 0.6087614290087208 0.0
  outer loop
    vertex -2.8284271247461894 2.8284271247461903 28.0
    vertex -3.464101615137753 2.0000000000000013 0.0
    vertex -3.464101615137753 2.0000000000000013 28.0
  endloop
endfacet
facet normal -0.793353340291235 0.6087614290087208 0.0
  outer loop
    vertex -3.464101615137753 2.0000000000000013 0.0
    vertex -2.8284271247461894 2.8284271247461903 28.0
    vertex -2.8284271247461894 2.8284271247461903 0.0
  endloop
endfacet
facet normal -0.6087614290087202 0.7933533402912355 0.0
  outer loop
    vertex -2.8284271247461894 2.8284271247461903 28.0
    vertex -1.9999999999999984 3.4641016151377544 0.0
    vertex -2.8284271247461894 2.8284271247461903 0.0
  endloop
endfacet
facet normal -0.6087614290087202 0.7933533402912355 0.0
  outer loop
    vertex -1.9999999999999984 3.4641016151377544 0.0
    vertex -2.8284271247461894 2.8284271247461903 28.0
    vertex -1.9999999999999984 3.4641016151377544 28.0
  endloop
endfacet
facet normal -0.3826834323650896 0.9238795325112867 0.0
  outer loop
    vertex -1.9999999999999984 3.4641016151377544 28.0
    vertex -1.0352761804100823 3.863703305156273 0.0
    vertex -1.9999999999999984 3.4641016151377544 0.0
  endloop
endfacet
facet normal -0.3826834323650896 0.9238795325112867 0.0
  outer loop
    vertex -1.0352761804100823 3.863703305156273 0.0
    vertex -1.9999999999999984 3.4641016151377544 28.0
    vertex -1.0352761804100823 3.863703305156273 28.0
  endloop
endfacet
facet normal -0.1305261922200518 0.9914448613738104 0.0
  outer loop
    vertex -1.0352761804100823 3.863703305156273 28.0
    vertex 2.449293598294706e-16 3.9999999999999996 0.0
    vertex -1.0352761804100823 3.863703305156273 0.0
  endloop
endfacet
facet normal -0.1305261922200518 0.9914448613738104 0.0
  outer loop
    vertex 2.449293598294706e-16 3.9999999999999996 0.0
    vertex -1.0352761804100823 3.863703305156273 28.0
    vertex 2.449293598294706e-16 3.9999999999999996 28.0
  endloop
endfacet
facet normal 0.13052619222005168 0.9914448613738104 0.0
  outer loop
    vertex 2.449293598294706e-16 3.9999999999999996 28.0
    vertex 1.0352761804100836 3.863703305156273 0.0
    vertex 2.449293598294706e-16 3.9999999999999996 0.0
  endloop
endfacet
facet normal 0.13052619222005168 0.9914448613738104 0.0
  outer loop
    vertex 1.0352761804100836 3.863703305156273 0.0
    vertex 2.449293598294706e-16 3.9999999999999996 28.0
    vertex 1.0352761804100836 3.863703305156273 28.0
  endloop
endfacet
facet normal 0.38268343236509034 0.9238795325112867 0.0
  outer loop
    vertex 1.0352761804100836 3.863703305156273 28.0
    vertex 1.9999999999999998 3.464101615137754 0.0
    vertex 1.0352761804100836 3.863703305156273 0.0
  endloop
endfacet
facet normal 0.38268343236509034 0.9238795325112867 0.0
  outer loop
    vertex 1.9999999999999998 3.464101615137754 0.0
    vertex 1.0352761804100836 3.863703305156273 28.0
    vertex 1.9999999999999998 3.464101615137754 28.0
  endloop
endfacet
facet normal 0.6087614290087205 0.7933533402912353 0.0
  outer loop
    vertex 1.9999999999999998 3.464101615137754 28.0
    vertex 2.82842712474619 2.82842712474619 0.0
    vertex 1.9999999999999998 3.464101615137754 0.0
  endloop
endfacet
facet normal 0.6087614290087205 0.7933533402912353 0.0
  outer loop
    vertex 2.82842712474619 2.82842712474619 0.0
    vertex 1.9999999999999998 3.464101615137754 28.0
    vertex 2.82842712474619 2.82842712474619 28.0
  endloop
endfacet
facet normal -0.0 -0.0 1.0
  outer loop
    vertex -4.048173688891946 -2.934670302531953 0.0
    vertex -3.863703305156273 -1.0352761804100814 0.0
    vertex -3.999999999999999 4.898587196589412e-16 0.0
  endloop
endfacet
facet normal -0.0 -0.0 1.0
  outer loop
    vertex -3.863703305156273 -1.0352761804100814 0.0
    vertex -4.048173688891946 -2.934670302531953 0.0
    vertex -3.1506869500125747 -3.8824182854273284 0.0
  endloop
endfacet
facet normal -0.0 -0.0 1.0
  outer loop
    vertex -3.863703305156273 -1.0352761804100814 0.0
    vertex -3.1506869500125747 -3.8824182854273284 0.0
    vertex -3.4641016151377544 -1.999999999999999 0.0
  endloop
endfacet
facet normal -0.0 -0.0 1.0
  outer loop
    vertex -3.4641016151377544 -1.999999999999999 0.0
    vertex -3.1506869500125747 -3.8824182854273284 0.0
    vertex -2.828427124746191 -2.8284271247461885 0.0
  endloop
endfacet
facet normal -0.0 -0.0 1.0
  outer loop
    vertex -2.828427124746191 -2.8284271247461885 0.0
    vertex -3.1506869500125747 -3.8824182854273284 0.0
    vertex -2.038486102246211 -4.565585878170409 0.0
  endloop
endfacet
facet normal -0.0 -0.0 1.0
  outer loop
    vertex -2.828427124746191 -2.8284271247461885 0.0
    vertex -2.038486102246211 -4.565585878170409 0.0
    vertex -2.0000000000000013 -3.464101615137753 0.0
  endloop
endfacet
facet normal -0.0 -0.0 1.0
  outer loop
    vertex -2.0000000000000013 -3.464101615137753 0.0
    vertex -2.038486102246211 -4.565585878170409 0.0
    vertex -0.7873657953693364 -4.937616338303577 0.0
  endloop
endfacet
facet normal -0.0 -0.0 1.0
  outer loop
    vertex -2.0000000000000013 -3.464101615137753 0.0
    vertex -0.7873657953693364 -4.937616338303577 0.0
    vertex -1.0352761804100858 -3.863703305156272 0.0
  endloop
endfacet
facet normal -0.0 -0.0 1.0
  outer loop
    vertex -1.0352761804100858 -3.863703305156272 0.0
    vertex -0.7873657953693364 -4.937616338303577 0.0
    vertex -7.347880794884117e-16 -3.9999999999999996 0.0
  endloop
endfacet
facet normal -0.0 -0.0 1.0
  outer loop
    vertex -7.347880794884117e-16 -3.9999999999999996 0.0
    vertex -0.7873657953693364 -4.937616338303577 0.0
    vertex 0.5174121892784597 -4.973156404778165 0.0
  endloop
endfacet
facet normal -0.0 -0.0 1.0
  outer loop
    vertex -7.347880794884117e-16 -3.9999999999999996 0.0
    vertex 0.5174121892784597 -4.973156404778165 0.0
    vertex 1.035276180410081 -3.8637033051562732 0.0
  endloop
endfacet
facet normal -0.0 -0.0 1.0
  outer loop
    vertex 1.035276180410081 -3.8637033051562732 0.0
    vertex 0.5174121892784597 -4.973156404778165 0.0
    vertex 1.7869293882910042 -4.669784080796664 0.0
  endloop
endfacet
facet normal -0.0 -0.0 1.0
  outer loop
    vertex 1.035276180410081 -3.8637033051562732 0.0
    vertex 1.7869293882910042 -4.669784080796664 0.0
    vertex 1.9999999999999967 -3.464101615137756 0.0
  endloop
endfacet
facet normal -0.0 -0.0 1.0
  outer loop
    vertex 1.9999999999999967 -3.464101615137756 0.0
    vertex 1.7869293882910042 -4.669784080796664 0.0
    vertex 2.934670302531951 -4.048173688891946 0.0
  endloop
endfacet
facet normal -0.0 -0.0 1.0
  outer loop
    vertex 1.9999999999999967 -3.464101615137756 0.0
    vertex 2.934670302531951 -4.048173688891946 0.0
    vertex 2.8284271247461885 -2.8284271247461903 0.0
  endloop
endfacet
facet normal -0.0 -0.0 1.0
  outer loop
    vertex 2.8284271247461885 -2.8284271247461903 0.0
    vertex 2.934670302531951 -4.048173688891946 0.0
    vertex 3.4641016151377526 -2.0000000000000018 0.0
  endloop
endfacet
facet normal -0.0 -0.0 1.0
  outer loop
    vertex 3.4641016151377526 -2.0000000000000018 0.0
    vertex 2.934670302531951 -4.048173688891946 0.0
    vertex 3.882418285427327 -3.1506869500125747 0.0
  endloop
endfacet
facet normal -0.0 -0.0 1.0
  outer loop
    vertex 3.4641016151377526 -2.0000000000000018 0.0
    vertex 3.882418285427327 -3.1506869500125747 0.0
    vertex 3.8637033051562715 -1.035276180410086 0.0
  endloop
endfacet
facet normal -0.0 -0.0 1.0
  outer loop
    vertex 3.8637033051562715 -1.035276180410086 0.0
    vertex 3.882418285427327 -3.1506869500125747 0.0
    vertex 3.999999999999999 0.0 0.0
  endloop
endfacet
facet normal -0.0 -0.0 1.0
  outer loop
    vertex 3.999999999999999 0.0 0.0
    vertex 3.882418285427327 -3.1506869500125747 0.0
    vertex 4.565585878170408 -2.03848610224621 0.0
  endloop
endfacet
facet normal -0.0 -0.0 1.0
  outer loop
    vertex 3.999999999999999 0.0 0.0
    vertex 4.565585878170408 -2.03848610224621 0.0
    vertex 4.0481736888919455 2.934670302531955 0.0
  endloop
endfacet
facet normal -0.0 -0.0 1.0
  outer loop
    vertex 4.0481736888919455 2.934670302531955 0.0
    vertex 4.565585878170408 -2.03848610224621 0.0
    vertex 4.669784080796664 1.7869293882910058 0.0
  endloop
endfacet
facet normal -0.0 -0.0 1.0
  outer loop
    vertex 4.669784080796664 1.7869293882910058 0.0
    vertex 4.565585878170408 -2.03848610224621 0.0
    vertex 4.9376163383035765 -0.7873657953693332 0.0
  endloop
endfacet
facet normal -0.0 -0.0 1.0
  outer loop
    vertex 4.669784080796664 1.7869293882910058 0.0
    vertex 4.9376163383035765 -0.7873657953693332 0.0
    vertex 4.973156404778164 0.5174121892784639 0.0
  endloop
endfacet
facet normal -0.0 -0.0 1.0
  outer loop
    vertex -4.669784080796664 -1.786929388291004 0.0
    vertex -4.9376163383035765 0.7873657953693353 0.0
    vertex -4.973156404778164 -0.5174121892784629 0.0
  endloop
endfacet
facet normal -0.0 -0.0 1.0
  outer loop
    vertex -4.9376163383035765 0.7873657953693353 0.0
    vertex -4.669784080796664 -1.786929388291004 0.0
    vertex -4.565585878170408 2.0384861022462104 0.0
  endloop
endfacet
facet normal -0.0 -0.0 1.0
  outer loop
    vertex -4.565585878170408 2.0384861022462104 0.0
    vertex -4.669784080796664 -1.786929388291004 0.0
    vertex -4.048173688891946 -2.934670302531953 0.0
  endloop
endfacet
facet normal -0.0 -0.0 1.0
  outer loop
    vertex -4.565585878170408 2.0384861022462104 0.0
    vertex -4.048173688891946 -2.934670302531953 0.0
    vertex -3.999999999999999 4.898587196589412e-16 0.0
  endloop
endfacet
facet normal -0.0 -0.0 1.0
  outer loop
    vertex -4.565585878170408 2.0384861022462104 0.0
    vertex -3.999999999999999 4.898587196589412e-16 0.0
    vertex -3.8824182854273293 3.150686950012572 0.0
  endloop
endfacet
facet normal -0.0 -0.0 1.0
  outer loop
    vertex -3.8824182854273293 3.150686950012572 0.0
    vertex -3.999999999999999 4.898587196589412e-16 0.0
    vertex -3.863703305156272 1.035276180410084 0.0
  endloop
endfacet
facet normal -0.0 -0.0 1.0
  outer loop
    vertex -3.8824182854273293 3.150686950012572 0.0
    vertex -3.863703305156272 1.035276180410084 0.0
    vertex -2.9346703025319525 4.048173688891946 0.0
  endloop
endfacet
facet normal -0.0 -0.0 1.0
  outer loop
    vertex -2.9346703025319525 4.048173688891946 0.0
    vertex -3.863703305156272 1.035276180410084 0.0
    vertex -3.464101615137753 2.0000000000000013 0.0
  endloop
endfacet
facet normal -0.0 -0.0 1.0
  outer loop
    vertex -2.9346703025319525 4.048173688891946 0.0
    vertex -3.464101615137753 2.0000000000000013 0.0
    vertex -2.8284271247461894 2.8284271247461903 0.0
  endloop
endfacet
facet normal -0.0 -0.0 1.0
  outer loop
    vertex -2.9346703025319525 4.048173688891946 0.0
    vertex -2.8284271247461894 2.8284271247461903 0.0
    vertex -1.786929388291005 4.669784080796664 0.0
  endloop
endfacet
facet normal -0.0 -0.0 1.0
  outer loop
    vertex -1.786929388291005 4.669784080796664 0.0
    vertex -2.8284271247461894 2.8284271247461903 0.0
    vertex -1.9999999999999984 3.4641016151377544 0.0
  endloop
endfacet
facet normal -0.0 -0.0 1.0
  outer loop
    vertex -1.786929388291005 4.669784080796664 0.0
    vertex -1.9999999999999984 3.4641016151377544 0.0
    vertex -1.0352761804100823 3.863703305156273 0.0
  endloop
endfacet
facet normal -0.0 -0.0 1.0
  outer loop
    vertex -1.786929388291005 4.669784080796664 0.0
    vertex -1.0352761804100823 3.863703305156273 0.0
    vertex -0.5174121892784624 4.973156404778164 0.0
  endloop
endfacet
facet normal -0.0 -0.0 1.0
  outer loop
    vertex -0.5174121892784624 4.973156404778164 0.0
    vertex -1.0352761804100823 3.863703305156273 0.0
    vertex 2.449293598294706e-16 3.9999999999999996 0.0
  endloop
endfacet
facet normal -0.0 -0.0 1.0
  outer loop
    vertex -0.5174121892784624 4.973156404778164 0.0
    vertex 2.449293598294706e-16 3.9999999999999996 0.0
    vertex 0.7873657953693346 4.937616338303577 0.0
  endloop
endfacet
facet normal -0.0 -0.0 1.0
  outer loop
    vertex 0.7873657953693346 4.937616338303577 0.0
    vertex 2.449293598294706e-16 3.9999999999999996 0.0
    vertex 1.0352761804100836 3.863703305156273 0.0
  endloop
endfacet
facet normal -0.0 -0.0 1.0
  outer loop
    vertex 0.7873657953693346 4.937616338303577 0.0
    vertex 1.0352761804100836 3.863703305156273 0.0
    vertex 2.0384861022462104 4.56558587817041 0.0
  endloop
endfacet
facet normal -0.0 -0.0 1.0
  outer loop
    vertex 2.0384861022462104 4.56558587817041 0.0
    vertex 1.0352761804100836 3.863703305156273 0.0
    vertex 1.9999999999999998 3.464101615137754 0.0
  endloop
endfacet
facet normal -0.0 -0.0 1.0
  outer loop
    vertex 2.0384861022462104 4.56558587817041 0.0
    vertex 1.9999999999999998 3.464101615137754 0.0
    vertex 2.82842712474619 2.82842712474619 0.0
  endloop
endfacet
facet normal -0.0 -0.0 1.0
  outer loop
    vertex 2.0384861022462104 4.56558587817041 0.0
    vertex 2.82842712474619 2.82842712474619 0.0
    vertex 3.150686950012573 3.8824182854273306 0.0
  endloop
endfacet
facet normal -0.0 -0.0 1.0
  outer loop
    vertex 3.150686950012573 3.8824182854273306 0.0
    vertex 2.82842712474619 2.82842712474619 0.0
    vertex 3.464101615137754 1.9999999999999996 0.0
  endloop
endfacet
facet normal -0.0 -0.0 1.0
  outer loop
    vertex 3.150686950012573 3.8824182854273306 0.0
    vertex 3.464101615137754 1.9999999999999996 0.0
    vertex 4.0481736888919455 2.934670302531955 0.0
  endloop
endfacet
facet normal -0.0 -0.0 1.0
  outer loop
    vertex 4.0481736888919455 2.934670302531955 0.0
    vertex 3.464101615137754 1.9999999999999996 0.0
    vertex 3.863703305156272 1.035276180410083 0.0
  endloop
endfacet
facet normal -0.0 -0.0 1.0
  outer loop
    vertex 4.0481736888919455 2.934670302531955 0.0
    vertex 3.863703305156272 1.035276180410083 0.0
    vertex 3.999999999999999 0.0 0.0
  endloop
endfacet
facet normal 0.0 0.0 -1.0
  outer loop
    vertex -4.9376163383035765 0.7873657953693353 -0.9999999999999999
    vertex -4.669784080796664 -1.786929388291004 -0.9999999999999999
    vertex -4.973156404778164 -0.5174121892784629 -0.9999999999999999
  endloop
endfacet
facet normal 0.0 0.0 -1.0
  outer loop
    vertex -4.669784080796664 -1.786929388291004 -0.9999999999999999
    vertex -4.9376163383035765 0.7873657953693353 -0.9999999999999999
    vertex -4.565585878170408 2.0384861022462104 -0.9999999999999999
  endloop
endfacet
facet normal 0.0 0.0 -1.0
  outer loop
    vertex -4.669784080796664 -1.786929388291004 -0.9999999999999999
    vertex -4.565585878170408 2.0384861022462104 -0.9999999999999999
    vertex -4.048173688891946 -2.934670302531953 -0.9999999999999999
  endloop
endfacet
facet normal 0.0 0.0 -1.0
  outer loop
    vertex -4.048173688891946 -2.934670302531953 -0.9999999999999999
    vertex -4.565585878170408 2.0384861022462104 -0.9999999999999999
    vertex -3.8824182854273293 3.150686950012572 -0.9999999999999999
  endloop
endfacet
facet normal 0.0 0.0 -1.0
  outer loop
    vertex -4.048173688891946 -2.934670302531953 -0.9999999999999999
    vertex -3.8824182854273293 3.150686950012572 -0.9999999999999999
    vertex -3.1506869500125747 -3.8824182854273284 -0.9999999999999999
  endloop
endfacet
facet normal 0.0 0.0 -1.0
  outer loop
    vertex -3.1506869500125747 -3.8824182854273284 -0.9999999999999999
    vertex -3.8824182854273293 3.150686950012572 -0.9999999999999999
    vertex -2.9346703025319525 4.048173688891946 -0.9999999999999999
  endloop
endfacet
facet normal 0.0 0.0 -1.0
  outer loop
    vertex -3.1506869500125747 -3.8824182854273284 -0.9999999999999999
    vertex -2.9346703025319525 4.048173688891946 -0.9999999999999999
    vertex -3.0 -3.67394039744206e-16 -1.0000000000000009
  endloop
endfacet
facet normal 0.0 0.0 -1.0
  outer loop
    vertex -3.0 -3.67394039744206e-16 -1.0000000000000009
    vertex -2.9346703025319525 4.048173688891946 -0.9999999999999999
    vertex -2.897777478867205 0.7764571353075611 -1.0000000000000009
  endloop
endfacet
facet normal 0.0 0.0 -1.0
  outer loop
    vertex -2.897777478867205 0.7764571353075611 -1.0000000000000009
    vertex -2.9346703025319525 4.048173688891946 -0.9999999999999999
    vertex -1.786929388291005 4.669784080796664 -0.9999999999999999
  endloop
endfacet
facet normal 0.0 0.0 -1.0
  outer loop
    vertex -2.897777478867205 0.7764571353075611 -1.0000000000000009
    vertex -1.786929388291005 4.669784080796664 -0.9999999999999999
    vertex -2.598076211353316 1.4999999999999991 -1.0000000000000009
  endloop
endfacet
facet normal 0.0 0.0 -1.0
  outer loop
    vertex -2.598076211353316 1.4999999999999991 -1.0000000000000009
    vertex -1.786929388291005 4.669784080796664 -0.9999999999999999
    vertex -2.1213203435596437 2.1213203435596415 -1.0000000000000009
  endloop
endfacet
facet normal 0.0 0.0 -1.0
  outer loop
    vertex -2.1213203435596437 2.1213203435596415 -1.0000000000000009
    vertex -1.786929388291005 4.669784080796664 -0.9999999999999999
    vertex -1.5000000000000013 2.5980762113533156 -1.0000000000000009
  endloop
endfacet
facet normal 0.0 0.0 -1.0
  outer loop
    vertex -1.5000000000000013 2.5980762113533156 -1.0000000000000009
    vertex -1.786929388291005 4.669784080796664 -0.9999999999999999
    vertex -0.5174121892784624 4.973156404778164 -0.9999999999999999
  endloop
endfacet
facet normal 0.0 0.0 -1.0
  outer loop
    vertex -1.5000000000000013 2.5980762113533156 -1.0000000000000009
    vertex -0.5174121892784624 4.973156404778164 -0.9999999999999999
    vertex -0.7764571353075645 2.8977774788672046 -1.0000000000000009
  endloop
endfacet
facet normal 0.0 0.0 -1.0
  outer loop
    vertex -0.7764571353075645 2.8977774788672046 -1.0000000000000009
    vertex -0.5174121892784624 4.973156404778164 -0.9999999999999999
    vertex -5.510910596163089e-16 3.0 -1.0000000000000009
  endloop
endfacet
facet normal 0.0 0.0 -1.0
  outer loop
    vertex -5.510910596163089e-16 3.0 -1.0000000000000009
    vertex -0.5174121892784624 4.973156404778164 -0.9999999999999999
    vertex 0.7873657953693346 4.937616338303577 -0.9999999999999999
  endloop
endfacet
facet normal 0.0 0.0 -1.0
  outer loop
    vertex -5.510910596163089e-16 3.0 -1.0000000000000009
    vertex 0.7873657953693346 4.937616338303577 -0.9999999999999999
    vertex 0.7764571353075608 2.897777478867205 -1.0000000000000009
  endloop
endfacet
facet normal 0.0 0.0 -1.0
  outer loop
    vertex 0.7764571353075608 2.897777478867205 -1.0000000000000009
    vertex 0.7873657953693346 4.937616338303577 -0.9999999999999999
    vertex 1.499999999999998 2.5980762113533173 -1.0000000000000009
  endloop
endfacet
facet normal 0.0 0.0 -1.0
  outer loop
    vertex 1.499999999999998 2.5980762113533173 -1.0000000000000009
    vertex 0.7873657953693346 4.937616338303577 -0.9999999999999999
    vertex 2.0384861022462104 4.56558587817041 -0.9999999999999999
  endloop
endfacet
facet normal 0.0 0.0 -1.0
  outer loop
    vertex 1.499999999999998 2.5980762113533173 -1.0000000000000009
    vertex 2.0384861022462104 4.56558587817041 -0.9999999999999999
    vertex 2.121320343559642 2.1213203435596433 -1.0000000000000009
  endloop
endfacet
facet normal 0.0 0.0 -1.0
  outer loop
    vertex 2.121320343559642 2.1213203435596433 -1.0000000000000009
    vertex 2.0384861022462104 4.56558587817041 -0.9999999999999999
    vertex 3.150686950012573 3.8824182854273306 -0.9999999999999999
  endloop
endfacet
facet normal 0.0 0.0 -1.0
  outer loop
    vertex 2.121320343559642 2.1213203435596433 -1.0000000000000009
    vertex 3.150686950012573 3.8824182854273306 -0.9999999999999999
    vertex 2.598076211353315 1.5000000000000016 -1.0000000000000009
  endloop
endfacet
facet normal 0.0 0.0 -1.0
  outer loop
    vertex 2.598076211353315 1.5000000000000016 -1.0000000000000009
    vertex 3.150686950012573 3.8824182854273306 -0.9999999999999999
    vertex 2.897777478867204 0.7764571353075648 -1.0000000000000009
  endloop
endfacet
facet normal 0.0 0.0 -1.0
  outer loop
    vertex 2.897777478867204 0.7764571353075648 -1.0000000000000009
    vertex 3.150686950012573 3.8824182854273306 -0.9999999999999999
    vertex 3.0 0.0 -1.0000000000000009
  endloop
endfacet
facet normal 0.0 0.0 -1.0
  outer loop
    vertex -3.1506869500125747 -3.8824182854273284 -0.9999999999999999
    vertex -2.8977774788672046 -0.7764571353075631 -1.0000000000000009
    vertex -2.038486102246211 -4.565585878170409 -0.9999999999999999
  endloop
endfacet
facet normal 0.0 0.0 -1.0
  outer loop
    vertex -2.8977774788672046 -0.7764571353075631 -1.0000000000000009
    vertex -3.1506869500125747 -3.8824182854273284 -0.9999999999999999
    vertex -3.0 -3.67394039744206e-16 -1.0000000000000009
  endloop
endfacet
facet normal 0.0 0.0 -1.0
  outer loop
    vertex -2.038486102246211 -4.565585878170409 -0.9999999999999999
    vertex -2.8977774788672046 -0.7764571353075631 -1.0000000000000009
    vertex -2.5980762113533156 -1.500000000000001 -1.0000000000000009
  endloop
endfacet
facet normal 0.0 0.0 -1.0
  outer loop
    vertex -2.038486102246211 -4.565585878170409 -0.9999999999999999
    vertex -2.5980762113533156 -1.500000000000001 -1.0000000000000009
    vertex -2.1213203435596424 -2.121320343559643 -1.0000000000000009
  endloop
endfacet
facet normal 0.0 0.0 -1.0
  outer loop
    vertex -2.038486102246211 -4.565585878170409 -0.9999999999999999
    vertex -2.1213203435596424 -2.121320343559643 -1.0000000000000009
    vertex -1.4999999999999991 -2.598076211353316 -1.0000000000000009
  endloop
endfacet
facet normal 0.0 0.0 -1.0
  outer loop
    vertex -2.038486102246211 -4.565585878170409 -0.9999999999999999
    vertex -1.4999999999999991 -2.598076211353316 -1.0000000000000009
    vertex -0.7873657953693364 -4.937616338303577 -0.9999999999999999
  endloop
endfacet
facet normal 0.0 0.0 -1.0
  outer loop
    vertex -0.7873657953693364 -4.937616338303577 -0.9999999999999999
    vertex -1.4999999999999991 -2.598076211353316 -1.0000000000000009
    vertex -0.7764571353075619 -2.897777478867205 -1.0000000000000009
  endloop
endfacet
facet normal 0.0 0.0 -1.0
  outer loop
    vertex -0.7873657953693364 -4.937616338303577 -0.9999999999999999
    vertex -0.7764571353075619 -2.897777478867205 -1.0000000000000009
    vertex 0.5174121892784597 -4.973156404778165 -0.9999999999999999
  endloop
endfacet
facet normal 0.0 0.0 -1.0
  outer loop
    vertex 0.5174121892784597 -4.973156404778165 -0.9999999999999999
    vertex -0.7764571353075619 -2.897777478867205 -1.0000000000000009
    vertex 1.8369701987210297e-16 -3.0 -1.0000000000000009
  endloop
endfacet
facet normal 0.0 0.0 -1.0
  outer loop
    vertex 0.5174121892784597 -4.973156404778165 -0.9999999999999999
    vertex 1.8369701987210297e-16 -3.0 -1.0000000000000009
    vertex 0.7764571353075629 -2.897777478867205 -1.0000000000000009
  endloop
endfacet
facet normal 0.0 0.0 -1.0
  outer loop
    vertex 0.5174121892784597 -4.973156404778165 -0.9999999999999999
    vertex 0.7764571353075629 -2.897777478867205 -1.0000000000000009
    vertex 1.7869293882910042 -4.669784080796664 -0.9999999999999999
  endloop
endfacet
facet normal 0.0 0.0 -1.0
  outer loop
    vertex 1.7869293882910042 -4.669784080796664 -0.9999999999999999
    vertex 0.7764571353075629 -2.897777478867205 -1.0000000000000009
    vertex 1.5000000000000002 -2.5980762113533156 -1.0000000000000009
  endloop
endfacet
facet normal 0.0 0.0 -1.0
  outer loop
    vertex 1.7869293882910042 -4.669784080796664 -0.9999999999999999
    vertex 1.5000000000000002 -2.5980762113533156 -1.0000000000000009
    vertex 2.1213203435596424 -2.1213203435596424 -1.0000000000000009
  endloop
endfacet
facet normal 0.0 0.0 -1.0
  outer loop
    vertex 1.7869293882910042 -4.669784080796664 -0.9999999999999999
    vertex 2.1213203435596424 -2.1213203435596424 -1.0000000000000009
    vertex 2.934670302531951 -4.048173688891946 -0.9999999999999999
  endloop
endfacet
facet normal 0.0 0.0 -1.0
  outer loop
    vertex 2.934670302531951 -4.048173688891946 -0.9999999999999999
    vertex 2.1213203435596424 -2.1213203435596424 -1.0000000000000009
    vertex 2.5980762113533156 -1.5 -1.0000000000000009
  endloop
endfacet
facet normal 0.0 0.0 -1.0
  outer loop
    vertex 2.934670302531951 -4.048173688891946 -0.9999999999999999
    vertex 2.5980762113533156 -1.5 -1.0000000000000009
    vertex 2.897777478867205 -0.7764571353075622 -1.0000000000000009
  endloop
endfacet
facet normal 0.0 0.0 -1.0
  outer loop
    vertex 2.934670302531951 -4.048173688891946 -0.9999999999999999
    vertex 2.897777478867205 -0.7764571353075622 -1.0000000000000009
    vertex 3.0 0.0 -1.0000000000000009
  endloop
endfacet
facet normal 0.0 0.0 -1.0
  outer loop
    vertex 2.934670302531951 -4.048173688891946 -0.9999999999999999
    vertex 3.0 0.0 -1.0000000000000009
    vertex 3.882418285427327 -3.1506869500125747 -0.9999999999999999
  endloop
endfacet
facet normal 0.0 0.0 -1.0
  outer loop
    vertex 3.882418285427327 -3.1506869500125747 -0.9999999999999999
    vertex 3.0 0.0 -1.0000000000000009
    vertex 3.150686950012573 3.8824182854273306 -0.9999999999999999
  endloop
endfacet
facet normal 0.0 0.0 -1.0
  outer loop
    vertex 3.882418285427327 -3.1506869500125747 -0.9999999999999999
    vertex 3.150686950012573 3.8824182854273306 -0.9999999999999999
    vertex 4.0481736888919455 2.934670302531955 -0.9999999999999999
  endloop
endfacet
facet normal 0.0 0.0 -1.0
  outer loop
    vertex 3.882418285427327 -3.1506869500125747 -0.9999999999999999
    vertex 4.0481736888919455 2.934670302531955 -0.9999999999999999
    vertex 4.565585878170408 -2.03848610224621 -0.9999999999999999
  endloop
endfacet
facet normal 0.0 0.0 -1.0
  outer loop
    vertex 4.565585878170408 -2.03848610224621 -0.9999999999999999
    vertex 4.0481736888919455 2.934670302531955 -0.9999999999999999
    vertex 4.669784080796664 1.7869293882910058 -0.9999999999999999
  endloop
endfacet
facet normal 0.0 0.0 -1.0
  outer loop
    vertex 4.565585878170408 -2.03848610224621 -0.9999999999999999
    vertex 4.669784080796664 1.7869293882910058 -0.9999999999999999
    vertex 4.9376163383035765 -0.7873657953693332 -0.9999999999999999
  endloop
endfacet
facet normal 0.0 0.0 -1.0
  outer loop
    vertex 4.9376163383035765 -0.7873657953693332 -0.9999999999999999
    vertex 4.669784080796664 1.7869293882910058 -0.9999999999999999
    vertex 4.973156404778164 0.5174121892784639 -0.9999999999999999
  endloop
endfacet
facet normal 0.9585204973785161 -0.28502360622454154 0.0
  outer loop
    vertex 4.9376163383035765 -0.7873657953693332 -0.9999999999999999
    vertex 4.565585878170408 -2.03848610224621 0.0
    vertex 4.565585878170408 -2.03848610224621 -0.9999999999999999
  endloop
endfacet
facet normal 0.9585204973785161 -0.28502360622454154 0.0
  outer loop
    vertex 4.565585878170408 -2.03848610224621 0.0
    vertex 4.9376163383035765 -0.7873657953693332 -0.9999999999999999
    vertex 4.9376163383035765 -0.7873657953693332 0.0
  endloop
endfacet
facet normal 0.8520901658506389 -0.5233950221970315 0.0
  outer loop
    vertex 4.565585878170408 -2.03848610224621 -0.9999999999999999
    vertex 3.882418285427327 -3.1506869500125747 0.0
    vertex 3.882418285427327 -3.1506869500125747 -0.9999999999999999
  endloop
endfacet
facet normal 0.8520901658506389 -0.5233950221970315 0.0
  outer loop
    vertex 3.882418285427327 -3.1506869500125747 0.0
    vertex 4.565585878170408 -2.03848610224621 -0.9999999999999999
    vertex 4.565585878170408 -2.03848610224621 0.0
  endloop
endfacet
facet normal 0.6875912976656184 -0.7260979323579643 0.0
  outer loop
    vertex 3.882418285427327 -3.1506869500125747 0.0
    vertex 2.934670302531951 -4.048173688891946 -0.9999999999999999
    vertex 3.882418285427327 -3.1506869500125747 -0.9999999999999999
  endloop
endfacet
facet normal 0.6875912976656184 -0.7260979323579643 0.0
  outer loop
    vertex 2.934670302531951 -4.048173688891946 -0.9999999999999999
    vertex 3.882418285427327 -3.1506869500125747 0.0
    vertex 2.934670302531951 -4.048173688891946 0.0
  endloop
endfacet
facet normal 0.4762342188430332 -0.8793184683622688 0.0
  outer loop
    vertex 2.934670302531951 -4.048173688891946 0.0
    vertex 1.7869293882910042 -4.669784080796664 -0.9999999999999999
    vertex 2.934670302531951 -4.048173688891946 -0.9999999999999999
  endloop
endfacet
facet normal 0.4762342188430332 -0.8793184683622688 0.0
  outer loop
    vertex 1.7869293882910042 -4.669784080796664 -0.9999999999999999
    vertex 2.934670302531951 -4.048173688891946 0.0
    vertex 1.7869293882910042 -4.669784080796664 0.0
  endloop
endfacet
facet normal 0.2324225650205522 -0.9726149038901613 0.0
  outer loop
    vertex 1.7869293882910042 -4.669784080796664 0.0
    vertex 0.5174121892784597 -4.973156404778165 -0.9999999999999999
    vertex 1.7869293882910042 -4.669784080796664 -0.9999999999999999
  endloop
endfacet
facet normal 0.2324225650205522 -0.9726149038901613 0.0
  outer loop
    vertex 0.5174121892784597 -4.973156404778165 -0.9999999999999999
    vertex 1.7869293882910042 -4.669784080796664 0.0
    vertex 0.5174121892784597 -4.973156404778165 0.0
  endloop
endfacet
facet normal -0.027228302511630005 -0.9996292410400645 -0.0
  outer loop
    vertex 0.5174121892784597 -4.973156404778165 0.0
    vertex -0.7873657953693364 -4.937616338303577 -0.9999999999999999
    vertex 0.5174121892784597 -4.973156404778165 -0.9999999999999999
  endloop
endfacet
facet normal -0.027228302511630005 -0.9996292410400645 -0.0
  outer loop
    vertex -0.7873657953693364 -4.937616338303577 -0.9999999999999999
    vertex 0.5174121892784597 -4.973156404778165 0.0
    vertex -0.7873657953693364 -4.937616338303577 0.0
  endloop
endfacet
facet normal -0.2850236062245424 -0.9585204973785157 -0.0
  outer loop
    vertex -0.7873657953693364 -4.937616338303577 0.0
    vertex -2.038486102246211 -4.565585878170409 -0.9999999999999999
    vertex -0.7873657953693364 -4.937616338303577 -0.9999999999999999
  endloop
endfacet
facet normal -0.2850236062245424 -0.9585204973785157 -0.0
  outer loop
    vertex -2.038486102246211 -4.565585878170409 -0.9999999999999999
    vertex -0.7873657953693364 -4.937616338303577 0.0
    vertex -2.038486102246211 -4.565585878170409 0.0
  endloop
endfacet
facet normal -0.5233950221970315 -0.8520901658506389 -0.0
  outer loop
    vertex -2.038486102246211 -4.565585878170409 0.0
    vertex -3.1506869500125747 -3.8824182854273284 -0.9999999999999999
    vertex -2.038486102246211 -4.565585878170409 -0.9999999999999999
  endloop
endfacet
facet normal -0.5233950221970315 -0.8520901658506389 -0.0
  outer loop
    vertex -3.1506869500125747 -3.8824182854273284 -0.9999999999999999
    vertex -2.038486102246211 -4.565585878170409 0.0
    vertex -3.1506869500125747 -3.8824182854273284 0.0
  endloop
endfacet
facet normal -0.7260979323579643 -0.6875912976656187 -0.0
  outer loop
    vertex -4.048173688891946 -2.934670302531953 0.0
    vertex -3.1506869500125747 -3.8824182854273284 -0.9999999999999999
    vertex -3.1506869500125747 -3.8824182854273284 0.0
  endloop
endfacet
facet normal -0.7260979323579643 -0.6875912976656187 -0.0
  outer loop
    vertex -3.1506869500125747 -3.8824182854273284 -0.9999999999999999
    vertex -4.048173688891946 -2.934670302531953 0.0
    vertex -4.048173688891946 -2.934670302531953 -0.9999999999999999
  endloop
endfacet
facet normal -0.8793184683622689 -0.4762342188430329 -0.0
  outer loop
    vertex -4.669784080796664 -1.786929388291004 0.0
    vertex -4.048173688891946 -2.934670302531953 -0.9999999999999999
    vertex -4.048173688891946 -2.934670302531953 0.0
  endloop
endfacet
facet normal -0.8793184683622689 -0.4762342188430329 -0.0
  outer loop
    vertex -4.048173688891946 -2.934670302531953 -0.9999999999999999
    vertex -4.669784080796664 -1.786929388291004 0.0
    vertex -4.669784080796664 -1.786929388291004 -0.9999999999999999
  endloop
endfacet
facet normal -0.9726149038901613 -0.23242256502055175 -0.0
  outer loop
    vertex -4.973156404778164 -0.5174121892784629 0.0
    vertex -4.669784080796664 -1.786929388291004 -0.9999999999999999
    vertex -4.669784080796664 -1.786929388291004 0.0
  endloop
endfacet
facet normal -0.9726149038901613 -0.23242256502055175 -0.0
  outer loop
    vertex -4.669784080796664 -1.786929388291004 -0.9999999999999999
    vertex -4.973156404778164 -0.5174121892784629 0.0
    vertex -4.973156404778164 -0.5174121892784629 -0.9999999999999999
  endloop
endfacet
facet normal -0.9996292410400645 0.0272283025116305 0.0
  outer loop
    vertex -4.9376163383035765 0.7873657953693353 0.0
    vertex -4.973156404778164 -0.5174121892784629 -0.9999999999999999
    vertex -4.973156404778164 -0.5174121892784629 0.0
  endloop
endfacet
facet normal -0.9996292410400645 0.0272283025116305 0.0
  outer loop
    vertex -4.973156404778164 -0.5174121892784629 -0.9999999999999999
    vertex -4.9376163383035765 0.7873657953693353 0.0
    vertex -4.9376163383035765 0.7873657953693353 -0.9999999999999999
  endloop
endfacet
facet normal -0.9585204973785159 0.28502360622454176 0.0
  outer loop
    vertex -4.565585878170408 2.0384861022462104 0.0
    vertex -4.9376163383035765 0.7873657953693353 -0.9999999999999999
    vertex -4.9376163383035765 0.7873657953693353 0.0
  endloop
endfacet
facet normal -0.9585204973785159 0.28502360622454176 0.0
  outer loop
    vertex -4.9376163383035765 0.7873657953693353 -0.9999999999999999
    vertex -4.565585878170408 2.0384861022462104 0.0
    vertex -4.565585878170408 2.0384861022462104 -0.9999999999999999
  endloop
endfacet
facet normal -0.8520901658506389 0.5233950221970315 0.0
  outer loop
    vertex -3.8824182854273293 3.150686950012572 0.0
    vertex -4.565585878170408 2.0384861022462104 -0.9999999999999999
    vertex -4.565585878170408 2.0384861022462104 0.0
  endloop
endfacet
facet normal -0.8520901658506389 0.5233950221970315 0.0
  outer loop
    vertex -4.565585878170408 2.0384861022462104 -0.9999999999999999
    vertex -3.8824182854273293 3.150686950012572 0.0
    vertex -3.8824182854273293 3.150686950012572 -0.9999999999999999
  endloop
endfacet
facet normal -0.6875912976656192 0.7260979323579636 0.0
  outer loop
    vertex -3.8824182854273293 3.150686950012572 0.0
    vertex -2.9346703025319525 4.048173688891946 -0.9999999999999999
    vertex -3.8824182854273293 3.150686950012572 -0.9999999999999999
  endloop
endfacet
facet normal -0.6875912976656192 0.7260979323579636 0.0
  outer loop
    vertex -2.9346703025319525 4.048173688891946 -0.9999999999999999
    vertex -3.8824182854273293 3.150686950012572 0.0
    vertex -2.9346703025319525 4.048173688891946 0.0
  endloop
endfacet
facet normal -0.4762342188430331 0.8793184683622688 0.0
  outer loop
    vertex -2.9346703025319525 4.048173688891946 0.0
    vertex -1.786929388291005 4.669784080796664 -0.9999999999999999
    vertex -2.9346703025319525 4.048173688891946 -0.9999999999999999
  endloop
endfacet
facet normal -0.4762342188430331 0.8793184683622688 0.0
  outer loop
    vertex -1.786929388291005 4.669784080796664 -0.9999999999999999
    vertex -2.9346703025319525 4.048173688891946 0.0
    vertex -1.786929388291005 4.669784080796664 0.0
  endloop
endfacet
facet normal -0.23242256502055203 0.9726149038901613 0.0
  outer loop
    vertex -1.786929388291005 4.669784080796664 0.0
    vertex -0.5174121892784624 4.973156404778164 -0.9999999999999999
    vertex -1.786929388291005 4.669784080796664 -0.9999999999999999
  endloop
endfacet
facet normal -0.23242256502055203 0.9726149038901613 0.0
  outer loop
    vertex -0.5174121892784624 4.973156404778164 -0.9999999999999999
    vertex -1.786929388291005 4.669784080796664 0.0
    vertex -0.5174121892784624 4.973156404778164 0.0
  endloop
endfacet
facet normal 0.027228302511629447 0.9996292410400646 0.0
  outer loop
    vertex -0.5174121892784624 4.973156404778164 0.0
    vertex 0.7873657953693346 4.937616338303577 -0.9999999999999999
    vertex -0.5174121892784624 4.973156404778164 -0.9999999999999999
  endloop
endfacet
facet normal 0.027228302511629447 0.9996292410400646 0.0
  outer loop
    vertex 0.7873657953693346 4.937616338303577 -0.9999999999999999
    vertex -0.5174121892784624 4.973156404778164 0.0
    vertex 0.7873657953693346 4.937616338303577 0.0
  endloop
endfacet
facet normal 0.2850236062245416 0.9585204973785159 0.0
  outer loop
    vertex 0.7873657953693346 4.937616338303577 0.0
    vertex 2.0384861022462104 4.56558587817041 -0.9999999999999999
    vertex 0.7873657953693346 4.937616338303577 -0.9999999999999999
  endloop
endfacet
facet normal 0.2850236062245416 0.9585204973785159 0.0
  outer loop
    vertex 2.0384861022462104 4.56558587817041 -0.9999999999999999
    vertex 0.7873657953693346 4.937616338303577 0.0
    vertex 2.0384861022462104 4.56558587817041 0.0
  endloop
endfacet
facet normal 0.5233950221970312 0.8520901658506389 0.0
  outer loop
    vertex 2.0384861022462104 4.56558587817041 0.0
    vertex 3.150686950012573 3.8824182854273306 -0.9999999999999999
    vertex 2.0384861022462104 4.56558587817041 -0.9999999999999999
  endloop
endfacet
facet normal 0.5233950221970312 0.8520901658506389 0.0
  outer loop
    vertex 3.150686950012573 3.8824182854273306 -0.9999999999999999
    vertex 2.0384861022462104 4.56558587817041 0.0
    vertex 3.150686950012573 3.8824182854273306 0.0
  endloop
endfacet
facet normal 0.7260979323579637 0.6875912976656192 0.0
  outer loop
    vertex 3.150686950012573 3.8824182854273306 -0.9999999999999999
    vertex 4.0481736888919455 2.934670302531955 0.0
    vertex 4.0481736888919455 2.934670302531955 -0.9999999999999999
  endloop
endfacet
facet normal 0.7260979323579637 0.6875912976656192 0.0
  outer loop
    vertex 4.0481736888919455 2.934670302531955 0.0
    vertex 3.150686950012573 3.8824182854273306 -0.9999999999999999
    vertex 3.150686950012573 3.8824182854273306 0.0
  endloop
endfacet
facet normal 0.879318468362269 0.47623421884303285 0.0
  outer loop
    vertex 4.0481736888919455 2.934670302531955 -0.9999999999999999
    vertex 4.669784080796664 1.7869293882910058 0.0
    vertex 4.669784080796664 1.7869293882910058 -0.9999999999999999
  endloop
endfacet
facet normal 0.879318468362269 0.47623421884303285 0.0
  outer loop
    vertex 4.669784080796664 1.7869293882910058 0.0
    vertex 4.0481736888919455 2.934670302531955 -0.9999999999999999
    vertex 4.0481736888919455 2.934670302531955 0.0
  endloop
endfacet
facet normal 0.9726149038901613 0.23242256502055217 0.0
  outer loop
    vertex 4.669784080796664 1.7869293882910058 -0.9999999999999999
    vertex 4.973156404778164 0.5174121892784639 0.0
    vertex 4.973156404778164 0.5174121892784639 -0.9999999999999999
  endloop
endfacet
facet normal 0.9726149038901613 0.23242256502055217 0.0
  outer loop
    vertex 4.973156404778164 0.5174121892784639 0.0
    vertex 4.669784080796664 1.7869293882910058 -0.9999999999999999
    vertex 4.669784080796664 1.7869293882910058 0.0
  endloop
endfacet
facet normal 0.9996292410400643 -0.027228302511630522 0.0
  outer loop
    vertex 4.973156404778164 0.5174121892784639 -0.9999999999999999
    vertex 4.9376163383035765 -0.7873657953693332 0.0
    vertex 4.9376163383035765 -0.7873657953693332 -0.9999999999999999
  endloop
endfacet
facet normal 0.9996292410400643 -0.027228302511630522 0.0
  outer loop
    vertex 4.9376163383035765 -0.7873657953693332 0.0
    vertex 4.973156404778164 0.5174121892784639 -0.9999999999999999
    vertex 4.973156404778164 0.5174121892784639 0.0
  endloop
endfacet
facet normal 0.9238795325112868 -0.38268343236508945 -0.0
  outer loop
    vertex -2.598076211353316 1.4999999999999991 -1.0000000000000009
    vertex -2.897777478867205 0.7764571353075611 28.0
    vertex -2.897777478867205 0.7764571353075611 -1.0000000000000009
  endloop
endfacet
facet normal 0.9238795325112868 -0.38268343236508945 -0.0
  outer loop
    vertex -2.897777478867205 0.7764571353075611 28.0
    vertex -2.598076211353316 1.4999999999999991 -1.0000000000000009
    vertex -2.598076211353316 1.4999999999999991 28.0
  endloop
endfacet
facet normal 0.9914448613738106 -0.13052619222005146 -0.0
  outer loop
    vertex -2.897777478867205 0.7764571353075611 -1.0000000000000009
    vertex -3.0 -3.67394039744206e-16 28.0
    vertex -3.0 -3.67394039744206e-16 -1.0000000000000009
  endloop
endfacet
facet normal 0.9914448613738106 -0.13052619222005146 -0.0
  outer loop
    vertex -3.0 -3.67394039744206e-16 28.0
    vertex -2.897777478867205 0.7764571353075611 -1.0000000000000009
    vertex -2.897777478867205 0.7764571353075611 28.0
  endloop
endfacet
facet normal 0.9914448613738104 0.13052619222005166 0.0
  outer loop
    vertex -3.0 -3.67394039744206e-16 -1.0000000000000009
    vertex -2.8977774788672046 -0.7764571353075631 28.0
    vertex -2.8977774788672046 -0.7764571353075631 -1.0000000000000009
  endloop
endfacet
facet normal 0.9914448613738104 0.13052619222005166 0.0
  outer loop
    vertex -2.8977774788672046 -0.7764571353075631 28.0
    vertex -3.0 -3.67394039744206e-16 -1.0000000000000009
    vertex -3.0 -3.67394039744206e-16 28.0
  endloop
endfacet
facet normal 0.9238795325112867 0.3826834323650899 0.0
  outer loop
    vertex -2.8977774788672046 -0.7764571353075631 -1.0000000000000009
    vertex -2.5980762113533156 -1.500000000000001 28.0
    vertex -2.5980762113533156 -1.500000000000001 -1.0000000000000009
  endloop
endfacet
facet normal 0.9238795325112867 0.3826834323650899 0.0
  outer loop
    vertex -2.5980762113533156 -1.500000000000001 28.0
    vertex -2.8977774788672046 -0.7764571353075631 -1.0000000000000009
    vertex -2.8977774788672046 -0.7764571353075631 28.0
  endloop
endfacet
facet normal 0.793353340291235 0.608761429008721 0.0
  outer loop
    vertex -2.5980762113533156 -1.500000000000001 -1.0000000000000009
    vertex -2.1213203435596424 -2.121320343559643 28.0
    vertex -2.1213203435596424 -2.121320343559643 -1.0000000000000009
  endloop
endfacet
facet normal 0.793353340291235 0.608761429008721 0.0
  outer loop
    vertex -2.1213203435596424 -2.121320343559643 28.0
    vertex -2.5980762113533156 -1.500000000000001 -1.0000000000000009
    vertex -2.5980762113533156 -1.500000000000001 28.0
  endloop
endfacet
facet normal 0.6087614290087202 0.7933533402912356 0.0
  outer loop
    vertex -2.1213203435596424 -2.121320343559643 28.0
    vertex -1.4999999999999991 -2.598076211353316 -1.0000000000000009
    vertex -2.1213203435596424 -2.121320343559643 -1.0000000000000009
  endloop
endfacet
facet normal 0.6087614290087202 0.7933533402912356 0.0
  outer loop
    vertex -1.4999999999999991 -2.598076211353316 -1.0000000000000009
    vertex -2.1213203435596424 -2.121320343559643 28.0
    vertex -1.4999999999999991 -2.598076211353316 28.0
  endloop
endfacet
facet normal 0.3826834323650902 0.9238795325112866 0.0
  outer loop
    vertex -1.4999999999999991 -2.598076211353316 28.0
    vertex -0.7764571353075619 -2.897777478867205 -1.0000000000000009
    vertex -1.4999999999999991 -2.598076211353316 -1.0000000000000009
  endloop
endfacet
facet normal 0.3826834323650902 0.9238795325112866 0.0
  outer loop
    vertex -0.7764571353075619 -2.897777478867205 -1.0000000000000009
    vertex -1.4999999999999991 -2.598076211353316 28.0
    vertex -0.7764571353075619 -2.897777478867205 28.0
  endloop
endfacet
facet normal 0.13052619222005135 0.9914448613738105 0.0
  outer loop
    vertex -0.7764571353075619 -2.897777478867205 28.0
    vertex 1.8369701987210297e-16 -3.0 -1.0000000000000009
    vertex -0.7764571353075619 -2.897777478867205 -1.0000000000000009
  endloop
endfacet
facet normal 0.13052619222005135 0.9914448613738105 0.0
  outer loop
    vertex 1.8369701987210297e-16 -3.0 -1.0000000000000009
    vertex -0.7764571353075619 -2.897777478867205 28.0
    vertex 1.8369701987210297e-16 -3.0 28.0
  endloop
endfacet
facet normal -0.13052619222005168 0.9914448613738105 -0.0
  outer loop
    vertex 1.8369701987210297e-16 -3.0 28.0
    vertex 0.7764571353075629 -2.897777478867205 -1.0000000000000009
    vertex 1.8369701987210297e-16 -3.0 -1.0000000000000009
  endloop
endfacet
facet normal -0.13052619222005168 0.9914448613738105 -0.0
  outer loop
    vertex 0.7764571353075629 -2.897777478867205 -1.0000000000000009
    vertex 1.8369701987210297e-16 -3.0 28.0
    vertex 0.7764571353075629 -2.897777478867205 28.0
  endloop
endfacet
facet normal -0.3826834323650902 0.9238795325112867 -0.0
  outer loop
    vertex 0.7764571353075629 -2.897777478867205 28.0
    vertex 1.5000000000000002 -2.5980762113533156 -1.0000000000000009
    vertex 0.7764571353075629 -2.897777478867205 -1.0000000000000009
  endloop
endfacet
facet normal -0.3826834323650902 0.9238795325112867 -0.0
  outer loop
    vertex 1.5000000000000002 -2.5980762113533156 -1.0000000000000009
    vertex 0.7764571353075629 -2.897777478867205 28.0
    vertex 1.5000000000000002 -2.5980762113533156 28.0
  endloop
endfacet
facet normal -0.6087614290087207 0.7933533402912352 -0.0
  outer loop
    vertex 1.5000000000000002 -2.5980762113533156 28.0
    vertex 2.1213203435596424 -2.1213203435596424 -1.0000000000000009
    vertex 1.5000000000000002 -2.5980762113533156 -1.0000000000000009
  endloop
endfacet
facet normal -0.6087614290087207 0.7933533402912352 -0.0
  outer loop
    vertex 2.1213203435596424 -2.1213203435596424 -1.0000000000000009
    vertex 1.5000000000000002 -2.5980762113533156 28.0
    vertex 2.1213203435596424 -2.1213203435596424 28.0
  endloop
endfacet
facet normal -0.7933533402912353 0.6087614290087204 -0.0
  outer loop
    vertex 2.5980762113533156 -1.5 28.0
    vertex 2.1213203435596424 -2.1213203435596424 -1.0000000000000009
    vertex 2.1213203435596424 -2.1213203435596424 28.0
  endloop
endfacet
facet normal -0.7933533402912353 0.6087614290087204 -0.0
  outer loop
    vertex 2.1213203435596424 -2.1213203435596424 -1.0000000000000009
    vertex 2.5980762113533156 -1.5 28.0
    vertex 2.5980762113533156 -1.5 -1.0000000000000009
  endloop
endfacet
facet normal -0.9238795325112867 0.38268343236509006 -0.0
  outer loop
    vertex 2.897777478867205 -0.7764571353075622 28.0
    vertex 2.5980762113533156 -1.5 -1.0000000000000009
    vertex 2.5980762113533156 -1.5 28.0
  endloop
endfacet
facet normal -0.9238795325112867 0.38268343236509006 -0.0
  outer loop
    vertex 2.5980762113533156 -1.5 -1.0000000000000009
    vertex 2.897777478867205 -0.7764571353075622 28.0
    vertex 2.897777478867205 -0.7764571353075622 -1.0000000000000009
  endloop
endfacet
facet normal -0.9914448613738104 0.1305261922200513 -0.0
  outer loop
    vertex 3.0 0.0 28.0
    vertex 2.897777478867205 -0.7764571353075622 -1.0000000000000009
    vertex 2.897777478867205 -0.7764571353075622 28.0
  endloop
endfacet
facet normal -0.9914448613738104 0.1305261922200513 -0.0
  outer loop
    vertex 2.897777478867205 -0.7764571353075622 -1.0000000000000009
    vertex 3.0 0.0 28.0
    vertex 3.0 0.0 -1.0000000000000009
  endloop
endfacet
facet normal -0.9914448613738104 -0.13052619222005177 -0.0
  outer loop
    vertex 2.897777478867204 0.7764571353075648 28.0
    vertex 3.0 0.0 -1.0000000000000009
    vertex 3.0 0.0 28.0
  endloop
endfacet
facet normal -0.9914448613738104 -0.13052619222005177 -0.0
  outer loop
    vertex 3.0 0.0 -1.0000000000000009
    vertex 2.897777478867204 0.7764571353075648 28.0
    vertex 2.897777478867204 0.7764571353075648 -1.0000000000000009
  endloop
endfacet
facet normal -0.9238795325112865 -0.38268343236509045 -0.0
  outer loop
    vertex 2.598076211353315 1.5000000000000016 28.0
    vertex 2.897777478867204 0.7764571353075648 -1.0000000000000009
    vertex 2.897777478867204 0.7764571353075648 28.0
  endloop
endfacet
facet normal -0.9238795325112865 -0.38268343236509045 -0.0
  outer loop
    vertex 2.897777478867204 0.7764571353075648 -1.0000000000000009
    vertex 2.598076211353315 1.5000000000000016 28.0
    vertex 2.598076211353315 1.5000000000000016 -1.0000000000000009
  endloop
endfacet
facet normal -0.793353340291235 -0.608761429008721 -0.0
  outer loop
    vertex 2.121320343559642 2.1213203435596433 28.0
    vertex 2.598076211353315 1.5000000000000016 -1.0000000000000009
    vertex 2.598076211353315 1.5000000000000016 28.0
  endloop
endfacet
facet normal -0.793353340291235 -0.608761429008721 -0.0
  outer loop
    vertex 2.598076211353315 1.5000000000000016 -1.0000000000000009
    vertex 2.121320343559642 2.1213203435596433 28.0
    vertex 2.121320343559642 2.1213203435596433 -1.0000000000000009
  endloop
endfacet
facet normal -0.6087614290087202 -0.7933533402912355 -0.0
  outer loop
    vertex 2.121320343559642 2.1213203435596433 28.0
    vertex 1.499999999999998 2.5980762113533173 -1.0000000000000009
    vertex 2.121320343559642 2.1213203435596433 -1.0000000000000009
  endloop
endfacet
facet normal -0.6087614290087202 -0.7933533402912355 -0.0
  outer loop
    vertex 1.499999999999998 2.5980762113533173 -1.0000000000000009
    vertex 2.121320343559642 2.1213203435596433 28.0
    vertex 1.499999999999998 2.5980762113533173 28.0
  endloop
endfacet
facet normal -0.3826834323650891 -0.9238795325112871 -0.0
  outer loop
    vertex 1.499999999999998 2.5980762113533173 28.0
    vertex 0.7764571353075608 2.897777478867205 -1.0000000000000009
    vertex 1.499999999999998 2.5980762113533173 -1.0000000000000009
  endloop
endfacet
facet normal -0.3826834323650891 -0.9238795325112871 -0.0
  outer loop
    vertex 0.7764571353075608 2.897777478867205 -1.0000000000000009
    vertex 1.499999999999998 2.5980762113533173 28.0
    vertex 0.7764571353075608 2.897777478867205 28.0
  endloop
endfacet
facet normal -0.13052619222005146 -0.9914448613738105 -0.0
  outer loop
    vertex 0.7764571353075608 2.897777478867205 28.0
    vertex -5.510910596163089e-16 3.0 -1.0000000000000009
    vertex 0.7764571353075608 2.897777478867205 -1.0000000000000009
  endloop
endfacet
facet normal -0.13052619222005146 -0.9914448613738105 -0.0
  outer loop
    vertex -5.510910596163089e-16 3.0 -1.0000000000000009
    vertex 0.7764571353075608 2.897777478867205 28.0
    vertex -5.510910596163089e-16 3.0 28.0
  endloop
endfacet
facet normal 0.1305261922200519 -0.9914448613738104 -0.0
  outer loop
    vertex -5.510910596163089e-16 3.0 28.0
    vertex -0.7764571353075645 2.8977774788672046 -1.0000000000000009
    vertex -5.510910596163089e-16 3.0 -1.0000000000000009
  endloop
endfacet
facet normal 0.1305261922200519 -0.9914448613738104 -0.0
  outer loop
    vertex -0.7764571353075645 2.8977774788672046 -1.0000000000000009
    vertex -5.510910596163089e-16 3.0 28.0
    vertex -0.7764571353075645 2.8977774788672046 28.0
  endloop
endfacet
facet normal 0.38268343236509045 -0.9238795325112866 -0.0
  outer loop
    vertex -0.7764571353075645 2.8977774788672046 28.0
    vertex -1.5000000000000013 2.5980762113533156 -1.0000000000000009
    vertex -0.7764571353075645 2.8977774788672046 -1.0000000000000009
  endloop
endfacet
facet normal 0.38268343236509045 -0.9238795325112866 -0.0
  outer loop
    vertex -1.5000000000000013 2.5980762113533156 -1.0000000000000009
    vertex -0.7764571353075645 2.8977774788672046 28.0
    vertex -1.5000000000000013 2.5980762113533156 28.0
  endloop
endfacet
facet normal 0.6087614290087212 -0.7933533402912347 -0.0
  outer loop
    vertex -1.5000000000000013 2.5980762113533156 28.0
    vertex -2.1213203435596437 2.1213203435596415 -1.0000000000000009
    vertex -1.5000000000000013 2.5980762113533156 -1.0000000000000009
  endloop
endfacet
facet normal 0.6087614290087212 -0.7933533402912347 -0.0
  outer loop
    vertex -2.1213203435596437 2.1213203435596415 -1.0000000000000009
    vertex -1.5000000000000013 2.5980762113533156 28.0
    vertex -2.1213203435596437 2.1213203435596415 28.0
  endloop
endfacet
facet normal 0.7933533402912357 -0.6087614290087201 -0.0
  outer loop
    vertex -2.1213203435596437 2.1213203435596415 -1.0000000000000009
    vertex -2.598076211353316 1.4999999999999991 28.0
    vertex -2.598076211353316 1.4999999999999991 -1.0000000000000009
  endloop
endfacet
facet normal 0.7933533402912357 -0.6087614290087201 -0.0
  outer loop
    vertex -2.598076211353316 1.4999999999999991 28.0
    vertex -2.1213203435596437 2.1213203435596415 -1.0000000000000009
    vertex -2.1213203435596437 2.1213203435596415 28.0
  endloop
endfacet
endsolid Втулка крепления
