solid Коромысло
facet normal 0.0 0.0 -1.0
  outer loop
    vertex -4.242640687119285 4.242640687119286 0.0
    vertex -3.863703305156272 1.035276180410084 0.0
    vertex -3.999999999999999 4.898587196589412e-16 0.0
  endloop
endfacet
facet normal 0.0 0.0 -1.0
  outer loop
    vertex -3.863703305156272 1.035276180410084 0.0
    vertex -4.242640687119285 4.242640687119286 0.0
    vertex -2.9999999999999982 5.196152422706632 0.0
  endloop
endfacet
facet normal 0.0 0.0 -1.0
  outer loop
    vertex -3.863703305156272 1.035276180410084 0.0
    vertex -2.9999999999999982 5.196152422706632 0.0
    vertex -3.464101615137753 2.0000000000000013 0.0
  endloop
endfacet
facet normal 0.0 0.0 -1.0
  outer loop
    vertex -3.464101615137753 2.0000000000000013 0.0
    vertex -2.9999999999999982 5.196152422706632 0.0
    vertex -2.8284271247461894 2.8284271247461903 0.0
  endloop
endfacet
facet normal 0.0 0.0 -1.0
  outer loop
    vertex -2.8284271247461894 2.8284271247461903 0.0
    vertex -2.9999999999999982 5.196152422706632 0.0
    vertex -1.5529142706151238 5.79555495773441 0.0
  endloop
endfacet
facet normal 0.0 0.0 -1.0
  outer loop
    vertex -2.8284271247461894 2.8284271247461903 0.0
    vertex -1.5529142706151238 5.79555495773441 0.0
    vertex -1.9999999999999984 3.4641016151377544 0.0
  endloop
endfacet
facet normal 0.0 0.0 -1.0
  outer loop
    vertex -1.9999999999999984 3.4641016151377544 0.0
    vertex -1.5529142706151238 5.79555495773441 0.0
    vertex -1.0352761804100823 3.863703305156273 0.0
  endloop
endfacet
facet normal 0.0 0.0 -1.0
  outer loop
    vertex -1.0352761804100823 3.863703305156273 0.0
    vertex -1.5529142706151238 5.79555495773441 0.0
    vertex 3.6739403974420594e-16 6.0 0.0
  endloop
endfacet
facet normal 0.0 0.0 -1.0
  outer loop
    vertex -1.0352761804100823 3.863703305156273 0.0
    vertex 3.6739403974420594e-16 6.0 0.0
    vertex 2.449293598294706e-16 3.9999999999999996 0.0
  endloop
endfacet
facet normal 0.0 0.0 -1.0
  outer loop
    vertex 2.449293598294706e-16 3.9999999999999996 0.0
    vertex 3.6739403974420594e-16 6.0 0.0
    vertex 1.0352761804100836 3.863703305156273 0.0
  endloop
endfacet
facet normal 0.0 0.0 -1.0
  outer loop
    vertex 1.0352761804100836 3.863703305156273 0.0
    vertex 3.6739403974420594e-16 6.0 0.0
    vertex 1.5529142706151258 5.79555495773441 0.0
  endloop
endfacet
facet normal 0.0 0.0 -1.0
  outer loop
    vertex 1.0352761804100836 3.863703305156273 0.0
    vertex 1.5529142706151258 5.79555495773441 0.0
    vertex 1.9999999999999998 3.464101615137754 0.0
  endloop
endfacet
facet normal 0.0 0.0 -1.0
  outer loop
    vertex 1.9999999999999998 3.464101615137754 0.0
    vertex 1.5529142706151258 5.79555495773441 0.0
    vertex 3.0000000000000004 5.196152422706631 0.0
  endloop
endfacet
facet normal 0.0 0.0 -1.0
  outer loop
    vertex 1.9999999999999998 3.464101615137754 0.0
    vertex 3.0000000000000004 5.196152422706631 0.0
    vertex 2.82842712474619 2.8284271247461903 0.0
  endloop
endfacet
facet normal 0.0 0.0 -1.0
  outer loop
    vertex 2.82842712474619 2.8284271247461903 0.0
    vertex 3.0000000000000004 5.196152422706631 0.0
    vertex 3.464101615137754 1.9999999999999996 0.0
  endloop
endfacet
facet normal 0.0 0.0 -1.0
  outer loop
    vertex 3.464101615137754 1.9999999999999996 0.0
    vertex 3.0000000000000004 5.196152422706631 0.0
    vertex 4.242640687119285 4.242640687119286 0.0
  endloop
endfacet
facet normal 0.0 0.0 -1.0
  outer loop
    vertex 3.464101615137754 1.9999999999999996 0.0
    vertex 4.242640687119285 4.242640687119286 0.0
    vertex 3.863703305156272 1.035276180410083 0.0
  endloop
endfacet
facet normal 0.0 0.0 -1.0
  outer loop
    vertex 3.863703305156272 1.035276180410083 0.0
    vertex 4.242640687119285 4.242640687119286 0.0
    vertex 3.999999999999999 0.0 0.0
  endloop
endfacet
facet normal 0.0 0.0 -1.0
  outer loop
    vertex 3.999999999999999 0.0 0.0
    vertex 4.242640687119285 4.242640687119286 0.0
    vertex 4.242640687119284 -4.2426406871192865 0.0
  endloop
endfacet
facet normal 0.0 0.0 -1.0
  outer loop
    vertex 4.242640687119284 -4.2426406871192865 0.0
    vertex 4.242640687119285 4.242640687119286 0.0
    vertex 25.757359312880716 -4.242640687119283 0.0
  endloop
endfacet
facet normal 0.0 0.0 -1.0
  outer loop
    vertex 25.757359312880716 -4.242640687119283 0.0
    vertex 4.242640687119285 4.242640687119286 0.0
    vertex 25.757359312880716 4.242640687119286 0.0
  endloop
endfacet
facet normal 0.0 0.0 -1.0
  outer loop
    vertex 25.757359312880716 -4.242640687119283 0.0
    vertex 25.757359312880716 4.242640687119286 0.0
    vertex 26.000000000000004 4.898587196589411e-16 0.0
  endloop
endfacet
facet normal 0.0 0.0 -1.0
  outer loop
    vertex 26.000000000000004 4.898587196589411e-16 0.0
    vertex 25.757359312880716 4.242640687119286 0.0
    vertex 26.13629669484373 1.0352761804100836 0.0
  endloop
endfacet
facet normal 0.0 0.0 -1.0
  outer loop
    vertex 26.13629669484373 1.0352761804100836 0.0
    vertex 25.757359312880716 4.242640687119286 0.0
    vertex 27.0 5.196152422706632 0.0
  endloop
endfacet
facet normal 0.0 0.0 -1.0
  outer loop
    vertex 26.13629669484373 1.0352761804100836 0.0
    vertex 27.0 5.196152422706632 0.0
    vertex 26.53589838486225 2.0000000000000004 0.0
  endloop
endfacet
facet normal 0.0 0.0 -1.0
  outer loop
    vertex 26.53589838486225 2.0000000000000004 0.0
    vertex 27.0 5.196152422706632 0.0
    vertex 27.171572875253815 2.828427124746189 0.0
  endloop
endfacet
facet normal 0.0 0.0 -1.0
  outer loop
    vertex 27.171572875253815 2.828427124746189 0.0
    vertex 27.0 5.196152422706632 0.0
    vertex 28.447085729384877 5.79555495773441 0.0
  endloop
endfacet
facet normal 0.0 0.0 -1.0
  outer loop
    vertex 27.171572875253815 2.828427124746189 0.0
    vertex 28.447085729384877 5.79555495773441 0.0
    vertex 28.000000000000004 3.464101615137753 0.0
  endloop
endfacet
facet normal 0.0 0.0 -1.0
  outer loop
    vertex 28.000000000000004 3.464101615137753 0.0
    vertex 28.447085729384877 5.79555495773441 0.0
    vertex 28.96472381958992 3.8637033051562715 0.0
  endloop
endfacet
facet normal 0.0 0.0 -1.0
  outer loop
    vertex 28.96472381958992 3.8637033051562715 0.0
    vertex 28.447085729384877 5.79555495773441 0.0
    vertex 30.0 6.0 0.0
  endloop
endfacet
facet normal 0.0 0.0 -1.0
  outer loop
    vertex 28.96472381958992 3.8637033051562715 0.0
    vertex 30.0 6.0 0.0
    vertex 30.0 3.9999999999999982 0.0
  endloop
endfacet
facet normal 0.0 0.0 -1.0
  outer loop
    vertex 30.0 3.9999999999999982 0.0
    vertex 30.0 6.0 0.0
    vertex 31.552914270615126 5.79555495773441 0.0
  endloop
endfacet
facet normal 0.0 0.0 -1.0
  outer loop
    vertex 30.0 3.9999999999999982 0.0
    vertex 31.552914270615126 5.79555495773441 0.0
    vertex 31.035276180410087 3.8637033051562715 0.0
  endloop
endfacet
facet normal 0.0 0.0 -1.0
  outer loop
    vertex 31.035276180410087 3.8637033051562715 0.0
    vertex 31.552914270615126 5.79555495773441 0.0
    vertex 32.0 3.464101615137753 0.0
  endloop
endfacet
facet normal 0.0 0.0 -1.0
  outer loop
    vertex 32.0 3.464101615137753 0.0
    vertex 31.552914270615126 5.79555495773441 0.0
    vertex 33.0 5.196152422706631 0.0
  endloop
endfacet
facet normal 0.0 0.0 -1.0
  outer loop
    vertex 32.0 3.464101615137753 0.0
    vertex 33.0 5.196152422706631 0.0
    vertex 32.82842712474619 2.828427124746189 0.0
  endloop
endfacet
facet normal 0.0 0.0 -1.0
  outer loop
    vertex 32.82842712474619 2.828427124746189 0.0
    vertex 33.0 5.196152422706631 0.0
    vertex 33.46410161513775 1.999999999999999 0.0
  endloop
endfacet
facet normal 0.0 0.0 -1.0
  outer loop
    vertex 33.46410161513775 1.999999999999999 0.0
    vertex 33.0 5.196152422706631 0.0
    vertex 34.242640687119284 4.242640687119286 0.0
  endloop
endfacet
facet normal 0.0 0.0 -1.0
  outer loop
    vertex 33.46410161513775 1.999999999999999 0.0
    vertex 34.242640687119284 4.242640687119286 0.0
    vertex 33.86370330515627 1.0352761804100825 0.0
  endloop
endfacet
facet normal 0.0 0.0 -1.0
  outer loop
    vertex 33.86370330515627 1.0352761804100825 0.0
    vertex 34.242640687119284 4.242640687119286 0.0
    vertex 34.0 0.0 0.0
  endloop
endfacet
facet normal 0.0 0.0 -1.0
  outer loop
    vertex 25.757359312880716 -4.242640687119283 0.0
    vertex 26.13629669484373 -1.035276180410081 0.0
    vertex 27.0 -5.196152422706631 0.0
  endloop
endfacet
facet normal 0.0 0.0 -1.0
  outer loop
    vertex 26.13629669484373 -1.035276180410081 0.0
    vertex 25.757359312880716 -4.242640687119283 0.0
    vertex 26.000000000000004 4.898587196589411e-16 0.0
  endloop
endfacet
facet normal 0.0 0.0 -1.0
  outer loop
    vertex 27.0 -5.196152422706631 0.0
    vertex 26.13629669484373 -1.035276180410081 0.0
    vertex 26.535898384862247 -1.999999999999998 0.0
  endloop
endfacet
facet normal 0.0 0.0 -1.0
  outer loop
    vertex 27.0 -5.196152422706631 0.0
    vertex 26.535898384862247 -1.999999999999998 0.0
    vertex 27.17157287525381 -2.828427124746187 0.0
  endloop
endfacet
facet normal 0.0 0.0 -1.0
  outer loop
    vertex 27.0 -5.196152422706631 0.0
    vertex 27.17157287525381 -2.828427124746187 0.0
    vertex 28.44708572938487 -5.795554957734409 0.0
  endloop
endfacet
facet normal 0.0 0.0 -1.0
  outer loop
    vertex 28.44708572938487 -5.795554957734409 0.0
    vertex 27.17157287525381 -2.828427124746187 0.0
    vertex 28.0 -3.4641016151377517 0.0
  endloop
endfacet
facet normal 0.0 0.0 -1.0
  outer loop
    vertex 28.44708572938487 -5.795554957734409 0.0
    vertex 28.0 -3.4641016151377517 0.0
    vertex 28.964723819589917 -3.8637033051562706 0.0
  endloop
endfacet
facet normal 0.0 0.0 -1.0
  outer loop
    vertex 28.44708572938487 -5.795554957734409 0.0
    vertex 28.964723819589917 -3.8637033051562706 0.0
    vertex 30.0 -6.0 0.0
  endloop
endfacet
facet normal 0.0 0.0 -1.0
  outer loop
    vertex 30.0 -6.0 0.0
    vertex 28.964723819589917 -3.8637033051562706 0.0
    vertex 30.0 -3.9999999999999982 0.0
  endloop
endfacet
facet normal 0.0 0.0 -1.0
  outer loop
    vertex 30.0 -6.0 0.0
    vertex 30.0 -3.9999999999999982 0.0
    vertex 31.035276180410083 -3.863703305156272 0.0
  endloop
endfacet
facet normal 0.0 0.0 -1.0
  outer loop
    vertex 30.0 -6.0 0.0
    vertex 31.035276180410083 -3.863703305156272 0.0
    vertex 31.552914270615123 -5.79555495773441 0.0
  endloop
endfacet
facet normal 0.0 0.0 -1.0
  outer loop
    vertex 31.552914270615123 -5.79555495773441 0.0
    vertex 31.035276180410083 -3.863703305156272 0.0
    vertex 31.999999999999996 -3.4641016151377544 0.0
  endloop
endfacet
facet normal 0.0 0.0 -1.0
  outer loop
    vertex 31.552914270615123 -5.79555495773441 0.0
    vertex 31.999999999999996 -3.4641016151377544 0.0
    vertex 32.99999999999999 -5.196152422706635 0.0
  endloop
endfacet
facet normal 0.0 0.0 -1.0
  outer loop
    vertex 32.99999999999999 -5.196152422706635 0.0
    vertex 31.999999999999996 -3.4641016151377544 0.0
    vertex 32.828427124746185 -2.8284271247461894 0.0
  endloop
endfacet
facet normal 0.0 0.0 -1.0
  outer loop
    vertex 32.99999999999999 -5.196152422706635 0.0
    vertex 32.828427124746185 -2.8284271247461894 0.0
    vertex 33.46410161513775 -2.000000000000001 0.0
  endloop
endfacet
facet normal 0.0 0.0 -1.0
  outer loop
    vertex 32.99999999999999 -5.196152422706635 0.0
    vertex 33.46410161513775 -2.000000000000001 0.0
    vertex 34.242640687119284 -4.2426406871192865 0.0
  endloop
endfacet
facet normal 0.0 0.0 -1.0
  outer loop
    vertex 34.242640687119284 -4.2426406871192865 0.0
    vertex 33.46410161513775 -2.000000000000001 0.0
    vertex 33.86370330515627 -1.0352761804100858 0.0
  endloop
endfacet
facet normal 0.0 0.0 -1.0
  outer loop
    vertex 34.242640687119284 -4.2426406871192865 0.0
    vertex 33.86370330515627 -1.0352761804100858 0.0
    vertex 34.0 0.0 0.0
  endloop
endfacet
facet normal 0.0 0.0 -1.0
  outer loop
    vertex 34.242640687119284 -4.2426406871192865 0.0
    vertex 34.0 0.0 0.0
    vertex 34.242640687119284 4.242640687119286 0.0
  endloop
endfacet
facet normal 0.0 0.0 -1.0
  outer loop
    vertex 34.242640687119284 -4.2426406871192865 0.0
    vertex 34.242640687119284 4.242640687119286 0.0
    vertex 35.19615242270663 3.0 0.0
  endloop
endfacet
facet normal 0.0 0.0 -1.0
  outer loop
    vertex 34.242640687119284 -4.2426406871192865 0.0
    vertex 35.19615242270663 3.0 0.0
    vertex 35.19615242270663 -3.000000000000003 0.0
  endloop
endfacet
facet normal 0.0 0.0 -1.0
  outer loop
    vertex 35.19615242270663 -3.000000000000003 0.0
    vertex 35.19615242270663 3.0 0.0
    vertex 35.79555495773441 1.5529142706151244 0.0
  endloop
endfacet
facet normal 0.0 0.0 -1.0
  outer loop
    vertex 35.19615242270663 -3.000000000000003 0.0
    vertex 35.79555495773441 1.5529142706151244 0.0
    vertex 35.79555495773441 -1.5529142706151295 0.0
  endloop
endfacet
facet normal 0.0 0.0 -1.0
  outer loop
    vertex 35.79555495773441 -1.5529142706151295 0.0
    vertex 35.79555495773441 1.5529142706151244 0.0
    vertex 36.0 0.0 0.0
  endloop
endfacet
facet normal 0.0 0.0 -1.0
  outer loop
    vertex -5.795554957734409 1.5529142706151262 0.0
    vertex -5.79555495773441 -1.5529142706151222 0.0
    vertex -6.0 7.34788079488412e-16 0.0
  endloop
endfacet
facet normal 0.0 0.0 -1.0
  outer loop
    vertex -5.79555495773441 -1.5529142706151222 0.0
    vertex -5.795554957734409 1.5529142706151262 0.0
    vertex -5.196152422706632 -2.9999999999999982 0.0
  endloop
endfacet
facet normal 0.0 0.0 -1.0
  outer loop
    vertex -5.196152422706632 -2.9999999999999982 0.0
    vertex -5.795554957734409 1.5529142706151262 0.0
    vertex -5.196152422706631 3.000000000000002 0.0
  endloop
endfacet
facet normal 0.0 0.0 -1.0
  outer loop
    vertex -5.196152422706632 -2.9999999999999982 0.0
    vertex -5.196152422706631 3.000000000000002 0.0
    vertex -4.242640687119287 -4.242640687119283 0.0
  endloop
endfacet
facet normal 0.0 0.0 -1.0
  outer loop
    vertex -4.242640687119287 -4.242640687119283 0.0
    vertex -5.196152422706631 3.000000000000002 0.0
    vertex -4.242640687119285 4.242640687119286 0.0
  endloop
endfacet
facet normal 0.0 0.0 -1.0
  outer loop
    vertex -4.242640687119287 -4.242640687119283 0.0
    vertex -4.242640687119285 4.242640687119286 0.0
    vertex -3.999999999999999 4.898587196589412e-16 0.0
  endloop
endfacet
facet normal 0.0 0.0 -1.0
  outer loop
    vertex -4.242640687119287 -4.242640687119283 0.0
    vertex -3.999999999999999 4.898587196589412e-16 0.0
    vertex -3.863703305156273 -1.0352761804100814 0.0
  endloop
endfacet
facet normal 0.0 0.0 -1.0
  outer loop
    vertex -4.242640687119287 -4.242640687119283 0.0
    vertex -3.863703305156273 -1.0352761804100814 0.0
    vertex -3.0000000000000027 -5.196152422706631 0.0
  endloop
endfacet
facet normal 0.0 0.0 -1.0
  outer loop
    vertex -3.0000000000000027 -5.196152422706631 0.0
    vertex -3.863703305156273 -1.0352761804100814 0.0
    vertex -3.4641016151377544 -1.999999999999999 0.0
  endloop
endfacet
facet normal 0.0 0.0 -1.0
  outer loop
    vertex -3.0000000000000027 -5.196152422706631 0.0
    vertex -3.4641016151377544 -1.999999999999999 0.0
    vertex -2.828427124746191 -2.8284271247461885 0.0
  endloop
endfacet
facet normal 0.0 0.0 -1.0
  outer loop
    vertex -3.0000000000000027 -5.196152422706631 0.0
    vertex -2.828427124746191 -2.8284271247461885 0.0
    vertex -1.552914270615129 -5.795554957734409 0.0
  endloop
endfacet
facet normal 0.0 0.0 -1.0
  outer loop
    vertex -1.552914270615129 -5.795554957734409 0.0
    vertex -2.828427124746191 -2.8284271247461885 0.0
    vertex -2.0000000000000013 -3.464101615137753 0.0
  endloop
endfacet
facet normal 0.0 0.0 -1.0
  outer loop
    vertex -1.552914270615129 -5.795554957734409 0.0
    vertex -2.0000000000000013 -3.464101615137753 0.0
    vertex -1.0352761804100858 -3.863703305156272 0.0
  endloop
endfacet
facet normal 0.0 0.0 -1.0
  outer loop
    vertex -1.552914270615129 -5.795554957734409 0.0
    vertex -1.0352761804100858 -3.863703305156272 0.0
    vertex -1.1021821192326177e-15 -6.0 0.0
  endloop
endfacet
facet normal 0.0 0.0 -1.0
  outer loop
    vertex -1.1021821192326177e-15 -6.0 0.0
    vertex -1.0352761804100858 -3.863703305156272 0.0
    vertex -7.347880794884117e-16 -3.9999999999999996 0.0
  endloop
endfacet
facet normal 0.0 0.0 -1.0
  outer loop
    vertex -1.1021821192326177e-15 -6.0 0.0
    vertex -7.347880794884117e-16 -3.9999999999999996 0.0
    vertex 1.5529142706151216 -5.79555495773441 0.0
  endloop
endfacet
facet normal 0.0 0.0 -1.0
  outer loop
    vertex 1.5529142706151216 -5.79555495773441 0.0
    vertex -7.347880794884117e-16 -3.9999999999999996 0.0
    vertex 1.035276180410081 -3.8637033051562732 0.0
  endloop
endfacet
facet normal 0.0 0.0 -1.0
  outer loop
    vertex 1.5529142706151216 -5.79555495773441 0.0
    vertex 1.035276180410081 -3.8637033051562732 0.0
    vertex 1.9999999999999967 -3.464101615137756 0.0
  endloop
endfacet
facet normal 0.0 0.0 -1.0
  outer loop
    vertex 1.5529142706151216 -5.79555495773441 0.0
    vertex 1.9999999999999967 -3.464101615137756 0.0
    vertex 2.9999999999999956 -5.196152422706635 0.0
  endloop
endfacet
facet normal 0.0 0.0 -1.0
  outer loop
    vertex 2.9999999999999956 -5.196152422706635 0.0
    vertex 1.9999999999999967 -3.464101615137756 0.0
    vertex 2.8284271247461885 -2.8284271247461903 0.0
  endloop
endfacet
facet normal 0.0 0.0 -1.0
  outer loop
    vertex 2.9999999999999956 -5.196152422706635 0.0
    vertex 2.8284271247461885 -2.8284271247461903 0.0
    vertex 3.4641016151377526 -2.0000000000000018 0.0
  endloop
endfacet
facet normal 0.0 0.0 -1.0
  outer loop
    vertex 2.9999999999999956 -5.196152422706635 0.0
    vertex 3.4641016151377526 -2.0000000000000018 0.0
    vertex 4.242640687119284 -4.2426406871192865 0.0
  endloop
endfacet
facet normal 0.0 0.0 -1.0
  outer loop
    vertex 4.242640687119284 -4.2426406871192865 0.0
    vertex 3.4641016151377526 -2.0000000000000018 0.0
    vertex 3.8637033051562715 -1.035276180410086 0.0
  endloop
endfacet
facet normal 0.0 0.0 -1.0
  outer loop
    vertex 4.242640687119284 -4.2426406871192865 0.0
    vertex 3.8637033051562715 -1.035276180410086 0.0
    vertex 3.999999999999999 0.0 0.0
  endloop
endfacet
facet normal -0.0 -0.0 1.0
  outer loop
    vertex -4.242640687119285 4.242640687119286 3.0
    vertex -3.863703305156272 1.035276180410084 3.0
    vertex -2.9999999999999982 5.196152422706632 3.0
  endloop
endfacet
facet normal -0.0 -0.0 1.0
  outer loop
    vertex -3.863703305156272 1.035276180410084 3.0
    vertex -4.242640687119285 4.242640687119286 3.0
    vertex -3.999999999999999 4.898587196589412e-16 3.0
  endloop
endfacet
facet normal -0.0 -0.0 1.0
  outer loop
    vertex -2.9999999999999982 5.196152422706632 3.0
    vertex -3.863703305156272 1.035276180410084 3.0
    vertex -3.464101615137753 2.0000000000000013 3.0
  endloop
endfacet
facet normal -0.0 -0.0 1.0
  outer loop
    vertex -2.9999999999999982 5.196152422706632 3.0
    vertex -3.464101615137753 2.0000000000000013 3.0
    vertex -2.8284271247461894 2.8284271247461903 3.0
  endloop
endfacet
facet normal -0.0 -0.0 1.0
  outer loop
    vertex -2.9999999999999982 5.196152422706632 3.0
    vertex -2.8284271247461894 2.8284271247461903 3.0
    vertex -1.5529142706151238 5.79555495773441 3.0
  endloop
endfacet
facet normal -0.0 -0.0 1.0
  outer loop
    vertex -1.5529142706151238 5.79555495773441 3.0
    vertex -2.8284271247461894 2.8284271247461903 3.0
    vertex -1.9999999999999984 3.4641016151377544 3.0
  endloop
endfacet
facet normal -0.0 -0.0 1.0
  outer loop
    vertex -1.5529142706151238 5.79555495773441 3.0
    vertex -1.9999999999999984 3.4641016151377544 3.0
    vertex -1.0352761804100823 3.863703305156273 3.0
  endloop
endfacet
facet normal -0.0 -0.0 1.0
  outer loop
    vertex -1.5529142706151238 5.79555495773441 3.0
    vertex -1.0352761804100823 3.863703305156273 3.0
    vertex 3.6739403974420594e-16 6.0 3.0
  endloop
endfacet
facet normal -0.0 -0.0 1.0
  outer loop
    vertex 3.6739403974420594e-16 6.0 3.0
    vertex -1.0352761804100823 3.863703305156273 3.0
    vertex 2.449293598294706e-16 3.9999999999999996 3.0
  endloop
endfacet
facet normal -0.0 -0.0 1.0
  outer loop
    vertex 3.6739403974420594e-16 6.0 3.0
    vertex 2.449293598294706e-16 3.9999999999999996 3.0
    vertex 1.0352761804100836 3.863703305156273 3.0
  endloop
endfacet
facet normal -0.0 -0.0 1.0
  outer loop
    vertex 3.6739403974420594e-16 6.0 3.0
    vertex 1.0352761804100836 3.863703305156273 3.0
    vertex 1.5529142706151258 5.79555495773441 3.0
  endloop
endfacet
facet normal -0.0 -0.0 1.0
  outer loop
    vertex 1.5529142706151258 5.79555495773441 3.0
    vertex 1.0352761804100836 3.863703305156273 3.0
    vertex 1.9999999999999998 3.464101615137754 3.0
  endloop
endfacet
facet normal -0.0 -0.0 1.0
  outer loop
    vertex 1.5529142706151258 5.79555495773441 3.0
    vertex 1.9999999999999998 3.464101615137754 3.0
    vertex 3.0000000000000004 5.196152422706631 3.0
  endloop
endfacet
facet normal -0.0 -0.0 1.0
  outer loop
    vertex 3.0000000000000004 5.196152422706631 3.0
    vertex 1.9999999999999998 3.464101615137754 3.0
    vertex 2.82842712474619 2.8284271247461903 3.0
  endloop
endfacet
facet normal -0.0 -0.0 1.0
  outer loop
    vertex 3.0000000000000004 5.196152422706631 3.0
    vertex 2.82842712474619 2.8284271247461903 3.0
    vertex 3.464101615137754 1.9999999999999996 3.0
  endloop
endfacet
facet normal -0.0 -0.0 1.0
  outer loop
    vertex 3.0000000000000004 5.196152422706631 3.0
    vertex 3.464101615137754 1.9999999999999996 3.0
    vertex 4.242640687119285 4.242640687119286 3.0
  endloop
endfacet
facet normal -0.0 -0.0 1.0
  outer loop
    vertex 4.242640687119285 4.242640687119286 3.0
    vertex 3.464101615137754 1.9999999999999996 3.0
    vertex 3.863703305156272 1.035276180410083 3.0
  endloop
endfacet
facet normal -0.0 -0.0 1.0
  outer loop
    vertex 4.242640687119285 4.242640687119286 3.0
    vertex 3.863703305156272 1.035276180410083 3.0
    vertex 3.999999999999999 0.0 3.0
  endloop
endfacet
facet normal -0.0 -0.0 1.0
  outer loop
    vertex 4.242640687119285 4.242640687119286 3.0
    vertex 3.999999999999999 0.0 3.0
    vertex 4.242640687119284 -4.2426406871192865 3.0
  endloop
endfacet
facet normal -0.0 -0.0 1.0
  outer loop
    vertex 4.242640687119285 4.242640687119286 3.0
    vertex 4.242640687119284 -4.2426406871192865 3.0
    vertex 25.757359312880716 -4.242640687119283 3.0
  endloop
endfacet
facet normal -0.0 -0.0 1.0
  outer loop
    vertex 4.242640687119285 4.242640687119286 3.0
    vertex 25.757359312880716 -4.242640687119283 3.0
    vertex 25.757359312880716 4.242640687119286 3.0
  endloop
endfacet
facet normal -0.0 -0.0 1.0
  outer loop
    vertex 25.757359312880716 4.242640687119286 3.0
    vertex 25.757359312880716 -4.242640687119283 3.0
    vertex 26.000000000000004 4.898587196589411e-16 3.0
  endloop
endfacet
facet normal -0.0 -0.0 1.0
  outer loop
    vertex 26.000000000000004 4.898587196589411e-16 3.0
    vertex 25.757359312880716 -4.242640687119283 3.0
    vertex 26.13629669484373 -1.035276180410081 3.0
  endloop
endfacet
facet normal -0.0 -0.0 1.0
  outer loop
    vertex 26.13629669484373 -1.035276180410081 3.0
    vertex 25.757359312880716 -4.242640687119283 3.0
    vertex 27.0 -5.196152422706631 3.0
  endloop
endfacet
facet normal -0.0 -0.0 1.0
  outer loop
    vertex 26.13629669484373 -1.035276180410081 3.0
    vertex 27.0 -5.196152422706631 3.0
    vertex 26.535898384862247 -1.999999999999998 3.0
  endloop
endfacet
facet normal -0.0 -0.0 1.0
  outer loop
    vertex 26.535898384862247 -1.999999999999998 3.0
    vertex 27.0 -5.196152422706631 3.0
    vertex 27.17157287525381 -2.828427124746187 3.0
  endloop
endfacet
facet normal -0.0 -0.0 1.0
  outer loop
    vertex 27.17157287525381 -2.828427124746187 3.0
    vertex 27.0 -5.196152422706631 3.0
    vertex 28.44708572938487 -5.795554957734409 3.0
  endloop
endfacet
facet normal -0.0 -0.0 1.0
  outer loop
    vertex 27.17157287525381 -2.828427124746187 3.0
    vertex 28.44708572938487 -5.795554957734409 3.0
    vertex 28.0 -3.4641016151377517 3.0
  endloop
endfacet
facet normal -0.0 -0.0 1.0
  outer loop
    vertex 28.0 -3.4641016151377517 3.0
    vertex 28.44708572938487 -5.795554957734409 3.0
    vertex 28.964723819589917 -3.8637033051562706 3.0
  endloop
endfacet
facet normal -0.0 -0.0 1.0
  outer loop
    vertex 28.964723819589917 -3.8637033051562706 3.0
    vertex 28.44708572938487 -5.795554957734409 3.0
    vertex 30.0 -6.0 3.0
  endloop
endfacet
facet normal -0.0 -0.0 1.0
  outer loop
    vertex 28.964723819589917 -3.8637033051562706 3.0
    vertex 30.0 -6.0 3.0
    vertex 30.0 -3.9999999999999982 3.0
  endloop
endfacet
facet normal -0.0 -0.0 1.0
  outer loop
    vertex 30.0 -3.9999999999999982 3.0
    vertex 30.0 -6.0 3.0
    vertex 31.552914270615123 -5.79555495773441 3.0
  endloop
endfacet
facet normal -0.0 -0.0 1.0
  outer loop
    vertex 30.0 -3.9999999999999982 3.0
    vertex 31.552914270615123 -5.79555495773441 3.0
    vertex 31.035276180410083 -3.863703305156272 3.0
  endloop
endfacet
facet normal -0.0 -0.0 1.0
  outer loop
    vertex 31.035276180410083 -3.863703305156272 3.0
    vertex 31.552914270615123 -5.79555495773441 3.0
    vertex 31.999999999999996 -3.4641016151377544 3.0
  endloop
endfacet
facet normal -0.0 -0.0 1.0
  outer loop
    vertex 31.999999999999996 -3.4641016151377544 3.0
    vertex 31.552914270615123 -5.79555495773441 3.0
    vertex 32.99999999999999 -5.196152422706635 3.0
  endloop
endfacet
facet normal -0.0 -0.0 1.0
  outer loop
    vertex 31.999999999999996 -3.4641016151377544 3.0
    vertex 32.99999999999999 -5.196152422706635 3.0
    vertex 32.828427124746185 -2.8284271247461894 3.0
  endloop
endfacet
facet normal -0.0 -0.0 1.0
  outer loop
    vertex 32.828427124746185 -2.8284271247461894 3.0
    vertex 32.99999999999999 -5.196152422706635 3.0
    vertex 33.46410161513775 -2.000000000000001 3.0
  endloop
endfacet
facet normal -0.0 -0.0 1.0
  outer loop
    vertex 33.46410161513775 -2.000000000000001 3.0
    vertex 32.99999999999999 -5.196152422706635 3.0
    vertex 34.242640687119284 -4.2426406871192865 3.0
  endloop
endfacet
facet normal -0.0 -0.0 1.0
  outer loop
    vertex 33.46410161513775 -2.000000000000001 3.0
    vertex 34.242640687119284 -4.2426406871192865 3.0
    vertex 33.86370330515627 -1.0352761804100858 3.0
  endloop
endfacet
facet normal -0.0 -0.0 1.0
  outer loop
    vertex 33.86370330515627 -1.0352761804100858 3.0
    vertex 34.242640687119284 -4.2426406871192865 3.0
    vertex 34.0 0.0 3.0
  endloop
endfacet
facet normal -0.0 -0.0 1.0
  outer loop
    vertex 25.757359312880716 4.242640687119286 3.0
    vertex 26.13629669484373 1.0352761804100836 3.0
    vertex 27.0 5.196152422706632 3.0
  endloop
endfacet
facet normal -0.0 -0.0 1.0
  outer loop
    vertex 26.13629669484373 1.0352761804100836 3.0
    vertex 25.757359312880716 4.242640687119286 3.0
    vertex 26.000000000000004 4.898587196589411e-16 3.0
  endloop
endfacet
facet normal -0.0 -0.0 1.0
  outer loop
    vertex 27.0 5.196152422706632 3.0
    vertex 26.13629669484373 1.0352761804100836 3.0
    vertex 26.53589838486225 2.0000000000000004 3.0
  endloop
endfacet
facet normal -0.0 -0.0 1.0
  outer loop
    vertex 27.0 5.196152422706632 3.0
    vertex 26.53589838486225 2.0000000000000004 3.0
    vertex 27.171572875253815 2.828427124746189 3.0
  endloop
endfacet
facet normal -0.0 -0.0 1.0
  outer loop
    vertex 27.0 5.196152422706632 3.0
    vertex 27.171572875253815 2.828427124746189 3.0
    vertex 28.447085729384877 5.79555495773441 3.0
  endloop
endfacet
facet normal -0.0 -0.0 1.0
  outer loop
    vertex 28.447085729384877 5.79555495773441 3.0
    vertex 27.171572875253815 2.828427124746189 3.0
    vertex 28.000000000000004 3.464101615137753 3.0
  endloop
endfacet
facet normal -0.0 -0.0 1.0
  outer loop
    vertex 28.447085729384877 5.79555495773441 3.0
    vertex 28.000000000000004 3.464101615137753 3.0
    vertex 28.96472381958992 3.8637033051562715 3.0
  endloop
endfacet
facet normal -0.0 -0.0 1.0
  outer loop
    vertex 28.447085729384877 5.79555495773441 3.0
    vertex 28.96472381958992 3.8637033051562715 3.0
    vertex 30.0 6.0 3.0
  endloop
endfacet
facet normal -0.0 -0.0 1.0
  outer loop
    vertex 30.0 6.0 3.0
    vertex 28.96472381958992 3.8637033051562715 3.0
    vertex 30.0 3.9999999999999982 3.0
  endloop
endfacet
facet normal -0.0 -0.0 1.0
  outer loop
    vertex 30.0 6.0 3.0
    vertex 30.0 3.9999999999999982 3.0
    vertex 31.035276180410087 3.8637033051562715 3.0
  endloop
endfacet
facet normal -0.0 -0.0 1.0
  outer loop
    vertex 30.0 6.0 3.0
    vertex 31.035276180410087 3.8637033051562715 3.0
    vertex 31.552914270615126 5.79555495773441 3.0
  endloop
endfacet
facet normal -0.0 -0.0 1.0
  outer loop
    vertex 31.552914270615126 5.79555495773441 3.0
    vertex 31.035276180410087 3.8637033051562715 3.0
    vertex 32.0 3.464101615137753 3.0
  endloop
endfacet
facet normal -0.0 -0.0 1.0
  outer loop
    vertex 31.552914270615126 5.79555495773441 3.0
    vertex 32.0 3.464101615137753 3.0
    vertex 33.0 5.196152422706631 3.0
  endloop
endfacet
facet normal -0.0 -0.0 1.0
  outer loop
    vertex 33.0 5.196152422706631 3.0
    vertex 32.0 3.464101615137753 3.0
    vertex 32.82842712474619 2.828427124746189 3.0
  endloop
endfacet
facet normal -0.0 -0.0 1.0
  outer loop
    vertex 33.0 5.196152422706631 3.0
    vertex 32.82842712474619 2.828427124746189 3.0
    vertex 33.46410161513775 1.999999999999999 3.0
  endloop
endfacet
facet normal -0.0 -0.0 1.0
  outer loop
    vertex 33.0 5.196152422706631 3.0
    vertex 33.46410161513775 1.999999999999999 3.0
    vertex 34.242640687119284 4.242640687119286 3.0
  endloop
endfacet
facet normal -0.0 -0.0 1.0
  outer loop
    vertex 34.242640687119284 4.242640687119286 3.0
    vertex 33.46410161513775 1.999999999999999 3.0
    vertex 33.86370330515627 1.0352761804100825 3.0
  endloop
endfacet
facet normal -0.0 -0.0 1.0
  outer loop
    vertex 34.242640687119284 4.242640687119286 3.0
    vertex 33.86370330515627 1.0352761804100825 3.0
    vertex 34.0 0.0 3.0
  endloop
endfacet
facet normal -0.0 -0.0 1.0
  outer loop
    vertex 34.242640687119284 4.242640687119286 3.0
    vertex 34.0 0.0 3.0
    vertex 34.242640687119284 -4.2426406871192865 3.0
  endloop
endfacet
facet normal -0.0 -0.0 1.0
  outer loop
    vertex 34.242640687119284 4.242640687119286 3.0
    vertex 34.242640687119284 -4.2426406871192865 3.0
    vertex 35.19615242270663 -3.000000000000003 3.0
  endloop
endfacet
facet normal -0.0 -0.0 1.0
  outer loop
    vertex 34.242640687119284 4.242640687119286 3.0
    vertex 35.19615242270663 -3.000000000000003 3.0
    vertex 35.19615242270663 3.0 3.0
  endloop
endfacet
facet normal -0.0 -0.0 1.0
  outer loop
    vertex 35.19615242270663 3.0 3.0
    vertex 35.19615242270663 -3.000000000000003 3.0
    vertex 35.79555495773441 -1.5529142706151295 3.0
  endloop
endfacet
facet normal -0.0 -0.0 1.0
  outer loop
    vertex 35.19615242270663 3.0 3.0
    vertex 35.79555495773441 -1.5529142706151295 3.0
    vertex 35.79555495773441 1.5529142706151244 3.0
  endloop
endfacet
facet normal -0.0 -0.0 1.0
  outer loop
    vertex 35.79555495773441 1.5529142706151244 3.0
    vertex 35.79555495773441 -1.5529142706151295 3.0
    vertex 36.0 0.0 3.0
  endloop
endfacet
facet normal -0.0 -0.0 1.0
  outer loop
    vertex -5.79555495773441 -1.5529142706151222 3.0
    vertex -5.795554957734409 1.5529142706151262 3.0
    vertex -6.0 7.34788079488412e-16 3.0
  endloop
endfacet
facet normal -0.0 -0.0 1.0
  outer loop
    vertex -5.795554957734409 1.5529142706151262 3.0
    vertex -5.79555495773441 -1.5529142706151222 3.0
    vertex -5.196152422706632 -2.9999999999999982 3.0
  endloop
endfacet
facet normal -0.0 -0.0 1.0
  outer loop
    vertex -5.795554957734409 1.5529142706151262 3.0
    vertex -5.196152422706632 -2.9999999999999982 3.0
    vertex -5.196152422706631 3.000000000000002 3.0
  endloop
endfacet
facet normal -0.0 -0.0 1.0
  outer loop
    vertex -5.196152422706631 3.000000000000002 3.0
    vertex -5.196152422706632 -2.9999999999999982 3.0
    vertex -4.242640687119287 -4.242640687119283 3.0
  endloop
endfacet
facet normal -0.0 -0.0 1.0
  outer loop
    vertex -5.196152422706631 3.000000000000002 3.0
    vertex -4.242640687119287 -4.242640687119283 3.0
    vertex -4.242640687119285 4.242640687119286 3.0
  endloop
endfacet
facet normal -0.0 -0.0 1.0
  outer loop
    vertex -4.242640687119285 4.242640687119286 3.0
    vertex -4.242640687119287 -4.242640687119283 3.0
    vertex -3.999999999999999 4.898587196589412e-16 3.0
  endloop
endfacet
facet normal -0.0 -0.0 1.0
  outer loop
    vertex -3.999999999999999 4.898587196589412e-16 3.0
    vertex -4.242640687119287 -4.242640687119283 3.0
    vertex -3.863703305156273 -1.0352761804100814 3.0
  endloop
endfacet
facet normal -0.0 -0.0 1.0
  outer loop
    vertex -3.863703305156273 -1.0352761804100814 3.0
    vertex -4.242640687119287 -4.242640687119283 3.0
    vertex -3.0000000000000027 -5.196152422706631 3.0
  endloop
endfacet
facet normal -0.0 -0.0 1.0
  outer loop
    vertex -3.863703305156273 -1.0352761804100814 3.0
    vertex -3.0000000000000027 -5.196152422706631 3.0
    vertex -3.4641016151377544 -1.999999999999999 3.0
  endloop
endfacet
facet normal -0.0 -0.0 1.0
  outer loop
    vertex -3.4641016151377544 -1.999999999999999 3.0
    vertex -3.0000000000000027 -5.196152422706631 3.0
    vertex -2.828427124746191 -2.8284271247461885 3.0
  endloop
endfacet
facet normal -0.0 -0.0 1.0
  outer loop
    vertex -2.828427124746191 -2.8284271247461885 3.0
    vertex -3.0000000000000027 -5.196152422706631 3.0
    vertex -1.552914270615129 -5.795554957734409 3.0
  endloop
endfacet
facet normal -0.0 -0.0 1.0
  outer loop
    vertex -2.828427124746191 -2.8284271247461885 3.0
    vertex -1.552914270615129 -5.795554957734409 3.0
    vertex -2.0000000000000013 -3.464101615137753 3.0
  endloop
endfacet
facet normal -0.0 -0.0 1.0
  outer loop
    vertex -2.0000000000000013 -3.464101615137753 3.0
    vertex -1.552914270615129 -5.795554957734409 3.0
    vertex -1.0352761804100858 -3.863703305156272 3.0
  endloop
endfacet
facet normal -0.0 -0.0 1.0
  outer loop
    vertex -1.0352761804100858 -3.863703305156272 3.0
    vertex -1.552914270615129 -5.795554957734409 3.0
    vertex -1.1021821192326177e-15 -6.0 3.0
  endloop
endfacet
facet normal -0.0 -0.0 1.0
  outer loop
    vertex -1.0352761804100858 -3.863703305156272 3.0
    vertex -1.1021821192326177e-15 -6.0 3.0
    vertex -7.347880794884117e-16 -3.9999999999999996 3.0
  endloop
endfacet
facet normal -0.0 -0.0 1.0
  outer loop
    vertex -7.347880794884117e-16 -3.9999999999999996 3.0
    vertex -1.1021821192326177e-15 -6.0 3.0
    vertex 1.5529142706151216 -5.79555495773441 3.0
  endloop
endfacet
facet normal -0.0 -0.0 1.0
  outer loop
    vertex -7.347880794884117e-16 -3.9999999999999996 3.0
    vertex 1.5529142706151216 -5.79555495773441 3.0
    vertex 1.035276180410081 -3.8637033051562732 3.0
  endloop
endfacet
facet normal -0.0 -0.0 1.0
  outer loop
    vertex 1.035276180410081 -3.8637033051562732 3.0
    vertex 1.5529142706151216 -5.79555495773441 3.0
    vertex 1.9999999999999967 -3.464101615137756 3.0
  endloop
endfacet
facet normal -0.0 -0.0 1.0
  outer loop
    vertex 1.9999999999999967 -3.464101615137756 3.0
    vertex 1.5529142706151216 -5.79555495773441 3.0
    vertex 2.9999999999999956 -5.196152422706635 3.0
  endloop
endfacet
facet normal -0.0 -0.0 1.0
  outer loop
    vertex 1.9999999999999967 -3.464101615137756 3.0
    vertex 2.9999999999999956 -5.196152422706635 3.0
    vertex 2.8284271247461885 -2.8284271247461903 3.0
  endloop
endfacet
facet normal -0.0 -0.0 1.0
  outer loop
    vertex 2.8284271247461885 -2.8284271247461903 3.0
    vertex 2.9999999999999956 -5.196152422706635 3.0
    vertex 3.4641016151377526 -2.0000000000000018 3.0
  endloop
endfacet
facet normal -0.0 -0.0 1.0
  outer loop
    vertex 3.4641016151377526 -2.0000000000000018 3.0
    vertex 2.9999999999999956 -5.196152422706635 3.0
    vertex 4.242640687119284 -4.2426406871192865 3.0
  endloop
endfacet
facet normal -0.0 -0.0 1.0
  outer loop
    vertex 3.4641016151377526 -2.0000000000000018 3.0
    vertex 4.242640687119284 -4.2426406871192865 3.0
    vertex 3.8637033051562715 -1.035276180410086 3.0
  endloop
endfacet
facet normal -0.0 -0.0 1.0
  outer loop
    vertex 3.8637033051562715 -1.035276180410086 3.0
    vertex 4.242640687119284 -4.2426406871192865 3.0
    vertex 3.999999999999999 0.0 3.0
  endloop
endfacet
facet normal 0.6087614290087203 0.7933533402912354 0.0
  outer loop
    vertex 3.0000000000000004 5.196152422706631 3.0
    vertex 4.242640687119285 4.242640687119286 0.0
    vertex 3.0000000000000004 5.196152422706631 0.0
  endloop
endfacet
facet normal 0.6087614290087203 0.7933533402912354 0.0
  outer loop
    vertex 4.242640687119285 4.242640687119286 0.0
    vertex 3.0000000000000004 5.196152422706631 3.0
    vertex 4.242640687119285 4.242640687119286 3.0
  endloop
endfacet
facet normal -0.0 1.0 0.0
  outer loop
    vertex 4.242640687119285 4.242640687119286 3.0
    vertex 25.757359312880716 4.242640687119286 0.0
    vertex 4.242640687119285 4.242640687119286 0.0
  endloop
endfacet
facet normal -0.0 1.0 0.0
  outer loop
    vertex 25.757359312880716 4.242640687119286 0.0
    vertex 4.242640687119285 4.242640687119286 3.0
    vertex 25.757359312880716 4.242640687119286 3.0
  endloop
endfacet
facet normal -0.6087614290087208 0.7933533402912352 0.0
  outer loop
    vertex 25.757359312880716 4.242640687119286 3.0
    vertex 27.0 5.196152422706632 0.0
    vertex 25.757359312880716 4.242640687119286 0.0
  endloop
endfacet
facet normal -0.6087614290087208 0.7933533402912352 0.0
  outer loop
    vertex 27.0 5.196152422706632 0.0
    vertex 25.757359312880716 4.242640687119286 3.0
    vertex 27.0 5.196152422706632 3.0
  endloop
endfacet
facet normal -0.3826834323650902 0.9238795325112867 0.0
  outer loop
    vertex 27.0 5.196152422706632 3.0
    vertex 28.447085729384877 5.79555495773441 0.0
    vertex 27.0 5.196152422706632 0.0
  endloop
endfacet
facet normal -0.3826834323650902 0.9238795325112867 0.0
  outer loop
    vertex 28.447085729384877 5.79555495773441 0.0
    vertex 27.0 5.196152422706632 3.0
    vertex 28.447085729384877 5.79555495773441 3.0
  endloop
endfacet
facet normal -0.13052619222005124 0.9914448613738105 0.0
  outer loop
    vertex 28.447085729384877 5.79555495773441 3.0
    vertex 30.0 6.0 0.0
    vertex 28.447085729384877 5.79555495773441 0.0
  endloop
endfacet
facet normal -0.13052619222005124 0.9914448613738105 0.0
  outer loop
    vertex 30.0 6.0 0.0
    vertex 28.447085729384877 5.79555495773441 3.0
    vertex 30.0 6.0 3.0
  endloop
endfacet
facet normal 0.13052619222005168 0.9914448613738105 0.0
  outer loop
    vertex 30.0 6.0 3.0
    vertex 31.552914270615126 5.79555495773441 0.0
    vertex 30.0 6.0 0.0
  endloop
endfacet
facet normal 0.13052619222005168 0.9914448613738105 0.0
  outer loop
    vertex 31.552914270615126 5.79555495773441 0.0
    vertex 30.0 6.0 3.0
    vertex 31.552914270615126 5.79555495773441 3.0
  endloop
endfacet
facet normal 0.3826834323650902 0.9238795325112867 0.0
  outer loop
    vertex 31.552914270615126 5.79555495773441 3.0
    vertex 33.0 5.196152422706631 0.0
    vertex 31.552914270615126 5.79555495773441 0.0
  endloop
endfacet
facet normal 0.3826834323650902 0.9238795325112867 0.0
  outer loop
    vertex 33.0 5.196152422706631 0.0
    vertex 31.552914270615126 5.79555495773441 3.0
    vertex 33.0 5.196152422706631 3.0
  endloop
endfacet
facet normal 0.6087614290087204 0.7933533402912353 0.0
  outer loop
    vertex 33.0 5.196152422706631 3.0
    vertex 34.242640687119284 4.242640687119286 0.0
    vertex 33.0 5.196152422706631 0.0
  endloop
endfacet
facet normal 0.6087614290087204 0.7933533402912353 0.0
  outer loop
    vertex 34.242640687119284 4.242640687119286 0.0
    vertex 33.0 5.196152422706631 3.0
    vertex 34.242640687119284 4.242640687119286 3.0
  endloop
endfacet
facet normal 0.7933533402912359 0.6087614290087197 0.0
  outer loop
    vertex 34.242640687119284 4.242640687119286 0.0
    vertex 35.19615242270663 3.0 3.0
    vertex 35.19615242270663 3.0 0.0
  endloop
endfacet
facet normal 0.7933533402912359 0.6087614290087197 0.0
  outer loop
    vertex 35.19615242270663 3.0 3.0
    vertex 34.242640687119284 4.242640687119286 0.0
    vertex 34.242640687119284 4.242640687119286 3.0
  endloop
endfacet
facet normal 0.9238795325112861 0.38268343236509117 0.0
  outer loop
    vertex 35.19615242270663 3.0 0.0
    vertex 35.79555495773441 1.5529142706151244 3.0
    vertex 35.79555495773441 1.5529142706151244 0.0
  endloop
endfacet
facet normal 0.9238795325112861 0.38268343236509117 0.0
  outer loop
    vertex 35.79555495773441 1.5529142706151244 3.0
    vertex 35.19615242270663 3.0 0.0
    vertex 35.19615242270663 3.0 3.0
  endloop
endfacet
facet normal 0.9914448613738104 0.13052619222005174 0.0
  outer loop
    vertex 35.79555495773441 1.5529142706151244 0.0
    vertex 36.0 0.0 3.0
    vertex 36.0 0.0 0.0
  endloop
endfacet
facet normal 0.9914448613738104 0.13052619222005174 0.0
  outer loop
    vertex 36.0 0.0 3.0
    vertex 35.79555495773441 1.5529142706151244 0.0
    vertex 35.79555495773441 1.5529142706151244 3.0
  endloop
endfacet
facet normal 0.9914448613738106 -0.13052619222005135 0.0
  outer loop
    vertex 36.0 0.0 0.0
    vertex 35.79555495773441 -1.5529142706151295 3.0
    vertex 35.79555495773441 -1.5529142706151295 0.0
  endloop
endfacet
facet normal 0.9914448613738106 -0.13052619222005135 0.0
  outer loop
    vertex 35.79555495773441 -1.5529142706151295 3.0
    vertex 36.0 0.0 0.0
    vertex 36.0 0.0 3.0
  endloop
endfacet
facet normal 0.9238795325112861 -0.38268343236509167 0.0
  outer loop
    vertex 35.79555495773441 -1.5529142706151295 0.0
    vertex 35.19615242270663 -3.000000000000003 3.0
    vertex 35.19615242270663 -3.000000000000003 0.0
  endloop
endfacet
facet normal 0.9238795325112861 -0.38268343236509167 0.0
  outer loop
    vertex 35.19615242270663 -3.000000000000003 3.0
    vertex 35.79555495773441 -1.5529142706151295 0.0
    vertex 35.79555495773441 -1.5529142706151295 3.0
  endloop
endfacet
facet normal 0.7933533402912354 -0.6087614290087204 0.0
  outer loop
    vertex 35.19615242270663 -3.000000000000003 0.0
    vertex 34.242640687119284 -4.2426406871192865 3.0
    vertex 34.242640687119284 -4.2426406871192865 0.0
  endloop
endfacet
facet normal 0.7933533402912354 -0.6087614290087204 0.0
  outer loop
    vertex 34.242640687119284 -4.2426406871192865 3.0
    vertex 35.19615242270663 -3.000000000000003 0.0
    vertex 35.19615242270663 -3.000000000000003 3.0
  endloop
endfacet
facet normal 0.6087614290087195 -0.7933533402912359 0.0
  outer loop
    vertex 34.242640687119284 -4.2426406871192865 3.0
    vertex 32.99999999999999 -5.196152422706635 0.0
    vertex 34.242640687119284 -4.2426406871192865 0.0
  endloop
endfacet
facet normal 0.6087614290087195 -0.7933533402912359 0.0
  outer loop
    vertex 32.99999999999999 -5.196152422706635 0.0
    vertex 34.242640687119284 -4.2426406871192865 3.0
    vertex 32.99999999999999 -5.196152422706635 3.0
  endloop
endfacet
facet normal 0.38268343236508906 -0.9238795325112872 0.0
  outer loop
    vertex 32.99999999999999 -5.196152422706635 3.0
    vertex 31.552914270615123 -5.79555495773441 0.0
    vertex 32.99999999999999 -5.196152422706635 0.0
  endloop
endfacet
facet normal 0.38268343236508906 -0.9238795325112872 0.0
  outer loop
    vertex 31.552914270615123 -5.79555495773441 0.0
    vertex 32.99999999999999 -5.196152422706635 3.0
    vertex 31.552914270615123 -5.79555495773441 3.0
  endloop
endfacet
facet normal 0.13052619222005168 -0.9914448613738104 0.0
  outer loop
    vertex 31.552914270615123 -5.79555495773441 3.0
    vertex 30.0 -6.0 0.0
    vertex 31.552914270615123 -5.79555495773441 0.0
  endloop
endfacet
facet normal 0.13052619222005168 -0.9914448613738104 0.0
  outer loop
    vertex 30.0 -6.0 0.0
    vertex 31.552914270615123 -5.79555495773441 3.0
    vertex 30.0 -6.0 3.0
  endloop
endfacet
facet normal -0.13052619222005166 -0.9914448613738104 -0.0
  outer loop
    vertex 30.0 -6.0 3.0
    vertex 28.44708572938487 -5.795554957734409 0.0
    vertex 30.0 -6.0 0.0
  endloop
endfacet
facet normal -0.13052619222005166 -0.9914448613738104 -0.0
  outer loop
    vertex 28.44708572938487 -5.795554957734409 0.0
    vertex 30.0 -6.0 3.0
    vertex 28.44708572938487 -5.795554957734409 3.0
  endloop
endfacet
facet normal -0.3826834323650915 -0.9238795325112862 -0.0
  outer loop
    vertex 28.44708572938487 -5.795554957734409 3.0
    vertex 27.0 -5.196152422706631 0.0
    vertex 28.44708572938487 -5.795554957734409 0.0
  endloop
endfacet
facet normal -0.3826834323650915 -0.9238795325112862 -0.0
  outer loop
    vertex 27.0 -5.196152422706631 0.0
    vertex 28.44708572938487 -5.795554957734409 3.0
    vertex 27.0 -5.196152422706631 3.0
  endloop
endfacet
facet normal -0.6087614290087213 -0.7933533402912346 -0.0
  outer loop
    vertex 27.0 -5.196152422706631 3.0
    vertex 25.757359312880716 -4.242640687119283 0.0
    vertex 27.0 -5.196152422706631 0.0
  endloop
endfacet
facet normal -0.6087614290087213 -0.7933533402912346 -0.0
  outer loop
    vertex 25.757359312880716 -4.242640687119283 0.0
    vertex 27.0 -5.196152422706631 3.0
    vertex 25.757359312880716 -4.242640687119283 3.0
  endloop
endfacet
facet normal 1.638393773351112e-16 -1.0 0.0
  outer loop
    vertex 25.757359312880716 -4.242640687119283 3.0
    vertex 4.242640687119284 -4.2426406871192865 0.0
    vertex 25.757359312880716 -4.242640687119283 0.0
  endloop
endfacet
facet normal 1.638393773351112e-16 -1.0 0.0
  outer loop
    vertex 4.242640687119284 -4.2426406871192865 0.0
    vertex 25.757359312880716 -4.242640687119283 3.0
    vertex 4.242640687119284 -4.2426406871192865 3.0
  endloop
endfacet
facet normal 0.6087614290087201 -0.7933533402912355 0.0
  outer loop
    vertex 4.242640687119284 -4.2426406871192865 3.0
    vertex 2.9999999999999956 -5.196152422706635 0.0
    vertex 4.242640687119284 -4.2426406871192865 0.0
  endloop
endfacet
facet normal 0.6087614290087201 -0.7933533402912355 0.0
  outer loop
    vertex 2.9999999999999956 -5.196152422706635 0.0
    vertex 4.242640687119284 -4.2426406871192865 3.0
    vertex 2.9999999999999956 -5.196152422706635 3.0
  endloop
endfacet
facet normal 0.3826834323650892 -0.9238795325112871 0.0
  outer loop
    vertex 2.9999999999999956 -5.196152422706635 3.0
    vertex 1.5529142706151216 -5.79555495773441 0.0
    vertex 2.9999999999999956 -5.196152422706635 0.0
  endloop
endfacet
facet normal 0.3826834323650892 -0.9238795325112871 0.0
  outer loop
    vertex 1.5529142706151216 -5.79555495773441 0.0
    vertex 2.9999999999999956 -5.196152422706635 3.0
    vertex 1.5529142706151216 -5.79555495773441 3.0
  endloop
endfacet
facet normal 0.13052619222005146 -0.9914448613738105 0.0
  outer loop
    vertex 1.5529142706151216 -5.79555495773441 3.0
    vertex -1.1021821192326177e-15 -6.0 0.0
    vertex 1.5529142706151216 -5.79555495773441 0.0
  endloop
endfacet
facet normal 0.13052619222005146 -0.9914448613738105 0.0
  outer loop
    vertex -1.1021821192326177e-15 -6.0 0.0
    vertex 1.5529142706151216 -5.79555495773441 3.0
    vertex -1.1021821192326177e-15 -6.0 3.0
  endloop
endfacet
facet normal -0.1305261922200519 -0.9914448613738104 -0.0
  outer loop
    vertex -1.1021821192326177e-15 -6.0 3.0
    vertex -1.552914270615129 -5.795554957734409 0.0
    vertex -1.1021821192326177e-15 -6.0 0.0
  endloop
endfacet
facet normal -0.1305261922200519 -0.9914448613738104 -0.0
  outer loop
    vertex -1.552914270615129 -5.795554957734409 0.0
    vertex -1.1021821192326177e-15 -6.0 3.0
    vertex -1.552914270615129 -5.795554957734409 3.0
  endloop
endfacet
facet normal -0.38268343236509045 -0.9238795325112866 -0.0
  outer loop
    vertex -1.552914270615129 -5.795554957734409 3.0
    vertex -3.0000000000000027 -5.196152422706631 0.0
    vertex -1.552914270615129 -5.795554957734409 0.0
  endloop
endfacet
facet normal -0.38268343236509045 -0.9238795325112866 -0.0
  outer loop
    vertex -3.0000000000000027 -5.196152422706631 0.0
    vertex -1.552914270615129 -5.795554957734409 3.0
    vertex -3.0000000000000027 -5.196152422706631 3.0
  endloop
endfacet
facet normal -0.6087614290087212 -0.7933533402912347 -0.0
  outer loop
    vertex -3.0000000000000027 -5.196152422706631 3.0
    vertex -4.242640687119287 -4.242640687119283 0.0
    vertex -3.0000000000000027 -5.196152422706631 0.0
  endloop
endfacet
facet normal -0.6087614290087212 -0.7933533402912347 -0.0
  outer loop
    vertex -4.242640687119287 -4.242640687119283 0.0
    vertex -3.0000000000000027 -5.196152422706631 3.0
    vertex -4.242640687119287 -4.242640687119283 3.0
  endloop
endfacet
facet normal -0.7933533402912357 -0.6087614290087201 -0.0
  outer loop
    vertex -5.196152422706632 -2.9999999999999982 3.0
    vertex -4.242640687119287 -4.242640687119283 0.0
    vertex -4.242640687119287 -4.242640687119283 3.0
  endloop
endfacet
facet normal -0.7933533402912357 -0.6087614290087201 -0.0
  outer loop
    vertex -4.242640687119287 -4.242640687119283 0.0
    vertex -5.196152422706632 -2.9999999999999982 3.0
    vertex -5.196152422706632 -2.9999999999999982 0.0
  endloop
endfacet
facet normal -0.9238795325112868 -0.38268343236508945 -0.0
  outer loop
    vertex -5.79555495773441 -1.5529142706151222 3.0
    vertex -5.196152422706632 -2.9999999999999982 0.0
    vertex -5.196152422706632 -2.9999999999999982 3.0
  endloop
endfacet
facet normal -0.9238795325112868 -0.38268343236508945 -0.0
  outer loop
    vertex -5.196152422706632 -2.9999999999999982 0.0
    vertex -5.79555495773441 -1.5529142706151222 3.0
    vertex -5.79555495773441 -1.5529142706151222 0.0
  endloop
endfacet
facet normal -0.9914448613738104 -0.13052619222005143 -0.0
  outer loop
    vertex -6.0 7.34788079488412e-16 3.0
    vertex -5.79555495773441 -1.5529142706151222 0.0
    vertex -5.79555495773441 -1.5529142706151222 3.0
  endloop
endfacet
facet normal -0.9914448613738104 -0.13052619222005143 -0.0
  outer loop
    vertex -5.79555495773441 -1.5529142706151222 0.0
    vertex -6.0 7.34788079488412e-16 3.0
    vertex -6.0 7.34788079488412e-16 0.0
  endloop
endfacet
facet normal -0.9914448613738104 0.13052619222005166 0.0
  outer loop
    vertex -5.795554957734409 1.5529142706151262 3.0
    vertex -6.0 7.34788079488412e-16 0.0
    vertex -6.0 7.34788079488412e-16 3.0
  endloop
endfacet
facet normal -0.9914448613738104 0.13052619222005166 0.0
  outer loop
    vertex -6.0 7.34788079488412e-16 0.0
    vertex -5.795554957734409 1.5529142706151262 3.0
    vertex -5.795554957734409 1.5529142706151262 0.0
  endloop
endfacet
facet normal -0.9238795325112867 0.3826834323650899 0.0
  outer loop
    vertex -5.196152422706631 3.000000000000002 3.0
    vertex -5.795554957734409 1.5529142706151262 0.0
    vertex -5.795554957734409 1.5529142706151262 3.0
  endloop
endfacet
facet normal -0.9238795325112867 0.3826834323650899 0.0
  outer loop
    vertex -5.795554957734409 1.5529142706151262 0.0
    vertex -5.196152422706631 3.000000000000002 3.0
    vertex -5.196152422706631 3.000000000000002 0.0
  endloop
endfacet
facet normal -0.793353340291235 0.608761429008721 0.0
  outer loop
    vertex -4.242640687119285 4.242640687119286 3.0
    vertex -5.196152422706631 3.000000000000002 0.0
    vertex -5.196152422706631 3.000000000000002 3.0
  endloop
endfacet
facet normal -0.793353340291235 0.608761429008721 0.0
  outer loop
    vertex -5.196152422706631 3.000000000000002 0.0
    vertex -4.242640687119285 4.242640687119286 3.0
    vertex -4.242640687119285 4.242640687119286 0.0
  endloop
endfacet
facet normal -0.6087614290087202 0.7933533402912356 0.0
  outer loop
    vertex -4.242640687119285 4.242640687119286 3.0
    vertex -2.9999999999999982 5.196152422706632 0.0
    vertex -4.242640687119285 4.242640687119286 0.0
  endloop
endfacet
facet normal -0.6087614290087202 0.7933533402912356 0.0
  outer loop
    vertex -2.9999999999999982 5.196152422706632 0.0
    vertex -4.242640687119285 4.242640687119286 3.0
    vertex -2.9999999999999982 5.196152422706632 3.0
  endloop
endfacet
facet normal -0.3826834323650902 0.9238795325112866 0.0
  outer loop
    vertex -2.9999999999999982 5.196152422706632 3.0
    vertex -1.5529142706151238 5.79555495773441 0.0
    vertex -2.9999999999999982 5.196152422706632 0.0
  endloop
endfacet
facet normal -0.3826834323650902 0.9238795325112866 0.0
  outer loop
    vertex -1.5529142706151238 5.79555495773441 0.0
    vertex -2.9999999999999982 5.196152422706632 3.0
    vertex -1.5529142706151238 5.79555495773441 3.0
  endloop
endfacet
facet normal -0.13052619222005135 0.9914448613738105 0.0
  outer loop
    vertex -1.5529142706151238 5.79555495773441 3.0
    vertex 3.6739403974420594e-16 6.0 0.0
    vertex -1.5529142706151238 5.79555495773441 0.0
  endloop
endfacet
facet normal -0.13052619222005135 0.9914448613738105 0.0
  outer loop
    vertex 3.6739403974420594e-16 6.0 0.0
    vertex -1.5529142706151238 5.79555495773441 3.0
    vertex 3.6739403974420594e-16 6.0 3.0
  endloop
endfacet
facet normal 0.13052619222005168 0.9914448613738105 0.0
  outer loop
    vertex 3.6739403974420594e-16 6.0 3.0
    vertex 1.5529142706151258 5.79555495773441 0.0
    vertex 3.6739403974420594e-16 6.0 0.0
  endloop
endfacet
facet normal 0.13052619222005168 0.9914448613738105 0.0
  outer loop
    vertex 1.5529142706151258 5.79555495773441 0.0
    vertex 3.6739403974420594e-16 6.0 3.0
    vertex 1.5529142706151258 5.79555495773441 3.0
  endloop
endfacet
facet normal 0.3826834323650902 0.9238795325112867 0.0
  outer loop
    vertex 1.5529142706151258 5.79555495773441 3.0
    vertex 3.0000000000000004 5.196152422706631 0.0
    vertex 1.5529142706151258 5.79555495773441 0.0
  endloop
endfacet
facet normal 0.3826834323650902 0.9238795325112867 0.0
  outer loop
    vertex 3.0000000000000004 5.196152422706631 0.0
    vertex 1.5529142706151258 5.79555495773441 3.0
    vertex 3.0000000000000004 5.196152422706631 3.0
  endloop
endfacet
facet normal -0.7933533402912356 -0.6087614290087202 -0.0
  outer loop
    vertex 2.82842712474619 2.8284271247461903 3.0
    vertex 3.464101615137754 1.9999999999999996 0.0
    vertex 3.464101615137754 1.9999999999999996 3.0
  endloop
endfacet
facet normal -0.7933533402912356 -0.6087614290087202 -0.0
  outer loop
    vertex 3.464101615137754 1.9999999999999996 0.0
    vertex 2.82842712474619 2.8284271247461903 3.0
    vertex 2.82842712474619 2.8284271247461903 0.0
  endloop
endfacet
facet normal -0.6087614290087203 -0.7933533402912356 -0.0
  outer loop
    vertex 2.82842712474619 2.8284271247461903 3.0
    vertex 1.9999999999999998 3.464101615137754 0.0
    vertex 2.82842712474619 2.8284271247461903 0.0
  endloop
endfacet
facet normal -0.6087614290087203 -0.7933533402912356 -0.0
  outer loop
    vertex 1.9999999999999998 3.464101615137754 0.0
    vertex 2.82842712474619 2.8284271247461903 3.0
    vertex 1.9999999999999998 3.464101615137754 3.0
  endloop
endfacet
facet normal -0.3826834323650902 -0.9238795325112865 -0.0
  outer loop
    vertex 1.9999999999999998 3.464101615137754 3.0
    vertex 1.0352761804100836 3.863703305156273 0.0
    vertex 1.9999999999999998 3.464101615137754 0.0
  endloop
endfacet
facet normal -0.3826834323650902 -0.9238795325112865 -0.0
  outer loop
    vertex 1.0352761804100836 3.863703305156273 0.0
    vertex 1.9999999999999998 3.464101615137754 3.0
    vertex 1.0352761804100836 3.863703305156273 3.0
  endloop
endfacet
facet normal -0.13052619222005168 -0.9914448613738104 -0.0
  outer loop
    vertex 1.0352761804100836 3.863703305156273 3.0
    vertex 2.449293598294706e-16 3.9999999999999996 0.0
    vertex 1.0352761804100836 3.863703305156273 0.0
  endloop
endfacet
facet normal -0.13052619222005168 -0.9914448613738104 -0.0
  outer loop
    vertex 2.449293598294706e-16 3.9999999999999996 0.0
    vertex 1.0352761804100836 3.863703305156273 3.0
    vertex 2.449293598294706e-16 3.9999999999999996 3.0
  endloop
endfacet
facet normal 0.1305261922200518 -0.9914448613738104 0.0
  outer loop
    vertex 2.449293598294706e-16 3.9999999999999996 3.0
    vertex -1.0352761804100823 3.863703305156273 0.0
    vertex 2.449293598294706e-16 3.9999999999999996 0.0
  endloop
endfacet
facet normal 0.1305261922200518 -0.9914448613738104 0.0
  outer loop
    vertex -1.0352761804100823 3.863703305156273 0.0
    vertex 2.449293598294706e-16 3.9999999999999996 3.0
    vertex -1.0352761804100823 3.863703305156273 3.0
  endloop
endfacet
facet normal 0.3826834323650897 -0.923879532511287 0.0
  outer loop
    vertex -1.0352761804100823 3.863703305156273 3.0
    vertex -1.9999999999999984 3.4641016151377544 0.0
    vertex -1.0352761804100823 3.863703305156273 0.0
  endloop
endfacet
facet normal 0.3826834323650897 -0.923879532511287 0.0
  outer loop
    vertex -1.9999999999999984 3.4641016151377544 0.0
    vertex -1.0352761804100823 3.863703305156273 3.0
    vertex -1.9999999999999984 3.4641016151377544 3.0
  endloop
endfacet
facet normal 0.6087614290087202 -0.7933533402912355 0.0
  outer loop
    vertex -1.9999999999999984 3.4641016151377544 3.0
    vertex -2.8284271247461894 2.8284271247461903 0.0
    vertex -1.9999999999999984 3.4641016151377544 0.0
  endloop
endfacet
facet normal 0.6087614290087202 -0.7933533402912355 0.0
  outer loop
    vertex -2.8284271247461894 2.8284271247461903 0.0
    vertex -1.9999999999999984 3.4641016151377544 3.0
    vertex -2.8284271247461894 2.8284271247461903 3.0
  endloop
endfacet
facet normal 0.793353340291235 -0.6087614290087208 0.0
  outer loop
    vertex -2.8284271247461894 2.8284271247461903 0.0
    vertex -3.464101615137753 2.0000000000000013 3.0
    vertex -3.464101615137753 2.0000000000000013 0.0
  endloop
endfacet
facet normal 0.793353340291235 -0.6087614290087208 0.0
  outer loop
    vertex -3.464101615137753 2.0000000000000013 3.0
    vertex -2.8284271247461894 2.8284271247461903 0.0
    vertex -2.8284271247461894 2.8284271247461903 3.0
  endloop
endfacet
facet normal 0.9238795325112867 -0.3826834323650899 0.0
  outer loop
    vertex -3.464101615137753 2.0000000000000013 0.0
    vertex -3.863703305156272 1.035276180410084 3.0
    vertex -3.863703305156272 1.035276180410084 0.0
  endloop
endfacet
facet normal 0.9238795325112867 -0.3826834323650899 0.0
  outer loop
    vertex -3.863703305156272 1.035276180410084 3.0
    vertex -3.464101615137753 2.0000000000000013 0.0
    vertex -3.464101615137753 2.0000000000000013 3.0
  endloop
endfacet
facet normal 0.9914448613738104 -0.13052619222005168 0.0
  outer loop
    vertex -3.863703305156272 1.035276180410084 0.0
    vertex -3.999999999999999 4.898587196589412e-16 3.0
    vertex -3.999999999999999 4.898587196589412e-16 0.0
  endloop
endfacet
facet normal 0.9914448613738104 -0.13052619222005168 0.0
  outer loop
    vertex -3.999999999999999 4.898587196589412e-16 3.0
    vertex -3.863703305156272 1.035276180410084 0.0
    vertex -3.863703305156272 1.035276180410084 3.0
  endloop
endfacet
facet normal 0.9914448613738106 0.13052619222005124 0.0
  outer loop
    vertex -3.999999999999999 4.898587196589412e-16 0.0
    vertex -3.863703305156273 -1.0352761804100814 3.0
    vertex -3.863703305156273 -1.0352761804100814 0.0
  endloop
endfacet
facet normal 0.9914448613738106 0.13052619222005124 0.0
  outer loop
    vertex -3.863703305156273 -1.0352761804100814 3.0
    vertex -3.999999999999999 4.898587196589412e-16 0.0
    vertex -3.999999999999999 4.898587196589412e-16 3.0
  endloop
endfacet
facet normal 0.9238795325112871 0.38268343236508934 0.0
  outer loop
    vertex -3.863703305156273 -1.0352761804100814 0.0
    vertex -3.4641016151377544 -1.999999999999999 3.0
    vertex -3.4641016151377544 -1.999999999999999 0.0
  endloop
endfacet
facet normal 0.9238795325112871 0.38268343236508934 0.0
  outer loop
    vertex -3.4641016151377544 -1.999999999999999 3.0
    vertex -3.863703305156273 -1.0352761804100814 0.0
    vertex -3.863703305156273 -1.0352761804100814 3.0
  endloop
endfacet
facet normal 0.7933533402912355 0.6087614290087203 0.0
  outer loop
    vertex -3.4641016151377544 -1.999999999999999 0.0
    vertex -2.828427124746191 -2.8284271247461885 3.0
    vertex -2.828427124746191 -2.8284271247461885 0.0
  endloop
endfacet
facet normal 0.7933533402912355 0.6087614290087203 0.0
  outer loop
    vertex -2.828427124746191 -2.8284271247461885 3.0
    vertex -3.4641016151377544 -1.999999999999999 0.0
    vertex -3.4641016151377544 -1.999999999999999 3.0
  endloop
endfacet
facet normal 0.6087614290087209 0.7933533402912349 0.0
  outer loop
    vertex -2.828427124746191 -2.8284271247461885 3.0
    vertex -2.0000000000000013 -3.464101615137753 0.0
    vertex -2.828427124746191 -2.8284271247461885 0.0
  endloop
endfacet
facet normal 0.6087614290087209 0.7933533402912349 0.0
  outer loop
    vertex -2.0000000000000013 -3.464101615137753 0.0
    vertex -2.828427124746191 -2.8284271247461885 3.0
    vertex -2.0000000000000013 -3.464101615137753 3.0
  endloop
endfacet
facet normal 0.3826834323650905 0.9238795325112865 0.0
  outer loop
    vertex -2.0000000000000013 -3.464101615137753 3.0
    vertex -1.0352761804100858 -3.863703305156272 0.0
    vertex -2.0000000000000013 -3.464101615137753 0.0
  endloop
endfacet
facet normal 0.3826834323650905 0.9238795325112865 0.0
  outer loop
    vertex -1.0352761804100858 -3.863703305156272 0.0
    vertex -2.0000000000000013 -3.464101615137753 3.0
    vertex -1.0352761804100858 -3.863703305156272 3.0
  endloop
endfacet
facet normal 0.13052619222005216 0.9914448613738104 0.0
  outer loop
    vertex -1.0352761804100858 -3.863703305156272 3.0
    vertex -7.347880794884117e-16 -3.9999999999999996 0.0
    vertex -1.0352761804100858 -3.863703305156272 0.0
  endloop
endfacet
facet normal 0.13052619222005216 0.9914448613738104 0.0
  outer loop
    vertex -7.347880794884117e-16 -3.9999999999999996 0.0
    vertex -1.0352761804100858 -3.863703305156272 3.0
    vertex -7.347880794884117e-16 -3.9999999999999996 3.0
  endloop
endfacet
facet normal -0.13052619222005127 0.9914448613738106 0.0
  outer loop
    vertex -7.347880794884117e-16 -3.9999999999999996 3.0
    vertex 1.035276180410081 -3.8637033051562732 0.0
    vertex -7.347880794884117e-16 -3.9999999999999996 0.0
  endloop
endfacet
facet normal -0.13052619222005127 0.9914448613738106 0.0
  outer loop
    vertex 1.035276180410081 -3.8637033051562732 0.0
    vertex -7.347880794884117e-16 -3.9999999999999996 3.0
    vertex 1.035276180410081 -3.8637033051562732 3.0
  endloop
endfacet
facet normal -0.3826834323650892 0.923879532511287 0.0
  outer loop
    vertex 1.035276180410081 -3.8637033051562732 3.0
    vertex 1.9999999999999967 -3.464101615137756 0.0
    vertex 1.035276180410081 -3.8637033051562732 0.0
  endloop
endfacet
facet normal -0.3826834323650892 0.923879532511287 0.0
  outer loop
    vertex 1.9999999999999967 -3.464101615137756 0.0
    vertex 1.035276180410081 -3.8637033051562732 3.0
    vertex 1.9999999999999967 -3.464101615137756 3.0
  endloop
endfacet
facet normal -0.6087614290087204 0.7933533402912355 0.0
  outer loop
    vertex 1.9999999999999967 -3.464101615137756 3.0
    vertex 2.8284271247461885 -2.8284271247461903 0.0
    vertex 1.9999999999999967 -3.464101615137756 0.0
  endloop
endfacet
facet normal -0.6087614290087204 0.7933533402912355 0.0
  outer loop
    vertex 2.8284271247461885 -2.8284271247461903 0.0
    vertex 1.9999999999999967 -3.464101615137756 3.0
    vertex 2.8284271247461885 -2.8284271247461903 3.0
  endloop
endfacet
facet normal -0.793353340291235 0.6087614290087208 0.0
  outer loop
    vertex 3.4641016151377526 -2.0000000000000018 3.0
    vertex 2.8284271247461885 -2.8284271247461903 0.0
    vertex 2.8284271247461885 -2.8284271247461903 3.0
  endloop
endfacet
facet normal -0.793353340291235 0.6087614290087208 0.0
  outer loop
    vertex 2.8284271247461885 -2.8284271247461903 0.0
    vertex 3.4641016151377526 -2.0000000000000018 3.0
    vertex 3.4641016151377526 -2.0000000000000018 0.0
  endloop
endfacet
facet normal -0.9238795325112865 0.3826834323650905 0.0
  outer loop
    vertex 3.8637033051562715 -1.035276180410086 3.0
    vertex 3.4641016151377526 -2.0000000000000018 0.0
    vertex 3.4641016151377526 -2.0000000000000018 3.0
  endloop
endfacet
facet normal -0.9238795325112865 0.3826834323650905 0.0
  outer loop
    vertex 3.4641016151377526 -2.0000000000000018 0.0
    vertex 3.8637033051562715 -1.035276180410086 3.0
    vertex 3.8637033051562715 -1.035276180410086 0.0
  endloop
endfacet
facet normal -0.9914448613738104 0.13052619222005202 0.0
  outer loop
    vertex 3.999999999999999 0.0 3.0
    vertex 3.8637033051562715 -1.035276180410086 0.0
    vertex 3.8637033051562715 -1.035276180410086 3.0
  endloop
endfacet
facet normal -0.9914448613738104 0.13052619222005202 0.0
  outer loop
    vertex 3.8637033051562715 -1.035276180410086 0.0
    vertex 3.999999999999999 0.0 3.0
    vertex 3.999999999999999 0.0 0.0
  endloop
endfacet
facet normal -0.9914448613738104 -0.13052619222005174 -0.0
  outer loop
    vertex 3.863703305156272 1.035276180410083 3.0
    vertex 3.999999999999999 0.0 0.0
    vertex 3.999999999999999 0.0 3.0
  endloop
endfacet
facet normal -0.9914448613738104 -0.13052619222005174 -0.0
  outer loop
    vertex 3.999999999999999 0.0 0.0
    vertex 3.863703305156272 1.035276180410083 3.0
    vertex 3.863703305156272 1.035276180410083 0.0
  endloop
endfacet
facet normal -0.9238795325112868 -0.38268343236508956 -0.0
  outer loop
    vertex 3.464101615137754 1.9999999999999996 3.0
    vertex 3.863703305156272 1.035276180410083 0.0
    vertex 3.863703305156272 1.035276180410083 3.0
  endloop
endfacet
facet normal -0.9238795325112868 -0.38268343236508956 -0.0
  outer loop
    vertex 3.863703305156272 1.035276180410083 0.0
    vertex 3.464101615137754 1.9999999999999996 3.0
    vertex 3.464101615137754 1.9999999999999996 0.0
  endloop
endfacet
facet normal -0.9914448613738104 -0.1305261922200518 -0.0
  outer loop
    vertex 33.86370330515627 1.0352761804100825 3.0
    vertex 34.0 0.0 0.0
    vertex 34.0 0.0 3.0
  endloop
endfacet
facet normal -0.9914448613738104 -0.1305261922200518 -0.0
  outer loop
    vertex 34.0 0.0 0.0
    vertex 33.86370330515627 1.0352761804100825 3.0
    vertex 33.86370330515627 1.0352761804100825 0.0
  endloop
endfacet
facet normal -0.9238795325112862 -0.3826834323650914 -0.0
  outer loop
    vertex 33.46410161513775 1.999999999999999 3.0
    vertex 33.86370330515627 1.0352761804100825 0.0
    vertex 33.86370330515627 1.0352761804100825 3.0
  endloop
endfacet
facet normal -0.9238795325112862 -0.3826834323650914 -0.0
  outer loop
    vertex 33.86370330515627 1.0352761804100825 0.0
    vertex 33.46410161513775 1.999999999999999 3.0
    vertex 33.46410161513775 1.999999999999999 0.0
  endloop
endfacet
facet normal -0.7933533402912375 -0.6087614290087175 -0.0
  outer loop
    vertex 32.82842712474619 2.828427124746189 3.0
    vertex 33.46410161513775 1.999999999999999 0.0
    vertex 33.46410161513775 1.999999999999999 3.0
  endloop
endfacet
facet normal -0.7933533402912375 -0.6087614290087175 -0.0
  outer loop
    vertex 33.46410161513775 1.999999999999999 0.0
    vertex 32.82842712474619 2.828427124746189 3.0
    vertex 32.82842712474619 2.828427124746189 0.0
  endloop
endfacet
facet normal -0.6087614290087207 -0.7933533402912352 -0.0
  outer loop
    vertex 32.82842712474619 2.828427124746189 3.0
    vertex 32.0 3.464101615137753 0.0
    vertex 32.82842712474619 2.828427124746189 0.0
  endloop
endfacet
facet normal -0.6087614290087207 -0.7933533402912352 -0.0
  outer loop
    vertex 32.0 3.464101615137753 0.0
    vertex 32.82842712474619 2.828427124746189 3.0
    vertex 32.0 3.464101615137753 3.0
  endloop
endfacet
facet normal -0.38268343236508956 -0.9238795325112868 -0.0
  outer loop
    vertex 32.0 3.464101615137753 3.0
    vertex 31.035276180410087 3.8637033051562715 0.0
    vertex 32.0 3.464101615137753 0.0
  endloop
endfacet
facet normal -0.38268343236508956 -0.9238795325112868 -0.0
  outer loop
    vertex 31.035276180410087 3.8637033051562715 0.0
    vertex 32.0 3.464101615137753 3.0
    vertex 31.035276180410087 3.8637033051562715 3.0
  endloop
endfacet
facet normal -0.13052619222005143 -0.9914448613738105 -0.0
  outer loop
    vertex 31.035276180410087 3.8637033051562715 3.0
    vertex 30.0 3.9999999999999982 0.0
    vertex 31.035276180410087 3.8637033051562715 0.0
  endloop
endfacet
facet normal -0.13052619222005143 -0.9914448613738105 -0.0
  outer loop
    vertex 30.0 3.9999999999999982 0.0
    vertex 31.035276180410087 3.8637033051562715 3.0
    vertex 30.0 3.9999999999999982 3.0
  endloop
endfacet
facet normal 0.13052619222005216 -0.9914448613738104 0.0
  outer loop
    vertex 30.0 3.9999999999999982 3.0
    vertex 28.96472381958992 3.8637033051562715 0.0
    vertex 30.0 3.9999999999999982 0.0
  endloop
endfacet
facet normal 0.13052619222005216 -0.9914448613738104 0.0
  outer loop
    vertex 28.96472381958992 3.8637033051562715 0.0
    vertex 30.0 3.9999999999999982 3.0
    vertex 28.96472381958992 3.8637033051562715 3.0
  endloop
endfacet
facet normal 0.38268343236508956 -0.9238795325112868 0.0
  outer loop
    vertex 28.96472381958992 3.8637033051562715 3.0
    vertex 28.000000000000004 3.464101615137753 0.0
    vertex 28.96472381958992 3.8637033051562715 0.0
  endloop
endfacet
facet normal 0.38268343236508956 -0.9238795325112868 0.0
  outer loop
    vertex 28.000000000000004 3.464101615137753 0.0
    vertex 28.96472381958992 3.8637033051562715 3.0
    vertex 28.000000000000004 3.464101615137753 3.0
  endloop
endfacet
facet normal 0.6087614290087207 -0.7933533402912352 0.0
  outer loop
    vertex 28.000000000000004 3.464101615137753 3.0
    vertex 27.171572875253815 2.828427124746189 0.0
    vertex 28.000000000000004 3.464101615137753 0.0
  endloop
endfacet
facet normal 0.6087614290087207 -0.7933533402912352 0.0
  outer loop
    vertex 27.171572875253815 2.828427124746189 0.0
    vertex 28.000000000000004 3.464101615137753 3.0
    vertex 27.171572875253815 2.828427124746189 3.0
  endloop
endfacet
facet normal 0.7933533402912344 -0.6087614290087219 0.0
  outer loop
    vertex 27.171572875253815 2.828427124746189 0.0
    vertex 26.53589838486225 2.0000000000000004 3.0
    vertex 26.53589838486225 2.0000000000000004 0.0
  endloop
endfacet
facet normal 0.7933533402912344 -0.6087614290087219 0.0
  outer loop
    vertex 26.53589838486225 2.0000000000000004 3.0
    vertex 27.171572875253815 2.828427124746189 0.0
    vertex 27.171572875253815 2.828427124746189 3.0
  endloop
endfacet
facet normal 0.9238795325112862 -0.3826834323650912 0.0
  outer loop
    vertex 26.53589838486225 2.0000000000000004 0.0
    vertex 26.13629669484373 1.0352761804100836 3.0
    vertex 26.13629669484373 1.0352761804100836 0.0
  endloop
endfacet
facet normal 0.9238795325112862 -0.3826834323650912 0.0
  outer loop
    vertex 26.13629669484373 1.0352761804100836 3.0
    vertex 26.53589838486225 2.0000000000000004 0.0
    vertex 26.53589838486225 2.0000000000000004 3.0
  endloop
endfacet
facet normal 0.9914448613738104 -0.13052619222005174 0.0
  outer loop
    vertex 26.13629669484373 1.0352761804100836 0.0
    vertex 26.000000000000004 4.898587196589411e-16 3.0
    vertex 26.000000000000004 4.898587196589411e-16 0.0
  endloop
endfacet
facet normal 0.9914448613738104 -0.13052619222005174 0.0
  outer loop
    vertex 26.000000000000004 4.898587196589411e-16 3.0
    vertex 26.13629669484373 1.0352761804100836 0.0
    vertex 26.13629669484373 1.0352761804100836 3.0
  endloop
endfacet
facet normal 0.9914448613738104 0.13052619222005193 0.0
  outer loop
    vertex 26.000000000000004 4.898587196589411e-16 0.0
    vertex 26.13629669484373 -1.035276180410081 3.0
    vertex 26.13629669484373 -1.035276180410081 0.0
  endloop
endfacet
facet normal 0.9914448613738104 0.13052619222005193 0.0
  outer loop
    vertex 26.13629669484373 -1.035276180410081 3.0
    vertex 26.000000000000004 4.898587196589411e-16 0.0
    vertex 26.000000000000004 4.898587196589411e-16 3.0
  endloop
endfacet
facet normal 0.9238795325112882 0.3826834323650865 0.0
  outer loop
    vertex 26.13629669484373 -1.035276180410081 0.0
    vertex 26.535898384862247 -1.999999999999998 3.0
    vertex 26.535898384862247 -1.999999999999998 0.0
  endloop
endfacet
facet normal 0.9238795325112882 0.3826834323650865 0.0
  outer loop
    vertex 26.535898384862247 -1.999999999999998 3.0
    vertex 26.13629669484373 -1.035276180410081 0.0
    vertex 26.13629669484373 -1.035276180410081 3.0
  endloop
endfacet
facet normal 0.7933533402912345 0.6087614290087214 0.0
  outer loop
    vertex 26.535898384862247 -1.999999999999998 0.0
    vertex 27.17157287525381 -2.828427124746187 3.0
    vertex 27.17157287525381 -2.828427124746187 0.0
  endloop
endfacet
facet normal 0.7933533402912345 0.6087614290087214 0.0
  outer loop
    vertex 27.17157287525381 -2.828427124746187 3.0
    vertex 26.535898384862247 -1.999999999999998 0.0
    vertex 26.535898384862247 -1.999999999999998 3.0
  endloop
endfacet
facet normal 0.6087614290087209 0.7933533402912349 0.0
  outer loop
    vertex 27.17157287525381 -2.828427124746187 3.0
    vertex 28.0 -3.4641016151377517 0.0
    vertex 27.17157287525381 -2.828427124746187 0.0
  endloop
endfacet
facet normal 0.6087614290087209 0.7933533402912349 0.0
  outer loop
    vertex 28.0 -3.4641016151377517 0.0
    vertex 27.17157287525381 -2.828427124746187 3.0
    vertex 28.0 -3.4641016151377517 3.0
  endloop
endfacet
facet normal 0.3826834323650902 0.9238795325112867 0.0
  outer loop
    vertex 28.0 -3.4641016151377517 3.0
    vertex 28.964723819589917 -3.8637033051562706 0.0
    vertex 28.0 -3.4641016151377517 0.0
  endloop
endfacet
facet normal 0.3826834323650902 0.9238795325112867 0.0
  outer loop
    vertex 28.964723819589917 -3.8637033051562706 0.0
    vertex 28.0 -3.4641016151377517 3.0
    vertex 28.964723819589917 -3.8637033051562706 3.0
  endloop
endfacet
facet normal 0.13052619222005213 0.9914448613738105 0.0
  outer loop
    vertex 28.964723819589917 -3.8637033051562706 3.0
    vertex 30.0 -3.9999999999999982 0.0
    vertex 28.964723819589917 -3.8637033051562706 0.0
  endloop
endfacet
facet normal 0.13052619222005213 0.9914448613738105 0.0
  outer loop
    vertex 30.0 -3.9999999999999982 0.0
    vertex 28.964723819589917 -3.8637033051562706 3.0
    vertex 30.0 -3.9999999999999982 3.0
  endloop
endfacet
facet normal -0.1305261922200515 0.9914448613738104 0.0
  outer loop
    vertex 30.0 -3.9999999999999982 3.0
    vertex 31.035276180410083 -3.863703305156272 0.0
    vertex 30.0 -3.9999999999999982 0.0
  endloop
endfacet
facet normal -0.1305261922200515 0.9914448613738104 0.0
  outer loop
    vertex 31.035276180410083 -3.863703305156272 0.0
    vertex 30.0 -3.9999999999999982 3.0
    vertex 31.035276180410083 -3.863703305156272 3.0
  endloop
endfacet
facet normal -0.38268343236508895 0.9238795325112871 0.0
  outer loop
    vertex 31.035276180410083 -3.863703305156272 3.0
    vertex 31.999999999999996 -3.4641016151377544 0.0
    vertex 31.035276180410083 -3.863703305156272 0.0
  endloop
endfacet
facet normal -0.38268343236508895 0.9238795325112871 0.0
  outer loop
    vertex 31.999999999999996 -3.4641016151377544 0.0
    vertex 31.035276180410083 -3.863703305156272 3.0
    vertex 31.999999999999996 -3.4641016151377544 3.0
  endloop
endfacet
facet normal -0.6087614290087213 0.7933533402912347 0.0
  outer loop
    vertex 31.999999999999996 -3.4641016151377544 3.0
    vertex 32.828427124746185 -2.8284271247461894 0.0
    vertex 31.999999999999996 -3.4641016151377544 0.0
  endloop
endfacet
facet normal -0.6087614290087213 0.7933533402912347 0.0
  outer loop
    vertex 32.828427124746185 -2.8284271247461894 0.0
    vertex 31.999999999999996 -3.4641016151377544 3.0
    vertex 32.828427124746185 -2.8284271247461894 3.0
  endloop
endfacet
facet normal -0.7933533402912344 0.6087614290087219 0.0
  outer loop
    vertex 33.46410161513775 -2.000000000000001 3.0
    vertex 32.828427124746185 -2.8284271247461894 0.0
    vertex 32.828427124746185 -2.8284271247461894 3.0
  endloop
endfacet
facet normal -0.7933533402912344 0.6087614290087219 0.0
  outer loop
    vertex 32.828427124746185 -2.8284271247461894 0.0
    vertex 33.46410161513775 -2.000000000000001 3.0
    vertex 33.46410161513775 -2.000000000000001 0.0
  endloop
endfacet
facet normal -0.9238795325112861 0.38268343236509184 0.0
  outer loop
    vertex 33.86370330515627 -1.0352761804100858 3.0
    vertex 33.46410161513775 -2.000000000000001 0.0
    vertex 33.46410161513775 -2.000000000000001 3.0
  endloop
endfacet
facet normal -0.9238795325112861 0.38268343236509184 0.0
  outer loop
    vertex 33.46410161513775 -2.000000000000001 0.0
    vertex 33.86370330515627 -1.0352761804100858 3.0
    vertex 33.86370330515627 -1.0352761804100858 0.0
  endloop
endfacet
facet normal -0.9914448613738104 0.13052619222005138 0.0
  outer loop
    vertex 34.0 0.0 3.0
    vertex 33.86370330515627 -1.0352761804100858 0.0
    vertex 33.86370330515627 -1.0352761804100858 3.0
  endloop
endfacet
facet normal -0.9914448613738104 0.13052619222005138 0.0
  outer loop
    vertex 33.86370330515627 -1.0352761804100858 0.0
    vertex 34.0 0.0 3.0
    vertex 34.0 0.0 0.0
  endloop
endfacet
endsolid Коромысло
