solid Holder
facet normal -0.0 -0.0 1.0
  outer loop
    vertex 25.0 0.0 3.0
    vertex 0.9999999999999998 15.0 3.0
    vertex 0.9999999999999998 0.0 3.0
  endloop
endfacet
facet normal -0.0 -0.0 1.0
  outer loop
    vertex 0.9999999999999998 15.0 3.0
    vertex 25.0 0.0 3.0
    vertex 25.0 15.0 3.0
  endloop
endfacet
facet normal 0.0 -1.0 0.0
  outer loop
    vertex 65.49999999999999 0.0 3.0000000000000027
    vertex 63.0 0.0 3.0
    vertex 63.99999999999999 0.0 3.0
  endloop
endfacet
facet normal 0.0 -1.0 0.0
  outer loop
    vertex 63.0 0.0 3.0
    vertex 65.49999999999999 0.0 3.0000000000000027
    vertex 63.99999999999999 0.0 5.0
  endloop
endfacet
facet normal 0.0 -1.0 0.0
  outer loop
    vertex 63.99999999999999 0.0 5.0
    vertex 65.49999999999999 0.0 3.0000000000000027
    vertex 65.49999999999999 0.0 4.0000000000000036
  endloop
endfacet
facet normal 0.0 -1.0 0.0
  outer loop
    vertex 63.99999999999999 0.0 5.0
    vertex 65.49999999999999 0.0 4.0000000000000036
    vertex 65.49999999999999 0.0 17.999999999999993
  endloop
endfacet
facet normal 0.0 -1.0 0.0
  outer loop
    vertex 63.99999999999999 0.0 5.0
    vertex 65.49999999999999 0.0 17.999999999999993
    vertex 63.99999999999999 0.0 17.999999999999993
  endloop
endfacet
facet normal 1.0 -0.0 -0.0
  outer loop
    vertex 66.99999999999999 13.500000000000004 4.0000000000000036
    vertex 66.99999999999999 1.4999999999999973 17.999999999999993
    vertex 66.99999999999999 1.4999999999999973 4.0000000000000036
  endloop
endfacet
facet normal 1.0 -0.0 -0.0
  outer loop
    vertex 66.99999999999999 1.4999999999999973 17.999999999999993
    vertex 66.99999999999999 13.500000000000004 4.0000000000000036
    vertex 66.99999999999999 13.500000000000004 17.999999999999993
  endloop
endfacet
facet normal -0.0 1.0 -0.0
  outer loop
    vertex -1.4999999999999973 15.0 3.0000000000000044
    vertex 0.9999999999999998 15.0 3.0
    vertex 0.0 15.0 3.0
  endloop
endfacet
facet normal -0.0 1.0 -0.0
  outer loop
    vertex 0.9999999999999998 15.0 3.0
    vertex -1.4999999999999973 15.0 3.0000000000000044
    vertex 0.0 15.0 5.0
  endloop
endfacet
facet normal -0.0 1.0 -0.0
  outer loop
    vertex 0.0 15.0 5.0
    vertex -1.4999999999999973 15.0 3.0000000000000044
    vertex -1.5 15.0 17.999999999999993
  endloop
endfacet
facet normal -0.0 1.0 -0.0
  outer loop
    vertex 0.0 15.0 5.0
    vertex -1.5 15.0 17.999999999999993
    vertex 0.0 15.0 17.999999999999993
  endloop
endfacet
facet normal 0.9914448613738107 -0.1305261922200499 -1.413411331985254e-32
  outer loop
    vertex 28.377778151415992 8.470571419134457 6.3449245857327695e-15
    vertex 28.25 7.5 9.0
    vertex 28.25 7.5 6.3449245857327695e-15
  endloop
endfacet
facet normal 0.9914448613738107 -0.1305261922200499 -1.413411331985254e-32
  outer loop
    vertex 28.25 7.5 9.0
    vertex 28.377778151415992 8.470571419134457 6.3449245857327695e-15
    vertex 28.377778151415992 8.470571419134457 9.0
  endloop
endfacet
facet normal 0.9238795325112856 -0.3826834323650927 5.2819354418969667e-33
  outer loop
    vertex 28.752404735808355 9.375000000000002 6.3449245857327695e-15
    vertex 28.377778151415992 8.470571419134457 9.0
    vertex 28.377778151415992 8.470571419134457 6.3449245857327695e-15
  endloop
endfacet
facet normal 0.9238795325112856 -0.3826834323650927 5.2819354418969667e-33
  outer loop
    vertex 28.377778151415992 8.470571419134457 9.0
    vertex 28.752404735808355 9.375000000000002 6.3449245857327695e-15
    vertex 28.752404735808355 9.375000000000002 9.0
  endloop
endfacet
facet normal 0.7933533402912364 -0.6087614290087192 2.4338029032091515e-32
  outer loop
    vertex 29.348349570550443 10.151650429449553 6.3449245857327695e-15
    vertex 28.752404735808355 9.375000000000002 9.0
    vertex 28.752404735808355 9.375000000000002 6.3449245857327695e-15
  endloop
endfacet
facet normal 0.7933533402912364 -0.6087614290087192 2.4338029032091515e-32
  outer loop
    vertex 28.752404735808355 9.375000000000002 9.0
    vertex 29.348349570550443 10.151650429449553 6.3449245857327695e-15
    vertex 29.348349570550443 10.151650429449553 9.0
  endloop
endfacet
facet normal 0.6087614290087192 -0.7933533402912365 4.173552616424431e-32
  outer loop
    vertex 30.125 10.747595264191645 9.0
    vertex 29.348349570550443 10.151650429449553 6.3449245857327695e-15
    vertex 30.125 10.747595264191645 6.3449245857327695e-15
  endloop
endfacet
facet normal 0.6087614290087192 -0.7933533402912365 4.173552616424431e-32
  outer loop
    vertex 29.348349570550443 10.151650429449553 6.3449245857327695e-15
    vertex 30.125 10.747595264191645 9.0
    vertex 29.348349570550443 10.151650429449553 9.0
  endloop
endfacet
facet normal 0.3826834323650902 -0.9238795325112866 5.628881615952151e-32
  outer loop
    vertex 31.029428580865545 11.122221848584006 9.0
    vertex 30.125 10.747595264191645 6.3449245857327695e-15
    vertex 31.029428580865545 11.122221848584006 6.3449245857327695e-15
  endloop
endfacet
facet normal 0.3826834323650902 -0.9238795325112866 5.628881615952151e-32
  outer loop
    vertex 30.125 10.747595264191645 6.3449245857327695e-15
    vertex 31.029428580865545 11.122221848584006 9.0
    vertex 30.125 10.747595264191645 9.0
  endloop
endfacet
facet normal 0.13052619222005044 -0.9914448613738106 6.700611635519445e-32
  outer loop
    vertex 31.999999999999996 11.25 9.0
    vertex 31.029428580865545 11.122221848584006 6.3449245857327695e-15
    vertex 31.999999999999996 11.25 6.3449245857327695e-15
  endloop
endfacet
facet normal 0.13052619222005044 -0.9914448613738106 6.700611635519445e-32
  outer loop
    vertex 31.029428580865545 11.122221848584006 6.3449245857327695e-15
    vertex 31.999999999999996 11.25 9.0
    vertex 31.029428580865545 11.122221848584006 9.0
  endloop
endfacet
facet normal -0.13052619222005252 -0.9914448613738103 7.315706045410371e-32
  outer loop
    vertex 32.97057141913446 11.122221848584003 9.0
    vertex 31.999999999999996 11.25 6.3449245857327695e-15
    vertex 32.97057141913446 11.122221848584003 6.3449245857327695e-15
  endloop
endfacet
facet normal -0.13052619222005252 -0.9914448613738103 7.315706045410371e-32
  outer loop
    vertex 31.999999999999996 11.25 6.3449245857327695e-15
    vertex 32.97057141913446 11.122221848584003 9.0
    vertex 31.999999999999996 11.25 9.0
  endloop
endfacet
facet normal -0.3826834323650902 -0.9238795325112866 7.432247178082445e-32
  outer loop
    vertex 33.875 10.747595264191643 9.0
    vertex 32.97057141913446 11.122221848584003 6.3449245857327695e-15
    vertex 33.875 10.747595264191643 6.3449245857327695e-15
  endloop
endfacet
facet normal -0.3826834323650902 -0.9238795325112866 7.432247178082445e-32
  outer loop
    vertex 32.97057141913446 11.122221848584003 6.3449245857327695e-15
    vertex 33.875 10.747595264191643 9.0
    vertex 32.97057141913446 11.122221848584003 9.0
  endloop
endfacet
facet normal -0.608761429008721 -0.7933533402912349 7.042292947937393e-32
  outer loop
    vertex 34.65165042944955 10.151650429449552 9.0
    vertex 33.875 10.747595264191643 6.3449245857327695e-15
    vertex 34.65165042944955 10.151650429449552 6.3449245857327695e-15
  endloop
endfacet
facet normal -0.608761429008721 -0.7933533402912349 7.042292947937393e-32
  outer loop
    vertex 33.875 10.747595264191643 6.3449245857327695e-15
    vertex 34.65165042944955 10.151650429449552 9.0
    vertex 33.875 10.747595264191643 9.0
  endloop
endfacet
facet normal -0.7933533402912368 -0.6087614290087184 6.172418091329756e-32
  outer loop
    vertex 34.65165042944955 10.151650429449552 9.0
    vertex 35.24759526419164 9.374999999999998 6.3449245857327695e-15
    vertex 35.24759526419164 9.374999999999998 9.0
  endloop
endfacet
facet normal -0.7933533402912368 -0.6087614290087184 6.172418091329756e-32
  outer loop
    vertex 35.24759526419164 9.374999999999998 6.3449245857327695e-15
    vertex 34.65165042944955 10.151650429449552 9.0
    vertex 34.65165042944955 10.151650429449552 6.3449245857327695e-15
  endloop
endfacet
facet normal -0.923879532511286 -0.38268343236509167 4.881903142201216e-32
  outer loop
    vertex 35.24759526419164 9.374999999999998 9.0
    vertex 35.622221848584005 8.470571419134451 6.3449245857327695e-15
    vertex 35.622221848584005 8.470571419134451 9.0
  endloop
endfacet
facet normal -0.923879532511286 -0.38268343236509167 4.881903142201216e-32
  outer loop
    vertex 35.622221848584005 8.470571419134451 6.3449245857327695e-15
    vertex 35.24759526419164 9.374999999999998 9.0
    vertex 35.24759526419164 9.374999999999998 6.3449245857327695e-15
  endloop
endfacet
facet normal -0.9914448613738106 -0.13052619222005066 3.2586945616580214e-32
  outer loop
    vertex 35.622221848584005 8.470571419134451 9.0
    vertex 35.75 7.5 6.3449245857327695e-15
    vertex 35.75 7.5 9.0
  endloop
endfacet
facet normal -0.9914448613738106 -0.13052619222005066 3.2586945616580214e-32
  outer loop
    vertex 35.75 7.5 6.3449245857327695e-15
    vertex 35.622221848584005 8.470571419134451 9.0
    vertex 35.622221848584005 8.470571419134451 6.3449245857327695e-15
  endloop
endfacet
facet normal -0.9914448613738106 0.13052619222005027 1.4134113319852516e-32
  outer loop
    vertex 35.75 7.5 9.0
    vertex 35.622221848584005 6.529428580865547 6.3449245857327695e-15
    vertex 35.622221848584005 6.529428580865547 9.0
  endloop
endfacet
facet normal -0.9914448613738106 0.13052619222005027 1.4134113319852516e-32
  outer loop
    vertex 35.622221848584005 6.529428580865547 6.3449245857327695e-15
    vertex 35.75 7.5 9.0
    vertex 35.75 7.5 6.3449245857327695e-15
  endloop
endfacet
facet normal -0.923879532511286 0.38268343236509167 -5.281935441896886e-33
  outer loop
    vertex 35.622221848584005 6.529428580865547 9.0
    vertex 35.24759526419164 5.625 6.3449245857327695e-15
    vertex 35.24759526419164 5.625 9.0
  endloop
endfacet
facet normal -0.923879532511286 0.38268343236509167 -5.281935441896886e-33
  outer loop
    vertex 35.24759526419164 5.625 6.3449245857327695e-15
    vertex 35.622221848584005 6.529428580865547 9.0
    vertex 35.622221848584005 6.529428580865547 6.3449245857327695e-15
  endloop
endfacet
facet normal -0.7933533402912364 0.6087614290087192 -2.4338029032091515e-32
  outer loop
    vertex 35.24759526419164 5.625 9.0
    vertex 34.65165042944955 4.848349570550448 6.3449245857327695e-15
    vertex 34.65165042944955 4.848349570550448 9.0
  endloop
endfacet
facet normal -0.7933533402912364 0.6087614290087192 -2.4338029032091515e-32
  outer loop
    vertex 34.65165042944955 4.848349570550448 6.3449245857327695e-15
    vertex 35.24759526419164 5.625 9.0
    vertex 35.24759526419164 5.625 6.3449245857327695e-15
  endloop
endfacet
facet normal -0.6087614290087182 0.7933533402912372 -4.173552616424438e-32
  outer loop
    vertex 33.87499999999999 4.252404735808356 9.0
    vertex 34.65165042944955 4.848349570550448 6.3449245857327695e-15
    vertex 33.87499999999999 4.252404735808356 6.3449245857327695e-15
  endloop
endfacet
facet normal -0.6087614290087182 0.7933533402912372 -4.173552616424438e-32
  outer loop
    vertex 34.65165042944955 4.848349570550448 6.3449245857327695e-15
    vertex 33.87499999999999 4.252404735808356 9.0
    vertex 34.65165042944955 4.848349570550448 9.0
  endloop
endfacet
facet normal -0.3826834323650902 0.9238795325112866 -5.628881615952151e-32
  outer loop
    vertex 32.97057141913445 3.8777781514159955 9.0
    vertex 33.87499999999999 4.252404735808356 6.3449245857327695e-15
    vertex 32.97057141913445 3.8777781514159955 6.3449245857327695e-15
  endloop
endfacet
facet normal -0.3826834323650902 0.9238795325112866 -5.628881615952151e-32
  outer loop
    vertex 33.87499999999999 4.252404735808356 6.3449245857327695e-15
    vertex 32.97057141913445 3.8777781514159955 9.0
    vertex 33.87499999999999 4.252404735808356 9.0
  endloop
endfacet
facet normal -0.13052619222005188 0.9914448613738104 -6.70061163551944e-32
  outer loop
    vertex 31.999999999999996 3.7500000000000018 9.0
    vertex 32.97057141913445 3.8777781514159955 6.3449245857327695e-15
    vertex 31.999999999999996 3.7500000000000018 6.3449245857327695e-15
  endloop
endfacet
facet normal -0.13052619222005188 0.9914448613738104 -6.70061163551944e-32
  outer loop
    vertex 32.97057141913445 3.8777781514159955 6.3449245857327695e-15
    vertex 31.999999999999996 3.7500000000000018 9.0
    vertex 32.97057141913445 3.8777781514159955 9.0
  endloop
endfacet
facet normal 0.13052619222005188 0.9914448613738104 -7.315706045410371e-32
  outer loop
    vertex 31.029428580865545 3.8777781514159955 9.0
    vertex 31.999999999999996 3.7500000000000018 6.3449245857327695e-15
    vertex 31.029428580865545 3.8777781514159955 6.3449245857327695e-15
  endloop
endfacet
facet normal 0.13052619222005188 0.9914448613738104 -7.315706045410371e-32
  outer loop
    vertex 31.999999999999996 3.7500000000000018 6.3449245857327695e-15
    vertex 31.029428580865545 3.8777781514159955 9.0
    vertex 31.999999999999996 3.7500000000000018 9.0
  endloop
endfacet
facet normal 0.38268343236508884 0.9238795325112872 -7.432247178082447e-32
  outer loop
    vertex 30.124999999999996 4.252404735808357 9.0
    vertex 31.029428580865545 3.8777781514159955 6.3449245857327695e-15
    vertex 30.124999999999996 4.252404735808357 6.3449245857327695e-15
  endloop
endfacet
facet normal 0.38268343236508884 0.9238795325112872 -7.432247178082447e-32
  outer loop
    vertex 31.029428580865545 3.8777781514159955 6.3449245857327695e-15
    vertex 30.124999999999996 4.252404735808357 9.0
    vertex 31.029428580865545 3.8777781514159955 9.0
  endloop
endfacet
facet normal 0.6087614290087205 0.7933533402912353 -7.042292947937395e-32
  outer loop
    vertex 29.348349570550443 4.848349570550448 9.0
    vertex 30.124999999999996 4.252404735808357 6.3449245857327695e-15
    vertex 29.348349570550443 4.848349570550448 6.3449245857327695e-15
  endloop
endfacet
facet normal 0.6087614290087205 0.7933533402912353 -7.042292947937395e-32
  outer loop
    vertex 30.124999999999996 4.252404735808357 6.3449245857327695e-15
    vertex 29.348349570550443 4.848349570550448 9.0
    vertex 30.124999999999996 4.252404735808357 9.0
  endloop
endfacet
facet normal 0.7933533402912368 0.6087614290087184 -6.172418091329756e-32
  outer loop
    vertex 28.752404735808355 5.625000000000001 6.3449245857327695e-15
    vertex 29.348349570550443 4.848349570550448 9.0
    vertex 29.348349570550443 4.848349570550448 6.3449245857327695e-15
  endloop
endfacet
facet normal 0.7933533402912368 0.6087614290087184 -6.172418091329756e-32
  outer loop
    vertex 29.348349570550443 4.848349570550448 9.0
    vertex 28.752404735808355 5.625000000000001 6.3449245857327695e-15
    vertex 28.752404735808355 5.625000000000001 9.0
  endloop
endfacet
facet normal 0.923879532511286 0.38268343236509167 -4.881903142201216e-32
  outer loop
    vertex 28.377778151415992 6.529428580865549 6.3449245857327695e-15
    vertex 28.752404735808355 5.625000000000001 9.0
    vertex 28.752404735808355 5.625000000000001 6.3449245857327695e-15
  endloop
endfacet
facet normal 0.923879532511286 0.38268343236509167 -4.881903142201216e-32
  outer loop
    vertex 28.752404735808355 5.625000000000001 9.0
    vertex 28.377778151415992 6.529428580865549 6.3449245857327695e-15
    vertex 28.377778151415992 6.529428580865549 9.0
  endloop
endfacet
facet normal 0.9914448613738106 0.13052619222005044 -3.2586945616580197e-32
  outer loop
    vertex 28.25 7.5 6.3449245857327695e-15
    vertex 28.377778151415992 6.529428580865549 9.0
    vertex 28.377778151415992 6.529428580865549 6.3449245857327695e-15
  endloop
endfacet
facet normal 0.9914448613738106 0.13052619222005044 -3.2586945616580197e-32
  outer loop
    vertex 28.377778151415992 6.529428580865549 9.0
    vertex 28.25 7.5 6.3449245857327695e-15
    vertex 28.25 7.5 9.0
  endloop
endfacet
facet normal -0.0 -0.0 1.0
  outer loop
    vertex 27.5 0.0 9.0
    vertex 28.25 7.5 9.0
    vertex 27.5 15.0 9.0
  endloop
endfacet
facet normal -0.0 -0.0 1.0
  outer loop
    vertex 28.25 7.5 9.0
    vertex 27.5 0.0 9.0
    vertex 28.377778151415992 6.529428580865549 9.0
  endloop
endfacet
facet normal -0.0 -0.0 1.0
  outer loop
    vertex 28.377778151415992 6.529428580865549 9.0
    vertex 27.5 0.0 9.0
    vertex 28.752404735808355 5.625000000000001 9.0
  endloop
endfacet
facet normal -0.0 -0.0 1.0
  outer loop
    vertex 28.752404735808355 5.625000000000001 9.0
    vertex 27.5 0.0 9.0
    vertex 29.348349570550443 4.848349570550448 9.0
  endloop
endfacet
facet normal -0.0 -0.0 1.0
  outer loop
    vertex 29.348349570550443 4.848349570550448 9.0
    vertex 27.5 0.0 9.0
    vertex 30.124999999999996 4.252404735808357 9.0
  endloop
endfacet
facet normal -0.0 -0.0 1.0
  outer loop
    vertex 30.124999999999996 4.252404735808357 9.0
    vertex 27.5 0.0 9.0
    vertex 36.5 0.0 9.0
  endloop
endfacet
facet normal -0.0 -0.0 1.0
  outer loop
    vertex 30.124999999999996 4.252404735808357 9.0
    vertex 36.5 0.0 9.0
    vertex 31.029428580865545 3.8777781514159955 9.0
  endloop
endfacet
facet normal -0.0 -0.0 1.0
  outer loop
    vertex 31.029428580865545 3.8777781514159955 9.0
    vertex 36.5 0.0 9.0
    vertex 31.999999999999996 3.7500000000000018 9.0
  endloop
endfacet
facet normal -0.0 -0.0 1.0
  outer loop
    vertex 31.999999999999996 3.7500000000000018 9.0
    vertex 36.5 0.0 9.0
    vertex 32.97057141913445 3.8777781514159955 9.0
  endloop
endfacet
facet normal -0.0 -0.0 1.0
  outer loop
    vertex 32.97057141913445 3.8777781514159955 9.0
    vertex 36.5 0.0 9.0
    vertex 33.87499999999999 4.252404735808356 9.0
  endloop
endfacet
facet normal -0.0 -0.0 1.0
  outer loop
    vertex 33.87499999999999 4.252404735808356 9.0
    vertex 36.5 0.0 9.0
    vertex 34.65165042944955 4.848349570550448 9.0
  endloop
endfacet
facet normal -0.0 -0.0 1.0
  outer loop
    vertex 34.65165042944955 4.848349570550448 9.0
    vertex 36.5 0.0 9.0
    vertex 35.24759526419164 5.625 9.0
  endloop
endfacet
facet normal -0.0 -0.0 1.0
  outer loop
    vertex 35.24759526419164 5.625 9.0
    vertex 36.5 0.0 9.0
    vertex 35.622221848584005 6.529428580865547 9.0
  endloop
endfacet
facet normal -0.0 -0.0 1.0
  outer loop
    vertex 35.622221848584005 6.529428580865547 9.0
    vertex 36.5 0.0 9.0
    vertex 35.75 7.5 9.0
  endloop
endfacet
facet normal -0.0 -0.0 1.0
  outer loop
    vertex 27.5 15.0 9.0
    vertex 30.125 10.747595264191645 9.0
    vertex 36.5 15.0 9.0
  endloop
endfacet
facet normal -0.0 -0.0 1.0
  outer loop
    vertex 30.125 10.747595264191645 9.0
    vertex 27.5 15.0 9.0
    vertex 29.348349570550443 10.151650429449553 9.0
  endloop
endfacet
facet normal -0.0 -0.0 1.0
  outer loop
    vertex 29.348349570550443 10.151650429449553 9.0
    vertex 27.5 15.0 9.0
    vertex 28.752404735808355 9.375000000000002 9.0
  endloop
endfacet
facet normal -0.0 -0.0 1.0
  outer loop
    vertex 28.752404735808355 9.375000000000002 9.0
    vertex 27.5 15.0 9.0
    vertex 28.377778151415992 8.470571419134457 9.0
  endloop
endfacet
facet normal -0.0 -0.0 1.0
  outer loop
    vertex 28.377778151415992 8.470571419134457 9.0
    vertex 27.5 15.0 9.0
    vertex 28.25 7.5 9.0
  endloop
endfacet
facet normal -0.0 -0.0 1.0
  outer loop
    vertex 36.5 15.0 9.0
    vertex 30.125 10.747595264191645 9.0
    vertex 31.029428580865545 11.122221848584006 9.0
  endloop
endfacet
facet normal -0.0 -0.0 1.0
  outer loop
    vertex 36.5 15.0 9.0
    vertex 31.029428580865545 11.122221848584006 9.0
    vertex 31.999999999999996 11.25 9.0
  endloop
endfacet
facet normal -0.0 -0.0 1.0
  outer loop
    vertex 36.5 15.0 9.0
    vertex 31.999999999999996 11.25 9.0
    vertex 32.97057141913446 11.122221848584003 9.0
  endloop
endfacet
facet normal -0.0 -0.0 1.0
  outer loop
    vertex 36.5 15.0 9.0
    vertex 32.97057141913446 11.122221848584003 9.0
    vertex 33.875 10.747595264191643 9.0
  endloop
endfacet
facet normal -0.0 -0.0 1.0
  outer loop
    vertex 36.5 15.0 9.0
    vertex 33.875 10.747595264191643 9.0
    vertex 34.65165042944955 10.151650429449552 9.0
  endloop
endfacet
facet normal -0.0 -0.0 1.0
  outer loop
    vertex 36.5 15.0 9.0
    vertex 34.65165042944955 10.151650429449552 9.0
    vertex 35.24759526419164 9.374999999999998 9.0
  endloop
endfacet
facet normal -0.0 -0.0 1.0
  outer loop
    vertex 36.5 15.0 9.0
    vertex 35.24759526419164 9.374999999999998 9.0
    vertex 35.622221848584005 8.470571419134451 9.0
  endloop
endfacet
facet normal -0.0 -0.0 1.0
  outer loop
    vertex 36.5 15.0 9.0
    vertex 35.622221848584005 8.470571419134451 9.0
    vertex 35.75 7.5 9.0
  endloop
endfacet
facet normal -0.0 -0.0 1.0
  outer loop
    vertex 36.5 15.0 9.0
    vertex 35.75 7.5 9.0
    vertex 36.5 0.0 9.0
  endloop
endfacet
facet normal -1.0 0.0 0.0
  outer loop
    vertex 25.0 15.0 12.999999999999998
    vertex 25.0 0.0 3.0
    vertex 25.0 0.0 12.999999999999998
  endloop
endfacet
facet normal -1.0 0.0 0.0
  outer loop
    vertex 25.0 0.0 3.0
    vertex 25.0 15.0 12.999999999999998
    vertex 25.0 15.0 3.0
  endloop
endfacet
facet normal 1.0 -0.0 -0.0
  outer loop
    vertex 39.0 15.0 3.0
    vertex 39.0 0.0 12.999999999999998
    vertex 39.0 0.0 3.0
  endloop
endfacet
facet normal 1.0 -0.0 -0.0
  outer loop
    vertex 39.0 0.0 12.999999999999998
    vertex 39.0 15.0 3.0
    vertex 39.0 15.0 12.999999999999998
  endloop
endfacet
facet normal -0.0 -0.0 1.0
  outer loop
    vertex 27.5 0.0 12.999999999999998
    vertex 25.0 15.0 12.999999999999998
    vertex 25.0 0.0 12.999999999999998
  endloop
endfacet
facet normal -0.0 -0.0 1.0
  outer loop
    vertex 25.0 15.0 12.999999999999998
    vertex 27.5 0.0 12.999999999999998
    vertex 27.5 15.0 12.999999999999998
  endloop
endfacet
facet normal 1.0 0.0 0.0
  outer loop
    vertex 27.5 15.0 9.0
    vertex 27.5 0.0 12.999999999999998
    vertex 27.5 0.0 9.0
  endloop
endfacet
facet normal 1.0 0.0 0.0
  outer loop
    vertex 27.5 0.0 12.999999999999998
    vertex 27.5 15.0 9.0
    vertex 27.5 15.0 12.999999999999998
  endloop
endfacet
facet normal -0.0 -0.0 1.0
  outer loop
    vertex 39.0 0.0 12.999999999999998
    vertex 36.5 15.0 12.999999999999998
    vertex 36.5 0.0 12.999999999999998
  endloop
endfacet
facet normal -0.0 -0.0 1.0
  outer loop
    vertex 36.5 15.0 12.999999999999998
    vertex 39.0 0.0 12.999999999999998
    vertex 39.0 15.0 12.999999999999998
  endloop
endfacet
facet normal -1.0 0.0 0.0
  outer loop
    vertex 36.5 15.0 12.999999999999998
    vertex 36.5 0.0 9.0
    vertex 36.5 0.0 12.999999999999998
  endloop
endfacet
facet normal -1.0 0.0 0.0
  outer loop
    vertex 36.5 0.0 9.0
    vertex 36.5 15.0 12.999999999999998
    vertex 36.5 15.0 9.0
  endloop
endfacet
facet normal 1.0 -0.0 -0.0
  outer loop
    vertex 0.0 15.0 5.0
    vertex 0.0 0.0 17.999999999999993
    vertex 0.0 0.0 5.0
  endloop
endfacet
facet normal 1.0 -0.0 -0.0
  outer loop
    vertex 0.0 0.0 17.999999999999993
    vertex 0.0 15.0 5.0
    vertex 0.0 0.0 20.999999999999993
  endloop
endfacet
facet normal 1.0 -0.0 -0.0
  outer loop
    vertex 0.0 0.0 20.999999999999993
    vertex 0.0 15.0 5.0
    vertex 0.0 15.0 20.999999999999993
  endloop
endfacet
facet normal 1.0 -0.0 -0.0
  outer loop
    vertex 0.0 15.0 20.999999999999993
    vertex 0.0 15.0 5.0
    vertex 0.0 15.0 17.999999999999993
  endloop
endfacet
facet normal -1.0 0.0 0.0
  outer loop
    vertex 63.99999999999999 15.0 17.999999999999993
    vertex 63.99999999999999 0.0 5.0
    vertex 63.99999999999999 0.0 17.999999999999993
  endloop
endfacet
facet normal -1.0 0.0 0.0
  outer loop
    vertex 63.99999999999999 0.0 5.0
    vertex 63.99999999999999 15.0 17.999999999999993
    vertex 63.99999999999999 15.0 5.0
  endloop
endfacet
facet normal -0.0 -0.0 1.0
  outer loop
    vertex 65.49999999999999 0.0 17.999999999999993
    vertex 63.99999999999999 15.0 17.999999999999993
    vertex 63.99999999999999 0.0 17.999999999999993
  endloop
endfacet
facet normal -0.0 -0.0 1.0
  outer loop
    vertex 63.99999999999999 15.0 17.999999999999993
    vertex 65.49999999999999 0.0 17.999999999999993
    vertex 65.49999999999999 15.0 17.999999999999993
  endloop
endfacet
facet normal -0.0 -0.0 1.0
  outer loop
    vertex 65.49999999999999 15.0 17.999999999999993
    vertex 65.49999999999999 0.0 17.999999999999993
    vertex 66.99999999999999 1.4999999999999973 17.999999999999993
  endloop
endfacet
facet normal -0.0 -0.0 1.0
  outer loop
    vertex 65.49999999999999 15.0 17.999999999999993
    vertex 66.99999999999999 1.4999999999999973 17.999999999999993
    vertex 66.99999999999999 13.500000000000004 17.999999999999993
  endloop
endfacet
facet normal -0.7071067811865476 -0.7071067811865476 0.0
  outer loop
    vertex -3.0 1.5 17.999999999999993
    vertex -1.5 0.0 3.0000000000000027
    vertex -1.5 0.0 17.999999999999993
  endloop
endfacet
facet normal -0.7071067811865476 -0.7071067811865476 0.0
  outer loop
    vertex -1.5 0.0 3.0000000000000027
    vertex -3.0 1.5 17.999999999999993
    vertex -1.5 0.0 2.8199664825478975e-15
  endloop
endfacet
facet normal -0.7071067811865476 -0.7071067811865476 0.0
  outer loop
    vertex -1.5 0.0 2.8199664825478975e-15
    vertex -3.0 1.5 17.999999999999993
    vertex -3.0 1.5 4.000000000000003
  endloop
endfacet
facet normal -0.7071067811865476 -0.7071067811865476 0.0
  outer loop
    vertex -1.5 0.0 2.8199664825478975e-15
    vertex -0.5000000000000001 -0.9999999999999998 1.5000000000000027
    vertex -1.5 0.0 3.0000000000000027
  endloop
endfacet
facet normal 0.0 -1.0 0.0
  outer loop
    vertex 65.49999999999999 0.0 20.999999999999993
    vertex 63.99999999999999 0.0 17.999999999999993
    vertex 65.49999999999999 0.0 17.999999999999993
  endloop
endfacet
facet normal 0.0 -1.0 0.0
  outer loop
    vertex 63.99999999999999 0.0 17.999999999999993
    vertex 65.49999999999999 0.0 20.999999999999993
    vertex 63.99999999999999 0.0 20.999999999999993
  endloop
endfacet
facet normal 0.7071067811865476 0.7071067811865476 -0.0
  outer loop
    vertex 65.49999999999999 15.0 20.999999999999993
    vertex 66.99999999999999 13.500000000000004 17.999999999999993
    vertex 65.49999999999999 15.0 17.999999999999993
  endloop
endfacet
facet normal 0.0 1.0 0.0
  outer loop
    vertex 63.99999999999999 15.0 20.999999999999993
    vertex 65.49999999999999 15.0 17.999999999999993
    vertex 63.99999999999999 15.0 17.999999999999993
  endloop
endfacet
facet normal 0.0 1.0 0.0
  outer loop
    vertex 65.49999999999999 15.0 17.999999999999993
    vertex 63.99999999999999 15.0 20.999999999999993
    vertex 65.49999999999999 15.0 20.999999999999993
  endloop
endfacet
facet normal -1.0 -0.0 -0.0
  outer loop
    vertex 63.99999999999999 15.0 20.999999999999993
    vertex 63.99999999999999 0.0 17.999999999999993
    vertex 63.99999999999999 0.0 20.999999999999993
  endloop
endfacet
facet normal -1.0 -0.0 -0.0
  outer loop
    vertex 63.99999999999999 0.0 17.999999999999993
    vertex 63.99999999999999 15.0 20.999999999999993
    vertex 63.99999999999999 15.0 17.999999999999993
  endloop
endfacet
facet normal 0.0 1.0 0.0
  outer loop
    vertex -1.5 15.0 20.999999999999993
    vertex 0.0 15.0 17.999999999999993
    vertex -1.5 15.0 17.999999999999993
  endloop
endfacet
facet normal 0.0 1.0 0.0
  outer loop
    vertex 0.0 15.0 17.999999999999993
    vertex -1.5 15.0 20.999999999999993
    vertex 0.0 15.0 20.999999999999993
  endloop
endfacet
facet normal 0.0 -1.0 0.0
  outer loop
    vertex 0.0 0.0 20.999999999999993
    vertex -1.5 0.0 17.999999999999993
    vertex 0.0 0.0 17.999999999999993
  endloop
endfacet
facet normal 0.0 -1.0 0.0
  outer loop
    vertex -1.5 0.0 17.999999999999993
    vertex 0.0 0.0 20.999999999999993
    vertex -1.5 0.0 20.999999999999993
  endloop
endfacet
facet normal -0.7071067811865475 -0.7071067811865476 0.0
  outer loop
    vertex -1.5 0.0 20.999999999999993
    vertex -3.0 1.5 17.999999999999993
    vertex -1.5 0.0 17.999999999999993
  endloop
endfacet
facet normal -0.0 -0.0 1.0
  outer loop
    vertex 0.0 0.0 20.999999999999993
    vertex -1.5 15.0 20.999999999999993
    vertex -1.5 0.0 20.999999999999993
  endloop
endfacet
facet normal -0.0 -0.0 1.0
  outer loop
    vertex -1.5 15.0 20.999999999999993
    vertex 0.0 0.0 20.999999999999993
    vertex 0.0 15.0 20.999999999999993
  endloop
endfacet
facet normal -0.7071067811865482 0.7071067811865469 0.0
  outer loop
    vertex -1.5 15.0 17.999999999999993
    vertex -3.0 13.499999999999998 17.999999999999993
    vertex -1.5 15.0 20.999999999999993
  endloop
endfacet
facet normal -0.8944271909999161 0.0 0.44721359549995804
  outer loop
    vertex -1.5 15.0 20.999999999999993
    vertex -3.0 1.5 17.999999999999993
    vertex -1.5 0.0 20.999999999999993
  endloop
endfacet
facet normal -0.8944271909999161 0.0 0.44721359549995804
  outer loop
    vertex -3.0 1.5 17.999999999999993
    vertex -1.5 15.0 20.999999999999993
    vertex -3.0 13.499999999999998 17.999999999999993
  endloop
endfacet
facet normal 0.7071067811865476 -0.7071067811865476 -0.0
  outer loop
    vertex 66.99999999999999 1.4999999999999973 17.999999999999993
    vertex 65.49999999999999 0.0 20.999999999999993
    vertex 65.49999999999999 0.0 17.999999999999993
  endloop
endfacet
facet normal -0.0 -0.0 1.0
  outer loop
    vertex 65.49999999999999 0.0 20.999999999999993
    vertex 63.99999999999999 15.0 20.999999999999993
    vertex 63.99999999999999 0.0 20.999999999999993
  endloop
endfacet
facet normal -0.0 -0.0 1.0
  outer loop
    vertex 63.99999999999999 15.0 20.999999999999993
    vertex 65.49999999999999 0.0 20.999999999999993
    vertex 65.49999999999999 15.0 20.999999999999993
  endloop
endfacet
facet normal 0.8944271909999162 -0.0 0.4472135954999572
  outer loop
    vertex 66.99999999999999 1.4999999999999973 17.999999999999993
    vertex 65.49999999999999 15.0 20.999999999999993
    vertex 65.49999999999999 0.0 20.999999999999993
  endloop
endfacet
facet normal 0.8944271909999162 -0.0 0.4472135954999572
  outer loop
    vertex 65.49999999999999 15.0 20.999999999999993
    vertex 66.99999999999999 1.4999999999999973 17.999999999999993
    vertex 66.99999999999999 13.500000000000004 17.999999999999993
  endloop
endfacet
facet normal 0.8944271909999161 -0.0 0.44721359549995804
  outer loop
    vertex 0.9999999999999998 15.0 3.0
    vertex 0.0 0.0 5.0
    vertex 0.9999999999999998 0.0 3.0
  endloop
endfacet
facet normal 0.8944271909999161 -0.0 0.44721359549995804
  outer loop
    vertex 0.0 0.0 5.0
    vertex 0.9999999999999998 15.0 3.0
    vertex 0.0 15.0 5.0
  endloop
endfacet
facet normal 0.9363291775690448 2.1299094637118584e-17 -0.35112344158839115
  outer loop
    vertex 65.49999999999999 15.0 4.229949723821846e-15
    vertex 66.99999999999999 1.4999999999999973 4.0000000000000036
    vertex 65.49999999999999 0.0 2.8199664825478975e-15
  endloop
endfacet
facet normal 0.9363291775690448 2.1299094637118584e-17 -0.35112344158839115
  outer loop
    vertex 66.99999999999999 1.4999999999999973 4.0000000000000036
    vertex 65.49999999999999 15.0 4.229949723821846e-15
    vertex 66.99999999999999 13.500000000000004 4.0000000000000036
  endloop
endfacet
facet normal -1.0 0.0 0.0
  outer loop
    vertex -3.0 13.499999999999998 17.999999999999993
    vertex -3.0 1.5 4.000000000000003
    vertex -3.0 1.5 17.999999999999993
  endloop
endfacet
facet normal -1.0 0.0 0.0
  outer loop
    vertex -3.0 1.5 4.000000000000003
    vertex -3.0 13.499999999999998 17.999999999999993
    vertex -3.0 13.499999999999998 4.000000000000002
  endloop
endfacet
facet normal -0.7071067811865477 0.7071067811865474 -4.0153705335850555e-17
  outer loop
    vertex -1.5 15.0 17.999999999999993
    vertex -3.0 13.499999999999998 4.000000000000002
    vertex -3.0 13.499999999999998 17.999999999999993
  endloop
endfacet
facet normal -0.7071067811865477 0.7071067811865474 -4.0153705335850555e-17
  outer loop
    vertex -3.0 13.499999999999998 4.000000000000002
    vertex -1.5 15.0 17.999999999999993
    vertex -1.5 15.0 2.8199664825478975e-15
  endloop
endfacet
facet normal -0.7071067811865477 0.7071067811865474 -4.0153705335850555e-17
  outer loop
    vertex -1.5 15.0 2.8199664825478975e-15
    vertex -1.5 15.0 17.999999999999993
    vertex -1.4999999999999973 15.0 3.0000000000000044
  endloop
endfacet
facet normal -0.7071067811865477 0.7071067811865474 -4.0153705335850555e-17
  outer loop
    vertex -1.5 15.0 2.8199664825478975e-15
    vertex -1.4999999999999973 15.0 3.0000000000000044
    vertex -0.4999999999999989 15.999999999999998 1.5000000000000036
  endloop
endfacet
facet normal -0.9363291775690445 -5.679758569898308e-18 -0.3511234415883918
  outer loop
    vertex -3.0 1.5 4.000000000000003
    vertex -1.5 15.0 2.8199664825478975e-15
    vertex -1.5 0.0 2.8199664825478975e-15
  endloop
endfacet
facet normal -0.9363291775690445 -5.679758569898308e-18 -0.3511234415883918
  outer loop
    vertex -1.5 15.0 2.8199664825478975e-15
    vertex -3.0 1.5 4.000000000000003
    vertex -3.0 13.499999999999998 4.000000000000002
  endloop
endfacet
facet normal 1.0522262994581708e-17 4.699944137579829e-17 -1.0
  outer loop
    vertex -1.5 15.0 2.8199664825478975e-15
    vertex 31.029428580865545 11.122221848584006 6.3449245857327695e-15
    vertex -1.5 0.0 2.8199664825478975e-15
  endloop
endfacet
facet normal 1.0522262994581708e-17 4.699944137579829e-17 -1.0
  outer loop
    vertex 31.029428580865545 11.122221848584006 6.3449245857327695e-15
    vertex -1.5 15.0 2.8199664825478975e-15
    vertex 31.999999999999996 11.25 6.3449245857327695e-15
  endloop
endfacet
facet normal 1.0522262994581708e-17 4.699944137579829e-17 -1.0
  outer loop
    vertex 31.999999999999996 11.25 6.3449245857327695e-15
    vertex -1.5 15.0 2.8199664825478975e-15
    vertex 65.49999999999999 15.0 4.229949723821846e-15
  endloop
endfacet
facet normal 1.0522262994581708e-17 4.699944137579829e-17 -1.0
  outer loop
    vertex -1.5 0.0 2.8199664825478975e-15
    vertex 31.029428580865545 11.122221848584006 6.3449245857327695e-15
    vertex 30.125 10.747595264191645 6.3449245857327695e-15
  endloop
endfacet
facet normal 1.0522262994581708e-17 4.699944137579829e-17 -1.0
  outer loop
    vertex -1.5 0.0 2.8199664825478975e-15
    vertex 30.125 10.747595264191645 6.3449245857327695e-15
    vertex 29.348349570550443 10.151650429449553 6.3449245857327695e-15
  endloop
endfacet
facet normal 1.0522262994581708e-17 4.699944137579829e-17 -1.0
  outer loop
    vertex -1.5 0.0 2.8199664825478975e-15
    vertex 29.348349570550443 10.151650429449553 6.3449245857327695e-15
    vertex 28.752404735808355 9.375000000000002 6.3449245857327695e-15
  endloop
endfacet
facet normal 1.0522262994581708e-17 4.699944137579829e-17 -1.0
  outer loop
    vertex -1.5 0.0 2.8199664825478975e-15
    vertex 28.752404735808355 9.375000000000002 6.3449245857327695e-15
    vertex 28.377778151415992 8.470571419134457 6.3449245857327695e-15
  endloop
endfacet
facet normal 1.0522262994581708e-17 4.699944137579829e-17 -1.0
  outer loop
    vertex -1.5 0.0 2.8199664825478975e-15
    vertex 28.377778151415992 8.470571419134457 6.3449245857327695e-15
    vertex 28.25 7.5 6.3449245857327695e-15
  endloop
endfacet
facet normal 1.0522262994581708e-17 4.699944137579829e-17 -1.0
  outer loop
    vertex 31.999999999999996 11.25 6.3449245857327695e-15
    vertex 65.49999999999999 15.0 4.229949723821846e-15
    vertex 32.97057141913446 11.122221848584003 6.3449245857327695e-15
  endloop
endfacet
facet normal 1.0522262994581708e-17 4.699944137579829e-17 -1.0
  outer loop
    vertex 32.97057141913446 11.122221848584003 6.3449245857327695e-15
    vertex 65.49999999999999 15.0 4.229949723821846e-15
    vertex 33.875 10.747595264191643 6.3449245857327695e-15
  endloop
endfacet
facet normal 1.0522262994581708e-17 4.699944137579829e-17 -1.0
  outer loop
    vertex 33.875 10.747595264191643 6.3449245857327695e-15
    vertex 65.49999999999999 15.0 4.229949723821846e-15
    vertex 34.65165042944955 10.151650429449552 6.3449245857327695e-15
  endloop
endfacet
facet normal 1.0522262994581708e-17 4.699944137579829e-17 -1.0
  outer loop
    vertex 34.65165042944955 10.151650429449552 6.3449245857327695e-15
    vertex 65.49999999999999 15.0 4.229949723821846e-15
    vertex 35.24759526419164 9.374999999999998 6.3449245857327695e-15
  endloop
endfacet
facet normal 1.0522262994581708e-17 4.699944137579829e-17 -1.0
  outer loop
    vertex 35.24759526419164 9.374999999999998 6.3449245857327695e-15
    vertex 65.49999999999999 15.0 4.229949723821846e-15
    vertex 35.622221848584005 8.470571419134451 6.3449245857327695e-15
  endloop
endfacet
facet normal 1.0522262994581708e-17 4.699944137579829e-17 -1.0
  outer loop
    vertex 35.622221848584005 8.470571419134451 6.3449245857327695e-15
    vertex 65.49999999999999 15.0 4.229949723821846e-15
    vertex 35.75 7.5 6.3449245857327695e-15
  endloop
endfacet
facet normal 1.0522262994581708e-17 4.699944137579829e-17 -1.0
  outer loop
    vertex -1.5 0.0 2.8199664825478975e-15
    vertex 31.999999999999996 3.7500000000000018 6.3449245857327695e-15
    vertex 65.49999999999999 0.0 2.8199664825478975e-15
  endloop
endfacet
facet normal 1.0522262994581708e-17 4.699944137579829e-17 -1.0
  outer loop
    vertex 31.999999999999996 3.7500000000000018 6.3449245857327695e-15
    vertex -1.5 0.0 2.8199664825478975e-15
    vertex 31.029428580865545 3.8777781514159955 6.3449245857327695e-15
  endloop
endfacet
facet normal 1.0522262994581708e-17 4.699944137579829e-17 -1.0
  outer loop
    vertex 31.029428580865545 3.8777781514159955 6.3449245857327695e-15
    vertex -1.5 0.0 2.8199664825478975e-15
    vertex 30.124999999999996 4.252404735808357 6.3449245857327695e-15
  endloop
endfacet
facet normal 1.0522262994581708e-17 4.699944137579829e-17 -1.0
  outer loop
    vertex 30.124999999999996 4.252404735808357 6.3449245857327695e-15
    vertex -1.5 0.0 2.8199664825478975e-15
    vertex 29.348349570550443 4.848349570550448 6.3449245857327695e-15
  endloop
endfacet
facet normal 1.0522262994581708e-17 4.699944137579829e-17 -1.0
  outer loop
    vertex 29.348349570550443 4.848349570550448 6.3449245857327695e-15
    vertex -1.5 0.0 2.8199664825478975e-15
    vertex 28.752404735808355 5.625000000000001 6.3449245857327695e-15
  endloop
endfacet
facet normal 1.0522262994581708e-17 4.699944137579829e-17 -1.0
  outer loop
    vertex 28.752404735808355 5.625000000000001 6.3449245857327695e-15
    vertex -1.5 0.0 2.8199664825478975e-15
    vertex 28.377778151415992 6.529428580865549 6.3449245857327695e-15
  endloop
endfacet
facet normal 1.0522262994581708e-17 4.699944137579829e-17 -1.0
  outer loop
    vertex 28.377778151415992 6.529428580865549 6.3449245857327695e-15
    vertex -1.5 0.0 2.8199664825478975e-15
    vertex 28.25 7.5 6.3449245857327695e-15
  endloop
endfacet
facet normal 1.0522262994581708e-17 4.699944137579829e-17 -1.0
  outer loop
    vertex 65.49999999999999 0.0 2.8199664825478975e-15
    vertex 31.999999999999996 3.7500000000000018 6.3449245857327695e-15
    vertex 32.97057141913445 3.8777781514159955 6.3449245857327695e-15
  endloop
endfacet
facet normal 1.0522262994581708e-17 4.699944137579829e-17 -1.0
  outer loop
    vertex 65.49999999999999 0.0 2.8199664825478975e-15
    vertex 32.97057141913445 3.8777781514159955 6.3449245857327695e-15
    vertex 33.87499999999999 4.252404735808356 6.3449245857327695e-15
  endloop
endfacet
facet normal 1.0522262994581708e-17 4.699944137579829e-17 -1.0
  outer loop
    vertex 65.49999999999999 0.0 2.8199664825478975e-15
    vertex 33.87499999999999 4.252404735808356 6.3449245857327695e-15
    vertex 34.65165042944955 4.848349570550448 6.3449245857327695e-15
  endloop
endfacet
facet normal 1.0522262994581708e-17 4.699944137579829e-17 -1.0
  outer loop
    vertex 65.49999999999999 0.0 2.8199664825478975e-15
    vertex 34.65165042944955 4.848349570550448 6.3449245857327695e-15
    vertex 35.24759526419164 5.625 6.3449245857327695e-15
  endloop
endfacet
facet normal 1.0522262994581708e-17 4.699944137579829e-17 -1.0
  outer loop
    vertex 65.49999999999999 0.0 2.8199664825478975e-15
    vertex 35.24759526419164 5.625 6.3449245857327695e-15
    vertex 35.622221848584005 6.529428580865547 6.3449245857327695e-15
  endloop
endfacet
facet normal 1.0522262994581708e-17 4.699944137579829e-17 -1.0
  outer loop
    vertex 65.49999999999999 0.0 2.8199664825478975e-15
    vertex 35.622221848584005 6.529428580865547 6.3449245857327695e-15
    vertex 35.75 7.5 6.3449245857327695e-15
  endloop
endfacet
facet normal 1.0522262994581708e-17 4.699944137579829e-17 -1.0
  outer loop
    vertex 65.49999999999999 0.0 2.8199664825478975e-15
    vertex 35.75 7.5 6.3449245857327695e-15
    vertex 65.49999999999999 15.0 4.229949723821846e-15
  endloop
endfacet
facet normal -0.0 -0.0 1.0
  outer loop
    vertex 63.0 0.0 3.0
    vertex 39.0 15.0 3.0
    vertex 39.0 0.0 3.0
  endloop
endfacet
facet normal -0.0 -0.0 1.0
  outer loop
    vertex 39.0 15.0 3.0
    vertex 63.0 0.0 3.0
    vertex 63.0 15.0 3.0
  endloop
endfacet
facet normal -0.8944271909999162 0.0 0.4472135954999573
  outer loop
    vertex 63.99999999999999 15.0 5.0
    vertex 63.0 0.0 3.0
    vertex 63.99999999999999 0.0 5.0
  endloop
endfacet
facet normal -0.8944271909999162 0.0 0.4472135954999573
  outer loop
    vertex 63.0 0.0 3.0
    vertex 63.99999999999999 15.0 5.0
    vertex 63.0 15.0 3.0
  endloop
endfacet
facet normal 0.0 -1.0 0.0
  outer loop
    vertex 39.0 0.0 3.0
    vertex 36.5 0.0 9.0
    vertex 25.0 0.0 3.0
  endloop
endfacet
facet normal 0.0 -1.0 0.0
  outer loop
    vertex 36.5 0.0 9.0
    vertex 39.0 0.0 3.0
    vertex 39.0 0.0 12.999999999999998
  endloop
endfacet
facet normal 0.0 -1.0 0.0
  outer loop
    vertex 36.5 0.0 9.0
    vertex 39.0 0.0 12.999999999999998
    vertex 36.5 0.0 12.999999999999998
  endloop
endfacet
facet normal 0.0 -1.0 0.0
  outer loop
    vertex 25.0 0.0 3.0
    vertex 27.5 0.0 9.0
    vertex 25.0 0.0 12.999999999999998
  endloop
endfacet
facet normal 0.0 -1.0 0.0
  outer loop
    vertex 27.5 0.0 9.0
    vertex 25.0 0.0 3.0
    vertex 36.5 0.0 9.0
  endloop
endfacet
facet normal 0.0 -1.0 0.0
  outer loop
    vertex 25.0 0.0 12.999999999999998
    vertex 27.5 0.0 9.0
    vertex 27.5 0.0 12.999999999999998
  endloop
endfacet
facet normal -0.0 1.0 -0.0
  outer loop
    vertex 63.99999999999999 15.0 5.0
    vertex 63.99999999999999 15.0 3.0
    vertex 63.0 15.0 3.0
  endloop
endfacet
facet normal -0.0 1.0 -0.0
  outer loop
    vertex 63.99999999999999 15.0 3.0
    vertex 63.99999999999999 15.0 5.0
    vertex 65.49999999999999 15.0 3.0000000000000044
  endloop
endfacet
facet normal -0.0 1.0 -0.0
  outer loop
    vertex 65.49999999999999 15.0 3.0000000000000044
    vertex 63.99999999999999 15.0 5.0
    vertex 65.49999999999999 15.0 17.999999999999993
  endloop
endfacet
facet normal -0.0 1.0 -0.0
  outer loop
    vertex 65.49999999999999 15.0 17.999999999999993
    vertex 63.99999999999999 15.0 5.0
    vertex 63.99999999999999 15.0 17.999999999999993
  endloop
endfacet
facet normal -0.0 1.0 -0.0
  outer loop
    vertex 25.0 15.0 3.0
    vertex 27.5 15.0 9.0
    vertex 39.0 15.0 3.0
  endloop
endfacet
facet normal -0.0 1.0 -0.0
  outer loop
    vertex 27.5 15.0 9.0
    vertex 25.0 15.0 3.0
    vertex 25.0 15.0 12.999999999999998
  endloop
endfacet
facet normal -0.0 1.0 -0.0
  outer loop
    vertex 27.5 15.0 9.0
    vertex 25.0 15.0 12.999999999999998
    vertex 27.5 15.0 12.999999999999998
  endloop
endfacet
facet normal -0.0 1.0 -0.0
  outer loop
    vertex 39.0 15.0 3.0
    vertex 36.5 15.0 9.0
    vertex 39.0 15.0 12.999999999999998
  endloop
endfacet
facet normal -0.0 1.0 -0.0
  outer loop
    vertex 36.5 15.0 9.0
    vertex 39.0 15.0 3.0
    vertex 27.5 15.0 9.0
  endloop
endfacet
facet normal -0.0 1.0 -0.0
  outer loop
    vertex 39.0 15.0 12.999999999999998
    vertex 36.5 15.0 9.0
    vertex 36.5 15.0 12.999999999999998
  endloop
endfacet
facet normal 0.0 -0.8320502943378437 -0.554700196225229
  outer loop
    vertex 64.5 -0.9999999999999998 1.5000000000000027
    vertex -1.5 0.0 2.8199664825478975e-15
    vertex 65.49999999999999 0.0 2.8199664825478975e-15
  endloop
endfacet
facet normal 0.0 -0.8320502943378437 -0.554700196225229
  outer loop
    vertex -1.5 0.0 2.8199664825478975e-15
    vertex 64.5 -0.9999999999999998 1.5000000000000027
    vertex -0.5000000000000001 -0.9999999999999998 1.5000000000000027
  endloop
endfacet
facet normal 9.119025341963347e-18 0.8320502943378444 -0.5547001962252284
  outer loop
    vertex -0.4999999999999989 15.999999999999998 1.5000000000000036
    vertex 65.49999999999999 15.0 4.229949723821846e-15
    vertex -1.5 15.0 2.8199664825478975e-15
  endloop
endfacet
facet normal 9.119025341963347e-18 0.8320502943378444 -0.5547001962252284
  outer loop
    vertex 65.49999999999999 15.0 4.229949723821846e-15
    vertex -0.4999999999999989 15.999999999999998 1.5000000000000036
    vertex 64.5 15.999999999999998 1.5000000000000042
  endloop
endfacet
facet normal 0.7071067811865477 -0.7071067811865474 -8.867475849195172e-17
  outer loop
    vertex 65.49999999999999 0.0 2.8199664825478975e-15
    vertex 65.49999999999999 0.0 3.0000000000000027
    vertex 64.5 -0.9999999999999998 1.5000000000000027
  endloop
endfacet
facet normal 0.7071067811865477 -0.7071067811865474 -8.867475849195172e-17
  outer loop
    vertex 65.49999999999999 0.0 3.0000000000000027
    vertex 65.49999999999999 0.0 2.8199664825478975e-15
    vertex 66.99999999999999 1.4999999999999973 4.0000000000000036
  endloop
endfacet
facet normal 0.7071067811865477 -0.7071067811865474 -8.867475849195172e-17
  outer loop
    vertex 65.49999999999999 0.0 3.0000000000000027
    vertex 66.99999999999999 1.4999999999999973 4.0000000000000036
    vertex 65.49999999999999 0.0 4.0000000000000036
  endloop
endfacet
facet normal 0.7071067811865477 -0.7071067811865474 -8.867475849195172e-17
  outer loop
    vertex 65.49999999999999 0.0 4.0000000000000036
    vertex 66.99999999999999 1.4999999999999973 4.0000000000000036
    vertex 65.49999999999999 0.0 17.999999999999993
  endloop
endfacet
facet normal 0.7071067811865477 -0.7071067811865474 -8.867475849195172e-17
  outer loop
    vertex 65.49999999999999 0.0 17.999999999999993
    vertex 66.99999999999999 1.4999999999999973 4.0000000000000036
    vertex 66.99999999999999 1.4999999999999973 17.999999999999993
  endloop
endfacet
facet normal 0.7071067811865475 0.7071067811865476 1.1472487238814507e-17
  outer loop
    vertex 64.5 15.999999999999998 1.5000000000000042
    vertex 66.99999999999999 13.500000000000004 4.0000000000000036
    vertex 65.49999999999999 15.0 4.229949723821846e-15
  endloop
endfacet
facet normal 0.7071067811865475 0.7071067811865476 1.1472487238814507e-17
  outer loop
    vertex 66.99999999999999 13.500000000000004 4.0000000000000036
    vertex 64.5 15.999999999999998 1.5000000000000042
    vertex 65.49999999999999 15.0 3.0000000000000044
  endloop
endfacet
facet normal 0.7071067811865475 0.7071067811865476 1.1472487238814507e-17
  outer loop
    vertex 66.99999999999999 13.500000000000004 4.0000000000000036
    vertex 65.49999999999999 15.0 3.0000000000000044
    vertex 65.49999999999999 15.0 17.999999999999993
  endloop
endfacet
facet normal 0.7071067811865475 0.7071067811865476 1.1472487238814507e-17
  outer loop
    vertex 66.99999999999999 13.500000000000004 4.0000000000000036
    vertex 65.49999999999999 15.0 17.999999999999993
    vertex 66.99999999999999 13.500000000000004 17.999999999999993
  endloop
endfacet
facet normal -1.2526652226518764e-18 0.8320502943378437 0.554700196225229
  outer loop
    vertex -1.4999999999999973 15.0 3.0000000000000044
    vertex 64.5 15.999999999999998 1.5000000000000042
    vertex -0.4999999999999989 15.999999999999998 1.5000000000000036
  endloop
endfacet
facet normal -1.2526652226518764e-18 0.8320502943378437 0.554700196225229
  outer loop
    vertex 64.5 15.999999999999998 1.5000000000000042
    vertex -1.4999999999999973 15.0 3.0000000000000044
    vertex 0.0 15.0 3.0
  endloop
endfacet
facet normal -1.2526652226518764e-18 0.8320502943378437 0.554700196225229
  outer loop
    vertex 64.5 15.999999999999998 1.5000000000000042
    vertex 63.99999999999999 15.0 3.0
    vertex 65.49999999999999 15.0 3.0000000000000044
  endloop
endfacet
facet normal -1.2526652226518764e-18 0.8320502943378437 0.554700196225229
  outer loop
    vertex 63.99999999999999 15.0 3.0
    vertex 64.5 15.999999999999998 1.5000000000000042
    vertex 0.0 15.0 3.0
  endloop
endfacet
facet normal -1.2526652226518764e-18 0.8320502943378437 0.554700196225229
  outer loop
    vertex 63.99999999999999 15.0 3.0
    vertex 0.0 15.0 3.0
    vertex 0.9999999999999998 15.0 3.0
  endloop
endfacet
facet normal -1.2526652226518764e-18 0.8320502943378437 0.554700196225229
  outer loop
    vertex 63.99999999999999 15.0 3.0
    vertex 0.9999999999999998 15.0 3.0
    vertex 25.0 15.0 3.0
  endloop
endfacet
facet normal -1.2526652226518764e-18 0.8320502943378437 0.554700196225229
  outer loop
    vertex 63.99999999999999 15.0 3.0
    vertex 25.0 15.0 3.0
    vertex 39.0 15.0 3.0
  endloop
endfacet
facet normal -1.2526652226518764e-18 0.8320502943378437 0.554700196225229
  outer loop
    vertex 63.99999999999999 15.0 3.0
    vertex 39.0 15.0 3.0
    vertex 63.0 15.0 3.0
  endloop
endfacet
facet normal -4.421171374065394e-19 -0.8320502943378435 0.5547001962252295
  outer loop
    vertex 65.49999999999999 0.0 3.0000000000000027
    vertex -0.5000000000000001 -0.9999999999999998 1.5000000000000027
    vertex 64.5 -0.9999999999999998 1.5000000000000027
  endloop
endfacet
facet normal -4.421171374065394e-19 -0.8320502943378435 0.5547001962252295
  outer loop
    vertex -0.5000000000000001 -0.9999999999999998 1.5000000000000027
    vertex 65.49999999999999 0.0 3.0000000000000027
    vertex 63.99999999999999 0.0 3.0
  endloop
endfacet
facet normal -4.421171374065394e-19 -0.8320502943378435 0.5547001962252295
  outer loop
    vertex -0.5000000000000001 -0.9999999999999998 1.5000000000000027
    vertex 0.0 0.0 3.0
    vertex -1.5 0.0 3.0000000000000027
  endloop
endfacet
facet normal -4.421171374065394e-19 -0.8320502943378435 0.5547001962252295
  outer loop
    vertex 0.0 0.0 3.0
    vertex -0.5000000000000001 -0.9999999999999998 1.5000000000000027
    vertex 63.99999999999999 0.0 3.0
  endloop
endfacet
facet normal -4.421171374065394e-19 -0.8320502943378435 0.5547001962252295
  outer loop
    vertex 0.0 0.0 3.0
    vertex 63.99999999999999 0.0 3.0
    vertex 63.0 0.0 3.0
  endloop
endfacet
facet normal -4.421171374065394e-19 -0.8320502943378435 0.5547001962252295
  outer loop
    vertex 0.0 0.0 3.0
    vertex 63.0 0.0 3.0
    vertex 39.0 0.0 3.0
  endloop
endfacet
facet normal -4.421171374065394e-19 -0.8320502943378435 0.5547001962252295
  outer loop
    vertex 0.0 0.0 3.0
    vertex 39.0 0.0 3.0
    vertex 25.0 0.0 3.0
  endloop
endfacet
facet normal -4.421171374065394e-19 -0.8320502943378435 0.5547001962252295
  outer loop
    vertex 0.0 0.0 3.0
    vertex 25.0 0.0 3.0
    vertex 0.9999999999999998 0.0 3.0
  endloop
endfacet
facet normal 0.0 -1.0 0.0
  outer loop
    vertex 0.0 0.0 5.0
    vertex 0.0 0.0 3.0
    vertex 0.9999999999999998 0.0 3.0
  endloop
endfacet
facet normal 0.0 -1.0 0.0
  outer loop
    vertex 0.0 0.0 3.0
    vertex 0.0 0.0 5.0
    vertex -1.5 0.0 3.0000000000000027
  endloop
endfacet
facet normal 0.0 -1.0 0.0
  outer loop
    vertex -1.5 0.0 3.0000000000000027
    vertex 0.0 0.0 5.0
    vertex -1.5 0.0 17.999999999999993
  endloop
endfacet
facet normal 0.0 -1.0 0.0
  outer loop
    vertex -1.5 0.0 17.999999999999993
    vertex 0.0 0.0 5.0
    vertex 0.0 0.0 17.999999999999993
  endloop
endfacet
endsolid Holder
