solid Стол-хаб-М8-16 - под прочный - Безтруб
facet normal -1.0 1.5666480458598513e-16 2.2559731860383087e-15
  outer loop
    vertex -30.076636756646483 -35.01332009332591 8.75
    vertex -30.076636756646504 -53.013320093325845 -1.159711215947823e-13
    vertex -30.076636756646476 -53.013320093325945 8.749999999999956
  endloop
endfacet
facet normal -1.0 1.5666480458598513e-16 2.2559731860383087e-15
  outer loop
    vertex -30.076636756646504 -53.013320093325845 -1.159711215947823e-13
    vertex -30.076636756646483 -35.01332009332591 8.75
    vertex -30.076636756646494 -35.01332009332589 -2.8199664825478976e-14
  endloop
endfacet
facet normal -1.0 5.696599836100443e-32 5.639932965095803e-16
  outer loop
    vertex 20.523363243353522 -20.6133200933259 39.99999999999994
    vertex 20.523363243353497 -10.513320093325921 -9.279318343037432e-15
    vertex 20.523363243353497 -20.613320093325918 -8.503827560336759e-15
  endloop
endfacet
facet normal -1.0 5.696599836100443e-32 5.639932965095803e-16
  outer loop
    vertex 20.523363243353497 -10.513320093325921 -9.279318343037432e-15
    vertex 20.523363243353522 -20.6133200933259 39.99999999999994
    vertex 20.523363243353522 -10.513320093325907 39.99999999999994
  endloop
endfacet
facet normal -7.775781659743881e-32 1.0 -3.0089395880566e-16
  outer loop
    vertex 4.32336324335349 -20.613320093325918 -4.317380501450795e-15
    vertex 20.523363243353522 -20.6133200933259 39.99999999999994
    vertex 20.523363243353497 -20.613320093325918 -8.503827560336759e-15
  endloop
endfacet
facet normal -7.775781659743881e-32 1.0 -3.0089395880566e-16
  outer loop
    vertex 20.523363243353522 -20.6133200933259 39.99999999999994
    vertex 4.32336324335349 -20.613320093325918 -4.317380501450795e-15
    vertex 4.32336324335351 -20.6133200933259 39.99999999999996
  endloop
endfacet
facet normal 2.8225440145362556e-31 -1.0 4.934941344458825e-16
  outer loop
    vertex 14.423363243353512 -4.4133200933259005 39.99999999999994
    vertex 4.323363243353502 -4.413320093325921 -7.649510113001883e-15
    vertex 14.423363243353501 -4.413320093325921 -9.067820856846338e-15
  endloop
endfacet
facet normal 2.8225440145362556e-31 -1.0 4.934941344458825e-16
  outer loop
    vertex 4.323363243353502 -4.413320093325921 -7.649510113001883e-15
    vertex 14.423363243353512 -4.4133200933259005 39.99999999999994
    vertex 4.323363243353523 -4.4133200933259005 39.99999999999996
  endloop
endfacet
facet normal 1.0 -7.833240229299716e-16 -3.2967899014194295e-16
  outer loop
    vertex 4.323363243353502 -4.413320093325921 -7.649510113001883e-15
    vertex 4.32336324335351 -20.6133200933259 39.99999999999996
    vertex 4.32336324335349 -20.613320093325918 -4.317380501450795e-15
  endloop
endfacet
facet normal 1.0 -7.833240229299716e-16 -3.2967899014194295e-16
  outer loop
    vertex 4.32336324335351 -20.6133200933259 39.99999999999996
    vertex 4.323363243353502 -4.413320093325921 -7.649510113001883e-15
    vertex 4.323363243353523 -4.4133200933259005 39.99999999999996
  endloop
endfacet
facet normal 1.0 -3.3372227480490696e-31 -5.639932965095801e-16
  outer loop
    vertex 23.9233632433535 -10.513320093325921 -9.279318343037432e-15
    vertex 23.92336324335352 -24.013320093325895 39.99999999999996
    vertex 23.9233632433535 -24.013320093325916 -4.6362733135365124e-15
  endloop
endfacet
facet normal 1.0 -3.3372227480490696e-31 -5.639932965095801e-16
  outer loop
    vertex 23.92336324335352 -24.013320093325895 39.99999999999996
    vertex 23.9233632433535 -10.513320093325921 -9.279318343037432e-15
    vertex 23.92336324335352 -10.513320093325907 39.99999999999994
  endloop
endfacet
facet normal -3.0651809592912345e-17 1.0 -5.11118924961807e-16
  outer loop
    vertex 0.9233632433534833 -1.0133200933259208 -1.6156408564783567e-15
    vertex 14.423363243353512 -1.0133200933259001 39.99999999999994
    vertex 14.423363243353501 -1.0133200933259205 -9.067820856846338e-15
  endloop
endfacet
facet normal -3.0651809592912345e-17 1.0 -5.11118924961807e-16
  outer loop
    vertex 14.423363243353512 -1.0133200933259001 39.99999999999994
    vertex 0.9233632433534833 -1.0133200933259208 -1.6156408564783567e-15
    vertex 0.9233632433535078 -1.0133200933259003 39.99999999999996
  endloop
endfacet
facet normal -0.13052619222005143 0.9914448613738105 9.706051428501117e-15
  outer loop
    vertex -25.07663675664647 -52.01332009332577 8.749999999999947
    vertex -24.558998666441486 -51.94517174590385 -3.595457265248569e-14
    vertex -25.076636756646526 -52.01332009332571 -3.595457265248569e-14
  endloop
endfacet
facet normal -0.13052619222005143 0.9914448613738105 9.706051428501117e-15
  outer loop
    vertex -24.558998666441486 -51.94517174590385 -3.595457265248569e-14
    vertex -25.07663675664647 -52.01332009332577 8.749999999999947
    vertex -24.55899866644143 -51.945171745903906 8.749999999999941
  endloop
endfacet
facet normal 0.13052619222005216 0.9914448613738104 7.417564500720389e-15
  outer loop
    vertex -25.59427484685151 -51.945171745903906 8.749999999999954
    vertex -25.076636756646526 -52.01332009332571 -3.595457265248569e-14
    vertex -25.594274846851587 -51.94517174590385 -3.595457265248569e-14
  endloop
endfacet
facet normal 0.13052619222005216 0.9914448613738104 7.417564500720389e-15
  outer loop
    vertex -25.076636756646526 -52.01332009332571 -3.595457265248569e-14
    vertex -25.59427484685151 -51.945171745903906 8.749999999999954
    vertex -25.07663675664647 -52.01332009332577 8.749999999999947
  endloop
endfacet
facet normal -0.3826834323651025 0.9238795325112816 1.1333086991437939e-14
  outer loop
    vertex -24.55899866644143 -51.945171745903906 8.749999999999941
    vertex -24.076636756646526 -51.745370900894585 -3.595457265248569e-14
    vertex -24.558998666441486 -51.94517174590385 -3.595457265248569e-14
  endloop
endfacet
facet normal -0.3826834323651025 0.9238795325112816 1.1333086991437939e-14
  outer loop
    vertex -24.076636756646526 -51.745370900894585 -3.595457265248569e-14
    vertex -24.55899866644143 -51.945171745903906 8.749999999999941
    vertex -24.076636756646472 -51.74537090089464 8.74999999999994
  endloop
endfacet
facet normal -0.6087614290087205 0.7933533402912353 1.2187791404719919e-14
  outer loop
    vertex -24.076636756646472 -51.74537090089464 8.74999999999994
    vertex -23.662423194273437 -51.4275336556988 -3.595457265248569e-14
    vertex -24.076636756646526 -51.745370900894585 -3.595457265248569e-14
  endloop
endfacet
facet normal -0.6087614290087205 0.7933533402912353 1.2187791404719919e-14
  outer loop
    vertex -23.662423194273437 -51.4275336556988 -3.595457265248569e-14
    vertex -24.076636756646472 -51.74537090089464 8.74999999999994
    vertex -23.66242319427338 -51.42753365569886 8.74999999999994
  endloop
endfacet
facet normal -0.9238795325112881 0.3826834323650867 1.1403822516525022e-14
  outer loop
    vertex -23.14478510406834 -50.5309581835308 8.749999999999941
    vertex -23.344585949077658 -51.0133200933257 -3.595457265248569e-14
    vertex -23.3445859490776 -51.01332009332576 8.74999999999994
  endloop
endfacet
facet normal -0.9238795325112881 0.3826834323650867 1.1403822516525022e-14
  outer loop
    vertex -23.344585949077658 -51.0133200933257 -3.595457265248569e-14
    vertex -23.14478510406834 -50.5309581835308 8.749999999999941
    vertex -23.144785104068397 -50.530958183530736 -3.595457265248569e-14
  endloop
endfacet
facet normal -0.6087614290087153 -0.7933533402912393 -1.514511592229206e-15
  outer loop
    vertex -23.662423194273394 -48.59910653095267 8.749999999999964
    vertex -24.07663675664655 -48.28126928575682 -1.3394840792102513e-14
    vertex -23.66242319427345 -48.599106530952604 -1.3394840792102513e-14
  endloop
endfacet
facet normal -0.6087614290087153 -0.7933533402912393 -1.514511592229206e-15
  outer loop
    vertex -24.07663675664655 -48.28126928575682 -1.3394840792102513e-14
    vertex -23.662423194273394 -48.59910653095267 8.749999999999964
    vertex -24.076636756646494 -48.281269285756885 8.74999999999997
  endloop
endfacet
facet normal 0.9914448613738104 0.13052619222005216 -7.564208594399415e-15
  outer loop
    vertex -27.008488409224693 -50.53095818353076 -2.114974861910923e-15
    vertex -27.076636756646476 -50.01332009332578 8.74999999999998
    vertex -27.008488409224615 -50.53095818353082 8.749999999999975
  endloop
endfacet
facet normal 0.9914448613738104 0.13052619222005216 -7.564208594399415e-15
  outer loop
    vertex -27.076636756646476 -50.01332009332578 8.74999999999998
    vertex -27.008488409224693 -50.53095818353076 -2.114974861910923e-15
    vertex -27.076636756646554 -50.01332009332572 -2.114974861910923e-15
  endloop
endfacet
facet normal 0.7933533402912281 0.60876142900873 -1.6977710880237774e-15
  outer loop
    vertex -26.490850319019646 -51.42753365569882 -1.3394840792102513e-14
    vertex -26.808687564215354 -51.01332009332578 8.74999999999997
    vertex -26.490850319019568 -51.42753365569887 8.749999999999964
  endloop
endfacet
facet normal 0.7933533402912281 0.60876142900873 -1.6977710880237774e-15
  outer loop
    vertex -26.808687564215354 -51.01332009332578 8.74999999999997
    vertex -26.490850319019646 -51.42753365569882 -1.3394840792102513e-14
    vertex -26.808687564215433 -51.013320093325724 -1.3394840792102513e-14
  endloop
endfacet
facet normal 0.6087614290087248 -0.7933533402912322 -1.2187791404719928e-14
  outer loop
    vertex -26.07663675664649 -48.2812692857569 8.749999999999988
    vertex -26.490850319019664 -48.59910653095262 9.164891068280667e-15
    vertex -26.076636756646568 -48.281269285756835 9.164891068280667e-15
  endloop
endfacet
facet normal 0.6087614290087248 -0.7933533402912322 -1.2187791404719928e-14
  outer loop
    vertex -26.490850319019664 -48.59910653095262 9.164891068280667e-15
    vertex -26.07663675664649 -48.2812692857569 8.749999999999988
    vertex -26.490850319019586 -48.59910653095268 8.74999999999999
  endloop
endfacet
facet normal -0.9238795325112843 -0.38268343236509594 4.79435347432744e-15
  outer loop
    vertex -23.34458594907761 -49.01332009332576 8.74999999999996
    vertex -23.144785104068404 -49.495682003120656 -3.595457265248569e-14
    vertex -23.144785104068347 -49.49568200312072 8.74999999999995
  endloop
endfacet
facet normal -0.9238795325112843 -0.38268343236509594 4.79435347432744e-15
  outer loop
    vertex -23.144785104068404 -49.495682003120656 -3.595457265248569e-14
    vertex -23.34458594907761 -49.01332009332576 8.74999999999996
    vertex -23.34458594907767 -49.013320093325696 -2.4674706722294104e-14
  endloop
endfacet
facet normal 0.38268343236508207 0.92387953251129 4.623582810320593e-15
  outer loop
    vertex -26.076636756646547 -51.74537090089459 -2.4674706722294104e-14
    vertex -25.59427484685151 -51.945171745903906 8.749999999999954
    vertex -25.594274846851587 -51.94517174590385 -3.595457265248569e-14
  endloop
endfacet
facet normal 0.38268343236508207 0.92387953251129 4.623582810320593e-15
  outer loop
    vertex -25.59427484685151 -51.945171745903906 8.749999999999954
    vertex -26.076636756646547 -51.74537090089459 -2.4674706722294104e-14
    vertex -26.07663675664647 -51.74537090089465 8.74999999999996
  endloop
endfacet
facet normal -0.9914448613738097 -0.13052619222005746 7.564208594399363e-15
  outer loop
    vertex -23.144785104068347 -49.49568200312072 8.74999999999995
    vertex -23.07663675664654 -50.013320093325696 -3.595457265248569e-14
    vertex -23.076636756646483 -50.01332009332576 8.749999999999947
  endloop
endfacet
facet normal -0.9914448613738097 -0.13052619222005746 7.564208594399363e-15
  outer loop
    vertex -23.07663675664654 -50.013320093325696 -3.595457265248569e-14
    vertex -23.144785104068347 -49.49568200312072 8.74999999999995
    vertex -23.144785104068404 -49.495682003120656 -3.595457265248569e-14
  endloop
endfacet
facet normal 0.9914448613738117 -0.13052619222004153 -9.818575399208672e-15
  outer loop
    vertex -27.076636756646554 -50.01332009332572 -2.114974861910923e-15
    vertex -27.00848840922462 -49.49568200312074 8.749999999999984
    vertex -27.076636756646476 -50.01332009332578 8.74999999999998
  endloop
endfacet
facet normal 0.9914448613738117 -0.13052619222004153 -9.818575399208672e-15
  outer loop
    vertex -27.00848840922462 -49.49568200312074 8.749999999999984
    vertex -27.076636756646554 -50.01332009332572 -2.114974861910923e-15
    vertex -27.008488409224697 -49.49568200312068 9.164891068280667e-15
  endloop
endfacet
facet normal 0.13052619222005216 -0.9914448613738104 -9.706051428501123e-15
  outer loop
    vertex -25.07663675664649 -48.013320093325774 8.74999999999998
    vertex -25.59427484685161 -48.08146844074757 9.164891068280667e-15
    vertex -25.076636756646547 -48.01332009332571 -2.114974861910923e-15
  endloop
endfacet
facet normal 0.13052619222005216 -0.9914448613738104 -9.706051428501123e-15
  outer loop
    vertex -25.59427484685161 -48.08146844074757 9.164891068280667e-15
    vertex -25.07663675664649 -48.013320093325774 8.74999999999998
    vertex -25.59427484685153 -48.08146844074764 8.749999999999984
  endloop
endfacet
facet normal 0.3826834323650914 -0.9238795325112863 -1.133308699143788e-14
  outer loop
    vertex -25.59427484685153 -48.08146844074764 8.749999999999984
    vertex -26.076636756646568 -48.281269285756835 9.164891068280667e-15
    vertex -25.59427484685161 -48.08146844074757 9.164891068280667e-15
  endloop
endfacet
facet normal 0.3826834323650914 -0.9238795325112863 -1.133308699143788e-14
  outer loop
    vertex -26.076636756646568 -48.281269285756835 9.164891068280667e-15
    vertex -25.59427484685153 -48.08146844074764 8.749999999999984
    vertex -26.07663675664649 -48.2812692857569 8.749999999999988
  endloop
endfacet
facet normal 0.6087614290087128 0.7933533402912413 1.5145115922292465e-15
  outer loop
    vertex -26.490850319019646 -51.42753365569882 -1.3394840792102513e-14
    vertex -26.07663675664647 -51.74537090089465 8.74999999999996
    vertex -26.076636756646547 -51.74537090089459 -2.4674706722294104e-14
  endloop
endfacet
facet normal 0.6087614290087128 0.7933533402912413 1.5145115922292465e-15
  outer loop
    vertex -26.07663675664647 -51.74537090089465 8.74999999999996
    vertex -26.490850319019646 -51.42753365569882 -1.3394840792102513e-14
    vertex -26.490850319019568 -51.42753365569887 8.749999999999964
  endloop
endfacet
facet normal 0.7933533402912413 -0.6087614290087128 -1.2211917975047895e-14
  outer loop
    vertex -26.808687564215443 -49.01332009332572 9.164891068280667e-15
    vertex -26.490850319019586 -48.59910653095268 8.74999999999999
    vertex -26.808687564215365 -49.01332009332579 8.749999999999988
  endloop
endfacet
facet normal 0.7933533402912413 -0.6087614290087128 -1.2211917975047895e-14
  outer loop
    vertex -26.490850319019586 -48.59910653095268 8.74999999999999
    vertex -26.808687564215443 -49.01332009332572 9.164891068280667e-15
    vertex -26.490850319019664 -48.59910653095262 9.164891068280667e-15
  endloop
endfacet
facet normal 0.92387953251129 -0.38268343236508207 -1.1403822516525e-14
  outer loop
    vertex -27.008488409224697 -49.49568200312068 9.164891068280667e-15
    vertex -26.808687564215365 -49.01332009332579 8.749999999999988
    vertex -27.00848840922462 -49.49568200312074 8.749999999999984
  endloop
endfacet
facet normal 0.92387953251129 -0.38268343236508207 -1.1403822516525e-14
  outer loop
    vertex -26.808687564215365 -49.01332009332579 8.749999999999988
    vertex -27.008488409224697 -49.49568200312068 9.164891068280667e-15
    vertex -26.808687564215443 -49.01332009332572 9.164891068280667e-15
  endloop
endfacet
facet normal -0.7933533402912413 0.6087614290087128 1.2211917975047895e-14
  outer loop
    vertex -23.3445859490776 -51.01332009332576 8.74999999999994
    vertex -23.662423194273437 -51.4275336556988 -3.595457265248569e-14
    vertex -23.66242319427338 -51.42753365569886 8.74999999999994
  endloop
endfacet
facet normal -0.7933533402912413 0.6087614290087128 1.2211917975047895e-14
  outer loop
    vertex -23.662423194273437 -51.4275336556988 -3.595457265248569e-14
    vertex -23.3445859490776 -51.01332009332576 8.74999999999994
    vertex -23.344585949077658 -51.0133200933257 -3.595457265248569e-14
  endloop
endfacet
facet normal 0.9238795325112863 0.3826834323650914 -4.7943534743274965e-15
  outer loop
    vertex -26.808687564215433 -51.013320093325724 -1.3394840792102513e-14
    vertex -27.008488409224615 -50.53095818353082 8.749999999999975
    vertex -26.808687564215354 -51.01332009332578 8.74999999999997
  endloop
endfacet
facet normal 0.9238795325112863 0.3826834323650914 -4.7943534743274965e-15
  outer loop
    vertex -27.008488409224615 -50.53095818353082 8.749999999999975
    vertex -26.808687564215433 -51.013320093325724 -1.3394840792102513e-14
    vertex -27.008488409224693 -50.53095818353076 -2.114974861910923e-15
  endloop
endfacet
facet normal -0.13052619222004153 -0.9914448613738117 -7.417564500720495e-15
  outer loop
    vertex -24.55899866644145 -48.081468440747635 8.749999999999975
    vertex -25.076636756646547 -48.01332009332571 -2.114974861910923e-15
    vertex -24.558998666441507 -48.081468440747564 -2.114974861910923e-15
  endloop
endfacet
facet normal -0.13052619222004153 -0.9914448613738117 -7.417564500720495e-15
  outer loop
    vertex -25.076636756646547 -48.01332009332571 -2.114974861910923e-15
    vertex -24.55899866644145 -48.081468440747635 8.749999999999975
    vertex -25.07663675664649 -48.013320093325774 8.74999999999998
  endloop
endfacet
facet normal -0.9914448613738112 0.13052619222004685 9.818575399208713e-15
  outer loop
    vertex -23.076636756646483 -50.01332009332576 8.749999999999947
    vertex -23.144785104068397 -50.530958183530736 -3.595457265248569e-14
    vertex -23.14478510406834 -50.5309581835308 8.749999999999941
  endloop
endfacet
facet normal -0.9914448613738112 0.13052619222004685 9.818575399208713e-15
  outer loop
    vertex -23.144785104068397 -50.530958183530736 -3.595457265248569e-14
    vertex -23.076636756646483 -50.01332009332576 8.749999999999947
    vertex -23.07663675664654 -50.013320093325696 -3.595457265248569e-14
  endloop
endfacet
facet normal -0.7933533402912347 -0.6087614290087213 1.69777108802391e-15
  outer loop
    vertex -23.662423194273394 -48.59910653095267 8.749999999999964
    vertex -23.34458594907767 -49.013320093325696 -2.4674706722294104e-14
    vertex -23.34458594907761 -49.01332009332576 8.74999999999996
  endloop
endfacet
facet normal -0.7933533402912347 -0.6087614290087213 1.69777108802391e-15
  outer loop
    vertex -23.34458594907767 -49.013320093325696 -2.4674706722294104e-14
    vertex -23.662423194273394 -48.59910653095267 8.749999999999964
    vertex -23.66242319427345 -48.599106530952604 -1.3394840792102513e-14
  endloop
endfacet
facet normal -0.3826834323650802 -0.9238795325112907 -4.623582810320617e-15
  outer loop
    vertex -24.076636756646494 -48.281269285756885 8.74999999999997
    vertex -24.558998666441507 -48.081468440747564 -2.114974861910923e-15
    vertex -24.07663675664655 -48.28126928575682 -1.3394840792102513e-14
  endloop
endfacet
facet normal -0.3826834323650802 -0.9238795325112907 -4.623582810320617e-15
  outer loop
    vertex -24.558998666441507 -48.081468440747564 -2.114974861910923e-15
    vertex -24.076636756646494 -48.281269285756885 8.74999999999997
    vertex -24.55899866644145 -48.081468440747635 8.749999999999975
  endloop
endfacet
facet normal -0.7071067811865466 -0.7071067811865485 -1.1166310627025781e-14
  outer loop
    vertex -28.076636756646476 -55.013320093325945 8.749999999999922
    vertex -30.076636756646504 -53.013320093325845 -1.159711215947823e-13
    vertex -28.076636756646504 -55.013320093325845 -1.4981071938535706e-13
  endloop
endfacet
facet normal -0.7071067811865466 -0.7071067811865485 -1.1166310627025781e-14
  outer loop
    vertex -30.076636756646504 -53.013320093325845 -1.159711215947823e-13
    vertex -28.076636756646476 -55.013320093325945 8.749999999999922
    vertex -30.076636756646476 -53.013320093325945 8.749999999999956
  endloop
endfacet
facet normal 0.8660254037844387 -0.5000000000000003 -5.441514231390305e-16
  outer loop
    vertex -14.879413506379075 -29.563320093325945 1.0000000000000473
    vertex -18.632190256111635 -36.06332009332594 8.750000000000004
    vertex -18.632190256111645 -36.06332009332594 1.000000000000036
  endloop
endfacet
facet normal 0.8660254037844387 -0.5000000000000003 -5.441514231390305e-16
  outer loop
    vertex -18.632190256111635 -36.06332009332594 8.750000000000004
    vertex -14.879413506379075 -29.563320093325945 1.0000000000000473
    vertex -14.879413506379066 -29.563320093325938 8.750000000000014
  endloop
endfacet
facet normal -4.6535450116804806e-31 -1.0 6.761772492212966e-16
  outer loop
    vertex -7.373860006913936 -29.563320093325945 1.0000000000000515
    vertex -14.879413506379066 -29.563320093325938 8.750000000000014
    vertex -14.879413506379075 -29.563320093325945 1.0000000000000473
  endloop
endfacet
facet normal -4.6535450116804806e-31 -1.0 6.761772492212966e-16
  outer loop
    vertex -14.879413506379066 -29.563320093325938 8.750000000000014
    vertex -7.373860006913936 -29.563320093325945 1.0000000000000515
    vertex -7.373860006913934 -29.563320093325938 8.750000000000021
  endloop
endfacet
facet normal -0.8660254037844393 -0.4999999999999992 6.080080691046969e-16
  outer loop
    vertex -3.6210832571813705 -36.06332009332594 8.750000000000009
    vertex -7.373860006913936 -29.563320093325945 1.0000000000000515
    vertex -3.6210832571813745 -36.06332009332595 1.0000000000000446
  endloop
endfacet
facet normal -0.8660254037844393 -0.4999999999999992 6.080080691046969e-16
  outer loop
    vertex -7.373860006913936 -29.563320093325945 1.0000000000000515
    vertex -3.6210832571813705 -36.06332009332594 8.750000000000009
    vertex -7.373860006913934 -29.563320093325938 8.750000000000021
  endloop
endfacet
facet normal -0.8660254037844384 0.5000000000000006 -6.773479116738877e-17
  outer loop
    vertex -7.373860006913941 -42.563320093325935 8.749999999999998
    vertex -3.6210832571813745 -36.06332009332595 1.0000000000000446
    vertex -7.373860006913943 -42.56332009332594 1.0000000000000333
  endloop
endfacet
facet normal -0.8660254037844384 0.5000000000000006 -6.773479116738877e-17
  outer loop
    vertex -3.6210832571813745 -36.06332009332595 1.0000000000000446
    vertex -7.373860006913941 -42.563320093325935 8.749999999999998
    vertex -3.6210832571813705 -36.06332009332594 8.750000000000009
  endloop
endfacet
facet normal 2.325052302629356e-31 1.0 -6.761772492212969e-16
  outer loop
    vertex -14.87941350637907 -42.563320093325935 8.749999999999998
    vertex -7.373860006913943 -42.56332009332594 1.0000000000000333
    vertex -14.879413506379077 -42.56332009332594 1.000000000000029
  endloop
endfacet
facet normal 2.325052302629356e-31 1.0 -6.761772492212969e-16
  outer loop
    vertex -7.373860006913943 -42.56332009332594 1.0000000000000333
    vertex -14.87941350637907 -42.563320093325935 8.749999999999998
    vertex -7.373860006913941 -42.563320093325935 8.749999999999998
  endloop
endfacet
facet normal 0.8660254037844387 0.49999999999999983 -1.206820416491013e-15
  outer loop
    vertex -18.632190256111645 -36.06332009332594 1.000000000000036
    vertex -14.87941350637907 -42.563320093325935 8.749999999999998
    vertex -14.879413506379077 -42.56332009332594 1.000000000000029
  endloop
endfacet
facet normal 0.8660254037844387 0.49999999999999983 -1.206820416491013e-15
  outer loop
    vertex -14.87941350637907 -42.563320093325935 8.749999999999998
    vertex -18.632190256111645 -36.06332009332594 1.000000000000036
    vertex -18.632190256111635 -36.06332009332594 8.750000000000004
  endloop
endfacet
facet normal -5.635759873170294e-16 -1.4099832412739485e-15 1.0
  outer loop
    vertex -14.879413506379077 -42.56332009332594 1.000000000000029
    vertex -15.626636756646512 -36.06332009332594 1.000000000000039
    vertex -18.632190256111645 -36.06332009332594 1.000000000000036
  endloop
endfacet
facet normal -5.635759873170294e-16 -1.4099832412739485e-15 1.0
  outer loop
    vertex -15.626636756646512 -36.06332009332594 1.000000000000039
    vertex -14.879413506379077 -42.56332009332594 1.000000000000029
    vertex -15.47330297494732 -37.22800579628729 1.0000000000000333
  endloop
endfacet
facet normal -5.635759873170294e-16 -1.4099832412739485e-15 1.0
  outer loop
    vertex -15.47330297494732 -37.22800579628729 1.0000000000000333
    vertex -14.879413506379077 -42.56332009332594 1.000000000000029
    vertex -15.023751073676484 -38.31332009332595 1.0000000000000333
  endloop
endfacet
facet normal -5.635759873170294e-16 -1.4099832412739485e-15 1.0
  outer loop
    vertex -15.023751073676484 -38.31332009332595 1.0000000000000333
    vertex -14.879413506379077 -42.56332009332594 1.000000000000029
    vertex -14.308617271985971 -39.24530060866541 1.0000000000000333
  endloop
endfacet
facet normal -5.635759873170294e-16 -1.4099832412739485e-15 1.0
  outer loop
    vertex -14.308617271985971 -39.24530060866541 1.0000000000000333
    vertex -14.879413506379077 -42.56332009332594 1.000000000000029
    vertex -13.376636756646507 -39.96043441035592 1.0000000000000333
  endloop
endfacet
facet normal -5.635759873170294e-16 -1.4099832412739485e-15 1.0
  outer loop
    vertex -13.376636756646507 -39.96043441035592 1.0000000000000333
    vertex -14.879413506379077 -42.56332009332594 1.000000000000029
    vertex -7.373860006913943 -42.56332009332594 1.0000000000000333
  endloop
endfacet
facet normal -5.635759873170294e-16 -1.4099832412739485e-15 1.0
  outer loop
    vertex -13.376636756646507 -39.96043441035592 1.0000000000000333
    vertex -7.373860006913943 -42.56332009332594 1.0000000000000333
    vertex -12.291322459607848 -40.40998631162676 1.0000000000000333
  endloop
endfacet
facet normal -5.635759873170294e-16 -1.4099832412739485e-15 1.0
  outer loop
    vertex -12.291322459607848 -40.40998631162676 1.0000000000000333
    vertex -7.373860006913943 -42.56332009332594 1.0000000000000333
    vertex -11.126636756646505 -40.56332009332595 1.0000000000000333
  endloop
endfacet
facet normal -5.635759873170294e-16 -1.4099832412739485e-15 1.0
  outer loop
    vertex -11.126636756646505 -40.56332009332595 1.0000000000000333
    vertex -7.373860006913943 -42.56332009332594 1.0000000000000333
    vertex -9.961951053685159 -40.40998631162675 1.0000000000000333
  endloop
endfacet
facet normal -5.635759873170294e-16 -1.4099832412739485e-15 1.0
  outer loop
    vertex -9.961951053685159 -40.40998631162675 1.0000000000000333
    vertex -7.373860006913943 -42.56332009332594 1.0000000000000333
    vertex -8.876636756646501 -39.960434410355916 1.0000000000000333
  endloop
endfacet
facet normal -5.635759873170294e-16 -1.4099832412739485e-15 1.0
  outer loop
    vertex -8.876636756646501 -39.960434410355916 1.0000000000000333
    vertex -7.373860006913943 -42.56332009332594 1.0000000000000333
    vertex -7.9446562413070385 -39.24530060866541 1.000000000000039
  endloop
endfacet
facet normal -5.635759873170294e-16 -1.4099832412739485e-15 1.0
  outer loop
    vertex -7.9446562413070385 -39.24530060866541 1.000000000000039
    vertex -7.373860006913943 -42.56332009332594 1.0000000000000333
    vertex -7.229522439616528 -38.31332009332595 1.000000000000039
  endloop
endfacet
facet normal -5.635759873170294e-16 -1.4099832412739485e-15 1.0
  outer loop
    vertex -7.229522439616528 -38.31332009332595 1.000000000000039
    vertex -7.373860006913943 -42.56332009332594 1.0000000000000333
    vertex -3.6210832571813745 -36.06332009332595 1.0000000000000446
  endloop
endfacet
facet normal -5.635759873170294e-16 -1.4099832412739485e-15 1.0
  outer loop
    vertex -7.229522439616528 -38.31332009332595 1.000000000000039
    vertex -3.6210832571813745 -36.06332009332595 1.0000000000000446
    vertex -6.779970538345695 -37.228005796287285 1.000000000000039
  endloop
endfacet
facet normal -5.635759873170294e-16 -1.4099832412739485e-15 1.0
  outer loop
    vertex -6.779970538345695 -37.228005796287285 1.000000000000039
    vertex -3.6210832571813745 -36.06332009332595 1.0000000000000446
    vertex -6.626636756646501 -36.06332009332594 1.0000000000000446
  endloop
endfacet
facet normal -5.635759873170294e-16 -1.4099832412739485e-15 1.0
  outer loop
    vertex -15.626636756646512 -36.06332009332594 1.000000000000039
    vertex -14.879413506379075 -29.563320093325945 1.0000000000000473
    vertex -18.632190256111645 -36.06332009332594 1.000000000000036
  endloop
endfacet
facet normal -5.635759873170294e-16 -1.4099832412739485e-15 1.0
  outer loop
    vertex -14.879413506379075 -29.563320093325945 1.0000000000000473
    vertex -15.626636756646512 -36.06332009332594 1.000000000000039
    vertex -15.47330297494732 -34.898634390364606 1.000000000000039
  endloop
endfacet
facet normal -5.635759873170294e-16 -1.4099832412739485e-15 1.0
  outer loop
    vertex -14.879413506379075 -29.563320093325945 1.0000000000000473
    vertex -15.47330297494732 -34.898634390364606 1.000000000000039
    vertex -15.023751073676488 -33.81332009332595 1.000000000000039
  endloop
endfacet
facet normal -5.635759873170294e-16 -1.4099832412739485e-15 1.0
  outer loop
    vertex -14.879413506379075 -29.563320093325945 1.0000000000000473
    vertex -15.023751073676488 -33.81332009332595 1.000000000000039
    vertex -14.308617271985975 -32.88133957798648 1.0000000000000446
  endloop
endfacet
facet normal -5.635759873170294e-16 -1.4099832412739485e-15 1.0
  outer loop
    vertex -14.879413506379075 -29.563320093325945 1.0000000000000473
    vertex -14.308617271985975 -32.88133957798648 1.0000000000000446
    vertex -13.376636756646514 -32.16620577629597 1.0000000000000446
  endloop
endfacet
facet normal -5.635759873170294e-16 -1.4099832412739485e-15 1.0
  outer loop
    vertex -14.879413506379075 -29.563320093325945 1.0000000000000473
    vertex -13.376636756646514 -32.16620577629597 1.0000000000000446
    vertex -7.373860006913936 -29.563320093325945 1.0000000000000515
  endloop
endfacet
facet normal -5.635759873170294e-16 -1.4099832412739485e-15 1.0
  outer loop
    vertex -7.373860006913936 -29.563320093325945 1.0000000000000515
    vertex -13.376636756646514 -32.16620577629597 1.0000000000000446
    vertex -12.291322459607853 -31.716653875025138 1.0000000000000446
  endloop
endfacet
facet normal -5.635759873170294e-16 -1.4099832412739485e-15 1.0
  outer loop
    vertex -7.373860006913936 -29.563320093325945 1.0000000000000515
    vertex -12.291322459607853 -31.716653875025138 1.0000000000000446
    vertex -11.126636756646505 -31.56332009332594 1.0000000000000446
  endloop
endfacet
facet normal -5.635759873170294e-16 -1.4099832412739485e-15 1.0
  outer loop
    vertex -7.373860006913936 -29.563320093325945 1.0000000000000515
    vertex -11.126636756646505 -31.56332009332594 1.0000000000000446
    vertex -9.96195105368516 -31.716653875025138 1.0000000000000446
  endloop
endfacet
facet normal -5.635759873170294e-16 -1.4099832412739485e-15 1.0
  outer loop
    vertex -7.373860006913936 -29.563320093325945 1.0000000000000515
    vertex -9.96195105368516 -31.716653875025138 1.0000000000000446
    vertex -8.876636756646503 -32.16620577629597 1.0000000000000446
  endloop
endfacet
facet normal -5.635759873170294e-16 -1.4099832412739485e-15 1.0
  outer loop
    vertex -7.373860006913936 -29.563320093325945 1.0000000000000515
    vertex -8.876636756646503 -32.16620577629597 1.0000000000000446
    vertex -7.9446562413070385 -32.88133957798648 1.0000000000000446
  endloop
endfacet
facet normal -5.635759873170294e-16 -1.4099832412739485e-15 1.0
  outer loop
    vertex -7.373860006913936 -29.563320093325945 1.0000000000000515
    vertex -7.9446562413070385 -32.88133957798648 1.0000000000000446
    vertex -7.229522439616528 -33.81332009332594 1.0000000000000446
  endloop
endfacet
facet normal -5.635759873170294e-16 -1.4099832412739485e-15 1.0
  outer loop
    vertex -7.373860006913936 -29.563320093325945 1.0000000000000515
    vertex -7.229522439616528 -33.81332009332594 1.0000000000000446
    vertex -3.6210832571813745 -36.06332009332595 1.0000000000000446
  endloop
endfacet
facet normal -5.635759873170294e-16 -1.4099832412739485e-15 1.0
  outer loop
    vertex -3.6210832571813745 -36.06332009332595 1.0000000000000446
    vertex -7.229522439616528 -33.81332009332594 1.0000000000000446
    vertex -6.779970538345695 -34.8986343903646 1.0000000000000446
  endloop
endfacet
facet normal -5.635759873170294e-16 -1.4099832412739485e-15 1.0
  outer loop
    vertex -3.6210832571813745 -36.06332009332595 1.0000000000000446
    vertex -6.779970538345695 -34.8986343903646 1.0000000000000446
    vertex -6.626636756646501 -36.06332009332594 1.0000000000000446
  endloop
endfacet
facet normal -0.38268343236508573 -0.9238795325112884 -1.510020444471049e-15
  outer loop
    vertex -8.876636756646503 -32.16620577629597 1.0000000000000446
    vertex -9.961951053685164 -31.716653875025138 4.710923370920885e-14
    vertex -8.876636756646507 -32.16620577629597 4.7081623423283007e-14
  endloop
endfacet
facet normal -0.38268343236508573 -0.9238795325112884 -1.510020444471049e-15
  outer loop
    vertex -9.961951053685164 -31.716653875025138 4.710923370920885e-14
    vertex -8.876636756646503 -32.16620577629597 1.0000000000000446
    vertex -9.96195105368516 -31.716653875025138 1.0000000000000446
  endloop
endfacet
facet normal -0.13052619222005404 -0.9914448613738102 -1.4646508735618037e-15
  outer loop
    vertex -9.961951053685164 -31.716653875025138 4.710923370920885e-14
    vertex -11.126636756646505 -31.56332009332594 1.0000000000000446
    vertex -11.126636756646509 -31.56332009332594 4.6676790571816644e-14
  endloop
endfacet
facet normal -0.13052619222005404 -0.9914448613738102 -1.4646508735618037e-15
  outer loop
    vertex -11.126636756646505 -31.56332009332594 1.0000000000000446
    vertex -9.961951053685164 -31.716653875025138 4.710923370920885e-14
    vertex -9.96195105368516 -31.716653875025138 1.0000000000000446
  endloop
endfacet
facet normal 0.13052619222005357 -0.9914448613738102 -1.3194677660693297e-15
  outer loop
    vertex -11.126636756646509 -31.56332009332594 4.6676790571816644e-14
    vertex -12.291322459607853 -31.716653875025138 1.0000000000000446
    vertex -12.291322459607857 -31.716653875025138 4.581376429627361e-14
  endloop
endfacet
facet normal 0.13052619222005357 -0.9914448613738102 -1.3194677660693297e-15
  outer loop
    vertex -12.291322459607853 -31.716653875025138 1.0000000000000446
    vertex -11.126636756646509 -31.56332009332594 4.6676790571816644e-14
    vertex -11.126636756646505 -31.56332009332594 1.0000000000000446
  endloop
endfacet
facet normal 0.3826834323650904 -0.9238795325112867 -1.0843651108428162e-15
  outer loop
    vertex -12.291322459607857 -31.716653875025138 4.581376429627361e-14
    vertex -13.376636756646514 -32.16620577629597 1.0000000000000446
    vertex -13.376636756646514 -32.16620577629597 4.457896869703964e-14
  endloop
endfacet
facet normal 0.3826834323650904 -0.9238795325112867 -1.0843651108428162e-15
  outer loop
    vertex -13.376636756646514 -32.16620577629597 1.0000000000000446
    vertex -12.291322459607857 -31.716653875025138 4.581376429627361e-14
    vertex -12.291322459607853 -31.716653875025138 1.0000000000000446
  endloop
endfacet
facet normal 0.60876142900872 -0.7933533402912357 -7.753647653104394e-16
  outer loop
    vertex -13.376636756646514 -32.16620577629597 4.457896869703964e-14
    vertex -14.308617271985975 -32.88133957798648 1.0000000000000446
    vertex -14.308617271985975 -32.88133957798648 4.3056553053606333e-14
  endloop
endfacet
facet normal 0.60876142900872 -0.7933533402912357 -7.753647653104394e-16
  outer loop
    vertex -14.308617271985975 -32.88133957798648 1.0000000000000446
    vertex -13.376636756646514 -32.16620577629597 4.457896869703964e-14
    vertex -13.376636756646514 -32.16620577629597 1.0000000000000446
  endloop
endfacet
facet normal 0.7933533402912362 -0.6087614290087197 -4.135245923730108e-16
  outer loop
    vertex -14.308617271985975 -32.88133957798648 4.3056553053606333e-14
    vertex -15.023751073676488 -33.81332009332595 1.000000000000039
    vertex -15.023751073676488 -33.81332009332595 4.135026747616285e-14
  endloop
endfacet
facet normal 0.7933533402912362 -0.6087614290087197 -4.135245923730108e-16
  outer loop
    vertex -15.023751073676488 -33.81332009332595 1.000000000000039
    vertex -14.308617271985975 -32.88133957798648 4.3056553053606333e-14
    vertex -14.308617271985975 -32.88133957798648 1.0000000000000446
  endloop
endfacet
facet normal 0.9238795325112874 -0.3826834323650887 -2.3503401847064926e-17
  outer loop
    vertex -15.023751073676488 -33.81332009332595 4.135026747616285e-14
    vertex -15.47330297494732 -34.898634390364606 1.000000000000039
    vertex -15.47330297494732 -34.898634390364606 3.957639250704172e-14
  endloop
endfacet
facet normal 0.9238795325112874 -0.3826834323650887 -2.3503401847064926e-17
  outer loop
    vertex -15.47330297494732 -34.898634390364606 1.000000000000039
    vertex -15.023751073676488 -33.81332009332595 4.135026747616285e-14
    vertex -15.023751073676488 -33.81332009332595 1.000000000000039
  endloop
endfacet
facet normal 0.9914448613738105 -0.13052619222005202 3.681195066735484e-16
  outer loop
    vertex -15.47330297494732 -34.898634390364606 3.957639250704172e-14
    vertex -15.626636756646512 -36.06332009332594 1.000000000000039
    vertex -15.626636756646512 -36.06332009332594 3.785581479392158e-14
  endloop
endfacet
facet normal 0.9914448613738105 -0.13052619222005202 3.681195066735484e-16
  outer loop
    vertex -15.626636756646512 -36.06332009332594 1.000000000000039
    vertex -15.47330297494732 -34.898634390364606 3.957639250704172e-14
    vertex -15.47330297494732 -34.898634390364606 1.000000000000039
  endloop
endfacet
facet normal 0.9914448613738106 0.13052619222005138 7.346556791606105e-16
  outer loop
    vertex -15.626636756646512 -36.06332009332594 3.785581479392158e-14
    vertex -15.47330297494732 -37.22800579628729 1.0000000000000333
    vertex -15.47330297494732 -37.22800579628729 3.630578886456243e-14
  endloop
endfacet
facet normal 0.9914448613738106 0.13052619222005138 7.346556791606105e-16
  outer loop
    vertex -15.47330297494732 -37.22800579628729 1.0000000000000333
    vertex -15.626636756646512 -36.06332009332594 3.785581479392158e-14
    vertex -15.626636756646512 -36.06332009332594 1.000000000000039
  endloop
endfacet
facet normal 0.9238795325112865 0.3826834323650908 1.051126281188791e-15
  outer loop
    vertex -15.47330297494732 -37.22800579628729 3.630578886456243e-14
    vertex -15.023751073676484 -38.31332009332595 1.0000000000000333
    vertex -15.023751073676484 -38.31332009332595 3.5031946424511145e-14
  endloop
endfacet
facet normal 0.9238795325112865 0.3826834323650908 1.051126281188791e-15
  outer loop
    vertex -15.023751073676484 -38.31332009332595 1.0000000000000333
    vertex -15.47330297494732 -37.22800579628729 3.630578886456243e-14
    vertex -15.47330297494732 -37.22800579628729 1.0000000000000333
  endloop
endfacet
facet normal 0.7933533402912343 0.6087614290087219 1.2959643642222656e-15
  outer loop
    vertex -15.023751073676484 -38.31332009332595 3.5031946424511145e-14
    vertex -14.308617271985971 -39.24530060866541 1.0000000000000333
    vertex -14.308617271985971 -39.24530060866541 3.412109773093305e-14
  endloop
endfacet
facet normal 0.7933533402912343 0.6087614290087219 1.2959643642222656e-15
  outer loop
    vertex -14.308617271985971 -39.24530060866541 1.0000000000000333
    vertex -15.023751073676484 -38.31332009332595 3.5031946424511145e-14
    vertex -15.023751073676484 -38.31332009332595 1.0000000000000333
  endloop
endfacet
facet normal 0.6087614290087219 0.7933533402912343 1.4524846175163648e-15
  outer loop
    vertex -14.308617271985971 -39.24530060866541 3.412109773093305e-14
    vertex -13.376636756646507 -39.96043441035592 1.0000000000000333
    vertex -13.376636756646507 -39.96043441035592 3.363531561704687e-14
  endloop
endfacet
facet normal 0.6087614290087219 0.7933533402912343 1.4524846175163648e-15
  outer loop
    vertex -13.376636756646507 -39.96043441035592 1.0000000000000333
    vertex -14.308617271985971 -39.24530060866541 3.412109773093305e-14
    vertex -14.308617271985971 -39.24530060866541 1.0000000000000333
  endloop
endfacet
facet normal 0.3826834323650904 0.9238795325112867 1.5100204444710494e-15
  outer loop
    vertex -13.376636756646507 -39.96043441035592 3.363531561704687e-14
    vertex -12.291322459607848 -40.40998631162676 1.0000000000000333
    vertex -12.291322459607851 -40.40998631162676 3.360770533112103e-14
  endloop
endfacet
facet normal 0.3826834323650904 0.9238795325112867 1.5100204444710494e-15
  outer loop
    vertex -12.291322459607848 -40.40998631162676 1.0000000000000333
    vertex -13.376636756646507 -39.96043441035592 3.363531561704687e-14
    vertex -13.376636756646507 -39.96043441035592 1.0000000000000333
  endloop
endfacet
facet normal 0.1305261922200495 0.9914448613738108 1.464650873561802e-15
  outer loop
    vertex -12.291322459607848 -40.40998631162676 1.0000000000000333
    vertex -11.126636756646509 -40.56332009332595 3.404014846851323e-14
    vertex -12.291322459607851 -40.40998631162676 3.360770533112103e-14
  endloop
endfacet
facet normal 0.1305261922200495 0.9914448613738108 1.464650873561802e-15
  outer loop
    vertex -11.126636756646509 -40.56332009332595 3.404014846851323e-14
    vertex -12.291322459607848 -40.40998631162676 1.0000000000000333
    vertex -11.126636756646505 -40.56332009332595 1.0000000000000333
  endloop
endfacet
facet normal -0.1305261922200539 0.9914448613738102 1.3194677660693295e-15
  outer loop
    vertex -11.126636756646505 -40.56332009332595 1.0000000000000333
    vertex -9.961951053685164 -40.40998631162675 3.490317474405627e-14
    vertex -11.126636756646509 -40.56332009332595 3.404014846851323e-14
  endloop
endfacet
facet normal -0.1305261922200539 0.9914448613738102 1.3194677660693295e-15
  outer loop
    vertex -9.961951053685164 -40.40998631162675 3.490317474405627e-14
    vertex -11.126636756646505 -40.56332009332595 1.0000000000000333
    vertex -9.961951053685159 -40.40998631162675 1.0000000000000333
  endloop
endfacet
facet normal -0.38268343236508984 0.9238795325112867 1.0843651108428164e-15
  outer loop
    vertex -9.961951053685159 -40.40998631162675 1.0000000000000333
    vertex -8.876636756646505 -39.960434410355916 3.613797034329023e-14
    vertex -9.961951053685164 -40.40998631162675 3.490317474405627e-14
  endloop
endfacet
facet normal -0.38268343236508984 0.9238795325112867 1.0843651108428164e-15
  outer loop
    vertex -8.876636756646505 -39.960434410355916 3.613797034329023e-14
    vertex -9.961951053685159 -40.40998631162675 1.0000000000000333
    vertex -8.876636756646501 -39.960434410355916 1.0000000000000333
  endloop
endfacet
facet normal -0.6087614290087194 0.793353340291236 7.753647653104402e-16
  outer loop
    vertex -8.876636756646501 -39.960434410355916 1.0000000000000333
    vertex -7.944656241307043 -39.24530060866541 3.766038598672354e-14
    vertex -8.876636756646505 -39.960434410355916 3.613797034329023e-14
  endloop
endfacet
facet normal -0.6087614290087194 0.793353340291236 7.753647653104402e-16
  outer loop
    vertex -7.944656241307043 -39.24530060866541 3.766038598672354e-14
    vertex -8.876636756646501 -39.960434410355916 1.0000000000000333
    vertex -7.9446562413070385 -39.24530060866541 1.000000000000039
  endloop
endfacet
facet normal -0.7933533402912354 0.6087614290087203 4.1352459237301225e-16
  outer loop
    vertex -7.229522439616528 -38.31332009332595 1.000000000000039
    vertex -7.944656241307043 -39.24530060866541 3.766038598672354e-14
    vertex -7.9446562413070385 -39.24530060866541 1.000000000000039
  endloop
endfacet
facet normal -0.7933533402912354 0.6087614290087203 4.1352459237301225e-16
  outer loop
    vertex -7.944656241307043 -39.24530060866541 3.766038598672354e-14
    vertex -7.229522439616528 -38.31332009332595 1.000000000000039
    vertex -7.229522439616533 -38.31332009332595 3.936667156416703e-14
  endloop
endfacet
facet normal -0.9238795325112872 0.382683432365089 2.350340184706553e-17
  outer loop
    vertex -6.779970538345695 -37.228005796287285 1.000000000000039
    vertex -7.229522439616533 -38.31332009332595 3.936667156416703e-14
    vertex -7.229522439616528 -38.31332009332595 1.000000000000039
  endloop
endfacet
facet normal -0.9238795325112872 0.382683432365089 2.350340184706553e-17
  outer loop
    vertex -7.229522439616533 -38.31332009332595 3.936667156416703e-14
    vertex -6.779970538345695 -37.228005796287285 1.000000000000039
    vertex -6.779970538345698 -37.228005796287285 4.114054653328815e-14
  endloop
endfacet
facet normal -0.9914448613738105 0.13052619222005202 -3.681195066735484e-16
  outer loop
    vertex -6.626636756646501 -36.06332009332594 1.0000000000000446
    vertex -6.779970538345698 -37.228005796287285 4.114054653328815e-14
    vertex -6.779970538345695 -37.228005796287285 1.000000000000039
  endloop
endfacet
facet normal -0.9914448613738105 0.13052619222005202 -3.681195066735484e-16
  outer loop
    vertex -6.779970538345698 -37.228005796287285 4.114054653328815e-14
    vertex -6.626636756646501 -36.06332009332594 1.0000000000000446
    vertex -6.626636756646506 -36.06332009332594 4.28611242464083e-14
  endloop
endfacet
facet normal -0.9914448613738106 -0.13052619222005138 -7.346556791606105e-16
  outer loop
    vertex -6.779970538345695 -34.8986343903646 1.0000000000000446
    vertex -6.626636756646506 -36.06332009332594 4.28611242464083e-14
    vertex -6.626636756646501 -36.06332009332594 1.0000000000000446
  endloop
endfacet
facet normal -0.9914448613738106 -0.13052619222005138 -7.346556791606105e-16
  outer loop
    vertex -6.626636756646506 -36.06332009332594 4.28611242464083e-14
    vertex -6.779970538345695 -34.8986343903646 1.0000000000000446
    vertex -6.779970538345698 -34.8986343903646 4.4411150175767453e-14
  endloop
endfacet
facet normal -0.9238795325112865 -0.3826834323650908 -1.051126281188791e-15
  outer loop
    vertex -7.229522439616528 -33.81332009332594 1.0000000000000446
    vertex -6.779970538345698 -34.8986343903646 4.4411150175767453e-14
    vertex -6.779970538345695 -34.8986343903646 1.0000000000000446
  endloop
endfacet
facet normal -0.9238795325112865 -0.3826834323650908 -1.051126281188791e-15
  outer loop
    vertex -6.779970538345698 -34.8986343903646 4.4411150175767453e-14
    vertex -7.229522439616528 -33.81332009332594 1.0000000000000446
    vertex -7.229522439616533 -33.81332009332594 4.568499261581873e-14
  endloop
endfacet
facet normal -0.7933533402912354 -0.6087614290087203 -1.2959643642222639e-15
  outer loop
    vertex -7.9446562413070385 -32.88133957798648 1.0000000000000446
    vertex -7.229522439616533 -33.81332009332594 4.568499261581873e-14
    vertex -7.229522439616528 -33.81332009332594 1.0000000000000446
  endloop
endfacet
facet normal -0.7933533402912354 -0.6087614290087203 -1.2959643642222639e-15
  outer loop
    vertex -7.229522439616533 -33.81332009332594 4.568499261581873e-14
    vertex -7.9446562413070385 -32.88133957798648 1.0000000000000446
    vertex -7.944656241307043 -32.88133957798648 4.659584130939682e-14
  endloop
endfacet
facet normal -0.6087614290087219 -0.7933533402912343 -1.4524846175163648e-15
  outer loop
    vertex -7.9446562413070385 -32.88133957798648 1.0000000000000446
    vertex -8.876636756646507 -32.16620577629597 4.7081623423283007e-14
    vertex -7.944656241307043 -32.88133957798648 4.659584130939682e-14
  endloop
endfacet
facet normal -0.6087614290087219 -0.7933533402912343 -1.4524846175163648e-15
  outer loop
    vertex -8.876636756646507 -32.16620577629597 4.7081623423283007e-14
    vertex -7.9446562413070385 -32.88133957798648 1.0000000000000446
    vertex -8.876636756646503 -32.16620577629597 1.0000000000000446
  endloop
endfacet
facet normal -2.1933072642039047e-15 -1.0 -5.801073906955655e-15
  outer loop
    vertex -10.07663675664649 -55.01332009332593 -6.34492458573277e-14
    vertex -28.076636756646476 -55.013320093325945 8.749999999999922
    vertex -28.076636756646504 -55.013320093325845 -1.4981071938535706e-13
  endloop
endfacet
facet normal -2.1933072642039047e-15 -1.0 -5.801073906955655e-15
  outer loop
    vertex -28.076636756646476 -55.013320093325945 8.749999999999922
    vertex -10.07663675664649 -55.01332009332593 -6.34492458573277e-14
    vertex -10.076636756646511 -55.01332009332593 8.749999999999964
  endloop
endfacet
facet normal 0.707106781186548 -0.7071067811865471 1.736504315390429e-15
  outer loop
    vertex -0.0766367566464957 -45.01332009332592 -4.2299497238218464e-14
    vertex -10.076636756646511 -55.01332009332593 8.749999999999964
    vertex -10.07663675664649 -55.01332009332593 -6.34492458573277e-14
  endloop
endfacet
facet normal 0.707106781186548 -0.7071067811865471 1.736504315390429e-15
  outer loop
    vertex -10.076636756646511 -55.01332009332593 8.749999999999964
    vertex -0.0766367566464957 -45.01332009332592 -4.2299497238218464e-14
    vertex -0.07663675664651669 -45.01332009332592 8.749999999999986
  endloop
endfacet
facet normal -0.7071067811865475 0.7071067811865476 2.8528285181414217e-15
  outer loop
    vertex -30.076636756646483 -35.01332009332591 8.75
    vertex -20.076636756646504 -25.0133200933259 -1.8329782136561334e-14
    vertex -30.076636756646494 -35.01332009332589 -2.8199664825478976e-14
  endloop
endfacet
facet normal -0.7071067811865475 0.7071067811865476 2.8528285181414217e-15
  outer loop
    vertex -20.076636756646504 -25.0133200933259 -1.8329782136561334e-14
    vertex -30.076636756646483 -35.01332009332591 8.75
    vertex -20.07663675664649 -25.013320093325923 8.750000000000009
  endloop
endfacet
facet normal 0.7071067811865469 -0.7071067811865482 -6.158116638139797e-15
  outer loop
    vertex 20.923363243353474 -24.013320093325916 -9.36995561167258e-16
    vertex -0.07663675664651669 -45.01332009332592 8.749999999999986
    vertex -0.0766367566464957 -45.01332009332592 -4.2299497238218464e-14
  endloop
endfacet
facet normal 0.7071067811865469 -0.7071067811865482 -6.158116638139797e-15
  outer loop
    vertex -0.07663675664651669 -45.01332009332592 8.749999999999986
    vertex 20.923363243353474 -24.013320093325916 -9.36995561167258e-16
    vertex 20.923363243353503 -24.013320093326016 8.74999999999998
  endloop
endfacet
facet normal -0.7071067811865483 0.7071067811865467 1.8658573807710677e-15
  outer loop
    vertex 0.9233632433534731 -4.013320093325901 8.749999999999993
    vertex -20.076636756646504 -25.0133200933259 -1.8329782136561334e-14
    vertex -20.07663675664649 -25.013320093325923 8.750000000000009
  endloop
endfacet
facet normal -0.7071067811865483 0.7071067811865467 1.8658573807710677e-15
  outer loop
    vertex -20.076636756646504 -25.0133200933259 -1.8329782136561334e-14
    vertex 0.9233632433534731 -4.013320093325901 8.749999999999993
    vertex 0.9233632433534833 -4.013320093325876 1.1266334300801053e-14
  endloop
endfacet
facet normal 7.210810130381916e-16 1.2731209176395472e-15 -1.0
  outer loop
    vertex -30.076636756646494 -35.01332009332589 -2.8199664825478976e-14
    vertex -28.076636756646504 -55.013320093325845 -1.4981071938535706e-13
    vertex -30.076636756646504 -53.013320093325845 -1.159711215947823e-13
  endloop
endfacet
facet normal 7.210810130381916e-16 1.2731209176395472e-15 -1.0
  outer loop
    vertex -28.076636756646504 -55.013320093325845 -1.4981071938535706e-13
    vertex -30.076636756646494 -35.01332009332589 -2.8199664825478976e-14
    vertex -27.008488409224697 -49.49568200312068 9.164891068280667e-15
  endloop
endfacet
facet normal 7.210810130381916e-16 1.2731209176395472e-15 -1.0
  outer loop
    vertex -27.008488409224697 -49.49568200312068 9.164891068280667e-15
    vertex -30.076636756646494 -35.01332009332589 -2.8199664825478976e-14
    vertex -20.076636756646504 -25.0133200933259 -1.8329782136561334e-14
  endloop
endfacet
facet normal 7.210810130381916e-16 1.2731209176395472e-15 -1.0
  outer loop
    vertex -28.076636756646504 -55.013320093325845 -1.4981071938535706e-13
    vertex -27.008488409224697 -49.49568200312068 9.164891068280667e-15
    vertex -27.076636756646554 -50.01332009332572 -2.114974861910923e-15
  endloop
endfacet
facet normal 7.210810130381916e-16 1.2731209176395472e-15 -1.0
  outer loop
    vertex -27.008488409224697 -49.49568200312068 9.164891068280667e-15
    vertex -20.076636756646504 -25.0133200933259 -1.8329782136561334e-14
    vertex -26.808687564215443 -49.01332009332572 9.164891068280667e-15
  endloop
endfacet
facet normal 7.210810130381916e-16 1.2731209176395472e-15 -1.0
  outer loop
    vertex -26.808687564215443 -49.01332009332572 9.164891068280667e-15
    vertex -20.076636756646504 -25.0133200933259 -1.8329782136561334e-14
    vertex -26.490850319019664 -48.59910653095262 9.164891068280667e-15
  endloop
endfacet
facet normal 7.210810130381916e-16 1.2731209176395472e-15 -1.0
  outer loop
    vertex -26.490850319019664 -48.59910653095262 9.164891068280667e-15
    vertex -20.076636756646504 -25.0133200933259 -1.8329782136561334e-14
    vertex -26.076636756646568 -48.281269285756835 9.164891068280667e-15
  endloop
endfacet
facet normal 7.210810130381916e-16 1.2731209176395472e-15 -1.0
  outer loop
    vertex -26.076636756646568 -48.281269285756835 9.164891068280667e-15
    vertex -20.076636756646504 -25.0133200933259 -1.8329782136561334e-14
    vertex -25.59427484685161 -48.08146844074757 9.164891068280667e-15
  endloop
endfacet
facet normal 7.210810130381916e-16 1.2731209176395472e-15 -1.0
  outer loop
    vertex -25.59427484685161 -48.08146844074757 9.164891068280667e-15
    vertex -20.076636756646504 -25.0133200933259 -1.8329782136561334e-14
    vertex -25.076636756646547 -48.01332009332571 -2.114974861910923e-15
  endloop
endfacet
facet normal 7.210810130381916e-16 1.2731209176395472e-15 -1.0
  outer loop
    vertex -25.076636756646547 -48.01332009332571 -2.114974861910923e-15
    vertex -20.076636756646504 -25.0133200933259 -1.8329782136561334e-14
    vertex -24.558998666441507 -48.081468440747564 -2.114974861910923e-15
  endloop
endfacet
facet normal 7.210810130381916e-16 1.2731209176395472e-15 -1.0
  outer loop
    vertex -24.558998666441507 -48.081468440747564 -2.114974861910923e-15
    vertex -20.076636756646504 -25.0133200933259 -1.8329782136561334e-14
    vertex -24.07663675664655 -48.28126928575682 -1.3394840792102513e-14
  endloop
endfacet
facet normal 7.210810130381916e-16 1.2731209176395472e-15 -1.0
  outer loop
    vertex -24.07663675664655 -48.28126928575682 -1.3394840792102513e-14
    vertex -20.076636756646504 -25.0133200933259 -1.8329782136561334e-14
    vertex -23.66242319427345 -48.599106530952604 -1.3394840792102513e-14
  endloop
endfacet
facet normal 7.210810130381916e-16 1.2731209176395472e-15 -1.0
  outer loop
    vertex -23.66242319427345 -48.599106530952604 -1.3394840792102513e-14
    vertex -20.076636756646504 -25.0133200933259 -1.8329782136561334e-14
    vertex -23.34458594907767 -49.013320093325696 -2.4674706722294104e-14
  endloop
endfacet
facet normal 7.210810130381916e-16 1.2731209176395472e-15 -1.0
  outer loop
    vertex -23.34458594907767 -49.013320093325696 -2.4674706722294104e-14
    vertex -20.076636756646504 -25.0133200933259 -1.8329782136561334e-14
    vertex -23.144785104068404 -49.495682003120656 -3.595457265248569e-14
  endloop
endfacet
facet normal 7.210810130381916e-16 1.2731209176395472e-15 -1.0
  outer loop
    vertex -23.144785104068404 -49.495682003120656 -3.595457265248569e-14
    vertex -20.076636756646504 -25.0133200933259 -1.8329782136561334e-14
    vertex -23.07663675664654 -50.013320093325696 -3.595457265248569e-14
  endloop
endfacet
facet normal 7.210810130381916e-16 1.2731209176395472e-15 -1.0
  outer loop
    vertex 14.423363243353501 -1.0133200933259205 -9.067820856846338e-15
    vertex 0.9233632433534833 -4.013320093325876 1.1266334300801053e-14
    vertex 0.9233632433534833 -1.0133200933259208 -1.6156408564783567e-15
  endloop
endfacet
facet normal 7.210810130381916e-16 1.2731209176395472e-15 -1.0
  outer loop
    vertex 0.9233632433534833 -4.013320093325876 1.1266334300801053e-14
    vertex 14.423363243353501 -1.0133200933259205 -9.067820856846338e-15
    vertex 4.323363243353502 -4.413320093325921 -7.649510113001883e-15
  endloop
endfacet
facet normal 7.210810130381916e-16 1.2731209176395472e-15 -1.0
  outer loop
    vertex 0.9233632433534833 -4.013320093325876 1.1266334300801053e-14
    vertex 4.323363243353502 -4.413320093325921 -7.649510113001883e-15
    vertex 4.32336324335349 -20.613320093325918 -4.317380501450795e-15
  endloop
endfacet
facet normal 7.210810130381916e-16 1.2731209176395472e-15 -1.0
  outer loop
    vertex 4.323363243353502 -4.413320093325921 -7.649510113001883e-15
    vertex 14.423363243353501 -1.0133200933259205 -9.067820856846338e-15
    vertex 14.423363243353501 -4.413320093325921 -9.067820856846338e-15
  endloop
endfacet
facet normal 7.210810130381916e-16 1.2731209176395472e-15 -1.0
  outer loop
    vertex 23.9233632433535 -10.513320093325921 -9.279318343037432e-15
    vertex 20.523363243353497 -20.613320093325918 -8.503827560336759e-15
    vertex 20.523363243353497 -10.513320093325921 -9.279318343037432e-15
  endloop
endfacet
facet normal 7.210810130381916e-16 1.2731209176395472e-15 -1.0
  outer loop
    vertex 20.523363243353497 -20.613320093325918 -8.503827560336759e-15
    vertex 23.9233632433535 -10.513320093325921 -9.279318343037432e-15
    vertex 20.923363243353474 -24.013320093325916 -9.36995561167258e-16
  endloop
endfacet
facet normal 7.210810130381916e-16 1.2731209176395472e-15 -1.0
  outer loop
    vertex 20.923363243353474 -24.013320093325916 -9.36995561167258e-16
    vertex 23.9233632433535 -10.513320093325921 -9.279318343037432e-15
    vertex 23.9233632433535 -24.013320093325916 -4.6362733135365124e-15
  endloop
endfacet
facet normal 7.210810130381916e-16 1.2731209176395472e-15 -1.0
  outer loop
    vertex -20.076636756646504 -25.0133200933259 -1.8329782136561334e-14
    vertex -15.47330297494732 -34.898634390364606 3.957639250704172e-14
    vertex -15.626636756646512 -36.06332009332594 3.785581479392158e-14
  endloop
endfacet
facet normal 7.210810130381916e-16 1.2731209176395472e-15 -1.0
  outer loop
    vertex -15.47330297494732 -34.898634390364606 3.957639250704172e-14
    vertex -20.076636756646504 -25.0133200933259 -1.8329782136561334e-14
    vertex -15.023751073676488 -33.81332009332595 4.135026747616285e-14
  endloop
endfacet
facet normal 7.210810130381916e-16 1.2731209176395472e-15 -1.0
  outer loop
    vertex -15.023751073676488 -33.81332009332595 4.135026747616285e-14
    vertex -20.076636756646504 -25.0133200933259 -1.8329782136561334e-14
    vertex 0.9233632433534833 -4.013320093325876 1.1266334300801053e-14
  endloop
endfacet
facet normal 7.210810130381916e-16 1.2731209176395472e-15 -1.0
  outer loop
    vertex -15.023751073676488 -33.81332009332595 4.135026747616285e-14
    vertex 0.9233632433534833 -4.013320093325876 1.1266334300801053e-14
    vertex -14.308617271985975 -32.88133957798648 4.3056553053606333e-14
  endloop
endfacet
facet normal 7.210810130381916e-16 1.2731209176395472e-15 -1.0
  outer loop
    vertex -14.308617271985975 -32.88133957798648 4.3056553053606333e-14
    vertex 0.9233632433534833 -4.013320093325876 1.1266334300801053e-14
    vertex -13.376636756646514 -32.16620577629597 4.457896869703964e-14
  endloop
endfacet
facet normal 7.210810130381916e-16 1.2731209176395472e-15 -1.0
  outer loop
    vertex -13.376636756646514 -32.16620577629597 4.457896869703964e-14
    vertex 0.9233632433534833 -4.013320093325876 1.1266334300801053e-14
    vertex -12.291322459607857 -31.716653875025138 4.581376429627361e-14
  endloop
endfacet
facet normal 7.210810130381916e-16 1.2731209176395472e-15 -1.0
  outer loop
    vertex -12.291322459607857 -31.716653875025138 4.581376429627361e-14
    vertex 0.9233632433534833 -4.013320093325876 1.1266334300801053e-14
    vertex -11.126636756646509 -31.56332009332594 4.6676790571816644e-14
  endloop
endfacet
facet normal 7.210810130381916e-16 1.2731209176395472e-15 -1.0
  outer loop
    vertex -11.126636756646509 -31.56332009332594 4.6676790571816644e-14
    vertex 0.9233632433534833 -4.013320093325876 1.1266334300801053e-14
    vertex -9.961951053685164 -31.716653875025138 4.710923370920885e-14
  endloop
endfacet
facet normal 7.210810130381916e-16 1.2731209176395472e-15 -1.0
  outer loop
    vertex -9.961951053685164 -31.716653875025138 4.710923370920885e-14
    vertex 0.9233632433534833 -4.013320093325876 1.1266334300801053e-14
    vertex -8.876636756646507 -32.16620577629597 4.7081623423283007e-14
  endloop
endfacet
facet normal 7.210810130381916e-16 1.2731209176395472e-15 -1.0
  outer loop
    vertex -8.876636756646507 -32.16620577629597 4.7081623423283007e-14
    vertex 0.9233632433534833 -4.013320093325876 1.1266334300801053e-14
    vertex -7.944656241307043 -32.88133957798648 4.659584130939682e-14
  endloop
endfacet
facet normal 7.210810130381916e-16 1.2731209176395472e-15 -1.0
  outer loop
    vertex -7.944656241307043 -32.88133957798648 4.659584130939682e-14
    vertex 0.9233632433534833 -4.013320093325876 1.1266334300801053e-14
    vertex -7.229522439616533 -33.81332009332594 4.568499261581873e-14
  endloop
endfacet
facet normal 7.210810130381916e-16 1.2731209176395472e-15 -1.0
  outer loop
    vertex -7.229522439616533 -33.81332009332594 4.568499261581873e-14
    vertex 0.9233632433534833 -4.013320093325876 1.1266334300801053e-14
    vertex -6.779970538345698 -34.8986343903646 4.4411150175767453e-14
  endloop
endfacet
facet normal 7.210810130381916e-16 1.2731209176395472e-15 -1.0
  outer loop
    vertex -6.779970538345698 -34.8986343903646 4.4411150175767453e-14
    vertex 0.9233632433534833 -4.013320093325876 1.1266334300801053e-14
    vertex -6.626636756646506 -36.06332009332594 4.28611242464083e-14
  endloop
endfacet
facet normal 7.210810130381916e-16 1.2731209176395472e-15 -1.0
  outer loop
    vertex -6.626636756646506 -36.06332009332594 4.28611242464083e-14
    vertex 0.9233632433534833 -4.013320093325876 1.1266334300801053e-14
    vertex -0.0766367566464957 -45.01332009332592 -4.2299497238218464e-14
  endloop
endfacet
facet normal 7.210810130381916e-16 1.2731209176395472e-15 -1.0
  outer loop
    vertex -0.0766367566464957 -45.01332009332592 -4.2299497238218464e-14
    vertex 0.9233632433534833 -4.013320093325876 1.1266334300801053e-14
    vertex 4.32336324335349 -20.613320093325918 -4.317380501450795e-15
  endloop
endfacet
facet normal 7.210810130381916e-16 1.2731209176395472e-15 -1.0
  outer loop
    vertex -0.0766367566464957 -45.01332009332592 -4.2299497238218464e-14
    vertex 4.32336324335349 -20.613320093325918 -4.317380501450795e-15
    vertex 20.923363243353474 -24.013320093325916 -9.36995561167258e-16
  endloop
endfacet
facet normal 7.210810130381916e-16 1.2731209176395472e-15 -1.0
  outer loop
    vertex 20.923363243353474 -24.013320093325916 -9.36995561167258e-16
    vertex 4.32336324335349 -20.613320093325918 -4.317380501450795e-15
    vertex 20.523363243353497 -20.613320093325918 -8.503827560336759e-15
  endloop
endfacet
facet normal 7.210810130381916e-16 1.2731209176395472e-15 -1.0
  outer loop
    vertex -28.076636756646504 -55.013320093325845 -1.4981071938535706e-13
    vertex -25.594274846851587 -51.94517174590385 -3.595457265248569e-14
    vertex -10.07663675664649 -55.01332009332593 -6.34492458573277e-14
  endloop
endfacet
facet normal 7.210810130381916e-16 1.2731209176395472e-15 -1.0
  outer loop
    vertex -25.594274846851587 -51.94517174590385 -3.595457265248569e-14
    vertex -28.076636756646504 -55.013320093325845 -1.4981071938535706e-13
    vertex -26.076636756646547 -51.74537090089459 -2.4674706722294104e-14
  endloop
endfacet
facet normal 7.210810130381916e-16 1.2731209176395472e-15 -1.0
  outer loop
    vertex -26.076636756646547 -51.74537090089459 -2.4674706722294104e-14
    vertex -28.076636756646504 -55.013320093325845 -1.4981071938535706e-13
    vertex -26.490850319019646 -51.42753365569882 -1.3394840792102513e-14
  endloop
endfacet
facet normal 7.210810130381916e-16 1.2731209176395472e-15 -1.0
  outer loop
    vertex -26.490850319019646 -51.42753365569882 -1.3394840792102513e-14
    vertex -28.076636756646504 -55.013320093325845 -1.4981071938535706e-13
    vertex -26.808687564215433 -51.013320093325724 -1.3394840792102513e-14
  endloop
endfacet
facet normal 7.210810130381916e-16 1.2731209176395472e-15 -1.0
  outer loop
    vertex -26.808687564215433 -51.013320093325724 -1.3394840792102513e-14
    vertex -28.076636756646504 -55.013320093325845 -1.4981071938535706e-13
    vertex -27.008488409224693 -50.53095818353076 -2.114974861910923e-15
  endloop
endfacet
facet normal 7.210810130381916e-16 1.2731209176395472e-15 -1.0
  outer loop
    vertex -27.008488409224693 -50.53095818353076 -2.114974861910923e-15
    vertex -28.076636756646504 -55.013320093325845 -1.4981071938535706e-13
    vertex -27.076636756646554 -50.01332009332572 -2.114974861910923e-15
  endloop
endfacet
facet normal 7.210810130381916e-16 1.2731209176395472e-15 -1.0
  outer loop
    vertex -10.07663675664649 -55.01332009332593 -6.34492458573277e-14
    vertex -25.594274846851587 -51.94517174590385 -3.595457265248569e-14
    vertex -25.076636756646526 -52.01332009332571 -3.595457265248569e-14
  endloop
endfacet
facet normal 7.210810130381916e-16 1.2731209176395472e-15 -1.0
  outer loop
    vertex -10.07663675664649 -55.01332009332593 -6.34492458573277e-14
    vertex -25.076636756646526 -52.01332009332571 -3.595457265248569e-14
    vertex -24.558998666441486 -51.94517174590385 -3.595457265248569e-14
  endloop
endfacet
facet normal 7.210810130381916e-16 1.2731209176395472e-15 -1.0
  outer loop
    vertex -10.07663675664649 -55.01332009332593 -6.34492458573277e-14
    vertex -24.558998666441486 -51.94517174590385 -3.595457265248569e-14
    vertex -24.076636756646526 -51.745370900894585 -3.595457265248569e-14
  endloop
endfacet
facet normal 7.210810130381916e-16 1.2731209176395472e-15 -1.0
  outer loop
    vertex -10.07663675664649 -55.01332009332593 -6.34492458573277e-14
    vertex -24.076636756646526 -51.745370900894585 -3.595457265248569e-14
    vertex -23.662423194273437 -51.4275336556988 -3.595457265248569e-14
  endloop
endfacet
facet normal 7.210810130381916e-16 1.2731209176395472e-15 -1.0
  outer loop
    vertex -10.07663675664649 -55.01332009332593 -6.34492458573277e-14
    vertex -23.662423194273437 -51.4275336556988 -3.595457265248569e-14
    vertex -23.344585949077658 -51.0133200933257 -3.595457265248569e-14
  endloop
endfacet
facet normal 7.210810130381916e-16 1.2731209176395472e-15 -1.0
  outer loop
    vertex -10.07663675664649 -55.01332009332593 -6.34492458573277e-14
    vertex -23.344585949077658 -51.0133200933257 -3.595457265248569e-14
    vertex -23.144785104068397 -50.530958183530736 -3.595457265248569e-14
  endloop
endfacet
facet normal 7.210810130381916e-16 1.2731209176395472e-15 -1.0
  outer loop
    vertex -10.07663675664649 -55.01332009332593 -6.34492458573277e-14
    vertex -23.144785104068397 -50.530958183530736 -3.595457265248569e-14
    vertex -23.07663675664654 -50.013320093325696 -3.595457265248569e-14
  endloop
endfacet
facet normal 7.210810130381916e-16 1.2731209176395472e-15 -1.0
  outer loop
    vertex -10.07663675664649 -55.01332009332593 -6.34492458573277e-14
    vertex -23.07663675664654 -50.013320093325696 -3.595457265248569e-14
    vertex -20.076636756646504 -25.0133200933259 -1.8329782136561334e-14
  endloop
endfacet
facet normal 7.210810130381916e-16 1.2731209176395472e-15 -1.0
  outer loop
    vertex -10.07663675664649 -55.01332009332593 -6.34492458573277e-14
    vertex -20.076636756646504 -25.0133200933259 -1.8329782136561334e-14
    vertex -15.47330297494732 -37.22800579628729 3.630578886456243e-14
  endloop
endfacet
facet normal 7.210810130381916e-16 1.2731209176395472e-15 -1.0
  outer loop
    vertex -15.47330297494732 -37.22800579628729 3.630578886456243e-14
    vertex -20.076636756646504 -25.0133200933259 -1.8329782136561334e-14
    vertex -15.626636756646512 -36.06332009332594 3.785581479392158e-14
  endloop
endfacet
facet normal 7.210810130381916e-16 1.2731209176395472e-15 -1.0
  outer loop
    vertex -10.07663675664649 -55.01332009332593 -6.34492458573277e-14
    vertex -15.47330297494732 -37.22800579628729 3.630578886456243e-14
    vertex -15.023751073676484 -38.31332009332595 3.5031946424511145e-14
  endloop
endfacet
facet normal 7.210810130381916e-16 1.2731209176395472e-15 -1.0
  outer loop
    vertex -10.07663675664649 -55.01332009332593 -6.34492458573277e-14
    vertex -15.023751073676484 -38.31332009332595 3.5031946424511145e-14
    vertex -14.308617271985971 -39.24530060866541 3.412109773093305e-14
  endloop
endfacet
facet normal 7.210810130381916e-16 1.2731209176395472e-15 -1.0
  outer loop
    vertex -10.07663675664649 -55.01332009332593 -6.34492458573277e-14
    vertex -14.308617271985971 -39.24530060866541 3.412109773093305e-14
    vertex -13.376636756646507 -39.96043441035592 3.363531561704687e-14
  endloop
endfacet
facet normal 7.210810130381916e-16 1.2731209176395472e-15 -1.0
  outer loop
    vertex -10.07663675664649 -55.01332009332593 -6.34492458573277e-14
    vertex -13.376636756646507 -39.96043441035592 3.363531561704687e-14
    vertex -12.291322459607851 -40.40998631162676 3.360770533112103e-14
  endloop
endfacet
facet normal 7.210810130381916e-16 1.2731209176395472e-15 -1.0
  outer loop
    vertex -10.07663675664649 -55.01332009332593 -6.34492458573277e-14
    vertex -12.291322459607851 -40.40998631162676 3.360770533112103e-14
    vertex -11.126636756646509 -40.56332009332595 3.404014846851323e-14
  endloop
endfacet
facet normal 7.210810130381916e-16 1.2731209176395472e-15 -1.0
  outer loop
    vertex -10.07663675664649 -55.01332009332593 -6.34492458573277e-14
    vertex -11.126636756646509 -40.56332009332595 3.404014846851323e-14
    vertex -9.961951053685164 -40.40998631162675 3.490317474405627e-14
  endloop
endfacet
facet normal 7.210810130381916e-16 1.2731209176395472e-15 -1.0
  outer loop
    vertex -10.07663675664649 -55.01332009332593 -6.34492458573277e-14
    vertex -9.961951053685164 -40.40998631162675 3.490317474405627e-14
    vertex -0.0766367566464957 -45.01332009332592 -4.2299497238218464e-14
  endloop
endfacet
facet normal 7.210810130381916e-16 1.2731209176395472e-15 -1.0
  outer loop
    vertex -0.0766367566464957 -45.01332009332592 -4.2299497238218464e-14
    vertex -9.961951053685164 -40.40998631162675 3.490317474405627e-14
    vertex -8.876636756646505 -39.960434410355916 3.613797034329023e-14
  endloop
endfacet
facet normal 7.210810130381916e-16 1.2731209176395472e-15 -1.0
  outer loop
    vertex -0.0766367566464957 -45.01332009332592 -4.2299497238218464e-14
    vertex -8.876636756646505 -39.960434410355916 3.613797034329023e-14
    vertex -7.944656241307043 -39.24530060866541 3.766038598672354e-14
  endloop
endfacet
facet normal 7.210810130381916e-16 1.2731209176395472e-15 -1.0
  outer loop
    vertex -0.0766367566464957 -45.01332009332592 -4.2299497238218464e-14
    vertex -7.944656241307043 -39.24530060866541 3.766038598672354e-14
    vertex -7.229522439616533 -38.31332009332595 3.936667156416703e-14
  endloop
endfacet
facet normal 7.210810130381916e-16 1.2731209176395472e-15 -1.0
  outer loop
    vertex -0.0766367566464957 -45.01332009332592 -4.2299497238218464e-14
    vertex -7.229522439616533 -38.31332009332595 3.936667156416703e-14
    vertex -6.779970538345698 -37.228005796287285 4.114054653328815e-14
  endloop
endfacet
facet normal 7.210810130381916e-16 1.2731209176395472e-15 -1.0
  outer loop
    vertex -0.0766367566464957 -45.01332009332592 -4.2299497238218464e-14
    vertex -6.779970538345698 -37.228005796287285 4.114054653328815e-14
    vertex -6.626636756646506 -36.06332009332594 4.28611242464083e-14
  endloop
endfacet
facet normal -8.631089699178761e-32 1.0 -3.877453913503364e-16
  outer loop
    vertex 20.523363243353522 -10.513320093325907 39.99999999999994
    vertex 23.9233632433535 -10.513320093325921 -9.279318343037432e-15
    vertex 20.523363243353497 -10.513320093325921 -9.279318343037432e-15
  endloop
endfacet
facet normal -8.631089699178761e-32 1.0 -3.877453913503364e-16
  outer loop
    vertex 23.9233632433535 -10.513320093325921 -9.279318343037432e-15
    vertex 20.523363243353522 -10.513320093325907 39.99999999999994
    vertex 23.92336324335352 -10.513320093325907 39.99999999999994
  endloop
endfacet
facet normal 1.0 -5.761225502814287e-32 -2.8199664825479016e-16
  outer loop
    vertex 14.423363243353501 -1.0133200933259205 -9.067820856846338e-15
    vertex 14.423363243353512 -4.4133200933259005 39.99999999999994
    vertex 14.423363243353501 -4.413320093325921 -9.067820856846338e-15
  endloop
endfacet
facet normal 1.0 -5.761225502814287e-32 -2.8199664825479016e-16
  outer loop
    vertex 14.423363243353512 -4.4133200933259005 39.99999999999994
    vertex 14.423363243353501 -1.0133200933259205 -9.067820856846338e-15
    vertex 14.423363243353512 -1.0133200933259001 39.99999999999994
  endloop
endfacet
facet normal -2.319434847765428e-16 -1.2756584850164986e-15 1.0
  outer loop
    vertex -28.076636756646476 -55.013320093325945 8.749999999999922
    vertex -27.008488409224615 -50.53095818353082 8.749999999999975
    vertex -27.076636756646476 -50.01332009332578 8.74999999999998
  endloop
endfacet
facet normal -2.319434847765428e-16 -1.2756584850164986e-15 1.0
  outer loop
    vertex -27.008488409224615 -50.53095818353082 8.749999999999975
    vertex -28.076636756646476 -55.013320093325945 8.749999999999922
    vertex -26.808687564215354 -51.01332009332578 8.74999999999997
  endloop
endfacet
facet normal -2.319434847765428e-16 -1.2756584850164986e-15 1.0
  outer loop
    vertex -26.808687564215354 -51.01332009332578 8.74999999999997
    vertex -28.076636756646476 -55.013320093325945 8.749999999999922
    vertex -26.490850319019568 -51.42753365569887 8.749999999999964
  endloop
endfacet
facet normal -2.319434847765428e-16 -1.2756584850164986e-15 1.0
  outer loop
    vertex -26.490850319019568 -51.42753365569887 8.749999999999964
    vertex -28.076636756646476 -55.013320093325945 8.749999999999922
    vertex -26.07663675664647 -51.74537090089465 8.74999999999996
  endloop
endfacet
facet normal -2.319434847765428e-16 -1.2756584850164986e-15 1.0
  outer loop
    vertex -26.07663675664647 -51.74537090089465 8.74999999999996
    vertex -28.076636756646476 -55.013320093325945 8.749999999999922
    vertex -25.59427484685151 -51.945171745903906 8.749999999999954
  endloop
endfacet
facet normal -2.319434847765428e-16 -1.2756584850164986e-15 1.0
  outer loop
    vertex -25.59427484685151 -51.945171745903906 8.749999999999954
    vertex -28.076636756646476 -55.013320093325945 8.749999999999922
    vertex -10.076636756646511 -55.01332009332593 8.749999999999964
  endloop
endfacet
facet normal -2.319434847765428e-16 -1.2756584850164986e-15 1.0
  outer loop
    vertex -25.59427484685151 -51.945171745903906 8.749999999999954
    vertex -10.076636756646511 -55.01332009332593 8.749999999999964
    vertex -25.07663675664647 -52.01332009332577 8.749999999999947
  endloop
endfacet
facet normal -2.319434847765428e-16 -1.2756584850164986e-15 1.0
  outer loop
    vertex -25.07663675664647 -52.01332009332577 8.749999999999947
    vertex -10.076636756646511 -55.01332009332593 8.749999999999964
    vertex -24.55899866644143 -51.945171745903906 8.749999999999941
  endloop
endfacet
facet normal -2.319434847765428e-16 -1.2756584850164986e-15 1.0
  outer loop
    vertex -24.55899866644143 -51.945171745903906 8.749999999999941
    vertex -10.076636756646511 -55.01332009332593 8.749999999999964
    vertex -24.076636756646472 -51.74537090089464 8.74999999999994
  endloop
endfacet
facet normal -2.319434847765428e-16 -1.2756584850164986e-15 1.0
  outer loop
    vertex -24.076636756646472 -51.74537090089464 8.74999999999994
    vertex -10.076636756646511 -55.01332009332593 8.749999999999964
    vertex -23.66242319427338 -51.42753365569886 8.74999999999994
  endloop
endfacet
facet normal -2.319434847765428e-16 -1.2756584850164986e-15 1.0
  outer loop
    vertex -23.66242319427338 -51.42753365569886 8.74999999999994
    vertex -10.076636756646511 -55.01332009332593 8.749999999999964
    vertex -23.3445859490776 -51.01332009332576 8.74999999999994
  endloop
endfacet
facet normal -2.319434847765428e-16 -1.2756584850164986e-15 1.0
  outer loop
    vertex -23.3445859490776 -51.01332009332576 8.74999999999994
    vertex -10.076636756646511 -55.01332009332593 8.749999999999964
    vertex -23.14478510406834 -50.5309581835308 8.749999999999941
  endloop
endfacet
facet normal -2.319434847765428e-16 -1.2756584850164986e-15 1.0
  outer loop
    vertex -23.14478510406834 -50.5309581835308 8.749999999999941
    vertex -10.076636756646511 -55.01332009332593 8.749999999999964
    vertex -23.076636756646483 -50.01332009332576 8.749999999999947
  endloop
endfacet
facet normal -2.319434847765428e-16 -1.2756584850164986e-15 1.0
  outer loop
    vertex -23.076636756646483 -50.01332009332576 8.749999999999947
    vertex -10.076636756646511 -55.01332009332593 8.749999999999964
    vertex -18.632190256111635 -36.06332009332594 8.750000000000004
  endloop
endfacet
facet normal -2.319434847765428e-16 -1.2756584850164986e-15 1.0
  outer loop
    vertex -23.076636756646483 -50.01332009332576 8.749999999999947
    vertex -18.632190256111635 -36.06332009332594 8.750000000000004
    vertex -20.07663675664649 -25.013320093325923 8.750000000000009
  endloop
endfacet
facet normal -2.319434847765428e-16 -1.2756584850164986e-15 1.0
  outer loop
    vertex -18.632190256111635 -36.06332009332594 8.750000000000004
    vertex -10.076636756646511 -55.01332009332593 8.749999999999964
    vertex -14.87941350637907 -42.563320093325935 8.749999999999998
  endloop
endfacet
facet normal -2.319434847765428e-16 -1.2756584850164986e-15 1.0
  outer loop
    vertex -14.87941350637907 -42.563320093325935 8.749999999999998
    vertex -10.076636756646511 -55.01332009332593 8.749999999999964
    vertex -7.373860006913941 -42.563320093325935 8.749999999999998
  endloop
endfacet
facet normal -2.319434847765428e-16 -1.2756584850164986e-15 1.0
  outer loop
    vertex -7.373860006913941 -42.563320093325935 8.749999999999998
    vertex -10.076636756646511 -55.01332009332593 8.749999999999964
    vertex -0.07663675664651669 -45.01332009332592 8.749999999999986
  endloop
endfacet
facet normal -2.319434847765428e-16 -1.2756584850164986e-15 1.0
  outer loop
    vertex -7.373860006913941 -42.563320093325935 8.749999999999998
    vertex -0.07663675664651669 -45.01332009332592 8.749999999999986
    vertex -3.6210832571813705 -36.06332009332594 8.750000000000009
  endloop
endfacet
facet normal -2.319434847765428e-16 -1.2756584850164986e-15 1.0
  outer loop
    vertex -30.076636756646476 -53.013320093325945 8.749999999999956
    vertex -20.07663675664649 -25.013320093325923 8.750000000000009
    vertex -30.076636756646483 -35.01332009332591 8.75
  endloop
endfacet
facet normal -2.319434847765428e-16 -1.2756584850164986e-15 1.0
  outer loop
    vertex -20.07663675664649 -25.013320093325923 8.750000000000009
    vertex -30.076636756646476 -53.013320093325945 8.749999999999956
    vertex -27.00848840922462 -49.49568200312074 8.749999999999984
  endloop
endfacet
facet normal -2.319434847765428e-16 -1.2756584850164986e-15 1.0
  outer loop
    vertex -27.00848840922462 -49.49568200312074 8.749999999999984
    vertex -30.076636756646476 -53.013320093325945 8.749999999999956
    vertex -28.076636756646476 -55.013320093325945 8.749999999999922
  endloop
endfacet
facet normal -2.319434847765428e-16 -1.2756584850164986e-15 1.0
  outer loop
    vertex -27.00848840922462 -49.49568200312074 8.749999999999984
    vertex -28.076636756646476 -55.013320093325945 8.749999999999922
    vertex -27.076636756646476 -50.01332009332578 8.74999999999998
  endloop
endfacet
facet normal -2.319434847765428e-16 -1.2756584850164986e-15 1.0
  outer loop
    vertex -20.07663675664649 -25.013320093325923 8.750000000000009
    vertex -27.00848840922462 -49.49568200312074 8.749999999999984
    vertex -26.808687564215365 -49.01332009332579 8.749999999999988
  endloop
endfacet
facet normal -2.319434847765428e-16 -1.2756584850164986e-15 1.0
  outer loop
    vertex -20.07663675664649 -25.013320093325923 8.750000000000009
    vertex -26.808687564215365 -49.01332009332579 8.749999999999988
    vertex -26.490850319019586 -48.59910653095268 8.74999999999999
  endloop
endfacet
facet normal -2.319434847765428e-16 -1.2756584850164986e-15 1.0
  outer loop
    vertex -20.07663675664649 -25.013320093325923 8.750000000000009
    vertex -26.490850319019586 -48.59910653095268 8.74999999999999
    vertex -26.07663675664649 -48.2812692857569 8.749999999999988
  endloop
endfacet
facet normal -2.319434847765428e-16 -1.2756584850164986e-15 1.0
  outer loop
    vertex -20.07663675664649 -25.013320093325923 8.750000000000009
    vertex -26.07663675664649 -48.2812692857569 8.749999999999988
    vertex -25.59427484685153 -48.08146844074764 8.749999999999984
  endloop
endfacet
facet normal -2.319434847765428e-16 -1.2756584850164986e-15 1.0
  outer loop
    vertex -20.07663675664649 -25.013320093325923 8.750000000000009
    vertex -25.59427484685153 -48.08146844074764 8.749999999999984
    vertex -25.07663675664649 -48.013320093325774 8.74999999999998
  endloop
endfacet
facet normal -2.319434847765428e-16 -1.2756584850164986e-15 1.0
  outer loop
    vertex -20.07663675664649 -25.013320093325923 8.750000000000009
    vertex -25.07663675664649 -48.013320093325774 8.74999999999998
    vertex -24.55899866644145 -48.081468440747635 8.749999999999975
  endloop
endfacet
facet normal -2.319434847765428e-16 -1.2756584850164986e-15 1.0
  outer loop
    vertex -20.07663675664649 -25.013320093325923 8.750000000000009
    vertex -24.55899866644145 -48.081468440747635 8.749999999999975
    vertex -24.076636756646494 -48.281269285756885 8.74999999999997
  endloop
endfacet
facet normal -2.319434847765428e-16 -1.2756584850164986e-15 1.0
  outer loop
    vertex -20.07663675664649 -25.013320093325923 8.750000000000009
    vertex -24.076636756646494 -48.281269285756885 8.74999999999997
    vertex -23.662423194273394 -48.59910653095267 8.749999999999964
  endloop
endfacet
facet normal -2.319434847765428e-16 -1.2756584850164986e-15 1.0
  outer loop
    vertex -20.07663675664649 -25.013320093325923 8.750000000000009
    vertex -23.662423194273394 -48.59910653095267 8.749999999999964
    vertex -23.34458594907761 -49.01332009332576 8.74999999999996
  endloop
endfacet
facet normal -2.319434847765428e-16 -1.2756584850164986e-15 1.0
  outer loop
    vertex -20.07663675664649 -25.013320093325923 8.750000000000009
    vertex -23.34458594907761 -49.01332009332576 8.74999999999996
    vertex -23.144785104068347 -49.49568200312072 8.74999999999995
  endloop
endfacet
facet normal -2.319434847765428e-16 -1.2756584850164986e-15 1.0
  outer loop
    vertex -20.07663675664649 -25.013320093325923 8.750000000000009
    vertex -23.144785104068347 -49.49568200312072 8.74999999999995
    vertex -23.076636756646483 -50.01332009332576 8.749999999999947
  endloop
endfacet
facet normal -2.319434847765428e-16 -1.2756584850164986e-15 1.0
  outer loop
    vertex -20.07663675664649 -25.013320093325923 8.750000000000009
    vertex -14.879413506379066 -29.563320093325938 8.750000000000014
    vertex 0.9233632433534731 -4.013320093325901 8.749999999999993
  endloop
endfacet
facet normal -2.319434847765428e-16 -1.2756584850164986e-15 1.0
  outer loop
    vertex -14.879413506379066 -29.563320093325938 8.750000000000014
    vertex -20.07663675664649 -25.013320093325923 8.750000000000009
    vertex -18.632190256111635 -36.06332009332594 8.750000000000004
  endloop
endfacet
facet normal -2.319434847765428e-16 -1.2756584850164986e-15 1.0
  outer loop
    vertex 0.9233632433534731 -4.013320093325901 8.749999999999993
    vertex -14.879413506379066 -29.563320093325938 8.750000000000014
    vertex -7.373860006913934 -29.563320093325938 8.750000000000021
  endloop
endfacet
facet normal -2.319434847765428e-16 -1.2756584850164986e-15 1.0
  outer loop
    vertex 0.9233632433534731 -4.013320093325901 8.749999999999993
    vertex -7.373860006913934 -29.563320093325938 8.750000000000021
    vertex -3.6210832571813705 -36.06332009332594 8.750000000000009
  endloop
endfacet
facet normal -2.319434847765428e-16 -1.2756584850164986e-15 1.0
  outer loop
    vertex 0.9233632433534731 -4.013320093325901 8.749999999999993
    vertex -3.6210832571813705 -36.06332009332594 8.750000000000009
    vertex -0.07663675664651669 -45.01332009332592 8.749999999999986
  endloop
endfacet
facet normal -2.319434847765428e-16 -1.2756584850164986e-15 1.0
  outer loop
    vertex 0.9233632433534731 -4.013320093325901 8.749999999999993
    vertex -0.07663675664651669 -45.01332009332592 8.749999999999986
    vertex 0.9233632433534797 -24.013320093326016 8.749999999999993
  endloop
endfacet
facet normal -2.319434847765428e-16 -1.2756584850164986e-15 1.0
  outer loop
    vertex 0.9233632433534797 -24.013320093326016 8.749999999999993
    vertex -0.07663675664651669 -45.01332009332592 8.749999999999986
    vertex 20.923363243353503 -24.013320093326016 8.74999999999998
  endloop
endfacet
facet normal -2.319434847765428e-16 -1.2756584850164986e-15 1.0
  outer loop
    vertex 0.9233632433534797 -24.013320093326016 8.749999999999993
    vertex 20.923363243353503 -24.013320093326016 8.74999999999998
    vertex 5.9988593556758305 -24.013320093325905 8.750000000000037
  endloop
endfacet
facet normal -2.319434847765428e-16 -1.2756584850164986e-15 1.0
  outer loop
    vertex 0.9233632433535155 -19.083516639326714 8.750000000000037
    vertex 0.9233632433534731 -4.013320093325901 8.749999999999993
    vertex 0.9233632433534797 -24.013320093326016 8.749999999999993
  endloop
endfacet
facet normal 7.007326923553967e-16 2.947659220207377e-16 1.0
  outer loop
    vertex 0.9233632433534724 -24.013320093326012 39.99999999999993
    vertex 4.32336324335351 -20.6133200933259 39.99999999999996
    vertex 0.9233632433535078 -1.0133200933259003 39.99999999999996
  endloop
endfacet
facet normal 7.007326923553967e-16 2.947659220207377e-16 1.0
  outer loop
    vertex 4.32336324335351 -20.6133200933259 39.99999999999996
    vertex 0.9233632433534724 -24.013320093326012 39.99999999999993
    vertex 23.92336324335352 -24.013320093325895 39.99999999999996
  endloop
endfacet
facet normal 7.007326923553967e-16 2.947659220207377e-16 1.0
  outer loop
    vertex 4.32336324335351 -20.6133200933259 39.99999999999996
    vertex 23.92336324335352 -24.013320093325895 39.99999999999996
    vertex 20.523363243353522 -20.6133200933259 39.99999999999994
  endloop
endfacet
facet normal 7.007326923553967e-16 2.947659220207377e-16 1.0
  outer loop
    vertex 20.523363243353522 -20.6133200933259 39.99999999999994
    vertex 23.92336324335352 -24.013320093325895 39.99999999999996
    vertex 20.523363243353522 -10.513320093325907 39.99999999999994
  endloop
endfacet
facet normal 7.007326923553967e-16 2.947659220207377e-16 1.0
  outer loop
    vertex 20.523363243353522 -10.513320093325907 39.99999999999994
    vertex 23.92336324335352 -24.013320093325895 39.99999999999996
    vertex 23.92336324335352 -10.513320093325907 39.99999999999994
  endloop
endfacet
facet normal 7.007326923553967e-16 2.947659220207377e-16 1.0
  outer loop
    vertex 0.9233632433535078 -1.0133200933259003 39.99999999999996
    vertex 4.323363243353523 -4.4133200933259005 39.99999999999996
    vertex 14.423363243353512 -1.0133200933259001 39.99999999999994
  endloop
endfacet
facet normal 7.007326923553967e-16 2.947659220207377e-16 1.0
  outer loop
    vertex 4.323363243353523 -4.4133200933259005 39.99999999999996
    vertex 0.9233632433535078 -1.0133200933259003 39.99999999999996
    vertex 4.32336324335351 -20.6133200933259 39.99999999999996
  endloop
endfacet
facet normal 7.007326923553967e-16 2.947659220207377e-16 1.0
  outer loop
    vertex 14.423363243353512 -1.0133200933259001 39.99999999999994
    vertex 4.323363243353523 -4.4133200933259005 39.99999999999996
    vertex 14.423363243353512 -4.4133200933259005 39.99999999999994
  endloop
endfacet
facet normal 2.0870614574913404e-15 -1.0 -7.291887447850867e-16
  outer loop
    vertex 23.92336324335352 -24.013320093325895 39.99999999999996
    vertex 20.923363243353474 -24.013320093325916 -9.36995561167258e-16
    vertex 23.9233632433535 -24.013320093325916 -4.6362733135365124e-15
  endloop
endfacet
facet normal 2.0870614574913404e-15 -1.0 -7.291887447850867e-16
  outer loop
    vertex 20.923363243353474 -24.013320093325916 -9.36995561167258e-16
    vertex 23.92336324335352 -24.013320093325895 39.99999999999996
    vertex 20.923363243353503 -24.013320093326016 8.74999999999998
  endloop
endfacet
facet normal 2.0870614574913404e-15 -1.0 -7.291887447850867e-16
  outer loop
    vertex 20.923363243353503 -24.013320093326016 8.74999999999998
    vertex 23.92336324335352 -24.013320093325895 39.99999999999996
    vertex 5.9988593556758305 -24.013320093325905 8.750000000000037
  endloop
endfacet
facet normal 2.0870614574913404e-15 -1.0 -7.291887447850867e-16
  outer loop
    vertex 5.9988593556758305 -24.013320093325905 8.750000000000037
    vertex 23.92336324335352 -24.013320093325895 39.99999999999996
    vertex 0.9233632433534724 -24.013320093326012 39.99999999999993
  endloop
endfacet
facet normal 2.0870614574913404e-15 -1.0 -7.291887447850867e-16
  outer loop
    vertex 0.9233632433534724 -24.013320093326012 39.99999999999993
    vertex 0.9233632433534797 -24.013320093326016 8.749999999999993
    vertex 5.9988593556758305 -24.013320093325905 8.750000000000037
  endloop
endfacet
facet normal -1.0 1.0947931959912799e-16 2.987017181444022e-16
  outer loop
    vertex 0.9233632433534724 -24.013320093326012 39.99999999999993
    vertex 0.9233632433535155 -19.083516639326714 8.750000000000037
    vertex 0.9233632433534797 -24.013320093326016 8.749999999999993
  endloop
endfacet
facet normal -1.0 1.0947931959912799e-16 2.987017181444022e-16
  outer loop
    vertex 0.9233632433535155 -19.083516639326714 8.750000000000037
    vertex 0.9233632433534724 -24.013320093326012 39.99999999999993
    vertex 0.9233632433535078 -1.0133200933259003 39.99999999999996
  endloop
endfacet
facet normal -1.0 1.0947931959912799e-16 2.987017181444022e-16
  outer loop
    vertex 0.9233632433535155 -19.083516639326714 8.750000000000037
    vertex 0.9233632433535078 -1.0133200933259003 39.99999999999996
    vertex 0.9233632433534731 -4.013320093325901 8.749999999999993
  endloop
endfacet
facet normal -1.0 1.0947931959912799e-16 2.987017181444022e-16
  outer loop
    vertex 0.9233632433534731 -4.013320093325901 8.749999999999993
    vertex 0.9233632433535078 -1.0133200933259003 39.99999999999996
    vertex 0.9233632433534833 -4.013320093325876 1.1266334300801053e-14
  endloop
endfacet
facet normal -1.0 1.0947931959912799e-16 2.987017181444022e-16
  outer loop
    vertex 0.9233632433534833 -4.013320093325876 1.1266334300801053e-14
    vertex 0.9233632433535078 -1.0133200933259003 39.99999999999996
    vertex 0.9233632433534833 -1.0133200933259208 -1.6156408564783567e-15
  endloop
endfacet
endsolid Стол-хаб-М8-16 - под прочный - Безтруб
