solid Шайба-м6х12мм-1мм
facet normal 0.9238795325112868 0.3826834323650896 0.0
  outer loop
    vertex -2.9943700614961117 -0.8023390398178143 0.0
    vertex -2.68467875173176 -1.5499999999999998 0.9999999999999999
    vertex -2.68467875173176 -1.5499999999999998 0.0
  endloop
endfacet
facet normal 0.9238795325112868 0.3826834323650896 0.0
  outer loop
    vertex -2.68467875173176 -1.5499999999999998 0.9999999999999999
    vertex -2.9943700614961117 -0.8023390398178143 0.0
    vertex -2.9943700614961117 -0.8023390398178143 0.9999999999999999
  endloop
endfacet
facet normal 0.793353340291235 0.6087614290087207 0.0
  outer loop
    vertex -2.68467875173176 -1.5499999999999998 0.0
    vertex -2.1920310216782974 -2.1920310216782974 0.9999999999999999
    vertex -2.1920310216782974 -2.1920310216782974 0.0
  endloop
endfacet
facet normal 0.793353340291235 0.6087614290087207 0.0
  outer loop
    vertex -2.1920310216782974 -2.1920310216782974 0.9999999999999999
    vertex -2.68467875173176 -1.5499999999999998 0.0
    vertex -2.68467875173176 -1.5499999999999998 0.9999999999999999
  endloop
endfacet
facet normal 0.6087614290087208 0.7933533402912352 0.0
  outer loop
    vertex -2.1920310216782974 -2.1920310216782974 0.9999999999999999
    vertex -1.5500000000000003 -2.6846787517317594 0.0
    vertex -2.1920310216782974 -2.1920310216782974 0.0
  endloop
endfacet
facet normal 0.6087614290087208 0.7933533402912352 0.0
  outer loop
    vertex -1.5500000000000003 -2.6846787517317594 0.0
    vertex -2.1920310216782974 -2.1920310216782974 0.9999999999999999
    vertex -1.5500000000000003 -2.6846787517317594 0.9999999999999999
  endloop
endfacet
facet normal 0.38268343236508967 0.9238795325112868 0.0
  outer loop
    vertex -1.5500000000000003 -2.6846787517317594 0.9999999999999999
    vertex -0.802339039817815 -2.9943700614961113 0.0
    vertex -1.5500000000000003 -2.6846787517317594 0.0
  endloop
endfacet
facet normal 0.38268343236508967 0.9238795325112868 0.0
  outer loop
    vertex -0.802339039817815 -2.9943700614961113 0.0
    vertex -1.5500000000000003 -2.6846787517317594 0.9999999999999999
    vertex -0.802339039817815 -2.9943700614961113 0.9999999999999999
  endloop
endfacet
facet normal 0.13052619222005202 0.9914448613738104 0.0
  outer loop
    vertex -0.802339039817815 -2.9943700614961113 0.9999999999999999
    vertex -1.8982025386783977e-16 -3.1 0.0
    vertex -0.802339039817815 -2.9943700614961113 0.0
  endloop
endfacet
facet normal 0.13052619222005202 0.9914448613738104 0.0
  outer loop
    vertex -1.8982025386783977e-16 -3.1 0.0
    vertex -0.802339039817815 -2.9943700614961113 0.9999999999999999
    vertex -1.8982025386783977e-16 -3.1 0.9999999999999999
  endloop
endfacet
facet normal -0.13052619222005168 0.9914448613738104 0.0
  outer loop
    vertex -1.8982025386783977e-16 -3.1 0.9999999999999999
    vertex 0.802339039817814 -2.9943700614961117 0.0
    vertex -1.8982025386783977e-16 -3.1 0.0
  endloop
endfacet
facet normal -0.13052619222005168 0.9914448613738104 0.0
  outer loop
    vertex 0.802339039817814 -2.9943700614961117 0.0
    vertex -1.8982025386783977e-16 -3.1 0.9999999999999999
    vertex 0.802339039817814 -2.9943700614961117 0.9999999999999999
  endloop
endfacet
facet normal -0.38268343236508967 0.9238795325112868 0.0
  outer loop
    vertex 0.802339039817814 -2.9943700614961117 0.9999999999999999
    vertex 1.5499999999999994 -2.68467875173176 0.0
    vertex 0.802339039817814 -2.9943700614961117 0.0
  endloop
endfacet
facet normal -0.38268343236508967 0.9238795325112868 0.0
  outer loop
    vertex 1.5499999999999994 -2.68467875173176 0.0
    vertex 0.802339039817814 -2.9943700614961117 0.9999999999999999
    vertex 1.5499999999999994 -2.68467875173176 0.9999999999999999
  endloop
endfacet
facet normal -0.6087614290087207 0.7933533402912353 0.0
  outer loop
    vertex 1.5499999999999994 -2.68467875173176 0.9999999999999999
    vertex 2.192031021678297 -2.1920310216782974 0.0
    vertex 1.5499999999999994 -2.68467875173176 0.0
  endloop
endfacet
facet normal -0.6087614290087207 0.7933533402912353 0.0
  outer loop
    vertex 2.192031021678297 -2.1920310216782974 0.0
    vertex 1.5499999999999994 -2.68467875173176 0.9999999999999999
    vertex 2.192031021678297 -2.1920310216782974 0.9999999999999999
  endloop
endfacet
facet normal -0.7933533402912348 0.6087614290087211 0.0
  outer loop
    vertex 2.6846787517317594 -1.550000000000001 0.9999999999999999
    vertex 2.192031021678297 -2.1920310216782974 0.0
    vertex 2.192031021678297 -2.1920310216782974 0.9999999999999999
  endloop
endfacet
facet normal -0.7933533402912348 0.6087614290087211 0.0
  outer loop
    vertex 2.192031021678297 -2.1920310216782974 0.0
    vertex 2.6846787517317594 -1.550000000000001 0.9999999999999999
    vertex 2.6846787517317594 -1.550000000000001 0.0
  endloop
endfacet
facet normal -0.9238795325112868 0.3826834323650899 0.0
  outer loop
    vertex 2.9943700614961113 -0.8023390398178152 0.9999999999999999
    vertex 2.6846787517317594 -1.550000000000001 0.0
    vertex 2.6846787517317594 -1.550000000000001 0.9999999999999999
  endloop
endfacet
facet normal -0.9238795325112868 0.3826834323650899 0.0
  outer loop
    vertex 2.6846787517317594 -1.550000000000001 0.0
    vertex 2.9943700614961113 -0.8023390398178152 0.9999999999999999
    vertex 2.9943700614961113 -0.8023390398178152 0.0
  endloop
endfacet
facet normal -0.9914448613738104 0.13052619222005202 0.0
  outer loop
    vertex 3.1 -3.7964050773567954e-16 0.9999999999999999
    vertex 2.9943700614961113 -0.8023390398178152 0.0
    vertex 2.9943700614961113 -0.8023390398178152 0.9999999999999999
  endloop
endfacet
facet normal -0.9914448613738104 0.13052619222005202 0.0
  outer loop
    vertex 2.9943700614961113 -0.8023390398178152 0.0
    vertex 3.1 -3.7964050773567954e-16 0.9999999999999999
    vertex 3.1 -3.7964050773567954e-16 0.0
  endloop
endfacet
facet normal -0.9914448613738104 -0.13052619222005138 -0.0
  outer loop
    vertex 2.9943700614961117 0.8023390398178131 0.9999999999999999
    vertex 3.1 -3.7964050773567954e-16 0.0
    vertex 3.1 -3.7964050773567954e-16 0.9999999999999999
  endloop
endfacet
facet normal -0.9914448613738104 -0.13052619222005138 -0.0
  outer loop
    vertex 3.1 -3.7964050773567954e-16 0.0
    vertex 2.9943700614961117 0.8023390398178131 0.9999999999999999
    vertex 2.9943700614961117 0.8023390398178131 0.0
  endloop
endfacet
facet normal -0.9238795325112868 -0.38268343236508934 -0.0
  outer loop
    vertex 2.6846787517317603 1.5499999999999992 0.9999999999999999
    vertex 2.9943700614961117 0.8023390398178131 0.0
    vertex 2.9943700614961117 0.8023390398178131 0.9999999999999999
  endloop
endfacet
facet normal -0.9238795325112868 -0.38268343236508934 -0.0
  outer loop
    vertex 2.9943700614961117 0.8023390398178131 0.0
    vertex 2.6846787517317603 1.5499999999999992 0.9999999999999999
    vertex 2.6846787517317603 1.5499999999999992 0.0
  endloop
endfacet
facet normal -0.7933533402912355 -0.6087614290087204 -0.0
  outer loop
    vertex 2.1920310216782983 2.192031021678296 0.9999999999999999
    vertex 2.6846787517317603 1.5499999999999992 0.0
    vertex 2.6846787517317603 1.5499999999999992 0.9999999999999999
  endloop
endfacet
facet normal -0.7933533402912355 -0.6087614290087204 -0.0
  outer loop
    vertex 2.6846787517317603 1.5499999999999992 0.0
    vertex 2.1920310216782983 2.192031021678296 0.9999999999999999
    vertex 2.1920310216782983 2.192031021678296 0.0
  endloop
endfacet
facet normal -0.608761429008721 -0.7933533402912349 -0.0
  outer loop
    vertex 2.1920310216782983 2.192031021678296 0.9999999999999999
    vertex 1.5500000000000014 2.684678751731759 0.0
    vertex 2.1920310216782983 2.192031021678296 0.0
  endloop
endfacet
facet normal -0.608761429008721 -0.7933533402912349 -0.0
  outer loop
    vertex 1.5500000000000014 2.684678751731759 0.0
    vertex 2.1920310216782983 2.192031021678296 0.9999999999999999
    vertex 1.5500000000000014 2.684678751731759 0.9999999999999999
  endloop
endfacet
facet normal -0.3826834323650904 -0.9238795325112866 -0.0
  outer loop
    vertex 1.5500000000000014 2.684678751731759 0.9999999999999999
    vertex 0.8023390398178167 2.994370061496111 0.0
    vertex 1.5500000000000014 2.684678751731759 0.0
  endloop
endfacet
facet normal -0.3826834323650904 -0.9238795325112866 -0.0
  outer loop
    vertex 0.8023390398178167 2.994370061496111 0.0
    vertex 1.5500000000000014 2.684678751731759 0.9999999999999999
    vertex 0.8023390398178167 2.994370061496111 0.9999999999999999
  endloop
endfacet
facet normal -0.1305261922200522 -0.9914448613738104 -0.0
  outer loop
    vertex 0.8023390398178167 2.994370061496111 0.9999999999999999
    vertex 5.694607616035192e-16 3.1 0.0
    vertex 0.8023390398178167 2.994370061496111 0.0
  endloop
endfacet
facet normal -0.1305261922200522 -0.9914448613738104 -0.0
  outer loop
    vertex 5.694607616035192e-16 3.1 0.0
    vertex 0.8023390398178167 2.994370061496111 0.9999999999999999
    vertex 5.694607616035192e-16 3.1 0.9999999999999999
  endloop
endfacet
facet normal 0.13052619222005138 -0.9914448613738104 0.0
  outer loop
    vertex 5.694607616035192e-16 3.1 0.9999999999999999
    vertex -0.8023390398178128 2.9943700614961117 0.0
    vertex 5.694607616035192e-16 3.1 0.0
  endloop
endfacet
facet normal 0.13052619222005138 -0.9914448613738104 0.0
  outer loop
    vertex -0.8023390398178128 2.9943700614961117 0.0
    vertex 5.694607616035192e-16 3.1 0.9999999999999999
    vertex -0.8023390398178128 2.9943700614961117 0.9999999999999999
  endloop
endfacet
facet normal 0.38268343236508917 -0.923879532511287 0.0
  outer loop
    vertex -0.8023390398178128 2.9943700614961117 0.9999999999999999
    vertex -1.5499999999999976 2.684678751731761 0.0
    vertex -0.8023390398178128 2.9943700614961117 0.0
  endloop
endfacet
facet normal 0.38268343236508917 -0.923879532511287 0.0
  outer loop
    vertex -1.5499999999999976 2.684678751731761 0.0
    vertex -0.8023390398178128 2.9943700614961117 0.9999999999999999
    vertex -1.5499999999999976 2.684678751731761 0.9999999999999999
  endloop
endfacet
facet normal 0.6087614290087204 -0.7933533402912355 0.0
  outer loop
    vertex -1.5499999999999976 2.684678751731761 0.9999999999999999
    vertex -2.1920310216782966 2.1920310216782974 0.0
    vertex -1.5499999999999976 2.684678751731761 0.0
  endloop
endfacet
facet normal 0.6087614290087204 -0.7933533402912355 0.0
  outer loop
    vertex -2.1920310216782966 2.1920310216782974 0.0
    vertex -1.5499999999999976 2.684678751731761 0.9999999999999999
    vertex -2.1920310216782966 2.1920310216782974 0.9999999999999999
  endloop
endfacet
facet normal 0.7933533402912348 -0.6087614290087211 0.0
  outer loop
    vertex -2.1920310216782966 2.1920310216782974 0.0
    vertex -2.684678751731759 1.5500000000000014 0.9999999999999999
    vertex -2.684678751731759 1.5500000000000014 0.0
  endloop
endfacet
facet normal 0.7933533402912348 -0.6087614290087211 0.0
  outer loop
    vertex -2.684678751731759 1.5500000000000014 0.9999999999999999
    vertex -2.1920310216782966 2.1920310216782974 0.0
    vertex -2.1920310216782966 2.1920310216782974 0.9999999999999999
  endloop
endfacet
facet normal 0.9238795325112866 -0.38268343236509045 0.0
  outer loop
    vertex -2.684678751731759 1.5500000000000014 0.0
    vertex -2.994370061496111 0.802339039817817 0.9999999999999999
    vertex -2.994370061496111 0.802339039817817 0.0
  endloop
endfacet
facet normal 0.9238795325112866 -0.38268343236509045 0.0
  outer loop
    vertex -2.994370061496111 0.802339039817817 0.9999999999999999
    vertex -2.684678751731759 1.5500000000000014 0.0
    vertex -2.684678751731759 1.5500000000000014 0.9999999999999999
  endloop
endfacet
facet normal 0.9914448613738104 -0.1305261922200521 0.0
  outer loop
    vertex -2.994370061496111 0.802339039817817 0.0
    vertex -3.1 0.0 0.9999999999999999
    vertex -3.1 0.0 0.0
  endloop
endfacet
facet normal 0.9914448613738104 -0.1305261922200521 0.0
  outer loop
    vertex -3.1 0.0 0.9999999999999999
    vertex -2.994370061496111 0.802339039817817 0.0
    vertex -2.994370061496111 0.802339039817817 0.9999999999999999
  endloop
endfacet
facet normal 0.9914448613738104 0.13052619222005166 0.0
  outer loop
    vertex -3.1 0.0 0.0
    vertex -2.9943700614961117 -0.8023390398178143 0.9999999999999999
    vertex -2.9943700614961117 -0.8023390398178143 0.0
  endloop
endfacet
facet normal 0.9914448613738104 0.13052619222005166 0.0
  outer loop
    vertex -2.9943700614961117 -0.8023390398178143 0.9999999999999999
    vertex -3.1 0.0 0.0
    vertex -3.1 0.0 0.9999999999999999
  endloop
endfacet
facet normal -3.235762924273096e-33 8.116372001718348e-33 1.0
  outer loop
    vertex -5.971108360033181 -0.5881028419773636 0.9999999999999999
    vertex -5.971108360033181 0.5881028419773631 0.9999999999999999
    vertex -6.0 0.0 0.9999999999999999
  endloop
endfacet
facet normal -3.235762924273096e-33 8.116372001718348e-33 1.0
  outer loop
    vertex -5.971108360033181 0.5881028419773631 0.9999999999999999
    vertex -5.971108360033181 -0.5881028419773636 0.9999999999999999
    vertex -5.884711682419383 -1.1705419320967696 0.9999999999999999
  endloop
endfacet
facet normal -3.235762924273096e-33 8.116372001718348e-33 1.0
  outer loop
    vertex -5.971108360033181 0.5881028419773631 0.9999999999999999
    vertex -5.884711682419383 -1.1705419320967696 0.9999999999999999
    vertex -5.884711682419382 1.1705419320967725 0.9999999999999999
  endloop
endfacet
facet normal -3.235762924273096e-33 8.116372001718348e-33 1.0
  outer loop
    vertex -5.884711682419382 1.1705419320967725 0.9999999999999999
    vertex -5.884711682419383 -1.1705419320967696 0.9999999999999999
    vertex -5.7416420143932525 -1.741708063526774 0.9999999999999999
  endloop
endfacet
facet normal -3.235762924273096e-33 8.116372001718348e-33 1.0
  outer loop
    vertex -5.884711682419382 1.1705419320967725 0.9999999999999999
    vertex -5.7416420143932525 -1.741708063526774 0.9999999999999999
    vertex -5.7416420143932525 1.741708063526775 0.9999999999999999
  endloop
endfacet
facet normal -3.235762924273096e-33 8.116372001718348e-33 1.0
  outer loop
    vertex -5.7416420143932525 1.741708063526775 0.9999999999999999
    vertex -5.7416420143932525 -1.741708063526774 0.9999999999999999
    vertex -5.54327719506772 -2.296100594190539 0.9999999999999999
  endloop
endfacet
facet normal -3.235762924273096e-33 8.116372001718348e-33 1.0
  outer loop
    vertex -5.7416420143932525 1.741708063526775 0.9999999999999999
    vertex -5.54327719506772 -2.296100594190539 0.9999999999999999
    vertex -5.543277195067719 2.2961005941905426 0.9999999999999999
  endloop
endfacet
facet normal -3.235762924273096e-33 8.116372001718348e-33 1.0
  outer loop
    vertex -5.543277195067719 2.2961005941905426 0.9999999999999999
    vertex -5.54327719506772 -2.296100594190539 0.9999999999999999
    vertex -5.29152758609013 -2.828380420955986 0.9999999999999999
  endloop
endfacet
facet normal -3.235762924273096e-33 8.116372001718348e-33 1.0
  outer loop
    vertex -5.543277195067719 2.2961005941905426 0.9999999999999999
    vertex -5.29152758609013 -2.828380420955986 0.9999999999999999
    vertex -5.291527586090129 2.8283804209559875 0.9999999999999999
  endloop
endfacet
facet normal -3.235762924273096e-33 8.116372001718348e-33 1.0
  outer loop
    vertex -5.291527586090129 2.8283804209559875 0.9999999999999999
    vertex -5.29152758609013 -2.828380420955986 0.9999999999999999
    vertex -4.988817673815271 -3.3334213981176135 0.9999999999999999
  endloop
endfacet
facet normal -3.235762924273096e-33 8.116372001718348e-33 1.0
  outer loop
    vertex -5.291527586090129 2.8283804209559875 0.9999999999999999
    vertex -4.988817673815271 -3.3334213981176135 0.9999999999999999
    vertex -4.988817673815271 3.3334213981176135 0.9999999999999999
  endloop
endfacet
facet normal -3.235762924273096e-33 8.116372001718348e-33 1.0
  outer loop
    vertex -4.988817673815271 3.3334213981176135 0.9999999999999999
    vertex -4.988817673815271 -3.3334213981176135 0.9999999999999999
    vertex -4.638062720176422 -3.806359704981873 0.9999999999999999
  endloop
endfacet
facet normal -3.235762924273096e-33 8.116372001718348e-33 1.0
  outer loop
    vertex -4.988817673815271 3.3334213981176135 0.9999999999999999
    vertex -4.638062720176422 -3.806359704981873 0.9999999999999999
    vertex -4.638062720176419 3.8063597049818756 0.9999999999999999
  endloop
endfacet
facet normal -3.235762924273096e-33 8.116372001718348e-33 1.0
  outer loop
    vertex -4.638062720176419 3.8063597049818756 0.9999999999999999
    vertex -4.638062720176422 -3.806359704981873 0.9999999999999999
    vertex -4.242640687119285 -4.242640687119286 0.9999999999999999
  endloop
endfacet
facet normal -3.235762924273096e-33 8.116372001718348e-33 1.0
  outer loop
    vertex -4.638062720176419 3.8063597049818756 0.9999999999999999
    vertex -4.242640687119285 -4.242640687119286 0.9999999999999999
    vertex -4.242640687119284 4.2426406871192865 0.9999999999999999
  endloop
endfacet
facet normal -3.235762924273096e-33 8.116372001718348e-33 1.0
  outer loop
    vertex -4.242640687119284 4.2426406871192865 0.9999999999999999
    vertex -4.242640687119285 -4.242640687119286 0.9999999999999999
    vertex -3.806359704981872 -4.638062720176422 0.9999999999999999
  endloop
endfacet
facet normal -3.235762924273096e-33 8.116372001718348e-33 1.0
  outer loop
    vertex -4.242640687119284 4.2426406871192865 0.9999999999999999
    vertex -3.806359704981872 -4.638062720176422 0.9999999999999999
    vertex -3.806359704981873 4.638062720176422 0.9999999999999999
  endloop
endfacet
facet normal -3.235762924273096e-33 8.116372001718348e-33 1.0
  outer loop
    vertex -3.806359704981873 4.638062720176422 0.9999999999999999
    vertex -3.806359704981872 -4.638062720176422 0.9999999999999999
    vertex -3.333421398117611 4.988817673815273 0.9999999999999999
  endloop
endfacet
facet normal -3.235762924273096e-33 8.116372001718348e-33 1.0
  outer loop
    vertex -3.333421398117611 4.988817673815273 0.9999999999999999
    vertex -3.806359704981872 -4.638062720176422 0.9999999999999999
    vertex -3.333421398117613 -4.988817673815272 0.9999999999999999
  endloop
endfacet
facet normal -3.235762924273096e-33 8.116372001718348e-33 1.0
  outer loop
    vertex -3.333421398117611 4.988817673815273 0.9999999999999999
    vertex -3.333421398117613 -4.988817673815272 0.9999999999999999
    vertex -3.1 0.0 0.9999999999999999
  endloop
endfacet
facet normal -3.235762924273096e-33 8.116372001718348e-33 1.0
  outer loop
    vertex -3.1 0.0 0.9999999999999999
    vertex -3.333421398117613 -4.988817673815272 0.9999999999999999
    vertex -2.8283804209559866 -5.29152758609013 0.9999999999999999
  endloop
endfacet
facet normal -3.235762924273096e-33 8.116372001718348e-33 1.0
  outer loop
    vertex -3.1 0.0 0.9999999999999999
    vertex -2.8283804209559866 -5.29152758609013 0.9999999999999999
    vertex -2.9943700614961117 -0.8023390398178143 0.9999999999999999
  endloop
endfacet
facet normal -3.235762924273096e-33 8.116372001718348e-33 1.0
  outer loop
    vertex -2.9943700614961117 -0.8023390398178143 0.9999999999999999
    vertex -2.8283804209559866 -5.29152758609013 0.9999999999999999
    vertex -2.68467875173176 -1.5499999999999998 0.9999999999999999
  endloop
endfacet
facet normal -3.235762924273096e-33 8.116372001718348e-33 1.0
  outer loop
    vertex -2.68467875173176 -1.5499999999999998 0.9999999999999999
    vertex -2.8283804209559866 -5.29152758609013 0.9999999999999999
    vertex -2.296100594190539 -5.54327719506772 0.9999999999999999
  endloop
endfacet
facet normal -3.235762924273096e-33 8.116372001718348e-33 1.0
  outer loop
    vertex -2.68467875173176 -1.5499999999999998 0.9999999999999999
    vertex -2.296100594190539 -5.54327719506772 0.9999999999999999
    vertex -2.1920310216782974 -2.1920310216782974 0.9999999999999999
  endloop
endfacet
facet normal -3.235762924273096e-33 8.116372001718348e-33 1.0
  outer loop
    vertex -2.1920310216782974 -2.1920310216782974 0.9999999999999999
    vertex -2.296100594190539 -5.54327719506772 0.9999999999999999
    vertex -1.7417080635267739 -5.741642014393254 0.9999999999999999
  endloop
endfacet
facet normal -3.235762924273096e-33 8.116372001718348e-33 1.0
  outer loop
    vertex -2.1920310216782974 -2.1920310216782974 0.9999999999999999
    vertex -1.7417080635267739 -5.741642014393254 0.9999999999999999
    vertex -1.5500000000000003 -2.6846787517317594 0.9999999999999999
  endloop
endfacet
facet normal -3.235762924273096e-33 8.116372001718348e-33 1.0
  outer loop
    vertex -1.5500000000000003 -2.6846787517317594 0.9999999999999999
    vertex -1.7417080635267739 -5.741642014393254 0.9999999999999999
    vertex -1.1705419320967698 -5.884711682419383 0.9999999999999999
  endloop
endfacet
facet normal -3.235762924273096e-33 8.116372001718348e-33 1.0
  outer loop
    vertex -1.5500000000000003 -2.6846787517317594 0.9999999999999999
    vertex -1.1705419320967698 -5.884711682419383 0.9999999999999999
    vertex -0.802339039817815 -2.9943700614961113 0.9999999999999999
  endloop
endfacet
facet normal -3.235762924273096e-33 8.116372001718348e-33 1.0
  outer loop
    vertex -0.802339039817815 -2.9943700614961113 0.9999999999999999
    vertex -1.1705419320967698 -5.884711682419383 0.9999999999999999
    vertex -0.5881028419773646 -5.971108360033181 0.9999999999999999
  endloop
endfacet
facet normal -3.235762924273096e-33 8.116372001718348e-33 1.0
  outer loop
    vertex -0.802339039817815 -2.9943700614961113 0.9999999999999999
    vertex -0.5881028419773646 -5.971108360033181 0.9999999999999999
    vertex -1.8982025386783977e-16 -3.1 0.9999999999999999
  endloop
endfacet
facet normal -3.235762924273096e-33 8.116372001718348e-33 1.0
  outer loop
    vertex -1.8982025386783977e-16 -3.1 0.9999999999999999
    vertex -0.5881028419773646 -5.971108360033181 0.9999999999999999
    vertex -3.6739403974420594e-16 -6.0 0.9999999999999999
  endloop
endfacet
facet normal -3.235762924273096e-33 8.116372001718348e-33 1.0
  outer loop
    vertex -1.8982025386783977e-16 -3.1 0.9999999999999999
    vertex -3.6739403974420594e-16 -6.0 0.9999999999999999
    vertex 0.5881028419773638 -5.971108360033182 0.9999999999999999
  endloop
endfacet
facet normal -3.235762924273096e-33 8.116372001718348e-33 1.0
  outer loop
    vertex -1.8982025386783977e-16 -3.1 0.9999999999999999
    vertex 0.5881028419773638 -5.971108360033182 0.9999999999999999
    vertex 0.802339039817814 -2.9943700614961117 0.9999999999999999
  endloop
endfacet
facet normal -3.235762924273096e-33 8.116372001718348e-33 1.0
  outer loop
    vertex 0.802339039817814 -2.9943700614961117 0.9999999999999999
    vertex 0.5881028419773638 -5.971108360033182 0.9999999999999999
    vertex 1.170541932096769 -5.884711682419383 0.9999999999999999
  endloop
endfacet
facet normal -3.235762924273096e-33 8.116372001718348e-33 1.0
  outer loop
    vertex 0.802339039817814 -2.9943700614961117 0.9999999999999999
    vertex 1.170541932096769 -5.884711682419383 0.9999999999999999
    vertex 1.5499999999999994 -2.68467875173176 0.9999999999999999
  endloop
endfacet
facet normal -3.235762924273096e-33 8.116372001718348e-33 1.0
  outer loop
    vertex 1.5499999999999994 -2.68467875173176 0.9999999999999999
    vertex 1.170541932096769 -5.884711682419383 0.9999999999999999
    vertex 1.7417080635267728 -5.741642014393254 0.9999999999999999
  endloop
endfacet
facet normal -3.235762924273096e-33 8.116372001718348e-33 1.0
  outer loop
    vertex 1.5499999999999994 -2.68467875173176 0.9999999999999999
    vertex 1.7417080635267728 -5.741642014393254 0.9999999999999999
    vertex 2.192031021678297 -2.1920310216782974 0.9999999999999999
  endloop
endfacet
facet normal -3.235762924273096e-33 8.116372001718348e-33 1.0
  outer loop
    vertex 2.192031021678297 -2.1920310216782974 0.9999999999999999
    vertex 1.7417080635267728 -5.741642014393254 0.9999999999999999
    vertex 2.296100594190538 -5.54327719506772 0.9999999999999999
  endloop
endfacet
facet normal -3.235762924273096e-33 8.116372001718348e-33 1.0
  outer loop
    vertex 2.192031021678297 -2.1920310216782974 0.9999999999999999
    vertex 2.296100594190538 -5.54327719506772 0.9999999999999999
    vertex 2.6846787517317594 -1.550000000000001 0.9999999999999999
  endloop
endfacet
facet normal -3.235762924273096e-33 8.116372001718348e-33 1.0
  outer loop
    vertex 2.6846787517317594 -1.550000000000001 0.9999999999999999
    vertex 2.296100594190538 -5.54327719506772 0.9999999999999999
    vertex 2.828380420955986 -5.2915275860901305 0.9999999999999999
  endloop
endfacet
facet normal -3.235762924273096e-33 8.116372001718348e-33 1.0
  outer loop
    vertex 2.6846787517317594 -1.550000000000001 0.9999999999999999
    vertex 2.828380420955986 -5.2915275860901305 0.9999999999999999
    vertex 2.9943700614961113 -0.8023390398178152 0.9999999999999999
  endloop
endfacet
facet normal -3.235762924273096e-33 8.116372001718348e-33 1.0
  outer loop
    vertex 2.9943700614961113 -0.8023390398178152 0.9999999999999999
    vertex 2.828380420955986 -5.2915275860901305 0.9999999999999999
    vertex 3.3334213981176113 -4.988817673815272 0.9999999999999999
  endloop
endfacet
facet normal -3.235762924273096e-33 8.116372001718348e-33 1.0
  outer loop
    vertex 2.9943700614961113 -0.8023390398178152 0.9999999999999999
    vertex 3.3334213981176113 -4.988817673815272 0.9999999999999999
    vertex 3.1 -3.7964050773567954e-16 0.9999999999999999
  endloop
endfacet
facet normal -3.235762924273096e-33 8.116372001718348e-33 1.0
  outer loop
    vertex -3.1 0.0 0.9999999999999999
    vertex -2.8283804209559853 5.2915275860901305 0.9999999999999999
    vertex -3.333421398117611 4.988817673815273 0.9999999999999999
  endloop
endfacet
facet normal -3.235762924273096e-33 8.116372001718348e-33 1.0
  outer loop
    vertex -2.8283804209559853 5.2915275860901305 0.9999999999999999
    vertex -3.1 0.0 0.9999999999999999
    vertex -2.994370061496111 0.802339039817817 0.9999999999999999
  endloop
endfacet
facet normal -3.235762924273096e-33 8.116372001718348e-33 1.0
  outer loop
    vertex -2.8283804209559853 5.2915275860901305 0.9999999999999999
    vertex -2.994370061496111 0.802339039817817 0.9999999999999999
    vertex -2.684678751731759 1.5500000000000014 0.9999999999999999
  endloop
endfacet
facet normal -3.235762924273096e-33 8.116372001718348e-33 1.0
  outer loop
    vertex -2.8283804209559853 5.2915275860901305 0.9999999999999999
    vertex -2.684678751731759 1.5500000000000014 0.9999999999999999
    vertex -2.2961005941905395 5.54327719506772 0.9999999999999999
  endloop
endfacet
facet normal -3.235762924273096e-33 8.116372001718348e-33 1.0
  outer loop
    vertex -2.2961005941905395 5.54327719506772 0.9999999999999999
    vertex -2.684678751731759 1.5500000000000014 0.9999999999999999
    vertex -2.1920310216782966 2.1920310216782974 0.9999999999999999
  endloop
endfacet
facet normal -3.235762924273096e-33 8.116372001718348e-33 1.0
  outer loop
    vertex -2.2961005941905395 5.54327719506772 0.9999999999999999
    vertex -2.1920310216782966 2.1920310216782974 0.9999999999999999
    vertex -1.741708063526772 5.741642014393254 0.9999999999999999
  endloop
endfacet
facet normal -3.235762924273096e-33 8.116372001718348e-33 1.0
  outer loop
    vertex -1.741708063526772 5.741642014393254 0.9999999999999999
    vertex -2.1920310216782966 2.1920310216782974 0.9999999999999999
    vertex -1.5499999999999976 2.684678751731761 0.9999999999999999
  endloop
endfacet
facet normal -3.235762924273096e-33 8.116372001718348e-33 1.0
  outer loop
    vertex -1.741708063526772 5.741642014393254 0.9999999999999999
    vertex -1.5499999999999976 2.684678751731761 0.9999999999999999
    vertex -1.1705419320967698 5.884711682419383 0.9999999999999999
  endloop
endfacet
facet normal -3.235762924273096e-33 8.116372001718348e-33 1.0
  outer loop
    vertex -1.1705419320967698 5.884711682419383 0.9999999999999999
    vertex -1.5499999999999976 2.684678751731761 0.9999999999999999
    vertex -0.8023390398178128 2.9943700614961117 0.9999999999999999
  endloop
endfacet
facet normal -3.235762924273096e-33 8.116372001718348e-33 1.0
  outer loop
    vertex -1.1705419320967698 5.884711682419383 0.9999999999999999
    vertex -0.8023390398178128 2.9943700614961117 0.9999999999999999
    vertex -0.5881028419773604 5.971108360033182 0.9999999999999999
  endloop
endfacet
facet normal -3.235762924273096e-33 8.116372001718348e-33 1.0
  outer loop
    vertex -0.5881028419773604 5.971108360033182 0.9999999999999999
    vertex -0.8023390398178128 2.9943700614961117 0.9999999999999999
    vertex 5.694607616035192e-16 3.1 0.9999999999999999
  endloop
endfacet
facet normal -3.235762924273096e-33 8.116372001718348e-33 1.0
  outer loop
    vertex -0.5881028419773604 5.971108360033182 0.9999999999999999
    vertex 5.694607616035192e-16 3.1 0.9999999999999999
    vertex 1.1021821192326177e-15 6.0 0.9999999999999999
  endloop
endfacet
facet normal -3.235762924273096e-33 8.116372001718348e-33 1.0
  outer loop
    vertex 1.1021821192326177e-15 6.0 0.9999999999999999
    vertex 5.694607616035192e-16 3.1 0.9999999999999999
    vertex 0.8023390398178167 2.994370061496111 0.9999999999999999
  endloop
endfacet
facet normal -3.235762924273096e-33 8.116372001718348e-33 1.0
  outer loop
    vertex 1.1021821192326177e-15 6.0 0.9999999999999999
    vertex 0.8023390398178167 2.994370061496111 0.9999999999999999
    vertex 0.5881028419773626 5.971108360033182 0.9999999999999999
  endloop
endfacet
facet normal -3.235762924273096e-33 8.116372001718348e-33 1.0
  outer loop
    vertex 0.5881028419773626 5.971108360033182 0.9999999999999999
    vertex 0.8023390398178167 2.994370061496111 0.9999999999999999
    vertex 1.1705419320967718 5.884711682419383 0.9999999999999999
  endloop
endfacet
facet normal -3.235762924273096e-33 8.116372001718348e-33 1.0
  outer loop
    vertex 1.1705419320967718 5.884711682419383 0.9999999999999999
    vertex 0.8023390398178167 2.994370061496111 0.9999999999999999
    vertex 1.5500000000000014 2.684678751731759 0.9999999999999999
  endloop
endfacet
facet normal -3.235762924273096e-33 8.116372001718348e-33 1.0
  outer loop
    vertex 1.1705419320967718 5.884711682419383 0.9999999999999999
    vertex 1.5500000000000014 2.684678751731759 0.9999999999999999
    vertex 1.7417080635267745 5.741642014393253 0.9999999999999999
  endloop
endfacet
facet normal -3.235762924273096e-33 8.116372001718348e-33 1.0
  outer loop
    vertex 1.7417080635267745 5.741642014393253 0.9999999999999999
    vertex 1.5500000000000014 2.684678751731759 0.9999999999999999
    vertex 2.1920310216782983 2.192031021678296 0.9999999999999999
  endloop
endfacet
facet normal -3.235762924273096e-33 8.116372001718348e-33 1.0
  outer loop
    vertex 1.7417080635267745 5.741642014393253 0.9999999999999999
    vertex 2.1920310216782983 2.192031021678296 0.9999999999999999
    vertex 2.2961005941905417 5.54327719506772 0.9999999999999999
  endloop
endfacet
facet normal -3.235762924273096e-33 8.116372001718348e-33 1.0
  outer loop
    vertex 2.2961005941905417 5.54327719506772 0.9999999999999999
    vertex 2.1920310216782983 2.192031021678296 0.9999999999999999
    vertex 2.6846787517317603 1.5499999999999992 0.9999999999999999
  endloop
endfacet
facet normal -3.235762924273096e-33 8.116372001718348e-33 1.0
  outer loop
    vertex 2.2961005941905417 5.54327719506772 0.9999999999999999
    vertex 2.6846787517317603 1.5499999999999992 0.9999999999999999
    vertex 2.828380420955987 5.29152758609013 0.9999999999999999
  endloop
endfacet
facet normal -3.235762924273096e-33 8.116372001718348e-33 1.0
  outer loop
    vertex 2.828380420955987 5.29152758609013 0.9999999999999999
    vertex 2.6846787517317603 1.5499999999999992 0.9999999999999999
    vertex 2.9943700614961117 0.8023390398178131 0.9999999999999999
  endloop
endfacet
facet normal -3.235762924273096e-33 8.116372001718348e-33 1.0
  outer loop
    vertex 2.828380420955987 5.29152758609013 0.9999999999999999
    vertex 2.9943700614961117 0.8023390398178131 0.9999999999999999
    vertex 3.333421398117613 4.988817673815272 0.9999999999999999
  endloop
endfacet
facet normal -3.235762924273096e-33 8.116372001718348e-33 1.0
  outer loop
    vertex 3.333421398117613 4.988817673815272 0.9999999999999999
    vertex 2.9943700614961117 0.8023390398178131 0.9999999999999999
    vertex 3.1 -3.7964050773567954e-16 0.9999999999999999
  endloop
endfacet
facet normal -3.235762924273096e-33 8.116372001718348e-33 1.0
  outer loop
    vertex 3.333421398117613 4.988817673815272 0.9999999999999999
    vertex 3.1 -3.7964050773567954e-16 0.9999999999999999
    vertex 3.3334213981176113 -4.988817673815272 0.9999999999999999
  endloop
endfacet
facet normal -3.235762924273096e-33 8.116372001718348e-33 1.0
  outer loop
    vertex 3.333421398117613 4.988817673815272 0.9999999999999999
    vertex 3.3334213981176113 -4.988817673815272 0.9999999999999999
    vertex 3.8063597049818716 -4.638062720176423 0.9999999999999999
  endloop
endfacet
facet normal -3.235762924273096e-33 8.116372001718348e-33 1.0
  outer loop
    vertex 3.333421398117613 4.988817673815272 0.9999999999999999
    vertex 3.8063597049818716 -4.638062720176423 0.9999999999999999
    vertex 3.806359704981875 4.63806272017642 0.9999999999999999
  endloop
endfacet
facet normal -3.235762924273096e-33 8.116372001718348e-33 1.0
  outer loop
    vertex 3.806359704981875 4.63806272017642 0.9999999999999999
    vertex 3.8063597049818716 -4.638062720176423 0.9999999999999999
    vertex 4.242640687119285 -4.242640687119286 0.9999999999999999
  endloop
endfacet
facet normal -3.235762924273096e-33 8.116372001718348e-33 1.0
  outer loop
    vertex 3.806359704981875 4.63806272017642 0.9999999999999999
    vertex 4.242640687119285 -4.242640687119286 0.9999999999999999
    vertex 4.242640687119286 4.242640687119285 0.9999999999999999
  endloop
endfacet
facet normal -3.235762924273096e-33 8.116372001718348e-33 1.0
  outer loop
    vertex 4.242640687119286 4.242640687119285 0.9999999999999999
    vertex 4.242640687119285 -4.242640687119286 0.9999999999999999
    vertex 4.638062720176422 -3.806359704981873 0.9999999999999999
  endloop
endfacet
facet normal -3.235762924273096e-33 8.116372001718348e-33 1.0
  outer loop
    vertex 4.242640687119286 4.242640687119285 0.9999999999999999
    vertex 4.638062720176422 -3.806359704981873 0.9999999999999999
    vertex 4.638062720176422 3.8063597049818716 0.9999999999999999
  endloop
endfacet
facet normal -3.235762924273096e-33 8.116372001718348e-33 1.0
  outer loop
    vertex 4.638062720176422 3.8063597049818716 0.9999999999999999
    vertex 4.638062720176422 -3.806359704981873 0.9999999999999999
    vertex 4.988817673815272 -3.3334213981176135 0.9999999999999999
  endloop
endfacet
facet normal -3.235762924273096e-33 8.116372001718348e-33 1.0
  outer loop
    vertex 4.638062720176422 3.8063597049818716 0.9999999999999999
    vertex 4.988817673815272 -3.3334213981176135 0.9999999999999999
    vertex 4.988817673815272 3.333421398117612 0.9999999999999999
  endloop
endfacet
facet normal -3.235762924273096e-33 8.116372001718348e-33 1.0
  outer loop
    vertex 4.988817673815272 3.333421398117612 0.9999999999999999
    vertex 4.988817673815272 -3.3334213981176135 0.9999999999999999
    vertex 5.291527586090129 -2.828380420955987 0.9999999999999999
  endloop
endfacet
facet normal -3.235762924273096e-33 8.116372001718348e-33 1.0
  outer loop
    vertex 4.988817673815272 3.333421398117612 0.9999999999999999
    vertex 5.291527586090129 -2.828380420955987 0.9999999999999999
    vertex 5.29152758609013 2.828380420955986 0.9999999999999999
  endloop
endfacet
facet normal -3.235762924273096e-33 8.116372001718348e-33 1.0
  outer loop
    vertex 5.29152758609013 2.828380420955986 0.9999999999999999
    vertex 5.291527586090129 -2.828380420955987 0.9999999999999999
    vertex 5.54327719506772 -2.2961005941905395 0.9999999999999999
  endloop
endfacet
facet normal -3.235762924273096e-33 8.116372001718348e-33 1.0
  outer loop
    vertex 5.29152758609013 2.828380420955986 0.9999999999999999
    vertex 5.54327719506772 -2.2961005941905395 0.9999999999999999
    vertex 5.54327719506772 2.2961005941905377 0.9999999999999999
  endloop
endfacet
facet normal -3.235762924273096e-33 8.116372001718348e-33 1.0
  outer loop
    vertex 5.54327719506772 2.2961005941905377 0.9999999999999999
    vertex 5.54327719506772 -2.2961005941905395 0.9999999999999999
    vertex 5.7416420143932525 -1.7417080635267745 0.9999999999999999
  endloop
endfacet
facet normal -3.235762924273096e-33 8.116372001718348e-33 1.0
  outer loop
    vertex 5.54327719506772 2.2961005941905377 0.9999999999999999
    vertex 5.7416420143932525 -1.7417080635267745 0.9999999999999999
    vertex 5.741642014393253 1.7417080635267728 0.9999999999999999
  endloop
endfacet
facet normal -3.235762924273096e-33 8.116372001718348e-33 1.0
  outer loop
    vertex 5.741642014393253 1.7417080635267728 0.9999999999999999
    vertex 5.7416420143932525 -1.7417080635267745 0.9999999999999999
    vertex 5.884711682419383 -1.1705419320967716 0.9999999999999999
  endloop
endfacet
facet normal -3.235762924273096e-33 8.116372001718348e-33 1.0
  outer loop
    vertex 5.741642014393253 1.7417080635267728 0.9999999999999999
    vertex 5.884711682419383 -1.1705419320967716 0.9999999999999999
    vertex 5.884711682419383 1.1705419320967703 0.9999999999999999
  endloop
endfacet
facet normal -3.235762924273096e-33 8.116372001718348e-33 1.0
  outer loop
    vertex 5.884711682419383 1.1705419320967703 0.9999999999999999
    vertex 5.884711682419383 -1.1705419320967716 0.9999999999999999
    vertex 5.97110836003318 -0.588102841977365 0.9999999999999999
  endloop
endfacet
facet normal -3.235762924273096e-33 8.116372001718348e-33 1.0
  outer loop
    vertex 5.884711682419383 1.1705419320967703 0.9999999999999999
    vertex 5.97110836003318 -0.588102841977365 0.9999999999999999
    vertex 5.971108360033181 0.5881028419773635 0.9999999999999999
  endloop
endfacet
facet normal -3.235762924273096e-33 8.116372001718348e-33 1.0
  outer loop
    vertex 5.971108360033181 0.5881028419773635 0.9999999999999999
    vertex 5.97110836003318 -0.588102841977365 0.9999999999999999
    vertex 6.0 -7.34788079488412e-16 0.9999999999999999
  endloop
endfacet
facet normal 0.0 0.0 -1.0
  outer loop
    vertex -2.828380420955986 5.2915275860901305 0.0
    vertex -3.1 0.0 0.0
    vertex -3.3334213981176113 4.988817673815272 0.0
  endloop
endfacet
facet normal 0.0 0.0 -1.0
  outer loop
    vertex -3.1 0.0 0.0
    vertex -2.828380420955986 5.2915275860901305 0.0
    vertex -2.994370061496111 0.802339039817817 0.0
  endloop
endfacet
facet normal 0.0 0.0 -1.0
  outer loop
    vertex -2.994370061496111 0.802339039817817 0.0
    vertex -2.828380420955986 5.2915275860901305 0.0
    vertex -2.684678751731759 1.5500000000000014 0.0
  endloop
endfacet
facet normal 0.0 0.0 -1.0
  outer loop
    vertex -2.684678751731759 1.5500000000000014 0.0
    vertex -2.828380420955986 5.2915275860901305 0.0
    vertex -2.296100594190538 5.54327719506772 0.0
  endloop
endfacet
facet normal 0.0 0.0 -1.0
  outer loop
    vertex -2.684678751731759 1.5500000000000014 0.0
    vertex -2.296100594190538 5.54327719506772 0.0
    vertex -2.1920310216782966 2.1920310216782974 0.0
  endloop
endfacet
facet normal 0.0 0.0 -1.0
  outer loop
    vertex -2.1920310216782966 2.1920310216782974 0.0
    vertex -2.296100594190538 5.54327719506772 0.0
    vertex -1.7417080635267728 5.741642014393254 0.0
  endloop
endfacet
facet normal 0.0 0.0 -1.0
  outer loop
    vertex -2.1920310216782966 2.1920310216782974 0.0
    vertex -1.7417080635267728 5.741642014393254 0.0
    vertex -1.5499999999999976 2.684678751731761 0.0
  endloop
endfacet
facet normal 0.0 0.0 -1.0
  outer loop
    vertex -1.5499999999999976 2.684678751731761 0.0
    vertex -1.7417080635267728 5.741642014393254 0.0
    vertex -1.170541932096769 5.884711682419383 0.0
  endloop
endfacet
facet normal 0.0 0.0 -1.0
  outer loop
    vertex -1.5499999999999976 2.684678751731761 0.0
    vertex -1.170541932096769 5.884711682419383 0.0
    vertex -0.8023390398178128 2.9943700614961117 0.0
  endloop
endfacet
facet normal 0.0 0.0 -1.0
  outer loop
    vertex -0.8023390398178128 2.9943700614961117 0.0
    vertex -1.170541932096769 5.884711682419383 0.0
    vertex -0.5881028419773638 5.971108360033182 0.0
  endloop
endfacet
facet normal 0.0 0.0 -1.0
  outer loop
    vertex -0.8023390398178128 2.9943700614961117 0.0
    vertex -0.5881028419773638 5.971108360033182 0.0
    vertex 5.694607616035192e-16 3.1 0.0
  endloop
endfacet
facet normal 0.0 0.0 -1.0
  outer loop
    vertex 5.694607616035192e-16 3.1 0.0
    vertex -0.5881028419773638 5.971108360033182 0.0
    vertex 3.6739403974420594e-16 6.0 0.0
  endloop
endfacet
facet normal 0.0 0.0 -1.0
  outer loop
    vertex 5.694607616035192e-16 3.1 0.0
    vertex 3.6739403974420594e-16 6.0 0.0
    vertex 0.5881028419773646 5.971108360033181 0.0
  endloop
endfacet
facet normal 0.0 0.0 -1.0
  outer loop
    vertex 5.694607616035192e-16 3.1 0.0
    vertex 0.5881028419773646 5.971108360033181 0.0
    vertex 0.8023390398178167 2.994370061496111 0.0
  endloop
endfacet
facet normal 0.0 0.0 -1.0
  outer loop
    vertex 0.8023390398178167 2.994370061496111 0.0
    vertex 0.5881028419773646 5.971108360033181 0.0
    vertex 1.1705419320967698 5.884711682419383 0.0
  endloop
endfacet
facet normal 0.0 0.0 -1.0
  outer loop
    vertex 0.8023390398178167 2.994370061496111 0.0
    vertex 1.1705419320967698 5.884711682419383 0.0
    vertex 1.5500000000000014 2.684678751731759 0.0
  endloop
endfacet
facet normal 0.0 0.0 -1.0
  outer loop
    vertex 1.5500000000000014 2.684678751731759 0.0
    vertex 1.1705419320967698 5.884711682419383 0.0
    vertex 1.7417080635267739 5.741642014393254 0.0
  endloop
endfacet
facet normal 0.0 0.0 -1.0
  outer loop
    vertex 1.5500000000000014 2.684678751731759 0.0
    vertex 1.7417080635267739 5.741642014393254 0.0
    vertex 2.1920310216782983 2.192031021678296 0.0
  endloop
endfacet
facet normal 0.0 0.0 -1.0
  outer loop
    vertex 2.1920310216782983 2.192031021678296 0.0
    vertex 1.7417080635267739 5.741642014393254 0.0
    vertex 2.296100594190539 5.54327719506772 0.0
  endloop
endfacet
facet normal 0.0 0.0 -1.0
  outer loop
    vertex 2.1920310216782983 2.192031021678296 0.0
    vertex 2.296100594190539 5.54327719506772 0.0
    vertex 2.6846787517317603 1.5499999999999992 0.0
  endloop
endfacet
facet normal 0.0 0.0 -1.0
  outer loop
    vertex 2.6846787517317603 1.5499999999999992 0.0
    vertex 2.296100594190539 5.54327719506772 0.0
    vertex 2.8283804209559866 5.29152758609013 0.0
  endloop
endfacet
facet normal 0.0 0.0 -1.0
  outer loop
    vertex 2.6846787517317603 1.5499999999999992 0.0
    vertex 2.8283804209559866 5.29152758609013 0.0
    vertex 2.9943700614961117 0.8023390398178131 0.0
  endloop
endfacet
facet normal 0.0 0.0 -1.0
  outer loop
    vertex 2.9943700614961117 0.8023390398178131 0.0
    vertex 2.8283804209559866 5.29152758609013 0.0
    vertex 3.333421398117613 4.988817673815272 0.0
  endloop
endfacet
facet normal 0.0 0.0 -1.0
  outer loop
    vertex 2.9943700614961117 0.8023390398178131 0.0
    vertex 3.333421398117613 4.988817673815272 0.0
    vertex 3.1 -3.7964050773567954e-16 0.0
  endloop
endfacet
facet normal 0.0 0.0 -1.0
  outer loop
    vertex 3.1 -3.7964050773567954e-16 0.0
    vertex 3.333421398117613 4.988817673815272 0.0
    vertex 3.333421398117611 -4.988817673815273 0.0
  endloop
endfacet
facet normal 0.0 0.0 -1.0
  outer loop
    vertex 3.333421398117611 -4.988817673815273 0.0
    vertex 3.333421398117613 4.988817673815272 0.0
    vertex 3.806359704981873 -4.638062720176422 0.0
  endloop
endfacet
facet normal 0.0 0.0 -1.0
  outer loop
    vertex 3.806359704981873 -4.638062720176422 0.0
    vertex 3.333421398117613 4.988817673815272 0.0
    vertex 3.806359704981872 4.638062720176422 0.0
  endloop
endfacet
facet normal 0.0 0.0 -1.0
  outer loop
    vertex 3.806359704981873 -4.638062720176422 0.0
    vertex 3.806359704981872 4.638062720176422 0.0
    vertex 4.242640687119285 4.242640687119286 0.0
  endloop
endfacet
facet normal 0.0 0.0 -1.0
  outer loop
    vertex 3.806359704981873 -4.638062720176422 0.0
    vertex 4.242640687119285 4.242640687119286 0.0
    vertex 4.242640687119284 -4.2426406871192865 0.0
  endloop
endfacet
facet normal 0.0 0.0 -1.0
  outer loop
    vertex 4.242640687119284 -4.2426406871192865 0.0
    vertex 4.242640687119285 4.242640687119286 0.0
    vertex 4.638062720176419 -3.8063597049818756 0.0
  endloop
endfacet
facet normal 0.0 0.0 -1.0
  outer loop
    vertex 4.638062720176419 -3.8063597049818756 0.0
    vertex 4.242640687119285 4.242640687119286 0.0
    vertex 4.638062720176422 3.806359704981873 0.0
  endloop
endfacet
facet normal 0.0 0.0 -1.0
  outer loop
    vertex 4.638062720176419 -3.8063597049818756 0.0
    vertex 4.638062720176422 3.806359704981873 0.0
    vertex 4.988817673815271 -3.3334213981176135 0.0
  endloop
endfacet
facet normal 0.0 0.0 -1.0
  outer loop
    vertex 4.988817673815271 -3.3334213981176135 0.0
    vertex 4.638062720176422 3.806359704981873 0.0
    vertex 4.988817673815271 3.3334213981176135 0.0
  endloop
endfacet
facet normal 0.0 0.0 -1.0
  outer loop
    vertex 4.988817673815271 -3.3334213981176135 0.0
    vertex 4.988817673815271 3.3334213981176135 0.0
    vertex 5.29152758609013 2.828380420955986 0.0
  endloop
endfacet
facet normal 0.0 0.0 -1.0
  outer loop
    vertex 4.988817673815271 -3.3334213981176135 0.0
    vertex 5.29152758609013 2.828380420955986 0.0
    vertex 5.291527586090129 -2.8283804209559875 0.0
  endloop
endfacet
facet normal 0.0 0.0 -1.0
  outer loop
    vertex 5.291527586090129 -2.8283804209559875 0.0
    vertex 5.29152758609013 2.828380420955986 0.0
    vertex 5.543277195067719 -2.2961005941905426 0.0
  endloop
endfacet
facet normal 0.0 0.0 -1.0
  outer loop
    vertex 5.543277195067719 -2.2961005941905426 0.0
    vertex 5.29152758609013 2.828380420955986 0.0
    vertex 5.54327719506772 2.296100594190539 0.0
  endloop
endfacet
facet normal 0.0 0.0 -1.0
  outer loop
    vertex 5.543277195067719 -2.2961005941905426 0.0
    vertex 5.54327719506772 2.296100594190539 0.0
    vertex 5.7416420143932525 -1.741708063526775 0.0
  endloop
endfacet
facet normal 0.0 0.0 -1.0
  outer loop
    vertex 5.7416420143932525 -1.741708063526775 0.0
    vertex 5.54327719506772 2.296100594190539 0.0
    vertex 5.7416420143932525 1.741708063526774 0.0
  endloop
endfacet
facet normal 0.0 0.0 -1.0
  outer loop
    vertex 5.7416420143932525 -1.741708063526775 0.0
    vertex 5.7416420143932525 1.741708063526774 0.0
    vertex 5.884711682419383 1.1705419320967696 0.0
  endloop
endfacet
facet normal 0.0 0.0 -1.0
  outer loop
    vertex 5.7416420143932525 -1.741708063526775 0.0
    vertex 5.884711682419383 1.1705419320967696 0.0
    vertex 5.884711682419382 -1.1705419320967725 0.0
  endloop
endfacet
facet normal 0.0 0.0 -1.0
  outer loop
    vertex 5.884711682419382 -1.1705419320967725 0.0
    vertex 5.884711682419383 1.1705419320967696 0.0
    vertex 5.971108360033181 -0.5881028419773631 0.0
  endloop
endfacet
facet normal 0.0 0.0 -1.0
  outer loop
    vertex 5.971108360033181 -0.5881028419773631 0.0
    vertex 5.884711682419383 1.1705419320967696 0.0
    vertex 5.971108360033181 0.5881028419773636 0.0
  endloop
endfacet
facet normal 0.0 0.0 -1.0
  outer loop
    vertex 5.971108360033181 -0.5881028419773631 0.0
    vertex 5.971108360033181 0.5881028419773636 0.0
    vertex 6.0 0.0 0.0
  endloop
endfacet
facet normal 0.0 0.0 -1.0
  outer loop
    vertex -5.97110836003318 0.588102841977365 0.0
    vertex -5.971108360033181 -0.5881028419773635 0.0
    vertex -6.0 7.34788079488412e-16 0.0
  endloop
endfacet
facet normal 0.0 0.0 -1.0
  outer loop
    vertex -5.971108360033181 -0.5881028419773635 0.0
    vertex -5.97110836003318 0.588102841977365 0.0
    vertex -5.884711682419383 -1.1705419320967703 0.0
  endloop
endfacet
facet normal 0.0 0.0 -1.0
  outer loop
    vertex -5.884711682419383 -1.1705419320967703 0.0
    vertex -5.97110836003318 0.588102841977365 0.0
    vertex -5.884711682419383 1.1705419320967716 0.0
  endloop
endfacet
facet normal 0.0 0.0 -1.0
  outer loop
    vertex -5.884711682419383 -1.1705419320967703 0.0
    vertex -5.884711682419383 1.1705419320967716 0.0
    vertex -5.7416420143932525 1.7417080635267745 0.0
  endloop
endfacet
facet normal 0.0 0.0 -1.0
  outer loop
    vertex -5.884711682419383 -1.1705419320967703 0.0
    vertex -5.7416420143932525 1.7417080635267745 0.0
    vertex -5.741642014393253 -1.7417080635267728 0.0
  endloop
endfacet
facet normal 0.0 0.0 -1.0
  outer loop
    vertex -5.741642014393253 -1.7417080635267728 0.0
    vertex -5.7416420143932525 1.7417080635267745 0.0
    vertex -5.54327719506772 -2.2961005941905377 0.0
  endloop
endfacet
facet normal 0.0 0.0 -1.0
  outer loop
    vertex -5.54327719506772 -2.2961005941905377 0.0
    vertex -5.7416420143932525 1.7417080635267745 0.0
    vertex -5.54327719506772 2.2961005941905395 0.0
  endloop
endfacet
facet normal 0.0 0.0 -1.0
  outer loop
    vertex -5.54327719506772 -2.2961005941905377 0.0
    vertex -5.54327719506772 2.2961005941905395 0.0
    vertex -5.29152758609013 -2.828380420955986 0.0
  endloop
endfacet
facet normal 0.0 0.0 -1.0
  outer loop
    vertex -5.29152758609013 -2.828380420955986 0.0
    vertex -5.54327719506772 2.2961005941905395 0.0
    vertex -5.291527586090129 2.828380420955987 0.0
  endloop
endfacet
facet normal 0.0 0.0 -1.0
  outer loop
    vertex -5.29152758609013 -2.828380420955986 0.0
    vertex -5.291527586090129 2.828380420955987 0.0
    vertex -4.988817673815272 -3.333421398117612 0.0
  endloop
endfacet
facet normal 0.0 0.0 -1.0
  outer loop
    vertex -4.988817673815272 -3.333421398117612 0.0
    vertex -5.291527586090129 2.828380420955987 0.0
    vertex -4.988817673815272 3.3334213981176135 0.0
  endloop
endfacet
facet normal 0.0 0.0 -1.0
  outer loop
    vertex -4.988817673815272 -3.333421398117612 0.0
    vertex -4.988817673815272 3.3334213981176135 0.0
    vertex -4.638062720176422 -3.8063597049818716 0.0
  endloop
endfacet
facet normal 0.0 0.0 -1.0
  outer loop
    vertex -4.638062720176422 -3.8063597049818716 0.0
    vertex -4.988817673815272 3.3334213981176135 0.0
    vertex -4.638062720176422 3.806359704981873 0.0
  endloop
endfacet
facet normal 0.0 0.0 -1.0
  outer loop
    vertex -4.638062720176422 -3.8063597049818716 0.0
    vertex -4.638062720176422 3.806359704981873 0.0
    vertex -4.242640687119286 -4.242640687119285 0.0
  endloop
endfacet
facet normal 0.0 0.0 -1.0
  outer loop
    vertex -4.242640687119286 -4.242640687119285 0.0
    vertex -4.638062720176422 3.806359704981873 0.0
    vertex -4.242640687119285 4.242640687119286 0.0
  endloop
endfacet
facet normal 0.0 0.0 -1.0
  outer loop
    vertex -4.242640687119286 -4.242640687119285 0.0
    vertex -4.242640687119285 4.242640687119286 0.0
    vertex -3.806359704981875 -4.63806272017642 0.0
  endloop
endfacet
facet normal 0.0 0.0 -1.0
  outer loop
    vertex -3.806359704981875 -4.63806272017642 0.0
    vertex -4.242640687119285 4.242640687119286 0.0
    vertex -3.8063597049818716 4.638062720176423 0.0
  endloop
endfacet
facet normal 0.0 0.0 -1.0
  outer loop
    vertex -3.806359704981875 -4.63806272017642 0.0
    vertex -3.8063597049818716 4.638062720176423 0.0
    vertex -3.333421398117613 -4.988817673815272 0.0
  endloop
endfacet
facet normal 0.0 0.0 -1.0
  outer loop
    vertex -3.333421398117613 -4.988817673815272 0.0
    vertex -3.8063597049818716 4.638062720176423 0.0
    vertex -3.3334213981176113 4.988817673815272 0.0
  endloop
endfacet
facet normal 0.0 0.0 -1.0
  outer loop
    vertex -3.333421398117613 -4.988817673815272 0.0
    vertex -3.3334213981176113 4.988817673815272 0.0
    vertex -3.1 0.0 0.0
  endloop
endfacet
facet normal 0.0 0.0 -1.0
  outer loop
    vertex -3.333421398117613 -4.988817673815272 0.0
    vertex -3.1 0.0 0.0
    vertex -2.828380420955987 -5.29152758609013 0.0
  endloop
endfacet
facet normal 0.0 0.0 -1.0
  outer loop
    vertex -2.828380420955987 -5.29152758609013 0.0
    vertex -3.1 0.0 0.0
    vertex -2.9943700614961117 -0.8023390398178143 0.0
  endloop
endfacet
facet normal 0.0 0.0 -1.0
  outer loop
    vertex -2.828380420955987 -5.29152758609013 0.0
    vertex -2.9943700614961117 -0.8023390398178143 0.0
    vertex -2.68467875173176 -1.5499999999999998 0.0
  endloop
endfacet
facet normal 0.0 0.0 -1.0
  outer loop
    vertex -2.828380420955987 -5.29152758609013 0.0
    vertex -2.68467875173176 -1.5499999999999998 0.0
    vertex -2.2961005941905417 -5.54327719506772 0.0
  endloop
endfacet
facet normal 0.0 0.0 -1.0
  outer loop
    vertex -2.2961005941905417 -5.54327719506772 0.0
    vertex -2.68467875173176 -1.5499999999999998 0.0
    vertex -2.1920310216782974 -2.1920310216782974 0.0
  endloop
endfacet
facet normal 0.0 0.0 -1.0
  outer loop
    vertex -2.2961005941905417 -5.54327719506772 0.0
    vertex -2.1920310216782974 -2.1920310216782974 0.0
    vertex -1.7417080635267745 -5.741642014393253 0.0
  endloop
endfacet
facet normal 0.0 0.0 -1.0
  outer loop
    vertex -1.7417080635267745 -5.741642014393253 0.0
    vertex -2.1920310216782974 -2.1920310216782974 0.0
    vertex -1.5500000000000003 -2.6846787517317594 0.0
  endloop
endfacet
facet normal 0.0 0.0 -1.0
  outer loop
    vertex -1.7417080635267745 -5.741642014393253 0.0
    vertex -1.5500000000000003 -2.6846787517317594 0.0
    vertex -1.1705419320967718 -5.884711682419383 0.0
  endloop
endfacet
facet normal 0.0 0.0 -1.0
  outer loop
    vertex -1.1705419320967718 -5.884711682419383 0.0
    vertex -1.5500000000000003 -2.6846787517317594 0.0
    vertex -0.802339039817815 -2.9943700614961113 0.0
  endloop
endfacet
facet normal 0.0 0.0 -1.0
  outer loop
    vertex -1.1705419320967718 -5.884711682419383 0.0
    vertex -0.802339039817815 -2.9943700614961113 0.0
    vertex -0.5881028419773626 -5.971108360033182 0.0
  endloop
endfacet
facet normal 0.0 0.0 -1.0
  outer loop
    vertex -0.5881028419773626 -5.971108360033182 0.0
    vertex -0.802339039817815 -2.9943700614961113 0.0
    vertex -1.8982025386783977e-16 -3.1 0.0
  endloop
endfacet
facet normal 0.0 0.0 -1.0
  outer loop
    vertex -0.5881028419773626 -5.971108360033182 0.0
    vertex -1.8982025386783977e-16 -3.1 0.0
    vertex -1.1021821192326177e-15 -6.0 0.0
  endloop
endfacet
facet normal 0.0 0.0 -1.0
  outer loop
    vertex -1.1021821192326177e-15 -6.0 0.0
    vertex -1.8982025386783977e-16 -3.1 0.0
    vertex 0.5881028419773604 -5.971108360033182 0.0
  endloop
endfacet
facet normal 0.0 0.0 -1.0
  outer loop
    vertex 0.5881028419773604 -5.971108360033182 0.0
    vertex -1.8982025386783977e-16 -3.1 0.0
    vertex 0.802339039817814 -2.9943700614961117 0.0
  endloop
endfacet
facet normal 0.0 0.0 -1.0
  outer loop
    vertex 0.5881028419773604 -5.971108360033182 0.0
    vertex 0.802339039817814 -2.9943700614961117 0.0
    vertex 1.1705419320967698 -5.884711682419383 0.0
  endloop
endfacet
facet normal 0.0 0.0 -1.0
  outer loop
    vertex 1.1705419320967698 -5.884711682419383 0.0
    vertex 0.802339039817814 -2.9943700614961117 0.0
    vertex 1.5499999999999994 -2.68467875173176 0.0
  endloop
endfacet
facet normal 0.0 0.0 -1.0
  outer loop
    vertex 1.1705419320967698 -5.884711682419383 0.0
    vertex 1.5499999999999994 -2.68467875173176 0.0
    vertex 1.741708063526772 -5.741642014393254 0.0
  endloop
endfacet
facet normal 0.0 0.0 -1.0
  outer loop
    vertex 1.741708063526772 -5.741642014393254 0.0
    vertex 1.5499999999999994 -2.68467875173176 0.0
    vertex 2.192031021678297 -2.1920310216782974 0.0
  endloop
endfacet
facet normal 0.0 0.0 -1.0
  outer loop
    vertex 1.741708063526772 -5.741642014393254 0.0
    vertex 2.192031021678297 -2.1920310216782974 0.0
    vertex 2.2961005941905395 -5.54327719506772 0.0
  endloop
endfacet
facet normal 0.0 0.0 -1.0
  outer loop
    vertex 2.2961005941905395 -5.54327719506772 0.0
    vertex 2.192031021678297 -2.1920310216782974 0.0
    vertex 2.6846787517317594 -1.550000000000001 0.0
  endloop
endfacet
facet normal 0.0 0.0 -1.0
  outer loop
    vertex 2.2961005941905395 -5.54327719506772 0.0
    vertex 2.6846787517317594 -1.550000000000001 0.0
    vertex 2.8283804209559853 -5.2915275860901305 0.0
  endloop
endfacet
facet normal 0.0 0.0 -1.0
  outer loop
    vertex 2.8283804209559853 -5.2915275860901305 0.0
    vertex 2.6846787517317594 -1.550000000000001 0.0
    vertex 2.9943700614961113 -0.8023390398178152 0.0
  endloop
endfacet
facet normal 0.0 0.0 -1.0
  outer loop
    vertex 2.8283804209559853 -5.2915275860901305 0.0
    vertex 2.9943700614961113 -0.8023390398178152 0.0
    vertex 3.333421398117611 -4.988817673815273 0.0
  endloop
endfacet
facet normal 0.0 0.0 -1.0
  outer loop
    vertex 3.333421398117611 -4.988817673815273 0.0
    vertex 2.9943700614961113 -0.8023390398178152 0.0
    vertex 3.1 -3.7964050773567954e-16 0.0
  endloop
endfacet
facet normal -0.989176509964781 -0.1467304744553621 4.618602029129053e-17
  outer loop
    vertex -5.884711682419383 -1.1705419320967696 0.9999999999999999
    vertex -5.971108360033181 -0.5881028419773635 0.0
    vertex -5.884711682419383 -1.1705419320967703 0.0
  endloop
endfacet
facet normal -0.989176509964781 -0.1467304744553621 4.618602029129053e-17
  outer loop
    vertex -5.971108360033181 -0.5881028419773635 0.0
    vertex -5.884711682419383 -1.1705419320967696 0.9999999999999999
    vertex -5.971108360033181 -0.5881028419773636 0.9999999999999999
  endloop
endfacet
facet normal -0.9987954562051724 -0.04906767432741763 -1.9735176971595186e-17
  outer loop
    vertex -6.0 0.0 0.9999999999999999
    vertex -5.971108360033181 -0.5881028419773635 0.0
    vertex -5.971108360033181 -0.5881028419773636 0.9999999999999999
  endloop
endfacet
facet normal -0.9987954562051724 -0.04906767432741763 -1.9735176971595186e-17
  outer loop
    vertex -5.971108360033181 -0.5881028419773635 0.0
    vertex -6.0 0.0 0.9999999999999999
    vertex -6.0 7.34788079488412e-16 0.0
  endloop
endfacet
facet normal -0.9987954562051724 0.04906767432741827 -2.8909975170481416e-16
  outer loop
    vertex -5.971108360033181 0.5881028419773631 0.9999999999999999
    vertex -6.0 7.34788079488412e-16 0.0
    vertex -6.0 0.0 0.9999999999999999
  endloop
endfacet
facet normal -0.9987954562051724 0.04906767432741827 -2.8909975170481416e-16
  outer loop
    vertex -6.0 7.34788079488412e-16 0.0
    vertex -5.971108360033181 0.5881028419773631 0.9999999999999999
    vertex -5.97110836003318 0.588102841977365 0.0
  endloop
endfacet
facet normal -0.989176509964781 0.1467304744553617 8.21084805178496e-17
  outer loop
    vertex -5.884711682419382 1.1705419320967725 0.9999999999999999
    vertex -5.97110836003318 0.588102841977365 0.0
    vertex -5.971108360033181 0.5881028419773631 0.9999999999999999
  endloop
endfacet
facet normal -0.989176509964781 0.1467304744553617 8.21084805178496e-17
  outer loop
    vertex -5.97110836003318 0.588102841977365 0.0
    vertex -5.884711682419382 1.1705419320967725 0.9999999999999999
    vertex -5.884711682419383 1.1705419320967716 0.0
  endloop
endfacet
facet normal -0.970031253194544 0.2429801799032641 2.117900711639475e-16
  outer loop
    vertex -5.884711682419382 1.1705419320967725 0.9999999999999999
    vertex -5.7416420143932525 1.7417080635267745 0.0
    vertex -5.884711682419383 1.1705419320967716 0.0
  endloop
endfacet
facet normal -0.970031253194544 0.2429801799032641 2.117900711639475e-16
  outer loop
    vertex -5.7416420143932525 1.7417080635267745 0.0
    vertex -5.884711682419382 1.1705419320967725 0.9999999999999999
    vertex -5.7416420143932525 1.741708063526775 0.9999999999999999
  endloop
endfacet
facet normal -0.9415440651830207 0.3368898533922203 -2.5748389349612783e-16
  outer loop
    vertex -5.7416420143932525 1.741708063526775 0.9999999999999999
    vertex -5.54327719506772 2.2961005941905395 0.0
    vertex -5.7416420143932525 1.7417080635267745 0.0
  endloop
endfacet
facet normal -0.9415440651830207 0.3368898533922203 -2.5748389349612783e-16
  outer loop
    vertex -5.54327719506772 2.2961005941905395 0.0
    vertex -5.7416420143932525 1.741708063526775 0.9999999999999999
    vertex -5.543277195067719 2.2961005941905426 0.9999999999999999
  endloop
endfacet
facet normal -0.9039892931234429 0.42755509343028303 -1.0743972572267762e-16
  outer loop
    vertex -5.543277195067719 2.2961005941905426 0.9999999999999999
    vertex -5.291527586090129 2.828380420955987 0.0
    vertex -5.54327719506772 2.2961005941905395 0.0
  endloop
endfacet
facet normal -0.9039892931234429 0.42755509343028303 -1.0743972572267762e-16
  outer loop
    vertex -5.291527586090129 2.828380420955987 0.0
    vertex -5.543277195067719 2.2961005941905426 0.9999999999999999
    vertex -5.291527586090129 2.8283804209559875 0.9999999999999999
  endloop
endfacet
facet normal -0.8577286100002727 0.5141027441932207 5.100656858869139e-16
  outer loop
    vertex -5.291527586090129 2.8283804209559875 0.9999999999999999
    vertex -4.988817673815272 3.3334213981176135 0.0
    vertex -5.291527586090129 2.828380420955987 0.0
  endloop
endfacet
facet normal -0.8577286100002727 0.5141027441932207 5.100656858869139e-16
  outer loop
    vertex -4.988817673815272 3.3334213981176135 0.0
    vertex -5.291527586090129 2.8283804209559875 0.9999999999999999
    vertex -4.988817673815271 3.3334213981176135 0.9999999999999999
  endloop
endfacet
facet normal -0.8032075314806445 0.5956993044924342 5.888871588942392e-16
  outer loop
    vertex -4.638062720176419 3.8063597049818756 0.9999999999999999
    vertex -4.988817673815272 3.3334213981176135 0.0
    vertex -4.988817673815271 3.3334213981176135 0.9999999999999999
  endloop
endfacet
facet normal -0.8032075314806445 0.5956993044924342 5.888871588942392e-16
  outer loop
    vertex -4.988817673815272 3.3334213981176135 0.0
    vertex -4.638062720176419 3.8063597049818756 0.9999999999999999
    vertex -4.638062720176422 3.806359704981873 0.0
  endloop
endfacet
facet normal -0.7409511253549593 0.6715589548470183 1.2256022816675667e-16
  outer loop
    vertex -4.638062720176419 3.8063597049818756 0.9999999999999999
    vertex -4.242640687119285 4.242640687119286 0.0
    vertex -4.638062720176422 3.806359704981873 0.0
  endloop
endfacet
facet normal -0.7409511253549593 0.6715589548470183 1.2256022816675667e-16
  outer loop
    vertex -4.242640687119285 4.242640687119286 0.0
    vertex -4.638062720176419 3.8063597049818756 0.9999999999999999
    vertex -4.242640687119284 4.2426406871192865 0.9999999999999999
  endloop
endfacet
facet normal -0.6715589548470181 0.7409511253549593 3.722643619503215e-17
  outer loop
    vertex -4.242640687119284 4.2426406871192865 0.9999999999999999
    vertex -3.8063597049818716 4.638062720176423 0.0
    vertex -4.242640687119285 4.242640687119286 0.0
  endloop
endfacet
facet normal -0.6715589548470181 0.7409511253549593 3.722643619503215e-17
  outer loop
    vertex -3.8063597049818716 4.638062720176423 0.0
    vertex -4.242640687119284 4.2426406871192865 0.9999999999999999
    vertex -3.806359704981873 4.638062720176422 0.9999999999999999
  endloop
endfacet
facet normal -0.595699304492433 0.8032075314806452 5.852856132323458e-17
  outer loop
    vertex -3.806359704981873 4.638062720176422 0.9999999999999999
    vertex -3.3334213981176113 4.988817673815272 0.0
    vertex -3.8063597049818716 4.638062720176423 0.0
  endloop
endfacet
facet normal -0.595699304492433 0.8032075314806452 5.852856132323458e-17
  outer loop
    vertex -3.3334213981176113 4.988817673815272 0.0
    vertex -3.806359704981873 4.638062720176422 0.9999999999999999
    vertex -3.333421398117611 4.988817673815273 0.9999999999999999
  endloop
endfacet
facet normal -0.5141027441932219 0.857728610000272 5.962291362646152e-17
  outer loop
    vertex -3.333421398117611 4.988817673815273 0.9999999999999999
    vertex -2.828380420955986 5.2915275860901305 0.0
    vertex -3.3334213981176113 4.988817673815272 0.0
  endloop
endfacet
facet normal -0.5141027441932219 0.857728610000272 5.962291362646152e-17
  outer loop
    vertex -2.828380420955986 5.2915275860901305 0.0
    vertex -3.333421398117611 4.988817673815273 0.9999999999999999
    vertex -2.8283804209559853 5.2915275860901305 0.9999999999999999
  endloop
endfacet
facet normal -0.4275550934302818 0.9039892931234434 -1.4953394646517164e-16
  outer loop
    vertex -2.8283804209559853 5.2915275860901305 0.9999999999999999
    vertex -2.296100594190538 5.54327719506772 0.0
    vertex -2.828380420955986 5.2915275860901305 0.0
  endloop
endfacet
facet normal -0.4275550934302818 0.9039892931234434 -1.4953394646517164e-16
  outer loop
    vertex -2.296100594190538 5.54327719506772 0.0
    vertex -2.8283804209559853 5.2915275860901305 0.9999999999999999
    vertex -2.2961005941905395 5.54327719506772 0.9999999999999999
  endloop
endfacet
facet normal -0.3368898533922206 0.9415440651830207 -1.178245098137893e-16
  outer loop
    vertex -2.2961005941905395 5.54327719506772 0.9999999999999999
    vertex -1.7417080635267728 5.741642014393254 0.0
    vertex -2.296100594190538 5.54327719506772 0.0
  endloop
endfacet
facet normal -0.3368898533922206 0.9415440651830207 -1.178245098137893e-16
  outer loop
    vertex -1.7417080635267728 5.741642014393254 0.0
    vertex -2.2961005941905395 5.54327719506772 0.9999999999999999
    vertex -1.741708063526772 5.741642014393254 0.9999999999999999
  endloop
endfacet
facet normal -0.24298017990326334 0.9700312531945442 -0.0
  outer loop
    vertex -1.741708063526772 5.741642014393254 0.9999999999999999
    vertex -1.170541932096769 5.884711682419383 0.0
    vertex -1.7417080635267728 5.741642014393254 0.0
  endloop
endfacet
facet normal -0.24298017990326334 0.9700312531945442 -0.0
  outer loop
    vertex -1.170541932096769 5.884711682419383 0.0
    vertex -1.741708063526772 5.741642014393254 0.9999999999999999
    vertex -1.1705419320967698 5.884711682419383 0.9999999999999999
  endloop
endfacet
facet normal -0.14673047445536186 0.989176509964781 1.9500764122989301e-16
  outer loop
    vertex -1.1705419320967698 5.884711682419383 0.9999999999999999
    vertex -0.5881028419773638 5.971108360033182 0.0
    vertex -1.170541932096769 5.884711682419383 0.0
  endloop
endfacet
facet normal -0.14673047445536186 0.989176509964781 1.9500764122989301e-16
  outer loop
    vertex -0.5881028419773638 5.971108360033182 0.0
    vertex -1.1705419320967698 5.884711682419383 0.9999999999999999
    vertex -0.5881028419773604 5.971108360033182 0.9999999999999999
  endloop
endfacet
facet normal -0.049067674327417744 0.9987954562051724 1.0039198720333228e-16
  outer loop
    vertex -0.5881028419773604 5.971108360033182 0.9999999999999999
    vertex 3.6739403974420594e-16 6.0 0.0
    vertex -0.5881028419773638 5.971108360033182 0.0
  endloop
endfacet
facet normal -0.049067674327417744 0.9987954562051724 1.0039198720333228e-16
  outer loop
    vertex 3.6739403974420594e-16 6.0 0.0
    vertex -0.5881028419773604 5.971108360033182 0.9999999999999999
    vertex 1.1021821192326177e-15 6.0 0.9999999999999999
  endloop
endfacet
facet normal 0.049067674327418334 0.9987954562051724 -3.225637474392586e-16
  outer loop
    vertex 1.1021821192326177e-15 6.0 0.9999999999999999
    vertex 0.5881028419773646 5.971108360033181 0.0
    vertex 3.6739403974420594e-16 6.0 0.0
  endloop
endfacet
facet normal 0.049067674327418334 0.9987954562051724 -3.225637474392586e-16
  outer loop
    vertex 0.5881028419773646 5.971108360033181 0.0
    vertex 1.1021821192326177e-15 6.0 0.9999999999999999
    vertex 0.5881028419773626 5.971108360033182 0.9999999999999999
  endloop
endfacet
facet normal 0.14673047445536186 0.989176509964781 -0.0
  outer loop
    vertex 0.5881028419773626 5.971108360033182 0.9999999999999999
    vertex 1.1705419320967698 5.884711682419383 0.0
    vertex 0.5881028419773646 5.971108360033181 0.0
  endloop
endfacet
facet normal 0.14673047445536186 0.989176509964781 -0.0
  outer loop
    vertex 1.1705419320967698 5.884711682419383 0.0
    vertex 0.5881028419773626 5.971108360033182 0.9999999999999999
    vertex 1.1705419320967718 5.884711682419383 0.9999999999999999
  endloop
endfacet
facet normal 0.24298017990326323 0.9700312531945442 3.6408563090090747e-16
  outer loop
    vertex 1.1705419320967718 5.884711682419383 0.9999999999999999
    vertex 1.7417080635267739 5.741642014393254 0.0
    vertex 1.1705419320967698 5.884711682419383 0.0
  endloop
endfacet
facet normal 0.24298017990326323 0.9700312531945442 3.6408563090090747e-16
  outer loop
    vertex 1.7417080635267739 5.741642014393254 0.0
    vertex 1.1705419320967718 5.884711682419383 0.9999999999999999
    vertex 1.7417080635267745 5.741642014393253 0.9999999999999999
  endloop
endfacet
facet normal 0.3368898533922209 0.9415440651830207 7.18135514438783e-17
  outer loop
    vertex 1.7417080635267745 5.741642014393253 0.9999999999999999
    vertex 2.296100594190539 5.54327719506772 0.0
    vertex 1.7417080635267739 5.741642014393254 0.0
  endloop
endfacet
facet normal 0.3368898533922209 0.9415440651830207 7.18135514438783e-17
  outer loop
    vertex 2.296100594190539 5.54327719506772 0.0
    vertex 1.7417080635267745 5.741642014393253 0.9999999999999999
    vertex 2.2961005941905417 5.54327719506772 0.9999999999999999
  endloop
endfacet
facet normal 0.4275550934302825 0.9039892931234433 -3.5673979286947937e-16
  outer loop
    vertex 2.2961005941905417 5.54327719506772 0.9999999999999999
    vertex 2.8283804209559866 5.29152758609013 0.0
    vertex 2.296100594190539 5.54327719506772 0.0
  endloop
endfacet
facet normal 0.4275550934302825 0.9039892931234433 -3.5673979286947937e-16
  outer loop
    vertex 2.8283804209559866 5.29152758609013 0.0
    vertex 2.2961005941905417 5.54327719506772 0.9999999999999999
    vertex 2.828380420955987 5.29152758609013 0.9999999999999999
  endloop
endfacet
facet normal 0.5141027441932219 0.857728610000272 -8.990164473426233e-17
  outer loop
    vertex 2.828380420955987 5.29152758609013 0.9999999999999999
    vertex 3.333421398117613 4.988817673815272 0.0
    vertex 2.8283804209559866 5.29152758609013 0.0
  endloop
endfacet
facet normal 0.5141027441932219 0.857728610000272 -8.990164473426233e-17
  outer loop
    vertex 3.333421398117613 4.988817673815272 0.0
    vertex 2.828380420955987 5.29152758609013 0.9999999999999999
    vertex 3.333421398117613 4.988817673815272 0.9999999999999999
  endloop
endfacet
facet normal 0.5956993044924337 0.8032075314806446 -2.679046821294585e-16
  outer loop
    vertex 3.333421398117613 4.988817673815272 0.9999999999999999
    vertex 3.806359704981872 4.638062720176422 0.0
    vertex 3.333421398117613 4.988817673815272 0.0
  endloop
endfacet
facet normal 0.5956993044924337 0.8032075314806446 -2.679046821294585e-16
  outer loop
    vertex 3.806359704981872 4.638062720176422 0.0
    vertex 3.333421398117613 4.988817673815272 0.9999999999999999
    vertex 3.806359704981875 4.63806272017642 0.9999999999999999
  endloop
endfacet
facet normal 0.6715589548470177 0.7409511253549599 -3.8276605106255884e-16
  outer loop
    vertex 3.806359704981875 4.63806272017642 0.9999999999999999
    vertex 4.242640687119285 4.242640687119286 0.0
    vertex 3.806359704981872 4.638062720176422 0.0
  endloop
endfacet
facet normal 0.6715589548470177 0.7409511253549599 -3.8276605106255884e-16
  outer loop
    vertex 4.242640687119285 4.242640687119286 0.0
    vertex 3.806359704981875 4.63806272017642 0.9999999999999999
    vertex 4.242640687119286 4.242640687119285 0.9999999999999999
  endloop
endfacet
facet normal 0.7409511253549601 0.6715589548470173 1.863336253193714e-16
  outer loop
    vertex 4.638062720176422 3.806359704981873 0.0
    vertex 4.242640687119286 4.242640687119285 0.9999999999999999
    vertex 4.638062720176422 3.8063597049818716 0.9999999999999999
  endloop
endfacet
facet normal 0.7409511253549601 0.6715589548470173 1.863336253193714e-16
  outer loop
    vertex 4.242640687119286 4.242640687119285 0.9999999999999999
    vertex 4.638062720176422 3.806359704981873 0.0
    vertex 4.242640687119285 4.242640687119286 0.0
  endloop
endfacet
facet normal 0.8032075314806446 0.5956993044924337 1.1452143727595821e-17
  outer loop
    vertex 4.988817673815271 3.3334213981176135 0.0
    vertex 4.638062720176422 3.8063597049818716 0.9999999999999999
    vertex 4.988817673815272 3.333421398117612 0.9999999999999999
  endloop
endfacet
facet normal 0.8032075314806446 0.5956993044924337 1.1452143727595821e-17
  outer loop
    vertex 4.638062720176422 3.8063597049818716 0.9999999999999999
    vertex 4.988817673815271 3.3334213981176135 0.0
    vertex 4.638062720176422 3.806359704981873 0.0
  endloop
endfacet
facet normal 0.8577286100002723 0.5141027441932212 -2.388701788434655e-16
  outer loop
    vertex 4.988817673815271 3.3334213981176135 0.0
    vertex 5.29152758609013 2.828380420955986 0.9999999999999999
    vertex 5.29152758609013 2.828380420955986 0.0
  endloop
endfacet
facet normal 0.8577286100002723 0.5141027441932212 -2.388701788434655e-16
  outer loop
    vertex 5.29152758609013 2.828380420955986 0.9999999999999999
    vertex 4.988817673815271 3.3334213981176135 0.0
    vertex 4.988817673815272 3.333421398117612 0.9999999999999999
  endloop
endfacet
facet normal 0.9039892931234437 0.4275550934302818 -9.186204652603677e-17
  outer loop
    vertex 5.54327719506772 2.296100594190539 0.0
    vertex 5.29152758609013 2.828380420955986 0.9999999999999999
    vertex 5.54327719506772 2.2961005941905377 0.9999999999999999
  endloop
endfacet
facet normal 0.9039892931234437 0.4275550934302818 -9.186204652603677e-17
  outer loop
    vertex 5.29152758609013 2.828380420955986 0.9999999999999999
    vertex 5.54327719506772 2.296100594190539 0.0
    vertex 5.29152758609013 2.828380420955986 0.0
  endloop
endfacet
facet normal 0.9415440651830207 0.3368898533922204 -2.5089152679737366e-16
  outer loop
    vertex 5.7416420143932525 1.741708063526774 0.0
    vertex 5.54327719506772 2.2961005941905377 0.9999999999999999
    vertex 5.741642014393253 1.7417080635267728 0.9999999999999999
  endloop
endfacet
facet normal 0.9415440651830207 0.3368898533922204 -2.5089152679737366e-16
  outer loop
    vertex 5.54327719506772 2.2961005941905377 0.9999999999999999
    vertex 5.7416420143932525 1.741708063526774 0.0
    vertex 5.54327719506772 2.296100594190539 0.0
  endloop
endfacet
facet normal 0.9700312531945442 0.24298017990326376 -2.5852100814129754e-16
  outer loop
    vertex 5.7416420143932525 1.741708063526774 0.0
    vertex 5.884711682419383 1.1705419320967703 0.9999999999999999
    vertex 5.884711682419383 1.1705419320967696 0.0
  endloop
endfacet
facet normal 0.9700312531945442 0.24298017990326376 -2.5852100814129754e-16
  outer loop
    vertex 5.884711682419383 1.1705419320967703 0.9999999999999999
    vertex 5.7416420143932525 1.741708063526774 0.0
    vertex 5.741642014393253 1.7417080635267728 0.9999999999999999
  endloop
endfacet
facet normal 0.989176509964781 0.1467304744553621 -4.618602029129053e-17
  outer loop
    vertex 5.971108360033181 0.5881028419773636 0.0
    vertex 5.884711682419383 1.1705419320967703 0.9999999999999999
    vertex 5.971108360033181 0.5881028419773635 0.9999999999999999
  endloop
endfacet
facet normal 0.989176509964781 0.1467304744553621 -4.618602029129053e-17
  outer loop
    vertex 5.884711682419383 1.1705419320967703 0.9999999999999999
    vertex 5.971108360033181 0.5881028419773636 0.0
    vertex 5.884711682419383 1.1705419320967696 0.0
  endloop
endfacet
facet normal 0.9987954562051724 0.04906767432741764 1.973517697159519e-17
  outer loop
    vertex 6.0 0.0 0.0
    vertex 5.971108360033181 0.5881028419773635 0.9999999999999999
    vertex 6.0 -7.34788079488412e-16 0.9999999999999999
  endloop
endfacet
facet normal 0.9987954562051724 0.04906767432741764 1.973517697159519e-17
  outer loop
    vertex 5.971108360033181 0.5881028419773635 0.9999999999999999
    vertex 6.0 0.0 0.0
    vertex 5.971108360033181 0.5881028419773636 0.0
  endloop
endfacet
facet normal 0.9987954562051724 -0.04906767432741827 2.8909975170481416e-16
  outer loop
    vertex 5.971108360033181 -0.5881028419773631 0.0
    vertex 6.0 -7.34788079488412e-16 0.9999999999999999
    vertex 5.97110836003318 -0.588102841977365 0.9999999999999999
  endloop
endfacet
facet normal 0.9987954562051724 -0.04906767432741827 2.8909975170481416e-16
  outer loop
    vertex 6.0 -7.34788079488412e-16 0.9999999999999999
    vertex 5.971108360033181 -0.5881028419773631 0.0
    vertex 6.0 0.0 0.0
  endloop
endfacet
facet normal 0.989176509964781 -0.1467304744553617 -8.21084805178496e-17
  outer loop
    vertex 5.971108360033181 -0.5881028419773631 0.0
    vertex 5.884711682419383 -1.1705419320967716 0.9999999999999999
    vertex 5.884711682419382 -1.1705419320967725 0.0
  endloop
endfacet
facet normal 0.989176509964781 -0.1467304744553617 -8.21084805178496e-17
  outer loop
    vertex 5.884711682419383 -1.1705419320967716 0.9999999999999999
    vertex 5.971108360033181 -0.5881028419773631 0.0
    vertex 5.97110836003318 -0.588102841977365 0.9999999999999999
  endloop
endfacet
facet normal 0.970031253194544 -0.2429801799032641 -2.117900711639475e-16
  outer loop
    vertex 5.884711682419382 -1.1705419320967725 0.0
    vertex 5.7416420143932525 -1.7417080635267745 0.9999999999999999
    vertex 5.7416420143932525 -1.741708063526775 0.0
  endloop
endfacet
facet normal 0.970031253194544 -0.2429801799032641 -2.117900711639475e-16
  outer loop
    vertex 5.7416420143932525 -1.7417080635267745 0.9999999999999999
    vertex 5.884711682419382 -1.1705419320967725 0.0
    vertex 5.884711682419383 -1.1705419320967716 0.9999999999999999
  endloop
endfacet
facet normal 0.9415440651830207 -0.3368898533922202 2.574838934961278e-16
  outer loop
    vertex 5.7416420143932525 -1.741708063526775 0.0
    vertex 5.54327719506772 -2.2961005941905395 0.9999999999999999
    vertex 5.543277195067719 -2.2961005941905426 0.0
  endloop
endfacet
facet normal 0.9415440651830207 -0.3368898533922202 2.574838934961278e-16
  outer loop
    vertex 5.54327719506772 -2.2961005941905395 0.9999999999999999
    vertex 5.7416420143932525 -1.741708063526775 0.0
    vertex 5.7416420143932525 -1.7417080635267745 0.9999999999999999
  endloop
endfacet
facet normal 0.9039892931234429 -0.42755509343028303 1.1534379987827238e-16
  outer loop
    vertex 5.543277195067719 -2.2961005941905426 0.0
    vertex 5.291527586090129 -2.828380420955987 0.9999999999999999
    vertex 5.291527586090129 -2.8283804209559875 0.0
  endloop
endfacet
facet normal 0.9039892931234429 -0.42755509343028303 1.1534379987827238e-16
  outer loop
    vertex 5.291527586090129 -2.828380420955987 0.9999999999999999
    vertex 5.543277195067719 -2.2961005941905426 0.0
    vertex 5.54327719506772 -2.2961005941905395 0.9999999999999999
  endloop
endfacet
facet normal 0.8577286100002727 -0.5141027441932207 -5.100656858869139e-16
  outer loop
    vertex 5.291527586090129 -2.8283804209559875 0.0
    vertex 4.988817673815272 -3.3334213981176135 0.9999999999999999
    vertex 4.988817673815271 -3.3334213981176135 0.0
  endloop
endfacet
facet normal 0.8577286100002727 -0.5141027441932207 -5.100656858869139e-16
  outer loop
    vertex 4.988817673815272 -3.3334213981176135 0.9999999999999999
    vertex 5.291527586090129 -2.8283804209559875 0.0
    vertex 5.291527586090129 -2.828380420955987 0.9999999999999999
  endloop
endfacet
facet normal 0.8032075314806445 -0.595699304492434 -5.888871588942394e-16
  outer loop
    vertex 4.988817673815271 -3.3334213981176135 0.0
    vertex 4.638062720176422 -3.806359704981873 0.9999999999999999
    vertex 4.638062720176419 -3.8063597049818756 0.0
  endloop
endfacet
facet normal 0.8032075314806445 -0.595699304492434 -5.888871588942394e-16
  outer loop
    vertex 4.638062720176422 -3.806359704981873 0.9999999999999999
    vertex 4.988817673815271 -3.3334213981176135 0.0
    vertex 4.988817673815272 -3.3334213981176135 0.9999999999999999
  endloop
endfacet
facet normal 0.7409511253549593 -0.6715589548470181 -1.2256022816675724e-16
  outer loop
    vertex 4.638062720176419 -3.8063597049818756 0.0
    vertex 4.242640687119285 -4.242640687119286 0.9999999999999999
    vertex 4.242640687119284 -4.2426406871192865 0.0
  endloop
endfacet
facet normal 0.7409511253549593 -0.6715589548470181 -1.2256022816675724e-16
  outer loop
    vertex 4.242640687119285 -4.242640687119286 0.9999999999999999
    vertex 4.638062720176419 -3.8063597049818756 0.0
    vertex 4.638062720176422 -3.806359704981873 0.9999999999999999
  endloop
endfacet
facet normal 0.6715589548470181 -0.7409511253549593 -3.7226436195032114e-17
  outer loop
    vertex 4.242640687119285 -4.242640687119286 0.9999999999999999
    vertex 3.806359704981873 -4.638062720176422 0.0
    vertex 4.242640687119284 -4.2426406871192865 0.0
  endloop
endfacet
facet normal 0.6715589548470181 -0.7409511253549593 -3.7226436195032114e-17
  outer loop
    vertex 3.806359704981873 -4.638062720176422 0.0
    vertex 4.242640687119285 -4.242640687119286 0.9999999999999999
    vertex 3.8063597049818716 -4.638062720176423 0.9999999999999999
  endloop
endfacet
facet normal 0.595699304492433 -0.8032075314806452 -8.662009709450338e-17
  outer loop
    vertex 3.8063597049818716 -4.638062720176423 0.9999999999999999
    vertex 3.333421398117611 -4.988817673815273 0.0
    vertex 3.806359704981873 -4.638062720176422 0.0
  endloop
endfacet
facet normal 0.595699304492433 -0.8032075314806452 -8.662009709450338e-17
  outer loop
    vertex 3.333421398117611 -4.988817673815273 0.0
    vertex 3.8063597049818716 -4.638062720176423 0.9999999999999999
    vertex 3.3334213981176113 -4.988817673815272 0.9999999999999999
  endloop
endfacet
facet normal 0.5141027441932219 -0.857728610000272 -5.962291362646152e-17
  outer loop
    vertex 3.3334213981176113 -4.988817673815272 0.9999999999999999
    vertex 2.8283804209559853 -5.2915275860901305 0.0
    vertex 3.333421398117611 -4.988817673815273 0.0
  endloop
endfacet
facet normal 0.5141027441932219 -0.857728610000272 -5.962291362646152e-17
  outer loop
    vertex 2.8283804209559853 -5.2915275860901305 0.0
    vertex 3.3334213981176113 -4.988817673815272 0.9999999999999999
    vertex 2.828380420955986 -5.2915275860901305 0.9999999999999999
  endloop
endfacet
facet normal 0.4275550934302818 -0.9039892931234434 1.4953394646517164e-16
  outer loop
    vertex 2.828380420955986 -5.2915275860901305 0.9999999999999999
    vertex 2.2961005941905395 -5.54327719506772 0.0
    vertex 2.8283804209559853 -5.2915275860901305 0.0
  endloop
endfacet
facet normal 0.4275550934302818 -0.9039892931234434 1.4953394646517164e-16
  outer loop
    vertex 2.2961005941905395 -5.54327719506772 0.0
    vertex 2.828380420955986 -5.2915275860901305 0.9999999999999999
    vertex 2.296100594190538 -5.54327719506772 0.9999999999999999
  endloop
endfacet
facet normal 0.3368898533922206 -0.9415440651830207 1.178245098137893e-16
  outer loop
    vertex 2.296100594190538 -5.54327719506772 0.9999999999999999
    vertex 1.741708063526772 -5.741642014393254 0.0
    vertex 2.2961005941905395 -5.54327719506772 0.0
  endloop
endfacet
facet normal 0.3368898533922206 -0.9415440651830207 1.178245098137893e-16
  outer loop
    vertex 1.741708063526772 -5.741642014393254 0.0
    vertex 2.296100594190538 -5.54327719506772 0.9999999999999999
    vertex 1.7417080635267728 -5.741642014393254 0.9999999999999999
  endloop
endfacet
facet normal 0.2429801799032634 -0.9700312531945442 0.0
  outer loop
    vertex 1.7417080635267728 -5.741642014393254 0.9999999999999999
    vertex 1.1705419320967698 -5.884711682419383 0.0
    vertex 1.741708063526772 -5.741642014393254 0.0
  endloop
endfacet
facet normal 0.2429801799032634 -0.9700312531945442 0.0
  outer loop
    vertex 1.1705419320967698 -5.884711682419383 0.0
    vertex 1.7417080635267728 -5.741642014393254 0.9999999999999999
    vertex 1.170541932096769 -5.884711682419383 0.9999999999999999
  endloop
endfacet
facet normal 0.14673047445536186 -0.989176509964781 -1.9500764122989301e-16
  outer loop
    vertex 1.170541932096769 -5.884711682419383 0.9999999999999999
    vertex 0.5881028419773604 -5.971108360033182 0.0
    vertex 1.1705419320967698 -5.884711682419383 0.0
  endloop
endfacet
facet normal 0.14673047445536186 -0.989176509964781 -1.9500764122989301e-16
  outer loop
    vertex 0.5881028419773604 -5.971108360033182 0.0
    vertex 1.170541932096769 -5.884711682419383 0.9999999999999999
    vertex 0.5881028419773638 -5.971108360033182 0.9999999999999999
  endloop
endfacet
facet normal 0.049067674327417744 -0.9987954562051724 -1.0039198720333227e-16
  outer loop
    vertex 0.5881028419773638 -5.971108360033182 0.9999999999999999
    vertex -1.1021821192326177e-15 -6.0 0.0
    vertex 0.5881028419773604 -5.971108360033182 0.0
  endloop
endfacet
facet normal 0.049067674327417744 -0.9987954562051724 -1.0039198720333227e-16
  outer loop
    vertex -1.1021821192326177e-15 -6.0 0.0
    vertex 0.5881028419773638 -5.971108360033182 0.9999999999999999
    vertex -3.6739403974420594e-16 -6.0 0.9999999999999999
  endloop
endfacet
facet normal -0.049067674327418334 -0.9987954562051724 3.2147212038513174e-16
  outer loop
    vertex -3.6739403974420594e-16 -6.0 0.9999999999999999
    vertex -0.5881028419773626 -5.971108360033182 0.0
    vertex -1.1021821192326177e-15 -6.0 0.0
  endloop
endfacet
facet normal -0.049067674327418334 -0.9987954562051724 3.2147212038513174e-16
  outer loop
    vertex -0.5881028419773626 -5.971108360033182 0.0
    vertex -3.6739403974420594e-16 -6.0 0.9999999999999999
    vertex -0.5881028419773646 -5.971108360033181 0.9999999999999999
  endloop
endfacet
facet normal -0.14673047445536186 -0.989176509964781 0.0
  outer loop
    vertex -0.5881028419773646 -5.971108360033181 0.9999999999999999
    vertex -1.1705419320967718 -5.884711682419383 0.0
    vertex -0.5881028419773626 -5.971108360033182 0.0
  endloop
endfacet
facet normal -0.14673047445536186 -0.989176509964781 0.0
  outer loop
    vertex -1.1705419320967718 -5.884711682419383 0.0
    vertex -0.5881028419773646 -5.971108360033181 0.9999999999999999
    vertex -1.1705419320967698 -5.884711682419383 0.9999999999999999
  endloop
endfacet
facet normal -0.24298017990326323 -0.9700312531945442 -3.6408563090090747e-16
  outer loop
    vertex -1.1705419320967698 -5.884711682419383 0.9999999999999999
    vertex -1.7417080635267745 -5.741642014393253 0.0
    vertex -1.1705419320967718 -5.884711682419383 0.0
  endloop
endfacet
facet normal -0.24298017990326323 -0.9700312531945442 -3.6408563090090747e-16
  outer loop
    vertex -1.7417080635267745 -5.741642014393253 0.0
    vertex -1.1705419320967698 -5.884711682419383 0.9999999999999999
    vertex -1.7417080635267739 -5.741642014393254 0.9999999999999999
  endloop
endfacet
facet normal -0.3368898533922207 -0.9415440651830205 -7.181355144387839e-17
  outer loop
    vertex -1.7417080635267739 -5.741642014393254 0.9999999999999999
    vertex -2.2961005941905417 -5.54327719506772 0.0
    vertex -1.7417080635267745 -5.741642014393253 0.0
  endloop
endfacet
facet normal -0.3368898533922207 -0.9415440651830205 -7.181355144387839e-17
  outer loop
    vertex -2.2961005941905417 -5.54327719506772 0.0
    vertex -1.7417080635267739 -5.741642014393254 0.9999999999999999
    vertex -2.296100594190539 -5.54327719506772 0.9999999999999999
  endloop
endfacet
facet normal -0.4275550934302825 -0.9039892931234433 3.5673979286947937e-16
  outer loop
    vertex -2.296100594190539 -5.54327719506772 0.9999999999999999
    vertex -2.828380420955987 -5.29152758609013 0.0
    vertex -2.2961005941905417 -5.54327719506772 0.0
  endloop
endfacet
facet normal -0.4275550934302825 -0.9039892931234433 3.5673979286947937e-16
  outer loop
    vertex -2.828380420955987 -5.29152758609013 0.0
    vertex -2.296100594190539 -5.54327719506772 0.9999999999999999
    vertex -2.8283804209559866 -5.29152758609013 0.9999999999999999
  endloop
endfacet
facet normal -0.5141027441932219 -0.857728610000272 8.990164473426233e-17
  outer loop
    vertex -2.8283804209559866 -5.29152758609013 0.9999999999999999
    vertex -3.333421398117613 -4.988817673815272 0.0
    vertex -2.828380420955987 -5.29152758609013 0.0
  endloop
endfacet
facet normal -0.5141027441932219 -0.857728610000272 8.990164473426233e-17
  outer loop
    vertex -3.333421398117613 -4.988817673815272 0.0
    vertex -2.8283804209559866 -5.29152758609013 0.9999999999999999
    vertex -3.333421398117613 -4.988817673815272 0.9999999999999999
  endloop
endfacet
facet normal -0.5956993044924337 -0.8032075314806446 2.679046821294585e-16
  outer loop
    vertex -3.333421398117613 -4.988817673815272 0.9999999999999999
    vertex -3.806359704981875 -4.63806272017642 0.0
    vertex -3.333421398117613 -4.988817673815272 0.0
  endloop
endfacet
facet normal -0.5956993044924337 -0.8032075314806446 2.679046821294585e-16
  outer loop
    vertex -3.806359704981875 -4.63806272017642 0.0
    vertex -3.333421398117613 -4.988817673815272 0.9999999999999999
    vertex -3.806359704981872 -4.638062720176422 0.9999999999999999
  endloop
endfacet
facet normal -0.6715589548470177 -0.7409511253549599 3.827660510625588e-16
  outer loop
    vertex -3.806359704981872 -4.638062720176422 0.9999999999999999
    vertex -4.242640687119286 -4.242640687119285 0.0
    vertex -3.806359704981875 -4.63806272017642 0.0
  endloop
endfacet
facet normal -0.6715589548470177 -0.7409511253549599 3.827660510625588e-16
  outer loop
    vertex -4.242640687119286 -4.242640687119285 0.0
    vertex -3.806359704981872 -4.638062720176422 0.9999999999999999
    vertex -4.242640687119285 -4.242640687119286 0.9999999999999999
  endloop
endfacet
facet normal -0.74095112535496 -0.6715589548470174 -1.7337654123656846e-16
  outer loop
    vertex -4.638062720176422 -3.806359704981873 0.9999999999999999
    vertex -4.242640687119286 -4.242640687119285 0.0
    vertex -4.242640687119285 -4.242640687119286 0.9999999999999999
  endloop
endfacet
facet normal -0.74095112535496 -0.6715589548470174 -1.7337654123656846e-16
  outer loop
    vertex -4.242640687119286 -4.242640687119285 0.0
    vertex -4.638062720176422 -3.806359704981873 0.9999999999999999
    vertex -4.638062720176422 -3.8063597049818716 0.0
  endloop
endfacet
facet normal -0.8032075314806446 -0.5956993044924337 -1.1452143727595821e-17
  outer loop
    vertex -4.988817673815271 -3.3334213981176135 0.9999999999999999
    vertex -4.638062720176422 -3.8063597049818716 0.0
    vertex -4.638062720176422 -3.806359704981873 0.9999999999999999
  endloop
endfacet
facet normal -0.8032075314806446 -0.5956993044924337 -1.1452143727595821e-17
  outer loop
    vertex -4.638062720176422 -3.8063597049818716 0.0
    vertex -4.988817673815271 -3.3334213981176135 0.9999999999999999
    vertex -4.988817673815272 -3.333421398117612 0.0
  endloop
endfacet
facet normal -0.8577286100002723 -0.5141027441932212 2.3137058721070084e-16
  outer loop
    vertex -5.29152758609013 -2.828380420955986 0.9999999999999999
    vertex -4.988817673815272 -3.333421398117612 0.0
    vertex -4.988817673815271 -3.3334213981176135 0.9999999999999999
  endloop
endfacet
facet normal -0.8577286100002723 -0.5141027441932212 2.3137058721070084e-16
  outer loop
    vertex -4.988817673815272 -3.333421398117612 0.0
    vertex -5.29152758609013 -2.828380420955986 0.9999999999999999
    vertex -5.29152758609013 -2.828380420955986 0.0
  endloop
endfacet
facet normal -0.9039892931234437 -0.4275550934302818 9.186204652603677e-17
  outer loop
    vertex -5.54327719506772 -2.296100594190539 0.9999999999999999
    vertex -5.29152758609013 -2.828380420955986 0.0
    vertex -5.29152758609013 -2.828380420955986 0.9999999999999999
  endloop
endfacet
facet normal -0.9039892931234437 -0.4275550934302818 9.186204652603677e-17
  outer loop
    vertex -5.29152758609013 -2.828380420955986 0.0
    vertex -5.54327719506772 -2.296100594190539 0.9999999999999999
    vertex -5.54327719506772 -2.2961005941905377 0.0
  endloop
endfacet
facet normal -0.9415440651830207 -0.3368898533922204 2.5089152679737366e-16
  outer loop
    vertex -5.7416420143932525 -1.741708063526774 0.9999999999999999
    vertex -5.54327719506772 -2.2961005941905377 0.0
    vertex -5.54327719506772 -2.296100594190539 0.9999999999999999
  endloop
endfacet
facet normal -0.9415440651830207 -0.3368898533922204 2.5089152679737366e-16
  outer loop
    vertex -5.54327719506772 -2.2961005941905377 0.0
    vertex -5.7416420143932525 -1.741708063526774 0.9999999999999999
    vertex -5.741642014393253 -1.7417080635267728 0.0
  endloop
endfacet
facet normal -0.9700312531945442 -0.24298017990326376 2.5428025052568307e-16
  outer loop
    vertex -5.884711682419383 -1.1705419320967696 0.9999999999999999
    vertex -5.741642014393253 -1.7417080635267728 0.0
    vertex -5.7416420143932525 -1.741708063526774 0.9999999999999999
  endloop
endfacet
facet normal -0.9700312531945442 -0.24298017990326376 2.5428025052568307e-16
  outer loop
    vertex -5.741642014393253 -1.7417080635267728 0.0
    vertex -5.884711682419383 -1.1705419320967696 0.9999999999999999
    vertex -5.884711682419383 -1.1705419320967703 0.0
  endloop
endfacet
endsolid Шайба-м6х12мм-1мм
