solid Шайба-м6х12мм-1мм
facet normal 0.9238795325112868 0.3826834323650896 0.0
  outer loop
    vertex -2.9943700614961117 -0.8023390398178143 0.0
    vertex -2.68467875173176 -1.5499999999999998 0.9999999999999999
    vertex -2.68467875173176 -1.5499999999999998 0.0
  endloop
endfacet
facet normal 0.9238795325112868 0.3826834323650896 0.0
  outer loop
    vertex -2.68467875173176 -1.5499999999999998 0.9999999999999999
    vertex -2.9943700614961117 -0.8023390398178143 0.0
    vertex -2.9943700614961117 -0.8023390398178143 0.9999999999999999
  endloop
endfacet
facet normal 0.793353340291235 0.6087614290087207 0.0
  outer loop
    vertex -2.68467875173176 -1.5499999999999998 0.0
    vertex -2.1920310216782974 -2.1920310216782974 0.9999999999999999
    vertex -2.1920310216782974 -2.1920310216782974 0.0
  endloop
endfacet
facet normal 0.793353340291235 0.6087614290087207 0.0
  outer loop
    vertex -2.1920310216782974 -2.1920310216782974 0.9999999999999999
    vertex -2.68467875173176 -1.5499999999999998 0.0
    vertex -2.68467875173176 -1.5499999999999998 0.9999999999999999
  endloop
endfacet
facet normal 0.6087614290087208 0.7933533402912352 0.0
  outer loop
    vertex -2.1920310216782974 -2.1920310216782974 0.9999999999999999
    vertex -1.5500000000000003 -2.6846787517317594 0.0
    vertex -2.1920310216782974 -2.1920310216782974 0.0
  endloop
endfacet
facet normal 0.6087614290087208 0.7933533402912352 0.0
  outer loop
    vertex -1.5500000000000003 -2.6846787517317594 0.0
    vertex -2.1920310216782974 -2.1920310216782974 0.9999999999999999
    vertex -1.5500000000000003 -2.6846787517317594 0.9999999999999999
  endloop
endfacet
facet normal 0.38268343236508967 0.9238795325112868 0.0
  outer loop
    vertex -1.5500000000000003 -2.6846787517317594 0.9999999999999999
    vertex -0.802339039817815 -2.9943700614961113 0.0
    vertex -1.5500000000000003 -2.6846787517317594 0.0
  endloop
endfacet
facet normal 0.38268343236508967 0.9238795325112868 0.0
  outer loop
    vertex -0.802339039817815 -2.9943700614961113 0.0
    vertex -1.5500000000000003 -2.6846787517317594 0.9999999999999999
    vertex -0.802339039817815 -2.9943700614961113 0.9999999999999999
  endloop
endfacet
facet normal 0.13052619222005202 0.9914448613738104 0.0
  outer loop
    vertex -0.802339039817815 -2.9943700614961113 0.9999999999999999
    vertex -1.8982025386783977e-16 -3.1 0.0
    vertex -0.802339039817815 -2.9943700614961113 0.0
  endloop
endfacet
facet normal 0.13052619222005202 0.9914448613738104 0.0
  outer loop
    vertex -1.8982025386783977e-16 -3.1 0.0
    vertex -0.802339039817815 -2.9943700614961113 0.9999999999999999
    vertex -1.8982025386783977e-16 -3.1 0.9999999999999999
  endloop
endfacet
facet normal -0.13052619222005168 0.9914448613738104 0.0
  outer loop
    vertex -1.8982025386783977e-16 -3.1 0.9999999999999999
    vertex 0.802339039817814 -2.9943700614961117 0.0
    vertex -1.8982025386783977e-16 -3.1 0.0
  endloop
endfacet
facet normal -0.13052619222005168 0.9914448613738104 0.0
  outer loop
    vertex 0.802339039817814 -2.9943700614961117 0.0
    vertex -1.8982025386783977e-16 -3.1 0.9999999999999999
    vertex 0.802339039817814 -2.9943700614961117 0.9999999999999999
  endloop
endfacet
facet normal -0.38268343236508967 0.9238795325112868 0.0
  outer loop
    vertex 0.802339039817814 -2.9943700614961117 0.9999999999999999
    vertex 1.5499999999999994 -2.68467875173176 0.0
    vertex 0.802339039817814 -2.9943700614961117 0.0
  endloop
endfacet
facet normal -0.38268343236508967 0.9238795325112868 0.0
  outer loop
    vertex 1.5499999999999994 -2.68467875173176 0.0
    vertex 0.802339039817814 -2.9943700614961117 0.9999999999999999
    vertex 1.5499999999999994 -2.68467875173176 0.9999999999999999
  endloop
endfacet
facet normal -0.6087614290087207 0.7933533402912353 0.0
  outer loop
    vertex 1.5499999999999994 -2.68467875173176 0.9999999999999999
    vertex 2.192031021678297 -2.1920310216782974 0.0
    vertex 1.5499999999999994 -2.68467875173176 0.0
  endloop
endfacet
facet normal -0.6087614290087207 0.7933533402912353 0.0
  outer loop
    vertex 2.192031021678297 -2.1920310216782974 0.0
    vertex 1.5499999999999994 -2.68467875173176 0.9999999999999999
    vertex 2.192031021678297 -2.1920310216782974 0.9999999999999999
  endloop
endfacet
facet normal -0.7933533402912348 0.6087614290087211 0.0
  outer loop
    vertex 2.6846787517317594 -1.550000000000001 0.9999999999999999
    vertex 2.192031021678297 -2.1920310216782974 0.0
    vertex 2.192031021678297 -2.1920310216782974 0.9999999999999999
  endloop
endfacet
facet normal -0.7933533402912348 0.6087614290087211 0.0
  outer loop
    vertex 2.192031021678297 -2.1920310216782974 0.0
    vertex 2.6846787517317594 -1.550000000000001 0.9999999999999999
    vertex 2.6846787517317594 -1.550000000000001 0.0
  endloop
endfacet
facet normal -0.9238795325112868 0.3826834323650899 0.0
  outer loop
    vertex 2.9943700614961113 -0.8023390398178152 0.9999999999999999
    vertex 2.6846787517317594 -1.550000000000001 0.0
    vertex 2.6846787517317594 -1.550000000000001 0.9999999999999999
  endloop
endfacet
facet normal -0.9238795325112868 0.3826834323650899 0.0
  outer loop
    vertex 2.6846787517317594 -1.550000000000001 0.0
    vertex 2.9943700614961113 -0.8023390398178152 0.9999999999999999
    vertex 2.9943700614961113 -0.8023390398178152 0.0
  endloop
endfacet
facet normal -0.9914448613738104 0.13052619222005202 0.0
  outer loop
    vertex 3.1 -3.7964050773567954e-16 0.9999999999999999
    vertex 2.9943700614961113 -0.8023390398178152 0.0
    vertex 2.9943700614961113 -0.8023390398178152 0.9999999999999999
  endloop
endfacet
facet normal -0.9914448613738104 0.13052619222005202 0.0
  outer loop
    vertex 2.9943700614961113 -0.8023390398178152 0.0
    vertex 3.1 -3.7964050773567954e-16 0.9999999999999999
    vertex 3.1 -3.7964050773567954e-16 0.0
  endloop
endfacet
facet normal -0.9914448613738104 -0.13052619222005138 -0.0
  outer loop
    vertex 2.9943700614961117 0.8023390398178131 0.9999999999999999
    vertex 3.1 -3.7964050773567954e-16 0.0
    vertex 3.1 -3.7964050773567954e-16 0.9999999999999999
  endloop
endfacet
facet normal -0.9914448613738104 -0.13052619222005138 -0.0
  outer loop
    vertex 3.1 -3.7964050773567954e-16 0.0
    vertex 2.9943700614961117 0.8023390398178131 0.9999999999999999
    vertex 2.9943700614961117 0.8023390398178131 0.0
  endloop
endfacet
facet normal -0.9238795325112868 -0.38268343236508934 -0.0
  outer loop
    vertex 2.6846787517317603 1.5499999999999992 0.9999999999999999
    vertex 2.9943700614961117 0.8023390398178131 0.0
    vertex 2.9943700614961117 0.8023390398178131 0.9999999999999999
  endloop
endfacet
facet normal -0.9238795325112868 -0.38268343236508934 -0.0
  outer loop
    vertex 2.9943700614961117 0.8023390398178131 0.0
    vertex 2.6846787517317603 1.5499999999999992 0.9999999999999999
    vertex 2.6846787517317603 1.5499999999999992 0.0
  endloop
endfacet
facet normal -0.7933533402912355 -0.6087614290087204 -0.0
  outer loop
    vertex 2.1920310216782983 2.192031021678296 0.9999999999999999
    vertex 2.6846787517317603 1.5499999999999992 0.0
    vertex 2.6846787517317603 1.5499999999999992 0.9999999999999999
  endloop
endfacet
facet normal -0.7933533402912355 -0.6087614290087204 -0.0
  outer loop
    vertex 2.6846787517317603 1.5499999999999992 0.0
    vertex 2.1920310216782983 2.192031021678296 0.9999999999999999
    vertex 2.1920310216782983 2.192031021678296 0.0
  endloop
endfacet
facet normal -0.608761429008721 -0.7933533402912349 -0.0
  outer loop
    vertex 2.1920310216782983 2.192031021678296 0.9999999999999999
    vertex 1.5500000000000014 2.684678751731759 0.0
    vertex 2.1920310216782983 2.192031021678296 0.0
  endloop
endfacet
facet normal -0.608761429008721 -0.7933533402912349 -0.0
  outer loop
    vertex 1.5500000000000014 2.684678751731759 0.0
    vertex 2.1920310216782983 2.192031021678296 0.9999999999999999
    vertex 1.5500000000000014 2.684678751731759 0.9999999999999999
  endloop
endfacet
facet normal -0.3826834323650904 -0.9238795325112866 -0.0
  outer loop
    vertex 1.5500000000000014 2.684678751731759 0.9999999999999999
    vertex 0.8023390398178167 2.994370061496111 0.0
    vertex 1.5500000000000014 2.684678751731759 0.0
  endloop
endfacet
facet normal -0.3826834323650904 -0.9238795325112866 -0.0
  outer loop
    vertex 0.8023390398178167 2.994370061496111 0.0
    vertex 1.5500000000000014 2.684678751731759 0.9999999999999999
    vertex 0.8023390398178167 2.994370061496111 0.9999999999999999
  endloop
endfacet
facet normal -0.1305261922200522 -0.9914448613738104 -0.0
  outer loop
    vertex 0.8023390398178167 2.994370061496111 0.9999999999999999
    vertex 5.694607616035192e-16 3.1 0.0
    vertex 0.8023390398178167 2.994370061496111 0.0
  endloop
endfacet
facet normal -0.1305261922200522 -0.9914448613738104 -0.0
  outer loop
    vertex 5.694607616035192e-16 3.1 0.0
    vertex 0.8023390398178167 2.994370061496111 0.9999999999999999
    vertex 5.694607616035192e-16 3.1 0.9999999999999999
  endloop
endfacet
facet normal 0.13052619222005138 -0.9914448613738104 0.0
  outer loop
    vertex 5.694607616035192e-16 3.1 0.9999999999999999
    vertex -0.8023390398178128 2.9943700614961117 0.0
    vertex 5.694607616035192e-16 3.1 0.0
  endloop
endfacet
facet normal 0.13052619222005138 -0.9914448613738104 0.0
  outer loop
    vertex -0.8023390398178128 2.9943700614961117 0.0
    vertex 5.694607616035192e-16 3.1 0.9999999999999999
    vertex -0.8023390398178128 2.9943700614961117 0.9999999999999999
  endloop
endfacet
facet normal 0.38268343236508917 -0.923879532511287 0.0
  outer loop
    vertex -0.8023390398178128 2.9943700614961117 0.9999999999999999
    vertex -1.5499999999999976 2.684678751731761 0.0
    vertex -0.8023390398178128 2.9943700614961117 0.0
  endloop
endfacet
facet normal 0.38268343236508917 -0.923879532511287 0.0
  outer loop
    vertex -1.5499999999999976 2.684678751731761 0.0
    vertex -0.8023390398178128 2.9943700614961117 0.9999999999999999
    vertex -1.5499999999999976 2.684678751731761 0.9999999999999999
  endloop
endfacet
facet normal 0.6087614290087204 -0.7933533402912355 0.0
  outer loop
    vertex -1.5499999999999976 2.684678751731761 0.9999999999999999
    vertex -2.1920310216782966 2.1920310216782974 0.0
    vertex -1.5499999999999976 2.684678751731761 0.0
  endloop
endfacet
facet normal 0.6087614290087204 -0.7933533402912355 0.0
  outer loop
    vertex -2.1920310216782966 2.1920310216782974 0.0
    vertex -1.5499999999999976 2.684678751731761 0.9999999999999999
    vertex -2.1920310216782966 2.1920310216782974 0.9999999999999999
  endloop
endfacet
facet normal 0.7933533402912348 -0.6087614290087211 0.0
  outer loop
    vertex -2.1920310216782966 2.1920310216782974 0.0
    vertex -2.684678751731759 1.5500000000000014 0.9999999999999999
    vertex -2.684678751731759 1.5500000000000014 0.0
  endloop
endfacet
facet normal 0.7933533402912348 -0.6087614290087211 0.0
  outer loop
    vertex -2.684678751731759 1.5500000000000014 0.9999999999999999
    vertex -2.1920310216782966 2.1920310216782974 0.0
    vertex -2.1920310216782966 2.1920310216782974 0.9999999999999999
  endloop
endfacet
facet normal 0.9238795325112866 -0.38268343236509045 0.0
  outer loop
    vertex -2.684678751731759 1.5500000000000014 0.0
    vertex -2.994370061496111 0.802339039817817 0.9999999999999999
    vertex -2.994370061496111 0.802339039817817 0.0
  endloop
endfacet
facet normal 0.9238795325112866 -0.38268343236509045 0.0
  outer loop
    vertex -2.994370061496111 0.802339039817817 0.9999999999999999
    vertex -2.684678751731759 1.5500000000000014 0.0
    vertex -2.684678751731759 1.5500000000000014 0.9999999999999999
  endloop
endfacet
facet normal 0.9914448613738104 -0.1305261922200521 0.0
  outer loop
    vertex -2.994370061496111 0.802339039817817 0.0
    vertex -3.1 0.0 0.9999999999999999
    vertex -3.1 0.0 0.0
  endloop
endfacet
facet normal 0.9914448613738104 -0.1305261922200521 0.0
  outer loop
    vertex -3.1 0.0 0.9999999999999999
    vertex -2.994370061496111 0.802339039817817 0.0
    vertex -2.994370061496111 0.802339039817817 0.9999999999999999
  endloop
endfacet
facet normal 0.9914448613738104 0.13052619222005166 0.0
  outer loop
    vertex -3.1 0.0 0.0
    vertex -2.9943700614961117 -0.8023390398178143 0.9999999999999999
    vertex -2.9943700614961117 -0.8023390398178143 0.0
  endloop
endfacet
facet normal 0.9914448613738104 0.13052619222005166 0.0
  outer loop
    vertex -2.9943700614961117 -0.8023390398178143 0.9999999999999999
    vertex -3.1 0.0 0.0
    vertex -3.1 0.0 0.9999999999999999
  endloop
endfacet
facet normal -3.235762924273096e-33 8.116372001718348e-33 1.0
  outer loop
    vertex -5.971108360033181 -0.5881028419773636 0.9999999999999999
    vertex -5.971108360033181 0.5881028419773631 0.9999999999999999
    vertex -6.0 0.0 0.9999999999999999
  endloop
endfacet
facet normal -3.235762924273096e-33 8.116372001718348e-33 1.0
  outer loop
    vertex -5.971108360033181 0.5881028419773631 0.9999999999999999
    vertex -5.971108360033181 -0.5881028419773636 0.9999999999999999
    vertex -5.884711682419383 -1.1705419320967696 0.9999999999999999
  endloop
endfacet
facet normal -3.235762924273096e-33 8.116372001718348e-33 1.0
  outer loop
    vertex -5.971108360033181 0.5881028419773631 0.9999999999999999
    vertex -5.884711682419383 -1.1705419320967696 0.9999999999999999
    vertex -5.884711682419382 1.1705419320967725 0.9999999999999999
  endloop
endfacet
facet normal -3.235762924273096e-33 8.116372001718348e-33 1.0
  outer loop
    vertex -5.884711682419382 1.1705419320967725 0.9999999999999999
    vertex -5.884711682419383 -1.1705419320967696 0.9999999999999999
    vertex -5.7416420143932525 -1.741708063526774 0.9999999999999999
  endloop
endfacet
facet normal -3.235762924273096e-33 8.116372001718348e-33 1.0
  outer loop
    vertex -5.884711682419382 1.1705419320967725 0.9999999999999999
    vertex -5.7416420143932525 -1.741708063526774 0.9999999999999999
    vertex -5.7416420143932525 1.741708063526775 0.9999999999999999
  endloop
endfacet
facet normal -3.235762924273096e-33 8.116372001718348e-33 1.0
  outer loop
    vertex -5.7416420143932525 1.741708063526775 0.9999999999999999
    vertex -5.7416420143932525 -1.741708063526774 0.9999999999999999
    vertex -5.54327719506772 -2.296100594190539 0.9999999999999999
  endloop
endfacet
facet normal -3.235762924273096e-33 8.116372001718348e-33 1.0
  outer loop
    vertex -5.7416420143932525 1.741708063526775 0.9999999999999999
    vertex -5.54327719506772 -2.296100594190539 0.9999999999999999
    vertex -5.543277195067719 2.2961005941905426 0.9999999999999999
  endloop
endfacet
facet normal -3.235762924273096e-33 8.116372001718348e-33 1.0
  outer loop
    vertex -5.543277195067719 2.2961005941905426 0.9999999999999999
    vertex -5.54327719506772 -2.296100594190539 0.9999999999999999
    vertex -5.29152758609013 -2.828380420955986 0.9999999999999999
  endloop
endfacet
facet normal -3.235762924273096e-33 8.116372001718348e-33 1.0
  outer loop
    vertex -5.543277195067719 2.2961005941905426 0.9999999999999999
    vertex -5.29152758609013 -2.828380420955986 0.9999999999999999
    vertex -5.291527586090129 2.8283804209559875 0.9999999999999999
  endloop
endfacet
facet normal -3.235762924273096e-33 8.116372001718348e-33 1.0
  outer loop
    vertex -5.291527586090129 2.8283804209559875 0.9999999999999999
    vertex -5.29152758609013 -2.828380420955986 0.9999999999999999
    vertex -4.988817673815271 -3.3334213981176135 0.9999999999999999
  endloop
endfacet
facet normal -3.235762924273096e-33 8.116372001718348e-33 1.0
  outer loop
    vertex -5.291527586090129 2.8283804209559875 0.9999999999999999
    vertex -4.988817673815271 -3.3334213981176135 0.9999999999999999
    vertex -4.988817673815271 3.3334213981176135 0.9999999999999999
  endloop
endfacet
facet normal -3.235762924273096e-33 8.116372001718348e-33 1.0
  outer loop
    vertex -4.988817673815271 3.3334213981176135 0.9999999999999999
    vertex -4.988817673815271 -3.3334213981176135 0.9999999999999999
    vertex -4.638062720176422 -3.806359704981873 0.9999999999999999
  endloop
endfacet
facet normal -3.235762924273096e-33 8.116372001718348e-33 1.0
  outer loop
    vertex -4.988817673815271 3.3334213981176135 0.9999999999999999
    vertex -4.638062720176422 -3.806359704981873 0.9999999999999999
    vertex -4.638062720176419 3.8063597049818756 0.9999999999999999
  endloop
endfacet
facet normal -3.235762924273096e-33 8.116372001718348e-33 1.0
  outer loop
    vertex -4.638062720176419 3.8063597049818756 0.9999999999999999
    vertex -4.638062720176422 -3.806359704981873 0.9999999999999999
    vertex -4.242640687119285 -4.242640687119286 0.9999999999999999
  endloop
endfacet
facet normal -3.235762924273096e-33 8.116372001718348e-33 1.0
  outer loop
    vertex -4.638062720176419 3.8063597049818756 0.9999999999999999
    vertex -4.242640687119285 -4.242640687119286 0.9999999999999999
    vertex -4.242640687119284 4.2426406871192865 0.9999999999999999
  endloop
endfacet
facet normal -3.235762924273096e-33 8.116372001718348e-33 1.0
  outer loop
    vertex -4.242640687119284 4.2426406871192865 0.9999999999999999
    vertex -4.242640687119285 -4.242640687119286 0.9999999999999999
    vertex -3.806359704981872 -4.638062720176422 0.9999999999999999
  endloop
endfacet
facet normal -3.235762924273096e-33 8.116372001718348e-33 1.0
  outer loop
    vertex -4.242640687119284 4.2426406871192865 0.9999999999999999
    vertex -3.806359704981872 -4.638062720176422 0.9999999999999999
    vertex -3.806359704981873 4.638062720176422 0.9999999999999999
  endloop
endfacet
facet normal -3.235762924273096e-33 8.116372001718348e-33 1.0
  outer loop
    vertex -3.806359704981873 4.638062720176422 0.9999999999999999
    vertex -3.806359704981872 -4.638062720176422 0.9999999999999999
    vertex -3.333421398117611 4.988817673815273 0.9999999999999999
  endloop
endfacet
facet normal -3.235762924273096e-33 8.116372001718348e-33 1.0
  outer loop
    vertex -3.333421398117611 4.988817673815273 0.9999999999999999
    vertex -3.806359704981872 -4.638062720176422 0.9999999999999999
    vertex -3.333421398117613 -4.988817673815272 0.9999999999999999
  endloop
endfacet
facet normal -3.235762924273096e-33 8.116372001718348e-33 1.0
  outer loop
    vertex -3.333421398117611 4.988817673815273 0.9999999999999999
    vertex -3.333421398117613 -4.988817673815272 0.9999999999999999
    vertex -3.1 0.0 0.9999999999999999
  endloop
endfacet
facet normal -3.235762924273096e-33 8.116372001718348e-33 1.0
  outer loop
    vertex -3.1 0.0 0.9999999999999999
    vertex -3.333421398117613 -4.988817673815272 0.9999999999999999
    vertex -2.8283804209559866 -5.29152758609013 0.9999999999999999
  endloop
endfacet
facet normal -3.235762924273096e-33 8.116372001718348e-33 1.0
  outer loop
    vertex -3.1 0.0 0.9999999999999999
    vertex -2.8283804209559866 -5.29152758609013 0.9999999999999999
    vertex -2.9943700614961117 -0.8023390398178143 0.9999999999999999
  endloop
endfacet
facet normal -3.235762924273096e-33 8.116372001718348e-33 1.0
  outer loop
    vertex -2.9943700614961117 -0.8023390398178143 0.9999999999999999
    vertex -2.8283804209559866 -5.29152758609013 0.9999999999999999
    vertex -2.68467875173176 -1.5499999999999998 0.9999999999999999
  endloop
endfacet
facet normal -3.235762924273096e-33 8.116372001718348e-33 1.0
  outer loop
    vertex -2.68467875173176 -1.5499999999999998 0.9999999999999999
    vertex -2.8283804209559866 -5.29152758609013 0.9999999999999999
    vertex -2.296100594190539 -5.54327719506772 0.9999999999999999
  endloop
endfacet
facet normal -3.235762924273096e-33 8.116372001718348e-33 1.0
  outer loop
    vertex -2.68467875173176 -1.5499999999999998 0.9999999999999999
    vertex -2.296100594190539 -5.54327719506772 0.9999999999999999
    vertex -2.1920310216782974 -2.1920310216782974 0.9999999999999999
  endloop
endfacet
facet normal -3.235762924273096e-33 8.116372001718348e-33 1.0
  outer loop
    vertex -2.1920310216782974 -2.1920310216782974 0.9999999999999999
    vertex -2.296100594190539 -5.54327719506772 0.9999999999999999
    vertex -1.7417080635267739 -5.741642014393254 0.9999999999999999
  endloop
endfacet
facet normal -3.235762924273096e-33 8.116372001718348e-33 1.0
  outer loop
    vertex -2.1920310216782974 -2.1920310216782974 0.9999999999999999
    vertex -1.7417080635267739 -5.741642014393254 0.9999999999999999
    vertex -1.5500000000000003 -2.6846787517317594 0.9999999999999999
  endloop
endfacet
facet normal -3.235762924273096e-33 8.116372001718348e-33 1.0
  outer loop
    vertex -1.5500000000000003 -2.6846787517317594 0.9999999999999999
    vertex -1.7417080635267739 -5.741642014393254 0.9999999999999999
    vertex -1.1705419320967698 -5.884711682419383 0.9999999999999999
  endloop
endfacet
facet normal -3.235762924273096e-33 8.116372001718348e-33 1.0
  outer loop
    vertex -1.5500000000000003 -2.6846787517317594 0.9999999999999999
    vertex -1.1705419320967698 -5.884711682419383 0.9999999999999999
    vertex -0.802339039817815 -2.9943700614961113 0.9999999999999999
  endloop
endfacet
facet normal -3.235762924273096e-33 8.116372001718348e-33 1.0
  outer loop
    vertex -0.802339039817815 -2.9943700614961113 0.9999999999999999
    vertex -1.1705419320967698 -5.884711682419383 0.9999999999999999
    vertex -0.5881028419773646 -5.971108360033181 0.9999999999999999
  endloop
endfacet
facet normal -3.235762924273096e-33 8.116372001718348e-33 1.0
  outer loop
    vertex -0.802339039817815 -2.9943700614961113 0.9999999999999999
    vertex -0.5881028419773646 -5.971108360033181 0.9999999999999999
    vertex -1.8982025386783977e-16 -3.1 0.9999999999999999
  endloop
endfacet
facet normal -3.235762924273096e-33 8.116372001718348e-33 1.0
  outer loop
    vertex -1.8982025386783977e-16 -3.1 0.9999999999999999
    vertex -0.5881028419773646 -5.971108360033181 0.9999999999999999
    vertex -3.6739403974420594e-16 -6.0 0.9999999999999999
  endloop
endfacet
facet normal -3.235762924273096e-33 8.116372001718348e-33 1.0
  outer loop
    vertex -1.8982025386783977e-16 -3.1 0.9999999999999999
    vertex -3.6739403974420594e-16 -6.0 0.9999999999999999
    vertex 0.5881028419773638 -5.971108360033182 0.9999999999999999
  endloop
endfacet
facet normal -3.235762924273096e-33 8.116372001718348e-33 1.0
  outer loop
    vertex -1.8982025386783977e-16 -3.1 0.9999999999999999
    vertex 0.5881028419773638 -5.971108360033182 0.9999999999999999
    vertex 0.802339039817814 -2.9943700614961117 0.9999999999999999
  endloop
endfacet
facet normal -3.235762924273096e-33 8.116372001718348e-33 1.0
  outer loop
    vertex 0.802339039817814 -2.9943700614961117 0.9999999999999999
    vertex 0.5881028419773638 -5.971108360033182 0.9999999999999999
    vertex 1.170541932096769 -5.884711682419383 0.9999999999999999
  endloop
endfacet
facet normal -3.235762924273096e-33 8.116372001718348e-33 1.0
  outer loop
    vertex 0.802339039817814 -2.9943700614961117 0.9999999999999999
    vertex 1.170541932096769 -5.884711682419383 0.9999999999999999
    vertex 1.5499999999999994 -2.68467875173176 0.9999999999999999
  endloop
endfacet
facet normal -3.235762924273096e-33 8.116372001718348e-33 1.0
  outer loop
    vertex 1.5499999999999994 -2.68467875173176 0.9999999999999999
    vertex 1.170541932096769 -5.884711682419383 0.9999999999999999
    vertex 1.7417080635267728 -5.741642014393254 0.9999999999999999
  endloop
endfacet
facet normal -3.235762924273096e-33 8.116372001718348e-33 1.0
  outer loop
    vertex 1.5499999999999994 -2.68467875173176 0.9999999999999999
    vertex 1.7417080635267728 -5.741642014393254 0.9999999999999999
    vertex 2.192031021678297 -2.1920310216782974 0.9999999999999999
  endloop
endfacet
facet normal -3.235762924273096e-33 8.116372001718348e-33 1.0
  outer loop
    vertex 2.192031021678297 -2.1920310216782974 0.9999999999999999
    vertex 1.7417080635267728 -5.741642014393254 0.9999999999999999
    vertex 2.296100594190538 -5.54327719506772 0.9999999999999999
  endloop
endfacet
facet normal -3.235762924273096e-33 8.116372001718348e-33 1.0
  outer loop
    vertex 2.192031021678297 -2.1920310216782974 0.9999999999999999
    vertex 2.296100594190538 -5.54327719506772 0.9999999999999999
    vertex 2.6846787517317594 -1.550000000000001 0.9999999999999999
  endloop
endfacet
facet normal -3.235762924273096e-33 8.116372001718348e-33 1.0
  outer loop
    vertex 2.6846787517317594 -1.550000000000001 0.9999999999999999
    vertex 2.296100594190538 -5.54327719506772 0.9999999999999999
    vertex 2.828380420955986 -5.2915275860901305 0.9999999999999999
  endloop
endfacet
facet normal -3.235762924273096e-33 8.116372001718348e-33 1.0
  outer loop
    vertex 2.6846787517317594 -1.550000000000001 0.9999999999999999
    vertex 2.828380420955986 -5.2915275860901305 0.9999999999999999
    vertex 2.9943700614961113 -0.8023390398178152 0.9999999999999999
  endloop
endfacet
facet normal -3.235762924273096e-33 8.116372001718348e-33 1.0
  outer loop
    vertex 2.9943700614961113 -0.8023390398178152 0.9999999999999999
    vertex 2.828380420955986 -5.2915275860901305 0.9999999999999999
    vertex 3.3334213981176113 -4.988817673815272 0.9999999999999999
  endloop
endfacet
facet normal -3.235762924273096e-33 8.116372001718348e-33 1.0
  outer loop
    vertex 2.9943700614961113 -0.8023390398178152 0.9999999999999999
    vertex 3.3334213981176113 -4.988817673815272 0.9999999999999999
    vertex 3.1 -3.7964050773567954e-16 0.9999999999999999
  endloop
endfacet
facet normal -3.235762924273096e-33 8.116372001718348e-33 1.0
  outer loop
    vertex -3.1 0.0 0.9999999999999999
    vertex -2.8283804209559853 5.2915275860901305 0.9999999999999999
    vertex -3.333421398117611 4.988817673815273 0.9999999999999999
  endloop
endfacet
facet normal -3.235762924273096e-33 8.116372001718348e-33 1.0
  outer loop
    vertex -2.8283804209559853 5.2915275860901305 0.9999999999999999
    vertex -3.1 0.0 0.9999999999999999
    vertex -2.994370061496111 0.802339039817817 0.9999999999999999
  endloop
endfacet
facet normal -3.235762924273096e-33 8.116372001718348e-33 1.0
  outer loop
    vertex -2.8283804209559853 5.2915275860901305 0.9999999999999999
    vertex -2.994370061496111 0.802339039817817 0.9999999999999999
    vertex -2.684678751731759 1.5500000000000014 0.9999999999999999
  endloop
endfacet
facet normal -3.235762924273096e-33 8.116372001718348e-33 1.0
  outer loop
    vertex -2.8283804209559853 5.2915275860901305 0.9999999999999999
    vertex -2.684678751731759 1.5500000000000014 0.9999999999999999
    vertex -2.2961005941905395 5.54327719506772 0.9999999999999999
  endloop
endfacet
facet normal -3.235762924273096e-33 8.116372001718348e-33 1.0
  outer loop
    vertex -2.2961005941905395 5.54327719506772 0.9999999999999999
    vertex -2.684678751731759 1.5500000000000014 0.9999999999999999
    vertex -2.1920310216782966 2.1920310216782974 0.9999999999999999
  endloop
endfacet
facet normal -3.235762924273096e-33 8.116372001718348e-33 1.0
  outer loop
    vertex -2.2961005941905395 5.54327719506772 0.9999999999999999
    vertex -2.1920310216782966 2.1920310216782974 0.9999999999999999
    vertex -1.741708063526772 5.741642014393254 0.9999999999999999
  endloop
endfacet
facet normal -3.235762924273096e-33 8.116372001718348e-33 1.0
  outer loop
    vertex -1.741708063526772 5.741642014393254 0.9999999999999999
    vertex -2.1920310216782966 2.1920310216782974 0.9999999999999999
    vertex -1.5499999999999976 2.684678751731761 0.9999999999999999
  endloop
endfacet
facet normal -3.235762924273096e-33 8.116372001718348e-33 1.0
  outer loop
    vertex -1.741708063526772 5.741642014393254 0.9999999999999999
    vertex -1.5499999999999976 2.684678751731761 0.9999999999999999
    vertex -1.1705419320967698 5.884711682419383 0.9999999999999999
  endloop
endfacet
facet normal -3.235762924273096e-33 8.116372001718348e-33 1.0
  outer loop
    vertex -1.1705419320967698 5.884711682419383 0.9999999999999999
    vertex -1.5499999999999976 2.684678751731761 0.9999999999999999
    vertex -0.8023390398178128 2.9943700614961117 0.9999999999999999
  endloop
endfacet
facet normal -3.235762924273096e-33 8.116372001718348e-33 1.0
  outer loop
    vertex -1.1705419320967698 5.884711682419383 0.9999999999999999
    vertex -0.8023390398178128 2.9943700614961117 0.9999999999999999
    vertex -0.5881028419773604 5.971108360033182 0.9999999999999999
  endloop
endfacet
facet normal -3.235762924273096e-33 8.116372001718348e-33 1.0
  outer loop
    vertex -0.5881028419773604 5.971108360033182 0.9999999999999999
    vertex -0.8023390398178128 2.9943700614961117 0.9999999999999999
    vertex 5.694607616035192e-16 3.1 0.9999999999999999
  endloop
endfacet
facet normal -3.235762924273096e-33 8.116372001718348e-33 1.0
  outer loop
    vertex -0.5881028419773604 5.971108360033182 0.9999999999999999
    vertex 5.694607616035192e-16 3.1 0.9999999999999999
    vertex 1.1021821192326177e-15 6.0 0.9999999999999999
  endloop
endfacet
facet normal -3.235762924273096e-33 8.116372001718348e-33 1.0
  outer loop
    vertex 1.1021821192326177e-15 6.0 0.9999999999999999
    vertex 5.694607616035192e-16 3.1 0.9999999999999999
    vertex 0.8023390398178167 2.994370061496111 0.9999999999999999
  endloop
endfacet
facet normal -3.235762924273096e-33 8.116372001718348e-33 1.0
  outer loop
    vertex 1.1021821192326177e-15 6.0 0.9999999999999999
    vertex 0.8023390398178167 2.994370061496111 0.9999999999999999
    vertex 0.5881028419773626 5.971108360033182 0.9999999999999999
  endloop
endfacet
facet normal -3.235762924273096e-33 8.116372001718348e-33 1.0
  outer loop
    vertex 0.5881028419773626 5.971108360033182 0.9999999999999999
    vertex 0.8023390398178167 2.994370061496111 0.9999999999999999
    vertex 1.1705419320967718 5.884711682419383 0.9999999999999999
  endloop
endfacet
facet normal -3.235762924273096e-33 8.116372001718348e-33 1.0
  outer loop
    vertex 1.1705419320967718 5.884711682419383 0.9999999999999999
    vertex 0.8023390398178167 2.994370061496111 0.9999999999999999
    vertex 1.5500000000000014 2.684678751731759 0.9999999999999999
  endloop
endfacet
facet normal -3.235762924273096e-33 8.116372001718348e-33 1.0
  outer loop
    vertex 1.1705419320967718 5.884711682419383 0.9999999999999999
    vertex 1.5500000000000014 2.684678751731759 0.9999999999999999
    vertex 1.7417080635267745 5.741642014393253 0.9999999999999999
  endloop
endfacet
facet normal -3.235762924273096e-33 8.116372001718348e-33 1.0
  outer loop
    vertex 1.7417080635267745 5.741642014393253 0.9999999999999999
    vertex 1.5500000000000014 2.684678751731759 0.9999999999999999
    vertex 2.1920310216782983 2.192031021678296 0.9999999999999999
  endloop
endfacet
facet normal -3.235762924273096e-33 8.116372001718348e-33 1.0
  outer loop
    vertex 1.7417080635267745 5.741642014393253 0.9999999999999999
    vertex 2.1920310216782983 2.192031021678296 0.9999999999999999
    vertex 2.2961005941905417 5.54327719506772 0.9999999999999999
  endloop
endfacet
facet normal -3.235762924273096e-33 8.116372001718348e-33 1.0
  outer loop
    vertex 2.2961005941905417 5.54327719506772 0.9999999999999999
    vertex 2.1920310216782983 2.192031021678296 0.9999999999999999
    vertex 2.6846787517317603 1.5499999999999992 0.9999999999999999
  endloop
endfacet
facet normal -3.235762924273096e-33 8.116372001718348e-33 1.0
  outer loop
    vertex 2.2961005941905417 5.54327719506772 0.9999999999999999
    vertex 2.6846787517317603 1.5499999999999992 0.9999999999999999
    vertex 2.828380420955987 5.29152758609013 0.9999999999999999
  endloop
endfacet
facet normal -3.235762924273096e-33 8.116372001718348e-33 1.0
  outer loop
    vertex 2.828380420955987 5.29152758609013 0.9999999999999999
    vertex 2.6846787517317603 1.5499999999999992 0.9999999999999999
    vertex 2.9943700614961117 0.8023390398178131 0.9999999999999999
  endloop
endfacet
facet normal -3.235762924273096e-33 8.116372001718348e-33 1.0
  outer loop
    vertex 2.828380420955987 5.29152758609013 0.9999999999999999
    vertex 2.9943700614961117 0.8023390398178131 0.9999999999999999
    vertex 3.333421398117613 4.988817673815272 0.9999999999999999
  endloop
endfacet
facet normal -3.235762924273096e-33 8.116372001718348e-33 1.0
  outer loop
    vertex 3.333421398117613 4.988817673815272 0.9999999999999999
    vertex 2.9943700614961117 0.8023390398178131 0.9999999999999999
    vertex 3.1 -3.7964050773567954e-16 0.9999999999999999
  endloop
endfacet
facet normal -3.235762924273096e-33 8.116372001718348e-33 1.0
  outer loop
    vertex 3.333421398117613 4.988817673815272 0.9999999999999999
    vertex 3.1 -3.7964050773567954e-16 0.9999999999999999
    vertex 3.3334213981176113 -4.988817673815272 0.9999999999999999
  endloop
endfacet
facet normal -3.235762924273096e-33 8.116372001718348e-33 1.0
  outer loop
    vertex 3.333421398117613 4.988817673815272 0.9999999999999999
    vertex 3.3334213981176113 -4.988817673815272 0.9999999999999999
    vertex 3.8063597049818716 -4.638062720176423 0.9999999999999999
  endloop
endfacet
facet normal -3.235762924273096e-33 8.116372001718348e-33 1.0
  outer loop
    vertex 3.333421398117613 4.988817673815272 0.9999999999999999
    vertex 3.8063597049818716 -4.638062720176423 0.9999999999999999
    vertex 3.806359704981875 4.63806272017642 0.9999999999999999
  endloop
endfacet
facet normal -3.235762924273096e-33 8.116372001718348e-33 1.0
  outer loop
    vertex 3.806359704981875 4.63806272017642 0.9999999999999999
    vertex 3.8063597049818716 -4.638062720176423 0.9999999999999999
    vertex 4.242640687119285 -4.242640687119286 0.9999999999999999
  endloop
endfacet
facet normal -3.235762924273096e-33 8.116372001718348e-33 1.0
  outer loop
    vertex 3.806359704981875 4.63806272017642 0.9999999999999999
    vertex 4.242640687119285 -4.242640687119286 0.9999999999999999
    vertex 4.242640687119286 4.242640687119285 0.9999999999999999
  endloop
endfacet
facet normal -3.235762924273096e-33 8.116372001718348e-33 1.0
  outer loop
    vertex 4.242640687119286 4.242640687119285 0.9999999999999999
    vertex 4.242640687119285 -4.242640687119286 0.9999999999999999
    vertex 4.638062720176422 -3.806359704981873 0.9999999999999999
  endloop
endfacet
facet normal -3.235762924273096e-33 8.116372001718348e-33 1.0
  outer loop
    vertex 4.242640687119286 4.242640687119285 0.9999999999999999
    vertex 4.638062720176422 -3.806359704981873 0.9999999999999999
    vertex 4.638062720176422 3.8063597049818716 0.9999999999999999
  endloop
endfacet
facet normal -3.235762924273096e-33 8.116372001718348e-33 1.0
  outer loop
    vertex 4.638062720176422 3.8063597049818716 0.9999999999999999
    vertex 4.638062720176422 -3.806359704981873 0.9999999999999999
    vertex 4.988817673815272 -3.3334213981176135 0.9999999999999999
  endloop
endfacet
facet normal -3.235762924273096e-33 8.116372001718348e-33 1.0
  outer loop
    vertex 4.638062720176422 3.8063597049818716 0.9999999999999999
    vertex 4.988817673815272 -3.3334213981176135 0.9999999999999999
    vertex 4.988817673815272 3.333421398117612 0.9999999999999999
  endloop
endfacet
facet normal -3.235762924273096e-33 8.116372001718348e-33 1.0
  outer loop
    vertex 4.988817673815272 3.333421398117612 0.9999999999999999
    vertex 4.988817673815272 -3.3334213981176135 0.9999999999999999
    vertex 5.291527586090129 -2.828380420955987 0.9999999999999999
  endloop
endfacet
facet normal -3.235762924273096e-33 8.116372001718348e-33 1.0
  outer loop
    vertex 4.988817673815272 3.333421398117612 0.9999999999999999
    vertex 5.291527586090129 -2.828380420955987 0.9999999999999999
    vertex 5.29152758609013 2.828380420955986 0.9999999999999999
  endloop
endfacet
facet normal -3.235762924273096e-33 8.116372001718348e-33 1.0
  outer loop
    vertex 5.29152758609013 2.828380420955986 0.9999999999999999
    vertex 5.291527586090129 -2.828380420955987 0.9999999999999999
    vertex 5.54327719506772 -2.2961005941905395 0.9999999999999999
  endloop
endfacet
facet normal -3.235762924273096e-33 8.116372001718348e-33 1.0
  outer loop
    vertex 5.29152758609013 2.828380420955986 0.9999999999999999
    vertex 5.54327719506772 -2.2961005941905395 0.9999999999999999
    vertex 5.54327719506772 2.2961005941905377 0.9999999999999999
  endloop
endfacet
facet normal -3.235762924273096e-33 8.116372001718348e-33 1.0
  outer loop
    vertex 5.54327719506772 2.2961005941905377 0.9999999999999999
    vertex 5.54327719506772 -2.2961005941905395 0.9999999999999999
    vertex 5.7416420143932525 -1.7417080635267745 0.9999999999999999
  endloop
endfacet
facet normal -3.235762924273096e-33 8.116372001718348e-33 1.0
  outer loop
    vertex 5.54327719506772 2.2961005941905377 0.9999999999999999
    vertex 5.7416420143932525 -1.7417080635267745 0.9999999999999999
    vertex 5.741642014393253 1.7417080635267728 0.9999999999999999
  endloop
endfacet
facet normal -3.235762924273096e-33 8.116372001718348e-33 1.0
  outer loop
    vertex 5.741642014393253 1.7417080635267728 0.9999999999999999
    vertex 5.7416420143932525 -1.7417080635267745 0.9999999999999999
    vertex 5.884711682419383 -1.1705419320967716 0.9999999999999999
  endloop
endfacet
facet normal -3.235762924273096e-33 8.116372001718348e-33 1.0
  outer loop
    vertex 5.741642014393253 1.7417080635267728 0.9999999999999999
    vertex 5.884711682419383 -1.1705419320967716 0.9999999999999999
    vertex 5.884711682419383 1.1705419320967703 0.9999999999999999
  endloop
endfacet
facet normal -3.235762924273096e-33 8.116372001718348e-33 1.0
  outer loop
    vertex 5.884711682419383 1.1705419320967703 0.9999999999999999
    vertex 5.884711682419383 -1.1705419320967716 0.9999999999999999
    vertex 5.97110836003318 -0.588102841977365 0.9999999999999999
  endloop
endfacet
facet normal -3.235762924273096e-33 8.116372001718348e-33 1.0
  outer loop
    vertex 5.884711682419383 1.1705419320967703 0.9999999999999999
    vertex 5.97110836003318 -0.588102841977365 0.9999999999999999
    vertex 5.971108360033181 0.5881028419773635 0.9999999999999999
  endloop
endfacet
facet normal -3.235762924273096e-33 8.116372001718348e-33 1.0
  outer loop
    vertex 5.971108360033181 0.5881028419773635 0.9999999999999999
    vertex 5.97110836003318 -0.588102841977365 0.9999999999999999
    vertex 6.0 -7.34788079488412e-16 0.9999999999999999
  endloop
endfacet
facet normal -0.989176509964781 -0.14673047445536222 -0.0
  outer loop
    vertex -5.971108360033181 -0.5881028419773636 0.9999999999999999
    vertex -5.884711682419383 -1.1705419320967696 1.4099832412739487e-15
    vertex -5.884711682419383 -1.1705419320967696 0.9999999999999999
  endloop
endfacet
facet normal -0.989176509964781 -0.14673047445536222 -0.0
  outer loop
    vertex -5.884711682419383 -1.1705419320967696 1.4099832412739487e-15
    vertex -5.971108360033181 -0.5881028419773636 0.9999999999999999
    vertex -5.971108360033181 -0.5881028419773636 1.4099832412739487e-15
  endloop
endfacet
facet normal -0.9987954562051725 -0.049067674327417675 -0.0
  outer loop
    vertex -6.0 0.0 0.9999999999999999
    vertex -5.971108360033181 -0.5881028419773636 1.4099832412739487e-15
    vertex -5.971108360033181 -0.5881028419773636 0.9999999999999999
  endloop
endfacet
facet normal -0.9987954562051725 -0.049067674327417675 -0.0
  outer loop
    vertex -5.971108360033181 -0.5881028419773636 1.4099832412739487e-15
    vertex -6.0 0.0 0.9999999999999999
    vertex -6.0 0.0 1.4099832412739487e-15
  endloop
endfacet
facet normal -0.9987954562051724 0.04906767432741772 -0.0
  outer loop
    vertex -5.971108360033181 0.5881028419773631 0.9999999999999999
    vertex -6.0 0.0 1.4099832412739487e-15
    vertex -6.0 0.0 0.9999999999999999
  endloop
endfacet
facet normal -0.9987954562051724 0.04906767432741772 -0.0
  outer loop
    vertex -6.0 0.0 1.4099832412739487e-15
    vertex -5.971108360033181 0.5881028419773631 0.9999999999999999
    vertex -5.971108360033181 0.5881028419773631 1.4099832412739487e-15
  endloop
endfacet
facet normal -0.989176509964781 0.14673047445536255 -0.0
  outer loop
    vertex -5.884711682419382 1.1705419320967725 0.9999999999999999
    vertex -5.971108360033181 0.5881028419773631 1.4099832412739487e-15
    vertex -5.971108360033181 0.5881028419773631 0.9999999999999999
  endloop
endfacet
facet normal -0.989176509964781 0.14673047445536255 -0.0
  outer loop
    vertex -5.971108360033181 0.5881028419773631 1.4099832412739487e-15
    vertex -5.884711682419382 1.1705419320967725 0.9999999999999999
    vertex -5.884711682419382 1.1705419320967725 1.4099832412739487e-15
  endloop
endfacet
facet normal -0.9700312531945441 0.2429801799032636 -0.0
  outer loop
    vertex -5.7416420143932525 1.741708063526775 0.9999999999999999
    vertex -5.884711682419382 1.1705419320967725 1.4099832412739487e-15
    vertex -5.884711682419382 1.1705419320967725 0.9999999999999999
  endloop
endfacet
facet normal -0.9700312531945441 0.2429801799032636 -0.0
  outer loop
    vertex -5.884711682419382 1.1705419320967725 1.4099832412739487e-15
    vertex -5.7416420143932525 1.741708063526775 0.9999999999999999
    vertex -5.7416420143932525 1.741708063526775 1.4099832412739487e-15
  endloop
endfacet
facet normal -0.9415440651830208 0.33688985339222005 -0.0
  outer loop
    vertex -5.543277195067719 2.2961005941905426 0.9999999999999999
    vertex -5.7416420143932525 1.741708063526775 1.4099832412739487e-15
    vertex -5.7416420143932525 1.741708063526775 0.9999999999999999
  endloop
endfacet
facet normal -0.9415440651830208 0.33688985339222005 -0.0
  outer loop
    vertex -5.7416420143932525 1.741708063526775 1.4099832412739487e-15
    vertex -5.543277195067719 2.2961005941905426 0.9999999999999999
    vertex -5.543277195067719 2.2961005941905426 1.4099832412739487e-15
  endloop
endfacet
facet normal -0.9039892931234426 0.42755509343028403 -0.0
  outer loop
    vertex -5.291527586090129 2.8283804209559875 0.9999999999999999
    vertex -5.543277195067719 2.2961005941905426 1.4099832412739487e-15
    vertex -5.543277195067719 2.2961005941905426 0.9999999999999999
  endloop
endfacet
facet normal -0.9039892931234426 0.42755509343028403 -0.0
  outer loop
    vertex -5.543277195067719 2.2961005941905426 1.4099832412739487e-15
    vertex -5.291527586090129 2.8283804209559875 0.9999999999999999
    vertex -5.291527586090129 2.8283804209559875 1.4099832412739487e-15
  endloop
endfacet
facet normal -0.8577286100002727 0.5141027441932209 -0.0
  outer loop
    vertex -4.988817673815271 3.3334213981176135 0.9999999999999999
    vertex -5.291527586090129 2.8283804209559875 1.4099832412739487e-15
    vertex -5.291527586090129 2.8283804209559875 0.9999999999999999
  endloop
endfacet
facet normal -0.8577286100002727 0.5141027441932209 -0.0
  outer loop
    vertex -5.291527586090129 2.8283804209559875 1.4099832412739487e-15
    vertex -4.988817673815271 3.3334213981176135 0.9999999999999999
    vertex -4.988817673815271 3.3334213981176135 1.4099832412739487e-15
  endloop
endfacet
facet normal -0.8032075314806445 0.5956993044924341 -0.0
  outer loop
    vertex -4.638062720176419 3.8063597049818756 0.9999999999999999
    vertex -4.988817673815271 3.3334213981176135 1.4099832412739487e-15
    vertex -4.988817673815271 3.3334213981176135 0.9999999999999999
  endloop
endfacet
facet normal -0.8032075314806445 0.5956993044924341 -0.0
  outer loop
    vertex -4.988817673815271 3.3334213981176135 1.4099832412739487e-15
    vertex -4.638062720176419 3.8063597049818756 0.9999999999999999
    vertex -4.638062720176419 3.8063597049818756 1.4099832412739487e-15
  endloop
endfacet
facet normal -0.7409511253549593 0.6715589548470181 -0.0
  outer loop
    vertex -4.242640687119284 4.2426406871192865 0.9999999999999999
    vertex -4.638062720176419 3.8063597049818756 1.4099832412739487e-15
    vertex -4.638062720176419 3.8063597049818756 0.9999999999999999
  endloop
endfacet
facet normal -0.7409511253549593 0.6715589548470181 -0.0
  outer loop
    vertex -4.638062720176419 3.8063597049818756 1.4099832412739487e-15
    vertex -4.242640687119284 4.2426406871192865 0.9999999999999999
    vertex -4.242640687119284 4.2426406871192865 1.4099832412739487e-15
  endloop
endfacet
facet normal -0.6715589548470181 0.7409511253549593 -0.0
  outer loop
    vertex -4.242640687119284 4.2426406871192865 0.9999999999999999
    vertex -3.806359704981873 4.638062720176422 1.4099832412739487e-15
    vertex -4.242640687119284 4.2426406871192865 1.4099832412739487e-15
  endloop
endfacet
facet normal -0.6715589548470181 0.7409511253549593 -0.0
  outer loop
    vertex -3.806359704981873 4.638062720176422 1.4099832412739487e-15
    vertex -4.242640687119284 4.2426406871192865 0.9999999999999999
    vertex -3.806359704981873 4.638062720176422 0.9999999999999999
  endloop
endfacet
facet normal -0.5956993044924334 0.8032075314806449 -0.0
  outer loop
    vertex -3.806359704981873 4.638062720176422 0.9999999999999999
    vertex -3.333421398117611 4.988817673815273 1.4099832412739487e-15
    vertex -3.806359704981873 4.638062720176422 1.4099832412739487e-15
  endloop
endfacet
facet normal -0.5956993044924334 0.8032075314806449 -0.0
  outer loop
    vertex -3.333421398117611 4.988817673815273 1.4099832412739487e-15
    vertex -3.806359704981873 4.638062720176422 0.9999999999999999
    vertex -3.333421398117611 4.988817673815273 0.9999999999999999
  endloop
endfacet
facet normal -0.5141027441932213 0.8577286100002723 -0.0
  outer loop
    vertex -3.333421398117611 4.988817673815273 0.9999999999999999
    vertex -2.8283804209559853 5.2915275860901305 1.4099832412739487e-15
    vertex -3.333421398117611 4.988817673815273 1.4099832412739487e-15
  endloop
endfacet
facet normal -0.5141027441932213 0.8577286100002723 -0.0
  outer loop
    vertex -2.8283804209559853 5.2915275860901305 1.4099832412739487e-15
    vertex -3.333421398117611 4.988817673815273 0.9999999999999999
    vertex -2.8283804209559853 5.2915275860901305 0.9999999999999999
  endloop
endfacet
facet normal -0.4275550934302826 0.9039892931234432 -0.0
  outer loop
    vertex -2.8283804209559853 5.2915275860901305 0.9999999999999999
    vertex -2.2961005941905395 5.54327719506772 1.4099832412739487e-15
    vertex -2.8283804209559853 5.2915275860901305 1.4099832412739487e-15
  endloop
endfacet
facet normal -0.4275550934302826 0.9039892931234432 -0.0
  outer loop
    vertex -2.2961005941905395 5.54327719506772 1.4099832412739487e-15
    vertex -2.8283804209559853 5.2915275860901305 0.9999999999999999
    vertex -2.2961005941905395 5.54327719506772 0.9999999999999999
  endloop
endfacet
facet normal -0.33688985339222005 0.9415440651830208 -0.0
  outer loop
    vertex -2.2961005941905395 5.54327719506772 0.9999999999999999
    vertex -1.741708063526772 5.741642014393254 1.4099832412739487e-15
    vertex -2.2961005941905395 5.54327719506772 1.4099832412739487e-15
  endloop
endfacet
facet normal -0.33688985339222005 0.9415440651830208 -0.0
  outer loop
    vertex -1.741708063526772 5.741642014393254 1.4099832412739487e-15
    vertex -2.2961005941905395 5.54327719506772 0.9999999999999999
    vertex -1.741708063526772 5.741642014393254 0.9999999999999999
  endloop
endfacet
facet normal -0.24298017990326368 0.9700312531945442 -0.0
  outer loop
    vertex -1.741708063526772 5.741642014393254 0.9999999999999999
    vertex -1.1705419320967698 5.884711682419383 1.4099832412739487e-15
    vertex -1.741708063526772 5.741642014393254 1.4099832412739487e-15
  endloop
endfacet
facet normal -0.24298017990326368 0.9700312531945442 -0.0
  outer loop
    vertex -1.1705419320967698 5.884711682419383 1.4099832412739487e-15
    vertex -1.741708063526772 5.741642014393254 0.9999999999999999
    vertex -1.1705419320967698 5.884711682419383 0.9999999999999999
  endloop
endfacet
facet normal -0.14673047445536136 0.989176509964781 -0.0
  outer loop
    vertex -1.1705419320967698 5.884711682419383 0.9999999999999999
    vertex -0.5881028419773604 5.971108360033182 1.4099832412739487e-15
    vertex -1.1705419320967698 5.884711682419383 1.4099832412739487e-15
  endloop
endfacet
facet normal -0.14673047445536136 0.989176509964781 -0.0
  outer loop
    vertex -0.5881028419773604 5.971108360033182 1.4099832412739487e-15
    vertex -1.1705419320967698 5.884711682419383 0.9999999999999999
    vertex -0.5881028419773604 5.971108360033182 0.9999999999999999
  endloop
endfacet
facet normal -0.04906767432741785 0.9987954562051725 -0.0
  outer loop
    vertex -0.5881028419773604 5.971108360033182 0.9999999999999999
    vertex 1.1021821192326177e-15 6.0 1.4099832412739487e-15
    vertex -0.5881028419773604 5.971108360033182 1.4099832412739487e-15
  endloop
endfacet
facet normal -0.04906767432741785 0.9987954562051725 -0.0
  outer loop
    vertex 1.1021821192326177e-15 6.0 1.4099832412739487e-15
    vertex -0.5881028419773604 5.971108360033182 0.9999999999999999
    vertex 1.1021821192326177e-15 6.0 0.9999999999999999
  endloop
endfacet
facet normal 0.04906767432741785 0.9987954562051724 0.0
  outer loop
    vertex 1.1021821192326177e-15 6.0 0.9999999999999999
    vertex 0.5881028419773626 5.971108360033182 1.4099832412739487e-15
    vertex 1.1021821192326177e-15 6.0 1.4099832412739487e-15
  endloop
endfacet
facet normal 0.04906767432741785 0.9987954562051724 0.0
  outer loop
    vertex 0.5881028419773626 5.971108360033182 1.4099832412739487e-15
    vertex 1.1021821192326177e-15 6.0 0.9999999999999999
    vertex 0.5881028419773626 5.971108360033182 0.9999999999999999
  endloop
endfacet
facet normal 0.14673047445536258 0.989176509964781 0.0
  outer loop
    vertex 0.5881028419773626 5.971108360033182 0.9999999999999999
    vertex 1.1705419320967718 5.884711682419383 1.4099832412739487e-15
    vertex 0.5881028419773626 5.971108360033182 1.4099832412739487e-15
  endloop
endfacet
facet normal 0.14673047445536258 0.989176509964781 0.0
  outer loop
    vertex 1.1705419320967718 5.884711682419383 1.4099832412739487e-15
    vertex 0.5881028419773626 5.971108360033182 0.9999999999999999
    vertex 1.1705419320967718 5.884711682419383 0.9999999999999999
  endloop
endfacet
facet normal 0.24298017990326348 0.9700312531945441 0.0
  outer loop
    vertex 1.1705419320967718 5.884711682419383 0.9999999999999999
    vertex 1.7417080635267745 5.741642014393253 1.4099832412739487e-15
    vertex 1.1705419320967718 5.884711682419383 1.4099832412739487e-15
  endloop
endfacet
facet normal 0.24298017990326348 0.9700312531945441 0.0
  outer loop
    vertex 1.7417080635267745 5.741642014393253 1.4099832412739487e-15
    vertex 1.1705419320967718 5.884711682419383 0.9999999999999999
    vertex 1.7417080635267745 5.741642014393253 0.9999999999999999
  endloop
endfacet
facet normal 0.3368898533922203 0.9415440651830208 0.0
  outer loop
    vertex 1.7417080635267745 5.741642014393253 0.9999999999999999
    vertex 2.2961005941905417 5.54327719506772 1.4099832412739487e-15
    vertex 1.7417080635267745 5.741642014393253 1.4099832412739487e-15
  endloop
endfacet
facet normal 0.3368898533922203 0.9415440651830208 0.0
  outer loop
    vertex 2.2961005941905417 5.54327719506772 1.4099832412739487e-15
    vertex 1.7417080635267745 5.741642014393253 0.9999999999999999
    vertex 2.2961005941905417 5.54327719506772 0.9999999999999999
  endloop
endfacet
facet normal 0.42755509343028275 0.903989293123443 0.0
  outer loop
    vertex 2.2961005941905417 5.54327719506772 0.9999999999999999
    vertex 2.828380420955987 5.29152758609013 1.4099832412739487e-15
    vertex 2.2961005941905417 5.54327719506772 1.4099832412739487e-15
  endloop
endfacet
facet normal 0.42755509343028275 0.903989293123443 0.0
  outer loop
    vertex 2.828380420955987 5.29152758609013 1.4099832412739487e-15
    vertex 2.2961005941905417 5.54327719506772 0.9999999999999999
    vertex 2.828380420955987 5.29152758609013 0.9999999999999999
  endloop
endfacet
facet normal 0.514102744193222 0.857728610000272 0.0
  outer loop
    vertex 2.828380420955987 5.29152758609013 0.9999999999999999
    vertex 3.333421398117613 4.988817673815272 1.4099832412739487e-15
    vertex 2.828380420955987 5.29152758609013 1.4099832412739487e-15
  endloop
endfacet
facet normal 0.514102744193222 0.857728610000272 0.0
  outer loop
    vertex 3.333421398117613 4.988817673815272 1.4099832412739487e-15
    vertex 2.828380420955987 5.29152758609013 0.9999999999999999
    vertex 3.333421398117613 4.988817673815272 0.9999999999999999
  endloop
endfacet
facet normal 0.5956993044924334 0.8032075314806449 0.0
  outer loop
    vertex 3.333421398117613 4.988817673815272 0.9999999999999999
    vertex 3.806359704981875 4.63806272017642 1.4099832412739487e-15
    vertex 3.333421398117613 4.988817673815272 1.4099832412739487e-15
  endloop
endfacet
facet normal 0.5956993044924334 0.8032075314806449 0.0
  outer loop
    vertex 3.806359704981875 4.63806272017642 1.4099832412739487e-15
    vertex 3.333421398117613 4.988817673815272 0.9999999999999999
    vertex 3.806359704981875 4.63806272017642 0.9999999999999999
  endloop
endfacet
facet normal 0.6715589548470181 0.7409511253549593 0.0
  outer loop
    vertex 3.806359704981875 4.63806272017642 0.9999999999999999
    vertex 4.242640687119286 4.242640687119285 1.4099832412739487e-15
    vertex 3.806359704981875 4.63806272017642 1.4099832412739487e-15
  endloop
endfacet
facet normal 0.6715589548470181 0.7409511253549593 0.0
  outer loop
    vertex 4.242640687119286 4.242640687119285 1.4099832412739487e-15
    vertex 3.806359704981875 4.63806272017642 0.9999999999999999
    vertex 4.242640687119286 4.242640687119285 0.9999999999999999
  endloop
endfacet
facet normal 0.7409511253549603 0.6715589548470171 0.0
  outer loop
    vertex 4.242640687119286 4.242640687119285 1.4099832412739487e-15
    vertex 4.638062720176422 3.8063597049818716 0.9999999999999999
    vertex 4.638062720176422 3.8063597049818716 1.4099832412739487e-15
  endloop
endfacet
facet normal 0.7409511253549603 0.6715589548470171 0.0
  outer loop
    vertex 4.638062720176422 3.8063597049818716 0.9999999999999999
    vertex 4.242640687119286 4.242640687119285 1.4099832412739487e-15
    vertex 4.242640687119286 4.242640687119285 0.9999999999999999
  endloop
endfacet
facet normal 0.8032075314806444 0.5956993044924341 0.0
  outer loop
    vertex 4.638062720176422 3.8063597049818716 1.4099832412739487e-15
    vertex 4.988817673815272 3.333421398117612 0.9999999999999999
    vertex 4.988817673815272 3.333421398117612 1.4099832412739487e-15
  endloop
endfacet
facet normal 0.8032075314806444 0.5956993044924341 0.0
  outer loop
    vertex 4.988817673815272 3.333421398117612 0.9999999999999999
    vertex 4.638062720176422 3.8063597049818716 1.4099832412739487e-15
    vertex 4.638062720176422 3.8063597049818716 0.9999999999999999
  endloop
endfacet
facet normal 0.8577286100002727 0.5141027441932209 0.0
  outer loop
    vertex 4.988817673815272 3.333421398117612 1.4099832412739487e-15
    vertex 5.29152758609013 2.828380420955986 0.9999999999999999
    vertex 5.29152758609013 2.828380420955986 1.4099832412739487e-15
  endloop
endfacet
facet normal 0.8577286100002727 0.5141027441932209 0.0
  outer loop
    vertex 5.29152758609013 2.828380420955986 0.9999999999999999
    vertex 4.988817673815272 3.333421398117612 1.4099832412739487e-15
    vertex 4.988817673815272 3.333421398117612 0.9999999999999999
  endloop
endfacet
facet normal 0.9039892931234436 0.4275550934302819 0.0
  outer loop
    vertex 5.29152758609013 2.828380420955986 1.4099832412739487e-15
    vertex 5.54327719506772 2.2961005941905377 0.9999999999999999
    vertex 5.54327719506772 2.2961005941905377 1.4099832412739487e-15
  endloop
endfacet
facet normal 0.9039892931234436 0.4275550934302819 0.0
  outer loop
    vertex 5.54327719506772 2.2961005941905377 0.9999999999999999
    vertex 5.29152758609013 2.828380420955986 1.4099832412739487e-15
    vertex 5.29152758609013 2.828380420955986 0.9999999999999999
  endloop
endfacet
facet normal 0.9415440651830208 0.33688985339222033 0.0
  outer loop
    vertex 5.54327719506772 2.2961005941905377 1.4099832412739487e-15
    vertex 5.741642014393253 1.7417080635267728 0.9999999999999999
    vertex 5.741642014393253 1.7417080635267728 1.4099832412739487e-15
  endloop
endfacet
facet normal 0.9415440651830208 0.33688985339222033 0.0
  outer loop
    vertex 5.741642014393253 1.7417080635267728 0.9999999999999999
    vertex 5.54327719506772 2.2961005941905377 1.4099832412739487e-15
    vertex 5.54327719506772 2.2961005941905377 0.9999999999999999
  endloop
endfacet
facet normal 0.9700312531945441 0.2429801799032636 0.0
  outer loop
    vertex 5.741642014393253 1.7417080635267728 1.4099832412739487e-15
    vertex 5.884711682419383 1.1705419320967703 0.9999999999999999
    vertex 5.884711682419383 1.1705419320967703 1.4099832412739487e-15
  endloop
endfacet
facet normal 0.9700312531945441 0.2429801799032636 0.0
  outer loop
    vertex 5.884711682419383 1.1705419320967703 0.9999999999999999
    vertex 5.741642014393253 1.7417080635267728 1.4099832412739487e-15
    vertex 5.741642014393253 1.7417080635267728 0.9999999999999999
  endloop
endfacet
facet normal 0.9891765099647811 0.14673047445536203 0.0
  outer loop
    vertex 5.884711682419383 1.1705419320967703 1.4099832412739487e-15
    vertex 5.971108360033181 0.5881028419773635 0.9999999999999999
    vertex 5.971108360033181 0.5881028419773635 1.4099832412739487e-15
  endloop
endfacet
facet normal 0.9891765099647811 0.14673047445536203 0.0
  outer loop
    vertex 5.971108360033181 0.5881028419773635 0.9999999999999999
    vertex 5.884711682419383 1.1705419320967703 1.4099832412739487e-15
    vertex 5.884711682419383 1.1705419320967703 0.9999999999999999
  endloop
endfacet
facet normal 0.9987954562051724 0.04906767432741762 0.0
  outer loop
    vertex 5.971108360033181 0.5881028419773635 1.4099832412739487e-15
    vertex 6.0 -7.34788079488412e-16 0.9999999999999999
    vertex 6.0 -7.34788079488412e-16 1.4099832412739487e-15
  endloop
endfacet
facet normal 0.9987954562051724 0.04906767432741762 0.0
  outer loop
    vertex 6.0 -7.34788079488412e-16 0.9999999999999999
    vertex 5.971108360033181 0.5881028419773635 1.4099832412739487e-15
    vertex 5.971108360033181 0.5881028419773635 0.9999999999999999
  endloop
endfacet
facet normal 0.9987954562051725 -0.04906767432741883 -0.0
  outer loop
    vertex 6.0 -7.34788079488412e-16 1.4099832412739487e-15
    vertex 5.97110836003318 -0.588102841977365 0.9999999999999999
    vertex 5.97110836003318 -0.588102841977365 1.4099832412739487e-15
  endloop
endfacet
facet normal 0.9987954562051725 -0.04906767432741883 -0.0
  outer loop
    vertex 5.97110836003318 -0.588102841977365 0.9999999999999999
    vertex 6.0 -7.34788079488412e-16 1.4099832412739487e-15
    vertex 6.0 -7.34788079488412e-16 0.9999999999999999
  endloop
endfacet
facet normal 0.9891765099647812 -0.14673047445536086 -0.0
  outer loop
    vertex 5.97110836003318 -0.588102841977365 1.4099832412739487e-15
    vertex 5.884711682419383 -1.1705419320967716 0.9999999999999999
    vertex 5.884711682419383 -1.1705419320967716 1.4099832412739487e-15
  endloop
endfacet
facet normal 0.9891765099647812 -0.14673047445536086 -0.0
  outer loop
    vertex 5.884711682419383 -1.1705419320967716 0.9999999999999999
    vertex 5.97110836003318 -0.588102841977365 1.4099832412739487e-15
    vertex 5.97110836003318 -0.588102841977365 0.9999999999999999
  endloop
endfacet
facet normal 0.970031253194544 -0.2429801799032646 -0.0
  outer loop
    vertex 5.884711682419383 -1.1705419320967716 1.4099832412739487e-15
    vertex 5.7416420143932525 -1.7417080635267745 0.9999999999999999
    vertex 5.7416420143932525 -1.7417080635267745 1.4099832412739487e-15
  endloop
endfacet
facet normal 0.970031253194544 -0.2429801799032646 -0.0
  outer loop
    vertex 5.7416420143932525 -1.7417080635267745 0.9999999999999999
    vertex 5.884711682419383 -1.1705419320967716 1.4099832412739487e-15
    vertex 5.884711682419383 -1.1705419320967716 0.9999999999999999
  endloop
endfacet
facet normal 0.9415440651830207 -0.3368898533922205 -0.0
  outer loop
    vertex 5.7416420143932525 -1.7417080635267745 1.4099832412739487e-15
    vertex 5.54327719506772 -2.2961005941905395 0.9999999999999999
    vertex 5.54327719506772 -2.2961005941905395 1.4099832412739487e-15
  endloop
endfacet
facet normal 0.9415440651830207 -0.3368898533922205 -0.0
  outer loop
    vertex 5.54327719506772 -2.2961005941905395 0.9999999999999999
    vertex 5.7416420143932525 -1.7417080635267745 1.4099832412739487e-15
    vertex 5.7416420143932525 -1.7417080635267745 0.9999999999999999
  endloop
endfacet
facet normal 0.9039892931234433 -0.42755509343028214 -0.0
  outer loop
    vertex 5.54327719506772 -2.2961005941905395 1.4099832412739487e-15
    vertex 5.291527586090129 -2.828380420955987 0.9999999999999999
    vertex 5.291527586090129 -2.828380420955987 1.4099832412739487e-15
  endloop
endfacet
facet normal 0.9039892931234433 -0.42755509343028214 -0.0
  outer loop
    vertex 5.291527586090129 -2.828380420955987 0.9999999999999999
    vertex 5.54327719506772 -2.2961005941905395 1.4099832412739487e-15
    vertex 5.54327719506772 -2.2961005941905395 0.9999999999999999
  endloop
endfacet
facet normal 0.8577286100002729 -0.5141027441932207 -0.0
  outer loop
    vertex 5.291527586090129 -2.828380420955987 1.4099832412739487e-15
    vertex 4.988817673815272 -3.3334213981176135 0.9999999999999999
    vertex 4.988817673815272 -3.3334213981176135 1.4099832412739487e-15
  endloop
endfacet
facet normal 0.8577286100002729 -0.5141027441932207 -0.0
  outer loop
    vertex 4.988817673815272 -3.3334213981176135 0.9999999999999999
    vertex 5.291527586090129 -2.828380420955987 1.4099832412739487e-15
    vertex 5.291527586090129 -2.828380420955987 0.9999999999999999
  endloop
endfacet
facet normal 0.8032075314806444 -0.5956993044924341 -0.0
  outer loop
    vertex 4.988817673815272 -3.3334213981176135 1.4099832412739487e-15
    vertex 4.638062720176422 -3.806359704981873 0.9999999999999999
    vertex 4.638062720176422 -3.806359704981873 1.4099832412739487e-15
  endloop
endfacet
facet normal 0.8032075314806444 -0.5956993044924341 -0.0
  outer loop
    vertex 4.638062720176422 -3.806359704981873 0.9999999999999999
    vertex 4.988817673815272 -3.3334213981176135 1.4099832412739487e-15
    vertex 4.988817673815272 -3.3334213981176135 0.9999999999999999
  endloop
endfacet
facet normal 0.7409511253549591 -0.6715589548470183 -0.0
  outer loop
    vertex 4.638062720176422 -3.806359704981873 1.4099832412739487e-15
    vertex 4.242640687119285 -4.242640687119286 0.9999999999999999
    vertex 4.242640687119285 -4.242640687119286 1.4099832412739487e-15
  endloop
endfacet
facet normal 0.7409511253549591 -0.6715589548470183 -0.0
  outer loop
    vertex 4.242640687119285 -4.242640687119286 0.9999999999999999
    vertex 4.638062720176422 -3.806359704981873 1.4099832412739487e-15
    vertex 4.638062720176422 -3.806359704981873 0.9999999999999999
  endloop
endfacet
facet normal 0.6715589548470183 -0.7409511253549591 -0.0
  outer loop
    vertex 4.242640687119285 -4.242640687119286 0.9999999999999999
    vertex 3.8063597049818716 -4.638062720176423 1.4099832412739487e-15
    vertex 4.242640687119285 -4.242640687119286 1.4099832412739487e-15
  endloop
endfacet
facet normal 0.6715589548470183 -0.7409511253549591 -0.0
  outer loop
    vertex 3.8063597049818716 -4.638062720176423 1.4099832412739487e-15
    vertex 4.242640687119285 -4.242640687119286 0.9999999999999999
    vertex 3.8063597049818716 -4.638062720176423 0.9999999999999999
  endloop
endfacet
facet normal 0.5956993044924327 -0.8032075314806453 -0.0
  outer loop
    vertex 3.8063597049818716 -4.638062720176423 0.9999999999999999
    vertex 3.3334213981176113 -4.988817673815272 1.4099832412739487e-15
    vertex 3.8063597049818716 -4.638062720176423 1.4099832412739487e-15
  endloop
endfacet
facet normal 0.5956993044924327 -0.8032075314806453 -0.0
  outer loop
    vertex 3.3334213981176113 -4.988817673815272 1.4099832412739487e-15
    vertex 3.8063597049818716 -4.638062720176423 0.9999999999999999
    vertex 3.3334213981176113 -4.988817673815272 0.9999999999999999
  endloop
endfacet
facet normal 0.5141027441932222 -0.8577286100002718 -0.0
  outer loop
    vertex 3.3334213981176113 -4.988817673815272 0.9999999999999999
    vertex 2.828380420955986 -5.2915275860901305 1.4099832412739487e-15
    vertex 3.3334213981176113 -4.988817673815272 1.4099832412739487e-15
  endloop
endfacet
facet normal 0.5141027441932222 -0.8577286100002718 -0.0
  outer loop
    vertex 2.828380420955986 -5.2915275860901305 1.4099832412739487e-15
    vertex 3.3334213981176113 -4.988817673815272 0.9999999999999999
    vertex 2.828380420955986 -5.2915275860901305 0.9999999999999999
  endloop
endfacet
facet normal 0.42755509343028114 -0.9039892931234438 -0.0
  outer loop
    vertex 2.828380420955986 -5.2915275860901305 0.9999999999999999
    vertex 2.296100594190538 -5.54327719506772 1.4099832412739487e-15
    vertex 2.828380420955986 -5.2915275860901305 1.4099832412739487e-15
  endloop
endfacet
facet normal 0.42755509343028114 -0.9039892931234438 -0.0
  outer loop
    vertex 2.296100594190538 -5.54327719506772 1.4099832412739487e-15
    vertex 2.828380420955986 -5.2915275860901305 0.9999999999999999
    vertex 2.296100594190538 -5.54327719506772 0.9999999999999999
  endloop
endfacet
facet normal 0.3368898533922212 -0.9415440651830205 -0.0
  outer loop
    vertex 2.296100594190538 -5.54327719506772 0.9999999999999999
    vertex 1.7417080635267728 -5.741642014393254 1.4099832412739487e-15
    vertex 2.296100594190538 -5.54327719506772 1.4099832412739487e-15
  endloop
endfacet
facet normal 0.3368898533922212 -0.9415440651830205 -0.0
  outer loop
    vertex 1.7417080635267728 -5.741642014393254 1.4099832412739487e-15
    vertex 2.296100594190538 -5.54327719506772 0.9999999999999999
    vertex 1.7417080635267728 -5.741642014393254 0.9999999999999999
  endloop
endfacet
facet normal 0.2429801799032631 -0.9700312531945443 -0.0
  outer loop
    vertex 1.7417080635267728 -5.741642014393254 0.9999999999999999
    vertex 1.170541932096769 -5.884711682419383 1.4099832412739487e-15
    vertex 1.7417080635267728 -5.741642014393254 1.4099832412739487e-15
  endloop
endfacet
facet normal 0.2429801799032631 -0.9700312531945443 -0.0
  outer loop
    vertex 1.170541932096769 -5.884711682419383 1.4099832412739487e-15
    vertex 1.7417080635267728 -5.741642014393254 0.9999999999999999
    vertex 1.170541932096769 -5.884711682419383 0.9999999999999999
  endloop
endfacet
facet normal 0.1467304744553624 -0.989176509964781 -0.0
  outer loop
    vertex 1.170541932096769 -5.884711682419383 0.9999999999999999
    vertex 0.5881028419773638 -5.971108360033182 1.4099832412739487e-15
    vertex 1.170541932096769 -5.884711682419383 1.4099832412739487e-15
  endloop
endfacet
facet normal 0.1467304744553624 -0.989176509964781 -0.0
  outer loop
    vertex 0.5881028419773638 -5.971108360033182 1.4099832412739487e-15
    vertex 1.170541932096769 -5.884711682419383 0.9999999999999999
    vertex 0.5881028419773638 -5.971108360033182 0.9999999999999999
  endloop
endfacet
facet normal 0.049067674327417626 -0.9987954562051724 -0.0
  outer loop
    vertex 0.5881028419773638 -5.971108360033182 0.9999999999999999
    vertex -3.6739403974420594e-16 -6.0 1.4099832412739487e-15
    vertex 0.5881028419773638 -5.971108360033182 1.4099832412739487e-15
  endloop
endfacet
facet normal 0.049067674327417626 -0.9987954562051724 -0.0
  outer loop
    vertex -3.6739403974420594e-16 -6.0 1.4099832412739487e-15
    vertex 0.5881028419773638 -5.971108360033182 0.9999999999999999
    vertex -3.6739403974420594e-16 -6.0 0.9999999999999999
  endloop
endfacet
facet normal -0.04906767432741883 -0.9987954562051725 -0.0
  outer loop
    vertex -3.6739403974420594e-16 -6.0 0.9999999999999999
    vertex -0.5881028419773646 -5.971108360033181 1.4099832412739487e-15
    vertex -3.6739403974420594e-16 -6.0 1.4099832412739487e-15
  endloop
endfacet
facet normal -0.04906767432741883 -0.9987954562051725 -0.0
  outer loop
    vertex -0.5881028419773646 -5.971108360033181 1.4099832412739487e-15
    vertex -3.6739403974420594e-16 -6.0 0.9999999999999999
    vertex -0.5881028419773646 -5.971108360033181 0.9999999999999999
  endloop
endfacet
facet normal -0.1467304744553612 -0.9891765099647811 -0.0
  outer loop
    vertex -0.5881028419773646 -5.971108360033181 0.9999999999999999
    vertex -1.1705419320967698 -5.884711682419383 1.4099832412739487e-15
    vertex -0.5881028419773646 -5.971108360033181 1.4099832412739487e-15
  endloop
endfacet
facet normal -0.1467304744553612 -0.9891765099647811 -0.0
  outer loop
    vertex -1.1705419320967698 -5.884711682419383 1.4099832412739487e-15
    vertex -0.5881028419773646 -5.971108360033181 0.9999999999999999
    vertex -1.1705419320967698 -5.884711682419383 0.9999999999999999
  endloop
endfacet
facet normal -0.242980179903263 -0.9700312531945442 -0.0
  outer loop
    vertex -1.1705419320967698 -5.884711682419383 0.9999999999999999
    vertex -1.7417080635267739 -5.741642014393254 1.4099832412739487e-15
    vertex -1.1705419320967698 -5.884711682419383 1.4099832412739487e-15
  endloop
endfacet
facet normal -0.242980179903263 -0.9700312531945442 -0.0
  outer loop
    vertex -1.7417080635267739 -5.741642014393254 1.4099832412739487e-15
    vertex -1.1705419320967698 -5.884711682419383 0.9999999999999999
    vertex -1.7417080635267739 -5.741642014393254 0.9999999999999999
  endloop
endfacet
facet normal -0.3368898533922214 -0.9415440651830204 -0.0
  outer loop
    vertex -1.7417080635267739 -5.741642014393254 0.9999999999999999
    vertex -2.296100594190539 -5.54327719506772 1.4099832412739487e-15
    vertex -1.7417080635267739 -5.741642014393254 1.4099832412739487e-15
  endloop
endfacet
facet normal -0.3368898533922214 -0.9415440651830204 -0.0
  outer loop
    vertex -2.296100594190539 -5.54327719506772 1.4099832412739487e-15
    vertex -1.7417080635267739 -5.741642014393254 0.9999999999999999
    vertex -2.296100594190539 -5.54327719506772 0.9999999999999999
  endloop
endfacet
facet normal -0.42755509343028214 -0.9039892931234433 -0.0
  outer loop
    vertex -2.296100594190539 -5.54327719506772 0.9999999999999999
    vertex -2.8283804209559866 -5.29152758609013 1.4099832412739487e-15
    vertex -2.296100594190539 -5.54327719506772 1.4099832412739487e-15
  endloop
endfacet
facet normal -0.42755509343028214 -0.9039892931234433 -0.0
  outer loop
    vertex -2.8283804209559866 -5.29152758609013 1.4099832412739487e-15
    vertex -2.296100594190539 -5.54327719506772 0.9999999999999999
    vertex -2.8283804209559866 -5.29152758609013 0.9999999999999999
  endloop
endfacet
facet normal -0.5141027441932217 -0.8577286100002721 -0.0
  outer loop
    vertex -2.8283804209559866 -5.29152758609013 0.9999999999999999
    vertex -3.333421398117613 -4.988817673815272 1.4099832412739487e-15
    vertex -2.8283804209559866 -5.29152758609013 1.4099832412739487e-15
  endloop
endfacet
facet normal -0.5141027441932217 -0.8577286100002721 -0.0
  outer loop
    vertex -3.333421398117613 -4.988817673815272 1.4099832412739487e-15
    vertex -2.8283804209559866 -5.29152758609013 0.9999999999999999
    vertex -3.333421398117613 -4.988817673815272 0.9999999999999999
  endloop
endfacet
facet normal -0.5956993044924341 -0.8032075314806444 -0.0
  outer loop
    vertex -3.333421398117613 -4.988817673815272 0.9999999999999999
    vertex -3.806359704981872 -4.638062720176422 1.4099832412739487e-15
    vertex -3.333421398117613 -4.988817673815272 1.4099832412739487e-15
  endloop
endfacet
facet normal -0.5956993044924341 -0.8032075314806444 -0.0
  outer loop
    vertex -3.806359704981872 -4.638062720176422 1.4099832412739487e-15
    vertex -3.333421398117613 -4.988817673815272 0.9999999999999999
    vertex -3.806359704981872 -4.638062720176422 0.9999999999999999
  endloop
endfacet
facet normal -0.671558954847017 -0.7409511253549603 -0.0
  outer loop
    vertex -3.806359704981872 -4.638062720176422 0.9999999999999999
    vertex -4.242640687119285 -4.242640687119286 1.4099832412739487e-15
    vertex -3.806359704981872 -4.638062720176422 1.4099832412739487e-15
  endloop
endfacet
facet normal -0.671558954847017 -0.7409511253549603 -0.0
  outer loop
    vertex -4.242640687119285 -4.242640687119286 1.4099832412739487e-15
    vertex -3.806359704981872 -4.638062720176422 0.9999999999999999
    vertex -4.242640687119285 -4.242640687119286 0.9999999999999999
  endloop
endfacet
facet normal -0.7409511253549598 -0.6715589548470177 -0.0
  outer loop
    vertex -4.638062720176422 -3.806359704981873 0.9999999999999999
    vertex -4.242640687119285 -4.242640687119286 1.4099832412739487e-15
    vertex -4.242640687119285 -4.242640687119286 0.9999999999999999
  endloop
endfacet
facet normal -0.7409511253549598 -0.6715589548470177 -0.0
  outer loop
    vertex -4.242640687119285 -4.242640687119286 1.4099832412739487e-15
    vertex -4.638062720176422 -3.806359704981873 0.9999999999999999
    vertex -4.638062720176422 -3.806359704981873 1.4099832412739487e-15
  endloop
endfacet
facet normal -0.8032075314806449 -0.5956993044924332 -0.0
  outer loop
    vertex -4.988817673815271 -3.3334213981176135 0.9999999999999999
    vertex -4.638062720176422 -3.806359704981873 1.4099832412739487e-15
    vertex -4.638062720176422 -3.806359704981873 0.9999999999999999
  endloop
endfacet
facet normal -0.8032075314806449 -0.5956993044924332 -0.0
  outer loop
    vertex -4.638062720176422 -3.806359704981873 1.4099832412739487e-15
    vertex -4.988817673815271 -3.3334213981176135 0.9999999999999999
    vertex -4.988817673815271 -3.3334213981176135 1.4099832412739487e-15
  endloop
endfacet
facet normal -0.8577286100002722 -0.5141027441932216 -0.0
  outer loop
    vertex -5.29152758609013 -2.828380420955986 0.9999999999999999
    vertex -4.988817673815271 -3.3334213981176135 1.4099832412739487e-15
    vertex -4.988817673815271 -3.3334213981176135 0.9999999999999999
  endloop
endfacet
facet normal -0.8577286100002722 -0.5141027441932216 -0.0
  outer loop
    vertex -4.988817673815271 -3.3334213981176135 1.4099832412739487e-15
    vertex -5.29152758609013 -2.828380420955986 0.9999999999999999
    vertex -5.29152758609013 -2.828380420955986 1.4099832412739487e-15
  endloop
endfacet
facet normal -0.9039892931234437 -0.4275550934302817 -0.0
  outer loop
    vertex -5.54327719506772 -2.296100594190539 0.9999999999999999
    vertex -5.29152758609013 -2.828380420955986 1.4099832412739487e-15
    vertex -5.29152758609013 -2.828380420955986 0.9999999999999999
  endloop
endfacet
facet normal -0.9039892931234437 -0.4275550934302817 -0.0
  outer loop
    vertex -5.29152758609013 -2.828380420955986 1.4099832412739487e-15
    vertex -5.54327719506772 -2.296100594190539 0.9999999999999999
    vertex -5.54327719506772 -2.296100594190539 1.4099832412739487e-15
  endloop
endfacet
facet normal -0.9415440651830207 -0.3368898533922205 -0.0
  outer loop
    vertex -5.7416420143932525 -1.741708063526774 0.9999999999999999
    vertex -5.54327719506772 -2.296100594190539 1.4099832412739487e-15
    vertex -5.54327719506772 -2.296100594190539 0.9999999999999999
  endloop
endfacet
facet normal -0.9415440651830207 -0.3368898533922205 -0.0
  outer loop
    vertex -5.54327719506772 -2.296100594190539 1.4099832412739487e-15
    vertex -5.7416420143932525 -1.741708063526774 0.9999999999999999
    vertex -5.7416420143932525 -1.741708063526774 1.4099832412739487e-15
  endloop
endfacet
facet normal -0.9700312531945442 -0.2429801799032639 -0.0
  outer loop
    vertex -5.884711682419383 -1.1705419320967696 0.9999999999999999
    vertex -5.7416420143932525 -1.741708063526774 1.4099832412739487e-15
    vertex -5.7416420143932525 -1.741708063526774 0.9999999999999999
  endloop
endfacet
facet normal -0.9700312531945442 -0.2429801799032639 -0.0
  outer loop
    vertex -5.7416420143932525 -1.741708063526774 1.4099832412739487e-15
    vertex -5.884711682419383 -1.1705419320967696 0.9999999999999999
    vertex -5.884711682419383 -1.1705419320967696 1.4099832412739487e-15
  endloop
endfacet
endsolid Шайба-м6х12мм-1мм
