solid Шаркран переходник на шаговый
facet normal -0.0 -0.0 1.0
  outer loop
    vertex -6.598211945181793 -1.163442790368431 10.0
    vertex -6.598211945181793 1.1634427903684355 10.0
    vertex -6.699999999999999 8.205133554287265e-16 10.0
  endloop
endfacet
facet normal -0.0 -0.0 1.0
  outer loop
    vertex -6.598211945181793 1.1634427903684355 10.0
    vertex -6.598211945181793 -1.163442790368431 10.0
    vertex -6.295940559265586 -2.2915349602819797 10.0
  endloop
endfacet
facet normal -0.0 -0.0 1.0
  outer loop
    vertex -6.598211945181793 1.1634427903684355 10.0
    vertex -6.295940559265586 -2.2915349602819797 10.0
    vertex -6.295940559265585 2.291534960281981 10.0
  endloop
endfacet
facet normal -0.0 -0.0 1.0
  outer loop
    vertex -6.295940559265585 2.291534960281981 10.0
    vertex -6.295940559265586 -2.2915349602819797 10.0
    vertex -5.802370205355739 -3.3499999999999974 10.0
  endloop
endfacet
facet normal -0.0 -0.0 1.0
  outer loop
    vertex -6.295940559265585 2.291534960281981 10.0
    vertex -5.802370205355739 -3.3499999999999974 10.0
    vertex -5.802370205355738 3.3499999999999988 10.0
  endloop
endfacet
facet normal -0.0 -0.0 1.0
  outer loop
    vertex -5.802370205355738 3.3499999999999988 10.0
    vertex -5.802370205355739 -3.3499999999999974 10.0
    vertex -5.132497768897152 -4.306676984899812 10.0
  endloop
endfacet
facet normal -0.0 -0.0 1.0
  outer loop
    vertex -5.802370205355738 3.3499999999999988 10.0
    vertex -5.132497768897152 -4.306676984899812 10.0
    vertex -5.132497768897151 4.3066769848998145 10.0
  endloop
endfacet
facet normal -0.0 -0.0 1.0
  outer loop
    vertex -5.132497768897151 4.3066769848998145 10.0
    vertex -5.132497768897152 -4.306676984899812 10.0
    vertex -4.3066769848998145 -5.132497768897151 10.0
  endloop
endfacet
facet normal -0.0 -0.0 1.0
  outer loop
    vertex -5.132497768897151 4.3066769848998145 10.0
    vertex -4.3066769848998145 -5.132497768897151 10.0
    vertex -4.306676984899814 5.132497768897152 10.0
  endloop
endfacet
facet normal -0.0 -0.0 1.0
  outer loop
    vertex -4.306676984899814 5.132497768897152 10.0
    vertex -4.3066769848998145 -5.132497768897151 10.0
    vertex -3.9 4.776122516674677e-16 10.0
  endloop
endfacet
facet normal -0.0 -0.0 1.0
  outer loop
    vertex -3.9 4.776122516674677e-16 10.0
    vertex -4.3066769848998145 -5.132497768897151 10.0
    vertex -3.3500000000000023 -5.802370205355737 10.0
  endloop
endfacet
facet normal -0.0 -0.0 1.0
  outer loop
    vertex -3.9 4.776122516674677e-16 10.0
    vertex -3.3500000000000023 -5.802370205355737 10.0
    vertex -3.767110722527367 -1.0093942758998293 10.0
  endloop
endfacet
facet normal -0.0 -0.0 1.0
  outer loop
    vertex -3.767110722527367 -1.0093942758998293 10.0
    vertex -3.3500000000000023 -5.802370205355737 10.0
    vertex -3.377499074759311 -1.9499999999999988 10.0
  endloop
endfacet
facet normal -0.0 -0.0 1.0
  outer loop
    vertex -3.377499074759311 -1.9499999999999988 10.0
    vertex -3.3500000000000023 -5.802370205355737 10.0
    vertex -2.9554692313708824 -2.5 10.0
  endloop
endfacet
facet normal -0.0 -0.0 1.0
  outer loop
    vertex -2.9554692313708824 -2.5 10.0
    vertex -3.3500000000000023 -5.802370205355737 10.0
    vertex -2.2915349602819846 -6.295940559265585 10.0
  endloop
endfacet
facet normal -0.0 -0.0 1.0
  outer loop
    vertex -2.9554692313708824 -2.5 10.0
    vertex -2.2915349602819846 -6.295940559265585 10.0
    vertex 2.9554692313708824 -2.4999999999999996 10.0
  endloop
endfacet
facet normal -0.0 -0.0 1.0
  outer loop
    vertex 2.9554692313708824 -2.4999999999999996 10.0
    vertex -2.2915349602819846 -6.295940559265585 10.0
    vertex -1.163442790368433 -6.598211945181793 10.0
  endloop
endfacet
facet normal -0.0 -0.0 1.0
  outer loop
    vertex 2.9554692313708824 -2.4999999999999996 10.0
    vertex -1.163442790368433 -6.598211945181793 10.0
    vertex -1.2307700331430897e-15 -6.699999999999999 10.0
  endloop
endfacet
facet normal -0.0 -0.0 1.0
  outer loop
    vertex 2.9554692313708824 -2.4999999999999996 10.0
    vertex -1.2307700331430897e-15 -6.699999999999999 10.0
    vertex 1.1634427903684306 -6.598211945181793 10.0
  endloop
endfacet
facet normal -0.0 -0.0 1.0
  outer loop
    vertex 2.9554692313708824 -2.4999999999999996 10.0
    vertex 1.1634427903684306 -6.598211945181793 10.0
    vertex 2.2915349602819766 -6.295940559265587 10.0
  endloop
endfacet
facet normal -0.0 -0.0 1.0
  outer loop
    vertex 2.9554692313708824 -2.4999999999999996 10.0
    vertex 2.2915349602819766 -6.295940559265587 10.0
    vertex 3.35 -5.802370205355738 10.0
  endloop
endfacet
facet normal -0.0 -0.0 1.0
  outer loop
    vertex 2.9554692313708824 -2.4999999999999996 10.0
    vertex 3.35 -5.802370205355738 10.0
    vertex 3.3774990747593097 -1.9500000000000017 10.0
  endloop
endfacet
facet normal -0.0 -0.0 1.0
  outer loop
    vertex 3.3774990747593097 -1.9500000000000017 10.0
    vertex 3.35 -5.802370205355738 10.0
    vertex 4.306676984899812 -5.132497768897153 10.0
  endloop
endfacet
facet normal -0.0 -0.0 1.0
  outer loop
    vertex 3.3774990747593097 -1.9500000000000017 10.0
    vertex 4.306676984899812 -5.132497768897153 10.0
    vertex 3.7671107225273657 -1.0093942758998342 10.0
  endloop
endfacet
facet normal -0.0 -0.0 1.0
  outer loop
    vertex 3.7671107225273657 -1.0093942758998342 10.0
    vertex 4.306676984899812 -5.132497768897153 10.0
    vertex 3.9 0.0 10.0
  endloop
endfacet
facet normal -0.0 -0.0 1.0
  outer loop
    vertex -3.9 4.776122516674677e-16 10.0
    vertex -3.3499999999999983 5.802370205355738 10.0
    vertex -4.306676984899814 5.132497768897152 10.0
  endloop
endfacet
facet normal -0.0 -0.0 1.0
  outer loop
    vertex -3.3499999999999983 5.802370205355738 10.0
    vertex -3.9 4.776122516674677e-16 10.0
    vertex -3.7671107225273657 1.009394275899832 10.0
  endloop
endfacet
facet normal -0.0 -0.0 1.0
  outer loop
    vertex -3.3499999999999983 5.802370205355738 10.0
    vertex -3.7671107225273657 1.009394275899832 10.0
    vertex -3.3774990747593097 1.9500000000000013 10.0
  endloop
endfacet
facet normal -0.0 -0.0 1.0
  outer loop
    vertex -3.3499999999999983 5.802370205355738 10.0
    vertex -3.3774990747593097 1.9500000000000013 10.0
    vertex -2.9554692313708824 2.5 10.0
  endloop
endfacet
facet normal -0.0 -0.0 1.0
  outer loop
    vertex -3.3499999999999983 5.802370205355738 10.0
    vertex -2.9554692313708824 2.5 10.0
    vertex -2.29153496028198 6.295940559265586 10.0
  endloop
endfacet
facet normal -0.0 -0.0 1.0
  outer loop
    vertex -2.29153496028198 6.295940559265586 10.0
    vertex -2.9554692313708824 2.5 10.0
    vertex 2.9554692313708824 2.4999999999999996 10.0
  endloop
endfacet
facet normal -0.0 -0.0 1.0
  outer loop
    vertex -2.29153496028198 6.295940559265586 10.0
    vertex 2.9554692313708824 2.4999999999999996 10.0
    vertex -1.1634427903684328 6.598211945181793 10.0
  endloop
endfacet
facet normal -0.0 -0.0 1.0
  outer loop
    vertex -1.1634427903684328 6.598211945181793 10.0
    vertex 2.9554692313708824 2.4999999999999996 10.0
    vertex 4.1025667771436323e-16 6.699999999999999 10.0
  endloop
endfacet
facet normal -0.0 -0.0 1.0
  outer loop
    vertex 4.1025667771436323e-16 6.699999999999999 10.0
    vertex 2.9554692313708824 2.4999999999999996 10.0
    vertex 1.1634427903684337 6.598211945181793 10.0
  endloop
endfacet
facet normal -0.0 -0.0 1.0
  outer loop
    vertex 1.1634427903684337 6.598211945181793 10.0
    vertex 2.9554692313708824 2.4999999999999996 10.0
    vertex 2.2915349602819806 6.295940559265585 10.0
  endloop
endfacet
facet normal -0.0 -0.0 1.0
  outer loop
    vertex 2.2915349602819806 6.295940559265585 10.0
    vertex 2.9554692313708824 2.4999999999999996 10.0
    vertex 3.35 5.802370205355738 10.0
  endloop
endfacet
facet normal -0.0 -0.0 1.0
  outer loop
    vertex 3.35 5.802370205355738 10.0
    vertex 2.9554692313708824 2.4999999999999996 10.0
    vertex 3.377499074759311 1.9499999999999995 10.0
  endloop
endfacet
facet normal -0.0 -0.0 1.0
  outer loop
    vertex 3.35 5.802370205355738 10.0
    vertex 3.377499074759311 1.9499999999999995 10.0
    vertex 4.306676984899814 5.132497768897152 10.0
  endloop
endfacet
facet normal -0.0 -0.0 1.0
  outer loop
    vertex 4.306676984899814 5.132497768897152 10.0
    vertex 3.377499074759311 1.9499999999999995 10.0
    vertex 3.7671107225273666 1.0093942758998309 10.0
  endloop
endfacet
facet normal -0.0 -0.0 1.0
  outer loop
    vertex 4.306676984899814 5.132497768897152 10.0
    vertex 3.7671107225273666 1.0093942758998309 10.0
    vertex 3.9 0.0 10.0
  endloop
endfacet
facet normal -0.0 -0.0 1.0
  outer loop
    vertex 4.306676984899814 5.132497768897152 10.0
    vertex 3.9 0.0 10.0
    vertex 4.306676984899812 -5.132497768897153 10.0
  endloop
endfacet
facet normal -0.0 -0.0 1.0
  outer loop
    vertex 4.306676984899814 5.132497768897152 10.0
    vertex 4.306676984899812 -5.132497768897153 10.0
    vertex 5.13249776889715 -4.3066769848998145 10.0
  endloop
endfacet
facet normal -0.0 -0.0 1.0
  outer loop
    vertex 4.306676984899814 5.132497768897152 10.0
    vertex 5.13249776889715 -4.3066769848998145 10.0
    vertex 5.132497768897152 4.306676984899812 10.0
  endloop
endfacet
facet normal -0.0 -0.0 1.0
  outer loop
    vertex 5.132497768897152 4.306676984899812 10.0
    vertex 5.13249776889715 -4.3066769848998145 10.0
    vertex 5.802370205355736 -3.3500000000000023 10.0
  endloop
endfacet
facet normal -0.0 -0.0 1.0
  outer loop
    vertex 5.132497768897152 4.306676984899812 10.0
    vertex 5.802370205355736 -3.3500000000000023 10.0
    vertex 5.802370205355738 3.3499999999999988 10.0
  endloop
endfacet
facet normal -0.0 -0.0 1.0
  outer loop
    vertex 5.802370205355738 3.3499999999999988 10.0
    vertex 5.802370205355736 -3.3500000000000023 10.0
    vertex 6.295940559265583 -2.291534960281985 10.0
  endloop
endfacet
facet normal -0.0 -0.0 1.0
  outer loop
    vertex 5.802370205355738 3.3499999999999988 10.0
    vertex 6.295940559265583 -2.291534960281985 10.0
    vertex 6.295940559265586 2.29153496028198 10.0
  endloop
endfacet
facet normal -0.0 -0.0 1.0
  outer loop
    vertex 6.295940559265586 2.29153496028198 10.0
    vertex 6.295940559265583 -2.291534960281985 10.0
    vertex 6.598211945181793 -1.1634427903684335 10.0
  endloop
endfacet
facet normal -0.0 -0.0 1.0
  outer loop
    vertex 6.295940559265586 2.29153496028198 10.0
    vertex 6.598211945181793 -1.1634427903684335 10.0
    vertex 6.598211945181793 1.163442790368433 10.0
  endloop
endfacet
facet normal -0.0 -0.0 1.0
  outer loop
    vertex 6.598211945181793 1.163442790368433 10.0
    vertex 6.598211945181793 -1.1634427903684335 10.0
    vertex 6.699999999999999 0.0 10.0
  endloop
endfacet
facet normal 0.2588190451025208 0.9659258262890682 3.9980319507823496e-20
  outer loop
    vertex 1.1634427903684337 6.598211945181793 10.0
    vertex 2.2915349602819806 6.295940559265585 -12.0
    vertex 1.1634427903684337 6.598211945181793 -12.0
  endloop
endfacet
facet normal 0.2588190451025208 0.9659258262890682 3.9980319507823496e-20
  outer loop
    vertex 2.2915349602819806 6.295940559265585 -12.0
    vertex 1.1634427903684337 6.598211945181793 10.0
    vertex 2.2915349602819806 6.295940559265585 10.0
  endloop
endfacet
facet normal 0.42261826174069916 0.90630778703665 -4.327888359437952e-34
  outer loop
    vertex 2.2915349602819806 6.295940559265585 10.0
    vertex 3.35 5.802370205355738 -12.0
    vertex 2.2915349602819806 6.295940559265585 -12.0
  endloop
endfacet
facet normal 0.42261826174069916 0.90630778703665 -4.327888359437952e-34
  outer loop
    vertex 3.35 5.802370205355738 -12.0
    vertex 2.2915349602819806 6.295940559265585 10.0
    vertex 3.35 5.802370205355738 10.0
  endloop
endfacet
facet normal 0.573576436351046 0.819152044288992 2.267140516511744e-18
  outer loop
    vertex 3.35 5.802370205355738 10.0
    vertex 4.306676984899814 5.132497768897152 -12.0
    vertex 3.35 5.802370205355738 -12.0
  endloop
endfacet
facet normal 0.573576436351046 0.819152044288992 2.267140516511744e-18
  outer loop
    vertex 4.306676984899814 5.132497768897152 -12.0
    vertex 3.35 5.802370205355738 10.0
    vertex 4.306676984899814 5.132497768897152 10.0
  endloop
endfacet
facet normal 0.7071067811865481 0.707106781186547 -2.896495001964262e-33
  outer loop
    vertex 4.306676984899814 5.132497768897152 -12.0
    vertex 5.132497768897152 4.306676984899812 10.0
    vertex 5.132497768897152 4.306676984899812 -12.0
  endloop
endfacet
facet normal 0.7071067811865481 0.707106781186547 -2.896495001964262e-33
  outer loop
    vertex 5.132497768897152 4.306676984899812 10.0
    vertex 4.306676984899814 5.132497768897152 -12.0
    vertex 4.306676984899814 5.132497768897152 10.0
  endloop
endfacet
facet normal 0.8191520442889916 0.5735764363510467 2.2671405165117407e-18
  outer loop
    vertex 5.132497768897152 4.306676984899812 -12.0
    vertex 5.802370205355738 3.3499999999999988 10.0
    vertex 5.802370205355738 3.3499999999999988 -12.0
  endloop
endfacet
facet normal 0.8191520442889916 0.5735764363510467 2.2671405165117407e-18
  outer loop
    vertex 5.802370205355738 3.3499999999999988 10.0
    vertex 5.132497768897152 4.306676984899812 -12.0
    vertex 5.132497768897152 4.306676984899812 10.0
  endloop
endfacet
facet normal 0.90630778703665 0.4226182617406995 1.0449687058531642e-18
  outer loop
    vertex 5.802370205355738 3.3499999999999988 -12.0
    vertex 6.295940559265586 2.29153496028198 10.0
    vertex 6.295940559265586 2.29153496028198 -12.0
  endloop
endfacet
facet normal 0.90630778703665 0.4226182617406995 1.0449687058531642e-18
  outer loop
    vertex 6.295940559265586 2.29153496028198 10.0
    vertex 5.802370205355738 3.3499999999999988 -12.0
    vertex 5.802370205355738 3.3499999999999988 10.0
  endloop
endfacet
facet normal 0.9659258262890684 0.25881904510252024 -5.968343348240357e-19
  outer loop
    vertex 6.295940559265586 2.29153496028198 -12.0
    vertex 6.598211945181793 1.163442790368433 10.0
    vertex 6.598211945181793 1.163442790368433 -12.0
  endloop
endfacet
facet normal 0.9659258262890684 0.25881904510252024 -5.968343348240357e-19
  outer loop
    vertex 6.598211945181793 1.163442790368433 10.0
    vertex 6.295940559265586 2.29153496028198 -12.0
    vertex 6.295940559265586 2.29153496028198 10.0
  endloop
endfacet
facet normal 0.9961946980917455 0.08715574274765821 5.950213366583338e-35
  outer loop
    vertex 6.598211945181793 1.163442790368433 -12.0
    vertex 6.699999999999999 0.0 10.0
    vertex 6.699999999999999 0.0 -12.0
  endloop
endfacet
facet normal 0.9961946980917455 0.08715574274765821 5.950213366583338e-35
  outer loop
    vertex 6.699999999999999 0.0 10.0
    vertex 6.598211945181793 1.163442790368433 -12.0
    vertex 6.598211945181793 1.163442790368433 10.0
  endloop
endfacet
facet normal 0.9961946980917455 -0.08715574274765817 1.4875533416458338e-35
  outer loop
    vertex 6.699999999999999 0.0 -12.0
    vertex 6.598211945181793 -1.1634427903684335 10.0
    vertex 6.598211945181793 -1.1634427903684335 -12.0
  endloop
endfacet
facet normal 0.9961946980917455 -0.08715574274765817 1.4875533416458338e-35
  outer loop
    vertex 6.598211945181793 -1.1634427903684335 10.0
    vertex 6.699999999999999 0.0 -12.0
    vertex 6.699999999999999 0.0 10.0
  endloop
endfacet
facet normal 0.9659258262890682 -0.2588190451025217 5.968343348240395e-19
  outer loop
    vertex 6.598211945181793 -1.1634427903684335 -12.0
    vertex 6.295940559265583 -2.291534960281985 10.0
    vertex 6.295940559265583 -2.291534960281985 -12.0
  endloop
endfacet
facet normal 0.9659258262890682 -0.2588190451025217 5.968343348240395e-19
  outer loop
    vertex 6.295940559265583 -2.291534960281985 10.0
    vertex 6.598211945181793 -1.1634427903684335 -12.0
    vertex 6.598211945181793 -1.1634427903684335 10.0
  endloop
endfacet
facet normal 0.9063077870366498 -0.42261826174069994 1.0449687058531644e-18
  outer loop
    vertex 6.295940559265583 -2.291534960281985 -12.0
    vertex 5.802370205355736 -3.3500000000000023 10.0
    vertex 5.802370205355736 -3.3500000000000023 -12.0
  endloop
endfacet
facet normal 0.9063077870366498 -0.42261826174069994 1.0449687058531644e-18
  outer loop
    vertex 5.802370205355736 -3.3500000000000023 10.0
    vertex 6.295940559265583 -2.291534960281985 -12.0
    vertex 6.295940559265583 -2.291534960281985 10.0
  endloop
endfacet
facet normal 0.819152044288992 -0.573576436351046 -1.677730906603991e-33
  outer loop
    vertex 5.802370205355736 -3.3500000000000023 -12.0
    vertex 5.13249776889715 -4.3066769848998145 10.0
    vertex 5.13249776889715 -4.3066769848998145 -12.0
  endloop
endfacet
facet normal 0.819152044288992 -0.573576436351046 -1.677730906603991e-33
  outer loop
    vertex 5.13249776889715 -4.3066769848998145 10.0
    vertex 5.802370205355736 -3.3500000000000023 -12.0
    vertex 5.802370205355736 -3.3500000000000023 10.0
  endloop
endfacet
facet normal 0.7071067811865472 -0.7071067811865479 -8.152908632204182e-19
  outer loop
    vertex 5.13249776889715 -4.3066769848998145 10.0
    vertex 4.306676984899812 -5.132497768897153 -12.0
    vertex 5.13249776889715 -4.3066769848998145 -12.0
  endloop
endfacet
facet normal 0.7071067811865472 -0.7071067811865479 -8.152908632204182e-19
  outer loop
    vertex 4.306676984899812 -5.132497768897153 -12.0
    vertex 5.13249776889715 -4.3066769848998145 10.0
    vertex 4.306676984899812 -5.132497768897153 10.0
  endloop
endfacet
facet normal 0.5735764363510463 -0.8191520442889917 2.852490734495516e-33
  outer loop
    vertex 4.306676984899812 -5.132497768897153 10.0
    vertex 3.35 -5.802370205355738 -12.0
    vertex 4.306676984899812 -5.132497768897153 -12.0
  endloop
endfacet
facet normal 0.5735764363510463 -0.8191520442889917 2.852490734495516e-33
  outer loop
    vertex 3.35 -5.802370205355738 -12.0
    vertex 4.306676984899812 -5.132497768897153 10.0
    vertex 3.35 -5.802370205355738 10.0
  endloop
endfacet
facet normal 0.4226182617406989 -0.9063077870366504 1.2983665078313848e-33
  outer loop
    vertex 3.35 -5.802370205355738 10.0
    vertex 2.2915349602819766 -6.295940559265587 -12.0
    vertex 3.35 -5.802370205355738 -12.0
  endloop
endfacet
facet normal 0.4226182617406989 -0.9063077870366504 1.2983665078313848e-33
  outer loop
    vertex 2.2915349602819766 -6.295940559265587 -12.0
    vertex 3.35 -5.802370205355738 10.0
    vertex 2.2915349602819766 -6.295940559265587 10.0
  endloop
endfacet
facet normal 0.2588190451025201 -0.9659258262890685 -5.568540153162185e-19
  outer loop
    vertex 2.2915349602819766 -6.295940559265587 10.0
    vertex 1.1634427903684306 -6.598211945181793 -12.0
    vertex 2.2915349602819766 -6.295940559265587 -12.0
  endloop
endfacet
facet normal 0.2588190451025201 -0.9659258262890685 -5.568540153162185e-19
  outer loop
    vertex 1.1634427903684306 -6.598211945181793 -12.0
    vertex 2.2915349602819766 -6.295940559265587 10.0
    vertex 1.1634427903684306 -6.598211945181793 10.0
  endloop
endfacet
facet normal 0.08715574274765828 -0.9961946980917455 4.462660024937508e-35
  outer loop
    vertex 1.1634427903684306 -6.598211945181793 10.0
    vertex -1.2307700331430897e-15 -6.699999999999999 -12.0
    vertex 1.1634427903684306 -6.598211945181793 -12.0
  endloop
endfacet
facet normal 0.08715574274765828 -0.9961946980917455 4.462660024937508e-35
  outer loop
    vertex -1.2307700331430897e-15 -6.699999999999999 -12.0
    vertex 1.1634427903684306 -6.598211945181793 10.0
    vertex -1.2307700331430897e-15 -6.699999999999999 10.0
  endloop
endfacet
facet normal -0.08715574274765829 -0.9961946980917455 0.0
  outer loop
    vertex -1.2307700331430897e-15 -6.699999999999999 10.0
    vertex -1.163442790368433 -6.598211945181793 -12.0
    vertex -1.2307700331430897e-15 -6.699999999999999 -12.0
  endloop
endfacet
facet normal -0.08715574274765829 -0.9961946980917455 0.0
  outer loop
    vertex -1.163442790368433 -6.598211945181793 -12.0
    vertex -1.2307700331430897e-15 -6.699999999999999 10.0
    vertex -1.163442790368433 -6.598211945181793 10.0
  endloop
endfacet
facet normal -0.2588190451025204 -0.9659258262890684 3.824161910536142e-33
  outer loop
    vertex -1.163442790368433 -6.598211945181793 10.0
    vertex -2.2915349602819846 -6.295940559265585 -12.0
    vertex -1.163442790368433 -6.598211945181793 -12.0
  endloop
endfacet
facet normal -0.2588190451025204 -0.9659258262890684 3.824161910536142e-33
  outer loop
    vertex -2.2915349602819846 -6.295940559265585 -12.0
    vertex -1.163442790368433 -6.598211945181793 10.0
    vertex -2.2915349602819846 -6.295940559265585 10.0
  endloop
endfacet
facet normal -0.42261826174070033 -0.9063077870366496 2.019522525996459e-18
  outer loop
    vertex -2.2915349602819846 -6.295940559265585 10.0
    vertex -3.3500000000000023 -5.802370205355737 -12.0
    vertex -2.2915349602819846 -6.295940559265585 -12.0
  endloop
endfacet
facet normal -0.42261826174070033 -0.9063077870366496 2.019522525996459e-18
  outer loop
    vertex -3.3500000000000023 -5.802370205355737 -12.0
    vertex -2.2915349602819846 -6.295940559265585 10.0
    vertex -3.3500000000000023 -5.802370205355737 10.0
  endloop
endfacet
facet normal -0.5735764363510464 -0.8191520442889915 -5.029710787124649e-34
  outer loop
    vertex -3.3500000000000023 -5.802370205355737 10.0
    vertex -4.3066769848998145 -5.132497768897151 -12.0
    vertex -3.3500000000000023 -5.802370205355737 -12.0
  endloop
endfacet
facet normal -0.5735764363510464 -0.8191520442889915 -5.029710787124649e-34
  outer loop
    vertex -4.3066769848998145 -5.132497768897151 -12.0
    vertex -3.3500000000000023 -5.802370205355737 10.0
    vertex -4.3066769848998145 -5.132497768897151 10.0
  endloop
endfacet
facet normal -0.7071067811865481 -0.707106781186547 2.8964950019642598e-33
  outer loop
    vertex -5.132497768897152 -4.306676984899812 10.0
    vertex -4.3066769848998145 -5.132497768897151 -12.0
    vertex -4.3066769848998145 -5.132497768897151 10.0
  endloop
endfacet
facet normal -0.7071067811865481 -0.707106781186547 2.8964950019642598e-33
  outer loop
    vertex -4.3066769848998145 -5.132497768897151 -12.0
    vertex -5.132497768897152 -4.306676984899812 10.0
    vertex -5.132497768897152 -4.306676984899812 -12.0
  endloop
endfacet
facet normal -0.8191520442889915 -0.5735764363510465 4.530221641099506e-33
  outer loop
    vertex -5.802370205355739 -3.3499999999999974 10.0
    vertex -5.132497768897152 -4.306676984899812 -12.0
    vertex -5.132497768897152 -4.306676984899812 10.0
  endloop
endfacet
facet normal -0.8191520442889915 -0.5735764363510465 4.530221641099506e-33
  outer loop
    vertex -5.132497768897152 -4.306676984899812 -12.0
    vertex -5.802370205355739 -3.3499999999999974 10.0
    vertex -5.802370205355739 -3.3499999999999974 -12.0
  endloop
endfacet
facet normal -0.90630778703665 -0.4226182617406993 9.745538201432965e-19
  outer loop
    vertex -6.295940559265586 -2.2915349602819797 10.0
    vertex -5.802370205355739 -3.3499999999999974 -12.0
    vertex -5.802370205355739 -3.3499999999999974 10.0
  endloop
endfacet
facet normal -0.90630778703665 -0.4226182617406993 9.745538201432965e-19
  outer loop
    vertex -5.802370205355739 -3.3499999999999974 -12.0
    vertex -6.295940559265586 -2.2915349602819797 10.0
    vertex -6.295940559265586 -2.2915349602819797 -12.0
  endloop
endfacet
facet normal -0.9659258262890685 -0.25881904510252 0.0
  outer loop
    vertex -6.598211945181793 -1.163442790368431 10.0
    vertex -6.295940559265586 -2.2915349602819797 -12.0
    vertex -6.295940559265586 -2.2915349602819797 10.0
  endloop
endfacet
facet normal -0.9659258262890685 -0.25881904510252 0.0
  outer loop
    vertex -6.295940559265586 -2.2915349602819797 -12.0
    vertex -6.598211945181793 -1.163442790368431 10.0
    vertex -6.598211945181793 -1.163442790368431 -12.0
  endloop
endfacet
facet normal -0.9961946980917455 -0.08715574274765829 -2.975106683291672e-35
  outer loop
    vertex -6.699999999999999 8.205133554287265e-16 10.0
    vertex -6.598211945181793 -1.163442790368431 -12.0
    vertex -6.598211945181793 -1.163442790368431 10.0
  endloop
endfacet
facet normal -0.9961946980917455 -0.08715574274765829 -2.975106683291672e-35
  outer loop
    vertex -6.598211945181793 -1.163442790368431 -12.0
    vertex -6.699999999999999 8.205133554287265e-16 10.0
    vertex -6.699999999999999 8.205133554287265e-16 -12.0
  endloop
endfacet
facet normal -0.9961946980917455 0.08715574274765808 2.0098034025389728e-19
  outer loop
    vertex -6.598211945181793 1.1634427903684355 10.0
    vertex -6.699999999999999 8.205133554287265e-16 -12.0
    vertex -6.699999999999999 8.205133554287265e-16 10.0
  endloop
endfacet
facet normal -0.9961946980917455 0.08715574274765808 2.0098034025389728e-19
  outer loop
    vertex -6.699999999999999 8.205133554287265e-16 -12.0
    vertex -6.598211945181793 1.1634427903684355 10.0
    vertex -6.598211945181793 1.1634427903684355 -12.0
  endloop
endfacet
facet normal -0.9659258262890682 0.25881904510252113 3.998031950782327e-20
  outer loop
    vertex -6.295940559265585 2.291534960281981 10.0
    vertex -6.598211945181793 1.1634427903684355 -12.0
    vertex -6.598211945181793 1.1634427903684355 10.0
  endloop
endfacet
facet normal -0.9659258262890682 0.25881904510252113 3.998031950782327e-20
  outer loop
    vertex -6.598211945181793 1.1634427903684355 -12.0
    vertex -6.295940559265585 2.291534960281981 10.0
    vertex -6.295940559265585 2.291534960281981 -12.0
  endloop
endfacet
facet normal -0.90630778703665 0.4226182617406993 9.745538201432927e-19
  outer loop
    vertex -5.802370205355738 3.3499999999999988 10.0
    vertex -6.295940559265585 2.291534960281981 -12.0
    vertex -6.295940559265585 2.291534960281981 10.0
  endloop
endfacet
facet normal -0.90630778703665 0.4226182617406993 9.745538201432927e-19
  outer loop
    vertex -6.295940559265585 2.291534960281981 -12.0
    vertex -5.802370205355738 3.3499999999999988 10.0
    vertex -5.802370205355738 3.3499999999999988 -12.0
  endloop
endfacet
facet normal -0.8191520442889918 0.5735764363510462 3.355461813207981e-33
  outer loop
    vertex -5.132497768897151 4.3066769848998145 10.0
    vertex -5.802370205355738 3.3499999999999988 -12.0
    vertex -5.802370205355738 3.3499999999999988 10.0
  endloop
endfacet
facet normal -0.8191520442889918 0.5735764363510462 3.355461813207981e-33
  outer loop
    vertex -5.802370205355738 3.3499999999999988 -12.0
    vertex -5.132497768897151 4.3066769848998145 10.0
    vertex -5.132497768897151 4.3066769848998145 -12.0
  endloop
endfacet
facet normal -0.7071067811865476 0.7071067811865475 -8.152908632204162e-19
  outer loop
    vertex -4.306676984899814 5.132497768897152 10.0
    vertex -5.132497768897151 4.3066769848998145 -12.0
    vertex -5.132497768897151 4.3066769848998145 10.0
  endloop
endfacet
facet normal -0.7071067811865476 0.7071067811865475 -8.152908632204162e-19
  outer loop
    vertex -5.132497768897151 4.3066769848998145 -12.0
    vertex -4.306676984899814 5.132497768897152 10.0
    vertex -4.306676984899814 5.132497768897152 -12.0
  endloop
endfacet
facet normal -0.5735764363510457 0.8191520442889921 9.444785357262142e-19
  outer loop
    vertex -4.306676984899814 5.132497768897152 10.0
    vertex -3.3499999999999983 5.802370205355738 -12.0
    vertex -4.306676984899814 5.132497768897152 -12.0
  endloop
endfacet
facet normal -0.5735764363510457 0.8191520442889921 9.444785357262142e-19
  outer loop
    vertex -3.3499999999999983 5.802370205355738 -12.0
    vertex -4.306676984899814 5.132497768897152 10.0
    vertex -3.3499999999999983 5.802370205355738 10.0
  endloop
endfacet
facet normal -0.42261826174069966 0.9063077870366498 2.019522525996459e-18
  outer loop
    vertex -3.3499999999999983 5.802370205355738 10.0
    vertex -2.29153496028198 6.295940559265586 -12.0
    vertex -3.3499999999999983 5.802370205355738 -12.0
  endloop
endfacet
facet normal -0.42261826174069966 0.9063077870366498 2.019522525996459e-18
  outer loop
    vertex -2.29153496028198 6.295940559265586 -12.0
    vertex -3.3499999999999983 5.802370205355738 10.0
    vertex -2.29153496028198 6.295940559265586 10.0
  endloop
endfacet
facet normal -0.2588190451025203 0.9659258262890684 5.968343348240365e-19
  outer loop
    vertex -2.29153496028198 6.295940559265586 10.0
    vertex -1.1634427903684328 6.598211945181793 -12.0
    vertex -2.29153496028198 6.295940559265586 -12.0
  endloop
endfacet
facet normal -0.2588190451025203 0.9659258262890684 5.968343348240365e-19
  outer loop
    vertex -1.1634427903684328 6.598211945181793 -12.0
    vertex -2.29153496028198 6.295940559265586 10.0
    vertex -1.1634427903684328 6.598211945181793 10.0
  endloop
endfacet
facet normal -0.08715574274765821 0.9961946980917455 7.437766708229174e-35
  outer loop
    vertex -1.1634427903684328 6.598211945181793 10.0
    vertex 4.1025667771436323e-16 6.699999999999999 -12.0
    vertex -1.1634427903684328 6.598211945181793 -12.0
  endloop
endfacet
facet normal -0.08715574274765821 0.9961946980917455 7.437766708229174e-35
  outer loop
    vertex 4.1025667771436323e-16 6.699999999999999 -12.0
    vertex -1.1634427903684328 6.598211945181793 10.0
    vertex 4.1025667771436323e-16 6.699999999999999 10.0
  endloop
endfacet
facet normal 0.08715574274765818 0.9961946980917455 -1.4875533416458344e-35
  outer loop
    vertex 4.1025667771436323e-16 6.699999999999999 10.0
    vertex 1.1634427903684337 6.598211945181793 -12.0
    vertex 4.1025667771436323e-16 6.699999999999999 -12.0
  endloop
endfacet
facet normal 0.08715574274765818 0.9961946980917455 -1.4875533416458344e-35
  outer loop
    vertex 1.1634427903684337 6.598211945181793 -12.0
    vertex 4.1025667771436323e-16 6.699999999999999 10.0
    vertex 1.1634427903684337 6.598211945181793 10.0
  endloop
endfacet
facet normal 0.7933533402912355 0.6087614290087202 0.0
  outer loop
    vertex -3.377499074759311 -1.9499999999999988 0.0
    vertex -2.9554692313708824 -2.5 10.0
    vertex -2.9554692313708824 -2.5 0.0
  endloop
endfacet
facet normal 0.7933533402912355 0.6087614290087202 0.0
  outer loop
    vertex -2.9554692313708824 -2.5 10.0
    vertex -3.377499074759311 -1.9499999999999988 0.0
    vertex -3.377499074759311 -1.9499999999999988 10.0
  endloop
endfacet
facet normal -5.963449163620347e-17 1.0 1.1044737448185504e-33
  outer loop
    vertex -2.9554692313708824 -2.5 10.0
    vertex 2.9554692313708824 -2.4999999999999996 0.0
    vertex -2.9554692313708824 -2.5 0.0
  endloop
endfacet
facet normal -5.963449163620347e-17 1.0 1.1044737448185504e-33
  outer loop
    vertex 2.9554692313708824 -2.4999999999999996 0.0
    vertex -2.9554692313708824 -2.5 10.0
    vertex 2.9554692313708824 -2.4999999999999996 10.0
  endloop
endfacet
facet normal -0.7933533402912349 0.6087614290087212 0.0
  outer loop
    vertex 3.3774990747593097 -1.9500000000000017 10.0
    vertex 2.9554692313708824 -2.4999999999999996 0.0
    vertex 2.9554692313708824 -2.4999999999999996 10.0
  endloop
endfacet
facet normal -0.7933533402912349 0.6087614290087212 0.0
  outer loop
    vertex 2.9554692313708824 -2.4999999999999996 0.0
    vertex 3.3774990747593097 -1.9500000000000017 10.0
    vertex 3.3774990747593097 -1.9500000000000017 0.0
  endloop
endfacet
facet normal -0.9238795325112864 0.3826834323650906 0.0
  outer loop
    vertex 3.7671107225273657 -1.0093942758998342 10.0
    vertex 3.3774990747593097 -1.9500000000000017 0.0
    vertex 3.3774990747593097 -1.9500000000000017 10.0
  endloop
endfacet
facet normal -0.9238795325112864 0.3826834323650906 0.0
  outer loop
    vertex 3.3774990747593097 -1.9500000000000017 0.0
    vertex 3.7671107225273657 -1.0093942758998342 10.0
    vertex 3.7671107225273657 -1.0093942758998342 0.0
  endloop
endfacet
facet normal -0.9914448613738104 0.13052619222005174 0.0
  outer loop
    vertex 3.9 0.0 10.0
    vertex 3.7671107225273657 -1.0093942758998342 0.0
    vertex 3.7671107225273657 -1.0093942758998342 10.0
  endloop
endfacet
facet normal -0.9914448613738104 0.13052619222005174 0.0
  outer loop
    vertex 3.7671107225273657 -1.0093942758998342 0.0
    vertex 3.9 0.0 10.0
    vertex 3.9 0.0 0.0
  endloop
endfacet
facet normal -0.9914448613738105 -0.1305261922200515 -0.0
  outer loop
    vertex 3.7671107225273666 1.0093942758998309 10.0
    vertex 3.9 0.0 0.0
    vertex 3.9 0.0 10.0
  endloop
endfacet
facet normal -0.9914448613738105 -0.1305261922200515 -0.0
  outer loop
    vertex 3.9 0.0 0.0
    vertex 3.7671107225273666 1.0093942758998309 10.0
    vertex 3.7671107225273666 1.0093942758998309 0.0
  endloop
endfacet
facet normal -0.9238795325112868 -0.3826834323650896 -0.0
  outer loop
    vertex 3.377499074759311 1.9499999999999995 10.0
    vertex 3.7671107225273666 1.0093942758998309 0.0
    vertex 3.7671107225273666 1.0093942758998309 10.0
  endloop
endfacet
facet normal -0.9238795325112868 -0.3826834323650896 -0.0
  outer loop
    vertex 3.7671107225273666 1.0093942758998309 0.0
    vertex 3.377499074759311 1.9499999999999995 10.0
    vertex 3.377499074759311 1.9499999999999995 0.0
  endloop
endfacet
facet normal -0.7933533402912349 -0.6087614290087209 -0.0
  outer loop
    vertex 2.9554692313708824 2.4999999999999996 10.0
    vertex 3.377499074759311 1.9499999999999995 0.0
    vertex 3.377499074759311 1.9499999999999995 10.0
  endloop
endfacet
facet normal -0.7933533402912349 -0.6087614290087209 -0.0
  outer loop
    vertex 3.377499074759311 1.9499999999999995 0.0
    vertex 2.9554692313708824 2.4999999999999996 10.0
    vertex 2.9554692313708824 2.4999999999999996 0.0
  endloop
endfacet
facet normal -5.963449163620347e-17 -1.0 -2.2089474896371008e-33
  outer loop
    vertex 2.9554692313708824 2.4999999999999996 10.0
    vertex -2.9554692313708824 2.5 0.0
    vertex 2.9554692313708824 2.4999999999999996 0.0
  endloop
endfacet
facet normal -5.963449163620347e-17 -1.0 -2.2089474896371008e-33
  outer loop
    vertex -2.9554692313708824 2.5 0.0
    vertex 2.9554692313708824 2.4999999999999996 10.0
    vertex -2.9554692313708824 2.5 10.0
  endloop
endfacet
facet normal 0.7933533402912352 -0.6087614290087207 0.0
  outer loop
    vertex -2.9554692313708824 2.5 0.0
    vertex -3.3774990747593097 1.9500000000000013 10.0
    vertex -3.3774990747593097 1.9500000000000013 0.0
  endloop
endfacet
facet normal 0.7933533402912352 -0.6087614290087207 0.0
  outer loop
    vertex -3.3774990747593097 1.9500000000000013 10.0
    vertex -2.9554692313708824 2.5 0.0
    vertex -2.9554692313708824 2.5 10.0
  endloop
endfacet
facet normal 0.9238795325112867 -0.38268343236509 0.0
  outer loop
    vertex -3.3774990747593097 1.9500000000000013 0.0
    vertex -3.7671107225273657 1.009394275899832 10.0
    vertex -3.7671107225273657 1.009394275899832 0.0
  endloop
endfacet
facet normal 0.9238795325112867 -0.38268343236509 0.0
  outer loop
    vertex -3.7671107225273657 1.009394275899832 10.0
    vertex -3.3774990747593097 1.9500000000000013 0.0
    vertex -3.3774990747593097 1.9500000000000013 10.0
  endloop
endfacet
facet normal 0.9914448613738105 -0.1305261922200521 0.0
  outer loop
    vertex -3.7671107225273657 1.009394275899832 0.0
    vertex -3.9 4.776122516674677e-16 10.0
    vertex -3.9 4.776122516674677e-16 0.0
  endloop
endfacet
facet normal 0.9914448613738105 -0.1305261922200521 0.0
  outer loop
    vertex -3.9 4.776122516674677e-16 10.0
    vertex -3.7671107225273657 1.009394275899832 0.0
    vertex -3.7671107225273657 1.009394275899832 10.0
  endloop
endfacet
facet normal 0.9914448613738106 0.13052619222005094 0.0
  outer loop
    vertex -3.9 4.776122516674677e-16 0.0
    vertex -3.767110722527367 -1.0093942758998293 10.0
    vertex -3.767110722527367 -1.0093942758998293 0.0
  endloop
endfacet
facet normal 0.9914448613738106 0.13052619222005094 0.0
  outer loop
    vertex -3.767110722527367 -1.0093942758998293 10.0
    vertex -3.9 4.776122516674677e-16 0.0
    vertex -3.9 4.776122516674677e-16 10.0
  endloop
endfacet
facet normal 0.9238795325112868 0.38268343236509 0.0
  outer loop
    vertex -3.767110722527367 -1.0093942758998293 0.0
    vertex -3.377499074759311 -1.9499999999999988 10.0
    vertex -3.377499074759311 -1.9499999999999988 0.0
  endloop
endfacet
facet normal 0.9238795325112868 0.38268343236509 0.0
  outer loop
    vertex -3.377499074759311 -1.9499999999999988 10.0
    vertex -3.767110722527367 -1.0093942758998293 0.0
    vertex -3.767110722527367 -1.0093942758998293 10.0
  endloop
endfacet
facet normal -0.0 -0.0 1.0
  outer loop
    vertex -3.767110722527367 -1.0093942758998293 0.0
    vertex -3.7671107225273657 1.009394275899832 0.0
    vertex -3.9 4.776122516674677e-16 0.0
  endloop
endfacet
facet normal -0.0 -0.0 1.0
  outer loop
    vertex -3.7671107225273657 1.009394275899832 0.0
    vertex -3.767110722527367 -1.0093942758998293 0.0
    vertex -3.377499074759311 -1.9499999999999988 0.0
  endloop
endfacet
facet normal -0.0 -0.0 1.0
  outer loop
    vertex -3.7671107225273657 1.009394275899832 0.0
    vertex -3.377499074759311 -1.9499999999999988 0.0
    vertex -3.3774990747593097 1.9500000000000013 0.0
  endloop
endfacet
facet normal -0.0 -0.0 1.0
  outer loop
    vertex -3.3774990747593097 1.9500000000000013 0.0
    vertex -3.377499074759311 -1.9499999999999988 0.0
    vertex -2.9554692313708824 -2.5 0.0
  endloop
endfacet
facet normal -0.0 -0.0 1.0
  outer loop
    vertex -3.3774990747593097 1.9500000000000013 0.0
    vertex -2.9554692313708824 -2.5 0.0
    vertex -2.9554692313708824 2.5 0.0
  endloop
endfacet
facet normal -0.0 -0.0 1.0
  outer loop
    vertex -2.9554692313708824 2.5 0.0
    vertex -2.9554692313708824 -2.5 0.0
    vertex -2.46201938253052 -0.4341204441673258 0.0
  endloop
endfacet
facet normal -0.0 -0.0 1.0
  outer loop
    vertex -2.46201938253052 -0.4341204441673258 0.0
    vertex -2.9554692313708824 -2.5 0.0
    vertex -2.3492315519647713 -0.8550503583141718 0.0
  endloop
endfacet
facet normal -0.0 -0.0 1.0
  outer loop
    vertex -2.3492315519647713 -0.8550503583141718 0.0
    vertex -2.9554692313708824 -2.5 0.0
    vertex -2.165063509461097 -1.2499999999999998 0.0
  endloop
endfacet
facet normal -0.0 -0.0 1.0
  outer loop
    vertex -2.165063509461097 -1.2499999999999998 0.0
    vertex -2.9554692313708824 -2.5 0.0
    vertex -1.9900116249086688 -1.5 0.0
  endloop
endfacet
facet normal -0.0 -0.0 1.0
  outer loop
    vertex -1.9900116249086688 -1.5 0.0
    vertex -2.9554692313708824 -2.5 0.0
    vertex 2.9554692313708824 -2.4999999999999996 0.0
  endloop
endfacet
facet normal -0.0 -0.0 1.0
  outer loop
    vertex -2.9554692313708824 2.5 0.0
    vertex -2.46201938253052 -0.4341204441673258 0.0
    vertex -2.5 0.0 0.0
  endloop
endfacet
facet normal -0.0 -0.0 1.0
  outer loop
    vertex -1.9900116249086688 -1.5 0.0
    vertex 2.9554692313708824 -2.4999999999999996 0.0
    vertex 1.9900116249086688 -1.5 0.0
  endloop
endfacet
facet normal -0.0 -0.0 1.0
  outer loop
    vertex 1.9900116249086688 -1.5 0.0
    vertex 2.9554692313708824 -2.4999999999999996 0.0
    vertex 2.165063509461097 -1.2499999999999998 0.0
  endloop
endfacet
facet normal -0.0 -0.0 1.0
  outer loop
    vertex 2.165063509461097 -1.2499999999999998 0.0
    vertex 2.9554692313708824 -2.4999999999999996 0.0
    vertex 2.349231551964771 -0.8550503583141722 0.0
  endloop
endfacet
facet normal -0.0 -0.0 1.0
  outer loop
    vertex 2.349231551964771 -0.8550503583141722 0.0
    vertex 2.9554692313708824 -2.4999999999999996 0.0
    vertex 2.46201938253052 -0.4341204441673267 0.0
  endloop
endfacet
facet normal -0.0 -0.0 1.0
  outer loop
    vertex 2.46201938253052 -0.4341204441673267 0.0
    vertex 2.9554692313708824 -2.4999999999999996 0.0
    vertex 2.5 -3.061616997868383e-16 0.0
  endloop
endfacet
facet normal -0.0 -0.0 1.0
  outer loop
    vertex -2.9554692313708824 2.5 0.0
    vertex -1.9900116249086688 1.5 0.0
    vertex 2.9554692313708824 2.4999999999999996 0.0
  endloop
endfacet
facet normal -0.0 -0.0 1.0
  outer loop
    vertex -1.9900116249086688 1.5 0.0
    vertex -2.9554692313708824 2.5 0.0
    vertex -2.165063509461096 1.250000000000001 0.0
  endloop
endfacet
facet normal -0.0 -0.0 1.0
  outer loop
    vertex -2.165063509461096 1.250000000000001 0.0
    vertex -2.9554692313708824 2.5 0.0
    vertex -2.34923155196477 0.8550503583141736 0.0
  endloop
endfacet
facet normal -0.0 -0.0 1.0
  outer loop
    vertex -2.34923155196477 0.8550503583141736 0.0
    vertex -2.9554692313708824 2.5 0.0
    vertex -2.46201938253052 0.434120444167326 0.0
  endloop
endfacet
facet normal -0.0 -0.0 1.0
  outer loop
    vertex -2.46201938253052 0.434120444167326 0.0
    vertex -2.9554692313708824 2.5 0.0
    vertex -2.5 0.0 0.0
  endloop
endfacet
facet normal -0.0 -0.0 1.0
  outer loop
    vertex 2.9554692313708824 2.4999999999999996 0.0
    vertex -1.9900116249086688 1.5 0.0
    vertex 1.9900116249086688 1.5 0.0
  endloop
endfacet
facet normal -0.0 -0.0 1.0
  outer loop
    vertex 2.9554692313708824 2.4999999999999996 0.0
    vertex 1.9900116249086688 1.5 0.0
    vertex 2.1650635094610973 1.2499999999999993 0.0
  endloop
endfacet
facet normal -0.0 -0.0 1.0
  outer loop
    vertex 2.9554692313708824 2.4999999999999996 0.0
    vertex 2.1650635094610973 1.2499999999999993 0.0
    vertex 2.3492315519647713 0.8550503583141718 0.0
  endloop
endfacet
facet normal -0.0 -0.0 1.0
  outer loop
    vertex 2.9554692313708824 2.4999999999999996 0.0
    vertex 2.3492315519647713 0.8550503583141718 0.0
    vertex 2.4620193825305203 0.4341204441673251 0.0
  endloop
endfacet
facet normal -0.0 -0.0 1.0
  outer loop
    vertex 2.9554692313708824 2.4999999999999996 0.0
    vertex 2.4620193825305203 0.4341204441673251 0.0
    vertex 2.5 -3.061616997868383e-16 0.0
  endloop
endfacet
facet normal -0.0 -0.0 1.0
  outer loop
    vertex 2.9554692313708824 2.4999999999999996 0.0
    vertex 2.5 -3.061616997868383e-16 0.0
    vertex 2.9554692313708824 -2.4999999999999996 0.0
  endloop
endfacet
facet normal -0.0 -0.0 1.0
  outer loop
    vertex 2.9554692313708824 2.4999999999999996 0.0
    vertex 2.9554692313708824 -2.4999999999999996 0.0
    vertex 3.3774990747593097 -1.9500000000000017 0.0
  endloop
endfacet
facet normal -0.0 -0.0 1.0
  outer loop
    vertex 2.9554692313708824 2.4999999999999996 0.0
    vertex 3.3774990747593097 -1.9500000000000017 0.0
    vertex 3.377499074759311 1.9499999999999995 0.0
  endloop
endfacet
facet normal -0.0 -0.0 1.0
  outer loop
    vertex 3.377499074759311 1.9499999999999995 0.0
    vertex 3.3774990747593097 -1.9500000000000017 0.0
    vertex 3.7671107225273657 -1.0093942758998342 0.0
  endloop
endfacet
facet normal -0.0 -0.0 1.0
  outer loop
    vertex 3.377499074759311 1.9499999999999995 0.0
    vertex 3.7671107225273657 -1.0093942758998342 0.0
    vertex 3.7671107225273666 1.0093942758998309 0.0
  endloop
endfacet
facet normal -0.0 -0.0 1.0
  outer loop
    vertex 3.7671107225273666 1.0093942758998309 0.0
    vertex 3.7671107225273657 -1.0093942758998342 0.0
    vertex 3.9 0.0 0.0
  endloop
endfacet
facet normal -2.4973064178900175e-31 1.8699043129028697e-31 -1.0
  outer loop
    vertex -2.29153496028198 6.295940559265586 -12.0
    vertex -2.5 0.0 -12.0
    vertex -3.3499999999999983 5.802370205355738 -12.0
  endloop
endfacet
facet normal -2.4973064178900175e-31 1.8699043129028697e-31 -1.0
  outer loop
    vertex -2.5 0.0 -12.0
    vertex -2.29153496028198 6.295940559265586 -12.0
    vertex -2.46201938253052 0.434120444167326 -12.0
  endloop
endfacet
facet normal -2.4973064178900175e-31 1.8699043129028697e-31 -1.0
  outer loop
    vertex -2.46201938253052 0.434120444167326 -12.0
    vertex -2.29153496028198 6.295940559265586 -12.0
    vertex -2.34923155196477 0.8550503583141736 -12.0
  endloop
endfacet
facet normal -2.4973064178900175e-31 1.8699043129028697e-31 -1.0
  outer loop
    vertex -2.34923155196477 0.8550503583141736 -12.0
    vertex -2.29153496028198 6.295940559265586 -12.0
    vertex -2.165063509461096 1.250000000000001 -12.0
  endloop
endfacet
facet normal -2.4973064178900175e-31 1.8699043129028697e-31 -1.0
  outer loop
    vertex -2.165063509461096 1.250000000000001 -12.0
    vertex -2.29153496028198 6.295940559265586 -12.0
    vertex -1.1634427903684328 6.598211945181793 -12.0
  endloop
endfacet
facet normal -2.4973064178900175e-31 1.8699043129028697e-31 -1.0
  outer loop
    vertex -2.165063509461096 1.250000000000001 -12.0
    vertex -1.1634427903684328 6.598211945181793 -12.0
    vertex -1.9900116249086688 1.5 -12.0
  endloop
endfacet
facet normal -2.4973064178900175e-31 1.8699043129028697e-31 -1.0
  outer loop
    vertex -1.9900116249086688 1.5 -12.0
    vertex -1.1634427903684328 6.598211945181793 -12.0
    vertex 1.9900116249086688 1.5 -12.0
  endloop
endfacet
facet normal -2.4973064178900175e-31 1.8699043129028697e-31 -1.0
  outer loop
    vertex 1.9900116249086688 1.5 -12.0
    vertex -1.1634427903684328 6.598211945181793 -12.0
    vertex 4.1025667771436323e-16 6.699999999999999 -12.0
  endloop
endfacet
facet normal -2.4973064178900175e-31 1.8699043129028697e-31 -1.0
  outer loop
    vertex 1.9900116249086688 1.5 -12.0
    vertex 4.1025667771436323e-16 6.699999999999999 -12.0
    vertex 1.1634427903684337 6.598211945181793 -12.0
  endloop
endfacet
facet normal -2.4973064178900175e-31 1.8699043129028697e-31 -1.0
  outer loop
    vertex 1.9900116249086688 1.5 -12.0
    vertex 1.1634427903684337 6.598211945181793 -12.0
    vertex 2.2915349602819806 6.295940559265585 -12.0
  endloop
endfacet
facet normal -2.4973064178900175e-31 1.8699043129028697e-31 -1.0
  outer loop
    vertex 1.9900116249086688 1.5 -12.0
    vertex 2.2915349602819806 6.295940559265585 -12.0
    vertex 2.1650635094610973 1.2499999999999993 -12.0
  endloop
endfacet
facet normal -2.4973064178900175e-31 1.8699043129028697e-31 -1.0
  outer loop
    vertex 2.1650635094610973 1.2499999999999993 -12.0
    vertex 2.2915349602819806 6.295940559265585 -12.0
    vertex 2.3492315519647713 0.8550503583141718 -12.0
  endloop
endfacet
facet normal -2.4973064178900175e-31 1.8699043129028697e-31 -1.0
  outer loop
    vertex 2.3492315519647713 0.8550503583141718 -12.0
    vertex 2.2915349602819806 6.295940559265585 -12.0
    vertex 3.35 5.802370205355738 -12.0
  endloop
endfacet
facet normal -2.4973064178900175e-31 1.8699043129028697e-31 -1.0
  outer loop
    vertex 2.3492315519647713 0.8550503583141718 -12.0
    vertex 3.35 5.802370205355738 -12.0
    vertex 2.4620193825305203 0.4341204441673251 -12.0
  endloop
endfacet
facet normal -2.4973064178900175e-31 1.8699043129028697e-31 -1.0
  outer loop
    vertex 2.4620193825305203 0.4341204441673251 -12.0
    vertex 3.35 5.802370205355738 -12.0
    vertex 2.5 -3.061616997868383e-16 -12.0
  endloop
endfacet
facet normal -2.4973064178900175e-31 1.8699043129028697e-31 -1.0
  outer loop
    vertex -6.598211945181793 1.1634427903684355 -12.0
    vertex -6.598211945181793 -1.163442790368431 -12.0
    vertex -6.699999999999999 8.205133554287265e-16 -12.0
  endloop
endfacet
facet normal -2.4973064178900175e-31 1.8699043129028697e-31 -1.0
  outer loop
    vertex -6.598211945181793 -1.163442790368431 -12.0
    vertex -6.598211945181793 1.1634427903684355 -12.0
    vertex -6.295940559265585 2.291534960281981 -12.0
  endloop
endfacet
facet normal -2.4973064178900175e-31 1.8699043129028697e-31 -1.0
  outer loop
    vertex -6.598211945181793 -1.163442790368431 -12.0
    vertex -6.295940559265585 2.291534960281981 -12.0
    vertex -6.295940559265586 -2.2915349602819797 -12.0
  endloop
endfacet
facet normal -2.4973064178900175e-31 1.8699043129028697e-31 -1.0
  outer loop
    vertex -6.295940559265586 -2.2915349602819797 -12.0
    vertex -6.295940559265585 2.291534960281981 -12.0
    vertex -5.802370205355739 -3.3499999999999974 -12.0
  endloop
endfacet
facet normal -2.4973064178900175e-31 1.8699043129028697e-31 -1.0
  outer loop
    vertex -5.802370205355739 -3.3499999999999974 -12.0
    vertex -6.295940559265585 2.291534960281981 -12.0
    vertex -5.802370205355738 3.3499999999999988 -12.0
  endloop
endfacet
facet normal -2.4973064178900175e-31 1.8699043129028697e-31 -1.0
  outer loop
    vertex -5.802370205355739 -3.3499999999999974 -12.0
    vertex -5.802370205355738 3.3499999999999988 -12.0
    vertex -5.132497768897152 -4.306676984899812 -12.0
  endloop
endfacet
facet normal -2.4973064178900175e-31 1.8699043129028697e-31 -1.0
  outer loop
    vertex -5.132497768897152 -4.306676984899812 -12.0
    vertex -5.802370205355738 3.3499999999999988 -12.0
    vertex -5.132497768897151 4.3066769848998145 -12.0
  endloop
endfacet
facet normal -2.4973064178900175e-31 1.8699043129028697e-31 -1.0
  outer loop
    vertex -5.132497768897152 -4.306676984899812 -12.0
    vertex -5.132497768897151 4.3066769848998145 -12.0
    vertex -4.3066769848998145 -5.132497768897151 -12.0
  endloop
endfacet
facet normal -2.4973064178900175e-31 1.8699043129028697e-31 -1.0
  outer loop
    vertex -4.3066769848998145 -5.132497768897151 -12.0
    vertex -5.132497768897151 4.3066769848998145 -12.0
    vertex -4.306676984899814 5.132497768897152 -12.0
  endloop
endfacet
facet normal -2.4973064178900175e-31 1.8699043129028697e-31 -1.0
  outer loop
    vertex -4.3066769848998145 -5.132497768897151 -12.0
    vertex -4.306676984899814 5.132497768897152 -12.0
    vertex -3.3500000000000023 -5.802370205355737 -12.0
  endloop
endfacet
facet normal -2.4973064178900175e-31 1.8699043129028697e-31 -1.0
  outer loop
    vertex -3.3500000000000023 -5.802370205355737 -12.0
    vertex -4.306676984899814 5.132497768897152 -12.0
    vertex -3.3499999999999983 5.802370205355738 -12.0
  endloop
endfacet
facet normal -2.4973064178900175e-31 1.8699043129028697e-31 -1.0
  outer loop
    vertex -3.3500000000000023 -5.802370205355737 -12.0
    vertex -3.3499999999999983 5.802370205355738 -12.0
    vertex -2.2915349602819846 -6.295940559265585 -12.0
  endloop
endfacet
facet normal -2.4973064178900175e-31 1.8699043129028697e-31 -1.0
  outer loop
    vertex -2.2915349602819846 -6.295940559265585 -12.0
    vertex -3.3499999999999983 5.802370205355738 -12.0
    vertex -2.5 0.0 -12.0
  endloop
endfacet
facet normal -2.4973064178900175e-31 1.8699043129028697e-31 -1.0
  outer loop
    vertex -2.2915349602819846 -6.295940559265585 -12.0
    vertex -2.5 0.0 -12.0
    vertex -2.46201938253052 -0.4341204441673258 -12.0
  endloop
endfacet
facet normal -2.4973064178900175e-31 1.8699043129028697e-31 -1.0
  outer loop
    vertex -2.2915349602819846 -6.295940559265585 -12.0
    vertex -2.46201938253052 -0.4341204441673258 -12.0
    vertex -2.3492315519647713 -0.8550503583141718 -12.0
  endloop
endfacet
facet normal -2.4973064178900175e-31 1.8699043129028697e-31 -1.0
  outer loop
    vertex -2.2915349602819846 -6.295940559265585 -12.0
    vertex -2.3492315519647713 -0.8550503583141718 -12.0
    vertex -2.165063509461097 -1.2499999999999998 -12.0
  endloop
endfacet
facet normal -2.4973064178900175e-31 1.8699043129028697e-31 -1.0
  outer loop
    vertex -2.2915349602819846 -6.295940559265585 -12.0
    vertex -2.165063509461097 -1.2499999999999998 -12.0
    vertex -1.163442790368433 -6.598211945181793 -12.0
  endloop
endfacet
facet normal -2.4973064178900175e-31 1.8699043129028697e-31 -1.0
  outer loop
    vertex -1.163442790368433 -6.598211945181793 -12.0
    vertex -2.165063509461097 -1.2499999999999998 -12.0
    vertex -1.9900116249086688 -1.5 -12.0
  endloop
endfacet
facet normal -2.4973064178900175e-31 1.8699043129028697e-31 -1.0
  outer loop
    vertex -1.163442790368433 -6.598211945181793 -12.0
    vertex -1.9900116249086688 -1.5 -12.0
    vertex 1.9900116249086688 -1.5 -12.0
  endloop
endfacet
facet normal -2.4973064178900175e-31 1.8699043129028697e-31 -1.0
  outer loop
    vertex -1.163442790368433 -6.598211945181793 -12.0
    vertex 1.9900116249086688 -1.5 -12.0
    vertex -1.2307700331430897e-15 -6.699999999999999 -12.0
  endloop
endfacet
facet normal -2.4973064178900175e-31 1.8699043129028697e-31 -1.0
  outer loop
    vertex -1.2307700331430897e-15 -6.699999999999999 -12.0
    vertex 1.9900116249086688 -1.5 -12.0
    vertex 1.1634427903684306 -6.598211945181793 -12.0
  endloop
endfacet
facet normal -2.4973064178900175e-31 1.8699043129028697e-31 -1.0
  outer loop
    vertex 1.1634427903684306 -6.598211945181793 -12.0
    vertex 1.9900116249086688 -1.5 -12.0
    vertex 2.2915349602819766 -6.295940559265587 -12.0
  endloop
endfacet
facet normal -2.4973064178900175e-31 1.8699043129028697e-31 -1.0
  outer loop
    vertex 2.2915349602819766 -6.295940559265587 -12.0
    vertex 1.9900116249086688 -1.5 -12.0
    vertex 2.165063509461097 -1.2499999999999998 -12.0
  endloop
endfacet
facet normal -2.4973064178900175e-31 1.8699043129028697e-31 -1.0
  outer loop
    vertex 2.2915349602819766 -6.295940559265587 -12.0
    vertex 2.165063509461097 -1.2499999999999998 -12.0
    vertex 2.349231551964771 -0.8550503583141722 -12.0
  endloop
endfacet
facet normal -2.4973064178900175e-31 1.8699043129028697e-31 -1.0
  outer loop
    vertex 2.2915349602819766 -6.295940559265587 -12.0
    vertex 2.349231551964771 -0.8550503583141722 -12.0
    vertex 3.35 -5.802370205355738 -12.0
  endloop
endfacet
facet normal -2.4973064178900175e-31 1.8699043129028697e-31 -1.0
  outer loop
    vertex 3.35 -5.802370205355738 -12.0
    vertex 2.349231551964771 -0.8550503583141722 -12.0
    vertex 2.46201938253052 -0.4341204441673267 -12.0
  endloop
endfacet
facet normal -2.4973064178900175e-31 1.8699043129028697e-31 -1.0
  outer loop
    vertex 3.35 -5.802370205355738 -12.0
    vertex 2.46201938253052 -0.4341204441673267 -12.0
    vertex 2.5 -3.061616997868383e-16 -12.0
  endloop
endfacet
facet normal -2.4973064178900175e-31 1.8699043129028697e-31 -1.0
  outer loop
    vertex 3.35 -5.802370205355738 -12.0
    vertex 2.5 -3.061616997868383e-16 -12.0
    vertex 3.35 5.802370205355738 -12.0
  endloop
endfacet
facet normal -2.4973064178900175e-31 1.8699043129028697e-31 -1.0
  outer loop
    vertex 3.35 -5.802370205355738 -12.0
    vertex 3.35 5.802370205355738 -12.0
    vertex 4.306676984899814 5.132497768897152 -12.0
  endloop
endfacet
facet normal -2.4973064178900175e-31 1.8699043129028697e-31 -1.0
  outer loop
    vertex 3.35 -5.802370205355738 -12.0
    vertex 4.306676984899814 5.132497768897152 -12.0
    vertex 4.306676984899812 -5.132497768897153 -12.0
  endloop
endfacet
facet normal -2.4973064178900175e-31 1.8699043129028697e-31 -1.0
  outer loop
    vertex 4.306676984899812 -5.132497768897153 -12.0
    vertex 4.306676984899814 5.132497768897152 -12.0
    vertex 5.13249776889715 -4.3066769848998145 -12.0
  endloop
endfacet
facet normal -2.4973064178900175e-31 1.8699043129028697e-31 -1.0
  outer loop
    vertex 5.13249776889715 -4.3066769848998145 -12.0
    vertex 4.306676984899814 5.132497768897152 -12.0
    vertex 5.132497768897152 4.306676984899812 -12.0
  endloop
endfacet
facet normal -2.4973064178900175e-31 1.8699043129028697e-31 -1.0
  outer loop
    vertex 5.13249776889715 -4.3066769848998145 -12.0
    vertex 5.132497768897152 4.306676984899812 -12.0
    vertex 5.802370205355736 -3.3500000000000023 -12.0
  endloop
endfacet
facet normal -2.4973064178900175e-31 1.8699043129028697e-31 -1.0
  outer loop
    vertex 5.802370205355736 -3.3500000000000023 -12.0
    vertex 5.132497768897152 4.306676984899812 -12.0
    vertex 5.802370205355738 3.3499999999999988 -12.0
  endloop
endfacet
facet normal -2.4973064178900175e-31 1.8699043129028697e-31 -1.0
  outer loop
    vertex 5.802370205355736 -3.3500000000000023 -12.0
    vertex 5.802370205355738 3.3499999999999988 -12.0
    vertex 6.295940559265583 -2.291534960281985 -12.0
  endloop
endfacet
facet normal -2.4973064178900175e-31 1.8699043129028697e-31 -1.0
  outer loop
    vertex 6.295940559265583 -2.291534960281985 -12.0
    vertex 5.802370205355738 3.3499999999999988 -12.0
    vertex 6.295940559265586 2.29153496028198 -12.0
  endloop
endfacet
facet normal -2.4973064178900175e-31 1.8699043129028697e-31 -1.0
  outer loop
    vertex 6.295940559265583 -2.291534960281985 -12.0
    vertex 6.295940559265586 2.29153496028198 -12.0
    vertex 6.598211945181793 -1.1634427903684335 -12.0
  endloop
endfacet
facet normal -2.4973064178900175e-31 1.8699043129028697e-31 -1.0
  outer loop
    vertex 6.598211945181793 -1.1634427903684335 -12.0
    vertex 6.295940559265586 2.29153496028198 -12.0
    vertex 6.598211945181793 1.163442790368433 -12.0
  endloop
endfacet
facet normal -2.4973064178900175e-31 1.8699043129028697e-31 -1.0
  outer loop
    vertex 6.598211945181793 -1.1634427903684335 -12.0
    vertex 6.598211945181793 1.163442790368433 -12.0
    vertex 6.699999999999999 0.0 -12.0
  endloop
endfacet
facet normal 0.0 1.0 0.0
  outer loop
    vertex -1.9900116249086688 -1.5 0.0
    vertex 1.9900116249086688 -1.5 -12.0
    vertex -1.9900116249086688 -1.5 -12.0
  endloop
endfacet
facet normal 0.0 1.0 0.0
  outer loop
    vertex 1.9900116249086688 -1.5 -12.0
    vertex -1.9900116249086688 -1.5 0.0
    vertex 1.9900116249086688 -1.5 0.0
  endloop
endfacet
facet normal 0.8191520442889912 0.5735764363510472 0.0
  outer loop
    vertex -2.165063509461097 -1.2499999999999998 -12.0
    vertex -1.9900116249086688 -1.5 0.0
    vertex -1.9900116249086688 -1.5 -12.0
  endloop
endfacet
facet normal 0.8191520442889912 0.5735764363510472 0.0
  outer loop
    vertex -1.9900116249086688 -1.5 0.0
    vertex -2.165063509461097 -1.2499999999999998 -12.0
    vertex -2.165063509461097 -1.2499999999999998 0.0
  endloop
endfacet
facet normal 0.9063077870366499 0.42261826174069944 0.0
  outer loop
    vertex -2.3492315519647713 -0.8550503583141718 -12.0
    vertex -2.165063509461097 -1.2499999999999998 0.0
    vertex -2.165063509461097 -1.2499999999999998 -12.0
  endloop
endfacet
facet normal 0.9063077870366499 0.42261826174069944 0.0
  outer loop
    vertex -2.165063509461097 -1.2499999999999998 0.0
    vertex -2.3492315519647713 -0.8550503583141718 -12.0
    vertex -2.3492315519647713 -0.8550503583141718 0.0
  endloop
endfacet
facet normal 0.9659258262890685 0.25881904510252013 0.0
  outer loop
    vertex -2.46201938253052 -0.4341204441673258 -12.0
    vertex -2.3492315519647713 -0.8550503583141718 0.0
    vertex -2.3492315519647713 -0.8550503583141718 -12.0
  endloop
endfacet
facet normal 0.9659258262890685 0.25881904510252013 0.0
  outer loop
    vertex -2.3492315519647713 -0.8550503583141718 0.0
    vertex -2.46201938253052 -0.4341204441673258 -12.0
    vertex -2.46201938253052 -0.4341204441673258 0.0
  endloop
endfacet
facet normal 0.9961946980917455 0.08715574274765839 0.0
  outer loop
    vertex -2.5 0.0 -12.0
    vertex -2.46201938253052 -0.4341204441673258 0.0
    vertex -2.46201938253052 -0.4341204441673258 -12.0
  endloop
endfacet
facet normal 0.9961946980917455 0.08715574274765839 0.0
  outer loop
    vertex -2.46201938253052 -0.4341204441673258 0.0
    vertex -2.5 0.0 -12.0
    vertex -2.5 0.0 0.0
  endloop
endfacet
facet normal 0.9961946980917455 -0.08715574274765835 -0.0
  outer loop
    vertex -2.46201938253052 0.434120444167326 -12.0
    vertex -2.5 0.0 0.0
    vertex -2.5 0.0 -12.0
  endloop
endfacet
facet normal 0.9961946980917455 -0.08715574274765835 -0.0
  outer loop
    vertex -2.5 0.0 0.0
    vertex -2.46201938253052 0.434120444167326 -12.0
    vertex -2.46201938253052 0.434120444167326 0.0
  endloop
endfacet
facet normal 0.9659258262890682 -0.2588190451025214 -0.0
  outer loop
    vertex -2.34923155196477 0.8550503583141736 -12.0
    vertex -2.46201938253052 0.434120444167326 0.0
    vertex -2.46201938253052 0.434120444167326 -12.0
  endloop
endfacet
facet normal 0.9659258262890682 -0.2588190451025214 -0.0
  outer loop
    vertex -2.46201938253052 0.434120444167326 0.0
    vertex -2.34923155196477 0.8550503583141736 -12.0
    vertex -2.34923155196477 0.8550503583141736 0.0
  endloop
endfacet
facet normal 0.9063077870366497 -0.42261826174070005 -0.0
  outer loop
    vertex -2.165063509461096 1.250000000000001 -12.0
    vertex -2.34923155196477 0.8550503583141736 0.0
    vertex -2.34923155196477 0.8550503583141736 -12.0
  endloop
endfacet
facet normal 0.9063077870366497 -0.42261826174070005 -0.0
  outer loop
    vertex -2.34923155196477 0.8550503583141736 0.0
    vertex -2.165063509461096 1.250000000000001 -12.0
    vertex -2.165063509461096 1.250000000000001 0.0
  endloop
endfacet
facet normal 0.8191520442889916 -0.5735764363510467 -0.0
  outer loop
    vertex -1.9900116249086688 1.5 -12.0
    vertex -2.165063509461096 1.250000000000001 0.0
    vertex -2.165063509461096 1.250000000000001 -12.0
  endloop
endfacet
facet normal 0.8191520442889916 -0.5735764363510467 -0.0
  outer loop
    vertex -2.165063509461096 1.250000000000001 0.0
    vertex -1.9900116249086688 1.5 -12.0
    vertex -1.9900116249086688 1.5 0.0
  endloop
endfacet
facet normal 0.0 -1.0 -0.0
  outer loop
    vertex 1.9900116249086688 1.5 0.0
    vertex -1.9900116249086688 1.5 -12.0
    vertex 1.9900116249086688 1.5 -12.0
  endloop
endfacet
facet normal 0.0 -1.0 -0.0
  outer loop
    vertex -1.9900116249086688 1.5 -12.0
    vertex 1.9900116249086688 1.5 0.0
    vertex -1.9900116249086688 1.5 0.0
  endloop
endfacet
facet normal -0.8191520442889911 -0.573576436351047 -0.0
  outer loop
    vertex 1.9900116249086688 1.5 0.0
    vertex 2.1650635094610973 1.2499999999999993 -12.0
    vertex 2.1650635094610973 1.2499999999999993 0.0
  endloop
endfacet
facet normal -0.8191520442889911 -0.573576436351047 -0.0
  outer loop
    vertex 2.1650635094610973 1.2499999999999993 -12.0
    vertex 1.9900116249086688 1.5 0.0
    vertex 1.9900116249086688 1.5 -12.0
  endloop
endfacet
facet normal -0.90630778703665 -0.4226182617406993 -0.0
  outer loop
    vertex 2.1650635094610973 1.2499999999999993 0.0
    vertex 2.3492315519647713 0.8550503583141718 -12.0
    vertex 2.3492315519647713 0.8550503583141718 0.0
  endloop
endfacet
facet normal -0.90630778703665 -0.4226182617406993 -0.0
  outer loop
    vertex 2.3492315519647713 0.8550503583141718 -12.0
    vertex 2.1650635094610973 1.2499999999999993 0.0
    vertex 2.1650635094610973 1.2499999999999993 -12.0
  endloop
endfacet
facet normal -0.9659258262890684 -0.2588190451025205 -0.0
  outer loop
    vertex 2.3492315519647713 0.8550503583141718 0.0
    vertex 2.4620193825305203 0.4341204441673251 -12.0
    vertex 2.4620193825305203 0.4341204441673251 0.0
  endloop
endfacet
facet normal -0.9659258262890684 -0.2588190451025205 -0.0
  outer loop
    vertex 2.4620193825305203 0.4341204441673251 -12.0
    vertex 2.3492315519647713 0.8550503583141718 0.0
    vertex 2.3492315519647713 0.8550503583141718 -12.0
  endloop
endfacet
facet normal -0.9961946980917455 -0.08715574274765765 -0.0
  outer loop
    vertex 2.4620193825305203 0.4341204441673251 0.0
    vertex 2.5 -3.061616997868383e-16 -12.0
    vertex 2.5 -3.061616997868383e-16 0.0
  endloop
endfacet
facet normal -0.9961946980917455 -0.08715574274765765 -0.0
  outer loop
    vertex 2.5 -3.061616997868383e-16 -12.0
    vertex 2.4620193825305203 0.4341204441673251 0.0
    vertex 2.4620193825305203 0.4341204441673251 -12.0
  endloop
endfacet
facet normal -0.9961946980917455 0.08715574274765825 -0.0
  outer loop
    vertex 2.5 -3.061616997868383e-16 0.0
    vertex 2.46201938253052 -0.4341204441673267 -12.0
    vertex 2.46201938253052 -0.4341204441673267 0.0
  endloop
endfacet
facet normal -0.9961946980917455 0.08715574274765825 -0.0
  outer loop
    vertex 2.46201938253052 -0.4341204441673267 -12.0
    vertex 2.5 -3.061616997868383e-16 0.0
    vertex 2.5 -3.061616997868383e-16 -12.0
  endloop
endfacet
facet normal -0.9659258262890683 0.25881904510252113 -0.0
  outer loop
    vertex 2.46201938253052 -0.4341204441673267 0.0
    vertex 2.349231551964771 -0.8550503583141722 -12.0
    vertex 2.349231551964771 -0.8550503583141722 0.0
  endloop
endfacet
facet normal -0.9659258262890683 0.25881904510252113 -0.0
  outer loop
    vertex 2.349231551964771 -0.8550503583141722 -12.0
    vertex 2.46201938253052 -0.4341204441673267 0.0
    vertex 2.46201938253052 -0.4341204441673267 -12.0
  endloop
endfacet
facet normal -0.90630778703665 0.4226182617406993 -0.0
  outer loop
    vertex 2.349231551964771 -0.8550503583141722 0.0
    vertex 2.165063509461097 -1.2499999999999998 -12.0
    vertex 2.165063509461097 -1.2499999999999998 0.0
  endloop
endfacet
facet normal -0.90630778703665 0.4226182617406993 -0.0
  outer loop
    vertex 2.165063509461097 -1.2499999999999998 -12.0
    vertex 2.349231551964771 -0.8550503583141722 0.0
    vertex 2.349231551964771 -0.8550503583141722 -12.0
  endloop
endfacet
facet normal -0.8191520442889912 0.5735764363510472 -0.0
  outer loop
    vertex 2.165063509461097 -1.2499999999999998 0.0
    vertex 1.9900116249086688 -1.5 -12.0
    vertex 1.9900116249086688 -1.5 0.0
  endloop
endfacet
facet normal -0.8191520442889912 0.5735764363510472 -0.0
  outer loop
    vertex 1.9900116249086688 -1.5 -12.0
    vertex 2.165063509461097 -1.2499999999999998 0.0
    vertex 2.165063509461097 -1.2499999999999998 -12.0
  endloop
endfacet
endsolid Шаркран переходник на шаговый
