solid Держатель-Шестигранный-2
facet normal 0.0 0.0 -1.0
  outer loop
    vertex -3.5355339059327373 3.535533905932738 0.0
    vertex -3.3999999999999995 1.9629909152447287 0.0
    vertex -3.4 -1.9629909152447271 0.0
  endloop
endfacet
facet normal 0.0 0.0 -1.0
  outer loop
    vertex -3.3999999999999995 1.9629909152447287 0.0
    vertex -3.5355339059327373 3.535533905932738 0.0
    vertex -2.499999999999999 4.330127018922194 0.0
  endloop
endfacet
facet normal 0.0 0.0 -1.0
  outer loop
    vertex -3.3999999999999995 1.9629909152447287 0.0
    vertex -2.499999999999999 4.330127018922194 0.0
    vertex 7.049916206369744e-16 3.925981830489455 0.0
  endloop
endfacet
facet normal 0.0 0.0 -1.0
  outer loop
    vertex 7.049916206369744e-16 3.925981830489455 0.0
    vertex -2.499999999999999 4.330127018922194 0.0
    vertex -1.294095225512603 4.8296291314453415 0.0
  endloop
endfacet
facet normal 0.0 0.0 -1.0
  outer loop
    vertex 7.049916206369744e-16 3.925981830489455 0.0
    vertex -1.294095225512603 4.8296291314453415 0.0
    vertex 3.061616997868383e-16 5.0 0.0
  endloop
endfacet
facet normal 0.0 0.0 -1.0
  outer loop
    vertex 7.049916206369744e-16 3.925981830489455 0.0
    vertex 3.061616997868383e-16 5.0 0.0
    vertex 1.2940952255126048 4.8296291314453415 0.0
  endloop
endfacet
facet normal 0.0 0.0 -1.0
  outer loop
    vertex 7.049916206369744e-16 3.925981830489455 0.0
    vertex 1.2940952255126048 4.8296291314453415 0.0
    vertex 3.4 1.9629909152447276 0.0
  endloop
endfacet
facet normal 0.0 0.0 -1.0
  outer loop
    vertex 3.4 1.9629909152447276 0.0
    vertex 1.2940952255126048 4.8296291314453415 0.0
    vertex 2.500000000000001 4.330127018922193 0.0
  endloop
endfacet
facet normal 0.0 0.0 -1.0
  outer loop
    vertex 3.4 1.9629909152447276 0.0
    vertex 2.500000000000001 4.330127018922193 0.0
    vertex 3.535533905932738 3.535533905932738 0.0
  endloop
endfacet
facet normal 0.0 0.0 -1.0
  outer loop
    vertex 3.4 1.9629909152447276 0.0
    vertex 3.535533905932738 3.535533905932738 0.0
    vertex 3.5355339059327364 -3.5355339059327386 0.0
  endloop
endfacet
facet normal 0.0 0.0 -1.0
  outer loop
    vertex 3.5355339059327364 -3.5355339059327386 0.0
    vertex 3.535533905932738 3.535533905932738 0.0
    vertex 4.330127018922192 -2.500000000000002 0.0
  endloop
endfacet
facet normal 0.0 0.0 -1.0
  outer loop
    vertex 4.330127018922192 -2.500000000000002 0.0
    vertex 3.535533905932738 3.535533905932738 0.0
    vertex 4.330127018922194 2.4999999999999996 0.0
  endloop
endfacet
facet normal 0.0 0.0 -1.0
  outer loop
    vertex 4.330127018922192 -2.500000000000002 0.0
    vertex 4.330127018922194 2.4999999999999996 0.0
    vertex 4.829629131445341 -1.294095225512608 0.0
  endloop
endfacet
facet normal 0.0 0.0 -1.0
  outer loop
    vertex 4.829629131445341 -1.294095225512608 0.0
    vertex 4.330127018922194 2.4999999999999996 0.0
    vertex 4.8296291314453415 1.2940952255126037 0.0
  endloop
endfacet
facet normal 0.0 0.0 -1.0
  outer loop
    vertex 4.829629131445341 -1.294095225512608 0.0
    vertex 4.8296291314453415 1.2940952255126037 0.0
    vertex 5.0 0.0 0.0
  endloop
endfacet
facet normal 0.0 0.0 -1.0
  outer loop
    vertex -4.8296291314453415 1.294095225512605 0.0
    vertex -4.829629131445342 -1.2940952255126017 0.0
    vertex -5.0 6.123233995736766e-16 0.0
  endloop
endfacet
facet normal 0.0 0.0 -1.0
  outer loop
    vertex -4.829629131445342 -1.2940952255126017 0.0
    vertex -4.8296291314453415 1.294095225512605 0.0
    vertex -4.3301270189221945 -2.4999999999999987 0.0
  endloop
endfacet
facet normal 0.0 0.0 -1.0
  outer loop
    vertex -4.3301270189221945 -2.4999999999999987 0.0
    vertex -4.8296291314453415 1.294095225512605 0.0
    vertex -4.330127018922193 2.5000000000000018 0.0
  endloop
endfacet
facet normal 0.0 0.0 -1.0
  outer loop
    vertex -4.3301270189221945 -2.4999999999999987 0.0
    vertex -4.330127018922193 2.5000000000000018 0.0
    vertex -3.5355339059327395 -3.535533905932736 0.0
  endloop
endfacet
facet normal 0.0 0.0 -1.0
  outer loop
    vertex -3.5355339059327395 -3.535533905932736 0.0
    vertex -4.330127018922193 2.5000000000000018 0.0
    vertex -3.5355339059327373 3.535533905932738 0.0
  endloop
endfacet
facet normal 0.0 0.0 -1.0
  outer loop
    vertex -3.5355339059327395 -3.535533905932736 0.0
    vertex -3.5355339059327373 3.535533905932738 0.0
    vertex -3.4 -1.9629909152447271 0.0
  endloop
endfacet
facet normal 0.0 0.0 -1.0
  outer loop
    vertex -3.5355339059327395 -3.535533905932736 0.0
    vertex -3.4 -1.9629909152447271 0.0
    vertex -2.500000000000002 -4.330127018922193 0.0
  endloop
endfacet
facet normal 0.0 0.0 -1.0
  outer loop
    vertex -2.500000000000002 -4.330127018922193 0.0
    vertex -3.4 -1.9629909152447271 0.0
    vertex -1.762479051592436e-15 -3.9259818304894556 0.0
  endloop
endfacet
facet normal 0.0 0.0 -1.0
  outer loop
    vertex -2.500000000000002 -4.330127018922193 0.0
    vertex -1.762479051592436e-15 -3.9259818304894556 0.0
    vertex -1.2940952255126077 -4.829629131445341 0.0
  endloop
endfacet
facet normal 0.0 0.0 -1.0
  outer loop
    vertex -1.2940952255126077 -4.829629131445341 0.0
    vertex -1.762479051592436e-15 -3.9259818304894556 0.0
    vertex -9.184850993605148e-16 -5.0 0.0
  endloop
endfacet
facet normal 0.0 0.0 -1.0
  outer loop
    vertex -9.184850993605148e-16 -5.0 0.0
    vertex -1.762479051592436e-15 -3.9259818304894556 0.0
    vertex 3.3999999999999986 -1.9629909152447305 0.0
  endloop
endfacet
facet normal 0.0 0.0 -1.0
  outer loop
    vertex -9.184850993605148e-16 -5.0 0.0
    vertex 3.3999999999999986 -1.9629909152447305 0.0
    vertex 1.2940952255126015 -4.829629131445342 0.0
  endloop
endfacet
facet normal 0.0 0.0 -1.0
  outer loop
    vertex 1.2940952255126015 -4.829629131445342 0.0
    vertex 3.3999999999999986 -1.9629909152447305 0.0
    vertex 2.499999999999997 -4.330127018922195 0.0
  endloop
endfacet
facet normal 0.0 0.0 -1.0
  outer loop
    vertex 2.499999999999997 -4.330127018922195 0.0
    vertex 3.3999999999999986 -1.9629909152447305 0.0
    vertex 3.5355339059327364 -3.5355339059327386 0.0
  endloop
endfacet
facet normal 0.0 0.0 -1.0
  outer loop
    vertex 3.5355339059327364 -3.5355339059327386 0.0
    vertex 3.3999999999999986 -1.9629909152447305 0.0
    vertex 3.4 1.9629909152447276 0.0
  endloop
endfacet
facet normal -1.8555158912951643e-31 2.253126439429842e-31 1.0
  outer loop
    vertex -4.829629131445342 -1.2940952255126017 31.015237000000003
    vertex -4.8296291314453415 1.294095225512605 31.015237000000003
    vertex -5.0 6.123233995736766e-16 31.015237000000003
  endloop
endfacet
facet normal -1.8555158912951643e-31 2.253126439429842e-31 1.0
  outer loop
    vertex -4.8296291314453415 1.294095225512605 31.015237000000003
    vertex -4.829629131445342 -1.2940952255126017 31.015237000000003
    vertex -4.3301270189221945 -2.4999999999999987 31.015237000000003
  endloop
endfacet
facet normal -1.8555158912951643e-31 2.253126439429842e-31 1.0
  outer loop
    vertex -4.8296291314453415 1.294095225512605 31.015237000000003
    vertex -4.3301270189221945 -2.4999999999999987 31.015237000000003
    vertex -4.330127018922193 2.5000000000000018 31.015237000000003
  endloop
endfacet
facet normal -1.8555158912951643e-31 2.253126439429842e-31 1.0
  outer loop
    vertex -4.330127018922193 2.5000000000000018 31.015237000000003
    vertex -4.3301270189221945 -2.4999999999999987 31.015237000000003
    vertex -3.5355339059327395 -3.535533905932736 31.015237000000003
  endloop
endfacet
facet normal -1.8555158912951643e-31 2.253126439429842e-31 1.0
  outer loop
    vertex -4.330127018922193 2.5000000000000018 31.015237000000003
    vertex -3.5355339059327395 -3.535533905932736 31.015237000000003
    vertex -3.5355339059327373 3.535533905932738 31.015237000000003
  endloop
endfacet
facet normal -1.8555158912951643e-31 2.253126439429842e-31 1.0
  outer loop
    vertex -3.5355339059327373 3.535533905932738 31.015237000000003
    vertex -3.5355339059327395 -3.535533905932736 31.015237000000003
    vertex -2.500000000000002 -4.330127018922193 31.015237000000003
  endloop
endfacet
facet normal -1.8555158912951643e-31 2.253126439429842e-31 1.0
  outer loop
    vertex -3.5355339059327373 3.535533905932738 31.015237000000003
    vertex -2.500000000000002 -4.330127018922193 31.015237000000003
    vertex -2.499999999999999 4.330127018922194 31.015237000000003
  endloop
endfacet
facet normal -1.8555158912951643e-31 2.253126439429842e-31 1.0
  outer loop
    vertex -2.499999999999999 4.330127018922194 31.015237000000003
    vertex -2.500000000000002 -4.330127018922193 31.015237000000003
    vertex -1.9999999999999998 -1.5 31.015236999999996
  endloop
endfacet
facet normal -1.8555158912951643e-31 2.253126439429842e-31 1.0
  outer loop
    vertex -1.9999999999999998 -1.5 31.015236999999996
    vertex -2.500000000000002 -4.330127018922193 31.015237000000003
    vertex -1.2940952255126077 -4.829629131445341 31.015237000000003
  endloop
endfacet
facet normal -1.8555158912951643e-31 2.253126439429842e-31 1.0
  outer loop
    vertex -1.9999999999999998 -1.5 31.015236999999996
    vertex -1.2940952255126077 -4.829629131445341 31.015237000000003
    vertex -1.8299978240709855 -1.9123502216545136 31.015236999999996
  endloop
endfacet
facet normal -1.8555158912951643e-31 2.253126439429842e-31 1.0
  outer loop
    vertex -1.8299978240709855 -1.9123502216545136 31.015236999999996
    vertex -1.2940952255126077 -4.829629131445341 31.015237000000003
    vertex -1.5761190415416118 -2.279064018641387 31.015236999999996
  endloop
endfacet
facet normal -1.8555158912951643e-31 2.253126439429842e-31 1.0
  outer loop
    vertex -1.5761190415416118 -2.279064018641387 31.015236999999996
    vertex -1.2940952255126077 -4.829629131445341 31.015237000000003
    vertex -1.2499999999999998 -2.583333333333334 31.015236999999996
  endloop
endfacet
facet normal -1.8555158912951643e-31 2.253126439429842e-31 1.0
  outer loop
    vertex -1.2499999999999998 -2.583333333333334 31.015236999999996
    vertex -1.2940952255126077 -4.829629131445341 31.015237000000003
    vertex -9.184850993605148e-16 -5.0 31.015237000000003
  endloop
endfacet
facet normal -1.8555158912951643e-31 2.253126439429842e-31 1.0
  outer loop
    vertex -1.2499999999999998 -2.583333333333334 31.015236999999996
    vertex -9.184850993605148e-16 -5.0 31.015237000000003
    vertex -0.8665881262640799 -2.811212205099536 31.015236999999996
  endloop
endfacet
facet normal -1.8555158912951643e-31 2.253126439429842e-31 1.0
  outer loop
    vertex -0.8665881262640799 -2.811212205099536 31.015236999999996
    vertex -9.184850993605148e-16 -5.0 31.015237000000003
    vertex -0.44345682204845743 -2.95225597317141 31.015236999999996
  endloop
endfacet
facet normal -1.8555158912951643e-31 2.253126439429842e-31 1.0
  outer loop
    vertex -0.44345682204845743 -2.95225597317141 31.015236999999996
    vertex -9.184850993605148e-16 -5.0 31.015237000000003
    vertex -1.505450856568539e-16 -3.0000000000000004 31.015236999999996
  endloop
endfacet
facet normal -1.8555158912951643e-31 2.253126439429842e-31 1.0
  outer loop
    vertex -1.505450856568539e-16 -3.0000000000000004 31.015236999999996
    vertex -9.184850993605148e-16 -5.0 31.015237000000003
    vertex 1.2940952255126015 -4.829629131445342 31.015237000000003
  endloop
endfacet
facet normal -1.8555158912951643e-31 2.253126439429842e-31 1.0
  outer loop
    vertex -1.505450856568539e-16 -3.0000000000000004 31.015236999999996
    vertex 1.2940952255126015 -4.829629131445342 31.015237000000003
    vertex 0.44345682204845704 -2.95225597317141 31.015236999999996
  endloop
endfacet
facet normal -1.8555158912951643e-31 2.253126439429842e-31 1.0
  outer loop
    vertex 0.44345682204845704 -2.95225597317141 31.015236999999996
    vertex 1.2940952255126015 -4.829629131445342 31.015237000000003
    vertex 0.8665881262640796 -2.8112122050995363 31.015236999999996
  endloop
endfacet
facet normal -1.8555158912951643e-31 2.253126439429842e-31 1.0
  outer loop
    vertex 0.8665881262640796 -2.8112122050995363 31.015236999999996
    vertex 1.2940952255126015 -4.829629131445342 31.015237000000003
    vertex 1.2499999999999996 -2.583333333333334 31.015236999999996
  endloop
endfacet
facet normal -1.8555158912951643e-31 2.253126439429842e-31 1.0
  outer loop
    vertex 1.2499999999999996 -2.583333333333334 31.015236999999996
    vertex 1.2940952255126015 -4.829629131445342 31.015237000000003
    vertex 1.5761190415416109 -2.2790640186413875 31.015236999999996
  endloop
endfacet
facet normal -1.8555158912951643e-31 2.253126439429842e-31 1.0
  outer loop
    vertex 1.5761190415416109 -2.2790640186413875 31.015236999999996
    vertex 1.2940952255126015 -4.829629131445342 31.015237000000003
    vertex 2.499999999999997 -4.330127018922195 31.015237000000003
  endloop
endfacet
facet normal -1.8555158912951643e-31 2.253126439429842e-31 1.0
  outer loop
    vertex 1.5761190415416109 -2.2790640186413875 31.015236999999996
    vertex 2.499999999999997 -4.330127018922195 31.015237000000003
    vertex 1.8299978240709844 -1.9123502216545147 31.015236999999996
  endloop
endfacet
facet normal -1.8555158912951643e-31 2.253126439429842e-31 1.0
  outer loop
    vertex 1.8299978240709844 -1.9123502216545147 31.015236999999996
    vertex 2.499999999999997 -4.330127018922195 31.015237000000003
    vertex 1.9999999999999998 -1.5 31.015236999999996
  endloop
endfacet
facet normal -1.8555158912951643e-31 2.253126439429842e-31 1.0
  outer loop
    vertex 1.9999999999999998 -1.5 31.015236999999996
    vertex 2.499999999999997 -4.330127018922195 31.015237000000003
    vertex 1.9999999999999998 1.5 31.015236999999996
  endloop
endfacet
facet normal -1.8555158912951643e-31 2.253126439429842e-31 1.0
  outer loop
    vertex -2.499999999999999 4.330127018922194 31.015237000000003
    vertex -1.9999999999999998 1.5 31.015236999999996
    vertex -1.294095225512603 4.8296291314453415 31.015237000000003
  endloop
endfacet
facet normal -1.8555158912951643e-31 2.253126439429842e-31 1.0
  outer loop
    vertex -1.9999999999999998 1.5 31.015236999999996
    vertex -2.499999999999999 4.330127018922194 31.015237000000003
    vertex -1.9999999999999998 -1.5 31.015236999999996
  endloop
endfacet
facet normal -1.8555158912951643e-31 2.253126439429842e-31 1.0
  outer loop
    vertex -1.294095225512603 4.8296291314453415 31.015237000000003
    vertex -1.9999999999999998 1.5 31.015236999999996
    vertex -1.829997824070985 1.912350221654514 31.015236999999996
  endloop
endfacet
facet normal -1.8555158912951643e-31 2.253126439429842e-31 1.0
  outer loop
    vertex -1.294095225512603 4.8296291314453415 31.015237000000003
    vertex -1.829997824070985 1.912350221654514 31.015236999999996
    vertex -1.5761190415416118 2.279064018641387 31.015236999999996
  endloop
endfacet
facet normal -1.8555158912951643e-31 2.253126439429842e-31 1.0
  outer loop
    vertex -1.294095225512603 4.8296291314453415 31.015237000000003
    vertex -1.5761190415416118 2.279064018641387 31.015236999999996
    vertex -1.2499999999999998 2.583333333333334 31.015236999999996
  endloop
endfacet
facet normal -1.8555158912951643e-31 2.253126439429842e-31 1.0
  outer loop
    vertex -1.294095225512603 4.8296291314453415 31.015237000000003
    vertex -1.2499999999999998 2.583333333333334 31.015236999999996
    vertex 3.061616997868383e-16 5.0 31.015237000000003
  endloop
endfacet
facet normal -1.8555158912951643e-31 2.253126439429842e-31 1.0
  outer loop
    vertex 3.061616997868383e-16 5.0 31.015237000000003
    vertex -1.2499999999999998 2.583333333333334 31.015236999999996
    vertex -0.8665881262640799 2.811212205099536 31.015236999999996
  endloop
endfacet
facet normal -1.8555158912951643e-31 2.253126439429842e-31 1.0
  outer loop
    vertex 3.061616997868383e-16 5.0 31.015237000000003
    vertex -0.8665881262640799 2.811212205099536 31.015236999999996
    vertex -0.4434568220484573 2.95225597317141 31.015236999999996
  endloop
endfacet
facet normal -1.8555158912951643e-31 2.253126439429842e-31 1.0
  outer loop
    vertex 3.061616997868383e-16 5.0 31.015237000000003
    vertex -0.4434568220484573 2.95225597317141 31.015236999999996
    vertex 0.0 3.0000000000000004 31.015236999999996
  endloop
endfacet
facet normal -1.8555158912951643e-31 2.253126439429842e-31 1.0
  outer loop
    vertex 3.061616997868383e-16 5.0 31.015237000000003
    vertex 0.0 3.0000000000000004 31.015236999999996
    vertex 0.44345682204845716 2.95225597317141 31.015236999999996
  endloop
endfacet
facet normal -1.8555158912951643e-31 2.253126439429842e-31 1.0
  outer loop
    vertex 3.061616997868383e-16 5.0 31.015237000000003
    vertex 0.44345682204845716 2.95225597317141 31.015236999999996
    vertex 1.2940952255126048 4.8296291314453415 31.015237000000003
  endloop
endfacet
facet normal -1.8555158912951643e-31 2.253126439429842e-31 1.0
  outer loop
    vertex 1.2940952255126048 4.8296291314453415 31.015237000000003
    vertex 0.44345682204845716 2.95225597317141 31.015236999999996
    vertex 0.8665881262640796 2.8112122050995363 31.015236999999996
  endloop
endfacet
facet normal -1.8555158912951643e-31 2.253126439429842e-31 1.0
  outer loop
    vertex 1.2940952255126048 4.8296291314453415 31.015237000000003
    vertex 0.8665881262640796 2.8112122050995363 31.015236999999996
    vertex 1.2499999999999996 2.583333333333334 31.015236999999996
  endloop
endfacet
facet normal -1.8555158912951643e-31 2.253126439429842e-31 1.0
  outer loop
    vertex 1.2940952255126048 4.8296291314453415 31.015237000000003
    vertex 1.2499999999999996 2.583333333333334 31.015236999999996
    vertex 1.576119041541611 2.279064018641387 31.015236999999996
  endloop
endfacet
facet normal -1.8555158912951643e-31 2.253126439429842e-31 1.0
  outer loop
    vertex 1.2940952255126048 4.8296291314453415 31.015237000000003
    vertex 1.576119041541611 2.279064018641387 31.015236999999996
    vertex 2.500000000000001 4.330127018922193 31.015237000000003
  endloop
endfacet
facet normal -1.8555158912951643e-31 2.253126439429842e-31 1.0
  outer loop
    vertex 2.500000000000001 4.330127018922193 31.015237000000003
    vertex 1.576119041541611 2.279064018641387 31.015236999999996
    vertex 1.8299978240709849 1.9123502216545147 31.015236999999996
  endloop
endfacet
facet normal -1.8555158912951643e-31 2.253126439429842e-31 1.0
  outer loop
    vertex 2.500000000000001 4.330127018922193 31.015237000000003
    vertex 1.8299978240709849 1.9123502216545147 31.015236999999996
    vertex 1.9999999999999998 1.5 31.015236999999996
  endloop
endfacet
facet normal -1.8555158912951643e-31 2.253126439429842e-31 1.0
  outer loop
    vertex 2.500000000000001 4.330127018922193 31.015237000000003
    vertex 1.9999999999999998 1.5 31.015236999999996
    vertex 2.499999999999997 -4.330127018922195 31.015237000000003
  endloop
endfacet
facet normal -1.8555158912951643e-31 2.253126439429842e-31 1.0
  outer loop
    vertex 2.500000000000001 4.330127018922193 31.015237000000003
    vertex 2.499999999999997 -4.330127018922195 31.015237000000003
    vertex 3.5355339059327364 -3.5355339059327386 31.015237000000003
  endloop
endfacet
facet normal -1.8555158912951643e-31 2.253126439429842e-31 1.0
  outer loop
    vertex 2.500000000000001 4.330127018922193 31.015237000000003
    vertex 3.5355339059327364 -3.5355339059327386 31.015237000000003
    vertex 3.535533905932738 3.535533905932738 31.015237000000003
  endloop
endfacet
facet normal -1.8555158912951643e-31 2.253126439429842e-31 1.0
  outer loop
    vertex 3.535533905932738 3.535533905932738 31.015237000000003
    vertex 3.5355339059327364 -3.5355339059327386 31.015237000000003
    vertex 4.330127018922192 -2.500000000000002 31.015237000000003
  endloop
endfacet
facet normal -1.8555158912951643e-31 2.253126439429842e-31 1.0
  outer loop
    vertex 3.535533905932738 3.535533905932738 31.015237000000003
    vertex 4.330127018922192 -2.500000000000002 31.015237000000003
    vertex 4.330127018922194 2.4999999999999996 31.015237000000003
  endloop
endfacet
facet normal -1.8555158912951643e-31 2.253126439429842e-31 1.0
  outer loop
    vertex 4.330127018922194 2.4999999999999996 31.015237000000003
    vertex 4.330127018922192 -2.500000000000002 31.015237000000003
    vertex 4.829629131445341 -1.294095225512608 31.015237000000003
  endloop
endfacet
facet normal -1.8555158912951643e-31 2.253126439429842e-31 1.0
  outer loop
    vertex 4.330127018922194 2.4999999999999996 31.015237000000003
    vertex 4.829629131445341 -1.294095225512608 31.015237000000003
    vertex 4.8296291314453415 1.2940952255126037 31.015237000000003
  endloop
endfacet
facet normal -1.8555158912951643e-31 2.253126439429842e-31 1.0
  outer loop
    vertex 4.8296291314453415 1.2940952255126037 31.015237000000003
    vertex 4.829629131445341 -1.294095225512608 31.015237000000003
    vertex 5.0 0.0 31.015237000000003
  endloop
endfacet
facet normal -0.9238795325112866 0.38268343236509006 0.0
  outer loop
    vertex -4.330127018922193 2.5000000000000018 31.015237000000003
    vertex -4.8296291314453415 1.294095225512605 0.0
    vertex -4.8296291314453415 1.294095225512605 31.015237000000003
  endloop
endfacet
facet normal -0.9238795325112866 0.38268343236509006 0.0
  outer loop
    vertex -4.8296291314453415 1.294095225512605 0.0
    vertex -4.330127018922193 2.5000000000000018 31.015237000000003
    vertex -4.330127018922193 2.5000000000000018 0.0
  endloop
endfacet
facet normal -0.793353340291235 0.6087614290087209 0.0
  outer loop
    vertex -3.5355339059327373 3.535533905932738 31.015237000000003
    vertex -4.330127018922193 2.5000000000000018 0.0
    vertex -4.330127018922193 2.5000000000000018 31.015237000000003
  endloop
endfacet
facet normal -0.793353340291235 0.6087614290087209 0.0
  outer loop
    vertex -4.330127018922193 2.5000000000000018 0.0
    vertex -3.5355339059327373 3.535533905932738 31.015237000000003
    vertex -3.5355339059327373 3.535533905932738 0.0
  endloop
endfacet
facet normal -0.6087614290087204 0.7933533402912353 0.0
  outer loop
    vertex -3.5355339059327373 3.535533905932738 31.015237000000003
    vertex -2.499999999999999 4.330127018922194 0.0
    vertex -3.5355339059327373 3.535533905932738 0.0
  endloop
endfacet
facet normal -0.6087614290087204 0.7933533402912353 0.0
  outer loop
    vertex -2.499999999999999 4.330127018922194 0.0
    vertex -3.5355339059327373 3.535533905932738 31.015237000000003
    vertex -2.499999999999999 4.330127018922194 31.015237000000003
  endloop
endfacet
facet normal -0.3826834323650894 0.923879532511287 0.0
  outer loop
    vertex -2.499999999999999 4.330127018922194 31.015237000000003
    vertex -1.294095225512603 4.8296291314453415 0.0
    vertex -2.499999999999999 4.330127018922194 0.0
  endloop
endfacet
facet normal -0.3826834323650894 0.923879532511287 0.0
  outer loop
    vertex -1.294095225512603 4.8296291314453415 0.0
    vertex -2.499999999999999 4.330127018922194 31.015237000000003
    vertex -1.294095225512603 4.8296291314453415 31.015237000000003
  endloop
endfacet
facet normal -0.13052619222005177 0.9914448613738104 0.0
  outer loop
    vertex -1.294095225512603 4.8296291314453415 31.015237000000003
    vertex 3.061616997868383e-16 5.0 0.0
    vertex -1.294095225512603 4.8296291314453415 0.0
  endloop
endfacet
facet normal -0.13052619222005177 0.9914448613738104 0.0
  outer loop
    vertex 3.061616997868383e-16 5.0 0.0
    vertex -1.294095225512603 4.8296291314453415 31.015237000000003
    vertex 3.061616997868383e-16 5.0 31.015237000000003
  endloop
endfacet
facet normal 0.13052619222005168 0.9914448613738105 0.0
  outer loop
    vertex 3.061616997868383e-16 5.0 31.015237000000003
    vertex 1.2940952255126048 4.8296291314453415 0.0
    vertex 3.061616997868383e-16 5.0 0.0
  endloop
endfacet
facet normal 0.13052619222005168 0.9914448613738105 0.0
  outer loop
    vertex 1.2940952255126048 4.8296291314453415 0.0
    vertex 3.061616997868383e-16 5.0 31.015237000000003
    vertex 1.2940952255126048 4.8296291314453415 31.015237000000003
  endloop
endfacet
facet normal 0.3826834323650899 0.9238795325112867 0.0
  outer loop
    vertex 1.2940952255126048 4.8296291314453415 31.015237000000003
    vertex 2.500000000000001 4.330127018922193 0.0
    vertex 1.2940952255126048 4.8296291314453415 0.0
  endloop
endfacet
facet normal 0.3826834323650899 0.9238795325112867 0.0
  outer loop
    vertex 2.500000000000001 4.330127018922193 0.0
    vertex 1.2940952255126048 4.8296291314453415 31.015237000000003
    vertex 2.500000000000001 4.330127018922193 31.015237000000003
  endloop
endfacet
facet normal 0.6087614290087204 0.7933533402912353 0.0
  outer loop
    vertex 2.500000000000001 4.330127018922193 31.015237000000003
    vertex 3.535533905932738 3.535533905932738 0.0
    vertex 2.500000000000001 4.330127018922193 0.0
  endloop
endfacet
facet normal 0.6087614290087204 0.7933533402912353 0.0
  outer loop
    vertex 3.535533905932738 3.535533905932738 0.0
    vertex 2.500000000000001 4.330127018922193 31.015237000000003
    vertex 3.535533905932738 3.535533905932738 31.015237000000003
  endloop
endfacet
facet normal 0.7933533402912353 0.6087614290087204 0.0
  outer loop
    vertex 3.535533905932738 3.535533905932738 0.0
    vertex 4.330127018922194 2.4999999999999996 31.015237000000003
    vertex 4.330127018922194 2.4999999999999996 0.0
  endloop
endfacet
facet normal 0.7933533402912353 0.6087614290087204 0.0
  outer loop
    vertex 4.330127018922194 2.4999999999999996 31.015237000000003
    vertex 3.535533905932738 3.535533905932738 0.0
    vertex 3.535533905932738 3.535533905932738 31.015237000000003
  endloop
endfacet
facet normal 0.9238795325112871 0.3826834323650894 0.0
  outer loop
    vertex 4.330127018922194 2.4999999999999996 0.0
    vertex 4.8296291314453415 1.2940952255126037 31.015237000000003
    vertex 4.8296291314453415 1.2940952255126037 0.0
  endloop
endfacet
facet normal 0.9238795325112871 0.3826834323650894 0.0
  outer loop
    vertex 4.8296291314453415 1.2940952255126037 31.015237000000003
    vertex 4.330127018922194 2.4999999999999996 0.0
    vertex 4.330127018922194 2.4999999999999996 31.015237000000003
  endloop
endfacet
facet normal 0.9914448613738104 0.13052619222005174 0.0
  outer loop
    vertex 4.8296291314453415 1.2940952255126037 0.0
    vertex 5.0 0.0 31.015237000000003
    vertex 5.0 0.0 0.0
  endloop
endfacet
facet normal 0.9914448613738104 0.13052619222005174 0.0
  outer loop
    vertex 5.0 0.0 31.015237000000003
    vertex 4.8296291314453415 1.2940952255126037 0.0
    vertex 4.8296291314453415 1.2940952255126037 31.015237000000003
  endloop
endfacet
facet normal 0.9914448613738105 -0.13052619222005188 0.0
  outer loop
    vertex 5.0 0.0 0.0
    vertex 4.829629131445341 -1.294095225512608 31.015237000000003
    vertex 4.829629131445341 -1.294095225512608 0.0
  endloop
endfacet
facet normal 0.9914448613738105 -0.13052619222005188 0.0
  outer loop
    vertex 4.829629131445341 -1.294095225512608 31.015237000000003
    vertex 5.0 0.0 0.0
    vertex 5.0 0.0 31.015237000000003
  endloop
endfacet
facet normal 0.9238795325112864 -0.3826834323650908 0.0
  outer loop
    vertex 4.829629131445341 -1.294095225512608 0.0
    vertex 4.330127018922192 -2.500000000000002 31.015237000000003
    vertex 4.330127018922192 -2.500000000000002 0.0
  endloop
endfacet
facet normal 0.9238795325112864 -0.3826834323650908 0.0
  outer loop
    vertex 4.330127018922192 -2.500000000000002 31.015237000000003
    vertex 4.829629131445341 -1.294095225512608 0.0
    vertex 4.829629131445341 -1.294095225512608 31.015237000000003
  endloop
endfacet
facet normal 0.7933533402912352 -0.6087614290087208 0.0
  outer loop
    vertex 4.330127018922192 -2.500000000000002 0.0
    vertex 3.5355339059327364 -3.5355339059327386 31.015237000000003
    vertex 3.5355339059327364 -3.5355339059327386 0.0
  endloop
endfacet
facet normal 0.7933533402912352 -0.6087614290087208 0.0
  outer loop
    vertex 3.5355339059327364 -3.5355339059327386 31.015237000000003
    vertex 4.330127018922192 -2.500000000000002 0.0
    vertex 4.330127018922192 -2.500000000000002 31.015237000000003
  endloop
endfacet
facet normal 0.6087614290087203 -0.7933533402912355 0.0
  outer loop
    vertex 3.5355339059327364 -3.5355339059327386 31.015237000000003
    vertex 2.499999999999997 -4.330127018922195 0.0
    vertex 3.5355339059327364 -3.5355339059327386 0.0
  endloop
endfacet
facet normal 0.6087614290087203 -0.7933533402912355 0.0
  outer loop
    vertex 2.499999999999997 -4.330127018922195 0.0
    vertex 3.5355339059327364 -3.5355339059327386 31.015237000000003
    vertex 2.499999999999997 -4.330127018922195 31.015237000000003
  endloop
endfacet
facet normal 0.38268343236508917 -0.9238795325112872 0.0
  outer loop
    vertex 2.499999999999997 -4.330127018922195 31.015237000000003
    vertex 1.2940952255126015 -4.829629131445342 0.0
    vertex 2.499999999999997 -4.330127018922195 0.0
  endloop
endfacet
facet normal 0.38268343236508917 -0.9238795325112872 0.0
  outer loop
    vertex 1.2940952255126015 -4.829629131445342 0.0
    vertex 2.499999999999997 -4.330127018922195 31.015237000000003
    vertex 1.2940952255126015 -4.829629131445342 31.015237000000003
  endloop
endfacet
facet normal 0.13052619222005135 -0.9914448613738105 0.0
  outer loop
    vertex 1.2940952255126015 -4.829629131445342 31.015237000000003
    vertex -9.184850993605148e-16 -5.0 0.0
    vertex 1.2940952255126015 -4.829629131445342 0.0
  endloop
endfacet
facet normal 0.13052619222005135 -0.9914448613738105 0.0
  outer loop
    vertex -9.184850993605148e-16 -5.0 0.0
    vertex 1.2940952255126015 -4.829629131445342 31.015237000000003
    vertex -9.184850993605148e-16 -5.0 31.015237000000003
  endloop
endfacet
facet normal -0.130526192220052 -0.9914448613738104 -0.0
  outer loop
    vertex -9.184850993605148e-16 -5.0 31.015237000000003
    vertex -1.2940952255126077 -4.829629131445341 0.0
    vertex -9.184850993605148e-16 -5.0 0.0
  endloop
endfacet
facet normal -0.130526192220052 -0.9914448613738104 -0.0
  outer loop
    vertex -1.2940952255126077 -4.829629131445341 0.0
    vertex -9.184850993605148e-16 -5.0 31.015237000000003
    vertex -1.2940952255126077 -4.829629131445341 31.015237000000003
  endloop
endfacet
facet normal -0.3826834323650902 -0.9238795325112865 -0.0
  outer loop
    vertex -1.2940952255126077 -4.829629131445341 31.015237000000003
    vertex -2.500000000000002 -4.330127018922193 0.0
    vertex -1.2940952255126077 -4.829629131445341 0.0
  endloop
endfacet
facet normal -0.3826834323650902 -0.9238795325112865 -0.0
  outer loop
    vertex -2.500000000000002 -4.330127018922193 0.0
    vertex -1.2940952255126077 -4.829629131445341 31.015237000000003
    vertex -2.500000000000002 -4.330127018922193 31.015237000000003
  endloop
endfacet
facet normal -0.6087614290087212 -0.7933533402912348 -0.0
  outer loop
    vertex -2.500000000000002 -4.330127018922193 31.015237000000003
    vertex -3.5355339059327395 -3.535533905932736 0.0
    vertex -2.500000000000002 -4.330127018922193 0.0
  endloop
endfacet
facet normal -0.6087614290087212 -0.7933533402912348 -0.0
  outer loop
    vertex -3.5355339059327395 -3.535533905932736 0.0
    vertex -2.500000000000002 -4.330127018922193 31.015237000000003
    vertex -3.5355339059327395 -3.535533905932736 31.015237000000003
  endloop
endfacet
facet normal -0.7933533402912353 -0.6087614290087204 -0.0
  outer loop
    vertex -4.3301270189221945 -2.4999999999999987 31.015237000000003
    vertex -3.5355339059327395 -3.535533905932736 0.0
    vertex -3.5355339059327395 -3.535533905932736 31.015237000000003
  endloop
endfacet
facet normal -0.7933533402912353 -0.6087614290087204 -0.0
  outer loop
    vertex -3.5355339059327395 -3.535533905932736 0.0
    vertex -4.3301270189221945 -2.4999999999999987 31.015237000000003
    vertex -4.3301270189221945 -2.4999999999999987 0.0
  endloop
endfacet
facet normal -0.9238795325112871 -0.3826834323650891 -0.0
  outer loop
    vertex -4.829629131445342 -1.2940952255126017 31.015237000000003
    vertex -4.3301270189221945 -2.4999999999999987 0.0
    vertex -4.3301270189221945 -2.4999999999999987 31.015237000000003
  endloop
endfacet
facet normal -0.9238795325112871 -0.3826834323650891 -0.0
  outer loop
    vertex -4.3301270189221945 -2.4999999999999987 0.0
    vertex -4.829629131445342 -1.2940952255126017 31.015237000000003
    vertex -4.829629131445342 -1.2940952255126017 0.0
  endloop
endfacet
facet normal -0.9914448613738105 -0.13052619222005138 -0.0
  outer loop
    vertex -5.0 6.123233995736766e-16 31.015237000000003
    vertex -4.829629131445342 -1.2940952255126017 0.0
    vertex -4.829629131445342 -1.2940952255126017 31.015237000000003
  endloop
endfacet
facet normal -0.9914448613738105 -0.13052619222005138 -0.0
  outer loop
    vertex -4.829629131445342 -1.2940952255126017 0.0
    vertex -5.0 6.123233995736766e-16 31.015237000000003
    vertex -5.0 6.123233995736766e-16 0.0
  endloop
endfacet
facet normal -0.9914448613738105 0.13052619222005168 0.0
  outer loop
    vertex -4.8296291314453415 1.294095225512605 31.015237000000003
    vertex -5.0 6.123233995736766e-16 0.0
    vertex -5.0 6.123233995736766e-16 31.015237000000003
  endloop
endfacet
facet normal -0.9914448613738105 0.13052619222005168 0.0
  outer loop
    vertex -5.0 6.123233995736766e-16 0.0
    vertex -4.8296291314453415 1.294095225512605 31.015237000000003
    vertex -4.8296291314453415 1.294095225512605 0.0
  endloop
endfacet
facet normal 3.6239619710514704e-31 -4.472581827872737e-31 1.0
  outer loop
    vertex -1.8299978240709855 -1.9123502216545136 25.015236999999996
    vertex -1.9999999999999998 1.5 25.015236999999996
    vertex -1.9999999999999998 -1.5 25.015236999999996
  endloop
endfacet
facet normal 3.6239619710514704e-31 -4.472581827872737e-31 1.0
  outer loop
    vertex -1.9999999999999998 1.5 25.015236999999996
    vertex -1.8299978240709855 -1.9123502216545136 25.015236999999996
    vertex -1.829997824070985 1.912350221654514 25.015236999999996
  endloop
endfacet
facet normal 3.6239619710514704e-31 -4.472581827872737e-31 1.0
  outer loop
    vertex -1.829997824070985 1.912350221654514 25.015236999999996
    vertex -1.8299978240709855 -1.9123502216545136 25.015236999999996
    vertex -1.5761190415416118 -2.279064018641387 25.015236999999996
  endloop
endfacet
facet normal 3.6239619710514704e-31 -4.472581827872737e-31 1.0
  outer loop
    vertex -1.829997824070985 1.912350221654514 25.015236999999996
    vertex -1.5761190415416118 -2.279064018641387 25.015236999999996
    vertex -1.5761190415416118 2.279064018641387 25.015236999999996
  endloop
endfacet
facet normal 3.6239619710514704e-31 -4.472581827872737e-31 1.0
  outer loop
    vertex -1.5761190415416118 2.279064018641387 25.015236999999996
    vertex -1.5761190415416118 -2.279064018641387 25.015236999999996
    vertex -1.2499999999999998 -2.583333333333334 25.015236999999996
  endloop
endfacet
facet normal 3.6239619710514704e-31 -4.472581827872737e-31 1.0
  outer loop
    vertex -1.5761190415416118 2.279064018641387 25.015236999999996
    vertex -1.2499999999999998 -2.583333333333334 25.015236999999996
    vertex -1.2499999999999998 2.583333333333334 25.015236999999996
  endloop
endfacet
facet normal 3.6239619710514704e-31 -4.472581827872737e-31 1.0
  outer loop
    vertex -1.2499999999999998 2.583333333333334 25.015236999999996
    vertex -1.2499999999999998 -2.583333333333334 25.015236999999996
    vertex -0.8665881262640799 -2.811212205099536 25.015236999999996
  endloop
endfacet
facet normal 3.6239619710514704e-31 -4.472581827872737e-31 1.0
  outer loop
    vertex -1.2499999999999998 2.583333333333334 25.015236999999996
    vertex -0.8665881262640799 -2.811212205099536 25.015236999999996
    vertex -0.8665881262640799 2.811212205099536 25.015236999999996
  endloop
endfacet
facet normal 3.6239619710514704e-31 -4.472581827872737e-31 1.0
  outer loop
    vertex -0.8665881262640799 2.811212205099536 25.015236999999996
    vertex -0.8665881262640799 -2.811212205099536 25.015236999999996
    vertex -0.44345682204845743 -2.95225597317141 25.015236999999996
  endloop
endfacet
facet normal 3.6239619710514704e-31 -4.472581827872737e-31 1.0
  outer loop
    vertex -0.8665881262640799 2.811212205099536 25.015236999999996
    vertex -0.44345682204845743 -2.95225597317141 25.015236999999996
    vertex -0.4434568220484573 2.95225597317141 25.015236999999996
  endloop
endfacet
facet normal 3.6239619710514704e-31 -4.472581827872737e-31 1.0
  outer loop
    vertex -0.4434568220484573 2.95225597317141 25.015236999999996
    vertex -0.44345682204845743 -2.95225597317141 25.015236999999996
    vertex -1.5054508565685608e-16 -3.0000000000000004 25.015236999999996
  endloop
endfacet
facet normal 3.6239619710514704e-31 -4.472581827872737e-31 1.0
  outer loop
    vertex -0.4434568220484573 2.95225597317141 25.015236999999996
    vertex -1.5054508565685608e-16 -3.0000000000000004 25.015236999999996
    vertex -2.1743771826308824e-30 3.0000000000000004 25.015236999999996
  endloop
endfacet
facet normal 3.6239619710514704e-31 -4.472581827872737e-31 1.0
  outer loop
    vertex -2.1743771826308824e-30 3.0000000000000004 25.015236999999996
    vertex -1.5054508565685608e-16 -3.0000000000000004 25.015236999999996
    vertex 0.44345682204845704 -2.95225597317141 25.015236999999996
  endloop
endfacet
facet normal 3.6239619710514704e-31 -4.472581827872737e-31 1.0
  outer loop
    vertex -2.1743771826308824e-30 3.0000000000000004 25.015236999999996
    vertex 0.44345682204845704 -2.95225597317141 25.015236999999996
    vertex 0.44345682204845716 2.95225597317141 25.015236999999996
  endloop
endfacet
facet normal 3.6239619710514704e-31 -4.472581827872737e-31 1.0
  outer loop
    vertex 0.44345682204845716 2.95225597317141 25.015236999999996
    vertex 0.44345682204845704 -2.95225597317141 25.015236999999996
    vertex 0.8665881262640796 -2.8112122050995363 25.015236999999996
  endloop
endfacet
facet normal 3.6239619710514704e-31 -4.472581827872737e-31 1.0
  outer loop
    vertex 0.44345682204845716 2.95225597317141 25.015236999999996
    vertex 0.8665881262640796 -2.8112122050995363 25.015236999999996
    vertex 0.8665881262640796 2.8112122050995363 25.015236999999996
  endloop
endfacet
facet normal 3.6239619710514704e-31 -4.472581827872737e-31 1.0
  outer loop
    vertex 0.8665881262640796 2.8112122050995363 25.015236999999996
    vertex 0.8665881262640796 -2.8112122050995363 25.015236999999996
    vertex 1.2499999999999996 -2.583333333333334 25.015236999999996
  endloop
endfacet
facet normal 3.6239619710514704e-31 -4.472581827872737e-31 1.0
  outer loop
    vertex 0.8665881262640796 2.8112122050995363 25.015236999999996
    vertex 1.2499999999999996 -2.583333333333334 25.015236999999996
    vertex 1.2499999999999996 2.583333333333334 25.015236999999996
  endloop
endfacet
facet normal 3.6239619710514704e-31 -4.472581827872737e-31 1.0
  outer loop
    vertex 1.2499999999999996 2.583333333333334 25.015236999999996
    vertex 1.2499999999999996 -2.583333333333334 25.015236999999996
    vertex 1.5761190415416109 -2.2790640186413875 25.015236999999996
  endloop
endfacet
facet normal 3.6239619710514704e-31 -4.472581827872737e-31 1.0
  outer loop
    vertex 1.2499999999999996 2.583333333333334 25.015236999999996
    vertex 1.5761190415416109 -2.2790640186413875 25.015236999999996
    vertex 1.576119041541611 2.279064018641387 25.015236999999996
  endloop
endfacet
facet normal 3.6239619710514704e-31 -4.472581827872737e-31 1.0
  outer loop
    vertex 1.576119041541611 2.279064018641387 25.015236999999996
    vertex 1.5761190415416109 -2.2790640186413875 25.015236999999996
    vertex 1.8299978240709844 -1.9123502216545147 25.015236999999996
  endloop
endfacet
facet normal 3.6239619710514704e-31 -4.472581827872737e-31 1.0
  outer loop
    vertex 1.576119041541611 2.279064018641387 25.015236999999996
    vertex 1.8299978240709844 -1.9123502216545147 25.015236999999996
    vertex 1.8299978240709849 1.9123502216545147 25.015236999999996
  endloop
endfacet
facet normal 3.6239619710514704e-31 -4.472581827872737e-31 1.0
  outer loop
    vertex 1.8299978240709849 1.9123502216545147 25.015236999999996
    vertex 1.8299978240709844 -1.9123502216545147 25.015236999999996
    vertex 1.9999999999999998 -1.5 25.015236999999996
  endloop
endfacet
facet normal 3.6239619710514704e-31 -4.472581827872737e-31 1.0
  outer loop
    vertex 1.8299978240709849 1.9123502216545147 25.015236999999996
    vertex 1.9999999999999998 -1.5 25.015236999999996
    vertex 1.9999999999999998 1.5 25.015236999999996
  endloop
endfacet
facet normal 1.0 -0.0 -3.623961971051471e-31
  outer loop
    vertex -1.9999999999999998 1.5 25.015236999999996
    vertex -1.9999999999999998 -1.5 31.015236999999996
    vertex -1.9999999999999998 -1.5 25.015236999999996
  endloop
endfacet
facet normal 1.0 -0.0 -3.623961971051471e-31
  outer loop
    vertex -1.9999999999999998 -1.5 31.015236999999996
    vertex -1.9999999999999998 1.5 25.015236999999996
    vertex -1.9999999999999998 1.5 31.015236999999996
  endloop
endfacet
facet normal 0.9245115271162239 0.3811540846288122 -1.6456517835376227e-31
  outer loop
    vertex -1.9999999999999998 -1.5 25.015236999999996
    vertex -1.8299978240709855 -1.9123502216545136 31.015236999999996
    vertex -1.8299978240709855 -1.9123502216545136 25.015236999999996
  endloop
endfacet
facet normal 0.9245115271162239 0.3811540846288122 -1.6456517835376227e-31
  outer loop
    vertex -1.8299978240709855 -1.9123502216545136 31.015236999999996
    vertex -1.9999999999999998 -1.5 25.015236999999996
    vertex -1.9999999999999998 -1.5 31.015236999999996
  endloop
endfacet
facet normal 0.8221921916437788 0.5692099788303081 -4.337550278522554e-32
  outer loop
    vertex -1.8299978240709855 -1.9123502216545136 25.015236999999996
    vertex -1.5761190415416118 -2.279064018641387 31.015236999999996
    vertex -1.5761190415416118 -2.279064018641387 25.015236999999996
  endloop
endfacet
facet normal 0.8221921916437788 0.5692099788303081 -4.337550278522554e-32
  outer loop
    vertex -1.5761190415416118 -2.279064018641387 31.015236999999996
    vertex -1.8299978240709855 -1.9123502216545136 25.015236999999996
    vertex -1.8299978240709855 -1.9123502216545136 31.015236999999996
  endloop
endfacet
facet normal 0.6821882807574795 0.7311765515914431 7.980225710524524e-32
  outer loop
    vertex -1.5761190415416118 -2.279064018641387 31.015236999999996
    vertex -1.2499999999999998 -2.583333333333334 25.015236999999996
    vertex -1.5761190415416118 -2.279064018641387 25.015236999999996
  endloop
endfacet
facet normal 0.6821882807574795 0.7311765515914431 7.980225710524524e-32
  outer loop
    vertex -1.2499999999999998 -2.583333333333334 25.015236999999996
    vertex -1.5761190415416118 -2.279064018641387 31.015236999999996
    vertex -1.2499999999999998 -2.583333333333334 31.015236999999996
  endloop
endfacet
facet normal 0.510916770915691 0.8596301839727845 1.993223391356694e-31
  outer loop
    vertex -1.2499999999999998 -2.583333333333334 31.015236999999996
    vertex -0.8665881262640799 -2.811212205099536 25.015236999999996
    vertex -1.2499999999999998 -2.583333333333334 25.015236999999996
  endloop
endfacet
facet normal 0.510916770915691 0.8596301839727845 1.993223391356694e-31
  outer loop
    vertex -0.8665881262640799 -2.811212205099536 25.015236999999996
    vertex -1.2499999999999998 -2.583333333333334 31.015236999999996
    vertex -0.8665881262640799 -2.811212205099536 31.015236999999996
  endloop
endfacet
facet normal 0.3162277660168379 0.9486832980505138 3.097066281031521e-31
  outer loop
    vertex -0.8665881262640799 -2.811212205099536 31.015236999999996
    vertex -0.44345682204845743 -2.95225597317141 25.015236999999996
    vertex -0.8665881262640799 -2.811212205099536 25.015236999999996
  endloop
endfacet
facet normal 0.3162277660168379 0.9486832980505138 3.097066281031521e-31
  outer loop
    vertex -0.44345682204845743 -2.95225597317141 25.015236999999996
    vertex -0.8665881262640799 -2.811212205099536 31.015236999999996
    vertex -0.44345682204845743 -2.95225597317141 31.015236999999996
  endloop
endfacet
facet normal 0.10704469365111835 0.9942542097276421 4.0589574117193135e-31
  outer loop
    vertex -0.44345682204845743 -2.95225597317141 31.015236999999996
    vertex -1.5054508565685608e-16 -3.0000000000000004 25.015236999999996
    vertex -0.44345682204845743 -2.95225597317141 25.015236999999996
  endloop
endfacet
facet normal 0.10704469365111835 0.9942542097276421 4.0589574117193135e-31
  outer loop
    vertex -1.5054508565685608e-16 -3.0000000000000004 25.015236999999996
    vertex -0.44345682204845743 -2.95225597317141 31.015236999999996
    vertex -1.505450856568539e-16 -3.0000000000000004 31.015236999999996
  endloop
endfacet
facet normal -0.10704469365111835 0.9942542097276421 4.83480920970833e-31
  outer loop
    vertex -1.505450856568539e-16 -3.0000000000000004 31.015236999999996
    vertex 0.44345682204845704 -2.95225597317141 25.015236999999996
    vertex -1.5054508565685608e-16 -3.0000000000000004 25.015236999999996
  endloop
endfacet
facet normal -0.10704469365111835 0.9942542097276421 4.83480920970833e-31
  outer loop
    vertex 0.44345682204845704 -2.95225597317141 25.015236999999996
    vertex -1.505450856568539e-16 -3.0000000000000004 31.015236999999996
    vertex 0.44345682204845704 -2.95225597317141 31.015236999999996
  endloop
endfacet
facet normal -0.31622776601683716 0.948683298050514 5.389061077502686e-31
  outer loop
    vertex 0.44345682204845704 -2.95225597317141 31.015236999999996
    vertex 0.8665881262640796 -2.8112122050995363 25.015236999999996
    vertex 0.44345682204845704 -2.95225597317141 25.015236999999996
  endloop
endfacet
facet normal -0.31622776601683716 0.948683298050514 5.389061077502686e-31
  outer loop
    vertex 0.8665881262640796 -2.8112122050995363 25.015236999999996
    vertex 0.44345682204845704 -2.95225597317141 31.015236999999996
    vertex 0.8665881262640796 -2.8112122050995363 31.015236999999996
  endloop
endfacet
facet normal -0.510916770915691 0.8596301839727845 5.696309287698454e-31
  outer loop
    vertex 0.8665881262640796 -2.8112122050995363 31.015236999999996
    vertex 1.2499999999999996 -2.583333333333334 25.015236999999996
    vertex 0.8665881262640796 -2.8112122050995363 25.015236999999996
  endloop
endfacet
facet normal -0.510916770915691 0.8596301839727845 5.696309287698454e-31
  outer loop
    vertex 1.2499999999999996 -2.583333333333334 25.015236999999996
    vertex 0.8665881262640796 -2.8112122050995363 31.015236999999996
    vertex 1.2499999999999996 -2.583333333333334 31.015236999999996
  endloop
endfacet
facet normal -0.6821882807574796 0.731176551591443 5.742471344176631e-31
  outer loop
    vertex 1.2499999999999996 -2.583333333333334 31.015236999999996
    vertex 1.5761190415416109 -2.2790640186413875 25.015236999999996
    vertex 1.2499999999999996 -2.583333333333334 25.015236999999996
  endloop
endfacet
facet normal -0.6821882807574796 0.731176551591443 5.742471344176631e-31
  outer loop
    vertex 1.5761190415416109 -2.2790640186413875 25.015236999999996
    vertex 1.2499999999999996 -2.583333333333334 31.015236999999996
    vertex 1.5761190415416109 -2.2790640186413875 31.015236999999996
  endloop
endfacet
facet normal -0.8221921916437785 0.5692099788303082 5.525431442972778e-31
  outer loop
    vertex 1.8299978240709844 -1.9123502216545147 31.015236999999996
    vertex 1.5761190415416109 -2.2790640186413875 25.015236999999996
    vertex 1.5761190415416109 -2.2790640186413875 31.015236999999996
  endloop
endfacet
facet normal -0.8221921916437785 0.5692099788303082 5.525431442972778e-31
  outer loop
    vertex 1.5761190415416109 -2.2790640186413875 25.015236999999996
    vertex 1.8299978240709844 -1.9123502216545147 31.015236999999996
    vertex 1.8299978240709844 -1.9123502216545147 25.015236999999996
  endloop
endfacet
facet normal -0.9245115271162233 0.3811540846288135 5.055137448598212e-31
  outer loop
    vertex 1.9999999999999998 -1.5 31.015236999999996
    vertex 1.8299978240709844 -1.9123502216545147 25.015236999999996
    vertex 1.8299978240709844 -1.9123502216545147 31.015236999999996
  endloop
endfacet
facet normal -0.9245115271162233 0.3811540846288135 5.055137448598212e-31
  outer loop
    vertex 1.8299978240709844 -1.9123502216545147 25.015236999999996
    vertex 1.9999999999999998 -1.5 31.015236999999996
    vertex 1.9999999999999998 -1.5 25.015236999999996
  endloop
endfacet
facet normal -1.0 -0.0 3.623961971051471e-31
  outer loop
    vertex 1.9999999999999998 1.5 31.015236999999996
    vertex 1.9999999999999998 -1.5 25.015236999999996
    vertex 1.9999999999999998 -1.5 31.015236999999996
  endloop
endfacet
facet normal -1.0 -0.0 3.623961971051471e-31
  outer loop
    vertex 1.9999999999999998 -1.5 25.015236999999996
    vertex 1.9999999999999998 1.5 31.015236999999996
    vertex 1.9999999999999998 1.5 25.015236999999996
  endloop
endfacet
facet normal -0.9245115271162236 -0.38115408462881284 1.645651783537619e-31
  outer loop
    vertex 1.8299978240709849 1.9123502216545147 31.015236999999996
    vertex 1.9999999999999998 1.5 25.015236999999996
    vertex 1.9999999999999998 1.5 31.015236999999996
  endloop
endfacet
facet normal -0.9245115271162236 -0.38115408462881284 1.645651783537619e-31
  outer loop
    vertex 1.9999999999999998 1.5 25.015236999999996
    vertex 1.8299978240709849 1.9123502216545147 31.015236999999996
    vertex 1.8299978240709849 1.9123502216545147 25.015236999999996
  endloop
endfacet
facet normal -0.8221921916437782 -0.5692099788303089 4.337550278522501e-32
  outer loop
    vertex 1.576119041541611 2.279064018641387 31.015236999999996
    vertex 1.8299978240709849 1.9123502216545147 25.015236999999996
    vertex 1.8299978240709849 1.9123502216545147 31.015236999999996
  endloop
endfacet
facet normal -0.8221921916437782 -0.5692099788303089 4.337550278522501e-32
  outer loop
    vertex 1.8299978240709849 1.9123502216545147 25.015236999999996
    vertex 1.576119041541611 2.279064018641387 31.015236999999996
    vertex 1.576119041541611 2.279064018641387 25.015236999999996
  endloop
endfacet
facet normal -0.68218828075748 -0.7311765515914428 -7.980225710524493e-32
  outer loop
    vertex 1.576119041541611 2.279064018641387 31.015236999999996
    vertex 1.2499999999999996 2.583333333333334 25.015236999999996
    vertex 1.576119041541611 2.279064018641387 25.015236999999996
  endloop
endfacet
facet normal -0.68218828075748 -0.7311765515914428 -7.980225710524493e-32
  outer loop
    vertex 1.2499999999999996 2.583333333333334 25.015236999999996
    vertex 1.576119041541611 2.279064018641387 31.015236999999996
    vertex 1.2499999999999996 2.583333333333334 31.015236999999996
  endloop
endfacet
facet normal -0.510916770915691 -0.8596301839727845 -1.993223391356694e-31
  outer loop
    vertex 1.2499999999999996 2.583333333333334 31.015236999999996
    vertex 0.8665881262640796 2.8112122050995363 25.015236999999996
    vertex 1.2499999999999996 2.583333333333334 25.015236999999996
  endloop
endfacet
facet normal -0.510916770915691 -0.8596301839727845 -1.993223391356694e-31
  outer loop
    vertex 0.8665881262640796 2.8112122050995363 25.015236999999996
    vertex 1.2499999999999996 2.583333333333334 31.015236999999996
    vertex 0.8665881262640796 2.8112122050995363 31.015236999999996
  endloop
endfacet
facet normal -0.31622776601683794 -0.9486832980505139 -3.09706628103152e-31
  outer loop
    vertex 0.8665881262640796 2.8112122050995363 31.015236999999996
    vertex 0.44345682204845716 2.95225597317141 25.015236999999996
    vertex 0.8665881262640796 2.8112122050995363 25.015236999999996
  endloop
endfacet
facet normal -0.31622776601683794 -0.9486832980505139 -3.09706628103152e-31
  outer loop
    vertex 0.44345682204845716 2.95225597317141 25.015236999999996
    vertex 0.8665881262640796 2.8112122050995363 31.015236999999996
    vertex 0.44345682204845716 2.95225597317141 31.015236999999996
  endloop
endfacet
facet normal -0.10704469365111759 -0.9942542097276422 -4.058957411719317e-31
  outer loop
    vertex 0.44345682204845716 2.95225597317141 31.015236999999996
    vertex -2.1743771826308824e-30 3.0000000000000004 25.015236999999996
    vertex 0.44345682204845716 2.95225597317141 25.015236999999996
  endloop
endfacet
facet normal -0.10704469365111759 -0.9942542097276422 -4.058957411719317e-31
  outer loop
    vertex -2.1743771826308824e-30 3.0000000000000004 25.015236999999996
    vertex 0.44345682204845716 2.95225597317141 31.015236999999996
    vertex 0.0 3.0000000000000004 31.015236999999996
  endloop
endfacet
facet normal 0.10704469365111835 -0.9942542097276423 -4.83480920970833e-31
  outer loop
    vertex 0.0 3.0000000000000004 31.015236999999996
    vertex -0.4434568220484573 2.95225597317141 25.015236999999996
    vertex -2.1743771826308824e-30 3.0000000000000004 25.015236999999996
  endloop
endfacet
facet normal 0.10704469365111835 -0.9942542097276423 -4.83480920970833e-31
  outer loop
    vertex -0.4434568220484573 2.95225597317141 25.015236999999996
    vertex 0.0 3.0000000000000004 31.015236999999996
    vertex -0.4434568220484573 2.95225597317141 31.015236999999996
  endloop
endfacet
facet normal 0.31622776601683783 -0.948683298050514 -5.389061077502688e-31
  outer loop
    vertex -0.4434568220484573 2.95225597317141 31.015236999999996
    vertex -0.8665881262640799 2.811212205099536 25.015236999999996
    vertex -0.4434568220484573 2.95225597317141 25.015236999999996
  endloop
endfacet
facet normal 0.31622776601683783 -0.948683298050514 -5.389061077502688e-31
  outer loop
    vertex -0.8665881262640799 2.811212205099536 25.015236999999996
    vertex -0.4434568220484573 2.95225597317141 31.015236999999996
    vertex -0.8665881262640799 2.811212205099536 31.015236999999996
  endloop
endfacet
facet normal 0.510916770915691 -0.8596301839727845 -5.696309287698454e-31
  outer loop
    vertex -0.8665881262640799 2.811212205099536 31.015236999999996
    vertex -1.2499999999999998 2.583333333333334 25.015236999999996
    vertex -0.8665881262640799 2.811212205099536 25.015236999999996
  endloop
endfacet
facet normal 0.510916770915691 -0.8596301839727845 -5.696309287698454e-31
  outer loop
    vertex -1.2499999999999998 2.583333333333334 25.015236999999996
    vertex -0.8665881262640799 2.811212205099536 31.015236999999996
    vertex -1.2499999999999998 2.583333333333334 31.015236999999996
  endloop
endfacet
facet normal 0.6821882807574795 -0.7311765515914431 -5.742471344176631e-31
  outer loop
    vertex -1.2499999999999998 2.583333333333334 31.015236999999996
    vertex -1.5761190415416118 2.279064018641387 25.015236999999996
    vertex -1.2499999999999998 2.583333333333334 25.015236999999996
  endloop
endfacet
facet normal 0.6821882807574795 -0.7311765515914431 -5.742471344176631e-31
  outer loop
    vertex -1.5761190415416118 2.279064018641387 25.015236999999996
    vertex -1.2499999999999998 2.583333333333334 31.015236999999996
    vertex -1.5761190415416118 2.279064018641387 31.015236999999996
  endloop
endfacet
facet normal 0.822192191643779 -0.569209978830308 -5.525431442972778e-31
  outer loop
    vertex -1.5761190415416118 2.279064018641387 25.015236999999996
    vertex -1.829997824070985 1.912350221654514 31.015236999999996
    vertex -1.829997824070985 1.912350221654514 25.015236999999996
  endloop
endfacet
facet normal 0.822192191643779 -0.569209978830308 -5.525431442972778e-31
  outer loop
    vertex -1.829997824070985 1.912350221654514 31.015236999999996
    vertex -1.5761190415416118 2.279064018641387 25.015236999999996
    vertex -1.5761190415416118 2.279064018641387 31.015236999999996
  endloop
endfacet
facet normal 0.9245115271162236 -0.38115408462881273 -5.0551374485982105e-31
  outer loop
    vertex -1.829997824070985 1.912350221654514 25.015236999999996
    vertex -1.9999999999999998 1.5 31.015236999999996
    vertex -1.9999999999999998 1.5 25.015236999999996
  endloop
endfacet
facet normal 0.9245115271162236 -0.38115408462881273 -5.0551374485982105e-31
  outer loop
    vertex -1.9999999999999998 1.5 31.015236999999996
    vertex -1.829997824070985 1.912350221654514 25.015236999999996
    vertex -1.829997824070985 1.912350221654514 31.015236999999996
  endloop
endfacet
facet normal 0.0 0.0 -1.0
  outer loop
    vertex -3.3999999999999995 1.9629909152447287 17.0
    vertex -1.762479051592436e-15 -3.9259818304894556 17.0
    vertex -3.4 -1.9629909152447271 17.0
  endloop
endfacet
facet normal 0.0 0.0 -1.0
  outer loop
    vertex -1.762479051592436e-15 -3.9259818304894556 17.0
    vertex -3.3999999999999995 1.9629909152447287 17.0
    vertex 7.049916206369744e-16 3.925981830489455 17.0
  endloop
endfacet
facet normal 0.0 0.0 -1.0
  outer loop
    vertex -1.762479051592436e-15 -3.9259818304894556 17.0
    vertex 7.049916206369744e-16 3.925981830489455 17.0
    vertex 3.3999999999999986 -1.9629909152447305 17.0
  endloop
endfacet
facet normal 0.0 0.0 -1.0
  outer loop
    vertex 3.3999999999999986 -1.9629909152447305 17.0
    vertex 7.049916206369744e-16 3.925981830489455 17.0
    vertex 3.4 1.9629909152447276 17.0
  endloop
endfacet
facet normal -0.5000000000000001 -0.8660254037844388 -0.0
  outer loop
    vertex 3.4 1.9629909152447276 17.0
    vertex 7.049916206369744e-16 3.925981830489455 0.0
    vertex 3.4 1.9629909152447276 0.0
  endloop
endfacet
facet normal -0.5000000000000001 -0.8660254037844388 -0.0
  outer loop
    vertex 7.049916206369744e-16 3.925981830489455 0.0
    vertex 3.4 1.9629909152447276 17.0
    vertex 7.049916206369744e-16 3.925981830489455 17.0
  endloop
endfacet
facet normal -1.0 3.5914156054516537e-16 -0.0
  outer loop
    vertex 3.4 1.9629909152447276 17.0
    vertex 3.3999999999999986 -1.9629909152447305 0.0
    vertex 3.3999999999999986 -1.9629909152447305 17.0
  endloop
endfacet
facet normal -1.0 3.5914156054516537e-16 -0.0
  outer loop
    vertex 3.3999999999999986 -1.9629909152447305 0.0
    vertex 3.4 1.9629909152447276 17.0
    vertex 3.4 1.9629909152447276 0.0
  endloop
endfacet
facet normal -0.4999999999999995 0.8660254037844389 -0.0
  outer loop
    vertex -1.762479051592436e-15 -3.9259818304894556 17.0
    vertex 3.3999999999999986 -1.9629909152447305 0.0
    vertex -1.762479051592436e-15 -3.9259818304894556 0.0
  endloop
endfacet
facet normal -0.4999999999999995 0.8660254037844389 -0.0
  outer loop
    vertex 3.3999999999999986 -1.9629909152447305 0.0
    vertex -1.762479051592436e-15 -3.9259818304894556 17.0
    vertex 3.3999999999999986 -1.9629909152447305 17.0
  endloop
endfacet
facet normal 0.5000000000000004 0.8660254037844385 0.0
  outer loop
    vertex -3.4 -1.9629909152447271 17.0
    vertex -1.762479051592436e-15 -3.9259818304894556 0.0
    vertex -3.4 -1.9629909152447271 0.0
  endloop
endfacet
facet normal 0.5000000000000004 0.8660254037844385 0.0
  outer loop
    vertex -1.762479051592436e-15 -3.9259818304894556 0.0
    vertex -3.4 -1.9629909152447271 17.0
    vertex -1.762479051592436e-15 -3.9259818304894556 17.0
  endloop
endfacet
facet normal 1.0 -1.795707802725828e-16 -0.0
  outer loop
    vertex -3.3999999999999995 1.9629909152447287 0.0
    vertex -3.4 -1.9629909152447271 17.0
    vertex -3.4 -1.9629909152447271 0.0
  endloop
endfacet
facet normal 1.0 -1.795707802725828e-16 -0.0
  outer loop
    vertex -3.4 -1.9629909152447271 17.0
    vertex -3.3999999999999995 1.9629909152447287 0.0
    vertex -3.3999999999999995 1.9629909152447287 17.0
  endloop
endfacet
facet normal 0.49999999999999983 -0.8660254037844389 -0.0
  outer loop
    vertex 7.049916206369744e-16 3.925981830489455 17.0
    vertex -3.3999999999999995 1.9629909152447287 0.0
    vertex 7.049916206369744e-16 3.925981830489455 0.0
  endloop
endfacet
facet normal 0.49999999999999983 -0.8660254037844389 -0.0
  outer loop
    vertex -3.3999999999999995 1.9629909152447287 0.0
    vertex 7.049916206369744e-16 3.925981830489455 17.0
    vertex -3.3999999999999995 1.9629909152447287 17.0
  endloop
endfacet
endsolid Держатель-Шестигранный-2
