 0
SECTION
 2
ENTITIES
  0
POLYLINE
 8
Layer0
 66
     1
70
    8
 10
0.0
 20
 0.0
 30
0.0
  0
VERTEX
  8
MY3DLAYER
10
357.95552735263
20
553.6638629221202
30
-4.2196648369270463e-14
 70
     32
  0
VERTEX
  8
MY3DLAYER
10
357.6448671808502
20
553.9022408560172
30
-4.258059036693188e-14
 70
     32
  0
VERTEX
  8
MY3DLAYER
10
357.40648924695347
20
554.2129010277968
30
-4.296014391133127e-14
 70
     32
  0
VERTEX
  8
MY3DLAYER
10
357.25663861319674
20
554.5746724601433
30
-4.330944305565957e-14
 70
     32
  0
VERTEX
  8
MY3DLAYER
10
357.20552735263004
20
554.9629010277968
30
-4.3604683640475274e-14
 70
     32
  0
VERTEX
  8
MY3DLAYER
10
357.2566386131963
20
555.3511295954506
30
-4.3825745507830896e-14
 70
     32
  0
VERTEX
  8
MY3DLAYER
10
357.4064892469534
20
555.7129010277969
30
-4.395756365678848e-14
 70
     32
  0
VERTEX
  8
MY3DLAYER
10
357.6448671808504
20
556.0235611995768
30
-4.399115489833629e-14
 70
     32
  0
VERTEX
  8
MY3DLAYER
10
357.95552735263027
20
556.2619391334739
30
-4.392423004487476e-14
 70
     32
  0
VERTEX
  8
MY3DLAYER
10
358.3172987849763
20
556.4117897672309
30
-4.3761349914569094e-14
 70
     32
  0
VERTEX
  8
MY3DLAYER
10
358.7055273526298
20
556.4629010277969
30
-4.351361451912729e-14
 70
     32
  0
VERTEX
  8
MY3DLAYER
10
359.0937559202838
20
556.4117897672307
30
-4.3197906616346674e-14
 70
     32
  0
VERTEX
  8
MY3DLAYER
10
359.45552735263
20
556.2619391334733
30
-4.283574117806948e-14
 70
     32
  0
VERTEX
  8
MY3DLAYER
10
359.7661875244099
20
556.0235611995769
30
-4.245179918040814e-14
 70
     32
  0
VERTEX
  8
MY3DLAYER
10
360.00456545830673
20
555.7129010277969
30
-4.207224563600882e-14
 70
     32
  0
VERTEX
  8
MY3DLAYER
10
360.15441609206357
20
555.3511295954507
30
-4.17229464916804e-14
 70
     32
  0
VERTEX
  8
MY3DLAYER
10
360.2055273526301
20
554.9629010277968
30
-4.142770590686479e-14
 70
     32
  0
VERTEX
  8
MY3DLAYER
10
360.1544160920637
20
554.5746724601431
30
-4.120664403950903e-14
 70
     32
  0
VERTEX
  8
MY3DLAYER
10
360.0045654583067
20
554.2129010277969
30
-4.1074825890551536e-14
 70
     32
  0
VERTEX
  8
MY3DLAYER
10
359.7661875244099
20
553.9022408560171
30
-4.104123464900389e-14
 70
     32
  0
VERTEX
  8
MY3DLAYER
10
359.4555273526301
20
553.6638629221202
30
-4.110815950246514e-14
 70
     32
  0
VERTEX
  8
MY3DLAYER
10
359.09375592028385
20
553.5140122883631
30
-4.127103963277089e-14
 70
     32
  0
VERTEX
  8
MY3DLAYER
10
358.70552735263016
20
553.4629010277968
30
-4.151877502821281e-14
 70
     32
  0
VERTEX
  8
MY3DLAYER
10
358.31729878497646
20
553.5140122883632
30
-4.1834482930993405e-14
 70
     32
  0
VERTEX
  8
MY3DLAYER
10
357.95552735263
20
553.6638629221202
30
-4.2196648369270463e-14
 70
     32
  0
SEQEND
  0
POLYLINE
 8
Layer0
 66
     1
70
    8
 10
0.0
 20
 0.0
 30
0.0
  0
VERTEX
  8
MY3DLAYER
10
278.7055273526302
20
616.4629010277968
30
1.0612878536992207e-14
 70
     32
  0
VERTEX
  8
MY3DLAYER
10
279.0937559202841
20
616.4117897672309
30
1.0928586439772785e-14
 70
     32
  0
VERTEX
  8
MY3DLAYER
10
279.45552735263027
20
616.2619391334738
30
1.1290751878049725e-14
 70
     32
  0
VERTEX
  8
MY3DLAYER
10
279.76618752441004
20
616.0235611995771
30
1.1674693875711088e-14
 70
     32
  0
VERTEX
  8
MY3DLAYER
10
280.00456545830696
20
615.7129010277969
30
1.2054247420110687e-14
 70
     32
  0
VERTEX
  8
MY3DLAYER
10
280.15441609206385
20
615.3511295954506
30
1.2403546564438933e-14
 70
     32
  0
VERTEX
  8
MY3DLAYER
10
280.20552735263004
20
614.9629010277968
30
1.2698787149254644e-14
 70
     32
  0
VERTEX
  8
MY3DLAYER
10
280.1544160920637
20
614.5746724601431
30
1.291984901661021e-14
 70
     32
  0
VERTEX
  8
MY3DLAYER
10
280.004565458307
20
614.2129010277966
30
1.3051667165567785e-14
 70
     32
  0
VERTEX
  8
MY3DLAYER
10
279.76618752441004
20
613.9022408560172
30
1.3085258407115377e-14
 70
     32
  0
VERTEX
  8
MY3DLAYER
10
279.45552735263016
20
613.6638629221204
30
1.3018333553653939e-14
 70
     32
  0
VERTEX
  8
MY3DLAYER
10
279.09375592028374
20
613.5140122883635
30
1.2855453423348279e-14
 70
     32
  0
VERTEX
  8
MY3DLAYER
10
278.70552735263016
20
613.4629010277969
30
1.2607718027906278e-14
 70
     32
  0
VERTEX
  8
MY3DLAYER
10
278.3172987849763
20
613.5140122883633
30
1.2292010125125704e-14
 70
     32
  0
VERTEX
  8
MY3DLAYER
10
277.95552735263004
20
613.6638629221204
30
1.1929844686848757e-14
 70
     32
  0
VERTEX
  8
MY3DLAYER
10
277.6448671808502
20
613.9022408560171
30
1.1545902689187321e-14
 70
     32
  0
VERTEX
  8
MY3DLAYER
10
277.4064892469535
20
614.2129010277971
30
1.1166349144787888e-14
 70
     32
  0
VERTEX
  8
MY3DLAYER
10
277.2566386131967
20
614.5746724601436
30
1.0817050000459517e-14
 70
     32
  0
VERTEX
  8
MY3DLAYER
10
277.20552735263027
20
614.9629010277969
30
1.0521809415643905e-14
 70
     32
  0
VERTEX
  8
MY3DLAYER
10
277.25663861319634
20
615.3511295954511
30
1.0300747548288175e-14
 70
     32
  0
VERTEX
  8
MY3DLAYER
10
277.4064892469536
20
615.7129010277971
30
1.016892939933077e-14
 70
     32
  0
VERTEX
  8
MY3DLAYER
10
277.64486718085044
20
616.0235611995768
30
1.0135338157783132e-14
 70
     32
  0
VERTEX
  8
MY3DLAYER
10
277.9555273526304
20
616.2619391334738
30
1.0202263011244551e-14
 70
     32
  0
VERTEX
  8
MY3DLAYER
10
278.31729878497663
20
616.4117897672307
30
1.0365143141550279e-14
 70
     32
  0
VERTEX
  8
MY3DLAYER
10
278.7055273526302
20
616.4629010277968
30
1.0612878536992207e-14
 70
     32
  0
SEQEND
  0
POLYLINE
 8
Layer0
 66
     1
70
    8
 10
0.0
 20
 0.0
 30
0.0
  0
VERTEX
  8
MY3DLAYER
10
280.004565458307
20
758.7129010277969
30
-1.2277577582124744e-13
 70
     32
  0
VERTEX
  8
MY3DLAYER
10
280.15441609206397
20
758.3511295954506
30
-1.2242647667691896e-13
 70
     32
  0
VERTEX
  8
MY3DLAYER
10
280.20552735263016
20
757.9629010277966
30
-1.221312360921034e-13
 70
     32
  0
VERTEX
  8
MY3DLAYER
10
280.15441609206385
20
757.574672460143
30
-1.219101742247476e-13
 70
     32
  0
VERTEX
  8
MY3DLAYER
10
280.0045654583069
20
757.2129010277968
30
-1.2177835607579015e-13
 70
     32
  0
VERTEX
  8
MY3DLAYER
10
279.76618752440993
20
756.9022408560166
30
-1.2174476483424241e-13
 70
     32
  0
VERTEX
  8
MY3DLAYER
10
279.4555273526301
20
756.6638629221198
30
-1.218116896877037e-13
 70
     32
  0
VERTEX
  8
MY3DLAYER
10
279.09375592028397
20
756.514012288363
30
-1.2197456981800957e-13
 70
     32
  0
VERTEX
  8
MY3DLAYER
10
278.7055273526303
20
756.4629010277969
30
-1.2222230521345129e-13
 70
     32
  0
VERTEX
  8
MY3DLAYER
10
278.3172987849764
20
756.514012288363
30
-1.2253801311623205e-13
 70
     32
  0
VERTEX
  8
MY3DLAYER
10
277.9555273526302
20
756.6638629221201
30
-1.2290017855450905e-13
 70
     32
  0
VERTEX
  8
MY3DLAYER
10
277.6448671808504
20
756.9022408560166
30
-1.2328412055217044e-13
 70
     32
  0
VERTEX
  8
MY3DLAYER
10
277.4064892469535
20
757.2129010277965
30
-1.2366367409656986e-13
 70
     32
  0
VERTEX
  8
MY3DLAYER
10
277.2566386131967
20
757.5746724601429
30
-1.240129732408983e-13
 70
     32
  0
VERTEX
  8
MY3DLAYER
10
277.20552735263027
20
757.962901027797
30
-1.2430821382571388e-13
 70
     32
  0
VERTEX
  8
MY3DLAYER
10
277.2566386131966
20
758.3511295954505
30
-1.2452927569306965e-13
 70
     32
  0
VERTEX
  8
MY3DLAYER
10
277.40648924695347
20
758.7129010277969
30
-1.2466109384202717e-13
 70
     32
  0
VERTEX
  8
MY3DLAYER
10
277.6448671808503
20
759.0235611995765
30
-1.2469468508357486e-13
 70
     32
  0
VERTEX
  8
MY3DLAYER
10
277.95552735263027
20
759.2619391334733
30
-1.246277602301134e-13
 70
     32
  0
VERTEX
  8
MY3DLAYER
10
278.3172987849764
20
759.4117897672304
30
-1.2446488009980783e-13
 70
     32
  0
VERTEX
  8
MY3DLAYER
10
278.70552735263016
20
759.4629010277966
30
-1.242171447043658e-13
 70
     32
  0
VERTEX
  8
MY3DLAYER
10
279.0937559202841
20
759.4117897672304
30
-1.2390143680158514e-13
 70
     32
  0
VERTEX
  8
MY3DLAYER
10
279.45552735263044
20
759.2619391334736
30
-1.2353927136330824e-13
 70
     32
  0
VERTEX
  8
MY3DLAYER
10
279.76618752441027
20
759.0235611995763
30
-1.2315532936564663e-13
 70
     32
  0
VERTEX
  8
MY3DLAYER
10
280.004565458307
20
758.7129010277969
30
-1.2277577582124744e-13
 70
     32
  0
SEQEND
  0
POLYLINE
 8
Layer0
 66
     1
70
    8
 10
0.0
 20
 0.0
 30
0.0
  0
VERTEX
  8
MY3DLAYER
10
459.7566386131963
20
813.3511295954504
30
-1.822792809317382e-13
 70
     32
  0
VERTEX
  8
MY3DLAYER
10
459.9064892469534
20
813.7129010277968
30
-1.8241109908069576e-13
 70
     32
  0
VERTEX
  8
MY3DLAYER
10
460.1448671808502
20
814.0235611995766
30
-1.824446903222435e-13
 70
     32
  0
VERTEX
  8
MY3DLAYER
10
460.45552735263
20
814.2619391334737
30
-1.823777654687821e-13
 70
     32
  0
VERTEX
  8
MY3DLAYER
10
460.81729878497686
20
814.4117897672302
30
-1.8221488533847622e-13
 70
     32
  0
VERTEX
  8
MY3DLAYER
10
461.20552735263055
20
814.4629010277965
30
-1.8196714994303432e-13
 70
     32
  0
VERTEX
  8
MY3DLAYER
10
461.5937559202839
20
814.4117897672302
30
-1.8165144204025379e-13
 70
     32
  0
VERTEX
  8
MY3DLAYER
10
461.9555273526302
20
814.2619391334737
30
-1.8128927660197666e-13
 70
     32
  0
VERTEX
  8
MY3DLAYER
10
462.2661875244098
20
814.0235611995766
30
-1.8090533460431527e-13
 70
     32
  0
VERTEX
  8
MY3DLAYER
10
462.5045654583071
20
813.7129010277963
30
-1.8052578105991585e-13
 70
     32
  0
VERTEX
  8
MY3DLAYER
10
462.65441609206385
20
813.3511295954503
30
-1.801764819155874e-13
 70
     32
  0
VERTEX
  8
MY3DLAYER
10
462.7055273526304
20
812.9629010277966
30
-1.7988124133077189e-13
 70
     32
  0
VERTEX
  8
MY3DLAYER
10
462.6544160920635
20
812.5746724601428
30
-1.7966017946341616e-13
 70
     32
  0
VERTEX
  8
MY3DLAYER
10
462.5045654583068
20
812.2129010277961
30
-1.7952836131445874e-13
 70
     32
  0
VERTEX
  8
MY3DLAYER
10
462.26618752441016
20
811.9022408560168
30
-1.7949477007291106e-13
 70
     32
  0
VERTEX
  8
MY3DLAYER
10
461.9555273526307
20
811.6638629221202
30
-1.7956169492637247e-13
 70
     32
  0
VERTEX
  8
MY3DLAYER
10
461.59375592028374
20
811.514012288363
30
-1.7972457505667813e-13
 70
     32
  0
VERTEX
  8
MY3DLAYER
10
461.20552735263016
20
811.462901027797
30
-1.7997231045212008e-13
 70
     32
  0
VERTEX
  8
MY3DLAYER
10
460.8172987849763
20
811.5140122883632
30
-1.802880183549007e-13
 70
     32
  0
VERTEX
  8
MY3DLAYER
10
460.45552735263016
20
811.6638629221201
30
-1.806501837931775e-13
 70
     32
  0
VERTEX
  8
MY3DLAYER
10
460.1448671808507
20
811.9022408560173
30
-1.8103412579083906e-13
 70
     32
  0
VERTEX
  8
MY3DLAYER
10
459.90648924695375
20
812.2129010277969
30
-1.8141367933523838e-13
 70
     32
  0
VERTEX
  8
MY3DLAYER
10
459.7566386131967
20
812.5746724601427
30
-1.8176297847956675e-13
 70
     32
  0
VERTEX
  8
MY3DLAYER
10
459.7055273526303
20
812.9629010277969
30
-1.820582190643824e-13
 70
     32
  0
VERTEX
  8
MY3DLAYER
10
459.7566386131963
20
813.3511295954504
30
-1.822792809317382e-13
 70
     32
  0
SEQEND
  0
POLYLINE
 8
Layer0
 66
     1
70
    8
 10
0.0
 20
 0.0
 30
0.0
  0
VERTEX
  8
MY3DLAYER
10
358.3172987849766
20
814.4117897672304
30
-1.4324607606157976e-13
 70
     32
  0
VERTEX
  8
MY3DLAYER
10
358.70552735263055
20
814.4629010277965
30
-1.4299834066613774e-13
 70
     32
  0
VERTEX
  8
MY3DLAYER
10
359.09375592028414
20
814.4117897672306
30
-1.4268263276335723e-13
 70
     32
  0
VERTEX
  8
MY3DLAYER
10
359.45552735263027
20
814.2619391334731
30
-1.4232046732508018e-13
 70
     32
  0
VERTEX
  8
MY3DLAYER
10
359.76618752441004
20
814.0235611995766
30
-1.419365253274187e-13
 70
     32
  0
VERTEX
  8
MY3DLAYER
10
360.00456545830696
20
813.7129010277963
30
-1.4155697178301927e-13
 70
     32
  0
VERTEX
  8
MY3DLAYER
10
360.15441609206397
20
813.3511295954506
30
-1.4120767263869097e-13
 70
     32
  0
VERTEX
  8
MY3DLAYER
10
360.20552735263044
20
812.9629010277965
30
-1.4091243205387538e-13
 70
     32
  0
VERTEX
  8
MY3DLAYER
10
360.15441609206385
20
812.5746724601429
30
-1.4069137018651966e-13
 70
     32
  0
VERTEX
  8
MY3DLAYER
10
360.0045654583072
20
812.212901027797
30
-1.405595520375621e-13
 70
     32
  0
VERTEX
  8
MY3DLAYER
10
359.7661875244102
20
811.9022408560168
30
-1.405259607960144e-13
 70
     32
  0
VERTEX
  8
MY3DLAYER
10
359.45552735263044
20
811.6638629221197
30
-1.4059288564947584e-13
 70
     32
  0
VERTEX
  8
MY3DLAYER
10
359.09375592028397
20
811.5140122883629
30
-1.4075576577978153e-13
 70
     32
  0
VERTEX
  8
MY3DLAYER
10
358.70552735263027
20
811.4629010277966
30
-1.4100350117522342e-13
 70
     32
  0
VERTEX
  8
MY3DLAYER
10
358.3172987849763
20
811.5140122883632
30
-1.4131920907800406e-13
 70
     32
  0
VERTEX
  8
MY3DLAYER
10
357.9555273526305
20
811.66386292212
30
-1.416813745162812e-13
 70
     32
  0
VERTEX
  8
MY3DLAYER
10
357.6448671808506
20
811.9022408560168
30
-1.4206531651394248e-13
 70
     32
  0
VERTEX
  8
MY3DLAYER
10
357.4064892469537
20
812.2129010277965
30
-1.42444870058342e-13
 70
     32
  0
VERTEX
  8
MY3DLAYER
10
357.2566386131966
20
812.574672460143
30
-1.4279416920267032e-13
 70
     32
  0
VERTEX
  8
MY3DLAYER
10
357.2055273526302
20
812.9629010277966
30
-1.4308940978748601e-13
 70
     32
  0
VERTEX
  8
MY3DLAYER
10
357.25663861319686
20
813.3511295954503
30
-1.4331047165484159e-13
 70
     32
  0
VERTEX
  8
MY3DLAYER
10
357.4064892469537
20
813.7129010277968
30
-1.4344228980379913e-13
 70
     32
  0
VERTEX
  8
MY3DLAYER
10
357.6448671808507
20
814.0235611995769
30
-1.4347588104534687e-13
 70
     32
  0
VERTEX
  8
MY3DLAYER
10
357.95552735263044
20
814.2619391334733
30
-1.4340895619188546e-13
 70
     32
  0
VERTEX
  8
MY3DLAYER
10
358.3172987849766
20
814.4117897672304
30
-1.4324607606157976e-13
 70
     32
  0
SEQEND
  0
POLYLINE
 8
Layer0
 66
     1
70
    8
 10
0.0
 20
 0.0
 30
0.0
  0
VERTEX
  8
MY3DLAYER
10
251.5937559202845
20
523.0140122883633
30
-1.157030359054254e-13
 70
     32
  0
VERTEX
  8
MY3DLAYER
10
251.20552735263047
20
522.9629010277968
30
-2.5543204051592413e-14
 70
     32
  0
VERTEX
  8
MY3DLAYER
10
250.8172987849768
20
523.0140122883633
30
-2.5692674347325542e-14
 70
     32
  0
VERTEX
  8
MY3DLAYER
10
250.4555273526303
20
523.1638629221204
30
-2.590233319744948e-14
 70
     32
  0
VERTEX
  8
MY3DLAYER
10
250.14486718085067
20
523.4022408560174
30
-7.127735641857184e-14
 70
     32
  0
VERTEX
  8
MY3DLAYER
10
249.90648924695367
20
523.7129010277965
30
-7.156140061154272e-14
 70
     32
  0
VERTEX
  8
MY3DLAYER
10
249.75663861319683
20
524.0746724601428
30
-2.6735108634016927e-14
 70
     32
  0
VERTEX
  8
MY3DLAYER
10
249.70552735263047
20
524.462901027797
30
-2.701742875771418e-14
 70
     32
  0
VERTEX
  8
MY3DLAYER
10
249.75663861319683
20
524.8511295954503
30
-2.7269657611993903e-14
 70
     32
  0
VERTEX
  8
MY3DLAYER
10
249.90648924695336
20
525.2129010277971
30
-2.7474606217265653e-14
 70
     32
  0
VERTEX
  8
MY3DLAYER
10
250.14486718085055
20
525.5235611995766
30
-7.273777138553917e-14
 70
     32
  0
VERTEX
  8
MY3DLAYER
10
250.4555273526301
20
525.7619391334737
30
-2.7690968938346455e-14
 70
     32
  0
VERTEX
  8
MY3DLAYER
10
250.81729878497626
20
525.9117897672307
30
-7.280710201303683e-14
 70
     32
  0
VERTEX
  8
MY3DLAYER
10
251.20552735262993
20
525.9629010277969
30
-2.7608542704570754e-14
 70
     32
  0
VERTEX
  8
MY3DLAYER
10
251.59375592028405
20
525.9117897672309
30
-7.257853612960399e-14
 70
     32
  0
VERTEX
  8
MY3DLAYER
10
251.9555273526303
20
525.7619391334737
30
-2.7249413558713865e-14
 70
     32
  0
VERTEX
  8
MY3DLAYER
10
252.26618752441019
20
525.523561199577
30
1.8125609662408464e-14
 70
     32
  0
VERTEX
  8
MY3DLAYER
10
252.50456545830696
20
525.2129010277964
30
-2.6709809865386547e-14
 70
     32
  0
VERTEX
  8
MY3DLAYER
10
252.654416092064
20
524.8511295954507
30
-7.153610184291246e-14
 70
     32
  0
VERTEX
  8
MY3DLAYER
10
252.70552735263018
20
524.462901027797
30
-2.61343179984491e-14
 70
     32
  0
VERTEX
  8
MY3DLAYER
10
252.65441609206403
20
524.0746724601432
30
-7.100155286493546e-14
 70
     32
  0
VERTEX
  8
MY3DLAYER
10
252.50456545830724
20
523.712901027797
30
-7.079660425966388e-14
 70
     32
  0
VERTEX
  8
MY3DLAYER
10
252.26618752441033
20
523.4022408560169
30
-2.5533439091390248e-14
 70
     32
  0
VERTEX
  8
MY3DLAYER
10
251.95552735263027
20
523.1638629221204
30
-2.5460777817816996e-14
 70
     32
  0
VERTEX
  8
MY3DLAYER
10
251.5937559202845
20
523.0140122883633
30
-1.157030359054254e-13
 70
     32
  0
SEQEND
  0
POLYLINE
 8
Layer0
 66
     1
70
    8
 10
0.0
 20
 0.0
 30
0.0
  0
VERTEX
  8
MY3DLAYER
10
202.90648924695338
20
523.7129010277969
30
4.842124934838001e-15
 70
     32
  0
VERTEX
  8
MY3DLAYER
10
202.75663861319688
20
524.0746724601432
30
-4.057051052916873e-14
 70
     32
  0
VERTEX
  8
MY3DLAYER
10
202.70552735263067
20
524.4629010277969
30
4.266633067900617e-15
 70
     32
  0
VERTEX
  8
MY3DLAYER
10
202.75663861319666
20
524.8511295954504
30
-8.6224523227912e-14
 70
     32
  0
VERTEX
  8
MY3DLAYER
10
202.9064892469537
20
525.212901027797
30
-4.1310008112417256e-14
 70
     32
  0
VERTEX
  8
MY3DLAYER
10
203.14486718085095
20
525.523561199577
30
3.665754160841791e-15
 70
     32
  0
VERTEX
  8
MY3DLAYER
10
203.45552735263033
20
525.7619391334733
30
-4.1526370833498074e-14
 70
     32
  0
VERTEX
  8
MY3DLAYER
10
203.8172987849768
20
525.9117897672306
30
-8.664250390818828e-14
 70
     32
  0
VERTEX
  8
MY3DLAYER
10
204.20552735263044
20
525.9629010277969
30
-1.3168287204125494e-13
 70
     32
  0
VERTEX
  8
MY3DLAYER
10
204.59375592028437
20
525.9117897672306
30
-8.641393802475565e-14
 70
     32
  0
VERTEX
  8
MY3DLAYER
10
204.95552735263038
20
525.7619391334738
30
-4.108481545386559e-14
 70
     32
  0
VERTEX
  8
MY3DLAYER
10
205.26618752441055
20
525.5235611995766
30
4.290207767257075e-15
 70
     32
  0
VERTEX
  8
MY3DLAYER
10
205.50456545830707
20
525.2129010277969
30
-4.054521176053831e-14
 70
     32
  0
VERTEX
  8
MY3DLAYER
10
205.654416092064
20
524.8511295954512
30
-4.025204001729807e-14
 70
     32
  0
VERTEX
  8
MY3DLAYER
10
205.7055273526304
20
524.4629010277972
30
-3.996971989360086e-14
 70
     32
  0
VERTEX
  8
MY3DLAYER
10
205.65441609206408
20
524.0746724601432
30
-3.9717491039320877e-14
 70
     32
  0
VERTEX
  8
MY3DLAYER
10
205.50456545830718
20
523.7129010277972
30
-8.463200615481581e-14
 70
     32
  0
VERTEX
  8
MY3DLAYER
10
205.26618752441036
20
523.4022408560171
30
-3.936884098654185e-14
 70
     32
  0
VERTEX
  8
MY3DLAYER
10
204.9555273526305
20
523.1638629221203
30
-8.441564343373489e-14
 70
     32
  0
VERTEX
  8
MY3DLAYER
10
204.59375592028442
20
523.0140122883636
30
-8.441897407981092e-14
 70
     32
  0
VERTEX
  8
MY3DLAYER
10
204.20552735263038
20
522.9629010277968
30
5.7408577740221765e-15
 70
     32
  0
VERTEX
  8
MY3DLAYER
10
203.8172987849765
20
523.0140122883638
30
-3.9528076242477537e-14
 70
     32
  0
VERTEX
  8
MY3DLAYER
10
203.4555273526306
20
523.1638629221205
30
-8.485719881336755e-14
 70
     32
  0
VERTEX
  8
MY3DLAYER
10
203.1448671808504
20
523.4022408560177
30
-8.511275831372368e-14
 70
     32
  0
VERTEX
  8
MY3DLAYER
10
202.90648924695338
20
523.7129010277969
30
4.842124934838001e-15
 70
     32
  0
SEQEND
  0
POLYLINE
 8
Layer0
 66
     1
70
    8
 10
0.0
 20
 0.0
 30
0.0
  0
VERTEX
  8
MY3DLAYER
10
172.75663861319657
20
677.5746724601428
30
3.667960828072441e-14
 70
     32
  0
VERTEX
  8
MY3DLAYER
10
172.70552735263018
20
677.962901027797
30
2.0559527710990109e-13
 70
     32
  0
VERTEX
  8
MY3DLAYER
10
172.7566386131966
20
678.3511295954507
30
3.6145059302747254e-14
 70
     32
  0
VERTEX
  8
MY3DLAYER
10
172.90648924695344
20
678.7129010277971
30
2.466024476728413e-14
 70
     32
  0
VERTEX
  8
MY3DLAYER
10
173.14486718085027
20
679.023561199577
30
-7.700225005194757e-14
 70
     32
  0
VERTEX
  8
MY3DLAYER
10
173.45552735263016
20
679.2619391334741
30
3.5723747976394876e-14
 70
     32
  0
VERTEX
  8
MY3DLAYER
10
173.81729878497669
20
679.4117897672304
30
9.212640827342911e-14
 70
     32
  0
VERTEX
  8
MY3DLAYER
10
174.20552735263036
20
679.4629010277969
30
2.952430906045775e-13
 70
     32
  0
VERTEX
  8
MY3DLAYER
10
174.5937559202841
20
679.4117897672303
30
2.6155296310973574e-13
 70
     32
  0
VERTEX
  8
MY3DLAYER
10
174.95552735263027
20
679.2619391334732
30
-2.0234026294930414e-14
 70
     32
  0
VERTEX
  8
MY3DLAYER
10
175.26618752441019
20
679.0235611995766
30
1.1537992436772464e-13
 70
     32
  0
VERTEX
  8
MY3DLAYER
10
175.504565458307
20
678.7129010277969
30
2.51022359722995e-13
 70
     32
  0
VERTEX
  8
MY3DLAYER
10
175.65441609206425
20
678.3511295954507
30
5.955781065297836e-14
 70
     32
  0
VERTEX
  8
MY3DLAYER
10
175.70552735262987
20
677.962901027797
30
2.1775825379935758e-13
 70
     32
  0
VERTEX
  8
MY3DLAYER
10
175.6544160920643
20
677.5746724601432
30
6.009235963095556e-14
 70
     32
  0
VERTEX
  8
MY3DLAYER
10
175.50456545830707
20
677.2129010277968
30
2.5205502904948394e-13
 70
     32
  0
VERTEX
  8
MY3DLAYER
10
175.2661875244103
20
676.9022408560171
30
1.1684033933469218e-13
 70
     32
  0
VERTEX
  8
MY3DLAYER
10
174.95552735263036
20
676.6638629221202
30
-1.844539055403339e-14
 70
     32
  0
VERTEX
  8
MY3DLAYER
10
174.5937559202841
20
676.5140122883633
30
2.635479270546803e-13
 70
     32
  0
VERTEX
  8
MY3DLAYER
10
174.20552735263036
20
676.462901027797
30
2.973084292575556e-13
 70
     32
  0
VERTEX
  8
MY3DLAYER
10
173.81729878497683
20
676.5140122883633
30
9.412137221837374e-14
 70
     32
  0
VERTEX
  8
MY3DLAYER
10
173.45552735262999
20
676.6638629221202
30
3.7512383717291944e-14
 70
     32
  0
VERTEX
  8
MY3DLAYER
10
173.14486718085024
20
676.902240856017
30
-7.554183508497996e-14
 70
     32
  0
VERTEX
  8
MY3DLAYER
10
172.9064892469535
20
677.2129010277972
30
2.569291409377322e-14
 70
     32
  0
VERTEX
  8
MY3DLAYER
10
172.75663861319657
20
677.5746724601428
30
3.667960828072441e-14
 70
     32
  0
SEQEND
  0
POLYLINE
 8
Layer0
 66
     1
70
    8
 10
0.0
 20
 0.0
 30
0.0
  0
VERTEX
  8
MY3DLAYER
10
312.50456545830707
20
525.2129010277968
30
-5.4167058400853e-14
 70
     32
  0
VERTEX
  8
MY3DLAYER
10
312.6544160920641
20
524.8511295954511
30
-5.387388665761256e-14
 70
     32
  0
VERTEX
  8
MY3DLAYER
10
312.70552735263016
20
524.4629010277972
30
-8.472102813149181e-15
 70
     32
  0
VERTEX
  8
MY3DLAYER
10
312.65441609206385
20
524.0746724601432
30
-8.219873958869148e-15
 70
     32
  0
VERTEX
  8
MY3DLAYER
10
312.50456545830696
20
523.7129010277971
30
-5.3134389074363994e-14
 70
     32
  0
VERTEX
  8
MY3DLAYER
10
312.2661875244101
20
523.402240856017
30
-7.871223906090249e-15
 70
     32
  0
VERTEX
  8
MY3DLAYER
10
311.95552735263044
20
523.1638629221205
30
-5.291802635328325e-14
 70
     32
  0
VERTEX
  8
MY3DLAYER
10
311.5937559202841
20
523.0140122883633
30
-7.801893278592895e-15
 70
     32
  0
VERTEX
  8
MY3DLAYER
10
311.2055273526302
20
522.962901027797
30
-5.300045258705886e-14
 70
     32
  0
VERTEX
  8
MY3DLAYER
10
310.8172987849765
20
523.0140122883637
30
-8.030459162025606e-15
 70
     32
  0
VERTEX
  8
MY3DLAYER
10
310.4555273526303
20
523.1638629221206
30
-5.3359581732915766e-14
 70
     32
  0
VERTEX
  8
MY3DLAYER
10
310.1448671808504
20
523.4022408560172
30
-8.495677512505322e-15
 70
     32
  0
VERTEX
  8
MY3DLAYER
10
309.90648924695364
20
523.7129010277966
30
-5.3899185426242794e-14
 70
     32
  0
VERTEX
  8
MY3DLAYER
10
309.7566386131966
20
524.0746724601432
30
-9.072893448717037e-15
 70
     32
  0
VERTEX
  8
MY3DLAYER
10
309.70552735263027
20
524.4629010277969
30
-9.35521357241415e-15
 70
     32
  0
VERTEX
  8
MY3DLAYER
10
309.7566386131968
20
524.8511295954505
30
-5.4726906147460317e-14
 70
     32
  0
VERTEX
  8
MY3DLAYER
10
309.90648924695375
20
525.2129010277972
30
-5.4931854752732054e-14
 70
     32
  0
VERTEX
  8
MY3DLAYER
10
310.14486718085067
20
525.5235611995766
30
-5.5075556200239204e-14
 70
     32
  0
VERTEX
  8
MY3DLAYER
10
310.4555273526305
20
525.7619391334734
30
-5.514821747381261e-14
 70
     32
  0
VERTEX
  8
MY3DLAYER
10
310.81729878497634
20
525.9117897672311
30
3.5094040613795887e-14
 70
     32
  0
VERTEX
  8
MY3DLAYER
10
311.2055273526303
20
525.9629010277969
30
-1.0018525496080337e-13
 70
     32
  0
VERTEX
  8
MY3DLAYER
10
311.59375592028397
20
525.9117897672306
30
3.532260649722871e-14
 70
     32
  0
VERTEX
  8
MY3DLAYER
10
311.9555273526303
20
525.7619391334734
30
-5.4706662094180143e-14
 70
     32
  0
VERTEX
  8
MY3DLAYER
10
312.26618752441004
20
525.5235611995769
30
-5.44511025938242e-14
 70
     32
  0
VERTEX
  8
MY3DLAYER
10
312.50456545830707
20
525.2129010277968
30
-5.4167058400853e-14
 70
     32
  0
SEQEND
  0
POLYLINE
 8
Layer0
 66
     1
70
    8
 10
0.0
 20
 0.0
 30
0.0
  0
VERTEX
  8
MY3DLAYER
10
441.2055273526304
20
832.9629010277966
30
-1.5483151861373595e-13
 70
     32
  0
VERTEX
  8
MY3DLAYER
10
441.5937559202843
20
832.91178976723
30
-5.880318791137417e-14
 70
     32
  0
VERTEX
  8
MY3DLAYER
10
441.9555273526306
20
832.7619391334734
30
3.1645398380282256e-14
 70
     32
  0
VERTEX
  8
MY3DLAYER
10
442.2661875244104
20
832.5235611995757
30
-5.833796956089432e-14
 70
     32
  0
VERTEX
  8
MY3DLAYER
10
442.5045654583068
20
832.2129010277961
30
-1.031733890886897e-13
 70
     32
  0
VERTEX
  8
MY3DLAYER
10
442.6544160920641
20
831.8511295954502
30
-9.724028438035342e-14
 70
     32
  0
VERTEX
  8
MY3DLAYER
10
442.70552735263044
20
831.4629010277961
30
-1.5899722687271004e-13
 70
     32
  0
VERTEX
  8
MY3DLAYER
10
442.6544160920639
20
831.0746724601424
30
-6.466807960843655e-15
 70
     32
  0
VERTEX
  8
MY3DLAYER
10
442.5045654583072
20
830.7129010277964
30
-5.138132307633853e-14
 70
     32
  0
VERTEX
  8
MY3DLAYER
10
442.2661875244102
20
830.4022408560157
30
2.2081506917414287e-14
 70
     32
  0
VERTEX
  8
MY3DLAYER
10
441.9555273526304
20
830.1638629221201
30
-6.045496634491344e-15
 70
     32
  0
VERTEX
  8
MY3DLAYER
10
441.5937559202843
20
830.0140122883628
30
-4.5528358036238e-14
 70
     32
  0
VERTEX
  8
MY3DLAYER
10
441.2055273526304
20
829.9629010277959
30
-9.636685030979968e-14
 70
     32
  0
VERTEX
  8
MY3DLAYER
10
440.8172987849765
20
830.0140122883628
30
-4.5756923919670796e-14
 70
     32
  0
VERTEX
  8
MY3DLAYER
10
440.4555273526304
20
830.1638629221195
30
-6.487052014123735e-15
 70
     32
  0
VERTEX
  8
MY3DLAYER
10
440.1448671808508
20
830.4022408560161
30
2.145705331099928e-14
 70
     32
  0
VERTEX
  8
MY3DLAYER
10
439.9064892469538
20
830.7129010277961
30
-5.214611942821726e-14
 70
     32
  0
VERTEX
  8
MY3DLAYER
10
439.7566386131969
20
831.0746724601424
30
-7.319827450691435e-15
 70
     32
  0
VERTEX
  8
MY3DLAYER
10
439.7055273526307
20
831.462901027797
30
-1.598803376319752e-13
 70
     32
  0
VERTEX
  8
MY3DLAYER
10
439.75663861319634
20
831.8511295954498
30
-9.809330387020134e-14
 70
     32
  0
VERTEX
  8
MY3DLAYER
10
439.9064892469538
20
832.2129010277956
30
-1.0393818544056853e-13
 70
     32
  0
VERTEX
  8
MY3DLAYER
10
440.1448671808506
20
832.5235611995757
30
-5.896242316730939e-14
 70
     32
  0
VERTEX
  8
MY3DLAYER
10
440.45552735263055
20
832.761939133473
30
-1.9555553685212395e-14
 70
     32
  0
VERTEX
  8
MY3DLAYER
10
440.81729878497686
20
832.9117897672307
30
-5.903175379480696e-14
 70
     32
  0
VERTEX
  8
MY3DLAYER
10
441.2055273526304
20
832.9629010277966
30
-1.5483151861373595e-13
 70
     32
  0
SEQEND
  0
POLYLINE
 8
Layer0
 66
     1
70
    8
 10
0.0
 20
 0.0
 30
0.0
  0
VERTEX
  8
MY3DLAYER
10
312.504565458307
20
832.2129010277964
30
-5.1202594548640446e-14
 70
     32
  0
VERTEX
  8
MY3DLAYER
10
312.6544160920639
20
831.8511295954504
30
-6.782922170068738e-14
 70
     32
  0
VERTEX
  8
MY3DLAYER
10
312.70552735263027
20
831.4629010277966
30
-1.5214589605342718e-13
 70
     32
  0
VERTEX
  8
MY3DLAYER
10
312.65441609206385
20
831.0746724601428
30
4.550398657920554e-14
 70
     32
  0
VERTEX
  8
MY3DLAYER
10
312.504565458307
20
830.7129010277968
30
-1.6330327431576618e-14
 70
     32
  0
VERTEX
  8
MY3DLAYER
10
312.2661875244102
20
830.4022408560166
30
4.5852636631984504e-14
 70
     32
  0
VERTEX
  8
MY3DLAYER
10
311.9555273526303
20
830.1638629221195
30
4.5925297905558046e-14
 70
     32
  0
VERTEX
  8
MY3DLAYER
10
311.59375592028414
20
830.0140122883633
30
-1.119961557632005e-13
 70
     32
  0
VERTEX
  8
MY3DLAYER
10
311.2055273526302
20
829.9629010277966
30
-1.40274916176379e-13
 70
     32
  0
VERTEX
  8
MY3DLAYER
10
310.8172987849764
20
830.014012288363
30
-1.1222472164663326e-13
 70
     32
  0
VERTEX
  8
MY3DLAYER
10
310.45552735263027
20
830.1638629221198
30
4.548374252592545e-14
 70
     32
  0
VERTEX
  8
MY3DLAYER
10
310.1448671808505
20
830.4022408560165
30
4.5228183025569474e-14
 70
     32
  0
VERTEX
  8
MY3DLAYER
10
309.90648924695364
20
830.7129010277961
30
-1.7095123783455462e-14
 70
     32
  0
VERTEX
  8
MY3DLAYER
10
309.7566386131966
20
831.0746724601428
30
4.4650967089357834e-14
 70
     32
  0
VERTEX
  8
MY3DLAYER
10
309.7055273526302
20
831.4629010277966
30
-1.530290068126922e-13
 70
     32
  0
VERTEX
  8
MY3DLAYER
10
309.7566386131966
20
831.8511295954502
30
-6.868224119053523e-14
 70
     32
  0
VERTEX
  8
MY3DLAYER
10
309.9064892469537
20
832.2129010277966
30
-5.196739090051929e-14
 70
     32
  0
VERTEX
  8
MY3DLAYER
10
310.1448671808504
20
832.5235611995761
30
-5.775102531312241e-14
 70
     32
  0
VERTEX
  8
MY3DLAYER
10
310.45552735263016
20
832.761939133473
30
-4.6543820656504374e-14
 70
     32
  0
VERTEX
  8
MY3DLAYER
10
310.81729878497663
20
832.9117897672303
30
-4.654049001042826e-14
 70
     32
  0
VERTEX
  8
MY3DLAYER
10
311.2055273526302
20
832.9629010277966
30
-1.5362012075954891e-13
 70
     32
  0
VERTEX
  8
MY3DLAYER
10
311.593755920284
20
832.9117897672303
30
-4.631192412699552e-14
 70
     32
  0
VERTEX
  8
MY3DLAYER
10
311.95552735263044
20
832.7619391334734
30
-4.6102265276871866e-14
 70
     32
  0
VERTEX
  8
MY3DLAYER
10
312.2661875244101
20
832.5235611995764
30
-5.712657170670731e-14
 70
     32
  0
VERTEX
  8
MY3DLAYER
10
312.504565458307
20
832.2129010277964
30
-5.1202594548640446e-14
 70
     32
  0
SEQEND
  0
POLYLINE
 8
Layer0
 66
     1
70
    8
 10
0.0
 20
 0.0
 30
0.0
  0
VERTEX
  8
MY3DLAYER
10
252.70552735263058
20
831.4629010277963
30
-8.520911676229014e-14
 70
     32
  0
VERTEX
  8
MY3DLAYER
10
252.6544160920643
20
831.0746724601428
30
-6.2397156047627e-14
 70
     32
  0
VERTEX
  8
MY3DLAYER
10
252.5045654583071
20
830.7129010277964
30
-6.783214040745135e-14
 70
     32
  0
VERTEX
  8
MY3DLAYER
10
252.26618752441036
20
830.4022408560165
30
1.1270622551397212e-14
 70
     32
  0
VERTEX
  8
MY3DLAYER
10
251.95552735263038
20
830.1638629221197
30
-1.1216448035412525e-14
 70
     32
  0
VERTEX
  8
MY3DLAYER
10
251.593755920284
20
830.014012288363
30
-5.0699309437159324e-14
 70
     32
  0
VERTEX
  8
MY3DLAYER
10
251.2055273526302
20
829.9629010277966
30
-9.025793578052945e-14
 70
     32
  0
VERTEX
  8
MY3DLAYER
10
250.8172987849767
20
830.014012288363
30
-5.0927875320592026e-14
 70
     32
  0
VERTEX
  8
MY3DLAYER
10
250.45552735263024
20
830.1638629221192
30
-5.11375341707155e-14
 70
     32
  0
VERTEX
  8
MY3DLAYER
10
250.14486718085064
20
830.4022408560166
30
1.6286101910077882e-14
 70
     32
  0
VERTEX
  8
MY3DLAYER
10
249.9064892469536
20
830.7129010277961
30
-1.0243653454990485e-13
 70
     32
  0
VERTEX
  8
MY3DLAYER
10
249.75663861319669
20
831.0746724601428
30
2.6988751904057832e-14
 70
     32
  0
VERTEX
  8
MY3DLAYER
10
249.70552735263036
20
831.4629010277964
30
-1.086519593819383e-13
 70
     32
  0
VERTEX
  8
MY3DLAYER
10
249.75663861319688
20
831.85112959545
30
-9.198438934093087e-14
 70
     32
  0
VERTEX
  8
MY3DLAYER
10
249.90648924695358
20
832.2129010277964
30
-9.218933794620243e-14
 70
     32
  0
VERTEX
  8
MY3DLAYER
10
250.14486718085058
20
832.5235611995761
30
-4.721357567294321e-14
 70
     32
  0
VERTEX
  8
MY3DLAYER
10
250.4555273526304
20
832.7619391334729
30
-7.806706190846199e-15
 70
     32
  0
VERTEX
  8
MY3DLAYER
10
250.81729878497708
20
832.91178976723
30
-7.80337554477006e-15
 70
     32
  0
VERTEX
  8
MY3DLAYER
10
251.20552735263078
20
832.9629010277966
30
-1.712823359448487e-13
 70
     32
  0
VERTEX
  8
MY3DLAYER
10
251.5937559202845
20
832.91178976723
30
-1.8854675591528925e-14
 70
     32
  0
VERTEX
  8
MY3DLAYER
10
251.95552735263038
20
832.7619391334734
30
-5.812454749707585e-14
 70
     32
  0
VERTEX
  8
MY3DLAYER
10
252.26618752441004
20
832.5235611995761
30
-2.4029390206144945e-14
 70
     32
  0
VERTEX
  8
MY3DLAYER
10
252.50456545830733
20
832.2129010277964
30
-8.578460862922767e-14
 70
     32
  0
VERTEX
  8
MY3DLAYER
10
252.65441609206425
20
831.8511295954502
30
-1.3061090060675364e-13
 70
     32
  0
VERTEX
  8
MY3DLAYER
10
252.70552735263058
20
831.4629010277963
30
-8.520911676229014e-14
 70
     32
  0
SEQEND
  0
POLYLINE
 8
Layer0
 66
     1
70
    8
 10
0.0
 20
 0.0
 30
0.0
  0
VERTEX
  8
MY3DLAYER
10
174.59375592028405
20
564.4117897672312
30
3.4072427814056344e-13
 70
     32
  0
VERTEX
  8
MY3DLAYER
10
174.95552735263053
20
564.2619391334742
30
5.893728873589733e-14
 70
     32
  0
VERTEX
  8
MY3DLAYER
10
175.2661875244104
20
564.0235611995774
30
1.9455123939855262e-13
 70
     32
  0
VERTEX
  8
MY3DLAYER
10
175.5045654583071
20
563.7129010277976
30
3.301936747538227e-13
 70
     32
  0
VERTEX
  8
MY3DLAYER
10
175.65441609206408
20
563.351129595451
30
1.3872912568380612e-13
 70
     32
  0
VERTEX
  8
MY3DLAYER
10
175.7055273526298
20
562.9629010277972
30
2.9692956883018536e-13
 70
     32
  0
VERTEX
  8
MY3DLAYER
10
175.6544160920643
20
562.5746724601435
30
1.3926367466178333e-13
 70
     32
  0
VERTEX
  8
MY3DLAYER
10
175.50456545830693
20
562.2129010277976
30
3.3122634408031174e-13
 70
     32
  0
VERTEX
  8
MY3DLAYER
10
175.26618752441007
20
561.9022408560173
30
1.9601165436552013e-13
 70
     32
  0
VERTEX
  8
MY3DLAYER
10
174.9555273526305
20
561.6638629221208
30
6.072592447679442e-14
 70
     32
  0
VERTEX
  8
MY3DLAYER
10
174.5937559202842
20
561.5140122883638
30
3.427192420855081e-13
 70
     32
  0
VERTEX
  8
MY3DLAYER
10
174.20552735263036
20
561.462901027797
30
3.7647974428838334e-13
 70
     32
  0
VERTEX
  8
MY3DLAYER
10
173.81729878497669
20
561.5140122883635
30
1.7329268724920158e-13
 70
     32
  0
VERTEX
  8
MY3DLAYER
10
173.45552735263
20
561.6638629221201
30
1.1668369874811983e-13
 70
     32
  0
VERTEX
  8
MY3DLAYER
10
173.14486718085013
20
561.9022408560172
30
3.6294799458478535e-15
 70
     32
  0
VERTEX
  8
MY3DLAYER
10
172.90648924695367
20
562.2129010277973
30
1.0486422912460111e-13
 70
     32
  0
VERTEX
  8
MY3DLAYER
10
172.75663861319683
20
562.5746724601436
30
1.1585092331155217e-13
 70
     32
  0
VERTEX
  8
MY3DLAYER
10
172.70552735263024
20
562.9629010277976
30
2.847665921407289e-13
 70
     32
  0
VERTEX
  8
MY3DLAYER
10
172.7566386131969
20
563.3511295954514
30
1.1531637433357506e-13
 70
     32
  0
VERTEX
  8
MY3DLAYER
10
172.9064892469535
20
563.7129010277973
30
1.0383155979811199e-13
 70
     32
  0
VERTEX
  8
MY3DLAYER
10
173.14486718085027
20
564.0235611995769
30
2.1690649788803832e-15
 70
     32
  0
VERTEX
  8
MY3DLAYER
10
173.45552735263
20
564.2619391334739
30
1.148950630072227e-13
 70
     32
  0
VERTEX
  8
MY3DLAYER
10
173.8172987849767
20
564.4117897672312
30
1.712977233042567e-13
 70
     32
  0
VERTEX
  8
MY3DLAYER
10
174.20552735263044
20
564.4629010277972
30
3.744144056354053e-13
 70
     32
  0
VERTEX
  8
MY3DLAYER
10
174.59375592028405
20
564.4117897672312
30
3.4072427814056344e-13
 70
     32
  0
SEQEND
  0
POLYLINE
 8
Layer0
 66
     1
70
    8
 10
0.0
 20
 0.0
 30
0.0
  0
VERTEX
  8
MY3DLAYER
10
174.20552735263075
20
791.4629010277972
30
3.0837604166826037e-13
 70
     32
  0
VERTEX
  8
MY3DLAYER
10
173.8172987849767
20
791.5140122883635
30
3.42066169163102e-13
 70
     32
  0
VERTEX
  8
MY3DLAYER
10
173.45552735262993
20
791.6638629221201
30
1.5009878949972104e-13
 70
     32
  0
VERTEX
  8
MY3DLAYER
10
173.14486718085064
20
791.9022408560174
30
1.047237662785986e-13
 70
     32
  0
VERTEX
  8
MY3DLAYER
10
172.9064892469535
20
792.2129010277969
30
2.9209287139031364e-15
 70
     32
  0
VERTEX
  8
MY3DLAYER
10
172.75663861319688
20
792.5746724601432
30
1.6054587999334509e-13
 70
     32
  0
VERTEX
  8
MY3DLAYER
10
172.70552735263027
20
792.9629010277971
30
5.874476649792346e-14
 70
     32
  0
VERTEX
  8
MY3DLAYER
10
172.7566386131969
20
793.3511295954509
30
1.600113310153679e-13
 70
     32
  0
VERTEX
  8
MY3DLAYER
10
172.90648924695358
20
793.712901027797
30
1.8882593874140285e-15
 70
     32
  0
VERTEX
  8
MY3DLAYER
10
173.14486718085072
20
794.023561199577
30
1.032633513116311e-13
 70
     32
  0
VERTEX
  8
MY3DLAYER
10
173.45552735263007
20
794.2619391334734
30
1.4831015375882395e-13
 70
     32
  0
VERTEX
  8
MY3DLAYER
10
173.81729878497686
20
794.4117897672304
30
3.4007120521815714e-13
 70
     32
  0
VERTEX
  8
MY3DLAYER
10
174.20552735263067
20
794.4629010277972
30
3.06310703015282e-13
 70
     32
  0
VERTEX
  8
MY3DLAYER
10
174.59375592028414
20
794.4117897672305
30
1.598219162185244e-13
 70
     32
  0
VERTEX
  8
MY3DLAYER
10
174.95552735263027
20
794.2619391334737
30
5.851278169692374e-14
 70
     32
  0
VERTEX
  8
MY3DLAYER
10
175.2661875244103
20
794.0235611995766
30
3.620860933689665e-14
 70
     32
  0
VERTEX
  8
MY3DLAYER
10
175.5045654583072
20
793.7129010277974
30
3.0720943585446603e-13
 70
     32
  0
VERTEX
  8
MY3DLAYER
10
175.6544160920644
20
793.3511295954509
30
2.0598381422598238e-13
 70
     32
  0
VERTEX
  8
MY3DLAYER
10
175.70552735263
20
792.962901027797
30
2.852251958610204e-13
 70
     32
  0
VERTEX
  8
MY3DLAYER
10
175.65441609206417
20
792.574672460143
30
2.0651836320395948e-13
 70
     32
  0
VERTEX
  8
MY3DLAYER
10
175.50456545830707
20
792.2129010277969
30
3.0824210518095505e-13
 70
     32
  0
VERTEX
  8
MY3DLAYER
10
175.26618752441024
20
791.9022408560171
30
3.766902430386426e-14
 70
     32
  0
VERTEX
  8
MY3DLAYER
10
174.9555273526305
20
791.6638629221203
30
6.030141743782078e-14
 70
     32
  0
VERTEX
  8
MY3DLAYER
10
174.5937559202842
20
791.5140122883633
30
1.618168801634691e-13
 70
     32
  0
VERTEX
  8
MY3DLAYER
10
174.20552735263075
20
791.4629010277972
30
3.0837604166826037e-13
 70
     32
  0
SEQEND
  0
POLYLINE
 8
Layer0
 66
     1
70
    8
 10
0.0
 20
 0.0
 30
0.0
  0
VERTEX
  8
MY3DLAYER
10
439.7566386131965
20
524.0746724601433
30
1.6455363061506551e-13
 70
     32
  0
VERTEX
  8
MY3DLAYER
10
439.7055273526302
20
524.4629010277969
30
7.403238304983573e-14
 70
     32
  0
VERTEX
  8
MY3DLAYER
10
439.7566386131967
20
524.8511295954505
30
1.6401908163708843e-13
 70
     32
  0
VERTEX
  8
MY3DLAYER
10
439.90648924695364
20
525.212901027797
30
1.1869466931105051e-13
 70
     32
  0
VERTEX
  8
MY3DLAYER
10
440.14486718085044
20
525.5235611995765
30
1.6367043158430965e-13
 70
     32
  0
VERTEX
  8
MY3DLAYER
10
440.4555273526304
20
525.7619391334737
30
1.6359777031073616e-13
 70
     32
  0
VERTEX
  8
MY3DLAYER
10
440.81729878497634
20
525.9117897672306
30
1.1848163723604583e-13
 70
     32
  0
VERTEX
  8
MY3DLAYER
10
441.2055273526304
20
525.9629010277972
30
1.185607328237455e-13
 70
     32
  0
VERTEX
  8
MY3DLAYER
10
441.59375592028414
20
525.9117897672305
30
1.1871020311947863e-13
 70
     32
  0
VERTEX
  8
MY3DLAYER
10
441.9555273526306
20
525.7619391334733
30
1.6403932569036887e-13
 70
     32
  0
VERTEX
  8
MY3DLAYER
10
442.2661875244104
20
525.5235611995769
30
1.6429488519072468e-13
 70
     32
  0
VERTEX
  8
MY3DLAYER
10
442.50456545830735
20
525.2129010277968
30
1.1945946566292946e-13
 70
     32
  0
VERTEX
  8
MY3DLAYER
10
442.6544160920641
20
524.8511295954503
30
1.648721011269363e-13
 70
     32
  0
VERTEX
  8
MY3DLAYER
10
442.7055273526302
20
524.4629010277972
30
7.491549380910071e-14
 70
     32
  0
VERTEX
  8
MY3DLAYER
10
442.6544160920639
20
524.0746724601429
30
1.6540665010491336e-13
 70
     32
  0
VERTEX
  8
MY3DLAYER
10
442.5045654583068
20
523.7129010277969
30
1.2049213498941859e-13
 70
     32
  0
VERTEX
  8
MY3DLAYER
10
442.2661875244098
20
523.402240856017
30
2.108747638784584e-13
 70
     32
  0
VERTEX
  8
MY3DLAYER
10
441.9555273526304
20
523.1638629221202
30
1.6582796143126576e-13
 70
     32
  0
VERTEX
  8
MY3DLAYER
10
441.5937559202839
20
523.014012288363
30
1.658246307851897e-13
 70
     32
  0
VERTEX
  8
MY3DLAYER
10
441.2055273526304
20
522.9629010277966
30
1.2062607147672373e-13
 70
     32
  0
VERTEX
  8
MY3DLAYER
10
440.8172987849767
20
523.014012288363
30
1.6559606490175692e-13
 70
     32
  0
VERTEX
  8
MY3DLAYER
10
440.45552735263055
20
523.1638629221198
30
1.6538640605163327e-13
 70
     32
  0
VERTEX
  8
MY3DLAYER
10
440.14486718085044
20
523.4022408560172
30
2.102503102720435e-13
 70
     32
  0
VERTEX
  8
MY3DLAYER
10
439.90648924695347
20
523.7129010277973
30
1.1972733863753948e-13
 70
     32
  0
VERTEX
  8
MY3DLAYER
10
439.7566386131965
20
524.0746724601433
30
1.6455363061506551e-13
 70
     32
  0
SEQEND
  0
POLYLINE
 8
Layer0
 66
     1
70
    8
 10
0.0
 20
 0.0
 30
0.0
  0
VERTEX
  8
MY3DLAYER
10
585.7055273526306
20
791.462901027797
30
8.02110328065432e-14
 70
     32
  0
VERTEX
  8
MY3DLAYER
10
585.3172987849775
20
791.5140122883629
30
2.6028080521710005e-13
 70
     32
  0
VERTEX
  8
MY3DLAYER
10
584.9555273526305
20
791.6638629221203
30
5.756664042280352e-13
 70
     32
  0
VERTEX
  8
MY3DLAYER
10
584.6448671808506
20
791.9022408560166
30
5.633007069353969e-14
 70
     32
  0
VERTEX
  8
MY3DLAYER
10
584.4064892469539
20
792.2129010277968
30
2.3636508978116907e-13
 70
     32
  0
VERTEX
  8
MY3DLAYER
10
584.2566386131971
20
792.5746724601428
30
5.96927807229749e-13
 70
     32
  0
VERTEX
  8
MY3DLAYER
10
584.2055273526307
20
792.9629010277971
30
4.612530490047733e-13
 70
     32
  0
VERTEX
  8
MY3DLAYER
10
584.2566386131978
20
793.351129595451
30
5.963932582517716e-13
 70
     32
  0
VERTEX
  8
MY3DLAYER
10
584.4064892469542
20
793.712901027797
30
2.3533242045468015e-13
 70
     32
  0
VERTEX
  8
MY3DLAYER
10
584.6448671808506
20
794.0235611995763
30
5.4869655726572154e-14
 70
     32
  0
VERTEX
  8
MY3DLAYER
10
584.9555273526305
20
794.2619391334733
30
5.73877768487138e-13
 70
     32
  0
VERTEX
  8
MY3DLAYER
10
585.3172987849771
20
794.4117897672307
30
2.5828584127215546e-13
 70
     32
  0
VERTEX
  8
MY3DLAYER
10
585.7055273526306
20
794.4629010277974
30
7.814569415356502e-14
 70
     32
  0
VERTEX
  8
MY3DLAYER
10
586.0937559202843
20
794.41178976723
30
7.102262687168029e-13
 70
     32
  0
VERTEX
  8
MY3DLAYER
10
586.4555273526316
20
794.2619391334741
30
1.297229944121195e-12
 70
     32
  0
VERTEX
  8
MY3DLAYER
10
586.7661875244107
20
794.0235611995768
30
5.306615616138493e-13
 70
     32
  0
VERTEX
  8
MY3DLAYER
10
587.0045654583075
20
793.712901027797
30
6.664627885715842e-13
 70
     32
  0
VERTEX
  8
MY3DLAYER
10
587.1544160920646
20
793.3511295954504
30
5.774302065878985e-14
 70
     32
  0
VERTEX
  8
MY3DLAYER
10
587.2055273526306
20
792.9629010277969
30
9.83008393997177e-13
 70
     32
  0
VERTEX
  8
MY3DLAYER
10
587.1544160920643
20
792.5746724601428
30
5.827756963676694e-14
 70
     32
  0
VERTEX
  8
MY3DLAYER
10
587.004565458307
20
792.2129010277972
30
6.674954578980732e-13
 70
     32
  0
VERTEX
  8
MY3DLAYER
10
586.7661875244105
20
791.9022408560169
30
5.321219765808168e-13
 70
     32
  0
VERTEX
  8
MY3DLAYER
10
586.4555273526313
20
791.6638629221206
30
1.2990185798620924e-12
 70
     32
  0
VERTEX
  8
MY3DLAYER
10
586.0937559202846
20
791.5140122883636
30
7.122212326617473e-13
 70
     32
  0
VERTEX
  8
MY3DLAYER
10
585.7055273526306
20
791.462901027797
30
8.02110328065432e-14
 70
     32
  0
SEQEND
  0
POLYLINE
 8
Layer0
 66
     1
70
    8
 10
0.0
 20
 0.0
 30
0.0
  0
VERTEX
  8
MY3DLAYER
10
500.14486718084993
20
832.5235611995768
30
-1.5409886728392566e-13
 70
     32
  0
VERTEX
  8
MY3DLAYER
10
500.45552735263084
20
832.7619391334736
30
-6.957253408106188e-14
 70
     32
  0
VERTEX
  8
MY3DLAYER
10
500.8172987849766
20
832.91178976723
30
-1.5416819791142288e-13
 70
     32
  0
VERTEX
  8
MY3DLAYER
10
501.20552735263027
20
832.9629010277966
30
-1.597290352888191e-13
 70
     32
  0
VERTEX
  8
MY3DLAYER
10
501.5937559202842
20
832.9117897672296
30
-6.370070458645727e-14
 70
     32
  0
VERTEX
  8
MY3DLAYER
10
501.9555273526301
20
832.761939133473
30
-7.477091166652526e-14
 70
     32
  0
VERTEX
  8
MY3DLAYER
10
502.26618752441044
20
832.5235611995766
30
-5.75955532708817e-14
 70
     32
  0
VERTEX
  8
MY3DLAYER
10
502.50456545830707
20
832.2129010277964
30
-1.2499070465906027e-13
 70
     32
  0
VERTEX
  8
MY3DLAYER
10
502.6544160920636
20
831.8511295954505
30
-1.0777773402053257e-13
 70
     32
  0
VERTEX
  8
MY3DLAYER
10
502.7055273526305
20
831.4629010277966
30
-1.695346765128891e-13
 70
     32
  0
VERTEX
  8
MY3DLAYER
10
502.65441609206346
20
831.0746724601428
30
-7.340358725198073e-14
 70
     32
  0
VERTEX
  8
MY3DLAYER
10
502.50456545830707
20
830.712901027797
30
-8.447850457690067e-14
 70
     32
  0
VERTEX
  8
MY3DLAYER
10
502.26618752441027
20
830.4022408560169
30
-1.6655607548243726e-14
 70
     32
  0
VERTEX
  8
MY3DLAYER
10
501.9555273526301
20
830.1638629221195
30
-4.4782611100149164e-14
 70
     32
  0
VERTEX
  8
MY3DLAYER
10
501.5937559202842
20
830.014012288363
30
-1.0118527139718323e-13
 70
     32
  0
VERTEX
  8
MY3DLAYER
10
501.20552735263027
20
829.9629010277968
30
-2.309828251820863e-13
 70
     32
  0
VERTEX
  8
MY3DLAYER
10
500.8172987849769
20
830.0140122883633
30
-1.0705377024571187e-13
 70
     32
  0
VERTEX
  8
MY3DLAYER
10
500.45552735263027
20
830.1638629221198
30
-1.0162349613073976e-13
 70
     32
  0
VERTEX
  8
MY3DLAYER
10
500.1448671808503
20
830.4022408560165
30
-1.728006115465891e-14
 70
     32
  0
VERTEX
  8
MY3DLAYER
10
499.9064892469535
20
830.7129010277964
30
-1.4164263057973752e-13
 70
     32
  0
VERTEX
  8
MY3DLAYER
10
499.7566386131964
20
831.0746724601426
30
-1.7857277090870563e-14
 70
     32
  0
VERTEX
  8
MY3DLAYER
10
499.7055273526306
20
831.4629010277972
30
-1.647778543070585e-13
 70
     32
  0
VERTEX
  8
MY3DLAYER
10
499.75663861319657
20
831.8511295954505
30
-1.311904853707637e-13
 70
     32
  0
VERTEX
  8
MY3DLAYER
10
499.90648924695336
20
832.2129010277961
30
-1.0319576915055609e-13
 70
     32
  0
VERTEX
  8
MY3DLAYER
10
500.14486718084993
20
832.5235611995768
30
-1.5409886728392566e-13
 70
     32
  0
SEQEND
  0
POLYLINE
 8
Layer0
 66
     1
70
    8
 10
0.0
 20
 0.0
 30
0.0
  0
VERTEX
  8
MY3DLAYER
10
205.20552735263053
20
832.9629010277966
30
-2.0738309944729521e-13
 70
     32
  0
VERTEX
  8
MY3DLAYER
10
205.59375592028428
20
832.9117897672302
30
-8.879503688455042e-14
 70
     32
  0
VERTEX
  8
MY3DLAYER
10
205.9555273526306
20
832.7619391334727
30
-4.346591431366004e-14
 70
     32
  0
VERTEX
  8
MY3DLAYER
10
206.26618752441033
20
832.5235611995761
30
-6.013015370859144e-14
 70
     32
  0
VERTEX
  8
MY3DLAYER
10
206.50456545830733
20
832.2129010277966
30
-8.240584137600372e-14
 70
     32
  0
VERTEX
  8
MY3DLAYER
10
206.6544160920642
20
831.8511295954502
30
-1.0467240149314641e-13
 70
     32
  0
VERTEX
  8
MY3DLAYER
10
206.70552735263064
20
831.4629010277963
30
-1.1566994729964074e-13
 70
     32
  0
VERTEX
  8
MY3DLAYER
10
206.65441609206425
20
831.0746724601428
30
1.4300739751842357e-14
 70
     32
  0
VERTEX
  8
MY3DLAYER
10
206.50456545830718
20
830.7129010277961
30
-8.701310501461032e-14
 70
     32
  0
VERTEX
  8
MY3DLAYER
10
206.26618752441044
20
830.4022408560165
30
2.0289322769717264e-14
 70
     32
  0
VERTEX
  8
MY3DLAYER
10
205.95552735263067
20
830.1638629221195
30
-8.679674229352949e-14
 70
     32
  0
VERTEX
  8
MY3DLAYER
10
205.59375592028454
20
830.014012288363
30
-5.296047514903096e-14
 70
     32
  0
VERTEX
  8
MY3DLAYER
10
205.2055273526307
20
829.9629010277966
30
-1.77118095968838e-13
 70
     32
  0
VERTEX
  8
MY3DLAYER
10
204.81729878497666
20
830.0140122883628
30
-7.010883992775108e-14
 70
     32
  0
VERTEX
  8
MY3DLAYER
10
204.45552735263064
20
830.1638629221195
30
-5.903863284768303e-14
 70
     32
  0
VERTEX
  8
MY3DLAYER
10
204.14486718085053
20
830.4022408560165
30
-4.8014326417847504e-14
 70
     32
  0
VERTEX
  8
MY3DLAYER
10
203.90648924695404
20
830.7129010277961
30
-7.085810247120168e-14
 70
     32
  0
VERTEX
  8
MY3DLAYER
10
203.75663861319714
20
831.0746724601426
30
-9.37110060748255e-14
 70
     32
  0
VERTEX
  8
MY3DLAYER
10
203.70552735263033
20
831.4629010277963
30
-1.0527319212871421e-13
 70
     32
  0
VERTEX
  8
MY3DLAYER
10
203.756638613197
20
831.8511295954502
30
-1.2244521987828172e-13
 70
     32
  0
VERTEX
  8
MY3DLAYER
10
203.90648924695407
20
832.2129010277966
30
-1.2829010144864883e-13
 70
     32
  0
VERTEX
  8
MY3DLAYER
10
204.14486718085098
20
832.5235611995757
30
-1.0587407103577271e-13
 70
     32
  0
VERTEX
  8
MY3DLAYER
10
204.4555273526304
20
832.7619391334734
30
-4.95474026583886e-14
 70
     32
  0
VERTEX
  8
MY3DLAYER
10
204.81729878497688
20
832.9117897672296
30
-1.2286320055855767e-13
 70
     32
  0
VERTEX
  8
MY3DLAYER
10
205.20552735263053
20
832.9629010277966
30
-2.0738309944729521e-13
 70
     32
  0
SEQEND
  0
POLYLINE
 8
Layer0
 66
     1
70
    8
 10
0.0
 20
 0.0
 30
0.0
  0
VERTEX
  8
MY3DLAYER
10
547.1448671808499
20
523.4022408560166
30
6.127007246942981e-14
 70
     32
  0
VERTEX
  8
MY3DLAYER
10
546.9064892469529
20
523.7129010277966
30
6.098602827645853e-14
 70
     32
  0
VERTEX
  8
MY3DLAYER
10
546.7566386131961
20
524.0746724601423
30
6.069285653321837e-14
 70
     32
  0
VERTEX
  8
MY3DLAYER
10
546.70552735263
20
524.462901027797
30
6.041053640952094e-14
 70
     32
  0
VERTEX
  8
MY3DLAYER
10
546.7566386131958
20
524.8511295954503
30
1.5038843834474763e-14
 70
     32
  0
VERTEX
  8
MY3DLAYER
10
546.9064892469529
20
525.2129010277966
30
1.483389522920325e-14
 70
     32
  0
VERTEX
  8
MY3DLAYER
10
547.1448671808496
20
525.5235611995757
30
5.980965750246242e-14
 70
     32
  0
VERTEX
  8
MY3DLAYER
10
547.4555273526295
20
525.761939133473
30
1.4617532508122425e-14
 70
     32
  0
VERTEX
  8
MY3DLAYER
10
547.817298784976
20
525.9117897672302
30
1.4620863154198443e-14
 70
     32
  0
VERTEX
  8
MY3DLAYER
10
548.2055273526299
20
525.9629010277964
30
5.981942246266464e-14
 70
     32
  0
VERTEX
  8
MY3DLAYER
10
548.593755920283
20
525.9117897672302
30
5.996889275839767e-14
 70
     32
  0
VERTEX
  8
MY3DLAYER
10
548.9555273526296
20
525.7619391334732
30
1.5059087887754832e-14
 70
     32
  0
VERTEX
  8
MY3DLAYER
10
549.2661875244091
20
525.5235611995764
30
1.531464738811092e-14
 70
     32
  0
VERTEX
  8
MY3DLAYER
10
549.5045654583057
20
525.2129010277963
30
1.5598691581082068e-14
 70
     32
  0
VERTEX
  8
MY3DLAYER
10
549.6544160920623
20
524.8511295954503
30
6.101132704508869e-14
 70
     32
  0
VERTEX
  8
MY3DLAYER
10
549.7055273526297
20
524.4629010277963
30
1.0641311088955261e-13
 70
     32
  0
VERTEX
  8
MY3DLAYER
10
549.6544160920629
20
524.0746724601429
30
6.154587602306579e-14
 70
     32
  0
VERTEX
  8
MY3DLAYER
10
549.5045654583062
20
523.7129010277966
30
6.175082462833745e-14
 70
     32
  0
VERTEX
  8
MY3DLAYER
10
549.2661875244097
20
523.4022408560169
30
6.189452607584503e-14
 70
     32
  0
VERTEX
  8
MY3DLAYER
10
548.9555273526291
20
523.16386292212
30
1.0708665107018464e-13
 70
     32
  0
VERTEX
  8
MY3DLAYER
10
548.5937559202823
20
523.0140122883629
30
6.196385670334208e-14
 70
     32
  0
VERTEX
  8
MY3DLAYER
10
548.2055273526295
20
522.9629010277965
30
1.6765297394876192e-14
 70
     32
  0
VERTEX
  8
MY3DLAYER
10
547.8172987849755
20
523.0140122883629
30
6.173529081990938e-14
 70
     32
  0
VERTEX
  8
MY3DLAYER
10
547.4555273526294
20
523.1638629221202
30
6.152563196978547e-14
 70
     32
  0
VERTEX
  8
MY3DLAYER
10
547.1448671808499
20
523.4022408560166
30
6.127007246942981e-14
 70
     32
  0
SEQEND
  0
POLYLINE
 8
Layer0
 66
     1
70
    8
 10
0.0
 20
 0.0
 30
0.0
  0
VERTEX
  8
MY3DLAYER
10
585.3172987849772
20
564.4117897672309
30
4.617479350545775e-13
 70
     32
  0
VERTEX
  8
MY3DLAYER
10
585.7055273526302
20
564.4629010277969
30
2.816077879359874e-13
 70
     32
  0
VERTEX
  8
MY3DLAYER
10
586.0937559202837
20
564.4117897672307
30
9.136883624992251e-13
 70
     32
  0
VERTEX
  8
MY3DLAYER
10
586.4555273526306
20
564.2619391334738
30
1.0946168644167197e-12
 70
     32
  0
VERTEX
  8
MY3DLAYER
10
586.7661875244105
20
564.023561199577
30
7.341236553962721e-13
 70
     32
  0
VERTEX
  8
MY3DLAYER
10
587.0045654583075
20
563.7129010277969
30
7.796859549124742e-13
 70
     32
  0
VERTEX
  8
MY3DLAYER
10
587.1544160920643
20
563.3511295954509
30
2.6120511444121206e-13
 70
     32
  0
VERTEX
  8
MY3DLAYER
10
587.2055273526307
20
562.9629010277972
30
6.675966549907857e-13
 70
     32
  0
VERTEX
  8
MY3DLAYER
10
587.1544160920645
20
562.5746724601432
30
2.617396634191893e-13
 70
     32
  0
VERTEX
  8
MY3DLAYER
10
587.0045654583072
20
562.212901027797
30
7.807186242389633e-13
 70
     32
  0
VERTEX
  8
MY3DLAYER
10
586.7661875244107
20
561.9022408560177
30
7.35584070363239e-13
 70
     32
  0
VERTEX
  8
MY3DLAYER
10
586.4555273526307
20
561.6638629221204
30
1.0964055001576177e-12
 70
     32
  0
VERTEX
  8
MY3DLAYER
10
586.0937559202846
20
561.5140122883633
30
9.156833264441698e-13
 70
     32
  0
VERTEX
  8
MY3DLAYER
10
585.7055273526306
20
561.4629010277973
30
2.8367312658896557e-13
 70
     32
  0
VERTEX
  8
MY3DLAYER
10
585.3172987849775
20
561.5140122883636
30
4.637428989995226e-13
 70
     32
  0
VERTEX
  8
MY3DLAYER
10
584.9555273526307
20
561.6638629221208
30
7.791284980104574e-13
 70
     32
  0
VERTEX
  8
MY3DLAYER
10
584.6448671808512
20
561.9022408560172
30
5.6754577732513404e-14
 70
     32
  0
VERTEX
  8
MY3DLAYER
10
584.4064892469542
20
562.2129010277969
30
4.398271835635915e-13
 70
     32
  0
VERTEX
  8
MY3DLAYER
10
584.2566386131978
20
562.5746724601431
30
7.552704372914052e-13
 70
     32
  0
VERTEX
  8
MY3DLAYER
10
584.2055273526307
20
562.9629010277971
30
6.647151427871954e-13
 70
     32
  0
VERTEX
  8
MY3DLAYER
10
584.2566386131978
20
563.3511295954506
30
7.54735888313428e-13
 70
     32
  0
VERTEX
  8
MY3DLAYER
10
584.4064892469538
20
563.7129010277968
30
4.387945142371025e-13
 70
     32
  0
VERTEX
  8
MY3DLAYER
10
584.6448671808513
20
564.0235611995764
30
5.529416276554599e-14
 70
     32
  0
VERTEX
  8
MY3DLAYER
10
584.9555273526305
20
564.2619391334736
30
7.773398622695604e-13
 70
     32
  0
VERTEX
  8
MY3DLAYER
10
585.3172987849772
20
564.4117897672309
30
4.617479350545775e-13
 70
     32
  0
SEQEND
  0
POLYLINE
 8
Layer0
 66
     1
70
    8
 10
0.0
 20
 0.0
 30
0.0
  0
VERTEX
  8
MY3DLAYER
10
501.20552735263027
20
522.9629010277971
30
4.804935922049081e-14
 70
     32
  0
VERTEX
  8
MY3DLAYER
10
500.81729878497674
20
523.0140122883632
30
4.789988892475781e-14
 70
     32
  0
VERTEX
  8
MY3DLAYER
10
500.45552735262976
20
523.1638629221203
30
2.570766353867607e-15
 70
     32
  0
VERTEX
  8
MY3DLAYER
10
500.14486718084993
20
523.4022408560166
30
4.7434670574278254e-14
 70
     32
  0
VERTEX
  8
MY3DLAYER
10
499.9064892469532
20
523.712901027797
30
2.031162660540618e-15
 70
     32
  0
VERTEX
  8
MY3DLAYER
10
499.75663861319697
20
524.074672460143
30
1.7379909173002982e-15
 70
     32
  0
VERTEX
  8
MY3DLAYER
10
499.70552735263044
20
524.4629010277968
30
1.4556707936031773e-15
 70
     32
  0
VERTEX
  8
MY3DLAYER
10
499.75663861319657
20
524.8511295954505
30
1.203441939323124e-15
 70
     32
  0
VERTEX
  8
MY3DLAYER
10
499.9064892469537
20
525.2129010277968
30
4.611795705481794e-14
 70
     32
  0
VERTEX
  8
MY3DLAYER
10
500.14486718085067
20
525.5235611995762
30
4.5974255607310736e-14
 70
     32
  0
VERTEX
  8
MY3DLAYER
10
500.45552735263027
20
525.7619391334736
30
9.102105805450355e-14
 70
     32
  0
VERTEX
  8
MY3DLAYER
10
500.81729878497606
20
525.9117897672306
30
7.854612590467318e-16
 70
     32
  0
VERTEX
  8
MY3DLAYER
10
501.2055273526301
20
525.9629010277969
30
4.598402056751284e-14
 70
     32
  0
VERTEX
  8
MY3DLAYER
10
501.593755920284
20
525.9117897672304
30
9.12529545840123e-14
 70
     32
  0
VERTEX
  8
MY3DLAYER
10
501.95552735263084
20
525.7619391334732
30
1.223685992603372e-15
 70
     32
  0
VERTEX
  8
MY3DLAYER
10
502.2661875244101
20
525.5235611995766
30
4.659870921372571e-14
 70
     32
  0
VERTEX
  8
MY3DLAYER
10
502.5045654583069
20
525.2129010277969
30
4.688275340669672e-14
 70
     32
  0
VERTEX
  8
MY3DLAYER
10
502.6544160920638
20
524.8511295954503
30
4.717592514993732e-14
 70
     32
  0
VERTEX
  8
MY3DLAYER
10
502.70552735262993
20
524.4629010277973
30
9.257770899440056e-14
 70
     32
  0
VERTEX
  8
MY3DLAYER
10
502.65441609206346
20
524.0746724601429
30
2.5910104071478527e-15
 70
     32
  0
VERTEX
  8
MY3DLAYER
10
502.50456545830707
20
523.7129010277971
30
9.303488645395218e-14
 70
     32
  0
VERTEX
  8
MY3DLAYER
10
502.26618752440993
20
523.4022408560171
30
2.9396604599266506e-15
 70
     32
  0
VERTEX
  8
MY3DLAYER
10
501.9555273526303
20
523.1638629221201
30
3.0123217335002063e-15
 70
     32
  0
VERTEX
  8
MY3DLAYER
10
501.5937559202836
20
523.0140122883628
30
4.812845480819047e-14
 70
     32
  0
VERTEX
  8
MY3DLAYER
10
501.20552735263027
20
522.9629010277971
30
4.804935922049081e-14
 70
     32
  0
SEQEND
  0
POLYLINE
 8
Layer0
 66
     1
70
    8
 10
0.0
 20
 0.0
 30
0.0
  0
VERTEX
  8
MY3DLAYER
10
547.2055273526296
20
832.9629010277966
30
-2.1386719922790566e-13
 70
     32
  0
VERTEX
  8
MY3DLAYER
10
547.5937559202837
20
832.9117897672296
30
-1.291187344557353e-13
 70
     32
  0
VERTEX
  8
MY3DLAYER
10
547.9555273526303
20
832.761939133473
30
-3.303021519898287e-14
 70
     32
  0
VERTEX
  8
MY3DLAYER
10
548.2661875244099
20
832.5235611995772
30
-8.353405238448929e-14
 70
     32
  0
VERTEX
  8
MY3DLAYER
10
548.5045654583068
20
832.2129010277964
30
-1.1144967301699697e-13
 70
     32
  0
VERTEX
  8
MY3DLAYER
10
548.6544160920638
20
831.8511295954505
30
-9.987663534356502e-14
 70
     32
  0
VERTEX
  8
MY3DLAYER
10
548.7055273526305
20
831.462901027797
30
-1.8419330969630483e-13
 70
     32
  0
VERTEX
  8
MY3DLAYER
10
548.6544160920632
20
831.0746724601428
30
-4.294275671463004e-14
 70
     32
  0
VERTEX
  8
MY3DLAYER
10
548.5045654583071
20
830.7129010277964
30
-1.3861666851598686e-13
 70
     32
  0
VERTEX
  8
MY3DLAYER
10
548.2661875244103
20
830.4022408560166
30
-1.4394441836372067e-14
 70
     32
  0
VERTEX
  8
MY3DLAYER
10
547.9555273526303
20
830.1638629221195
30
-5.944124428356479e-14
 70
     32
  0
VERTEX
  8
MY3DLAYER
10
547.5937559202835
20
830.0140122883628
30
-1.3840363644098268e-13
 70
     32
  0
VERTEX
  8
MY3DLAYER
10
547.2055273526305
20
829.9629010277966
30
-1.1592300016829855e-13
 70
     32
  0
VERTEX
  8
MY3DLAYER
10
546.8172987849764
20
830.0140122883624
30
-1.0479260453384016e-13
 70
     32
  0
VERTEX
  8
MY3DLAYER
10
546.4555273526296
20
830.1638629221201
30
-9.936233041886826e-14
 70
     32
  0
VERTEX
  8
MY3DLAYER
10
546.1448671808502
20
830.4022408560166
30
-3.757862730317042e-14
 70
     32
  0
VERTEX
  8
MY3DLAYER
10
545.906489246954
20
830.7129010277972
30
-4.914253742633317e-14
 70
     32
  0
VERTEX
  8
MY3DLAYER
10
545.7566386131966
20
831.0746724601428
30
-6.635550806486087e-14
 70
     32
  0
VERTEX
  8
MY3DLAYER
10
545.7055273526306
20
831.4629010277973
30
-2.076361523159532e-13
 70
     32
  0
VERTEX
  8
MY3DLAYER
10
545.7566386131967
20
831.8511295954505
30
-1.6276891744946667e-13
 70
     32
  0
VERTEX
  8
MY3DLAYER
10
545.9064892469528
20
832.2129010277964
30
-1.5169400012454677e-13
 70
     32
  0
VERTEX
  8
MY3DLAYER
10
546.1448671808502
20
832.5235611995764
30
-7.851857302580853e-14
 70
     32
  0
VERTEX
  8
MY3DLAYER
10
546.4555273526297
20
832.7619391334739
30
-8.423116726447812e-14
 70
     32
  0
VERTEX
  8
MY3DLAYER
10
546.8172987849761
20
832.9117897672307
30
-1.067875684787851e-13
 70
     32
  0
VERTEX
  8
MY3DLAYER
10
547.2055273526296
20
832.9629010277966
30
-2.1386719922790566e-13
 70
     32
  0
SEQEND
  0
POLYLINE
 8
Layer0
 66
     1
70
    8
 10
0.0
 20
 0.0
 30
0.0
  0
VERTEX
  8
MY3DLAYER
10
460.8172987849763
20
556.4117897672303
30
-2.6526660546240186e-14
 70
     32
  0
VERTEX
  8
MY3DLAYER
10
461.2055273526298
20
556.4629010277966
30
-2.6278925150798386e-14
 70
     32
  0
VERTEX
  8
MY3DLAYER
10
461.5937559202835
20
556.4117897672305
30
-2.5963217248017953e-14
 70
     32
  0
VERTEX
  8
MY3DLAYER
10
461.9555273526298
20
556.2619391334739
30
-2.560105180974091e-14
 70
     32
  0
VERTEX
  8
MY3DLAYER
10
462.26618752441016
20
556.0235611995769
30
-2.521710981207927e-14
 70
     32
  0
VERTEX
  8
MY3DLAYER
10
462.50456545830656
20
555.7129010277972
30
-2.4837556267680182e-14
 70
     32
  0
VERTEX
  8
MY3DLAYER
10
462.65441609206334
20
555.3511295954507
30
-2.448825712335162e-14
 70
     32
  0
VERTEX
  8
MY3DLAYER
10
462.7055273526302
20
554.962901027797
30
-2.419301653853608e-14
 70
     32
  0
VERTEX
  8
MY3DLAYER
10
462.6544160920637
20
554.5746724601431
30
-2.397195467118027e-14
 70
     32
  0
VERTEX
  8
MY3DLAYER
10
462.50456545830696
20
554.2129010277964
30
-2.3840136522222663e-14
 70
     32
  0
VERTEX
  8
MY3DLAYER
10
462.26618752440964
20
553.9022408560169
30
-2.3806545280675052e-14
 70
     32
  0
VERTEX
  8
MY3DLAYER
10
461.9555273526302
20
553.6638629221204
30
-2.3873470134136555e-14
 70
     32
  0
VERTEX
  8
MY3DLAYER
10
461.5937559202835
20
553.5140122883633
30
-2.403635026444219e-14
 70
     32
  0
VERTEX
  8
MY3DLAYER
10
461.20552735263
20
553.4629010277968
30
-2.428408565988414e-14
 70
     32
  0
VERTEX
  8
MY3DLAYER
10
460.81729878497595
20
553.5140122883635
30
-2.4599793562664794e-14
 70
     32
  0
VERTEX
  8
MY3DLAYER
10
460.45552735263016
20
553.6638629221202
30
-2.496195900094166e-14
 70
     32
  0
VERTEX
  8
MY3DLAYER
10
460.1448671808502
20
553.9022408560172
30
-2.5345900998603287e-14
 70
     32
  0
VERTEX
  8
MY3DLAYER
10
459.90648924695324
20
554.212901027797
30
-2.5725454543002587e-14
 70
     32
  0
VERTEX
  8
MY3DLAYER
10
459.7566386131963
20
554.5746724601428
30
-2.6074753687330953e-14
 70
     32
  0
VERTEX
  8
MY3DLAYER
10
459.7055273526303
20
554.962901027797
30
-2.6369994272146448e-14
 70
     32
  0
VERTEX
  8
MY3DLAYER
10
459.7566386131961
20
555.3511295954507
30
-2.659105613950231e-14
 70
     32
  0
VERTEX
  8
MY3DLAYER
10
459.90648924695324
20
555.7129010277969
30
-2.672287428845978e-14
 70
     32
  0
VERTEX
  8
MY3DLAYER
10
460.1448671808498
20
556.0235611995768
30
-2.6756465530007603e-14
 70
     32
  0
VERTEX
  8
MY3DLAYER
10
460.45552735263
20
556.2619391334739
30
-2.668954067654606e-14
 70
     32
  0
VERTEX
  8
MY3DLAYER
10
460.8172987849763
20
556.4117897672303
30
-2.6526660546240186e-14
 70
     32
  0
SEQEND
  0
POLYLINE
 8
Layer0
 66
     1
70
    8
 10
0.0
 20
 0.0
 30
0.0
  0
VERTEX
  8
MY3DLAYER
10
563.2055273526303
20
831.4629010277966
30
-2.5888400253786523e-13
 70
     32
  0
VERTEX
  8
MY3DLAYER
10
563.2055273526299
20
827.962901027796
30
-1.380358485090457e-13
 70
     32
  0
VERTEX
  8
MY3DLAYER
10
568.2055273526302
20
827.9629010277968
30
1.2851285211589843e-13
 70
     32
  0
VERTEX
  8
MY3DLAYER
10
573.2055273526302
20
822.9629010277964
30
2.7211599470581156e-13
 70
     32
  0
VERTEX
  8
MY3DLAYER
10
598.2055273526308
20
822.9629010277964
30
-6.51380141733695e-13
 70
     32
  0
VERTEX
  8
MY3DLAYER
10
608.2055273526307
20
812.9629010277966
30
-6.800101025992339e-13
 70
     32
  0
VERTEX
  8
MY3DLAYER
10
608.2055273526305
20
542.962901027797
30
-7.19726942435035e-13
 70
     32
  0
VERTEX
  8
MY3DLAYER
10
598.205527352631
20
532.9629010277969
30
-9.480448395409068e-13
 70
     32
  0
VERTEX
  8
MY3DLAYER
10
573.2055273526296
20
532.9629010277973
30
5.168848615477961e-13
 70
     32
  0
VERTEX
  8
MY3DLAYER
10
568.20552735263
20
527.962901027797
30
2.899272536929442e-13
 70
     32
  0
VERTEX
  8
MY3DLAYER
10
562.1301960445447
20
527.9629010277966
30
1.5278046571588846e-13
 70
     32
  0
VERTEX
  8
MY3DLAYER
10
562.130196044544
20
524.4629010277963
30
1.1007056375693009e-13
 70
     32
  0
VERTEX
  8
MY3DLAYER
10
558.6301960445439
20
520.9629010277965
30
1.565692933536949e-13
 70
     32
  0
VERTEX
  8
MY3DLAYER
10
489.7055273526304
20
520.9629010277966
30
1.8139938490759298e-13
 70
     32
  0
VERTEX
  8
MY3DLAYER
10
486.20552735263027
20
524.4629010277965
30
8.772059981844341e-14
 70
     32
  0
VERTEX
  8
MY3DLAYER
10
486.20552735262993
20
527.9629010277969
30
1.3043050177740166e-13
 70
     32
  0
VERTEX
  8
MY3DLAYER
10
466.2055273526303
20
527.9629010277964
30
1.2454309671563517e-13
 70
     32
  0
VERTEX
  8
MY3DLAYER
10
466.20552735262993
20
524.462901027797
30
8.18331947566765e-14
 70
     32
  0
VERTEX
  8
MY3DLAYER
10
462.7055273526304
20
520.9629010277966
30
1.283319243534416e-13
 70
     32
  0
VERTEX
  8
MY3DLAYER
10
289.70552735263016
20
520.9629010277969
30
-1.2833056872373019e-14
 70
     32
  0
VERTEX
  8
MY3DLAYER
10
286.20552735263004
20
524.4629010277974
30
-1.6272914519990106e-14
 70
     32
  0
VERTEX
  8
MY3DLAYER
10
286.2055273526303
20
527.9629010277969
30
-1.8682476281797724e-14
 70
     32
  0
VERTEX
  8
MY3DLAYER
10
266.20552735263016
20
527.9629010277971
30
-2.4569881343564464e-14
 70
     32
  0
VERTEX
  8
MY3DLAYER
10
266.20552735263016
20
524.4629010277972
30
-6.727978330252315e-14
 70
     32
  0
VERTEX
  8
MY3DLAYER
10
262.70552735263055
20
520.9629010277968
30
-2.0781053705757865e-14
 70
     32
  0
VERTEX
  8
MY3DLAYER
10
192.70552735263038
20
520.9629010277969
30
-4.138697142194134e-14
 70
     32
  0
VERTEX
  8
MY3DLAYER
10
189.20552735263036
20
524.4629010277971
30
-4.4826829069558283e-14
 70
     32
  0
VERTEX
  8
MY3DLAYER
10
189.2055273526301
20
527.9629010277969
30
-2.1169271105998763e-15
 70
     32
  0
VERTEX
  8
MY3DLAYER
10
184.20552735263018
20
527.9629010277972
30
-2.6148510236424694e-14
 70
     32
  0
VERTEX
  8
MY3DLAYER
10
179.20552735263007
20
532.9629010277974
30
4.7896468921177714e-14
 70
     32
  0
VERTEX
  8
MY3DLAYER
10
174.2055273526305
20
532.9629010277972
30
3.1714139998033447e-13
 70
     32
  0
VERTEX
  8
MY3DLAYER
10
164.2055273526304
20
542.9629010277973
30
-6.492234042346529e-14
 70
     32
  0
VERTEX
  8
MY3DLAYER
10
164.2055273526307
20
812.9629010277972
30
-2.508028191914961e-13
 70
     32
  0
VERTEX
  8
MY3DLAYER
10
174.20552735263053
20
822.9629010277966
30
1.9645105837045752e-13
 70
     32
  0
VERTEX
  8
MY3DLAYER
10
179.2055273526301
20
822.9629010277968
30
-1.5175293420004053e-13
 70
     32
  0
VERTEX
  8
MY3DLAYER
10
184.20552735263047
20
827.9629010277968
30
-2.2140250960404502e-13
 70
     32
  0
VERTEX
  8
MY3DLAYER
10
189.20552735263
20
827.9629010277968
30
-2.4249039019898667e-13
 70
     32
  0
VERTEX
  8
MY3DLAYER
10
189.20552735263033
20
831.4629010277963
30
-5.878216411263305e-14
 70
     32
  0
VERTEX
  8
MY3DLAYER
10
192.70552735263075
20
834.9629010277964
30
-9.9640960744302e-14
 70
     32
  0
VERTEX
  8
MY3DLAYER
10
262.7055273526303
20
834.9629010277962
30
-4.519544523754405e-14
 70
     32
  0
VERTEX
  8
MY3DLAYER
10
266.20552735263055
20
831.4629010277966
30
-7.559518538050187e-14
 70
     32
  0
VERTEX
  8
MY3DLAYER
10
266.20552735263016
20
827.9629010277968
30
-2.254638136762807e-13
 70
     32
  0
VERTEX
  8
MY3DLAYER
10
286.20552735263044
20
827.9629010277963
30
-1.3497741413807713e-13
 70
     32
  0
VERTEX
  8
MY3DLAYER
10
286.20552735263044
20
832.4629010277968
30
1.420276794004227e-14
 70
     32
  0
VERTEX
  8
MY3DLAYER
10
288.7055273526304
20
834.9629010277965
30
-2.062201976196011e-14
 70
     32
  0
VERTEX
  8
MY3DLAYER
10
463.7055273526303
20
834.9629010277962
30
-7.626595180832172e-14
 70
     32
  0
VERTEX
  8
MY3DLAYER
10
466.20552735262993
20
832.4629010277964
30
-7.944884359654823e-14
 70
     32
  0
VERTEX
  8
MY3DLAYER
10
466.2055273526305
20
827.9629010277968
30
-2.7938842236052976e-13
 70
     32
  0
VERTEX
  8
MY3DLAYER
10
486.20552735263084
20
827.9629010277974
30
-1.381426261364641e-13
 70
     32
  0
VERTEX
  8
MY3DLAYER
10
486.20552735262976
20
831.4629010277963
30
-1.687518527237511e-13
 70
     32
  0
VERTEX
  8
MY3DLAYER
10
489.7055273526304
20
834.9629010277968
30
-7.989219115821693e-14
 70
     32
  0
VERTEX
  8
MY3DLAYER
10
559.7055273526296
20
834.9629010277968
30
-5.364634047693807e-14
 70
     32
  0
VERTEX
  8
MY3DLAYER
10
563.2055273526303
20
831.4629010277966
30
-2.5888400253786523e-13
 70
     32
  0
SEQEND
  0
POLYLINE
 8
Layer0
 66
     1
70
    8
 10
0.0
 20
 0.0
 30
0.0
  0
VERTEX
  8
MY3DLAYER
10
547.5937559202837
20
832.9117897672296
30
-1.291187344557353e-13
 70
     32
  0
VERTEX
  8
MY3DLAYER
10
547.2055273526296
20
832.9629010277966
30
-2.1386719922790566e-13
 70
     32
  0
VERTEX
  8
MY3DLAYER
10
546.8172987849761
20
832.9117897672307
30
-1.067875684787851e-13
 70
     32
  0
VERTEX
  8
MY3DLAYER
10
546.4555273526297
20
832.7619391334739
30
-8.423116726447812e-14
 70
     32
  0
VERTEX
  8
MY3DLAYER
10
546.1448671808502
20
832.5235611995764
30
-7.851857302580853e-14
 70
     32
  0
VERTEX
  8
MY3DLAYER
10
545.9064892469528
20
832.2129010277964
30
-1.5169400012454677e-13
 70
     32
  0
VERTEX
  8
MY3DLAYER
10
545.7566386131967
20
831.8511295954505
30
-1.6276891744946667e-13
 70
     32
  0
VERTEX
  8
MY3DLAYER
10
545.7055273526306
20
831.4629010277973
30
-2.076361523159532e-13
 70
     32
  0
VERTEX
  8
MY3DLAYER
10
545.7566386131966
20
831.0746724601428
30
-6.635550806486087e-14
 70
     32
  0
VERTEX
  8
MY3DLAYER
10
545.906489246954
20
830.7129010277972
30
-4.914253742633317e-14
 70
     32
  0
VERTEX
  8
MY3DLAYER
10
546.1448671808502
20
830.4022408560166
30
-3.757862730317042e-14
 70
     32
  0
VERTEX
  8
MY3DLAYER
10
546.4555273526296
20
830.1638629221201
30
-9.936233041886826e-14
 70
     32
  0
VERTEX
  8
MY3DLAYER
10
546.8172987849764
20
830.0140122883624
30
-1.0479260453384016e-13
 70
     32
  0
VERTEX
  8
MY3DLAYER
10
547.2055273526305
20
829.9629010277966
30
-1.1592300016829855e-13
 70
     32
  0
VERTEX
  8
MY3DLAYER
10
547.5937559202835
20
830.0140122883628
30
-1.3840363644098268e-13
 70
     32
  0
VERTEX
  8
MY3DLAYER
10
547.9555273526303
20
830.1638629221195
30
-5.944124428356479e-14
 70
     32
  0
VERTEX
  8
MY3DLAYER
10
548.2661875244103
20
830.4022408560166
30
-1.4394441836372067e-14
 70
     32
  0
VERTEX
  8
MY3DLAYER
10
548.5045654583071
20
830.7129010277964
30
-1.3861666851598686e-13
 70
     32
  0
VERTEX
  8
MY3DLAYER
10
548.6544160920632
20
831.0746724601428
30
-4.294275671463004e-14
 70
     32
  0
VERTEX
  8
MY3DLAYER
10
548.7055273526305
20
831.462901027797
30
-1.8419330969630483e-13
 70
     32
  0
VERTEX
  8
MY3DLAYER
10
548.6544160920638
20
831.8511295954505
30
-9.987663534356502e-14
 70
     32
  0
VERTEX
  8
MY3DLAYER
10
548.5045654583068
20
832.2129010277964
30
-1.1144967301699697e-13
 70
     32
  0
VERTEX
  8
MY3DLAYER
10
548.2661875244099
20
832.5235611995772
30
-8.353405238448929e-14
 70
     32
  0
VERTEX
  8
MY3DLAYER
10
547.9555273526303
20
832.761939133473
30
-3.303021519898287e-14
 70
     32
  0
VERTEX
  8
MY3DLAYER
10
547.5937559202837
20
832.9117897672296
30
-1.291187344557353e-13
 70
     32
  0
SEQEND
  0
POLYLINE
 8
Layer0
 66
     1
70
    8
 10
0.0
 20
 0.0
 30
0.0
  0
VERTEX
  8
MY3DLAYER
10
500.45552735263084
20
832.7619391334736
30
-6.957253408106188e-14
 70
     32
  0
VERTEX
  8
MY3DLAYER
10
500.14486718084993
20
832.5235611995768
30
-1.5409886728392566e-13
 70
     32
  0
VERTEX
  8
MY3DLAYER
10
499.90648924695336
20
832.2129010277961
30
-1.0319576915055609e-13
 70
     32
  0
VERTEX
  8
MY3DLAYER
10
499.75663861319657
20
831.8511295954505
30
-1.311904853707637e-13
 70
     32
  0
VERTEX
  8
MY3DLAYER
10
499.7055273526306
20
831.4629010277972
30
-1.647778543070585e-13
 70
     32
  0
VERTEX
  8
MY3DLAYER
10
499.7566386131964
20
831.0746724601426
30
-1.7857277090870563e-14
 70
     32
  0
VERTEX
  8
MY3DLAYER
10
499.9064892469535
20
830.7129010277964
30
-1.4164263057973752e-13
 70
     32
  0
VERTEX
  8
MY3DLAYER
10
500.1448671808503
20
830.4022408560165
30
-1.728006115465891e-14
 70
     32
  0
VERTEX
  8
MY3DLAYER
10
500.45552735263027
20
830.1638629221198
30
-1.0162349613073976e-13
 70
     32
  0
VERTEX
  8
MY3DLAYER
10
500.8172987849769
20
830.0140122883633
30
-1.0705377024571187e-13
 70
     32
  0
VERTEX
  8
MY3DLAYER
10
501.20552735263027
20
829.9629010277968
30
-2.309828251820863e-13
 70
     32
  0
VERTEX
  8
MY3DLAYER
10
501.5937559202842
20
830.014012288363
30
-1.0118527139718323e-13
 70
     32
  0
VERTEX
  8
MY3DLAYER
10
501.9555273526301
20
830.1638629221195
30
-4.4782611100149164e-14
 70
     32
  0
VERTEX
  8
MY3DLAYER
10
502.26618752441027
20
830.4022408560169
30
-1.6655607548243726e-14
 70
     32
  0
VERTEX
  8
MY3DLAYER
10
502.50456545830707
20
830.712901027797
30
-8.447850457690067e-14
 70
     32
  0
VERTEX
  8
MY3DLAYER
10
502.65441609206346
20
831.0746724601428
30
-7.340358725198073e-14
 70
     32
  0
VERTEX
  8
MY3DLAYER
10
502.7055273526305
20
831.4629010277966
30
-1.695346765128891e-13
 70
     32
  0
VERTEX
  8
MY3DLAYER
10
502.6544160920636
20
831.8511295954505
30
-1.0777773402053257e-13
 70
     32
  0
VERTEX
  8
MY3DLAYER
10
502.50456545830707
20
832.2129010277964
30
-1.2499070465906027e-13
 70
     32
  0
VERTEX
  8
MY3DLAYER
10
502.26618752441044
20
832.5235611995766
30
-5.75955532708817e-14
 70
     32
  0
VERTEX
  8
MY3DLAYER
10
501.9555273526301
20
832.761939133473
30
-7.477091166652526e-14
 70
     32
  0
VERTEX
  8
MY3DLAYER
10
501.5937559202842
20
832.9117897672296
30
-6.370070458645727e-14
 70
     32
  0
VERTEX
  8
MY3DLAYER
10
501.20552735263027
20
832.9629010277966
30
-1.597290352888191e-13
 70
     32
  0
VERTEX
  8
MY3DLAYER
10
500.8172987849766
20
832.91178976723
30
-1.5416819791142288e-13
 70
     32
  0
VERTEX
  8
MY3DLAYER
10
500.45552735263084
20
832.7619391334736
30
-6.957253408106188e-14
 70
     32
  0
SEQEND
  0
POLYLINE
 8
Layer0
 66
     1
70
    8
 10
0.0
 20
 0.0
 30
0.0
  0
VERTEX
  8
MY3DLAYER
10
312.6544160920641
20
524.8511295954511
30
-5.387388665761256e-14
 70
     32
  0
VERTEX
  8
MY3DLAYER
10
312.50456545830707
20
525.2129010277968
30
-5.4167058400853e-14
 70
     32
  0
VERTEX
  8
MY3DLAYER
10
312.26618752441004
20
525.5235611995769
30
-5.44511025938242e-14
 70
     32
  0
VERTEX
  8
MY3DLAYER
10
311.9555273526303
20
525.7619391334734
30
-5.4706662094180143e-14
 70
     32
  0
VERTEX
  8
MY3DLAYER
10
311.59375592028397
20
525.9117897672306
30
3.532260649722871e-14
 70
     32
  0
VERTEX
  8
MY3DLAYER
10
311.2055273526303
20
525.9629010277969
30
-1.0018525496080337e-13
 70
     32
  0
VERTEX
  8
MY3DLAYER
10
310.81729878497634
20
525.9117897672311
30
3.5094040613795887e-14
 70
     32
  0
VERTEX
  8
MY3DLAYER
10
310.4555273526305
20
525.7619391334734
30
-5.514821747381261e-14
 70
     32
  0
VERTEX
  8
MY3DLAYER
10
310.14486718085067
20
525.5235611995766
30
-5.5075556200239204e-14
 70
     32
  0
VERTEX
  8
MY3DLAYER
10
309.90648924695375
20
525.2129010277972
30
-5.4931854752732054e-14
 70
     32
  0
VERTEX
  8
MY3DLAYER
10
309.7566386131968
20
524.8511295954505
30
-5.4726906147460317e-14
 70
     32
  0
VERTEX
  8
MY3DLAYER
10
309.70552735263027
20
524.4629010277969
30
-9.35521357241415e-15
 70
     32
  0
VERTEX
  8
MY3DLAYER
10
309.7566386131966
20
524.0746724601432
30
-9.072893448717037e-15
 70
     32
  0
VERTEX
  8
MY3DLAYER
10
309.90648924695364
20
523.7129010277966
30
-5.3899185426242794e-14
 70
     32
  0
VERTEX
  8
MY3DLAYER
10
310.1448671808504
20
523.4022408560172
30
-8.495677512505322e-15
 70
     32
  0
VERTEX
  8
MY3DLAYER
10
310.4555273526303
20
523.1638629221206
30
-5.3359581732915766e-14
 70
     32
  0
VERTEX
  8
MY3DLAYER
10
310.8172987849765
20
523.0140122883637
30
-8.030459162025606e-15
 70
     32
  0
VERTEX
  8
MY3DLAYER
10
311.2055273526302
20
522.962901027797
30
-5.300045258705886e-14
 70
     32
  0
VERTEX
  8
MY3DLAYER
10
311.5937559202841
20
523.0140122883633
30
-7.801893278592895e-15
 70
     32
  0
VERTEX
  8
MY3DLAYER
10
311.95552735263044
20
523.1638629221205
30
-5.291802635328325e-14
 70
     32
  0
VERTEX
  8
MY3DLAYER
10
312.2661875244101
20
523.402240856017
30
-7.871223906090249e-15
 70
     32
  0
VERTEX
  8
MY3DLAYER
10
312.50456545830696
20
523.7129010277971
30
-5.3134389074363994e-14
 70
     32
  0
VERTEX
  8
MY3DLAYER
10
312.65441609206385
20
524.0746724601432
30
-8.219873958869148e-15
 70
     32
  0
VERTEX
  8
MY3DLAYER
10
312.70552735263016
20
524.4629010277972
30
-8.472102813149181e-15
 70
     32
  0
VERTEX
  8
MY3DLAYER
10
312.6544160920641
20
524.8511295954511
30
-5.387388665761256e-14
 70
     32
  0
SEQEND
  0
POLYLINE
 8
Layer0
 66
     1
70
    8
 10
0.0
 20
 0.0
 30
0.0
  0
VERTEX
  8
MY3DLAYER
10
439.7055273526302
20
524.4629010277969
30
7.403238304983573e-14
 70
     32
  0
VERTEX
  8
MY3DLAYER
10
439.7566386131965
20
524.0746724601433
30
1.6455363061506551e-13
 70
     32
  0
VERTEX
  8
MY3DLAYER
10
439.90648924695347
20
523.7129010277973
30
1.1972733863753948e-13
 70
     32
  0
VERTEX
  8
MY3DLAYER
10
440.14486718085044
20
523.4022408560172
30
2.102503102720435e-13
 70
     32
  0
VERTEX
  8
MY3DLAYER
10
440.45552735263055
20
523.1638629221198
30
1.6538640605163327e-13
 70
     32
  0
VERTEX
  8
MY3DLAYER
10
440.8172987849767
20
523.014012288363
30
1.6559606490175692e-13
 70
     32
  0
VERTEX
  8
MY3DLAYER
10
441.2055273526304
20
522.9629010277966
30
1.2062607147672373e-13
 70
     32
  0
VERTEX
  8
MY3DLAYER
10
441.5937559202839
20
523.014012288363
30
1.658246307851897e-13
 70
     32
  0
VERTEX
  8
MY3DLAYER
10
441.9555273526304
20
523.1638629221202
30
1.6582796143126576e-13
 70
     32
  0
VERTEX
  8
MY3DLAYER
10
442.2661875244098
20
523.402240856017
30
2.108747638784584e-13
 70
     32
  0
VERTEX
  8
MY3DLAYER
10
442.5045654583068
20
523.7129010277969
30
1.2049213498941859e-13
 70
     32
  0
VERTEX
  8
MY3DLAYER
10
442.6544160920639
20
524.0746724601429
30
1.6540665010491336e-13
 70
     32
  0
VERTEX
  8
MY3DLAYER
10
442.7055273526302
20
524.4629010277972
30
7.491549380910071e-14
 70
     32
  0
VERTEX
  8
MY3DLAYER
10
442.6544160920641
20
524.8511295954503
30
1.648721011269363e-13
 70
     32
  0
VERTEX
  8
MY3DLAYER
10
442.50456545830735
20
525.2129010277968
30
1.1945946566292946e-13
 70
     32
  0
VERTEX
  8
MY3DLAYER
10
442.2661875244104
20
525.5235611995769
30
1.6429488519072468e-13
 70
     32
  0
VERTEX
  8
MY3DLAYER
10
441.9555273526306
20
525.7619391334733
30
1.6403932569036887e-13
 70
     32
  0
VERTEX
  8
MY3DLAYER
10
441.59375592028414
20
525.9117897672305
30
1.1871020311947863e-13
 70
     32
  0
VERTEX
  8
MY3DLAYER
10
441.2055273526304
20
525.9629010277972
30
1.185607328237455e-13
 70
     32
  0
VERTEX
  8
MY3DLAYER
10
440.81729878497634
20
525.9117897672306
30
1.1848163723604583e-13
 70
     32
  0
VERTEX
  8
MY3DLAYER
10
440.4555273526304
20
525.7619391334737
30
1.6359777031073616e-13
 70
     32
  0
VERTEX
  8
MY3DLAYER
10
440.14486718085044
20
525.5235611995765
30
1.6367043158430965e-13
 70
     32
  0
VERTEX
  8
MY3DLAYER
10
439.90648924695364
20
525.212901027797
30
1.1869466931105051e-13
 70
     32
  0
VERTEX
  8
MY3DLAYER
10
439.7566386131967
20
524.8511295954505
30
1.6401908163708843e-13
 70
     32
  0
VERTEX
  8
MY3DLAYER
10
439.7055273526302
20
524.4629010277969
30
7.403238304983573e-14
 70
     32
  0
SEQEND
  0
POLYLINE
 8
Layer0
 66
     1
70
    8
 10
0.0
 20
 0.0
 30
0.0
  0
VERTEX
  8
MY3DLAYER
10
174.95552735263053
20
564.2619391334742
30
5.893728873589733e-14
 70
     32
  0
VERTEX
  8
MY3DLAYER
10
174.59375592028405
20
564.4117897672312
30
3.4072427814056344e-13
 70
     32
  0
VERTEX
  8
MY3DLAYER
10
174.20552735263044
20
564.4629010277972
30
3.744144056354053e-13
 70
     32
  0
VERTEX
  8
MY3DLAYER
10
173.8172987849767
20
564.4117897672312
30
1.712977233042567e-13
 70
     32
  0
VERTEX
  8
MY3DLAYER
10
173.45552735263
20
564.2619391334739
30
1.148950630072227e-13
 70
     32
  0
VERTEX
  8
MY3DLAYER
10
173.14486718085027
20
564.0235611995769
30
2.1690649788803832e-15
 70
     32
  0
VERTEX
  8
MY3DLAYER
10
172.9064892469535
20
563.7129010277973
30
1.0383155979811199e-13
 70
     32
  0
VERTEX
  8
MY3DLAYER
10
172.7566386131969
20
563.3511295954514
30
1.1531637433357506e-13
 70
     32
  0
VERTEX
  8
MY3DLAYER
10
172.70552735263024
20
562.9629010277976
30
2.847665921407289e-13
 70
     32
  0
VERTEX
  8
MY3DLAYER
10
172.75663861319683
20
562.5746724601436
30
1.1585092331155217e-13
 70
     32
  0
VERTEX
  8
MY3DLAYER
10
172.90648924695367
20
562.2129010277973
30
1.0486422912460111e-13
 70
     32
  0
VERTEX
  8
MY3DLAYER
10
173.14486718085013
20
561.9022408560172
30
3.6294799458478535e-15
 70
     32
  0
VERTEX
  8
MY3DLAYER
10
173.45552735263
20
561.6638629221201
30
1.1668369874811983e-13
 70
     32
  0
VERTEX
  8
MY3DLAYER
10
173.81729878497669
20
561.5140122883635
30
1.7329268724920158e-13
 70
     32
  0
VERTEX
  8
MY3DLAYER
10
174.20552735263036
20
561.462901027797
30
3.7647974428838334e-13
 70
     32
  0
VERTEX
  8
MY3DLAYER
10
174.5937559202842
20
561.5140122883638
30
3.427192420855081e-13
 70
     32
  0
VERTEX
  8
MY3DLAYER
10
174.9555273526305
20
561.6638629221208
30
6.072592447679442e-14
 70
     32
  0
VERTEX
  8
MY3DLAYER
10
175.26618752441007
20
561.9022408560173
30
1.9601165436552013e-13
 70
     32
  0
VERTEX
  8
MY3DLAYER
10
175.50456545830693
20
562.2129010277976
30
3.3122634408031174e-13
 70
     32
  0
VERTEX
  8
MY3DLAYER
10
175.6544160920643
20
562.5746724601435
30
1.3926367466178333e-13
 70
     32
  0
VERTEX
  8
MY3DLAYER
10
175.7055273526298
20
562.9629010277972
30
2.9692956883018536e-13
 70
     32
  0
VERTEX
  8
MY3DLAYER
10
175.65441609206408
20
563.351129595451
30
1.3872912568380612e-13
 70
     32
  0
VERTEX
  8
MY3DLAYER
10
175.5045654583071
20
563.7129010277976
30
3.301936747538227e-13
 70
     32
  0
VERTEX
  8
MY3DLAYER
10
175.2661875244104
20
564.0235611995774
30
1.9455123939855262e-13
 70
     32
  0
VERTEX
  8
MY3DLAYER
10
174.95552735263053
20
564.2619391334742
30
5.893728873589733e-14
 70
     32
  0
SEQEND
  0
POLYLINE
 8
Layer0
 66
     1
70
    8
 10
0.0
 20
 0.0
 30
0.0
  0
VERTEX
  8
MY3DLAYER
10
173.8172987849767
20
791.5140122883635
30
3.42066169163102e-13
 70
     32
  0
VERTEX
  8
MY3DLAYER
10
174.20552735263075
20
791.4629010277972
30
3.0837604166826037e-13
 70
     32
  0
VERTEX
  8
MY3DLAYER
10
174.5937559202842
20
791.5140122883633
30
1.618168801634691e-13
 70
     32
  0
VERTEX
  8
MY3DLAYER
10
174.9555273526305
20
791.6638629221203
30
6.030141743782078e-14
 70
     32
  0
VERTEX
  8
MY3DLAYER
10
175.26618752441024
20
791.9022408560171
30
3.766902430386426e-14
 70
     32
  0
VERTEX
  8
MY3DLAYER
10
175.50456545830707
20
792.2129010277969
30
3.0824210518095505e-13
 70
     32
  0
VERTEX
  8
MY3DLAYER
10
175.65441609206417
20
792.574672460143
30
2.0651836320395948e-13
 70
     32
  0
VERTEX
  8
MY3DLAYER
10
175.70552735263
20
792.962901027797
30
2.852251958610204e-13
 70
     32
  0
VERTEX
  8
MY3DLAYER
10
175.6544160920644
20
793.3511295954509
30
2.0598381422598238e-13
 70
     32
  0
VERTEX
  8
MY3DLAYER
10
175.5045654583072
20
793.7129010277974
30
3.0720943585446603e-13
 70
     32
  0
VERTEX
  8
MY3DLAYER
10
175.2661875244103
20
794.0235611995766
30
3.620860933689665e-14
 70
     32
  0
VERTEX
  8
MY3DLAYER
10
174.95552735263027
20
794.2619391334737
30
5.851278169692374e-14
 70
     32
  0
VERTEX
  8
MY3DLAYER
10
174.59375592028414
20
794.4117897672305
30
1.598219162185244e-13
 70
     32
  0
VERTEX
  8
MY3DLAYER
10
174.20552735263067
20
794.4629010277972
30
3.06310703015282e-13
 70
     32
  0
VERTEX
  8
MY3DLAYER
10
173.81729878497686
20
794.4117897672304
30
3.4007120521815714e-13
 70
     32
  0
VERTEX
  8
MY3DLAYER
10
173.45552735263007
20
794.2619391334734
30
1.4831015375882395e-13
 70
     32
  0
VERTEX
  8
MY3DLAYER
10
173.14486718085072
20
794.023561199577
30
1.032633513116311e-13
 70
     32
  0
VERTEX
  8
MY3DLAYER
10
172.90648924695358
20
793.712901027797
30
1.8882593874140285e-15
 70
     32
  0
VERTEX
  8
MY3DLAYER
10
172.7566386131969
20
793.3511295954509
30
1.600113310153679e-13
 70
     32
  0
VERTEX
  8
MY3DLAYER
10
172.70552735263027
20
792.9629010277971
30
5.874476649792346e-14
 70
     32
  0
VERTEX
  8
MY3DLAYER
10
172.75663861319688
20
792.5746724601432
30
1.6054587999334509e-13
 70
     32
  0
VERTEX
  8
MY3DLAYER
10
172.9064892469535
20
792.2129010277969
30
2.9209287139031364e-15
 70
     32
  0
VERTEX
  8
MY3DLAYER
10
173.14486718085064
20
791.9022408560174
30
1.047237662785986e-13
 70
     32
  0
VERTEX
  8
MY3DLAYER
10
173.45552735262993
20
791.6638629221201
30
1.5009878949972104e-13
 70
     32
  0
VERTEX
  8
MY3DLAYER
10
173.8172987849767
20
791.5140122883635
30
3.42066169163102e-13
 70
     32
  0
SEQEND
  0
POLYLINE
 8
Layer0
 66
     1
70
    8
 10
0.0
 20
 0.0
 30
0.0
  0
VERTEX
  8
MY3DLAYER
10
172.70552735263018
20
677.962901027797
30
2.0559527710990109e-13
 70
     32
  0
VERTEX
  8
MY3DLAYER
10
172.75663861319657
20
677.5746724601428
30
3.667960828072441e-14
 70
     32
  0
VERTEX
  8
MY3DLAYER
10
172.9064892469535
20
677.2129010277972
30
2.569291409377322e-14
 70
     32
  0
VERTEX
  8
MY3DLAYER
10
173.14486718085024
20
676.902240856017
30
-7.554183508497996e-14
 70
     32
  0
VERTEX
  8
MY3DLAYER
10
173.45552735262999
20
676.6638629221202
30
3.7512383717291944e-14
 70
     32
  0
VERTEX
  8
MY3DLAYER
10
173.81729878497683
20
676.5140122883633
30
9.412137221837374e-14
 70
     32
  0
VERTEX
  8
MY3DLAYER
10
174.20552735263036
20
676.462901027797
30
2.973084292575556e-13
 70
     32
  0
VERTEX
  8
MY3DLAYER
10
174.5937559202841
20
676.5140122883633
30
2.635479270546803e-13
 70
     32
  0
VERTEX
  8
MY3DLAYER
10
174.95552735263036
20
676.6638629221202
30
-1.844539055403339e-14
 70
     32
  0
VERTEX
  8
MY3DLAYER
10
175.2661875244103
20
676.9022408560171
30
1.1684033933469218e-13
 70
     32
  0
VERTEX
  8
MY3DLAYER
10
175.50456545830707
20
677.2129010277968
30
2.5205502904948394e-13
 70
     32
  0
VERTEX
  8
MY3DLAYER
10
175.6544160920643
20
677.5746724601432
30
6.009235963095556e-14
 70
     32
  0
VERTEX
  8
MY3DLAYER
10
175.70552735262987
20
677.962901027797
30
2.1775825379935758e-13
 70
     32
  0
VERTEX
  8
MY3DLAYER
10
175.65441609206425
20
678.3511295954507
30
5.955781065297836e-14
 70
     32
  0
VERTEX
  8
MY3DLAYER
10
175.504565458307
20
678.7129010277969
30
2.51022359722995e-13
 70
     32
  0
VERTEX
  8
MY3DLAYER
10
175.26618752441019
20
679.0235611995766
30
1.1537992436772464e-13
 70
     32
  0
VERTEX
  8
MY3DLAYER
10
174.95552735263027
20
679.2619391334732
30
-2.0234026294930414e-14
 70
     32
  0
VERTEX
  8
MY3DLAYER
10
174.5937559202841
20
679.4117897672303
30
2.6155296310973574e-13
 70
     32
  0
VERTEX
  8
MY3DLAYER
10
174.20552735263036
20
679.4629010277969
30
2.952430906045775e-13
 70
     32
  0
VERTEX
  8
MY3DLAYER
10
173.81729878497669
20
679.4117897672304
30
9.212640827342911e-14
 70
     32
  0
VERTEX
  8
MY3DLAYER
10
173.45552735263016
20
679.2619391334741
30
3.5723747976394876e-14
 70
     32
  0
VERTEX
  8
MY3DLAYER
10
173.14486718085027
20
679.023561199577
30
-7.700225005194757e-14
 70
     32
  0
VERTEX
  8
MY3DLAYER
10
172.90648924695344
20
678.7129010277971
30
2.466024476728413e-14
 70
     32
  0
VERTEX
  8
MY3DLAYER
10
172.7566386131966
20
678.3511295954507
30
3.6145059302747254e-14
 70
     32
  0
VERTEX
  8
MY3DLAYER
10
172.70552735263018
20
677.962901027797
30
2.0559527710990109e-13
 70
     32
  0
SEQEND
  0
POLYLINE
 8
Layer0
 66
     1
70
    8
 10
0.0
 20
 0.0
 30
0.0
  0
VERTEX
  8
MY3DLAYER
10
441.5937559202843
20
832.91178976723
30
-5.880318791137417e-14
 70
     32
  0
VERTEX
  8
MY3DLAYER
10
441.2055273526304
20
832.9629010277966
30
-1.5483151861373595e-13
 70
     32
  0
VERTEX
  8
MY3DLAYER
10
440.81729878497686
20
832.9117897672307
30
-5.903175379480696e-14
 70
     32
  0
VERTEX
  8
MY3DLAYER
10
440.45552735263055
20
832.761939133473
30
-1.9555553685212395e-14
 70
     32
  0
VERTEX
  8
MY3DLAYER
10
440.1448671808506
20
832.5235611995757
30
-5.896242316730939e-14
 70
     32
  0
VERTEX
  8
MY3DLAYER
10
439.9064892469538
20
832.2129010277956
30
-1.0393818544056853e-13
 70
     32
  0
VERTEX
  8
MY3DLAYER
10
439.75663861319634
20
831.8511295954498
30
-9.809330387020134e-14
 70
     32
  0
VERTEX
  8
MY3DLAYER
10
439.7055273526307
20
831.462901027797
30
-1.598803376319752e-13
 70
     32
  0
VERTEX
  8
MY3DLAYER
10
439.7566386131969
20
831.0746724601424
30
-7.319827450691435e-15
 70
     32
  0
VERTEX
  8
MY3DLAYER
10
439.9064892469538
20
830.7129010277961
30
-5.214611942821726e-14
 70
     32
  0
VERTEX
  8
MY3DLAYER
10
440.1448671808508
20
830.4022408560161
30
2.145705331099928e-14
 70
     32
  0
VERTEX
  8
MY3DLAYER
10
440.4555273526304
20
830.1638629221195
30
-6.487052014123735e-15
 70
     32
  0
VERTEX
  8
MY3DLAYER
10
440.8172987849765
20
830.0140122883628
30
-4.5756923919670796e-14
 70
     32
  0
VERTEX
  8
MY3DLAYER
10
441.2055273526304
20
829.9629010277959
30
-9.636685030979968e-14
 70
     32
  0
VERTEX
  8
MY3DLAYER
10
441.5937559202843
20
830.0140122883628
30
-4.5528358036238e-14
 70
     32
  0
VERTEX
  8
MY3DLAYER
10
441.9555273526304
20
830.1638629221201
30
-6.045496634491344e-15
 70
     32
  0
VERTEX
  8
MY3DLAYER
10
442.2661875244102
20
830.4022408560157
30
2.2081506917414287e-14
 70
     32
  0
VERTEX
  8
MY3DLAYER
10
442.5045654583072
20
830.7129010277964
30
-5.138132307633853e-14
 70
     32
  0
VERTEX
  8
MY3DLAYER
10
442.6544160920639
20
831.0746724601424
30
-6.466807960843655e-15
 70
     32
  0
VERTEX
  8
MY3DLAYER
10
442.70552735263044
20
831.4629010277961
30
-1.5899722687271004e-13
 70
     32
  0
VERTEX
  8
MY3DLAYER
10
442.6544160920641
20
831.8511295954502
30
-9.724028438035342e-14
 70
     32
  0
VERTEX
  8
MY3DLAYER
10
442.5045654583068
20
832.2129010277961
30
-1.031733890886897e-13
 70
     32
  0
VERTEX
  8
MY3DLAYER
10
442.2661875244104
20
832.5235611995757
30
-5.833796956089432e-14
 70
     32
  0
VERTEX
  8
MY3DLAYER
10
441.9555273526306
20
832.7619391334734
30
3.1645398380282256e-14
 70
     32
  0
VERTEX
  8
MY3DLAYER
10
441.5937559202843
20
832.91178976723
30
-5.880318791137417e-14
 70
     32
  0
SEQEND
  0
POLYLINE
 8
Layer0
 66
     1
70
    8
 10
0.0
 20
 0.0
 30
0.0
  0
VERTEX
  8
MY3DLAYER
10
312.6544160920639
20
831.8511295954504
30
-6.782922170068738e-14
 70
     32
  0
VERTEX
  8
MY3DLAYER
10
312.504565458307
20
832.2129010277964
30
-5.1202594548640446e-14
 70
     32
  0
VERTEX
  8
MY3DLAYER
10
312.2661875244101
20
832.5235611995764
30
-5.712657170670731e-14
 70
     32
  0
VERTEX
  8
MY3DLAYER
10
311.95552735263044
20
832.7619391334734
30
-4.6102265276871866e-14
 70
     32
  0
VERTEX
  8
MY3DLAYER
10
311.593755920284
20
832.9117897672303
30
-4.631192412699552e-14
 70
     32
  0
VERTEX
  8
MY3DLAYER
10
311.2055273526302
20
832.9629010277966
30
-1.5362012075954891e-13
 70
     32
  0
VERTEX
  8
MY3DLAYER
10
310.81729878497663
20
832.9117897672303
30
-4.654049001042826e-14
 70
     32
  0
VERTEX
  8
MY3DLAYER
10
310.45552735263016
20
832.761939133473
30
-4.6543820656504374e-14
 70
     32
  0
VERTEX
  8
MY3DLAYER
10
310.1448671808504
20
832.5235611995761
30
-5.775102531312241e-14
 70
     32
  0
VERTEX
  8
MY3DLAYER
10
309.9064892469537
20
832.2129010277966
30
-5.196739090051929e-14
 70
     32
  0
VERTEX
  8
MY3DLAYER
10
309.7566386131966
20
831.8511295954502
30
-6.868224119053523e-14
 70
     32
  0
VERTEX
  8
MY3DLAYER
10
309.7055273526302
20
831.4629010277966
30
-1.530290068126922e-13
 70
     32
  0
VERTEX
  8
MY3DLAYER
10
309.7566386131966
20
831.0746724601428
30
4.4650967089357834e-14
 70
     32
  0
VERTEX
  8
MY3DLAYER
10
309.90648924695364
20
830.7129010277961
30
-1.7095123783455462e-14
 70
     32
  0
VERTEX
  8
MY3DLAYER
10
310.1448671808505
20
830.4022408560165
30
4.5228183025569474e-14
 70
     32
  0
VERTEX
  8
MY3DLAYER
10
310.45552735263027
20
830.1638629221198
30
4.548374252592545e-14
 70
     32
  0
VERTEX
  8
MY3DLAYER
10
310.8172987849764
20
830.014012288363
30
-1.1222472164663326e-13
 70
     32
  0
VERTEX
  8
MY3DLAYER
10
311.2055273526302
20
829.9629010277966
30
-1.40274916176379e-13
 70
     32
  0
VERTEX
  8
MY3DLAYER
10
311.59375592028414
20
830.0140122883633
30
-1.119961557632005e-13
 70
     32
  0
VERTEX
  8
MY3DLAYER
10
311.9555273526303
20
830.1638629221195
30
4.5925297905558046e-14
 70
     32
  0
VERTEX
  8
MY3DLAYER
10
312.2661875244102
20
830.4022408560166
30
4.5852636631984504e-14
 70
     32
  0
VERTEX
  8
MY3DLAYER
10
312.504565458307
20
830.7129010277968
30
-1.6330327431576618e-14
 70
     32
  0
VERTEX
  8
MY3DLAYER
10
312.65441609206385
20
831.0746724601428
30
4.550398657920554e-14
 70
     32
  0
VERTEX
  8
MY3DLAYER
10
312.70552735263027
20
831.4629010277966
30
-1.5214589605342718e-13
 70
     32
  0
VERTEX
  8
MY3DLAYER
10
312.6544160920639
20
831.8511295954504
30
-6.782922170068738e-14
 70
     32
  0
SEQEND
  0
POLYLINE
 8
Layer0
 66
     1
70
    8
 10
0.0
 20
 0.0
 30
0.0
  0
VERTEX
  8
MY3DLAYER
10
585.3172987849775
20
791.5140122883629
30
2.6028080521710005e-13
 70
     32
  0
VERTEX
  8
MY3DLAYER
10
585.7055273526306
20
791.462901027797
30
8.02110328065432e-14
 70
     32
  0
VERTEX
  8
MY3DLAYER
10
586.0937559202846
20
791.5140122883636
30
7.122212326617473e-13
 70
     32
  0
VERTEX
  8
MY3DLAYER
10
586.4555273526313
20
791.6638629221206
30
1.2990185798620924e-12
 70
     32
  0
VERTEX
  8
MY3DLAYER
10
586.7661875244105
20
791.9022408560169
30
5.321219765808168e-13
 70
     32
  0
VERTEX
  8
MY3DLAYER
10
587.004565458307
20
792.2129010277972
30
6.674954578980732e-13
 70
     32
  0
VERTEX
  8
MY3DLAYER
10
587.1544160920643
20
792.5746724601428
30
5.827756963676694e-14
 70
     32
  0
VERTEX
  8
MY3DLAYER
10
587.2055273526306
20
792.9629010277969
30
9.83008393997177e-13
 70
     32
  0
VERTEX
  8
MY3DLAYER
10
587.1544160920646
20
793.3511295954504
30
5.774302065878985e-14
 70
     32
  0
VERTEX
  8
MY3DLAYER
10
587.0045654583075
20
793.712901027797
30
6.664627885715842e-13
 70
     32
  0
VERTEX
  8
MY3DLAYER
10
586.7661875244107
20
794.0235611995768
30
5.306615616138493e-13
 70
     32
  0
VERTEX
  8
MY3DLAYER
10
586.4555273526316
20
794.2619391334741
30
1.297229944121195e-12
 70
     32
  0
VERTEX
  8
MY3DLAYER
10
586.0937559202843
20
794.41178976723
30
7.102262687168029e-13
 70
     32
  0
VERTEX
  8
MY3DLAYER
10
585.7055273526306
20
794.4629010277974
30
7.814569415356502e-14
 70
     32
  0
VERTEX
  8
MY3DLAYER
10
585.3172987849771
20
794.4117897672307
30
2.5828584127215546e-13
 70
     32
  0
VERTEX
  8
MY3DLAYER
10
584.9555273526305
20
794.2619391334733
30
5.73877768487138e-13
 70
     32
  0
VERTEX
  8
MY3DLAYER
10
584.6448671808506
20
794.0235611995763
30
5.4869655726572154e-14
 70
     32
  0
VERTEX
  8
MY3DLAYER
10
584.4064892469542
20
793.712901027797
30
2.3533242045468015e-13
 70
     32
  0
VERTEX
  8
MY3DLAYER
10
584.2566386131978
20
793.351129595451
30
5.963932582517716e-13
 70
     32
  0
VERTEX
  8
MY3DLAYER
10
584.2055273526307
20
792.9629010277971
30
4.612530490047733e-13
 70
     32
  0
VERTEX
  8
MY3DLAYER
10
584.2566386131971
20
792.5746724601428
30
5.96927807229749e-13
 70
     32
  0
VERTEX
  8
MY3DLAYER
10
584.4064892469539
20
792.2129010277968
30
2.3636508978116907e-13
 70
     32
  0
VERTEX
  8
MY3DLAYER
10
584.6448671808506
20
791.9022408560166
30
5.633007069353969e-14
 70
     32
  0
VERTEX
  8
MY3DLAYER
10
584.9555273526305
20
791.6638629221203
30
5.756664042280352e-13
 70
     32
  0
VERTEX
  8
MY3DLAYER
10
585.3172987849775
20
791.5140122883629
30
2.6028080521710005e-13
 70
     32
  0
SEQEND
  0
POLYLINE
 8
Layer0
 66
     1
70
    8
 10
0.0
 20
 0.0
 30
0.0
  0
VERTEX
  8
MY3DLAYER
10
585.7055273526302
20
564.4629010277969
30
2.816077879359874e-13
 70
     32
  0
VERTEX
  8
MY3DLAYER
10
585.3172987849772
20
564.4117897672309
30
4.617479350545775e-13
 70
     32
  0
VERTEX
  8
MY3DLAYER
10
584.9555273526305
20
564.2619391334736
30
7.773398622695604e-13
 70
     32
  0
VERTEX
  8
MY3DLAYER
10
584.6448671808513
20
564.0235611995764
30
5.529416276554599e-14
 70
     32
  0
VERTEX
  8
MY3DLAYER
10
584.4064892469538
20
563.7129010277968
30
4.387945142371025e-13
 70
     32
  0
VERTEX
  8
MY3DLAYER
10
584.2566386131978
20
563.3511295954506
30
7.54735888313428e-13
 70
     32
  0
VERTEX
  8
MY3DLAYER
10
584.2055273526307
20
562.9629010277971
30
6.647151427871954e-13
 70
     32
  0
VERTEX
  8
MY3DLAYER
10
584.2566386131978
20
562.5746724601431
30
7.552704372914052e-13
 70
     32
  0
VERTEX
  8
MY3DLAYER
10
584.4064892469542
20
562.2129010277969
30
4.398271835635915e-13
 70
     32
  0
VERTEX
  8
MY3DLAYER
10
584.6448671808512
20
561.9022408560172
30
5.6754577732513404e-14
 70
     32
  0
VERTEX
  8
MY3DLAYER
10
584.9555273526307
20
561.6638629221208
30
7.791284980104574e-13
 70
     32
  0
VERTEX
  8
MY3DLAYER
10
585.3172987849775
20
561.5140122883636
30
4.637428989995226e-13
 70
     32
  0
VERTEX
  8
MY3DLAYER
10
585.7055273526306
20
561.4629010277973
30
2.8367312658896557e-13
 70
     32
  0
VERTEX
  8
MY3DLAYER
10
586.0937559202846
20
561.5140122883633
30
9.156833264441698e-13
 70
     32
  0
VERTEX
  8
MY3DLAYER
10
586.4555273526307
20
561.6638629221204
30
1.0964055001576177e-12
 70
     32
  0
VERTEX
  8
MY3DLAYER
10
586.7661875244107
20
561.9022408560177
30
7.35584070363239e-13
 70
     32
  0
VERTEX
  8
MY3DLAYER
10
587.0045654583072
20
562.212901027797
30
7.807186242389633e-13
 70
     32
  0
VERTEX
  8
MY3DLAYER
10
587.1544160920645
20
562.5746724601432
30
2.617396634191893e-13
 70
     32
  0
VERTEX
  8
MY3DLAYER
10
587.2055273526307
20
562.9629010277972
30
6.675966549907857e-13
 70
     32
  0
VERTEX
  8
MY3DLAYER
10
587.1544160920643
20
563.3511295954509
30
2.6120511444121206e-13
 70
     32
  0
VERTEX
  8
MY3DLAYER
10
587.0045654583075
20
563.7129010277969
30
7.796859549124742e-13
 70
     32
  0
VERTEX
  8
MY3DLAYER
10
586.7661875244105
20
564.023561199577
30
7.341236553962721e-13
 70
     32
  0
VERTEX
  8
MY3DLAYER
10
586.4555273526306
20
564.2619391334738
30
1.0946168644167197e-12
 70
     32
  0
VERTEX
  8
MY3DLAYER
10
586.0937559202837
20
564.4117897672307
30
9.136883624992251e-13
 70
     32
  0
VERTEX
  8
MY3DLAYER
10
585.7055273526302
20
564.4629010277969
30
2.816077879359874e-13
 70
     32
  0
SEQEND
  0
POLYLINE
 8
Layer0
 66
     1
70
    8
 10
0.0
 20
 0.0
 30
0.0
  0
VERTEX
  8
MY3DLAYER
10
358.70552735263055
20
814.4629010277965
30
-1.4299834066613774e-13
 70
     32
  0
VERTEX
  8
MY3DLAYER
10
358.3172987849766
20
814.4117897672304
30
-1.4324607606157976e-13
 70
     32
  0
VERTEX
  8
MY3DLAYER
10
357.95552735263044
20
814.2619391334733
30
-1.4340895619188546e-13
 70
     32
  0
VERTEX
  8
MY3DLAYER
10
357.6448671808507
20
814.0235611995769
30
-1.4347588104534687e-13
 70
     32
  0
VERTEX
  8
MY3DLAYER
10
357.4064892469537
20
813.7129010277968
30
-1.4344228980379913e-13
 70
     32
  0
VERTEX
  8
MY3DLAYER
10
357.25663861319686
20
813.3511295954503
30
-1.4331047165484159e-13
 70
     32
  0
VERTEX
  8
MY3DLAYER
10
357.2055273526302
20
812.9629010277966
30
-1.4308940978748601e-13
 70
     32
  0
VERTEX
  8
MY3DLAYER
10
357.2566386131966
20
812.574672460143
30
-1.4279416920267032e-13
 70
     32
  0
VERTEX
  8
MY3DLAYER
10
357.4064892469537
20
812.2129010277965
30
-1.42444870058342e-13
 70
     32
  0
VERTEX
  8
MY3DLAYER
10
357.6448671808506
20
811.9022408560168
30
-1.4206531651394248e-13
 70
     32
  0
VERTEX
  8
MY3DLAYER
10
357.9555273526305
20
811.66386292212
30
-1.416813745162812e-13
 70
     32
  0
VERTEX
  8
MY3DLAYER
10
358.3172987849763
20
811.5140122883632
30
-1.4131920907800406e-13
 70
     32
  0
VERTEX
  8
MY3DLAYER
10
358.70552735263027
20
811.4629010277966
30
-1.4100350117522342e-13
 70
     32
  0
VERTEX
  8
MY3DLAYER
10
359.09375592028397
20
811.5140122883629
30
-1.4075576577978153e-13
 70
     32
  0
VERTEX
  8
MY3DLAYER
10
359.45552735263044
20
811.6638629221197
30
-1.4059288564947584e-13
 70
     32
  0
VERTEX
  8
MY3DLAYER
10
359.7661875244102
20
811.9022408560168
30
-1.405259607960144e-13
 70
     32
  0
VERTEX
  8
MY3DLAYER
10
360.0045654583072
20
812.212901027797
30
-1.405595520375621e-13
 70
     32
  0
VERTEX
  8
MY3DLAYER
10
360.15441609206385
20
812.5746724601429
30
-1.4069137018651966e-13
 70
     32
  0
VERTEX
  8
MY3DLAYER
10
360.20552735263044
20
812.9629010277965
30
-1.4091243205387538e-13
 70
     32
  0
VERTEX
  8
MY3DLAYER
10
360.15441609206397
20
813.3511295954506
30
-1.4120767263869097e-13
 70
     32
  0
VERTEX
  8
MY3DLAYER
10
360.00456545830696
20
813.7129010277963
30
-1.4155697178301927e-13
 70
     32
  0
VERTEX
  8
MY3DLAYER
10
359.76618752441004
20
814.0235611995766
30
-1.419365253274187e-13
 70
     32
  0
VERTEX
  8
MY3DLAYER
10
359.45552735263027
20
814.2619391334731
30
-1.4232046732508018e-13
 70
     32
  0
VERTEX
  8
MY3DLAYER
10
359.09375592028414
20
814.4117897672306
30
-1.4268263276335723e-13
 70
     32
  0
VERTEX
  8
MY3DLAYER
10
358.70552735263055
20
814.4629010277965
30
-1.4299834066613774e-13
 70
     32
  0
SEQEND
  0
POLYLINE
 8
Layer0
 66
     1
70
    8
 10
0.0
 20
 0.0
 30
0.0
  0
VERTEX
  8
MY3DLAYER
10
459.9064892469534
20
813.7129010277968
30
-1.8241109908069576e-13
 70
     32
  0
VERTEX
  8
MY3DLAYER
10
459.7566386131963
20
813.3511295954504
30
-1.822792809317382e-13
 70
     32
  0
VERTEX
  8
MY3DLAYER
10
459.7055273526303
20
812.9629010277969
30
-1.820582190643824e-13
 70
     32
  0
VERTEX
  8
MY3DLAYER
10
459.7566386131967
20
812.5746724601427
30
-1.8176297847956675e-13
 70
     32
  0
VERTEX
  8
MY3DLAYER
10
459.90648924695375
20
812.2129010277969
30
-1.8141367933523838e-13
 70
     32
  0
VERTEX
  8
MY3DLAYER
10
460.1448671808507
20
811.9022408560173
30
-1.8103412579083906e-13
 70
     32
  0
VERTEX
  8
MY3DLAYER
10
460.45552735263016
20
811.6638629221201
30
-1.806501837931775e-13
 70
     32
  0
VERTEX
  8
MY3DLAYER
10
460.8172987849763
20
811.5140122883632
30
-1.802880183549007e-13
 70
     32
  0
VERTEX
  8
MY3DLAYER
10
461.20552735263016
20
811.462901027797
30
-1.7997231045212008e-13
 70
     32
  0
VERTEX
  8
MY3DLAYER
10
461.59375592028374
20
811.514012288363
30
-1.7972457505667813e-13
 70
     32
  0
VERTEX
  8
MY3DLAYER
10
461.9555273526307
20
811.6638629221202
30
-1.7956169492637247e-13
 70
     32
  0
VERTEX
  8
MY3DLAYER
10
462.26618752441016
20
811.9022408560168
30
-1.7949477007291106e-13
 70
     32
  0
VERTEX
  8
MY3DLAYER
10
462.5045654583068
20
812.2129010277961
30
-1.7952836131445874e-13
 70
     32
  0
VERTEX
  8
MY3DLAYER
10
462.6544160920635
20
812.5746724601428
30
-1.7966017946341616e-13
 70
     32
  0
VERTEX
  8
MY3DLAYER
10
462.7055273526304
20
812.9629010277966
30
-1.7988124133077189e-13
 70
     32
  0
VERTEX
  8
MY3DLAYER
10
462.65441609206385
20
813.3511295954503
30
-1.801764819155874e-13
 70
     32
  0
VERTEX
  8
MY3DLAYER
10
462.5045654583071
20
813.7129010277963
30
-1.8052578105991585e-13
 70
     32
  0
VERTEX
  8
MY3DLAYER
10
462.2661875244098
20
814.0235611995766
30
-1.8090533460431527e-13
 70
     32
  0
VERTEX
  8
MY3DLAYER
10
461.9555273526302
20
814.2619391334737
30
-1.8128927660197666e-13
 70
     32
  0
VERTEX
  8
MY3DLAYER
10
461.5937559202839
20
814.4117897672302
30
-1.8165144204025379e-13
 70
     32
  0
VERTEX
  8
MY3DLAYER
10
461.20552735263055
20
814.4629010277965
30
-1.8196714994303432e-13
 70
     32
  0
VERTEX
  8
MY3DLAYER
10
460.81729878497686
20
814.4117897672302
30
-1.8221488533847622e-13
 70
     32
  0
VERTEX
  8
MY3DLAYER
10
460.45552735263
20
814.2619391334737
30
-1.823777654687821e-13
 70
     32
  0
VERTEX
  8
MY3DLAYER
10
460.1448671808502
20
814.0235611995766
30
-1.824446903222435e-13
 70
     32
  0
VERTEX
  8
MY3DLAYER
10
459.9064892469534
20
813.7129010277968
30
-1.8241109908069576e-13
 70
     32
  0
SEQEND
  0
POLYLINE
 8
Layer0
 66
     1
70
    8
 10
0.0
 20
 0.0
 30
0.0
  0
VERTEX
  8
MY3DLAYER
10
280.15441609206397
20
758.3511295954506
30
-1.2242647667691896e-13
 70
     32
  0
VERTEX
  8
MY3DLAYER
10
280.004565458307
20
758.7129010277969
30
-1.2277577582124744e-13
 70
     32
  0
VERTEX
  8
MY3DLAYER
10
279.76618752441027
20
759.0235611995763
30
-1.2315532936564663e-13
 70
     32
  0
VERTEX
  8
MY3DLAYER
10
279.45552735263044
20
759.2619391334736
30
-1.2353927136330824e-13
 70
     32
  0
VERTEX
  8
MY3DLAYER
10
279.0937559202841
20
759.4117897672304
30
-1.2390143680158514e-13
 70
     32
  0
VERTEX
  8
MY3DLAYER
10
278.70552735263016
20
759.4629010277966
30
-1.242171447043658e-13
 70
     32
  0
VERTEX
  8
MY3DLAYER
10
278.3172987849764
20
759.4117897672304
30
-1.2446488009980783e-13
 70
     32
  0
VERTEX
  8
MY3DLAYER
10
277.95552735263027
20
759.2619391334733
30
-1.246277602301134e-13
 70
     32
  0
VERTEX
  8
MY3DLAYER
10
277.6448671808503
20
759.0235611995765
30
-1.2469468508357486e-13
 70
     32
  0
VERTEX
  8
MY3DLAYER
10
277.40648924695347
20
758.7129010277969
30
-1.2466109384202717e-13
 70
     32
  0
VERTEX
  8
MY3DLAYER
10
277.2566386131966
20
758.3511295954505
30
-1.2452927569306965e-13
 70
     32
  0
VERTEX
  8
MY3DLAYER
10
277.20552735263027
20
757.962901027797
30
-1.2430821382571388e-13
 70
     32
  0
VERTEX
  8
MY3DLAYER
10
277.2566386131967
20
757.5746724601429
30
-1.240129732408983e-13
 70
     32
  0
VERTEX
  8
MY3DLAYER
10
277.4064892469535
20
757.2129010277965
30
-1.2366367409656986e-13
 70
     32
  0
VERTEX
  8
MY3DLAYER
10
277.6448671808504
20
756.9022408560166
30
-1.2328412055217044e-13
 70
     32
  0
VERTEX
  8
MY3DLAYER
10
277.9555273526302
20
756.6638629221201
30
-1.2290017855450905e-13
 70
     32
  0
VERTEX
  8
MY3DLAYER
10
278.3172987849764
20
756.514012288363
30
-1.2253801311623205e-13
 70
     32
  0
VERTEX
  8
MY3DLAYER
10
278.7055273526303
20
756.4629010277969
30
-1.2222230521345129e-13
 70
     32
  0
VERTEX
  8
MY3DLAYER
10
279.09375592028397
20
756.514012288363
30
-1.2197456981800957e-13
 70
     32
  0
VERTEX
  8
MY3DLAYER
10
279.4555273526301
20
756.6638629221198
30
-1.218116896877037e-13
 70
     32
  0
VERTEX
  8
MY3DLAYER
10
279.76618752440993
20
756.9022408560166
30
-1.2174476483424241e-13
 70
     32
  0
VERTEX
  8
MY3DLAYER
10
280.0045654583069
20
757.2129010277968
30
-1.2177835607579015e-13
 70
     32
  0
VERTEX
  8
MY3DLAYER
10
280.15441609206385
20
757.574672460143
30
-1.219101742247476e-13
 70
     32
  0
VERTEX
  8
MY3DLAYER
10
280.20552735263016
20
757.9629010277966
30
-1.221312360921034e-13
 70
     32
  0
VERTEX
  8
MY3DLAYER
10
280.15441609206397
20
758.3511295954506
30
-1.2242647667691896e-13
 70
     32
  0
SEQEND
  0
POLYLINE
 8
Layer0
 66
     1
70
    8
 10
0.0
 20
 0.0
 30
0.0
  0
VERTEX
  8
MY3DLAYER
10
279.0937559202841
20
616.4117897672309
30
1.0928586439772785e-14
 70
     32
  0
VERTEX
  8
MY3DLAYER
10
278.7055273526302
20
616.4629010277968
30
1.0612878536992207e-14
 70
     32
  0
VERTEX
  8
MY3DLAYER
10
278.31729878497663
20
616.4117897672307
30
1.0365143141550279e-14
 70
     32
  0
VERTEX
  8
MY3DLAYER
10
277.9555273526304
20
616.2619391334738
30
1.0202263011244551e-14
 70
     32
  0
VERTEX
  8
MY3DLAYER
10
277.64486718085044
20
616.0235611995768
30
1.0135338157783132e-14
 70
     32
  0
VERTEX
  8
MY3DLAYER
10
277.4064892469536
20
615.7129010277971
30
1.016892939933077e-14
 70
     32
  0
VERTEX
  8
MY3DLAYER
10
277.25663861319634
20
615.3511295954511
30
1.0300747548288175e-14
 70
     32
  0
VERTEX
  8
MY3DLAYER
10
277.20552735263027
20
614.9629010277969
30
1.0521809415643905e-14
 70
     32
  0
VERTEX
  8
MY3DLAYER
10
277.2566386131967
20
614.5746724601436
30
1.0817050000459517e-14
 70
     32
  0
VERTEX
  8
MY3DLAYER
10
277.4064892469535
20
614.2129010277971
30
1.1166349144787888e-14
 70
     32
  0
VERTEX
  8
MY3DLAYER
10
277.6448671808502
20
613.9022408560171
30
1.1545902689187321e-14
 70
     32
  0
VERTEX
  8
MY3DLAYER
10
277.95552735263004
20
613.6638629221204
30
1.1929844686848757e-14
 70
     32
  0
VERTEX
  8
MY3DLAYER
10
278.3172987849763
20
613.5140122883633
30
1.2292010125125704e-14
 70
     32
  0
VERTEX
  8
MY3DLAYER
10
278.70552735263016
20
613.4629010277969
30
1.2607718027906278e-14
 70
     32
  0
VERTEX
  8
MY3DLAYER
10
279.09375592028374
20
613.5140122883635
30
1.2855453423348279e-14
 70
     32
  0
VERTEX
  8
MY3DLAYER
10
279.45552735263016
20
613.6638629221204
30
1.3018333553653939e-14
 70
     32
  0
VERTEX
  8
MY3DLAYER
10
279.76618752441004
20
613.9022408560172
30
1.3085258407115377e-14
 70
     32
  0
VERTEX
  8
MY3DLAYER
10
280.004565458307
20
614.2129010277966
30
1.3051667165567785e-14
 70
     32
  0
VERTEX
  8
MY3DLAYER
10
280.1544160920637
20
614.5746724601431
30
1.291984901661021e-14
 70
     32
  0
VERTEX
  8
MY3DLAYER
10
280.20552735263004
20
614.9629010277968
30
1.2698787149254644e-14
 70
     32
  0
VERTEX
  8
MY3DLAYER
10
280.15441609206385
20
615.3511295954506
30
1.2403546564438933e-14
 70
     32
  0
VERTEX
  8
MY3DLAYER
10
280.00456545830696
20
615.7129010277969
30
1.2054247420110687e-14
 70
     32
  0
VERTEX
  8
MY3DLAYER
10
279.76618752441004
20
616.0235611995771
30
1.1674693875711088e-14
 70
     32
  0
VERTEX
  8
MY3DLAYER
10
279.45552735263027
20
616.2619391334738
30
1.1290751878049725e-14
 70
     32
  0
VERTEX
  8
MY3DLAYER
10
279.0937559202841
20
616.4117897672309
30
1.0928586439772785e-14
 70
     32
  0
SEQEND
  0
POLYLINE
 8
Layer0
 66
     1
70
    8
 10
0.0
 20
 0.0
 30
0.0
  0
VERTEX
  8
MY3DLAYER
10
357.6448671808502
20
553.9022408560172
30
-4.258059036693188e-14
 70
     32
  0
VERTEX
  8
MY3DLAYER
10
357.95552735263
20
553.6638629221202
30
-4.2196648369270463e-14
 70
     32
  0
VERTEX
  8
MY3DLAYER
10
358.31729878497646
20
553.5140122883632
30
-4.1834482930993405e-14
 70
     32
  0
VERTEX
  8
MY3DLAYER
10
358.70552735263016
20
553.4629010277968
30
-4.151877502821281e-14
 70
     32
  0
VERTEX
  8
MY3DLAYER
10
359.09375592028385
20
553.5140122883631
30
-4.127103963277089e-14
 70
     32
  0
VERTEX
  8
MY3DLAYER
10
359.4555273526301
20
553.6638629221202
30
-4.110815950246514e-14
 70
     32
  0
VERTEX
  8
MY3DLAYER
10
359.7661875244099
20
553.9022408560171
30
-4.104123464900389e-14
 70
     32
  0
VERTEX
  8
MY3DLAYER
10
360.0045654583067
20
554.2129010277969
30
-4.1074825890551536e-14
 70
     32
  0
VERTEX
  8
MY3DLAYER
10
360.1544160920637
20
554.5746724601431
30
-4.120664403950903e-14
 70
     32
  0
VERTEX
  8
MY3DLAYER
10
360.2055273526301
20
554.9629010277968
30
-4.142770590686479e-14
 70
     32
  0
VERTEX
  8
MY3DLAYER
10
360.15441609206357
20
555.3511295954507
30
-4.17229464916804e-14
 70
     32
  0
VERTEX
  8
MY3DLAYER
10
360.00456545830673
20
555.7129010277969
30
-4.207224563600882e-14
 70
     32
  0
VERTEX
  8
MY3DLAYER
10
359.7661875244099
20
556.0235611995769
30
-4.245179918040814e-14
 70
     32
  0
VERTEX
  8
MY3DLAYER
10
359.45552735263
20
556.2619391334733
30
-4.283574117806948e-14
 70
     32
  0
VERTEX
  8
MY3DLAYER
10
359.0937559202838
20
556.4117897672307
30
-4.3197906616346674e-14
 70
     32
  0
VERTEX
  8
MY3DLAYER
10
358.7055273526298
20
556.4629010277969
30
-4.351361451912729e-14
 70
     32
  0
VERTEX
  8
MY3DLAYER
10
358.3172987849763
20
556.4117897672309
30
-4.3761349914569094e-14
 70
     32
  0
VERTEX
  8
MY3DLAYER
10
357.95552735263027
20
556.2619391334739
30
-4.392423004487476e-14
 70
     32
  0
VERTEX
  8
MY3DLAYER
10
357.6448671808504
20
556.0235611995768
30
-4.399115489833629e-14
 70
     32
  0
VERTEX
  8
MY3DLAYER
10
357.4064892469534
20
555.7129010277969
30
-4.395756365678848e-14
 70
     32
  0
VERTEX
  8
MY3DLAYER
10
357.2566386131963
20
555.3511295954506
30
-4.3825745507830896e-14
 70
     32
  0
VERTEX
  8
MY3DLAYER
10
357.20552735263004
20
554.9629010277968
30
-4.3604683640475274e-14
 70
     32
  0
VERTEX
  8
MY3DLAYER
10
357.25663861319674
20
554.5746724601433
30
-4.330944305565957e-14
 70
     32
  0
VERTEX
  8
MY3DLAYER
10
357.40648924695347
20
554.2129010277968
30
-4.296014391133127e-14
 70
     32
  0
VERTEX
  8
MY3DLAYER
10
357.6448671808502
20
553.9022408560172
30
-4.258059036693188e-14
 70
     32
  0
SEQEND
  0
POLYLINE
 8
Layer0
 66
     1
70
    8
 10
0.0
 20
 0.0
 30
0.0
  0
VERTEX
  8
MY3DLAYER
10
461.2055273526298
20
556.4629010277966
30
-2.6278925150798386e-14
 70
     32
  0
VERTEX
  8
MY3DLAYER
10
460.8172987849763
20
556.4117897672303
30
-2.6526660546240186e-14
 70
     32
  0
VERTEX
  8
MY3DLAYER
10
460.45552735263
20
556.2619391334739
30
-2.668954067654606e-14
 70
     32
  0
VERTEX
  8
MY3DLAYER
10
460.1448671808498
20
556.0235611995768
30
-2.6756465530007603e-14
 70
     32
  0
VERTEX
  8
MY3DLAYER
10
459.90648924695324
20
555.7129010277969
30
-2.672287428845978e-14
 70
     32
  0
VERTEX
  8
MY3DLAYER
10
459.7566386131961
20
555.3511295954507
30
-2.659105613950231e-14
 70
     32
  0
VERTEX
  8
MY3DLAYER
10
459.7055273526303
20
554.962901027797
30
-2.6369994272146448e-14
 70
     32
  0
VERTEX
  8
MY3DLAYER
10
459.7566386131963
20
554.5746724601428
30
-2.6074753687330953e-14
 70
     32
  0
VERTEX
  8
MY3DLAYER
10
459.90648924695324
20
554.212901027797
30
-2.5725454543002587e-14
 70
     32
  0
VERTEX
  8
MY3DLAYER
10
460.1448671808502
20
553.9022408560172
30
-2.5345900998603287e-14
 70
     32
  0
VERTEX
  8
MY3DLAYER
10
460.45552735263016
20
553.6638629221202
30
-2.496195900094166e-14
 70
     32
  0
VERTEX
  8
MY3DLAYER
10
460.81729878497595
20
553.5140122883635
30
-2.4599793562664794e-14
 70
     32
  0
VERTEX
  8
MY3DLAYER
10
461.20552735263
20
553.4629010277968
30
-2.428408565988414e-14
 70
     32
  0
VERTEX
  8
MY3DLAYER
10
461.5937559202835
20
553.5140122883633
30
-2.403635026444219e-14
 70
     32
  0
VERTEX
  8
MY3DLAYER
10
461.9555273526302
20
553.6638629221204
30
-2.3873470134136555e-14
 70
     32
  0
VERTEX
  8
MY3DLAYER
10
462.26618752440964
20
553.9022408560169
30
-2.3806545280675052e-14
 70
     32
  0
VERTEX
  8
MY3DLAYER
10
462.50456545830696
20
554.2129010277964
30
-2.3840136522222663e-14
 70
     32
  0
VERTEX
  8
MY3DLAYER
10
462.6544160920637
20
554.5746724601431
30
-2.397195467118027e-14
 70
     32
  0
VERTEX
  8
MY3DLAYER
10
462.7055273526302
20
554.962901027797
30
-2.419301653853608e-14
 70
     32
  0
VERTEX
  8
MY3DLAYER
10
462.65441609206334
20
555.3511295954507
30
-2.448825712335162e-14
 70
     32
  0
VERTEX
  8
MY3DLAYER
10
462.50456545830656
20
555.7129010277972
30
-2.4837556267680182e-14
 70
     32
  0
VERTEX
  8
MY3DLAYER
10
462.26618752441016
20
556.0235611995769
30
-2.521710981207927e-14
 70
     32
  0
VERTEX
  8
MY3DLAYER
10
461.9555273526298
20
556.2619391334739
30
-2.560105180974091e-14
 70
     32
  0
VERTEX
  8
MY3DLAYER
10
461.5937559202835
20
556.4117897672305
30
-2.5963217248017953e-14
 70
     32
  0
VERTEX
  8
MY3DLAYER
10
461.2055273526298
20
556.4629010277966
30
-2.6278925150798386e-14
 70
     32
  0
SEQEND
  0
POLYLINE
 8
Layer0
 66
     1
70
    8
 10
0.0
 20
 0.0
 30
0.0
  0
VERTEX
  8
MY3DLAYER
10
281.2055273526302
20
679.462901027797
30
1.4044435400279137e-13
 70
     32
  0
VERTEX
  8
MY3DLAYER
10
280.8172987849764
20
679.4117897672303
30
1.4019661860734963e-13
 70
     32
  0
VERTEX
  8
MY3DLAYER
10
280.45552735263027
20
679.2619391334736
30
1.400337384770438e-13
 70
     32
  0
VERTEX
  8
MY3DLAYER
10
280.1448671808505
20
679.0235611995768
30
1.3996681362358232e-13
 70
     32
  0
VERTEX
  8
MY3DLAYER
10
279.90648924695364
20
678.712901027797
30
1.4000040486513009e-13
 70
     32
  0
VERTEX
  8
MY3DLAYER
10
279.7566386131965
20
678.3511295954507
30
1.4013222301408768e-13
 70
     32
  0
VERTEX
  8
MY3DLAYER
10
279.70552735263027
20
677.9629010277971
30
1.4035328488144323e-13
 70
     32
  0
VERTEX
  8
MY3DLAYER
10
279.75663861319646
20
677.574672460143
30
1.4064852546625892e-13
 70
     32
  0
VERTEX
  8
MY3DLAYER
10
279.9064892469536
20
677.2129010277971
30
1.4099782461058727e-13
 70
     32
  0
VERTEX
  8
MY3DLAYER
10
280.1448671808503
20
676.902240856017
30
1.4137737815498674e-13
 70
     32
  0
VERTEX
  8
MY3DLAYER
10
280.4555273526302
20
676.6638629221201
30
1.4176132015264818e-13
 70
     32
  0
VERTEX
  8
MY3DLAYER
10
280.8172987849763
20
676.5140122883632
30
1.4212348559092513e-13
 70
     32
  0
VERTEX
  8
MY3DLAYER
10
281.2055273526302
20
676.4629010277968
30
1.4243919349370577e-13
 70
     32
  0
VERTEX
  8
MY3DLAYER
10
281.593755920284
20
676.5140122883635
30
1.426869288891477e-13
 70
     32
  0
VERTEX
  8
MY3DLAYER
10
281.95552735263027
20
676.6638629221205
30
1.4284980901945328e-13
 70
     32
  0
VERTEX
  8
MY3DLAYER
10
282.2661875244098
20
676.9022408560171
30
1.4291673387291464e-13
 70
     32
  0
VERTEX
  8
MY3DLAYER
10
282.50456545830696
20
677.2129010277968
30
1.4288314263136708e-13
 70
     32
  0
VERTEX
  8
MY3DLAYER
10
282.6544160920639
20
677.574672460143
30
1.4275132448240958e-13
 70
     32
  0
VERTEX
  8
MY3DLAYER
10
282.70552735263016
20
677.962901027797
30
1.4253026261505373e-13
 70
     32
  0
VERTEX
  8
MY3DLAYER
10
282.6544160920636
20
678.3511295954504
30
1.4223502203023822e-13
 70
     32
  0
VERTEX
  8
MY3DLAYER
10
282.50456545830696
20
678.7129010277969
30
1.4188572288590984e-13
 70
     32
  0
VERTEX
  8
MY3DLAYER
10
282.26618752441
20
679.0235611995768
30
1.415061693415105e-13
 70
     32
  0
VERTEX
  8
MY3DLAYER
10
281.95552735263016
20
679.2619391334734
30
1.4112222734384916e-13
 70
     32
  0
VERTEX
  8
MY3DLAYER
10
281.5937559202841
20
679.4117897672303
30
1.4076006190557209e-13
 70
     32
  0
VERTEX
  8
MY3DLAYER
10
281.2055273526302
20
679.462901027797
30
1.4044435400279137e-13
 70
     32
  0
SEQEND
  0
POLYLINE
 8
Layer0
 66
     1
70
    8
 10
0.0
 20
 0.0
 30
0.0
  0
VERTEX
  8
MY3DLAYER
10
280.81729878497634
20
556.4117897672303
30
1.1024184714385167e-13
 70
     32
  0
VERTEX
  8
MY3DLAYER
10
280.45552735263044
20
556.2619391334739
30
1.10078967013546e-13
 70
     32
  0
VERTEX
  8
MY3DLAYER
10
280.1448671808505
20
556.0235611995768
30
1.1001204216008452e-13
 70
     32
  0
VERTEX
  8
MY3DLAYER
10
279.9064892469534
20
555.7129010277969
30
1.1004563340163217e-13
 70
     32
  0
VERTEX
  8
MY3DLAYER
10
279.7566386131965
20
555.3511295954511
30
1.1017745155058967e-13
 70
     32
  0
VERTEX
  8
MY3DLAYER
10
279.70552735263027
20
554.9629010277968
30
1.103985134179455e-13
 70
     32
  0
VERTEX
  8
MY3DLAYER
10
279.7566386131967
20
554.5746724601431
30
1.1069375400276095e-13
 70
     32
  0
VERTEX
  8
MY3DLAYER
10
279.9064892469535
20
554.2129010277968
30
1.1104305314708939e-13
 70
     32
  0
VERTEX
  8
MY3DLAYER
10
280.14486718085016
20
553.9022408560173
30
1.1142260669148858e-13
 70
     32
  0
VERTEX
  8
MY3DLAYER
10
280.4555273526302
20
553.6638629221203
30
1.1180654868915016e-13
 70
     32
  0
VERTEX
  8
MY3DLAYER
10
280.8172987849764
20
553.5140122883635
30
1.1216871412742728e-13
 70
     32
  0
VERTEX
  8
MY3DLAYER
10
281.2055273526302
20
553.462901027797
30
1.1248442203020789e-13
 70
     32
  0
VERTEX
  8
MY3DLAYER
10
281.5937559202838
20
553.5140122883632
30
1.1273215742564968e-13
 70
     32
  0
VERTEX
  8
MY3DLAYER
10
281.9555273526304
20
553.6638629221206
30
1.1289503755595547e-13
 70
     32
  0
VERTEX
  8
MY3DLAYER
10
282.2661875244099
20
553.9022408560172
30
1.1296196240941687e-13
 70
     32
  0
VERTEX
  8
MY3DLAYER
10
282.50456545830707
20
554.2129010277966
30
1.1292837116786927e-13
 70
     32
  0
VERTEX
  8
MY3DLAYER
10
282.6544160920638
20
554.5746724601432
30
1.1279655301891173e-13
 70
     32
  0
VERTEX
  8
MY3DLAYER
10
282.7055273526301
20
554.9629010277971
30
1.1257549115155589e-13
 70
     32
  0
VERTEX
  8
MY3DLAYER
10
282.65441609206374
20
555.351129595451
30
1.1228025056674021e-13
 70
     32
  0
VERTEX
  8
MY3DLAYER
10
282.5045654583069
20
555.7129010277971
30
1.11930951422412e-13
 70
     32
  0
VERTEX
  8
MY3DLAYER
10
282.26618752440993
20
556.0235611995765
30
1.1155139787801274e-13
 70
     32
  0
VERTEX
  8
MY3DLAYER
10
281.9555273526305
20
556.2619391334734
30
1.1116745588035112e-13
 70
     32
  0
VERTEX
  8
MY3DLAYER
10
281.59375592028397
20
556.4117897672305
30
1.1080529044207412e-13
 70
     32
  0
VERTEX
  8
MY3DLAYER
10
281.20552735263027
20
556.462901027797
30
1.1048958253929335e-13
 70
     32
  0
VERTEX
  8
MY3DLAYER
10
280.81729878497634
20
556.4117897672303
30
1.1024184714385167e-13
 70
     32
  0
SEQEND
  0
POLYLINE
 8
Layer0
 66
     1
70
    8
 10
0.0
 20
 0.0
 30
0.0
  0
VERTEX
  8
MY3DLAYER
10
282.70552735263027
20
812.9629010277969
30
-1.1228229152240973e-13
 70
     32
  0
VERTEX
  8
MY3DLAYER
10
282.65441609206397
20
813.3511295954504
30
-1.1257753210722524e-13
 70
     32
  0
VERTEX
  8
MY3DLAYER
10
282.50456545830684
20
813.7129010277968
30
-1.1292683125155362e-13
 70
     32
  0
VERTEX
  8
MY3DLAYER
10
282.26618752441
20
814.0235611995766
30
-1.1330638479595307e-13
 70
     32
  0
VERTEX
  8
MY3DLAYER
10
281.95552735263016
20
814.2619391334737
30
-1.1369032679361441e-13
 70
     32
  0
VERTEX
  8
MY3DLAYER
10
281.593755920284
20
814.4117897672302
30
-1.140524922318914e-13
 70
     32
  0
VERTEX
  8
MY3DLAYER
10
281.20552735263027
20
814.4629010277969
30
-1.1436820013467216e-13
 70
     32
  0
VERTEX
  8
MY3DLAYER
10
280.8172987849765
20
814.4117897672306
30
-1.14615935530114e-13
 70
     32
  0
VERTEX
  8
MY3DLAYER
10
280.4555273526302
20
814.2619391334729
30
-1.147788156604197e-13
 70
     32
  0
VERTEX
  8
MY3DLAYER
10
280.14486718085016
20
814.0235611995763
30
-1.1484574051388103e-13
 70
     32
  0
VERTEX
  8
MY3DLAYER
10
279.9064892469535
20
813.7129010277971
30
-1.1481214927233334e-13
 70
     32
  0
VERTEX
  8
MY3DLAYER
10
279.7566386131967
20
813.3511295954504
30
-1.1468033112337582e-13
 70
     32
  0
VERTEX
  8
MY3DLAYER
10
279.7055273526303
20
812.9629010277966
30
-1.1445926925602005e-13
 70
     32
  0
VERTEX
  8
MY3DLAYER
10
279.75663861319657
20
812.5746724601428
30
-1.141640286712045e-13
 70
     32
  0
VERTEX
  8
MY3DLAYER
10
279.9064892469534
20
812.2129010277965
30
-1.1381472952687603e-13
 70
     32
  0
VERTEX
  8
MY3DLAYER
10
280.1448671808503
20
811.9022408560168
30
-1.1343517598247677e-13
 70
     32
  0
VERTEX
  8
MY3DLAYER
10
280.4555273526304
20
811.66386292212
30
-1.1305123398481534e-13
 70
     32
  0
VERTEX
  8
MY3DLAYER
10
280.8172987849763
20
811.5140122883629
30
-1.1268906854653841e-13
 70
     32
  0
VERTEX
  8
MY3DLAYER
10
281.20552735263016
20
811.4629010277965
30
-1.1237336064375762e-13
 70
     32
  0
VERTEX
  8
MY3DLAYER
10
281.5937559202839
20
811.5140122883631
30
-1.1212562524831589e-13
 70
     32
  0
VERTEX
  8
MY3DLAYER
10
281.9555273526302
20
811.6638629221198
30
-1.1196274511801007e-13
 70
     32
  0
VERTEX
  8
MY3DLAYER
10
282.26618752441
20
811.9022408560168
30
-1.1189582026454882e-13
 70
     32
  0
VERTEX
  8
MY3DLAYER
10
282.50456545830696
20
812.2129010277966
30
-1.1192941150609647e-13
 70
     32
  0
VERTEX
  8
MY3DLAYER
10
282.65441609206374
20
812.5746724601427
30
-1.1206122965505397e-13
 70
     32
  0
VERTEX
  8
MY3DLAYER
10
282.70552735263027
20
812.9629010277969
30
-1.1228229152240973e-13
 70
     32
  0
SEQEND
  0
POLYLINE
 8
Layer0
 66
     1
70
    8
 10
0.0
 20
 0.0
 30
0.0
  0
VERTEX
  8
MY3DLAYER
10
462.26618752441016
20
679.0235611995769
30
7.469715573238937e-14
 70
     32
  0
VERTEX
  8
MY3DLAYER
10
461.95552735263
20
679.2619391334738
30
7.431321373472774e-14
 70
     32
  0
VERTEX
  8
MY3DLAYER
10
461.5937559202835
20
679.4117897672306
30
7.395104829645079e-14
 70
     32
  0
VERTEX
  8
MY3DLAYER
10
461.2055273526304
20
679.4629010277966
30
7.363534039367013e-14
 70
     32
  0
VERTEX
  8
MY3DLAYER
10
460.81729878497646
20
679.4117897672304
30
7.338760499822836e-14
 70
     32
  0
VERTEX
  8
MY3DLAYER
10
460.45552735263016
20
679.2619391334739
30
7.322472486792246e-14
 70
     32
  0
VERTEX
  8
MY3DLAYER
10
460.1448671808504
20
679.0235611995765
30
7.315780001446111e-14
 70
     32
  0
VERTEX
  8
MY3DLAYER
10
459.9064892469534
20
678.712901027797
30
7.319139125600867e-14
 70
     32
  0
VERTEX
  8
MY3DLAYER
10
459.7566386131965
20
678.351129595451
30
7.332320940496636e-14
 70
     32
  0
VERTEX
  8
MY3DLAYER
10
459.7055273526298
20
677.9629010277968
30
7.3544271272322e-14
 70
     32
  0
VERTEX
  8
MY3DLAYER
10
459.7566386131963
20
677.574672460143
30
7.38395118571377e-14
 70
     32
  0
VERTEX
  8
MY3DLAYER
10
459.9064892469534
20
677.2129010277968
30
7.418881100146614e-14
 70
     32
  0
VERTEX
  8
MY3DLAYER
10
460.1448671808502
20
676.902240856017
30
7.456836454586549e-14
 70
     32
  0
VERTEX
  8
MY3DLAYER
10
460.45552735263
20
676.6638629221201
30
7.495230654352697e-14
 70
     32
  0
VERTEX
  8
MY3DLAYER
10
460.8172987849763
20
676.5140122883632
30
7.531447198180386e-14
 70
     32
  0
VERTEX
  8
MY3DLAYER
10
461.20552735263016
20
676.4629010277968
30
7.563017988458471e-14
 70
     32
  0
VERTEX
  8
MY3DLAYER
10
461.5937559202839
20
676.5140122883632
30
7.587791528002652e-14
 70
     32
  0
VERTEX
  8
MY3DLAYER
10
461.9555273526295
20
676.6638629221204
30
7.604079541033215e-14
 70
     32
  0
VERTEX
  8
MY3DLAYER
10
462.2661875244098
20
676.9022408560169
30
7.610772026379361e-14
 70
     32
  0
VERTEX
  8
MY3DLAYER
10
462.5045654583071
20
677.2129010277968
30
7.607412902224606e-14
 70
     32
  0
VERTEX
  8
MY3DLAYER
10
462.65441609206385
20
677.5746724601432
30
7.594231087328848e-14
 70
     32
  0
VERTEX
  8
MY3DLAYER
10
462.7055273526302
20
677.9629010277968
30
7.572124900593271e-14
 70
     32
  0
VERTEX
  8
MY3DLAYER
10
462.65441609206334
20
678.3511295954506
30
7.542600842111714e-14
 70
     32
  0
VERTEX
  8
MY3DLAYER
10
462.50456545830656
20
678.7129010277973
30
7.507670927678865e-14
 70
     32
  0
VERTEX
  8
MY3DLAYER
10
462.26618752441016
20
679.0235611995769
30
7.469715573238937e-14
 70
     32
  0
SEQEND
  0
POLYLINE
 8
Layer0
 66
     1
70
    8
 10
0.0
 20
 0.0
 30
0.0
  0
VERTEX
  8
MY3DLAYER
10
205.59375592028428
20
832.9117897672302
30
-8.879503688455042e-14
 70
     32
  0
VERTEX
  8
MY3DLAYER
10
205.20552735263053
20
832.9629010277966
30
-2.0738309944729521e-13
 70
     32
  0
VERTEX
  8
MY3DLAYER
10
204.81729878497688
20
832.9117897672296
30
-1.2286320055855767e-13
 70
     32
  0
VERTEX
  8
MY3DLAYER
10
204.4555273526304
20
832.7619391334734
30
-4.95474026583886e-14
 70
     32
  0
VERTEX
  8
MY3DLAYER
10
204.14486718085098
20
832.5235611995757
30
-1.0587407103577271e-13
 70
     32
  0
VERTEX
  8
MY3DLAYER
10
203.90648924695407
20
832.2129010277966
30
-1.2829010144864883e-13
 70
     32
  0
VERTEX
  8
MY3DLAYER
10
203.756638613197
20
831.8511295954502
30
-1.2244521987828172e-13
 70
     32
  0
VERTEX
  8
MY3DLAYER
10
203.70552735263033
20
831.4629010277963
30
-1.0527319212871421e-13
 70
     32
  0
VERTEX
  8
MY3DLAYER
10
203.75663861319714
20
831.0746724601426
30
-9.37110060748255e-14
 70
     32
  0
VERTEX
  8
MY3DLAYER
10
203.90648924695404
20
830.7129010277961
30
-7.085810247120168e-14
 70
     32
  0
VERTEX
  8
MY3DLAYER
10
204.14486718085053
20
830.4022408560165
30
-4.8014326417847504e-14
 70
     32
  0
VERTEX
  8
MY3DLAYER
10
204.45552735263064
20
830.1638629221195
30
-5.903863284768303e-14
 70
     32
  0
VERTEX
  8
MY3DLAYER
10
204.81729878497666
20
830.0140122883628
30
-7.010883992775108e-14
 70
     32
  0
VERTEX
  8
MY3DLAYER
10
205.2055273526307
20
829.9629010277966
30
-1.77118095968838e-13
 70
     32
  0
VERTEX
  8
MY3DLAYER
10
205.59375592028454
20
830.014012288363
30
-5.296047514903096e-14
 70
     32
  0
VERTEX
  8
MY3DLAYER
10
205.95552735263067
20
830.1638629221195
30
-8.679674229352949e-14
 70
     32
  0
VERTEX
  8
MY3DLAYER
10
206.26618752441044
20
830.4022408560165
30
2.0289322769717264e-14
 70
     32
  0
VERTEX
  8
MY3DLAYER
10
206.50456545830718
20
830.7129010277961
30
-8.701310501461032e-14
 70
     32
  0
VERTEX
  8
MY3DLAYER
10
206.65441609206425
20
831.0746724601428
30
1.4300739751842357e-14
 70
     32
  0
VERTEX
  8
MY3DLAYER
10
206.70552735263064
20
831.4629010277963
30
-1.1566994729964074e-13
 70
     32
  0
VERTEX
  8
MY3DLAYER
10
206.6544160920642
20
831.8511295954502
30
-1.0467240149314641e-13
 70
     32
  0
VERTEX
  8
MY3DLAYER
10
206.50456545830733
20
832.2129010277966
30
-8.240584137600372e-14
 70
     32
  0
VERTEX
  8
MY3DLAYER
10
206.26618752441033
20
832.5235611995761
30
-6.013015370859144e-14
 70
     32
  0
VERTEX
  8
MY3DLAYER
10
205.9555273526306
20
832.7619391334727
30
-4.346591431366004e-14
 70
     32
  0
VERTEX
  8
MY3DLAYER
10
205.59375592028428
20
832.9117897672302
30
-8.879503688455042e-14
 70
     32
  0
SEQEND
  0
POLYLINE
 8
Layer0
 66
     1
70
    8
 10
0.0
 20
 0.0
 30
0.0
  0
VERTEX
  8
MY3DLAYER
10
252.6544160920643
20
831.0746724601428
30
-6.2397156047627e-14
 70
     32
  0
VERTEX
  8
MY3DLAYER
10
252.70552735263058
20
831.4629010277963
30
-8.520911676229014e-14
 70
     32
  0
VERTEX
  8
MY3DLAYER
10
252.65441609206425
20
831.8511295954502
30
-1.3061090060675364e-13
 70
     32
  0
VERTEX
  8
MY3DLAYER
10
252.50456545830733
20
832.2129010277964
30
-8.578460862922767e-14
 70
     32
  0
VERTEX
  8
MY3DLAYER
10
252.26618752441004
20
832.5235611995761
30
-2.4029390206144945e-14
 70
     32
  0
VERTEX
  8
MY3DLAYER
10
251.95552735263038
20
832.7619391334734
30
-5.812454749707585e-14
 70
     32
  0
VERTEX
  8
MY3DLAYER
10
251.5937559202845
20
832.91178976723
30
-1.8854675591528925e-14
 70
     32
  0
VERTEX
  8
MY3DLAYER
10
251.20552735263078
20
832.9629010277966
30
-1.712823359448487e-13
 70
     32
  0
VERTEX
  8
MY3DLAYER
10
250.81729878497708
20
832.91178976723
30
-7.80337554477006e-15
 70
     32
  0
VERTEX
  8
MY3DLAYER
10
250.4555273526304
20
832.7619391334729
30
-7.806706190846199e-15
 70
     32
  0
VERTEX
  8
MY3DLAYER
10
250.14486718085058
20
832.5235611995761
30
-4.721357567294321e-14
 70
     32
  0
VERTEX
  8
MY3DLAYER
10
249.90648924695358
20
832.2129010277964
30
-9.218933794620243e-14
 70
     32
  0
VERTEX
  8
MY3DLAYER
10
249.75663861319688
20
831.85112959545
30
-9.198438934093087e-14
 70
     32
  0
VERTEX
  8
MY3DLAYER
10
249.70552735263036
20
831.4629010277964
30
-1.086519593819383e-13
 70
     32
  0
VERTEX
  8
MY3DLAYER
10
249.75663861319669
20
831.0746724601428
30
2.6988751904057832e-14
 70
     32
  0
VERTEX
  8
MY3DLAYER
10
249.9064892469536
20
830.7129010277961
30
-1.0243653454990485e-13
 70
     32
  0
VERTEX
  8
MY3DLAYER
10
250.14486718085064
20
830.4022408560166
30
1.6286101910077882e-14
 70
     32
  0
VERTEX
  8
MY3DLAYER
10
250.45552735263024
20
830.1638629221192
30
-5.11375341707155e-14
 70
     32
  0
VERTEX
  8
MY3DLAYER
10
250.8172987849767
20
830.014012288363
30
-5.0927875320592026e-14
 70
     32
  0
VERTEX
  8
MY3DLAYER
10
251.2055273526302
20
829.9629010277966
30
-9.025793578052945e-14
 70
     32
  0
VERTEX
  8
MY3DLAYER
10
251.593755920284
20
830.014012288363
30
-5.0699309437159324e-14
 70
     32
  0
VERTEX
  8
MY3DLAYER
10
251.95552735263038
20
830.1638629221197
30
-1.1216448035412525e-14
 70
     32
  0
VERTEX
  8
MY3DLAYER
10
252.26618752441036
20
830.4022408560165
30
1.1270622551397212e-14
 70
     32
  0
VERTEX
  8
MY3DLAYER
10
252.5045654583071
20
830.7129010277964
30
-6.783214040745135e-14
 70
     32
  0
VERTEX
  8
MY3DLAYER
10
252.6544160920643
20
831.0746724601428
30
-6.2397156047627e-14
 70
     32
  0
SEQEND
  0
POLYLINE
 8
Layer0
 66
     1
70
    8
 10
0.0
 20
 0.0
 30
0.0
  0
VERTEX
  8
MY3DLAYER
10
251.20552735263047
20
522.9629010277968
30
-2.5543204051592413e-14
 70
     32
  0
VERTEX
  8
MY3DLAYER
10
251.5937559202845
20
523.0140122883633
30
-1.157030359054254e-13
 70
     32
  0
VERTEX
  8
MY3DLAYER
10
251.95552735263027
20
523.1638629221204
30
-2.5460777817816996e-14
 70
     32
  0
VERTEX
  8
MY3DLAYER
10
252.26618752441033
20
523.4022408560169
30
-2.5533439091390248e-14
 70
     32
  0
VERTEX
  8
MY3DLAYER
10
252.50456545830724
20
523.712901027797
30
-7.079660425966388e-14
 70
     32
  0
VERTEX
  8
MY3DLAYER
10
252.65441609206403
20
524.0746724601432
30
-7.100155286493546e-14
 70
     32
  0
VERTEX
  8
MY3DLAYER
10
252.70552735263018
20
524.462901027797
30
-2.61343179984491e-14
 70
     32
  0
VERTEX
  8
MY3DLAYER
10
252.654416092064
20
524.8511295954507
30
-7.153610184291246e-14
 70
     32
  0
VERTEX
  8
MY3DLAYER
10
252.50456545830696
20
525.2129010277964
30
-2.6709809865386547e-14
 70
     32
  0
VERTEX
  8
MY3DLAYER
10
252.26618752441019
20
525.523561199577
30
1.8125609662408464e-14
 70
     32
  0
VERTEX
  8
MY3DLAYER
10
251.9555273526303
20
525.7619391334737
30
-2.7249413558713865e-14
 70
     32
  0
VERTEX
  8
MY3DLAYER
10
251.59375592028405
20
525.9117897672309
30
-7.257853612960399e-14
 70
     32
  0
VERTEX
  8
MY3DLAYER
10
251.20552735262993
20
525.9629010277969
30
-2.7608542704570754e-14
 70
     32
  0
VERTEX
  8
MY3DLAYER
10
250.81729878497626
20
525.9117897672307
30
-7.280710201303683e-14
 70
     32
  0
VERTEX
  8
MY3DLAYER
10
250.4555273526301
20
525.7619391334737
30
-2.7690968938346455e-14
 70
     32
  0
VERTEX
  8
MY3DLAYER
10
250.14486718085055
20
525.5235611995766
30
-7.273777138553917e-14
 70
     32
  0
VERTEX
  8
MY3DLAYER
10
249.90648924695336
20
525.2129010277971
30
-2.7474606217265653e-14
 70
     32
  0
VERTEX
  8
MY3DLAYER
10
249.75663861319683
20
524.8511295954503
30
-2.7269657611993903e-14
 70
     32
  0
VERTEX
  8
MY3DLAYER
10
249.70552735263047
20
524.462901027797
30
-2.701742875771418e-14
 70
     32
  0
VERTEX
  8
MY3DLAYER
10
249.75663861319683
20
524.0746724601428
30
-2.6735108634016927e-14
 70
     32
  0
VERTEX
  8
MY3DLAYER
10
249.90648924695367
20
523.7129010277965
30
-7.156140061154272e-14
 70
     32
  0
VERTEX
  8
MY3DLAYER
10
250.14486718085067
20
523.4022408560174
30
-7.127735641857184e-14
 70
     32
  0
VERTEX
  8
MY3DLAYER
10
250.4555273526303
20
523.1638629221204
30
-2.590233319744948e-14
 70
     32
  0
VERTEX
  8
MY3DLAYER
10
250.8172987849768
20
523.0140122883633
30
-2.5692674347325542e-14
 70
     32
  0
VERTEX
  8
MY3DLAYER
10
251.20552735263047
20
522.9629010277968
30
-2.5543204051592413e-14
 70
     32
  0
SEQEND
  0
POLYLINE
 8
Layer0
 66
     1
70
    8
 10
0.0
 20
 0.0
 30
0.0
  0
VERTEX
  8
MY3DLAYER
10
202.75663861319688
20
524.0746724601432
30
-4.057051052916873e-14
 70
     32
  0
VERTEX
  8
MY3DLAYER
10
202.90648924695338
20
523.7129010277969
30
4.842124934838001e-15
 70
     32
  0
VERTEX
  8
MY3DLAYER
10
203.1448671808504
20
523.4022408560177
30
-8.511275831372368e-14
 70
     32
  0
VERTEX
  8
MY3DLAYER
10
203.4555273526306
20
523.1638629221205
30
-8.485719881336755e-14
 70
     32
  0
VERTEX
  8
MY3DLAYER
10
203.8172987849765
20
523.0140122883638
30
-3.9528076242477537e-14
 70
     32
  0
VERTEX
  8
MY3DLAYER
10
204.20552735263038
20
522.9629010277968
30
5.7408577740221765e-15
 70
     32
  0
VERTEX
  8
MY3DLAYER
10
204.59375592028442
20
523.0140122883636
30
-8.441897407981092e-14
 70
     32
  0
VERTEX
  8
MY3DLAYER
10
204.9555273526305
20
523.1638629221203
30
-8.441564343373489e-14
 70
     32
  0
VERTEX
  8
MY3DLAYER
10
205.26618752441036
20
523.4022408560171
30
-3.936884098654185e-14
 70
     32
  0
VERTEX
  8
MY3DLAYER
10
205.50456545830718
20
523.7129010277972
30
-8.463200615481581e-14
 70
     32
  0
VERTEX
  8
MY3DLAYER
10
205.65441609206408
20
524.0746724601432
30
-3.9717491039320877e-14
 70
     32
  0
VERTEX
  8
MY3DLAYER
10
205.7055273526304
20
524.4629010277972
30
-3.996971989360086e-14
 70
     32
  0
VERTEX
  8
MY3DLAYER
10
205.654416092064
20
524.8511295954512
30
-4.025204001729807e-14
 70
     32
  0
VERTEX
  8
MY3DLAYER
10
205.50456545830707
20
525.2129010277969
30
-4.054521176053831e-14
 70
     32
  0
VERTEX
  8
MY3DLAYER
10
205.26618752441055
20
525.5235611995766
30
4.290207767257075e-15
 70
     32
  0
VERTEX
  8
MY3DLAYER
10
204.95552735263038
20
525.7619391334738
30
-4.108481545386559e-14
 70
     32
  0
VERTEX
  8
MY3DLAYER
10
204.59375592028437
20
525.9117897672306
30
-8.641393802475565e-14
 70
     32
  0
VERTEX
  8
MY3DLAYER
10
204.20552735263044
20
525.9629010277969
30
-1.3168287204125494e-13
 70
     32
  0
VERTEX
  8
MY3DLAYER
10
203.8172987849768
20
525.9117897672306
30
-8.664250390818828e-14
 70
     32
  0
VERTEX
  8
MY3DLAYER
10
203.45552735263033
20
525.7619391334733
30
-4.1526370833498074e-14
 70
     32
  0
VERTEX
  8
MY3DLAYER
10
203.14486718085095
20
525.523561199577
30
3.665754160841791e-15
 70
     32
  0
VERTEX
  8
MY3DLAYER
10
202.9064892469537
20
525.212901027797
30
-4.1310008112417256e-14
 70
     32
  0
VERTEX
  8
MY3DLAYER
10
202.75663861319666
20
524.8511295954504
30
-8.6224523227912e-14
 70
     32
  0
VERTEX
  8
MY3DLAYER
10
202.70552735263067
20
524.4629010277969
30
4.266633067900617e-15
 70
     32
  0
VERTEX
  8
MY3DLAYER
10
202.75663861319688
20
524.0746724601432
30
-4.057051052916873e-14
 70
     32
  0
SEQEND
  0
POLYLINE
 8
Layer0
 66
     1
70
    8
 10
0.0
 20
 0.0
 30
0.0
  0
VERTEX
  8
MY3DLAYER
10
546.9064892469529
20
523.7129010277966
30
6.098602827645853e-14
 70
     32
  0
VERTEX
  8
MY3DLAYER
10
547.1448671808499
20
523.4022408560166
30
6.127007246942981e-14
 70
     32
  0
VERTEX
  8
MY3DLAYER
10
547.4555273526294
20
523.1638629221202
30
6.152563196978547e-14
 70
     32
  0
VERTEX
  8
MY3DLAYER
10
547.8172987849755
20
523.0140122883629
30
6.173529081990938e-14
 70
     32
  0
VERTEX
  8
MY3DLAYER
10
548.2055273526295
20
522.9629010277965
30
1.6765297394876192e-14
 70
     32
  0
VERTEX
  8
MY3DLAYER
10
548.5937559202823
20
523.0140122883629
30
6.196385670334208e-14
 70
     32
  0
VERTEX
  8
MY3DLAYER
10
548.9555273526291
20
523.16386292212
30
1.0708665107018464e-13
 70
     32
  0
VERTEX
  8
MY3DLAYER
10
549.2661875244097
20
523.4022408560169
30
6.189452607584503e-14
 70
     32
  0
VERTEX
  8
MY3DLAYER
10
549.5045654583062
20
523.7129010277966
30
6.175082462833745e-14
 70
     32
  0
VERTEX
  8
MY3DLAYER
10
549.6544160920629
20
524.0746724601429
30
6.154587602306579e-14
 70
     32
  0
VERTEX
  8
MY3DLAYER
10
549.7055273526297
20
524.4629010277963
30
1.0641311088955261e-13
 70
     32
  0
VERTEX
  8
MY3DLAYER
10
549.6544160920623
20
524.8511295954503
30
6.101132704508869e-14
 70
     32
  0
VERTEX
  8
MY3DLAYER
10
549.5045654583057
20
525.2129010277963
30
1.5598691581082068e-14
 70
     32
  0
VERTEX
  8
MY3DLAYER
10
549.2661875244091
20
525.5235611995764
30
1.531464738811092e-14
 70
     32
  0
VERTEX
  8
MY3DLAYER
10
548.9555273526296
20
525.7619391334732
30
1.5059087887754832e-14
 70
     32
  0
VERTEX
  8
MY3DLAYER
10
548.593755920283
20
525.9117897672302
30
5.996889275839767e-14
 70
     32
  0
VERTEX
  8
MY3DLAYER
10
548.2055273526299
20
525.9629010277964
30
5.981942246266464e-14
 70
     32
  0
VERTEX
  8
MY3DLAYER
10
547.817298784976
20
525.9117897672302
30
1.4620863154198443e-14
 70
     32
  0
VERTEX
  8
MY3DLAYER
10
547.4555273526295
20
525.761939133473
30
1.4617532508122425e-14
 70
     32
  0
VERTEX
  8
MY3DLAYER
10
547.1448671808496
20
525.5235611995757
30
5.980965750246242e-14
 70
     32
  0
VERTEX
  8
MY3DLAYER
10
546.9064892469529
20
525.2129010277966
30
1.483389522920325e-14
 70
     32
  0
VERTEX
  8
MY3DLAYER
10
546.7566386131958
20
524.8511295954503
30
1.5038843834474763e-14
 70
     32
  0
VERTEX
  8
MY3DLAYER
10
546.70552735263
20
524.462901027797
30
6.041053640952094e-14
 70
     32
  0
VERTEX
  8
MY3DLAYER
10
546.7566386131961
20
524.0746724601423
30
6.069285653321837e-14
 70
     32
  0
VERTEX
  8
MY3DLAYER
10
546.9064892469529
20
523.7129010277966
30
6.098602827645853e-14
 70
     32
  0
SEQEND
  0
POLYLINE
 8
Layer0
 66
     1
70
    8
 10
0.0
 20
 0.0
 30
0.0
  0
VERTEX
  8
MY3DLAYER
10
500.81729878497674
20
523.0140122883632
30
4.789988892475781e-14
 70
     32
  0
VERTEX
  8
MY3DLAYER
10
501.20552735263027
20
522.9629010277971
30
4.804935922049081e-14
 70
     32
  0
VERTEX
  8
MY3DLAYER
10
501.5937559202836
20
523.0140122883628
30
4.812845480819047e-14
 70
     32
  0
VERTEX
  8
MY3DLAYER
10
501.9555273526303
20
523.1638629221201
30
3.0123217335002063e-15
 70
     32
  0
VERTEX
  8
MY3DLAYER
10
502.26618752440993
20
523.4022408560171
30
2.9396604599266506e-15
 70
     32
  0
VERTEX
  8
MY3DLAYER
10
502.50456545830707
20
523.7129010277971
30
9.303488645395218e-14
 70
     32
  0
VERTEX
  8
MY3DLAYER
10
502.65441609206346
20
524.0746724601429
30
2.5910104071478527e-15
 70
     32
  0
VERTEX
  8
MY3DLAYER
10
502.70552735262993
20
524.4629010277973
30
9.257770899440056e-14
 70
     32
  0
VERTEX
  8
MY3DLAYER
10
502.6544160920638
20
524.8511295954503
30
4.717592514993732e-14
 70
     32
  0
VERTEX
  8
MY3DLAYER
10
502.5045654583069
20
525.2129010277969
30
4.688275340669672e-14
 70
     32
  0
VERTEX
  8
MY3DLAYER
10
502.2661875244101
20
525.5235611995766
30
4.659870921372571e-14
 70
     32
  0
VERTEX
  8
MY3DLAYER
10
501.95552735263084
20
525.7619391334732
30
1.223685992603372e-15
 70
     32
  0
VERTEX
  8
MY3DLAYER
10
501.593755920284
20
525.9117897672304
30
9.12529545840123e-14
 70
     32
  0
VERTEX
  8
MY3DLAYER
10
501.2055273526301
20
525.9629010277969
30
4.598402056751284e-14
 70
     32
  0
VERTEX
  8
MY3DLAYER
10
500.81729878497606
20
525.9117897672306
30
7.854612590467318e-16
 70
     32
  0
VERTEX
  8
MY3DLAYER
10
500.45552735263027
20
525.7619391334736
30
9.102105805450355e-14
 70
     32
  0
VERTEX
  8
MY3DLAYER
10
500.14486718085067
20
525.5235611995762
30
4.5974255607310736e-14
 70
     32
  0
VERTEX
  8
MY3DLAYER
10
499.9064892469537
20
525.2129010277968
30
4.611795705481794e-14
 70
     32
  0
VERTEX
  8
MY3DLAYER
10
499.75663861319657
20
524.8511295954505
30
1.203441939323124e-15
 70
     32
  0
VERTEX
  8
MY3DLAYER
10
499.70552735263044
20
524.4629010277968
30
1.4556707936031773e-15
 70
     32
  0
VERTEX
  8
MY3DLAYER
10
499.75663861319697
20
524.074672460143
30
1.7379909173002982e-15
 70
     32
  0
VERTEX
  8
MY3DLAYER
10
499.9064892469532
20
523.712901027797
30
2.031162660540618e-15
 70
     32
  0
VERTEX
  8
MY3DLAYER
10
500.14486718084993
20
523.4022408560166
30
4.7434670574278254e-14
 70
     32
  0
VERTEX
  8
MY3DLAYER
10
500.45552735262976
20
523.1638629221203
30
2.570766353867607e-15
 70
     32
  0
VERTEX
  8
MY3DLAYER
10
500.81729878497674
20
523.0140122883632
30
4.789988892475781e-14
 70
     32
  0
SEQEND
  0
POLYLINE
 8
Layer0
 66
     1
70
    8
 10
0.0
 20
 0.0
 30
0.0
  0
VERTEX
  8
MY3DLAYER
10
280.8172987849764
20
679.4117897672303
30
1.4019661860734963e-13
 70
     32
  0
VERTEX
  8
MY3DLAYER
10
281.2055273526302
20
679.462901027797
30
1.4044435400279137e-13
 70
     32
  0
VERTEX
  8
MY3DLAYER
10
281.5937559202841
20
679.4117897672303
30
1.4076006190557209e-13
 70
     32
  0
VERTEX
  8
MY3DLAYER
10
281.95552735263016
20
679.2619391334734
30
1.4112222734384916e-13
 70
     32
  0
VERTEX
  8
MY3DLAYER
10
282.26618752441
20
679.0235611995768
30
1.415061693415105e-13
 70
     32
  0
VERTEX
  8
MY3DLAYER
10
282.50456545830696
20
678.7129010277969
30
1.4188572288590984e-13
 70
     32
  0
VERTEX
  8
MY3DLAYER
10
282.6544160920636
20
678.3511295954504
30
1.4223502203023822e-13
 70
     32
  0
VERTEX
  8
MY3DLAYER
10
282.70552735263016
20
677.962901027797
30
1.4253026261505373e-13
 70
     32
  0
VERTEX
  8
MY3DLAYER
10
282.6544160920639
20
677.574672460143
30
1.4275132448240958e-13
 70
     32
  0
VERTEX
  8
MY3DLAYER
10
282.50456545830696
20
677.2129010277968
30
1.4288314263136708e-13
 70
     32
  0
VERTEX
  8
MY3DLAYER
10
282.2661875244098
20
676.9022408560171
30
1.4291673387291464e-13
 70
     32
  0
VERTEX
  8
MY3DLAYER
10
281.95552735263027
20
676.6638629221205
30
1.4284980901945328e-13
 70
     32
  0
VERTEX
  8
MY3DLAYER
10
281.593755920284
20
676.5140122883635
30
1.426869288891477e-13
 70
     32
  0
VERTEX
  8
MY3DLAYER
10
281.2055273526302
20
676.4629010277968
30
1.4243919349370577e-13
 70
     32
  0
VERTEX
  8
MY3DLAYER
10
280.8172987849763
20
676.5140122883632
30
1.4212348559092513e-13
 70
     32
  0
VERTEX
  8
MY3DLAYER
10
280.4555273526302
20
676.6638629221201
30
1.4176132015264818e-13
 70
     32
  0
VERTEX
  8
MY3DLAYER
10
280.1448671808503
20
676.902240856017
30
1.4137737815498674e-13
 70
     32
  0
VERTEX
  8
MY3DLAYER
10
279.9064892469536
20
677.2129010277971
30
1.4099782461058727e-13
 70
     32
  0
VERTEX
  8
MY3DLAYER
10
279.75663861319646
20
677.574672460143
30
1.4064852546625892e-13
 70
     32
  0
VERTEX
  8
MY3DLAYER
10
279.70552735263027
20
677.9629010277971
30
1.4035328488144323e-13
 70
     32
  0
VERTEX
  8
MY3DLAYER
10
279.7566386131965
20
678.3511295954507
30
1.4013222301408768e-13
 70
     32
  0
VERTEX
  8
MY3DLAYER
10
279.90648924695364
20
678.712901027797
30
1.4000040486513009e-13
 70
     32
  0
VERTEX
  8
MY3DLAYER
10
280.1448671808505
20
679.0235611995768
30
1.3996681362358232e-13
 70
     32
  0
VERTEX
  8
MY3DLAYER
10
280.45552735263027
20
679.2619391334736
30
1.400337384770438e-13
 70
     32
  0
VERTEX
  8
MY3DLAYER
10
280.8172987849764
20
679.4117897672303
30
1.4019661860734963e-13
 70
     32
  0
SEQEND
  0
POLYLINE
 8
Layer0
 66
     1
70
    8
 10
0.0
 20
 0.0
 30
0.0
  0
VERTEX
  8
MY3DLAYER
10
280.45552735263044
20
556.2619391334739
30
1.10078967013546e-13
 70
     32
  0
VERTEX
  8
MY3DLAYER
10
280.81729878497634
20
556.4117897672303
30
1.1024184714385167e-13
 70
     32
  0
VERTEX
  8
MY3DLAYER
10
281.20552735263027
20
556.462901027797
30
1.1048958253929335e-13
 70
     32
  0
VERTEX
  8
MY3DLAYER
10
281.59375592028397
20
556.4117897672305
30
1.1080529044207412e-13
 70
     32
  0
VERTEX
  8
MY3DLAYER
10
281.9555273526305
20
556.2619391334734
30
1.1116745588035112e-13
 70
     32
  0
VERTEX
  8
MY3DLAYER
10
282.26618752440993
20
556.0235611995765
30
1.1155139787801274e-13
 70
     32
  0
VERTEX
  8
MY3DLAYER
10
282.5045654583069
20
555.7129010277971
30
1.11930951422412e-13
 70
     32
  0
VERTEX
  8
MY3DLAYER
10
282.65441609206374
20
555.351129595451
30
1.1228025056674021e-13
 70
     32
  0
VERTEX
  8
MY3DLAYER
10
282.7055273526301
20
554.9629010277971
30
1.1257549115155589e-13
 70
     32
  0
VERTEX
  8
MY3DLAYER
10
282.6544160920638
20
554.5746724601432
30
1.1279655301891173e-13
 70
     32
  0
VERTEX
  8
MY3DLAYER
10
282.50456545830707
20
554.2129010277966
30
1.1292837116786927e-13
 70
     32
  0
VERTEX
  8
MY3DLAYER
10
282.2661875244099
20
553.9022408560172
30
1.1296196240941687e-13
 70
     32
  0
VERTEX
  8
MY3DLAYER
10
281.9555273526304
20
553.6638629221206
30
1.1289503755595547e-13
 70
     32
  0
VERTEX
  8
MY3DLAYER
10
281.5937559202838
20
553.5140122883632
30
1.1273215742564968e-13
 70
     32
  0
VERTEX
  8
MY3DLAYER
10
281.2055273526302
20
553.462901027797
30
1.1248442203020789e-13
 70
     32
  0
VERTEX
  8
MY3DLAYER
10
280.8172987849764
20
553.5140122883635
30
1.1216871412742728e-13
 70
     32
  0
VERTEX
  8
MY3DLAYER
10
280.4555273526302
20
553.6638629221203
30
1.1180654868915016e-13
 70
     32
  0
VERTEX
  8
MY3DLAYER
10
280.14486718085016
20
553.9022408560173
30
1.1142260669148858e-13
 70
     32
  0
VERTEX
  8
MY3DLAYER
10
279.9064892469535
20
554.2129010277968
30
1.1104305314708939e-13
 70
     32
  0
VERTEX
  8
MY3DLAYER
10
279.7566386131967
20
554.5746724601431
30
1.1069375400276095e-13
 70
     32
  0
VERTEX
  8
MY3DLAYER
10
279.70552735263027
20
554.9629010277968
30
1.103985134179455e-13
 70
     32
  0
VERTEX
  8
MY3DLAYER
10
279.7566386131965
20
555.3511295954511
30
1.1017745155058967e-13
 70
     32
  0
VERTEX
  8
MY3DLAYER
10
279.9064892469534
20
555.7129010277969
30
1.1004563340163217e-13
 70
     32
  0
VERTEX
  8
MY3DLAYER
10
280.1448671808505
20
556.0235611995768
30
1.1001204216008452e-13
 70
     32
  0
VERTEX
  8
MY3DLAYER
10
280.45552735263044
20
556.2619391334739
30
1.10078967013546e-13
 70
     32
  0
SEQEND
  0
POLYLINE
 8
Layer0
 66
     1
70
    8
 10
0.0
 20
 0.0
 30
0.0
  0
VERTEX
  8
MY3DLAYER
10
282.65441609206397
20
813.3511295954504
30
-1.1257753210722524e-13
 70
     32
  0
VERTEX
  8
MY3DLAYER
10
282.70552735263027
20
812.9629010277969
30
-1.1228229152240973e-13
 70
     32
  0
VERTEX
  8
MY3DLAYER
10
282.65441609206374
20
812.5746724601427
30
-1.1206122965505397e-13
 70
     32
  0
VERTEX
  8
MY3DLAYER
10
282.50456545830696
20
812.2129010277966
30
-1.1192941150609647e-13
 70
     32
  0
VERTEX
  8
MY3DLAYER
10
282.26618752441
20
811.9022408560168
30
-1.1189582026454882e-13
 70
     32
  0
VERTEX
  8
MY3DLAYER
10
281.9555273526302
20
811.6638629221198
30
-1.1196274511801007e-13
 70
     32
  0
VERTEX
  8
MY3DLAYER
10
281.5937559202839
20
811.5140122883631
30
-1.1212562524831589e-13
 70
     32
  0
VERTEX
  8
MY3DLAYER
10
281.20552735263016
20
811.4629010277965
30
-1.1237336064375762e-13
 70
     32
  0
VERTEX
  8
MY3DLAYER
10
280.8172987849763
20
811.5140122883629
30
-1.1268906854653841e-13
 70
     32
  0
VERTEX
  8
MY3DLAYER
10
280.4555273526304
20
811.66386292212
30
-1.1305123398481534e-13
 70
     32
  0
VERTEX
  8
MY3DLAYER
10
280.1448671808503
20
811.9022408560168
30
-1.1343517598247677e-13
 70
     32
  0
VERTEX
  8
MY3DLAYER
10
279.9064892469534
20
812.2129010277965
30
-1.1381472952687603e-13
 70
     32
  0
VERTEX
  8
MY3DLAYER
10
279.75663861319657
20
812.5746724601428
30
-1.141640286712045e-13
 70
     32
  0
VERTEX
  8
MY3DLAYER
10
279.7055273526303
20
812.9629010277966
30
-1.1445926925602005e-13
 70
     32
  0
VERTEX
  8
MY3DLAYER
10
279.7566386131967
20
813.3511295954504
30
-1.1468033112337582e-13
 70
     32
  0
VERTEX
  8
MY3DLAYER
10
279.9064892469535
20
813.7129010277971
30
-1.1481214927233334e-13
 70
     32
  0
VERTEX
  8
MY3DLAYER
10
280.14486718085016
20
814.0235611995763
30
-1.1484574051388103e-13
 70
     32
  0
VERTEX
  8
MY3DLAYER
10
280.4555273526302
20
814.2619391334729
30
-1.147788156604197e-13
 70
     32
  0
VERTEX
  8
MY3DLAYER
10
280.8172987849765
20
814.4117897672306
30
-1.14615935530114e-13
 70
     32
  0
VERTEX
  8
MY3DLAYER
10
281.20552735263027
20
814.4629010277969
30
-1.1436820013467216e-13
 70
     32
  0
VERTEX
  8
MY3DLAYER
10
281.593755920284
20
814.4117897672302
30
-1.140524922318914e-13
 70
     32
  0
VERTEX
  8
MY3DLAYER
10
281.95552735263016
20
814.2619391334737
30
-1.1369032679361441e-13
 70
     32
  0
VERTEX
  8
MY3DLAYER
10
282.26618752441
20
814.0235611995766
30
-1.1330638479595307e-13
 70
     32
  0
VERTEX
  8
MY3DLAYER
10
282.50456545830684
20
813.7129010277968
30
-1.1292683125155362e-13
 70
     32
  0
VERTEX
  8
MY3DLAYER
10
282.65441609206397
20
813.3511295954504
30
-1.1257753210722524e-13
 70
     32
  0
SEQEND
  0
POLYLINE
 8
Layer0
 66
     1
70
    8
 10
0.0
 20
 0.0
 30
0.0
  0
VERTEX
  8
MY3DLAYER
10
461.95552735263
20
679.2619391334738
30
7.431321373472774e-14
 70
     32
  0
VERTEX
  8
MY3DLAYER
10
462.26618752441016
20
679.0235611995769
30
7.469715573238937e-14
 70
     32
  0
VERTEX
  8
MY3DLAYER
10
462.50456545830656
20
678.7129010277973
30
7.507670927678865e-14
 70
     32
  0
VERTEX
  8
MY3DLAYER
10
462.65441609206334
20
678.3511295954506
30
7.542600842111714e-14
 70
     32
  0
VERTEX
  8
MY3DLAYER
10
462.7055273526302
20
677.9629010277968
30
7.572124900593271e-14
 70
     32
  0
VERTEX
  8
MY3DLAYER
10
462.65441609206385
20
677.5746724601432
30
7.594231087328848e-14
 70
     32
  0
VERTEX
  8
MY3DLAYER
10
462.5045654583071
20
677.2129010277968
30
7.607412902224606e-14
 70
     32
  0
VERTEX
  8
MY3DLAYER
10
462.2661875244098
20
676.9022408560169
30
7.610772026379361e-14
 70
     32
  0
VERTEX
  8
MY3DLAYER
10
461.9555273526295
20
676.6638629221204
30
7.604079541033215e-14
 70
     32
  0
VERTEX
  8
MY3DLAYER
10
461.5937559202839
20
676.5140122883632
30
7.587791528002652e-14
 70
     32
  0
VERTEX
  8
MY3DLAYER
10
461.20552735263016
20
676.4629010277968
30
7.563017988458471e-14
 70
     32
  0
VERTEX
  8
MY3DLAYER
10
460.8172987849763
20
676.5140122883632
30
7.531447198180386e-14
 70
     32
  0
VERTEX
  8
MY3DLAYER
10
460.45552735263
20
676.6638629221201
30
7.495230654352697e-14
 70
     32
  0
VERTEX
  8
MY3DLAYER
10
460.1448671808502
20
676.902240856017
30
7.456836454586549e-14
 70
     32
  0
VERTEX
  8
MY3DLAYER
10
459.9064892469534
20
677.2129010277968
30
7.418881100146614e-14
 70
     32
  0
VERTEX
  8
MY3DLAYER
10
459.7566386131963
20
677.574672460143
30
7.38395118571377e-14
 70
     32
  0
VERTEX
  8
MY3DLAYER
10
459.7055273526298
20
677.9629010277968
30
7.3544271272322e-14
 70
     32
  0
VERTEX
  8
MY3DLAYER
10
459.7566386131965
20
678.351129595451
30
7.332320940496636e-14
 70
     32
  0
VERTEX
  8
MY3DLAYER
10
459.9064892469534
20
678.712901027797
30
7.319139125600867e-14
 70
     32
  0
VERTEX
  8
MY3DLAYER
10
460.1448671808504
20
679.0235611995765
30
7.315780001446111e-14
 70
     32
  0
VERTEX
  8
MY3DLAYER
10
460.45552735263016
20
679.2619391334739
30
7.322472486792246e-14
 70
     32
  0
VERTEX
  8
MY3DLAYER
10
460.81729878497646
20
679.4117897672304
30
7.338760499822836e-14
 70
     32
  0
VERTEX
  8
MY3DLAYER
10
461.2055273526304
20
679.4629010277966
30
7.363534039367013e-14
 70
     32
  0
VERTEX
  8
MY3DLAYER
10
461.5937559202835
20
679.4117897672306
30
7.395104829645079e-14
 70
     32
  0
VERTEX
  8
MY3DLAYER
10
461.95552735263
20
679.2619391334738
30
7.431321373472774e-14
 70
     32
  0
SEQEND
 0
ENDSEC
 0
EOF
