 0
SECTION
 2
ENTITIES
  0
POLYLINE
 8
Layer0
 66
     1
70
    8
 10
0.0
 20
 0.0
 30
0.0
  0
VERTEX
  8
MY3DLAYER
10
132.65034148843205
20
774.3731078892066
30
88.50000000000023
 70
     32
  0
VERTEX
  8
MY3DLAYER
10
132.65034148843208
20
564.3731078892065
30
88.50000000000004
 70
     32
  0
VERTEX
  8
MY3DLAYER
10
221.15034148843208
20
564.3731078892065
30
88.5
 70
     32
  0
VERTEX
  8
MY3DLAYER
10
221.15034148843202
20
774.3731078892066
30
88.50000000000017
 70
     32
  0
VERTEX
  8
MY3DLAYER
10
132.65034148843205
20
774.3731078892066
30
88.50000000000023
 70
     32
  0
SEQEND
  0
POLYLINE
 8
Layer0
 66
     1
70
    8
 10
0.0
 20
 0.0
 30
0.0
  0
VERTEX
  8
MY3DLAYER
10
194.15034148843213
20
759.903363671244
30
88.50000000000017
 70
     32
  0
VERTEX
  8
MY3DLAYER
10
194.15034148843213
20
738.9033636712442
30
88.50000000000017
 70
     32
  0
VERTEX
  8
MY3DLAYER
10
184.15034148843222
20
738.9033636712442
30
88.50000000000031
 70
     32
  0
VERTEX
  8
MY3DLAYER
10
184.15034148843222
20
759.903363671244
30
88.50000000000031
 70
     32
  0
VERTEX
  8
MY3DLAYER
10
194.15034148843213
20
759.903363671244
30
88.50000000000017
 70
     32
  0
SEQEND
  0
POLYLINE
 8
Layer0
 66
     1
70
    8
 10
0.0
 20
 0.0
 30
0.0
  0
VERTEX
  8
MY3DLAYER
10
147.21182029647932
20
665.3731078892065
30
88.50000000000023
 70
     32
  0
VERTEX
  8
MY3DLAYER
10
147.21182029647932
20
735.3731078892065
30
88.50000000000023
 70
     32
  0
VERTEX
  8
MY3DLAYER
10
217.21182029647935
20
735.3731078892065
30
88.50000000000004
 70
     32
  0
VERTEX
  8
MY3DLAYER
10
217.2118202964793
20
665.3731078892065
30
88.49999999999997
 70
     32
  0
VERTEX
  8
MY3DLAYER
10
147.21182029647932
20
665.3731078892065
30
88.50000000000023
 70
     32
  0
SEQEND
  0
POLYLINE
 8
Layer0
 66
     1
70
    8
 10
0.0
 20
 0.0
 30
0.0
  0
VERTEX
  8
MY3DLAYER
10
217.06569772301154
20
766.1033636712444
30
88.50000000000027
 70
     32
  0
VERTEX
  8
MY3DLAYER
10
217.06569772301154
20
738.9033636712442
30
88.50000000000027
 70
     32
  0
VERTEX
  8
MY3DLAYER
10
197.0656977230119
20
738.9033636712442
30
88.50000000000031
 70
     32
  0
VERTEX
  8
MY3DLAYER
10
197.0656977230119
20
766.1033636712444
30
88.50000000000031
 70
     32
  0
VERTEX
  8
MY3DLAYER
10
217.06569772301154
20
766.1033636712444
30
88.50000000000027
 70
     32
  0
SEQEND
  0
POLYLINE
 8
Layer0
 66
     1
70
    8
 10
0.0
 20
 0.0
 30
0.0
  0
VERTEX
  8
MY3DLAYER
10
198.27534148843222
20
566.4735888363682
30
88.50000000000016
 70
     32
  0
VERTEX
  8
MY3DLAYER
10
197.9258971187154
20
566.6183334335998
30
88.50000000000016
 70
     32
  0
VERTEX
  8
MY3DLAYER
10
197.6258224355939
20
566.8485888363682
30
88.50000000000017
 70
     32
  0
VERTEX
  8
MY3DLAYER
10
197.39556703282554
20
567.1486635194897
30
88.50000000000017
 70
     32
  0
VERTEX
  8
MY3DLAYER
10
197.25082243559393
20
567.4981078892065
30
88.50000000000017
 70
     32
  0
VERTEX
  8
MY3DLAYER
10
197.20145274899852
20
567.8731078892066
30
88.50000000000016
 70
     32
  0
VERTEX
  8
MY3DLAYER
10
197.25082243559393
20
568.2481078892066
30
88.50000000000017
 70
     32
  0
VERTEX
  8
MY3DLAYER
10
197.39556703282554
20
568.5975522589233
30
88.50000000000017
 70
     32
  0
VERTEX
  8
MY3DLAYER
10
197.6258224355939
20
568.8976269420449
30
88.50000000000017
 70
     32
  0
VERTEX
  8
MY3DLAYER
10
197.9258971187154
20
569.1278823448133
30
88.50000000000016
 70
     32
  0
VERTEX
  8
MY3DLAYER
10
198.27534148843222
20
569.2726269420449
30
88.50000000000016
 70
     32
  0
VERTEX
  8
MY3DLAYER
10
198.6503414884322
20
569.3219966286401
30
88.50000000000016
 70
     32
  0
VERTEX
  8
MY3DLAYER
10
199.02534148843225
20
569.2726269420449
30
88.50000000000017
 70
     32
  0
VERTEX
  8
MY3DLAYER
10
199.37478585814898
20
569.1278823448133
30
88.50000000000017
 70
     32
  0
VERTEX
  8
MY3DLAYER
10
199.67486054127056
20
568.8976269420449
30
88.50000000000023
 70
     32
  0
VERTEX
  8
MY3DLAYER
10
199.9051159440389
20
568.5975522589234
30
88.50000000000017
 70
     32
  0
VERTEX
  8
MY3DLAYER
10
200.0498605412706
20
568.2481078892066
30
88.50000000000017
 70
     32
  0
VERTEX
  8
MY3DLAYER
10
200.0992302278659
20
567.8731078892066
30
88.50000000000017
 70
     32
  0
VERTEX
  8
MY3DLAYER
10
200.0498605412706
20
567.4981078892065
30
88.50000000000017
 70
     32
  0
VERTEX
  8
MY3DLAYER
10
199.9051159440389
20
567.1486635194898
30
88.50000000000017
 70
     32
  0
VERTEX
  8
MY3DLAYER
10
199.67486054127056
20
566.8485888363682
30
88.50000000000023
 70
     32
  0
VERTEX
  8
MY3DLAYER
10
199.37478585814898
20
566.6183334335998
30
88.50000000000017
 70
     32
  0
VERTEX
  8
MY3DLAYER
10
199.02534148843225
20
566.4735888363682
30
88.50000000000017
 70
     32
  0
VERTEX
  8
MY3DLAYER
10
198.6503414884322
20
566.424219149773
30
88.50000000000016
 70
     32
  0
VERTEX
  8
MY3DLAYER
10
198.27534148843222
20
566.4735888363682
30
88.50000000000016
 70
     32
  0
SEQEND
  0
POLYLINE
 8
Layer0
 66
     1
70
    8
 10
0.0
 20
 0.0
 30
0.0
  0
VERTEX
  8
MY3DLAYER
10
152.26211292077835
20
566.424219149773
30
88.50000000000023
 70
     32
  0
VERTEX
  8
MY3DLAYER
10
151.9003414884321
20
566.5740697835299
30
88.50000000000028
 70
     32
  0
VERTEX
  8
MY3DLAYER
10
151.58968131665233
20
566.8124477174267
30
88.50000000000027
 70
     32
  0
VERTEX
  8
MY3DLAYER
10
151.35130338275536
20
567.1231078892065
30
88.50000000000027
 70
     32
  0
VERTEX
  8
MY3DLAYER
10
151.2014527489985
20
567.4848793215527
30
88.50000000000031
 70
     32
  0
VERTEX
  8
MY3DLAYER
10
151.1503414884321
20
567.8731078892066
30
88.50000000000027
 70
     32
  0
VERTEX
  8
MY3DLAYER
10
151.2014527489985
20
568.2613364568604
30
88.50000000000031
 70
     32
  0
VERTEX
  8
MY3DLAYER
10
151.35130338275536
20
568.6231078892066
30
88.50000000000027
 70
     32
  0
VERTEX
  8
MY3DLAYER
10
151.58968131665233
20
568.9337680609864
30
88.50000000000027
 70
     32
  0
VERTEX
  8
MY3DLAYER
10
151.9003414884321
20
569.1721459948832
30
88.50000000000028
 70
     32
  0
VERTEX
  8
MY3DLAYER
10
152.26211292077835
20
569.3219966286401
30
88.50000000000023
 70
     32
  0
VERTEX
  8
MY3DLAYER
10
152.6503414884321
20
569.3731078892066
30
88.50000000000027
 70
     32
  0
VERTEX
  8
MY3DLAYER
10
153.03857005608586
20
569.3219966286401
30
88.50000000000034
 70
     32
  0
VERTEX
  8
MY3DLAYER
10
153.4003414884321
20
569.1721459948832
30
88.50000000000031
 70
     32
  0
VERTEX
  8
MY3DLAYER
10
153.71100166021193
20
568.9337680609864
30
88.50000000000031
 70
     32
  0
VERTEX
  8
MY3DLAYER
10
153.94937959410882
20
568.6231078892066
30
88.50000000000034
 70
     32
  0
VERTEX
  8
MY3DLAYER
10
154.0992302278657
20
568.2613364568604
30
88.50000000000031
 70
     32
  0
VERTEX
  8
MY3DLAYER
10
154.1503414884322
20
567.8731078892066
30
88.50000000000027
 70
     32
  0
VERTEX
  8
MY3DLAYER
10
154.0992302278657
20
567.4848793215527
30
88.50000000000031
 70
     32
  0
VERTEX
  8
MY3DLAYER
10
153.94937959410882
20
567.1231078892065
30
88.50000000000034
 70
     32
  0
VERTEX
  8
MY3DLAYER
10
153.71100166021193
20
566.8124477174267
30
88.50000000000031
 70
     32
  0
VERTEX
  8
MY3DLAYER
10
153.4003414884321
20
566.5740697835299
30
88.50000000000031
 70
     32
  0
VERTEX
  8
MY3DLAYER
10
153.03857005608586
20
566.424219149773
30
88.50000000000034
 70
     32
  0
VERTEX
  8
MY3DLAYER
10
152.6503414884321
20
566.3731078892065
30
88.50000000000027
 70
     32
  0
VERTEX
  8
MY3DLAYER
10
152.26211292077835
20
566.424219149773
30
88.50000000000023
 70
     32
  0
SEQEND
  0
POLYLINE
 8
Layer0
 66
     1
70
    8
 10
0.0
 20
 0.0
 30
0.0
  0
VERTEX
  8
MY3DLAYER
10
198.65034148843222
20
769.3731078892067
30
88.50000000000031
 70
     32
  0
VERTEX
  8
MY3DLAYER
10
198.26211292077843
20
769.4242191497732
30
88.50000000000027
 70
     32
  0
VERTEX
  8
MY3DLAYER
10
197.90034148843216
20
769.5740697835301
30
88.50000000000023
 70
     32
  0
VERTEX
  8
MY3DLAYER
10
197.58968131665242
20
769.812447717427
30
88.50000000000023
 70
     32
  0
VERTEX
  8
MY3DLAYER
10
197.3513033827555
20
770.1231078892067
30
88.50000000000023
 70
     32
  0
VERTEX
  8
MY3DLAYER
10
197.20145274899855
20
770.484879321553
30
88.50000000000023
 70
     32
  0
VERTEX
  8
MY3DLAYER
10
197.15034148843222
20
770.8731078892067
30
88.5000000000002
 70
     32
  0
VERTEX
  8
MY3DLAYER
10
197.20145274899855
20
771.2613364568606
30
88.50000000000023
 70
     32
  0
VERTEX
  8
MY3DLAYER
10
197.3513033827555
20
771.6231078892067
30
88.50000000000023
 70
     32
  0
VERTEX
  8
MY3DLAYER
10
197.58968131665242
20
771.9337680609866
30
88.50000000000023
 70
     32
  0
VERTEX
  8
MY3DLAYER
10
197.90034148843216
20
772.1721459948834
30
88.50000000000023
 70
     32
  0
VERTEX
  8
MY3DLAYER
10
198.26211292077843
20
772.3219966286404
30
88.50000000000027
 70
     32
  0
VERTEX
  8
MY3DLAYER
10
198.65034148843222
20
772.3731078892068
30
88.50000000000031
 70
     32
  0
VERTEX
  8
MY3DLAYER
10
199.03857005608606
20
772.3219966286404
30
88.50000000000027
 70
     32
  0
VERTEX
  8
MY3DLAYER
10
199.40034148843225
20
772.1721459948834
30
88.50000000000028
 70
     32
  0
VERTEX
  8
MY3DLAYER
10
199.71100166021208
20
771.9337680609866
30
88.50000000000027
 70
     32
  0
VERTEX
  8
MY3DLAYER
10
199.9493795941089
20
771.6231078892067
30
88.50000000000028
 70
     32
  0
VERTEX
  8
MY3DLAYER
10
200.0992302278659
20
771.2613364568606
30
88.50000000000027
 70
     32
  0
VERTEX
  8
MY3DLAYER
10
200.15034148843225
20
770.8731078892067
30
88.50000000000028
 70
     32
  0
VERTEX
  8
MY3DLAYER
10
200.0992302278659
20
770.484879321553
30
88.50000000000027
 70
     32
  0
VERTEX
  8
MY3DLAYER
10
199.9493795941089
20
770.1231078892067
30
88.50000000000028
 70
     32
  0
VERTEX
  8
MY3DLAYER
10
199.71100166021208
20
769.812447717427
30
88.50000000000027
 70
     32
  0
VERTEX
  8
MY3DLAYER
10
199.40034148843225
20
769.5740697835301
30
88.50000000000028
 70
     32
  0
VERTEX
  8
MY3DLAYER
10
199.03857005608606
20
769.4242191497732
30
88.50000000000027
 70
     32
  0
VERTEX
  8
MY3DLAYER
10
198.65034148843222
20
769.3731078892067
30
88.50000000000031
 70
     32
  0
SEQEND
  0
POLYLINE
 8
Layer0
 66
     1
70
    8
 10
0.0
 20
 0.0
 30
0.0
  0
VERTEX
  8
MY3DLAYER
10
152.65034148843205
20
769.3731078892067
30
88.5000000000004
 70
     32
  0
VERTEX
  8
MY3DLAYER
10
152.2621129207783
20
769.4242191497732
30
88.50000000000038
 70
     32
  0
VERTEX
  8
MY3DLAYER
10
151.90034148843202
20
769.5740697835301
30
88.50000000000036
 70
     32
  0
VERTEX
  8
MY3DLAYER
10
151.58968131665227
20
769.812447717427
30
88.5000000000004
 70
     32
  0
VERTEX
  8
MY3DLAYER
10
151.35130338275536
20
770.1231078892067
30
88.50000000000036
 70
     32
  0
VERTEX
  8
MY3DLAYER
10
151.20145274899843
20
770.484879321553
30
88.50000000000034
 70
     32
  0
VERTEX
  8
MY3DLAYER
10
151.15034148843208
20
770.8731078892067
30
88.50000000000036
 70
     32
  0
VERTEX
  8
MY3DLAYER
10
151.20145274899843
20
771.2613364568606
30
88.50000000000034
 70
     32
  0
VERTEX
  8
MY3DLAYER
10
151.35130338275536
20
771.6231078892067
30
88.50000000000036
 70
     32
  0
VERTEX
  8
MY3DLAYER
10
151.58968131665227
20
771.9337680609866
30
88.5000000000004
 70
     32
  0
VERTEX
  8
MY3DLAYER
10
151.90034148843202
20
772.1721459948834
30
88.50000000000036
 70
     32
  0
VERTEX
  8
MY3DLAYER
10
152.2621129207783
20
772.3219966286404
30
88.50000000000038
 70
     32
  0
VERTEX
  8
MY3DLAYER
10
152.65034148843205
20
772.3731078892068
30
88.5000000000004
 70
     32
  0
VERTEX
  8
MY3DLAYER
10
153.0385700560858
20
772.3219966286404
30
88.5000000000004
 70
     32
  0
VERTEX
  8
MY3DLAYER
10
153.40034148843208
20
772.1721459948834
30
88.50000000000031
 70
     32
  0
VERTEX
  8
MY3DLAYER
10
153.7110016602119
20
771.9337680609866
30
88.50000000000036
 70
     32
  0
VERTEX
  8
MY3DLAYER
10
153.94937959410873
20
771.6231078892067
30
88.50000000000038
 70
     32
  0
VERTEX
  8
MY3DLAYER
10
154.09923022786563
20
771.2613364568606
30
88.5000000000004
 70
     32
  0
VERTEX
  8
MY3DLAYER
10
154.15034148843208
20
770.8731078892067
30
88.5000000000004
 70
     32
  0
VERTEX
  8
MY3DLAYER
10
154.09923022786563
20
770.484879321553
30
88.5000000000004
 70
     32
  0
VERTEX
  8
MY3DLAYER
10
153.94937959410873
20
770.1231078892067
30
88.50000000000038
 70
     32
  0
VERTEX
  8
MY3DLAYER
10
153.7110016602119
20
769.812447717427
30
88.50000000000036
 70
     32
  0
VERTEX
  8
MY3DLAYER
10
153.40034148843208
20
769.5740697835301
30
88.50000000000031
 70
     32
  0
VERTEX
  8
MY3DLAYER
10
153.0385700560858
20
769.4242191497732
30
88.5000000000004
 70
     32
  0
VERTEX
  8
MY3DLAYER
10
152.65034148843205
20
769.3731078892067
30
88.5000000000004
 70
     32
  0
SEQEND
  0
POLYLINE
 8
Layer0
 66
     1
70
    8
 10
0.0
 20
 0.0
 30
0.0
  0
VERTEX
  8
MY3DLAYER
10
135.08968131665222
20
733.3124477174268
30
88.5
 70
     32
  0
VERTEX
  8
MY3DLAYER
10
134.8513033827554
20
733.6231078892067
30
88.50000000000004
 70
     32
  0
VERTEX
  8
MY3DLAYER
10
134.70145274899843
20
733.9848793215529
30
88.50000000000001
 70
     32
  0
VERTEX
  8
MY3DLAYER
10
134.65034148843202
20
734.3731078892067
30
88.49999999999997
 70
     32
  0
VERTEX
  8
MY3DLAYER
10
134.70145274899843
20
734.7613364568605
30
88.50000000000001
 70
     32
  0
VERTEX
  8
MY3DLAYER
10
134.8513033827554
20
735.1231078892067
30
88.50000000000004
 70
     32
  0
VERTEX
  8
MY3DLAYER
10
135.08968131665222
20
735.4337680609865
30
88.5
 70
     32
  0
VERTEX
  8
MY3DLAYER
10
135.40034148843202
20
735.6721459948833
30
88.50000000000006
 70
     32
  0
VERTEX
  8
MY3DLAYER
10
135.76211292077826
20
735.8219966286402
30
88.49999999999996
 70
     32
  0
VERTEX
  8
MY3DLAYER
10
136.15034148843208
20
735.8731078892067
30
88.49999999999996
 70
     32
  0
VERTEX
  8
MY3DLAYER
10
136.53857005608586
20
735.8219966286402
30
88.50000000000001
 70
     32
  0
VERTEX
  8
MY3DLAYER
10
136.900341488432
20
735.6721459948833
30
88.50000000000004
 70
     32
  0
VERTEX
  8
MY3DLAYER
10
137.21100166021188
20
735.4337680609865
30
88.50000000000006
 70
     32
  0
VERTEX
  8
MY3DLAYER
10
137.44937959410873
20
735.1231078892067
30
88.5
 70
     32
  0
VERTEX
  8
MY3DLAYER
10
137.5992302278656
20
734.7613364568605
30
88.50000000000009
 70
     32
  0
VERTEX
  8
MY3DLAYER
10
137.65034148843205
20
734.3731078892067
30
88.50000000000004
 70
     32
  0
VERTEX
  8
MY3DLAYER
10
137.5992302278656
20
733.9848793215529
30
88.50000000000009
 70
     32
  0
VERTEX
  8
MY3DLAYER
10
137.44937959410873
20
733.6231078892067
30
88.5
 70
     32
  0
VERTEX
  8
MY3DLAYER
10
137.21100166021188
20
733.3124477174268
30
88.50000000000006
 70
     32
  0
VERTEX
  8
MY3DLAYER
10
136.900341488432
20
733.07406978353
30
88.50000000000004
 70
     32
  0
VERTEX
  8
MY3DLAYER
10
136.53857005608586
20
732.9242191497731
30
88.50000000000001
 70
     32
  0
VERTEX
  8
MY3DLAYER
10
136.15034148843208
20
732.8731078892066
30
88.49999999999996
 70
     32
  0
VERTEX
  8
MY3DLAYER
10
135.76211292077826
20
732.9242191497731
30
88.49999999999996
 70
     32
  0
VERTEX
  8
MY3DLAYER
10
135.40034148843202
20
733.07406978353
30
88.50000000000006
 70
     32
  0
VERTEX
  8
MY3DLAYER
10
135.08968131665222
20
733.3124477174268
30
88.5
 70
     32
  0
SEQEND
  0
POLYLINE
 8
Layer0
 66
     1
70
    8
 10
0.0
 20
 0.0
 30
0.0
  0
VERTEX
  8
MY3DLAYER
10
134.8513033827554
20
603.6231078892065
30
88.49999999999996
 70
     32
  0
VERTEX
  8
MY3DLAYER
10
134.70145274899846
20
603.9848793215527
30
88.49999999999993
 70
     32
  0
VERTEX
  8
MY3DLAYER
10
134.65034148843208
20
604.3731078892066
30
88.49999999999984
 70
     32
  0
VERTEX
  8
MY3DLAYER
10
134.70145274899846
20
604.7613364568604
30
88.49999999999993
 70
     32
  0
VERTEX
  8
MY3DLAYER
10
134.8513033827554
20
605.1231078892066
30
88.49999999999996
 70
     32
  0
VERTEX
  8
MY3DLAYER
10
135.08968131665225
20
605.4337680609864
30
88.49999999999993
 70
     32
  0
VERTEX
  8
MY3DLAYER
10
135.40034148843205
20
605.6721459948832
30
88.49999999999989
 70
     32
  0
VERTEX
  8
MY3DLAYER
10
135.76211292077826
20
605.8219966286401
30
88.4999999999999
 70
     32
  0
VERTEX
  8
MY3DLAYER
10
136.15034148843205
20
605.8731078892066
30
88.4999999999999
 70
     32
  0
VERTEX
  8
MY3DLAYER
10
136.53857005608586
20
605.8219966286401
30
88.49999999999996
 70
     32
  0
VERTEX
  8
MY3DLAYER
10
136.90034148843208
20
605.6721459948832
30
88.4999999999999
 70
     32
  0
VERTEX
  8
MY3DLAYER
10
137.2110016602119
20
605.4337680609864
30
88.49999999999997
 70
     32
  0
VERTEX
  8
MY3DLAYER
10
137.4493795941087
20
605.1231078892066
30
88.49999999999996
 70
     32
  0
VERTEX
  8
MY3DLAYER
10
137.5992302278657
20
604.7613364568604
30
88.49999999999996
 70
     32
  0
VERTEX
  8
MY3DLAYER
10
137.65034148843208
20
604.3731078892066
30
88.4999999999999
 70
     32
  0
VERTEX
  8
MY3DLAYER
10
137.5992302278657
20
603.9848793215527
30
88.49999999999996
 70
     32
  0
VERTEX
  8
MY3DLAYER
10
137.4493795941087
20
603.6231078892065
30
88.49999999999996
 70
     32
  0
VERTEX
  8
MY3DLAYER
10
137.21100166021193
20
603.3124477174267
30
88.49999999999993
 70
     32
  0
VERTEX
  8
MY3DLAYER
10
136.90034148843208
20
603.0740697835299
30
88.4999999999999
 70
     32
  0
VERTEX
  8
MY3DLAYER
10
136.53857005608586
20
602.924219149773
30
88.49999999999996
 70
     32
  0
VERTEX
  8
MY3DLAYER
10
136.15034148843205
20
602.8731078892065
30
88.4999999999999
 70
     32
  0
VERTEX
  8
MY3DLAYER
10
135.76211292077826
20
602.924219149773
30
88.4999999999999
 70
     32
  0
VERTEX
  8
MY3DLAYER
10
135.40034148843205
20
603.0740697835299
30
88.49999999999989
 70
     32
  0
VERTEX
  8
MY3DLAYER
10
135.08968131665225
20
603.3124477174267
30
88.49999999999993
 70
     32
  0
VERTEX
  8
MY3DLAYER
10
134.8513033827554
20
603.6231078892065
30
88.49999999999996
 70
     32
  0
SEQEND
  0
POLYLINE
 8
Layer0
 66
     1
70
    8
 10
0.0
 20
 0.0
 30
0.0
  0
VERTEX
  8
MY3DLAYER
10
612.6503414884319
20
564.3731078892066
30
88.49999999999996
 70
     32
  0
VERTEX
  8
MY3DLAYER
10
612.6503414884321
20
774.3731078892068
30
88.49999999999987
 70
     32
  0
VERTEX
  8
MY3DLAYER
10
524.1503414884319
20
774.3731078892068
30
88.4999999999997
 70
     32
  0
VERTEX
  8
MY3DLAYER
10
524.1503414884319
20
564.3731078892066
30
88.5
 70
     32
  0
VERTEX
  8
MY3DLAYER
10
612.6503414884319
20
564.3731078892066
30
88.49999999999996
 70
     32
  0
SEQEND
  0
POLYLINE
 8
Layer0
 66
     1
70
    8
 10
0.0
 20
 0.0
 30
0.0
  0
VERTEX
  8
MY3DLAYER
10
544.0274065705909
20
604.1551804093873
30
88.4999999999998
 70
     32
  0
VERTEX
  8
MY3DLAYER
10
546.0092367667922
20
604.8279211098319
30
88.50000000000011
 70
     32
  0
VERTEX
  8
MY3DLAYER
10
548.0619224129116
20
605.2362256711876
30
88.49999999999974
 70
     32
  0
VERTEX
  8
MY3DLAYER
10
550.1503414884322
20
605.3731078892067
30
88.5
 70
     32
  0
VERTEX
  8
MY3DLAYER
10
552.2387605639532
20
605.2362256711876
30
88.5
 70
     32
  0
VERTEX
  8
MY3DLAYER
10
554.2914462100728
20
604.8279211098318
30
88.49999999999989
 70
     32
  0
VERTEX
  8
MY3DLAYER
10
556.2732764062737
20
604.1551804093873
30
88.49999999999994
 70
     32
  0
VERTEX
  8
MY3DLAYER
10
558.1503414884321
20
603.2295143497577
30
88.49999999999979
 70
     32
  0
VERTEX
  8
MY3DLAYER
10
559.8905243525719
20
602.0667613338665
30
88.50000000000011
 70
     32
  0
VERTEX
  8
MY3DLAYER
10
561.4640499874173
20
600.6868163881915
30
88.50000000000017
 70
     32
  0
VERTEX
  8
MY3DLAYER
10
562.8439949330921
20
599.1132907533462
30
88.5
 70
     32
  0
VERTEX
  8
MY3DLAYER
10
564.0067479489833
20
597.3731078892066
30
88.49999999999996
 70
     32
  0
VERTEX
  8
MY3DLAYER
10
564.9324140086129
20
595.4960428070481
30
88.50000000000006
 70
     32
  0
VERTEX
  8
MY3DLAYER
10
565.6051547090576
20
593.514212610847
30
88.50000000000014
 70
     32
  0
VERTEX
  8
MY3DLAYER
10
566.013459270413
20
591.4615269647275
30
88.5
 70
     32
  0
VERTEX
  8
MY3DLAYER
10
566.1503414884324
20
589.3731078892066
30
88.50000000000011
 70
     32
  0
VERTEX
  8
MY3DLAYER
10
566.013459270413
20
587.2846888136858
30
88.5
 70
     32
  0
VERTEX
  8
MY3DLAYER
10
565.6051547090575
20
585.2320031675663
30
88.50000000000007
 70
     32
  0
VERTEX
  8
MY3DLAYER
10
564.9324140086128
20
583.2501729713651
30
88.50000000000006
 70
     32
  0
VERTEX
  8
MY3DLAYER
10
564.0067479489833
20
581.3731078892066
30
88.50000000000006
 70
     32
  0
VERTEX
  8
MY3DLAYER
10
562.8439949330921
20
579.6329250250672
30
88.50000000000014
 70
     32
  0
VERTEX
  8
MY3DLAYER
10
561.4640499874172
20
578.0593993902219
30
88.50000000000021
 70
     32
  0
VERTEX
  8
MY3DLAYER
10
559.8905243525717
20
576.679454444547
30
88.49999999999996
 70
     32
  0
VERTEX
  8
MY3DLAYER
10
558.150341488432
20
575.5167014286557
30
88.49999999999979
 70
     32
  0
VERTEX
  8
MY3DLAYER
10
556.2732764062736
20
574.591035369026
30
88.49999999999994
 70
     32
  0
VERTEX
  8
MY3DLAYER
10
554.2914462100726
20
573.9182946685816
30
88.49999999999991
 70
     32
  0
VERTEX
  8
MY3DLAYER
10
552.2387605639531
20
573.5099901072258
30
88.49999999999999
 70
     32
  0
VERTEX
  8
MY3DLAYER
10
550.1503414884321
20
573.3731078892067
30
88.49999999999991
 70
     32
  0
VERTEX
  8
MY3DLAYER
10
548.0619224129113
20
573.5099901072258
30
88.49999999999969
 70
     32
  0
VERTEX
  8
MY3DLAYER
10
546.009236766792
20
573.9182946685817
30
88.50000000000007
 70
     32
  0
VERTEX
  8
MY3DLAYER
10
544.0274065705906
20
574.5910353690261
30
88.49999999999973
 70
     32
  0
VERTEX
  8
MY3DLAYER
10
542.1503414884321
20
575.5167014286557
30
88.4999999999999
 70
     32
  0
VERTEX
  8
MY3DLAYER
10
540.4101586242928
20
576.679454444547
30
88.49999999999996
 70
     32
  0
VERTEX
  8
MY3DLAYER
10
538.8366329894476
20
578.059399390222
30
88.50000000000006
 70
     32
  0
VERTEX
  8
MY3DLAYER
10
537.4566880437723
20
579.6329250250672
30
88.49999999999984
 70
     32
  0
VERTEX
  8
MY3DLAYER
10
536.2939350278814
20
581.3731078892068
30
88.5000000000001
 70
     32
  0
VERTEX
  8
MY3DLAYER
10
535.3682689682518
20
583.2501729713654
30
88.49999999999999
 70
     32
  0
VERTEX
  8
MY3DLAYER
10
534.695528267807
20
585.2320031675664
30
88.49999999999979
 70
     32
  0
VERTEX
  8
MY3DLAYER
10
534.287223706451
20
587.284688813686
30
88.49999999999986
 70
     32
  0
VERTEX
  8
MY3DLAYER
10
534.1503414884322
20
589.3731078892068
30
88.50000000000006
 70
     32
  0
VERTEX
  8
MY3DLAYER
10
534.287223706451
20
591.4615269647277
30
88.49999999999982
 70
     32
  0
VERTEX
  8
MY3DLAYER
10
534.695528267807
20
593.5142126108472
30
88.4999999999998
 70
     32
  0
VERTEX
  8
MY3DLAYER
10
535.3682689682519
20
595.4960428070483
30
88.50000000000007
 70
     32
  0
VERTEX
  8
MY3DLAYER
10
536.2939350278814
20
597.3731078892068
30
88.50000000000006
 70
     32
  0
VERTEX
  8
MY3DLAYER
10
537.4566880437724
20
599.1132907533463
30
88.4999999999998
 70
     32
  0
VERTEX
  8
MY3DLAYER
10
538.8366329894476
20
600.6868163881915
30
88.49999999999996
 70
     32
  0
VERTEX
  8
MY3DLAYER
10
540.4101586242929
20
602.0667613338666
30
88.49999999999986
 70
     32
  0
VERTEX
  8
MY3DLAYER
10
542.1503414884322
20
603.2295143497578
30
88.49999999999987
 70
     32
  0
VERTEX
  8
MY3DLAYER
10
544.0274065705909
20
604.1551804093873
30
88.4999999999998
 70
     32
  0
SEQEND
  0
POLYLINE
 8
Layer0
 66
     1
70
    8
 10
0.0
 20
 0.0
 30
0.0
  0
VERTEX
  8
MY3DLAYER
10
534.1503414884321
20
627.3731078892071
30
88.4999999999999
 70
     32
  0
VERTEX
  8
MY3DLAYER
10
534.2872237064513
20
629.4615269647279
30
88.49999999999976
 70
     32
  0
VERTEX
  8
MY3DLAYER
10
534.6955282678072
20
631.5142126108474
30
88.49999999999973
 70
     32
  0
VERTEX
  8
MY3DLAYER
10
535.3682689682518
20
633.4960428070484
30
88.4999999999999
 70
     32
  0
VERTEX
  8
MY3DLAYER
10
536.2939350278814
20
635.373107889207
30
88.49999999999996
 70
     32
  0
VERTEX
  8
MY3DLAYER
10
537.4566880437725
20
637.1132907533465
30
88.49999999999976
 70
     32
  0
VERTEX
  8
MY3DLAYER
10
538.8366329894476
20
638.6868163881917
30
88.49999999999987
 70
     32
  0
VERTEX
  8
MY3DLAYER
10
540.410158624293
20
640.0667613338668
30
88.4999999999999
 70
     32
  0
VERTEX
  8
MY3DLAYER
10
542.1503414884322
20
641.2295143497579
30
88.49999999999983
 70
     32
  0
VERTEX
  8
MY3DLAYER
10
544.027406570591
20
642.1551804093875
30
88.49999999999973
 70
     32
  0
VERTEX
  8
MY3DLAYER
10
546.009236766792
20
642.8279211098321
30
88.49999999999996
 70
     32
  0
VERTEX
  8
MY3DLAYER
10
548.0619224129116
20
643.2362256711879
30
88.4999999999997
 70
     32
  0
VERTEX
  8
MY3DLAYER
10
550.1503414884322
20
643.3731078892068
30
88.49999999999991
 70
     32
  0
VERTEX
  8
MY3DLAYER
10
552.2387605639531
20
643.2362256711879
30
88.49999999999991
 70
     32
  0
VERTEX
  8
MY3DLAYER
10
554.2914462100726
20
642.827921109832
30
88.49999999999973
 70
     32
  0
VERTEX
  8
MY3DLAYER
10
556.2732764062739
20
642.1551804093874
30
88.49999999999989
 70
     32
  0
VERTEX
  8
MY3DLAYER
10
558.1503414884321
20
641.2295143497579
30
88.49999999999963
 70
     32
  0
VERTEX
  8
MY3DLAYER
10
559.8905243525721
20
640.0667613338666
30
88.50000000000001
 70
     32
  0
VERTEX
  8
MY3DLAYER
10
561.4640499874172
20
638.6868163881916
30
88.50000000000003
 70
     32
  0
VERTEX
  8
MY3DLAYER
10
562.8439949330921
20
637.1132907533463
30
88.49999999999987
 70
     32
  0
VERTEX
  8
MY3DLAYER
10
564.0067479489833
20
635.3731078892068
30
88.49999999999983
 70
     32
  0
VERTEX
  8
MY3DLAYER
10
564.9324140086129
20
633.4960428070483
30
88.50000000000001
 70
     32
  0
VERTEX
  8
MY3DLAYER
10
565.6051547090574
20
631.5142126108472
30
88.49999999999994
 70
     32
  0
VERTEX
  8
MY3DLAYER
10
566.0134592704131
20
629.4615269647277
30
88.49999999999987
 70
     32
  0
VERTEX
  8
MY3DLAYER
10
566.1503414884324
20
627.3731078892068
30
88.50000000000001
 70
     32
  0
VERTEX
  8
MY3DLAYER
10
566.0134592704131
20
625.284688813686
30
88.49999999999987
 70
     32
  0
VERTEX
  8
MY3DLAYER
10
565.6051547090575
20
623.2320031675665
30
88.49999999999999
 70
     32
  0
VERTEX
  8
MY3DLAYER
10
564.9324140086129
20
621.2501729713654
30
88.49999999999997
 70
     32
  0
VERTEX
  8
MY3DLAYER
10
564.0067479489833
20
619.3731078892068
30
88.49999999999991
 70
     32
  0
VERTEX
  8
MY3DLAYER
10
562.8439949330921
20
617.6329250250673
30
88.49999999999996
 70
     32
  0
VERTEX
  8
MY3DLAYER
10
561.4640499874171
20
616.0593993902221
30
88.50000000000006
 70
     32
  0
VERTEX
  8
MY3DLAYER
10
559.8905243525718
20
614.6794544445471
30
88.50000000000007
 70
     32
  0
VERTEX
  8
MY3DLAYER
10
558.150341488432
20
613.5167014286559
30
88.49999999999966
 70
     32
  0
VERTEX
  8
MY3DLAYER
10
556.2732764062737
20
612.5910353690263
30
88.49999999999984
 70
     32
  0
VERTEX
  8
MY3DLAYER
10
554.2914462100726
20
611.9182946685818
30
88.49999999999979
 70
     32
  0
VERTEX
  8
MY3DLAYER
10
552.238760563953
20
611.5099901072259
30
88.49999999999982
 70
     32
  0
VERTEX
  8
MY3DLAYER
10
550.1503414884321
20
611.373107889207
30
88.49999999999996
 70
     32
  0
VERTEX
  8
MY3DLAYER
10
548.0619224129113
20
611.5099901072259
30
88.4999999999996
 70
     32
  0
VERTEX
  8
MY3DLAYER
10
546.0092367667921
20
611.9182946685819
30
88.50000000000009
 70
     32
  0
VERTEX
  8
MY3DLAYER
10
544.0274065705909
20
612.5910353690264
30
88.49999999999976
 70
     32
  0
VERTEX
  8
MY3DLAYER
10
542.1503414884322
20
613.5167014286559
30
88.49999999999979
 70
     32
  0
VERTEX
  8
MY3DLAYER
10
540.4101586242929
20
614.6794544445472
30
88.49999999999986
 70
     32
  0
VERTEX
  8
MY3DLAYER
10
538.8366329894476
20
616.0593993902222
30
88.49999999999991
 70
     32
  0
VERTEX
  8
MY3DLAYER
10
537.4566880437723
20
617.6329250250674
30
88.4999999999998
 70
     32
  0
VERTEX
  8
MY3DLAYER
10
536.2939350278814
20
619.3731078892071
30
88.5
 70
     32
  0
VERTEX
  8
MY3DLAYER
10
535.3682689682518
20
621.2501729713656
30
88.49999999999994
 70
     32
  0
VERTEX
  8
MY3DLAYER
10
534.695528267807
20
623.2320031675666
30
88.49999999999969
 70
     32
  0
VERTEX
  8
MY3DLAYER
10
534.2872237064513
20
625.2846888136861
30
88.49999999999976
 70
     32
  0
VERTEX
  8
MY3DLAYER
10
534.1503414884321
20
627.3731078892071
30
88.4999999999999
 70
     32
  0
SEQEND
  0
POLYLINE
 8
Layer0
 66
     1
70
    8
 10
0.0
 20
 0.0
 30
0.0
  0
VERTEX
  8
MY3DLAYER
10
604.1503414884322
20
595.3731078892067
30
88.50000000000017
 70
     32
  0
VERTEX
  8
MY3DLAYER
10
604.1503414884322
20
573.3731078892066
30
88.50000000000017
 70
     32
  0
VERTEX
  8
MY3DLAYER
10
574.150341488432
20
573.3731078892066
30
88.50000000000004
 70
     32
  0
VERTEX
  8
MY3DLAYER
10
574.150341488432
20
595.3731078892067
30
88.50000000000004
 70
     32
  0
VERTEX
  8
MY3DLAYER
10
604.1503414884322
20
595.3731078892067
30
88.50000000000017
 70
     32
  0
SEQEND
  0
POLYLINE
 8
Layer0
 66
     1
70
    8
 10
0.0
 20
 0.0
 30
0.0
  0
VERTEX
  8
MY3DLAYER
10
598.1503414884321
20
602.5338577644599
30
88.49999999999984
 70
     32
  0
VERTEX
  8
MY3DLAYER
10
574.150341488432
20
602.5338577644599
30
88.49999999999989
 70
     32
  0
VERTEX
  8
MY3DLAYER
10
574.150341488432
20
673.6338577644599
30
88.49999999999989
 70
     32
  0
VERTEX
  8
MY3DLAYER
10
598.1503414884321
20
673.6338577644599
30
88.49999999999984
 70
     32
  0
VERTEX
  8
MY3DLAYER
10
598.1503414884321
20
602.5338577644599
30
88.49999999999984
 70
     32
  0
SEQEND
  0
POLYLINE
 8
Layer0
 66
     1
70
    8
 10
0.0
 20
 0.0
 30
0.0
  0
VERTEX
  8
MY3DLAYER
10
602.1503414884321
20
759.2602506147276
30
88.49999999999994
 70
     32
  0
VERTEX
  8
MY3DLAYER
10
602.1503414884321
20
743.7602506147276
30
88.49999999999994
 70
     32
  0
VERTEX
  8
MY3DLAYER
10
594.0503414884322
20
743.7602506147276
30
88.49999999999989
 70
     32
  0
VERTEX
  8
MY3DLAYER
10
594.0503414884322
20
759.2602506147276
30
88.49999999999989
 70
     32
  0
VERTEX
  8
MY3DLAYER
10
602.1503414884321
20
759.2602506147276
30
88.49999999999994
 70
     32
  0
SEQEND
  0
POLYLINE
 8
Layer0
 66
     1
70
    8
 10
0.0
 20
 0.0
 30
0.0
  0
VERTEX
  8
MY3DLAYER
10
567.1607310942261
20
731.5992163469131
30
88.50000000000017
 70
     32
  0
VERTEX
  8
MY3DLAYER
10
567.1607310942261
20
646.5992163469128
30
88.50000000000017
 70
     32
  0
VERTEX
  8
MY3DLAYER
10
527.1607310942259
20
646.5992163469128
30
88.49999999999987
 70
     32
  0
VERTEX
  8
MY3DLAYER
10
527.1607310942259
20
731.5992163469131
30
88.49999999999987
 70
     32
  0
VERTEX
  8
MY3DLAYER
10
567.1607310942261
20
731.5992163469131
30
88.50000000000017
 70
     32
  0
SEQEND
  0
POLYLINE
 8
Layer0
 66
     1
70
    8
 10
0.0
 20
 0.0
 30
0.0
  0
VERTEX
  8
MY3DLAYER
10
547.150341488432
20
567.8731078892066
30
88.4999999999999
 70
     32
  0
VERTEX
  8
MY3DLAYER
10
547.0992302278657
20
567.4848793215529
30
88.50000000000023
 70
     32
  0
VERTEX
  8
MY3DLAYER
10
546.9493795941083
20
567.1231078892066
30
88.49999999999976
 70
     32
  0
VERTEX
  8
MY3DLAYER
10
546.7110016602117
20
566.8124477174268
30
88.4999999999999
 70
     32
  0
VERTEX
  8
MY3DLAYER
10
546.4003414884318
20
566.5740697835299
30
88.49999999999964
 70
     32
  0
VERTEX
  8
MY3DLAYER
10
546.0385700560856
20
566.4242191497731
30
88.49999999999979
 70
     32
  0
VERTEX
  8
MY3DLAYER
10
545.6503414884319
20
566.3731078892066
30
88.49999999999984
 70
     32
  0
VERTEX
  8
MY3DLAYER
10
545.2621129207783
20
566.4242191497731
30
88.49999999999994
 70
     32
  0
VERTEX
  8
MY3DLAYER
10
544.9003414884319
20
566.5740697835299
30
88.50000000000017
 70
     32
  0
VERTEX
  8
MY3DLAYER
10
544.589681316652
20
566.8124477174268
30
88.49999999999983
 70
     32
  0
VERTEX
  8
MY3DLAYER
10
544.351303382755
20
567.1231078892066
30
88.49999999999982
 70
     32
  0
VERTEX
  8
MY3DLAYER
10
544.2014527489982
20
567.4848793215529
30
88.49999999999984
 70
     32
  0
VERTEX
  8
MY3DLAYER
10
544.150341488432
20
567.8731078892066
30
88.50000000000023
 70
     32
  0
VERTEX
  8
MY3DLAYER
10
544.2014527489982
20
568.2613364568605
30
88.49999999999984
 70
     32
  0
VERTEX
  8
MY3DLAYER
10
544.351303382755
20
568.6231078892066
30
88.49999999999982
 70
     32
  0
VERTEX
  8
MY3DLAYER
10
544.589681316652
20
568.9337680609865
30
88.49999999999983
 70
     32
  0
VERTEX
  8
MY3DLAYER
10
544.9003414884319
20
569.1721459948833
30
88.50000000000017
 70
     32
  0
VERTEX
  8
MY3DLAYER
10
545.2621129207783
20
569.3219966286402
30
88.49999999999994
 70
     32
  0
VERTEX
  8
MY3DLAYER
10
545.6503414884319
20
569.3731078892066
30
88.49999999999984
 70
     32
  0
VERTEX
  8
MY3DLAYER
10
546.0385700560856
20
569.3219966286402
30
88.49999999999979
 70
     32
  0
VERTEX
  8
MY3DLAYER
10
546.4003414884318
20
569.1721459948833
30
88.49999999999964
 70
     32
  0
VERTEX
  8
MY3DLAYER
10
546.7110016602117
20
568.9337680609865
30
88.4999999999999
 70
     32
  0
VERTEX
  8
MY3DLAYER
10
546.9493795941083
20
568.6231078892066
30
88.49999999999976
 70
     32
  0
VERTEX
  8
MY3DLAYER
10
547.0992302278657
20
568.2613364568605
30
88.50000000000023
 70
     32
  0
VERTEX
  8
MY3DLAYER
10
547.150341488432
20
567.8731078892066
30
88.4999999999999
 70
     32
  0
SEQEND
  0
POLYLINE
 8
Layer0
 66
     1
70
    8
 10
0.0
 20
 0.0
 30
0.0
  0
VERTEX
  8
MY3DLAYER
10
593.4003414884321
20
569.1721459948833
30
88.50000000000007
 70
     32
  0
VERTEX
  8
MY3DLAYER
10
593.711001660212
20
568.9337680609865
30
88.50000000000026
 70
     32
  0
VERTEX
  8
MY3DLAYER
10
593.9493795941087
20
568.6231078892066
30
88.50000000000003
 70
     32
  0
VERTEX
  8
MY3DLAYER
10
594.0992302278657
20
568.2613364568605
30
88.50000000000017
 70
     32
  0
VERTEX
  8
MY3DLAYER
10
594.1503414884321
20
567.8731078892066
30
88.49999999999993
 70
     32
  0
VERTEX
  8
MY3DLAYER
10
594.0992302278657
20
567.4848793215529
30
88.50000000000017
 70
     32
  0
VERTEX
  8
MY3DLAYER
10
593.9493795941087
20
567.1231078892066
30
88.50000000000003
 70
     32
  0
VERTEX
  8
MY3DLAYER
10
593.711001660212
20
566.8124477174268
30
88.50000000000026
 70
     32
  0
VERTEX
  8
MY3DLAYER
10
593.4003414884321
20
566.5740697835299
30
88.50000000000007
 70
     32
  0
VERTEX
  8
MY3DLAYER
10
593.0385700560859
20
566.4242191497731
30
88.50000000000004
 70
     32
  0
VERTEX
  8
MY3DLAYER
10
592.6503414884323
20
566.3731078892066
30
88.50000000000014
 70
     32
  0
VERTEX
  8
MY3DLAYER
10
592.2621129207779
20
566.4242191497731
30
88.4999999999998
 70
     32
  0
VERTEX
  8
MY3DLAYER
10
591.9003414884322
20
566.5740697835299
30
88.50000000000003
 70
     32
  0
VERTEX
  8
MY3DLAYER
10
591.5896813166521
20
566.8124477174268
30
88.5
 70
     32
  0
VERTEX
  8
MY3DLAYER
10
591.3513033827554
20
567.1231078892066
30
88.5
 70
     32
  0
VERTEX
  8
MY3DLAYER
10
591.2014527489983
20
567.4848793215529
30
88.49999999999994
 70
     32
  0
VERTEX
  8
MY3DLAYER
10
591.1503414884321
20
567.8731078892066
30
88.49999999999994
 70
     32
  0
VERTEX
  8
MY3DLAYER
10
591.2014527489983
20
568.2613364568605
30
88.49999999999994
 70
     32
  0
VERTEX
  8
MY3DLAYER
10
591.3513033827554
20
568.6231078892066
30
88.5
 70
     32
  0
VERTEX
  8
MY3DLAYER
10
591.5896813166521
20
568.9337680609865
30
88.5
 70
     32
  0
VERTEX
  8
MY3DLAYER
10
591.9003414884322
20
569.1721459948833
30
88.50000000000003
 70
     32
  0
VERTEX
  8
MY3DLAYER
10
592.2621129207779
20
569.3219966286402
30
88.4999999999998
 70
     32
  0
VERTEX
  8
MY3DLAYER
10
592.6503414884323
20
569.3731078892066
30
88.50000000000014
 70
     32
  0
VERTEX
  8
MY3DLAYER
10
593.038570056086
20
569.3219966286402
30
88.5
 70
     32
  0
VERTEX
  8
MY3DLAYER
10
593.4003414884321
20
569.1721459948833
30
88.50000000000007
 70
     32
  0
SEQEND
  0
POLYLINE
 8
Layer0
 66
     1
70
    8
 10
0.0
 20
 0.0
 30
0.0
  0
VERTEX
  8
MY3DLAYER
10
592.6503414884323
20
769.3731078892067
30
88.5000000000001
 70
     32
  0
VERTEX
  8
MY3DLAYER
10
592.2621129207779
20
769.4242191497732
30
88.4999999999998
 70
     32
  0
VERTEX
  8
MY3DLAYER
10
591.9003414884322
20
769.5740697835301
30
88.49999999999996
 70
     32
  0
VERTEX
  8
MY3DLAYER
10
591.5896813166521
20
769.812447717427
30
88.49999999999996
 70
     32
  0
VERTEX
  8
MY3DLAYER
10
591.3513033827554
20
770.1231078892067
30
88.49999999999996
 70
     32
  0
VERTEX
  8
MY3DLAYER
10
591.2014527489983
20
770.484879321553
30
88.4999999999999
 70
     32
  0
VERTEX
  8
MY3DLAYER
10
591.150341488432
20
770.8731078892067
30
88.49999999999983
 70
     32
  0
VERTEX
  8
MY3DLAYER
10
591.2014527489983
20
771.2613364568606
30
88.4999999999999
 70
     32
  0
VERTEX
  8
MY3DLAYER
10
591.3513033827554
20
771.6231078892067
30
88.49999999999996
 70
     32
  0
VERTEX
  8
MY3DLAYER
10
591.589681316652
20
771.9337680609866
30
88.49999999999984
 70
     32
  0
VERTEX
  8
MY3DLAYER
10
591.9003414884322
20
772.1721459948834
30
88.49999999999996
 70
     32
  0
VERTEX
  8
MY3DLAYER
10
592.2621129207779
20
772.3219966286404
30
88.4999999999998
 70
     32
  0
VERTEX
  8
MY3DLAYER
10
592.6503414884322
20
772.3731078892068
30
88.50000000000007
 70
     32
  0
VERTEX
  8
MY3DLAYER
10
593.0385700560859
20
772.3219966286404
30
88.49999999999993
 70
     32
  0
VERTEX
  8
MY3DLAYER
10
593.400341488432
20
772.1721459948834
30
88.50000000000001
 70
     32
  0
VERTEX
  8
MY3DLAYER
10
593.711001660212
20
771.9337680609866
30
88.50000000000021
 70
     32
  0
VERTEX
  8
MY3DLAYER
10
593.9493795941087
20
771.6231078892067
30
88.49999999999994
 70
     32
  0
VERTEX
  8
MY3DLAYER
10
594.0992302278656
20
771.2613364568606
30
88.49999999999994
 70
     32
  0
VERTEX
  8
MY3DLAYER
10
594.1503414884321
20
770.8731078892067
30
88.49999999999984
 70
     32
  0
VERTEX
  8
MY3DLAYER
10
594.0992302278656
20
770.484879321553
30
88.49999999999994
 70
     32
  0
VERTEX
  8
MY3DLAYER
10
593.9493795941087
20
770.1231078892067
30
88.49999999999994
 70
     32
  0
VERTEX
  8
MY3DLAYER
10
593.711001660212
20
769.812447717427
30
88.50000000000021
 70
     32
  0
VERTEX
  8
MY3DLAYER
10
593.4003414884321
20
769.5740697835301
30
88.49999999999999
 70
     32
  0
VERTEX
  8
MY3DLAYER
10
593.0385700560859
20
769.4242191497732
30
88.49999999999993
 70
     32
  0
VERTEX
  8
MY3DLAYER
10
592.6503414884323
20
769.3731078892067
30
88.5000000000001
 70
     32
  0
SEQEND
  0
POLYLINE
 8
Layer0
 66
     1
70
    8
 10
0.0
 20
 0.0
 30
0.0
  0
VERTEX
  8
MY3DLAYER
10
546.0253414884324
20
769.4735888363684
30
88.49999999999973
 70
     32
  0
VERTEX
  8
MY3DLAYER
10
545.6503414884329
20
769.4242191497732
30
88.50000000000011
 70
     32
  0
VERTEX
  8
MY3DLAYER
10
545.2753414884326
20
769.4735888363684
30
88.49999999999982
 70
     32
  0
VERTEX
  8
MY3DLAYER
10
544.9258971187157
20
769.6183334336
30
88.50000000000003
 70
     32
  0
VERTEX
  8
MY3DLAYER
10
544.6258224355944
20
769.8485888363684
30
88.49999999999999
 70
     32
  0
VERTEX
  8
MY3DLAYER
10
544.395567032826
20
770.1486635194899
30
88.50000000000016
 70
     32
  0
VERTEX
  8
MY3DLAYER
10
544.2508224355944
20
770.4981078892067
30
88.49999999999997
 70
     32
  0
VERTEX
  8
MY3DLAYER
10
544.2014527489988
20
770.8731078892067
30
88.49999999999966
 70
     32
  0
VERTEX
  8
MY3DLAYER
10
544.2508224355944
20
771.2481078892067
30
88.49999999999997
 70
     32
  0
VERTEX
  8
MY3DLAYER
10
544.395567032826
20
771.5975522589235
30
88.50000000000016
 70
     32
  0
VERTEX
  8
MY3DLAYER
10
544.6258224355944
20
771.897626942045
30
88.49999999999999
 70
     32
  0
VERTEX
  8
MY3DLAYER
10
544.9258971187157
20
772.1278823448135
30
88.50000000000003
 70
     32
  0
VERTEX
  8
MY3DLAYER
10
545.2753414884326
20
772.2726269420451
30
88.49999999999982
 70
     32
  0
VERTEX
  8
MY3DLAYER
10
545.6503414884329
20
772.3219966286404
30
88.50000000000011
 70
     32
  0
VERTEX
  8
MY3DLAYER
10
546.0253414884324
20
772.2726269420451
30
88.49999999999973
 70
     32
  0
VERTEX
  8
MY3DLAYER
10
546.3747858581493
20
772.1278823448135
30
88.49999999999987
 70
     32
  0
VERTEX
  8
MY3DLAYER
10
546.6748605412712
20
771.897626942045
30
88.50000000000011
 70
     32
  0
VERTEX
  8
MY3DLAYER
10
546.9051159440395
20
771.5975522589237
30
88.5
 70
     32
  0
VERTEX
  8
MY3DLAYER
10
547.049860541271
20
771.2481078892067
30
88.49999999999991
 70
     32
  0
VERTEX
  8
MY3DLAYER
10
547.0992302278661
20
770.8731078892067
30
88.49999999999977
 70
     32
  0
VERTEX
  8
MY3DLAYER
10
547.049860541271
20
770.4981078892067
30
88.49999999999991
 70
     32
  0
VERTEX
  8
MY3DLAYER
10
546.9051159440395
20
770.14866351949
30
88.5
 70
     32
  0
VERTEX
  8
MY3DLAYER
10
546.6748605412712
20
769.8485888363684
30
88.50000000000011
 70
     32
  0
VERTEX
  8
MY3DLAYER
10
546.3747858581493
20
769.6183334336
30
88.49999999999987
 70
     32
  0
VERTEX
  8
MY3DLAYER
10
546.0253414884324
20
769.4735888363684
30
88.49999999999973
 70
     32
  0
SEQEND
  0
POLYLINE
 8
Layer0
 66
     1
70
    8
 10
0.0
 20
 0.0
 30
0.0
  0
VERTEX
  8
MY3DLAYER
10
609.538570056086
20
605.8219966286402
30
88.50000000000006
 70
     32
  0
VERTEX
  8
MY3DLAYER
10
609.9003414884319
20
605.6721459948833
30
88.50000000000007
 70
     32
  0
VERTEX
  8
MY3DLAYER
10
610.2110016602118
20
605.4337680609865
30
88.4999999999999
 70
     32
  0
VERTEX
  8
MY3DLAYER
10
610.4493795941087
20
605.1231078892066
30
88.49999999999989
 70
     32
  0
VERTEX
  8
MY3DLAYER
10
610.5992302278656
20
604.7613364568605
30
88.49999999999999
 70
     32
  0
VERTEX
  8
MY3DLAYER
10
610.650341488432
20
604.3731078892066
30
88.50000000000007
 70
     32
  0
VERTEX
  8
MY3DLAYER
10
610.5992302278656
20
603.9848793215529
30
88.49999999999999
 70
     32
  0
VERTEX
  8
MY3DLAYER
10
610.4493795941087
20
603.6231078892066
30
88.49999999999989
 70
     32
  0
VERTEX
  8
MY3DLAYER
10
610.2110016602118
20
603.3124477174268
30
88.4999999999999
 70
     32
  0
VERTEX
  8
MY3DLAYER
10
609.9003414884319
20
603.0740697835299
30
88.50000000000007
 70
     32
  0
VERTEX
  8
MY3DLAYER
10
609.538570056086
20
602.9242191497731
30
88.50000000000006
 70
     32
  0
VERTEX
  8
MY3DLAYER
10
609.150341488432
20
602.8731078892066
30
88.50000000000003
 70
     32
  0
VERTEX
  8
MY3DLAYER
10
608.7621129207786
20
602.9242191497731
30
88.50000000000024
 70
     32
  0
VERTEX
  8
MY3DLAYER
10
608.4003414884321
20
603.0740697835299
30
88.5000000000001
 70
     32
  0
VERTEX
  8
MY3DLAYER
10
608.0896813166524
20
603.3124477174268
30
88.50000000000006
 70
     32
  0
VERTEX
  8
MY3DLAYER
10
607.8513033827552
20
603.6231078892066
30
88.50000000000006
 70
     32
  0
VERTEX
  8
MY3DLAYER
10
607.7014527489987
20
603.9848793215529
30
88.5000000000003
 70
     32
  0
VERTEX
  8
MY3DLAYER
10
607.6503414884321
20
604.3731078892066
30
88.50000000000016
 70
     32
  0
VERTEX
  8
MY3DLAYER
10
607.7014527489987
20
604.7613364568605
30
88.5000000000003
 70
     32
  0
VERTEX
  8
MY3DLAYER
10
607.8513033827552
20
605.1231078892066
30
88.50000000000006
 70
     32
  0
VERTEX
  8
MY3DLAYER
10
608.0896813166524
20
605.4337680609865
30
88.50000000000006
 70
     32
  0
VERTEX
  8
MY3DLAYER
10
608.4003414884321
20
605.6721459948833
30
88.5000000000001
 70
     32
  0
VERTEX
  8
MY3DLAYER
10
608.7621129207785
20
605.8219966286402
30
88.5000000000002
 70
     32
  0
VERTEX
  8
MY3DLAYER
10
609.150341488432
20
605.8731078892066
30
88.50000000000003
 70
     32
  0
VERTEX
  8
MY3DLAYER
10
609.538570056086
20
605.8219966286402
30
88.50000000000006
 70
     32
  0
SEQEND
  0
POLYLINE
 8
Layer0
 66
     1
70
    8
 10
0.0
 20
 0.0
 30
0.0
  0
VERTEX
  8
MY3DLAYER
10
609.1503414884321
20
735.8731078892068
30
88.49999999999984
 70
     32
  0
VERTEX
  8
MY3DLAYER
10
609.5385700560861
20
735.8219966286404
30
88.49999999999997
 70
     32
  0
VERTEX
  8
MY3DLAYER
10
609.900341488432
20
735.6721459948834
30
88.49999999999987
 70
     32
  0
VERTEX
  8
MY3DLAYER
10
610.2110016602119
20
735.4337680609866
30
88.49999999999967
 70
     32
  0
VERTEX
  8
MY3DLAYER
10
610.4493795941087
20
735.1231078892067
30
88.4999999999997
 70
     32
  0
VERTEX
  8
MY3DLAYER
10
610.5992302278657
20
734.7613364568606
30
88.49999999999982
 70
     32
  0
VERTEX
  8
MY3DLAYER
10
610.650341488432
20
734.3731078892067
30
88.4999999999999
 70
     32
  0
VERTEX
  8
MY3DLAYER
10
610.5992302278657
20
733.984879321553
30
88.49999999999982
 70
     32
  0
VERTEX
  8
MY3DLAYER
10
610.4493795941087
20
733.6231078892067
30
88.4999999999997
 70
     32
  0
VERTEX
  8
MY3DLAYER
10
610.2110016602119
20
733.312447717427
30
88.49999999999967
 70
     32
  0
VERTEX
  8
MY3DLAYER
10
609.900341488432
20
733.0740697835301
30
88.49999999999987
 70
     32
  0
VERTEX
  8
MY3DLAYER
10
609.5385700560861
20
732.9242191497732
30
88.49999999999997
 70
     32
  0
VERTEX
  8
MY3DLAYER
10
609.1503414884321
20
732.8731078892067
30
88.49999999999984
 70
     32
  0
VERTEX
  8
MY3DLAYER
10
608.7621129207785
20
732.9242191497732
30
88.50000000000011
 70
     32
  0
VERTEX
  8
MY3DLAYER
10
608.4003414884321
20
733.0740697835301
30
88.49999999999991
 70
     32
  0
VERTEX
  8
MY3DLAYER
10
608.0896813166524
20
733.312447717427
30
88.49999999999987
 70
     32
  0
VERTEX
  8
MY3DLAYER
10
607.8513033827553
20
733.6231078892067
30
88.49999999999994
 70
     32
  0
VERTEX
  8
MY3DLAYER
10
607.7014527489987
20
733.984879321553
30
88.50000000000021
 70
     32
  0
VERTEX
  8
MY3DLAYER
10
607.6503414884321
20
734.3731078892067
30
88.50000000000001
 70
     32
  0
VERTEX
  8
MY3DLAYER
10
607.7014527489987
20
734.7613364568606
30
88.50000000000021
 70
     32
  0
VERTEX
  8
MY3DLAYER
10
607.8513033827553
20
735.1231078892067
30
88.49999999999994
 70
     32
  0
VERTEX
  8
MY3DLAYER
10
608.0896813166524
20
735.4337680609866
30
88.49999999999987
 70
     32
  0
VERTEX
  8
MY3DLAYER
10
608.4003414884321
20
735.6721459948834
30
88.49999999999991
 70
     32
  0
VERTEX
  8
MY3DLAYER
10
608.7621129207785
20
735.8219966286404
30
88.50000000000011
 70
     32
  0
VERTEX
  8
MY3DLAYER
10
609.1503414884321
20
735.8731078892068
30
88.49999999999984
 70
     32
  0
SEQEND
  0
POLYLINE
 8
Layer0
 66
     1
70
    8
 10
0.0
 20
 0.0
 30
0.0
  0
VERTEX
  8
MY3DLAYER
10
559.5796938360402
20
737.7599216908766
30
88.49999999999969
 70
     32
  0
VERTEX
  8
MY3DLAYER
10
557.8798135353477
20
737.4217944760038
30
88.49999999999983
 70
     32
  0
VERTEX
  8
MY3DLAYER
10
556.1503414884319
20
737.3084388892067
30
88.49999999999983
 70
     32
  0
VERTEX
  8
MY3DLAYER
10
554.4208694415163
20
737.4217944760038
30
88.49999999999966
 70
     32
  0
VERTEX
  8
MY3DLAYER
10
552.7209891408232
20
737.7599216908766
30
88.49999999999956
 70
     32
  0
VERTEX
  8
MY3DLAYER
10
551.0797860095947
20
738.3170350834322
30
88.49999999999979
 70
     32
  0
VERTEX
  8
MY3DLAYER
10
549.5253414884319
20
739.0836022890629
30
88.49999999999959
 70
     32
  0
VERTEX
  8
MY3DLAYER
10
548.0842525540667
20
740.0465071303479
30
88.49999999999999
 70
     32
  0
VERTEX
  8
MY3DLAYER
10
546.7811766377101
20
741.189274038485
30
88.49999999999983
 70
     32
  0
VERTEX
  8
MY3DLAYER
10
545.6384097295733
20
742.4923499548412
30
88.50000000000006
 70
     32
  0
VERTEX
  8
MY3DLAYER
10
544.675504888288
20
743.9334388892067
30
88.49999999999976
 70
     32
  0
VERTEX
  8
MY3DLAYER
10
543.9089376826573
20
745.4878834103694
30
88.49999999999979
 70
     32
  0
VERTEX
  8
MY3DLAYER
10
543.351824290102
20
747.1290865415983
30
88.50000000000003
 70
     32
  0
VERTEX
  8
MY3DLAYER
10
543.0136970752291
20
748.828966842291
30
88.49999999999999
 70
     32
  0
VERTEX
  8
MY3DLAYER
10
542.9003414884319
20
750.5584388892067
30
88.49999999999983
 70
     32
  0
VERTEX
  8
MY3DLAYER
10
543.0136970752291
20
752.2879109361224
30
88.49999999999999
 70
     32
  0
VERTEX
  8
MY3DLAYER
10
543.3518242901018
20
753.987791236815
30
88.50000000000006
 70
     32
  0
VERTEX
  8
MY3DLAYER
10
543.9089376826573
20
755.6289943680441
30
88.49999999999979
 70
     32
  0
VERTEX
  8
MY3DLAYER
10
544.675504888288
20
757.1834388892066
30
88.49999999999976
 70
     32
  0
VERTEX
  8
MY3DLAYER
10
545.6384097295733
20
758.6245278235723
30
88.50000000000006
 70
     32
  0
VERTEX
  8
MY3DLAYER
10
546.7811766377101
20
759.9276037399284
30
88.49999999999976
 70
     32
  0
VERTEX
  8
MY3DLAYER
10
548.0842525540667
20
761.0703706480655
30
88.50000000000003
 70
     32
  0
VERTEX
  8
MY3DLAYER
10
549.5253414884319
20
762.0332754893506
30
88.49999999999963
 70
     32
  0
VERTEX
  8
MY3DLAYER
10
551.0797860095947
20
762.7998426949812
30
88.49999999999979
 70
     32
  0
VERTEX
  8
MY3DLAYER
10
552.7209891408232
20
763.3569560875369
30
88.49999999999956
 70
     32
  0
VERTEX
  8
MY3DLAYER
10
554.4208694415163
20
763.6950833024097
30
88.49999999999966
 70
     32
  0
VERTEX
  8
MY3DLAYER
10
556.1503414884319
20
763.8084388892067
30
88.49999999999983
 70
     32
  0
VERTEX
  8
MY3DLAYER
10
557.8798135353477
20
763.6950833024097
30
88.49999999999983
 70
     32
  0
VERTEX
  8
MY3DLAYER
10
559.5796938360402
20
763.3569560875369
30
88.49999999999969
 70
     32
  0
VERTEX
  8
MY3DLAYER
10
561.2208969672694
20
762.7998426949812
30
88.49999999999979
 70
     32
  0
VERTEX
  8
MY3DLAYER
10
562.7753414884318
20
762.0332754893506
30
88.49999999999982
 70
     32
  0
VERTEX
  8
MY3DLAYER
10
564.2164304227975
20
761.0703706480655
30
88.4999999999999
 70
     32
  0
VERTEX
  8
MY3DLAYER
10
565.5195063391537
20
759.9276037399284
30
88.4999999999999
 70
     32
  0
VERTEX
  8
MY3DLAYER
10
566.662273247291
20
758.6245278235723
30
88.49999999999982
 70
     32
  0
VERTEX
  8
MY3DLAYER
10
567.6251780885757
20
757.1834388892067
30
88.5
 70
     32
  0
VERTEX
  8
MY3DLAYER
10
568.3917452942064
20
755.6289943680441
30
88.49999999999986
 70
     32
  0
VERTEX
  8
MY3DLAYER
10
568.948858686762
20
753.987791236815
30
88.49999999999994
 70
     32
  0
VERTEX
  8
MY3DLAYER
10
569.2869859016351
20
752.2879109361224
30
88.49999999999993
 70
     32
  0
VERTEX
  8
MY3DLAYER
10
569.4003414884321
20
750.5584388892067
30
88.4999999999999
 70
     32
  0
VERTEX
  8
MY3DLAYER
10
569.2869859016351
20
748.828966842291
30
88.49999999999993
 70
     32
  0
VERTEX
  8
MY3DLAYER
10
568.948858686762
20
747.1290865415983
30
88.49999999999994
 70
     32
  0
VERTEX
  8
MY3DLAYER
10
568.3917452942064
20
745.4878834103694
30
88.49999999999986
 70
     32
  0
VERTEX
  8
MY3DLAYER
10
567.6251780885757
20
743.9334388892067
30
88.5
 70
     32
  0
VERTEX
  8
MY3DLAYER
10
566.662273247291
20
742.4923499548412
30
88.49999999999982
 70
     32
  0
VERTEX
  8
MY3DLAYER
10
565.5195063391537
20
741.189274038485
30
88.4999999999999
 70
     32
  0
VERTEX
  8
MY3DLAYER
10
564.2164304227975
20
740.0465071303479
30
88.4999999999999
 70
     32
  0
VERTEX
  8
MY3DLAYER
10
562.7753414884318
20
739.0836022890629
30
88.49999999999982
 70
     32
  0
VERTEX
  8
MY3DLAYER
10
561.2208969672694
20
738.3170350834322
30
88.49999999999979
 70
     32
  0
VERTEX
  8
MY3DLAYER
10
559.5796938360402
20
737.7599216908766
30
88.49999999999969
 70
     32
  0
SEQEND
  0
POLYLINE
 8
Layer0
 66
     1
70
    8
 10
0.0
 20
 0.0
 30
0.0
  0
VERTEX
  8
MY3DLAYER
10
221.15034148843202
20
774.3731078892066
30
88.50000000000017
 70
     32
  0
VERTEX
  8
MY3DLAYER
10
221.15034148843208
20
564.3731078892065
30
88.5
 70
     32
  0
VERTEX
  8
MY3DLAYER
10
524.1503414884319
20
564.3731078892066
30
88.5
 70
     32
  0
VERTEX
  8
MY3DLAYER
10
524.1503414884319
20
774.3731078892068
30
88.4999999999997
 70
     32
  0
VERTEX
  8
MY3DLAYER
10
221.15034148843202
20
774.3731078892066
30
88.50000000000017
 70
     32
  0
SEQEND
  0
POLYLINE
 8
Layer0
 66
     1
70
    8
 10
0.0
 20
 0.0
 30
0.0
  0
VERTEX
  8
MY3DLAYER
10
489.15034148843165
20
572.9242191497732
30
88.5
 70
     32
  0
VERTEX
  8
MY3DLAYER
10
488.77534148843165
20
572.9735888363684
30
88.5
 70
     32
  0
VERTEX
  8
MY3DLAYER
10
488.42589711871494
20
573.1183334336
30
88.5
 70
     32
  0
VERTEX
  8
MY3DLAYER
10
488.12582243559336
20
573.3485888363684
30
88.5
 70
     32
  0
VERTEX
  8
MY3DLAYER
10
487.89556703282494
20
573.6486635194899
30
88.5
 70
     32
  0
VERTEX
  8
MY3DLAYER
10
487.75082243559336
20
573.9981078892068
30
88.5
 70
     32
  0
VERTEX
  8
MY3DLAYER
10
487.70145274899807
20
574.3731078892068
30
88.5
 70
     32
  0
VERTEX
  8
MY3DLAYER
10
487.75082243559336
20
574.7481078892068
30
88.5
 70
     32
  0
VERTEX
  8
MY3DLAYER
10
487.89556703282494
20
575.0975522589235
30
88.5
 70
     32
  0
VERTEX
  8
MY3DLAYER
10
488.12582243559336
20
575.3976269420451
30
88.5
 70
     32
  0
VERTEX
  8
MY3DLAYER
10
488.42589711871483
20
575.6278823448135
30
88.5
 70
     32
  0
VERTEX
  8
MY3DLAYER
10
488.77534148843165
20
575.7726269420451
30
88.5
 70
     32
  0
VERTEX
  8
MY3DLAYER
10
489.15034148843165
20
575.8219966286404
30
88.5
 70
     32
  0
VERTEX
  8
MY3DLAYER
10
489.5253414884317
20
575.7726269420451
30
88.5
 70
     32
  0
VERTEX
  8
MY3DLAYER
10
489.8747858581484
20
575.6278823448135
30
88.5
 70
     32
  0
VERTEX
  8
MY3DLAYER
10
490.17486054127
20
575.3976269420451
30
88.5
 70
     32
  0
VERTEX
  8
MY3DLAYER
10
490.4051159440384
20
575.0975522589237
30
88.5
 70
     32
  0
VERTEX
  8
MY3DLAYER
10
490.54986054127
20
574.7481078892068
30
88.5
 70
     32
  0
VERTEX
  8
MY3DLAYER
10
490.5992302278653
20
574.3731078892068
30
88.5
 70
     32
  0
VERTEX
  8
MY3DLAYER
10
490.54986054127
20
573.9981078892068
30
88.5
 70
     32
  0
VERTEX
  8
MY3DLAYER
10
490.4051159440384
20
573.64866351949
30
88.5
 70
     32
  0
VERTEX
  8
MY3DLAYER
10
490.17486054127
20
573.3485888363684
30
88.5
 70
     32
  0
VERTEX
  8
MY3DLAYER
10
489.8747858581485
20
573.1183334336
30
88.5
 70
     32
  0
VERTEX
  8
MY3DLAYER
10
489.5253414884317
20
572.9735888363684
30
88.5
 70
     32
  0
VERTEX
  8
MY3DLAYER
10
489.15034148843165
20
572.9242191497732
30
88.5
 70
     32
  0
SEQEND
  0
POLYLINE
 8
Layer0
 66
     1
70
    8
 10
0.0
 20
 0.0
 30
0.0
  0
VERTEX
  8
MY3DLAYER
10
490.5992302278653
20
757.2613364568602
30
88.5
 70
     32
  0
VERTEX
  8
MY3DLAYER
10
490.6503414884317
20
756.8731078892064
30
88.5
 70
     32
  0
VERTEX
  8
MY3DLAYER
10
490.5992302278653
20
756.4848793215526
30
88.5
 70
     32
  0
VERTEX
  8
MY3DLAYER
10
490.44937959410834
20
756.1231078892064
30
88.5
 70
     32
  0
VERTEX
  8
MY3DLAYER
10
490.2110016602115
20
755.8124477174266
30
88.5
 70
     32
  0
VERTEX
  8
MY3DLAYER
10
489.9003414884317
20
755.5740697835298
30
88.5
 70
     32
  0
VERTEX
  8
MY3DLAYER
10
489.53857005608546
20
755.4242191497729
30
88.5
 70
     32
  0
VERTEX
  8
MY3DLAYER
10
489.15034148843165
20
755.3731078892064
30
88.5
 70
     32
  0
VERTEX
  8
MY3DLAYER
10
488.7621129207779
20
755.4242191497729
30
88.5
 70
     32
  0
VERTEX
  8
MY3DLAYER
10
488.40034148843165
20
755.5740697835298
30
88.5
 70
     32
  0
VERTEX
  8
MY3DLAYER
10
488.0896813166519
20
755.8124477174266
30
88.5
 70
     32
  0
VERTEX
  8
MY3DLAYER
10
487.851303382755
20
756.1231078892064
30
88.5
 70
     32
  0
VERTEX
  8
MY3DLAYER
10
487.70145274899807
20
756.4848793215526
30
88.5
 70
     32
  0
VERTEX
  8
MY3DLAYER
10
487.65034148843165
20
756.8731078892064
30
88.5
 70
     32
  0
VERTEX
  8
MY3DLAYER
10
487.70145274899807
20
757.2613364568602
30
88.5
 70
     32
  0
VERTEX
  8
MY3DLAYER
10
487.851303382755
20
757.6231078892065
30
88.5
 70
     32
  0
VERTEX
  8
MY3DLAYER
10
488.0896813166519
20
757.9337680609863
30
88.5
 70
     32
  0
VERTEX
  8
MY3DLAYER
10
488.40034148843165
20
758.1721459948831
30
88.5
 70
     32
  0
VERTEX
  8
MY3DLAYER
10
488.7621129207779
20
758.32199662864
30
88.5
 70
     32
  0
VERTEX
  8
MY3DLAYER
10
489.15034148843165
20
758.3731078892065
30
88.5
 70
     32
  0
VERTEX
  8
MY3DLAYER
10
489.53857005608546
20
758.32199662864
30
88.5
 70
     32
  0
VERTEX
  8
MY3DLAYER
10
489.9003414884317
20
758.1721459948831
30
88.5
 70
     32
  0
VERTEX
  8
MY3DLAYER
10
490.2110016602115
20
757.9337680609863
30
88.5
 70
     32
  0
VERTEX
  8
MY3DLAYER
10
490.44937959410834
20
757.6231078892065
30
88.5
 70
     32
  0
VERTEX
  8
MY3DLAYER
10
490.5992302278653
20
757.2613364568602
30
88.5
 70
     32
  0
SEQEND
  0
POLYLINE
 8
Layer0
 66
     1
70
    8
 10
0.0
 20
 0.0
 30
0.0
  0
VERTEX
  8
MY3DLAYER
10
374.5385700560856
20
572.9242191497732
30
88.5
 70
     32
  0
VERTEX
  8
MY3DLAYER
10
374.1503414884318
20
572.8731078892067
30
88.5
 70
     32
  0
VERTEX
  8
MY3DLAYER
10
373.762112920778
20
572.9242191497732
30
88.5
 70
     32
  0
VERTEX
  8
MY3DLAYER
10
373.40034148843176
20
573.0740697835301
30
88.5
 70
     32
  0
VERTEX
  8
MY3DLAYER
10
373.08968131665193
20
573.312447717427
30
88.5
 70
     32
  0
VERTEX
  8
MY3DLAYER
10
372.85130338275513
20
573.6231078892067
30
88.5
 70
     32
  0
VERTEX
  8
MY3DLAYER
10
372.7014527489982
20
573.984879321553
30
88.5
 70
     32
  0
VERTEX
  8
MY3DLAYER
10
372.65034148843176
20
574.3731078892068
30
88.5
 70
     32
  0
VERTEX
  8
MY3DLAYER
10
372.7014527489982
20
574.7613364568606
30
88.5
 70
     32
  0
VERTEX
  8
MY3DLAYER
10
372.85130338275513
20
575.1231078892068
30
88.5
 70
     32
  0
VERTEX
  8
MY3DLAYER
10
373.08968131665193
20
575.4337680609866
30
88.5
 70
     32
  0
VERTEX
  8
MY3DLAYER
10
373.40034148843176
20
575.6721459948834
30
88.5
 70
     32
  0
VERTEX
  8
MY3DLAYER
10
373.762112920778
20
575.8219966286404
30
88.5
 70
     32
  0
VERTEX
  8
MY3DLAYER
10
374.1503414884318
20
575.8731078892068
30
88.5
 70
     32
  0
VERTEX
  8
MY3DLAYER
10
374.5385700560856
20
575.8219966286404
30
88.5
 70
     32
  0
VERTEX
  8
MY3DLAYER
10
374.9003414884318
20
575.6721459948834
30
88.5
 70
     32
  0
VERTEX
  8
MY3DLAYER
10
375.21100166021165
20
575.4337680609866
30
88.5
 70
     32
  0
VERTEX
  8
MY3DLAYER
10
375.44937959410845
20
575.1231078892068
30
88.5
 70
     32
  0
VERTEX
  8
MY3DLAYER
10
375.5992302278654
20
574.7613364568606
30
88.5
 70
     32
  0
VERTEX
  8
MY3DLAYER
10
375.6503414884318
20
574.3731078892068
30
88.5
 70
     32
  0
VERTEX
  8
MY3DLAYER
10
375.5992302278654
20
573.984879321553
30
88.5
 70
     32
  0
VERTEX
  8
MY3DLAYER
10
375.44937959410845
20
573.6231078892067
30
88.5
 70
     32
  0
VERTEX
  8
MY3DLAYER
10
375.21100166021165
20
573.312447717427
30
88.5
 70
     32
  0
VERTEX
  8
MY3DLAYER
10
374.9003414884318
20
573.0740697835301
30
88.5
 70
     32
  0
VERTEX
  8
MY3DLAYER
10
374.5385700560856
20
572.9242191497732
30
88.5
 70
     32
  0
SEQEND
  0
POLYLINE
 8
Layer0
 66
     1
70
    8
 10
0.0
 20
 0.0
 30
0.0
  0
VERTEX
  8
MY3DLAYER
10
257.75082243559353
20
573.9981078892068
30
88.49999999999989
 70
     32
  0
VERTEX
  8
MY3DLAYER
10
257.7014527489983
20
574.3731078892068
30
88.49999999999989
 70
     32
  0
VERTEX
  8
MY3DLAYER
10
257.75082243559353
20
574.7481078892068
30
88.49999999999989
 70
     32
  0
VERTEX
  8
MY3DLAYER
10
257.89556703282517
20
575.0975522589235
30
88.49999999999989
 70
     32
  0
VERTEX
  8
MY3DLAYER
10
258.12582243559353
20
575.3976269420451
30
88.49999999999989
 70
     32
  0
VERTEX
  8
MY3DLAYER
10
258.42589711871506
20
575.6278823448135
30
88.49999999999989
 70
     32
  0
VERTEX
  8
MY3DLAYER
10
258.7753414884319
20
575.7726269420451
30
88.49999999999989
 70
     32
  0
VERTEX
  8
MY3DLAYER
10
259.1503414884319
20
575.8219966286404
30
88.49999999999989
 70
     32
  0
VERTEX
  8
MY3DLAYER
10
259.5253414884319
20
575.7726269420451
30
88.49999999999989
 70
     32
  0
VERTEX
  8
MY3DLAYER
10
259.8747858581487
20
575.6278823448135
30
88.49999999999989
 70
     32
  0
VERTEX
  8
MY3DLAYER
10
260.1748605412702
20
575.3976269420451
30
88.49999999999989
 70
     32
  0
VERTEX
  8
MY3DLAYER
10
260.4051159440386
20
575.0975522589237
30
88.49999999999989
 70
     32
  0
VERTEX
  8
MY3DLAYER
10
260.5498605412702
20
574.7481078892068
30
88.49999999999989
 70
     32
  0
VERTEX
  8
MY3DLAYER
10
260.59923022786546
20
574.3731078892068
30
88.49999999999989
 70
     32
  0
VERTEX
  8
MY3DLAYER
10
260.5498605412702
20
573.9981078892068
30
88.49999999999989
 70
     32
  0
VERTEX
  8
MY3DLAYER
10
260.4051159440386
20
573.64866351949
30
88.49999999999989
 70
     32
  0
VERTEX
  8
MY3DLAYER
10
260.1748605412702
20
573.3485888363684
30
88.49999999999989
 70
     32
  0
VERTEX
  8
MY3DLAYER
10
259.8747858581487
20
573.1183334336
30
88.49999999999989
 70
     32
  0
VERTEX
  8
MY3DLAYER
10
259.5253414884319
20
572.9735888363684
30
88.49999999999989
 70
     32
  0
VERTEX
  8
MY3DLAYER
10
259.1503414884319
20
572.9242191497732
30
88.49999999999989
 70
     32
  0
VERTEX
  8
MY3DLAYER
10
258.7753414884319
20
572.9735888363684
30
88.49999999999989
 70
     32
  0
VERTEX
  8
MY3DLAYER
10
258.42589711871506
20
573.1183334336
30
88.49999999999989
 70
     32
  0
VERTEX
  8
MY3DLAYER
10
258.12582243559353
20
573.3485888363684
30
88.49999999999989
 70
     32
  0
VERTEX
  8
MY3DLAYER
10
257.89556703282517
20
573.6486635194899
30
88.49999999999989
 70
     32
  0
VERTEX
  8
MY3DLAYER
10
257.75082243559353
20
573.9981078892068
30
88.49999999999989
 70
     32
  0
SEQEND
  0
POLYLINE
 8
Layer0
 66
     1
70
    8
 10
0.0
 20
 0.0
 30
0.0
  0
VERTEX
  8
MY3DLAYER
10
257.7014527489983
20
756.4848793215526
30
88.49999999999996
 70
     32
  0
VERTEX
  8
MY3DLAYER
10
257.6503414884319
20
756.8731078892064
30
88.49999999999996
 70
     32
  0
VERTEX
  8
MY3DLAYER
10
257.7014527489983
20
757.2613364568602
30
88.49999999999996
 70
     32
  0
VERTEX
  8
MY3DLAYER
10
257.8513033827552
20
757.6231078892065
30
88.49999999999996
 70
     32
  0
VERTEX
  8
MY3DLAYER
10
258.08968131665205
20
757.9337680609863
30
88.49999999999996
 70
     32
  0
VERTEX
  8
MY3DLAYER
10
258.4003414884319
20
758.1721459948831
30
88.49999999999996
 70
     32
  0
VERTEX
  8
MY3DLAYER
10
258.76211292077807
20
758.32199662864
30
88.49999999999996
 70
     32
  0
VERTEX
  8
MY3DLAYER
10
259.1503414884319
20
758.3731078892065
30
88.49999999999996
 70
     32
  0
VERTEX
  8
MY3DLAYER
10
259.5385700560857
20
758.32199662864
30
88.49999999999996
 70
     32
  0
VERTEX
  8
MY3DLAYER
10
259.9003414884319
20
758.1721459948831
30
88.49999999999996
 70
     32
  0
VERTEX
  8
MY3DLAYER
10
260.2110016602117
20
757.9337680609863
30
88.49999999999996
 70
     32
  0
VERTEX
  8
MY3DLAYER
10
260.44937959410856
20
757.6231078892065
30
88.49999999999996
 70
     32
  0
VERTEX
  8
MY3DLAYER
10
260.59923022786546
20
757.2613364568602
30
88.49999999999996
 70
     32
  0
VERTEX
  8
MY3DLAYER
10
260.6503414884319
20
756.8731078892064
30
88.49999999999996
 70
     32
  0
VERTEX
  8
MY3DLAYER
10
260.59923022786546
20
756.4848793215526
30
88.49999999999996
 70
     32
  0
VERTEX
  8
MY3DLAYER
10
260.44937959410856
20
756.1231078892064
30
88.49999999999996
 70
     32
  0
VERTEX
  8
MY3DLAYER
10
260.2110016602117
20
755.8124477174266
30
88.49999999999996
 70
     32
  0
VERTEX
  8
MY3DLAYER
10
259.9003414884319
20
755.5740697835298
30
88.49999999999996
 70
     32
  0
VERTEX
  8
MY3DLAYER
10
259.5385700560857
20
755.4242191497729
30
88.49999999999996
 70
     32
  0
VERTEX
  8
MY3DLAYER
10
259.1503414884319
20
755.3731078892064
30
88.49999999999996
 70
     32
  0
VERTEX
  8
MY3DLAYER
10
258.76211292077807
20
755.4242191497729
30
88.49999999999996
 70
     32
  0
VERTEX
  8
MY3DLAYER
10
258.4003414884319
20
755.5740697835298
30
88.49999999999996
 70
     32
  0
VERTEX
  8
MY3DLAYER
10
258.08968131665205
20
755.8124477174266
30
88.49999999999996
 70
     32
  0
VERTEX
  8
MY3DLAYER
10
257.8513033827552
20
756.1231078892064
30
88.49999999999996
 70
     32
  0
VERTEX
  8
MY3DLAYER
10
257.7014527489983
20
756.4848793215526
30
88.49999999999996
 70
     32
  0
SEQEND
 0
ENDSEC
 0
EOF
