solid Вал-2мм
facet normal 0.0 0.0 -1.0
  outer loop
    vertex -5.795554957734409 1.5529142706151262 -3.0
    vertex -5.79555495773441 -1.5529142706151222 -3.0
    vertex -6.0 7.34788079488412e-16 -3.0
  endloop
endfacet
facet normal 0.0 0.0 -1.0
  outer loop
    vertex -5.79555495773441 -1.5529142706151222 -3.0
    vertex -5.795554957734409 1.5529142706151262 -3.0
    vertex -5.196152422706632 -2.9999999999999982 -3.0
  endloop
endfacet
facet normal 0.0 0.0 -1.0
  outer loop
    vertex -5.196152422706632 -2.9999999999999982 -3.0
    vertex -5.795554957734409 1.5529142706151262 -3.0
    vertex -5.196152422706631 3.000000000000002 -3.0
  endloop
endfacet
facet normal 0.0 0.0 -1.0
  outer loop
    vertex -5.196152422706632 -2.9999999999999982 -3.0
    vertex -5.196152422706631 3.000000000000002 -3.0
    vertex -4.242640687119287 -4.242640687119283 -3.0
  endloop
endfacet
facet normal 0.0 0.0 -1.0
  outer loop
    vertex -4.242640687119287 -4.242640687119283 -3.0
    vertex -5.196152422706631 3.000000000000002 -3.0
    vertex -4.242640687119285 4.242640687119286 -3.0
  endloop
endfacet
facet normal 0.0 0.0 -1.0
  outer loop
    vertex -4.242640687119287 -4.242640687119283 -3.0
    vertex -4.242640687119285 4.242640687119286 -3.0
    vertex -3.0000000000000027 -5.196152422706631 -3.0
  endloop
endfacet
facet normal 0.0 0.0 -1.0
  outer loop
    vertex -3.0000000000000027 -5.196152422706631 -3.0
    vertex -4.242640687119285 4.242640687119286 -3.0
    vertex -2.9999999999999982 5.196152422706632 -3.0
  endloop
endfacet
facet normal 0.0 0.0 -1.0
  outer loop
    vertex -3.0000000000000027 -5.196152422706631 -3.0
    vertex -2.9999999999999982 5.196152422706632 -3.0
    vertex -3.0 3.67394039744206e-16 -3.0
  endloop
endfacet
facet normal 0.0 0.0 -1.0
  outer loop
    vertex -3.0 3.67394039744206e-16 -3.0
    vertex -2.9999999999999982 5.196152422706632 -3.0
    vertex -2.8977774788672046 0.7764571353075631 -3.0
  endloop
endfacet
facet normal 0.0 0.0 -1.0
  outer loop
    vertex -2.8977774788672046 0.7764571353075631 -3.0
    vertex -2.9999999999999982 5.196152422706632 -3.0
    vertex -1.5529142706151238 5.79555495773441 -3.0
  endloop
endfacet
facet normal 0.0 0.0 -1.0
  outer loop
    vertex -2.8977774788672046 0.7764571353075631 -3.0
    vertex -1.5529142706151238 5.79555495773441 -3.0
    vertex -2.5980762113533156 1.500000000000001 -3.0
  endloop
endfacet
facet normal 0.0 0.0 -1.0
  outer loop
    vertex -2.5980762113533156 1.500000000000001 -3.0
    vertex -1.5529142706151238 5.79555495773441 -3.0
    vertex -2.1213203435596424 2.121320343559643 -3.0
  endloop
endfacet
facet normal 0.0 0.0 -1.0
  outer loop
    vertex -2.1213203435596424 2.121320343559643 -3.0
    vertex -1.5529142706151238 5.79555495773441 -3.0
    vertex -1.4999999999999991 2.598076211353316 -3.0
  endloop
endfacet
facet normal 0.0 0.0 -1.0
  outer loop
    vertex -1.4999999999999991 2.598076211353316 -3.0
    vertex -1.5529142706151238 5.79555495773441 -3.0
    vertex 3.6739403974420594e-16 6.0 -3.0
  endloop
endfacet
facet normal 0.0 0.0 -1.0
  outer loop
    vertex -1.4999999999999991 2.598076211353316 -3.0
    vertex 3.6739403974420594e-16 6.0 -3.0
    vertex -0.7764571353075619 2.897777478867205 -3.0
  endloop
endfacet
facet normal 0.0 0.0 -1.0
  outer loop
    vertex -0.7764571353075619 2.897777478867205 -3.0
    vertex 3.6739403974420594e-16 6.0 -3.0
    vertex 1.8369701987210297e-16 3.0 -3.0
  endloop
endfacet
facet normal 0.0 0.0 -1.0
  outer loop
    vertex 1.8369701987210297e-16 3.0 -3.0
    vertex 3.6739403974420594e-16 6.0 -3.0
    vertex 0.7764571353075629 2.897777478867205 -3.0
  endloop
endfacet
facet normal 0.0 0.0 -1.0
  outer loop
    vertex 0.7764571353075629 2.897777478867205 -3.0
    vertex 3.6739403974420594e-16 6.0 -3.0
    vertex 1.5529142706151258 5.79555495773441 -3.0
  endloop
endfacet
facet normal 0.0 0.0 -1.0
  outer loop
    vertex 0.7764571353075629 2.897777478867205 -3.0
    vertex 1.5529142706151258 5.79555495773441 -3.0
    vertex 1.5000000000000002 2.5980762113533156 -3.0
  endloop
endfacet
facet normal 0.0 0.0 -1.0
  outer loop
    vertex 1.5000000000000002 2.5980762113533156 -3.0
    vertex 1.5529142706151258 5.79555495773441 -3.0
    vertex 2.1213203435596424 2.121320343559643 -3.0
  endloop
endfacet
facet normal 0.0 0.0 -1.0
  outer loop
    vertex 2.1213203435596424 2.121320343559643 -3.0
    vertex 1.5529142706151258 5.79555495773441 -3.0
    vertex 3.0000000000000004 5.196152422706631 -3.0
  endloop
endfacet
facet normal 0.0 0.0 -1.0
  outer loop
    vertex 2.1213203435596424 2.121320343559643 -3.0
    vertex 3.0000000000000004 5.196152422706631 -3.0
    vertex 2.5980762113533156 1.5 -3.0
  endloop
endfacet
facet normal 0.0 0.0 -1.0
  outer loop
    vertex 2.5980762113533156 1.5 -3.0
    vertex 3.0000000000000004 5.196152422706631 -3.0
    vertex 2.897777478867205 0.7764571353075622 -3.0
  endloop
endfacet
facet normal 0.0 0.0 -1.0
  outer loop
    vertex 2.897777478867205 0.7764571353075622 -3.0
    vertex 3.0000000000000004 5.196152422706631 -3.0
    vertex 3.0 0.0 -3.0
  endloop
endfacet
facet normal 0.0 0.0 -1.0
  outer loop
    vertex -3.0000000000000027 -5.196152422706631 -3.0
    vertex -2.897777478867205 -0.7764571353075611 -3.0
    vertex -1.552914270615129 -5.795554957734409 -3.0
  endloop
endfacet
facet normal 0.0 0.0 -1.0
  outer loop
    vertex -2.897777478867205 -0.7764571353075611 -3.0
    vertex -3.0000000000000027 -5.196152422706631 -3.0
    vertex -3.0 3.67394039744206e-16 -3.0
  endloop
endfacet
facet normal 0.0 0.0 -1.0
  outer loop
    vertex -1.552914270615129 -5.795554957734409 -3.0
    vertex -2.897777478867205 -0.7764571353075611 -3.0
    vertex -2.598076211353316 -1.4999999999999991 -3.0
  endloop
endfacet
facet normal 0.0 0.0 -1.0
  outer loop
    vertex -1.552914270615129 -5.795554957734409 -3.0
    vertex -2.598076211353316 -1.4999999999999991 -3.0
    vertex -2.1213203435596437 -2.1213203435596415 -3.0
  endloop
endfacet
facet normal 0.0 0.0 -1.0
  outer loop
    vertex -1.552914270615129 -5.795554957734409 -3.0
    vertex -2.1213203435596437 -2.1213203435596415 -3.0
    vertex -1.5000000000000013 -2.5980762113533156 -3.0
  endloop
endfacet
facet normal 0.0 0.0 -1.0
  outer loop
    vertex -1.552914270615129 -5.795554957734409 -3.0
    vertex -1.5000000000000013 -2.5980762113533156 -3.0
    vertex -1.1021821192326177e-15 -6.0 -3.0
  endloop
endfacet
facet normal 0.0 0.0 -1.0
  outer loop
    vertex -1.1021821192326177e-15 -6.0 -3.0
    vertex -1.5000000000000013 -2.5980762113533156 -3.0
    vertex -0.7764571353075645 -2.8977774788672046 -3.0
  endloop
endfacet
facet normal 0.0 0.0 -1.0
  outer loop
    vertex -1.1021821192326177e-15 -6.0 -3.0
    vertex -0.7764571353075645 -2.8977774788672046 -3.0
    vertex -5.510910596163089e-16 -3.0 -3.0
  endloop
endfacet
facet normal 0.0 0.0 -1.0
  outer loop
    vertex -1.1021821192326177e-15 -6.0 -3.0
    vertex -5.510910596163089e-16 -3.0 -3.0
    vertex 1.5529142706151216 -5.79555495773441 -3.0
  endloop
endfacet
facet normal 0.0 0.0 -1.0
  outer loop
    vertex 1.5529142706151216 -5.79555495773441 -3.0
    vertex -5.510910596163089e-16 -3.0 -3.0
    vertex 0.7764571353075608 -2.897777478867205 -3.0
  endloop
endfacet
facet normal 0.0 0.0 -1.0
  outer loop
    vertex 1.5529142706151216 -5.79555495773441 -3.0
    vertex 0.7764571353075608 -2.897777478867205 -3.0
    vertex 1.4999999999999978 -2.5980762113533173 -3.0
  endloop
endfacet
facet normal 0.0 0.0 -1.0
  outer loop
    vertex 1.5529142706151216 -5.79555495773441 -3.0
    vertex 1.4999999999999978 -2.5980762113533173 -3.0
    vertex 2.121320343559642 -2.1213203435596433 -3.0
  endloop
endfacet
facet normal 0.0 0.0 -1.0
  outer loop
    vertex 1.5529142706151216 -5.79555495773441 -3.0
    vertex 2.121320343559642 -2.1213203435596433 -3.0
    vertex 2.9999999999999956 -5.196152422706635 -3.0
  endloop
endfacet
facet normal 0.0 0.0 -1.0
  outer loop
    vertex 2.9999999999999956 -5.196152422706635 -3.0
    vertex 2.121320343559642 -2.1213203435596433 -3.0
    vertex 2.598076211353315 -1.5000000000000016 -3.0
  endloop
endfacet
facet normal 0.0 0.0 -1.0
  outer loop
    vertex 2.9999999999999956 -5.196152422706635 -3.0
    vertex 2.598076211353315 -1.5000000000000016 -3.0
    vertex 2.897777478867204 -0.7764571353075648 -3.0
  endloop
endfacet
facet normal 0.0 0.0 -1.0
  outer loop
    vertex 2.9999999999999956 -5.196152422706635 -3.0
    vertex 2.897777478867204 -0.7764571353075648 -3.0
    vertex 3.0 0.0 -3.0
  endloop
endfacet
facet normal 0.0 0.0 -1.0
  outer loop
    vertex 2.9999999999999956 -5.196152422706635 -3.0
    vertex 3.0 0.0 -3.0
    vertex 4.242640687119284 -4.2426406871192865 -3.0
  endloop
endfacet
facet normal 0.0 0.0 -1.0
  outer loop
    vertex 4.242640687119284 -4.2426406871192865 -3.0
    vertex 3.0 0.0 -3.0
    vertex 3.0000000000000004 5.196152422706631 -3.0
  endloop
endfacet
facet normal 0.0 0.0 -1.0
  outer loop
    vertex 4.242640687119284 -4.2426406871192865 -3.0
    vertex 3.0000000000000004 5.196152422706631 -3.0
    vertex 4.242640687119285 4.242640687119286 -3.0
  endloop
endfacet
facet normal 0.0 0.0 -1.0
  outer loop
    vertex 4.242640687119284 -4.2426406871192865 -3.0
    vertex 4.242640687119285 4.242640687119286 -3.0
    vertex 5.19615242270663 -3.000000000000003 -3.0
  endloop
endfacet
facet normal 0.0 0.0 -1.0
  outer loop
    vertex 5.19615242270663 -3.000000000000003 -3.0
    vertex 4.242640687119285 4.242640687119286 -3.0
    vertex 5.196152422706631 3.0 -3.0
  endloop
endfacet
facet normal 0.0 0.0 -1.0
  outer loop
    vertex 5.19615242270663 -3.000000000000003 -3.0
    vertex 5.196152422706631 3.0 -3.0
    vertex 5.795554957734408 -1.5529142706151295 -3.0
  endloop
endfacet
facet normal 0.0 0.0 -1.0
  outer loop
    vertex 5.795554957734408 -1.5529142706151295 -3.0
    vertex 5.196152422706631 3.0 -3.0
    vertex 5.79555495773441 1.5529142706151244 -3.0
  endloop
endfacet
facet normal 0.0 0.0 -1.0
  outer loop
    vertex 5.795554957734408 -1.5529142706151295 -3.0
    vertex 5.79555495773441 1.5529142706151244 -3.0
    vertex 6.0 0.0 -3.0
  endloop
endfacet
facet normal -0.7933533402912357 -0.6087614290087201 2.205051129540434e-18
  outer loop
    vertex -5.196152422706632 -2.9999999999999982 14.0
    vertex -4.242640687119287 -4.242640687119283 -3.0
    vertex -4.242640687119287 -4.242640687119283 14.0
  endloop
endfacet
facet normal -0.7933533402912357 -0.6087614290087201 2.205051129540434e-18
  outer loop
    vertex -4.242640687119287 -4.242640687119283 -3.0
    vertex -5.196152422706632 -2.9999999999999982 14.0
    vertex -5.196152422706632 -2.9999999999999982 -3.0
  endloop
endfacet
facet normal -0.9238795325112868 -0.3826834323650895 -1.0636326740406347e-18
  outer loop
    vertex -5.79555495773441 -1.5529142706151222 14.0
    vertex -5.196152422706632 -2.9999999999999982 -3.0
    vertex -5.196152422706632 -2.9999999999999982 14.0
  endloop
endfacet
facet normal -0.9238795325112868 -0.3826834323650895 -1.0636326740406347e-18
  outer loop
    vertex -5.196152422706632 -2.9999999999999982 -3.0
    vertex -5.79555495773441 -1.5529142706151222 14.0
    vertex -5.79555495773441 -1.5529142706151222 -3.0
  endloop
endfacet
facet normal -0.9914448613738105 -0.13052619222005143 -7.2557059502334955e-19
  outer loop
    vertex -6.0 7.34788079488412e-16 14.0
    vertex -5.79555495773441 -1.5529142706151222 -3.0
    vertex -5.79555495773441 -1.5529142706151222 14.0
  endloop
endfacet
facet normal -0.9914448613738105 -0.13052619222005143 -7.2557059502334955e-19
  outer loop
    vertex -5.79555495773441 -1.5529142706151222 -3.0
    vertex -6.0 7.34788079488412e-16 14.0
    vertex -6.0 7.34788079488412e-16 -3.0
  endloop
endfacet
facet normal -0.9914448613738105 0.13052619222005168 3.2612168139096504e-19
  outer loop
    vertex -5.795554957734409 1.5529142706151262 14.0
    vertex -6.0 7.34788079488412e-16 -3.0
    vertex -6.0 7.34788079488412e-16 14.0
  endloop
endfacet
facet normal -0.9914448613738105 0.13052619222005168 3.2612168139096504e-19
  outer loop
    vertex -6.0 7.34788079488412e-16 -3.0
    vertex -5.795554957734409 1.5529142706151262 14.0
    vertex -5.795554957734409 1.5529142706151262 -3.0
  endloop
endfacet
facet normal -0.9238795325112867 0.38268343236508995 1.0636326740406511e-18
  outer loop
    vertex -5.196152422706631 3.000000000000002 14.0
    vertex -5.795554957734409 1.5529142706151262 -3.0
    vertex -5.795554957734409 1.5529142706151262 14.0
  endloop
endfacet
facet normal -0.9238795325112867 0.38268343236508995 1.0636326740406511e-18
  outer loop
    vertex -5.795554957734409 1.5529142706151262 -3.0
    vertex -5.196152422706631 3.000000000000002 14.0
    vertex -5.196152422706631 3.000000000000002 -3.0
  endloop
endfacet
facet normal -0.793353340291235 0.6087614290087211 1.1270952448482346e-32
  outer loop
    vertex -4.242640687119285 4.242640687119286 14.0
    vertex -5.196152422706631 3.000000000000002 -3.0
    vertex -5.196152422706631 3.000000000000002 14.0
  endloop
endfacet
facet normal -0.793353340291235 0.6087614290087211 1.1270952448482346e-32
  outer loop
    vertex -5.196152422706631 3.000000000000002 -3.0
    vertex -4.242640687119285 4.242640687119286 14.0
    vertex -4.242640687119285 4.242640687119286 -3.0
  endloop
endfacet
facet normal -0.6087614290087202 0.7933533402912357 2.205051129540416e-18
  outer loop
    vertex -4.242640687119285 4.242640687119286 14.0
    vertex -2.9999999999999982 5.196152422706632 -3.0
    vertex -4.242640687119285 4.242640687119286 -3.0
  endloop
endfacet
facet normal -0.6087614290087202 0.7933533402912357 2.205051129540416e-18
  outer loop
    vertex -2.9999999999999982 5.196152422706632 -3.0
    vertex -4.242640687119285 4.242640687119286 14.0
    vertex -2.9999999999999982 5.196152422706632 14.0
  endloop
endfacet
facet normal -0.3826834323650904 0.9238795325112867 1.063632674040657e-18
  outer loop
    vertex -2.9999999999999982 5.196152422706632 14.0
    vertex -1.5529142706151238 5.79555495773441 -3.0
    vertex -2.9999999999999982 5.196152422706632 -3.0
  endloop
endfacet
facet normal -0.3826834323650904 0.9238795325112867 1.063632674040657e-18
  outer loop
    vertex -1.5529142706151238 5.79555495773441 -3.0
    vertex -2.9999999999999982 5.196152422706632 14.0
    vertex -1.5529142706151238 5.79555495773441 14.0
  endloop
endfacet
facet normal -0.13052619222005135 0.9914448613738105 7.255705950233497e-19
  outer loop
    vertex -1.5529142706151238 5.79555495773441 14.0
    vertex 3.6739403974420594e-16 6.0 -3.0
    vertex -1.5529142706151238 5.79555495773441 -3.0
  endloop
endfacet
facet normal -0.13052619222005135 0.9914448613738105 7.255705950233497e-19
  outer loop
    vertex 3.6739403974420594e-16 6.0 -3.0
    vertex -1.5529142706151238 5.79555495773441 14.0
    vertex 3.6739403974420594e-16 6.0 14.0
  endloop
endfacet
facet normal 0.13052619222005168 0.9914448613738105 -0.0
  outer loop
    vertex 3.6739403974420594e-16 6.0 14.0
    vertex 1.5529142706151258 5.79555495773441 -3.0
    vertex 3.6739403974420594e-16 6.0 -3.0
  endloop
endfacet
facet normal 0.13052619222005168 0.9914448613738105 -0.0
  outer loop
    vertex 1.5529142706151258 5.79555495773441 -3.0
    vertex 3.6739403974420594e-16 6.0 14.0
    vertex 1.5529142706151258 5.79555495773441 14.0
  endloop
endfacet
facet normal 0.38268343236509017 0.9238795325112867 1.0636326740406538e-18
  outer loop
    vertex 1.5529142706151258 5.79555495773441 14.0
    vertex 3.0000000000000004 5.196152422706631 -3.0
    vertex 1.5529142706151258 5.79555495773441 -3.0
  endloop
endfacet
facet normal 0.38268343236509017 0.9238795325112867 1.0636326740406538e-18
  outer loop
    vertex 3.0000000000000004 5.196152422706631 -3.0
    vertex 1.5529142706151258 5.79555495773441 14.0
    vertex 3.0000000000000004 5.196152422706631 14.0
  endloop
endfacet
facet normal 0.6087614290087204 0.7933533402912354 2.0324067431190066e-32
  outer loop
    vertex 3.0000000000000004 5.196152422706631 14.0
    vertex 4.242640687119285 4.242640687119286 -3.0
    vertex 3.0000000000000004 5.196152422706631 -3.0
  endloop
endfacet
facet normal 0.6087614290087204 0.7933533402912354 2.0324067431190066e-32
  outer loop
    vertex 4.242640687119285 4.242640687119286 -3.0
    vertex 3.0000000000000004 5.196152422706631 14.0
    vertex 4.242640687119285 4.242640687119286 14.0
  endloop
endfacet
facet normal 0.7933533402912357 0.6087614290087202 -1.878492074747055e-33
  outer loop
    vertex 4.242640687119285 4.242640687119286 -3.0
    vertex 5.196152422706631 3.0 14.0
    vertex 5.196152422706631 3.0 -3.0
  endloop
endfacet
facet normal 0.7933533402912357 0.6087614290087202 -1.878492074747055e-33
  outer loop
    vertex 5.196152422706631 3.0 14.0
    vertex 4.242640687119285 4.242640687119286 -3.0
    vertex 4.242640687119285 4.242640687119286 14.0
  endloop
endfacet
facet normal 0.9238795325112867 0.38268343236509 8.653915960727735e-33
  outer loop
    vertex 5.196152422706631 3.0 -3.0
    vertex 5.79555495773441 1.5529142706151244 14.0
    vertex 5.79555495773441 1.5529142706151244 -3.0
  endloop
endfacet
facet normal 0.9238795325112867 0.38268343236509 8.653915960727735e-33
  outer loop
    vertex 5.79555495773441 1.5529142706151244 14.0
    vertex 5.196152422706631 3.0 -3.0
    vertex 5.196152422706631 3.0 14.0
  endloop
endfacet
facet normal 0.9914448613738105 0.13052619222005135 3.627852975116656e-19
  outer loop
    vertex 5.79555495773441 1.5529142706151244 -3.0
    vertex 6.0 0.0 14.0
    vertex 6.0 0.0 -3.0
  endloop
endfacet
facet normal 0.9914448613738105 0.13052619222005135 3.627852975116656e-19
  outer loop
    vertex 6.0 0.0 14.0
    vertex 5.79555495773441 1.5529142706151244 -3.0
    vertex 5.79555495773441 1.5529142706151244 14.0
  endloop
endfacet
facet normal 0.9914448613738105 -0.1305261922200518 3.2612168139095874e-19
  outer loop
    vertex 6.0 0.0 -3.0
    vertex 5.795554957734408 -1.5529142706151295 14.0
    vertex 5.795554957734408 -1.5529142706151295 -3.0
  endloop
endfacet
facet normal 0.9914448613738105 -0.1305261922200518 3.2612168139095874e-19
  outer loop
    vertex 5.795554957734408 -1.5529142706151295 14.0
    vertex 6.0 0.0 -3.0
    vertex 6.0 0.0 14.0
  endloop
endfacet
facet normal 0.9238795325112865 -0.38268343236509045 -1.0636326740406316e-18
  outer loop
    vertex 5.795554957734408 -1.5529142706151295 -3.0
    vertex 5.19615242270663 -3.000000000000003 14.0
    vertex 5.19615242270663 -3.000000000000003 -3.0
  endloop
endfacet
facet normal 0.9238795325112865 -0.38268343236509045 -1.0636326740406316e-18
  outer loop
    vertex 5.19615242270663 -3.000000000000003 14.0
    vertex 5.795554957734408 -1.5529142706151295 -3.0
    vertex 5.795554957734408 -1.5529142706151295 14.0
  endloop
endfacet
facet normal 0.7933533402912349 -0.6087614290087209 -3.756984149494114e-33
  outer loop
    vertex 5.19615242270663 -3.000000000000003 -3.0
    vertex 4.242640687119284 -4.2426406871192865 14.0
    vertex 4.242640687119284 -4.2426406871192865 -3.0
  endloop
endfacet
facet normal 0.7933533402912349 -0.6087614290087209 -3.756984149494114e-33
  outer loop
    vertex 4.242640687119284 -4.2426406871192865 14.0
    vertex 5.19615242270663 -3.000000000000003 -3.0
    vertex 5.19615242270663 -3.000000000000003 14.0
  endloop
endfacet
facet normal 0.6087614290087201 -0.7933533402912355 -1.6919952415698435e-18
  outer loop
    vertex 4.242640687119284 -4.2426406871192865 14.0
    vertex 2.9999999999999956 -5.196152422706635 -3.0
    vertex 4.242640687119284 -4.2426406871192865 -3.0
  endloop
endfacet
facet normal 0.6087614290087201 -0.7933533402912355 -1.6919952415698435e-18
  outer loop
    vertex 2.9999999999999956 -5.196152422706635 -3.0
    vertex 4.242640687119284 -4.2426406871192865 14.0
    vertex 2.9999999999999956 -5.196152422706635 14.0
  endloop
endfacet
facet normal 0.38268343236508917 -0.9238795325112871 1.0636326740406459e-18
  outer loop
    vertex 2.9999999999999956 -5.196152422706635 14.0
    vertex 1.5529142706151216 -5.79555495773441 -3.0
    vertex 2.9999999999999956 -5.196152422706635 -3.0
  endloop
endfacet
facet normal 0.38268343236508917 -0.9238795325112871 1.0636326740406459e-18
  outer loop
    vertex 1.5529142706151216 -5.79555495773441 -3.0
    vertex 2.9999999999999956 -5.196152422706635 14.0
    vertex 1.5529142706151216 -5.79555495773441 14.0
  endloop
endfacet
facet normal 0.13052619222005143 -0.9914448613738105 6.588624473762983e-33
  outer loop
    vertex 1.5529142706151216 -5.79555495773441 14.0
    vertex -1.1021821192326177e-15 -6.0 -3.0
    vertex 1.5529142706151216 -5.79555495773441 -3.0
  endloop
endfacet
facet normal 0.13052619222005143 -0.9914448613738105 6.588624473762983e-33
  outer loop
    vertex -1.1021821192326177e-15 -6.0 -3.0
    vertex 1.5529142706151216 -5.79555495773441 14.0
    vertex -1.1021821192326177e-15 -6.0 14.0
  endloop
endfacet
facet normal -0.13052619222005188 -0.9914448613738105 -1.0516922764143041e-18
  outer loop
    vertex -1.1021821192326177e-15 -6.0 14.0
    vertex -1.552914270615129 -5.795554957734409 -3.0
    vertex -1.1021821192326177e-15 -6.0 -3.0
  endloop
endfacet
facet normal -0.13052619222005188 -0.9914448613738105 -1.0516922764143041e-18
  outer loop
    vertex -1.552914270615129 -5.795554957734409 -3.0
    vertex -1.1021821192326177e-15 -6.0 14.0
    vertex -1.552914270615129 -5.795554957734409 14.0
  endloop
endfacet
facet normal -0.38268343236509045 -0.9238795325112865 -1.063632674040644e-18
  outer loop
    vertex -1.552914270615129 -5.795554957734409 14.0
    vertex -3.0000000000000027 -5.196152422706631 -3.0
    vertex -1.552914270615129 -5.795554957734409 -3.0
  endloop
endfacet
facet normal -0.38268343236509045 -0.9238795325112865 -1.063632674040644e-18
  outer loop
    vertex -3.0000000000000027 -5.196152422706631 -3.0
    vertex -1.552914270615129 -5.795554957734409 14.0
    vertex -3.0000000000000027 -5.196152422706631 14.0
  endloop
endfacet
facet normal -0.6087614290087213 -0.7933533402912347 -5.130558879705738e-19
  outer loop
    vertex -3.0000000000000027 -5.196152422706631 14.0
    vertex -4.242640687119287 -4.242640687119283 -3.0
    vertex -3.0000000000000027 -5.196152422706631 -3.0
  endloop
endfacet
facet normal -0.6087614290087213 -0.7933533402912347 -5.130558879705738e-19
  outer loop
    vertex -4.242640687119287 -4.242640687119283 -3.0
    vertex -3.0000000000000027 -5.196152422706631 14.0
    vertex -4.242640687119287 -4.242640687119283 14.0
  endloop
endfacet
facet normal 0.0 0.0 1.0
  outer loop
    vertex -3.0000000000000027 -5.196152422706631 14.0
    vertex -2.8977774788672046 -0.776457135307563 14.0
    vertex -3.0 -3.6739403974420594e-16 14.0
  endloop
endfacet
facet normal 0.0 0.0 1.0
  outer loop
    vertex -2.8977774788672046 -0.776457135307563 14.0
    vertex -3.0000000000000027 -5.196152422706631 14.0
    vertex -1.552914270615129 -5.795554957734409 14.0
  endloop
endfacet
facet normal 0.0 0.0 1.0
  outer loop
    vertex -2.8977774788672046 -0.776457135307563 14.0
    vertex -1.552914270615129 -5.795554957734409 14.0
    vertex -2.5980762113533156 -1.5000000000000009 14.0
  endloop
endfacet
facet normal 0.0 0.0 1.0
  outer loop
    vertex -2.5980762113533156 -1.5000000000000009 14.0
    vertex -1.552914270615129 -5.795554957734409 14.0
    vertex -2.1213203435596424 -2.1213203435596424 14.0
  endloop
endfacet
facet normal 0.0 0.0 1.0
  outer loop
    vertex -2.1213203435596424 -2.1213203435596424 14.0
    vertex -1.552914270615129 -5.795554957734409 14.0
    vertex -1.4999999999999991 -2.598076211353316 14.0
  endloop
endfacet
facet normal 0.0 0.0 1.0
  outer loop
    vertex -1.4999999999999991 -2.598076211353316 14.0
    vertex -1.552914270615129 -5.795554957734409 14.0
    vertex -1.1021821192326177e-15 -6.0 14.0
  endloop
endfacet
facet normal 0.0 0.0 1.0
  outer loop
    vertex -1.4999999999999991 -2.598076211353316 14.0
    vertex -1.1021821192326177e-15 -6.0 14.0
    vertex -0.7764571353075619 -2.897777478867205 14.0
  endloop
endfacet
facet normal 0.0 0.0 1.0
  outer loop
    vertex -0.7764571353075619 -2.897777478867205 14.0
    vertex -1.1021821192326177e-15 -6.0 14.0
    vertex 1.8369701987210297e-16 -3.0 14.0
  endloop
endfacet
facet normal 0.0 0.0 1.0
  outer loop
    vertex 1.8369701987210297e-16 -3.0 14.0
    vertex -1.1021821192326177e-15 -6.0 14.0
    vertex 1.5529142706151216 -5.79555495773441 14.0
  endloop
endfacet
facet normal 0.0 0.0 1.0
  outer loop
    vertex 1.8369701987210297e-16 -3.0 14.0
    vertex 1.5529142706151216 -5.79555495773441 14.0
    vertex 0.7764571353075629 -2.8977774788672046 14.0
  endloop
endfacet
facet normal 0.0 0.0 1.0
  outer loop
    vertex 0.7764571353075629 -2.8977774788672046 14.0
    vertex 1.5529142706151216 -5.79555495773441 14.0
    vertex 1.5000000000000002 -2.5980762113533156 14.0
  endloop
endfacet
facet normal 0.0 0.0 1.0
  outer loop
    vertex 1.5000000000000002 -2.5980762113533156 14.0
    vertex 1.5529142706151216 -5.79555495773441 14.0
    vertex 2.1213203435596424 -2.1213203435596424 14.0
  endloop
endfacet
facet normal 0.0 0.0 1.0
  outer loop
    vertex 2.1213203435596424 -2.1213203435596424 14.0
    vertex 1.5529142706151216 -5.79555495773441 14.0
    vertex 2.9999999999999956 -5.196152422706635 14.0
  endloop
endfacet
facet normal 0.0 0.0 1.0
  outer loop
    vertex 2.1213203435596424 -2.1213203435596424 14.0
    vertex 2.9999999999999956 -5.196152422706635 14.0
    vertex 2.598076211353316 -1.4999999999999998 14.0
  endloop
endfacet
facet normal 0.0 0.0 1.0
  outer loop
    vertex 2.598076211353316 -1.4999999999999998 14.0
    vertex 2.9999999999999956 -5.196152422706635 14.0
    vertex 2.897777478867205 -0.7764571353075621 14.0
  endloop
endfacet
facet normal 0.0 0.0 1.0
  outer loop
    vertex 2.897777478867205 -0.7764571353075621 14.0
    vertex 2.9999999999999956 -5.196152422706635 14.0
    vertex 3.0 0.0 14.0
  endloop
endfacet
facet normal 0.0 0.0 1.0
  outer loop
    vertex 3.0 0.0 14.0
    vertex 2.9999999999999956 -5.196152422706635 14.0
    vertex 4.242640687119284 -4.2426406871192865 14.0
  endloop
endfacet
facet normal 0.0 0.0 1.0
  outer loop
    vertex 3.0 0.0 14.0
    vertex 4.242640687119284 -4.2426406871192865 14.0
    vertex 3.0000000000000004 5.196152422706631 14.0
  endloop
endfacet
facet normal 0.0 0.0 1.0
  outer loop
    vertex 3.0000000000000004 5.196152422706631 14.0
    vertex 4.242640687119284 -4.2426406871192865 14.0
    vertex 4.242640687119285 4.242640687119286 14.0
  endloop
endfacet
facet normal 0.0 0.0 1.0
  outer loop
    vertex 4.242640687119285 4.242640687119286 14.0
    vertex 4.242640687119284 -4.2426406871192865 14.0
    vertex 5.19615242270663 -3.000000000000003 14.0
  endloop
endfacet
facet normal 0.0 0.0 1.0
  outer loop
    vertex 4.242640687119285 4.242640687119286 14.0
    vertex 5.19615242270663 -3.000000000000003 14.0
    vertex 5.196152422706631 3.0 14.0
  endloop
endfacet
facet normal 0.0 0.0 1.0
  outer loop
    vertex 5.196152422706631 3.0 14.0
    vertex 5.19615242270663 -3.000000000000003 14.0
    vertex 5.795554957734408 -1.5529142706151295 14.0
  endloop
endfacet
facet normal 0.0 0.0 1.0
  outer loop
    vertex 5.196152422706631 3.0 14.0
    vertex 5.795554957734408 -1.5529142706151295 14.0
    vertex 5.79555495773441 1.5529142706151244 14.0
  endloop
endfacet
facet normal 0.0 0.0 1.0
  outer loop
    vertex 5.79555495773441 1.5529142706151244 14.0
    vertex 5.795554957734408 -1.5529142706151295 14.0
    vertex 6.0 0.0 14.0
  endloop
endfacet
facet normal 0.0 0.0 1.0
  outer loop
    vertex -5.79555495773441 -1.5529142706151222 14.0
    vertex -5.795554957734409 1.5529142706151262 14.0
    vertex -6.0 7.34788079488412e-16 14.0
  endloop
endfacet
facet normal 0.0 0.0 1.0
  outer loop
    vertex -5.795554957734409 1.5529142706151262 14.0
    vertex -5.79555495773441 -1.5529142706151222 14.0
    vertex -5.196152422706632 -2.9999999999999982 14.0
  endloop
endfacet
facet normal 0.0 0.0 1.0
  outer loop
    vertex -5.795554957734409 1.5529142706151262 14.0
    vertex -5.196152422706632 -2.9999999999999982 14.0
    vertex -5.196152422706631 3.000000000000002 14.0
  endloop
endfacet
facet normal 0.0 0.0 1.0
  outer loop
    vertex -5.196152422706631 3.000000000000002 14.0
    vertex -5.196152422706632 -2.9999999999999982 14.0
    vertex -4.242640687119287 -4.242640687119283 14.0
  endloop
endfacet
facet normal 0.0 0.0 1.0
  outer loop
    vertex -5.196152422706631 3.000000000000002 14.0
    vertex -4.242640687119287 -4.242640687119283 14.0
    vertex -4.242640687119285 4.242640687119286 14.0
  endloop
endfacet
facet normal 0.0 0.0 1.0
  outer loop
    vertex -4.242640687119285 4.242640687119286 14.0
    vertex -4.242640687119287 -4.242640687119283 14.0
    vertex -3.0000000000000027 -5.196152422706631 14.0
  endloop
endfacet
facet normal 0.0 0.0 1.0
  outer loop
    vertex -4.242640687119285 4.242640687119286 14.0
    vertex -3.0000000000000027 -5.196152422706631 14.0
    vertex -2.9999999999999982 5.196152422706632 14.0
  endloop
endfacet
facet normal 0.0 0.0 1.0
  outer loop
    vertex -2.9999999999999982 5.196152422706632 14.0
    vertex -3.0000000000000027 -5.196152422706631 14.0
    vertex -3.0 -3.6739403974420594e-16 14.0
  endloop
endfacet
facet normal 0.0 0.0 1.0
  outer loop
    vertex -2.9999999999999982 5.196152422706632 14.0
    vertex -3.0 -3.6739403974420594e-16 14.0
    vertex -2.897777478867205 0.776457135307561 14.0
  endloop
endfacet
facet normal 0.0 0.0 1.0
  outer loop
    vertex -2.9999999999999982 5.196152422706632 14.0
    vertex -2.897777478867205 0.776457135307561 14.0
    vertex -1.5529142706151238 5.79555495773441 14.0
  endloop
endfacet
facet normal 0.0 0.0 1.0
  outer loop
    vertex -1.5529142706151238 5.79555495773441 14.0
    vertex -2.897777478867205 0.776457135307561 14.0
    vertex -2.598076211353316 1.4999999999999991 14.0
  endloop
endfacet
facet normal 0.0 0.0 1.0
  outer loop
    vertex -1.5529142706151238 5.79555495773441 14.0
    vertex -2.598076211353316 1.4999999999999991 14.0
    vertex -2.1213203435596437 2.121320343559641 14.0
  endloop
endfacet
facet normal 0.0 0.0 1.0
  outer loop
    vertex -1.5529142706151238 5.79555495773441 14.0
    vertex -2.1213203435596437 2.121320343559641 14.0
    vertex -1.5000000000000013 2.598076211353315 14.0
  endloop
endfacet
facet normal 0.0 0.0 1.0
  outer loop
    vertex -1.5529142706151238 5.79555495773441 14.0
    vertex -1.5000000000000013 2.598076211353315 14.0
    vertex 3.6739403974420594e-16 6.0 14.0
  endloop
endfacet
facet normal 0.0 0.0 1.0
  outer loop
    vertex 3.6739403974420594e-16 6.0 14.0
    vertex -1.5000000000000013 2.598076211353315 14.0
    vertex -0.7764571353075645 2.897777478867204 14.0
  endloop
endfacet
facet normal 0.0 0.0 1.0
  outer loop
    vertex 3.6739403974420594e-16 6.0 14.0
    vertex -0.7764571353075645 2.897777478867204 14.0
    vertex -5.510910596163089e-16 3.0 14.0
  endloop
endfacet
facet normal 0.0 0.0 1.0
  outer loop
    vertex 3.6739403974420594e-16 6.0 14.0
    vertex -5.510910596163089e-16 3.0 14.0
    vertex 0.7764571353075608 2.897777478867205 14.0
  endloop
endfacet
facet normal 0.0 0.0 1.0
  outer loop
    vertex 3.6739403974420594e-16 6.0 14.0
    vertex 0.7764571353075608 2.897777478867205 14.0
    vertex 1.5529142706151258 5.79555495773441 14.0
  endloop
endfacet
facet normal 0.0 0.0 1.0
  outer loop
    vertex 1.5529142706151258 5.79555495773441 14.0
    vertex 0.7764571353075608 2.897777478867205 14.0
    vertex 1.4999999999999978 2.598076211353317 14.0
  endloop
endfacet
facet normal 0.0 0.0 1.0
  outer loop
    vertex 1.5529142706151258 5.79555495773441 14.0
    vertex 1.4999999999999978 2.598076211353317 14.0
    vertex 2.121320343559642 2.121320343559643 14.0
  endloop
endfacet
facet normal 0.0 0.0 1.0
  outer loop
    vertex 1.5529142706151258 5.79555495773441 14.0
    vertex 2.121320343559642 2.121320343559643 14.0
    vertex 3.0000000000000004 5.196152422706631 14.0
  endloop
endfacet
facet normal 0.0 0.0 1.0
  outer loop
    vertex 3.0000000000000004 5.196152422706631 14.0
    vertex 2.121320343559642 2.121320343559643 14.0
    vertex 2.598076211353315 1.5000000000000013 14.0
  endloop
endfacet
facet normal 0.0 0.0 1.0
  outer loop
    vertex 3.0000000000000004 5.196152422706631 14.0
    vertex 2.598076211353315 1.5000000000000013 14.0
    vertex 2.897777478867204 0.7764571353075647 14.0
  endloop
endfacet
facet normal 0.0 0.0 1.0
  outer loop
    vertex 3.0000000000000004 5.196152422706631 14.0
    vertex 2.897777478867204 0.7764571353075647 14.0
    vertex 3.0 0.0 14.0
  endloop
endfacet
facet normal 0.0 0.0 -1.0
  outer loop
    vertex -0.7764571353075619 2.897777478867205 5.0
    vertex -0.9999999999999998 -1.224646799147353e-16 5.000000000000011
    vertex -1.4999999999999991 2.598076211353316 5.0
  endloop
endfacet
facet normal 0.0 0.0 -1.0
  outer loop
    vertex -0.9999999999999998 -1.224646799147353e-16 5.000000000000011
    vertex -0.7764571353075619 2.897777478867205 5.0
    vertex -0.9659258262890682 0.25881904510252035 5.000000000000011
  endloop
endfacet
facet normal 0.0 0.0 -1.0
  outer loop
    vertex -0.9659258262890682 0.25881904510252035 5.000000000000011
    vertex -0.7764571353075619 2.897777478867205 5.0
    vertex -0.8660254037844386 0.4999999999999997 5.000000000000011
  endloop
endfacet
facet normal 0.0 0.0 -1.0
  outer loop
    vertex -0.8660254037844386 0.4999999999999997 5.000000000000011
    vertex -0.7764571353075619 2.897777478867205 5.0
    vertex -0.7071067811865478 0.7071067811865471 5.000000000000011
  endloop
endfacet
facet normal 0.0 0.0 -1.0
  outer loop
    vertex -0.7071067811865478 0.7071067811865471 5.000000000000011
    vertex -0.7764571353075619 2.897777478867205 5.0
    vertex 1.8369701987210297e-16 3.0 5.0
  endloop
endfacet
facet normal 0.0 0.0 -1.0
  outer loop
    vertex -0.7071067811865478 0.7071067811865471 5.000000000000011
    vertex 1.8369701987210297e-16 3.0 5.0
    vertex -0.5000000000000003 0.8660254037844383 5.000000000000011
  endloop
endfacet
facet normal 0.0 0.0 -1.0
  outer loop
    vertex -0.5000000000000003 0.8660254037844383 5.000000000000011
    vertex 1.8369701987210297e-16 3.0 5.0
    vertex -0.25881904510252146 0.965925826289068 5.000000000000011
  endloop
endfacet
facet normal 0.0 0.0 -1.0
  outer loop
    vertex -0.25881904510252146 0.965925826289068 5.000000000000011
    vertex 1.8369701987210297e-16 3.0 5.0
    vertex -1.8369701987210292e-16 0.9999999999999999 5.000000000000011
  endloop
endfacet
facet normal 0.0 0.0 -1.0
  outer loop
    vertex -1.8369701987210292e-16 0.9999999999999999 5.000000000000011
    vertex 1.8369701987210297e-16 3.0 5.0
    vertex 0.25881904510252024 0.9659258262890683 5.000000000000011
  endloop
endfacet
facet normal 0.0 0.0 -1.0
  outer loop
    vertex 0.25881904510252024 0.9659258262890683 5.000000000000011
    vertex 1.8369701987210297e-16 3.0 5.0
    vertex 0.7764571353075629 2.897777478867205 5.0
  endloop
endfacet
facet normal 0.0 0.0 -1.0
  outer loop
    vertex 0.25881904510252024 0.9659258262890683 5.000000000000011
    vertex 0.7764571353075629 2.897777478867205 5.0
    vertex 0.49999999999999917 0.866025403784439 5.000000000000011
  endloop
endfacet
facet normal 0.0 0.0 -1.0
  outer loop
    vertex 0.49999999999999917 0.866025403784439 5.000000000000011
    vertex 0.7764571353075629 2.897777478867205 5.0
    vertex 0.7071067811865471 0.7071067811865476 5.000000000000011
  endloop
endfacet
facet normal 0.0 0.0 -1.0
  outer loop
    vertex 0.7071067811865471 0.7071067811865476 5.000000000000011
    vertex 0.7764571353075629 2.897777478867205 5.0
    vertex 0.8660254037844382 0.5000000000000004 5.000000000000011
  endloop
endfacet
facet normal 0.0 0.0 -1.0
  outer loop
    vertex 0.8660254037844382 0.5000000000000004 5.000000000000011
    vertex 0.7764571353075629 2.897777478867205 5.0
    vertex 1.5000000000000002 2.5980762113533156 5.0
  endloop
endfacet
facet normal 0.0 0.0 -1.0
  outer loop
    vertex 0.8660254037844382 0.5000000000000004 5.000000000000011
    vertex 1.5000000000000002 2.5980762113533156 5.0
    vertex 0.9659258262890679 0.2588190451025215 5.000000000000011
  endloop
endfacet
facet normal 0.0 0.0 -1.0
  outer loop
    vertex 0.9659258262890679 0.2588190451025215 5.000000000000011
    vertex 1.5000000000000002 2.5980762113533156 5.0
    vertex 0.9999999999999998 0.0 5.000000000000011
  endloop
endfacet
facet normal 0.0 0.0 -1.0
  outer loop
    vertex 0.9999999999999998 0.0 5.000000000000011
    vertex 1.5000000000000002 2.5980762113533156 5.0
    vertex 1.4999999999999978 -2.5980762113533173 5.0
  endloop
endfacet
facet normal 0.0 0.0 -1.0
  outer loop
    vertex 1.4999999999999978 -2.5980762113533173 5.0
    vertex 1.5000000000000002 2.5980762113533156 5.0
    vertex 2.121320343559642 -2.1213203435596433 5.0
  endloop
endfacet
facet normal 0.0 0.0 -1.0
  outer loop
    vertex 2.121320343559642 -2.1213203435596433 5.0
    vertex 1.5000000000000002 2.5980762113533156 5.0
    vertex 2.1213203435596424 2.121320343559643 5.0
  endloop
endfacet
facet normal 0.0 0.0 -1.0
  outer loop
    vertex 2.121320343559642 -2.1213203435596433 5.0
    vertex 2.1213203435596424 2.121320343559643 5.0
    vertex 2.598076211353315 -1.5000000000000016 5.0
  endloop
endfacet
facet normal 0.0 0.0 -1.0
  outer loop
    vertex 2.598076211353315 -1.5000000000000016 5.0
    vertex 2.1213203435596424 2.121320343559643 5.0
    vertex 2.5980762113533156 1.5 5.0
  endloop
endfacet
facet normal 0.0 0.0 -1.0
  outer loop
    vertex 2.598076211353315 -1.5000000000000016 5.0
    vertex 2.5980762113533156 1.5 5.0
    vertex 2.897777478867204 -0.7764571353075648 5.0
  endloop
endfacet
facet normal 0.0 0.0 -1.0
  outer loop
    vertex 2.897777478867204 -0.7764571353075648 5.0
    vertex 2.5980762113533156 1.5 5.0
    vertex 2.897777478867205 0.7764571353075622 5.0
  endloop
endfacet
facet normal 0.0 0.0 -1.0
  outer loop
    vertex 2.897777478867204 -0.7764571353075648 5.0
    vertex 2.897777478867205 0.7764571353075622 5.0
    vertex 3.0 0.0 5.0
  endloop
endfacet
facet normal 0.0 0.0 -1.0
  outer loop
    vertex -2.8977774788672046 0.7764571353075631 5.0
    vertex -2.897777478867205 -0.7764571353075611 5.0
    vertex -3.0 3.67394039744206e-16 5.0
  endloop
endfacet
facet normal 0.0 0.0 -1.0
  outer loop
    vertex -2.897777478867205 -0.7764571353075611 5.0
    vertex -2.8977774788672046 0.7764571353075631 5.0
    vertex -2.598076211353316 -1.4999999999999991 5.0
  endloop
endfacet
facet normal 0.0 0.0 -1.0
  outer loop
    vertex -2.598076211353316 -1.4999999999999991 5.0
    vertex -2.8977774788672046 0.7764571353075631 5.0
    vertex -2.5980762113533156 1.500000000000001 5.0
  endloop
endfacet
facet normal 0.0 0.0 -1.0
  outer loop
    vertex -2.598076211353316 -1.4999999999999991 5.0
    vertex -2.5980762113533156 1.500000000000001 5.0
    vertex -2.1213203435596437 -2.1213203435596415 5.0
  endloop
endfacet
facet normal 0.0 0.0 -1.0
  outer loop
    vertex -2.1213203435596437 -2.1213203435596415 5.0
    vertex -2.5980762113533156 1.500000000000001 5.0
    vertex -2.1213203435596424 2.121320343559643 5.0
  endloop
endfacet
facet normal 0.0 0.0 -1.0
  outer loop
    vertex -2.1213203435596437 -2.1213203435596415 5.0
    vertex -2.1213203435596424 2.121320343559643 5.0
    vertex -1.5000000000000013 -2.5980762113533156 5.0
  endloop
endfacet
facet normal 0.0 0.0 -1.0
  outer loop
    vertex -1.5000000000000013 -2.5980762113533156 5.0
    vertex -2.1213203435596424 2.121320343559643 5.0
    vertex -1.4999999999999991 2.598076211353316 5.0
  endloop
endfacet
facet normal 0.0 0.0 -1.0
  outer loop
    vertex -1.5000000000000013 -2.5980762113533156 5.0
    vertex -1.4999999999999991 2.598076211353316 5.0
    vertex -0.7764571353075645 -2.8977774788672046 5.0
  endloop
endfacet
facet normal 0.0 0.0 -1.0
  outer loop
    vertex -0.7764571353075645 -2.8977774788672046 5.0
    vertex -1.4999999999999991 2.598076211353316 5.0
    vertex -0.9999999999999998 -1.224646799147353e-16 5.000000000000011
  endloop
endfacet
facet normal 0.0 0.0 -1.0
  outer loop
    vertex -0.7764571353075645 -2.8977774788672046 5.0
    vertex -0.9999999999999998 -1.224646799147353e-16 5.000000000000011
    vertex -0.965925826289068 -0.258819045102521 5.000000000000011
  endloop
endfacet
facet normal 0.0 0.0 -1.0
  outer loop
    vertex -0.7764571353075645 -2.8977774788672046 5.0
    vertex -0.965925826289068 -0.258819045102521 5.000000000000011
    vertex -0.8660254037844383 -0.5000000000000003 5.000000000000011
  endloop
endfacet
facet normal 0.0 0.0 -1.0
  outer loop
    vertex -0.7764571353075645 -2.8977774788672046 5.0
    vertex -0.8660254037844383 -0.5000000000000003 5.000000000000011
    vertex -0.7071067811865474 -0.7071067811865476 5.000000000000011
  endloop
endfacet
facet normal 0.0 0.0 -1.0
  outer loop
    vertex -0.7764571353075645 -2.8977774788672046 5.0
    vertex -0.7071067811865474 -0.7071067811865476 5.000000000000011
    vertex -5.510910596163089e-16 -3.0 5.0
  endloop
endfacet
facet normal 0.0 0.0 -1.0
  outer loop
    vertex -5.510910596163089e-16 -3.0 5.0
    vertex -0.7071067811865474 -0.7071067811865476 5.000000000000011
    vertex -0.4999999999999996 -0.8660254037844386 5.000000000000011
  endloop
endfacet
facet normal 0.0 0.0 -1.0
  outer loop
    vertex -5.510910596163089e-16 -3.0 5.0
    vertex -0.4999999999999996 -0.8660254037844386 5.000000000000011
    vertex -0.2588190451025206 -0.9659258262890682 5.000000000000011
  endloop
endfacet
facet normal 0.0 0.0 -1.0
  outer loop
    vertex -5.510910596163089e-16 -3.0 5.0
    vertex -0.2588190451025206 -0.9659258262890682 5.000000000000011
    vertex 6.123233995736765e-17 -0.9999999999999999 5.000000000000011
  endloop
endfacet
facet normal 0.0 0.0 -1.0
  outer loop
    vertex -5.510910596163089e-16 -3.0 5.0
    vertex 6.123233995736765e-17 -0.9999999999999999 5.000000000000011
    vertex 0.7764571353075608 -2.897777478867205 5.0
  endloop
endfacet
facet normal 0.0 0.0 -1.0
  outer loop
    vertex 0.7764571353075608 -2.897777478867205 5.0
    vertex 6.123233995736765e-17 -0.9999999999999999 5.000000000000011
    vertex 0.2588190451025209 -0.9659258262890682 5.000000000000011
  endloop
endfacet
facet normal 0.0 0.0 -1.0
  outer loop
    vertex 0.7764571353075608 -2.897777478867205 5.0
    vertex 0.2588190451025209 -0.9659258262890682 5.000000000000011
    vertex 0.49999999999999994 -0.8660254037844385 5.000000000000011
  endloop
endfacet
facet normal 0.0 0.0 -1.0
  outer loop
    vertex 0.7764571353075608 -2.897777478867205 5.0
    vertex 0.49999999999999994 -0.8660254037844385 5.000000000000011
    vertex 0.7071067811865475 -0.7071067811865476 5.000000000000011
  endloop
endfacet
facet normal 0.0 0.0 -1.0
  outer loop
    vertex 0.7764571353075608 -2.897777478867205 5.0
    vertex 0.7071067811865475 -0.7071067811865476 5.000000000000011
    vertex 0.8660254037844385 -0.4999999999999999 5.000000000000011
  endloop
endfacet
facet normal 0.0 0.0 -1.0
  outer loop
    vertex 0.7764571353075608 -2.897777478867205 5.0
    vertex 0.8660254037844385 -0.4999999999999999 5.000000000000011
    vertex 1.4999999999999978 -2.5980762113533173 5.0
  endloop
endfacet
facet normal 0.0 0.0 -1.0
  outer loop
    vertex 1.4999999999999978 -2.5980762113533173 5.0
    vertex 0.8660254037844385 -0.4999999999999999 5.000000000000011
    vertex 0.965925826289068 -0.25881904510252074 5.000000000000011
  endloop
endfacet
facet normal 0.0 0.0 -1.0
  outer loop
    vertex 1.4999999999999978 -2.5980762113533173 5.0
    vertex 0.965925826289068 -0.25881904510252074 5.000000000000011
    vertex 0.9999999999999998 0.0 5.000000000000011
  endloop
endfacet
facet normal 0.9238795325112868 0.38268343236508945 0.0
  outer loop
    vertex -2.897777478867205 -0.7764571353075611 -3.0
    vertex -2.598076211353316 -1.4999999999999991 5.0
    vertex -2.598076211353316 -1.4999999999999991 -3.0
  endloop
endfacet
facet normal 0.9238795325112868 0.38268343236508945 0.0
  outer loop
    vertex -2.598076211353316 -1.4999999999999991 5.0
    vertex -2.897777478867205 -0.7764571353075611 -3.0
    vertex -2.897777478867205 -0.7764571353075611 5.0
  endloop
endfacet
facet normal 0.9914448613738106 0.13052619222005146 0.0
  outer loop
    vertex -3.0 3.67394039744206e-16 -3.0
    vertex -2.897777478867205 -0.7764571353075611 5.0
    vertex -2.897777478867205 -0.7764571353075611 -3.0
  endloop
endfacet
facet normal 0.9914448613738106 0.13052619222005146 0.0
  outer loop
    vertex -2.897777478867205 -0.7764571353075611 5.0
    vertex -3.0 3.67394039744206e-16 -3.0
    vertex -3.0 3.67394039744206e-16 5.0
  endloop
endfacet
facet normal 0.9914448613738104 -0.13052619222005166 -0.0
  outer loop
    vertex -2.8977774788672046 0.7764571353075631 -3.0
    vertex -3.0 3.67394039744206e-16 5.0
    vertex -3.0 3.67394039744206e-16 -3.0
  endloop
endfacet
facet normal 0.9914448613738104 -0.13052619222005166 -0.0
  outer loop
    vertex -3.0 3.67394039744206e-16 5.0
    vertex -2.8977774788672046 0.7764571353075631 -3.0
    vertex -2.8977774788672046 0.7764571353075631 5.0
  endloop
endfacet
facet normal 0.9238795325112867 -0.3826834323650899 -0.0
  outer loop
    vertex -2.5980762113533156 1.500000000000001 -3.0
    vertex -2.8977774788672046 0.7764571353075631 5.0
    vertex -2.8977774788672046 0.7764571353075631 -3.0
  endloop
endfacet
facet normal 0.9238795325112867 -0.3826834323650899 -0.0
  outer loop
    vertex -2.8977774788672046 0.7764571353075631 5.0
    vertex -2.5980762113533156 1.500000000000001 -3.0
    vertex -2.5980762113533156 1.500000000000001 5.0
  endloop
endfacet
facet normal 0.793353340291235 -0.608761429008721 -0.0
  outer loop
    vertex -2.1213203435596424 2.121320343559643 -3.0
    vertex -2.5980762113533156 1.500000000000001 5.0
    vertex -2.5980762113533156 1.500000000000001 -3.0
  endloop
endfacet
facet normal 0.793353340291235 -0.608761429008721 -0.0
  outer loop
    vertex -2.5980762113533156 1.500000000000001 5.0
    vertex -2.1213203435596424 2.121320343559643 -3.0
    vertex -2.1213203435596424 2.121320343559643 5.0
  endloop
endfacet
facet normal 0.6087614290087202 -0.7933533402912356 -0.0
  outer loop
    vertex -1.4999999999999991 2.598076211353316 5.0
    vertex -2.1213203435596424 2.121320343559643 -3.0
    vertex -1.4999999999999991 2.598076211353316 -3.0
  endloop
endfacet
facet normal 0.6087614290087202 -0.7933533402912356 -0.0
  outer loop
    vertex -2.1213203435596424 2.121320343559643 -3.0
    vertex -1.4999999999999991 2.598076211353316 5.0
    vertex -2.1213203435596424 2.121320343559643 5.0
  endloop
endfacet
facet normal 0.3826834323650902 -0.9238795325112866 -0.0
  outer loop
    vertex -0.7764571353075619 2.897777478867205 5.0
    vertex -1.4999999999999991 2.598076211353316 -3.0
    vertex -0.7764571353075619 2.897777478867205 -3.0
  endloop
endfacet
facet normal 0.3826834323650902 -0.9238795325112866 -0.0
  outer loop
    vertex -1.4999999999999991 2.598076211353316 -3.0
    vertex -0.7764571353075619 2.897777478867205 5.0
    vertex -1.4999999999999991 2.598076211353316 5.0
  endloop
endfacet
facet normal 0.13052619222005135 -0.9914448613738105 -0.0
  outer loop
    vertex 1.8369701987210297e-16 3.0 5.0
    vertex -0.7764571353075619 2.897777478867205 -3.0
    vertex 1.8369701987210297e-16 3.0 -3.0
  endloop
endfacet
facet normal 0.13052619222005135 -0.9914448613738105 -0.0
  outer loop
    vertex -0.7764571353075619 2.897777478867205 -3.0
    vertex 1.8369701987210297e-16 3.0 5.0
    vertex -0.7764571353075619 2.897777478867205 5.0
  endloop
endfacet
facet normal -0.13052619222005168 -0.9914448613738105 -0.0
  outer loop
    vertex 0.7764571353075629 2.897777478867205 5.0
    vertex 1.8369701987210297e-16 3.0 -3.0
    vertex 0.7764571353075629 2.897777478867205 -3.0
  endloop
endfacet
facet normal -0.13052619222005168 -0.9914448613738105 -0.0
  outer loop
    vertex 1.8369701987210297e-16 3.0 -3.0
    vertex 0.7764571353075629 2.897777478867205 5.0
    vertex 1.8369701987210297e-16 3.0 5.0
  endloop
endfacet
facet normal -0.3826834323650902 -0.9238795325112867 -0.0
  outer loop
    vertex 1.5000000000000002 2.5980762113533156 5.0
    vertex 0.7764571353075629 2.897777478867205 -3.0
    vertex 1.5000000000000002 2.5980762113533156 -3.0
  endloop
endfacet
facet normal -0.3826834323650902 -0.9238795325112867 -0.0
  outer loop
    vertex 0.7764571353075629 2.897777478867205 -3.0
    vertex 1.5000000000000002 2.5980762113533156 5.0
    vertex 0.7764571353075629 2.897777478867205 5.0
  endloop
endfacet
facet normal -0.6087614290087203 -0.7933533402912354 -0.0
  outer loop
    vertex 2.1213203435596424 2.121320343559643 5.0
    vertex 1.5000000000000002 2.5980762113533156 -3.0
    vertex 2.1213203435596424 2.121320343559643 -3.0
  endloop
endfacet
facet normal -0.6087614290087203 -0.7933533402912354 -0.0
  outer loop
    vertex 1.5000000000000002 2.5980762113533156 -3.0
    vertex 2.1213203435596424 2.121320343559643 5.0
    vertex 1.5000000000000002 2.5980762113533156 5.0
  endloop
endfacet
facet normal -0.7933533402912356 -0.6087614290087202 -0.0
  outer loop
    vertex 2.1213203435596424 2.121320343559643 5.0
    vertex 2.5980762113533156 1.5 -3.0
    vertex 2.5980762113533156 1.5 5.0
  endloop
endfacet
facet normal -0.7933533402912356 -0.6087614290087202 -0.0
  outer loop
    vertex 2.5980762113533156 1.5 -3.0
    vertex 2.1213203435596424 2.121320343559643 5.0
    vertex 2.1213203435596424 2.121320343559643 -3.0
  endloop
endfacet
facet normal -0.9238795325112867 -0.38268343236509006 -0.0
  outer loop
    vertex 2.5980762113533156 1.5 5.0
    vertex 2.897777478867205 0.7764571353075622 -3.0
    vertex 2.897777478867205 0.7764571353075622 5.0
  endloop
endfacet
facet normal -0.9238795325112867 -0.38268343236509006 -0.0
  outer loop
    vertex 2.897777478867205 0.7764571353075622 -3.0
    vertex 2.5980762113533156 1.5 5.0
    vertex 2.5980762113533156 1.5 -3.0
  endloop
endfacet
facet normal -0.9914448613738104 -0.1305261922200513 -0.0
  outer loop
    vertex 2.897777478867205 0.7764571353075622 5.0
    vertex 3.0 0.0 -3.0
    vertex 3.0 0.0 5.0
  endloop
endfacet
facet normal -0.9914448613738104 -0.1305261922200513 -0.0
  outer loop
    vertex 3.0 0.0 -3.0
    vertex 2.897777478867205 0.7764571353075622 5.0
    vertex 2.897777478867205 0.7764571353075622 -3.0
  endloop
endfacet
facet normal -0.9914448613738104 0.13052619222005177 -0.0
  outer loop
    vertex 3.0 0.0 5.0
    vertex 2.897777478867204 -0.7764571353075648 -3.0
    vertex 2.897777478867204 -0.7764571353075648 5.0
  endloop
endfacet
facet normal -0.9914448613738104 0.13052619222005177 -0.0
  outer loop
    vertex 2.897777478867204 -0.7764571353075648 -3.0
    vertex 3.0 0.0 5.0
    vertex 3.0 0.0 -3.0
  endloop
endfacet
facet normal -0.9238795325112865 0.38268343236509045 -0.0
  outer loop
    vertex 2.897777478867204 -0.7764571353075648 5.0
    vertex 2.598076211353315 -1.5000000000000016 -3.0
    vertex 2.598076211353315 -1.5000000000000016 5.0
  endloop
endfacet
facet normal -0.9238795325112865 0.38268343236509045 -0.0
  outer loop
    vertex 2.598076211353315 -1.5000000000000016 -3.0
    vertex 2.897777478867204 -0.7764571353075648 5.0
    vertex 2.897777478867204 -0.7764571353075648 -3.0
  endloop
endfacet
facet normal -0.793353340291235 0.608761429008721 -0.0
  outer loop
    vertex 2.598076211353315 -1.5000000000000016 5.0
    vertex 2.121320343559642 -2.1213203435596433 -3.0
    vertex 2.121320343559642 -2.1213203435596433 5.0
  endloop
endfacet
facet normal -0.793353340291235 0.608761429008721 -0.0
  outer loop
    vertex 2.121320343559642 -2.1213203435596433 -3.0
    vertex 2.598076211353315 -1.5000000000000016 5.0
    vertex 2.598076211353315 -1.5000000000000016 -3.0
  endloop
endfacet
facet normal -0.6087614290087202 0.7933533402912357 -0.0
  outer loop
    vertex 1.4999999999999978 -2.5980762113533173 5.0
    vertex 2.121320343559642 -2.1213203435596433 -3.0
    vertex 1.4999999999999978 -2.5980762113533173 -3.0
  endloop
endfacet
facet normal -0.6087614290087202 0.7933533402912357 -0.0
  outer loop
    vertex 2.121320343559642 -2.1213203435596433 -3.0
    vertex 1.4999999999999978 -2.5980762113533173 5.0
    vertex 2.121320343559642 -2.1213203435596433 5.0
  endloop
endfacet
facet normal -0.3826834323650892 0.9238795325112871 -0.0
  outer loop
    vertex 0.7764571353075608 -2.897777478867205 5.0
    vertex 1.4999999999999978 -2.5980762113533173 -3.0
    vertex 0.7764571353075608 -2.897777478867205 -3.0
  endloop
endfacet
facet normal -0.3826834323650892 0.9238795325112871 -0.0
  outer loop
    vertex 1.4999999999999978 -2.5980762113533173 -3.0
    vertex 0.7764571353075608 -2.897777478867205 5.0
    vertex 1.4999999999999978 -2.5980762113533173 5.0
  endloop
endfacet
facet normal -0.13052619222005146 0.9914448613738105 -0.0
  outer loop
    vertex -5.510910596163089e-16 -3.0 5.0
    vertex 0.7764571353075608 -2.897777478867205 -3.0
    vertex -5.510910596163089e-16 -3.0 -3.0
  endloop
endfacet
facet normal -0.13052619222005146 0.9914448613738105 -0.0
  outer loop
    vertex 0.7764571353075608 -2.897777478867205 -3.0
    vertex -5.510910596163089e-16 -3.0 5.0
    vertex 0.7764571353075608 -2.897777478867205 5.0
  endloop
endfacet
facet normal 0.1305261922200519 0.9914448613738104 0.0
  outer loop
    vertex -0.7764571353075645 -2.8977774788672046 5.0
    vertex -5.510910596163089e-16 -3.0 -3.0
    vertex -0.7764571353075645 -2.8977774788672046 -3.0
  endloop
endfacet
facet normal 0.1305261922200519 0.9914448613738104 0.0
  outer loop
    vertex -5.510910596163089e-16 -3.0 -3.0
    vertex -0.7764571353075645 -2.8977774788672046 5.0
    vertex -5.510910596163089e-16 -3.0 5.0
  endloop
endfacet
facet normal 0.38268343236509045 0.9238795325112866 0.0
  outer loop
    vertex -1.5000000000000013 -2.5980762113533156 5.0
    vertex -0.7764571353075645 -2.8977774788672046 -3.0
    vertex -1.5000000000000013 -2.5980762113533156 -3.0
  endloop
endfacet
facet normal 0.38268343236509045 0.9238795325112866 0.0
  outer loop
    vertex -0.7764571353075645 -2.8977774788672046 -3.0
    vertex -1.5000000000000013 -2.5980762113533156 5.0
    vertex -0.7764571353075645 -2.8977774788672046 5.0
  endloop
endfacet
facet normal 0.6087614290087212 0.7933533402912347 0.0
  outer loop
    vertex -2.1213203435596437 -2.1213203435596415 5.0
    vertex -1.5000000000000013 -2.5980762113533156 -3.0
    vertex -2.1213203435596437 -2.1213203435596415 -3.0
  endloop
endfacet
facet normal 0.6087614290087212 0.7933533402912347 0.0
  outer loop
    vertex -1.5000000000000013 -2.5980762113533156 -3.0
    vertex -2.1213203435596437 -2.1213203435596415 5.0
    vertex -1.5000000000000013 -2.5980762113533156 5.0
  endloop
endfacet
facet normal 0.7933533402912357 0.6087614290087201 0.0
  outer loop
    vertex -2.598076211353316 -1.4999999999999991 -3.0
    vertex -2.1213203435596437 -2.1213203435596415 5.0
    vertex -2.1213203435596437 -2.1213203435596415 -3.0
  endloop
endfacet
facet normal 0.7933533402912357 0.6087614290087201 0.0
  outer loop
    vertex -2.1213203435596437 -2.1213203435596415 5.0
    vertex -2.598076211353316 -1.4999999999999991 -3.0
    vertex -2.598076211353316 -1.4999999999999991 5.0
  endloop
endfacet
facet normal 0.0 0.0 1.0
  outer loop
    vertex -0.7764571353075619 -2.897777478867205 30.0
    vertex -0.9999999999999998 -1.224646799147353e-16 30.0
    vertex -1.4999999999999991 -2.598076211353316 30.0
  endloop
endfacet
facet normal 0.0 0.0 1.0
  outer loop
    vertex -0.9999999999999998 -1.224646799147353e-16 30.0
    vertex -0.7764571353075619 -2.897777478867205 30.0
    vertex -0.965925826289068 -0.258819045102521 30.0
  endloop
endfacet
facet normal 0.0 0.0 1.0
  outer loop
    vertex -0.965925826289068 -0.258819045102521 30.0
    vertex -0.7764571353075619 -2.897777478867205 30.0
    vertex -0.8660254037844383 -0.5000000000000003 30.0
  endloop
endfacet
facet normal 0.0 0.0 1.0
  outer loop
    vertex -0.8660254037844383 -0.5000000000000003 30.0
    vertex -0.7764571353075619 -2.897777478867205 30.0
    vertex -0.7071067811865474 -0.7071067811865476 30.0
  endloop
endfacet
facet normal 0.0 0.0 1.0
  outer loop
    vertex -0.7071067811865474 -0.7071067811865476 30.0
    vertex -0.7764571353075619 -2.897777478867205 30.0
    vertex 1.8369701987210297e-16 -3.0 30.0
  endloop
endfacet
facet normal 0.0 0.0 1.0
  outer loop
    vertex -0.7071067811865474 -0.7071067811865476 30.0
    vertex 1.8369701987210297e-16 -3.0 30.0
    vertex -0.4999999999999996 -0.8660254037844386 30.0
  endloop
endfacet
facet normal 0.0 0.0 1.0
  outer loop
    vertex -0.4999999999999996 -0.8660254037844386 30.0
    vertex 1.8369701987210297e-16 -3.0 30.0
    vertex -0.2588190451025206 -0.9659258262890682 30.0
  endloop
endfacet
facet normal 0.0 0.0 1.0
  outer loop
    vertex -0.2588190451025206 -0.9659258262890682 30.0
    vertex 1.8369701987210297e-16 -3.0 30.0
    vertex 6.123233995736765e-17 -0.9999999999999999 30.0
  endloop
endfacet
facet normal 0.0 0.0 1.0
  outer loop
    vertex 6.123233995736765e-17 -0.9999999999999999 30.0
    vertex 1.8369701987210297e-16 -3.0 30.0
    vertex 0.2588190451025209 -0.9659258262890682 30.0
  endloop
endfacet
facet normal 0.0 0.0 1.0
  outer loop
    vertex 0.2588190451025209 -0.9659258262890682 30.0
    vertex 1.8369701987210297e-16 -3.0 30.0
    vertex 0.7764571353075629 -2.8977774788672046 30.0
  endloop
endfacet
facet normal 0.0 0.0 1.0
  outer loop
    vertex 0.2588190451025209 -0.9659258262890682 30.0
    vertex 0.7764571353075629 -2.8977774788672046 30.0
    vertex 0.49999999999999994 -0.8660254037844385 30.0
  endloop
endfacet
facet normal 0.0 0.0 1.0
  outer loop
    vertex 0.49999999999999994 -0.8660254037844385 30.0
    vertex 0.7764571353075629 -2.8977774788672046 30.0
    vertex 0.7071067811865475 -0.7071067811865476 30.0
  endloop
endfacet
facet normal 0.0 0.0 1.0
  outer loop
    vertex 0.7071067811865475 -0.7071067811865476 30.0
    vertex 0.7764571353075629 -2.8977774788672046 30.0
    vertex 0.8660254037844385 -0.4999999999999999 30.0
  endloop
endfacet
facet normal 0.0 0.0 1.0
  outer loop
    vertex 0.8660254037844385 -0.4999999999999999 30.0
    vertex 0.7764571353075629 -2.8977774788672046 30.0
    vertex 1.5000000000000002 -2.5980762113533156 30.0
  endloop
endfacet
facet normal 0.0 0.0 1.0
  outer loop
    vertex 0.8660254037844385 -0.4999999999999999 30.0
    vertex 1.5000000000000002 -2.5980762113533156 30.0
    vertex 0.965925826289068 -0.25881904510252074 30.0
  endloop
endfacet
facet normal 0.0 0.0 1.0
  outer loop
    vertex 0.965925826289068 -0.25881904510252074 30.0
    vertex 1.5000000000000002 -2.5980762113533156 30.0
    vertex 0.9999999999999998 0.0 30.0
  endloop
endfacet
facet normal 0.0 0.0 1.0
  outer loop
    vertex 0.9999999999999998 0.0 30.0
    vertex 1.5000000000000002 -2.5980762113533156 30.0
    vertex 1.4999999999999978 2.598076211353317 30.0
  endloop
endfacet
facet normal 0.0 0.0 1.0
  outer loop
    vertex 1.4999999999999978 2.598076211353317 30.0
    vertex 1.5000000000000002 -2.5980762113533156 30.0
    vertex 2.121320343559642 2.121320343559643 30.0
  endloop
endfacet
facet normal 0.0 0.0 1.0
  outer loop
    vertex 2.121320343559642 2.121320343559643 30.0
    vertex 1.5000000000000002 -2.5980762113533156 30.0
    vertex 2.1213203435596424 -2.1213203435596424 30.0
  endloop
endfacet
facet normal 0.0 0.0 1.0
  outer loop
    vertex 2.121320343559642 2.121320343559643 30.0
    vertex 2.1213203435596424 -2.1213203435596424 30.0
    vertex 2.598076211353315 1.5000000000000013 30.0
  endloop
endfacet
facet normal 0.0 0.0 1.0
  outer loop
    vertex 2.598076211353315 1.5000000000000013 30.0
    vertex 2.1213203435596424 -2.1213203435596424 30.0
    vertex 2.598076211353316 -1.4999999999999998 30.0
  endloop
endfacet
facet normal 0.0 0.0 1.0
  outer loop
    vertex 2.598076211353315 1.5000000000000013 30.0
    vertex 2.598076211353316 -1.4999999999999998 30.0
    vertex 2.897777478867204 0.7764571353075647 30.0
  endloop
endfacet
facet normal 0.0 0.0 1.0
  outer loop
    vertex 2.897777478867204 0.7764571353075647 30.0
    vertex 2.598076211353316 -1.4999999999999998 30.0
    vertex 2.897777478867205 -0.7764571353075621 30.0
  endloop
endfacet
facet normal 0.0 0.0 1.0
  outer loop
    vertex 2.897777478867204 0.7764571353075647 30.0
    vertex 2.897777478867205 -0.7764571353075621 30.0
    vertex 3.0 0.0 30.0
  endloop
endfacet
facet normal 0.0 0.0 1.0
  outer loop
    vertex -2.8977774788672046 -0.776457135307563 30.0
    vertex -2.897777478867205 0.776457135307561 30.0
    vertex -3.0 -3.6739403974420594e-16 30.0
  endloop
endfacet
facet normal 0.0 0.0 1.0
  outer loop
    vertex -2.897777478867205 0.776457135307561 30.0
    vertex -2.8977774788672046 -0.776457135307563 30.0
    vertex -2.598076211353316 1.4999999999999991 30.0
  endloop
endfacet
facet normal 0.0 0.0 1.0
  outer loop
    vertex -2.598076211353316 1.4999999999999991 30.0
    vertex -2.8977774788672046 -0.776457135307563 30.0
    vertex -2.5980762113533156 -1.5000000000000009 30.0
  endloop
endfacet
facet normal 0.0 0.0 1.0
  outer loop
    vertex -2.598076211353316 1.4999999999999991 30.0
    vertex -2.5980762113533156 -1.5000000000000009 30.0
    vertex -2.1213203435596437 2.121320343559641 30.0
  endloop
endfacet
facet normal 0.0 0.0 1.0
  outer loop
    vertex -2.1213203435596437 2.121320343559641 30.0
    vertex -2.5980762113533156 -1.5000000000000009 30.0
    vertex -2.1213203435596424 -2.1213203435596424 30.0
  endloop
endfacet
facet normal 0.0 0.0 1.0
  outer loop
    vertex -2.1213203435596437 2.121320343559641 30.0
    vertex -2.1213203435596424 -2.1213203435596424 30.0
    vertex -1.5000000000000013 2.598076211353315 30.0
  endloop
endfacet
facet normal 0.0 0.0 1.0
  outer loop
    vertex -1.5000000000000013 2.598076211353315 30.0
    vertex -2.1213203435596424 -2.1213203435596424 30.0
    vertex -1.4999999999999991 -2.598076211353316 30.0
  endloop
endfacet
facet normal 0.0 0.0 1.0
  outer loop
    vertex -1.5000000000000013 2.598076211353315 30.0
    vertex -1.4999999999999991 -2.598076211353316 30.0
    vertex -0.7764571353075645 2.897777478867204 30.0
  endloop
endfacet
facet normal 0.0 0.0 1.0
  outer loop
    vertex -0.7764571353075645 2.897777478867204 30.0
    vertex -1.4999999999999991 -2.598076211353316 30.0
    vertex -0.9999999999999998 -1.224646799147353e-16 30.0
  endloop
endfacet
facet normal 0.0 0.0 1.0
  outer loop
    vertex -0.7764571353075645 2.897777478867204 30.0
    vertex -0.9999999999999998 -1.224646799147353e-16 30.0
    vertex -0.9659258262890682 0.25881904510252035 30.0
  endloop
endfacet
facet normal 0.0 0.0 1.0
  outer loop
    vertex -0.7764571353075645 2.897777478867204 30.0
    vertex -0.9659258262890682 0.25881904510252035 30.0
    vertex -0.8660254037844386 0.4999999999999997 30.0
  endloop
endfacet
facet normal 0.0 0.0 1.0
  outer loop
    vertex -0.7764571353075645 2.897777478867204 30.0
    vertex -0.8660254037844386 0.4999999999999997 30.0
    vertex -0.7071067811865478 0.7071067811865471 30.0
  endloop
endfacet
facet normal 0.0 0.0 1.0
  outer loop
    vertex -0.7764571353075645 2.897777478867204 30.0
    vertex -0.7071067811865478 0.7071067811865471 30.0
    vertex -5.510910596163089e-16 3.0 30.0
  endloop
endfacet
facet normal 0.0 0.0 1.0
  outer loop
    vertex -5.510910596163089e-16 3.0 30.0
    vertex -0.7071067811865478 0.7071067811865471 30.0
    vertex -0.5000000000000003 0.8660254037844383 30.0
  endloop
endfacet
facet normal 0.0 0.0 1.0
  outer loop
    vertex -5.510910596163089e-16 3.0 30.0
    vertex -0.5000000000000003 0.8660254037844383 30.0
    vertex -0.25881904510252146 0.965925826289068 30.0
  endloop
endfacet
facet normal 0.0 0.0 1.0
  outer loop
    vertex -5.510910596163089e-16 3.0 30.0
    vertex -0.25881904510252146 0.965925826289068 30.0
    vertex -1.8369701987210292e-16 0.9999999999999999 30.0
  endloop
endfacet
facet normal 0.0 0.0 1.0
  outer loop
    vertex -5.510910596163089e-16 3.0 30.0
    vertex -1.8369701987210292e-16 0.9999999999999999 30.0
    vertex 0.7764571353075608 2.897777478867205 30.0
  endloop
endfacet
facet normal 0.0 0.0 1.0
  outer loop
    vertex 0.7764571353075608 2.897777478867205 30.0
    vertex -1.8369701987210292e-16 0.9999999999999999 30.0
    vertex 0.25881904510252024 0.9659258262890683 30.0
  endloop
endfacet
facet normal 0.0 0.0 1.0
  outer loop
    vertex 0.7764571353075608 2.897777478867205 30.0
    vertex 0.25881904510252024 0.9659258262890683 30.0
    vertex 0.49999999999999917 0.866025403784439 30.0
  endloop
endfacet
facet normal 0.0 0.0 1.0
  outer loop
    vertex 0.7764571353075608 2.897777478867205 30.0
    vertex 0.49999999999999917 0.866025403784439 30.0
    vertex 0.7071067811865471 0.7071067811865476 30.0
  endloop
endfacet
facet normal 0.0 0.0 1.0
  outer loop
    vertex 0.7764571353075608 2.897777478867205 30.0
    vertex 0.7071067811865471 0.7071067811865476 30.0
    vertex 0.8660254037844382 0.5000000000000004 30.0
  endloop
endfacet
facet normal 0.0 0.0 1.0
  outer loop
    vertex 0.7764571353075608 2.897777478867205 30.0
    vertex 0.8660254037844382 0.5000000000000004 30.0
    vertex 1.4999999999999978 2.598076211353317 30.0
  endloop
endfacet
facet normal 0.0 0.0 1.0
  outer loop
    vertex 1.4999999999999978 2.598076211353317 30.0
    vertex 0.8660254037844382 0.5000000000000004 30.0
    vertex 0.9659258262890679 0.2588190451025215 30.0
  endloop
endfacet
facet normal 0.0 0.0 1.0
  outer loop
    vertex 1.4999999999999978 2.598076211353317 30.0
    vertex 0.9659258262890679 0.2588190451025215 30.0
    vertex 0.9999999999999998 0.0 30.0
  endloop
endfacet
facet normal 0.7933533402912354 -0.6087614290087207 0.0
  outer loop
    vertex 2.598076211353316 -1.4999999999999998 14.0
    vertex 2.1213203435596424 -2.1213203435596424 30.0
    vertex 2.1213203435596424 -2.1213203435596424 14.0
  endloop
endfacet
facet normal 0.7933533402912354 -0.6087614290087207 0.0
  outer loop
    vertex 2.1213203435596424 -2.1213203435596424 30.0
    vertex 2.598076211353316 -1.4999999999999998 14.0
    vertex 2.598076211353316 -1.4999999999999998 30.0
  endloop
endfacet
facet normal 0.9238795325112868 -0.38268343236508967 0.0
  outer loop
    vertex 2.897777478867205 -0.7764571353075621 14.0
    vertex 2.598076211353316 -1.4999999999999998 30.0
    vertex 2.598076211353316 -1.4999999999999998 14.0
  endloop
endfacet
facet normal 0.9238795325112868 -0.38268343236508967 0.0
  outer loop
    vertex 2.598076211353316 -1.4999999999999998 30.0
    vertex 2.897777478867205 -0.7764571353075621 14.0
    vertex 2.897777478867205 -0.7764571353075621 30.0
  endloop
endfacet
facet normal 0.9914448613738106 -0.13052619222005135 0.0
  outer loop
    vertex 3.0 0.0 14.0
    vertex 2.897777478867205 -0.7764571353075621 30.0
    vertex 2.897777478867205 -0.7764571353075621 14.0
  endloop
endfacet
facet normal 0.9914448613738106 -0.13052619222005135 0.0
  outer loop
    vertex 2.897777478867205 -0.7764571353075621 30.0
    vertex 3.0 0.0 14.0
    vertex 3.0 0.0 30.0
  endloop
endfacet
facet normal 0.9914448613738105 0.1305261922200518 0.0
  outer loop
    vertex 2.897777478867204 0.7764571353075647 14.0
    vertex 3.0 0.0 30.0
    vertex 3.0 0.0 14.0
  endloop
endfacet
facet normal 0.9914448613738105 0.1305261922200518 0.0
  outer loop
    vertex 3.0 0.0 30.0
    vertex 2.897777478867204 0.7764571353075647 14.0
    vertex 2.897777478867204 0.7764571353075647 30.0
  endloop
endfacet
facet normal 0.9238795325112866 0.38268343236509056 0.0
  outer loop
    vertex 2.598076211353315 1.5000000000000013 14.0
    vertex 2.897777478867204 0.7764571353075647 30.0
    vertex 2.897777478867204 0.7764571353075647 14.0
  endloop
endfacet
facet normal 0.9238795325112866 0.38268343236509056 0.0
  outer loop
    vertex 2.897777478867204 0.7764571353075647 30.0
    vertex 2.598076211353315 1.5000000000000013 14.0
    vertex 2.598076211353315 1.5000000000000013 30.0
  endloop
endfacet
facet normal 0.7933533402912348 0.6087614290087211 0.0
  outer loop
    vertex 2.121320343559642 2.121320343559643 14.0
    vertex 2.598076211353315 1.5000000000000013 30.0
    vertex 2.598076211353315 1.5000000000000013 14.0
  endloop
endfacet
facet normal 0.7933533402912348 0.6087614290087211 0.0
  outer loop
    vertex 2.598076211353315 1.5000000000000013 30.0
    vertex 2.121320343559642 2.121320343559643 14.0
    vertex 2.121320343559642 2.121320343559643 30.0
  endloop
endfacet
facet normal 0.6087614290087202 0.7933533402912357 0.0
  outer loop
    vertex 1.4999999999999978 2.598076211353317 30.0
    vertex 2.121320343559642 2.121320343559643 14.0
    vertex 1.4999999999999978 2.598076211353317 14.0
  endloop
endfacet
facet normal 0.6087614290087202 0.7933533402912357 0.0
  outer loop
    vertex 2.121320343559642 2.121320343559643 14.0
    vertex 1.4999999999999978 2.598076211353317 30.0
    vertex 2.121320343559642 2.121320343559643 30.0
  endloop
endfacet
facet normal 0.38268343236508956 0.9238795325112868 0.0
  outer loop
    vertex 0.7764571353075608 2.897777478867205 30.0
    vertex 1.4999999999999978 2.598076211353317 14.0
    vertex 0.7764571353075608 2.897777478867205 14.0
  endloop
endfacet
facet normal 0.38268343236508956 0.9238795325112868 0.0
  outer loop
    vertex 1.4999999999999978 2.598076211353317 14.0
    vertex 0.7764571353075608 2.897777478867205 30.0
    vertex 1.4999999999999978 2.598076211353317 30.0
  endloop
endfacet
facet normal 0.13052619222005102 0.9914448613738105 0.0
  outer loop
    vertex -5.510910596163089e-16 3.0 30.0
    vertex 0.7764571353075608 2.897777478867205 14.0
    vertex -5.510910596163089e-16 3.0 14.0
  endloop
endfacet
facet normal 0.13052619222005102 0.9914448613738105 0.0
  outer loop
    vertex 0.7764571353075608 2.897777478867205 14.0
    vertex -5.510910596163089e-16 3.0 30.0
    vertex 0.7764571353075608 2.897777478867205 30.0
  endloop
endfacet
facet normal -0.1305261922200519 0.9914448613738104 0.0
  outer loop
    vertex -0.7764571353075645 2.897777478867204 30.0
    vertex -5.510910596163089e-16 3.0 14.0
    vertex -0.7764571353075645 2.897777478867204 14.0
  endloop
endfacet
facet normal -0.1305261922200519 0.9914448613738104 0.0
  outer loop
    vertex -5.510910596163089e-16 3.0 14.0
    vertex -0.7764571353075645 2.897777478867204 30.0
    vertex -5.510910596163089e-16 3.0 30.0
  endloop
endfacet
facet normal -0.38268343236509045 0.9238795325112866 0.0
  outer loop
    vertex -1.5000000000000013 2.598076211353315 30.0
    vertex -0.7764571353075645 2.897777478867204 14.0
    vertex -1.5000000000000013 2.598076211353315 14.0
  endloop
endfacet
facet normal -0.38268343236509045 0.9238795325112866 0.0
  outer loop
    vertex -0.7764571353075645 2.897777478867204 14.0
    vertex -1.5000000000000013 2.598076211353315 30.0
    vertex -0.7764571353075645 2.897777478867204 30.0
  endloop
endfacet
facet normal -0.6087614290087212 0.7933533402912347 0.0
  outer loop
    vertex -2.1213203435596437 2.121320343559641 30.0
    vertex -1.5000000000000013 2.598076211353315 14.0
    vertex -2.1213203435596437 2.121320343559641 14.0
  endloop
endfacet
facet normal -0.6087614290087212 0.7933533402912347 0.0
  outer loop
    vertex -1.5000000000000013 2.598076211353315 14.0
    vertex -2.1213203435596437 2.121320343559641 30.0
    vertex -1.5000000000000013 2.598076211353315 30.0
  endloop
endfacet
facet normal -0.7933533402912355 0.6087614290087202 0.0
  outer loop
    vertex -2.1213203435596437 2.121320343559641 30.0
    vertex -2.598076211353316 1.4999999999999991 14.0
    vertex -2.598076211353316 1.4999999999999991 30.0
  endloop
endfacet
facet normal -0.7933533402912355 0.6087614290087202 0.0
  outer loop
    vertex -2.598076211353316 1.4999999999999991 14.0
    vertex -2.1213203435596437 2.121320343559641 30.0
    vertex -2.1213203435596437 2.121320343559641 14.0
  endloop
endfacet
facet normal -0.9238795325112867 0.3826834323650899 0.0
  outer loop
    vertex -2.598076211353316 1.4999999999999991 30.0
    vertex -2.897777478867205 0.776457135307561 14.0
    vertex -2.897777478867205 0.776457135307561 30.0
  endloop
endfacet
facet normal -0.9238795325112867 0.3826834323650899 0.0
  outer loop
    vertex -2.897777478867205 0.776457135307561 14.0
    vertex -2.598076211353316 1.4999999999999991 30.0
    vertex -2.598076211353316 1.4999999999999991 14.0
  endloop
endfacet
facet normal -0.9914448613738105 0.13052619222005102 0.0
  outer loop
    vertex -2.897777478867205 0.776457135307561 30.0
    vertex -3.0 -3.6739403974420594e-16 14.0
    vertex -3.0 -3.6739403974420594e-16 30.0
  endloop
endfacet
facet normal -0.9914448613738105 0.13052619222005102 0.0
  outer loop
    vertex -3.0 -3.6739403974420594e-16 14.0
    vertex -2.897777478867205 0.776457135307561 30.0
    vertex -2.897777478867205 0.776457135307561 14.0
  endloop
endfacet
facet normal -0.9914448613738105 -0.13052619222005168 -0.0
  outer loop
    vertex -3.0 -3.6739403974420594e-16 30.0
    vertex -2.8977774788672046 -0.776457135307563 14.0
    vertex -2.8977774788672046 -0.776457135307563 30.0
  endloop
endfacet
facet normal -0.9914448613738105 -0.13052619222005168 -0.0
  outer loop
    vertex -2.8977774788672046 -0.776457135307563 14.0
    vertex -3.0 -3.6739403974420594e-16 30.0
    vertex -3.0 -3.6739403974420594e-16 14.0
  endloop
endfacet
facet normal -0.9238795325112866 -0.38268343236508984 -0.0
  outer loop
    vertex -2.8977774788672046 -0.776457135307563 30.0
    vertex -2.5980762113533156 -1.5000000000000009 14.0
    vertex -2.5980762113533156 -1.5000000000000009 30.0
  endloop
endfacet
facet normal -0.9238795325112866 -0.38268343236508984 -0.0
  outer loop
    vertex -2.5980762113533156 -1.5000000000000009 14.0
    vertex -2.8977774788672046 -0.776457135307563 30.0
    vertex -2.8977774788672046 -0.776457135307563 14.0
  endloop
endfacet
facet normal -0.7933533402912348 -0.6087614290087211 -0.0
  outer loop
    vertex -2.5980762113533156 -1.5000000000000009 30.0
    vertex -2.1213203435596424 -2.1213203435596424 14.0
    vertex -2.1213203435596424 -2.1213203435596424 30.0
  endloop
endfacet
facet normal -0.7933533402912348 -0.6087614290087211 -0.0
  outer loop
    vertex -2.1213203435596424 -2.1213203435596424 14.0
    vertex -2.5980762113533156 -1.5000000000000009 30.0
    vertex -2.5980762113533156 -1.5000000000000009 14.0
  endloop
endfacet
facet normal -0.6087614290087204 -0.7933533402912353 -0.0
  outer loop
    vertex -1.4999999999999991 -2.598076211353316 30.0
    vertex -2.1213203435596424 -2.1213203435596424 14.0
    vertex -1.4999999999999991 -2.598076211353316 14.0
  endloop
endfacet
facet normal -0.6087614290087204 -0.7933533402912353 -0.0
  outer loop
    vertex -2.1213203435596424 -2.1213203435596424 14.0
    vertex -1.4999999999999991 -2.598076211353316 30.0
    vertex -2.1213203435596424 -2.1213203435596424 30.0
  endloop
endfacet
facet normal -0.38268343236508984 -0.9238795325112868 -0.0
  outer loop
    vertex -0.7764571353075619 -2.897777478867205 30.0
    vertex -1.4999999999999991 -2.598076211353316 14.0
    vertex -0.7764571353075619 -2.897777478867205 14.0
  endloop
endfacet
facet normal -0.38268343236508984 -0.9238795325112868 -0.0
  outer loop
    vertex -1.4999999999999991 -2.598076211353316 14.0
    vertex -0.7764571353075619 -2.897777478867205 30.0
    vertex -1.4999999999999991 -2.598076211353316 30.0
  endloop
endfacet
facet normal -0.13052619222005135 -0.9914448613738105 -0.0
  outer loop
    vertex 1.8369701987210297e-16 -3.0 30.0
    vertex -0.7764571353075619 -2.897777478867205 14.0
    vertex 1.8369701987210297e-16 -3.0 14.0
  endloop
endfacet
facet normal -0.13052619222005135 -0.9914448613738105 -0.0
  outer loop
    vertex -0.7764571353075619 -2.897777478867205 14.0
    vertex 1.8369701987210297e-16 -3.0 30.0
    vertex -0.7764571353075619 -2.897777478867205 30.0
  endloop
endfacet
facet normal 0.13052619222005168 -0.9914448613738105 0.0
  outer loop
    vertex 0.7764571353075629 -2.8977774788672046 30.0
    vertex 1.8369701987210297e-16 -3.0 14.0
    vertex 0.7764571353075629 -2.8977774788672046 14.0
  endloop
endfacet
facet normal 0.13052619222005168 -0.9914448613738105 0.0
  outer loop
    vertex 1.8369701987210297e-16 -3.0 14.0
    vertex 0.7764571353075629 -2.8977774788672046 30.0
    vertex 1.8369701987210297e-16 -3.0 30.0
  endloop
endfacet
facet normal 0.3826834323650898 -0.9238795325112867 0.0
  outer loop
    vertex 1.5000000000000002 -2.5980762113533156 30.0
    vertex 0.7764571353075629 -2.8977774788672046 14.0
    vertex 1.5000000000000002 -2.5980762113533156 14.0
  endloop
endfacet
facet normal 0.3826834323650898 -0.9238795325112867 0.0
  outer loop
    vertex 0.7764571353075629 -2.8977774788672046 14.0
    vertex 1.5000000000000002 -2.5980762113533156 30.0
    vertex 0.7764571353075629 -2.8977774788672046 30.0
  endloop
endfacet
facet normal 0.6087614290087207 -0.7933533402912352 0.0
  outer loop
    vertex 2.1213203435596424 -2.1213203435596424 30.0
    vertex 1.5000000000000002 -2.5980762113533156 14.0
    vertex 2.1213203435596424 -2.1213203435596424 14.0
  endloop
endfacet
facet normal 0.6087614290087207 -0.7933533402912352 0.0
  outer loop
    vertex 1.5000000000000002 -2.5980762113533156 14.0
    vertex 2.1213203435596424 -2.1213203435596424 30.0
    vertex 1.5000000000000002 -2.5980762113533156 30.0
  endloop
endfacet
facet normal -0.9914448613738104 0.13052619222005174 -0.0
  outer loop
    vertex 0.9999999999999998 0.0 30.0
    vertex 0.965925826289068 -0.25881904510252074 5.000000000000011
    vertex 0.965925826289068 -0.25881904510252074 30.0
  endloop
endfacet
facet normal -0.9914448613738104 0.13052619222005174 -0.0
  outer loop
    vertex 0.965925826289068 -0.25881904510252074 5.000000000000011
    vertex 0.9999999999999998 0.0 30.0
    vertex 0.9999999999999998 0.0 5.000000000000011
  endloop
endfacet
facet normal -0.9914448613738104 -0.13052619222005202 -0.0
  outer loop
    vertex 0.9659258262890679 0.2588190451025215 30.0
    vertex 0.9999999999999998 0.0 5.000000000000011
    vertex 0.9999999999999998 0.0 30.0
  endloop
endfacet
facet normal -0.9914448613738104 -0.13052619222005202 -0.0
  outer loop
    vertex 0.9999999999999998 0.0 5.000000000000011
    vertex 0.9659258262890679 0.2588190451025215 30.0
    vertex 0.9659258262890679 0.2588190451025215 5.000000000000011
  endloop
endfacet
facet normal -0.9238795325112865 -0.3826834323650905 -0.0
  outer loop
    vertex 0.8660254037844382 0.5000000000000004 30.0
    vertex 0.9659258262890679 0.2588190451025215 5.000000000000011
    vertex 0.9659258262890679 0.2588190451025215 30.0
  endloop
endfacet
facet normal -0.9238795325112865 -0.3826834323650905 -0.0
  outer loop
    vertex 0.9659258262890679 0.2588190451025215 5.000000000000011
    vertex 0.8660254037844382 0.5000000000000004 30.0
    vertex 0.8660254037844382 0.5000000000000004 5.000000000000011
  endloop
endfacet
facet normal -0.793353340291235 -0.6087614290087208 -0.0
  outer loop
    vertex 0.7071067811865471 0.7071067811865476 30.0
    vertex 0.8660254037844382 0.5000000000000004 5.000000000000011
    vertex 0.8660254037844382 0.5000000000000004 30.0
  endloop
endfacet
facet normal -0.793353340291235 -0.6087614290087208 -0.0
  outer loop
    vertex 0.8660254037844382 0.5000000000000004 5.000000000000011
    vertex 0.7071067811865471 0.7071067811865476 30.0
    vertex 0.7071067811865471 0.7071067811865476 5.000000000000011
  endloop
endfacet
facet normal -0.6087614290087204 -0.7933533402912355 -0.0
  outer loop
    vertex 0.7071067811865471 0.7071067811865476 30.0
    vertex 0.49999999999999917 0.866025403784439 5.000000000000011
    vertex 0.7071067811865471 0.7071067811865476 5.000000000000011
  endloop
endfacet
facet normal -0.6087614290087204 -0.7933533402912355 -0.0
  outer loop
    vertex 0.49999999999999917 0.866025403784439 5.000000000000011
    vertex 0.7071067811865471 0.7071067811865476 30.0
    vertex 0.49999999999999917 0.866025403784439 30.0
  endloop
endfacet
facet normal -0.3826834323650892 -0.923879532511287 -0.0
  outer loop
    vertex 0.49999999999999917 0.866025403784439 30.0
    vertex 0.25881904510252024 0.9659258262890683 5.000000000000011
    vertex 0.49999999999999917 0.866025403784439 5.000000000000011
  endloop
endfacet
facet normal -0.3826834323650892 -0.923879532511287 -0.0
  outer loop
    vertex 0.25881904510252024 0.9659258262890683 5.000000000000011
    vertex 0.49999999999999917 0.866025403784439 30.0
    vertex 0.25881904510252024 0.9659258262890683 30.0
  endloop
endfacet
facet normal -0.13052619222005127 -0.9914448613738106 -0.0
  outer loop
    vertex 0.25881904510252024 0.9659258262890683 30.0
    vertex -1.8369701987210292e-16 0.9999999999999999 5.000000000000011
    vertex 0.25881904510252024 0.9659258262890683 5.000000000000011
  endloop
endfacet
facet normal -0.13052619222005127 -0.9914448613738106 -0.0
  outer loop
    vertex -1.8369701987210292e-16 0.9999999999999999 5.000000000000011
    vertex 0.25881904510252024 0.9659258262890683 30.0
    vertex -1.8369701987210292e-16 0.9999999999999999 30.0
  endloop
endfacet
facet normal 0.13052619222005216 -0.9914448613738104 -0.0
  outer loop
    vertex -1.8369701987210292e-16 0.9999999999999999 30.0
    vertex -0.25881904510252146 0.965925826289068 5.000000000000011
    vertex -1.8369701987210292e-16 0.9999999999999999 5.000000000000011
  endloop
endfacet
facet normal 0.13052619222005216 -0.9914448613738104 -0.0
  outer loop
    vertex -0.25881904510252146 0.965925826289068 5.000000000000011
    vertex -1.8369701987210292e-16 0.9999999999999999 30.0
    vertex -0.25881904510252146 0.965925826289068 30.0
  endloop
endfacet
facet normal 0.3826834323650905 -0.9238795325112865 -0.0
  outer loop
    vertex -0.25881904510252146 0.965925826289068 30.0
    vertex -0.5000000000000003 0.8660254037844383 5.000000000000011
    vertex -0.25881904510252146 0.965925826289068 5.000000000000011
  endloop
endfacet
facet normal 0.3826834323650905 -0.9238795325112865 -0.0
  outer loop
    vertex -0.5000000000000003 0.8660254037844383 5.000000000000011
    vertex -0.25881904510252146 0.965925826289068 30.0
    vertex -0.5000000000000003 0.8660254037844383 30.0
  endloop
endfacet
facet normal 0.6087614290087209 -0.7933533402912349 -0.0
  outer loop
    vertex -0.5000000000000003 0.8660254037844383 30.0
    vertex -0.7071067811865478 0.7071067811865471 5.000000000000011
    vertex -0.5000000000000003 0.8660254037844383 5.000000000000011
  endloop
endfacet
facet normal 0.6087614290087209 -0.7933533402912349 -0.0
  outer loop
    vertex -0.7071067811865478 0.7071067811865471 5.000000000000011
    vertex -0.5000000000000003 0.8660254037844383 30.0
    vertex -0.7071067811865478 0.7071067811865471 30.0
  endloop
endfacet
facet normal 0.7933533402912355 -0.6087614290087203 -0.0
  outer loop
    vertex -0.7071067811865478 0.7071067811865471 5.000000000000011
    vertex -0.8660254037844386 0.4999999999999997 30.0
    vertex -0.8660254037844386 0.4999999999999997 5.000000000000011
  endloop
endfacet
facet normal 0.7933533402912355 -0.6087614290087203 -0.0
  outer loop
    vertex -0.8660254037844386 0.4999999999999997 30.0
    vertex -0.7071067811865478 0.7071067811865471 5.000000000000011
    vertex -0.7071067811865478 0.7071067811865471 30.0
  endloop
endfacet
facet normal 0.9238795325112871 -0.38268343236508934 -0.0
  outer loop
    vertex -0.8660254037844386 0.4999999999999997 5.000000000000011
    vertex -0.9659258262890682 0.25881904510252035 30.0
    vertex -0.9659258262890682 0.25881904510252035 5.000000000000011
  endloop
endfacet
facet normal 0.9238795325112871 -0.38268343236508934 -0.0
  outer loop
    vertex -0.9659258262890682 0.25881904510252035 30.0
    vertex -0.8660254037844386 0.4999999999999997 5.000000000000011
    vertex -0.8660254037844386 0.4999999999999997 30.0
  endloop
endfacet
facet normal 0.9914448613738106 -0.13052619222005124 -0.0
  outer loop
    vertex -0.9659258262890682 0.25881904510252035 5.000000000000011
    vertex -0.9999999999999998 -1.224646799147353e-16 30.0
    vertex -0.9999999999999998 -1.224646799147353e-16 5.000000000000011
  endloop
endfacet
facet normal 0.9914448613738106 -0.13052619222005124 -0.0
  outer loop
    vertex -0.9999999999999998 -1.224646799147353e-16 30.0
    vertex -0.9659258262890682 0.25881904510252035 5.000000000000011
    vertex -0.9659258262890682 0.25881904510252035 30.0
  endloop
endfacet
facet normal 0.9914448613738104 0.13052619222005168 0.0
  outer loop
    vertex -0.9999999999999998 -1.224646799147353e-16 5.000000000000011
    vertex -0.965925826289068 -0.258819045102521 30.0
    vertex -0.965925826289068 -0.258819045102521 5.000000000000011
  endloop
endfacet
facet normal 0.9914448613738104 0.13052619222005168 0.0
  outer loop
    vertex -0.965925826289068 -0.258819045102521 30.0
    vertex -0.9999999999999998 -1.224646799147353e-16 5.000000000000011
    vertex -0.9999999999999998 -1.224646799147353e-16 30.0
  endloop
endfacet
facet normal 0.9238795325112867 0.3826834323650899 0.0
  outer loop
    vertex -0.965925826289068 -0.258819045102521 5.000000000000011
    vertex -0.8660254037844383 -0.5000000000000003 30.0
    vertex -0.8660254037844383 -0.5000000000000003 5.000000000000011
  endloop
endfacet
facet normal 0.9238795325112867 0.3826834323650899 0.0
  outer loop
    vertex -0.8660254037844383 -0.5000000000000003 30.0
    vertex -0.965925826289068 -0.258819045102521 5.000000000000011
    vertex -0.965925826289068 -0.258819045102521 30.0
  endloop
endfacet
facet normal 0.793353340291235 0.6087614290087208 0.0
  outer loop
    vertex -0.8660254037844383 -0.5000000000000003 5.000000000000011
    vertex -0.7071067811865474 -0.7071067811865476 30.0
    vertex -0.7071067811865474 -0.7071067811865476 5.000000000000011
  endloop
endfacet
facet normal 0.793353340291235 0.6087614290087208 0.0
  outer loop
    vertex -0.7071067811865474 -0.7071067811865476 30.0
    vertex -0.8660254037844383 -0.5000000000000003 5.000000000000011
    vertex -0.8660254037844383 -0.5000000000000003 30.0
  endloop
endfacet
facet normal 0.6087614290087202 0.7933533402912355 0.0
  outer loop
    vertex -0.7071067811865474 -0.7071067811865476 30.0
    vertex -0.4999999999999996 -0.8660254037844386 5.000000000000011
    vertex -0.7071067811865474 -0.7071067811865476 5.000000000000011
  endloop
endfacet
facet normal 0.6087614290087202 0.7933533402912355 0.0
  outer loop
    vertex -0.4999999999999996 -0.8660254037844386 5.000000000000011
    vertex -0.7071067811865474 -0.7071067811865476 30.0
    vertex -0.4999999999999996 -0.8660254037844386 30.0
  endloop
endfacet
facet normal 0.3826834323650896 0.9238795325112867 0.0
  outer loop
    vertex -0.4999999999999996 -0.8660254037844386 30.0
    vertex -0.2588190451025206 -0.9659258262890682 5.000000000000011
    vertex -0.4999999999999996 -0.8660254037844386 5.000000000000011
  endloop
endfacet
facet normal 0.3826834323650896 0.9238795325112867 0.0
  outer loop
    vertex -0.2588190451025206 -0.9659258262890682 5.000000000000011
    vertex -0.4999999999999996 -0.8660254037844386 30.0
    vertex -0.2588190451025206 -0.9659258262890682 30.0
  endloop
endfacet
facet normal 0.1305261922200518 0.9914448613738104 0.0
  outer loop
    vertex -0.2588190451025206 -0.9659258262890682 30.0
    vertex 6.123233995736765e-17 -0.9999999999999999 5.000000000000011
    vertex -0.2588190451025206 -0.9659258262890682 5.000000000000011
  endloop
endfacet
facet normal 0.1305261922200518 0.9914448613738104 0.0
  outer loop
    vertex 6.123233995736765e-17 -0.9999999999999999 5.000000000000011
    vertex -0.2588190451025206 -0.9659258262890682 30.0
    vertex 6.123233995736765e-17 -0.9999999999999999 30.0
  endloop
endfacet
facet normal -0.13052619222005168 0.9914448613738104 -0.0
  outer loop
    vertex 6.123233995736765e-17 -0.9999999999999999 30.0
    vertex 0.2588190451025209 -0.9659258262890682 5.000000000000011
    vertex 6.123233995736765e-17 -0.9999999999999999 5.000000000000011
  endloop
endfacet
facet normal -0.13052619222005168 0.9914448613738104 -0.0
  outer loop
    vertex 0.2588190451025209 -0.9659258262890682 5.000000000000011
    vertex 6.123233995736765e-17 -0.9999999999999999 30.0
    vertex 0.2588190451025209 -0.9659258262890682 30.0
  endloop
endfacet
facet normal -0.38268343236509034 0.9238795325112867 -0.0
  outer loop
    vertex 0.2588190451025209 -0.9659258262890682 30.0
    vertex 0.49999999999999994 -0.8660254037844385 5.000000000000011
    vertex 0.2588190451025209 -0.9659258262890682 5.000000000000011
  endloop
endfacet
facet normal -0.38268343236509034 0.9238795325112867 -0.0
  outer loop
    vertex 0.49999999999999994 -0.8660254037844385 5.000000000000011
    vertex 0.2588190451025209 -0.9659258262890682 30.0
    vertex 0.49999999999999994 -0.8660254037844385 30.0
  endloop
endfacet
facet normal -0.6087614290087203 0.7933533402912356 -0.0
  outer loop
    vertex 0.49999999999999994 -0.8660254037844385 30.0
    vertex 0.7071067811865475 -0.7071067811865476 5.000000000000011
    vertex 0.49999999999999994 -0.8660254037844385 5.000000000000011
  endloop
endfacet
facet normal -0.6087614290087203 0.7933533402912356 -0.0
  outer loop
    vertex 0.7071067811865475 -0.7071067811865476 5.000000000000011
    vertex 0.49999999999999994 -0.8660254037844385 30.0
    vertex 0.7071067811865475 -0.7071067811865476 30.0
  endloop
endfacet
facet normal -0.7933533402912356 0.6087614290087202 -0.0
  outer loop
    vertex 0.8660254037844385 -0.4999999999999999 30.0
    vertex 0.7071067811865475 -0.7071067811865476 5.000000000000011
    vertex 0.7071067811865475 -0.7071067811865476 30.0
  endloop
endfacet
facet normal -0.7933533402912356 0.6087614290087202 -0.0
  outer loop
    vertex 0.7071067811865475 -0.7071067811865476 5.000000000000011
    vertex 0.8660254037844385 -0.4999999999999999 30.0
    vertex 0.8660254037844385 -0.4999999999999999 5.000000000000011
  endloop
endfacet
facet normal -0.9238795325112868 0.38268343236508956 -0.0
  outer loop
    vertex 0.965925826289068 -0.25881904510252074 30.0
    vertex 0.8660254037844385 -0.4999999999999999 5.000000000000011
    vertex 0.8660254037844385 -0.4999999999999999 30.0
  endloop
endfacet
facet normal -0.9238795325112868 0.38268343236508956 -0.0
  outer loop
    vertex 0.8660254037844385 -0.4999999999999999 5.000000000000011
    vertex 0.965925826289068 -0.25881904510252074 30.0
    vertex 0.965925826289068 -0.25881904510252074 5.000000000000011
  endloop
endfacet
endsolid Вал-2мм
