solid 3х-ГоризонтКасса-35х50х15-abs
facet normal 0.0 -1.0 0.0
  outer loop
    vertex 99.00000000000003 0.0 15.6
    vertex 0.0 0.0 2.5999999999999996
    vertex 99.00000000000003 0.0 2.5999999999999996
  endloop
endfacet
facet normal 0.0 -1.0 0.0
  outer loop
    vertex 0.0 0.0 2.5999999999999996
    vertex 99.00000000000003 0.0 15.6
    vertex 0.0 0.0 15.6
  endloop
endfacet
facet normal 0.0 -1.0 0.0
  outer loop
    vertex 0.0 0.0 15.6
    vertex 99.00000000000003 0.0 15.6
    vertex 49.0 0.0 15.6
  endloop
endfacet
facet normal -0.0 -0.0 1.0
  outer loop
    vertex 1.0000000000000004 34.0 15.6
    vertex 0.0 34.0 15.6
    vertex 1.0000000000000004 0.9999999999999981 15.6
  endloop
endfacet
facet normal -0.0 -0.0 1.0
  outer loop
    vertex 0.0 0.0 15.6
    vertex 1.0000000000000004 0.9999999999999981 15.6
    vertex 0.0 34.0 15.6
  endloop
endfacet
facet normal -0.0 -0.0 1.0
  outer loop
    vertex 1.0000000000000004 0.9999999999999981 15.6
    vertex 0.0 0.0 15.6
    vertex 49.0 0.0 15.6
  endloop
endfacet
facet normal -0.0 -0.0 1.0
  outer loop
    vertex 1.0000000000000004 0.9999999999999981 15.6
    vertex 49.0 0.0 15.6
    vertex 49.0 1.0000000000000004 15.6
  endloop
endfacet
facet normal 1.0 1.869295963810159e-17 -4.406197628981089e-17
  outer loop
    vertex 0.9999999999999992 34.0 1.5999999999999999
    vertex 1.0000000000000004 0.9999999999999981 15.6
    vertex 1.0000000000000004 0.9999999999999981 1.5999999999999999
  endloop
endfacet
facet normal 1.0 1.869295963810159e-17 -4.406197628981089e-17
  outer loop
    vertex 1.0000000000000004 0.9999999999999981 15.6
    vertex 0.9999999999999992 34.0 1.5999999999999999
    vertex 1.0000000000000004 34.0 15.6
  endloop
endfacet
facet normal 2.2117313668106568e-17 -1.0 8.355179889498322e-17
  outer loop
    vertex 49.0 34.0 15.6
    vertex 1.9999999999999978 33.99999999999999 0.6
    vertex 49.0 34.0 0.6
  endloop
endfacet
facet normal 2.2117313668106568e-17 -1.0 8.355179889498322e-17
  outer loop
    vertex 1.9999999999999978 33.99999999999999 0.6
    vertex 49.0 34.0 15.6
    vertex 0.9999999999999992 34.0 1.5999999999999999
  endloop
endfacet
facet normal 2.2117313668106568e-17 -1.0 8.355179889498322e-17
  outer loop
    vertex 0.9999999999999992 34.0 1.5999999999999999
    vertex 49.0 34.0 15.6
    vertex 1.0000000000000004 34.0 15.6
  endloop
endfacet
facet normal -1.0 0.0 0.0
  outer loop
    vertex 49.0 34.0 15.6
    vertex 49.0 1.0000000000000004 1.5999999999999999
    vertex 49.0 1.0000000000000004 15.6
  endloop
endfacet
facet normal -1.0 0.0 0.0
  outer loop
    vertex 49.0 1.0000000000000004 1.5999999999999999
    vertex 49.0 34.0 15.6
    vertex 49.0 1.9999999999999962 0.6
  endloop
endfacet
facet normal -1.0 0.0 0.0
  outer loop
    vertex 49.0 1.9999999999999962 0.6
    vertex 49.0 34.0 15.6
    vertex 49.0 34.0 0.6
  endloop
endfacet
facet normal 1.0 -0.0 -0.0
  outer loop
    vertex 99.00000000000003 69.00000000000003 2.5999999999999996
    vertex 99.00000000000003 0.0 15.6
    vertex 99.00000000000003 0.0 2.5999999999999996
  endloop
endfacet
facet normal 1.0 -0.0 -0.0
  outer loop
    vertex 99.00000000000003 0.0 15.6
    vertex 99.00000000000003 69.00000000000003 2.5999999999999996
    vertex 99.00000000000003 34.0 15.6
  endloop
endfacet
facet normal 1.0 -0.0 -0.0
  outer loop
    vertex 99.00000000000003 34.0 15.6
    vertex 99.00000000000003 69.00000000000003 2.5999999999999996
    vertex 99.00000000000003 69.00000000000003 15.6
  endloop
endfacet
facet normal 1.1872227602129413e-16 -1.0 -5.936113801064693e-17
  outer loop
    vertex 98.00000000000003 34.00000000000001 1.5999999999999999
    vertex 50.00000000000001 34.0 0.6
    vertex 97.00000000000003 34.00000000000001 0.6
  endloop
endfacet
facet normal 1.1872227602129413e-16 -1.0 -5.936113801064693e-17
  outer loop
    vertex 50.00000000000001 34.0 0.6
    vertex 98.00000000000003 34.00000000000001 1.5999999999999999
    vertex 50.00000000000001 34.0 1.6000000000000012
  endloop
endfacet
facet normal 1.0 -0.0 -0.0
  outer loop
    vertex 50.00000000000001 1.9999999999999967 0.6
    vertex 50.00000000000001 0.9999999999999981 15.6
    vertex 50.00000000000001 0.9999999999999981 1.5999999999999999
  endloop
endfacet
facet normal 1.0 -0.0 -0.0
  outer loop
    vertex 50.00000000000001 0.9999999999999981 15.6
    vertex 50.00000000000001 1.9999999999999967 0.6
    vertex 50.00000000000001 34.0 15.6
  endloop
endfacet
facet normal 1.0 -0.0 -0.0
  outer loop
    vertex 50.00000000000001 34.0 15.6
    vertex 50.00000000000001 1.9999999999999967 0.6
    vertex 50.00000000000001 34.0 0.6
  endloop
endfacet
facet normal 1.0 -0.0 -0.0
  outer loop
    vertex 50.00000000000001 34.0 15.6
    vertex 50.00000000000001 34.0 0.6
    vertex 50.00000000000001 34.0 1.6000000000000012
  endloop
endfacet
facet normal 1.0 -0.0 -0.0
  outer loop
    vertex 50.00000000000001 67.00000000000003 0.6
    vertex 50.00000000000001 35.0 1.6000000000000012
    vertex 50.00000000000001 35.0 0.6
  endloop
endfacet
facet normal 1.0 -0.0 -0.0
  outer loop
    vertex 50.00000000000001 35.0 1.6000000000000012
    vertex 50.00000000000001 67.00000000000003 0.6
    vertex 50.00000000000001 35.0 15.6
  endloop
endfacet
facet normal 1.0 -0.0 -0.0
  outer loop
    vertex 50.00000000000001 35.0 15.6
    vertex 50.00000000000001 67.00000000000003 0.6
    vertex 50.00000000000001 68.00000000000003 15.6
  endloop
endfacet
facet normal 1.0 -0.0 -0.0
  outer loop
    vertex 50.00000000000001 68.00000000000003 15.6
    vertex 50.00000000000001 67.00000000000003 0.6
    vertex 50.00000000000001 68.00000000000003 1.5999999999999999
  endloop
endfacet
facet normal -2.2117313668106564e-17 1.0 -8.355179889498324e-17
  outer loop
    vertex 0.9999999999999981 35.0 1.5999999999999999
    vertex 49.0 35.0 0.6
    vertex 1.9999999999999942 34.99999999999999 0.6
  endloop
endfacet
facet normal -2.2117313668106564e-17 1.0 -8.355179889498324e-17
  outer loop
    vertex 49.0 35.0 0.6
    vertex 0.9999999999999981 35.0 1.5999999999999999
    vertex 49.0 35.0 15.6
  endloop
endfacet
facet normal -2.2117313668106564e-17 1.0 -8.355179889498324e-17
  outer loop
    vertex 49.0 35.0 15.6
    vertex 0.9999999999999981 35.0 1.5999999999999999
    vertex 0.9999999999999981 35.0 15.6
  endloop
endfacet
facet normal -1.0 0.0 0.0
  outer loop
    vertex 49.0 68.00000000000003 15.6
    vertex 49.0 35.0 0.6
    vertex 49.0 35.0 15.6
  endloop
endfacet
facet normal -1.0 0.0 0.0
  outer loop
    vertex 49.0 35.0 0.6
    vertex 49.0 68.00000000000003 15.6
    vertex 49.0 67.00000000000003 0.6
  endloop
endfacet
facet normal -1.0 0.0 0.0
  outer loop
    vertex 49.0 67.00000000000003 0.6
    vertex 49.0 68.00000000000003 15.6
    vertex 49.0 68.00000000000003 1.5999999999999999
  endloop
endfacet
facet normal -1.0 0.0 0.0
  outer loop
    vertex 0.0 34.0 15.6
    vertex 0.0 0.0 2.5999999999999996
    vertex 0.0 0.0 15.6
  endloop
endfacet
facet normal -1.0 0.0 0.0
  outer loop
    vertex 0.0 0.0 2.5999999999999996
    vertex 0.0 34.0 15.6
    vertex 0.0 69.00000000000003 2.5999999999999996
  endloop
endfacet
facet normal -1.0 0.0 0.0
  outer loop
    vertex 0.0 69.00000000000003 2.5999999999999996
    vertex 0.0 34.0 15.6
    vertex 0.0 69.00000000000003 15.6
  endloop
endfacet
facet normal -0.0 1.0 -0.0
  outer loop
    vertex 0.0 69.00000000000003 15.6
    vertex 99.00000000000003 69.00000000000003 2.5999999999999996
    vertex 0.0 69.00000000000003 2.5999999999999996
  endloop
endfacet
facet normal -0.0 1.0 -0.0
  outer loop
    vertex 99.00000000000003 69.00000000000003 2.5999999999999996
    vertex 0.0 69.00000000000003 15.6
    vertex 99.00000000000003 69.00000000000003 15.6
  endloop
endfacet
facet normal -0.0 1.0 -0.0
  outer loop
    vertex 99.00000000000003 69.00000000000003 15.6
    vertex 0.0 69.00000000000003 15.6
    vertex 49.0 69.00000000000003 15.6
  endloop
endfacet
facet normal 0.0 0.0 -1.0
  outer loop
    vertex 99.00000000000003 69.00000000000003 0.0
    vertex 0.0 0.0 0.0
    vertex 0.0 69.00000000000003 0.0
  endloop
endfacet
facet normal 0.0 0.0 -1.0
  outer loop
    vertex 0.0 0.0 0.0
    vertex 99.00000000000003 69.00000000000003 0.0
    vertex 99.00000000000003 0.0 0.0
  endloop
endfacet
facet normal 0.0 -1.0 0.0
  outer loop
    vertex 49.0 68.00000000000003 15.6
    vertex 0.9999999999999981 68.00000000000003 1.5999999999999999
    vertex 49.0 68.00000000000003 1.5999999999999999
  endloop
endfacet
facet normal 0.0 -1.0 0.0
  outer loop
    vertex 0.9999999999999981 68.00000000000003 1.5999999999999999
    vertex 49.0 68.00000000000003 15.6
    vertex 0.9999999999999981 68.00000000000003 15.6
  endloop
endfacet
facet normal -5.095046091429077e-17 1.0 -3.2105866828907896e-15
  outer loop
    vertex 50.00000000000001 35.0 1.6000000000000012
    vertex 97.00000000000003 35.0 0.6
    vertex 50.00000000000001 35.0 0.6
  endloop
endfacet
facet normal -5.095046091429077e-17 1.0 -3.2105866828907896e-15
  outer loop
    vertex 97.00000000000003 35.0 0.6
    vertex 50.00000000000001 35.0 1.6000000000000012
    vertex 98.00000000000003 35.0 0.6
  endloop
endfacet
facet normal -5.095046091429077e-17 1.0 -3.2105866828907896e-15
  outer loop
    vertex 98.00000000000003 35.0 0.6
    vertex 50.00000000000001 35.0 1.6000000000000012
    vertex 98.00000000000003 35.0 1.5999999999999999
  endloop
endfacet
facet normal -0.0 -0.0 1.0
  outer loop
    vertex 49.0 35.0 0.6
    vertex 1.9999999999999962 67.00000000000003 0.6
    vertex 1.9999999999999942 34.99999999999999 0.6
  endloop
endfacet
facet normal -0.0 -0.0 1.0
  outer loop
    vertex 1.9999999999999962 67.00000000000003 0.6
    vertex 49.0 35.0 0.6
    vertex 49.0 67.00000000000003 0.6
  endloop
endfacet
facet normal -0.0 -0.0 1.0
  outer loop
    vertex 97.00000000000003 35.0 0.6
    vertex 50.00000000000001 67.00000000000003 0.6
    vertex 50.00000000000001 35.0 0.6
  endloop
endfacet
facet normal -0.0 -0.0 1.0
  outer loop
    vertex 50.00000000000001 67.00000000000003 0.6
    vertex 97.00000000000003 35.0 0.6
    vertex 97.00000000000003 67.00000000000003 0.6
  endloop
endfacet
facet normal -0.0 -0.0 1.0
  outer loop
    vertex 97.00000000000003 1.9999999999999962 0.6
    vertex 50.00000000000001 34.0 0.6
    vertex 50.00000000000001 1.9999999999999967 0.6
  endloop
endfacet
facet normal -0.0 -0.0 1.0
  outer loop
    vertex 50.00000000000001 34.0 0.6
    vertex 97.00000000000003 1.9999999999999962 0.6
    vertex 97.00000000000003 34.00000000000001 0.6
  endloop
endfacet
facet normal -0.0 -0.0 1.0
  outer loop
    vertex 1.9999999999999984 1.9999999999999971 0.6
    vertex 49.0 34.0 0.6
    vertex 1.9999999999999978 33.99999999999999 0.6
  endloop
endfacet
facet normal -0.0 -0.0 1.0
  outer loop
    vertex 49.0 34.0 0.6
    vertex 1.9999999999999984 1.9999999999999971 0.6
    vertex 49.0 1.9999999999999962 0.6
  endloop
endfacet
facet normal 0.0 -1.0 0.0
  outer loop
    vertex 98.00000000000003 68.00000000000003 15.6
    vertex 50.00000000000001 68.00000000000003 1.5999999999999999
    vertex 98.00000000000003 68.00000000000003 1.5999999999999999
  endloop
endfacet
facet normal 0.0 -1.0 0.0
  outer loop
    vertex 50.00000000000001 68.00000000000003 1.5999999999999999
    vertex 98.00000000000003 68.00000000000003 15.6
    vertex 50.00000000000001 68.00000000000003 15.6
  endloop
endfacet
facet normal 1.0 -0.0 -0.0
  outer loop
    vertex 0.9999999999999981 68.00000000000003 1.5999999999999999
    vertex 0.9999999999999981 35.0 15.6
    vertex 0.9999999999999981 35.0 1.5999999999999999
  endloop
endfacet
facet normal 1.0 -0.0 -0.0
  outer loop
    vertex 0.9999999999999981 35.0 15.6
    vertex 0.9999999999999981 68.00000000000003 1.5999999999999999
    vertex 0.9999999999999981 68.00000000000003 15.6
  endloop
endfacet
facet normal -4.773380764729514e-17 1.0 -0.0
  outer loop
    vertex 1.0000000000000004 0.9999999999999981 15.6
    vertex 49.0 1.0000000000000004 1.5999999999999999
    vertex 1.0000000000000004 0.9999999999999981 1.5999999999999999
  endloop
endfacet
facet normal -4.773380764729514e-17 1.0 -0.0
  outer loop
    vertex 49.0 1.0000000000000004 1.5999999999999999
    vertex 1.0000000000000004 0.9999999999999981 15.6
    vertex 49.0 1.0000000000000004 15.6
  endloop
endfacet
facet normal -4.773380764729512e-17 1.0 -0.0
  outer loop
    vertex 50.00000000000001 0.9999999999999981 15.6
    vertex 98.00000000000003 1.0000000000000004 1.5999999999999999
    vertex 50.00000000000001 0.9999999999999981 1.5999999999999999
  endloop
endfacet
facet normal -4.773380764729512e-17 1.0 -0.0
  outer loop
    vertex 98.00000000000003 1.0000000000000004 1.5999999999999999
    vertex 50.00000000000001 0.9999999999999981 15.6
    vertex 98.00000000000003 1.0000000000000004 15.6
  endloop
endfacet
facet normal -1.0 0.0 0.0
  outer loop
    vertex 98.00000000000003 34.0 15.6
    vertex 98.00000000000003 1.0000000000000004 1.5999999999999999
    vertex 98.00000000000003 1.0000000000000004 15.6
  endloop
endfacet
facet normal -1.0 0.0 0.0
  outer loop
    vertex 98.00000000000003 1.0000000000000004 1.5999999999999999
    vertex 98.00000000000003 34.0 15.6
    vertex 98.00000000000003 34.00000000000001 1.5999999999999999
  endloop
endfacet
facet normal -1.0 0.0 0.0
  outer loop
    vertex 98.00000000000003 68.00000000000003 15.6
    vertex 98.00000000000003 35.0 1.5999999999999999
    vertex 98.00000000000003 35.0 15.6
  endloop
endfacet
facet normal -1.0 0.0 0.0
  outer loop
    vertex 98.00000000000003 35.0 1.5999999999999999
    vertex 98.00000000000003 68.00000000000003 15.6
    vertex 98.00000000000003 68.00000000000003 1.5999999999999999
  endloop
endfacet
facet normal -0.0 -0.0 1.0
  outer loop
    vertex 97.00000000000003 34.00000000000001 0.6
    vertex 50.00000000000001 35.0 0.6
    vertex 50.00000000000001 34.0 0.6
  endloop
endfacet
facet normal -0.0 -0.0 1.0
  outer loop
    vertex 50.00000000000001 35.0 0.6
    vertex 97.00000000000003 34.00000000000001 0.6
    vertex 97.00000000000003 35.0 0.6
  endloop
endfacet
facet normal -0.0 -0.0 1.0
  outer loop
    vertex 50.00000000000001 1.9999999999999967 0.6
    vertex 49.0 34.0 0.6
    vertex 49.0 1.9999999999999962 0.6
  endloop
endfacet
facet normal -0.0 -0.0 1.0
  outer loop
    vertex 49.0 34.0 0.6
    vertex 50.00000000000001 1.9999999999999967 0.6
    vertex 49.0 35.0 0.6
  endloop
endfacet
facet normal -0.0 -0.0 1.0
  outer loop
    vertex 49.0 35.0 0.6
    vertex 50.00000000000001 1.9999999999999967 0.6
    vertex 49.0 67.00000000000003 0.6
  endloop
endfacet
facet normal -0.0 -0.0 1.0
  outer loop
    vertex 49.0 67.00000000000003 0.6
    vertex 50.00000000000001 1.9999999999999967 0.6
    vertex 50.00000000000001 67.00000000000003 0.6
  endloop
endfacet
facet normal -0.0 -0.0 1.0
  outer loop
    vertex 50.00000000000001 67.00000000000003 0.6
    vertex 50.00000000000001 1.9999999999999967 0.6
    vertex 50.00000000000001 34.0 0.6
  endloop
endfacet
facet normal -0.0 -0.0 1.0
  outer loop
    vertex 50.00000000000001 67.00000000000003 0.6
    vertex 50.00000000000001 34.0 0.6
    vertex 50.00000000000001 35.0 0.6
  endloop
endfacet
facet normal -0.0 -0.0 1.0
  outer loop
    vertex 1.9999999999999978 33.99999999999999 0.6
    vertex 49.0 35.0 0.6
    vertex 1.9999999999999942 34.99999999999999 0.6
  endloop
endfacet
facet normal -0.0 -0.0 1.0
  outer loop
    vertex 49.0 35.0 0.6
    vertex 1.9999999999999978 33.99999999999999 0.6
    vertex 49.0 34.0 0.6
  endloop
endfacet
facet normal -1.0 0.0 0.0
  outer loop
    vertex 49.0 1.9999999999999962 0.6
    vertex 49.0 1.0000000000000004 0.6
    vertex 49.0 1.0000000000000004 1.5999999999999999
  endloop
endfacet
facet normal -1.1572811143882157e-17 0.7071067811865483 0.7071067811865467
  outer loop
    vertex 1.0000000000000004 0.9999999999999981 1.5999999999999999
    vertex 49.0 1.9999999999999962 0.6
    vertex 1.9999999999999984 1.9999999999999971 0.6
  endloop
endfacet
facet normal -1.1572811143882157e-17 0.7071067811865483 0.7071067811865467
  outer loop
    vertex 49.0 1.9999999999999962 0.6
    vertex 1.0000000000000004 0.9999999999999981 1.5999999999999999
    vertex 49.0 1.0000000000000004 1.5999999999999999
  endloop
endfacet
facet normal 1.0 -0.0 -0.0
  outer loop
    vertex 50.00000000000001 1.9999999999999967 0.6
    vertex 50.00000000000001 0.9999999999999981 1.5999999999999999
    vertex 50.00000000000001 0.9999999999999981 0.6
  endloop
endfacet
facet normal -1.4307198502460508e-17 0.7071067811865485 0.7071067811865467
  outer loop
    vertex 50.00000000000001 0.9999999999999981 1.5999999999999999
    vertex 97.00000000000003 1.9999999999999962 0.6
    vertex 50.00000000000001 1.9999999999999967 0.6
  endloop
endfacet
facet normal -1.4307198502460508e-17 0.7071067811865485 0.7071067811865467
  outer loop
    vertex 97.00000000000003 1.9999999999999962 0.6
    vertex 50.00000000000001 0.9999999999999981 1.5999999999999999
    vertex 98.00000000000003 1.0000000000000004 1.5999999999999999
  endloop
endfacet
facet normal -5.6399329650958115e-15 -1.0 -7.515305309606554e-30
  outer loop
    vertex 0.9999999999999992 34.0 1.5999999999999999
    vertex 1.0000000000000004 34.0 0.6
    vertex 1.9999999999999978 33.99999999999999 0.6
  endloop
endfacet
facet normal 0.7071067811865481 2.0470108954163764e-17 0.707106781186547
  outer loop
    vertex 1.9999999999999984 1.9999999999999971 0.6
    vertex 0.9999999999999992 34.0 1.5999999999999999
    vertex 1.0000000000000004 0.9999999999999981 1.5999999999999999
  endloop
endfacet
facet normal 0.7071067811865481 2.0470108954163764e-17 0.707106781186547
  outer loop
    vertex 0.9999999999999992 34.0 1.5999999999999999
    vertex 1.9999999999999984 1.9999999999999971 0.6
    vertex 1.9999999999999978 33.99999999999999 0.6
  endloop
endfacet
facet normal -5.639932965095807e-15 -1.0 5.639932965095798e-15
  outer loop
    vertex 98.00000000000003 34.00000000000001 1.5999999999999999
    vertex 97.00000000000003 34.00000000000001 0.6
    vertex 98.00000000000003 34.0 0.6
  endloop
endfacet
facet normal -0.7071067811865481 -5.899166845580335e-19 0.707106781186547
  outer loop
    vertex 98.00000000000003 34.00000000000001 1.5999999999999999
    vertex 97.00000000000003 1.9999999999999962 0.6
    vertex 98.00000000000003 1.0000000000000004 1.5999999999999999
  endloop
endfacet
facet normal -0.7071067811865481 -5.899166845580335e-19 0.707106781186547
  outer loop
    vertex 97.00000000000003 1.9999999999999962 0.6
    vertex 98.00000000000003 34.00000000000001 1.5999999999999999
    vertex 97.00000000000003 34.00000000000001 0.6
  endloop
endfacet
facet normal -1.0 0.0 0.0
  outer loop
    vertex 49.0 68.00000000000003 0.6
    vertex 49.0 67.00000000000003 0.6
    vertex 49.0 68.00000000000003 1.5999999999999999
  endloop
endfacet
facet normal -9.943226758466763e-19 -0.7071067811865481 0.7071067811865469
  outer loop
    vertex 49.0 68.00000000000003 1.5999999999999999
    vertex 1.9999999999999962 67.00000000000003 0.6
    vertex 49.0 67.00000000000003 0.6
  endloop
endfacet
facet normal -9.943226758466763e-19 -0.7071067811865481 0.7071067811865469
  outer loop
    vertex 1.9999999999999962 67.00000000000003 0.6
    vertex 49.0 68.00000000000003 1.5999999999999999
    vertex 0.9999999999999981 68.00000000000003 1.5999999999999999
  endloop
endfacet
facet normal -0.707106781186548 -1.286518989706434e-18 0.707106781186547
  outer loop
    vertex 98.00000000000003 35.0 1.5999999999999999
    vertex 97.00000000000003 34.00000000000001 0.6
    vertex 98.00000000000003 34.00000000000001 1.5999999999999999
  endloop
endfacet
facet normal -0.707106781186548 -1.286518989706434e-18 0.707106781186547
  outer loop
    vertex 97.00000000000003 34.00000000000001 0.6
    vertex 98.00000000000003 35.0 1.5999999999999999
    vertex 97.00000000000003 35.0 0.6
  endloop
endfacet
facet normal -0.707106781186548 -1.286518989706434e-18 0.707106781186547
  outer loop
    vertex 97.00000000000003 35.0 0.6
    vertex 98.00000000000003 35.0 1.5999999999999999
    vertex 97.00000000000003 67.00000000000003 0.6
  endloop
endfacet
facet normal -0.707106781186548 -1.286518989706434e-18 0.707106781186547
  outer loop
    vertex 97.00000000000003 67.00000000000003 0.6
    vertex 98.00000000000003 35.0 1.5999999999999999
    vertex 98.00000000000003 68.00000000000003 1.5999999999999999
  endloop
endfacet
facet normal 1.0 -0.0 -0.0
  outer loop
    vertex 50.00000000000001 68.00000000000003 1.5999999999999999
    vertex 50.00000000000001 67.00000000000003 0.6
    vertex 50.00000000000001 68.00000000000003 0.6
  endloop
endfacet
facet normal -4.419211892651892e-19 -0.707106781186548 0.707106781186547
  outer loop
    vertex 98.00000000000003 68.00000000000003 1.5999999999999999
    vertex 50.00000000000001 67.00000000000003 0.6
    vertex 97.00000000000003 67.00000000000003 0.6
  endloop
endfacet
facet normal -4.419211892651892e-19 -0.707106781186548 0.707106781186547
  outer loop
    vertex 50.00000000000001 67.00000000000003 0.6
    vertex 98.00000000000003 68.00000000000003 1.5999999999999999
    vertex 50.00000000000001 68.00000000000003 1.5999999999999999
  endloop
endfacet
facet normal 5.639932965095817e-15 1.0 4.697065818504108e-31
  outer loop
    vertex 0.9999999999999981 35.0 1.5999999999999999
    vertex 1.9999999999999942 34.99999999999999 0.6
    vertex 0.9999999999999981 35.0 0.6
  endloop
endfacet
facet normal 0.7071067811865486 -2.3006750697763275e-17 0.7071067811865466
  outer loop
    vertex 1.9999999999999962 67.00000000000003 0.6
    vertex 0.9999999999999981 35.0 1.5999999999999999
    vertex 1.9999999999999942 34.99999999999999 0.6
  endloop
endfacet
facet normal 0.7071067811865486 -2.3006750697763275e-17 0.7071067811865466
  outer loop
    vertex 0.9999999999999981 35.0 1.5999999999999999
    vertex 1.9999999999999962 67.00000000000003 0.6
    vertex 0.9999999999999981 68.00000000000003 1.5999999999999999
  endloop
endfacet
facet normal -0.0 -0.0 1.0
  outer loop
    vertex -2.9999999999999987 -2.9999999999999987 0.0
    vertex 0.0 0.0 0.0
    vertex -2.9999999999999987 72.00000000000003 0.0
  endloop
endfacet
facet normal -0.0 -0.0 1.0
  outer loop
    vertex 0.0 0.0 0.0
    vertex -2.9999999999999987 -2.9999999999999987 0.0
    vertex 102.00000000000001 -2.9999999999999987 0.0
  endloop
endfacet
facet normal -0.0 -0.0 1.0
  outer loop
    vertex 0.0 0.0 0.0
    vertex 102.00000000000001 -2.9999999999999987 0.0
    vertex 99.00000000000003 0.0 0.0
  endloop
endfacet
facet normal -0.0 -0.0 1.0
  outer loop
    vertex 99.00000000000003 0.0 0.0
    vertex 102.00000000000001 -2.9999999999999987 0.0
    vertex 99.00000000000003 69.00000000000003 0.0
  endloop
endfacet
facet normal -0.0 -0.0 1.0
  outer loop
    vertex -2.9999999999999987 72.00000000000003 0.0
    vertex 0.0 69.00000000000003 0.0
    vertex 102.00000000000001 72.00000000000003 0.0
  endloop
endfacet
facet normal -0.0 -0.0 1.0
  outer loop
    vertex 0.0 69.00000000000003 0.0
    vertex -2.9999999999999987 72.00000000000003 0.0
    vertex 0.0 0.0 0.0
  endloop
endfacet
facet normal -0.0 -0.0 1.0
  outer loop
    vertex 102.00000000000001 72.00000000000003 0.0
    vertex 0.0 69.00000000000003 0.0
    vertex 99.00000000000003 69.00000000000003 0.0
  endloop
endfacet
facet normal -0.0 -0.0 1.0
  outer loop
    vertex 102.00000000000001 72.00000000000003 0.0
    vertex 99.00000000000003 69.00000000000003 0.0
    vertex 102.00000000000001 -2.9999999999999987 0.0
  endloop
endfacet
facet normal -0.0 -0.654930538417842 0.7556890827898175
  outer loop
    vertex 102.00000000000001 -2.9999999999999987 0.0
    vertex 0.0 0.0 2.5999999999999996
    vertex -2.9999999999999987 -2.9999999999999987 0.0
  endloop
endfacet
facet normal -0.0 -0.654930538417842 0.7556890827898175
  outer loop
    vertex 0.0 0.0 2.5999999999999996
    vertex 102.00000000000001 -2.9999999999999987 0.0
    vertex 99.00000000000003 0.0 2.5999999999999996
  endloop
endfacet
facet normal -0.654930538417842 -1.7372056701727936e-19 0.7556890827898175
  outer loop
    vertex 0.0 0.0 2.5999999999999996
    vertex -2.9999999999999987 72.00000000000003 0.0
    vertex -2.9999999999999987 -2.9999999999999987 0.0
  endloop
endfacet
facet normal -0.654930538417842 -1.7372056701727936e-19 0.7556890827898175
  outer loop
    vertex -2.9999999999999987 72.00000000000003 0.0
    vertex 0.0 0.0 2.5999999999999996
    vertex 0.0 69.00000000000003 2.5999999999999996
  endloop
endfacet
facet normal -0.0 0.6549305384178425 0.755689082789817
  outer loop
    vertex 0.0 69.00000000000003 2.5999999999999996
    vertex 102.00000000000001 72.00000000000003 0.0
    vertex -2.9999999999999987 72.00000000000003 0.0
  endloop
endfacet
facet normal -0.0 0.6549305384178425 0.755689082789817
  outer loop
    vertex 102.00000000000001 72.00000000000003 0.0
    vertex 0.0 69.00000000000003 2.5999999999999996
    vertex 99.00000000000003 69.00000000000003 2.5999999999999996
  endloop
endfacet
facet normal 0.6549305384178425 -1.7372056701727763e-19 0.755689082789817
  outer loop
    vertex 102.00000000000001 -2.9999999999999987 0.0
    vertex 99.00000000000003 69.00000000000003 2.5999999999999996
    vertex 99.00000000000003 0.0 2.5999999999999996
  endloop
endfacet
facet normal 0.6549305384178425 -1.7372056701727763e-19 0.755689082789817
  outer loop
    vertex 99.00000000000003 69.00000000000003 2.5999999999999996
    vertex 102.00000000000001 -2.9999999999999987 0.0
    vertex 102.00000000000001 72.00000000000003 0.0
  endloop
endfacet
facet normal -0.0 1.0 -0.0
  outer loop
    vertex 0.0 69.00000000000003 2.5999999999999996
    vertex 99.00000000000003 69.00000000000003 0.0
    vertex 0.0 69.00000000000003 0.0
  endloop
endfacet
facet normal -0.0 1.0 -0.0
  outer loop
    vertex 99.00000000000003 69.00000000000003 0.0
    vertex 0.0 69.00000000000003 2.5999999999999996
    vertex 99.00000000000003 69.00000000000003 2.5999999999999996
  endloop
endfacet
facet normal -1.0 0.0 0.0
  outer loop
    vertex 0.0 69.00000000000003 2.5999999999999996
    vertex 0.0 0.0 0.0
    vertex 0.0 0.0 2.5999999999999996
  endloop
endfacet
facet normal -1.0 0.0 0.0
  outer loop
    vertex 0.0 0.0 0.0
    vertex 0.0 69.00000000000003 2.5999999999999996
    vertex 0.0 69.00000000000003 0.0
  endloop
endfacet
facet normal 0.0 -1.0 0.0
  outer loop
    vertex 99.00000000000003 0.0 2.5999999999999996
    vertex 0.0 0.0 0.0
    vertex 99.00000000000003 0.0 0.0
  endloop
endfacet
facet normal 0.0 -1.0 0.0
  outer loop
    vertex 0.0 0.0 0.0
    vertex 99.00000000000003 0.0 2.5999999999999996
    vertex 0.0 0.0 2.5999999999999996
  endloop
endfacet
facet normal 1.0 -0.0 -0.0
  outer loop
    vertex 99.00000000000003 69.00000000000003 0.0
    vertex 99.00000000000003 0.0 2.5999999999999996
    vertex 99.00000000000003 0.0 0.0
  endloop
endfacet
facet normal 1.0 -0.0 -0.0
  outer loop
    vertex 99.00000000000003 0.0 2.5999999999999996
    vertex 99.00000000000003 69.00000000000003 0.0
    vertex 99.00000000000003 69.00000000000003 2.5999999999999996
  endloop
endfacet
facet normal 2.836969492555836e-34 -5.55723545834571e-32 1.0
  outer loop
    vertex 1.0000000000000004 34.0 15.6
    vertex 0.0 69.00000000000003 15.6
    vertex 0.0 34.0 15.6
  endloop
endfacet
facet normal 2.836969492555836e-34 -5.55723545834571e-32 1.0
  outer loop
    vertex 0.0 69.00000000000003 15.6
    vertex 1.0000000000000004 34.0 15.6
    vertex 0.9999999999999981 35.0 15.6
  endloop
endfacet
facet normal 2.836969492555836e-34 -5.55723545834571e-32 1.0
  outer loop
    vertex 0.9999999999999981 35.0 15.6
    vertex 1.0000000000000004 34.0 15.6
    vertex 49.0 35.0 15.6
  endloop
endfacet
facet normal 2.836969492555836e-34 -5.55723545834571e-32 1.0
  outer loop
    vertex 49.0 35.0 15.6
    vertex 1.0000000000000004 34.0 15.6
    vertex 49.0 34.0 15.6
  endloop
endfacet
facet normal 2.836969492555836e-34 -5.55723545834571e-32 1.0
  outer loop
    vertex 99.00000000000003 34.0 15.6
    vertex 98.00000000000003 35.0 15.6
    vertex 98.00000000000003 34.0 15.6
  endloop
endfacet
facet normal 2.836969492555836e-34 -5.55723545834571e-32 1.0
  outer loop
    vertex 98.00000000000003 35.0 15.6
    vertex 99.00000000000003 34.0 15.6
    vertex 98.00000000000003 68.00000000000003 15.6
  endloop
endfacet
facet normal 2.836969492555836e-34 -5.55723545834571e-32 1.0
  outer loop
    vertex 49.0 69.00000000000003 15.6
    vertex 50.00000000000001 68.00000000000003 15.6
    vertex 99.00000000000003 69.00000000000003 15.6
  endloop
endfacet
facet normal 2.836969492555836e-34 -5.55723545834571e-32 1.0
  outer loop
    vertex 50.00000000000001 68.00000000000003 15.6
    vertex 49.0 69.00000000000003 15.6
    vertex 50.00000000000001 0.9999999999999981 15.6
  endloop
endfacet
facet normal 2.836969492555836e-34 -5.55723545834571e-32 1.0
  outer loop
    vertex 50.00000000000001 68.00000000000003 15.6
    vertex 50.00000000000001 0.9999999999999981 15.6
    vertex 50.00000000000001 34.0 15.6
  endloop
endfacet
facet normal 2.836969492555836e-34 -5.55723545834571e-32 1.0
  outer loop
    vertex 50.00000000000001 68.00000000000003 15.6
    vertex 50.00000000000001 34.0 15.6
    vertex 50.00000000000001 35.0 15.6
  endloop
endfacet
facet normal 2.836969492555836e-34 -5.55723545834571e-32 1.0
  outer loop
    vertex 99.00000000000003 69.00000000000003 15.6
    vertex 50.00000000000001 68.00000000000003 15.6
    vertex 98.00000000000003 68.00000000000003 15.6
  endloop
endfacet
facet normal 2.836969492555836e-34 -5.55723545834571e-32 1.0
  outer loop
    vertex 99.00000000000003 69.00000000000003 15.6
    vertex 98.00000000000003 68.00000000000003 15.6
    vertex 99.00000000000003 34.0 15.6
  endloop
endfacet
facet normal 2.836969492555836e-34 -5.55723545834571e-32 1.0
  outer loop
    vertex 99.00000000000003 0.0 15.6
    vertex 49.0 1.0000000000000004 15.6
    vertex 49.0 0.0 15.6
  endloop
endfacet
facet normal 2.836969492555836e-34 -5.55723545834571e-32 1.0
  outer loop
    vertex 49.0 1.0000000000000004 15.6
    vertex 99.00000000000003 0.0 15.6
    vertex 50.00000000000001 0.9999999999999981 15.6
  endloop
endfacet
facet normal 2.836969492555836e-34 -5.55723545834571e-32 1.0
  outer loop
    vertex 49.0 1.0000000000000004 15.6
    vertex 50.00000000000001 0.9999999999999981 15.6
    vertex 49.0 34.0 15.6
  endloop
endfacet
facet normal 2.836969492555836e-34 -5.55723545834571e-32 1.0
  outer loop
    vertex 49.0 34.0 15.6
    vertex 50.00000000000001 0.9999999999999981 15.6
    vertex 49.0 35.0 15.6
  endloop
endfacet
facet normal 2.836969492555836e-34 -5.55723545834571e-32 1.0
  outer loop
    vertex 49.0 35.0 15.6
    vertex 50.00000000000001 0.9999999999999981 15.6
    vertex 49.0 68.00000000000003 15.6
  endloop
endfacet
facet normal 2.836969492555836e-34 -5.55723545834571e-32 1.0
  outer loop
    vertex 49.0 68.00000000000003 15.6
    vertex 50.00000000000001 0.9999999999999981 15.6
    vertex 49.0 69.00000000000003 15.6
  endloop
endfacet
facet normal 2.836969492555836e-34 -5.55723545834571e-32 1.0
  outer loop
    vertex 50.00000000000001 0.9999999999999981 15.6
    vertex 99.00000000000003 0.0 15.6
    vertex 98.00000000000003 1.0000000000000004 15.6
  endloop
endfacet
facet normal 2.836969492555836e-34 -5.55723545834571e-32 1.0
  outer loop
    vertex 98.00000000000003 1.0000000000000004 15.6
    vertex 99.00000000000003 0.0 15.6
    vertex 98.00000000000003 34.0 15.6
  endloop
endfacet
facet normal 2.836969492555836e-34 -5.55723545834571e-32 1.0
  outer loop
    vertex 98.00000000000003 34.0 15.6
    vertex 99.00000000000003 0.0 15.6
    vertex 99.00000000000003 34.0 15.6
  endloop
endfacet
facet normal 2.836969492555836e-34 -5.55723545834571e-32 1.0
  outer loop
    vertex 0.0 69.00000000000003 15.6
    vertex 0.9999999999999981 68.00000000000003 15.6
    vertex 49.0 69.00000000000003 15.6
  endloop
endfacet
facet normal 2.836969492555836e-34 -5.55723545834571e-32 1.0
  outer loop
    vertex 0.9999999999999981 68.00000000000003 15.6
    vertex 0.0 69.00000000000003 15.6
    vertex 0.9999999999999981 35.0 15.6
  endloop
endfacet
facet normal 2.836969492555836e-34 -5.55723545834571e-32 1.0
  outer loop
    vertex 49.0 69.00000000000003 15.6
    vertex 0.9999999999999981 68.00000000000003 15.6
    vertex 49.0 68.00000000000003 15.6
  endloop
endfacet
facet normal -1.0 0.0 0.0
  outer loop
    vertex 98.00000000000003 35.0 15.6
    vertex 98.00000000000003 34.00000000000001 1.5999999999999999
    vertex 98.00000000000003 34.0 15.6
  endloop
endfacet
facet normal -1.0 0.0 0.0
  outer loop
    vertex 98.00000000000003 34.00000000000001 1.5999999999999999
    vertex 98.00000000000003 35.0 15.6
    vertex 98.00000000000003 35.0 1.5999999999999999
  endloop
endfacet
facet normal 2.937465085987392e-17 -3.624054475181138e-33 1.0
  outer loop
    vertex 98.00000000000003 34.00000000000001 1.5999999999999999
    vertex 50.00000000000001 35.0 1.6000000000000012
    vertex 50.00000000000001 34.0 1.6000000000000012
  endloop
endfacet
facet normal 2.937465085987392e-17 -3.624054475181138e-33 1.0
  outer loop
    vertex 50.00000000000001 35.0 1.6000000000000012
    vertex 98.00000000000003 34.00000000000001 1.5999999999999999
    vertex 98.00000000000003 35.0 1.5999999999999999
  endloop
endfacet
facet normal 1.0 0.0 0.0
  outer loop
    vertex 50.00000000000001 35.0 1.6000000000000012
    vertex 50.00000000000001 34.0 15.6
    vertex 50.00000000000001 34.0 1.6000000000000012
  endloop
endfacet
facet normal 1.0 0.0 0.0
  outer loop
    vertex 50.00000000000001 34.0 15.6
    vertex 50.00000000000001 35.0 1.6000000000000012
    vertex 50.00000000000001 35.0 15.6
  endloop
endfacet
endsolid 3х-ГоризонтКасса-35х50х15-abs
