solid Продолжитель шпильки
facet normal 0.0 0.0 -1.0
  outer loop
    vertex -4.242640687119285 4.242640687119286 0.0
    vertex -3.863703305156272 1.035276180410084 0.0
    vertex -3.999999999999999 4.898587196589412e-16 0.0
  endloop
endfacet
facet normal 0.0 0.0 -1.0
  outer loop
    vertex -3.863703305156272 1.035276180410084 0.0
    vertex -4.242640687119285 4.242640687119286 0.0
    vertex -2.9999999999999982 5.196152422706632 0.0
  endloop
endfacet
facet normal 0.0 0.0 -1.0
  outer loop
    vertex -3.863703305156272 1.035276180410084 0.0
    vertex -2.9999999999999982 5.196152422706632 0.0
    vertex -3.464101615137753 2.0000000000000013 0.0
  endloop
endfacet
facet normal 0.0 0.0 -1.0
  outer loop
    vertex -3.464101615137753 2.0000000000000013 0.0
    vertex -2.9999999999999982 5.196152422706632 0.0
    vertex -2.8284271247461894 2.8284271247461903 0.0
  endloop
endfacet
facet normal 0.0 0.0 -1.0
  outer loop
    vertex -2.8284271247461894 2.8284271247461903 0.0
    vertex -2.9999999999999982 5.196152422706632 0.0
    vertex -1.5529142706151238 5.79555495773441 0.0
  endloop
endfacet
facet normal 0.0 0.0 -1.0
  outer loop
    vertex -2.8284271247461894 2.8284271247461903 0.0
    vertex -1.5529142706151238 5.79555495773441 0.0
    vertex -1.9999999999999984 3.4641016151377544 0.0
  endloop
endfacet
facet normal 0.0 0.0 -1.0
  outer loop
    vertex -1.9999999999999984 3.4641016151377544 0.0
    vertex -1.5529142706151238 5.79555495773441 0.0
    vertex -1.0352761804100823 3.863703305156273 0.0
  endloop
endfacet
facet normal 0.0 0.0 -1.0
  outer loop
    vertex -1.0352761804100823 3.863703305156273 0.0
    vertex -1.5529142706151238 5.79555495773441 0.0
    vertex 3.6739403974420594e-16 6.0 0.0
  endloop
endfacet
facet normal 0.0 0.0 -1.0
  outer loop
    vertex -1.0352761804100823 3.863703305156273 0.0
    vertex 3.6739403974420594e-16 6.0 0.0
    vertex 2.449293598294706e-16 3.9999999999999996 0.0
  endloop
endfacet
facet normal 0.0 0.0 -1.0
  outer loop
    vertex 2.449293598294706e-16 3.9999999999999996 0.0
    vertex 3.6739403974420594e-16 6.0 0.0
    vertex 1.0352761804100836 3.863703305156273 0.0
  endloop
endfacet
facet normal 0.0 0.0 -1.0
  outer loop
    vertex 1.0352761804100836 3.863703305156273 0.0
    vertex 3.6739403974420594e-16 6.0 0.0
    vertex 1.5529142706151258 5.79555495773441 0.0
  endloop
endfacet
facet normal 0.0 0.0 -1.0
  outer loop
    vertex 1.0352761804100836 3.863703305156273 0.0
    vertex 1.5529142706151258 5.79555495773441 0.0
    vertex 1.9999999999999998 3.464101615137754 0.0
  endloop
endfacet
facet normal 0.0 0.0 -1.0
  outer loop
    vertex 1.9999999999999998 3.464101615137754 0.0
    vertex 1.5529142706151258 5.79555495773441 0.0
    vertex 3.0000000000000004 5.196152422706631 0.0
  endloop
endfacet
facet normal 0.0 0.0 -1.0
  outer loop
    vertex 1.9999999999999998 3.464101615137754 0.0
    vertex 3.0000000000000004 5.196152422706631 0.0
    vertex 2.82842712474619 2.8284271247461903 0.0
  endloop
endfacet
facet normal 0.0 0.0 -1.0
  outer loop
    vertex 2.82842712474619 2.8284271247461903 0.0
    vertex 3.0000000000000004 5.196152422706631 0.0
    vertex 3.464101615137754 1.9999999999999996 0.0
  endloop
endfacet
facet normal 0.0 0.0 -1.0
  outer loop
    vertex 3.464101615137754 1.9999999999999996 0.0
    vertex 3.0000000000000004 5.196152422706631 0.0
    vertex 4.242640687119285 4.242640687119286 0.0
  endloop
endfacet
facet normal 0.0 0.0 -1.0
  outer loop
    vertex 3.464101615137754 1.9999999999999996 0.0
    vertex 4.242640687119285 4.242640687119286 0.0
    vertex 3.863703305156272 1.035276180410083 0.0
  endloop
endfacet
facet normal 0.0 0.0 -1.0
  outer loop
    vertex 3.863703305156272 1.035276180410083 0.0
    vertex 4.242640687119285 4.242640687119286 0.0
    vertex 3.999999999999999 0.0 0.0
  endloop
endfacet
facet normal 0.0 0.0 -1.0
  outer loop
    vertex 3.999999999999999 0.0 0.0
    vertex 4.242640687119285 4.242640687119286 0.0
    vertex 4.242640687119284 -4.2426406871192865 0.0
  endloop
endfacet
facet normal 0.0 0.0 -1.0
  outer loop
    vertex 4.242640687119284 -4.2426406871192865 0.0
    vertex 4.242640687119285 4.242640687119286 0.0
    vertex 5.19615242270663 -3.000000000000003 0.0
  endloop
endfacet
facet normal 0.0 0.0 -1.0
  outer loop
    vertex 5.19615242270663 -3.000000000000003 0.0
    vertex 4.242640687119285 4.242640687119286 0.0
    vertex 5.196152422706631 3.0 0.0
  endloop
endfacet
facet normal 0.0 0.0 -1.0
  outer loop
    vertex 5.19615242270663 -3.000000000000003 0.0
    vertex 5.196152422706631 3.0 0.0
    vertex 5.795554957734408 -1.5529142706151295 0.0
  endloop
endfacet
facet normal 0.0 0.0 -1.0
  outer loop
    vertex 5.795554957734408 -1.5529142706151295 0.0
    vertex 5.196152422706631 3.0 0.0
    vertex 5.79555495773441 1.5529142706151244 0.0
  endloop
endfacet
facet normal 0.0 0.0 -1.0
  outer loop
    vertex 5.795554957734408 -1.5529142706151295 0.0
    vertex 5.79555495773441 1.5529142706151244 0.0
    vertex 6.0 0.0 0.0
  endloop
endfacet
facet normal 0.0 0.0 -1.0
  outer loop
    vertex -5.795554957734409 1.5529142706151262 0.0
    vertex -5.79555495773441 -1.5529142706151222 0.0
    vertex -6.0 7.34788079488412e-16 0.0
  endloop
endfacet
facet normal 0.0 0.0 -1.0
  outer loop
    vertex -5.79555495773441 -1.5529142706151222 0.0
    vertex -5.795554957734409 1.5529142706151262 0.0
    vertex -5.196152422706632 -2.9999999999999982 0.0
  endloop
endfacet
facet normal 0.0 0.0 -1.0
  outer loop
    vertex -5.196152422706632 -2.9999999999999982 0.0
    vertex -5.795554957734409 1.5529142706151262 0.0
    vertex -5.196152422706631 3.000000000000002 0.0
  endloop
endfacet
facet normal 0.0 0.0 -1.0
  outer loop
    vertex -5.196152422706632 -2.9999999999999982 0.0
    vertex -5.196152422706631 3.000000000000002 0.0
    vertex -4.242640687119287 -4.242640687119283 0.0
  endloop
endfacet
facet normal 0.0 0.0 -1.0
  outer loop
    vertex -4.242640687119287 -4.242640687119283 0.0
    vertex -5.196152422706631 3.000000000000002 0.0
    vertex -4.242640687119285 4.242640687119286 0.0
  endloop
endfacet
facet normal 0.0 0.0 -1.0
  outer loop
    vertex -4.242640687119287 -4.242640687119283 0.0
    vertex -4.242640687119285 4.242640687119286 0.0
    vertex -3.999999999999999 4.898587196589412e-16 0.0
  endloop
endfacet
facet normal 0.0 0.0 -1.0
  outer loop
    vertex -4.242640687119287 -4.242640687119283 0.0
    vertex -3.999999999999999 4.898587196589412e-16 0.0
    vertex -3.863703305156273 -1.0352761804100814 0.0
  endloop
endfacet
facet normal 0.0 0.0 -1.0
  outer loop
    vertex -4.242640687119287 -4.242640687119283 0.0
    vertex -3.863703305156273 -1.0352761804100814 0.0
    vertex -3.0000000000000027 -5.196152422706631 0.0
  endloop
endfacet
facet normal 0.0 0.0 -1.0
  outer loop
    vertex -3.0000000000000027 -5.196152422706631 0.0
    vertex -3.863703305156273 -1.0352761804100814 0.0
    vertex -3.4641016151377544 -1.999999999999999 0.0
  endloop
endfacet
facet normal 0.0 0.0 -1.0
  outer loop
    vertex -3.0000000000000027 -5.196152422706631 0.0
    vertex -3.4641016151377544 -1.999999999999999 0.0
    vertex -2.828427124746191 -2.8284271247461885 0.0
  endloop
endfacet
facet normal 0.0 0.0 -1.0
  outer loop
    vertex -3.0000000000000027 -5.196152422706631 0.0
    vertex -2.828427124746191 -2.8284271247461885 0.0
    vertex -1.552914270615129 -5.795554957734409 0.0
  endloop
endfacet
facet normal 0.0 0.0 -1.0
  outer loop
    vertex -1.552914270615129 -5.795554957734409 0.0
    vertex -2.828427124746191 -2.8284271247461885 0.0
    vertex -2.0000000000000013 -3.464101615137753 0.0
  endloop
endfacet
facet normal 0.0 0.0 -1.0
  outer loop
    vertex -1.552914270615129 -5.795554957734409 0.0
    vertex -2.0000000000000013 -3.464101615137753 0.0
    vertex -1.0352761804100858 -3.863703305156272 0.0
  endloop
endfacet
facet normal 0.0 0.0 -1.0
  outer loop
    vertex -1.552914270615129 -5.795554957734409 0.0
    vertex -1.0352761804100858 -3.863703305156272 0.0
    vertex -1.1021821192326177e-15 -6.0 0.0
  endloop
endfacet
facet normal 0.0 0.0 -1.0
  outer loop
    vertex -1.1021821192326177e-15 -6.0 0.0
    vertex -1.0352761804100858 -3.863703305156272 0.0
    vertex -7.347880794884117e-16 -3.9999999999999996 0.0
  endloop
endfacet
facet normal 0.0 0.0 -1.0
  outer loop
    vertex -1.1021821192326177e-15 -6.0 0.0
    vertex -7.347880794884117e-16 -3.9999999999999996 0.0
    vertex 1.5529142706151216 -5.79555495773441 0.0
  endloop
endfacet
facet normal 0.0 0.0 -1.0
  outer loop
    vertex 1.5529142706151216 -5.79555495773441 0.0
    vertex -7.347880794884117e-16 -3.9999999999999996 0.0
    vertex 1.035276180410081 -3.8637033051562732 0.0
  endloop
endfacet
facet normal 0.0 0.0 -1.0
  outer loop
    vertex 1.5529142706151216 -5.79555495773441 0.0
    vertex 1.035276180410081 -3.8637033051562732 0.0
    vertex 1.9999999999999967 -3.464101615137756 0.0
  endloop
endfacet
facet normal 0.0 0.0 -1.0
  outer loop
    vertex 1.5529142706151216 -5.79555495773441 0.0
    vertex 1.9999999999999967 -3.464101615137756 0.0
    vertex 2.9999999999999956 -5.196152422706635 0.0
  endloop
endfacet
facet normal 0.0 0.0 -1.0
  outer loop
    vertex 2.9999999999999956 -5.196152422706635 0.0
    vertex 1.9999999999999967 -3.464101615137756 0.0
    vertex 2.8284271247461885 -2.8284271247461903 0.0
  endloop
endfacet
facet normal 0.0 0.0 -1.0
  outer loop
    vertex 2.9999999999999956 -5.196152422706635 0.0
    vertex 2.8284271247461885 -2.8284271247461903 0.0
    vertex 3.4641016151377526 -2.0000000000000018 0.0
  endloop
endfacet
facet normal 0.0 0.0 -1.0
  outer loop
    vertex 2.9999999999999956 -5.196152422706635 0.0
    vertex 3.4641016151377526 -2.0000000000000018 0.0
    vertex 4.242640687119284 -4.2426406871192865 0.0
  endloop
endfacet
facet normal 0.0 0.0 -1.0
  outer loop
    vertex 4.242640687119284 -4.2426406871192865 0.0
    vertex 3.4641016151377526 -2.0000000000000018 0.0
    vertex 3.8637033051562715 -1.035276180410086 0.0
  endloop
endfacet
facet normal 0.0 0.0 -1.0
  outer loop
    vertex 4.242640687119284 -4.2426406871192865 0.0
    vertex 3.8637033051562715 -1.035276180410086 0.0
    vertex 3.999999999999999 0.0 0.0
  endloop
endfacet
facet normal -0.0 -0.0 1.0
  outer loop
    vertex -5.79555495773441 -1.5529142706151222 10.0
    vertex -5.795554957734409 1.5529142706151262 10.0
    vertex -6.0 7.34788079488412e-16 10.0
  endloop
endfacet
facet normal -0.0 -0.0 1.0
  outer loop
    vertex -5.795554957734409 1.5529142706151262 10.0
    vertex -5.79555495773441 -1.5529142706151222 10.0
    vertex -5.196152422706632 -2.9999999999999982 10.0
  endloop
endfacet
facet normal -0.0 -0.0 1.0
  outer loop
    vertex -5.795554957734409 1.5529142706151262 10.0
    vertex -5.196152422706632 -2.9999999999999982 10.0
    vertex -5.196152422706631 3.000000000000002 10.0
  endloop
endfacet
facet normal -0.0 -0.0 1.0
  outer loop
    vertex -5.196152422706631 3.000000000000002 10.0
    vertex -5.196152422706632 -2.9999999999999982 10.0
    vertex -4.242640687119287 -4.242640687119283 10.0
  endloop
endfacet
facet normal -0.0 -0.0 1.0
  outer loop
    vertex -5.196152422706631 3.000000000000002 10.0
    vertex -4.242640687119287 -4.242640687119283 10.0
    vertex -4.242640687119285 4.242640687119286 10.0
  endloop
endfacet
facet normal -0.0 -0.0 1.0
  outer loop
    vertex -4.242640687119285 4.242640687119286 10.0
    vertex -4.242640687119287 -4.242640687119283 10.0
    vertex -3.999999999999999 -4.898587196589412e-16 10.0
  endloop
endfacet
facet normal -0.0 -0.0 1.0
  outer loop
    vertex -3.999999999999999 -4.898587196589412e-16 10.0
    vertex -4.242640687119287 -4.242640687119283 10.0
    vertex -3.863703305156272 -1.035276180410084 10.0
  endloop
endfacet
facet normal -0.0 -0.0 1.0
  outer loop
    vertex -3.863703305156272 -1.035276180410084 10.0
    vertex -4.242640687119287 -4.242640687119283 10.0
    vertex -3.0000000000000027 -5.196152422706631 10.0
  endloop
endfacet
facet normal -0.0 -0.0 1.0
  outer loop
    vertex -3.863703305156272 -1.035276180410084 10.0
    vertex -3.0000000000000027 -5.196152422706631 10.0
    vertex -3.464101615137753 -2.0000000000000013 10.0
  endloop
endfacet
facet normal -0.0 -0.0 1.0
  outer loop
    vertex -3.464101615137753 -2.0000000000000013 10.0
    vertex -3.0000000000000027 -5.196152422706631 10.0
    vertex -2.8284271247461894 -2.8284271247461903 10.0
  endloop
endfacet
facet normal -0.0 -0.0 1.0
  outer loop
    vertex -2.8284271247461894 -2.8284271247461903 10.0
    vertex -3.0000000000000027 -5.196152422706631 10.0
    vertex -1.552914270615129 -5.795554957734409 10.0
  endloop
endfacet
facet normal -0.0 -0.0 1.0
  outer loop
    vertex -2.8284271247461894 -2.8284271247461903 10.0
    vertex -1.552914270615129 -5.795554957734409 10.0
    vertex -1.9999999999999984 -3.4641016151377544 10.0
  endloop
endfacet
facet normal -0.0 -0.0 1.0
  outer loop
    vertex -1.9999999999999984 -3.4641016151377544 10.0
    vertex -1.552914270615129 -5.795554957734409 10.0
    vertex -1.0352761804100823 -3.863703305156273 10.0
  endloop
endfacet
facet normal -0.0 -0.0 1.0
  outer loop
    vertex -1.0352761804100823 -3.863703305156273 10.0
    vertex -1.552914270615129 -5.795554957734409 10.0
    vertex -1.1021821192326177e-15 -6.0 10.0
  endloop
endfacet
facet normal -0.0 -0.0 1.0
  outer loop
    vertex -1.0352761804100823 -3.863703305156273 10.0
    vertex -1.1021821192326177e-15 -6.0 10.0
    vertex 2.449293598294706e-16 -3.9999999999999996 10.0
  endloop
endfacet
facet normal -0.0 -0.0 1.0
  outer loop
    vertex 2.449293598294706e-16 -3.9999999999999996 10.0
    vertex -1.1021821192326177e-15 -6.0 10.0
    vertex 1.5529142706151216 -5.79555495773441 10.0
  endloop
endfacet
facet normal -0.0 -0.0 1.0
  outer loop
    vertex 2.449293598294706e-16 -3.9999999999999996 10.0
    vertex 1.5529142706151216 -5.79555495773441 10.0
    vertex 1.0352761804100836 -3.863703305156273 10.0
  endloop
endfacet
facet normal -0.0 -0.0 1.0
  outer loop
    vertex 1.0352761804100836 -3.863703305156273 10.0
    vertex 1.5529142706151216 -5.79555495773441 10.0
    vertex 1.9999999999999998 -3.464101615137754 10.0
  endloop
endfacet
facet normal -0.0 -0.0 1.0
  outer loop
    vertex 1.9999999999999998 -3.464101615137754 10.0
    vertex 1.5529142706151216 -5.79555495773441 10.0
    vertex 2.9999999999999956 -5.196152422706635 10.0
  endloop
endfacet
facet normal -0.0 -0.0 1.0
  outer loop
    vertex 1.9999999999999998 -3.464101615137754 10.0
    vertex 2.9999999999999956 -5.196152422706635 10.0
    vertex 2.82842712474619 -2.8284271247461903 10.0
  endloop
endfacet
facet normal -0.0 -0.0 1.0
  outer loop
    vertex 2.82842712474619 -2.8284271247461903 10.0
    vertex 2.9999999999999956 -5.196152422706635 10.0
    vertex 3.464101615137754 -1.9999999999999996 10.0
  endloop
endfacet
facet normal -0.0 -0.0 1.0
  outer loop
    vertex 3.464101615137754 -1.9999999999999996 10.0
    vertex 2.9999999999999956 -5.196152422706635 10.0
    vertex 4.242640687119284 -4.2426406871192865 10.0
  endloop
endfacet
facet normal -0.0 -0.0 1.0
  outer loop
    vertex 3.464101615137754 -1.9999999999999996 10.0
    vertex 4.242640687119284 -4.2426406871192865 10.0
    vertex 3.863703305156272 -1.035276180410083 10.0
  endloop
endfacet
facet normal -0.0 -0.0 1.0
  outer loop
    vertex 3.863703305156272 -1.035276180410083 10.0
    vertex 4.242640687119284 -4.2426406871192865 10.0
    vertex 3.999999999999999 0.0 10.0
  endloop
endfacet
facet normal -0.0 -0.0 1.0
  outer loop
    vertex -4.242640687119285 4.242640687119286 10.0
    vertex -3.863703305156273 1.0352761804100814 10.0
    vertex -2.9999999999999982 5.196152422706632 10.0
  endloop
endfacet
facet normal -0.0 -0.0 1.0
  outer loop
    vertex -3.863703305156273 1.0352761804100814 10.0
    vertex -4.242640687119285 4.242640687119286 10.0
    vertex -3.999999999999999 -4.898587196589412e-16 10.0
  endloop
endfacet
facet normal -0.0 -0.0 1.0
  outer loop
    vertex -2.9999999999999982 5.196152422706632 10.0
    vertex -3.863703305156273 1.0352761804100814 10.0
    vertex -3.4641016151377544 1.999999999999999 10.0
  endloop
endfacet
facet normal -0.0 -0.0 1.0
  outer loop
    vertex -2.9999999999999982 5.196152422706632 10.0
    vertex -3.4641016151377544 1.999999999999999 10.0
    vertex -2.828427124746191 2.8284271247461885 10.0
  endloop
endfacet
facet normal -0.0 -0.0 1.0
  outer loop
    vertex -2.9999999999999982 5.196152422706632 10.0
    vertex -2.828427124746191 2.8284271247461885 10.0
    vertex -1.5529142706151238 5.79555495773441 10.0
  endloop
endfacet
facet normal -0.0 -0.0 1.0
  outer loop
    vertex -1.5529142706151238 5.79555495773441 10.0
    vertex -2.828427124746191 2.8284271247461885 10.0
    vertex -2.0000000000000013 3.464101615137753 10.0
  endloop
endfacet
facet normal -0.0 -0.0 1.0
  outer loop
    vertex -1.5529142706151238 5.79555495773441 10.0
    vertex -2.0000000000000013 3.464101615137753 10.0
    vertex -1.0352761804100858 3.863703305156272 10.0
  endloop
endfacet
facet normal -0.0 -0.0 1.0
  outer loop
    vertex -1.5529142706151238 5.79555495773441 10.0
    vertex -1.0352761804100858 3.863703305156272 10.0
    vertex 3.6739403974420594e-16 6.0 10.0
  endloop
endfacet
facet normal -0.0 -0.0 1.0
  outer loop
    vertex 3.6739403974420594e-16 6.0 10.0
    vertex -1.0352761804100858 3.863703305156272 10.0
    vertex -7.347880794884117e-16 3.9999999999999996 10.0
  endloop
endfacet
facet normal -0.0 -0.0 1.0
  outer loop
    vertex 3.6739403974420594e-16 6.0 10.0
    vertex -7.347880794884117e-16 3.9999999999999996 10.0
    vertex 1.035276180410081 3.8637033051562732 10.0
  endloop
endfacet
facet normal -0.0 -0.0 1.0
  outer loop
    vertex 3.6739403974420594e-16 6.0 10.0
    vertex 1.035276180410081 3.8637033051562732 10.0
    vertex 1.5529142706151258 5.79555495773441 10.0
  endloop
endfacet
facet normal -0.0 -0.0 1.0
  outer loop
    vertex 1.5529142706151258 5.79555495773441 10.0
    vertex 1.035276180410081 3.8637033051562732 10.0
    vertex 1.9999999999999967 3.464101615137756 10.0
  endloop
endfacet
facet normal -0.0 -0.0 1.0
  outer loop
    vertex 1.5529142706151258 5.79555495773441 10.0
    vertex 1.9999999999999967 3.464101615137756 10.0
    vertex 3.0000000000000004 5.196152422706631 10.0
  endloop
endfacet
facet normal -0.0 -0.0 1.0
  outer loop
    vertex 3.0000000000000004 5.196152422706631 10.0
    vertex 1.9999999999999967 3.464101615137756 10.0
    vertex 2.8284271247461885 2.8284271247461903 10.0
  endloop
endfacet
facet normal -0.0 -0.0 1.0
  outer loop
    vertex 3.0000000000000004 5.196152422706631 10.0
    vertex 2.8284271247461885 2.8284271247461903 10.0
    vertex 3.4641016151377526 2.0000000000000018 10.0
  endloop
endfacet
facet normal -0.0 -0.0 1.0
  outer loop
    vertex 3.0000000000000004 5.196152422706631 10.0
    vertex 3.4641016151377526 2.0000000000000018 10.0
    vertex 4.242640687119285 4.242640687119286 10.0
  endloop
endfacet
facet normal -0.0 -0.0 1.0
  outer loop
    vertex 4.242640687119285 4.242640687119286 10.0
    vertex 3.4641016151377526 2.0000000000000018 10.0
    vertex 3.8637033051562715 1.035276180410086 10.0
  endloop
endfacet
facet normal -0.0 -0.0 1.0
  outer loop
    vertex 4.242640687119285 4.242640687119286 10.0
    vertex 3.8637033051562715 1.035276180410086 10.0
    vertex 3.999999999999999 0.0 10.0
  endloop
endfacet
facet normal -0.0 -0.0 1.0
  outer loop
    vertex 4.242640687119285 4.242640687119286 10.0
    vertex 3.999999999999999 0.0 10.0
    vertex 4.242640687119284 -4.2426406871192865 10.0
  endloop
endfacet
facet normal -0.0 -0.0 1.0
  outer loop
    vertex 4.242640687119285 4.242640687119286 10.0
    vertex 4.242640687119284 -4.2426406871192865 10.0
    vertex 5.19615242270663 -3.000000000000003 10.0
  endloop
endfacet
facet normal -0.0 -0.0 1.0
  outer loop
    vertex 4.242640687119285 4.242640687119286 10.0
    vertex 5.19615242270663 -3.000000000000003 10.0
    vertex 5.196152422706631 3.0 10.0
  endloop
endfacet
facet normal -0.0 -0.0 1.0
  outer loop
    vertex 5.196152422706631 3.0 10.0
    vertex 5.19615242270663 -3.000000000000003 10.0
    vertex 5.795554957734408 -1.5529142706151295 10.0
  endloop
endfacet
facet normal -0.0 -0.0 1.0
  outer loop
    vertex 5.196152422706631 3.0 10.0
    vertex 5.795554957734408 -1.5529142706151295 10.0
    vertex 5.79555495773441 1.5529142706151244 10.0
  endloop
endfacet
facet normal -0.0 -0.0 1.0
  outer loop
    vertex 5.79555495773441 1.5529142706151244 10.0
    vertex 5.795554957734408 -1.5529142706151295 10.0
    vertex 6.0 0.0 10.0
  endloop
endfacet
facet normal 0.9238795325112867 0.38268343236509006 -0.0
  outer loop
    vertex 5.196152422706631 3.0 0.0
    vertex 5.79555495773441 1.5529142706151244 10.0
    vertex 5.79555495773441 1.5529142706151244 0.0
  endloop
endfacet
facet normal 0.9238795325112867 0.38268343236509006 -0.0
  outer loop
    vertex 5.79555495773441 1.5529142706151244 10.0
    vertex 5.196152422706631 3.0 0.0
    vertex 5.196152422706631 3.0 10.0
  endloop
endfacet
facet normal 0.9914448613738105 0.13052619222005135 -0.0
  outer loop
    vertex 5.79555495773441 1.5529142706151244 0.0
    vertex 6.0 0.0 10.0
    vertex 6.0 0.0 0.0
  endloop
endfacet
facet normal 0.9914448613738105 0.13052619222005135 -0.0
  outer loop
    vertex 6.0 0.0 10.0
    vertex 5.79555495773441 1.5529142706151244 0.0
    vertex 5.79555495773441 1.5529142706151244 10.0
  endloop
endfacet
facet normal 0.9914448613738105 -0.1305261922200518 -0.0
  outer loop
    vertex 6.0 0.0 0.0
    vertex 5.795554957734408 -1.5529142706151295 10.0
    vertex 5.795554957734408 -1.5529142706151295 0.0
  endloop
endfacet
facet normal 0.9914448613738105 -0.1305261922200518 -0.0
  outer loop
    vertex 5.795554957734408 -1.5529142706151295 10.0
    vertex 6.0 0.0 0.0
    vertex 6.0 0.0 10.0
  endloop
endfacet
facet normal 0.9238795325112865 -0.38268343236509045 -0.0
  outer loop
    vertex 5.795554957734408 -1.5529142706151295 0.0
    vertex 5.19615242270663 -3.000000000000003 10.0
    vertex 5.19615242270663 -3.000000000000003 0.0
  endloop
endfacet
facet normal 0.9238795325112865 -0.38268343236509045 -0.0
  outer loop
    vertex 5.19615242270663 -3.000000000000003 10.0
    vertex 5.795554957734408 -1.5529142706151295 0.0
    vertex 5.795554957734408 -1.5529142706151295 10.0
  endloop
endfacet
facet normal 0.7933533402912348 -0.608761429008721 -0.0
  outer loop
    vertex 5.19615242270663 -3.000000000000003 0.0
    vertex 4.242640687119284 -4.2426406871192865 10.0
    vertex 4.242640687119284 -4.2426406871192865 0.0
  endloop
endfacet
facet normal 0.7933533402912348 -0.608761429008721 -0.0
  outer loop
    vertex 4.242640687119284 -4.2426406871192865 10.0
    vertex 5.19615242270663 -3.000000000000003 0.0
    vertex 5.19615242270663 -3.000000000000003 10.0
  endloop
endfacet
facet normal 0.6087614290087202 -0.7933533402912357 0.0
  outer loop
    vertex 4.242640687119284 -4.2426406871192865 10.0
    vertex 2.9999999999999956 -5.196152422706635 0.0
    vertex 4.242640687119284 -4.2426406871192865 0.0
  endloop
endfacet
facet normal 0.6087614290087202 -0.7933533402912357 0.0
  outer loop
    vertex 2.9999999999999956 -5.196152422706635 0.0
    vertex 4.242640687119284 -4.2426406871192865 10.0
    vertex 2.9999999999999956 -5.196152422706635 10.0
  endloop
endfacet
facet normal 0.38268343236508917 -0.9238795325112871 0.0
  outer loop
    vertex 2.9999999999999956 -5.196152422706635 10.0
    vertex 1.5529142706151216 -5.79555495773441 0.0
    vertex 2.9999999999999956 -5.196152422706635 0.0
  endloop
endfacet
facet normal 0.38268343236508917 -0.9238795325112871 0.0
  outer loop
    vertex 1.5529142706151216 -5.79555495773441 0.0
    vertex 2.9999999999999956 -5.196152422706635 10.0
    vertex 1.5529142706151216 -5.79555495773441 10.0
  endloop
endfacet
facet normal 0.13052619222005146 -0.9914448613738105 0.0
  outer loop
    vertex 1.5529142706151216 -5.79555495773441 10.0
    vertex -1.1021821192326177e-15 -6.0 0.0
    vertex 1.5529142706151216 -5.79555495773441 0.0
  endloop
endfacet
facet normal 0.13052619222005146 -0.9914448613738105 0.0
  outer loop
    vertex -1.1021821192326177e-15 -6.0 0.0
    vertex 1.5529142706151216 -5.79555495773441 10.0
    vertex -1.1021821192326177e-15 -6.0 10.0
  endloop
endfacet
facet normal -0.1305261922200519 -0.9914448613738105 0.0
  outer loop
    vertex -1.1021821192326177e-15 -6.0 10.0
    vertex -1.552914270615129 -5.795554957734409 0.0
    vertex -1.1021821192326177e-15 -6.0 0.0
  endloop
endfacet
facet normal -0.1305261922200519 -0.9914448613738105 0.0
  outer loop
    vertex -1.552914270615129 -5.795554957734409 0.0
    vertex -1.1021821192326177e-15 -6.0 10.0
    vertex -1.552914270615129 -5.795554957734409 10.0
  endloop
endfacet
facet normal -0.38268343236509045 -0.9238795325112865 0.0
  outer loop
    vertex -1.552914270615129 -5.795554957734409 10.0
    vertex -3.0000000000000027 -5.196152422706631 0.0
    vertex -1.552914270615129 -5.795554957734409 0.0
  endloop
endfacet
facet normal -0.38268343236509045 -0.9238795325112865 0.0
  outer loop
    vertex -3.0000000000000027 -5.196152422706631 0.0
    vertex -1.552914270615129 -5.795554957734409 10.0
    vertex -3.0000000000000027 -5.196152422706631 10.0
  endloop
endfacet
facet normal -0.6087614290087211 -0.7933533402912347 0.0
  outer loop
    vertex -3.0000000000000027 -5.196152422706631 10.0
    vertex -4.242640687119287 -4.242640687119283 0.0
    vertex -3.0000000000000027 -5.196152422706631 0.0
  endloop
endfacet
facet normal -0.6087614290087211 -0.7933533402912347 0.0
  outer loop
    vertex -4.242640687119287 -4.242640687119283 0.0
    vertex -3.0000000000000027 -5.196152422706631 10.0
    vertex -4.242640687119287 -4.242640687119283 10.0
  endloop
endfacet
facet normal -0.7933533402912357 -0.6087614290087202 0.0
  outer loop
    vertex -5.196152422706632 -2.9999999999999982 10.0
    vertex -4.242640687119287 -4.242640687119283 0.0
    vertex -4.242640687119287 -4.242640687119283 10.0
  endloop
endfacet
facet normal -0.7933533402912357 -0.6087614290087202 0.0
  outer loop
    vertex -4.242640687119287 -4.242640687119283 0.0
    vertex -5.196152422706632 -2.9999999999999982 10.0
    vertex -5.196152422706632 -2.9999999999999982 0.0
  endloop
endfacet
facet normal -0.9238795325112868 -0.3826834323650894 0.0
  outer loop
    vertex -5.79555495773441 -1.5529142706151222 10.0
    vertex -5.196152422706632 -2.9999999999999982 0.0
    vertex -5.196152422706632 -2.9999999999999982 10.0
  endloop
endfacet
facet normal -0.9238795325112868 -0.3826834323650894 0.0
  outer loop
    vertex -5.196152422706632 -2.9999999999999982 0.0
    vertex -5.79555495773441 -1.5529142706151222 10.0
    vertex -5.79555495773441 -1.5529142706151222 0.0
  endloop
endfacet
facet normal -0.9914448613738105 -0.13052619222005143 0.0
  outer loop
    vertex -6.0 7.34788079488412e-16 10.0
    vertex -5.79555495773441 -1.5529142706151222 0.0
    vertex -5.79555495773441 -1.5529142706151222 10.0
  endloop
endfacet
facet normal -0.9914448613738105 -0.13052619222005143 0.0
  outer loop
    vertex -5.79555495773441 -1.5529142706151222 0.0
    vertex -6.0 7.34788079488412e-16 10.0
    vertex -6.0 7.34788079488412e-16 0.0
  endloop
endfacet
facet normal -0.9914448613738105 0.13052619222005166 0.0
  outer loop
    vertex -5.795554957734409 1.5529142706151262 10.0
    vertex -6.0 7.34788079488412e-16 0.0
    vertex -6.0 7.34788079488412e-16 10.0
  endloop
endfacet
facet normal -0.9914448613738105 0.13052619222005166 0.0
  outer loop
    vertex -6.0 7.34788079488412e-16 0.0
    vertex -5.795554957734409 1.5529142706151262 10.0
    vertex -5.795554957734409 1.5529142706151262 0.0
  endloop
endfacet
facet normal -0.9238795325112867 0.38268343236508995 0.0
  outer loop
    vertex -5.196152422706631 3.000000000000002 10.0
    vertex -5.795554957734409 1.5529142706151262 0.0
    vertex -5.795554957734409 1.5529142706151262 10.0
  endloop
endfacet
facet normal -0.9238795325112867 0.38268343236508995 0.0
  outer loop
    vertex -5.795554957734409 1.5529142706151262 0.0
    vertex -5.196152422706631 3.000000000000002 10.0
    vertex -5.196152422706631 3.000000000000002 0.0
  endloop
endfacet
facet normal -0.7933533402912348 0.608761429008721 0.0
  outer loop
    vertex -4.242640687119285 4.242640687119286 10.0
    vertex -5.196152422706631 3.000000000000002 0.0
    vertex -5.196152422706631 3.000000000000002 10.0
  endloop
endfacet
facet normal -0.7933533402912348 0.608761429008721 0.0
  outer loop
    vertex -5.196152422706631 3.000000000000002 0.0
    vertex -4.242640687119285 4.242640687119286 10.0
    vertex -4.242640687119285 4.242640687119286 0.0
  endloop
endfacet
facet normal -0.6087614290087203 0.7933533402912356 -0.0
  outer loop
    vertex -4.242640687119285 4.242640687119286 10.0
    vertex -2.9999999999999982 5.196152422706632 0.0
    vertex -4.242640687119285 4.242640687119286 0.0
  endloop
endfacet
facet normal -0.6087614290087203 0.7933533402912356 -0.0
  outer loop
    vertex -2.9999999999999982 5.196152422706632 0.0
    vertex -4.242640687119285 4.242640687119286 10.0
    vertex -2.9999999999999982 5.196152422706632 10.0
  endloop
endfacet
facet normal -0.3826834323650903 0.9238795325112865 -0.0
  outer loop
    vertex -2.9999999999999982 5.196152422706632 10.0
    vertex -1.5529142706151238 5.79555495773441 0.0
    vertex -2.9999999999999982 5.196152422706632 0.0
  endloop
endfacet
facet normal -0.3826834323650903 0.9238795325112865 -0.0
  outer loop
    vertex -1.5529142706151238 5.79555495773441 0.0
    vertex -2.9999999999999982 5.196152422706632 10.0
    vertex -1.5529142706151238 5.79555495773441 10.0
  endloop
endfacet
facet normal -0.13052619222005132 0.9914448613738105 -0.0
  outer loop
    vertex -1.5529142706151238 5.79555495773441 10.0
    vertex 3.6739403974420594e-16 6.0 0.0
    vertex -1.5529142706151238 5.79555495773441 0.0
  endloop
endfacet
facet normal -0.13052619222005132 0.9914448613738105 -0.0
  outer loop
    vertex 3.6739403974420594e-16 6.0 0.0
    vertex -1.5529142706151238 5.79555495773441 10.0
    vertex 3.6739403974420594e-16 6.0 10.0
  endloop
endfacet
facet normal 0.13052619222005168 0.9914448613738105 -0.0
  outer loop
    vertex 3.6739403974420594e-16 6.0 10.0
    vertex 1.5529142706151258 5.79555495773441 0.0
    vertex 3.6739403974420594e-16 6.0 0.0
  endloop
endfacet
facet normal 0.13052619222005168 0.9914448613738105 -0.0
  outer loop
    vertex 1.5529142706151258 5.79555495773441 0.0
    vertex 3.6739403974420594e-16 6.0 10.0
    vertex 1.5529142706151258 5.79555495773441 10.0
  endloop
endfacet
facet normal 0.38268343236509017 0.9238795325112865 -0.0
  outer loop
    vertex 1.5529142706151258 5.79555495773441 10.0
    vertex 3.0000000000000004 5.196152422706631 0.0
    vertex 1.5529142706151258 5.79555495773441 0.0
  endloop
endfacet
facet normal 0.38268343236509017 0.9238795325112865 -0.0
  outer loop
    vertex 3.0000000000000004 5.196152422706631 0.0
    vertex 1.5529142706151258 5.79555495773441 10.0
    vertex 3.0000000000000004 5.196152422706631 10.0
  endloop
endfacet
facet normal 0.6087614290087204 0.7933533402912354 -0.0
  outer loop
    vertex 3.0000000000000004 5.196152422706631 10.0
    vertex 4.242640687119285 4.242640687119286 0.0
    vertex 3.0000000000000004 5.196152422706631 0.0
  endloop
endfacet
facet normal 0.6087614290087204 0.7933533402912354 -0.0
  outer loop
    vertex 4.242640687119285 4.242640687119286 0.0
    vertex 3.0000000000000004 5.196152422706631 10.0
    vertex 4.242640687119285 4.242640687119286 10.0
  endloop
endfacet
facet normal 0.7933533402912356 0.6087614290087203 -0.0
  outer loop
    vertex 4.242640687119285 4.242640687119286 0.0
    vertex 5.196152422706631 3.0 10.0
    vertex 5.196152422706631 3.0 0.0
  endloop
endfacet
facet normal 0.7933533402912356 0.6087614290087203 -0.0
  outer loop
    vertex 5.196152422706631 3.0 10.0
    vertex 4.242640687119285 4.242640687119286 0.0
    vertex 4.242640687119285 4.242640687119286 10.0
  endloop
endfacet
facet normal 0.0 0.0 1.0
  outer loop
    vertex -3.863703305156272 -1.035276180410084 30.0
    vertex -3.863703305156273 1.0352761804100814 30.0
    vertex -3.999999999999999 -4.898587196589412e-16 30.0
  endloop
endfacet
facet normal 0.0 0.0 1.0
  outer loop
    vertex -3.863703305156273 1.0352761804100814 30.0
    vertex -3.863703305156272 -1.035276180410084 30.0
    vertex -3.4641016151377544 1.999999999999999 30.0
  endloop
endfacet
facet normal 0.0 0.0 1.0
  outer loop
    vertex -3.4641016151377544 1.999999999999999 30.0
    vertex -3.863703305156272 -1.035276180410084 30.0
    vertex -3.464101615137753 -2.0000000000000013 30.0
  endloop
endfacet
facet normal 0.0 0.0 1.0
  outer loop
    vertex -3.4641016151377544 1.999999999999999 30.0
    vertex -3.464101615137753 -2.0000000000000013 30.0
    vertex -2.828427124746191 2.8284271247461885 30.0
  endloop
endfacet
facet normal 0.0 0.0 1.0
  outer loop
    vertex -2.828427124746191 2.8284271247461885 30.0
    vertex -3.464101615137753 -2.0000000000000013 30.0
    vertex -2.8284271247461894 -2.8284271247461903 30.0
  endloop
endfacet
facet normal 0.0 0.0 1.0
  outer loop
    vertex -2.828427124746191 2.8284271247461885 30.0
    vertex -2.8284271247461894 -2.8284271247461903 30.0
    vertex -2.0000000000000013 3.464101615137753 30.0
  endloop
endfacet
facet normal 0.0 0.0 1.0
  outer loop
    vertex -2.0000000000000013 3.464101615137753 30.0
    vertex -2.8284271247461894 -2.8284271247461903 30.0
    vertex -1.9999999999999984 -3.4641016151377544 30.0
  endloop
endfacet
facet normal 0.0 0.0 1.0
  outer loop
    vertex -2.0000000000000013 3.464101615137753 30.0
    vertex -1.9999999999999984 -3.4641016151377544 30.0
    vertex -1.0352761804100858 3.863703305156272 30.0
  endloop
endfacet
facet normal 0.0 0.0 1.0
  outer loop
    vertex -1.0352761804100858 3.863703305156272 30.0
    vertex -1.9999999999999984 -3.4641016151377544 30.0
    vertex -1.0352761804100823 -3.863703305156273 30.0
  endloop
endfacet
facet normal 0.0 0.0 1.0
  outer loop
    vertex -1.0352761804100858 3.863703305156272 30.0
    vertex -1.0352761804100823 -3.863703305156273 30.0
    vertex -7.347880794884117e-16 3.9999999999999996 30.0
  endloop
endfacet
facet normal 0.0 0.0 1.0
  outer loop
    vertex -7.347880794884117e-16 3.9999999999999996 30.0
    vertex -1.0352761804100823 -3.863703305156273 30.0
    vertex 2.449293598294706e-16 -3.9999999999999996 30.0
  endloop
endfacet
facet normal 0.0 0.0 1.0
  outer loop
    vertex -7.347880794884117e-16 3.9999999999999996 30.0
    vertex 2.449293598294706e-16 -3.9999999999999996 30.0
    vertex 1.035276180410081 3.8637033051562732 30.0
  endloop
endfacet
facet normal 0.0 0.0 1.0
  outer loop
    vertex 1.035276180410081 3.8637033051562732 30.0
    vertex 2.449293598294706e-16 -3.9999999999999996 30.0
    vertex 1.0352761804100836 -3.863703305156273 30.0
  endloop
endfacet
facet normal 0.0 0.0 1.0
  outer loop
    vertex 1.035276180410081 3.8637033051562732 30.0
    vertex 1.0352761804100836 -3.863703305156273 30.0
    vertex 1.9999999999999967 3.464101615137756 30.0
  endloop
endfacet
facet normal 0.0 0.0 1.0
  outer loop
    vertex 1.9999999999999967 3.464101615137756 30.0
    vertex 1.0352761804100836 -3.863703305156273 30.0
    vertex 1.9999999999999998 -3.464101615137754 30.0
  endloop
endfacet
facet normal 0.0 0.0 1.0
  outer loop
    vertex 1.9999999999999967 3.464101615137756 30.0
    vertex 1.9999999999999998 -3.464101615137754 30.0
    vertex 2.8284271247461885 2.8284271247461903 30.0
  endloop
endfacet
facet normal 0.0 0.0 1.0
  outer loop
    vertex 2.8284271247461885 2.8284271247461903 30.0
    vertex 1.9999999999999998 -3.464101615137754 30.0
    vertex 2.82842712474619 -2.8284271247461903 30.0
  endloop
endfacet
facet normal 0.0 0.0 1.0
  outer loop
    vertex 2.8284271247461885 2.8284271247461903 30.0
    vertex 2.82842712474619 -2.8284271247461903 30.0
    vertex 3.4641016151377526 2.0000000000000018 30.0
  endloop
endfacet
facet normal 0.0 0.0 1.0
  outer loop
    vertex 3.4641016151377526 2.0000000000000018 30.0
    vertex 2.82842712474619 -2.8284271247461903 30.0
    vertex 3.464101615137754 -1.9999999999999996 30.0
  endloop
endfacet
facet normal 0.0 0.0 1.0
  outer loop
    vertex 3.4641016151377526 2.0000000000000018 30.0
    vertex 3.464101615137754 -1.9999999999999996 30.0
    vertex 3.8637033051562715 1.035276180410086 30.0
  endloop
endfacet
facet normal 0.0 0.0 1.0
  outer loop
    vertex 3.8637033051562715 1.035276180410086 30.0
    vertex 3.464101615137754 -1.9999999999999996 30.0
    vertex 3.863703305156272 -1.035276180410083 30.0
  endloop
endfacet
facet normal 0.0 0.0 1.0
  outer loop
    vertex 3.8637033051562715 1.035276180410086 30.0
    vertex 3.863703305156272 -1.035276180410083 30.0
    vertex 3.999999999999999 0.0 30.0
  endloop
endfacet
facet normal 0.9914448613738104 -0.13052619222005174 0.0
  outer loop
    vertex 3.999999999999999 0.0 10.0
    vertex 3.863703305156272 -1.035276180410083 30.0
    vertex 3.863703305156272 -1.035276180410083 10.0
  endloop
endfacet
facet normal 0.9914448613738104 -0.13052619222005174 0.0
  outer loop
    vertex 3.863703305156272 -1.035276180410083 30.0
    vertex 3.999999999999999 0.0 10.0
    vertex 3.999999999999999 0.0 30.0
  endloop
endfacet
facet normal 0.9914448613738104 0.13052619222005202 0.0
  outer loop
    vertex 3.8637033051562715 1.035276180410086 10.0
    vertex 3.999999999999999 0.0 30.0
    vertex 3.999999999999999 0.0 10.0
  endloop
endfacet
facet normal 0.9914448613738104 0.13052619222005202 0.0
  outer loop
    vertex 3.999999999999999 0.0 30.0
    vertex 3.8637033051562715 1.035276180410086 10.0
    vertex 3.8637033051562715 1.035276180410086 30.0
  endloop
endfacet
facet normal 0.9238795325112865 0.3826834323650905 0.0
  outer loop
    vertex 3.4641016151377526 2.0000000000000018 10.0
    vertex 3.8637033051562715 1.035276180410086 30.0
    vertex 3.8637033051562715 1.035276180410086 10.0
  endloop
endfacet
facet normal 0.9238795325112865 0.3826834323650905 0.0
  outer loop
    vertex 3.8637033051562715 1.035276180410086 30.0
    vertex 3.4641016151377526 2.0000000000000018 10.0
    vertex 3.4641016151377526 2.0000000000000018 30.0
  endloop
endfacet
facet normal 0.793353340291235 0.6087614290087208 0.0
  outer loop
    vertex 2.8284271247461885 2.8284271247461903 10.0
    vertex 3.4641016151377526 2.0000000000000018 30.0
    vertex 3.4641016151377526 2.0000000000000018 10.0
  endloop
endfacet
facet normal 0.793353340291235 0.6087614290087208 0.0
  outer loop
    vertex 3.4641016151377526 2.0000000000000018 30.0
    vertex 2.8284271247461885 2.8284271247461903 10.0
    vertex 2.8284271247461885 2.8284271247461903 30.0
  endloop
endfacet
facet normal 0.6087614290087204 0.7933533402912355 0.0
  outer loop
    vertex 1.9999999999999967 3.464101615137756 30.0
    vertex 2.8284271247461885 2.8284271247461903 10.0
    vertex 1.9999999999999967 3.464101615137756 10.0
  endloop
endfacet
facet normal 0.6087614290087204 0.7933533402912355 0.0
  outer loop
    vertex 2.8284271247461885 2.8284271247461903 10.0
    vertex 1.9999999999999967 3.464101615137756 30.0
    vertex 2.8284271247461885 2.8284271247461903 30.0
  endloop
endfacet
facet normal 0.3826834323650892 0.923879532511287 0.0
  outer loop
    vertex 1.035276180410081 3.8637033051562732 30.0
    vertex 1.9999999999999967 3.464101615137756 10.0
    vertex 1.035276180410081 3.8637033051562732 10.0
  endloop
endfacet
facet normal 0.3826834323650892 0.923879532511287 0.0
  outer loop
    vertex 1.9999999999999967 3.464101615137756 10.0
    vertex 1.035276180410081 3.8637033051562732 30.0
    vertex 1.9999999999999967 3.464101615137756 30.0
  endloop
endfacet
facet normal 0.13052619222005127 0.9914448613738106 0.0
  outer loop
    vertex -7.347880794884117e-16 3.9999999999999996 30.0
    vertex 1.035276180410081 3.8637033051562732 10.0
    vertex -7.347880794884117e-16 3.9999999999999996 10.0
  endloop
endfacet
facet normal 0.13052619222005127 0.9914448613738106 0.0
  outer loop
    vertex 1.035276180410081 3.8637033051562732 10.0
    vertex -7.347880794884117e-16 3.9999999999999996 30.0
    vertex 1.035276180410081 3.8637033051562732 30.0
  endloop
endfacet
facet normal -0.13052619222005216 0.9914448613738104 0.0
  outer loop
    vertex -1.0352761804100858 3.863703305156272 30.0
    vertex -7.347880794884117e-16 3.9999999999999996 10.0
    vertex -1.0352761804100858 3.863703305156272 10.0
  endloop
endfacet
facet normal -0.13052619222005216 0.9914448613738104 0.0
  outer loop
    vertex -7.347880794884117e-16 3.9999999999999996 10.0
    vertex -1.0352761804100858 3.863703305156272 30.0
    vertex -7.347880794884117e-16 3.9999999999999996 30.0
  endloop
endfacet
facet normal -0.3826834323650905 0.9238795325112865 0.0
  outer loop
    vertex -2.0000000000000013 3.464101615137753 30.0
    vertex -1.0352761804100858 3.863703305156272 10.0
    vertex -2.0000000000000013 3.464101615137753 10.0
  endloop
endfacet
facet normal -0.3826834323650905 0.9238795325112865 0.0
  outer loop
    vertex -1.0352761804100858 3.863703305156272 10.0
    vertex -2.0000000000000013 3.464101615137753 30.0
    vertex -1.0352761804100858 3.863703305156272 30.0
  endloop
endfacet
facet normal -0.6087614290087209 0.7933533402912349 0.0
  outer loop
    vertex -2.828427124746191 2.8284271247461885 30.0
    vertex -2.0000000000000013 3.464101615137753 10.0
    vertex -2.828427124746191 2.8284271247461885 10.0
  endloop
endfacet
facet normal -0.6087614290087209 0.7933533402912349 0.0
  outer loop
    vertex -2.0000000000000013 3.464101615137753 10.0
    vertex -2.828427124746191 2.8284271247461885 30.0
    vertex -2.0000000000000013 3.464101615137753 30.0
  endloop
endfacet
facet normal -0.7933533402912355 0.6087614290087203 0.0
  outer loop
    vertex -2.828427124746191 2.8284271247461885 30.0
    vertex -3.4641016151377544 1.999999999999999 10.0
    vertex -3.4641016151377544 1.999999999999999 30.0
  endloop
endfacet
facet normal -0.7933533402912355 0.6087614290087203 0.0
  outer loop
    vertex -3.4641016151377544 1.999999999999999 10.0
    vertex -2.828427124746191 2.8284271247461885 30.0
    vertex -2.828427124746191 2.8284271247461885 10.0
  endloop
endfacet
facet normal -0.9238795325112871 0.38268343236508934 0.0
  outer loop
    vertex -3.4641016151377544 1.999999999999999 30.0
    vertex -3.863703305156273 1.0352761804100814 10.0
    vertex -3.863703305156273 1.0352761804100814 30.0
  endloop
endfacet
facet normal -0.9238795325112871 0.38268343236508934 0.0
  outer loop
    vertex -3.863703305156273 1.0352761804100814 10.0
    vertex -3.4641016151377544 1.999999999999999 30.0
    vertex -3.4641016151377544 1.999999999999999 10.0
  endloop
endfacet
facet normal -0.9914448613738106 0.13052619222005124 0.0
  outer loop
    vertex -3.863703305156273 1.0352761804100814 30.0
    vertex -3.999999999999999 -4.898587196589412e-16 10.0
    vertex -3.999999999999999 -4.898587196589412e-16 30.0
  endloop
endfacet
facet normal -0.9914448613738106 0.13052619222005124 0.0
  outer loop
    vertex -3.999999999999999 -4.898587196589412e-16 10.0
    vertex -3.863703305156273 1.0352761804100814 30.0
    vertex -3.863703305156273 1.0352761804100814 10.0
  endloop
endfacet
facet normal -0.9914448613738104 -0.13052619222005168 -0.0
  outer loop
    vertex -3.999999999999999 -4.898587196589412e-16 30.0
    vertex -3.863703305156272 -1.035276180410084 10.0
    vertex -3.863703305156272 -1.035276180410084 30.0
  endloop
endfacet
facet normal -0.9914448613738104 -0.13052619222005168 -0.0
  outer loop
    vertex -3.863703305156272 -1.035276180410084 10.0
    vertex -3.999999999999999 -4.898587196589412e-16 30.0
    vertex -3.999999999999999 -4.898587196589412e-16 10.0
  endloop
endfacet
facet normal -0.9238795325112867 -0.3826834323650899 -0.0
  outer loop
    vertex -3.863703305156272 -1.035276180410084 30.0
    vertex -3.464101615137753 -2.0000000000000013 10.0
    vertex -3.464101615137753 -2.0000000000000013 30.0
  endloop
endfacet
facet normal -0.9238795325112867 -0.3826834323650899 -0.0
  outer loop
    vertex -3.464101615137753 -2.0000000000000013 10.0
    vertex -3.863703305156272 -1.035276180410084 30.0
    vertex -3.863703305156272 -1.035276180410084 10.0
  endloop
endfacet
facet normal -0.793353340291235 -0.6087614290087208 -0.0
  outer loop
    vertex -3.464101615137753 -2.0000000000000013 30.0
    vertex -2.8284271247461894 -2.8284271247461903 10.0
    vertex -2.8284271247461894 -2.8284271247461903 30.0
  endloop
endfacet
facet normal -0.793353340291235 -0.6087614290087208 -0.0
  outer loop
    vertex -2.8284271247461894 -2.8284271247461903 10.0
    vertex -3.464101615137753 -2.0000000000000013 30.0
    vertex -3.464101615137753 -2.0000000000000013 10.0
  endloop
endfacet
facet normal -0.6087614290087202 -0.7933533402912355 -0.0
  outer loop
    vertex -1.9999999999999984 -3.4641016151377544 30.0
    vertex -2.8284271247461894 -2.8284271247461903 10.0
    vertex -1.9999999999999984 -3.4641016151377544 10.0
  endloop
endfacet
facet normal -0.6087614290087202 -0.7933533402912355 -0.0
  outer loop
    vertex -2.8284271247461894 -2.8284271247461903 10.0
    vertex -1.9999999999999984 -3.4641016151377544 30.0
    vertex -2.8284271247461894 -2.8284271247461903 30.0
  endloop
endfacet
facet normal -0.3826834323650897 -0.923879532511287 -0.0
  outer loop
    vertex -1.0352761804100823 -3.863703305156273 30.0
    vertex -1.9999999999999984 -3.4641016151377544 10.0
    vertex -1.0352761804100823 -3.863703305156273 10.0
  endloop
endfacet
facet normal -0.3826834323650897 -0.923879532511287 -0.0
  outer loop
    vertex -1.9999999999999984 -3.4641016151377544 10.0
    vertex -1.0352761804100823 -3.863703305156273 30.0
    vertex -1.9999999999999984 -3.4641016151377544 30.0
  endloop
endfacet
facet normal -0.1305261922200518 -0.9914448613738104 -0.0
  outer loop
    vertex 2.449293598294706e-16 -3.9999999999999996 30.0
    vertex -1.0352761804100823 -3.863703305156273 10.0
    vertex 2.449293598294706e-16 -3.9999999999999996 10.0
  endloop
endfacet
facet normal -0.1305261922200518 -0.9914448613738104 -0.0
  outer loop
    vertex -1.0352761804100823 -3.863703305156273 10.0
    vertex 2.449293598294706e-16 -3.9999999999999996 30.0
    vertex -1.0352761804100823 -3.863703305156273 30.0
  endloop
endfacet
facet normal 0.13052619222005168 -0.9914448613738104 0.0
  outer loop
    vertex 1.0352761804100836 -3.863703305156273 30.0
    vertex 2.449293598294706e-16 -3.9999999999999996 10.0
    vertex 1.0352761804100836 -3.863703305156273 10.0
  endloop
endfacet
facet normal 0.13052619222005168 -0.9914448613738104 0.0
  outer loop
    vertex 2.449293598294706e-16 -3.9999999999999996 10.0
    vertex 1.0352761804100836 -3.863703305156273 30.0
    vertex 2.449293598294706e-16 -3.9999999999999996 30.0
  endloop
endfacet
facet normal 0.3826834323650902 -0.9238795325112865 0.0
  outer loop
    vertex 1.9999999999999998 -3.464101615137754 30.0
    vertex 1.0352761804100836 -3.863703305156273 10.0
    vertex 1.9999999999999998 -3.464101615137754 10.0
  endloop
endfacet
facet normal 0.3826834323650902 -0.9238795325112865 0.0
  outer loop
    vertex 1.0352761804100836 -3.863703305156273 10.0
    vertex 1.9999999999999998 -3.464101615137754 30.0
    vertex 1.0352761804100836 -3.863703305156273 30.0
  endloop
endfacet
facet normal 0.6087614290087203 -0.7933533402912356 0.0
  outer loop
    vertex 2.82842712474619 -2.8284271247461903 30.0
    vertex 1.9999999999999998 -3.464101615137754 10.0
    vertex 2.82842712474619 -2.8284271247461903 10.0
  endloop
endfacet
facet normal 0.6087614290087203 -0.7933533402912356 0.0
  outer loop
    vertex 1.9999999999999998 -3.464101615137754 10.0
    vertex 2.82842712474619 -2.8284271247461903 30.0
    vertex 1.9999999999999998 -3.464101615137754 30.0
  endloop
endfacet
facet normal 0.7933533402912356 -0.6087614290087202 0.0
  outer loop
    vertex 3.464101615137754 -1.9999999999999996 10.0
    vertex 2.82842712474619 -2.8284271247461903 30.0
    vertex 2.82842712474619 -2.8284271247461903 10.0
  endloop
endfacet
facet normal 0.7933533402912356 -0.6087614290087202 0.0
  outer loop
    vertex 2.82842712474619 -2.8284271247461903 30.0
    vertex 3.464101615137754 -1.9999999999999996 10.0
    vertex 3.464101615137754 -1.9999999999999996 30.0
  endloop
endfacet
facet normal 0.9238795325112868 -0.38268343236508956 0.0
  outer loop
    vertex 3.863703305156272 -1.035276180410083 10.0
    vertex 3.464101615137754 -1.9999999999999996 30.0
    vertex 3.464101615137754 -1.9999999999999996 10.0
  endloop
endfacet
facet normal 0.9238795325112868 -0.38268343236508956 0.0
  outer loop
    vertex 3.464101615137754 -1.9999999999999996 30.0
    vertex 3.863703305156272 -1.035276180410083 10.0
    vertex 3.863703305156272 -1.035276180410083 30.0
  endloop
endfacet
facet normal 0.0 0.0 -1.0
  outer loop
    vertex -3.863703305156272 1.035276180410084 7.999999999999999
    vertex -3.863703305156273 -1.0352761804100814 7.999999999999999
    vertex -3.999999999999999 4.898587196589412e-16 7.999999999999999
  endloop
endfacet
facet normal 0.0 0.0 -1.0
  outer loop
    vertex -3.863703305156273 -1.0352761804100814 7.999999999999999
    vertex -3.863703305156272 1.035276180410084 7.999999999999999
    vertex -3.4641016151377544 -1.999999999999999 7.999999999999999
  endloop
endfacet
facet normal 0.0 0.0 -1.0
  outer loop
    vertex -3.4641016151377544 -1.999999999999999 7.999999999999999
    vertex -3.863703305156272 1.035276180410084 7.999999999999999
    vertex -3.464101615137753 2.0000000000000013 7.999999999999999
  endloop
endfacet
facet normal 0.0 0.0 -1.0
  outer loop
    vertex -3.4641016151377544 -1.999999999999999 7.999999999999999
    vertex -3.464101615137753 2.0000000000000013 7.999999999999999
    vertex -2.828427124746191 -2.8284271247461885 7.999999999999999
  endloop
endfacet
facet normal 0.0 0.0 -1.0
  outer loop
    vertex -2.828427124746191 -2.8284271247461885 7.999999999999999
    vertex -3.464101615137753 2.0000000000000013 7.999999999999999
    vertex -2.8284271247461894 2.8284271247461903 7.999999999999999
  endloop
endfacet
facet normal 0.0 0.0 -1.0
  outer loop
    vertex -2.828427124746191 -2.8284271247461885 7.999999999999999
    vertex -2.8284271247461894 2.8284271247461903 7.999999999999999
    vertex -2.0000000000000013 -3.464101615137753 7.999999999999999
  endloop
endfacet
facet normal 0.0 0.0 -1.0
  outer loop
    vertex -2.0000000000000013 -3.464101615137753 7.999999999999999
    vertex -2.8284271247461894 2.8284271247461903 7.999999999999999
    vertex -1.9999999999999984 3.4641016151377544 7.999999999999999
  endloop
endfacet
facet normal 0.0 0.0 -1.0
  outer loop
    vertex -2.0000000000000013 -3.464101615137753 7.999999999999999
    vertex -1.9999999999999984 3.4641016151377544 7.999999999999999
    vertex -1.0352761804100858 -3.863703305156272 7.999999999999999
  endloop
endfacet
facet normal 0.0 0.0 -1.0
  outer loop
    vertex -1.0352761804100858 -3.863703305156272 7.999999999999999
    vertex -1.9999999999999984 3.4641016151377544 7.999999999999999
    vertex -1.0352761804100823 3.863703305156273 7.999999999999999
  endloop
endfacet
facet normal 0.0 0.0 -1.0
  outer loop
    vertex -1.0352761804100858 -3.863703305156272 7.999999999999999
    vertex -1.0352761804100823 3.863703305156273 7.999999999999999
    vertex -7.347880794884117e-16 -3.9999999999999996 7.999999999999999
  endloop
endfacet
facet normal 0.0 0.0 -1.0
  outer loop
    vertex -7.347880794884117e-16 -3.9999999999999996 7.999999999999999
    vertex -1.0352761804100823 3.863703305156273 7.999999999999999
    vertex 2.449293598294706e-16 3.9999999999999996 7.999999999999999
  endloop
endfacet
facet normal 0.0 0.0 -1.0
  outer loop
    vertex -7.347880794884117e-16 -3.9999999999999996 7.999999999999999
    vertex 2.449293598294706e-16 3.9999999999999996 7.999999999999999
    vertex 1.035276180410081 -3.8637033051562732 7.999999999999999
  endloop
endfacet
facet normal 0.0 0.0 -1.0
  outer loop
    vertex 1.035276180410081 -3.8637033051562732 7.999999999999999
    vertex 2.449293598294706e-16 3.9999999999999996 7.999999999999999
    vertex 1.0352761804100836 3.863703305156273 7.999999999999999
  endloop
endfacet
facet normal 0.0 0.0 -1.0
  outer loop
    vertex 1.035276180410081 -3.8637033051562732 7.999999999999999
    vertex 1.0352761804100836 3.863703305156273 7.999999999999999
    vertex 1.9999999999999967 -3.464101615137756 7.999999999999999
  endloop
endfacet
facet normal 0.0 0.0 -1.0
  outer loop
    vertex 1.9999999999999967 -3.464101615137756 7.999999999999999
    vertex 1.0352761804100836 3.863703305156273 7.999999999999999
    vertex 1.9999999999999998 3.464101615137754 7.999999999999999
  endloop
endfacet
facet normal 0.0 0.0 -1.0
  outer loop
    vertex 1.9999999999999967 -3.464101615137756 7.999999999999999
    vertex 1.9999999999999998 3.464101615137754 7.999999999999999
    vertex 2.8284271247461885 -2.8284271247461903 7.999999999999999
  endloop
endfacet
facet normal 0.0 0.0 -1.0
  outer loop
    vertex 2.8284271247461885 -2.8284271247461903 7.999999999999999
    vertex 1.9999999999999998 3.464101615137754 7.999999999999999
    vertex 2.82842712474619 2.8284271247461903 7.999999999999999
  endloop
endfacet
facet normal 0.0 0.0 -1.0
  outer loop
    vertex 2.8284271247461885 -2.8284271247461903 7.999999999999999
    vertex 2.82842712474619 2.8284271247461903 7.999999999999999
    vertex 3.4641016151377526 -2.0000000000000018 7.999999999999999
  endloop
endfacet
facet normal 0.0 0.0 -1.0
  outer loop
    vertex 3.4641016151377526 -2.0000000000000018 7.999999999999999
    vertex 2.82842712474619 2.8284271247461903 7.999999999999999
    vertex 3.464101615137754 1.9999999999999996 7.999999999999999
  endloop
endfacet
facet normal 0.0 0.0 -1.0
  outer loop
    vertex 3.4641016151377526 -2.0000000000000018 7.999999999999999
    vertex 3.464101615137754 1.9999999999999996 7.999999999999999
    vertex 3.8637033051562715 -1.035276180410086 7.999999999999999
  endloop
endfacet
facet normal 0.0 0.0 -1.0
  outer loop
    vertex 3.8637033051562715 -1.035276180410086 7.999999999999999
    vertex 3.464101615137754 1.9999999999999996 7.999999999999999
    vertex 3.863703305156272 1.035276180410083 7.999999999999999
  endloop
endfacet
facet normal 0.0 0.0 -1.0
  outer loop
    vertex 3.8637033051562715 -1.035276180410086 7.999999999999999
    vertex 3.863703305156272 1.035276180410083 7.999999999999999
    vertex 3.999999999999999 0.0 7.999999999999999
  endloop
endfacet
facet normal -0.13052619222005127 0.9914448613738106 -0.0
  outer loop
    vertex -7.347880794884117e-16 -3.9999999999999996 7.999999999999999
    vertex 1.035276180410081 -3.8637033051562732 0.0
    vertex -7.347880794884117e-16 -3.9999999999999996 0.0
  endloop
endfacet
facet normal -0.13052619222005127 0.9914448613738106 -0.0
  outer loop
    vertex 1.035276180410081 -3.8637033051562732 0.0
    vertex -7.347880794884117e-16 -3.9999999999999996 7.999999999999999
    vertex 1.035276180410081 -3.8637033051562732 7.999999999999999
  endloop
endfacet
facet normal 0.13052619222005216 0.9914448613738104 0.0
  outer loop
    vertex -1.0352761804100858 -3.863703305156272 7.999999999999999
    vertex -7.347880794884117e-16 -3.9999999999999996 0.0
    vertex -1.0352761804100858 -3.863703305156272 0.0
  endloop
endfacet
facet normal 0.13052619222005216 0.9914448613738104 0.0
  outer loop
    vertex -7.347880794884117e-16 -3.9999999999999996 0.0
    vertex -1.0352761804100858 -3.863703305156272 7.999999999999999
    vertex -7.347880794884117e-16 -3.9999999999999996 7.999999999999999
  endloop
endfacet
facet normal 0.3826834323650905 0.9238795325112865 0.0
  outer loop
    vertex -2.0000000000000013 -3.464101615137753 7.999999999999999
    vertex -1.0352761804100858 -3.863703305156272 0.0
    vertex -2.0000000000000013 -3.464101615137753 0.0
  endloop
endfacet
facet normal 0.3826834323650905 0.9238795325112865 0.0
  outer loop
    vertex -1.0352761804100858 -3.863703305156272 0.0
    vertex -2.0000000000000013 -3.464101615137753 7.999999999999999
    vertex -1.0352761804100858 -3.863703305156272 7.999999999999999
  endloop
endfacet
facet normal 0.6087614290087209 0.7933533402912349 0.0
  outer loop
    vertex -2.828427124746191 -2.8284271247461885 7.999999999999999
    vertex -2.0000000000000013 -3.464101615137753 0.0
    vertex -2.828427124746191 -2.8284271247461885 0.0
  endloop
endfacet
facet normal 0.6087614290087209 0.7933533402912349 0.0
  outer loop
    vertex -2.0000000000000013 -3.464101615137753 0.0
    vertex -2.828427124746191 -2.8284271247461885 7.999999999999999
    vertex -2.0000000000000013 -3.464101615137753 7.999999999999999
  endloop
endfacet
facet normal 0.7933533402912355 0.6087614290087203 0.0
  outer loop
    vertex -3.4641016151377544 -1.999999999999999 0.0
    vertex -2.828427124746191 -2.8284271247461885 7.999999999999999
    vertex -2.828427124746191 -2.8284271247461885 0.0
  endloop
endfacet
facet normal 0.7933533402912355 0.6087614290087203 0.0
  outer loop
    vertex -2.828427124746191 -2.8284271247461885 7.999999999999999
    vertex -3.4641016151377544 -1.999999999999999 0.0
    vertex -3.4641016151377544 -1.999999999999999 7.999999999999999
  endloop
endfacet
facet normal 0.9238795325112871 0.38268343236508934 0.0
  outer loop
    vertex -3.863703305156273 -1.0352761804100814 0.0
    vertex -3.4641016151377544 -1.999999999999999 7.999999999999999
    vertex -3.4641016151377544 -1.999999999999999 0.0
  endloop
endfacet
facet normal 0.9238795325112871 0.38268343236508934 0.0
  outer loop
    vertex -3.4641016151377544 -1.999999999999999 7.999999999999999
    vertex -3.863703305156273 -1.0352761804100814 0.0
    vertex -3.863703305156273 -1.0352761804100814 7.999999999999999
  endloop
endfacet
facet normal 0.9914448613738106 0.13052619222005124 0.0
  outer loop
    vertex -3.999999999999999 4.898587196589412e-16 0.0
    vertex -3.863703305156273 -1.0352761804100814 7.999999999999999
    vertex -3.863703305156273 -1.0352761804100814 0.0
  endloop
endfacet
facet normal 0.9914448613738106 0.13052619222005124 0.0
  outer loop
    vertex -3.863703305156273 -1.0352761804100814 7.999999999999999
    vertex -3.999999999999999 4.898587196589412e-16 0.0
    vertex -3.999999999999999 4.898587196589412e-16 7.999999999999999
  endloop
endfacet
facet normal 0.9914448613738104 -0.13052619222005168 -0.0
  outer loop
    vertex -3.863703305156272 1.035276180410084 0.0
    vertex -3.999999999999999 4.898587196589412e-16 7.999999999999999
    vertex -3.999999999999999 4.898587196589412e-16 0.0
  endloop
endfacet
facet normal 0.9914448613738104 -0.13052619222005168 -0.0
  outer loop
    vertex -3.999999999999999 4.898587196589412e-16 7.999999999999999
    vertex -3.863703305156272 1.035276180410084 0.0
    vertex -3.863703305156272 1.035276180410084 7.999999999999999
  endloop
endfacet
facet normal 0.9238795325112867 -0.3826834323650899 -0.0
  outer loop
    vertex -3.464101615137753 2.0000000000000013 0.0
    vertex -3.863703305156272 1.035276180410084 7.999999999999999
    vertex -3.863703305156272 1.035276180410084 0.0
  endloop
endfacet
facet normal 0.9238795325112867 -0.3826834323650899 -0.0
  outer loop
    vertex -3.863703305156272 1.035276180410084 7.999999999999999
    vertex -3.464101615137753 2.0000000000000013 0.0
    vertex -3.464101615137753 2.0000000000000013 7.999999999999999
  endloop
endfacet
facet normal 0.793353340291235 -0.6087614290087208 -0.0
  outer loop
    vertex -2.8284271247461894 2.8284271247461903 0.0
    vertex -3.464101615137753 2.0000000000000013 7.999999999999999
    vertex -3.464101615137753 2.0000000000000013 0.0
  endloop
endfacet
facet normal 0.793353340291235 -0.6087614290087208 -0.0
  outer loop
    vertex -3.464101615137753 2.0000000000000013 7.999999999999999
    vertex -2.8284271247461894 2.8284271247461903 0.0
    vertex -2.8284271247461894 2.8284271247461903 7.999999999999999
  endloop
endfacet
facet normal 0.6087614290087202 -0.7933533402912355 -0.0
  outer loop
    vertex -1.9999999999999984 3.4641016151377544 7.999999999999999
    vertex -2.8284271247461894 2.8284271247461903 0.0
    vertex -1.9999999999999984 3.4641016151377544 0.0
  endloop
endfacet
facet normal 0.6087614290087202 -0.7933533402912355 -0.0
  outer loop
    vertex -2.8284271247461894 2.8284271247461903 0.0
    vertex -1.9999999999999984 3.4641016151377544 7.999999999999999
    vertex -2.8284271247461894 2.8284271247461903 7.999999999999999
  endloop
endfacet
facet normal 0.3826834323650897 -0.923879532511287 -0.0
  outer loop
    vertex -1.0352761804100823 3.863703305156273 7.999999999999999
    vertex -1.9999999999999984 3.4641016151377544 0.0
    vertex -1.0352761804100823 3.863703305156273 0.0
  endloop
endfacet
facet normal 0.3826834323650897 -0.923879532511287 -0.0
  outer loop
    vertex -1.9999999999999984 3.4641016151377544 0.0
    vertex -1.0352761804100823 3.863703305156273 7.999999999999999
    vertex -1.9999999999999984 3.4641016151377544 7.999999999999999
  endloop
endfacet
facet normal 0.1305261922200518 -0.9914448613738104 -0.0
  outer loop
    vertex 2.449293598294706e-16 3.9999999999999996 7.999999999999999
    vertex -1.0352761804100823 3.863703305156273 0.0
    vertex 2.449293598294706e-16 3.9999999999999996 0.0
  endloop
endfacet
facet normal 0.1305261922200518 -0.9914448613738104 -0.0
  outer loop
    vertex -1.0352761804100823 3.863703305156273 0.0
    vertex 2.449293598294706e-16 3.9999999999999996 7.999999999999999
    vertex -1.0352761804100823 3.863703305156273 7.999999999999999
  endloop
endfacet
facet normal -0.13052619222005168 -0.9914448613738104 -0.0
  outer loop
    vertex 1.0352761804100836 3.863703305156273 7.999999999999999
    vertex 2.449293598294706e-16 3.9999999999999996 0.0
    vertex 1.0352761804100836 3.863703305156273 0.0
  endloop
endfacet
facet normal -0.13052619222005168 -0.9914448613738104 -0.0
  outer loop
    vertex 2.449293598294706e-16 3.9999999999999996 0.0
    vertex 1.0352761804100836 3.863703305156273 7.999999999999999
    vertex 2.449293598294706e-16 3.9999999999999996 7.999999999999999
  endloop
endfacet
facet normal -0.3826834323650902 -0.9238795325112865 -0.0
  outer loop
    vertex 1.9999999999999998 3.464101615137754 7.999999999999999
    vertex 1.0352761804100836 3.863703305156273 0.0
    vertex 1.9999999999999998 3.464101615137754 0.0
  endloop
endfacet
facet normal -0.3826834323650902 -0.9238795325112865 -0.0
  outer loop
    vertex 1.0352761804100836 3.863703305156273 0.0
    vertex 1.9999999999999998 3.464101615137754 7.999999999999999
    vertex 1.0352761804100836 3.863703305156273 7.999999999999999
  endloop
endfacet
facet normal -0.6087614290087203 -0.7933533402912356 -0.0
  outer loop
    vertex 2.82842712474619 2.8284271247461903 7.999999999999999
    vertex 1.9999999999999998 3.464101615137754 0.0
    vertex 2.82842712474619 2.8284271247461903 0.0
  endloop
endfacet
facet normal -0.6087614290087203 -0.7933533402912356 -0.0
  outer loop
    vertex 1.9999999999999998 3.464101615137754 0.0
    vertex 2.82842712474619 2.8284271247461903 7.999999999999999
    vertex 1.9999999999999998 3.464101615137754 7.999999999999999
  endloop
endfacet
facet normal -0.7933533402912356 -0.6087614290087202 -0.0
  outer loop
    vertex 2.82842712474619 2.8284271247461903 7.999999999999999
    vertex 3.464101615137754 1.9999999999999996 0.0
    vertex 3.464101615137754 1.9999999999999996 7.999999999999999
  endloop
endfacet
facet normal -0.7933533402912356 -0.6087614290087202 -0.0
  outer loop
    vertex 3.464101615137754 1.9999999999999996 0.0
    vertex 2.82842712474619 2.8284271247461903 7.999999999999999
    vertex 2.82842712474619 2.8284271247461903 0.0
  endloop
endfacet
facet normal -0.9238795325112868 -0.38268343236508956 -0.0
  outer loop
    vertex 3.464101615137754 1.9999999999999996 7.999999999999999
    vertex 3.863703305156272 1.035276180410083 0.0
    vertex 3.863703305156272 1.035276180410083 7.999999999999999
  endloop
endfacet
facet normal -0.9238795325112868 -0.38268343236508956 -0.0
  outer loop
    vertex 3.863703305156272 1.035276180410083 0.0
    vertex 3.464101615137754 1.9999999999999996 7.999999999999999
    vertex 3.464101615137754 1.9999999999999996 0.0
  endloop
endfacet
facet normal -0.9914448613738104 -0.13052619222005174 -0.0
  outer loop
    vertex 3.863703305156272 1.035276180410083 7.999999999999999
    vertex 3.999999999999999 0.0 0.0
    vertex 3.999999999999999 0.0 7.999999999999999
  endloop
endfacet
facet normal -0.9914448613738104 -0.13052619222005174 -0.0
  outer loop
    vertex 3.999999999999999 0.0 0.0
    vertex 3.863703305156272 1.035276180410083 7.999999999999999
    vertex 3.863703305156272 1.035276180410083 0.0
  endloop
endfacet
facet normal -0.9914448613738104 0.13052619222005202 -0.0
  outer loop
    vertex 3.999999999999999 0.0 7.999999999999999
    vertex 3.8637033051562715 -1.035276180410086 0.0
    vertex 3.8637033051562715 -1.035276180410086 7.999999999999999
  endloop
endfacet
facet normal -0.9914448613738104 0.13052619222005202 -0.0
  outer loop
    vertex 3.8637033051562715 -1.035276180410086 0.0
    vertex 3.999999999999999 0.0 7.999999999999999
    vertex 3.999999999999999 0.0 0.0
  endloop
endfacet
facet normal -0.9238795325112865 0.3826834323650905 -0.0
  outer loop
    vertex 3.8637033051562715 -1.035276180410086 7.999999999999999
    vertex 3.4641016151377526 -2.0000000000000018 0.0
    vertex 3.4641016151377526 -2.0000000000000018 7.999999999999999
  endloop
endfacet
facet normal -0.9238795325112865 0.3826834323650905 -0.0
  outer loop
    vertex 3.4641016151377526 -2.0000000000000018 0.0
    vertex 3.8637033051562715 -1.035276180410086 7.999999999999999
    vertex 3.8637033051562715 -1.035276180410086 0.0
  endloop
endfacet
facet normal -0.793353340291235 0.6087614290087208 -0.0
  outer loop
    vertex 3.4641016151377526 -2.0000000000000018 7.999999999999999
    vertex 2.8284271247461885 -2.8284271247461903 0.0
    vertex 2.8284271247461885 -2.8284271247461903 7.999999999999999
  endloop
endfacet
facet normal -0.793353340291235 0.6087614290087208 -0.0
  outer loop
    vertex 2.8284271247461885 -2.8284271247461903 0.0
    vertex 3.4641016151377526 -2.0000000000000018 7.999999999999999
    vertex 3.4641016151377526 -2.0000000000000018 0.0
  endloop
endfacet
facet normal -0.6087614290087204 0.7933533402912355 -0.0
  outer loop
    vertex 1.9999999999999967 -3.464101615137756 7.999999999999999
    vertex 2.8284271247461885 -2.8284271247461903 0.0
    vertex 1.9999999999999967 -3.464101615137756 0.0
  endloop
endfacet
facet normal -0.6087614290087204 0.7933533402912355 -0.0
  outer loop
    vertex 2.8284271247461885 -2.8284271247461903 0.0
    vertex 1.9999999999999967 -3.464101615137756 7.999999999999999
    vertex 2.8284271247461885 -2.8284271247461903 7.999999999999999
  endloop
endfacet
facet normal -0.3826834323650892 0.923879532511287 -0.0
  outer loop
    vertex 1.035276180410081 -3.8637033051562732 7.999999999999999
    vertex 1.9999999999999967 -3.464101615137756 0.0
    vertex 1.035276180410081 -3.8637033051562732 0.0
  endloop
endfacet
facet normal -0.3826834323650892 0.923879532511287 -0.0
  outer loop
    vertex 1.9999999999999967 -3.464101615137756 0.0
    vertex 1.035276180410081 -3.8637033051562732 7.999999999999999
    vertex 1.9999999999999967 -3.464101615137756 7.999999999999999
  endloop
endfacet
endsolid Продолжитель шпильки
