solid Y-Скольжения-Ч1
facet normal 0.0 -1.0 0.0
  outer loop
    vertex 9.0 39.999999999999986 0.0
    vertex 6.000000000000003 39.999999999999986 -1.9999999999999998
    vertex 11.000000000000009 39.999999999999986 -1.9999999999999998
  endloop
endfacet
facet normal 0.0 -1.0 0.0
  outer loop
    vertex 6.000000000000003 39.999999999999986 -1.9999999999999998
    vertex 9.0 39.999999999999986 0.0
    vertex 7.999999999999999 39.999999999999986 0.0
  endloop
endfacet
facet normal 0.0 -1.0 0.0
  outer loop
    vertex 3.9999999999999982 39.999999999999986 0.0
    vertex 1.9999999999999978 39.999999999999986 -1.9999999999999998
    vertex 6.000000000000003 39.999999999999986 -1.9999999999999998
  endloop
endfacet
facet normal 0.0 -1.0 0.0
  outer loop
    vertex 1.9999999999999978 39.999999999999986 -1.9999999999999998
    vertex 3.9999999999999982 39.999999999999986 0.0
    vertex 1.9999999999999991 39.999999999999986 -0.9999999999999999
  endloop
endfacet
facet normal 0.0 -1.0 0.0
  outer loop
    vertex 1.9999999999999991 39.999999999999986 -0.9999999999999999
    vertex 3.9999999999999982 39.999999999999986 0.0
    vertex 2.9999999999999987 39.999999999999986 0.0
  endloop
endfacet
facet normal -2.1246322813717022e-16 1.0 -4.0561161735277997e-16
  outer loop
    vertex 1.9999999999999998 10.0 -0.9999999999999999
    vertex 6.000000000000004 10.0 -1.9999999999999998
    vertex 1.9999999999999978 9.999999999999998 -1.9999999999999998
  endloop
endfacet
facet normal -2.1246322813717022e-16 1.0 -4.0561161735277997e-16
  outer loop
    vertex 6.000000000000004 10.0 -1.9999999999999998
    vertex 1.9999999999999998 10.0 -0.9999999999999999
    vertex 3.9999999999999996 10.0 -5.874930171974795e-17
  endloop
endfacet
facet normal -2.1246322813717022e-16 1.0 -4.0561161735277997e-16
  outer loop
    vertex 3.9999999999999996 10.0 -5.874930171974795e-17
    vertex 1.9999999999999998 10.0 -0.9999999999999999
    vertex 2.9999999999999996 10.0 -4.406197628981096e-17
  endloop
endfacet
facet normal -2.30323966969466e-17 1.8330498912585158e-34 1.0
  outer loop
    vertex 6.000000000000004 10.0 -1.9999999999999998
    vertex 1.9999999999999978 39.999999999999986 -1.9999999999999998
    vertex 1.9999999999999978 9.999999999999998 -1.9999999999999998
  endloop
endfacet
facet normal -2.30323966969466e-17 1.8330498912585158e-34 1.0
  outer loop
    vertex 1.9999999999999978 39.999999999999986 -1.9999999999999998
    vertex 6.000000000000004 10.0 -1.9999999999999998
    vertex 6.000000000000003 39.999999999999986 -1.9999999999999998
  endloop
endfacet
facet normal -2.30323966969466e-17 1.8330498912585158e-34 1.0
  outer loop
    vertex 6.000000000000003 39.999999999999986 -1.9999999999999998
    vertex 6.000000000000004 10.0 -1.9999999999999998
    vertex 11.000000000000009 39.999999999999986 -1.9999999999999998
  endloop
endfacet
facet normal -2.30323966969466e-17 1.8330498912585158e-34 1.0
  outer loop
    vertex 11.000000000000009 39.999999999999986 -1.9999999999999998
    vertex 6.000000000000004 10.0 -1.9999999999999998
    vertex 11.000000000000009 10.0 -1.9999999999999998
  endloop
endfacet
facet normal -2.30323966969466e-17 1.8330498912585158e-34 1.0
  outer loop
    vertex 11.000000000000009 39.999999999999986 -1.9999999999999998
    vertex 11.000000000000009 10.0 -1.9999999999999998
    vertex 18.0 9.999999999999998 -1.9999999999999991
  endloop
endfacet
facet normal -2.30323966969466e-17 1.8330498912585158e-34 1.0
  outer loop
    vertex 11.000000000000009 39.999999999999986 -1.9999999999999998
    vertex 18.0 9.999999999999998 -1.9999999999999991
    vertex 18.0 39.999999999999986 -1.9999999999999991
  endloop
endfacet
facet normal -5.874930171974787e-17 -7.248108950371957e-35 1.0
  outer loop
    vertex 18.0 0.0 -0.9999999999999996
    vertex 15.0 10.0 -0.9999999999999998
    vertex 15.0 0.0 -0.9999999999999998
  endloop
endfacet
facet normal -5.874930171974787e-17 -7.248108950371957e-35 1.0
  outer loop
    vertex 15.0 10.0 -0.9999999999999998
    vertex 18.0 0.0 -0.9999999999999996
    vertex 18.0 9.999999999999998 -0.9999999999999996
  endloop
endfacet
facet normal -0.0 -0.0 1.0
  outer loop
    vertex 18.0 39.999999999999986 -0.9999999999999996
    vertex 15.0 50.000000000000064 -0.9999999999999996
    vertex 15.0 39.999999999999986 -0.9999999999999996
  endloop
endfacet
facet normal -0.0 -0.0 1.0
  outer loop
    vertex 15.0 50.000000000000064 -0.9999999999999996
    vertex 18.0 39.999999999999986 -0.9999999999999996
    vertex 18.0 50.000000000000064 -0.9999999999999996
  endloop
endfacet
facet normal -0.0 1.0 -0.0
  outer loop
    vertex 1.9999999999999991 50.000000000000064 -0.9999999999999999
    vertex 18.5 50.000000000000064 -6.0
    vertex 1.9999999999999991 50.000000000000064 -6.0
  endloop
endfacet
facet normal -0.0 1.0 -0.0
  outer loop
    vertex 18.5 50.000000000000064 -6.0
    vertex 1.9999999999999991 50.000000000000064 -0.9999999999999999
    vertex 6.000000000000003 50.000000000000064 -1.9999999999999998
  endloop
endfacet
facet normal -0.0 1.0 -0.0
  outer loop
    vertex 6.000000000000003 50.000000000000064 -1.9999999999999998
    vertex 1.9999999999999991 50.000000000000064 -0.9999999999999999
    vertex 3.9999999999999982 50.000000000000064 0.0
  endloop
endfacet
facet normal -0.0 1.0 -0.0
  outer loop
    vertex 3.9999999999999982 50.000000000000064 0.0
    vertex 1.9999999999999991 50.000000000000064 -0.9999999999999999
    vertex 2.9999999999999987 50.000000000000064 0.0
  endloop
endfacet
facet normal -0.0 1.0 -0.0
  outer loop
    vertex 7.999999999999999 50.000000000000064 0.0
    vertex 11.000000000000009 50.000000000000064 -1.9999999999999998
    vertex 6.000000000000003 50.000000000000064 -1.9999999999999998
  endloop
endfacet
facet normal -0.0 1.0 -0.0
  outer loop
    vertex 11.000000000000009 50.000000000000064 -1.9999999999999998
    vertex 7.999999999999999 50.000000000000064 0.0
    vertex 9.0 50.000000000000064 0.0
  endloop
endfacet
facet normal -0.0 1.0 -0.0
  outer loop
    vertex 13.000000000000002 50.000000000000064 0.0
    vertex 15.0 50.000000000000064 -0.9999999999999996
    vertex 11.000000000000009 50.000000000000064 -1.9999999999999998
  endloop
endfacet
facet normal -0.0 1.0 -0.0
  outer loop
    vertex 15.0 50.000000000000064 -0.9999999999999996
    vertex 13.000000000000002 50.000000000000064 0.0
    vertex 14.000000000000002 50.000000000000064 0.0
  endloop
endfacet
facet normal -0.0 1.0 -0.0
  outer loop
    vertex 18.5 50.000000000000064 -6.0
    vertex 18.0 50.000000000000064 -0.9999999999999996
    vertex 18.5 50.000000000000064 18.0
  endloop
endfacet
facet normal -0.0 1.0 -0.0
  outer loop
    vertex 18.0 50.000000000000064 -0.9999999999999996
    vertex 18.5 50.000000000000064 -6.0
    vertex 11.000000000000009 50.000000000000064 -1.9999999999999998
  endloop
endfacet
facet normal -0.0 1.0 -0.0
  outer loop
    vertex 11.000000000000009 50.000000000000064 -1.9999999999999998
    vertex 18.5 50.000000000000064 -6.0
    vertex 6.000000000000003 50.000000000000064 -1.9999999999999998
  endloop
endfacet
facet normal -0.0 1.0 -0.0
  outer loop
    vertex 18.0 50.000000000000064 -0.9999999999999996
    vertex 11.000000000000009 50.000000000000064 -1.9999999999999998
    vertex 15.0 50.000000000000064 -0.9999999999999996
  endloop
endfacet
facet normal -0.0 1.0 -0.0
  outer loop
    vertex 18.5 50.000000000000064 18.0
    vertex 18.0 50.000000000000064 -0.9999999999999996
    vertex 18.0 50.000000000000064 18.0
  endloop
endfacet
facet normal -0.7071067811865481 0.0 0.7071067811865469
  outer loop
    vertex 7.999999999999999 50.000000000000064 0.0
    vertex 6.000000000000003 39.999999999999986 -1.9999999999999998
    vertex 7.999999999999999 39.999999999999986 0.0
  endloop
endfacet
facet normal -0.7071067811865481 0.0 0.7071067811865469
  outer loop
    vertex 6.000000000000003 39.999999999999986 -1.9999999999999998
    vertex 7.999999999999999 50.000000000000064 0.0
    vertex 6.000000000000003 50.000000000000064 -1.9999999999999998
  endloop
endfacet
facet normal -0.7071067811865477 0.0 0.7071067811865475
  outer loop
    vertex 2.9999999999999987 50.000000000000064 0.0
    vertex 1.9999999999999991 39.999999999999986 -0.9999999999999999
    vertex 2.9999999999999987 39.999999999999986 0.0
  endloop
endfacet
facet normal -0.7071067811865477 0.0 0.7071067811865475
  outer loop
    vertex 1.9999999999999991 39.999999999999986 -0.9999999999999999
    vertex 2.9999999999999987 50.000000000000064 0.0
    vertex 1.9999999999999991 50.000000000000064 -0.9999999999999999
  endloop
endfacet
facet normal 0.0 -1.0 0.0
  outer loop
    vertex 11.000000000000009 39.999999999999986 -1.9999999999999998
    vertex 15.0 39.999999999999986 -0.9999999999999996
    vertex 13.000000000000002 39.999999999999986 0.0
  endloop
endfacet
facet normal 0.0 -1.0 0.0
  outer loop
    vertex 15.0 39.999999999999986 -0.9999999999999996
    vertex 11.000000000000009 39.999999999999986 -1.9999999999999998
    vertex 18.0 39.999999999999986 -1.9999999999999991
  endloop
endfacet
facet normal 0.0 -1.0 0.0
  outer loop
    vertex 15.0 39.999999999999986 -0.9999999999999996
    vertex 18.0 39.999999999999986 -1.9999999999999991
    vertex 18.0 39.999999999999986 -0.9999999999999996
  endloop
endfacet
facet normal 0.0 -1.0 0.0
  outer loop
    vertex 13.000000000000002 39.999999999999986 0.0
    vertex 15.0 39.999999999999986 -0.9999999999999996
    vertex 14.000000000000002 39.999999999999986 0.0
  endloop
endfacet
facet normal -0.0 -0.0 1.0
  outer loop
    vertex 9.0 39.999999999999986 0.0
    vertex 7.999999999999999 50.000000000000064 0.0
    vertex 7.999999999999999 39.999999999999986 0.0
  endloop
endfacet
facet normal -0.0 -0.0 1.0
  outer loop
    vertex 7.999999999999999 50.000000000000064 0.0
    vertex 9.0 39.999999999999986 0.0
    vertex 9.0 50.000000000000064 0.0
  endloop
endfacet
facet normal 0.0 0.0 -1.0
  outer loop
    vertex 18.5 50.000000000000064 -6.0
    vertex 1.9999999999999998 0.0 -6.0
    vertex 1.9999999999999991 50.000000000000064 -6.0
  endloop
endfacet
facet normal 0.0 0.0 -1.0
  outer loop
    vertex 1.9999999999999998 0.0 -6.0
    vertex 18.5 50.000000000000064 -6.0
    vertex 23.5 0.0 -6.0
  endloop
endfacet
facet normal 0.0 0.0 -1.0
  outer loop
    vertex 23.5 0.0 -6.0
    vertex 18.5 50.000000000000064 -6.0
    vertex 23.5 50.00000000000004 -6.0
  endloop
endfacet
facet normal 0.7071067811865461 -0.0 0.7071067811865489
  outer loop
    vertex 11.000000000000009 39.999999999999986 -1.9999999999999998
    vertex 9.0 50.000000000000064 0.0
    vertex 9.0 39.999999999999986 0.0
  endloop
endfacet
facet normal 0.7071067811865461 -0.0 0.7071067811865489
  outer loop
    vertex 9.0 50.000000000000064 0.0
    vertex 11.000000000000009 39.999999999999986 -1.9999999999999998
    vertex 11.000000000000009 50.000000000000064 -1.9999999999999998
  endloop
endfacet
facet normal -0.7071067811865487 0.0 0.7071067811865465
  outer loop
    vertex 13.000000000000002 50.000000000000064 0.0
    vertex 11.000000000000009 39.999999999999986 -1.9999999999999998
    vertex 13.000000000000002 39.999999999999986 0.0
  endloop
endfacet
facet normal -0.7071067811865487 0.0 0.7071067811865465
  outer loop
    vertex 11.000000000000009 39.999999999999986 -1.9999999999999998
    vertex 13.000000000000002 50.000000000000064 0.0
    vertex 11.000000000000009 50.000000000000064 -1.9999999999999998
  endloop
endfacet
facet normal -0.0 -0.0 1.0
  outer loop
    vertex 14.000000000000002 39.999999999999986 0.0
    vertex 13.000000000000002 50.000000000000064 0.0
    vertex 13.000000000000002 39.999999999999986 0.0
  endloop
endfacet
facet normal -0.0 -0.0 1.0
  outer loop
    vertex 13.000000000000002 50.000000000000064 0.0
    vertex 14.000000000000002 39.999999999999986 0.0
    vertex 14.000000000000002 50.000000000000064 0.0
  endloop
endfacet
facet normal -0.0 -0.0 1.0
  outer loop
    vertex 3.9999999999999982 39.999999999999986 0.0
    vertex 2.9999999999999987 50.000000000000064 0.0
    vertex 2.9999999999999987 39.999999999999986 0.0
  endloop
endfacet
facet normal -0.0 -0.0 1.0
  outer loop
    vertex 2.9999999999999987 50.000000000000064 0.0
    vertex 3.9999999999999982 39.999999999999986 0.0
    vertex 3.9999999999999982 50.000000000000064 0.0
  endloop
endfacet
facet normal 0.707106781186548 -0.0 0.7071067811865471
  outer loop
    vertex 15.0 50.000000000000064 -0.9999999999999996
    vertex 14.000000000000002 39.999999999999986 0.0
    vertex 15.0 39.999999999999986 -0.9999999999999996
  endloop
endfacet
facet normal 0.707106781186548 -0.0 0.7071067811865471
  outer loop
    vertex 14.000000000000002 39.999999999999986 0.0
    vertex 15.0 50.000000000000064 -0.9999999999999996
    vertex 14.000000000000002 50.000000000000064 0.0
  endloop
endfacet
facet normal 0.7071067811865467 -0.0 0.7071067811865483
  outer loop
    vertex 6.000000000000003 39.999999999999986 -1.9999999999999998
    vertex 3.9999999999999982 50.000000000000064 0.0
    vertex 3.9999999999999982 39.999999999999986 0.0
  endloop
endfacet
facet normal 0.7071067811865467 -0.0 0.7071067811865483
  outer loop
    vertex 3.9999999999999982 50.000000000000064 0.0
    vertex 6.000000000000003 39.999999999999986 -1.9999999999999998
    vertex 6.000000000000003 50.000000000000064 -1.9999999999999998
  endloop
endfacet
facet normal 3.3839597790574768e-15 1.0 -0.0
  outer loop
    vertex 18.5 50.000000000000064 18.0
    vertex 23.5 50.00000000000004 -6.0
    vertex 18.5 50.000000000000064 -6.0
  endloop
endfacet
facet normal 3.3839597790574768e-15 1.0 -0.0
  outer loop
    vertex 23.5 50.00000000000004 -6.0
    vertex 18.5 50.000000000000064 18.0
    vertex 23.5 50.00000000000004 18.0
  endloop
endfacet
facet normal 0.0 -1.0 0.0
  outer loop
    vertex 23.5 0.0 -6.0
    vertex 18.0 0.0 -0.9999999999999996
    vertex 1.9999999999999998 0.0 -6.0
  endloop
endfacet
facet normal 0.0 -1.0 0.0
  outer loop
    vertex 18.0 0.0 -0.9999999999999996
    vertex 23.5 0.0 -6.0
    vertex 23.5 0.0 18.0
  endloop
endfacet
facet normal 0.0 -1.0 0.0
  outer loop
    vertex 1.9999999999999998 0.0 -6.0
    vertex 18.0 0.0 -0.9999999999999996
    vertex 11.000000000000009 0.0 -1.9999999999999998
  endloop
endfacet
facet normal 0.0 -1.0 0.0
  outer loop
    vertex 11.000000000000009 0.0 -1.9999999999999998
    vertex 18.0 0.0 -0.9999999999999996
    vertex 15.0 0.0 -0.9999999999999998
  endloop
endfacet
facet normal 0.0 -1.0 0.0
  outer loop
    vertex 18.0 0.0 -0.9999999999999996
    vertex 23.5 0.0 18.0
    vertex 18.0 0.0 18.0
  endloop
endfacet
facet normal 0.0 -1.0 0.0
  outer loop
    vertex 15.0 0.0 -0.9999999999999998
    vertex 13.000000000000002 0.0 0.0
    vertex 11.000000000000009 0.0 -1.9999999999999998
  endloop
endfacet
facet normal 0.0 -1.0 0.0
  outer loop
    vertex 13.000000000000002 0.0 0.0
    vertex 15.0 0.0 -0.9999999999999998
    vertex 14.000000000000002 0.0 0.0
  endloop
endfacet
facet normal 0.0 -1.0 0.0
  outer loop
    vertex 9.0 0.0 3.524958103184872e-16
    vertex 6.000000000000004 0.0 -1.9999999999999998
    vertex 11.000000000000009 0.0 -1.9999999999999998
  endloop
endfacet
facet normal 0.0 -1.0 0.0
  outer loop
    vertex 6.000000000000004 0.0 -1.9999999999999998
    vertex 9.0 0.0 3.524958103184872e-16
    vertex 7.999999999999999 0.0 3.524958103184872e-16
  endloop
endfacet
facet normal 0.0 -1.0 0.0
  outer loop
    vertex 1.9999999999999998 0.0 -6.0
    vertex 6.000000000000004 0.0 -1.9999999999999998
    vertex 1.9999999999999998 0.0 -0.9999999999999999
  endloop
endfacet
facet normal 0.0 -1.0 0.0
  outer loop
    vertex 6.000000000000004 0.0 -1.9999999999999998
    vertex 1.9999999999999998 0.0 -6.0
    vertex 11.000000000000009 0.0 -1.9999999999999998
  endloop
endfacet
facet normal 0.0 -1.0 0.0
  outer loop
    vertex 1.9999999999999998 0.0 -0.9999999999999999
    vertex 6.000000000000004 0.0 -1.9999999999999998
    vertex 3.9999999999999996 0.0 -5.874930171974795e-17
  endloop
endfacet
facet normal 0.0 -1.0 0.0
  outer loop
    vertex 1.9999999999999998 0.0 -0.9999999999999999
    vertex 3.9999999999999996 0.0 -5.874930171974795e-17
    vertex 2.9999999999999996 0.0 -4.406197628981096e-17
  endloop
endfacet
facet normal -1.0 0.0 0.0
  outer loop
    vertex 18.0 39.999999999999986 18.0
    vertex 18.0 9.999999999999998 -0.9999999999999996
    vertex 18.0 9.999999999999998 18.0
  endloop
endfacet
facet normal -1.0 0.0 0.0
  outer loop
    vertex 18.0 9.999999999999998 -0.9999999999999996
    vertex 18.0 39.999999999999986 18.0
    vertex 18.0 9.999999999999998 -1.9999999999999991
  endloop
endfacet
facet normal -1.0 0.0 0.0
  outer loop
    vertex 18.0 9.999999999999998 -1.9999999999999991
    vertex 18.0 39.999999999999986 18.0
    vertex 18.0 39.999999999999986 -1.9999999999999991
  endloop
endfacet
facet normal -1.0 0.0 0.0
  outer loop
    vertex 18.0 39.999999999999986 -1.9999999999999991
    vertex 18.0 39.999999999999986 18.0
    vertex 18.0 39.999999999999986 -0.9999999999999996
  endloop
endfacet
facet normal -1.0 -0.0 -0.0
  outer loop
    vertex 18.0 50.000000000000064 18.0
    vertex 18.0 39.999999999999986 -0.9999999999999996
    vertex 18.0 39.999999999999986 18.0
  endloop
endfacet
facet normal -1.0 -0.0 -0.0
  outer loop
    vertex 18.0 39.999999999999986 -0.9999999999999996
    vertex 18.0 50.000000000000064 18.0
    vertex 18.0 50.000000000000064 -0.9999999999999996
  endloop
endfacet
facet normal -1.0 -0.0 -0.0
  outer loop
    vertex 18.0 9.999999999999998 18.0
    vertex 18.0 0.0 -0.9999999999999996
    vertex 18.0 0.0 18.0
  endloop
endfacet
facet normal -1.0 -0.0 -0.0
  outer loop
    vertex 18.0 0.0 -0.9999999999999996
    vertex 18.0 9.999999999999998 18.0
    vertex 18.0 9.999999999999998 -0.9999999999999996
  endloop
endfacet
facet normal 0.0 0.0 1.0
  outer loop
    vertex 23.5 0.0 18.0
    vertex 18.0 9.999999999999998 18.0
    vertex 18.0 0.0 18.0
  endloop
endfacet
facet normal 0.0 0.0 1.0
  outer loop
    vertex 18.0 9.999999999999998 18.0
    vertex 23.5 0.0 18.0
    vertex 18.0 39.999999999999986 18.0
  endloop
endfacet
facet normal 0.0 0.0 1.0
  outer loop
    vertex 18.0 39.999999999999986 18.0
    vertex 23.5 0.0 18.0
    vertex 18.0 50.000000000000064 18.0
  endloop
endfacet
facet normal 0.0 0.0 1.0
  outer loop
    vertex 18.0 50.000000000000064 18.0
    vertex 23.5 0.0 18.0
    vertex 18.5 50.000000000000064 18.0
  endloop
endfacet
facet normal 0.0 0.0 1.0
  outer loop
    vertex 18.5 50.000000000000064 18.0
    vertex 23.5 0.0 18.0
    vertex 23.5 50.00000000000004 18.0
  endloop
endfacet
facet normal 1.0 0.0 0.0
  outer loop
    vertex 23.5 50.00000000000004 -6.0
    vertex 23.5 0.0 18.0
    vertex 23.5 0.0 -6.0
  endloop
endfacet
facet normal 1.0 0.0 0.0
  outer loop
    vertex 23.5 0.0 18.0
    vertex 23.5 50.00000000000004 -6.0
    vertex 23.5 50.00000000000004 18.0
  endloop
endfacet
facet normal 0.0 0.0 1.0
  outer loop
    vertex 9.0 0.0 3.524958103184872e-16
    vertex 7.999999999999999 10.0 3.524958103184872e-16
    vertex 7.999999999999999 0.0 3.524958103184872e-16
  endloop
endfacet
facet normal 0.0 0.0 1.0
  outer loop
    vertex 7.999999999999999 10.0 3.524958103184872e-16
    vertex 9.0 0.0 3.524958103184872e-16
    vertex 9.0 10.0 3.524958103184872e-16
  endloop
endfacet
facet normal 0.707106781186548 -0.0 0.707106781186547
  outer loop
    vertex 15.0 10.0 -0.9999999999999998
    vertex 14.000000000000002 0.0 0.0
    vertex 15.0 0.0 -0.9999999999999998
  endloop
endfacet
facet normal 0.707106781186548 -0.0 0.707106781186547
  outer loop
    vertex 14.000000000000002 0.0 0.0
    vertex 15.0 10.0 -0.9999999999999998
    vertex 14.000000000000002 10.0 0.0
  endloop
endfacet
facet normal 0.7071067811865467 -0.0 0.7071067811865483
  outer loop
    vertex 6.000000000000004 0.0 -1.9999999999999998
    vertex 3.9999999999999996 10.0 -5.874930171974795e-17
    vertex 3.9999999999999996 0.0 -5.874930171974795e-17
  endloop
endfacet
facet normal 0.7071067811865467 -0.0 0.7071067811865483
  outer loop
    vertex 3.9999999999999996 10.0 -5.874930171974795e-17
    vertex 6.000000000000004 0.0 -1.9999999999999998
    vertex 6.000000000000004 10.0 -1.9999999999999998
  endloop
endfacet
facet normal 0.7071067811865462 -0.0 0.7071067811865488
  outer loop
    vertex 11.000000000000009 0.0 -1.9999999999999998
    vertex 9.0 10.0 3.524958103184872e-16
    vertex 9.0 0.0 3.524958103184872e-16
  endloop
endfacet
facet normal 0.7071067811865462 -0.0 0.7071067811865488
  outer loop
    vertex 9.0 10.0 3.524958103184872e-16
    vertex 11.000000000000009 0.0 -1.9999999999999998
    vertex 11.000000000000009 10.0 -1.9999999999999998
  endloop
endfacet
facet normal -0.7071067811865477 0.0 0.7071067811865475
  outer loop
    vertex 2.9999999999999996 10.0 -4.406197628981096e-17
    vertex 1.9999999999999998 0.0 -0.9999999999999999
    vertex 2.9999999999999996 0.0 -4.406197628981096e-17
  endloop
endfacet
facet normal -0.7071067811865477 0.0 0.7071067811865475
  outer loop
    vertex 1.9999999999999998 0.0 -0.9999999999999999
    vertex 2.9999999999999996 10.0 -4.406197628981096e-17
    vertex 1.9999999999999998 10.0 -0.9999999999999999
  endloop
endfacet
facet normal -0.7071067811865487 0.0 0.7071067811865465
  outer loop
    vertex 13.000000000000002 10.0 0.0
    vertex 11.000000000000009 0.0 -1.9999999999999998
    vertex 13.000000000000002 0.0 0.0
  endloop
endfacet
facet normal -0.7071067811865487 0.0 0.7071067811865465
  outer loop
    vertex 11.000000000000009 0.0 -1.9999999999999998
    vertex 13.000000000000002 10.0 0.0
    vertex 11.000000000000009 10.0 -1.9999999999999998
  endloop
endfacet
facet normal -0.7071067811865485 0.0 0.7071067811865467
  outer loop
    vertex 7.999999999999999 10.0 3.524958103184872e-16
    vertex 6.000000000000004 0.0 -1.9999999999999998
    vertex 7.999999999999999 0.0 3.524958103184872e-16
  endloop
endfacet
facet normal -0.7071067811865485 0.0 0.7071067811865467
  outer loop
    vertex 6.000000000000004 0.0 -1.9999999999999998
    vertex 7.999999999999999 10.0 3.524958103184872e-16
    vertex 6.000000000000004 10.0 -1.9999999999999998
  endloop
endfacet
facet normal 0.0 0.0 1.0
  outer loop
    vertex 14.000000000000002 0.0 0.0
    vertex 13.000000000000002 10.0 0.0
    vertex 13.000000000000002 0.0 0.0
  endloop
endfacet
facet normal 0.0 0.0 1.0
  outer loop
    vertex 13.000000000000002 10.0 0.0
    vertex 14.000000000000002 0.0 0.0
    vertex 14.000000000000002 10.0 0.0
  endloop
endfacet
facet normal -1.0 -1.4649176532716327e-17 -7.662952398227983e-17
  outer loop
    vertex 1.9999999999999998 10.0 -0.9999999999999999
    vertex 1.9999999999999998 0.0 -6.0
    vertex 1.9999999999999998 0.0 -0.9999999999999999
  endloop
endfacet
facet normal -1.0 -1.4649176532716327e-17 -7.662952398227983e-17
  outer loop
    vertex 1.9999999999999998 0.0 -6.0
    vertex 1.9999999999999998 10.0 -0.9999999999999999
    vertex 1.9999999999999978 9.999999999999998 -1.9999999999999998
  endloop
endfacet
facet normal -1.0 -1.4649176532716327e-17 -7.662952398227983e-17
  outer loop
    vertex 1.9999999999999991 50.000000000000064 -0.9999999999999999
    vertex 1.9999999999999978 39.999999999999986 -1.9999999999999998
    vertex 1.9999999999999991 39.999999999999986 -0.9999999999999999
  endloop
endfacet
facet normal -1.0 -1.4649176532716327e-17 -7.662952398227983e-17
  outer loop
    vertex 1.9999999999999978 9.999999999999998 -1.9999999999999998
    vertex 1.9999999999999991 50.000000000000064 -6.0
    vertex 1.9999999999999998 0.0 -6.0
  endloop
endfacet
facet normal -1.0 -1.4649176532716327e-17 -7.662952398227983e-17
  outer loop
    vertex 1.9999999999999991 50.000000000000064 -6.0
    vertex 1.9999999999999978 9.999999999999998 -1.9999999999999998
    vertex 1.9999999999999978 39.999999999999986 -1.9999999999999998
  endloop
endfacet
facet normal -1.0 -1.4649176532716327e-17 -7.662952398227983e-17
  outer loop
    vertex 1.9999999999999991 50.000000000000064 -6.0
    vertex 1.9999999999999978 39.999999999999986 -1.9999999999999998
    vertex 1.9999999999999991 50.000000000000064 -0.9999999999999999
  endloop
endfacet
facet normal 1.468732542993699e-17 0.0 1.0
  outer loop
    vertex 3.9999999999999996 0.0 -5.874930171974795e-17
    vertex 2.9999999999999996 10.0 -4.406197628981096e-17
    vertex 2.9999999999999996 0.0 -4.406197628981096e-17
  endloop
endfacet
facet normal 1.468732542993699e-17 0.0 1.0
  outer loop
    vertex 2.9999999999999996 10.0 -4.406197628981096e-17
    vertex 3.9999999999999996 0.0 -5.874930171974795e-17
    vertex 3.9999999999999996 10.0 -5.874930171974795e-17
  endloop
endfacet
facet normal 1.4694944415069229e-16 1.0 -3.2681290407269297e-16
  outer loop
    vertex 18.0 9.999999999999998 -0.9999999999999996
    vertex 18.0 9.999999999999998 -1.9999999999999991
    vertex 15.0 10.0 -0.9999999999999998
  endloop
endfacet
facet normal 1.4694944415069229e-16 1.0 -3.2681290407269297e-16
  outer loop
    vertex 11.000000000000009 10.0 -1.9999999999999998
    vertex 15.0 10.0 -0.9999999999999998
    vertex 18.0 9.999999999999998 -1.9999999999999991
  endloop
endfacet
facet normal 1.4694944415069229e-16 1.0 -3.2681290407269297e-16
  outer loop
    vertex 15.0 10.0 -0.9999999999999998
    vertex 11.000000000000009 10.0 -1.9999999999999998
    vertex 13.000000000000002 10.0 0.0
  endloop
endfacet
facet normal 1.4694944415069229e-16 1.0 -3.2681290407269297e-16
  outer loop
    vertex 15.0 10.0 -0.9999999999999998
    vertex 13.000000000000002 10.0 0.0
    vertex 14.000000000000002 10.0 0.0
  endloop
endfacet
facet normal -0.0 1.0 -0.0
  outer loop
    vertex 7.999999999999999 10.0 3.524958103184872e-16
    vertex 11.000000000000009 10.0 -1.9999999999999998
    vertex 6.000000000000004 10.0 -1.9999999999999998
  endloop
endfacet
facet normal -0.0 1.0 -0.0
  outer loop
    vertex 11.000000000000009 10.0 -1.9999999999999998
    vertex 7.999999999999999 10.0 3.524958103184872e-16
    vertex 9.0 10.0 3.524958103184872e-16
  endloop
endfacet
endsolid Y-Скольжения-Ч1
