solid Пуговица
facet normal 0.0 0.0 -1.0
  outer loop
    vertex -9.659258262890683 2.58819045102521 -3.0
    vertex -9.659258262890685 -2.5881904510252034 -3.0
    vertex -10.0 1.2246467991473533e-15 -3.0
  endloop
endfacet
facet normal 0.0 0.0 -1.0
  outer loop
    vertex -9.659258262890685 -2.5881904510252034 -3.0
    vertex -9.659258262890683 2.58819045102521 -3.0
    vertex -8.660254037844389 -4.999999999999997 -3.0
  endloop
endfacet
facet normal 0.0 0.0 -1.0
  outer loop
    vertex -8.660254037844389 -4.999999999999997 -3.0
    vertex -9.659258262890683 2.58819045102521 -3.0
    vertex -8.660254037844386 5.0000000000000036 -3.0
  endloop
endfacet
facet normal 0.0 0.0 -1.0
  outer loop
    vertex -8.660254037844389 -4.999999999999997 -3.0
    vertex -8.660254037844386 5.0000000000000036 -3.0
    vertex -7.071067811865479 -7.071067811865472 -3.0
  endloop
endfacet
facet normal 0.0 0.0 -1.0
  outer loop
    vertex -7.071067811865479 -7.071067811865472 -3.0
    vertex -8.660254037844386 5.0000000000000036 -3.0
    vertex -7.071067811865475 7.071067811865476 -3.0
  endloop
endfacet
facet normal 0.0 0.0 -1.0
  outer loop
    vertex -7.071067811865479 -7.071067811865472 -3.0
    vertex -7.071067811865475 7.071067811865476 -3.0
    vertex -5.000000000000004 -8.660254037844386 -3.0
  endloop
endfacet
facet normal 0.0 0.0 -1.0
  outer loop
    vertex -5.000000000000004 -8.660254037844386 -3.0
    vertex -7.071067811865475 7.071067811865476 -3.0
    vertex -4.999999999999998 8.660254037844387 -3.0
  endloop
endfacet
facet normal 0.0 0.0 -1.0
  outer loop
    vertex -5.000000000000004 -8.660254037844386 -3.0
    vertex -4.999999999999998 8.660254037844387 -3.0
    vertex -2.5881904510252154 -9.659258262890681 -3.0
  endloop
endfacet
facet normal 0.0 0.0 -1.0
  outer loop
    vertex -2.5881904510252154 -9.659258262890681 -3.0
    vertex -4.999999999999998 8.660254037844387 -3.0
    vertex -2.588190451025206 9.659258262890683 -3.0
  endloop
endfacet
facet normal 0.0 0.0 -1.0
  outer loop
    vertex -2.5881904510252154 -9.659258262890681 -3.0
    vertex -2.588190451025206 9.659258262890683 -3.0
    vertex -1.8369701987210296e-15 -10.0 -3.0
  endloop
endfacet
facet normal 0.0 0.0 -1.0
  outer loop
    vertex -1.8369701987210296e-15 -10.0 -3.0
    vertex -2.588190451025206 9.659258262890683 -3.0
    vertex 6.123233995736766e-16 10.0 -3.0
  endloop
endfacet
facet normal 0.0 0.0 -1.0
  outer loop
    vertex -1.8369701987210296e-15 -10.0 -3.0
    vertex 6.123233995736766e-16 10.0 -3.0
    vertex 2.588190451025203 -9.659258262890685 -3.0
  endloop
endfacet
facet normal 0.0 0.0 -1.0
  outer loop
    vertex 2.588190451025203 -9.659258262890685 -3.0
    vertex 6.123233995736766e-16 10.0 -3.0
    vertex 2.5881904510252096 9.659258262890683 -3.0
  endloop
endfacet
facet normal 0.0 0.0 -1.0
  outer loop
    vertex 2.588190451025203 -9.659258262890685 -3.0
    vertex 2.5881904510252096 9.659258262890683 -3.0
    vertex 4.999999999999994 -8.66025403784439 -3.0
  endloop
endfacet
facet normal 0.0 0.0 -1.0
  outer loop
    vertex 4.999999999999994 -8.66025403784439 -3.0
    vertex 2.5881904510252096 9.659258262890683 -3.0
    vertex 5.000000000000002 8.660254037844386 -3.0
  endloop
endfacet
facet normal 0.0 0.0 -1.0
  outer loop
    vertex 4.999999999999994 -8.66025403784439 -3.0
    vertex 5.000000000000002 8.660254037844386 -3.0
    vertex 7.071067811865473 -7.071067811865477 -3.0
  endloop
endfacet
facet normal 0.0 0.0 -1.0
  outer loop
    vertex 7.071067811865473 -7.071067811865477 -3.0
    vertex 5.000000000000002 8.660254037844386 -3.0
    vertex 7.071067811865476 7.071067811865476 -3.0
  endloop
endfacet
facet normal 0.0 0.0 -1.0
  outer loop
    vertex 7.071067811865473 -7.071067811865477 -3.0
    vertex 7.071067811865476 7.071067811865476 -3.0
    vertex 8.660254037844384 -5.000000000000004 -3.0
  endloop
endfacet
facet normal 0.0 0.0 -1.0
  outer loop
    vertex 8.660254037844384 -5.000000000000004 -3.0
    vertex 7.071067811865476 7.071067811865476 -3.0
    vertex 8.660254037844387 4.999999999999999 -3.0
  endloop
endfacet
facet normal 0.0 0.0 -1.0
  outer loop
    vertex 8.660254037844384 -5.000000000000004 -3.0
    vertex 8.660254037844387 4.999999999999999 -3.0
    vertex 9.659258262890681 -2.588190451025216 -3.0
  endloop
endfacet
facet normal 0.0 0.0 -1.0
  outer loop
    vertex 9.659258262890681 -2.588190451025216 -3.0
    vertex 8.660254037844387 4.999999999999999 -3.0
    vertex 9.659258262890683 2.5881904510252074 -3.0
  endloop
endfacet
facet normal 0.0 0.0 -1.0
  outer loop
    vertex 9.659258262890681 -2.588190451025216 -3.0
    vertex 9.659258262890683 2.5881904510252074 -3.0
    vertex 10.0 0.0 -3.0
  endloop
endfacet
facet normal 0.0 0.0 1.0
  outer loop
    vertex -0.9058666578588221 -3.380740392011739 5.0
    vertex -1.2999999999999998 -1.592040838891559e-16 5.0
    vertex -1.7499999999999993 -3.031088913245535 5.0
  endloop
endfacet
facet normal 0.0 0.0 1.0
  outer loop
    vertex -1.2999999999999998 -1.592040838891559e-16 5.0
    vertex -0.9058666578588221 -3.380740392011739 5.0
    vertex -1.2557035741757885 -0.3364647586332773 5.0
  endloop
endfacet
facet normal 0.0 0.0 1.0
  outer loop
    vertex -1.2557035741757885 -0.3364647586332773 5.0
    vertex -0.9058666578588221 -3.380740392011739 5.0
    vertex -1.12583302491977 -0.6500000000000004 5.0
  endloop
endfacet
facet normal 0.0 0.0 1.0
  outer loop
    vertex -1.12583302491977 -0.6500000000000004 5.0
    vertex -0.9058666578588221 -3.380740392011739 5.0
    vertex -0.9192388155425116 -0.9192388155425119 5.0
  endloop
endfacet
facet normal 0.0 0.0 1.0
  outer loop
    vertex -0.9192388155425116 -0.9192388155425119 5.0
    vertex -0.9058666578588221 -3.380740392011739 5.0
    vertex -0.6499999999999997 -1.12583302491977 5.0
  endloop
endfacet
facet normal 0.0 0.0 1.0
  outer loop
    vertex -0.6499999999999997 -1.12583302491977 5.0
    vertex -0.9058666578588221 -3.380740392011739 5.0
    vertex 2.143131898507868e-16 -3.5 5.0
  endloop
endfacet
facet normal 0.0 0.0 1.0
  outer loop
    vertex -0.6499999999999997 -1.12583302491977 5.0
    vertex 2.143131898507868e-16 -3.5 5.0
    vertex -0.3364647586332768 -1.2557035741757887 5.0
  endloop
endfacet
facet normal 0.0 0.0 1.0
  outer loop
    vertex -0.3364647586332768 -1.2557035741757887 5.0
    vertex 2.143131898507868e-16 -3.5 5.0
    vertex 7.960204194457795e-17 -1.2999999999999998 5.0
  endloop
endfacet
facet normal 0.0 0.0 1.0
  outer loop
    vertex 7.960204194457795e-17 -1.2999999999999998 5.0
    vertex 2.143131898507868e-16 -3.5 5.0
    vertex 0.3364647586332772 -1.2557035741757885 5.0
  endloop
endfacet
facet normal 0.0 0.0 1.0
  outer loop
    vertex 0.3364647586332772 -1.2557035741757885 5.0
    vertex 2.143131898507868e-16 -3.5 5.0
    vertex 0.9058666578588234 -3.380740392011739 5.0
  endloop
endfacet
facet normal 0.0 0.0 1.0
  outer loop
    vertex 0.3364647586332772 -1.2557035741757885 5.0
    vertex 0.9058666578588234 -3.380740392011739 5.0
    vertex 0.6500000000000001 -1.12583302491977 5.0
  endloop
endfacet
facet normal 0.0 0.0 1.0
  outer loop
    vertex 0.6500000000000001 -1.12583302491977 5.0
    vertex 0.9058666578588234 -3.380740392011739 5.0
    vertex 0.9192388155425119 -0.9192388155425119 5.0
  endloop
endfacet
facet normal 0.0 0.0 1.0
  outer loop
    vertex 0.9192388155425119 -0.9192388155425119 5.0
    vertex 0.9058666578588234 -3.380740392011739 5.0
    vertex 1.7500000000000002 -3.031088913245535 5.0
  endloop
endfacet
facet normal 0.0 0.0 1.0
  outer loop
    vertex 0.9192388155425119 -0.9192388155425119 5.0
    vertex 1.7500000000000002 -3.031088913245535 5.0
    vertex 1.12583302491977 -0.6499999999999999 5.0
  endloop
endfacet
facet normal 0.0 0.0 1.0
  outer loop
    vertex 1.12583302491977 -0.6499999999999999 5.0
    vertex 1.7500000000000002 -3.031088913245535 5.0
    vertex 1.2557035741757887 -0.33646475863327696 5.0
  endloop
endfacet
facet normal 0.0 0.0 1.0
  outer loop
    vertex 1.2557035741757887 -0.33646475863327696 5.0
    vertex 1.7500000000000002 -3.031088913245535 5.0
    vertex 1.2999999999999998 0.0 5.0
  endloop
endfacet
facet normal 0.0 0.0 1.0
  outer loop
    vertex 1.2999999999999998 0.0 5.0
    vertex 1.7500000000000002 -3.031088913245535 5.0
    vertex 1.7499999999999976 3.0310889132455365 5.0
  endloop
endfacet
facet normal 0.0 0.0 1.0
  outer loop
    vertex 1.7499999999999976 3.0310889132455365 5.0
    vertex 1.7500000000000002 -3.031088913245535 5.0
    vertex 2.474873734152916 2.474873734152917 5.0
  endloop
endfacet
facet normal 0.0 0.0 1.0
  outer loop
    vertex 2.474873734152916 2.474873734152917 5.0
    vertex 1.7500000000000002 -3.031088913245535 5.0
    vertex 2.4748737341529163 -2.4748737341529163 5.0
  endloop
endfacet
facet normal 0.0 0.0 1.0
  outer loop
    vertex 2.474873734152916 2.474873734152917 5.0
    vertex 2.4748737341529163 -2.4748737341529163 5.0
    vertex 3.0310889132455343 1.7500000000000013 5.0
  endloop
endfacet
facet normal 0.0 0.0 1.0
  outer loop
    vertex 3.0310889132455343 1.7500000000000013 5.0
    vertex 2.4748737341529163 -2.4748737341529163 5.0
    vertex 3.031088913245535 -1.7499999999999996 5.0
  endloop
endfacet
facet normal 0.0 0.0 1.0
  outer loop
    vertex 3.0310889132455343 1.7500000000000013 5.0
    vertex 3.031088913245535 -1.7499999999999996 5.0
    vertex 3.380740392011738 0.9058666578588255 5.0
  endloop
endfacet
facet normal 0.0 0.0 1.0
  outer loop
    vertex 3.380740392011738 0.9058666578588255 5.0
    vertex 3.031088913245535 -1.7499999999999996 5.0
    vertex 3.380740392011739 -0.9058666578588226 5.0
  endloop
endfacet
facet normal 0.0 0.0 1.0
  outer loop
    vertex 3.380740392011738 0.9058666578588255 5.0
    vertex 3.380740392011739 -0.9058666578588226 5.0
    vertex 3.5 0.0 5.0
  endloop
endfacet
facet normal 0.0 0.0 1.0
  outer loop
    vertex -3.380740392011739 -0.9058666578588235 5.0
    vertex -3.3807403920117394 0.9058666578588213 5.0
    vertex -3.5 -4.286263797015736e-16 5.0
  endloop
endfacet
facet normal 0.0 0.0 1.0
  outer loop
    vertex -3.3807403920117394 0.9058666578588213 5.0
    vertex -3.380740392011739 -0.9058666578588235 5.0
    vertex -3.0310889132455356 1.749999999999999 5.0
  endloop
endfacet
facet normal 0.0 0.0 1.0
  outer loop
    vertex -3.0310889132455356 1.749999999999999 5.0
    vertex -3.380740392011739 -0.9058666578588235 5.0
    vertex -3.0310889132455348 -1.750000000000001 5.0
  endloop
endfacet
facet normal 0.0 0.0 1.0
  outer loop
    vertex -3.0310889132455356 1.749999999999999 5.0
    vertex -3.0310889132455348 -1.750000000000001 5.0
    vertex -2.4748737341529177 2.4748737341529146 5.0
  endloop
endfacet
facet normal 0.0 0.0 1.0
  outer loop
    vertex -2.4748737341529177 2.4748737341529146 5.0
    vertex -3.0310889132455348 -1.750000000000001 5.0
    vertex -2.4748737341529163 -2.4748737341529163 5.0
  endloop
endfacet
facet normal 0.0 0.0 1.0
  outer loop
    vertex -2.4748737341529177 2.4748737341529146 5.0
    vertex -2.4748737341529163 -2.4748737341529163 5.0
    vertex -1.7500000000000013 3.0310889132455348 5.0
  endloop
endfacet
facet normal 0.0 0.0 1.0
  outer loop
    vertex -1.7500000000000013 3.0310889132455348 5.0
    vertex -2.4748737341529163 -2.4748737341529163 5.0
    vertex -1.7499999999999993 -3.031088913245535 5.0
  endloop
endfacet
facet normal 0.0 0.0 1.0
  outer loop
    vertex -1.7500000000000013 3.0310889132455348 5.0
    vertex -1.7499999999999993 -3.031088913245535 5.0
    vertex -0.9058666578588253 3.380740392011738 5.0
  endloop
endfacet
facet normal 0.0 0.0 1.0
  outer loop
    vertex -0.9058666578588253 3.380740392011738 5.0
    vertex -1.7499999999999993 -3.031088913245535 5.0
    vertex -1.2999999999999998 -1.592040838891559e-16 5.0
  endloop
endfacet
facet normal 0.0 0.0 1.0
  outer loop
    vertex -0.9058666578588253 3.380740392011738 5.0
    vertex -1.2999999999999998 -1.592040838891559e-16 5.0
    vertex -1.255703574175789 0.3364647586332764 5.0
  endloop
endfacet
facet normal 0.0 0.0 1.0
  outer loop
    vertex -0.9058666578588253 3.380740392011738 5.0
    vertex -1.255703574175789 0.3364647586332764 5.0
    vertex -1.1258330249197703 0.6499999999999996 5.0
  endloop
endfacet
facet normal 0.0 0.0 1.0
  outer loop
    vertex -0.9058666578588253 3.380740392011738 5.0
    vertex -1.1258330249197703 0.6499999999999996 5.0
    vertex -0.9192388155425122 0.9192388155425112 5.0
  endloop
endfacet
facet normal 0.0 0.0 1.0
  outer loop
    vertex -0.9058666578588253 3.380740392011738 5.0
    vertex -0.9192388155425122 0.9192388155425112 5.0
    vertex -0.6500000000000006 1.12583302491977 5.0
  endloop
endfacet
facet normal 0.0 0.0 1.0
  outer loop
    vertex -0.9058666578588253 3.380740392011738 5.0
    vertex -0.6500000000000006 1.12583302491977 5.0
    vertex -6.429395695523604e-16 3.5 5.0
  endloop
endfacet
facet normal 0.0 0.0 1.0
  outer loop
    vertex -6.429395695523604e-16 3.5 5.0
    vertex -0.6500000000000006 1.12583302491977 5.0
    vertex -0.33646475863327796 1.2557035741757885 5.0
  endloop
endfacet
facet normal 0.0 0.0 1.0
  outer loop
    vertex -6.429395695523604e-16 3.5 5.0
    vertex -0.33646475863327796 1.2557035741757885 5.0
    vertex -2.3880612583373386e-16 1.2999999999999998 5.0
  endloop
endfacet
facet normal 0.0 0.0 1.0
  outer loop
    vertex -6.429395695523604e-16 3.5 5.0
    vertex -2.3880612583373386e-16 1.2999999999999998 5.0
    vertex 0.905866657858821 3.3807403920117394 5.0
  endloop
endfacet
facet normal 0.0 0.0 1.0
  outer loop
    vertex 0.905866657858821 3.3807403920117394 5.0
    vertex -2.3880612583373386e-16 1.2999999999999998 5.0
    vertex 0.33646475863327635 1.255703574175789 5.0
  endloop
endfacet
facet normal 0.0 0.0 1.0
  outer loop
    vertex 0.905866657858821 3.3807403920117394 5.0
    vertex 0.33646475863327635 1.255703574175789 5.0
    vertex 0.649999999999999 1.1258330249197708 5.0
  endloop
endfacet
facet normal 0.0 0.0 1.0
  outer loop
    vertex 0.905866657858821 3.3807403920117394 5.0
    vertex 0.649999999999999 1.1258330249197708 5.0
    vertex 0.9192388155425115 0.9192388155425119 5.0
  endloop
endfacet
facet normal 0.0 0.0 1.0
  outer loop
    vertex 0.905866657858821 3.3807403920117394 5.0
    vertex 0.9192388155425115 0.9192388155425119 5.0
    vertex 1.7499999999999976 3.0310889132455365 5.0
  endloop
endfacet
facet normal 0.0 0.0 1.0
  outer loop
    vertex 1.7499999999999976 3.0310889132455365 5.0
    vertex 0.9192388155425115 0.9192388155425119 5.0
    vertex 1.1258330249197699 0.6500000000000006 5.0
  endloop
endfacet
facet normal 0.0 0.0 1.0
  outer loop
    vertex 1.7499999999999976 3.0310889132455365 5.0
    vertex 1.1258330249197699 0.6500000000000006 5.0
    vertex 1.2557035741757885 0.336464758633278 5.0
  endloop
endfacet
facet normal 0.0 0.0 1.0
  outer loop
    vertex 1.7499999999999976 3.0310889132455365 5.0
    vertex 1.2557035741757885 0.336464758633278 5.0
    vertex 1.2999999999999998 0.0 5.0
  endloop
endfacet
facet normal 0.0 0.0 1.0
  outer loop
    vertex -1.2557035741757885 -0.3364647586332773 -1.9999999999999998
    vertex -1.255703574175789 0.3364647586332764 -1.9999999999999998
    vertex -1.2999999999999998 -1.592040838891559e-16 -1.9999999999999998
  endloop
endfacet
facet normal 0.0 0.0 1.0
  outer loop
    vertex -1.255703574175789 0.3364647586332764 -1.9999999999999998
    vertex -1.2557035741757885 -0.3364647586332773 -1.9999999999999998
    vertex -1.1258330249197703 0.6499999999999996 -1.9999999999999998
  endloop
endfacet
facet normal 0.0 0.0 1.0
  outer loop
    vertex -1.1258330249197703 0.6499999999999996 -1.9999999999999998
    vertex -1.2557035741757885 -0.3364647586332773 -1.9999999999999998
    vertex -1.12583302491977 -0.6500000000000004 -1.9999999999999998
  endloop
endfacet
facet normal 0.0 0.0 1.0
  outer loop
    vertex -1.1258330249197703 0.6499999999999996 -1.9999999999999998
    vertex -1.12583302491977 -0.6500000000000004 -1.9999999999999998
    vertex -0.9192388155425122 0.9192388155425112 -1.9999999999999998
  endloop
endfacet
facet normal 0.0 0.0 1.0
  outer loop
    vertex -0.9192388155425122 0.9192388155425112 -1.9999999999999998
    vertex -1.12583302491977 -0.6500000000000004 -1.9999999999999998
    vertex -0.9192388155425116 -0.9192388155425119 -1.9999999999999998
  endloop
endfacet
facet normal 0.0 0.0 1.0
  outer loop
    vertex -0.9192388155425122 0.9192388155425112 -1.9999999999999998
    vertex -0.9192388155425116 -0.9192388155425119 -1.9999999999999998
    vertex -0.6500000000000006 1.12583302491977 -1.9999999999999998
  endloop
endfacet
facet normal 0.0 0.0 1.0
  outer loop
    vertex -0.6500000000000006 1.12583302491977 -1.9999999999999998
    vertex -0.9192388155425116 -0.9192388155425119 -1.9999999999999998
    vertex -0.6499999999999997 -1.12583302491977 -1.9999999999999998
  endloop
endfacet
facet normal 0.0 0.0 1.0
  outer loop
    vertex -0.6500000000000006 1.12583302491977 -1.9999999999999998
    vertex -0.6499999999999997 -1.12583302491977 -1.9999999999999998
    vertex -0.33646475863327796 1.2557035741757885 -1.9999999999999998
  endloop
endfacet
facet normal 0.0 0.0 1.0
  outer loop
    vertex -0.33646475863327796 1.2557035741757885 -1.9999999999999998
    vertex -0.6499999999999997 -1.12583302491977 -1.9999999999999998
    vertex -0.3364647586332768 -1.2557035741757887 -1.9999999999999998
  endloop
endfacet
facet normal 0.0 0.0 1.0
  outer loop
    vertex -0.33646475863327796 1.2557035741757885 -1.9999999999999998
    vertex -0.3364647586332768 -1.2557035741757887 -1.9999999999999998
    vertex -2.3880612583373386e-16 1.2999999999999998 -1.9999999999999998
  endloop
endfacet
facet normal 0.0 0.0 1.0
  outer loop
    vertex -2.3880612583373386e-16 1.2999999999999998 -1.9999999999999998
    vertex -0.3364647586332768 -1.2557035741757887 -1.9999999999999998
    vertex 7.960204194457795e-17 -1.2999999999999998 -1.9999999999999998
  endloop
endfacet
facet normal 0.0 0.0 1.0
  outer loop
    vertex -2.3880612583373386e-16 1.2999999999999998 -1.9999999999999998
    vertex 7.960204194457795e-17 -1.2999999999999998 -1.9999999999999998
    vertex 0.33646475863327635 1.255703574175789 -1.9999999999999998
  endloop
endfacet
facet normal 0.0 0.0 1.0
  outer loop
    vertex 0.33646475863327635 1.255703574175789 -1.9999999999999998
    vertex 7.960204194457795e-17 -1.2999999999999998 -1.9999999999999998
    vertex 0.3364647586332772 -1.2557035741757885 -1.9999999999999998
  endloop
endfacet
facet normal 0.0 0.0 1.0
  outer loop
    vertex 0.33646475863327635 1.255703574175789 -1.9999999999999998
    vertex 0.3364647586332772 -1.2557035741757885 -1.9999999999999998
    vertex 0.649999999999999 1.1258330249197708 -1.9999999999999998
  endloop
endfacet
facet normal 0.0 0.0 1.0
  outer loop
    vertex 0.649999999999999 1.1258330249197708 -1.9999999999999998
    vertex 0.3364647586332772 -1.2557035741757885 -1.9999999999999998
    vertex 0.6500000000000001 -1.12583302491977 -1.9999999999999998
  endloop
endfacet
facet normal 0.0 0.0 1.0
  outer loop
    vertex 0.649999999999999 1.1258330249197708 -1.9999999999999998
    vertex 0.6500000000000001 -1.12583302491977 -1.9999999999999998
    vertex 0.9192388155425115 0.9192388155425119 -1.9999999999999998
  endloop
endfacet
facet normal 0.0 0.0 1.0
  outer loop
    vertex 0.9192388155425115 0.9192388155425119 -1.9999999999999998
    vertex 0.6500000000000001 -1.12583302491977 -1.9999999999999998
    vertex 0.9192388155425119 -0.9192388155425119 -1.9999999999999998
  endloop
endfacet
facet normal 0.0 0.0 1.0
  outer loop
    vertex 0.9192388155425115 0.9192388155425119 -1.9999999999999998
    vertex 0.9192388155425119 -0.9192388155425119 -1.9999999999999998
    vertex 1.1258330249197699 0.6500000000000006 -1.9999999999999998
  endloop
endfacet
facet normal 0.0 0.0 1.0
  outer loop
    vertex 1.1258330249197699 0.6500000000000006 -1.9999999999999998
    vertex 0.9192388155425119 -0.9192388155425119 -1.9999999999999998
    vertex 1.12583302491977 -0.6499999999999999 -1.9999999999999998
  endloop
endfacet
facet normal 0.0 0.0 1.0
  outer loop
    vertex 1.1258330249197699 0.6500000000000006 -1.9999999999999998
    vertex 1.12583302491977 -0.6499999999999999 -1.9999999999999998
    vertex 1.2557035741757885 0.336464758633278 -1.9999999999999998
  endloop
endfacet
facet normal 0.0 0.0 1.0
  outer loop
    vertex 1.2557035741757885 0.336464758633278 -1.9999999999999998
    vertex 1.12583302491977 -0.6499999999999999 -1.9999999999999998
    vertex 1.2557035741757887 -0.33646475863327696 -1.9999999999999998
  endloop
endfacet
facet normal 0.0 0.0 1.0
  outer loop
    vertex 1.2557035741757885 0.336464758633278 -1.9999999999999998
    vertex 1.2557035741757887 -0.33646475863327696 -1.9999999999999998
    vertex 1.2999999999999998 0.0 -1.9999999999999998
  endloop
endfacet
facet normal -0.9238795325112867 0.3826834323650897 -0.0
  outer loop
    vertex 1.2557035741757887 -0.33646475863327696 5.0
    vertex 1.12583302491977 -0.6499999999999999 -1.9999999999999998
    vertex 1.12583302491977 -0.6499999999999999 5.0
  endloop
endfacet
facet normal -0.9238795325112867 0.3826834323650897 -0.0
  outer loop
    vertex 1.12583302491977 -0.6499999999999999 -1.9999999999999998
    vertex 1.2557035741757887 -0.33646475863327696 5.0
    vertex 1.2557035741757887 -0.33646475863327696 -1.9999999999999998
  endloop
endfacet
facet normal -0.9914448613738105 0.13052619222005166 -0.0
  outer loop
    vertex 1.2999999999999998 0.0 5.0
    vertex 1.2557035741757887 -0.33646475863327696 -1.9999999999999998
    vertex 1.2557035741757887 -0.33646475863327696 5.0
  endloop
endfacet
facet normal -0.9914448613738105 0.13052619222005166 -0.0
  outer loop
    vertex 1.2557035741757887 -0.33646475863327696 -1.9999999999999998
    vertex 1.2999999999999998 0.0 5.0
    vertex 1.2999999999999998 0.0 -1.9999999999999998
  endloop
endfacet
facet normal -0.9914448613738104 -0.13052619222005177 -0.0
  outer loop
    vertex 1.2557035741757885 0.336464758633278 5.0
    vertex 1.2999999999999998 0.0 -1.9999999999999998
    vertex 1.2999999999999998 0.0 5.0
  endloop
endfacet
facet normal -0.9914448613738104 -0.13052619222005177 -0.0
  outer loop
    vertex 1.2999999999999998 0.0 -1.9999999999999998
    vertex 1.2557035741757885 0.336464758633278 5.0
    vertex 1.2557035741757885 0.336464758633278 -1.9999999999999998
  endloop
endfacet
facet normal -0.9238795325112866 -0.3826834323650906 -0.0
  outer loop
    vertex 1.1258330249197699 0.6500000000000006 5.0
    vertex 1.2557035741757885 0.336464758633278 -1.9999999999999998
    vertex 1.2557035741757885 0.336464758633278 5.0
  endloop
endfacet
facet normal -0.9238795325112866 -0.3826834323650906 -0.0
  outer loop
    vertex 1.2557035741757885 0.336464758633278 -1.9999999999999998
    vertex 1.1258330249197699 0.6500000000000006 5.0
    vertex 1.1258330249197699 0.6500000000000006 -1.9999999999999998
  endloop
endfacet
facet normal -0.7933533402912349 -0.6087614290087212 -0.0
  outer loop
    vertex 0.9192388155425115 0.9192388155425119 5.0
    vertex 1.1258330249197699 0.6500000000000006 -1.9999999999999998
    vertex 1.1258330249197699 0.6500000000000006 5.0
  endloop
endfacet
facet normal -0.7933533402912349 -0.6087614290087212 -0.0
  outer loop
    vertex 1.1258330249197699 0.6500000000000006 -1.9999999999999998
    vertex 0.9192388155425115 0.9192388155425119 5.0
    vertex 0.9192388155425115 0.9192388155425119 -1.9999999999999998
  endloop
endfacet
facet normal -0.6087614290087204 -0.7933533402912353 -0.0
  outer loop
    vertex 0.9192388155425115 0.9192388155425119 5.0
    vertex 0.649999999999999 1.1258330249197708 -1.9999999999999998
    vertex 0.9192388155425115 0.9192388155425119 -1.9999999999999998
  endloop
endfacet
facet normal -0.6087614290087204 -0.7933533402912353 -0.0
  outer loop
    vertex 0.649999999999999 1.1258330249197708 -1.9999999999999998
    vertex 0.9192388155425115 0.9192388155425119 5.0
    vertex 0.649999999999999 1.1258330249197708 5.0
  endloop
endfacet
facet normal -0.3826834323650891 -0.9238795325112871 -0.0
  outer loop
    vertex 0.649999999999999 1.1258330249197708 5.0
    vertex 0.33646475863327635 1.255703574175789 -1.9999999999999998
    vertex 0.649999999999999 1.1258330249197708 -1.9999999999999998
  endloop
endfacet
facet normal -0.3826834323650891 -0.9238795325112871 -0.0
  outer loop
    vertex 0.33646475863327635 1.255703574175789 -1.9999999999999998
    vertex 0.649999999999999 1.1258330249197708 5.0
    vertex 0.33646475863327635 1.255703574175789 5.0
  endloop
endfacet
facet normal -0.1305261922200513 -0.9914448613738106 -0.0
  outer loop
    vertex 0.33646475863327635 1.255703574175789 5.0
    vertex -2.3880612583373386e-16 1.2999999999999998 -1.9999999999999998
    vertex 0.33646475863327635 1.255703574175789 -1.9999999999999998
  endloop
endfacet
facet normal -0.1305261922200513 -0.9914448613738106 -0.0
  outer loop
    vertex -2.3880612583373386e-16 1.2999999999999998 -1.9999999999999998
    vertex 0.33646475863327635 1.255703574175789 5.0
    vertex -2.3880612583373386e-16 1.2999999999999998 5.0
  endloop
endfacet
facet normal 0.13052619222005185 -0.9914448613738104 -0.0
  outer loop
    vertex -2.3880612583373386e-16 1.2999999999999998 5.0
    vertex -0.33646475863327796 1.2557035741757885 -1.9999999999999998
    vertex -2.3880612583373386e-16 1.2999999999999998 -1.9999999999999998
  endloop
endfacet
facet normal 0.13052619222005185 -0.9914448613738104 -0.0
  outer loop
    vertex -0.33646475863327796 1.2557035741757885 -1.9999999999999998
    vertex -2.3880612583373386e-16 1.2999999999999998 5.0
    vertex -0.33646475863327796 1.2557035741757885 5.0
  endloop
endfacet
facet normal 0.38268343236509006 -0.9238795325112866 -0.0
  outer loop
    vertex -0.33646475863327796 1.2557035741757885 5.0
    vertex -0.6500000000000006 1.12583302491977 -1.9999999999999998
    vertex -0.33646475863327796 1.2557035741757885 -1.9999999999999998
  endloop
endfacet
facet normal 0.38268343236509006 -0.9238795325112866 -0.0
  outer loop
    vertex -0.6500000000000006 1.12583302491977 -1.9999999999999998
    vertex -0.33646475863327796 1.2557035741757885 5.0
    vertex -0.6500000000000006 1.12583302491977 5.0
  endloop
endfacet
facet normal 0.6087614290087215 -0.7933533402912345 -0.0
  outer loop
    vertex -0.6500000000000006 1.12583302491977 5.0
    vertex -0.9192388155425122 0.9192388155425112 -1.9999999999999998
    vertex -0.6500000000000006 1.12583302491977 -1.9999999999999998
  endloop
endfacet
facet normal 0.6087614290087215 -0.7933533402912345 -0.0
  outer loop
    vertex -0.9192388155425122 0.9192388155425112 -1.9999999999999998
    vertex -0.6500000000000006 1.12583302491977 5.0
    vertex -0.9192388155425122 0.9192388155425112 5.0
  endloop
endfacet
facet normal 0.7933533402912355 -0.6087614290087204 -0.0
  outer loop
    vertex -0.9192388155425122 0.9192388155425112 -1.9999999999999998
    vertex -1.1258330249197703 0.6499999999999996 5.0
    vertex -1.1258330249197703 0.6499999999999996 -1.9999999999999998
  endloop
endfacet
facet normal 0.7933533402912355 -0.6087614290087204 -0.0
  outer loop
    vertex -1.1258330249197703 0.6499999999999996 5.0
    vertex -0.9192388155425122 0.9192388155425112 -1.9999999999999998
    vertex -0.9192388155425122 0.9192388155425112 5.0
  endloop
endfacet
facet normal 0.923879532511287 -0.3826834323650895 -0.0
  outer loop
    vertex -1.1258330249197703 0.6499999999999996 -1.9999999999999998
    vertex -1.255703574175789 0.3364647586332764 5.0
    vertex -1.255703574175789 0.3364647586332764 -1.9999999999999998
  endloop
endfacet
facet normal 0.923879532511287 -0.3826834323650895 -0.0
  outer loop
    vertex -1.255703574175789 0.3364647586332764 5.0
    vertex -1.1258330249197703 0.6499999999999996 -1.9999999999999998
    vertex -1.1258330249197703 0.6499999999999996 5.0
  endloop
endfacet
facet normal 0.9914448613738106 -0.1305261922200513 -0.0
  outer loop
    vertex -1.255703574175789 0.3364647586332764 -1.9999999999999998
    vertex -1.2999999999999998 -1.592040838891559e-16 5.0
    vertex -1.2999999999999998 -1.592040838891559e-16 -1.9999999999999998
  endloop
endfacet
facet normal 0.9914448613738106 -0.1305261922200513 -0.0
  outer loop
    vertex -1.2999999999999998 -1.592040838891559e-16 5.0
    vertex -1.255703574175789 0.3364647586332764 -1.9999999999999998
    vertex -1.255703574175789 0.3364647586332764 5.0
  endloop
endfacet
facet normal 0.9914448613738105 0.1305261922200521 0.0
  outer loop
    vertex -1.2999999999999998 -1.592040838891559e-16 -1.9999999999999998
    vertex -1.2557035741757885 -0.3364647586332773 5.0
    vertex -1.2557035741757885 -0.3364647586332773 -1.9999999999999998
  endloop
endfacet
facet normal 0.9914448613738105 0.1305261922200521 0.0
  outer loop
    vertex -1.2557035741757885 -0.3364647586332773 5.0
    vertex -1.2999999999999998 -1.592040838891559e-16 -1.9999999999999998
    vertex -1.2999999999999998 -1.592040838891559e-16 5.0
  endloop
endfacet
facet normal 0.923879532511287 0.3826834323650896 0.0
  outer loop
    vertex -1.2557035741757885 -0.3364647586332773 -1.9999999999999998
    vertex -1.12583302491977 -0.6500000000000004 5.0
    vertex -1.12583302491977 -0.6500000000000004 -1.9999999999999998
  endloop
endfacet
facet normal 0.923879532511287 0.3826834323650896 0.0
  outer loop
    vertex -1.12583302491977 -0.6500000000000004 5.0
    vertex -1.2557035741757885 -0.3364647586332773 -1.9999999999999998
    vertex -1.2557035741757885 -0.3364647586332773 5.0
  endloop
endfacet
facet normal 0.7933533402912349 0.6087614290087209 0.0
  outer loop
    vertex -1.12583302491977 -0.6500000000000004 -1.9999999999999998
    vertex -0.9192388155425116 -0.9192388155425119 5.0
    vertex -0.9192388155425116 -0.9192388155425119 -1.9999999999999998
  endloop
endfacet
facet normal 0.7933533402912349 0.6087614290087209 0.0
  outer loop
    vertex -0.9192388155425116 -0.9192388155425119 5.0
    vertex -1.12583302491977 -0.6500000000000004 -1.9999999999999998
    vertex -1.12583302491977 -0.6500000000000004 5.0
  endloop
endfacet
facet normal 0.6087614290087201 0.7933533402912357 0.0
  outer loop
    vertex -0.9192388155425116 -0.9192388155425119 5.0
    vertex -0.6499999999999997 -1.12583302491977 -1.9999999999999998
    vertex -0.9192388155425116 -0.9192388155425119 -1.9999999999999998
  endloop
endfacet
facet normal 0.6087614290087201 0.7933533402912357 0.0
  outer loop
    vertex -0.6499999999999997 -1.12583302491977 -1.9999999999999998
    vertex -0.9192388155425116 -0.9192388155425119 5.0
    vertex -0.6499999999999997 -1.12583302491977 5.0
  endloop
endfacet
facet normal 0.3826834323650898 0.9238795325112867 0.0
  outer loop
    vertex -0.6499999999999997 -1.12583302491977 5.0
    vertex -0.3364647586332768 -1.2557035741757887 -1.9999999999999998
    vertex -0.6499999999999997 -1.12583302491977 -1.9999999999999998
  endloop
endfacet
facet normal 0.3826834323650898 0.9238795325112867 0.0
  outer loop
    vertex -0.3364647586332768 -1.2557035741757887 -1.9999999999999998
    vertex -0.6499999999999997 -1.12583302491977 5.0
    vertex -0.3364647586332768 -1.2557035741757887 5.0
  endloop
endfacet
facet normal 0.13052619222005166 0.9914448613738104 0.0
  outer loop
    vertex -0.3364647586332768 -1.2557035741757887 5.0
    vertex 7.960204194457795e-17 -1.2999999999999998 -1.9999999999999998
    vertex -0.3364647586332768 -1.2557035741757887 -1.9999999999999998
  endloop
endfacet
facet normal 0.13052619222005166 0.9914448613738104 0.0
  outer loop
    vertex 7.960204194457795e-17 -1.2999999999999998 -1.9999999999999998
    vertex -0.3364647586332768 -1.2557035741757887 5.0
    vertex 7.960204194457795e-17 -1.2999999999999998 5.0
  endloop
endfacet
facet normal -0.1305261922200521 0.9914448613738105 -0.0
  outer loop
    vertex 7.960204194457795e-17 -1.2999999999999998 5.0
    vertex 0.3364647586332772 -1.2557035741757885 -1.9999999999999998
    vertex 7.960204194457795e-17 -1.2999999999999998 -1.9999999999999998
  endloop
endfacet
facet normal -0.1305261922200521 0.9914448613738105 -0.0
  outer loop
    vertex 0.3364647586332772 -1.2557035741757885 -1.9999999999999998
    vertex 7.960204194457795e-17 -1.2999999999999998 5.0
    vertex 0.3364647586332772 -1.2557035741757885 5.0
  endloop
endfacet
facet normal -0.38268343236508934 0.9238795325112871 -0.0
  outer loop
    vertex 0.3364647586332772 -1.2557035741757885 5.0
    vertex 0.6500000000000001 -1.12583302491977 -1.9999999999999998
    vertex 0.3364647586332772 -1.2557035741757885 -1.9999999999999998
  endloop
endfacet
facet normal -0.38268343236508934 0.9238795325112871 -0.0
  outer loop
    vertex 0.6500000000000001 -1.12583302491977 -1.9999999999999998
    vertex 0.3364647586332772 -1.2557035741757885 5.0
    vertex 0.6500000000000001 -1.12583302491977 5.0
  endloop
endfacet
facet normal -0.6087614290087205 0.7933533402912353 -0.0
  outer loop
    vertex 0.6500000000000001 -1.12583302491977 5.0
    vertex 0.9192388155425119 -0.9192388155425119 -1.9999999999999998
    vertex 0.6500000000000001 -1.12583302491977 -1.9999999999999998
  endloop
endfacet
facet normal -0.6087614290087205 0.7933533402912353 -0.0
  outer loop
    vertex 0.9192388155425119 -0.9192388155425119 -1.9999999999999998
    vertex 0.6500000000000001 -1.12583302491977 5.0
    vertex 0.9192388155425119 -0.9192388155425119 5.0
  endloop
endfacet
facet normal -0.7933533402912357 0.6087614290087201 -0.0
  outer loop
    vertex 1.12583302491977 -0.6499999999999999 5.0
    vertex 0.9192388155425119 -0.9192388155425119 -1.9999999999999998
    vertex 0.9192388155425119 -0.9192388155425119 5.0
  endloop
endfacet
facet normal -0.7933533402912357 0.6087614290087201 -0.0
  outer loop
    vertex 0.9192388155425119 -0.9192388155425119 -1.9999999999999998
    vertex 1.12583302491977 -0.6499999999999999 5.0
    vertex 1.12583302491977 -0.6499999999999999 -1.9999999999999998
  endloop
endfacet
facet normal 0.7933533402912354 0.6087614290087203 -5.549378676010065e-16
  outer loop
    vertex 7.071067811865476 7.071067811865476 -3.0
    vertex 8.660254037844387 4.999999999999999 -1.9999999999999998
    vertex 8.660254037844387 4.999999999999999 -3.0
  endloop
endfacet
facet normal 0.7933533402912354 0.6087614290087203 -5.549378676010065e-16
  outer loop
    vertex 8.660254037844387 4.999999999999999 -1.9999999999999998
    vertex 7.071067811865476 7.071067811865476 -3.0
    vertex 7.071067811865477 7.071067811865476 -1.9999999999999998
  endloop
endfacet
facet normal 0.6087614290087204 0.7933533402912353 -6.387282036926193e-16
  outer loop
    vertex 5.000000000000002 8.660254037844386 -1.9999999999999998
    vertex 7.071067811865476 7.071067811865476 -3.0
    vertex 5.000000000000002 8.660254037844386 -3.0
  endloop
endfacet
facet normal 0.6087614290087204 0.7933533402912353 -6.387282036926193e-16
  outer loop
    vertex 7.071067811865476 7.071067811865476 -3.0
    vertex 5.000000000000002 8.660254037844386 -1.9999999999999998
    vertex 7.071067811865477 7.071067811865476 -1.9999999999999998
  endloop
endfacet
facet normal 0.3826834323650897 0.9238795325112867 -1.3384044481678135e-16
  outer loop
    vertex 2.5881904510252096 9.659258262890683 -1.9999999999999998
    vertex 5.000000000000002 8.660254037844386 -3.0
    vertex 2.5881904510252096 9.659258262890683 -3.0
  endloop
endfacet
facet normal 0.3826834323650897 0.9238795325112867 -1.3384044481678135e-16
  outer loop
    vertex 5.000000000000002 8.660254037844386 -3.0
    vertex 2.5881904510252096 9.659258262890683 -1.9999999999999998
    vertex 5.000000000000002 8.660254037844386 -1.9999999999999998
  endloop
endfacet
facet normal 0.1305261922200517 0.9914448613738105 -1.8260193308087506e-17
  outer loop
    vertex 7.049916206369744e-16 10.0 -1.9999999999999998
    vertex 2.5881904510252096 9.659258262890683 -3.0
    vertex 6.123233995736766e-16 10.0 -3.0
  endloop
endfacet
facet normal 0.1305261922200517 0.9914448613738105 -1.8260193308087506e-17
  outer loop
    vertex 2.5881904510252096 9.659258262890683 -3.0
    vertex 7.049916206369744e-16 10.0 -1.9999999999999998
    vertex 2.5881904510252096 9.659258262890683 -1.9999999999999998
  endloop
endfacet
facet normal -0.13052619222005177 0.9914448613738105 -0.0
  outer loop
    vertex -2.588190451025206 9.659258262890683 -1.9999999999999998
    vertex 6.123233995736766e-16 10.0 -3.0
    vertex -2.588190451025206 9.659258262890683 -3.0
  endloop
endfacet
facet normal -0.13052619222005177 0.9914448613738105 -0.0
  outer loop
    vertex 6.123233995736766e-16 10.0 -3.0
    vertex -2.588190451025206 9.659258262890683 -1.9999999999999998
    vertex 7.049916206369744e-16 10.0 -1.9999999999999998
  endloop
endfacet
facet normal -0.3826834323650895 0.9238795325112871 -0.0
  outer loop
    vertex -4.999999999999998 8.660254037844387 -1.9999999999999998
    vertex -2.588190451025206 9.659258262890683 -3.0
    vertex -4.999999999999998 8.660254037844387 -3.0
  endloop
endfacet
facet normal -0.3826834323650895 0.9238795325112871 -0.0
  outer loop
    vertex -2.588190451025206 9.659258262890683 -3.0
    vertex -4.999999999999998 8.660254037844387 -1.9999999999999998
    vertex -2.588190451025206 9.659258262890683 -1.9999999999999998
  endloop
endfacet
facet normal -0.6087614290087204 0.7933533402912353 -0.0
  outer loop
    vertex -7.071067811865475 7.071067811865476 -1.9999999999999998
    vertex -4.999999999999998 8.660254037844387 -3.0
    vertex -7.071067811865475 7.071067811865476 -3.0
  endloop
endfacet
facet normal -0.6087614290087204 0.7933533402912353 -0.0
  outer loop
    vertex -4.999999999999998 8.660254037844387 -3.0
    vertex -7.071067811865475 7.071067811865476 -1.9999999999999998
    vertex -4.999999999999998 8.660254037844387 -1.9999999999999998
  endloop
endfacet
facet normal -0.7933533402912349 0.6087614290087209 0.0
  outer loop
    vertex -7.071067811865475 7.071067811865476 -1.9999999999999998
    vertex -8.660254037844386 5.0000000000000036 -3.0
    vertex -8.660254037844386 5.0000000000000036 -1.9999999999999998
  endloop
endfacet
facet normal -0.7933533402912349 0.6087614290087209 0.0
  outer loop
    vertex -8.660254037844386 5.0000000000000036 -3.0
    vertex -7.071067811865475 7.071067811865476 -1.9999999999999998
    vertex -7.071067811865475 7.071067811865476 -3.0
  endloop
endfacet
facet normal -0.9238795325112867 0.3826834323650901 0.0
  outer loop
    vertex -8.660254037844386 5.0000000000000036 -1.9999999999999998
    vertex -9.659258262890683 2.58819045102521 -3.0
    vertex -9.659258262890683 2.58819045102521 -1.9999999999999998
  endloop
endfacet
facet normal -0.9238795325112867 0.3826834323650901 0.0
  outer loop
    vertex -9.659258262890683 2.58819045102521 -3.0
    vertex -8.660254037844386 5.0000000000000036 -1.9999999999999998
    vertex -8.660254037844386 5.0000000000000036 -3.0
  endloop
endfacet
facet normal -0.9914448613738105 0.1305261922200517 -1.8260193308087506e-17
  outer loop
    vertex -10.0 1.4099832412739487e-15 -1.9999999999999998
    vertex -9.659258262890683 2.58819045102521 -3.0
    vertex -10.0 1.2246467991473533e-15 -3.0
  endloop
endfacet
facet normal -0.9914448613738105 0.1305261922200517 -1.8260193308087506e-17
  outer loop
    vertex -9.659258262890683 2.58819045102521 -3.0
    vertex -10.0 1.4099832412739487e-15 -1.9999999999999998
    vertex -9.659258262890683 2.58819045102521 -1.9999999999999998
  endloop
endfacet
facet normal -0.9914448613738105 -0.13052619222005163 6.752394987872217e-16
  outer loop
    vertex -10.0 1.4099832412739487e-15 -1.9999999999999998
    vertex -9.659258262890685 -2.5881904510252034 -3.0
    vertex -9.659258262890683 -2.588190451025204 -1.9999999999999998
  endloop
endfacet
facet normal -0.9914448613738105 -0.13052619222005163 6.752394987872217e-16
  outer loop
    vertex -9.659258262890685 -2.5881904510252034 -3.0
    vertex -10.0 1.4099832412739487e-15 -1.9999999999999998
    vertex -10.0 1.2246467991473533e-15 -3.0
  endloop
endfacet
facet normal -0.9238795325112871 -0.38268343236508906 1.110644898283108e-15
  outer loop
    vertex -9.659258262890683 -2.588190451025204 -1.9999999999999998
    vertex -8.660254037844389 -4.999999999999997 -3.0
    vertex -8.660254037844387 -4.999999999999998 -1.9999999999999998
  endloop
endfacet
facet normal -0.9238795325112871 -0.38268343236508906 1.110644898283108e-15
  outer loop
    vertex -8.660254037844389 -4.999999999999997 -3.0
    vertex -9.659258262890683 -2.588190451025204 -1.9999999999999998
    vertex -9.659258262890685 -2.5881904510252034 -3.0
  endloop
endfacet
facet normal -0.7933533402912354 -0.6087614290087203 3.4202846637013216e-16
  outer loop
    vertex -8.660254037844387 -4.999999999999998 -1.9999999999999998
    vertex -7.071067811865479 -7.071067811865472 -3.0
    vertex -7.071067811865479 -7.071067811865472 -1.9999999999999998
  endloop
endfacet
facet normal -0.7933533402912354 -0.6087614290087203 3.4202846637013216e-16
  outer loop
    vertex -7.071067811865479 -7.071067811865472 -3.0
    vertex -8.660254037844387 -4.999999999999998 -1.9999999999999998
    vertex -8.660254037844389 -4.999999999999997 -3.0
  endloop
endfacet
facet normal -0.6087614290087211 -0.793353340291235 2.129094012308734e-16
  outer loop
    vertex -5.0000000000000036 -8.660254037844386 -1.9999999999999998
    vertex -7.071067811865479 -7.071067811865472 -3.0
    vertex -5.000000000000004 -8.660254037844386 -3.0
  endloop
endfacet
facet normal -0.6087614290087211 -0.793353340291235 2.129094012308734e-16
  outer loop
    vertex -7.071067811865479 -7.071067811865472 -3.0
    vertex -5.0000000000000036 -8.660254037844386 -1.9999999999999998
    vertex -7.071067811865479 -7.071067811865472 -1.9999999999999998
  endloop
endfacet
facet normal -0.3826834323650904 -0.9238795325112867 1.3384044481678152e-16
  outer loop
    vertex -2.5881904510252154 -9.659258262890681 -1.9999999999999998
    vertex -5.000000000000004 -8.660254037844386 -3.0
    vertex -2.5881904510252154 -9.659258262890681 -3.0
  endloop
endfacet
facet normal -0.3826834323650904 -0.9238795325112867 1.3384044481678152e-16
  outer loop
    vertex -5.000000000000004 -8.660254037844386 -3.0
    vertex -2.5881904510252154 -9.659258262890681 -1.9999999999999998
    vertex -5.0000000000000036 -8.660254037844386 -1.9999999999999998
  endloop
endfacet
facet normal -0.130526192220052 -0.9914448613738105 0.0
  outer loop
    vertex -1.762479051592436e-15 -10.0 -1.9999999999999998
    vertex -2.5881904510252154 -9.659258262890681 -3.0
    vertex -1.8369701987210296e-15 -10.0 -3.0
  endloop
endfacet
facet normal -0.130526192220052 -0.9914448613738105 0.0
  outer loop
    vertex -2.5881904510252154 -9.659258262890681 -3.0
    vertex -1.762479051592436e-15 -10.0 -1.9999999999999998
    vertex -2.5881904510252154 -9.659258262890681 -1.9999999999999998
  endloop
endfacet
facet normal 0.13052619222005135 -0.9914448613738105 -7.304077323234982e-17
  outer loop
    vertex 2.588190451025204 -9.659258262890685 -1.9999999999999998
    vertex -1.8369701987210296e-15 -10.0 -3.0
    vertex 2.588190451025203 -9.659258262890685 -3.0
  endloop
endfacet
facet normal 0.13052619222005135 -0.9914448613738105 -7.304077323234982e-17
  outer loop
    vertex -1.8369701987210296e-15 -10.0 -3.0
    vertex 2.588190451025204 -9.659258262890685 -1.9999999999999998
    vertex -1.762479051592436e-15 -10.0 -1.9999999999999998
  endloop
endfacet
facet normal 0.3826834323650892 -0.9238795325112871 -1.8737662274349357e-16
  outer loop
    vertex 4.999999999999994 -8.66025403784439 -1.9999999999999998
    vertex 2.588190451025203 -9.659258262890685 -3.0
    vertex 4.999999999999994 -8.66025403784439 -3.0
  endloop
endfacet
facet normal 0.3826834323650892 -0.9238795325112871 -1.8737662274349357e-16
  outer loop
    vertex 2.588190451025203 -9.659258262890685 -3.0
    vertex 4.999999999999994 -8.66025403784439 -1.9999999999999998
    vertex 2.588190451025204 -9.659258262890685 -1.9999999999999998
  endloop
endfacet
facet normal 0.6087614290087202 -0.7933533402912357 -4.258188024617462e-16
  outer loop
    vertex 7.071067811865475 -7.071067811865477 -1.9999999999999998
    vertex 4.999999999999994 -8.66025403784439 -3.0
    vertex 7.071067811865473 -7.071067811865477 -3.0
  endloop
endfacet
facet normal 0.6087614290087202 -0.7933533402912357 -4.258188024617462e-16
  outer loop
    vertex 4.999999999999994 -8.66025403784439 -3.0
    vertex 7.071067811865475 -7.071067811865477 -1.9999999999999998
    vertex 4.999999999999994 -8.66025403784439 -1.9999999999999998
  endloop
endfacet
facet normal 0.7933533402912352 -0.6087614290087207 -8.969663339711364e-16
  outer loop
    vertex 8.660254037844384 -5.000000000000004 -3.0
    vertex 7.071067811865475 -7.071067811865477 -1.9999999999999998
    vertex 7.071067811865473 -7.071067811865477 -3.0
  endloop
endfacet
facet normal 0.7933533402912352 -0.6087614290087207 -8.969663339711364e-16
  outer loop
    vertex 7.071067811865475 -7.071067811865477 -1.9999999999999998
    vertex 8.660254037844384 -5.000000000000004 -3.0
    vertex 8.660254037844386 -5.0000000000000036 -1.9999999999999998
  endloop
endfacet
facet normal 0.9238795325112863 -0.38268343236509084 -1.1586372234661021e-15
  outer loop
    vertex 9.659258262890681 -2.588190451025216 -3.0
    vertex 8.660254037844386 -5.0000000000000036 -1.9999999999999998
    vertex 8.660254037844384 -5.000000000000004 -3.0
  endloop
endfacet
facet normal 0.9238795325112863 -0.38268343236509084 -1.1586372234661021e-15
  outer loop
    vertex 8.660254037844386 -5.0000000000000036 -1.9999999999999998
    vertex 9.659258262890681 -2.588190451025216 -3.0
    vertex 9.659258262890683 -2.588190451025216 -1.9999999999999998
  endloop
endfacet
facet normal 0.9914448613738105 -0.1305261922200516 -6.934996920953107e-16
  outer loop
    vertex 10.0 0.0 -3.0
    vertex 9.659258262890683 -2.588190451025216 -1.9999999999999998
    vertex 9.659258262890681 -2.588190451025216 -3.0
  endloop
endfacet
facet normal 0.9914448613738105 -0.1305261922200516 -6.934996920953107e-16
  outer loop
    vertex 9.659258262890683 -2.588190451025216 -1.9999999999999998
    vertex 10.0 0.0 -3.0
    vertex 10.0 0.0 -1.9999999999999998
  endloop
endfacet
facet normal 0.9914448613738105 0.13052619222005177 -0.0
  outer loop
    vertex 9.659258262890683 2.5881904510252074 -3.0
    vertex 10.0 0.0 -1.9999999999999998
    vertex 10.0 0.0 -3.0
  endloop
endfacet
facet normal 0.9914448613738105 0.13052619222005177 -0.0
  outer loop
    vertex 10.0 0.0 -1.9999999999999998
    vertex 9.659258262890683 2.5881904510252074 -3.0
    vertex 9.659258262890683 2.5881904510252074 -1.9999999999999998
  endloop
endfacet
facet normal 0.9238795325112871 0.38268343236508945 1.9019871163092889e-31
  outer loop
    vertex 8.660254037844387 4.999999999999999 -3.0
    vertex 9.659258262890683 2.5881904510252074 -1.9999999999999998
    vertex 9.659258262890683 2.5881904510252074 -3.0
  endloop
endfacet
facet normal 0.9238795325112871 0.38268343236508945 1.9019871163092889e-31
  outer loop
    vertex 9.659258262890683 2.5881904510252074 -1.9999999999999998
    vertex 8.660254037844387 4.999999999999999 -3.0
    vertex 8.660254037844387 4.999999999999999 -1.9999999999999998
  endloop
endfacet
facet normal -0.0 -0.0 1.0
  outer loop
    vertex -4.499999999999998 -7.79422863405995 -0.9999999999999999
    vertex -3.380740392011739 -0.9058666578588234 -0.9999999999999999
    vertex -3.5 -3.524958103184872e-16 -0.9999999999999999
  endloop
endfacet
facet normal -0.0 -0.0 1.0
  outer loop
    vertex -3.380740392011739 -0.9058666578588234 -0.9999999999999999
    vertex -4.499999999999998 -7.79422863405995 -0.9999999999999999
    vertex -2.3293714059226858 -8.693332436601615 -0.9999999999999999
  endloop
endfacet
facet normal -0.0 -0.0 1.0
  outer loop
    vertex -3.380740392011739 -0.9058666578588234 -0.9999999999999999
    vertex -2.3293714059226858 -8.693332436601615 -0.9999999999999999
    vertex -3.0310889132455348 -1.750000000000001 -0.9999999999999999
  endloop
endfacet
facet normal -0.0 -0.0 1.0
  outer loop
    vertex -3.0310889132455348 -1.750000000000001 -0.9999999999999999
    vertex -2.3293714059226858 -8.693332436601615 -0.9999999999999999
    vertex -2.4748737341529163 -2.474873734152917 -0.9999999999999999
  endloop
endfacet
facet normal -0.0 -0.0 1.0
  outer loop
    vertex -2.4748737341529163 -2.474873734152917 -0.9999999999999999
    vertex -2.3293714059226858 -8.693332436601615 -0.9999999999999999
    vertex -1.7499999999999993 -3.031088913245535 -0.9999999999999999
  endloop
endfacet
facet normal -0.0 -0.0 1.0
  outer loop
    vertex -1.7499999999999993 -3.031088913245535 -0.9999999999999999
    vertex -2.3293714059226858 -8.693332436601615 -0.9999999999999999
    vertex 5.507747036226363e-16 -9.0 -0.9999999999999999
  endloop
endfacet
facet normal -0.0 -0.0 1.0
  outer loop
    vertex -1.7499999999999993 -3.031088913245535 -0.9999999999999999
    vertex 5.507747036226363e-16 -9.0 -0.9999999999999999
    vertex -0.9058666578588221 -3.380740392011739 -0.9999999999999999
  endloop
endfacet
facet normal -0.0 -0.0 1.0
  outer loop
    vertex -0.9058666578588221 -3.380740392011739 -0.9999999999999999
    vertex 5.507747036226363e-16 -9.0 -0.9999999999999999
    vertex 2.1480213441282812e-16 -3.5 -0.9999999999999999
  endloop
endfacet
facet normal -0.0 -0.0 1.0
  outer loop
    vertex 2.1480213441282812e-16 -3.5 -0.9999999999999999
    vertex 5.507747036226363e-16 -9.0 -0.9999999999999999
    vertex 0.9058666578588234 -3.380740392011739 -0.9999999999999999
  endloop
endfacet
facet normal -0.0 -0.0 1.0
  outer loop
    vertex 0.9058666578588234 -3.380740392011739 -0.9999999999999999
    vertex 5.507747036226363e-16 -9.0 -0.9999999999999999
    vertex 2.329371405922689 -8.693332436601615 -0.9999999999999999
  endloop
endfacet
facet normal -0.0 -0.0 1.0
  outer loop
    vertex 0.9058666578588234 -3.380740392011739 -0.9999999999999999
    vertex 2.329371405922689 -8.693332436601615 -0.9999999999999999
    vertex 1.7500000000000002 -3.031088913245535 -0.9999999999999999
  endloop
endfacet
facet normal -0.0 -0.0 1.0
  outer loop
    vertex 1.7500000000000002 -3.031088913245535 -0.9999999999999999
    vertex 2.329371405922689 -8.693332436601615 -0.9999999999999999
    vertex 2.4748737341529163 -2.474873734152917 -0.9999999999999999
  endloop
endfacet
facet normal -0.0 -0.0 1.0
  outer loop
    vertex 2.4748737341529163 -2.474873734152917 -0.9999999999999999
    vertex 2.329371405922689 -8.693332436601615 -0.9999999999999999
    vertex 4.500000000000001 -7.79422863405995 -0.9999999999999999
  endloop
endfacet
facet normal -0.0 -0.0 1.0
  outer loop
    vertex 2.4748737341529163 -2.474873734152917 -0.9999999999999999
    vertex 4.500000000000001 -7.79422863405995 -0.9999999999999999
    vertex 3.031088913245535 -1.7499999999999996 -0.9999999999999999
  endloop
endfacet
facet normal -0.0 -0.0 1.0
  outer loop
    vertex 3.031088913245535 -1.7499999999999996 -0.9999999999999999
    vertex 4.500000000000001 -7.79422863405995 -0.9999999999999999
    vertex 3.380740392011739 -0.9058666578588226 -0.9999999999999999
  endloop
endfacet
facet normal -0.0 -0.0 1.0
  outer loop
    vertex 3.380740392011739 -0.9058666578588226 -0.9999999999999999
    vertex 4.500000000000001 -7.79422863405995 -0.9999999999999999
    vertex 3.5 0.0 -0.9999999999999999
  endloop
endfacet
facet normal -0.0 -0.0 1.0
  outer loop
    vertex 3.5 0.0 -0.9999999999999999
    vertex 4.500000000000001 -7.79422863405995 -0.9999999999999999
    vertex 4.499999999999994 7.79422863405995 -0.9999999999999999
  endloop
endfacet
facet normal -0.0 -0.0 1.0
  outer loop
    vertex 4.499999999999994 7.79422863405995 -0.9999999999999999
    vertex 4.500000000000001 -7.79422863405995 -0.9999999999999999
    vertex 6.363961030678927 6.363961030678929 -0.9999999999999999
  endloop
endfacet
facet normal -0.0 -0.0 1.0
  outer loop
    vertex 6.363961030678927 6.363961030678929 -0.9999999999999999
    vertex 4.500000000000001 -7.79422863405995 -0.9999999999999999
    vertex 6.3639610306789285 -6.363961030678929 -0.9999999999999999
  endloop
endfacet
facet normal -0.0 -0.0 1.0
  outer loop
    vertex 6.363961030678927 6.363961030678929 -0.9999999999999999
    vertex 6.3639610306789285 -6.363961030678929 -0.9999999999999999
    vertex 7.794228634059947 4.500000000000004 -0.9999999999999999
  endloop
endfacet
facet normal -0.0 -0.0 1.0
  outer loop
    vertex 7.794228634059947 4.500000000000004 -0.9999999999999999
    vertex 6.3639610306789285 -6.363961030678929 -0.9999999999999999
    vertex 7.79422863405995 -4.499999999999999 -0.9999999999999999
  endloop
endfacet
facet normal -0.0 -0.0 1.0
  outer loop
    vertex 7.794228634059947 4.500000000000004 -0.9999999999999999
    vertex 7.79422863405995 -4.499999999999999 -0.9999999999999999
    vertex 8.693332436601615 2.329371405922694 -0.9999999999999999
  endloop
endfacet
facet normal -0.0 -0.0 1.0
  outer loop
    vertex 8.693332436601615 2.329371405922694 -0.9999999999999999
    vertex 7.79422863405995 -4.499999999999999 -0.9999999999999999
    vertex 8.693332436601615 -2.329371405922687 -0.9999999999999999
  endloop
endfacet
facet normal -0.0 -0.0 1.0
  outer loop
    vertex 8.693332436601615 2.329371405922694 -0.9999999999999999
    vertex 8.693332436601615 -2.329371405922687 -0.9999999999999999
    vertex 9.0 0.0 -0.9999999999999999
  endloop
endfacet
facet normal -0.0 -0.0 1.0
  outer loop
    vertex -8.693332436601615 -2.3293714059226893 -0.9999999999999999
    vertex -8.693332436601615 2.3293714059226835 -0.9999999999999999
    vertex -9.0 -1.0574874309554614e-15 -0.9999999999999999
  endloop
endfacet
facet normal -0.0 -0.0 1.0
  outer loop
    vertex -8.693332436601615 2.3293714059226835 -0.9999999999999999
    vertex -8.693332436601615 -2.3293714059226893 -0.9999999999999999
    vertex -7.794228634059947 -4.500000000000003 -0.9999999999999999
  endloop
endfacet
facet normal -0.0 -0.0 1.0
  outer loop
    vertex -8.693332436601615 2.3293714059226835 -0.9999999999999999
    vertex -7.794228634059947 -4.500000000000003 -0.9999999999999999
    vertex -7.79422863405995 4.499999999999997 -0.9999999999999999
  endloop
endfacet
facet normal -0.0 -0.0 1.0
  outer loop
    vertex -7.79422863405995 4.499999999999997 -0.9999999999999999
    vertex -7.794228634059947 -4.500000000000003 -0.9999999999999999
    vertex -6.363961030678929 6.363961030678924 -0.9999999999999999
  endloop
endfacet
facet normal -0.0 -0.0 1.0
  outer loop
    vertex -6.363961030678929 6.363961030678924 -0.9999999999999999
    vertex -7.794228634059947 -4.500000000000003 -0.9999999999999999
    vertex -6.363961030678927 -6.363961030678929 -0.9999999999999999
  endloop
endfacet
facet normal -0.0 -0.0 1.0
  outer loop
    vertex -6.363961030678929 6.363961030678924 -0.9999999999999999
    vertex -6.363961030678927 -6.363961030678929 -0.9999999999999999
    vertex -4.500000000000004 7.794228634059947 -0.9999999999999999
  endloop
endfacet
facet normal -0.0 -0.0 1.0
  outer loop
    vertex -4.500000000000004 7.794228634059947 -0.9999999999999999
    vertex -6.363961030678927 -6.363961030678929 -0.9999999999999999
    vertex -4.499999999999998 -7.79422863405995 -0.9999999999999999
  endloop
endfacet
facet normal -0.0 -0.0 1.0
  outer loop
    vertex -4.500000000000004 7.794228634059947 -0.9999999999999999
    vertex -4.499999999999998 -7.79422863405995 -0.9999999999999999
    vertex -3.5 -3.524958103184872e-16 -0.9999999999999999
  endloop
endfacet
facet normal -0.0 -0.0 1.0
  outer loop
    vertex -4.500000000000004 7.794228634059947 -0.9999999999999999
    vertex -3.5 -3.524958103184872e-16 -0.9999999999999999
    vertex -3.3807403920117394 0.9058666578588213 -0.9999999999999999
  endloop
endfacet
facet normal -0.0 -0.0 1.0
  outer loop
    vertex -4.500000000000004 7.794228634059947 -0.9999999999999999
    vertex -3.3807403920117394 0.9058666578588213 -0.9999999999999999
    vertex -2.3293714059226938 8.693332436601612 -0.9999999999999999
  endloop
endfacet
facet normal -0.0 -0.0 1.0
  outer loop
    vertex -2.3293714059226938 8.693332436601612 -0.9999999999999999
    vertex -3.3807403920117394 0.9058666578588213 -0.9999999999999999
    vertex -3.0310889132455356 1.749999999999999 -0.9999999999999999
  endloop
endfacet
facet normal -0.0 -0.0 1.0
  outer loop
    vertex -2.3293714059226938 8.693332436601612 -0.9999999999999999
    vertex -3.0310889132455356 1.749999999999999 -0.9999999999999999
    vertex -2.4748737341529177 2.4748737341529146 -0.9999999999999999
  endloop
endfacet
facet normal -0.0 -0.0 1.0
  outer loop
    vertex -2.3293714059226938 8.693332436601612 -0.9999999999999999
    vertex -2.4748737341529177 2.4748737341529146 -0.9999999999999999
    vertex -1.7500000000000013 3.0310889132455348 -0.9999999999999999
  endloop
endfacet
facet normal -0.0 -0.0 1.0
  outer loop
    vertex -2.3293714059226938 8.693332436601612 -0.9999999999999999
    vertex -1.7500000000000013 3.0310889132455348 -0.9999999999999999
    vertex -1.6523241108679088e-15 9.0 -0.9999999999999999
  endloop
endfacet
facet normal -0.0 -0.0 1.0
  outer loop
    vertex -1.6523241108679088e-15 9.0 -0.9999999999999999
    vertex -1.7500000000000013 3.0310889132455348 -0.9999999999999999
    vertex -0.9058666578588253 3.380740392011738 -0.9999999999999999
  endloop
endfacet
facet normal -0.0 -0.0 1.0
  outer loop
    vertex -1.6523241108679088e-15 9.0 -0.9999999999999999
    vertex -0.9058666578588253 3.380740392011738 -0.9999999999999999
    vertex -6.444064032384844e-16 3.5 -0.9999999999999999
  endloop
endfacet
facet normal -0.0 -0.0 1.0
  outer loop
    vertex -1.6523241108679088e-15 9.0 -0.9999999999999999
    vertex -6.444064032384844e-16 3.5 -0.9999999999999999
    vertex 2.3293714059226827 8.693332436601615 -0.9999999999999999
  endloop
endfacet
facet normal -0.0 -0.0 1.0
  outer loop
    vertex 2.3293714059226827 8.693332436601615 -0.9999999999999999
    vertex -6.444064032384844e-16 3.5 -0.9999999999999999
    vertex 0.905866657858821 3.3807403920117394 -0.9999999999999999
  endloop
endfacet
facet normal -0.0 -0.0 1.0
  outer loop
    vertex 2.3293714059226827 8.693332436601615 -0.9999999999999999
    vertex 0.905866657858821 3.3807403920117394 -0.9999999999999999
    vertex 1.7499999999999976 3.0310889132455365 -0.9999999999999999
  endloop
endfacet
facet normal -0.0 -0.0 1.0
  outer loop
    vertex 2.3293714059226827 8.693332436601615 -0.9999999999999999
    vertex 1.7499999999999976 3.0310889132455365 -0.9999999999999999
    vertex 2.474873734152916 2.474873734152917 -0.9999999999999999
  endloop
endfacet
facet normal -0.0 -0.0 1.0
  outer loop
    vertex 2.3293714059226827 8.693332436601615 -0.9999999999999999
    vertex 2.474873734152916 2.474873734152917 -0.9999999999999999
    vertex 4.499999999999994 7.79422863405995 -0.9999999999999999
  endloop
endfacet
facet normal -0.0 -0.0 1.0
  outer loop
    vertex 4.499999999999994 7.79422863405995 -0.9999999999999999
    vertex 2.474873734152916 2.474873734152917 -0.9999999999999999
    vertex 3.0310889132455343 1.7500000000000013 -0.9999999999999999
  endloop
endfacet
facet normal -0.0 -0.0 1.0
  outer loop
    vertex 4.499999999999994 7.79422863405995 -0.9999999999999999
    vertex 3.0310889132455343 1.7500000000000013 -0.9999999999999999
    vertex 3.380740392011738 0.9058666578588255 -0.9999999999999999
  endloop
endfacet
facet normal -0.0 -0.0 1.0
  outer loop
    vertex 4.499999999999994 7.79422863405995 -0.9999999999999999
    vertex 3.380740392011738 0.9058666578588255 -0.9999999999999999
    vertex 3.5 0.0 -0.9999999999999999
  endloop
endfacet
facet normal 0.7933533402912357 -0.6087614290087202 1.6559620095734584e-17
  outer loop
    vertex 3.031088913245535 -1.7499999999999996 -0.9999999999999999
    vertex 2.4748737341529163 -2.4748737341529163 5.0
    vertex 2.4748737341529163 -2.474873734152917 -0.9999999999999999
  endloop
endfacet
facet normal 0.7933533402912357 -0.6087614290087202 1.6559620095734584e-17
  outer loop
    vertex 2.4748737341529163 -2.4748737341529163 5.0
    vertex 3.031088913245535 -1.7499999999999996 -0.9999999999999999
    vertex 3.031088913245535 -1.7499999999999996 5.0
  endloop
endfacet
facet normal 0.6087614290087203 -0.7933533402912354 2.4663905226711354e-17
  outer loop
    vertex 2.4748737341529163 -2.4748737341529163 5.0
    vertex 1.7500000000000002 -3.031088913245535 -0.9999999999999999
    vertex 2.4748737341529163 -2.474873734152917 -0.9999999999999999
  endloop
endfacet
facet normal 0.6087614290087203 -0.7933533402912354 2.4663905226711354e-17
  outer loop
    vertex 1.7500000000000002 -3.031088913245535 -0.9999999999999999
    vertex 2.4748737341529163 -2.4748737341529163 5.0
    vertex 1.7500000000000002 -3.031088913245535 5.0
  endloop
endfacet
facet normal 0.38268343236508995 -0.9238795325112867 0.0
  outer loop
    vertex 1.7500000000000002 -3.031088913245535 5.0
    vertex 0.9058666578588234 -3.380740392011739 -0.9999999999999999
    vertex 1.7500000000000002 -3.031088913245535 -0.9999999999999999
  endloop
endfacet
facet normal 0.38268343236508995 -0.9238795325112867 0.0
  outer loop
    vertex 0.9058666578588234 -3.380740392011739 -0.9999999999999999
    vertex 1.7500000000000002 -3.031088913245535 5.0
    vertex 0.9058666578588234 -3.380740392011739 5.0
  endloop
endfacet
facet normal 0.13052619222005168 -0.9914448613738105 2.252543004971663e-34
  outer loop
    vertex 0.9058666578588234 -3.380740392011739 5.0
    vertex 2.1480213441282812e-16 -3.5 -0.9999999999999999
    vertex 0.9058666578588234 -3.380740392011739 -0.9999999999999999
  endloop
endfacet
facet normal 0.13052619222005168 -0.9914448613738105 2.252543004971663e-34
  outer loop
    vertex 2.1480213441282812e-16 -3.5 -0.9999999999999999
    vertex 0.9058666578588234 -3.380740392011739 5.0
    vertex 2.143131898507868e-16 -3.5 5.0
  endloop
endfacet
facet normal -0.1305261922200518 -0.9914448613738105 0.0
  outer loop
    vertex 2.143131898507868e-16 -3.5 5.0
    vertex -0.9058666578588221 -3.380740392011739 -0.9999999999999999
    vertex 2.1480213441282812e-16 -3.5 -0.9999999999999999
  endloop
endfacet
facet normal -0.1305261922200518 -0.9914448613738105 0.0
  outer loop
    vertex -0.9058666578588221 -3.380740392011739 -0.9999999999999999
    vertex 2.143131898507868e-16 -3.5 5.0
    vertex -0.9058666578588221 -3.380740392011739 5.0
  endloop
endfacet
facet normal -0.3826834323650897 -0.9238795325112867 -2.6926618089226794e-17
  outer loop
    vertex -0.9058666578588221 -3.380740392011739 5.0
    vertex -1.7499999999999993 -3.031088913245535 -0.9999999999999999
    vertex -0.9058666578588221 -3.380740392011739 -0.9999999999999999
  endloop
endfacet
facet normal -0.3826834323650897 -0.9238795325112867 -2.6926618089226794e-17
  outer loop
    vertex -1.7499999999999993 -3.031088913245535 -0.9999999999999999
    vertex -0.9058666578588221 -3.380740392011739 5.0
    vertex -1.7499999999999993 -3.031088913245535 5.0
  endloop
endfacet
facet normal -0.6087614290087201 -0.7933533402912357 -2.1011281724948534e-33
  outer loop
    vertex -1.7499999999999993 -3.031088913245535 5.0
    vertex -2.4748737341529163 -2.474873734152917 -0.9999999999999999
    vertex -1.7499999999999993 -3.031088913245535 -0.9999999999999999
  endloop
endfacet
facet normal -0.6087614290087201 -0.7933533402912357 -2.1011281724948534e-33
  outer loop
    vertex -2.4748737341529163 -2.474873734152917 -0.9999999999999999
    vertex -1.7499999999999993 -3.031088913245535 5.0
    vertex -2.4748737341529163 -2.4748737341529163 5.0
  endloop
endfacet
facet normal -0.7933533402912352 -0.6087614290087207 1.6559620095734596e-17
  outer loop
    vertex -2.4748737341529163 -2.4748737341529163 5.0
    vertex -3.0310889132455348 -1.750000000000001 -0.9999999999999999
    vertex -2.4748737341529163 -2.474873734152917 -0.9999999999999999
  endloop
endfacet
facet normal -0.7933533402912352 -0.6087614290087207 1.6559620095734596e-17
  outer loop
    vertex -3.0310889132455348 -1.750000000000001 -0.9999999999999999
    vertex -2.4748737341529163 -2.4748737341529163 5.0
    vertex -3.0310889132455348 -1.750000000000001 5.0
  endloop
endfacet
facet normal -0.9238795325112867 -0.38268343236509017 -5.948464214079177e-18
  outer loop
    vertex -3.380740392011739 -0.9058666578588235 5.0
    vertex -3.0310889132455348 -1.750000000000001 -0.9999999999999999
    vertex -3.0310889132455348 -1.750000000000001 5.0
  endloop
endfacet
facet normal -0.9238795325112867 -0.38268343236509017 -5.948464214079177e-18
  outer loop
    vertex -3.0310889132455348 -1.750000000000001 -0.9999999999999999
    vertex -3.380740392011739 -0.9058666578588235 5.0
    vertex -3.380740392011739 -0.9058666578588234 -0.9999999999999999
  endloop
endfacet
facet normal -0.9914448613738105 -0.13052619222005168 -3.0433655513479187e-18
  outer loop
    vertex -3.5 -4.286263797015736e-16 5.0
    vertex -3.380740392011739 -0.9058666578588234 -0.9999999999999999
    vertex -3.380740392011739 -0.9058666578588235 5.0
  endloop
endfacet
facet normal -0.9914448613738105 -0.13052619222005168 -3.0433655513479187e-18
  outer loop
    vertex -3.380740392011739 -0.9058666578588234 -0.9999999999999999
    vertex -3.5 -4.286263797015736e-16 5.0
    vertex -3.5 -3.524958103184872e-16 -0.9999999999999999
  endloop
endfacet
facet normal -0.9914448613738105 0.13052619222005116 5.126116698360125e-20
  outer loop
    vertex -3.3807403920117394 0.9058666578588213 5.0
    vertex -3.5 -3.524958103184872e-16 -0.9999999999999999
    vertex -3.5 -4.286263797015736e-16 5.0
  endloop
endfacet
facet normal -0.9914448613738105 0.13052619222005116 5.126116698360125e-20
  outer loop
    vertex -3.5 -3.524958103184872e-16 -0.9999999999999999
    vertex -3.3807403920117394 0.9058666578588213 5.0
    vertex -3.3807403920117394 0.9058666578588213 -0.9999999999999999
  endloop
endfacet
facet normal -0.923879532511287 0.3826834323650898 0.0
  outer loop
    vertex -3.0310889132455356 1.749999999999999 5.0
    vertex -3.3807403920117394 0.9058666578588213 -0.9999999999999999
    vertex -3.3807403920117394 0.9058666578588213 5.0
  endloop
endfacet
facet normal -0.923879532511287 0.3826834323650898 0.0
  outer loop
    vertex -3.3807403920117394 0.9058666578588213 -0.9999999999999999
    vertex -3.0310889132455356 1.749999999999999 5.0
    vertex -3.0310889132455356 1.749999999999999 -0.9999999999999999
  endloop
endfacet
facet normal -0.7933533402912354 0.6087614290087203 0.0
  outer loop
    vertex -2.4748737341529177 2.4748737341529146 5.0
    vertex -3.0310889132455356 1.749999999999999 -0.9999999999999999
    vertex -3.0310889132455356 1.749999999999999 5.0
  endloop
endfacet
facet normal -0.7933533402912354 0.6087614290087203 0.0
  outer loop
    vertex -3.0310889132455356 1.749999999999999 -0.9999999999999999
    vertex -2.4748737341529177 2.4748737341529146 5.0
    vertex -2.4748737341529177 2.4748737341529146 -0.9999999999999999
  endloop
endfacet
facet normal -0.6087614290087213 0.7933533402912347 -3.0829881533389227e-18
  outer loop
    vertex -2.4748737341529177 2.4748737341529146 5.0
    vertex -1.7500000000000013 3.0310889132455348 -0.9999999999999999
    vertex -2.4748737341529177 2.4748737341529146 -0.9999999999999999
  endloop
endfacet
facet normal -0.6087614290087213 0.7933533402912347 -3.0829881533389227e-18
  outer loop
    vertex -1.7500000000000013 3.0310889132455348 -0.9999999999999999
    vertex -2.4748737341529177 2.4748737341529146 5.0
    vertex -1.7500000000000013 3.0310889132455348 5.0
  endloop
endfacet
facet normal -0.38268343236509006 0.9238795325112867 -2.5283399538181523e-33
  outer loop
    vertex -1.7500000000000013 3.0310889132455348 5.0
    vertex -0.9058666578588253 3.380740392011738 -0.9999999999999999
    vertex -1.7500000000000013 3.0310889132455348 -0.9999999999999999
  endloop
endfacet
facet normal -0.38268343236509006 0.9238795325112867 -2.5283399538181523e-33
  outer loop
    vertex -0.9058666578588253 3.380740392011738 -0.9999999999999999
    vertex -1.7500000000000013 3.0310889132455348 5.0
    vertex -0.9058666578588253 3.380740392011738 5.0
  endloop
endfacet
facet normal -0.13052619222005224 0.9914448613738105 -9.631940167990478e-19
  outer loop
    vertex -0.9058666578588253 3.380740392011738 5.0
    vertex -6.444064032384844e-16 3.5 -0.9999999999999999
    vertex -0.9058666578588253 3.380740392011738 -0.9999999999999999
  endloop
endfacet
facet normal -0.13052619222005224 0.9914448613738105 -9.631940167990478e-19
  outer loop
    vertex -6.444064032384844e-16 3.5 -0.9999999999999999
    vertex -0.9058666578588253 3.380740392011738 5.0
    vertex -6.429395695523604e-16 3.5 5.0
  endloop
endfacet
facet normal 0.13052619222005113 0.9914448613738105 -9.63194016799034e-19
  outer loop
    vertex -6.429395695523604e-16 3.5 5.0
    vertex 0.905866657858821 3.3807403920117394 -0.9999999999999999
    vertex -6.444064032384844e-16 3.5 -0.9999999999999999
  endloop
endfacet
facet normal 0.13052619222005113 0.9914448613738105 -9.63194016799034e-19
  outer loop
    vertex 0.905866657858821 3.3807403920117394 -0.9999999999999999
    vertex -6.429395695523604e-16 3.5 5.0
    vertex 0.905866657858821 3.3807403920117394 5.0
  endloop
endfacet
facet normal 0.3826834323650893 0.9238795325112871 2.528339953818155e-33
  outer loop
    vertex 0.905866657858821 3.3807403920117394 5.0
    vertex 1.7499999999999976 3.0310889132455365 -0.9999999999999999
    vertex 0.905866657858821 3.3807403920117394 -0.9999999999999999
  endloop
endfacet
facet normal 0.3826834323650893 0.9238795325112871 2.528339953818155e-33
  outer loop
    vertex 1.7499999999999976 3.0310889132455365 -0.9999999999999999
    vertex 0.905866657858821 3.3807403920117394 5.0
    vertex 1.7499999999999976 3.0310889132455365 5.0
  endloop
endfacet
facet normal 0.6087614290087202 0.7933533402912355 3.0829881533389216e-18
  outer loop
    vertex 1.7499999999999976 3.0310889132455365 5.0
    vertex 2.474873734152916 2.474873734152917 -0.9999999999999999
    vertex 1.7499999999999976 3.0310889132455365 -0.9999999999999999
  endloop
endfacet
facet normal 0.6087614290087202 0.7933533402912355 3.0829881533389216e-18
  outer loop
    vertex 2.474873734152916 2.474873734152917 -0.9999999999999999
    vertex 1.7499999999999976 3.0310889132455365 5.0
    vertex 2.474873734152916 2.474873734152917 5.0
  endloop
endfacet
facet normal 0.7933533402912352 0.6087614290087208 -2.365660013676366e-18
  outer loop
    vertex 2.474873734152916 2.474873734152917 -0.9999999999999999
    vertex 3.0310889132455343 1.7500000000000013 5.0
    vertex 3.0310889132455343 1.7500000000000013 -0.9999999999999999
  endloop
endfacet
facet normal 0.7933533402912352 0.6087614290087208 -2.365660013676366e-18
  outer loop
    vertex 3.0310889132455343 1.7500000000000013 5.0
    vertex 2.474873734152916 2.474873734152917 -0.9999999999999999
    vertex 2.474873734152916 2.474873734152917 5.0
  endloop
endfacet
facet normal 0.9238795325112865 0.38268343236509045 -0.0
  outer loop
    vertex 3.0310889132455343 1.7500000000000013 -0.9999999999999999
    vertex 3.380740392011738 0.9058666578588255 5.0
    vertex 3.380740392011738 0.9058666578588255 -0.9999999999999999
  endloop
endfacet
facet normal 0.9238795325112865 0.38268343236509045 -0.0
  outer loop
    vertex 3.380740392011738 0.9058666578588255 5.0
    vertex 3.0310889132455343 1.7500000000000013 -0.9999999999999999
    vertex 3.0310889132455343 1.7500000000000013 5.0
  endloop
endfacet
facet normal 0.9914448613738105 0.1305261922200521 9.63194016799048e-19
  outer loop
    vertex 3.380740392011738 0.9058666578588255 -0.9999999999999999
    vertex 3.5 0.0 5.0
    vertex 3.5 0.0 -0.9999999999999999
  endloop
endfacet
facet normal 0.9914448613738105 0.1305261922200521 9.63194016799048e-19
  outer loop
    vertex 3.5 0.0 5.0
    vertex 3.380740392011738 0.9058666578588255 -0.9999999999999999
    vertex 3.380740392011738 0.9058666578588255 5.0
  endloop
endfacet
facet normal 0.9914448613738105 -0.13052619222005174 -0.0
  outer loop
    vertex 3.5 0.0 -0.9999999999999999
    vertex 3.380740392011739 -0.9058666578588226 5.0
    vertex 3.380740392011739 -0.9058666578588226 -0.9999999999999999
  endloop
endfacet
facet normal 0.9914448613738105 -0.13052619222005174 -0.0
  outer loop
    vertex 3.380740392011739 -0.9058666578588226 5.0
    vertex 3.5 0.0 -0.9999999999999999
    vertex 3.5 0.0 5.0
  endloop
endfacet
facet normal 0.9238795325112868 -0.3826834323650896 3.1887521469811016e-33
  outer loop
    vertex 3.380740392011739 -0.9058666578588226 -0.9999999999999999
    vertex 3.031088913245535 -1.7499999999999996 5.0
    vertex 3.031088913245535 -1.7499999999999996 -0.9999999999999999
  endloop
endfacet
facet normal 0.9238795325112868 -0.3826834323650896 3.1887521469811016e-33
  outer loop
    vertex 3.031088913245535 -1.7499999999999996 5.0
    vertex 3.380740392011739 -0.9058666578588226 -0.9999999999999999
    vertex 3.380740392011739 -0.9058666578588226 5.0
  endloop
endfacet
facet normal 0.27175801689781187 0.6560818900783145 0.7040625922196373
  outer loop
    vertex 4.499999999999994 7.79422863405995 -0.9999999999999999
    vertex 2.5881904510252096 9.659258262890683 -1.9999999999999998
    vertex 2.3293714059226827 8.693332436601615 -0.9999999999999999
  endloop
endfacet
facet normal 0.27175801689781187 0.6560818900783145 0.7040625922196373
  outer loop
    vertex 2.5881904510252096 9.659258262890683 -1.9999999999999998
    vertex 4.499999999999994 7.79422863405995 -0.9999999999999999
    vertex 5.000000000000002 8.660254037844386 -1.9999999999999998
  endloop
endfacet
facet normal 0.7040625922196365 -0.09269159872357129 0.7040625922196366
  outer loop
    vertex 9.659258262890683 -2.588190451025216 -1.9999999999999998
    vertex 9.0 0.0 -0.9999999999999999
    vertex 8.693332436601615 -2.329371405922687 -0.9999999999999999
  endloop
endfacet
facet normal 0.7040625922196365 -0.09269159872357129 0.7040625922196366
  outer loop
    vertex 9.0 0.0 -0.9999999999999999
    vertex 9.659258262890683 -2.588190451025216 -1.9999999999999998
    vertex 10.0 0.0 -1.9999999999999998
  endloop
endfacet
facet normal 0.6560818900783146 -0.27175801689781237 0.7040625922196367
  outer loop
    vertex 8.660254037844386 -5.0000000000000036 -1.9999999999999998
    vertex 8.693332436601615 -2.329371405922687 -0.9999999999999999
    vertex 7.79422863405995 -4.499999999999999 -0.9999999999999999
  endloop
endfacet
facet normal 0.6560818900783146 -0.27175801689781237 0.7040625922196367
  outer loop
    vertex 8.693332436601615 -2.329371405922687 -0.9999999999999999
    vertex 8.660254037844386 -5.0000000000000036 -1.9999999999999998
    vertex 9.659258262890683 -2.588190451025216 -1.9999999999999998
  endloop
endfacet
facet normal 0.09269159872357148 0.7040625922196364 0.7040625922196366
  outer loop
    vertex 2.3293714059226827 8.693332436601615 -0.9999999999999999
    vertex 7.049916206369744e-16 10.0 -1.9999999999999998
    vertex -1.6523241108679088e-15 9.0 -0.9999999999999999
  endloop
endfacet
facet normal 0.09269159872357148 0.7040625922196364 0.7040625922196366
  outer loop
    vertex 7.049916206369744e-16 10.0 -1.9999999999999998
    vertex 2.3293714059226827 8.693332436601615 -0.9999999999999999
    vertex 2.5881904510252096 9.659258262890683 -1.9999999999999998
  endloop
endfacet
facet normal 0.43230457532182454 -0.5633902913547443 0.7040625922196359
  outer loop
    vertex 4.999999999999994 -8.66025403784439 -1.9999999999999998
    vertex 6.3639610306789285 -6.363961030678929 -0.9999999999999999
    vertex 4.500000000000001 -7.79422863405995 -0.9999999999999999
  endloop
endfacet
facet normal 0.43230457532182454 -0.5633902913547443 0.7040625922196359
  outer loop
    vertex 6.3639610306789285 -6.363961030678929 -0.9999999999999999
    vertex 4.999999999999994 -8.66025403784439 -1.9999999999999998
    vertex 7.071067811865475 -7.071067811865477 -1.9999999999999998
  endloop
endfacet
facet normal 0.271758016897812 -0.6560818900783155 0.7040625922196362
  outer loop
    vertex 2.588190451025204 -9.659258262890685 -1.9999999999999998
    vertex 4.500000000000001 -7.79422863405995 -0.9999999999999999
    vertex 2.329371405922689 -8.693332436601615 -0.9999999999999999
  endloop
endfacet
facet normal 0.271758016897812 -0.6560818900783155 0.7040625922196362
  outer loop
    vertex 4.500000000000001 -7.79422863405995 -0.9999999999999999
    vertex 2.588190451025204 -9.659258262890685 -1.9999999999999998
    vertex 4.999999999999994 -8.66025403784439 -1.9999999999999998
  endloop
endfacet
facet normal -0.6560818900783149 0.271758016897812 0.7040625922196369
  outer loop
    vertex -8.693332436601615 2.3293714059226835 -0.9999999999999999
    vertex -8.660254037844386 5.0000000000000036 -1.9999999999999998
    vertex -9.659258262890683 2.58819045102521 -1.9999999999999998
  endloop
endfacet
facet normal -0.6560818900783149 0.271758016897812 0.7040625922196369
  outer loop
    vertex -8.660254037844386 5.0000000000000036 -1.9999999999999998
    vertex -8.693332436601615 2.3293714059226835 -0.9999999999999999
    vertex -7.79422863405995 4.499999999999997 -0.9999999999999999
  endloop
endfacet
facet normal -0.4323045753218248 0.5633902913547434 0.7040625922196366
  outer loop
    vertex -6.363961030678929 6.363961030678924 -0.9999999999999999
    vertex -4.999999999999998 8.660254037844387 -1.9999999999999998
    vertex -7.071067811865475 7.071067811865476 -1.9999999999999998
  endloop
endfacet
facet normal -0.4323045753218248 0.5633902913547434 0.7040625922196366
  outer loop
    vertex -4.999999999999998 8.660254037844387 -1.9999999999999998
    vertex -6.363961030678929 6.363961030678924 -0.9999999999999999
    vertex -4.500000000000004 7.794228634059947 -0.9999999999999999
  endloop
endfacet
facet normal 0.5633902913547437 -0.43230457532182437 0.7040625922196365
  outer loop
    vertex 7.071067811865475 -7.071067811865477 -1.9999999999999998
    vertex 7.79422863405995 -4.499999999999999 -0.9999999999999999
    vertex 6.3639610306789285 -6.363961030678929 -0.9999999999999999
  endloop
endfacet
facet normal 0.5633902913547437 -0.43230457532182437 0.7040625922196365
  outer loop
    vertex 7.79422863405995 -4.499999999999999 -0.9999999999999999
    vertex 7.071067811865475 -7.071067811865477 -1.9999999999999998
    vertex 8.660254037844386 -5.0000000000000036 -1.9999999999999998
  endloop
endfacet
facet normal 0.6560818900783155 0.27175801689781254 0.704062592219636
  outer loop
    vertex 8.693332436601615 2.329371405922694 -0.9999999999999999
    vertex 8.660254037844387 4.999999999999999 -1.9999999999999998
    vertex 7.794228634059947 4.500000000000004 -0.9999999999999999
  endloop
endfacet
facet normal 0.6560818900783155 0.27175801689781254 0.704062592219636
  outer loop
    vertex 8.660254037844387 4.999999999999999 -1.9999999999999998
    vertex 8.693332436601615 2.329371405922694 -0.9999999999999999
    vertex 9.659258262890683 2.5881904510252074 -1.9999999999999998
  endloop
endfacet
facet normal 0.704062592219637 0.09269159872357138 0.7040625922196363
  outer loop
    vertex 9.659258262890683 2.5881904510252074 -1.9999999999999998
    vertex 9.0 0.0 -0.9999999999999999
    vertex 10.0 0.0 -1.9999999999999998
  endloop
endfacet
facet normal 0.704062592219637 0.09269159872357138 0.7040625922196363
  outer loop
    vertex 9.0 0.0 -0.9999999999999999
    vertex 9.659258262890683 2.5881904510252074 -1.9999999999999998
    vertex 8.693332436601615 2.329371405922694 -0.9999999999999999
  endloop
endfacet
facet normal -0.6560818900783156 -0.27175801689781226 0.7040625922196361
  outer loop
    vertex -8.660254037844387 -4.999999999999998 -1.9999999999999998
    vertex -8.693332436601615 -2.3293714059226893 -0.9999999999999999
    vertex -9.659258262890683 -2.588190451025204 -1.9999999999999998
  endloop
endfacet
facet normal -0.6560818900783156 -0.27175801689781226 0.7040625922196361
  outer loop
    vertex -8.693332436601615 -2.3293714059226893 -0.9999999999999999
    vertex -8.660254037844387 -4.999999999999998 -1.9999999999999998
    vertex -7.794228634059947 -4.500000000000003 -0.9999999999999999
  endloop
endfacet
facet normal -0.5633902913547438 -0.4323045753218244 0.7040625922196364
  outer loop
    vertex -7.071067811865479 -7.071067811865472 -1.9999999999999998
    vertex -7.794228634059947 -4.500000000000003 -0.9999999999999999
    vertex -8.660254037844387 -4.999999999999998 -1.9999999999999998
  endloop
endfacet
facet normal -0.5633902913547438 -0.4323045753218244 0.7040625922196364
  outer loop
    vertex -7.794228634059947 -4.500000000000003 -0.9999999999999999
    vertex -7.071067811865479 -7.071067811865472 -1.9999999999999998
    vertex -6.363961030678927 -6.363961030678929 -0.9999999999999999
  endloop
endfacet
facet normal -0.4323045753218245 -0.5633902913547436 0.7040625922196365
  outer loop
    vertex -5.0000000000000036 -8.660254037844386 -1.9999999999999998
    vertex -6.363961030678927 -6.363961030678929 -0.9999999999999999
    vertex -7.071067811865479 -7.071067811865472 -1.9999999999999998
  endloop
endfacet
facet normal -0.4323045753218245 -0.5633902913547436 0.7040625922196365
  outer loop
    vertex -6.363961030678927 -6.363961030678929 -0.9999999999999999
    vertex -5.0000000000000036 -8.660254037844386 -1.9999999999999998
    vertex -4.499999999999998 -7.79422863405995 -0.9999999999999999
  endloop
endfacet
facet normal -0.2717580168978122 -0.6560818900783149 0.7040625922196367
  outer loop
    vertex -2.5881904510252154 -9.659258262890681 -1.9999999999999998
    vertex -4.499999999999998 -7.79422863405995 -0.9999999999999999
    vertex -5.0000000000000036 -8.660254037844386 -1.9999999999999998
  endloop
endfacet
facet normal -0.2717580168978122 -0.6560818900783149 0.7040625922196367
  outer loop
    vertex -4.499999999999998 -7.79422863405995 -0.9999999999999999
    vertex -2.5881904510252154 -9.659258262890681 -1.9999999999999998
    vertex -2.3293714059226858 -8.693332436601615 -0.9999999999999999
  endloop
endfacet
facet normal -0.09269159872357158 -0.7040625922196366 0.7040625922196365
  outer loop
    vertex 5.507747036226363e-16 -9.0 -0.9999999999999999
    vertex -2.5881904510252154 -9.659258262890681 -1.9999999999999998
    vertex -1.762479051592436e-15 -10.0 -1.9999999999999998
  endloop
endfacet
facet normal -0.09269159872357158 -0.7040625922196366 0.7040625922196365
  outer loop
    vertex -2.5881904510252154 -9.659258262890681 -1.9999999999999998
    vertex 5.507747036226363e-16 -9.0 -0.9999999999999999
    vertex -2.3293714059226858 -8.693332436601615 -0.9999999999999999
  endloop
endfacet
facet normal 0.09269159872357127 -0.7040625922196366 0.7040625922196365
  outer loop
    vertex 2.329371405922689 -8.693332436601615 -0.9999999999999999
    vertex -1.762479051592436e-15 -10.0 -1.9999999999999998
    vertex 2.588190451025204 -9.659258262890685 -1.9999999999999998
  endloop
endfacet
facet normal 0.09269159872357127 -0.7040625922196366 0.7040625922196365
  outer loop
    vertex -1.762479051592436e-15 -10.0 -1.9999999999999998
    vertex 2.329371405922689 -8.693332436601615 -0.9999999999999999
    vertex 5.507747036226363e-16 -9.0 -0.9999999999999999
  endloop
endfacet
facet normal -0.704062592219637 -0.09269159872357155 0.7040625922196362
  outer loop
    vertex -8.693332436601615 -2.3293714059226893 -0.9999999999999999
    vertex -10.0 1.4099832412739487e-15 -1.9999999999999998
    vertex -9.659258262890683 -2.588190451025204 -1.9999999999999998
  endloop
endfacet
facet normal -0.704062592219637 -0.09269159872357155 0.7040625922196362
  outer loop
    vertex -10.0 1.4099832412739487e-15 -1.9999999999999998
    vertex -8.693332436601615 -2.3293714059226893 -0.9999999999999999
    vertex -9.0 -1.0574874309554614e-15 -0.9999999999999999
  endloop
endfacet
facet normal -0.7040625922196365 0.09269159872357152 0.7040625922196366
  outer loop
    vertex -9.0 -1.0574874309554614e-15 -0.9999999999999999
    vertex -9.659258262890683 2.58819045102521 -1.9999999999999998
    vertex -10.0 1.4099832412739487e-15 -1.9999999999999998
  endloop
endfacet
facet normal -0.7040625922196365 0.09269159872357152 0.7040625922196366
  outer loop
    vertex -9.659258262890683 2.58819045102521 -1.9999999999999998
    vertex -9.0 -1.0574874309554614e-15 -0.9999999999999999
    vertex -8.693332436601615 2.3293714059226835 -0.9999999999999999
  endloop
endfacet
facet normal -0.27175801689781215 0.6560818900783154 0.7040625922196363
  outer loop
    vertex -4.500000000000004 7.794228634059947 -0.9999999999999999
    vertex -2.588190451025206 9.659258262890683 -1.9999999999999998
    vertex -4.999999999999998 8.660254037844387 -1.9999999999999998
  endloop
endfacet
facet normal -0.27175801689781215 0.6560818900783154 0.7040625922196363
  outer loop
    vertex -2.588190451025206 9.659258262890683 -1.9999999999999998
    vertex -4.500000000000004 7.794228634059947 -0.9999999999999999
    vertex -2.3293714059226938 8.693332436601612 -0.9999999999999999
  endloop
endfacet
facet normal -0.09269159872357177 0.7040625922196364 0.7040625922196366
  outer loop
    vertex -2.3293714059226938 8.693332436601612 -0.9999999999999999
    vertex 7.049916206369744e-16 10.0 -1.9999999999999998
    vertex -2.588190451025206 9.659258262890683 -1.9999999999999998
  endloop
endfacet
facet normal -0.09269159872357177 0.7040625922196364 0.7040625922196366
  outer loop
    vertex 7.049916206369744e-16 10.0 -1.9999999999999998
    vertex -2.3293714059226938 8.693332436601612 -0.9999999999999999
    vertex -1.6523241108679088e-15 9.0 -0.9999999999999999
  endloop
endfacet
facet normal 0.4323045753218234 0.5633902913547433 0.7040625922196374
  outer loop
    vertex 6.363961030678927 6.363961030678929 -0.9999999999999999
    vertex 5.000000000000002 8.660254037844386 -1.9999999999999998
    vertex 4.499999999999994 7.79422863405995 -0.9999999999999999
  endloop
endfacet
facet normal 0.4323045753218234 0.5633902913547433 0.7040625922196374
  outer loop
    vertex 5.000000000000002 8.660254037844386 -1.9999999999999998
    vertex 6.363961030678927 6.363961030678929 -0.9999999999999999
    vertex 7.071067811865477 7.071067811865476 -1.9999999999999998
  endloop
endfacet
facet normal 0.5633902913547437 0.43230457532182437 0.7040625922196366
  outer loop
    vertex 7.794228634059947 4.500000000000004 -0.9999999999999999
    vertex 7.071067811865477 7.071067811865476 -1.9999999999999998
    vertex 6.363961030678927 6.363961030678929 -0.9999999999999999
  endloop
endfacet
facet normal 0.5633902913547437 0.43230457532182437 0.7040625922196366
  outer loop
    vertex 7.071067811865477 7.071067811865476 -1.9999999999999998
    vertex 7.794228634059947 4.500000000000004 -0.9999999999999999
    vertex 8.660254037844387 4.999999999999999 -1.9999999999999998
  endloop
endfacet
facet normal -0.5633902913547433 0.4323045753218244 0.7040625922196369
  outer loop
    vertex -7.79422863405995 4.499999999999997 -0.9999999999999999
    vertex -7.071067811865475 7.071067811865476 -1.9999999999999998
    vertex -8.660254037844386 5.0000000000000036 -1.9999999999999998
  endloop
endfacet
facet normal -0.5633902913547433 0.4323045753218244 0.7040625922196369
  outer loop
    vertex -7.071067811865475 7.071067811865476 -1.9999999999999998
    vertex -7.79422863405995 4.499999999999997 -0.9999999999999999
    vertex -6.363961030678929 6.363961030678924 -0.9999999999999999
  endloop
endfacet
endsolid Пуговица
