solid Рычажок-Длинный
facet normal -1.0 0.0 0.0
  outer loop
    vertex -1.4999999999999996 17.999999999999996 3.9999999999999996
    vertex -1.4999999999999996 10.999999999999998 0.0
    vertex -1.4999999999999996 10.999999999999998 3.9999999999999996
  endloop
endfacet
facet normal -1.0 0.0 0.0
  outer loop
    vertex -1.4999999999999996 10.999999999999998 0.0
    vertex -1.4999999999999996 17.999999999999996 3.9999999999999996
    vertex -1.4999999999999996 17.999999999999996 1.4099832412739487e-15
  endloop
endfacet
facet normal -0.9914448613738105 -0.13052619222005157 0.0
  outer loop
    vertex 1.5454813220625094 0.41411047216403324 3.9999999999999996
    vertex 1.6000000000000003 0.0 1.4099832412739487e-15
    vertex 1.6000000000000003 0.0 3.9999999999999996
  endloop
endfacet
facet normal -0.9914448613738105 -0.13052619222005157 0.0
  outer loop
    vertex 1.6000000000000003 0.0 1.4099832412739487e-15
    vertex 1.5454813220625094 0.41411047216403324 3.9999999999999996
    vertex 1.5454813220625094 0.41411047216403324 1.4099832412739487e-15
  endloop
endfacet
facet normal -0.9238795325112867 -0.3826834323650899 0.0
  outer loop
    vertex 1.385640646055102 0.7999999999999999 3.9999999999999996
    vertex 1.5454813220625094 0.41411047216403324 1.4099832412739487e-15
    vertex 1.5454813220625094 0.41411047216403324 3.9999999999999996
  endloop
endfacet
facet normal -0.9238795325112867 -0.3826834323650899 0.0
  outer loop
    vertex 1.5454813220625094 0.41411047216403324 1.4099832412739487e-15
    vertex 1.385640646055102 0.7999999999999999 3.9999999999999996
    vertex 1.385640646055102 0.7999999999999999 1.4099832412739487e-15
  endloop
endfacet
facet normal -0.7933533402912357 -0.6087614290087201 0.0
  outer loop
    vertex 1.1313708498984762 1.1313708498984762 3.9999999999999996
    vertex 1.385640646055102 0.7999999999999999 1.4099832412739487e-15
    vertex 1.385640646055102 0.7999999999999999 3.9999999999999996
  endloop
endfacet
facet normal -0.7933533402912357 -0.6087614290087201 0.0
  outer loop
    vertex 1.385640646055102 0.7999999999999999 1.4099832412739487e-15
    vertex 1.1313708498984762 1.1313708498984762 3.9999999999999996
    vertex 1.1313708498984762 1.1313708498984762 1.4099832412739487e-15
  endloop
endfacet
facet normal -0.6087614290087201 -0.7933533402912355 0.0
  outer loop
    vertex 1.1313708498984762 1.1313708498984762 3.9999999999999996
    vertex 0.8000000000000003 1.3856406460551018 1.4099832412739487e-15
    vertex 1.1313708498984762 1.1313708498984762 1.4099832412739487e-15
  endloop
endfacet
facet normal -0.6087614290087201 -0.7933533402912355 0.0
  outer loop
    vertex 0.8000000000000003 1.3856406460551018 1.4099832412739487e-15
    vertex 1.1313708498984762 1.1313708498984762 3.9999999999999996
    vertex 0.8000000000000003 1.3856406460551018 3.9999999999999996
  endloop
endfacet
facet normal -0.3826834323650899 -0.9238795325112867 0.0
  outer loop
    vertex 0.8000000000000003 1.3856406460551018 3.9999999999999996
    vertex 0.41411047216403357 1.5454813220625094 1.4099832412739487e-15
    vertex 0.8000000000000003 1.3856406460551018 1.4099832412739487e-15
  endloop
endfacet
facet normal -0.3826834323650899 -0.9238795325112867 0.0
  outer loop
    vertex 0.41411047216403357 1.5454813220625094 1.4099832412739487e-15
    vertex 0.8000000000000003 1.3856406460551018 3.9999999999999996
    vertex 0.41411047216403357 1.5454813220625094 3.9999999999999996
  endloop
endfacet
facet normal -0.1305261922200519 -0.9914448613738105 0.0
  outer loop
    vertex 0.41411047216403357 1.5454813220625094 3.9999999999999996
    vertex 9.797174393178827e-17 1.6000000000000003 1.4099832412739487e-15
    vertex 0.41411047216403357 1.5454813220625094 1.4099832412739487e-15
  endloop
endfacet
facet normal -0.1305261922200519 -0.9914448613738105 0.0
  outer loop
    vertex 9.797174393178827e-17 1.6000000000000003 1.4099832412739487e-15
    vertex 0.41411047216403357 1.5454813220625094 3.9999999999999996
    vertex 9.797174393178827e-17 1.6000000000000003 3.9999999999999996
  endloop
endfacet
facet normal 0.13052619222005157 -0.9914448613738105 0.0
  outer loop
    vertex 9.797174393178827e-17 1.6000000000000003 3.9999999999999996
    vertex -0.41411047216403307 1.5454813220625094 1.4099832412739487e-15
    vertex 9.797174393178827e-17 1.6000000000000003 1.4099832412739487e-15
  endloop
endfacet
facet normal 0.13052619222005157 -0.9914448613738105 0.0
  outer loop
    vertex -0.41411047216403307 1.5454813220625094 1.4099832412739487e-15
    vertex 9.797174393178827e-17 1.6000000000000003 3.9999999999999996
    vertex -0.41411047216403307 1.5454813220625094 3.9999999999999996
  endloop
endfacet
facet normal 0.3826834323650899 -0.9238795325112867 0.0
  outer loop
    vertex -0.41411047216403307 1.5454813220625094 3.9999999999999996
    vertex -0.7999999999999998 1.385640646055102 1.4099832412739487e-15
    vertex -0.41411047216403307 1.5454813220625094 1.4099832412739487e-15
  endloop
endfacet
facet normal 0.3826834323650899 -0.9238795325112867 0.0
  outer loop
    vertex -0.7999999999999998 1.385640646055102 1.4099832412739487e-15
    vertex -0.41411047216403307 1.5454813220625094 3.9999999999999996
    vertex -0.7999999999999998 1.385640646055102 3.9999999999999996
  endloop
endfacet
facet normal 0.6087614290087201 -0.7933533402912357 0.0
  outer loop
    vertex -0.7999999999999998 1.385640646055102 3.9999999999999996
    vertex -1.1313708498984762 1.1313708498984762 1.4099832412739487e-15
    vertex -0.7999999999999998 1.385640646055102 1.4099832412739487e-15
  endloop
endfacet
facet normal 0.6087614290087201 -0.7933533402912357 0.0
  outer loop
    vertex -1.1313708498984762 1.1313708498984762 1.4099832412739487e-15
    vertex -0.7999999999999998 1.385640646055102 3.9999999999999996
    vertex -1.1313708498984762 1.1313708498984762 3.9999999999999996
  endloop
endfacet
facet normal 0.7933533402912352 -0.6087614290087207 -0.0
  outer loop
    vertex -1.1313708498984762 1.1313708498984762 1.4099832412739487e-15
    vertex -1.3856406460551016 0.8000000000000006 3.9999999999999996
    vertex -1.3856406460551016 0.8000000000000006 1.4099832412739487e-15
  endloop
endfacet
facet normal 0.7933533402912352 -0.6087614290087207 -0.0
  outer loop
    vertex -1.3856406460551016 0.8000000000000006 3.9999999999999996
    vertex -1.1313708498984762 1.1313708498984762 1.4099832412739487e-15
    vertex -1.1313708498984762 1.1313708498984762 3.9999999999999996
  endloop
endfacet
facet normal 0.9238795325112867 -0.38268343236509 -0.0
  outer loop
    vertex -1.3856406460551016 0.8000000000000006 1.4099832412739487e-15
    vertex -1.5454813220625094 0.4141104721640337 3.9999999999999996
    vertex -1.5454813220625094 0.4141104721640337 1.4099832412739487e-15
  endloop
endfacet
facet normal 0.9238795325112867 -0.38268343236509 -0.0
  outer loop
    vertex -1.5454813220625094 0.4141104721640337 3.9999999999999996
    vertex -1.3856406460551016 0.8000000000000006 1.4099832412739487e-15
    vertex -1.3856406460551016 0.8000000000000006 3.9999999999999996
  endloop
endfacet
facet normal 0.9914448613738105 -0.1305261922200519 -0.0
  outer loop
    vertex -1.5454813220625094 0.4141104721640337 1.4099832412739487e-15
    vertex -1.6000000000000003 1.9594348786357655e-16 3.9999999999999996
    vertex -1.6000000000000003 1.9594348786357655e-16 1.4099832412739487e-15
  endloop
endfacet
facet normal 0.9914448613738105 -0.1305261922200519 -0.0
  outer loop
    vertex -1.6000000000000003 1.9594348786357655e-16 3.9999999999999996
    vertex -1.5454813220625094 0.4141104721640337 1.4099832412739487e-15
    vertex -1.5454813220625094 0.4141104721640337 3.9999999999999996
  endloop
endfacet
facet normal 0.9914448613738105 0.13052619222005132 -0.0
  outer loop
    vertex -1.6000000000000003 1.9594348786357655e-16 1.4099832412739487e-15
    vertex -1.5454813220625097 -0.41411047216403263 3.9999999999999996
    vertex -1.5454813220625097 -0.41411047216403263 1.4099832412739487e-15
  endloop
endfacet
facet normal 0.9914448613738105 0.13052619222005132 -0.0
  outer loop
    vertex -1.5454813220625097 -0.41411047216403263 3.9999999999999996
    vertex -1.6000000000000003 1.9594348786357655e-16 1.4099832412739487e-15
    vertex -1.6000000000000003 1.9594348786357655e-16 3.9999999999999996
  endloop
endfacet
facet normal 0.9238795325112868 0.38268343236508967 -0.0
  outer loop
    vertex -1.5454813220625097 -0.41411047216403263 1.4099832412739487e-15
    vertex -1.3856406460551023 -0.7999999999999996 3.9999999999999996
    vertex -1.3856406460551023 -0.7999999999999996 1.4099832412739487e-15
  endloop
endfacet
facet normal 0.9238795325112868 0.38268343236508967 -0.0
  outer loop
    vertex -1.3856406460551023 -0.7999999999999996 3.9999999999999996
    vertex -1.5454813220625097 -0.41411047216403263 1.4099832412739487e-15
    vertex -1.5454813220625097 -0.41411047216403263 3.9999999999999996
  endloop
endfacet
facet normal 0.7933533402912357 0.6087614290087199 -0.0
  outer loop
    vertex -1.3856406460551023 -0.7999999999999996 1.4099832412739487e-15
    vertex -1.131370849898477 -1.1313708498984756 3.9999999999999996
    vertex -1.131370849898477 -1.1313708498984756 1.4099832412739487e-15
  endloop
endfacet
facet normal 0.7933533402912357 0.6087614290087199 -0.0
  outer loop
    vertex -1.131370849898477 -1.1313708498984756 3.9999999999999996
    vertex -1.3856406460551023 -0.7999999999999996 1.4099832412739487e-15
    vertex -1.3856406460551023 -0.7999999999999996 3.9999999999999996
  endloop
endfacet
facet normal 0.6087614290087207 0.7933533402912352 -0.0
  outer loop
    vertex -1.131370849898477 -1.1313708498984756 3.9999999999999996
    vertex -0.8000000000000008 -1.3856406460551016 1.4099832412739487e-15
    vertex -1.131370849898477 -1.1313708498984756 1.4099832412739487e-15
  endloop
endfacet
facet normal 0.6087614290087207 0.7933533402912352 -0.0
  outer loop
    vertex -0.8000000000000008 -1.3856406460551016 1.4099832412739487e-15
    vertex -1.131370849898477 -1.1313708498984756 3.9999999999999996
    vertex -0.8000000000000008 -1.3856406460551016 3.9999999999999996
  endloop
endfacet
facet normal 0.38268343236509056 0.9238795325112865 -0.0
  outer loop
    vertex -0.8000000000000008 -1.3856406460551016 3.9999999999999996
    vertex -0.41411047216403446 -1.5454813220625092 1.4099832412739487e-15
    vertex -0.8000000000000008 -1.3856406460551016 1.4099832412739487e-15
  endloop
endfacet
facet normal 0.38268343236509056 0.9238795325112865 -0.0
  outer loop
    vertex -0.41411047216403446 -1.5454813220625092 1.4099832412739487e-15
    vertex -0.8000000000000008 -1.3856406460551016 3.9999999999999996
    vertex -0.41411047216403446 -1.5454813220625092 3.9999999999999996
  endloop
endfacet
facet normal 0.1305261922200521 0.9914448613738105 -0.0
  outer loop
    vertex -0.41411047216403446 -1.5454813220625092 3.9999999999999996
    vertex -2.9391523179536476e-16 -1.6000000000000003 1.4099832412739487e-15
    vertex -0.41411047216403446 -1.5454813220625092 1.4099832412739487e-15
  endloop
endfacet
facet normal 0.1305261922200521 0.9914448613738105 -0.0
  outer loop
    vertex -2.9391523179536476e-16 -1.6000000000000003 1.4099832412739487e-15
    vertex -0.41411047216403446 -1.5454813220625092 3.9999999999999996
    vertex -2.9391523179536476e-16 -1.6000000000000003 3.9999999999999996
  endloop
endfacet
facet normal -0.1305261922200513 0.9914448613738105 -0.0
  outer loop
    vertex -2.9391523179536476e-16 -1.6000000000000003 3.9999999999999996
    vertex 0.4141104721640325 -1.5454813220625097 1.4099832412739487e-15
    vertex -2.9391523179536476e-16 -1.6000000000000003 1.4099832412739487e-15
  endloop
endfacet
facet normal -0.1305261922200513 0.9914448613738105 -0.0
  outer loop
    vertex 0.4141104721640325 -1.5454813220625097 1.4099832412739487e-15
    vertex -2.9391523179536476e-16 -1.6000000000000003 3.9999999999999996
    vertex 0.4141104721640325 -1.5454813220625097 3.9999999999999996
  endloop
endfacet
facet normal -0.3826834323650894 0.9238795325112868 -0.0
  outer loop
    vertex 0.4141104721640325 -1.5454813220625097 3.9999999999999996
    vertex 0.7999999999999989 -1.3856406460551025 1.4099832412739487e-15
    vertex 0.4141104721640325 -1.5454813220625097 1.4099832412739487e-15
  endloop
endfacet
facet normal -0.3826834323650894 0.9238795325112868 -0.0
  outer loop
    vertex 0.7999999999999989 -1.3856406460551025 1.4099832412739487e-15
    vertex 0.4141104721640325 -1.5454813220625097 3.9999999999999996
    vertex 0.7999999999999989 -1.3856406460551025 3.9999999999999996
  endloop
endfacet
facet normal -0.6087614290087198 0.7933533402912358 -0.0
  outer loop
    vertex 0.7999999999999989 -1.3856406460551025 3.9999999999999996
    vertex 1.131370849898476 -1.1313708498984765 1.4099832412739487e-15
    vertex 0.7999999999999989 -1.3856406460551025 1.4099832412739487e-15
  endloop
endfacet
facet normal -0.6087614290087198 0.7933533402912358 -0.0
  outer loop
    vertex 1.131370849898476 -1.1313708498984765 1.4099832412739487e-15
    vertex 0.7999999999999989 -1.3856406460551025 3.9999999999999996
    vertex 1.131370849898476 -1.1313708498984765 3.9999999999999996
  endloop
endfacet
facet normal -0.7933533402912352 0.6087614290087207 0.0
  outer loop
    vertex 1.3856406460551016 -0.8000000000000008 3.9999999999999996
    vertex 1.131370849898476 -1.1313708498984765 1.4099832412739487e-15
    vertex 1.131370849898476 -1.1313708498984765 3.9999999999999996
  endloop
endfacet
facet normal -0.7933533402912352 0.6087614290087207 0.0
  outer loop
    vertex 1.131370849898476 -1.1313708498984765 1.4099832412739487e-15
    vertex 1.3856406460551016 -0.8000000000000008 3.9999999999999996
    vertex 1.3856406460551016 -0.8000000000000008 1.4099832412739487e-15
  endloop
endfacet
facet normal -0.9238795325112865 0.38268343236509067 0.0
  outer loop
    vertex 1.5454813220625092 -0.41411047216403457 3.9999999999999996
    vertex 1.3856406460551016 -0.8000000000000008 1.4099832412739487e-15
    vertex 1.3856406460551016 -0.8000000000000008 3.9999999999999996
  endloop
endfacet
facet normal -0.9238795325112865 0.38268343236509067 0.0
  outer loop
    vertex 1.3856406460551016 -0.8000000000000008 1.4099832412739487e-15
    vertex 1.5454813220625092 -0.41411047216403457 3.9999999999999996
    vertex 1.5454813220625092 -0.41411047216403457 1.4099832412739487e-15
  endloop
endfacet
facet normal -0.9914448613738105 0.13052619222005202 0.0
  outer loop
    vertex 1.6000000000000003 0.0 3.9999999999999996
    vertex 1.5454813220625092 -0.41411047216403457 1.4099832412739487e-15
    vertex 1.5454813220625092 -0.41411047216403457 3.9999999999999996
  endloop
endfacet
facet normal -0.9914448613738105 0.13052619222005202 0.0
  outer loop
    vertex 1.5454813220625092 -0.41411047216403457 1.4099832412739487e-15
    vertex 1.6000000000000003 0.0 3.9999999999999996
    vertex 1.6000000000000003 0.0 1.4099832412739487e-15
  endloop
endfacet
facet normal 0.6384850494399649 0.7696342258772317 0.0
  outer loop
    vertex 0.5000000000000009 25.999999999999996 3.9999999999999996
    vertex 1.6843323042928526 25.01748331293625 -2.8199664825478975e-15
    vertex 0.5000000000000009 25.999999999999996 -2.8199664825478975e-15
  endloop
endfacet
facet normal 0.6384850494399649 0.7696342258772317 0.0
  outer loop
    vertex 1.6843323042928526 25.01748331293625 -2.8199664825478975e-15
    vertex 0.5000000000000009 25.999999999999996 3.9999999999999996
    vertex 1.6843323042928526 25.01748331293625 3.9999999999999996
  endloop
endfacet
facet normal 0.0 1.0 0.0
  outer loop
    vertex -1.4999999999999996 25.999999999999996 3.9999999999999996
    vertex 0.5000000000000009 25.999999999999996 -2.8199664825478975e-15
    vertex -1.4999999999999996 25.999999999999996 -2.8199664825478975e-15
  endloop
endfacet
facet normal 0.0 1.0 0.0
  outer loop
    vertex 0.5000000000000009 25.999999999999996 -2.8199664825478975e-15
    vertex -1.4999999999999996 25.999999999999996 3.9999999999999996
    vertex 0.5000000000000009 25.999999999999996 3.9999999999999996
  endloop
endfacet
facet normal -1.0 0.0 0.0
  outer loop
    vertex -1.4999999999999996 25.999999999999996 3.9999999999999996
    vertex -1.4999999999999996 17.999999999999996 1.4099832412739487e-15
    vertex -1.4999999999999996 17.999999999999996 3.9999999999999996
  endloop
endfacet
facet normal -1.0 0.0 0.0
  outer loop
    vertex -1.4999999999999996 17.999999999999996 1.4099832412739487e-15
    vertex -1.4999999999999996 25.999999999999996 3.9999999999999996
    vertex -1.4999999999999996 25.999999999999996 -2.8199664825478975e-15
  endloop
endfacet
facet normal -1.1201602018182672e-16 -1.266169609187995e-16 -1.0
  outer loop
    vertex 0.5000000000000009 25.999999999999996 -2.8199664825478975e-15
    vertex -1.4999999999999996 17.999999999999996 1.4099832412739487e-15
    vertex -1.4999999999999996 25.999999999999996 -2.8199664825478975e-15
  endloop
endfacet
facet normal -1.1201602018182672e-16 -1.266169609187995e-16 -1.0
  outer loop
    vertex -1.4999999999999996 17.999999999999996 1.4099832412739487e-15
    vertex 0.5000000000000009 25.999999999999996 -2.8199664825478975e-15
    vertex -1.4999999999999996 10.999999999999998 0.0
  endloop
endfacet
facet normal -1.1201602018182672e-16 -1.266169609187995e-16 -1.0
  outer loop
    vertex -1.4999999999999996 10.999999999999998 0.0
    vertex 0.5000000000000009 25.999999999999996 -2.8199664825478975e-15
    vertex -1.3856406460551016 0.8000000000000006 1.4099832412739487e-15
  endloop
endfacet
facet normal -1.1201602018182672e-16 -1.266169609187995e-16 -1.0
  outer loop
    vertex -1.3856406460551016 0.8000000000000006 1.4099832412739487e-15
    vertex 0.5000000000000009 25.999999999999996 -2.8199664825478975e-15
    vertex -1.1313708498984762 1.1313708498984762 1.4099832412739487e-15
  endloop
endfacet
facet normal -1.1201602018182672e-16 -1.266169609187995e-16 -1.0
  outer loop
    vertex -1.1313708498984762 1.1313708498984762 1.4099832412739487e-15
    vertex 0.5000000000000009 25.999999999999996 -2.8199664825478975e-15
    vertex -0.7999999999999998 1.385640646055102 1.4099832412739487e-15
  endloop
endfacet
facet normal -1.1201602018182672e-16 -1.266169609187995e-16 -1.0
  outer loop
    vertex -0.7999999999999998 1.385640646055102 1.4099832412739487e-15
    vertex 0.5000000000000009 25.999999999999996 -2.8199664825478975e-15
    vertex -0.41411047216403307 1.5454813220625094 1.4099832412739487e-15
  endloop
endfacet
facet normal -1.1201602018182672e-16 -1.266169609187995e-16 -1.0
  outer loop
    vertex -0.41411047216403307 1.5454813220625094 1.4099832412739487e-15
    vertex 0.5000000000000009 25.999999999999996 -2.8199664825478975e-15
    vertex 9.797174393178827e-17 1.6000000000000003 1.4099832412739487e-15
  endloop
endfacet
facet normal -1.1201602018182672e-16 -1.266169609187995e-16 -1.0
  outer loop
    vertex 9.797174393178827e-17 1.6000000000000003 1.4099832412739487e-15
    vertex 0.5000000000000009 25.999999999999996 -2.8199664825478975e-15
    vertex 0.41411047216403357 1.5454813220625094 1.4099832412739487e-15
  endloop
endfacet
facet normal -1.1201602018182672e-16 -1.266169609187995e-16 -1.0
  outer loop
    vertex 0.41411047216403357 1.5454813220625094 1.4099832412739487e-15
    vertex 0.5000000000000009 25.999999999999996 -2.8199664825478975e-15
    vertex 0.8000000000000003 1.3856406460551018 1.4099832412739487e-15
  endloop
endfacet
facet normal -1.1201602018182672e-16 -1.266169609187995e-16 -1.0
  outer loop
    vertex 0.8000000000000003 1.3856406460551018 1.4099832412739487e-15
    vertex 0.5000000000000009 25.999999999999996 -2.8199664825478975e-15
    vertex 1.6843323042928526 25.01748331293625 -2.8199664825478975e-15
  endloop
endfacet
facet normal -1.1201602018182672e-16 -1.266169609187995e-16 -1.0
  outer loop
    vertex 0.8000000000000003 1.3856406460551018 1.4099832412739487e-15
    vertex 1.6843323042928526 25.01748331293625 -2.8199664825478975e-15
    vertex 1.1313708498984762 1.1313708498984762 1.4099832412739487e-15
  endloop
endfacet
facet normal -1.1201602018182672e-16 -1.266169609187995e-16 -1.0
  outer loop
    vertex 1.1313708498984762 1.1313708498984762 1.4099832412739487e-15
    vertex 1.6843323042928526 25.01748331293625 -2.8199664825478975e-15
    vertex 1.385640646055102 0.7999999999999999 1.4099832412739487e-15
  endloop
endfacet
facet normal -1.1201602018182672e-16 -1.266169609187995e-16 -1.0
  outer loop
    vertex 1.385640646055102 0.7999999999999999 1.4099832412739487e-15
    vertex 1.6843323042928526 25.01748331293625 -2.8199664825478975e-15
    vertex 1.5454813220625094 0.41411047216403324 1.4099832412739487e-15
  endloop
endfacet
facet normal -1.1201602018182672e-16 -1.266169609187995e-16 -1.0
  outer loop
    vertex 1.5454813220625094 0.41411047216403324 1.4099832412739487e-15
    vertex 1.6843323042928526 25.01748331293625 -2.8199664825478975e-15
    vertex 1.6000000000000003 0.0 1.4099832412739487e-15
  endloop
endfacet
facet normal -1.1201602018182672e-16 -1.266169609187995e-16 -1.0
  outer loop
    vertex -1.6000000000000003 1.9594348786357655e-16 1.4099832412739487e-15
    vertex -1.294095225512608 -4.829629131445341 1.4099832412739487e-15
    vertex -1.9134171618254519 -4.619397662556432 1.4099832412739487e-15
  endloop
endfacet
facet normal -1.1201602018182672e-16 -1.266169609187995e-16 -1.0
  outer loop
    vertex -1.294095225512608 -4.829629131445341 1.4099832412739487e-15
    vertex -1.6000000000000003 1.9594348786357655e-16 1.4099832412739487e-15
    vertex -1.5454813220625097 -0.41411047216403263 1.4099832412739487e-15
  endloop
endfacet
facet normal -1.1201602018182672e-16 -1.266169609187995e-16 -1.0
  outer loop
    vertex -1.294095225512608 -4.829629131445341 1.4099832412739487e-15
    vertex -1.5454813220625097 -0.41411047216403263 1.4099832412739487e-15
    vertex -1.3856406460551023 -0.7999999999999996 1.4099832412739487e-15
  endloop
endfacet
facet normal -1.1201602018182672e-16 -1.266169609187995e-16 -1.0
  outer loop
    vertex -1.294095225512608 -4.829629131445341 1.4099832412739487e-15
    vertex -1.3856406460551023 -0.7999999999999996 1.4099832412739487e-15
    vertex -1.131370849898477 -1.1313708498984756 1.4099832412739487e-15
  endloop
endfacet
facet normal -1.1201602018182672e-16 -1.266169609187995e-16 -1.0
  outer loop
    vertex -1.294095225512608 -4.829629131445341 1.4099832412739487e-15
    vertex -1.131370849898477 -1.1313708498984756 1.4099832412739487e-15
    vertex -0.6526309611002629 -4.957224306869051 1.4099832412739487e-15
  endloop
endfacet
facet normal -1.1201602018182672e-16 -1.266169609187995e-16 -1.0
  outer loop
    vertex -0.6526309611002629 -4.957224306869051 1.4099832412739487e-15
    vertex -1.131370849898477 -1.1313708498984756 1.4099832412739487e-15
    vertex -0.8000000000000008 -1.3856406460551016 1.4099832412739487e-15
  endloop
endfacet
facet normal -1.1201602018182672e-16 -1.266169609187995e-16 -1.0
  outer loop
    vertex -0.6526309611002629 -4.957224306869051 1.4099832412739487e-15
    vertex -0.8000000000000008 -1.3856406460551016 1.4099832412739487e-15
    vertex -0.41411047216403446 -1.5454813220625092 1.4099832412739487e-15
  endloop
endfacet
facet normal -1.1201602018182672e-16 -1.266169609187995e-16 -1.0
  outer loop
    vertex -0.6526309611002629 -4.957224306869051 1.4099832412739487e-15
    vertex -0.41411047216403446 -1.5454813220625092 1.4099832412739487e-15
    vertex 0.0 -5.0 1.4099832412739487e-15
  endloop
endfacet
facet normal -1.1201602018182672e-16 -1.266169609187995e-16 -1.0
  outer loop
    vertex 0.0 -5.0 1.4099832412739487e-15
    vertex -0.41411047216403446 -1.5454813220625092 1.4099832412739487e-15
    vertex -2.9391523179536476e-16 -1.6000000000000003 1.4099832412739487e-15
  endloop
endfacet
facet normal -1.1201602018182672e-16 -1.266169609187995e-16 -1.0
  outer loop
    vertex 0.0 -5.0 1.4099832412739487e-15
    vertex -2.9391523179536476e-16 -1.6000000000000003 1.4099832412739487e-15
    vertex 0.4141104721640325 -1.5454813220625097 1.4099832412739487e-15
  endloop
endfacet
facet normal -1.1201602018182672e-16 -1.266169609187995e-16 -1.0
  outer loop
    vertex 0.0 -5.0 1.4099832412739487e-15
    vertex 0.4141104721640325 -1.5454813220625097 1.4099832412739487e-15
    vertex 0.6526309611002579 -4.957224306869052 1.4099832412739487e-15
  endloop
endfacet
facet normal -1.1201602018182672e-16 -1.266169609187995e-16 -1.0
  outer loop
    vertex 0.6526309611002579 -4.957224306869052 1.4099832412739487e-15
    vertex 0.4141104721640325 -1.5454813220625097 1.4099832412739487e-15
    vertex 0.7999999999999989 -1.3856406460551025 1.4099832412739487e-15
  endloop
endfacet
facet normal -1.1201602018182672e-16 -1.266169609187995e-16 -1.0
  outer loop
    vertex 0.6526309611002579 -4.957224306869052 1.4099832412739487e-15
    vertex 0.7999999999999989 -1.3856406460551025 1.4099832412739487e-15
    vertex 1.1541603900261197 -4.93928582908197 1.125092289882755e-15
  endloop
endfacet
facet normal -1.1201602018182672e-16 -1.266169609187995e-16 -1.0
  outer loop
    vertex 1.1541603900261197 -4.93928582908197 1.125092289882755e-15
    vertex 0.7999999999999989 -1.3856406460551025 1.4099832412739487e-15
    vertex 1.131370849898476 -1.1313708498984765 1.4099832412739487e-15
  endloop
endfacet
facet normal -1.1201602018182672e-16 -1.266169609187995e-16 -1.0
  outer loop
    vertex 1.1541603900261197 -4.93928582908197 1.125092289882755e-15
    vertex 1.131370849898476 -1.1313708498984765 1.4099832412739487e-15
    vertex 1.3856406460551016 -0.8000000000000008 1.4099832412739487e-15
  endloop
endfacet
facet normal -1.1201602018182672e-16 -1.266169609187995e-16 -1.0
  outer loop
    vertex 1.1541603900261197 -4.93928582908197 1.125092289882755e-15
    vertex 1.3856406460551016 -0.8000000000000008 1.4099832412739487e-15
    vertex 2.2955806511081196 -4.757813505993827 8.634673479973395e-16
  endloop
endfacet
facet normal -1.1201602018182672e-16 -1.266169609187995e-16 -1.0
  outer loop
    vertex 2.2955806511081196 -4.757813505993827 8.634673479973395e-16
    vertex 1.3856406460551016 -0.8000000000000008 1.4099832412739487e-15
    vertex 1.5454813220625092 -0.41411047216403457 1.4099832412739487e-15
  endloop
endfacet
facet normal -1.1201602018182672e-16 -1.266169609187995e-16 -1.0
  outer loop
    vertex 2.2955806511081196 -4.757813505993827 8.634673479973395e-16
    vertex 1.5454813220625092 -0.41411047216403457 1.4099832412739487e-15
    vertex 1.6000000000000003 0.0 1.4099832412739487e-15
  endloop
endfacet
facet normal -1.1201602018182672e-16 -1.266169609187995e-16 -1.0
  outer loop
    vertex 2.2955806511081196 -4.757813505993827 8.634673479973395e-16
    vertex 1.6000000000000003 0.0 1.4099832412739487e-15
    vertex 1.6843323042928526 25.01748331293625 -2.8199664825478975e-15
  endloop
endfacet
facet normal -1.1201602018182672e-16 -1.266169609187995e-16 -1.0
  outer loop
    vertex 2.2955806511081196 -4.757813505993827 8.634673479973395e-16
    vertex 1.6843323042928526 25.01748331293625 -2.8199664825478975e-15
    vertex 3.5074367934960633 15.300084131199656 -2.8199664825478967e-15
  endloop
endfacet
facet normal -1.1201602018182672e-16 -1.266169609187995e-16 -1.0
  outer loop
    vertex 2.2955806511081196 -4.757813505993827 8.634673479973395e-16
    vertex 3.5074367934960633 15.300084131199656 -2.8199664825478967e-15
    vertex 3.411661285436785 -4.457586201885702 6.279963465529719e-16
  endloop
endfacet
facet normal -1.1201602018182672e-16 -1.266169609187995e-16 -1.0
  outer loop
    vertex 3.411661285436785 -4.457586201885702 6.279963465529719e-16
    vertex 3.5074367934960633 15.300084131199656 -2.8199664825478967e-15
    vertex 4.490082505124524 -4.041917957509592 4.2127851781141333e-16
  endloop
endfacet
facet normal -1.1201602018182672e-16 -1.266169609187995e-16 -1.0
  outer loop
    vertex 4.490082505124524 -4.041917957509592 4.2127851781141333e-16
    vertex 3.5074367934960633 15.300084131199656 -2.8199664825478967e-15
    vertex 4.679068398910209 14.73758868616635 -2.6619077854183056e-15
  endloop
endfacet
facet normal -1.1201602018182672e-16 -1.266169609187995e-16 -1.0
  outer loop
    vertex 4.490082505124524 -4.041917957509592 4.2127851781141333e-16
    vertex 4.679068398910209 14.73758868616635 -2.6619077854183056e-15
    vertex 5.518940223431201 -3.5153971013829968 2.4559570389441156e-16
  endloop
endfacet
facet normal -1.1201602018182672e-16 -1.266169609187995e-16 -1.0
  outer loop
    vertex 5.518940223431201 -3.5153971013829968 2.4559570389441156e-16
    vertex 4.679068398910209 14.73758868616635 -2.6619077854183056e-15
    vertex 5.780045852361725 14.046958255704464 -2.4806386830607336e-15
  endloop
endfacet
facet normal -1.1201602018182672e-16 -1.266169609187995e-16 -1.0
  outer loop
    vertex 5.518940223431201 -3.5153971013829968 2.4559570389441156e-16
    vertex 5.780045852361725 14.046958255704464 -2.4806386830607336e-15
    vertex 6.4868774572982675 -2.8838356018049423 1.0288716880886861e-16
  endloop
endfacet
facet normal -1.1201602018182672e-16 -1.266169609187995e-16 -1.0
  outer loop
    vertex 6.4868774572982675 -2.8838356018049423 1.0288716880886861e-16
    vertex 5.780045852361725 14.046958255704464 -2.4806386830607336e-15
    vertex 6.79641363526575 13.23694697531184 -2.278456864968168e-15
  endloop
endfacet
facet normal -1.1201602018182672e-16 -1.266169609187995e-16 -1.0
  outer loop
    vertex 6.4868774572982675 -2.8838356018049423 1.0288716880886861e-16
    vertex 6.79641363526575 13.23694697531184 -2.278456864968168e-15
    vertex 7.383209690712307 -2.154204911799026 -5.271808000411632e-18
  endloop
endfacet
facet normal -1.1201602018182672e-16 -1.266169609187995e-16 -1.0
  outer loop
    vertex 7.383209690712307 -2.154204911799026 -5.271808000411632e-18
    vertex 6.79641363526575 13.23694697531184 -2.278456864968168e-15
    vertex 7.715288704977865 12.317822201002006 -2.057925101260072e-15
  endloop
endfacet
facet normal -1.1201602018182672e-16 -1.266169609187995e-16 -1.0
  outer loop
    vertex 7.383209690712307 -2.154204911799026 -5.271808000411632e-18
    vertex 7.715288704977865 12.317822201002006 -2.057925101260072e-15
    vertex 8.198042815082218 -1.3345590151551932 -7.76873202766176e-17
  endloop
endfacet
facet normal -1.1201602018182672e-16 -1.266169609187995e-16 -1.0
  outer loop
    vertex 8.198042815082218 -1.3345590151551932 -7.76873202766176e-17
    vertex 7.715288704977865 12.317822201002006 -2.057925101260072e-15
    vertex 8.525023794724051 11.301234364697494 -1.8218387581061452e-15
  endloop
endfacet
facet normal -1.1201602018182672e-16 -1.266169609187995e-16 -1.0
  outer loop
    vertex 8.198042815082218 -1.3345590151551932 -7.76873202766176e-17
    vertex 8.525023794724051 11.301234364697494 -1.8218387581061452e-15
    vertex 8.92238234475235 -0.4339455230217689 -1.1356001381220278e-16
  endloop
endfacet
facet normal -1.1201602018182672e-16 -1.266169609187995e-16 -1.0
  outer loop
    vertex 8.92238234475235 -0.4339455230217689 -1.1356001381220278e-16
    vertex 8.525023794724051 11.301234364697494 -1.8218387581061452e-15
    vertex 9.215355049365101 10.200069298345376 -1.573190364862177e-15
  endloop
endfacet
facet normal -1.1201602018182672e-16 -1.266169609187995e-16 -1.0
  outer loop
    vertex 8.92238234475235 -0.4339455230217689 -1.1356001381220278e-16
    vertex 9.215355049365101 10.200069298345376 -1.573190364862177e-15
    vertex 9.548232702082824 0.5376941975973603 -1.1249391007145605e-16
  endloop
endfacet
facet normal -1.1201602018182672e-16 -1.266169609187995e-16 -1.0
  outer loop
    vertex 9.548232702082824 0.5376941975973603 -1.1249391007145605e-16
    vertex 9.215355049365101 10.200069298345376 -1.573190364862177e-15
    vertex 9.777532125627724 9.028284898631268 -1.3151316820498123e-15
  endloop
endfacet
facet normal -1.1201602018182672e-16 -1.266169609187995e-16 -1.0
  outer loop
    vertex 9.548232702082824 0.5376941975973603 -1.1249391007145605e-16
    vertex 9.777532125627724 9.028284898631268 -1.3151316820498123e-15
    vertex 10.068685476144788 1.569634761015 -7.450077717537937e-17
  endloop
endfacet
facet normal -1.1201602018182672e-16 -1.266169609187995e-16 -1.0
  outer loop
    vertex 10.068685476144788 1.569634761015 -7.450077717537937e-17
    vertex 9.777532125627724 9.028284898631268 -1.3151316820498123e-15
    vertex 10.204429107707595 7.800734202659958 -1.050933750990271e-15
  endloop
endfacet
facet normal -1.1201602018182672e-16 -1.266169609187995e-16 -1.0
  outer loop
    vertex 10.068685476144788 1.569634761015 -7.450077717537937e-17
    vertex 10.204429107707595 7.800734202659958 -1.050933750990271e-15
    vertex 10.477995680792313 2.650485154375209 0.0
  endloop
endfacet
facet normal -1.1201602018182672e-16 -1.266169609187995e-16 -1.0
  outer loop
    vertex 10.477995680792313 2.650485154375209 0.0
    vertex 10.204429107707595 7.800734202659958 -1.050933750990271e-15
    vertex 10.49063483232561 6.532977117219523 -7.839454314857431e-16
  endloop
endfacet
facet normal -1.1201602018182672e-16 -1.266169609187995e-16 -1.0
  outer loop
    vertex 10.477995680792313 2.650485154375209 0.0
    vertex 10.49063483232561 6.532977117219523 -7.839454314857431e-16
    vertex 10.628290551331904 3.9414279092555464 -2.551270181493037e-16
  endloop
endfacet
facet normal -1.1201602018182672e-16 -1.266169609187995e-16 -1.0
  outer loop
    vertex 10.628290551331904 3.9414279092555464 -2.551270181493037e-16
    vertex 10.49063483232561 6.532977117219523 -7.839454314857431e-16
    vertex 10.632521478315699 5.241083188068127 -5.175509531070561e-16
  endloop
endfacet
facet normal -1.1201602018182672e-16 -1.266169609187995e-16 -1.0
  outer loop
    vertex -4.957224306869051 0.6526309611002624 1.4099832412739487e-15
    vertex -4.957224306869053 -0.6526309611002563 1.4099832412739487e-15
    vertex -5.0 9.184850993605148e-16 1.4099832412739487e-15
  endloop
endfacet
facet normal -1.1201602018182672e-16 -1.266169609187995e-16 -1.0
  outer loop
    vertex -4.957224306869053 -0.6526309611002563 1.4099832412739487e-15
    vertex -4.957224306869051 0.6526309611002624 1.4099832412739487e-15
    vertex -4.829629131445342 -1.2940952255126015 1.4099832412739487e-15
  endloop
endfacet
facet normal -1.1201602018182672e-16 -1.266169609187995e-16 -1.0
  outer loop
    vertex -4.829629131445342 -1.2940952255126015 1.4099832412739487e-15
    vertex -4.957224306869051 0.6526309611002624 1.4099832412739487e-15
    vertex -4.829629131445341 1.2940952255126077 1.4099832412739487e-15
  endloop
endfacet
facet normal -1.1201602018182672e-16 -1.266169609187995e-16 -1.0
  outer loop
    vertex -4.829629131445342 -1.2940952255126015 1.4099832412739487e-15
    vertex -4.829629131445341 1.2940952255126077 1.4099832412739487e-15
    vertex -4.619397662556435 -1.9134171618254459 1.4099832412739487e-15
  endloop
endfacet
facet normal -1.1201602018182672e-16 -1.266169609187995e-16 -1.0
  outer loop
    vertex -4.619397662556435 -1.9134171618254459 1.4099832412739487e-15
    vertex -4.829629131445341 1.2940952255126077 1.4099832412739487e-15
    vertex -4.619397662556432 1.9134171618254516 1.4099832412739487e-15
  endloop
endfacet
facet normal -1.1201602018182672e-16 -1.266169609187995e-16 -1.0
  outer loop
    vertex -4.619397662556435 -1.9134171618254459 1.4099832412739487e-15
    vertex -4.619397662556432 1.9134171618254516 1.4099832412739487e-15
    vertex -4.330127018922195 -2.4999999999999964 1.4099832412739487e-15
  endloop
endfacet
facet normal -1.1201602018182672e-16 -1.266169609187995e-16 -1.0
  outer loop
    vertex -4.330127018922195 -2.4999999999999964 1.4099832412739487e-15
    vertex -4.619397662556432 1.9134171618254516 1.4099832412739487e-15
    vertex -4.330127018922192 2.500000000000002 1.4099832412739487e-15
  endloop
endfacet
facet normal -1.1201602018182672e-16 -1.266169609187995e-16 -1.0
  outer loop
    vertex -4.330127018922195 -2.4999999999999964 1.4099832412739487e-15
    vertex -4.330127018922192 2.500000000000002 1.4099832412739487e-15
    vertex -3.9667667014561787 -3.0438071450435995 1.4099832412739487e-15
  endloop
endfacet
facet normal -1.1201602018182672e-16 -1.266169609187995e-16 -1.0
  outer loop
    vertex -3.9667667014561787 -3.0438071450435995 1.4099832412739487e-15
    vertex -4.330127018922192 2.500000000000002 1.4099832412739487e-15
    vertex -1.4999999999999996 10.999999999999998 0.0
  endloop
endfacet
facet normal -1.1201602018182672e-16 -1.266169609187995e-16 -1.0
  outer loop
    vertex -3.9667667014561787 -3.0438071450435995 1.4099832412739487e-15
    vertex -1.4999999999999996 10.999999999999998 0.0
    vertex -3.5355339059327386 -3.5355339059327364 1.4099832412739487e-15
  endloop
endfacet
facet normal -1.1201602018182672e-16 -1.266169609187995e-16 -1.0
  outer loop
    vertex -3.5355339059327386 -3.5355339059327364 1.4099832412739487e-15
    vertex -1.4999999999999996 10.999999999999998 0.0
    vertex -3.0438071450436044 -3.9667667014561747 1.4099832412739487e-15
  endloop
endfacet
facet normal -1.1201602018182672e-16 -1.266169609187995e-16 -1.0
  outer loop
    vertex -3.0438071450436044 -3.9667667014561747 1.4099832412739487e-15
    vertex -1.4999999999999996 10.999999999999998 0.0
    vertex -2.500000000000002 -4.330127018922192 1.4099832412739487e-15
  endloop
endfacet
facet normal -1.1201602018182672e-16 -1.266169609187995e-16 -1.0
  outer loop
    vertex -2.500000000000002 -4.330127018922192 1.4099832412739487e-15
    vertex -1.4999999999999996 10.999999999999998 0.0
    vertex -1.9134171618254519 -4.619397662556432 1.4099832412739487e-15
  endloop
endfacet
facet normal -1.1201602018182672e-16 -1.266169609187995e-16 -1.0
  outer loop
    vertex -1.9134171618254519 -4.619397662556432 1.4099832412739487e-15
    vertex -1.4999999999999996 10.999999999999998 0.0
    vertex -1.6000000000000003 1.9594348786357655e-16 1.4099832412739487e-15
  endloop
endfacet
facet normal -1.1201602018182672e-16 -1.266169609187995e-16 -1.0
  outer loop
    vertex -1.6000000000000003 1.9594348786357655e-16 1.4099832412739487e-15
    vertex -1.4999999999999996 10.999999999999998 0.0
    vertex -1.5454813220625094 0.4141104721640337 1.4099832412739487e-15
  endloop
endfacet
facet normal -1.1201602018182672e-16 -1.266169609187995e-16 -1.0
  outer loop
    vertex -1.5454813220625094 0.4141104721640337 1.4099832412739487e-15
    vertex -1.4999999999999996 10.999999999999998 0.0
    vertex -1.3856406460551016 0.8000000000000006 1.4099832412739487e-15
  endloop
endfacet
facet normal 0.9828521727174909 0.18439524555830417 -5.1551391076709584e-17
  outer loop
    vertex 1.6843323042928526 25.01748331293625 -2.8199664825478975e-15
    vertex 3.507436793496064 15.300084131199656 3.999999999999997
    vertex 3.5074367934960633 15.300084131199656 -2.8199664825478967e-15
  endloop
endfacet
facet normal 0.9828521727174909 0.18439524555830417 -5.1551391076709584e-17
  outer loop
    vertex 3.507436793496064 15.300084131199656 3.999999999999997
    vertex 1.6843323042928526 25.01748331293625 -2.8199664825478975e-15
    vertex 1.6843323042928526 25.01748331293625 3.9999999999999996
  endloop
endfacet
facet normal 0.4328012770976646 0.9014893535381494 -7.568437845090628e-17
  outer loop
    vertex 3.507436793496064 15.300084131199656 3.999999999999997
    vertex 4.679068398910209 14.73758868616635 -2.6619077854183056e-15
    vertex 3.5074367934960633 15.300084131199656 -2.8199664825478967e-15
  endloop
endfacet
facet normal 0.4328012770976646 0.9014893535381494 -7.568437845090628e-17
  outer loop
    vertex 4.679068398910209 14.73758868616635 -2.6619077854183056e-15
    vertex 3.507436793496064 15.300084131199656 3.999999999999997
    vertex 4.67906839891021 14.73758868616635 3.999999999999997
  endloop
endfacet
facet normal 0.5313922716097983 0.847125878292818 -1.5496887815152285e-16
  outer loop
    vertex 4.67906839891021 14.73758868616635 3.999999999999997
    vertex 5.780045852361725 14.046958255704464 -2.4806386830607336e-15
    vertex 4.679068398910209 14.73758868616635 -2.6619077854183056e-15
  endloop
endfacet
facet normal 0.5313922716097983 0.847125878292818 -1.5496887815152285e-16
  outer loop
    vertex 5.780045852361725 14.046958255704464 -2.4806386830607336e-15
    vertex 4.67906839891021 14.73758868616635 3.999999999999997
    vertex 5.780045852361725 14.046958255704464 3.999999999999997
  endloop
endfacet
facet normal 0.62324756531439 0.7820245982893924 -1.5577714922482675e-16
  outer loop
    vertex 5.780045852361725 14.046958255704464 3.999999999999997
    vertex 6.79641363526575 13.23694697531184 -2.278456864968168e-15
    vertex 5.780045852361725 14.046958255704464 -2.4806386830607336e-15
  endloop
endfacet
facet normal 0.62324756531439 0.7820245982893924 -1.5577714922482675e-16
  outer loop
    vertex 6.79641363526575 13.23694697531184 -2.278456864968168e-15
    vertex 5.780045852361725 14.046958255704464 3.999999999999997
    vertex 6.79641363526575 13.23694697531184 3.999999999999998
  endloop
endfacet
facet normal 0.7072028398556085 0.7070107094663861 -1.5461085588331221e-16
  outer loop
    vertex 6.79641363526575 13.23694697531184 -2.278456864968168e-15
    vertex 7.715288704977865 12.317822201002006 3.999999999999998
    vertex 7.715288704977865 12.317822201002006 -2.057925101260072e-15
  endloop
endfacet
facet normal 0.7072028398556085 0.7070107094663861 -1.5461085588331221e-16
  outer loop
    vertex 7.715288704977865 12.317822201002006 3.999999999999998
    vertex 6.79641363526575 13.23694697531184 -2.278456864968168e-15
    vertex 6.79641363526575 13.23694697531184 3.999999999999998
  endloop
endfacet
facet normal 0.7821939141364797 0.6230350557455443 -1.5148478156178243e-16
  outer loop
    vertex 7.715288704977865 12.317822201002006 -2.057925101260072e-15
    vertex 8.525023794724051 11.301234364697494 3.999999999999998
    vertex 8.525023794724051 11.301234364697494 -1.8218387581061452e-15
  endloop
endfacet
facet normal 0.7821939141364797 0.6230350557455443 -1.5148478156178243e-16
  outer loop
    vertex 8.525023794724051 11.301234364697494 3.999999999999998
    vertex 7.715288704977865 12.317822201002006 -2.057925101260072e-15
    vertex 7.715288704977865 12.317822201002006 3.999999999999998
  endloop
endfacet
facet normal 0.8472702334226208 0.5311620765415936 -1.4643855103925086e-16
  outer loop
    vertex 8.525023794724051 11.301234364697494 -1.8218387581061452e-15
    vertex 9.215355049365101 10.200069298345376 3.9999999999999982
    vertex 9.215355049365101 10.200069298345376 -1.573190364862177e-15
  endloop
endfacet
facet normal 0.8472702334226208 0.5311620765415936 -1.4643855103925086e-16
  outer loop
    vertex 9.215355049365101 10.200069298345376 3.9999999999999982
    vertex 8.525023794724051 11.301234364697494 -1.8218387581061452e-15
    vertex 8.525023794724051 11.301234364697494 3.999999999999998
  endloop
endfacet
facet normal 0.901606918166879 0.43255631438417713 -1.3953612817221584e-16
  outer loop
    vertex 9.215355049365101 10.200069298345376 -1.573190364862177e-15
    vertex 9.777532125627724 9.028284898631268 3.9999999999999982
    vertex 9.777532125627724 9.028284898631268 -1.3151316820498123e-15
  endloop
endfacet
facet normal 0.901606918166879 0.43255631438417713 -1.3953612817221584e-16
  outer loop
    vertex 9.777532125627724 9.028284898631268 3.9999999999999982
    vertex 9.215355049365101 10.200069298345376 -1.573190364862177e-15
    vertex 9.215355049365101 10.200069298345376 3.9999999999999982
  endloop
endfacet
facet normal 0.9445152198291146 0.32846765367560826 -1.3086500511621598e-16
  outer loop
    vertex 9.777532125627724 9.028284898631268 -1.3151316820498123e-15
    vertex 10.204429107707595 7.800734202659958 3.999999999999999
    vertex 10.204429107707595 7.800734202659958 -1.050933750990271e-15
  endloop
endfacet
facet normal 0.9445152198291146 0.32846765367560826 -1.3086500511621598e-16
  outer loop
    vertex 10.204429107707595 7.800734202659958 3.999999999999999
    vertex 9.777532125627724 9.028284898631268 -1.3151316820498123e-15
    vertex 9.777532125627724 9.028284898631268 3.9999999999999982
  endloop
endfacet
facet normal 0.9754512511576765 0.2202154776915643 -1.2053509331274306e-16
  outer loop
    vertex 10.204429107707595 7.800734202659958 -1.050933750990271e-15
    vertex 10.49063483232561 6.532977117219523 3.999999999999999
    vertex 10.49063483232561 6.532977117219523 -7.839454314857431e-16
  endloop
endfacet
facet normal 0.9754512511576765 0.2202154776915643 -1.2053509331274306e-16
  outer loop
    vertex 10.49063483232561 6.532977117219523 3.999999999999999
    vertex 10.204429107707595 7.800734202659958 -1.050933750990271e-15
    vertex 10.204429107707595 7.800734202659958 3.999999999999999
  endloop
endfacet
facet normal 0.9940228802712099 0.10917194464388745 -1.0867733029889398e-16
  outer loop
    vertex 10.49063483232561 6.532977117219523 -7.839454314857431e-16
    vertex 10.632521478315699 5.241083188068128 3.999999999999999
    vertex 10.632521478315699 5.241083188068127 -5.175509531070561e-16
  endloop
endfacet
facet normal 0.9940228802712099 0.10917194464388745 -1.0867733029889398e-16
  outer loop
    vertex 10.632521478315699 5.241083188068128 3.999999999999999
    vertex 10.49063483232561 6.532977117219523 -7.839454314857431e-16
    vertex 10.49063483232561 6.532977117219523 3.999999999999999
  endloop
endfacet
facet normal 0.9999947011544233 -0.00325540520916526 -9.544201999923594e-17
  outer loop
    vertex 10.632521478315699 5.241083188068127 -5.175509531070561e-16
    vertex 10.628290551331904 3.9414279092555473 3.9999999999999996
    vertex 10.628290551331904 3.9414279092555464 -2.551270181493037e-16
  endloop
endfacet
facet normal 0.9999947011544233 -0.00325540520916526 -9.544201999923594e-17
  outer loop
    vertex 10.628290551331904 3.9414279092555473 3.9999999999999996
    vertex 10.632521478315699 5.241083188068127 -5.175509531070561e-16
    vertex 10.632521478315699 5.241083188068128 3.999999999999999
  endloop
endfacet
facet normal 0.9932910175638915 -0.11564149094027194 -8.099692753764557e-17
  outer loop
    vertex 10.628290551331904 3.9414279092555464 -2.551270181493037e-16
    vertex 10.477995680792313 2.6504851543752093 3.9999999999999996
    vertex 10.477995680792313 2.650485154375209 0.0
  endloop
endfacet
facet normal 0.9932910175638915 -0.11564149094027194 -8.099692753764557e-17
  outer loop
    vertex 10.477995680792313 2.6504851543752093 3.9999999999999996
    vertex 10.628290551331904 3.9414279092555464 -2.551270181493037e-16
    vertex 10.628290551331904 3.9414279092555473 3.9999999999999996
  endloop
endfacet
facet normal 0.9351889128605314 -0.35414925845289824 -4.613616965544676e-17
  outer loop
    vertex 10.477995680792313 2.650485154375209 0.0
    vertex 10.068685476144788 1.5696347610150005 3.9999999999999996
    vertex 10.068685476144788 1.569634761015 -7.450077717537937e-17
  endloop
endfacet
facet normal 0.9351889128605314 -0.35414925845289824 -4.613616965544676e-17
  outer loop
    vertex 10.068685476144788 1.5696347610150005 3.9999999999999996
    vertex 10.477995680792313 2.650485154375209 0.0
    vertex 10.477995680792313 2.6504851543752093 3.9999999999999996
  endloop
endfacet
facet normal 0.8928704467960631 -0.4503136298605661 -3.026992840575258e-17
  outer loop
    vertex 10.068685476144788 1.569634761015 -7.450077717537937e-17
    vertex 9.548232702082824 0.5376941975973608 3.9999999999999996
    vertex 9.548232702082824 0.5376941975973603 -1.1249391007145605e-16
  endloop
endfacet
facet normal 0.8928704467960631 -0.4503136298605661 -3.026992840575258e-17
  outer loop
    vertex 9.548232702082824 0.5376941975973608 3.9999999999999996
    vertex 10.068685476144788 1.569634761015 -7.450077717537937e-17
    vertex 10.068685476144788 1.5696347610150005 3.9999999999999996
  endloop
endfacet
facet normal 0.8406960848605557 -0.5415072417799539 -1.4069554400896313e-17
  outer loop
    vertex 9.548232702082824 0.5376941975973603 -1.1249391007145605e-16
    vertex 8.92238234475235 -0.43394552302176836 3.9999999999999996
    vertex 8.92238234475235 -0.4339455230217689 -1.1356001381220278e-16
  endloop
endfacet
facet normal 0.8406960848605557 -0.5415072417799539 -1.4069554400896313e-17
  outer loop
    vertex 8.92238234475235 -0.43394552302176836 3.9999999999999996
    vertex 9.548232702082824 0.5376941975973603 -1.1249391007145605e-16
    vertex 9.548232702082824 0.5376941975973608 3.9999999999999996
  endloop
endfacet
facet normal 0.779241750560289 -0.6267234590979794 2.2861255205407928e-18
  outer loop
    vertex 8.92238234475235 -0.4339455230217689 -1.1356001381220278e-16
    vertex 8.198042815082218 -1.3345590151551927 3.9999999999999996
    vertex 8.198042815082218 -1.3345590151551932 -7.76873202766176e-17
  endloop
endfacet
facet normal 0.779241750560289 -0.6267234590979794 2.2861255205407928e-18
  outer loop
    vertex 8.198042815082218 -1.3345590151551927 3.9999999999999996
    vertex 8.92238234475235 -0.4339455230217689 -1.1356001381220278e-16
    vertex 8.92238234475235 -0.43394552302176836 3.9999999999999996
  endloop
endfacet
facet normal 0.7091858038094736 -0.7050216278066304 1.8616570185105265e-17
  outer loop
    vertex 8.198042815082218 -1.3345590151551932 -7.76873202766176e-17
    vertex 7.383209690712307 -2.1542049117990256 3.9999999999999996
    vertex 7.383209690712307 -2.154204911799026 -5.271808000411632e-18
  endloop
endfacet
facet normal 0.7091858038094736 -0.7050216278066304 1.8616570185105265e-17
  outer loop
    vertex 7.383209690712307 -2.1542049117990256 3.9999999999999996
    vertex 8.198042815082218 -1.3345590151551932 -7.76873202766176e-17
    vertex 8.198042815082218 -1.3345590151551927 3.9999999999999996
  endloop
endfacet
facet normal 0.6313015528957798 -0.7755374583547703 3.47415169771857e-17
  outer loop
    vertex 7.383209690712307 -2.1542049117990256 3.9999999999999996
    vertex 6.4868774572982675 -2.8838356018049423 1.0288716880886861e-16
    vertex 7.383209690712307 -2.154204911799026 -5.271808000411632e-18
  endloop
endfacet
facet normal 0.6313015528957798 -0.7755374583547703 3.47415169771857e-17
  outer loop
    vertex 6.4868774572982675 -2.8838356018049423 1.0288716880886861e-16
    vertex 7.383209690712307 -2.1542049117990256 3.9999999999999996
    vertex 6.4868774572982675 -2.883835601804942 3.9999999999999996
  endloop
endfacet
facet normal 0.5464487183640541 -0.8374925660555339 5.0482971656880216e-17
  outer loop
    vertex 6.4868774572982675 -2.883835601804942 3.9999999999999996
    vertex 5.518940223431201 -3.5153971013829968 2.4559570389441156e-16
    vertex 6.4868774572982675 -2.8838356018049423 1.0288716880886861e-16
  endloop
endfacet
facet normal 0.5464487183640541 -0.8374925660555339 5.0482971656880216e-17
  outer loop
    vertex 5.518940223431201 -3.5153971013829968 2.4559570389441156e-16
    vertex 6.4868774572982675 -2.883835601804942 3.9999999999999996
    vertex 5.518940223431202 -3.515397101382996 3.9999999999999996
  endloop
endfacet
facet normal 0.45556394304362424 -0.8902030632381275 6.566717313853626e-17
  outer loop
    vertex 5.518940223431202 -3.515397101382996 3.9999999999999996
    vertex 4.490082505124524 -4.041917957509592 4.2127851781141333e-16
    vertex 5.518940223431201 -3.5153971013829968 2.4559570389441156e-16
  endloop
endfacet
facet normal 0.45556394304362424 -0.8902030632381275 6.566717313853626e-17
  outer loop
    vertex 4.490082505124524 -4.041917957509592 4.2127851781141333e-16
    vertex 5.518940223431202 -3.515397101382996 3.9999999999999996
    vertex 4.490082505124525 -4.041917957509591 4.0
  endloop
endfacet
facet normal 0.35965045297364456 -0.9330871083001053 8.012651154188013e-17
  outer loop
    vertex 4.490082505124525 -4.041917957509591 4.0
    vertex 3.411661285436785 -4.457586201885702 6.279963465529719e-16
    vertex 4.490082505124524 -4.041917957509592 4.2127851781141333e-16
  endloop
endfacet
facet normal 0.35965045297364456 -0.9330871083001053 8.012651154188013e-17
  outer loop
    vertex 3.411661285436785 -4.457586201885702 6.279963465529719e-16
    vertex 4.490082505124525 -4.041917957509591 4.0
    vertex 3.4116612854367854 -4.457586201885701 4.0
  endloop
endfacet
facet normal 0.2597669833537786 -0.9656713283303373 9.370137834343615e-17
  outer loop
    vertex 3.4116612854367854 -4.457586201885701 4.0
    vertex 2.2955806511081196 -4.757813505993827 8.634673479973395e-16
    vertex 3.411661285436785 -4.457586201885702 6.279963465529719e-16
  endloop
endfacet
facet normal 0.2597669833537786 -0.9656713283303373 9.370137834343615e-17
  outer loop
    vertex 2.2955806511081196 -4.757813505993827 8.634673479973395e-16
    vertex 3.4116612854367854 -4.457586201885701 4.0
    vertex 2.29558065110812 -4.757813505993826 4.0
  endloop
endfacet
facet normal 0.15701609176036813 -0.9875960444069731 1.0624192820546373e-16
  outer loop
    vertex 2.29558065110812 -4.757813505993826 4.0
    vertex 1.1541603900261197 -4.93928582908197 1.125092289882755e-15
    vertex 2.2955806511081196 -4.757813505993827 8.634673479973395e-16
  endloop
endfacet
facet normal 0.15701609176036813 -0.9875960444069731 1.0624192820546373e-16
  outer loop
    vertex 1.1541603900261197 -4.93928582908197 1.125092289882755e-15
    vertex 2.29558065110812 -4.757813505993826 4.0
    vertex 1.15416039002612 -4.939285829081969 4.000000000000001
  endloop
endfacet
facet normal 0.035744690634382306 -0.9993609543560588 1.193097595666531e-16
  outer loop
    vertex 1.15416039002612 -4.939285829081969 4.000000000000001
    vertex 0.6526309611002579 -4.957224306869052 1.4099832412739487e-15
    vertex 1.1541603900261197 -4.93928582908197 1.125092289882755e-15
  endloop
endfacet
facet normal 0.035744690634382306 -0.9993609543560588 1.193097595666531e-16
  outer loop
    vertex 0.6526309611002579 -4.957224306869052 1.4099832412739487e-15
    vertex 1.15416039002612 -4.939285829081969 4.000000000000001
    vertex 0.6526309611002582 -4.957224306869051 4.000000000000001
  endloop
endfacet
facet normal 0.06540312923014316 -0.9978589232386036 1.1628275488782263e-16
  outer loop
    vertex 0.6526309611002582 -4.957224306869051 4.000000000000001
    vertex 0.0 -5.0 1.4099832412739487e-15
    vertex 0.6526309611002579 -4.957224306869052 1.4099832412739487e-15
  endloop
endfacet
facet normal 0.06540312923014316 -0.9978589232386036 1.1628275488782263e-16
  outer loop
    vertex 0.0 -5.0 1.4099832412739487e-15
    vertex 0.6526309611002582 -4.957224306869051 4.000000000000001
    vertex 3.8336935003058687e-16 -4.999999999999999 4.000000000000001
  endloop
endfacet
facet normal -0.06540312923014374 -0.9978589232386035 1.2881953245928588e-16
  outer loop
    vertex 3.8336935003058687e-16 -4.999999999999999 4.000000000000001
    vertex -0.6526309611002629 -4.957224306869051 1.4099832412739487e-15
    vertex 0.0 -5.0 1.4099832412739487e-15
  endloop
endfacet
facet normal -0.06540312923014374 -0.9978589232386035 1.2881953245928588e-16
  outer loop
    vertex -0.6526309611002629 -4.957224306869051 1.4099832412739487e-15
    vertex 3.8336935003058687e-16 -4.999999999999999 4.000000000000001
    vertex -0.6526309611002624 -4.95722430686905 4.000000000000001
  endloop
endfacet
facet normal -0.19509032201612875 -0.9807852804032304 1.3915217211484883e-16
  outer loop
    vertex -0.6526309611002624 -4.95722430686905 4.000000000000001
    vertex -1.294095225512608 -4.829629131445341 1.4099832412739487e-15
    vertex -0.6526309611002629 -4.957224306869051 1.4099832412739487e-15
  endloop
endfacet
facet normal -0.19509032201612875 -0.9807852804032304 1.3915217211484883e-16
  outer loop
    vertex -1.294095225512608 -4.829629131445341 1.4099832412739487e-15
    vertex -0.6526309611002624 -4.95722430686905 4.000000000000001
    vertex -1.2940952255126075 -4.82962913144534 4.000000000000001
  endloop
endfacet
facet normal -0.3214394653031626 -0.9469301294951052 1.4710387952525597e-16
  outer loop
    vertex -1.2940952255126075 -4.82962913144534 4.000000000000001
    vertex -1.9134171618254519 -4.619397662556432 1.4099832412739487e-15
    vertex -1.294095225512608 -4.829629131445341 1.4099832412739487e-15
  endloop
endfacet
facet normal -0.3214394653031626 -0.9469301294951052 1.4710387952525597e-16
  outer loop
    vertex -1.9134171618254519 -4.619397662556432 1.4099832412739487e-15
    vertex -1.2940952255126075 -4.82962913144534 4.000000000000001
    vertex -1.9134171618254516 -4.619397662556432 4.000000000000001
  endloop
endfacet
facet normal -0.44228869021900225 -0.8968727415326878 1.5253859877208538e-16
  outer loop
    vertex -1.9134171618254516 -4.619397662556432 4.000000000000001
    vertex -2.500000000000002 -4.330127018922192 1.4099832412739487e-15
    vertex -1.9134171618254519 -4.619397662556432 1.4099832412739487e-15
  endloop
endfacet
facet normal -0.44228869021900225 -0.8968727415326878 1.5253859877208538e-16
  outer loop
    vertex -2.500000000000002 -4.330127018922192 1.4099832412739487e-15
    vertex -1.9134171618254516 -4.619397662556432 4.000000000000001
    vertex -2.5000000000000018 -4.330127018922191 4.000000000000001
  endloop
endfacet
facet normal -0.5555702330196025 -0.8314696123025452 1.5536334030223499e-16
  outer loop
    vertex -2.5000000000000018 -4.330127018922191 4.000000000000001
    vertex -3.0438071450436044 -3.9667667014561747 1.4099832412739487e-15
    vertex -2.500000000000002 -4.330127018922192 1.4099832412739487e-15
  endloop
endfacet
facet normal -0.5555702330196025 -0.8314696123025452 1.5536334030223499e-16
  outer loop
    vertex -3.0438071450436044 -3.9667667014561747 1.4099832412739487e-15
    vertex -2.5000000000000018 -4.330127018922191 4.000000000000001
    vertex -3.043807145043604 -3.966766701456174 4.000000000000001
  endloop
endfacet
facet normal -0.6593458151000688 -0.7518398074789775 1.5552977200495756e-16
  outer loop
    vertex -3.043807145043604 -3.966766701456174 4.000000000000001
    vertex -3.5355339059327386 -3.5355339059327364 1.4099832412739487e-15
    vertex -3.0438071450436044 -3.9667667014561747 1.4099832412739487e-15
  endloop
endfacet
facet normal -0.6593458151000688 -0.7518398074789775 1.5552977200495756e-16
  outer loop
    vertex -3.5355339059327386 -3.5355339059327364 1.4099832412739487e-15
    vertex -3.043807145043604 -3.966766701456174 4.000000000000001
    vertex -3.535533905932738 -3.535533905932736 4.000000000000001
  endloop
endfacet
facet normal -0.7518398074789779 -0.6593458151000685 1.5303504618767604e-16
  outer loop
    vertex -3.535533905932738 -3.535533905932736 4.000000000000001
    vertex -3.9667667014561787 -3.0438071450435995 1.4099832412739487e-15
    vertex -3.5355339059327386 -3.5355339059327364 1.4099832412739487e-15
  endloop
endfacet
facet normal -0.7518398074789779 -0.6593458151000685 1.5303504618767604e-16
  outer loop
    vertex -3.9667667014561787 -3.0438071450435995 1.4099832412739487e-15
    vertex -3.535533905932738 -3.535533905932736 4.000000000000001
    vertex -3.9667667014561783 -3.043807145043599 4.000000000000001
  endloop
endfacet
facet normal -0.831469612302546 -0.5555702330196013 1.4792184830079268e-16
  outer loop
    vertex -3.9667667014561783 -3.043807145043599 4.000000000000001
    vertex -4.330127018922195 -2.4999999999999964 1.4099832412739487e-15
    vertex -3.9667667014561787 -3.0438071450435995 1.4099832412739487e-15
  endloop
endfacet
facet normal -0.831469612302546 -0.5555702330196013 1.4792184830079268e-16
  outer loop
    vertex -4.330127018922195 -2.4999999999999964 1.4099832412739487e-15
    vertex -3.9667667014561783 -3.043807145043599 4.000000000000001
    vertex -4.3301270189221945 -2.499999999999996 4.000000000000001
  endloop
endfacet
facet normal -0.8968727415326888 -0.4422886902190003 1.4027766657779844e-16
  outer loop
    vertex -4.3301270189221945 -2.499999999999996 4.000000000000001
    vertex -4.619397662556435 -1.9134171618254459 1.4099832412739487e-15
    vertex -4.330127018922195 -2.4999999999999964 1.4099832412739487e-15
  endloop
endfacet
facet normal -0.8968727415326888 -0.4422886902190003 1.4027766657779844e-16
  outer loop
    vertex -4.619397662556435 -1.9134171618254459 1.4099832412739487e-15
    vertex -4.3301270189221945 -2.499999999999996 4.000000000000001
    vertex -4.619397662556434 -1.9134171618254456 4.000000000000001
  endloop
endfacet
facet normal -0.9469301294951058 -0.3214394653031615 1.3023329508734132e-16
  outer loop
    vertex -4.619397662556434 -1.9134171618254456 4.000000000000001
    vertex -4.829629131445342 -1.2940952255126015 1.4099832412739487e-15
    vertex -4.619397662556435 -1.9134171618254459 1.4099832412739487e-15
  endloop
endfacet
facet normal -0.9469301294951058 -0.3214394653031615 1.3023329508734132e-16
  outer loop
    vertex -4.829629131445342 -1.2940952255126015 1.4099832412739487e-15
    vertex -4.619397662556434 -1.9134171618254456 4.000000000000001
    vertex -4.8296291314453415 -1.294095225512601 4.000000000000001
  endloop
endfacet
facet normal -0.9807852804032305 -0.19509032201612872 1.1796059581044886e-16
  outer loop
    vertex -4.8296291314453415 -1.294095225512601 4.000000000000001
    vertex -4.957224306869053 -0.6526309611002563 1.4099832412739487e-15
    vertex -4.829629131445342 -1.2940952255126015 1.4099832412739487e-15
  endloop
endfacet
facet normal -0.9807852804032305 -0.19509032201612872 1.1796059581044886e-16
  outer loop
    vertex -4.957224306869053 -0.6526309611002563 1.4099832412739487e-15
    vertex -4.8296291314453415 -1.294095225512601 4.000000000000001
    vertex -4.957224306869052 -0.6526309611002558 4.000000000000001
  endloop
endfacet
facet normal -0.9978589232386036 -0.06540312923014216 1.0366955803438358e-16
  outer loop
    vertex -4.957224306869052 -0.6526309611002558 4.000000000000001
    vertex -5.0 9.184850993605148e-16 1.4099832412739487e-15
    vertex -4.957224306869053 -0.6526309611002563 1.4099832412739487e-15
  endloop
endfacet
facet normal -0.9978589232386036 -0.06540312923014216 1.0366955803438358e-16
  outer loop
    vertex -5.0 9.184850993605148e-16 1.4099832412739487e-15
    vertex -4.957224306869052 -0.6526309611002558 4.000000000000001
    vertex -4.999999999999999 1.4097414917002578e-15 4.000000000000001
  endloop
endfacet
facet normal -0.9978589232386036 0.06540312923014387 8.760470537771857e-17
  outer loop
    vertex -4.999999999999999 1.4097414917002578e-15 4.000000000000001
    vertex -4.957224306869051 0.6526309611002624 1.4099832412739487e-15
    vertex -5.0 9.184850993605148e-16 1.4099832412739487e-15
  endloop
endfacet
facet normal -0.9978589232386036 0.06540312923014387 8.760470537771857e-17
  outer loop
    vertex -4.957224306869051 0.6526309611002624 1.4099832412739487e-15
    vertex -4.999999999999999 1.4097414917002578e-15 4.000000000000001
    vertex -4.95722430686905 0.652630961100263 4.000000000000001
  endloop
endfacet
facet normal -0.9807852804032305 0.19509032201612872 7.004091192342781e-17
  outer loop
    vertex -4.95722430686905 0.652630961100263 4.000000000000001
    vertex -4.829629131445341 1.2940952255126077 1.4099832412739487e-15
    vertex -4.957224306869051 0.6526309611002624 1.4099832412739487e-15
  endloop
endfacet
facet normal -0.9807852804032305 0.19509032201612872 7.004091192342781e-17
  outer loop
    vertex -4.829629131445341 1.2940952255126077 1.4099832412739487e-15
    vertex -4.95722430686905 0.652630961100263 4.000000000000001
    vertex -4.82962913144534 1.2940952255126081 4.000000000000001
  endloop
endfacet
facet normal -0.9469301294951054 0.3214394653031627 5.1278699047117574e-17
  outer loop
    vertex -4.82962913144534 1.2940952255126081 4.000000000000001
    vertex -4.619397662556432 1.9134171618254516 1.4099832412739487e-15
    vertex -4.829629131445341 1.2940952255126077 1.4099832412739487e-15
  endloop
endfacet
facet normal -0.9469301294951054 0.3214394653031627 5.1278699047117574e-17
  outer loop
    vertex -4.619397662556432 1.9134171618254516 1.4099832412739487e-15
    vertex -4.82962913144534 1.2940952255126081 4.000000000000001
    vertex -4.619397662556432 1.9134171618254519 4.000000000000001
  endloop
endfacet
facet normal -0.896872741532688 0.4422886902190019 1.1816527905802819e-16
  outer loop
    vertex -4.619397662556432 1.9134171618254519 4.000000000000001
    vertex -4.330127018922192 2.500000000000002 1.4099832412739487e-15
    vertex -4.619397662556432 1.9134171618254516 1.4099832412739487e-15
  endloop
endfacet
facet normal -0.896872741532688 0.4422886902190019 1.1816527905802819e-16
  outer loop
    vertex -4.330127018922192 2.500000000000002 1.4099832412739487e-15
    vertex -4.619397662556432 1.9134171618254519 4.000000000000001
    vertex -4.330127018922191 2.5000000000000027 4.000000000000001
  endloop
endfacet
facet normal -0.9487906123448935 0.3159056408584725 5.50549681702531e-17
  outer loop
    vertex -4.330127018922191 2.5000000000000027 4.000000000000001
    vertex -1.4999999999999996 10.999999999999998 0.0
    vertex -4.330127018922192 2.500000000000002 1.4099832412739487e-15
  endloop
endfacet
facet normal -0.9487906123448935 0.3159056408584725 5.50549681702531e-17
  outer loop
    vertex -1.4999999999999996 10.999999999999998 0.0
    vertex -4.330127018922191 2.5000000000000027 4.000000000000001
    vertex -1.4999999999999996 10.999999999999998 3.9999999999999996
  endloop
endfacet
facet normal 1.3415728657702538e-16 7.92314286411827e-17 1.0
  outer loop
    vertex -1.2940952255126075 -4.82962913144534 4.000000000000001
    vertex -1.6000000000000003 1.9594348786357655e-16 3.9999999999999996
    vertex -1.9134171618254516 -4.619397662556432 4.000000000000001
  endloop
endfacet
facet normal 1.3415728657702538e-16 7.92314286411827e-17 1.0
  outer loop
    vertex -1.6000000000000003 1.9594348786357655e-16 3.9999999999999996
    vertex -1.2940952255126075 -4.82962913144534 4.000000000000001
    vertex -1.5454813220625097 -0.41411047216403263 3.9999999999999996
  endloop
endfacet
facet normal 1.3415728657702538e-16 7.92314286411827e-17 1.0
  outer loop
    vertex -1.5454813220625097 -0.41411047216403263 3.9999999999999996
    vertex -1.2940952255126075 -4.82962913144534 4.000000000000001
    vertex -1.3856406460551023 -0.7999999999999996 3.9999999999999996
  endloop
endfacet
facet normal 1.3415728657702538e-16 7.92314286411827e-17 1.0
  outer loop
    vertex -1.3856406460551023 -0.7999999999999996 3.9999999999999996
    vertex -1.2940952255126075 -4.82962913144534 4.000000000000001
    vertex -1.131370849898477 -1.1313708498984756 3.9999999999999996
  endloop
endfacet
facet normal 1.3415728657702538e-16 7.92314286411827e-17 1.0
  outer loop
    vertex -1.131370849898477 -1.1313708498984756 3.9999999999999996
    vertex -1.2940952255126075 -4.82962913144534 4.000000000000001
    vertex -0.6526309611002624 -4.95722430686905 4.000000000000001
  endloop
endfacet
facet normal 1.3415728657702538e-16 7.92314286411827e-17 1.0
  outer loop
    vertex -1.131370849898477 -1.1313708498984756 3.9999999999999996
    vertex -0.6526309611002624 -4.95722430686905 4.000000000000001
    vertex -0.8000000000000008 -1.3856406460551016 3.9999999999999996
  endloop
endfacet
facet normal 1.3415728657702538e-16 7.92314286411827e-17 1.0
  outer loop
    vertex -0.8000000000000008 -1.3856406460551016 3.9999999999999996
    vertex -0.6526309611002624 -4.95722430686905 4.000000000000001
    vertex -0.41411047216403446 -1.5454813220625092 3.9999999999999996
  endloop
endfacet
facet normal 1.3415728657702538e-16 7.92314286411827e-17 1.0
  outer loop
    vertex -0.41411047216403446 -1.5454813220625092 3.9999999999999996
    vertex -0.6526309611002624 -4.95722430686905 4.000000000000001
    vertex 3.8336935003058687e-16 -4.999999999999999 4.000000000000001
  endloop
endfacet
facet normal 1.3415728657702538e-16 7.92314286411827e-17 1.0
  outer loop
    vertex -0.41411047216403446 -1.5454813220625092 3.9999999999999996
    vertex 3.8336935003058687e-16 -4.999999999999999 4.000000000000001
    vertex -2.9391523179536476e-16 -1.6000000000000003 3.9999999999999996
  endloop
endfacet
facet normal 1.3415728657702538e-16 7.92314286411827e-17 1.0
  outer loop
    vertex -2.9391523179536476e-16 -1.6000000000000003 3.9999999999999996
    vertex 3.8336935003058687e-16 -4.999999999999999 4.000000000000001
    vertex 0.4141104721640325 -1.5454813220625097 3.9999999999999996
  endloop
endfacet
facet normal 1.3415728657702538e-16 7.92314286411827e-17 1.0
  outer loop
    vertex 0.4141104721640325 -1.5454813220625097 3.9999999999999996
    vertex 3.8336935003058687e-16 -4.999999999999999 4.000000000000001
    vertex 0.6526309611002582 -4.957224306869051 4.000000000000001
  endloop
endfacet
facet normal 1.3415728657702538e-16 7.92314286411827e-17 1.0
  outer loop
    vertex 0.4141104721640325 -1.5454813220625097 3.9999999999999996
    vertex 0.6526309611002582 -4.957224306869051 4.000000000000001
    vertex 0.7999999999999989 -1.3856406460551025 3.9999999999999996
  endloop
endfacet
facet normal 1.3415728657702538e-16 7.92314286411827e-17 1.0
  outer loop
    vertex 0.7999999999999989 -1.3856406460551025 3.9999999999999996
    vertex 0.6526309611002582 -4.957224306869051 4.000000000000001
    vertex 1.15416039002612 -4.939285829081969 4.000000000000001
  endloop
endfacet
facet normal 1.3415728657702538e-16 7.92314286411827e-17 1.0
  outer loop
    vertex 0.7999999999999989 -1.3856406460551025 3.9999999999999996
    vertex 1.15416039002612 -4.939285829081969 4.000000000000001
    vertex 1.131370849898476 -1.1313708498984765 3.9999999999999996
  endloop
endfacet
facet normal 1.3415728657702538e-16 7.92314286411827e-17 1.0
  outer loop
    vertex 1.131370849898476 -1.1313708498984765 3.9999999999999996
    vertex 1.15416039002612 -4.939285829081969 4.000000000000001
    vertex 1.3856406460551016 -0.8000000000000008 3.9999999999999996
  endloop
endfacet
facet normal 1.3415728657702538e-16 7.92314286411827e-17 1.0
  outer loop
    vertex 1.3856406460551016 -0.8000000000000008 3.9999999999999996
    vertex 1.15416039002612 -4.939285829081969 4.000000000000001
    vertex 2.29558065110812 -4.757813505993826 4.0
  endloop
endfacet
facet normal 1.3415728657702538e-16 7.92314286411827e-17 1.0
  outer loop
    vertex 1.3856406460551016 -0.8000000000000008 3.9999999999999996
    vertex 2.29558065110812 -4.757813505993826 4.0
    vertex 1.5454813220625092 -0.41411047216403457 3.9999999999999996
  endloop
endfacet
facet normal 1.3415728657702538e-16 7.92314286411827e-17 1.0
  outer loop
    vertex 1.5454813220625092 -0.41411047216403457 3.9999999999999996
    vertex 2.29558065110812 -4.757813505993826 4.0
    vertex 1.6000000000000003 0.0 3.9999999999999996
  endloop
endfacet
facet normal 1.3415728657702538e-16 7.92314286411827e-17 1.0
  outer loop
    vertex 1.6000000000000003 0.0 3.9999999999999996
    vertex 2.29558065110812 -4.757813505993826 4.0
    vertex 1.6843323042928526 25.01748331293625 3.9999999999999996
  endloop
endfacet
facet normal 1.3415728657702538e-16 7.92314286411827e-17 1.0
  outer loop
    vertex 1.6843323042928526 25.01748331293625 3.9999999999999996
    vertex 2.29558065110812 -4.757813505993826 4.0
    vertex 3.507436793496064 15.300084131199656 3.999999999999997
  endloop
endfacet
facet normal 1.3415728657702538e-16 7.92314286411827e-17 1.0
  outer loop
    vertex 3.507436793496064 15.300084131199656 3.999999999999997
    vertex 2.29558065110812 -4.757813505993826 4.0
    vertex 3.4116612854367854 -4.457586201885701 4.0
  endloop
endfacet
facet normal 1.3415728657702538e-16 7.92314286411827e-17 1.0
  outer loop
    vertex 3.507436793496064 15.300084131199656 3.999999999999997
    vertex 3.4116612854367854 -4.457586201885701 4.0
    vertex 4.490082505124525 -4.041917957509591 4.0
  endloop
endfacet
facet normal 1.3415728657702538e-16 7.92314286411827e-17 1.0
  outer loop
    vertex 3.507436793496064 15.300084131199656 3.999999999999997
    vertex 4.490082505124525 -4.041917957509591 4.0
    vertex 4.67906839891021 14.73758868616635 3.999999999999997
  endloop
endfacet
facet normal 1.3415728657702538e-16 7.92314286411827e-17 1.0
  outer loop
    vertex 4.67906839891021 14.73758868616635 3.999999999999997
    vertex 4.490082505124525 -4.041917957509591 4.0
    vertex 5.518940223431202 -3.515397101382996 3.9999999999999996
  endloop
endfacet
facet normal 1.3415728657702538e-16 7.92314286411827e-17 1.0
  outer loop
    vertex 4.67906839891021 14.73758868616635 3.999999999999997
    vertex 5.518940223431202 -3.515397101382996 3.9999999999999996
    vertex 5.780045852361725 14.046958255704464 3.999999999999997
  endloop
endfacet
facet normal 1.3415728657702538e-16 7.92314286411827e-17 1.0
  outer loop
    vertex 5.780045852361725 14.046958255704464 3.999999999999997
    vertex 5.518940223431202 -3.515397101382996 3.9999999999999996
    vertex 6.4868774572982675 -2.883835601804942 3.9999999999999996
  endloop
endfacet
facet normal 1.3415728657702538e-16 7.92314286411827e-17 1.0
  outer loop
    vertex 5.780045852361725 14.046958255704464 3.999999999999997
    vertex 6.4868774572982675 -2.883835601804942 3.9999999999999996
    vertex 6.79641363526575 13.23694697531184 3.999999999999998
  endloop
endfacet
facet normal 1.3415728657702538e-16 7.92314286411827e-17 1.0
  outer loop
    vertex 6.79641363526575 13.23694697531184 3.999999999999998
    vertex 6.4868774572982675 -2.883835601804942 3.9999999999999996
    vertex 7.383209690712307 -2.1542049117990256 3.9999999999999996
  endloop
endfacet
facet normal 1.3415728657702538e-16 7.92314286411827e-17 1.0
  outer loop
    vertex 6.79641363526575 13.23694697531184 3.999999999999998
    vertex 7.383209690712307 -2.1542049117990256 3.9999999999999996
    vertex 7.715288704977865 12.317822201002006 3.999999999999998
  endloop
endfacet
facet normal 1.3415728657702538e-16 7.92314286411827e-17 1.0
  outer loop
    vertex 7.715288704977865 12.317822201002006 3.999999999999998
    vertex 7.383209690712307 -2.1542049117990256 3.9999999999999996
    vertex 8.198042815082218 -1.3345590151551927 3.9999999999999996
  endloop
endfacet
facet normal 1.3415728657702538e-16 7.92314286411827e-17 1.0
  outer loop
    vertex 7.715288704977865 12.317822201002006 3.999999999999998
    vertex 8.198042815082218 -1.3345590151551927 3.9999999999999996
    vertex 8.525023794724051 11.301234364697494 3.999999999999998
  endloop
endfacet
facet normal 1.3415728657702538e-16 7.92314286411827e-17 1.0
  outer loop
    vertex 8.525023794724051 11.301234364697494 3.999999999999998
    vertex 8.198042815082218 -1.3345590151551927 3.9999999999999996
    vertex 8.92238234475235 -0.43394552302176836 3.9999999999999996
  endloop
endfacet
facet normal 1.3415728657702538e-16 7.92314286411827e-17 1.0
  outer loop
    vertex 8.525023794724051 11.301234364697494 3.999999999999998
    vertex 8.92238234475235 -0.43394552302176836 3.9999999999999996
    vertex 9.215355049365101 10.200069298345376 3.9999999999999982
  endloop
endfacet
facet normal 1.3415728657702538e-16 7.92314286411827e-17 1.0
  outer loop
    vertex 9.215355049365101 10.200069298345376 3.9999999999999982
    vertex 8.92238234475235 -0.43394552302176836 3.9999999999999996
    vertex 9.548232702082824 0.5376941975973608 3.9999999999999996
  endloop
endfacet
facet normal 1.3415728657702538e-16 7.92314286411827e-17 1.0
  outer loop
    vertex 9.215355049365101 10.200069298345376 3.9999999999999982
    vertex 9.548232702082824 0.5376941975973608 3.9999999999999996
    vertex 9.777532125627724 9.028284898631268 3.9999999999999982
  endloop
endfacet
facet normal 1.3415728657702538e-16 7.92314286411827e-17 1.0
  outer loop
    vertex 9.777532125627724 9.028284898631268 3.9999999999999982
    vertex 9.548232702082824 0.5376941975973608 3.9999999999999996
    vertex 10.068685476144788 1.5696347610150005 3.9999999999999996
  endloop
endfacet
facet normal 1.3415728657702538e-16 7.92314286411827e-17 1.0
  outer loop
    vertex 9.777532125627724 9.028284898631268 3.9999999999999982
    vertex 10.068685476144788 1.5696347610150005 3.9999999999999996
    vertex 10.204429107707595 7.800734202659958 3.999999999999999
  endloop
endfacet
facet normal 1.3415728657702538e-16 7.92314286411827e-17 1.0
  outer loop
    vertex 10.204429107707595 7.800734202659958 3.999999999999999
    vertex 10.068685476144788 1.5696347610150005 3.9999999999999996
    vertex 10.477995680792313 2.6504851543752093 3.9999999999999996
  endloop
endfacet
facet normal 1.3415728657702538e-16 7.92314286411827e-17 1.0
  outer loop
    vertex 10.204429107707595 7.800734202659958 3.999999999999999
    vertex 10.477995680792313 2.6504851543752093 3.9999999999999996
    vertex 10.49063483232561 6.532977117219523 3.999999999999999
  endloop
endfacet
facet normal 1.3415728657702538e-16 7.92314286411827e-17 1.0
  outer loop
    vertex 10.49063483232561 6.532977117219523 3.999999999999999
    vertex 10.477995680792313 2.6504851543752093 3.9999999999999996
    vertex 10.628290551331904 3.9414279092555473 3.9999999999999996
  endloop
endfacet
facet normal 1.3415728657702538e-16 7.92314286411827e-17 1.0
  outer loop
    vertex 10.49063483232561 6.532977117219523 3.999999999999999
    vertex 10.628290551331904 3.9414279092555473 3.9999999999999996
    vertex 10.632521478315699 5.241083188068128 3.999999999999999
  endloop
endfacet
facet normal 1.3415728657702538e-16 7.92314286411827e-17 1.0
  outer loop
    vertex -4.957224306869052 -0.6526309611002558 4.000000000000001
    vertex -4.95722430686905 0.652630961100263 4.000000000000001
    vertex -4.999999999999999 1.4097414917002578e-15 4.000000000000001
  endloop
endfacet
facet normal 1.3415728657702538e-16 7.92314286411827e-17 1.0
  outer loop
    vertex -4.95722430686905 0.652630961100263 4.000000000000001
    vertex -4.957224306869052 -0.6526309611002558 4.000000000000001
    vertex -4.8296291314453415 -1.294095225512601 4.000000000000001
  endloop
endfacet
facet normal 1.3415728657702538e-16 7.92314286411827e-17 1.0
  outer loop
    vertex -4.95722430686905 0.652630961100263 4.000000000000001
    vertex -4.8296291314453415 -1.294095225512601 4.000000000000001
    vertex -4.82962913144534 1.2940952255126081 4.000000000000001
  endloop
endfacet
facet normal 1.3415728657702538e-16 7.92314286411827e-17 1.0
  outer loop
    vertex -4.82962913144534 1.2940952255126081 4.000000000000001
    vertex -4.8296291314453415 -1.294095225512601 4.000000000000001
    vertex -4.619397662556434 -1.9134171618254456 4.000000000000001
  endloop
endfacet
facet normal 1.3415728657702538e-16 7.92314286411827e-17 1.0
  outer loop
    vertex -4.82962913144534 1.2940952255126081 4.000000000000001
    vertex -4.619397662556434 -1.9134171618254456 4.000000000000001
    vertex -4.619397662556432 1.9134171618254519 4.000000000000001
  endloop
endfacet
facet normal 1.3415728657702538e-16 7.92314286411827e-17 1.0
  outer loop
    vertex -4.619397662556432 1.9134171618254519 4.000000000000001
    vertex -4.619397662556434 -1.9134171618254456 4.000000000000001
    vertex -4.3301270189221945 -2.499999999999996 4.000000000000001
  endloop
endfacet
facet normal 1.3415728657702538e-16 7.92314286411827e-17 1.0
  outer loop
    vertex -4.619397662556432 1.9134171618254519 4.000000000000001
    vertex -4.3301270189221945 -2.499999999999996 4.000000000000001
    vertex -4.330127018922191 2.5000000000000027 4.000000000000001
  endloop
endfacet
facet normal 1.3415728657702538e-16 7.92314286411827e-17 1.0
  outer loop
    vertex -4.330127018922191 2.5000000000000027 4.000000000000001
    vertex -4.3301270189221945 -2.499999999999996 4.000000000000001
    vertex -3.9667667014561783 -3.043807145043599 4.000000000000001
  endloop
endfacet
facet normal 1.3415728657702538e-16 7.92314286411827e-17 1.0
  outer loop
    vertex -4.330127018922191 2.5000000000000027 4.000000000000001
    vertex -3.9667667014561783 -3.043807145043599 4.000000000000001
    vertex -1.4999999999999996 10.999999999999998 3.9999999999999996
  endloop
endfacet
facet normal 1.3415728657702538e-16 7.92314286411827e-17 1.0
  outer loop
    vertex -1.4999999999999996 10.999999999999998 3.9999999999999996
    vertex -3.9667667014561783 -3.043807145043599 4.000000000000001
    vertex -3.535533905932738 -3.535533905932736 4.000000000000001
  endloop
endfacet
facet normal 1.3415728657702538e-16 7.92314286411827e-17 1.0
  outer loop
    vertex -1.4999999999999996 10.999999999999998 3.9999999999999996
    vertex -3.535533905932738 -3.535533905932736 4.000000000000001
    vertex -3.043807145043604 -3.966766701456174 4.000000000000001
  endloop
endfacet
facet normal 1.3415728657702538e-16 7.92314286411827e-17 1.0
  outer loop
    vertex -1.4999999999999996 10.999999999999998 3.9999999999999996
    vertex -3.043807145043604 -3.966766701456174 4.000000000000001
    vertex -2.5000000000000018 -4.330127018922191 4.000000000000001
  endloop
endfacet
facet normal 1.3415728657702538e-16 7.92314286411827e-17 1.0
  outer loop
    vertex -1.4999999999999996 10.999999999999998 3.9999999999999996
    vertex -2.5000000000000018 -4.330127018922191 4.000000000000001
    vertex -1.9134171618254516 -4.619397662556432 4.000000000000001
  endloop
endfacet
facet normal 1.3415728657702538e-16 7.92314286411827e-17 1.0
  outer loop
    vertex -1.4999999999999996 10.999999999999998 3.9999999999999996
    vertex -1.9134171618254516 -4.619397662556432 4.000000000000001
    vertex -1.6000000000000003 1.9594348786357655e-16 3.9999999999999996
  endloop
endfacet
facet normal 1.3415728657702538e-16 7.92314286411827e-17 1.0
  outer loop
    vertex -1.4999999999999996 10.999999999999998 3.9999999999999996
    vertex -1.6000000000000003 1.9594348786357655e-16 3.9999999999999996
    vertex -1.5454813220625094 0.4141104721640337 3.9999999999999996
  endloop
endfacet
facet normal 1.3415728657702538e-16 7.92314286411827e-17 1.0
  outer loop
    vertex -1.4999999999999996 10.999999999999998 3.9999999999999996
    vertex -1.5454813220625094 0.4141104721640337 3.9999999999999996
    vertex -1.3856406460551016 0.8000000000000006 3.9999999999999996
  endloop
endfacet
facet normal 1.3415728657702538e-16 7.92314286411827e-17 1.0
  outer loop
    vertex -1.4999999999999996 10.999999999999998 3.9999999999999996
    vertex -1.3856406460551016 0.8000000000000006 3.9999999999999996
    vertex -1.4999999999999996 17.999999999999996 3.9999999999999996
  endloop
endfacet
facet normal 1.3415728657702538e-16 7.92314286411827e-17 1.0
  outer loop
    vertex -1.4999999999999996 17.999999999999996 3.9999999999999996
    vertex -1.3856406460551016 0.8000000000000006 3.9999999999999996
    vertex -1.4999999999999996 25.999999999999996 3.9999999999999996
  endloop
endfacet
facet normal 1.3415728657702538e-16 7.92314286411827e-17 1.0
  outer loop
    vertex -1.4999999999999996 25.999999999999996 3.9999999999999996
    vertex -1.3856406460551016 0.8000000000000006 3.9999999999999996
    vertex 0.5000000000000009 25.999999999999996 3.9999999999999996
  endloop
endfacet
facet normal 1.3415728657702538e-16 7.92314286411827e-17 1.0
  outer loop
    vertex 0.5000000000000009 25.999999999999996 3.9999999999999996
    vertex -1.3856406460551016 0.8000000000000006 3.9999999999999996
    vertex -1.1313708498984762 1.1313708498984762 3.9999999999999996
  endloop
endfacet
facet normal 1.3415728657702538e-16 7.92314286411827e-17 1.0
  outer loop
    vertex 0.5000000000000009 25.999999999999996 3.9999999999999996
    vertex -1.1313708498984762 1.1313708498984762 3.9999999999999996
    vertex -0.7999999999999998 1.385640646055102 3.9999999999999996
  endloop
endfacet
facet normal 1.3415728657702538e-16 7.92314286411827e-17 1.0
  outer loop
    vertex 0.5000000000000009 25.999999999999996 3.9999999999999996
    vertex -0.7999999999999998 1.385640646055102 3.9999999999999996
    vertex -0.41411047216403307 1.5454813220625094 3.9999999999999996
  endloop
endfacet
facet normal 1.3415728657702538e-16 7.92314286411827e-17 1.0
  outer loop
    vertex 0.5000000000000009 25.999999999999996 3.9999999999999996
    vertex -0.41411047216403307 1.5454813220625094 3.9999999999999996
    vertex 9.797174393178827e-17 1.6000000000000003 3.9999999999999996
  endloop
endfacet
facet normal 1.3415728657702538e-16 7.92314286411827e-17 1.0
  outer loop
    vertex 0.5000000000000009 25.999999999999996 3.9999999999999996
    vertex 9.797174393178827e-17 1.6000000000000003 3.9999999999999996
    vertex 0.41411047216403357 1.5454813220625094 3.9999999999999996
  endloop
endfacet
facet normal 1.3415728657702538e-16 7.92314286411827e-17 1.0
  outer loop
    vertex 0.5000000000000009 25.999999999999996 3.9999999999999996
    vertex 0.41411047216403357 1.5454813220625094 3.9999999999999996
    vertex 0.8000000000000003 1.3856406460551018 3.9999999999999996
  endloop
endfacet
facet normal 1.3415728657702538e-16 7.92314286411827e-17 1.0
  outer loop
    vertex 0.5000000000000009 25.999999999999996 3.9999999999999996
    vertex 0.8000000000000003 1.3856406460551018 3.9999999999999996
    vertex 1.6843323042928526 25.01748331293625 3.9999999999999996
  endloop
endfacet
facet normal 1.3415728657702538e-16 7.92314286411827e-17 1.0
  outer loop
    vertex 1.6843323042928526 25.01748331293625 3.9999999999999996
    vertex 0.8000000000000003 1.3856406460551018 3.9999999999999996
    vertex 1.1313708498984762 1.1313708498984762 3.9999999999999996
  endloop
endfacet
facet normal 1.3415728657702538e-16 7.92314286411827e-17 1.0
  outer loop
    vertex 1.6843323042928526 25.01748331293625 3.9999999999999996
    vertex 1.1313708498984762 1.1313708498984762 3.9999999999999996
    vertex 1.385640646055102 0.7999999999999999 3.9999999999999996
  endloop
endfacet
facet normal 1.3415728657702538e-16 7.92314286411827e-17 1.0
  outer loop
    vertex 1.6843323042928526 25.01748331293625 3.9999999999999996
    vertex 1.385640646055102 0.7999999999999999 3.9999999999999996
    vertex 1.5454813220625094 0.41411047216403324 3.9999999999999996
  endloop
endfacet
facet normal 1.3415728657702538e-16 7.92314286411827e-17 1.0
  outer loop
    vertex 1.6843323042928526 25.01748331293625 3.9999999999999996
    vertex 1.5454813220625094 0.41411047216403324 3.9999999999999996
    vertex 1.6000000000000003 0.0 3.9999999999999996
  endloop
endfacet
endsolid Рычажок-Длинный
