solid М8-ШД-5мм
facet normal 0.0 0.0 -1.0
  outer loop
    vertex -4.499999999999998 7.794228634059947 0.0
    vertex -3.863703305156273 1.0352761804100812 4.229949723821846e-15
    vertex -3.999999999999999 0.0 4.229949723821846e-15
  endloop
endfacet
facet normal 0.0 0.0 -1.0
  outer loop
    vertex -3.863703305156273 1.0352761804100812 4.229949723821846e-15
    vertex -4.499999999999998 7.794228634059947 0.0
    vertex -2.3293714059226853 8.693332436601615 0.0
  endloop
endfacet
facet normal 0.0 0.0 -1.0
  outer loop
    vertex -3.863703305156273 1.0352761804100812 4.229949723821846e-15
    vertex -2.3293714059226853 8.693332436601615 0.0
    vertex -3.4641016151377544 1.9999999999999991 4.229949723821846e-15
  endloop
endfacet
facet normal 0.0 0.0 -1.0
  outer loop
    vertex -3.4641016151377544 1.9999999999999991 4.229949723821846e-15
    vertex -2.3293714059226853 8.693332436601615 0.0
    vertex -2.8284271247461916 2.8284271247461885 4.229949723821846e-15
  endloop
endfacet
facet normal 0.0 0.0 -1.0
  outer loop
    vertex -2.8284271247461916 2.8284271247461885 4.229949723821846e-15
    vertex -2.3293714059226853 8.693332436601615 0.0
    vertex -2.0000000000000018 3.464101615137754 4.229949723821846e-15
  endloop
endfacet
facet normal 0.0 0.0 -1.0
  outer loop
    vertex -2.0000000000000018 3.464101615137754 4.229949723821846e-15
    vertex -2.3293714059226853 8.693332436601615 0.0
    vertex 0.0 9.0 0.0
  endloop
endfacet
facet normal 0.0 0.0 -1.0
  outer loop
    vertex -2.0000000000000018 3.464101615137754 4.229949723821846e-15
    vertex 0.0 9.0 0.0
    vertex -1.0352761804100854 3.8637033051562715 4.229949723821846e-15
  endloop
endfacet
facet normal 0.0 0.0 -1.0
  outer loop
    vertex -1.0352761804100854 3.8637033051562715 4.229949723821846e-15
    vertex 0.0 9.0 0.0
    vertex -1.4099832412739487e-15 3.9999999999999982 4.229949723821846e-15
  endloop
endfacet
facet normal 0.0 0.0 -1.0
  outer loop
    vertex -1.4099832412739487e-15 3.9999999999999982 4.229949723821846e-15
    vertex 0.0 9.0 0.0
    vertex 1.0352761804100812 3.863703305156274 4.229949723821846e-15
  endloop
endfacet
facet normal 0.0 0.0 -1.0
  outer loop
    vertex 1.0352761804100812 3.863703305156274 4.229949723821846e-15
    vertex 0.0 9.0 0.0
    vertex 2.329371405922688 8.693332436601615 0.0
  endloop
endfacet
facet normal 0.0 0.0 -1.0
  outer loop
    vertex 1.0352761804100812 3.863703305156274 4.229949723821846e-15
    vertex 2.329371405922688 8.693332436601615 0.0
    vertex 1.9999999999999962 3.4641016151377566 4.229949723821846e-15
  endloop
endfacet
facet normal 0.0 0.0 -1.0
  outer loop
    vertex 1.9999999999999962 3.4641016151377566 4.229949723821846e-15
    vertex 2.329371405922688 8.693332436601615 0.0
    vertex 2.8284271247461885 2.8284271247461903 4.229949723821846e-15
  endloop
endfacet
facet normal 0.0 0.0 -1.0
  outer loop
    vertex 2.8284271247461885 2.8284271247461903 4.229949723821846e-15
    vertex 2.329371405922688 8.693332436601615 0.0
    vertex 4.5 7.794228634059947 0.0
  endloop
endfacet
facet normal 0.0 0.0 -1.0
  outer loop
    vertex 2.8284271247461885 2.8284271247461903 4.229949723821846e-15
    vertex 4.5 7.794228634059947 0.0
    vertex 3.4641016151377526 2.0000000000000018 4.229949723821846e-15
  endloop
endfacet
facet normal 0.0 0.0 -1.0
  outer loop
    vertex 3.4641016151377526 2.0000000000000018 4.229949723821846e-15
    vertex 4.5 7.794228634059947 0.0
    vertex 3.8637033051562715 1.0352761804100854 4.229949723821846e-15
  endloop
endfacet
facet normal 0.0 0.0 -1.0
  outer loop
    vertex 3.8637033051562715 1.0352761804100854 4.229949723821846e-15
    vertex 4.5 7.794228634059947 0.0
    vertex 3.9999999999999982 0.0 4.229949723821846e-15
  endloop
endfacet
facet normal 0.0 0.0 -1.0
  outer loop
    vertex 3.9999999999999982 0.0 4.229949723821846e-15
    vertex 4.5 7.794228634059947 0.0
    vertex 4.499999999999995 -7.794228634059951 0.0
  endloop
endfacet
facet normal 0.0 0.0 -1.0
  outer loop
    vertex 4.499999999999995 -7.794228634059951 0.0
    vertex 4.5 7.794228634059947 0.0
    vertex 6.363961030678927 -6.363961030678929 0.0
  endloop
endfacet
facet normal 0.0 0.0 -1.0
  outer loop
    vertex 6.363961030678927 -6.363961030678929 0.0
    vertex 4.5 7.794228634059947 0.0
    vertex 6.363961030678927 6.363961030678927 0.0
  endloop
endfacet
facet normal 0.0 0.0 -1.0
  outer loop
    vertex 6.363961030678927 -6.363961030678929 0.0
    vertex 6.363961030678927 6.363961030678927 0.0
    vertex 7.794228634059947 4.5 0.0
  endloop
endfacet
facet normal 0.0 0.0 -1.0
  outer loop
    vertex 6.363961030678927 -6.363961030678929 0.0
    vertex 7.794228634059947 4.5 0.0
    vertex 7.794228634059947 -4.500000000000004 0.0
  endloop
endfacet
facet normal 0.0 0.0 -1.0
  outer loop
    vertex 7.794228634059947 -4.500000000000004 0.0
    vertex 7.794228634059947 4.5 0.0
    vertex 8.693332436601615 2.3293714059226867 0.0
  endloop
endfacet
facet normal 0.0 0.0 -1.0
  outer loop
    vertex 7.794228634059947 -4.500000000000004 0.0
    vertex 8.693332436601615 2.3293714059226867 0.0
    vertex 8.693332436601615 -2.3293714059226938 0.0
  endloop
endfacet
facet normal 0.0 0.0 -1.0
  outer loop
    vertex 8.693332436601615 -2.3293714059226938 0.0
    vertex 8.693332436601615 2.3293714059226867 0.0
    vertex 9.0 0.0 0.0
  endloop
endfacet
facet normal 0.0 0.0 -1.0
  outer loop
    vertex -8.693332436601615 2.3293714059226893 0.0
    vertex -8.693332436601617 -2.3293714059226835 0.0
    vertex -9.0 1.4099832412739487e-15 0.0
  endloop
endfacet
facet normal 0.0 0.0 -1.0
  outer loop
    vertex -8.693332436601617 -2.3293714059226835 0.0
    vertex -8.693332436601615 2.3293714059226893 0.0
    vertex -7.79422863405995 -4.499999999999997 0.0
  endloop
endfacet
facet normal 0.0 0.0 -1.0
  outer loop
    vertex -7.79422863405995 -4.499999999999997 0.0
    vertex -8.693332436601615 2.3293714059226893 0.0
    vertex -7.794228634059947 4.500000000000003 0.0
  endloop
endfacet
facet normal 0.0 0.0 -1.0
  outer loop
    vertex -7.79422863405995 -4.499999999999997 0.0
    vertex -7.794228634059947 4.500000000000003 0.0
    vertex -6.363961030678931 -6.363961030678924 0.0
  endloop
endfacet
facet normal 0.0 0.0 -1.0
  outer loop
    vertex -6.363961030678931 -6.363961030678924 0.0
    vertex -7.794228634059947 4.500000000000003 0.0
    vertex -6.3639610306789285 6.363961030678927 0.0
  endloop
endfacet
facet normal 0.0 0.0 -1.0
  outer loop
    vertex -6.363961030678931 -6.363961030678924 0.0
    vertex -6.3639610306789285 6.363961030678927 0.0
    vertex -4.500000000000004 -7.794228634059947 0.0
  endloop
endfacet
facet normal 0.0 0.0 -1.0
  outer loop
    vertex -4.500000000000004 -7.794228634059947 0.0
    vertex -6.3639610306789285 6.363961030678927 0.0
    vertex -4.499999999999998 7.794228634059947 0.0
  endloop
endfacet
facet normal 0.0 0.0 -1.0
  outer loop
    vertex -4.500000000000004 -7.794228634059947 0.0
    vertex -4.499999999999998 7.794228634059947 0.0
    vertex -3.999999999999999 0.0 4.229949723821846e-15
  endloop
endfacet
facet normal 0.0 0.0 -1.0
  outer loop
    vertex -4.500000000000004 -7.794228634059947 0.0
    vertex -3.999999999999999 0.0 4.229949723821846e-15
    vertex -3.863703305156272 -1.035276180410084 4.229949723821846e-15
  endloop
endfacet
facet normal 0.0 0.0 -1.0
  outer loop
    vertex -4.500000000000004 -7.794228634059947 0.0
    vertex -3.863703305156272 -1.035276180410084 4.229949723821846e-15
    vertex -2.3293714059226938 -8.693332436601613 0.0
  endloop
endfacet
facet normal 0.0 0.0 -1.0
  outer loop
    vertex -2.3293714059226938 -8.693332436601613 0.0
    vertex -3.863703305156272 -1.035276180410084 4.229949723821846e-15
    vertex -3.464101615137753 -2.0000000000000018 4.229949723821846e-15
  endloop
endfacet
facet normal 0.0 0.0 -1.0
  outer loop
    vertex -2.3293714059226938 -8.693332436601613 0.0
    vertex -3.464101615137753 -2.0000000000000018 4.229949723821846e-15
    vertex -2.8284271247461894 -2.8284271247461903 4.229949723821846e-15
  endloop
endfacet
facet normal 0.0 0.0 -1.0
  outer loop
    vertex -2.3293714059226938 -8.693332436601613 0.0
    vertex -2.8284271247461894 -2.8284271247461903 4.229949723821846e-15
    vertex -1.9999999999999991 -3.4641016151377544 4.229949723821846e-15
  endloop
endfacet
facet normal 0.0 0.0 -1.0
  outer loop
    vertex -2.3293714059226938 -8.693332436601613 0.0
    vertex -1.9999999999999991 -3.4641016151377544 4.229949723821846e-15
    vertex -1.4099832412739487e-15 -9.0 0.0
  endloop
endfacet
facet normal 0.0 0.0 -1.0
  outer loop
    vertex -1.4099832412739487e-15 -9.0 0.0
    vertex -1.9999999999999991 -3.4641016151377544 4.229949723821846e-15
    vertex -1.0352761804100825 -3.863703305156273 4.229949723821846e-15
  endloop
endfacet
facet normal 0.0 0.0 -1.0
  outer loop
    vertex -1.4099832412739487e-15 -9.0 0.0
    vertex -1.0352761804100825 -3.863703305156273 4.229949723821846e-15
    vertex 0.0 -3.9999999999999996 4.229949723821846e-15
  endloop
endfacet
facet normal 0.0 0.0 -1.0
  outer loop
    vertex -1.4099832412739487e-15 -9.0 0.0
    vertex 0.0 -3.9999999999999996 4.229949723821846e-15
    vertex 2.329371405922682 -8.693332436601617 0.0
  endloop
endfacet
facet normal 0.0 0.0 -1.0
  outer loop
    vertex 2.329371405922682 -8.693332436601617 0.0
    vertex 0.0 -3.9999999999999996 4.229949723821846e-15
    vertex 1.035276180410084 -3.863703305156273 4.229949723821846e-15
  endloop
endfacet
facet normal 0.0 0.0 -1.0
  outer loop
    vertex 2.329371405922682 -8.693332436601617 0.0
    vertex 1.035276180410084 -3.863703305156273 4.229949723821846e-15
    vertex 1.9999999999999991 -3.464101615137754 4.229949723821846e-15
  endloop
endfacet
facet normal 0.0 0.0 -1.0
  outer loop
    vertex 2.329371405922682 -8.693332436601617 0.0
    vertex 1.9999999999999991 -3.464101615137754 4.229949723821846e-15
    vertex 2.8284271247461903 -2.8284271247461903 4.229949723821846e-15
  endloop
endfacet
facet normal 0.0 0.0 -1.0
  outer loop
    vertex 2.329371405922682 -8.693332436601617 0.0
    vertex 2.8284271247461903 -2.8284271247461903 4.229949723821846e-15
    vertex 4.499999999999995 -7.794228634059951 0.0
  endloop
endfacet
facet normal 0.0 0.0 -1.0
  outer loop
    vertex 4.499999999999995 -7.794228634059951 0.0
    vertex 2.8284271247461903 -2.8284271247461903 4.229949723821846e-15
    vertex 3.464101615137754 -1.9999999999999991 4.229949723821846e-15
  endloop
endfacet
facet normal 0.0 0.0 -1.0
  outer loop
    vertex 4.499999999999995 -7.794228634059951 0.0
    vertex 3.464101615137754 -1.9999999999999991 4.229949723821846e-15
    vertex 3.8637033051562715 -1.0352761804100825 4.229949723821846e-15
  endloop
endfacet
facet normal 0.0 0.0 -1.0
  outer loop
    vertex 4.499999999999995 -7.794228634059951 0.0
    vertex 3.8637033051562715 -1.0352761804100825 4.229949723821846e-15
    vertex 3.9999999999999982 0.0 4.229949723821846e-15
  endloop
endfacet
facet normal 0.0 0.0 1.0
  outer loop
    vertex -6.499999999999998 -3.7527767497325675 1.5
    vertex -3.863703305156272 -1.035276180410084 1.5
    vertex -3.999999999999999 0.0 1.5
  endloop
endfacet
facet normal 0.0 0.0 1.0
  outer loop
    vertex -3.863703305156272 -1.035276180410084 1.5
    vertex -6.499999999999998 -3.7527767497325675 1.5
    vertex -3.464101615137753 -2.0000000000000018 1.5
  endloop
endfacet
facet normal 0.0 0.0 1.0
  outer loop
    vertex -3.464101615137753 -2.0000000000000018 1.5
    vertex -6.499999999999998 -3.7527767497325675 1.5
    vertex 2.8199664825478975e-15 -7.505553499465132 1.5
  endloop
endfacet
facet normal 0.0 0.0 1.0
  outer loop
    vertex -3.464101615137753 -2.0000000000000018 1.5
    vertex 2.8199664825478975e-15 -7.505553499465132 1.5
    vertex -2.8284271247461894 -2.8284271247461903 1.5
  endloop
endfacet
facet normal 0.0 0.0 1.0
  outer loop
    vertex -2.8284271247461894 -2.8284271247461903 1.5
    vertex 2.8199664825478975e-15 -7.505553499465132 1.5
    vertex -1.9999999999999991 -3.4641016151377544 1.5
  endloop
endfacet
facet normal 0.0 0.0 1.0
  outer loop
    vertex -1.9999999999999991 -3.4641016151377544 1.5
    vertex 2.8199664825478975e-15 -7.505553499465132 1.5
    vertex -1.0352761804100825 -3.863703305156273 1.5
  endloop
endfacet
facet normal 0.0 0.0 1.0
  outer loop
    vertex -1.0352761804100825 -3.863703305156273 1.5
    vertex 2.8199664825478975e-15 -7.505553499465132 1.5
    vertex 0.0 -3.9999999999999996 1.5
  endloop
endfacet
facet normal 0.0 0.0 1.0
  outer loop
    vertex 0.0 -3.9999999999999996 1.5
    vertex 2.8199664825478975e-15 -7.505553499465132 1.5
    vertex 1.035276180410084 -3.863703305156273 1.5
  endloop
endfacet
facet normal 0.0 0.0 1.0
  outer loop
    vertex 1.035276180410084 -3.863703305156273 1.5
    vertex 2.8199664825478975e-15 -7.505553499465132 1.5
    vertex 6.499999999999999 -3.7527767497325666 1.5
  endloop
endfacet
facet normal 0.0 0.0 1.0
  outer loop
    vertex 1.035276180410084 -3.863703305156273 1.5
    vertex 6.499999999999999 -3.7527767497325666 1.5
    vertex 1.9999999999999991 -3.464101615137754 1.5
  endloop
endfacet
facet normal 0.0 0.0 1.0
  outer loop
    vertex 1.9999999999999991 -3.464101615137754 1.5
    vertex 6.499999999999999 -3.7527767497325666 1.5
    vertex 2.8284271247461903 -2.8284271247461903 1.5
  endloop
endfacet
facet normal 0.0 0.0 1.0
  outer loop
    vertex 2.8284271247461903 -2.8284271247461903 1.5
    vertex 6.499999999999999 -3.7527767497325666 1.5
    vertex 3.464101615137754 -1.9999999999999991 1.5
  endloop
endfacet
facet normal 0.0 0.0 1.0
  outer loop
    vertex 3.464101615137754 -1.9999999999999991 1.5
    vertex 6.499999999999999 -3.7527767497325666 1.5
    vertex 3.8637033051562715 -1.0352761804100825 1.5
  endloop
endfacet
facet normal 0.0 0.0 1.0
  outer loop
    vertex 3.8637033051562715 -1.0352761804100825 1.5
    vertex 6.499999999999999 -3.7527767497325666 1.5
    vertex 3.9999999999999982 0.0 1.5
  endloop
endfacet
facet normal 0.0 0.0 1.0
  outer loop
    vertex 3.9999999999999982 0.0 1.5
    vertex 6.499999999999999 -3.7527767497325666 1.5
    vertex 6.4999999999999964 3.7527767497325715 1.5
  endloop
endfacet
facet normal 0.0 0.0 1.0
  outer loop
    vertex -6.499999999999999 3.752776749732566 1.5
    vertex -3.4641016151377544 1.9999999999999991 1.5
    vertex -5.639932965095795e-15 7.505553499465135 1.5
  endloop
endfacet
facet normal 0.0 0.0 1.0
  outer loop
    vertex -3.4641016151377544 1.9999999999999991 1.5
    vertex -6.499999999999999 3.752776749732566 1.5
    vertex -6.499999999999998 -3.7527767497325675 1.5
  endloop
endfacet
facet normal 0.0 0.0 1.0
  outer loop
    vertex -3.4641016151377544 1.9999999999999991 1.5
    vertex -6.499999999999998 -3.7527767497325675 1.5
    vertex -3.863703305156273 1.0352761804100812 1.5
  endloop
endfacet
facet normal 0.0 0.0 1.0
  outer loop
    vertex -3.863703305156273 1.0352761804100812 1.5
    vertex -6.499999999999998 -3.7527767497325675 1.5
    vertex -3.999999999999999 0.0 1.5
  endloop
endfacet
facet normal 0.0 0.0 1.0
  outer loop
    vertex -5.639932965095795e-15 7.505553499465135 1.5
    vertex -3.4641016151377544 1.9999999999999991 1.5
    vertex -2.8284271247461916 2.8284271247461885 1.5
  endloop
endfacet
facet normal 0.0 0.0 1.0
  outer loop
    vertex -5.639932965095795e-15 7.505553499465135 1.5
    vertex -2.8284271247461916 2.8284271247461885 1.5
    vertex -2.0000000000000018 3.464101615137754 1.5
  endloop
endfacet
facet normal 0.0 0.0 1.0
  outer loop
    vertex -5.639932965095795e-15 7.505553499465135 1.5
    vertex -2.0000000000000018 3.464101615137754 1.5
    vertex -1.0352761804100854 3.8637033051562715 1.5
  endloop
endfacet
facet normal 0.0 0.0 1.0
  outer loop
    vertex -5.639932965095795e-15 7.505553499465135 1.5
    vertex -1.0352761804100854 3.8637033051562715 1.5
    vertex -1.4099832412739487e-15 3.9999999999999982 1.5
  endloop
endfacet
facet normal 0.0 0.0 1.0
  outer loop
    vertex -5.639932965095795e-15 7.505553499465135 1.5
    vertex -1.4099832412739487e-15 3.9999999999999982 1.5
    vertex 6.4999999999999964 3.7527767497325715 1.5
  endloop
endfacet
facet normal 0.0 0.0 1.0
  outer loop
    vertex 6.4999999999999964 3.7527767497325715 1.5
    vertex -1.4099832412739487e-15 3.9999999999999982 1.5
    vertex 1.0352761804100812 3.863703305156274 1.5
  endloop
endfacet
facet normal 0.0 0.0 1.0
  outer loop
    vertex 6.4999999999999964 3.7527767497325715 1.5
    vertex 1.0352761804100812 3.863703305156274 1.5
    vertex 1.9999999999999962 3.4641016151377566 1.5
  endloop
endfacet
facet normal 0.0 0.0 1.0
  outer loop
    vertex 6.4999999999999964 3.7527767497325715 1.5
    vertex 1.9999999999999962 3.4641016151377566 1.5
    vertex 2.8284271247461885 2.8284271247461903 1.5
  endloop
endfacet
facet normal 0.0 0.0 1.0
  outer loop
    vertex 6.4999999999999964 3.7527767497325715 1.5
    vertex 2.8284271247461885 2.8284271247461903 1.5
    vertex 3.4641016151377526 2.0000000000000018 1.5
  endloop
endfacet
facet normal 0.0 0.0 1.0
  outer loop
    vertex 6.4999999999999964 3.7527767497325715 1.5
    vertex 3.4641016151377526 2.0000000000000018 1.5
    vertex 3.8637033051562715 1.0352761804100854 1.5
  endloop
endfacet
facet normal 0.0 0.0 1.0
  outer loop
    vertex 6.4999999999999964 3.7527767497325715 1.5
    vertex 3.8637033051562715 1.0352761804100854 1.5
    vertex 3.9999999999999982 0.0 1.5
  endloop
endfacet
facet normal -0.13052619222005127 -0.9914448613738106 1.8823422719874402e-32
  outer loop
    vertex 1.0352761804100812 3.863703305156274 1.5
    vertex -1.4099832412739487e-15 3.9999999999999982 4.229949723821846e-15
    vertex 1.0352761804100812 3.863703305156274 4.229949723821846e-15
  endloop
endfacet
facet normal -0.13052619222005127 -0.9914448613738106 1.8823422719874402e-32
  outer loop
    vertex -1.4099832412739487e-15 3.9999999999999982 4.229949723821846e-15
    vertex 1.0352761804100812 3.863703305156274 1.5
    vertex -1.4099832412739487e-15 3.9999999999999982 1.5
  endloop
endfacet
facet normal 0.13052619222005216 -0.9914448613738104 -8.58171786065517e-34
  outer loop
    vertex -1.4099832412739487e-15 3.9999999999999982 1.5
    vertex -1.0352761804100854 3.8637033051562715 4.229949723821846e-15
    vertex -1.4099832412739487e-15 3.9999999999999982 4.229949723821846e-15
  endloop
endfacet
facet normal 0.13052619222005216 -0.9914448613738104 -8.58171786065517e-34
  outer loop
    vertex -1.0352761804100854 3.8637033051562715 4.229949723821846e-15
    vertex -1.4099832412739487e-15 3.9999999999999982 1.5
    vertex -1.0352761804100854 3.8637033051562715 1.5
  endloop
endfacet
facet normal 0.3826834323650899 -0.9238795325112866 -2.0481283302980954e-32
  outer loop
    vertex -1.0352761804100854 3.8637033051562715 1.5
    vertex -2.0000000000000018 3.464101615137754 4.229949723821846e-15
    vertex -1.0352761804100854 3.8637033051562715 4.229949723821846e-15
  endloop
endfacet
facet normal 0.3826834323650899 -0.9238795325112866 -2.0481283302980954e-32
  outer loop
    vertex -2.0000000000000018 3.464101615137754 4.229949723821846e-15
    vertex -1.0352761804100854 3.8637033051562715 1.5
    vertex -2.0000000000000018 3.464101615137754 1.5
  endloop
endfacet
facet normal 0.6087614290087213 -0.7933533402912346 -3.8708629209719303e-32
  outer loop
    vertex -2.0000000000000018 3.464101615137754 1.5
    vertex -2.8284271247461916 2.8284271247461885 4.229949723821846e-15
    vertex -2.0000000000000018 3.464101615137754 4.229949723821846e-15
  endloop
endfacet
facet normal 0.6087614290087213 -0.7933533402912346 -3.8708629209719303e-32
  outer loop
    vertex -2.8284271247461916 2.8284271247461885 4.229949723821846e-15
    vertex -2.0000000000000018 3.464101615137754 1.5
    vertex -2.8284271247461916 2.8284271247461885 1.5
  endloop
endfacet
facet normal 0.7933533402912355 -0.6087614290087203 -5.429804600484955e-32
  outer loop
    vertex -2.8284271247461916 2.8284271247461885 4.229949723821846e-15
    vertex -3.4641016151377544 1.9999999999999991 1.5
    vertex -3.4641016151377544 1.9999999999999991 4.229949723821846e-15
  endloop
endfacet
facet normal 0.7933533402912355 -0.6087614290087203 -5.429804600484955e-32
  outer loop
    vertex -3.4641016151377544 1.9999999999999991 1.5
    vertex -2.8284271247461916 2.8284271247461885 4.229949723821846e-15
    vertex -2.8284271247461916 2.8284271247461885 1.5
  endloop
endfacet
facet normal 0.9238795325112871 -0.38268343236508934 -6.618714069651301e-32
  outer loop
    vertex -3.4641016151377544 1.9999999999999991 4.229949723821846e-15
    vertex -3.863703305156273 1.0352761804100812 1.5
    vertex -3.863703305156273 1.0352761804100812 4.229949723821846e-15
  endloop
endfacet
facet normal 0.9238795325112871 -0.38268343236508934 -6.618714069651301e-32
  outer loop
    vertex -3.863703305156273 1.0352761804100812 1.5
    vertex -3.4641016151377544 1.9999999999999991 4.229949723821846e-15
    vertex -3.4641016151377544 1.9999999999999991 1.5
  endloop
endfacet
facet normal 0.9914448613738106 -0.13052619222005124 -7.356569112913074e-32
  outer loop
    vertex -3.863703305156273 1.0352761804100812 4.229949723821846e-15
    vertex -3.999999999999999 0.0 1.5
    vertex -3.999999999999999 0.0 4.229949723821846e-15
  endloop
endfacet
facet normal 0.9914448613738106 -0.13052619222005124 -7.356569112913074e-32
  outer loop
    vertex -3.999999999999999 0.0 1.5
    vertex -3.863703305156273 1.0352761804100812 4.229949723821846e-15
    vertex -3.863703305156273 1.0352761804100812 1.5
  endloop
endfacet
facet normal 0.9914448613738104 0.13052619222005168 -7.593086128435096e-32
  outer loop
    vertex -3.999999999999999 0.0 4.229949723821846e-15
    vertex -3.863703305156272 -1.035276180410084 1.5
    vertex -3.863703305156272 -1.035276180410084 4.229949723821846e-15
  endloop
endfacet
facet normal 0.9914448613738104 0.13052619222005168 -7.593086128435096e-32
  outer loop
    vertex -3.863703305156272 -1.035276180410084 1.5
    vertex -3.999999999999999 0.0 4.229949723821846e-15
    vertex -3.999999999999999 0.0 1.5
  endloop
endfacet
facet normal 0.9238795325112867 0.3826834323650899 -7.312146872472394e-32
  outer loop
    vertex -3.863703305156272 -1.035276180410084 4.229949723821846e-15
    vertex -3.464101615137753 -2.0000000000000018 1.5
    vertex -3.464101615137753 -2.0000000000000018 4.229949723821846e-15
  endloop
endfacet
facet normal 0.9238795325112867 0.3826834323650899 -7.312146872472394e-32
  outer loop
    vertex -3.464101615137753 -2.0000000000000018 1.5
    vertex -3.863703305156272 -1.035276180410084 4.229949723821846e-15
    vertex -3.863703305156272 -1.035276180410084 1.5
  endloop
endfacet
facet normal 0.793353340291235 0.6087614290087208 -6.532896891044751e-32
  outer loop
    vertex -3.464101615137753 -2.0000000000000018 4.229949723821846e-15
    vertex -2.8284271247461894 -2.8284271247461903 1.5
    vertex -2.8284271247461894 -2.8284271247461903 4.229949723821846e-15
  endloop
endfacet
facet normal 0.793353340291235 0.6087614290087208 -6.532896891044751e-32
  outer loop
    vertex -2.8284271247461894 -2.8284271247461903 1.5
    vertex -3.464101615137753 -2.0000000000000018 4.229949723821846e-15
    vertex -3.464101615137753 -2.0000000000000018 1.5
  endloop
endfacet
facet normal 0.6087614290087202 0.7933533402912355 -5.308440782614976e-32
  outer loop
    vertex -2.8284271247461894 -2.8284271247461903 1.5
    vertex -1.9999999999999991 -3.4641016151377544 4.229949723821846e-15
    vertex -2.8284271247461894 -2.8284271247461903 4.229949723821846e-15
  endloop
endfacet
facet normal 0.6087614290087202 0.7933533402912355 -5.308440782614976e-32
  outer loop
    vertex -1.9999999999999991 -3.4641016151377544 4.229949723821846e-15
    vertex -2.8284271247461894 -2.8284271247461903 1.5
    vertex -1.9999999999999991 -3.4641016151377544 1.5
  endloop
endfacet
facet normal 0.3826834323650897 0.923879532511287 -3.722223207463172e-32
  outer loop
    vertex -1.9999999999999991 -3.4641016151377544 1.5
    vertex -1.0352761804100825 -3.863703305156273 4.229949723821846e-15
    vertex -1.9999999999999991 -3.4641016151377544 4.229949723821846e-15
  endloop
endfacet
facet normal 0.3826834323650897 0.923879532511287 -3.722223207463172e-32
  outer loop
    vertex -1.0352761804100825 -3.863703305156273 4.229949723821846e-15
    vertex -1.9999999999999991 -3.4641016151377544 1.5
    vertex -1.0352761804100825 -3.863703305156273 1.5
  endloop
endfacet
facet normal 0.1305261922200518 0.9914448613738104 -1.8823422719874437e-32
  outer loop
    vertex -1.0352761804100825 -3.863703305156273 1.5
    vertex 0.0 -3.9999999999999996 4.229949723821846e-15
    vertex -1.0352761804100825 -3.863703305156273 4.229949723821846e-15
  endloop
endfacet
facet normal 0.1305261922200518 0.9914448613738104 -1.8823422719874437e-32
  outer loop
    vertex 0.0 -3.9999999999999996 4.229949723821846e-15
    vertex -1.0352761804100825 -3.863703305156273 1.5
    vertex 0.0 -3.9999999999999996 1.5
  endloop
endfacet
facet normal -0.13052619222005168 0.9914448613738104 8.5817178606548e-34
  outer loop
    vertex 0.0 -3.9999999999999996 1.5
    vertex 1.035276180410084 -3.863703305156273 4.229949723821846e-15
    vertex 0.0 -3.9999999999999996 4.229949723821846e-15
  endloop
endfacet
facet normal -0.13052619222005168 0.9914448613738104 8.5817178606548e-34
  outer loop
    vertex 1.035276180410084 -3.863703305156273 4.229949723821846e-15
    vertex 0.0 -3.9999999999999996 1.5
    vertex 1.035276180410084 -3.863703305156273 1.5
  endloop
endfacet
facet normal -0.3826834323650902 0.9238795325112865 2.048128330298098e-32
  outer loop
    vertex 1.035276180410084 -3.863703305156273 1.5
    vertex 1.9999999999999991 -3.464101615137754 4.229949723821846e-15
    vertex 1.035276180410084 -3.863703305156273 4.229949723821846e-15
  endloop
endfacet
facet normal -0.3826834323650902 0.9238795325112865 2.048128330298098e-32
  outer loop
    vertex 1.9999999999999991 -3.464101615137754 4.229949723821846e-15
    vertex 1.035276180410084 -3.863703305156273 1.5
    vertex 1.9999999999999991 -3.464101615137754 1.5
  endloop
endfacet
facet normal -0.6087614290087203 0.7933533402912356 3.8708629209719226e-32
  outer loop
    vertex 1.9999999999999991 -3.464101615137754 1.5
    vertex 2.8284271247461903 -2.8284271247461903 4.229949723821846e-15
    vertex 1.9999999999999991 -3.464101615137754 4.229949723821846e-15
  endloop
endfacet
facet normal -0.6087614290087203 0.7933533402912356 3.8708629209719226e-32
  outer loop
    vertex 2.8284271247461903 -2.8284271247461903 4.229949723821846e-15
    vertex 1.9999999999999991 -3.464101615137754 1.5
    vertex 2.8284271247461903 -2.8284271247461903 1.5
  endloop
endfacet
facet normal -0.7933533402912356 0.6087614290087202 5.429804600484956e-32
  outer loop
    vertex 3.464101615137754 -1.9999999999999991 1.5
    vertex 2.8284271247461903 -2.8284271247461903 4.229949723821846e-15
    vertex 2.8284271247461903 -2.8284271247461903 1.5
  endloop
endfacet
facet normal -0.7933533402912356 0.6087614290087202 5.429804600484956e-32
  outer loop
    vertex 2.8284271247461903 -2.8284271247461903 4.229949723821846e-15
    vertex 3.464101615137754 -1.9999999999999991 1.5
    vertex 3.464101615137754 -1.9999999999999991 4.229949723821846e-15
  endloop
endfacet
facet normal -0.9238795325112868 0.38268343236508956 6.6187140696513e-32
  outer loop
    vertex 3.8637033051562715 -1.0352761804100825 1.5
    vertex 3.464101615137754 -1.9999999999999991 4.229949723821846e-15
    vertex 3.464101615137754 -1.9999999999999991 1.5
  endloop
endfacet
facet normal -0.9238795325112868 0.38268343236508956 6.6187140696513e-32
  outer loop
    vertex 3.464101615137754 -1.9999999999999991 4.229949723821846e-15
    vertex 3.8637033051562715 -1.0352761804100825 1.5
    vertex 3.8637033051562715 -1.0352761804100825 4.229949723821846e-15
  endloop
endfacet
facet normal -0.9914448613738104 0.13052619222005174 7.356569112913072e-32
  outer loop
    vertex 3.9999999999999982 0.0 1.5
    vertex 3.8637033051562715 -1.0352761804100825 4.229949723821846e-15
    vertex 3.8637033051562715 -1.0352761804100825 1.5
  endloop
endfacet
facet normal -0.9914448613738104 0.13052619222005174 7.356569112913072e-32
  outer loop
    vertex 3.8637033051562715 -1.0352761804100825 4.229949723821846e-15
    vertex 3.9999999999999982 0.0 1.5
    vertex 3.9999999999999982 0.0 4.229949723821846e-15
  endloop
endfacet
facet normal -0.9914448613738104 -0.13052619222005202 7.593086128435097e-32
  outer loop
    vertex 3.8637033051562715 1.0352761804100854 1.5
    vertex 3.9999999999999982 0.0 4.229949723821846e-15
    vertex 3.9999999999999982 0.0 1.5
  endloop
endfacet
facet normal -0.9914448613738104 -0.13052619222005202 7.593086128435097e-32
  outer loop
    vertex 3.9999999999999982 0.0 4.229949723821846e-15
    vertex 3.8637033051562715 1.0352761804100854 1.5
    vertex 3.8637033051562715 1.0352761804100854 4.229949723821846e-15
  endloop
endfacet
facet normal -0.9238795325112865 -0.3826834323650905 7.312146872472394e-32
  outer loop
    vertex 3.4641016151377526 2.0000000000000018 1.5
    vertex 3.8637033051562715 1.0352761804100854 4.229949723821846e-15
    vertex 3.8637033051562715 1.0352761804100854 1.5
  endloop
endfacet
facet normal -0.9238795325112865 -0.3826834323650905 7.312146872472394e-32
  outer loop
    vertex 3.8637033051562715 1.0352761804100854 4.229949723821846e-15
    vertex 3.4641016151377526 2.0000000000000018 1.5
    vertex 3.4641016151377526 2.0000000000000018 4.229949723821846e-15
  endloop
endfacet
facet normal -0.793353340291235 -0.6087614290087208 6.532896891044751e-32
  outer loop
    vertex 2.8284271247461885 2.8284271247461903 1.5
    vertex 3.4641016151377526 2.0000000000000018 4.229949723821846e-15
    vertex 3.4641016151377526 2.0000000000000018 1.5
  endloop
endfacet
facet normal -0.793353340291235 -0.6087614290087208 6.532896891044751e-32
  outer loop
    vertex 3.4641016151377526 2.0000000000000018 4.229949723821846e-15
    vertex 2.8284271247461885 2.8284271247461903 1.5
    vertex 2.8284271247461885 2.8284271247461903 4.229949723821846e-15
  endloop
endfacet
facet normal -0.6087614290087204 -0.7933533402912355 5.308440782614978e-32
  outer loop
    vertex 2.8284271247461885 2.8284271247461903 1.5
    vertex 1.9999999999999962 3.4641016151377566 4.229949723821846e-15
    vertex 2.8284271247461885 2.8284271247461903 4.229949723821846e-15
  endloop
endfacet
facet normal -0.6087614290087204 -0.7933533402912355 5.308440782614978e-32
  outer loop
    vertex 1.9999999999999962 3.4641016151377566 4.229949723821846e-15
    vertex 2.8284271247461885 2.8284271247461903 1.5
    vertex 1.9999999999999962 3.4641016151377566 1.5
  endloop
endfacet
facet normal -0.3826834323650892 -0.923879532511287 3.7222232074631683e-32
  outer loop
    vertex 1.9999999999999962 3.4641016151377566 1.5
    vertex 1.0352761804100812 3.863703305156274 4.229949723821846e-15
    vertex 1.9999999999999962 3.4641016151377566 4.229949723821846e-15
  endloop
endfacet
facet normal -0.3826834323650892 -0.923879532511287 3.7222232074631683e-32
  outer loop
    vertex 1.0352761804100812 3.863703305156274 4.229949723821846e-15
    vertex 1.9999999999999962 3.4641016151377566 1.5
    vertex 1.0352761804100812 3.863703305156274 1.5
  endloop
endfacet
facet normal 0.4999999999999997 0.8660254037844388 0.0
  outer loop
    vertex -6.499999999999998 -3.7527767497325675 8.3
    vertex 2.8199664825478975e-15 -7.505553499465132 1.5
    vertex -6.499999999999998 -3.7527767497325675 1.5
  endloop
endfacet
facet normal 0.4999999999999997 0.8660254037844388 0.0
  outer loop
    vertex 2.8199664825478975e-15 -7.505553499465132 1.5
    vertex -6.499999999999998 -3.7527767497325675 8.3
    vertex 2.8199664825478975e-15 -7.505553499465132 8.3
  endloop
endfacet
facet normal 1.0 1.8785866243900974e-16 0.0
  outer loop
    vertex -6.499999999999999 3.752776749732566 1.5
    vertex -6.499999999999998 -3.7527767497325675 8.3
    vertex -6.499999999999998 -3.7527767497325675 1.5
  endloop
endfacet
facet normal 1.0 1.8785866243900974e-16 0.0
  outer loop
    vertex -6.499999999999998 -3.7527767497325675 8.3
    vertex -6.499999999999999 3.752776749732566 1.5
    vertex -6.499999999999999 3.752776749732566 8.3
  endloop
endfacet
facet normal 0.5000000000000004 -0.8660254037844384 0.0
  outer loop
    vertex -5.639932965095795e-15 7.505553499465135 8.3
    vertex -6.499999999999999 3.752776749732566 1.5
    vertex -5.639932965095795e-15 7.505553499465135 1.5
  endloop
endfacet
facet normal 0.5000000000000004 -0.8660254037844384 0.0
  outer loop
    vertex -6.499999999999999 3.752776749732566 1.5
    vertex -5.639932965095795e-15 7.505553499465135 8.3
    vertex -6.499999999999999 3.752776749732566 8.3
  endloop
endfacet
facet normal -0.4999999999999995 -0.866025403784439 0.0
  outer loop
    vertex 6.4999999999999964 3.7527767497325715 8.3
    vertex -5.639932965095795e-15 7.505553499465135 1.5
    vertex 6.4999999999999964 3.7527767497325715 1.5
  endloop
endfacet
facet normal -0.4999999999999995 -0.866025403784439 0.0
  outer loop
    vertex -5.639932965095795e-15 7.505553499465135 1.5
    vertex 6.4999999999999964 3.7527767497325715 8.3
    vertex -5.639932965095795e-15 7.505553499465135 8.3
  endloop
endfacet
facet normal -1.0 -3.757173248780193e-16 -0.0
  outer loop
    vertex 6.4999999999999964 3.7527767497325715 8.3
    vertex 6.499999999999999 -3.7527767497325666 1.5
    vertex 6.499999999999999 -3.7527767497325666 8.3
  endloop
endfacet
facet normal -1.0 -3.757173248780193e-16 -0.0
  outer loop
    vertex 6.499999999999999 -3.7527767497325666 1.5
    vertex 6.4999999999999964 3.7527767497325715 8.3
    vertex 6.4999999999999964 3.7527767497325715 1.5
  endloop
endfacet
facet normal -0.5 0.8660254037844387 0.0
  outer loop
    vertex 2.8199664825478975e-15 -7.505553499465132 8.3
    vertex 6.499999999999999 -3.7527767497325666 1.5
    vertex 2.8199664825478975e-15 -7.505553499465132 1.5
  endloop
endfacet
facet normal -0.5 0.8660254037844387 0.0
  outer loop
    vertex 6.499999999999999 -3.7527767497325666 1.5
    vertex 2.8199664825478975e-15 -7.505553499465132 8.3
    vertex 6.499999999999999 -3.7527767497325666 8.3
  endloop
endfacet
facet normal -0.7933533402912347 0.6087614290087214 -7.382287616703148e-17
  outer loop
    vertex -7.7942286340599445 4.500000000000009 8.299999999999995
    vertex -6.3639610306789285 6.363961030678927 0.0
    vertex -7.794228634059947 4.500000000000003 0.0
  endloop
endfacet
facet normal -0.7933533402912347 0.6087614290087214 -7.382287616703148e-17
  outer loop
    vertex -6.3639610306789285 6.363961030678927 0.0
    vertex -7.7942286340599445 4.500000000000009 8.299999999999995
    vertex -6.363961030678924 6.363961030678932 8.299999999999995
  endloop
endfacet
facet normal -0.9238795325112867 0.3826834323650902 2.703925855550185e-17
  outer loop
    vertex -7.7942286340599445 4.500000000000009 8.299999999999995
    vertex -8.693332436601615 2.3293714059226893 0.0
    vertex -8.693332436601615 2.3293714059226893 8.299999999999995
  endloop
endfacet
facet normal -0.9238795325112867 0.3826834323650902 2.703925855550185e-17
  outer loop
    vertex -8.693332436601615 2.3293714059226893 0.0
    vertex -7.7942286340599445 4.500000000000009 8.299999999999995
    vertex -7.794228634059947 4.500000000000003 0.0
  endloop
endfacet
facet normal -0.9914448613738105 -0.13052619222005118 1.0602521880149491e-17
  outer loop
    vertex -9.0 2.8199664825478975e-15 8.299999999999995
    vertex -8.693332436601617 -2.3293714059226835 0.0
    vertex -8.693332436601617 -2.3293714059226835 8.299999999999995
  endloop
endfacet
facet normal -0.9914448613738105 -0.13052619222005118 1.0602521880149491e-17
  outer loop
    vertex -8.693332436601617 -2.3293714059226835 0.0
    vertex -9.0 2.8199664825478975e-15 8.299999999999995
    vertex -9.0 1.4099832412739487e-15 0.0
  endloop
endfacet
facet normal -0.9238795325112868 -0.38268343236508945 -3.108502129581221e-17
  outer loop
    vertex -8.693332436601617 -2.3293714059226835 8.299999999999995
    vertex -7.79422863405995 -4.499999999999997 0.0
    vertex -7.79422863405995 -4.499999999999999 8.299999999999995
  endloop
endfacet
facet normal -0.9238795325112868 -0.38268343236508945 -3.108502129581221e-17
  outer loop
    vertex -7.79422863405995 -4.499999999999997 0.0
    vertex -8.693332436601617 -2.3293714059226835 8.299999999999995
    vertex -8.693332436601617 -2.3293714059226835 0.0
  endloop
endfacet
facet normal -0.7933533402912354 -0.6087614290087204 -1.5823720921789405e-16
  outer loop
    vertex -7.79422863405995 -4.499999999999999 8.299999999999995
    vertex -6.363961030678931 -6.363961030678924 0.0
    vertex -6.363961030678931 -6.363961030678927 8.299999999999995
  endloop
endfacet
facet normal -0.7933533402912354 -0.6087614290087204 -1.5823720921789405e-16
  outer loop
    vertex -6.363961030678931 -6.363961030678924 0.0
    vertex -7.79422863405995 -4.499999999999999 8.299999999999995
    vertex -7.79422863405995 -4.499999999999997 0.0
  endloop
endfacet
facet normal 0.13052619222005124 -0.9914448613738105 0.0
  outer loop
    vertex 2.3293714059226835 -8.693332436601617 8.299999999999995
    vertex -1.4099832412739487e-15 -9.0 0.0
    vertex 2.329371405922682 -8.693332436601617 0.0
  endloop
endfacet
facet normal 0.13052619222005124 -0.9914448613738105 0.0
  outer loop
    vertex -1.4099832412739487e-15 -9.0 0.0
    vertex 2.3293714059226835 -8.693332436601617 8.299999999999995
    vertex -2.8199664825478975e-15 -9.0 8.299999999999995
  endloop
endfacet
facet normal -0.9914448613738105 0.13052619222005168 -1.0602521880149533e-17
  outer loop
    vertex -9.0 2.8199664825478975e-15 8.299999999999995
    vertex -8.693332436601615 2.3293714059226893 0.0
    vertex -9.0 1.4099832412739487e-15 0.0
  endloop
endfacet
facet normal -0.9914448613738105 0.13052619222005168 -1.0602521880149533e-17
  outer loop
    vertex -8.693332436601615 2.3293714059226893 0.0
    vertex -9.0 2.8199664825478975e-15 8.299999999999995
    vertex -8.693332436601615 2.3293714059226893 8.299999999999995
  endloop
endfacet
facet normal -0.6087614290087213 -0.7933533402912347 -1.353310520495993e-16
  outer loop
    vertex -4.500000000000004 -7.794228634059947 8.299999999999995
    vertex -6.363961030678931 -6.363961030678924 0.0
    vertex -4.500000000000004 -7.794228634059947 0.0
  endloop
endfacet
facet normal -0.6087614290087213 -0.7933533402912347 -1.353310520495993e-16
  outer loop
    vertex -6.363961030678931 -6.363961030678924 0.0
    vertex -4.500000000000004 -7.794228634059947 8.299999999999995
    vertex -6.363961030678931 -6.363961030678927 8.299999999999995
  endloop
endfacet
facet normal -0.38268343236509 -0.9238795325112867 -1.3519629277750965e-17
  outer loop
    vertex -2.3293714059226907 -8.693332436601615 8.299999999999995
    vertex -4.500000000000004 -7.794228634059947 0.0
    vertex -2.3293714059226938 -8.693332436601613 0.0
  endloop
endfacet
facet normal -0.38268343236509 -0.9238795325112867 -1.3519629277750965e-17
  outer loop
    vertex -4.500000000000004 -7.794228634059947 0.0
    vertex -2.3293714059226907 -8.693332436601615 8.299999999999995
    vertex -4.500000000000004 -7.794228634059947 8.299999999999995
  endloop
endfacet
facet normal -0.13052619222005185 -0.9914448613738105 -7.39583347550748e-17
  outer loop
    vertex -2.8199664825478975e-15 -9.0 8.299999999999995
    vertex -2.3293714059226938 -8.693332436601613 0.0
    vertex -1.4099832412739487e-15 -9.0 0.0
  endloop
endfacet
facet normal -0.13052619222005185 -0.9914448613738105 -7.39583347550748e-17
  outer loop
    vertex -2.3293714059226938 -8.693332436601613 0.0
    vertex -2.8199664825478975e-15 -9.0 8.299999999999995
    vertex -2.3293714059226907 -8.693332436601615 8.299999999999995
  endloop
endfacet
facet normal 0.38268343236508945 -0.9238795325112871 -1.7565392018061117e-17
  outer loop
    vertex 4.499999999999997 -7.79422863405995 8.299999999999995
    vertex 2.329371405922682 -8.693332436601617 0.0
    vertex 4.499999999999995 -7.794228634059951 0.0
  endloop
endfacet
facet normal 0.38268343236508945 -0.9238795325112871 -1.7565392018061117e-17
  outer loop
    vertex 2.329371405922682 -8.693332436601617 0.0
    vertex 4.499999999999997 -7.79422863405995 8.299999999999995
    vertex 2.3293714059226835 -8.693332436601617 8.299999999999995
  endloop
endfacet
facet normal 0.9238795325112867 -0.3826834323650904 6.527854472120578e-17
  outer loop
    vertex 8.693332436601615 -2.3293714059226938 0.0
    vertex 7.794228634059947 -4.500000000000004 8.299999999999995
    vertex 7.794228634059947 -4.500000000000004 0.0
  endloop
endfacet
facet normal 0.9238795325112867 -0.3826834323650904 6.527854472120578e-17
  outer loop
    vertex 7.794228634059947 -4.500000000000004 8.299999999999995
    vertex 8.693332436601615 -2.3293714059226938 0.0
    vertex 8.693332436601615 -2.3293714059226907 8.299999999999995
  endloop
endfacet
facet normal 0.9914448613738105 -0.1305261922200516 -2.3325548136328956e-17
  outer loop
    vertex 9.0 0.0 0.0
    vertex 8.693332436601615 -2.3293714059226907 8.299999999999995
    vertex 8.693332436601615 -2.3293714059226938 0.0
  endloop
endfacet
facet normal 0.9914448613738105 -0.1305261922200516 -2.3325548136328956e-17
  outer loop
    vertex 8.693332436601615 -2.3293714059226907 8.299999999999995
    vertex 9.0 0.0 0.0
    vertex 9.0 -5.639932965095795e-15 8.299999999999995
  endloop
endfacet
facet normal 0.9914448613738105 0.13052619222005113 -8.864969762793241e-17
  outer loop
    vertex 9.0 0.0 0.0
    vertex 8.693332436601617 2.329371405922682 8.299999999999995
    vertex 9.0 -5.639932965095795e-15 8.299999999999995
  endloop
endfacet
facet normal 0.9914448613738105 0.13052619222005113 -8.864969762793241e-17
  outer loop
    vertex 8.693332436601617 2.329371405922682 8.299999999999995
    vertex 9.0 0.0 0.0
    vertex 8.693332436601615 2.3293714059226867 0.0
  endloop
endfacet
facet normal 0.9238795325112867 0.3826834323650899 -1.8058984381310507e-16
  outer loop
    vertex 8.693332436601615 2.3293714059226867 0.0
    vertex 7.7942286340599525 4.499999999999992 8.299999999999995
    vertex 8.693332436601617 2.329371405922682 8.299999999999995
  endloop
endfacet
facet normal 0.9238795325112867 0.3826834323650899 -1.8058984381310507e-16
  outer loop
    vertex 7.7942286340599525 4.499999999999992 8.299999999999995
    vertex 8.693332436601615 2.3293714059226867 0.0
    vertex 7.794228634059947 4.5 0.0
  endloop
endfacet
facet normal 0.7933533402912357 0.6087614290087201 -2.2979470255066915e-16
  outer loop
    vertex 7.794228634059947 4.5 0.0
    vertex 6.363961030678932 6.363961030678927 8.299999999999995
    vertex 7.7942286340599525 4.499999999999992 8.299999999999995
  endloop
endfacet
facet normal 0.7933533402912357 0.6087614290087201 -2.2979470255066915e-16
  outer loop
    vertex 6.363961030678932 6.363961030678927 8.299999999999995
    vertex 7.794228634059947 4.5 0.0
    vertex 6.363961030678927 6.363961030678927 0.0
  endloop
endfacet
facet normal 0.6087614290087209 0.7933533402912349 -3.7893987790855666e-16
  outer loop
    vertex 4.500000000000009 7.7942286340599445 8.299999999999995
    vertex 6.363961030678927 6.363961030678927 0.0
    vertex 4.5 7.794228634059947 0.0
  endloop
endfacet
facet normal 0.6087614290087209 0.7933533402912349 -3.7893987790855666e-16
  outer loop
    vertex 6.363961030678927 6.363961030678927 0.0
    vertex 4.500000000000009 7.7942286340599445 8.299999999999995
    vertex 6.363961030678932 6.363961030678927 8.299999999999995
  endloop
endfacet
facet normal 0.38268343236509034 0.9238795325112865 -9.730082662774735e-17
  outer loop
    vertex 2.3293714059226907 8.693332436601615 8.299999999999995
    vertex 4.5 7.794228634059947 0.0
    vertex 2.329371405922688 8.693332436601615 0.0
  endloop
endfacet
facet normal 0.38268343236509034 0.9238795325112865 -9.730082662774735e-17
  outer loop
    vertex 4.5 7.794228634059947 0.0
    vertex 2.3293714059226907 8.693332436601615 8.299999999999995
    vertex 4.500000000000009 7.7942286340599445 8.299999999999995
  endloop
endfacet
facet normal 0.1305261922200518 0.9914448613738105 -7.739840972509165e-17
  outer loop
    vertex 7.049916206369744e-15 9.0 8.299999999999995
    vertex 2.329371405922688 8.693332436601615 0.0
    vertex 0.0 9.0 0.0
  endloop
endfacet
facet normal 0.1305261922200518 0.9914448613738105 -7.739840972509165e-17
  outer loop
    vertex 2.329371405922688 8.693332436601615 0.0
    vertex 7.049916206369744e-15 9.0 8.299999999999995
    vertex 2.3293714059226907 8.693332436601615 8.299999999999995
  endloop
endfacet
facet normal -0.13052619222005127 0.9914448613738105 -5.684213198748381e-17
  outer loop
    vertex -2.329371405922678 8.693332436601617 8.299999999999995
    vertex 0.0 9.0 0.0
    vertex -2.3293714059226853 8.693332436601615 0.0
  endloop
endfacet
facet normal -0.13052619222005127 0.9914448613738105 -5.684213198748381e-17
  outer loop
    vertex 0.0 9.0 0.0
    vertex -2.329371405922678 8.693332436601617 8.299999999999995
    vertex 7.049916206369744e-15 9.0 8.299999999999995
  endloop
endfacet
facet normal -0.3826834323650893 0.9238795325112871 -2.800619119597048e-16
  outer loop
    vertex -4.4999999999999964 7.7942286340599525 8.299999999999995
    vertex -2.3293714059226853 8.693332436601615 0.0
    vertex -4.499999999999998 7.794228634059947 0.0
  endloop
endfacet
facet normal -0.3826834323650893 0.9238795325112871 -2.800619119597048e-16
  outer loop
    vertex -2.3293714059226853 8.693332436601615 0.0
    vertex -4.4999999999999964 7.7942286340599525 8.299999999999995
    vertex -2.329371405922678 8.693332436601617 8.299999999999995
  endloop
endfacet
facet normal -0.6087614290087205 0.7933533402912353 -3.336378710999117e-16
  outer loop
    vertex -6.363961030678924 6.363961030678932 8.299999999999995
    vertex -4.499999999999998 7.794228634059947 0.0
    vertex -6.3639610306789285 6.363961030678927 0.0
  endloop
endfacet
facet normal -0.6087614290087205 0.7933533402912353 -3.336378710999117e-16
  outer loop
    vertex -4.499999999999998 7.794228634059947 0.0
    vertex -6.363961030678924 6.363961030678932 8.299999999999995
    vertex -4.4999999999999964 7.7942286340599525 8.299999999999995
  endloop
endfacet
facet normal 0.6087614290087198 -0.7933533402912358 -1.7473086247998544e-16
  outer loop
    vertex 6.363961030678927 -6.363961030678932 8.299999999999995
    vertex 4.499999999999995 -7.794228634059951 0.0
    vertex 6.363961030678927 -6.363961030678929 0.0
  endloop
endfacet
facet normal 0.6087614290087198 -0.7933533402912358 -1.7473086247998544e-16
  outer loop
    vertex 4.499999999999995 -7.794228634059951 0.0
    vertex 6.363961030678927 -6.363961030678932 8.299999999999995
    vertex 4.499999999999997 -7.79422863405995 8.299999999999995
  endloop
endfacet
facet normal 0.7933533402912349 -0.608761429008721 -1.0384316854924306e-16
  outer loop
    vertex 6.363961030678927 -6.363961030678929 0.0
    vertex 7.794228634059947 -4.500000000000004 8.299999999999995
    vertex 6.363961030678927 -6.363961030678932 8.299999999999995
  endloop
endfacet
facet normal 0.7933533402912349 -0.608761429008721 -1.0384316854924306e-16
  outer loop
    vertex 7.794228634059947 -4.500000000000004 8.299999999999995
    vertex 6.363961030678927 -6.363961030678929 0.0
    vertex 7.794228634059947 -4.500000000000004 0.0
  endloop
endfacet
facet normal -8.702379637079095e-33 -1.2974676091436584e-17 1.0
  outer loop
    vertex -8.693332436601617 -2.3293714059226835 8.299999999999995
    vertex -8.693332436601615 2.3293714059226893 8.299999999999995
    vertex -9.0 2.8199664825478975e-15 8.299999999999995
  endloop
endfacet
facet normal -8.702379637079095e-33 -1.2974676091436584e-17 1.0
  outer loop
    vertex -8.693332436601615 2.3293714059226893 8.299999999999995
    vertex -8.693332436601617 -2.3293714059226835 8.299999999999995
    vertex -7.79422863405995 -4.499999999999999 8.299999999999995
  endloop
endfacet
facet normal -8.702379637079095e-33 -1.2974676091436584e-17 1.0
  outer loop
    vertex -8.693332436601615 2.3293714059226893 8.299999999999995
    vertex -7.79422863405995 -4.499999999999999 8.299999999999995
    vertex -7.7942286340599445 4.500000000000009 8.299999999999995
  endloop
endfacet
facet normal -8.702379637079095e-33 -1.2974676091436584e-17 1.0
  outer loop
    vertex -7.7942286340599445 4.500000000000009 8.299999999999995
    vertex -7.79422863405995 -4.499999999999999 8.299999999999995
    vertex -6.363961030678931 -6.363961030678927 8.299999999999995
  endloop
endfacet
facet normal -8.702379637079095e-33 -1.2974676091436584e-17 1.0
  outer loop
    vertex -7.7942286340599445 4.500000000000009 8.299999999999995
    vertex -6.363961030678931 -6.363961030678927 8.299999999999995
    vertex -6.499999999999998 -3.7527767497325675 8.3
  endloop
endfacet
facet normal -8.702379637079095e-33 -1.2974676091436584e-17 1.0
  outer loop
    vertex -7.7942286340599445 4.500000000000009 8.299999999999995
    vertex -6.499999999999998 -3.7527767497325675 8.3
    vertex -6.499999999999999 3.752776749732566 8.3
  endloop
endfacet
facet normal -8.702379637079095e-33 -1.2974676091436584e-17 1.0
  outer loop
    vertex -6.499999999999998 -3.7527767497325675 8.3
    vertex -6.363961030678931 -6.363961030678927 8.299999999999995
    vertex 2.8199664825478975e-15 -7.505553499465132 8.3
  endloop
endfacet
facet normal -8.702379637079095e-33 -1.2974676091436584e-17 1.0
  outer loop
    vertex 2.8199664825478975e-15 -7.505553499465132 8.3
    vertex -6.363961030678931 -6.363961030678927 8.299999999999995
    vertex -4.500000000000004 -7.794228634059947 8.299999999999995
  endloop
endfacet
facet normal -8.702379637079095e-33 -1.2974676091436584e-17 1.0
  outer loop
    vertex 2.8199664825478975e-15 -7.505553499465132 8.3
    vertex -4.500000000000004 -7.794228634059947 8.299999999999995
    vertex -2.3293714059226907 -8.693332436601615 8.299999999999995
  endloop
endfacet
facet normal -8.702379637079095e-33 -1.2974676091436584e-17 1.0
  outer loop
    vertex 2.8199664825478975e-15 -7.505553499465132 8.3
    vertex -2.3293714059226907 -8.693332436601615 8.299999999999995
    vertex -2.8199664825478975e-15 -9.0 8.299999999999995
  endloop
endfacet
facet normal -8.702379637079095e-33 -1.2974676091436584e-17 1.0
  outer loop
    vertex 2.8199664825478975e-15 -7.505553499465132 8.3
    vertex -2.8199664825478975e-15 -9.0 8.299999999999995
    vertex 2.3293714059226835 -8.693332436601617 8.299999999999995
  endloop
endfacet
facet normal -8.702379637079095e-33 -1.2974676091436584e-17 1.0
  outer loop
    vertex 2.8199664825478975e-15 -7.505553499465132 8.3
    vertex 2.3293714059226835 -8.693332436601617 8.299999999999995
    vertex 6.499999999999999 -3.7527767497325666 8.3
  endloop
endfacet
facet normal -8.702379637079095e-33 -1.2974676091436584e-17 1.0
  outer loop
    vertex 6.499999999999999 -3.7527767497325666 8.3
    vertex 2.3293714059226835 -8.693332436601617 8.299999999999995
    vertex 4.499999999999997 -7.79422863405995 8.299999999999995
  endloop
endfacet
facet normal -8.702379637079095e-33 -1.2974676091436584e-17 1.0
  outer loop
    vertex 6.499999999999999 -3.7527767497325666 8.3
    vertex 4.499999999999997 -7.79422863405995 8.299999999999995
    vertex 6.363961030678927 -6.363961030678932 8.299999999999995
  endloop
endfacet
facet normal -8.702379637079095e-33 -1.2974676091436584e-17 1.0
  outer loop
    vertex 6.499999999999999 -3.7527767497325666 8.3
    vertex 6.363961030678927 -6.363961030678932 8.299999999999995
    vertex 7.794228634059947 -4.500000000000004 8.299999999999995
  endloop
endfacet
facet normal -8.702379637079095e-33 -1.2974676091436584e-17 1.0
  outer loop
    vertex -6.499999999999999 3.752776749732566 8.3
    vertex -6.363961030678924 6.363961030678932 8.299999999999995
    vertex -7.7942286340599445 4.500000000000009 8.299999999999995
  endloop
endfacet
facet normal -8.702379637079095e-33 -1.2974676091436584e-17 1.0
  outer loop
    vertex -6.363961030678924 6.363961030678932 8.299999999999995
    vertex -6.499999999999999 3.752776749732566 8.3
    vertex -5.639932965095795e-15 7.505553499465135 8.3
  endloop
endfacet
facet normal -8.702379637079095e-33 -1.2974676091436584e-17 1.0
  outer loop
    vertex -6.363961030678924 6.363961030678932 8.299999999999995
    vertex -5.639932965095795e-15 7.505553499465135 8.3
    vertex -4.4999999999999964 7.7942286340599525 8.299999999999995
  endloop
endfacet
facet normal -8.702379637079095e-33 -1.2974676091436584e-17 1.0
  outer loop
    vertex -4.4999999999999964 7.7942286340599525 8.299999999999995
    vertex -5.639932965095795e-15 7.505553499465135 8.3
    vertex -2.329371405922678 8.693332436601617 8.299999999999995
  endloop
endfacet
facet normal -8.702379637079095e-33 -1.2974676091436584e-17 1.0
  outer loop
    vertex -2.329371405922678 8.693332436601617 8.299999999999995
    vertex -5.639932965095795e-15 7.505553499465135 8.3
    vertex 7.049916206369744e-15 9.0 8.299999999999995
  endloop
endfacet
facet normal -8.702379637079095e-33 -1.2974676091436584e-17 1.0
  outer loop
    vertex 7.049916206369744e-15 9.0 8.299999999999995
    vertex -5.639932965095795e-15 7.505553499465135 8.3
    vertex 6.4999999999999964 3.7527767497325715 8.3
  endloop
endfacet
facet normal -8.702379637079095e-33 -1.2974676091436584e-17 1.0
  outer loop
    vertex 7.049916206369744e-15 9.0 8.299999999999995
    vertex 6.4999999999999964 3.7527767497325715 8.3
    vertex 2.3293714059226907 8.693332436601615 8.299999999999995
  endloop
endfacet
facet normal -8.702379637079095e-33 -1.2974676091436584e-17 1.0
  outer loop
    vertex 2.3293714059226907 8.693332436601615 8.299999999999995
    vertex 6.4999999999999964 3.7527767497325715 8.3
    vertex 4.500000000000009 7.7942286340599445 8.299999999999995
  endloop
endfacet
facet normal -8.702379637079095e-33 -1.2974676091436584e-17 1.0
  outer loop
    vertex 4.500000000000009 7.7942286340599445 8.299999999999995
    vertex 6.4999999999999964 3.7527767497325715 8.3
    vertex 6.363961030678932 6.363961030678927 8.299999999999995
  endloop
endfacet
facet normal -8.702379637079095e-33 -1.2974676091436584e-17 1.0
  outer loop
    vertex 6.363961030678932 6.363961030678927 8.299999999999995
    vertex 6.4999999999999964 3.7527767497325715 8.3
    vertex 7.7942286340599525 4.499999999999992 8.299999999999995
  endloop
endfacet
facet normal -8.702379637079095e-33 -1.2974676091436584e-17 1.0
  outer loop
    vertex 7.7942286340599525 4.499999999999992 8.299999999999995
    vertex 6.4999999999999964 3.7527767497325715 8.3
    vertex 6.499999999999999 -3.7527767497325666 8.3
  endloop
endfacet
facet normal -8.702379637079095e-33 -1.2974676091436584e-17 1.0
  outer loop
    vertex 7.7942286340599525 4.499999999999992 8.299999999999995
    vertex 6.499999999999999 -3.7527767497325666 8.3
    vertex 7.794228634059947 -4.500000000000004 8.299999999999995
  endloop
endfacet
facet normal -8.702379637079095e-33 -1.2974676091436584e-17 1.0
  outer loop
    vertex 7.7942286340599525 4.499999999999992 8.299999999999995
    vertex 7.794228634059947 -4.500000000000004 8.299999999999995
    vertex 8.693332436601615 -2.3293714059226907 8.299999999999995
  endloop
endfacet
facet normal -8.702379637079095e-33 -1.2974676091436584e-17 1.0
  outer loop
    vertex 7.7942286340599525 4.499999999999992 8.299999999999995
    vertex 8.693332436601615 -2.3293714059226907 8.299999999999995
    vertex 8.693332436601617 2.329371405922682 8.299999999999995
  endloop
endfacet
facet normal -8.702379637079095e-33 -1.2974676091436584e-17 1.0
  outer loop
    vertex 8.693332436601617 2.329371405922682 8.299999999999995
    vertex 8.693332436601615 -2.3293714059226907 8.299999999999995
    vertex 9.0 -5.639932965095795e-15 8.299999999999995
  endloop
endfacet
endsolid М8-ШД-5мм
