solid Крепление-E3Dv6-2x
facet normal -0.999999879940719 0.000489900187966149 1.0786729134999648e-05
  outer loop
    vertex 0.06535140212912709 -2.9805379021196807 48.54208271554682
    vertex 0.06535140897087922 -2.980446360238448 44.54208271659431
    vertex 0.06535140897087922 -4.980446360238448 44.54208271659431
  endloop
endfacet
facet normal -0.999999879940719 0.000489900187966149 1.0786729134999648e-05
  outer loop
    vertex 0.06535140897087922 -2.980446360238448 44.54208271659431
    vertex 0.06535140212912709 -2.9805379021196807 48.54208271554682
    vertex 0.06704274379145558 0.019461620321895107 48.54215137194972
  endloop
endfacet
facet normal -0.999999879940719 0.000489900187966149 1.0786729134999648e-05
  outer loop
    vertex 0.06535140897087922 -2.980446360238448 44.54208271659431
    vertex 0.06704274379145558 0.019461620321895107 48.54215137194972
    vertex 0.06540670014002829 -2.978179620337941 9.999931176316178
  endloop
endfacet
facet normal -0.999999879940719 0.000489900187966149 1.0786729134999648e-05
  outer loop
    vertex 0.06540670014002829 -2.978179620337941 9.999931176316178
    vertex 0.06437119244037842 -3.9763499801350095 -9.211496951551575e-05
    vertex 0.0643703664447023 -3.9781790830688806 9.999907717749569
  endloop
endfacet
facet normal -0.999999879940719 0.000489900187966149 1.0786729134999648e-05
  outer loop
    vertex 0.06437119244037842 -3.9763499801350095 -9.211496951551575e-05
    vertex 0.06540670014002829 -2.978179620337941 9.999931176316178
    vertex 0.06709886779803291 0.02364900503750611 0.0
  endloop
endfacet
facet normal -0.999999879940719 0.000489900187966149 1.0786729134999648e-05
  outer loop
    vertex 0.06709886779803291 0.02364900503750611 0.0
    vertex 0.06540670014002829 -2.978179620337941 9.999931176316178
    vertex 0.0670427506332077 0.019553162203128003 44.54215137299721
  endloop
endfacet
facet normal -0.999999879940719 0.000489900187966149 1.0786729134999648e-05
  outer loop
    vertex 0.0670427506332077 0.019553162203128003 44.54215137299721
    vertex 0.06540670014002829 -2.978179620337941 9.999931176316178
    vertex 0.06704274379145558 0.019461620321895107 48.54215137194972
  endloop
endfacet
facet normal 0.0005637805541094967 0.9999998408138586 2.2885467635397425e-05
  outer loop
    vertex 0.0670427506332077 0.019553162203128003 44.54215137299721
    vertex 5.1648449795753635 0.016771517919437644 0.0
    vertex 0.06709886779803291 0.02364900503750611 0.0
  endloop
endfacet
facet normal 0.0005637805541094967 0.9999998408138586 2.2885467635397425e-05
  outer loop
    vertex 5.1648449795753635 0.016771517919437644 0.0
    vertex 0.0670427506332077 0.019553162203128003 44.54215137299721
    vertex 5.164845161171309 0.019201251431517297 44.54215156084537
  endloop
endfacet
facet normal 2.5714748956831735e-08 4.478562363825931e-08 -0.9999999999999987
  outer loop
    vertex 5.16315381950898 -2.9807982710100585 44.542082904442466
    vertex 0.06535140897087922 -4.980446360238448 44.54208271659431
    vertex 0.06535140897087922 -2.980446360238448 44.54208271659431
  endloop
endfacet
facet normal 2.5714748956831735e-08 4.478562363825931e-08 -0.9999999999999987
  outer loop
    vertex 0.06535140897087922 -4.980446360238448 44.54208271659431
    vertex 5.16315381950898 -2.9807982710100585 44.542082904442466
    vertex 5.1631538556704974 -4.980446360238448 44.54208272531376
  endloop
endfacet
facet normal -5.166656016952255e-09 -2.3458573852054998e-05 0.9999999997248477
  outer loop
    vertex 5.162117804153174 -3.9818675355466997 9.999907657562042
    vertex 0.06540670014002829 -2.978179620337941 9.999931176316178
    vertex 0.0643703664447023 -3.9781790830688806 9.999907717749569
  endloop
endfacet
facet normal -5.166656016952255e-09 -2.3458573852054998e-05 0.9999999997248477
  outer loop
    vertex 0.06540670014002829 -2.978179620337941 9.999931176316178
    vertex 5.162117804153174 -3.9818675355466997 9.999907657562042
    vertex 5.1631541378485 -2.9818680728157605 9.999931116128652
  endloop
endfacet
facet normal -3.8428675567494815e-08 -2.2885449606198438e-05 0.9999999997381275
  outer loop
    vertex 5.163153812667228 -2.980889812891291 48.54208290339498
    vertex 0.06704274379145558 0.019461620321895107 48.54215137194972
    vertex 0.06535140212912709 -2.9805379021196807 48.54208271554682
  endloop
endfacet
facet normal -3.8428675567494815e-08 -2.2885449606198438e-05 0.9999999997381275
  outer loop
    vertex 0.06704274379145558 0.019461620321895107 48.54215137194972
    vertex 5.163153812667228 -2.980889812891291 48.54208290339498
    vertex 5.164845154329557 0.019109709550284397 48.54215155979788
  endloop
endfacet
facet normal 3.0875294826455054e-08 2.2885453865560622e-05 -0.9999999997381276
  outer loop
    vertex 0.06709886779803291 0.02364900503750611 0.0
    vertex 5.162117304217709 -3.983227467253078 -9.211496951551575e-05
    vertex 0.06437119244037842 -3.9763499801350095 -9.211496951551575e-05
  endloop
endfacet
facet normal 3.0875294826455054e-08 2.2885453865560622e-05 -0.9999999997381276
  outer loop
    vertex 5.162117304217709 -3.983227467253078 -9.211496951551575e-05
    vertex 0.06709886779803291 0.02364900503750611 0.0
    vertex 5.1648449795753635 0.016771517919437644 0.0
  endloop
endfacet
facet normal -0.0002588037630525446 -0.9999999664061081 -1.443589308938646e-05
  outer loop
    vertex 5.16315381950898 -2.9807982710100585 44.542082904442466
    vertex 0.06540670014002829 -2.978179620337941 9.999931176316178
    vertex 5.1631541378485 -2.9818680728157605 9.999931116128652
  endloop
endfacet
facet normal -0.0002588037630525446 -0.9999999664061081 -1.443589308938646e-05
  outer loop
    vertex 0.06540670014002829 -2.978179620337941 9.999931176316178
    vertex 5.16315381950898 -2.9807982710100585 44.542082904442466
    vertex 0.06535140897087922 -2.980446360238448 44.54208271659431
  endloop
endfacet
facet normal -0.0010363336953259988 -0.9999994627309396 -2.345856660932347e-05
  outer loop
    vertex 5.162117804153174 -3.9818675355466997 9.999907657562042
    vertex 0.06437119244037842 -3.9763499801350095 -9.211496951551575e-05
    vertex 5.162117304217709 -3.983227467253078 -9.211496951551575e-05
  endloop
endfacet
facet normal -0.0010363336953259988 -0.9999994627309396 -2.345856660932347e-05
  outer loop
    vertex 0.06437119244037842 -3.9763499801350095 -9.211496951551575e-05
    vertex 5.162117804153174 -3.9818675355466997 9.999907657562042
    vertex 0.0643703664447023 -3.9781790830688806 9.999907717749569
  endloop
endfacet
facet normal 7.47390376383036e-05 0.999999996945166 2.2885470372060612e-05
  outer loop
    vertex 0.06704274379145558 0.019461620321895107 48.54215137194972
    vertex 5.164845161171309 0.019201251431517297 44.54215156084537
    vertex 0.0670427506332077 0.019553162203128003 44.54215137299721
  endloop
endfacet
facet normal 7.47390376383036e-05 0.999999996945166 2.2885470372060612e-05
  outer loop
    vertex 5.164845161171309 0.019201251431517297 44.54215156084537
    vertex 0.06704274379145558 0.019461620321895107 48.54215137194972
    vertex 5.164845154329557 0.019109709550284397 48.54215155979788
  endloop
endfacet
facet normal 0.9999998797615242 -0.0004902364737005827 -1.204729662494461e-05
  outer loop
    vertex 5.1648449795753635 0.016771517919437644 0.0
    vertex 5.162117804153174 -3.9818675355466997 9.999907657562042
    vertex 5.162117304217709 -3.983227467253078 -9.211496951551575e-05
  endloop
endfacet
facet normal 0.9999998797615242 -0.0004902364737005827 -1.204729662494461e-05
  outer loop
    vertex 5.162117804153174 -3.9818675355466997 9.999907657562042
    vertex 5.1648449795753635 0.016771517919437644 0.0
    vertex 5.1631541378485 -2.9818680728157605 9.999931116128652
  endloop
endfacet
facet normal 0.9999998797615242 -0.0004902364737005827 -1.204729662494461e-05
  outer loop
    vertex 5.1631541378485 -2.9818680728157605 9.999931116128652
    vertex 5.1648449795753635 0.016771517919437644 0.0
    vertex 5.16315381950898 -2.9807982710100585 44.542082904442466
  endloop
endfacet
facet normal 0.9999998797615242 -0.0004902364737005827 -1.204729662494461e-05
  outer loop
    vertex 5.16315381950898 -2.9807982710100585 44.542082904442466
    vertex 5.163153812667228 -2.980889812891291 48.54208290339498
    vertex 5.1631538556704974 -4.980446360238448 44.54208272531376
  endloop
endfacet
facet normal 0.9999998797615242 -0.0004902364737005827 -1.204729662494461e-05
  outer loop
    vertex 5.163153812667228 -2.980889812891291 48.54208290339498
    vertex 5.16315381950898 -2.9807982710100585 44.542082904442466
    vertex 5.164845154329557 0.019109709550284397 48.54215155979788
  endloop
endfacet
facet normal 0.9999998797615242 -0.0004902364737005827 -1.204729662494461e-05
  outer loop
    vertex 5.164845154329557 0.019109709550284397 48.54215155979788
    vertex 5.16315381950898 -2.9807982710100585 44.542082904442466
    vertex 5.1648449795753635 0.016771517919437644 0.0
  endloop
endfacet
facet normal 0.9999998797615242 -0.0004902364737005827 -1.204729662494461e-05
  outer loop
    vertex 5.164845154329557 0.019109709550284397 48.54215155979788
    vertex 5.1648449795753635 0.016771517919437644 0.0
    vertex 5.164845161171309 0.019201251431517297 44.54215156084537
  endloop
endfacet
facet normal -3.0881432268902054e-05 -0.8944511195745208 0.44716573408326327
  outer loop
    vertex 5.1631538556704974 -4.980446360238448 44.54208272531376
    vertex 0.06535140212912709 -2.9805379021196807 48.54208271554682
    vertex 0.06535140897087922 -4.980446360238448 44.54208271659431
  endloop
endfacet
facet normal -3.0881432268902054e-05 -0.8944511195745208 0.44716573408326327
  outer loop
    vertex 0.06535140212912709 -2.9805379021196807 48.54208271554682
    vertex 5.1631538556704974 -4.980446360238448 44.54208272531376
    vertex 5.163153812667228 -2.980889812891291 48.54208290339498
  endloop
endfacet
endsolid Крепление-E3Dv6-2x
