solid Крепление-E3Dv6-2x
facet normal -0.7933533310467724 0.00012027537386340155 -0.6087614291747011
  outer loop
    vertex 44.071399040982875 51.02918290632915 23.40308060368115
    vertex 45.7716544305695 54.50650867255019 21.187951694922365
    vertex 45.77111969150006 51.02896071367718 21.18796150770092
  endloop
endfacet
facet normal -0.7933533310467724 0.00012027537386340155 -0.6087614291747011
  outer loop
    vertex 45.7716544305695 54.50650867255019 21.187951694922365
    vertex 44.071399040982875 51.02918290632915 23.40308060368115
    vertex 44.07193378005232 54.506730865202144 23.403070790902593
  endloop
endfacet
facet normal -0.608761321060636 9.136997237250365e-05 -0.7933534178611935
  outer loop
    vertex 42.00272792673745 54.508416145325924 24.99082804313737
    vertex 44.071399040982875 51.02918290632915 23.40308060368115
    vertex 42.00219318766801 51.03086818645293 24.990837855915927
  endloop
endfacet
facet normal -0.608761321060636 9.136997237250365e-05 -0.7933534178611935
  outer loop
    vertex 44.071399040982875 51.02918290632915 23.40308060368115
    vertex 42.00272792673745 54.508416145325924 24.99082804313737
    vertex 44.07193378005232 54.506730865202144 23.403070790902593
  endloop
endfacet
facet normal -0.38268342814224676 5.6237888679261985e-05 -0.9238795325488046
  outer loop
    vertex 39.27725391180751 54.50743410102717 26.171280532396086
    vertex 41.85627996664257 51.02949855274877 25.102801267614336
    vertex 39.276719172738076 51.02988614215417 26.171290345174647
  endloop
endfacet
facet normal -0.38268342814224676 5.6237888679261985e-05 -0.9238795325488046
  outer loop
    vertex 41.85627996664257 51.02949855274877 25.102801267614336
    vertex 39.27725391180751 54.50743410102717 26.171280532396086
    vertex 41.85681470571201 54.507046511621766 25.10279145483578
  endloop
endfacet
facet normal -0.13052619108295824 1.7273270071871786e-05 -0.9914448613730416
  outer loop
    vertex 36.509044203517654 54.50786721984094 26.535722258709466
    vertex 39.276719172738076 51.02988614215417 26.171290345174647
    vertex 36.50850946444822 51.03031926096793 26.535732071488024
  endloop
endfacet
facet normal -0.13052619108295824 1.7273270071871786e-05 -0.9914448613730416
  outer loop
    vertex 39.276719172738076 51.02988614215417 26.171290345174647
    vertex 36.509044203517654 54.50786721984094 26.535722258709466
    vertex 39.27725391180751 54.50743410102717 26.171280532396086
  endloop
endfacet
facet normal 0.13052619019601466 -2.286849334593029e-05 -0.9914448613765398
  outer loop
    vertex 33.740834497779545 54.508316351731644 26.171280532396086
    vertex 36.50850946444822 51.03031926096793 26.535732071488024
    vertex 33.74029975871011 51.030768392858654 26.171290345174647
  endloop
endfacet
facet normal 0.13052619019601466 -2.286849334593029e-05 -0.9914448613765398
  outer loop
    vertex 36.50850946444822 51.03031926096793 26.535732071488024
    vertex 33.740834497779545 54.508316351731644 26.171280532396086
    vertex 36.509044203517654 54.50786721984094 26.535722258709466
  endloop
endfacet
facet normal 0.382683427348854 -6.145180673902471e-05 -0.9238795325453475
  outer loop
    vertex 31.1612737113564 54.508750889103176 25.102791454835785
    vertex 33.74029975871011 51.030768392858654 26.171290345174647
    vertex 31.16073897228696 51.03120293023018 25.10280126761434
  endloop
endfacet
facet normal 0.382683427348854 -6.145180673902471e-05 -0.9238795325453475
  outer loop
    vertex 33.74029975871011 51.030768392858654 26.171290345174647
    vertex 31.1612737113564 54.508750889103176 25.102791454835785
    vertex 33.740834497779545 54.508316351731644 26.171280532396086
  endloop
endfacet
facet normal 0.6087608037498615 -9.584718742751938e-05 -0.7933538142790638
  outer loop
    vertex 31.015359509859557 54.509291586011734 24.990827666665517
    vertex 31.16073897228696 51.03120293023018 25.10280126761434
    vertex 31.01482477079012 51.03174362713873 24.99083747944407
  endloop
endfacet
facet normal 0.6087608037498615 -9.584718742751938e-05 -0.7933538142790638
  outer loop
    vertex 31.16073897228696 51.03120293023018 25.10280126761434
    vertex 31.015359509859557 54.509291586011734 24.990827666665517
    vertex 31.1612737113564 54.508750889103176 25.102791454835785
  endloop
endfacet
facet normal 0.7933533306054075 -0.0001237109215828588 -0.6087614290614304
  outer loop
    vertex 27.245899274840397 51.03191278207029 21.187961507700926
    vertex 28.946154648917197 54.50914121895177 23.403070790902596
    vertex 28.94561990984776 51.03159326007876 23.403080603681154
  endloop
endfacet
facet normal 0.7933533306054075 -0.0001237109215828588 -0.6087614290614304
  outer loop
    vertex 28.946154648917197 54.50914121895177 23.403070790902596
    vertex 27.245899274840397 51.03191278207029 21.187961507700926
    vertex 27.246434013909838 54.50946074094329 21.18795169492237
  endloop
endfacet
facet normal -0.7933533310467723 0.00012027537386287718 -0.6087614291747016
  outer loop
    vertex 22.080228866374657 51.03228573559277 23.40308059492573
    vertex 23.780483778842324 54.50650867255014 21.18795169492236
    vertex 23.779949516891836 51.03206354294081 21.1879614989455
  endloop
endfacet
facet normal -0.7933533310467723 0.00012027537386287718 -0.6087614291747016
  outer loop
    vertex 23.780483778842324 54.50650867255014 21.18795169492236
    vertex 22.080228866374657 51.03228573559277 23.40308059492573
    vertex 22.08076312832514 54.5067308652021 23.40307079090259
  endloop
endfacet
facet normal -0.6087613210606373 9.136997237203819e-05 -0.7933534178611925
  outer loop
    vertex 20.011557275010276 54.5084161453259 24.99082804313737
    vertex 22.080228866374657 51.03228573559277 23.40308059492573
    vertex 20.01102301305979 51.033971015716574 24.99083784716051
  endloop
endfacet
facet normal -0.6087613210606373 9.136997237203819e-05 -0.7933534178611925
  outer loop
    vertex 22.080228866374657 51.03228573559277 23.40308059492573
    vertex 20.011557275010276 54.5084161453259 24.99082804313737
    vertex 22.08076312832514 54.5067308652021 23.40307079090259
  endloop
endfacet
facet normal -0.38268342814224715 5.623788867871971e-05 -0.9238795325488045
  outer loop
    vertex 17.286083260080343 54.50743410102713 26.171280532396082
    vertex 19.865109792034353 51.03260138201239 25.102801258858918
    vertex 17.28554899812986 51.0329889714178 26.171290336419226
  endloop
endfacet
facet normal -0.38268342814224715 5.623788867871971e-05 -0.9238795325488045
  outer loop
    vertex 19.865109792034353 51.03260138201239 25.102801258858918
    vertex 17.286083260080343 54.50743410102713 26.171280532396082
    vertex 19.865644053984838 54.507046511621716 25.102791454835774
  endloop
endfacet
facet normal -0.13052619108295824 1.7273270071289753e-05 -0.9914448613730416
  outer loop
    vertex 14.517873551790485 54.50786721984089 26.53572225870946
    vertex 17.28554899812986 51.0329889714178 26.171290336419226
    vertex 14.517339289839999 51.03342209023156 26.535732062732603
  endloop
endfacet
facet normal -0.13052619108295824 1.7273270071289753e-05 -0.9914448613730416
  outer loop
    vertex 17.28554899812986 51.0329889714178 26.171290336419226
    vertex 14.517873551790485 54.50786721984089 26.53572225870946
    vertex 17.286083260080343 54.50743410102713 26.171280532396082
  endloop
endfacet
facet normal 0.13052619019601266 -2.2868493346512038e-05 -0.99144486137654
  outer loop
    vertex 11.74966384605238 54.5083163517316 26.171280532396086
    vertex 14.517339289839999 51.03342209023156 26.535732062732603
    vertex 11.749129584101894 51.03387122212227 26.17129033641923
  endloop
endfacet
facet normal 0.13052619019601266 -2.2868493346512038e-05 -0.99144486137654
  outer loop
    vertex 14.517339289839999 51.03342209023156 26.535732062732603
    vertex 11.74966384605238 54.5083163517316 26.171280532396086
    vertex 14.517873551790485 54.50786721984089 26.53572225870946
  endloop
endfacet
facet normal 0.38268342734885613 -6.145180673956745e-05 -0.9238795325453466
  outer loop
    vertex 9.170103059629234 54.50875088910313 25.102791454835778
    vertex 11.749129584101894 51.03387122212227 26.17129033641923
    vertex 9.16956879767875 51.034305759493805 25.102801258858918
  endloop
endfacet
facet normal 0.38268342734885613 -6.145180673956745e-05 -0.9238795325453466
  outer loop
    vertex 11.749129584101894 51.03387122212227 26.17129033641923
    vertex 9.170103059629234 54.50875088910313 25.102791454835778
    vertex 11.74966384605238 54.5083163517316 26.171280532396086
  endloop
endfacet
facet normal 0.6087608037498644 -9.584718742798564e-05 -0.7933538142790616
  outer loop
    vertex 9.024188858132401 54.50929158601171 24.990827666665517
    vertex 9.16956879767875 51.034305759493805 25.102801258858918
    vertex 9.023654596181915 51.034846456402384 24.990837470688657
  endloop
endfacet
facet normal 0.6087608037498644 -9.584718742798564e-05 -0.7933538142790616
  outer loop
    vertex 9.16956879767875 51.034305759493805 25.102801258858918
    vertex 9.024188858132401 54.50929158601171 24.990827666665517
    vertex 9.170103059629234 54.50875088910313 25.102791454835778
  endloop
endfacet
facet normal 0.7933533306054072 -0.0001237109215825761 -0.6087614290614308
  outer loop
    vertex 5.254729100232186 51.03501561133391 21.18796149894551
    vertex 6.954983997190033 54.50914121895172 23.403070790902593
    vertex 6.954449735239548 51.03469608934239 23.403080594925736
  endloop
endfacet
facet normal 0.7933533306054072 -0.0001237109215825761 -0.6087614290614308
  outer loop
    vertex 6.954983997190033 54.50914121895172 23.403070790902593
    vertex 5.254729100232186 51.03501561133391 21.18796149894551
    vertex 5.255263362182672 54.50946074094324 21.187951694922365
  endloop
endfacet
facet normal 0.608761464937575 -9.584728766608546e-05 -0.7933533069322616
  outer loop
    vertex 28.946154648917197 54.50914121895177 23.403070790902596
    vertex 31.01482477079012 51.03174362713873 24.99083747944407
    vertex 28.94561990984776 51.03159326007876 23.403080603681154
  endloop
endfacet
facet normal 0.608761464937575 -9.584728766608546e-05 -0.7933533069322616
  outer loop
    vertex 31.01482477079012 51.03174362713873 24.99083747944407
    vertex 28.946154648917197 54.50914121895177 23.403070790902596
    vertex 31.015359509859557 54.509291586011734 24.990827666665517
  endloop
endfacet
facet normal -0.6087628536692268 9.137021135861296e-05 -0.7933522418472039
  outer loop
    vertex 41.85681470571201 54.507046511621766 25.10279145483578
    vertex 42.00219318766801 51.03086818645293 24.990837855915927
    vertex 41.85627996664257 51.02949855274877 25.102801267614336
  endloop
endfacet
facet normal -0.6087628536692268 9.137021135861296e-05 -0.7933522418472039
  outer loop
    vertex 42.00219318766801 51.03086818645293 24.990837855915927
    vertex 41.85681470571201 54.507046511621766 25.10279145483578
    vertex 42.00272792673745 54.508416145325924 24.99082804313737
  endloop
endfacet
facet normal 0.6087614649375743 -9.584728766655116e-05 -0.793353306932262
  outer loop
    vertex 6.954983997190033 54.50914121895172 23.403070790902593
    vertex 9.023654596181915 51.034846456402384 24.990837470688657
    vertex 6.954449735239548 51.03469608934239 23.403080594925736
  endloop
endfacet
facet normal 0.6087614649375743 -9.584728766655116e-05 -0.793353306932262
  outer loop
    vertex 9.023654596181915 51.034846456402384 24.990837470688657
    vertex 6.954983997190033 54.50914121895172 23.403070790902593
    vertex 9.024188858132401 54.50929158601171 24.990827666665517
  endloop
endfacet
facet normal -0.6087628536692149 9.137021135814541e-05 -0.7933522418472129
  outer loop
    vertex 19.865644053984838 54.507046511621716 25.102791454835774
    vertex 20.01102301305979 51.033971015716574 24.99083784716051
    vertex 19.865109792034353 51.03260138201239 25.102801258858918
  endloop
endfacet
facet normal -0.6087628536692149 9.137021135814541e-05 -0.7933522418472129
  outer loop
    vertex 20.01102301305979 51.033971015716574 24.99083784716051
    vertex 19.865644053984838 54.507046511621716 25.102791454835774
    vertex 20.011557275010276 54.5084161453259 24.99082804313737
  endloop
endfacet
facet normal -0.002561955100857132 -0.0005389245723749613 -0.999996572967311
  outer loop
    vertex 45.7716544305695 54.50650867255019 21.187951694922365
    vertex 46.50568933753489 51.02625325797543 21.187960305547456
    vertex 45.77111969150006 51.02896071367718 21.18796150770092
  endloop
endfacet
facet normal -0.002561955100857132 -0.0005389245723749613 -0.999996572967311
  outer loop
    vertex 46.50568933753489 51.02625325797543 21.187960305547456
    vertex 45.7716544305695 54.50650867255019 21.187951694922365
    vertex 46.51853283117111 54.510869868165 21.184187526642983
  endloop
endfacet
facet normal -9.489804805103726e-05 -0.9999998609729843 -0.0005186987300449209
  outer loop
    vertex 27.245899274840397 51.03191278207029 21.187961507700926
    vertex 22.080228866374657 51.03228573559277 23.40308059492573
    vertex 23.779949516891836 51.03206354294081 21.1879614989455
  endloop
endfacet
facet normal -9.489804805103726e-05 -0.9999998609729843 -0.0005186987300449209
  outer loop
    vertex 22.080228866374657 51.03228573559277 23.40308059492573
    vertex 27.245899274840397 51.03191278207029 21.187961507700926
    vertex 28.94561990984776 51.03159326007876 23.403080603681154
  endloop
endfacet
facet normal -9.489804805103726e-05 -0.9999998609729843 -0.0005186987300449209
  outer loop
    vertex 22.080228866374657 51.03228573559277 23.40308059492573
    vertex 28.94561990984776 51.03159326007876 23.403080603681154
    vertex 20.01102301305979 51.033971015716574 24.99083784716051
  endloop
endfacet
facet normal -9.489804805103726e-05 -0.9999998609729843 -0.0005186987300449209
  outer loop
    vertex 20.01102301305979 51.033971015716574 24.99083784716051
    vertex 28.94561990984776 51.03159326007876 23.403080603681154
    vertex 31.01482477079012 51.03174362713873 24.99083747944407
  endloop
endfacet
facet normal -9.489804805103726e-05 -0.9999998609729843 -0.0005186987300449209
  outer loop
    vertex 20.01102301305979 51.033971015716574 24.99083784716051
    vertex 31.01482477079012 51.03174362713873 24.99083747944407
    vertex 31.16073897228696 51.03120293023018 25.10280126761434
  endloop
endfacet
facet normal -9.489804805103726e-05 -0.9999998609729843 -0.0005186987300449209
  outer loop
    vertex 20.01102301305979 51.033971015716574 24.99083784716051
    vertex 31.16073897228696 51.03120293023018 25.10280126761434
    vertex 19.865109792034353 51.03260138201239 25.102801258858918
  endloop
endfacet
facet normal -9.489804805103726e-05 -0.9999998609729843 -0.0005186987300449209
  outer loop
    vertex 19.865109792034353 51.03260138201239 25.102801258858918
    vertex 31.16073897228696 51.03120293023018 25.10280126761434
    vertex 17.28554899812986 51.0329889714178 26.171290336419226
  endloop
endfacet
facet normal -9.489804805103726e-05 -0.9999998609729843 -0.0005186987300449209
  outer loop
    vertex 17.28554899812986 51.0329889714178 26.171290336419226
    vertex 31.16073897228696 51.03120293023018 25.10280126761434
    vertex 33.74029975871011 51.030768392858654 26.171290345174647
  endloop
endfacet
facet normal -9.489804805103726e-05 -0.9999998609729843 -0.0005186987300449209
  outer loop
    vertex 17.28554899812986 51.0329889714178 26.171290336419226
    vertex 33.74029975871011 51.030768392858654 26.171290345174647
    vertex 14.517339289839999 51.03342209023156 26.535732062732603
  endloop
endfacet
facet normal -9.489804805103726e-05 -0.9999998609729843 -0.0005186987300449209
  outer loop
    vertex 14.517339289839999 51.03342209023156 26.535732062732603
    vertex 33.74029975871011 51.030768392858654 26.171290345174647
    vertex 36.50850946444822 51.03031926096793 26.535732071488024
  endloop
endfacet
facet normal -9.489804805103726e-05 -0.9999998609729843 -0.0005186987300449209
  outer loop
    vertex 45.16356685766675 51.021836501268105 24.99007351109116
    vertex 42.00219318766801 51.03086818645293 24.990837855915927
    vertex 44.071399040982875 51.02918290632915 23.40308060368115
  endloop
endfacet
facet normal -9.489804805103726e-05 -0.9999998609729843 -0.0005186987300449209
  outer loop
    vertex 42.00219318766801 51.03086818645293 24.990837855915927
    vertex 45.16356685766675 51.021836501268105 24.99007351109116
    vertex 45.16229570796023 51.023631304712595 44.53637955714572
  endloop
endfacet
facet normal -9.489804805103726e-05 -0.9999998609729843 -0.0005186987300449209
  outer loop
    vertex 42.00219318766801 51.03086818645293 24.990837855915927
    vertex 45.16229570796023 51.023631304712595 44.53637955714572
    vertex 41.85627996664257 51.02949855274877 25.102801267614336
  endloop
endfacet
facet normal -9.489804805103726e-05 -0.9999998609729843 -0.0005186987300449209
  outer loop
    vertex 41.85627996664257 51.02949855274877 25.102801267614336
    vertex 45.16229570796023 51.023631304712595 44.53637955714572
    vertex 39.276719172738076 51.02988614215417 26.171290345174647
  endloop
endfacet
facet normal -9.489804805103726e-05 -0.9999998609729843 -0.0005186987300449209
  outer loop
    vertex 39.276719172738076 51.02988614215417 26.171290345174647
    vertex 45.16229570796023 51.023631304712595 44.53637955714572
    vertex 36.50850946444822 51.03031926096793 26.535732071488024
  endloop
endfacet
facet normal -9.489804805103726e-05 -0.9999998609729843 -0.0005186987300449209
  outer loop
    vertex 36.50850946444822 51.03031926096793 26.535732071488024
    vertex 45.16229570796023 51.023631304712595 44.53637955714572
    vertex 5.163505729176074 51.02422878209962 44.53536795866418
  endloop
endfacet
facet normal -9.489804805103726e-05 -0.9999998609729843 -0.0005186987300449209
  outer loop
    vertex 5.254729100232186 51.03501561133391 21.18796149894551
    vertex 4.521226035963896 51.022678254435895 24.990147157612803
    vertex 4.520670974340075 51.0349042445675 21.187961497805777
  endloop
endfacet
facet normal -9.489804805103726e-05 -0.9999998609729843 -0.0005186987300449209
  outer loop
    vertex 4.521226035963896 51.022678254435895 24.990147157612803
    vertex 5.254729100232186 51.03501561133391 21.18796149894551
    vertex 6.954449735239548 51.03469608934239 23.403080594925736
  endloop
endfacet
facet normal -9.489804805103726e-05 -0.9999998609729843 -0.0005186987300449209
  outer loop
    vertex 4.521226035963896 51.022678254435895 24.990147157612803
    vertex 6.954449735239548 51.03469608934239 23.403080594925736
    vertex 9.023654596181915 51.034846456402384 24.990837470688657
  endloop
endfacet
facet normal -9.489804805103726e-05 -0.9999998609729843 -0.0005186987300449209
  outer loop
    vertex 4.521226035963896 51.022678254435895 24.990147157612803
    vertex 9.023654596181915 51.034846456402384 24.990837470688657
    vertex 5.16384741701493 51.02251035278496 24.99881255389598
  endloop
endfacet
facet normal -9.489804805103726e-05 -0.9999998609729843 -0.0005186987300449209
  outer loop
    vertex 5.16384741701493 51.02251035278496 24.99881255389598
    vertex 9.023654596181915 51.034846456402384 24.990837470688657
    vertex 9.16956879767875 51.034305759493805 25.102801258858918
  endloop
endfacet
facet normal -9.489804805103726e-05 -0.9999998609729843 -0.0005186987300449209
  outer loop
    vertex 5.16384741701493 51.02251035278496 24.99881255389598
    vertex 9.16956879767875 51.034305759493805 25.102801258858918
    vertex 5.163505729176074 51.02422878209962 44.53536795866418
  endloop
endfacet
facet normal -9.489804805103726e-05 -0.9999998609729843 -0.0005186987300449209
  outer loop
    vertex 5.163505729176074 51.02422878209962 44.53536795866418
    vertex 9.16956879767875 51.034305759493805 25.102801258858918
    vertex 11.749129584101894 51.03387122212227 26.17129033641923
  endloop
endfacet
facet normal -9.489804805103726e-05 -0.9999998609729843 -0.0005186987300449209
  outer loop
    vertex 5.163505729176074 51.02422878209962 44.53536795866418
    vertex 11.749129584101894 51.03387122212227 26.17129033641923
    vertex 14.517339289839999 51.03342209023156 26.535732062732603
  endloop
endfacet
facet normal -9.489804805103726e-05 -0.9999998609729843 -0.0005186987300449209
  outer loop
    vertex 5.163505729176074 51.02422878209962 44.53536795866418
    vertex 14.517339289839999 51.03342209023156 26.535732062732603
    vertex 36.50850946444822 51.03031926096793 26.535732071488024
  endloop
endfacet
facet normal -9.489804805103726e-05 -0.9999998609729843 -0.0005186987300449209
  outer loop
    vertex 46.50569179338185 51.02185753920693 24.99021697224884
    vertex 45.77111969150006 51.02896071367718 21.18796150770092
    vertex 46.50568933753489 51.02625325797543 21.187960305547456
  endloop
endfacet
facet normal -9.489804805103726e-05 -0.9999998609729843 -0.0005186987300449209
  outer loop
    vertex 45.77111969150006 51.02896071367718 21.18796150770092
    vertex 46.50569179338185 51.02185753920693 24.99021697224884
    vertex 44.071399040982875 51.02918290632915 23.40308060368115
  endloop
endfacet
facet normal -9.489804805103726e-05 -0.9999998609729843 -0.0005186987300449209
  outer loop
    vertex 44.071399040982875 51.02918290632915 23.40308060368115
    vertex 46.50569179338185 51.02185753920693 24.99021697224884
    vertex 45.16356685766675 51.021836501268105 24.99007351109116
  endloop
endfacet
facet normal 6.571638971867342e-06 -4.20967016638793e-06 -0.9999999999695461
  outer loop
    vertex 4.52122378051563 54.504041865409526 21.187942071407196
    vertex 5.254729100232186 51.03501561133391 21.18796149894551
    vertex 4.520670974340075 51.0349042445675 21.187961497805777
  endloop
endfacet
facet normal 6.571638971867342e-06 -4.20967016638793e-06 -0.9999999999695461
  outer loop
    vertex 5.254729100232186 51.03501561133391 21.18796149894551
    vertex 4.52122378051563 54.504041865409526 21.187942071407196
    vertex 5.255263362182672 54.50946074094324 21.187951694922365
  endloop
endfacet
facet normal -0.9999999941979238 7.906290286085247e-05 7.31656312664368e-05
  outer loop
    vertex 4.5212246801116285 54.5096952043675 24.990827783788784
    vertex 4.520670974340075 51.0349042445675 21.187961497805777
    vertex 4.521226035963896 51.022678254435895 24.990147157612803
  endloop
endfacet
facet normal -0.9999999941979238 7.906290286085247e-05 7.31656312664368e-05
  outer loop
    vertex 4.520670974340075 51.0349042445675 21.187961497805777
    vertex 4.5212246801116285 54.5096952043675 24.990827783788784
    vertex 4.52122378051563 54.504041865409526 21.187942071407196
  endloop
endfacet
facet normal 0.9999888781087892 -0.004634457095622216 -0.0008749092262254168
  outer loop
    vertex 46.50568933753489 51.02625325797543 21.187960305547456
    vertex 46.52515059314993 54.5081136858245 24.990881512482257
    vertex 46.50569179338185 51.02185753920693 24.99021697224884
  endloop
endfacet
facet normal 0.9999888781087892 -0.004634457095622216 -0.0008749092262254168
  outer loop
    vertex 46.52515059314993 54.5081136858245 24.990881512482257
    vertex 46.50568933753489 51.02625325797543 21.187960305547456
    vertex 46.51853283117111 54.510869868165 21.184187526642983
  endloop
endfacet
facet normal 2.4033855961710034e-09 -2.8217525560829267e-06 -0.999999999996019
  outer loop
    vertex 23.780483778842324 54.50650867255014 21.18795169492236
    vertex 27.245899274840397 51.03191278207029 21.187961507700926
    vertex 23.779949516891836 51.03206354294081 21.1879614989455
  endloop
endfacet
facet normal 2.4033855961710034e-09 -2.8217525560829267e-06 -0.999999999996019
  outer loop
    vertex 27.245899274840397 51.03191278207029 21.187961507700926
    vertex 23.780483778842324 54.50650867255014 21.18795169492236
    vertex 27.246434013909838 54.50946074094329 21.18795169492237
  endloop
endfacet
facet normal 0.6087614163896804 -9.047556074951115e-05 -0.7933533448151606
  outer loop
    vertex 11.518399286548203 20.021576679445605 21.038014045378404
    vertex 10.275901331561059 14.772184607676527 20.085210508104495
    vertex 10.275842785931697 20.02171272634268 20.084566918052477
  endloop
endfacet
facet normal 0.6087614163896804 -9.047556074951115e-05 -0.7933533448151606
  outer loop
    vertex 10.275901331561059 14.772184607676527 20.085210508104495
    vertex 11.518399286548203 20.021576679445605 21.038014045378404
    vertex 11.518457832177562 14.77204856077945 21.03865763543042
  endloop
endfacet
facet normal 0.3826834212757243 -0.00010899936537669566 -0.9238795306747764
  outer loop
    vertex 12.965386978679446 20.021491146045648 21.637375965960516
    vertex 11.518457832177562 14.77204856077945 21.03865763543042
    vertex 11.518399286548203 20.021576679445605 21.038014045378404
  endloop
endfacet
facet normal 0.3826834212757243 -0.00010899936537669566 -0.9238795306747764
  outer loop
    vertex 11.518457832177562 14.77204856077945 21.03865763543042
    vertex 12.965386978679446 20.021491146045648 21.637375965960516
    vertex 12.965445524308796 14.77196302737949 21.63801955601253
  endloop
endfacet
facet normal 0.13052618776185146 -0.00012009504350477131 -0.9914448546871069
  outer loop
    vertex 14.518196042366908 20.02146195510266 21.84180715540355
    vertex 12.965445524308796 14.77196302737949 21.63801955601253
    vertex 12.965386978679446 20.021491146045648 21.637375965960516
  endloop
endfacet
facet normal 0.13052618776185146 -0.00012009504350477131 -0.9914448546871069
  outer loop
    vertex 12.965445524308796 14.77196302737949 21.63801955601253
    vertex 14.518196042366908 20.02146195510266 21.84180715540355
    vertex 14.51825458799626 14.771933836436505 21.842450745455565
  endloop
endfacet
facet normal -0.1305261876497465 -0.0001230064433579056 -0.9914448543449292
  outer loop
    vertex 16.0710051060586 20.021491095931168 21.63737596598548
    vertex 14.51825458799626 14.771933836436505 21.842450745455565
    vertex 14.518196042366908 20.02146195510266 21.84180715540355
  endloop
endfacet
facet normal -0.1305261876497465 -0.0001230064433579056 -0.9914448543449292
  outer loop
    vertex 14.51825458799626 14.771933836436505 21.842450745455565
    vertex 16.0710051060586 20.021491095931168 21.63737596598548
    vertex 16.071063651687954 14.771962977265014 21.638019556037495
  endloop
endfacet
facet normal -0.38268342046282444 -0.00011753515792219465 -0.9238795299650056
  outer loop
    vertex 17.517992798202243 20.021576582631873 21.038014045426632
    vertex 16.071063651687954 14.771962977265014 21.638019556037495
    vertex 16.0710051060586 20.021491095931168 21.63737596598548
  endloop
endfacet
facet normal -0.38268342046282444 -0.00011753515792219465 -0.9238795299650056
  outer loop
    vertex 16.071063651687954 14.771962977265014 21.638019556037495
    vertex 17.517992798202243 20.021576582631873 21.038014045426632
    vertex 17.518051343831598 14.772048463965719 21.038657635478646
  endloop
endfacet
facet normal -0.6087614146379442 -0.00010405404601197681 -0.793353344494598
  outer loop
    vertex 18.760549298838466 20.021712589427388 20.08456691812069
    vertex 17.518051343831598 14.772048463965719 21.038657635478646
    vertex 17.517992798202243 20.021576582631873 21.038014045426632
  endloop
endfacet
facet normal -0.6087614146379442 -0.00010405404601197681 -0.793353344494598
  outer loop
    vertex 17.518051343831598 14.772048463965719 21.038657635478646
    vertex 18.760549298838466 20.021712589427388 20.08456691812069
    vertex 18.76060784446782 14.772184470761232 20.085210508172704
  endloop
endfacet
facet normal 2.0262067736915545e-08 -0.00012259959970619343 -0.999999992484669
  outer loop
    vertex 20.317978054865154 20.022051818438886 20.084575798666886
    vertex 18.76060784446782 14.772184470761232 20.085210508172704
    vertex 18.760549298838466 20.021712589427388 20.08456691812069
  endloop
endfacet
facet normal 2.0262067736915545e-08 -0.00012259959970619343 -0.999999992484669
  outer loop
    vertex 18.76060784446782 14.772184470761232 20.085210508172704
    vertex 20.317978054865154 20.022051818438886 20.084575798666886
    vertex 20.318036600494505 14.77252369977273 20.085219388718905
  endloop
endfacet
facet normal 0.9999999997103384 9.980307481764472e-06 -2.1902437425676967e-05
  outer loop
    vertex 20.318036600494505 14.77252369977273 20.085219388718905
    vertex 20.318092085432895 20.022268574251346 25.010683596357058
    vertex 20.318138343877255 14.772253100247376 25.010717112057446
  endloop
endfacet
facet normal 0.9999999997103384 9.980307481764472e-06 -2.1902437425676967e-05
  outer loop
    vertex 20.318092085432895 20.022268574251346 25.010683596357058
    vertex 20.318036600494505 14.77252369977273 20.085219388718905
    vertex 20.317978054865154 20.022051818438886 20.084575798666886
  endloop
endfacet
facet normal -1.2762748821790163e-08 -0.00012259960007450434 -0.9999999924846689
  outer loop
    vertex 32.266690590085226 20.021198140764273 20.084566919199496
    vertex 30.709508972514598 14.771804180929522 20.08521051902398
    vertex 30.70945042688524 20.02133229959568 20.084566928971963
  endloop
endfacet
facet normal -1.2762748821790163e-08 -0.00012259960007450434 -0.9999999924846689
  outer loop
    vertex 30.709508972514598 14.771804180929522 20.08521051902398
    vertex 32.266690590085226 20.021198140764273 20.084566919199496
    vertex 32.26674913571459 14.771670022098114 20.085210509251514
  endloop
endfacet
facet normal 0.6087614163896804 -9.047556074951113e-05 -0.7933533448151606
  outer loop
    vertex 33.509247090701734 20.021062093867197 21.03801404652542
    vertex 32.26674913571459 14.771670022098114 20.085210509251514
    vertex 32.266690590085226 20.021198140764273 20.084566919199496
  endloop
endfacet
facet normal 0.6087614163896804 -9.047556074951113e-05 -0.7933533448151606
  outer loop
    vertex 32.26674913571459 14.771670022098114 20.085210509251514
    vertex 33.509247090701734 20.021062093867197 21.03801404652542
    vertex 33.50930563633109 14.771533975201038 21.038657636577437
  endloop
endfacet
facet normal 0.3826834212757243 -0.00010899936537669565 -0.9238795306747764
  outer loop
    vertex 34.95623478283297 20.02097656046724 21.63737596710753
    vertex 33.50930563633109 14.771533975201038 21.038657636577437
    vertex 33.509247090701734 20.021062093867197 21.03801404652542
  endloop
endfacet
facet normal 0.3826834212757243 -0.00010899936537669565 -0.9238795306747764
  outer loop
    vertex 33.50930563633109 14.771533975201038 21.038657636577437
    vertex 34.95623478283297 20.02097656046724 21.63737596710753
    vertex 34.95629332846234 14.771448441801079 21.63801955715955
  endloop
endfacet
facet normal 0.13052618776185146 -0.00012009504350477129 -0.9914448546871069
  outer loop
    vertex 36.509043846520434 20.02094736952425 21.841807156550566
    vertex 34.95629332846234 14.771448441801079 21.63801955715955
    vertex 34.95623478283297 20.02097656046724 21.63737596710753
  endloop
endfacet
facet normal 0.13052618776185146 -0.00012009504350477129 -0.9914448546871069
  outer loop
    vertex 34.95629332846234 14.771448441801079 21.63801955715955
    vertex 36.509043846520434 20.02094736952425 21.841807156550566
    vertex 36.5091023921498 14.771419250858091 21.842450746602584
  endloop
endfacet
facet normal -0.1305261876497465 -0.00012300644335790559 -0.9914448543449292
  outer loop
    vertex 38.06185291021213 20.02097651035276 21.637375967132495
    vertex 36.5091023921498 14.771419250858091 21.842450746602584
    vertex 36.509043846520434 20.02094736952425 21.841807156550566
  endloop
endfacet
facet normal -0.1305261876497465 -0.00012300644335790559 -0.9914448543449292
  outer loop
    vertex 36.5091023921498 14.771419250858091 21.842450746602584
    vertex 38.06185291021213 20.02097651035276 21.637375967132495
    vertex 38.06191145584149 14.7714483916866 21.638019557184514
  endloop
endfacet
facet normal -0.38268342046282444 -0.00011753515792219463 -0.9238795299650056
  outer loop
    vertex 39.508840602355775 20.021061997053465 21.038014046573647
    vertex 38.06191145584149 14.7714483916866 21.638019557184514
    vertex 38.06185291021213 20.02097651035276 21.637375967132495
  endloop
endfacet
facet normal -0.38268342046282444 -0.00011753515792219463 -0.9238795299650056
  outer loop
    vertex 38.06191145584149 14.7714483916866 21.638019557184514
    vertex 39.508840602355775 20.021061997053465 21.038014046573647
    vertex 39.50889914798513 14.771533878387306 21.038657636625665
  endloop
endfacet
facet normal -0.6087614146379442 -0.0001040540460119768 -0.793353344494598
  outer loop
    vertex 40.751397102991994 20.021198003848976 20.084566919267704
    vertex 39.50889914798513 14.771533878387306 21.038657636625665
    vertex 39.508840602355775 20.021061997053465 21.038014046573647
  endloop
endfacet
facet normal -0.6087614146379442 -0.0001040540460119768 -0.793353344494598
  outer loop
    vertex 39.50889914798513 14.771533878387306 21.038657636625665
    vertex 40.751397102991994 20.021198003848976 20.084566919267704
    vertex 40.75145564862136 14.771669885182819 20.085210509319722
  endloop
endfacet
facet normal 2.026206773691554e-08 -0.0001225995997061934 -0.999999992484669
  outer loop
    vertex 42.30882585901868 20.021537232860478 20.084575799813905
    vertex 40.75145564862136 14.771669885182819 20.085210509319722
    vertex 40.751397102991994 20.021198003848976 20.084566919267704
  endloop
endfacet
facet normal 2.026206773691554e-08 -0.0001225995997061934 -0.999999992484669
  outer loop
    vertex 40.75145564862136 14.771669885182819 20.085210509319722
    vertex 42.30882585901868 20.021537232860478 20.084575799813905
    vertex 42.30888440464804 14.772009114194319 20.085219389865923
  endloop
endfacet
facet normal 0.9999999997614462 8.362509294178154e-06 -2.017861197012922e-05
  outer loop
    vertex 42.30882585901868 20.021537232860478 20.084575799813905
    vertex 42.308969154953374 14.772523238650063 25.01068362253607
    vertex 42.30888440464804 14.772009114194319 20.085219389865923
  endloop
endfacet
facet normal 0.9999999997614462 8.362509294178154e-06 -2.017861197012922e-05
  outer loop
    vertex 42.308969154953374 14.772523238650063 25.01068362253607
    vertex 42.30882585901868 20.021537232860478 20.084575799813905
    vertex 42.30893988958764 20.022011281464884 25.010683623213513
  endloop
endfacet
facet normal -1.2762748821790167e-08 -0.00012259960007450437 -0.9999999924846689
  outer loop
    vertex 10.275842785931697 20.02171272634268 20.084566918052477
    vertex 8.718661168361068 14.772318766507933 20.085210517876963
    vertex 8.718602622731709 20.02184688517409 20.084566927824948
  endloop
endfacet
facet normal -1.2762748821790167e-08 -0.00012259960007450437 -0.9999999924846689
  outer loop
    vertex 8.718661168361068 14.772318766507933 20.085210517876963
    vertex 10.275842785931697 20.02171272634268 20.084566918052477
    vertex 10.275901331561059 14.772184607676527 20.085210508104495
  endloop
endfacet
facet normal -0.9999999999605718 -8.364814797170006e-06 -2.9810441043353533e-06
  outer loop
    vertex 8.718631843365877 14.772854600677135 25.010683605012574
    vertex 8.718602622731709 20.02184688517409 20.084566927824948
    vertex 8.718661168361068 14.772318766507933 20.085210517876963
  endloop
endfacet
facet normal -0.9999999999605718 -8.364814797170006e-06 -2.9810441043353533e-06
  outer loop
    vertex 8.718602622731709 20.02184688517409 20.084566927824948
    vertex 8.718631843365877 14.772854600677135 25.010683605012574
    vertex 8.718602570547787 20.022176963895646 25.010683605012265
  endloop
endfacet
facet normal -0.9999999997154769 2.0081050877342076e-05 -1.2876238797753878e-05
  outer loop
    vertex -0.0011574894858312759 0.019587353499243648 44.54215156084537
    vertex 0.0 20.02197113843533 25.01068362740368
    vertex -0.0013438200786791833 0.017269400850156925 25.012365197925885
  endloop
endfacet
facet normal -0.9999999997154769 2.0081050877342076e-05 -1.2876238797753878e-05
  outer loop
    vertex 0.0 20.02197113843533 25.01068362740368
    vertex -0.0011574894858312759 0.019587353499243648 44.54215156084537
    vertex -0.00032100242189750806 54.51193056852266 44.53455316448942
  endloop
endfacet
facet normal -0.9999999997154769 2.0081050877342076e-05 -1.2876238797753878e-05
  outer loop
    vertex 0.0 20.02197113843533 25.01068362740368
    vertex -0.00032100242189750806 54.51193056852266 44.53455316448942
    vertex -2.7539029388044056e-05 54.50927395527754 25.005307105551033
  endloop
endfacet
facet normal 0.9999999965074307 4.8106031335886295e-05 -6.834433666746648e-05
  outer loop
    vertex 50.9287529738877 51.021500639326376 25.00750220423941
    vertex 50.931960281537556 0.019409871840632826 44.54245894526803
    vertex 50.93266125201675 0.017083089978032182 25.0126731196311
  endloop
endfacet
facet normal 0.9999999965074307 4.8106031335886295e-05 -6.834433666746648e-05
  outer loop
    vertex 50.931960281537556 0.019409871840632826 44.54245894526803
    vertex 50.9287529738877 51.021500639326376 25.00750220423941
    vertex 50.930521257708996 54.51248341768944 44.53675799812363
  endloop
endfacet
facet normal 0.9999999965074307 4.8106031335886295e-05 -6.834433666746648e-05
  outer loop
    vertex 50.930521257708996 54.51248341768944 44.53675799812363
    vertex 50.9287529738877 51.021500639326376 25.00750220423941
    vertex 50.928266492042134 54.510033095979246 25.00775862500178
  endloop
endfacet
facet normal 0.0007018945527259084 -0.000361740652697456 -0.9999996882438201
  outer loop
    vertex 42.35137615118439 20.022160034112147 25.0105291900655
    vertex 42.308969154953374 14.772523238650063 25.01068362253607
    vertex 42.30893988958764 20.022011281464884 25.010683623213513
  endloop
endfacet
facet normal 0.0007018945527259084 -0.000361740652697456 -0.9999996882438201
  outer loop
    vertex 42.308969154953374 14.772523238650063 25.01068362253607
    vertex 42.35137615118439 20.022160034112147 25.0105291900655
    vertex 45.16390098513084 14.772208864183817 25.01290923157003
  endloop
endfacet
facet normal 0.0007018945527259084 -0.000361740652697456 -0.9999996882438201
  outer loop
    vertex 45.16390098513084 14.772208864183817 25.01290923157003
    vertex 42.35137615118439 20.022160034112147 25.0105291900655
    vertex 45.16356685766178 20.021970701179885 25.00030683759342
  endloop
endfacet
facet normal 0.0007018945527259084 -0.000361740652697456 -0.9999996882438201
  outer loop
    vertex 45.16390098513084 14.772208864183817 25.01290923157003
    vertex 45.16356685766178 20.021970701179885 25.00030683759342
    vertex 45.16356685766675 51.021836501268105 24.99007351109116
  endloop
endfacet
facet normal 0.0007018945527259084 -0.000361740652697456 -0.9999996882438201
  outer loop
    vertex 45.16390098513084 14.772208864183817 25.01290923157003
    vertex 45.16356685766675 51.021836501268105 24.99007351109116
    vertex 46.50569179338185 51.02185753920693 24.99021697224884
  endloop
endfacet
facet normal 0.0007018945527259084 -0.000361740652697456 -0.9999996882438201
  outer loop
    vertex 45.16390098513084 14.772208864183817 25.01290923157003
    vertex 46.50569179338185 51.02185753920693 24.99021697224884
    vertex 45.164358925508296 0.01669660691398303 25.015126208220636
  endloop
endfacet
facet normal 0.0007018945527259084 -0.000361740652697456 -0.9999996882438201
  outer loop
    vertex 45.164358925508296 0.01669660691398303 25.015126208220636
    vertex 46.50569179338185 51.02185753920693 24.99021697224884
    vertex 50.93266125201675 0.017083089978032182 25.0126731196311
  endloop
endfacet
facet normal 0.0007018945527259084 -0.000361740652697456 -0.9999996882438201
  outer loop
    vertex 50.93266125201675 0.017083089978032182 25.0126731196311
    vertex 46.50569179338185 51.02185753920693 24.99021697224884
    vertex 46.52515059314993 54.5081136858245 24.990881512482257
  endloop
endfacet
facet normal 0.0007018945527259084 -0.000361740652697456 -0.9999996882438201
  outer loop
    vertex 50.93266125201675 0.017083089978032182 25.0126731196311
    vertex 46.52515059314993 54.5081136858245 24.990881512482257
    vertex 50.928266492042134 54.510033095979246 25.00775862500178
  endloop
endfacet
facet normal 0.0007018945527259084 -0.000361740652697456 -0.9999996882438201
  outer loop
    vertex 50.93266125201675 0.017083089978032182 25.0126731196311
    vertex 50.928266492042134 54.510033095979246 25.00775862500178
    vertex 50.9287529738877 51.021500639326376 25.00750220423941
  endloop
endfacet
facet normal -0.9999999999605746 -8.364541469231855e-06 -2.9808256376429218e-06
  outer loop
    vertex 30.709479647519405 14.772340015101642 25.010683633003033
    vertex 30.70945042688524 20.02133229959568 20.084566928971963
    vertex 30.709508972514598 14.771804180929522 20.08521051902398
  endloop
endfacet
facet normal -0.9999999999605746 -8.364541469231855e-06 -2.9808256376429218e-06
  outer loop
    vertex 30.70945042688524 20.02133229959568 20.084566928971963
    vertex 30.709479647519405 14.772340015101642 25.010683633003033
    vertex 30.70945037470132 20.021919671109426 25.010683633002724
  endloop
endfacet
facet normal -1.609185444677714e-06 -3.192238647494998e-06 -0.9999999999936102
  outer loop
    vertex 30.70945037470132 20.021919671109426 25.010683633002724
    vertex 20.318138343877255 14.772253100247376 25.010717112057446
    vertex 20.318092085432895 20.022268574251346 25.010683596357058
  endloop
endfacet
facet normal -1.609185444677714e-06 -3.192238647494998e-06 -0.9999999999936102
  outer loop
    vertex 20.318138343877255 14.772253100247376 25.010717112057446
    vertex 30.70945037470132 20.021919671109426 25.010683633002724
    vertex 30.709479647519405 14.772340015101642 25.010683633003033
  endloop
endfacet
facet normal -3.6649697400872143e-06 0.999999977080971 -0.0002140668719564698
  outer loop
    vertex 4.5212246801116285 54.5096952043675 24.990827783788784
    vertex 5.255263362182672 54.50946074094324 21.187951694922365
    vertex 4.52122378051563 54.504041865409526 21.187942071407196
  endloop
endfacet
facet normal -3.6649697400872143e-06 0.999999977080971 -0.0002140668719564698
  outer loop
    vertex 5.255263362182672 54.50946074094324 21.187951694922365
    vertex 4.5212246801116285 54.5096952043675 24.990827783788784
    vertex 6.954983997190033 54.50914121895172 23.403070790902593
  endloop
endfacet
facet normal -3.6649697400872143e-06 0.999999977080971 -0.0002140668719564698
  outer loop
    vertex 6.954983997190033 54.50914121895172 23.403070790902593
    vertex 4.5212246801116285 54.5096952043675 24.990827783788784
    vertex 9.024188858132401 54.50929158601171 24.990827666665517
  endloop
endfacet
facet normal -3.6649697400872143e-06 0.999999977080971 -0.0002140668719564698
  outer loop
    vertex 9.024188858132401 54.50929158601171 24.990827666665517
    vertex 4.5212246801116285 54.5096952043675 24.990827783788784
    vertex 9.170103059629234 54.50875088910313 25.102791454835778
  endloop
endfacet
facet normal -3.6649697400872143e-06 0.999999977080971 -0.0002140668719564698
  outer loop
    vertex 9.170103059629234 54.50875088910313 25.102791454835778
    vertex 4.5212246801116285 54.5096952043675 24.990827783788784
    vertex -2.7539029388044056e-05 54.50927395527754 25.005307105551033
  endloop
endfacet
facet normal -3.6649697400872143e-06 0.999999977080971 -0.0002140668719564698
  outer loop
    vertex 9.170103059629234 54.50875088910313 25.102791454835778
    vertex -2.7539029388044056e-05 54.50927395527754 25.005307105551033
    vertex -0.00032100242189750806 54.51193056852266 44.53455316448942
  endloop
endfacet
facet normal -3.6649697400872143e-06 0.999999977080971 -0.0002140668719564698
  outer loop
    vertex 9.170103059629234 54.50875088910313 25.102791454835778
    vertex -0.00032100242189750806 54.51193056852266 44.53455316448942
    vertex 11.74966384605238 54.5083163517316 26.171280532396086
  endloop
endfacet
facet normal -3.6649697400872143e-06 0.999999977080971 -0.0002140668719564698
  outer loop
    vertex 11.74966384605238 54.5083163517316 26.171280532396086
    vertex -0.00032100242189750806 54.51193056852266 44.53455316448942
    vertex 14.517873551790485 54.50786721984089 26.53572225870946
  endloop
endfacet
facet normal -3.6649697400872143e-06 0.999999977080971 -0.0002140668719564698
  outer loop
    vertex 14.517873551790485 54.50786721984089 26.53572225870946
    vertex -0.00032100242189750806 54.51193056852266 44.53455316448942
    vertex 36.509044203517654 54.50786721984094 26.535722258709466
  endloop
endfacet
facet normal -3.6649697400872143e-06 0.999999977080971 -0.0002140668719564698
  outer loop
    vertex 45.7716544305695 54.50650867255019 21.187951694922365
    vertex 46.52515059314993 54.5081136858245 24.990881512482257
    vertex 46.51853283117111 54.510869868165 21.184187526642983
  endloop
endfacet
facet normal -3.6649697400872143e-06 0.999999977080971 -0.0002140668719564698
  outer loop
    vertex 46.52515059314993 54.5081136858245 24.990881512482257
    vertex 45.7716544305695 54.50650867255019 21.187951694922365
    vertex 44.07193378005232 54.506730865202144 23.403070790902593
  endloop
endfacet
facet normal -3.6649697400872143e-06 0.999999977080971 -0.0002140668719564698
  outer loop
    vertex 46.52515059314993 54.5081136858245 24.990881512482257
    vertex 44.07193378005232 54.506730865202144 23.403070790902593
    vertex 42.00272792673745 54.508416145325924 24.99082804313737
  endloop
endfacet
facet normal -3.6649697400872143e-06 0.999999977080971 -0.0002140668719564698
  outer loop
    vertex 46.52515059314993 54.5081136858245 24.990881512482257
    vertex 42.00272792673745 54.508416145325924 24.99082804313737
    vertex 41.85681470571201 54.507046511621766 25.10279145483578
  endloop
endfacet
facet normal -3.6649697400872143e-06 0.999999977080971 -0.0002140668719564698
  outer loop
    vertex 46.52515059314993 54.5081136858245 24.990881512482257
    vertex 41.85681470571201 54.507046511621766 25.10279145483578
    vertex 50.928266492042134 54.510033095979246 25.00775862500178
  endloop
endfacet
facet normal -3.6649697400872143e-06 0.999999977080971 -0.0002140668719564698
  outer loop
    vertex 50.928266492042134 54.510033095979246 25.00775862500178
    vertex 41.85681470571201 54.507046511621766 25.10279145483578
    vertex 50.930521257708996 54.51248341768944 44.53675799812363
  endloop
endfacet
facet normal -3.6649697400872143e-06 0.999999977080971 -0.0002140668719564698
  outer loop
    vertex 50.930521257708996 54.51248341768944 44.53675799812363
    vertex 41.85681470571201 54.507046511621766 25.10279145483578
    vertex 39.27725391180751 54.50743410102717 26.171280532396086
  endloop
endfacet
facet normal -3.6649697400872143e-06 0.999999977080971 -0.0002140668719564698
  outer loop
    vertex 50.930521257708996 54.51248341768944 44.53675799812363
    vertex 39.27725391180751 54.50743410102717 26.171280532396086
    vertex 36.509044203517654 54.50786721984094 26.535722258709466
  endloop
endfacet
facet normal -3.6649697400872143e-06 0.999999977080971 -0.0002140668719564698
  outer loop
    vertex 50.930521257708996 54.51248341768944 44.53675799812363
    vertex 36.509044203517654 54.50786721984094 26.535722258709466
    vertex -0.00032100242189750806 54.51193056852266 44.53455316448942
  endloop
endfacet
facet normal -3.6649697400872143e-06 0.999999977080971 -0.0002140668719564698
  outer loop
    vertex 22.08076312832514 54.5067308652021 23.40307079090259
    vertex 27.246434013909838 54.50946074094329 21.18795169492237
    vertex 23.780483778842324 54.50650867255014 21.18795169492236
  endloop
endfacet
facet normal -3.6649697400872143e-06 0.999999977080971 -0.0002140668719564698
  outer loop
    vertex 27.246434013909838 54.50946074094329 21.18795169492237
    vertex 22.08076312832514 54.5067308652021 23.40307079090259
    vertex 28.946154648917197 54.50914121895177 23.403070790902596
  endloop
endfacet
facet normal -3.6649697400872143e-06 0.999999977080971 -0.0002140668719564698
  outer loop
    vertex 28.946154648917197 54.50914121895177 23.403070790902596
    vertex 22.08076312832514 54.5067308652021 23.40307079090259
    vertex 20.011557275010276 54.5084161453259 24.99082804313737
  endloop
endfacet
facet normal -3.6649697400872143e-06 0.999999977080971 -0.0002140668719564698
  outer loop
    vertex 28.946154648917197 54.50914121895177 23.403070790902596
    vertex 20.011557275010276 54.5084161453259 24.99082804313737
    vertex 31.015359509859557 54.509291586011734 24.990827666665517
  endloop
endfacet
facet normal -3.6649697400872143e-06 0.999999977080971 -0.0002140668719564698
  outer loop
    vertex 31.015359509859557 54.509291586011734 24.990827666665517
    vertex 20.011557275010276 54.5084161453259 24.99082804313737
    vertex 31.1612737113564 54.508750889103176 25.102791454835785
  endloop
endfacet
facet normal -3.6649697400872143e-06 0.999999977080971 -0.0002140668719564698
  outer loop
    vertex 31.1612737113564 54.508750889103176 25.102791454835785
    vertex 20.011557275010276 54.5084161453259 24.99082804313737
    vertex 19.865644053984838 54.507046511621716 25.102791454835774
  endloop
endfacet
facet normal -3.6649697400872143e-06 0.999999977080971 -0.0002140668719564698
  outer loop
    vertex 31.1612737113564 54.508750889103176 25.102791454835785
    vertex 19.865644053984838 54.507046511621716 25.102791454835774
    vertex 17.286083260080343 54.50743410102713 26.171280532396082
  endloop
endfacet
facet normal -3.6649697400872143e-06 0.999999977080971 -0.0002140668719564698
  outer loop
    vertex 31.1612737113564 54.508750889103176 25.102791454835785
    vertex 17.286083260080343 54.50743410102713 26.171280532396082
    vertex 33.740834497779545 54.508316351731644 26.171280532396086
  endloop
endfacet
facet normal -3.6649697400872143e-06 0.999999977080971 -0.0002140668719564698
  outer loop
    vertex 33.740834497779545 54.508316351731644 26.171280532396086
    vertex 17.286083260080343 54.50743410102713 26.171280532396082
    vertex 14.517873551790485 54.50786721984089 26.53572225870946
  endloop
endfacet
facet normal -3.6649697400872143e-06 0.999999977080971 -0.0002140668719564698
  outer loop
    vertex 33.740834497779545 54.508316351731644 26.171280532396086
    vertex 14.517873551790485 54.50786721984089 26.53572225870946
    vertex 36.509044203517654 54.50786721984094 26.535722258709466
  endloop
endfacet
facet normal -8.890184571177843e-06 0.9999999962887738 -8.569373982143993e-05
  outer loop
    vertex 8.718602622731709 20.02184688517409 20.084566927824948
    vertex 11.518399286548203 20.021576679445605 21.038014045378404
    vertex 10.275842785931697 20.02171272634268 20.084566918052477
  endloop
endfacet
facet normal -8.890184571177843e-06 0.9999999962887738 -8.569373982143993e-05
  outer loop
    vertex 11.518399286548203 20.021576679445605 21.038014045378404
    vertex 8.718602622731709 20.02184688517409 20.084566927824948
    vertex 8.718602570547787 20.022176963895646 25.010683605012265
  endloop
endfacet
facet normal -8.890184571177843e-06 0.9999999962887738 -8.569373982143993e-05
  outer loop
    vertex 11.518399286548203 20.021576679445605 21.038014045378404
    vertex 8.718602570547787 20.022176963895646 25.010683605012265
    vertex 12.965386978679446 20.021491146045648 21.637375965960516
  endloop
endfacet
facet normal -8.890184571177843e-06 0.9999999962887738 -8.569373982143993e-05
  outer loop
    vertex 12.965386978679446 20.021491146045648 21.637375965960516
    vertex 8.718602570547787 20.022176963895646 25.010683605012265
    vertex 14.518196042366908 20.02146195510266 21.84180715540355
  endloop
endfacet
facet normal -8.890184571177843e-06 0.9999999962887738 -8.569373982143993e-05
  outer loop
    vertex 14.518196042366908 20.02146195510266 21.84180715540355
    vertex 8.718602570547787 20.022176963895646 25.010683605012265
    vertex 20.318092085432895 20.022268574251346 25.010683596357058
  endloop
endfacet
facet normal -8.890184571177843e-06 0.9999999962887738 -8.569373982143993e-05
  outer loop
    vertex 17.517992798202243 20.021576582631873 21.038014045426632
    vertex 20.317978054865154 20.022051818438886 20.084575798666886
    vertex 18.760549298838466 20.021712589427388 20.08456691812069
  endloop
endfacet
facet normal -8.890184571177843e-06 0.9999999962887738 -8.569373982143993e-05
  outer loop
    vertex 20.317978054865154 20.022051818438886 20.084575798666886
    vertex 17.517992798202243 20.021576582631873 21.038014045426632
    vertex 20.318092085432895 20.022268574251346 25.010683596357058
  endloop
endfacet
facet normal -8.890184571177843e-06 0.9999999962887738 -8.569373982143993e-05
  outer loop
    vertex 20.318092085432895 20.022268574251346 25.010683596357058
    vertex 17.517992798202243 20.021576582631873 21.038014045426632
    vertex 16.0710051060586 20.021491095931168 21.63737596598548
  endloop
endfacet
facet normal -8.890184571177843e-06 0.9999999962887738 -8.569373982143993e-05
  outer loop
    vertex 20.318092085432895 20.022268574251346 25.010683596357058
    vertex 16.0710051060586 20.021491095931168 21.63737596598548
    vertex 14.518196042366908 20.02146195510266 21.84180715540355
  endloop
endfacet
facet normal -0.0034168239546445334 -0.0008422545669235645 -0.999993807941483
  outer loop
    vertex 4.5212246801116285 54.5096952043675 24.990827783788784
    vertex 3.8217224735033737 51.022508408385065 24.998802947696618
    vertex -2.7539029388044056e-05 54.50927395527754 25.005307105551033
  endloop
endfacet
facet normal -0.0034168239546445334 -0.0008422545669235645 -0.999993807941483
  outer loop
    vertex 3.8217224735033737 51.022508408385065 24.998802947696618
    vertex 4.5212246801116285 54.5096952043675 24.990827783788784
    vertex 4.521226035963896 51.022678254435895 24.990147157612803
  endloop
endfacet
facet normal -0.00017992535678827915 -0.0003196149976300895 -0.9999999327365575
  outer loop
    vertex 3.8217224735033737 51.022508408385065 24.998802947696618
    vertex 0.0 20.02197113843533 25.01068362740368
    vertex -2.7539029388044056e-05 54.50927395527754 25.005307105551033
  endloop
endfacet
facet normal -0.00017992535678827915 -0.0003196149976300895 -0.9999999327365575
  outer loop
    vertex 0.0 20.02197113843533 25.01068362740368
    vertex 5.1648449795753635 0.01677151791943779 25.01455611816641
    vertex -0.0013438200786791833 0.017269400850156925 25.012365197925885
  endloop
endfacet
facet normal -0.00017992535678827915 -0.0003196149976300895 -0.9999999327365575
  outer loop
    vertex 5.1648449795753635 0.01677151791943779 25.01455611816641
    vertex 0.0 20.02197113843533 25.01068362740368
    vertex 3.8217224735033737 51.022508408385065 24.998802947696618
  endloop
endfacet
facet normal -0.00017992535678827915 -0.0003196149976300895 -0.9999999327365575
  outer loop
    vertex 5.1648449795753635 0.01677151791943779 25.01455611816641
    vertex 3.8217224735033737 51.022508408385065 24.998802947696618
    vertex 4.521226035963896 51.022678254435895 24.990147157612803
  endloop
endfacet
facet normal -0.00017992535678827915 -0.0003196149976300895 -0.9999999327365575
  outer loop
    vertex 5.1648449795753635 0.01677151791943779 25.01455611816641
    vertex 4.521226035963896 51.022678254435895 24.990147157612803
    vertex 5.163888372685052 20.0220633055757 25.010693223787857
  endloop
endfacet
facet normal -0.00017992535678827915 -0.0003196149976300895 -0.9999999327365575
  outer loop
    vertex 5.163888372685052 20.0220633055757 25.010693223787857
    vertex 4.521226035963896 51.022678254435895 24.990147157612803
    vertex 5.16384741701493 51.02251035278496 24.99881255389598
  endloop
endfacet
facet normal -0.00017992535678827915 -0.0003196149976300895 -0.9999999327365575
  outer loop
    vertex 5.1648449795753635 0.01677151791943779 25.01455611816641
    vertex 5.163888372685052 20.0220633055757 25.010693223787857
    vertex 5.166225389368381 14.772283791627114 25.01290261708822
  endloop
endfacet
facet normal -0.00017992535678827915 -0.0003196149976300895 -0.9999999327365575
  outer loop
    vertex 5.166225389368381 14.772283791627114 25.01290261708822
    vertex 5.163888372685052 20.0220633055757 25.010693223787857
    vertex 8.718602570547787 20.022176963895646 25.010683605012265
  endloop
endfacet
facet normal -0.00017992535678827915 -0.0003196149976300895 -0.9999999327365575
  outer loop
    vertex 5.166225389368381 14.772283791627114 25.01290261708822
    vertex 8.718602570547787 20.022176963895646 25.010683605012265
    vertex 8.718631843365877 14.772854600677135 25.010683605012574
  endloop
endfacet
facet normal -0.0034168239546445334 -0.0008422545669235645 -0.999993807941483
  outer loop
    vertex 4.5212246801116285 54.5096952043675 24.990827783788784
    vertex 3.8217224735033737 51.022508408385065 24.998802947696618
    vertex -2.7539029388044056e-05 54.50927395527754 25.005307105551033
  endloop
endfacet
facet normal -0.0034168239546445334 -0.0008422545669235645 -0.999993807941483
  outer loop
    vertex 3.8217224735033737 51.022508408385065 24.998802947696618
    vertex 4.5212246801116285 54.5096952043675 24.990827783788784
    vertex 4.521226035963896 51.022678254435895 24.990147157612803
  endloop
endfacet
facet normal -1.0198868501339175e-05 -0.9999999944089975 0.00010525202208484228
  outer loop
    vertex 42.30888440464804 14.772009114194319 20.085219389865923
    vertex 39.50889914798513 14.771533878387306 21.038657636625665
    vertex 40.75145564862136 14.771669885182819 20.085210509319722
  endloop
endfacet
facet normal -1.0198868501339175e-05 -0.9999999944089975 0.00010525202208484228
  outer loop
    vertex 39.50889914798513 14.771533878387306 21.038657636625665
    vertex 42.30888440464804 14.772009114194319 20.085219389865923
    vertex 42.308969154953374 14.772523238650063 25.01068362253607
  endloop
endfacet
facet normal -1.0198868501339175e-05 -0.9999999944089975 0.00010525202208484228
  outer loop
    vertex 39.50889914798513 14.771533878387306 21.038657636625665
    vertex 42.308969154953374 14.772523238650063 25.01068362253607
    vertex 38.06191145584149 14.7714483916866 21.638019557184514
  endloop
endfacet
facet normal -1.0198868501339175e-05 -0.9999999944089975 0.00010525202208484228
  outer loop
    vertex 38.06191145584149 14.7714483916866 21.638019557184514
    vertex 42.308969154953374 14.772523238650063 25.01068362253607
    vertex 36.5091023921498 14.771419250858091 21.842450746602584
  endloop
endfacet
facet normal -1.0198868501339175e-05 -0.9999999944089975 0.00010525202208484228
  outer loop
    vertex 33.50930563633109 14.771533975201038 21.038657636577437
    vertex 30.709508972514598 14.771804180929522 20.08521051902398
    vertex 32.26674913571459 14.771670022098114 20.085210509251514
  endloop
endfacet
facet normal -1.0198868501339175e-05 -0.9999999944089975 0.00010525202208484228
  outer loop
    vertex 30.709508972514598 14.771804180929522 20.08521051902398
    vertex 33.50930563633109 14.771533975201038 21.038657636577437
    vertex 30.709479647519405 14.772340015101642 25.010683633003033
  endloop
endfacet
facet normal -1.0198868501339175e-05 -0.9999999944089975 0.00010525202208484228
  outer loop
    vertex 30.709479647519405 14.772340015101642 25.010683633003033
    vertex 33.50930563633109 14.771533975201038 21.038657636577437
    vertex 34.95629332846234 14.771448441801079 21.63801955715955
  endloop
endfacet
facet normal -1.0198868501339175e-05 -0.9999999944089975 0.00010525202208484228
  outer loop
    vertex 30.709479647519405 14.772340015101642 25.010683633003033
    vertex 34.95629332846234 14.771448441801079 21.63801955715955
    vertex 36.5091023921498 14.771419250858091 21.842450746602584
  endloop
endfacet
facet normal -1.0198868501339175e-05 -0.9999999944089975 0.00010525202208484228
  outer loop
    vertex 30.709479647519405 14.772340015101642 25.010683633003033
    vertex 36.5091023921498 14.771419250858091 21.842450746602584
    vertex 42.308969154953374 14.772523238650063 25.01068362253607
  endloop
endfacet
facet normal -1.0198868501339175e-05 -0.9999999944089975 0.00010525202208484228
  outer loop
    vertex 30.709479647519405 14.772340015101642 25.010683633003033
    vertex 42.308969154953374 14.772523238650063 25.01068362253607
    vertex 45.16390098513084 14.772208864183817 25.01290923157003
  endloop
endfacet
facet normal -1.0198868501339175e-05 -0.9999999944089975 0.00010525202208484228
  outer loop
    vertex 30.709479647519405 14.772340015101642 25.010683633003033
    vertex 45.16390098513084 14.772208864183817 25.01290923157003
    vertex 20.318138343877255 14.772253100247376 25.010717112057446
  endloop
endfacet
facet normal -1.0198868501339175e-05 -0.9999999944089975 0.00010525202208484228
  outer loop
    vertex 20.318138343877255 14.772253100247376 25.010717112057446
    vertex 45.16390098513084 14.772208864183817 25.01290923157003
    vertex 5.166225389368381 14.772283791627114 25.01290261708822
  endloop
endfacet
facet normal -1.0198868501339175e-05 -0.9999999944089975 0.00010525202208484228
  outer loop
    vertex 5.166225389368381 14.772283791627114 25.01290261708822
    vertex 45.16390098513084 14.772208864183817 25.01290923157003
    vertex 5.166225391483416 14.772805982737674 29.54054432161283
  endloop
endfacet
facet normal -1.0198868501339175e-05 -0.9999999944089975 0.00010525202208484228
  outer loop
    vertex 5.166225391483416 14.772805982737674 29.54054432161283
    vertex 45.16390098513084 14.772208864183817 25.01290923157003
    vertex 45.16390098513084 14.773096985438892 29.54035539393841
  endloop
endfacet
facet normal -1.0198868501339175e-05 -0.9999999944089975 0.00010525202208484228
  outer loop
    vertex 20.318036600494505 14.77252369977273 20.085219388718905
    vertex 17.518051343831598 14.772048463965719 21.038657635478646
    vertex 18.76060784446782 14.772184470761232 20.085210508172704
  endloop
endfacet
facet normal -1.0198868501339175e-05 -0.9999999944089975 0.00010525202208484228
  outer loop
    vertex 17.518051343831598 14.772048463965719 21.038657635478646
    vertex 20.318036600494505 14.77252369977273 20.085219388718905
    vertex 20.318138343877255 14.772253100247376 25.010717112057446
  endloop
endfacet
facet normal -1.0198868501339175e-05 -0.9999999944089975 0.00010525202208484228
  outer loop
    vertex 17.518051343831598 14.772048463965719 21.038657635478646
    vertex 20.318138343877255 14.772253100247376 25.010717112057446
    vertex 16.071063651687954 14.771962977265014 21.638019556037495
  endloop
endfacet
facet normal -1.0198868501339175e-05 -0.9999999944089975 0.00010525202208484228
  outer loop
    vertex 16.071063651687954 14.771962977265014 21.638019556037495
    vertex 20.318138343877255 14.772253100247376 25.010717112057446
    vertex 14.51825458799626 14.771933836436505 21.842450745455565
  endloop
endfacet
facet normal -1.0198868501339175e-05 -0.9999999944089975 0.00010525202208484228
  outer loop
    vertex 14.51825458799626 14.771933836436505 21.842450745455565
    vertex 20.318138343877255 14.772253100247376 25.010717112057446
    vertex 8.718631843365877 14.772854600677135 25.010683605012574
  endloop
endfacet
facet normal -1.0198868501339175e-05 -0.9999999944089975 0.00010525202208484228
  outer loop
    vertex 8.718631843365877 14.772854600677135 25.010683605012574
    vertex 20.318138343877255 14.772253100247376 25.010717112057446
    vertex 5.166225389368381 14.772283791627114 25.01290261708822
  endloop
endfacet
facet normal -1.0198868501339175e-05 -0.9999999944089975 0.00010525202208484228
  outer loop
    vertex 11.518457832177562 14.77204856077945 21.03865763543042
    vertex 8.718661168361068 14.772318766507933 20.085210517876963
    vertex 10.275901331561059 14.772184607676527 20.085210508104495
  endloop
endfacet
facet normal -1.0198868501339175e-05 -0.9999999944089975 0.00010525202208484228
  outer loop
    vertex 8.718661168361068 14.772318766507933 20.085210517876963
    vertex 11.518457832177562 14.77204856077945 21.03865763543042
    vertex 8.718631843365877 14.772854600677135 25.010683605012574
  endloop
endfacet
facet normal -1.0198868501339175e-05 -0.9999999944089975 0.00010525202208484228
  outer loop
    vertex 8.718631843365877 14.772854600677135 25.010683605012574
    vertex 11.518457832177562 14.77204856077945 21.03865763543042
    vertex 12.965445524308796 14.77196302737949 21.63801955601253
  endloop
endfacet
facet normal -1.0198868501339175e-05 -0.9999999944089975 0.00010525202208484228
  outer loop
    vertex 8.718631843365877 14.772854600677135 25.010683605012574
    vertex 12.965445524308796 14.77196302737949 21.63801955601253
    vertex 14.51825458799626 14.771933836436505 21.842450745455565
  endloop
endfacet
facet normal -7.473903703133091e-05 -0.999999988823936 0.00012948437877420338
  outer loop
    vertex 5.1648449795753635 0.01677151791943779 25.01455611816641
    vertex -0.0011574894858312759 0.019587353499243648 44.54215156084537
    vertex -0.0013438200786791833 0.017269400850156925 25.012365197925885
  endloop
endfacet
facet normal -7.473903703133091e-05 -0.999999988823936 0.00012948437877420338
  outer loop
    vertex -0.0011574894858312759 0.019587353499243648 44.54215156084537
    vertex 5.1648449795753635 0.01677151791943779 25.01455611816641
    vertex 5.164661323828186 0.019402681318328584 44.54218275907527
  endloop
endfacet
facet normal -8.890249015590996e-06 0.9999999903396924 -0.00013871401656805307
  outer loop
    vertex 30.70945042688524 20.02133229959568 20.084566928971963
    vertex 33.509247090701734 20.021062093867197 21.03801404652542
    vertex 32.266690590085226 20.021198140764273 20.084566919199496
  endloop
endfacet
facet normal -8.890249015590996e-06 0.9999999903396924 -0.00013871401656805307
  outer loop
    vertex 33.509247090701734 20.021062093867197 21.03801404652542
    vertex 30.70945042688524 20.02133229959568 20.084566928971963
    vertex 30.70945037470132 20.021919671109426 25.010683633002724
  endloop
endfacet
facet normal -8.890249015590996e-06 0.9999999903396924 -0.00013871401656805307
  outer loop
    vertex 33.509247090701734 20.021062093867197 21.03801404652542
    vertex 30.70945037470132 20.021919671109426 25.010683633002724
    vertex 34.95623478283297 20.02097656046724 21.63737596710753
  endloop
endfacet
facet normal -8.890249015590996e-06 0.9999999903396924 -0.00013871401656805307
  outer loop
    vertex 34.95623478283297 20.02097656046724 21.63737596710753
    vertex 30.70945037470132 20.021919671109426 25.010683633002724
    vertex 36.509043846520434 20.02094736952425 21.841807156550566
  endloop
endfacet
facet normal -8.890249015590996e-06 0.9999999903396924 -0.00013871401656805307
  outer loop
    vertex 36.509043846520434 20.02094736952425 21.841807156550566
    vertex 30.70945037470132 20.021919671109426 25.010683633002724
    vertex 42.30893988958764 20.022011281464884 25.010683623213513
  endloop
endfacet
facet normal -8.890249015590996e-06 0.9999999903396924 -0.00013871401656805307
  outer loop
    vertex 39.508840602355775 20.021061997053465 21.038014046573647
    vertex 42.30882585901868 20.021537232860478 20.084575799813905
    vertex 40.751397102991994 20.021198003848976 20.084566919267704
  endloop
endfacet
facet normal -8.890249015590996e-06 0.9999999903396924 -0.00013871401656805307
  outer loop
    vertex 42.30882585901868 20.021537232860478 20.084575799813905
    vertex 39.508840602355775 20.021061997053465 21.038014046573647
    vertex 42.30893988958764 20.022011281464884 25.010683623213513
  endloop
endfacet
facet normal -8.890249015590996e-06 0.9999999903396924 -0.00013871401656805307
  outer loop
    vertex 42.30893988958764 20.022011281464884 25.010683623213513
    vertex 39.508840602355775 20.021061997053465 21.038014046573647
    vertex 38.06185291021213 20.02097651035276 21.637375967132495
  endloop
endfacet
facet normal -8.890249015590996e-06 0.9999999903396924 -0.00013871401656805307
  outer loop
    vertex 42.30893988958764 20.022011281464884 25.010683623213513
    vertex 38.06185291021213 20.02097651035276 21.637375967132495
    vertex 36.509043846520434 20.02094736952425 21.841807156550566
  endloop
endfacet
facet normal 4.501559327685317e-05 0.8501757982474848 0.5264989174232445
  outer loop
    vertex 8.718602570547787 20.022176963895646 25.010683605012265
    vertex 30.70945037470132 20.021919671109426 25.010683633002724
    vertex 20.318092085432895 20.022268574251346 25.010683596357058
  endloop
endfacet
facet normal 4.501559327685317e-05 0.8501757982474848 0.5264989174232445
  outer loop
    vertex 30.70945037470132 20.021919671109426 25.010683633002724
    vertex 8.718602570547787 20.022176963895646 25.010683605012265
    vertex 5.163888372685052 20.0220633055757 25.010693223787857
  endloop
endfacet
facet normal 4.501559327685317e-05 0.8501757982474848 0.5264989174232445
  outer loop
    vertex 42.35137615118439 20.022160034112147 25.0105291900655
    vertex 45.163389422943574 11.023120449914808 39.54017351563732
    vertex 45.16356685766178 20.021970701179885 25.00030683759342
  endloop
endfacet
facet normal 4.501559327685317e-05 0.8501757982474848 0.5264989174232445
  outer loop
    vertex 45.163389422943574 11.023120449914808 39.54017351563732
    vertex 42.35137615118439 20.022160034112147 25.0105291900655
    vertex 42.30893988958764 20.022011281464884 25.010683623213513
  endloop
endfacet
facet normal 4.501559327685317e-05 0.8501757982474848 0.5264989174232445
  outer loop
    vertex 45.163389422943574 11.023120449914808 39.54017351563732
    vertex 42.30893988958764 20.022011281464884 25.010683623213513
    vertex 30.70945037470132 20.021919671109426 25.010683633002724
  endloop
endfacet
facet normal 4.501559327685317e-05 0.8501757982474848 0.5264989174232445
  outer loop
    vertex 45.163389422943574 11.023120449914808 39.54017351563732
    vertex 30.70945037470132 20.021919671109426 25.010683633002724
    vertex 5.163888372685052 20.0220633055757 25.010693223787857
  endloop
endfacet
facet normal 4.501559327685317e-05 0.8501757982474848 0.5264989174232445
  outer loop
    vertex 45.163389422943574 11.023120449914808 39.54017351563732
    vertex 5.163888372685052 20.0220633055757 25.010693223787857
    vertex 5.163710937746823 11.023519976509123 39.54053333000243
  endloop
endfacet
facet normal -0.9999999986891421 -1.9604709734016526e-05 -4.7300859717294484e-05
  outer loop
    vertex 45.16326611036804 11.023730591905188 44.54017347688939
    vertex 45.16356685766178 20.021970701179885 25.00030683759342
    vertex 45.163389422943574 11.023120449914808 39.54017351563732
  endloop
endfacet
facet normal -0.9999999986891421 -1.9604709734016526e-05 -4.7300859717294484e-05
  outer loop
    vertex 45.16356685766178 20.021970701179885 25.00030683759342
    vertex 45.16326611036804 11.023730591905188 44.54017347688939
    vertex 45.16229570796023 51.023631304712595 44.53637955714572
  endloop
endfacet
facet normal -0.9999999986891421 -1.9604709734016526e-05 -4.7300859717294484e-05
  outer loop
    vertex 45.16356685766178 20.021970701179885 25.00030683759342
    vertex 45.16229570796023 51.023631304712595 44.53637955714572
    vertex 45.16356685766675 51.021836501268105 24.99007351109116
  endloop
endfacet
facet normal 0.9999999998959526 1.5128120805862892e-06 1.4345958959043686e-05
  outer loop
    vertex 5.163888372685052 20.0220633055757 25.010693223787857
    vertex 5.163587625171287 11.024130118499501 44.54053329125451
    vertex 5.163710937746823 11.023519976509123 39.54053333000243
  endloop
endfacet
facet normal 0.9999999998959526 1.5128120805862892e-06 1.4345958959043686e-05
  outer loop
    vertex 5.163587625171287 11.024130118499501 44.54053329125451
    vertex 5.163888372685052 20.0220633055757 25.010693223787857
    vertex 5.163505729176074 51.02422878209962 44.53536795866418
  endloop
endfacet
facet normal 0.9999999998959526 1.5128120805862892e-06 1.4345958959043686e-05
  outer loop
    vertex 5.163505729176074 51.02422878209962 44.53536795866418
    vertex 5.163888372685052 20.0220633055757 25.010693223787857
    vertex 5.16384741701493 51.02251035278496 24.99881255389598
  endloop
endfacet
facet normal 2.321450365973744e-06 -0.00013115369250802196 -0.9999999913966598
  outer loop
    vertex 5.166225391483416 14.772805982737674 29.54054432161283
    vertex 45.164382161507326 6.017584694862927 29.541940600309434
    vertex 5.164868217689428 6.017293675723866 29.541566052411472
  endloop
endfacet
facet normal 2.321450365973744e-06 -0.00013115369250802196 -0.9999999913966598
  outer loop
    vertex 45.164382161507326 6.017584694862927 29.541940600309434
    vertex 5.166225391483416 14.772805982737674 29.54054432161283
    vertex 45.16390098513084 14.773096985438892 29.54035539393841
  endloop
endfacet
facet normal 0.9999999958361288 -8.837922156120863e-05 2.273446379353793e-05
  outer loop
    vertex 5.164684559827213 6.019402648012196 44.541550988795684
    vertex 5.164661323828186 0.019402681318328584 44.54218275907527
    vertex 5.164868217689428 6.017293675723866 29.541566052411472
  endloop
endfacet
facet normal 0.9999999958361288 -8.837922156120863e-05 2.273446379353793e-05
  outer loop
    vertex 5.1648449795753635 0.01677151791943779 25.01455611816641
    vertex 5.164868217689428 6.017293675723866 29.541566052411472
    vertex 5.164661323828186 0.019402681318328584 44.54218275907527
  endloop
endfacet
facet normal 0.9999999958361288 -8.837922156120863e-05 2.273446379353793e-05
  outer loop
    vertex 5.164868217689428 6.017293675723866 29.541566052411472
    vertex 5.1648449795753635 0.01677151791943779 25.01455611816641
    vertex 5.166225389368381 14.772283791627114 25.01290261708822
  endloop
endfacet
facet normal 0.9999999958361288 -8.837922156120863e-05 2.273446379353793e-05
  outer loop
    vertex 5.164868217689428 6.017293675723866 29.541566052411472
    vertex 5.166225389368381 14.772283791627114 25.01290261708822
    vertex 5.166225391483416 14.772805982737674 29.54054432161283
  endloop
endfacet
facet normal 6.121509927402299e-05 -0.9999999924236084 0.00010679651121221735
  outer loop
    vertex 50.931960281537556 0.019409871840632826 44.54245894526803
    vertex 45.164358925508296 0.01669660691398303 25.015126208220636
    vertex 50.93266125201675 0.017083089978032182 25.0126731196311
  endloop
endfacet
facet normal 6.121509927402299e-05 -0.9999999924236084 0.00010679651121221735
  outer loop
    vertex 45.164358925508296 0.01669660691398303 25.015126208220636
    vertex 50.931960281537556 0.019409871840632826 44.54245894526803
    vertex 45.164235612837395 0.018801917915039896 44.54242413950161
  endloop
endfacet
facet normal -0.9999999995550382 -2.8976352826974585e-05 7.091880398187473e-06
  outer loop
    vertex 45.16425884883642 6.018801884608907 44.54179236922203
    vertex 45.164382161507326 6.017584694862927 29.541940600309434
    vertex 45.164235612837395 0.018801917915039896 44.54242413950161
  endloop
endfacet
facet normal -0.9999999995550382 -2.8976352826974585e-05 7.091880398187473e-06
  outer loop
    vertex 45.164358925508296 0.01669660691398303 25.015126208220636
    vertex 45.164382161507326 6.017584694862927 29.541940600309434
    vertex 45.16390098513084 14.772208864183817 25.01290923157003
  endloop
endfacet
facet normal -0.9999999995550382 -2.8976352826974585e-05 7.091880398187473e-06
  outer loop
    vertex 45.164382161507326 6.017584694862927 29.541940600309434
    vertex 45.164358925508296 0.01669660691398303 25.015126208220636
    vertex 45.164235612837395 0.018801917915039896 44.54242413950161
  endloop
endfacet
facet normal -0.9999999995550382 -2.8976352826974585e-05 7.091880398187473e-06
  outer loop
    vertex 45.16390098513084 14.772208864183817 25.01290923157003
    vertex 45.164382161507326 6.017584694862927 29.541940600309434
    vertex 45.16390098513084 14.773096985438892 29.54035539393841
  endloop
endfacet
facet normal -3.8726665044693645e-06 -0.9999999944489779 0.00010529504659627176
  outer loop
    vertex 45.164382161507326 6.017584694862927 29.541940600309434
    vertex 5.164684559827213 6.019402648012196 44.541550988795684
    vertex 5.164868217689428 6.017293675723866 29.541566052411472
  endloop
endfacet
facet normal -3.8726665044693645e-06 -0.9999999944489779 0.00010529504659627176
  outer loop
    vertex 5.164684559827213 6.019402648012196 44.541550988795684
    vertex 45.164382161507326 6.017584694862927 29.541940600309434
    vertex 45.16425884883642 6.018801884608907 44.54179236922203
  endloop
endfacet
facet normal -2.4662515107133477e-05 0.00012202839807575669 0.9999999922504151
  outer loop
    vertex 5.164661323828186 0.019402681318328584 44.54218275907527
    vertex -0.00032100242189750806 54.51193056852266 44.53455316448942
    vertex -0.0011574894858312759 0.019587353499243648 44.54215156084537
  endloop
endfacet
facet normal -2.4662515107133477e-05 0.00012202839807575669 0.9999999922504151
  outer loop
    vertex -0.00032100242189750806 54.51193056852266 44.53455316448942
    vertex 5.164661323828186 0.019402681318328584 44.54218275907527
    vertex 5.163587625171287 11.024130118499501 44.54053329125451
  endloop
endfacet
facet normal -2.4662515107133477e-05 0.00012202839807575669 0.9999999922504151
  outer loop
    vertex -0.00032100242189750806 54.51193056852266 44.53455316448942
    vertex 5.163587625171287 11.024130118499501 44.54053329125451
    vertex 5.163505729176074 51.02422878209962 44.53536795866418
  endloop
endfacet
facet normal -2.4662515107133477e-05 0.00012202839807575669 0.9999999922504151
  outer loop
    vertex 5.163587625171287 11.024130118499501 44.54053329125451
    vertex 5.164661323828186 0.019402681318328584 44.54218275907527
    vertex 5.164684559827213 6.019402648012196 44.541550988795684
  endloop
endfacet
facet normal -2.4662515107133477e-05 0.00012202839807575669 0.9999999922504151
  outer loop
    vertex 5.163587625171287 11.024130118499501 44.54053329125451
    vertex 5.164684559827213 6.019402648012196 44.541550988795684
    vertex 45.16326611036804 11.023730591905188 44.54017347688939
  endloop
endfacet
facet normal -2.4662515107133477e-05 0.00012202839807575669 0.9999999922504151
  outer loop
    vertex 45.16326611036804 11.023730591905188 44.54017347688939
    vertex 5.164684559827213 6.019402648012196 44.541550988795684
    vertex 45.16425884883642 6.018801884608907 44.54179236922203
  endloop
endfacet
facet normal -2.4662515107133477e-05 0.00012202839807575669 0.9999999922504151
  outer loop
    vertex 50.931960281537556 0.019409871840632826 44.54245894526803
    vertex 45.16425884883642 6.018801884608907 44.54179236922203
    vertex 45.164235612837395 0.018801917915039896 44.54242413950161
  endloop
endfacet
facet normal -2.4662515107133477e-05 0.00012202839807575669 0.9999999922504151
  outer loop
    vertex 45.16425884883642 6.018801884608907 44.54179236922203
    vertex 50.931960281537556 0.019409871840632826 44.54245894526803
    vertex 50.930521257708996 54.51248341768944 44.53675799812363
  endloop
endfacet
facet normal -2.4662515107133477e-05 0.00012202839807575669 0.9999999922504151
  outer loop
    vertex 5.163505729176074 51.02422878209962 44.53536795866418
    vertex 50.930521257708996 54.51248341768944 44.53675799812363
    vertex -0.00032100242189750806 54.51193056852266 44.53455316448942
  endloop
endfacet
facet normal -2.4662515107133477e-05 0.00012202839807575669 0.9999999922504151
  outer loop
    vertex 50.930521257708996 54.51248341768944 44.53675799812363
    vertex 5.163505729176074 51.02422878209962 44.53536795866418
    vertex 45.16229570796023 51.023631304712595 44.53637955714572
  endloop
endfacet
facet normal -2.4662515107133477e-05 0.00012202839807575669 0.9999999922504151
  outer loop
    vertex 50.930521257708996 54.51248341768944 44.53675799812363
    vertex 45.16229570796023 51.023631304712595 44.53637955714572
    vertex 45.16326611036804 11.023730591905188 44.54017347688939
  endloop
endfacet
facet normal -2.4662515107133477e-05 0.00012202839807575669 0.9999999922504151
  outer loop
    vertex 50.930521257708996 54.51248341768944 44.53675799812363
    vertex 45.16326611036804 11.023730591905188 44.54017347688939
    vertex 45.16425884883642 6.018801884608907 44.54179236922203
  endloop
endfacet
facet normal 9.987147371334919e-06 0.9999999925046936 -0.00012202815179861107
  outer loop
    vertex 5.163710937746823 11.023519976509123 39.54053333000243
    vertex 45.16326611036804 11.023730591905188 44.54017347688939
    vertex 45.163389422943574 11.023120449914808 39.54017351563732
  endloop
endfacet
facet normal 9.987147371334919e-06 0.9999999925046936 -0.00012202815179861107
  outer loop
    vertex 45.16326611036804 11.023730591905188 44.54017347688939
    vertex 5.163710937746823 11.023519976509123 39.54053333000243
    vertex 5.163587625171287 11.024130118499501 44.54053329125451
  endloop
endfacet
endsolid Крепление-E3Dv6-2x
