solid 13mm-thick
facet normal -2.0372326455931064e-48 3.7214536321272306e-32 -1.0
  outer loop
    vertex -6.599999999999998 6.810511776651531 0.0
    vertex -6.6000000000000005 -3.8105117766515284 0.0
    vertex -9.099999999999998 6.810511776651531 0.0
  endloop
endfacet
facet normal -2.0372326455931064e-48 3.7214536321272306e-32 -1.0
  outer loop
    vertex -6.6000000000000005 -3.8105117766515284 0.0
    vertex -6.599999999999998 6.810511776651531 0.0
    vertex -6.599999999999998 3.8105117766515297 0.0
  endloop
endfacet
facet normal -2.0372326455931064e-48 3.7214536321272306e-32 -1.0
  outer loop
    vertex 9.1 6.81051177665153 0.0
    vertex 6.6000000000000005 3.8105117766515293 0.0
    vertex 6.6000000000000005 6.81051177665153 0.0
  endloop
endfacet
facet normal -2.0372326455931064e-48 3.7214536321272306e-32 -1.0
  outer loop
    vertex 6.599999999999996 -3.810511776651535 0.0
    vertex 5.000000000000002 -17.22102355330306 0.0
    vertex -5.639932965095795e-15 -7.621023553303059 0.0
  endloop
endfacet
facet normal -2.0372326455931064e-48 3.7214536321272306e-32 -1.0
  outer loop
    vertex 5.000000000000002 -17.22102355330306 0.0
    vertex 6.599999999999996 -3.810511776651535 0.0
    vertex 13.6 -7.621023553303059 0.0
  endloop
endfacet
facet normal -2.0372326455931064e-48 3.7214536321272306e-32 -1.0
  outer loop
    vertex 13.6 -7.621023553303059 0.0
    vertex 6.599999999999996 -3.810511776651535 0.0
    vertex 6.6000000000000005 3.8105117766515293 0.0
  endloop
endfacet
facet normal -2.0372326455931064e-48 3.7214536321272306e-32 -1.0
  outer loop
    vertex 13.6 -7.621023553303059 0.0
    vertex 6.6000000000000005 3.8105117766515293 0.0
    vertex 9.1 6.81051177665153 0.0
  endloop
endfacet
facet normal -2.0372326455931064e-48 3.7214536321272306e-32 -1.0
  outer loop
    vertex 13.6 -7.621023553303059 0.0
    vertex 9.1 6.81051177665153 0.0
    vertex 13.6 2.8105117766515297 0.0
  endloop
endfacet
facet normal -2.0372326455931064e-48 3.7214536321272306e-32 -1.0
  outer loop
    vertex -9.099999999999998 6.810511776651531 0.0
    vertex -13.599999999999998 -7.621023553303059 0.0
    vertex -13.599999999999998 2.8105117766515297 0.0
  endloop
endfacet
facet normal -2.0372326455931064e-48 3.7214536321272306e-32 -1.0
  outer loop
    vertex -13.599999999999998 -7.621023553303059 0.0
    vertex -9.099999999999998 6.810511776651531 0.0
    vertex -4.999999999999998 -17.22102355330306 0.0
  endloop
endfacet
facet normal -2.0372326455931064e-48 3.7214536321272306e-32 -1.0
  outer loop
    vertex -4.999999999999998 -17.22102355330306 0.0
    vertex -9.099999999999998 6.810511776651531 0.0
    vertex -6.6000000000000005 -3.8105117766515284 0.0
  endloop
endfacet
facet normal -2.0372326455931064e-48 3.7214536321272306e-32 -1.0
  outer loop
    vertex -4.999999999999998 -17.22102355330306 0.0
    vertex -6.6000000000000005 -3.8105117766515284 0.0
    vertex -5.639932965095795e-15 -7.621023553303059 0.0
  endloop
endfacet
facet normal -2.0372326455931064e-48 3.7214536321272306e-32 -1.0
  outer loop
    vertex -4.999999999999998 -17.22102355330306 0.0
    vertex -5.639932965095795e-15 -7.621023553303059 0.0
    vertex -4.999999999999994 -59.22102355330306 -2.5046333740767123e-30
  endloop
endfacet
facet normal -2.0372326455931064e-48 3.7214536321272306e-32 -1.0
  outer loop
    vertex -4.999999999999994 -59.22102355330306 -2.5046333740767123e-30
    vertex -5.639932965095795e-15 -7.621023553303059 0.0
    vertex 5.000000000000002 -59.22102355330305 -2.5046333740767123e-30
  endloop
endfacet
facet normal -2.0372326455931064e-48 3.7214536321272306e-32 -1.0
  outer loop
    vertex 5.000000000000002 -59.22102355330305 -2.5046333740767123e-30
    vertex -5.639932965095795e-15 -7.621023553303059 0.0
    vertex 5.000000000000002 -17.22102355330306 0.0
  endloop
endfacet
facet normal 7.95179317503935e-33 -4.189984297731193e-17 1.0
  outer loop
    vertex 5.000000000000002 -59.22102355330305 7.9999999999999964
    vertex -2.199999999999995 -54.22102355330305 8.000000000000007
    vertex -4.999999999999994 -59.22102355330306 7.9999999999999964
  endloop
endfacet
facet normal 7.95179317503935e-33 -4.189984297731193e-17 1.0
  outer loop
    vertex -2.199999999999995 -54.22102355330305 8.000000000000007
    vertex 5.000000000000002 -59.22102355330305 7.9999999999999964
    vertex 2.200000000000001 -54.22102355330305 8.000000000000007
  endloop
endfacet
facet normal 7.95179317503935e-33 -4.189984297731193e-17 1.0
  outer loop
    vertex 2.200000000000001 -54.22102355330305 8.000000000000007
    vertex 5.000000000000002 -59.22102355330305 7.9999999999999964
    vertex 2.200000000000001 -44.22102355330305 8.000000000000007
  endloop
endfacet
facet normal 7.95179317503935e-33 -4.189984297731193e-17 1.0
  outer loop
    vertex 2.200000000000001 -44.22102355330305 8.000000000000007
    vertex 5.000000000000002 -59.22102355330305 7.9999999999999964
    vertex 5.000000000000002 -17.22102355330306 7.999999999999999
  endloop
endfacet
facet normal 7.95179317503935e-33 -4.189984297731193e-17 1.0
  outer loop
    vertex -4.999999999999998 -17.22102355330306 7.999999999999999
    vertex -13.599999999999998 2.8105117766515297 7.999999999999999
    vertex -13.599999999999998 -7.621023553303059 7.999999999999999
  endloop
endfacet
facet normal 7.95179317503935e-33 -4.189984297731193e-17 1.0
  outer loop
    vertex -13.599999999999998 2.8105117766515297 7.999999999999999
    vertex -4.999999999999998 -17.22102355330306 7.999999999999999
    vertex -9.099999999999998 6.810511776651531 7.999999999999999
  endloop
endfacet
facet normal 7.95179317503935e-33 -4.189984297731193e-17 1.0
  outer loop
    vertex -9.099999999999998 6.810511776651531 7.999999999999999
    vertex -4.999999999999998 -17.22102355330306 7.999999999999999
    vertex -6.6000000000000005 -3.8105117766515284 7.999999999999999
  endloop
endfacet
facet normal 7.95179317503935e-33 -4.189984297731193e-17 1.0
  outer loop
    vertex -6.6000000000000005 -3.8105117766515284 7.999999999999999
    vertex -4.999999999999998 -17.22102355330306 7.999999999999999
    vertex -5.6218650812376345e-15 -7.621023553303059 7.999999999999999
  endloop
endfacet
facet normal 7.95179317503935e-33 -4.189984297731193e-17 1.0
  outer loop
    vertex -5.6218650812376345e-15 -7.621023553303059 7.999999999999999
    vertex -4.999999999999998 -17.22102355330306 7.999999999999999
    vertex -4.999999999999994 -59.22102355330306 7.9999999999999964
  endloop
endfacet
facet normal 7.95179317503935e-33 -4.189984297731193e-17 1.0
  outer loop
    vertex -5.6218650812376345e-15 -7.621023553303059 7.999999999999999
    vertex -4.999999999999994 -59.22102355330306 7.9999999999999964
    vertex -2.199999999999995 -44.22102355330305 8.000000000000005
  endloop
endfacet
facet normal 7.95179317503935e-33 -4.189984297731193e-17 1.0
  outer loop
    vertex -2.199999999999995 -44.22102355330305 8.000000000000005
    vertex -4.999999999999994 -59.22102355330306 7.9999999999999964
    vertex -2.199999999999995 -54.22102355330305 8.000000000000007
  endloop
endfacet
facet normal 7.95179317503935e-33 -4.189984297731193e-17 1.0
  outer loop
    vertex -5.6218650812376345e-15 -7.621023553303059 7.999999999999999
    vertex -2.199999999999995 -44.22102355330305 8.000000000000005
    vertex 2.200000000000001 -44.22102355330305 8.000000000000007
  endloop
endfacet
facet normal 7.95179317503935e-33 -4.189984297731193e-17 1.0
  outer loop
    vertex -5.6218650812376345e-15 -7.621023553303059 7.999999999999999
    vertex 2.200000000000001 -44.22102355330305 8.000000000000007
    vertex 5.000000000000002 -17.22102355330306 7.999999999999999
  endloop
endfacet
facet normal 7.95179317503935e-33 -4.189984297731193e-17 1.0
  outer loop
    vertex -5.6218650812376345e-15 -7.621023553303059 7.999999999999999
    vertex 5.000000000000002 -17.22102355330306 7.999999999999999
    vertex 6.599999999999996 -3.810511776651535 7.999999999999999
  endloop
endfacet
facet normal 7.95179317503935e-33 -4.189984297731193e-17 1.0
  outer loop
    vertex 6.599999999999996 -3.810511776651535 7.999999999999999
    vertex 5.000000000000002 -17.22102355330306 7.999999999999999
    vertex 13.6 -7.621023553303059 7.999999999999999
  endloop
endfacet
facet normal 7.95179317503935e-33 -4.189984297731193e-17 1.0
  outer loop
    vertex 6.599999999999996 -3.810511776651535 7.999999999999999
    vertex 13.6 -7.621023553303059 7.999999999999999
    vertex 6.6000000000000005 3.8105117766515293 7.999999999999999
  endloop
endfacet
facet normal 7.95179317503935e-33 -4.189984297731193e-17 1.0
  outer loop
    vertex 6.6000000000000005 3.8105117766515293 7.999999999999999
    vertex 13.6 -7.621023553303059 7.999999999999999
    vertex 6.6000000000000005 6.81051177665153 7.999999999999999
  endloop
endfacet
facet normal 7.95179317503935e-33 -4.189984297731193e-17 1.0
  outer loop
    vertex 6.6000000000000005 6.81051177665153 7.999999999999999
    vertex 13.6 -7.621023553303059 7.999999999999999
    vertex 9.1 6.81051177665153 7.999999999999999
  endloop
endfacet
facet normal 7.95179317503935e-33 -4.189984297731193e-17 1.0
  outer loop
    vertex 9.1 6.81051177665153 7.999999999999999
    vertex 13.6 -7.621023553303059 7.999999999999999
    vertex 13.6 2.8105117766515297 7.999999999999999
  endloop
endfacet
facet normal 7.95179317503935e-33 -4.189984297731193e-17 1.0
  outer loop
    vertex -6.6000000000000005 -3.8105117766515284 7.999999999999999
    vertex -6.599999999999998 6.810511776651531 7.999999999999999
    vertex -9.099999999999998 6.810511776651531 7.999999999999999
  endloop
endfacet
facet normal 7.95179317503935e-33 -4.189984297731193e-17 1.0
  outer loop
    vertex -6.599999999999998 6.810511776651531 7.999999999999999
    vertex -6.6000000000000005 -3.8105117766515284 7.999999999999999
    vertex -6.599999999999998 3.8105117766515297 7.999999999999999
  endloop
endfacet
facet normal 0.7448353357230582 -0.6672483215852396 -0.0
  outer loop
    vertex 13.6 -7.621023553303059 0.0
    vertex 5.000000000000002 -17.22102355330306 7.999999999999999
    vertex 5.000000000000002 -17.22102355330306 0.0
  endloop
endfacet
facet normal 0.7448353357230582 -0.6672483215852396 -0.0
  outer loop
    vertex 5.000000000000002 -17.22102355330306 7.999999999999999
    vertex 13.6 -7.621023553303059 0.0
    vertex 13.6 -7.621023553303059 7.999999999999999
  endloop
endfacet
facet normal 1.0 1.678551477707082e-17 -3.25425299812609e-33
  outer loop
    vertex 5.000000000000002 -17.22102355330306 0.0
    vertex 5.000000000000002 -59.22102355330305 7.9999999999999964
    vertex 5.000000000000002 -59.22102355330305 -2.5046333740767123e-30
  endloop
endfacet
facet normal 1.0 1.678551477707082e-17 -3.25425299812609e-33
  outer loop
    vertex 5.000000000000002 -59.22102355330305 7.9999999999999964
    vertex 5.000000000000002 -17.22102355330306 0.0
    vertex 5.000000000000002 -17.22102355330306 7.999999999999999
  endloop
endfacet
facet normal 1.1279865930191595e-15 -1.0 0.0
  outer loop
    vertex 5.000000000000002 -59.22102355330305 7.9999999999999964
    vertex -4.999999999999994 -59.22102355330306 -2.5046333740767123e-30
    vertex 5.000000000000002 -59.22102355330305 -2.5046333740767123e-30
  endloop
endfacet
facet normal 1.1279865930191595e-15 -1.0 0.0
  outer loop
    vertex -4.999999999999994 -59.22102355330306 -2.5046333740767123e-30
    vertex 5.000000000000002 -59.22102355330305 7.9999999999999964
    vertex -4.999999999999994 -59.22102355330306 7.9999999999999964
  endloop
endfacet
facet normal -1.0 -1.0071308866242489e-16 -8.653354563198923e-33
  outer loop
    vertex -4.999999999999998 -17.22102355330306 7.999999999999999
    vertex -4.999999999999994 -59.22102355330306 -2.5046333740767123e-30
    vertex -4.999999999999994 -59.22102355330306 7.9999999999999964
  endloop
endfacet
facet normal -1.0 -1.0071308866242489e-16 -8.653354563198923e-33
  outer loop
    vertex -4.999999999999994 -59.22102355330306 -2.5046333740767123e-30
    vertex -4.999999999999998 -17.22102355330306 7.999999999999999
    vertex -4.999999999999998 -17.22102355330306 0.0
  endloop
endfacet
facet normal -0.7448353357230583 -0.6672483215852395 0.0
  outer loop
    vertex -13.599999999999998 -7.621023553303059 7.999999999999999
    vertex -4.999999999999998 -17.22102355330306 0.0
    vertex -4.999999999999998 -17.22102355330306 7.999999999999999
  endloop
endfacet
facet normal -0.7448353357230583 -0.6672483215852395 0.0
  outer loop
    vertex -4.999999999999998 -17.22102355330306 0.0
    vertex -13.599999999999998 -7.621023553303059 7.999999999999999
    vertex -13.599999999999998 -7.621023553303059 0.0
  endloop
endfacet
facet normal -1.0 0.0 0.0
  outer loop
    vertex -13.599999999999998 2.8105117766515297 7.999999999999999
    vertex -13.599999999999998 -7.621023553303059 0.0
    vertex -13.599999999999998 -7.621023553303059 7.999999999999999
  endloop
endfacet
facet normal -1.0 0.0 0.0
  outer loop
    vertex -13.599999999999998 -7.621023553303059 0.0
    vertex -13.599999999999998 2.8105117766515297 7.999999999999999
    vertex -13.599999999999998 2.8105117766515297 0.0
  endloop
endfacet
facet normal -0.6643638388299199 0.7474093186836596 -0.0
  outer loop
    vertex -13.599999999999998 2.8105117766515297 7.999999999999999
    vertex -9.099999999999998 6.810511776651531 0.0
    vertex -13.599999999999998 2.8105117766515297 0.0
  endloop
endfacet
facet normal -0.6643638388299199 0.7474093186836596 -0.0
  outer loop
    vertex -9.099999999999998 6.810511776651531 0.0
    vertex -13.599999999999998 2.8105117766515297 7.999999999999999
    vertex -9.099999999999998 6.810511776651531 7.999999999999999
  endloop
endfacet
facet normal 1.0 -3.7002463813744344e-16 0.0
  outer loop
    vertex -6.599999999999998 3.8105117766515297 0.0
    vertex -6.6000000000000005 -3.8105117766515284 7.999999999999999
    vertex -6.6000000000000005 -3.8105117766515284 0.0
  endloop
endfacet
facet normal 1.0 -3.7002463813744344e-16 0.0
  outer loop
    vertex -6.6000000000000005 -3.8105117766515284 7.999999999999999
    vertex -6.599999999999998 3.8105117766515297 0.0
    vertex -6.599999999999998 3.8105117766515297 7.999999999999999
  endloop
endfacet
facet normal 1.0 -3.7002463813744344e-16 0.0
  outer loop
    vertex -6.599999999999998 3.8105117766515297 7.999999999999999
    vertex -6.599999999999998 3.8105117766515297 0.0
    vertex -6.599999999999998 6.810511776651531 0.0
  endloop
endfacet
facet normal 1.0 -3.7002463813744344e-16 0.0
  outer loop
    vertex -6.599999999999998 3.8105117766515297 7.999999999999999
    vertex -6.599999999999998 6.810511776651531 0.0
    vertex -6.599999999999998 6.810511776651531 7.999999999999999
  endloop
endfacet
facet normal 0.5000000000000003 0.8660254037844387 0.0
  outer loop
    vertex -6.6000000000000005 -3.8105117766515284 7.999999999999999
    vertex -5.639932965095795e-15 -7.621023553303059 0.0
    vertex -6.6000000000000005 -3.8105117766515284 0.0
  endloop
endfacet
facet normal 0.5000000000000003 0.8660254037844387 0.0
  outer loop
    vertex -5.639932965095795e-15 -7.621023553303059 0.0
    vertex -6.6000000000000005 -3.8105117766515284 7.999999999999999
    vertex -5.6218650812376345e-15 -7.621023553303059 7.999999999999999
  endloop
endfacet
facet normal -0.4999999999999993 0.8660254037844392 0.0
  outer loop
    vertex -5.6218650812376345e-15 -7.621023553303059 7.999999999999999
    vertex 6.599999999999996 -3.810511776651535 0.0
    vertex -5.639932965095795e-15 -7.621023553303059 0.0
  endloop
endfacet
facet normal -0.4999999999999993 0.8660254037844392 0.0
  outer loop
    vertex 6.599999999999996 -3.810511776651535 0.0
    vertex -5.6218650812376345e-15 -7.621023553303059 7.999999999999999
    vertex 6.599999999999996 -3.810511776651535 7.999999999999999
  endloop
endfacet
facet normal -1.0 5.550369572061647e-16 0.0
  outer loop
    vertex 6.6000000000000005 3.8105117766515293 7.999999999999999
    vertex 6.599999999999996 -3.810511776651535 0.0
    vertex 6.599999999999996 -3.810511776651535 7.999999999999999
  endloop
endfacet
facet normal -1.0 5.550369572061647e-16 0.0
  outer loop
    vertex 6.599999999999996 -3.810511776651535 0.0
    vertex 6.6000000000000005 3.8105117766515293 7.999999999999999
    vertex 6.6000000000000005 3.8105117766515293 0.0
  endloop
endfacet
facet normal -1.0 5.550369572061647e-16 0.0
  outer loop
    vertex 6.6000000000000005 3.8105117766515293 0.0
    vertex 6.6000000000000005 3.8105117766515293 7.999999999999999
    vertex 6.6000000000000005 6.81051177665153 7.999999999999999
  endloop
endfacet
facet normal -1.0 5.550369572061647e-16 0.0
  outer loop
    vertex 6.6000000000000005 3.8105117766515293 0.0
    vertex 6.6000000000000005 6.81051177665153 7.999999999999999
    vertex 6.6000000000000005 6.81051177665153 0.0
  endloop
endfacet
facet normal 0.6643638388299198 0.7474093186836598 -0.0
  outer loop
    vertex 9.1 6.81051177665153 7.999999999999999
    vertex 13.6 2.8105117766515297 0.0
    vertex 9.1 6.81051177665153 0.0
  endloop
endfacet
facet normal 0.6643638388299198 0.7474093186836598 -0.0
  outer loop
    vertex 13.6 2.8105117766515297 0.0
    vertex 9.1 6.81051177665153 7.999999999999999
    vertex 13.6 2.8105117766515297 7.999999999999999
  endloop
endfacet
facet normal 1.0 -0.0 -0.0
  outer loop
    vertex 13.6 2.8105117766515297 0.0
    vertex 13.6 -7.621023553303059 7.999999999999999
    vertex 13.6 -7.621023553303059 0.0
  endloop
endfacet
facet normal 1.0 -0.0 -0.0
  outer loop
    vertex 13.6 -7.621023553303059 7.999999999999999
    vertex 13.6 2.8105117766515297 0.0
    vertex 13.6 2.8105117766515297 7.999999999999999
  endloop
endfacet
facet normal -0.0 1.0 -0.0
  outer loop
    vertex 6.6000000000000005 6.81051177665153 7.999999999999999
    vertex 9.1 6.81051177665153 0.0
    vertex 6.6000000000000005 6.81051177665153 0.0
  endloop
endfacet
facet normal -0.0 1.0 -0.0
  outer loop
    vertex 9.1 6.81051177665153 0.0
    vertex 6.6000000000000005 6.81051177665153 7.999999999999999
    vertex 9.1 6.81051177665153 7.999999999999999
  endloop
endfacet
facet normal -0.0 1.0 -0.0
  outer loop
    vertex -9.099999999999998 6.810511776651531 7.999999999999999
    vertex -6.599999999999998 6.810511776651531 0.0
    vertex -9.099999999999998 6.810511776651531 0.0
  endloop
endfacet
facet normal -0.0 1.0 -0.0
  outer loop
    vertex -6.599999999999998 6.810511776651531 0.0
    vertex -9.099999999999998 6.810511776651531 7.999999999999999
    vertex -6.599999999999998 6.810511776651531 7.999999999999999
  endloop
endfacet
facet normal -1.7624790515924371e-16 7.049916206369744e-17 1.0
  outer loop
    vertex 2.200000000000002 -54.22102355330305 5.000000000000009
    vertex -2.199999999999995 -44.22102355330305 5.000000000000008
    vertex -2.199999999999995 -54.22102355330305 5.000000000000009
  endloop
endfacet
facet normal -1.7624790515924371e-16 7.049916206369744e-17 1.0
  outer loop
    vertex -2.199999999999995 -44.22102355330305 5.000000000000008
    vertex 2.200000000000002 -54.22102355330305 5.000000000000009
    vertex 2.200000000000002 -44.22102355330305 5.000000000000009
  endloop
endfacet
facet normal -1.0 0.0 -2.3499720687899167e-16
  outer loop
    vertex 2.200000000000001 -44.22102355330305 8.000000000000007
    vertex 2.200000000000002 -54.22102355330305 5.000000000000009
    vertex 2.200000000000001 -54.22102355330305 8.000000000000007
  endloop
endfacet
facet normal -1.0 0.0 -2.3499720687899167e-16
  outer loop
    vertex 2.200000000000002 -54.22102355330305 5.000000000000009
    vertex 2.200000000000001 -44.22102355330305 8.000000000000007
    vertex 2.200000000000002 -44.22102355330305 5.000000000000009
  endloop
endfacet
facet normal 0.0 -1.0 0.0
  outer loop
    vertex 2.200000000000002 -44.22102355330305 5.000000000000009
    vertex -2.199999999999995 -44.22102355330305 8.000000000000005
    vertex -2.199999999999995 -44.22102355330305 5.000000000000008
  endloop
endfacet
facet normal 0.0 -1.0 0.0
  outer loop
    vertex -2.199999999999995 -44.22102355330305 8.000000000000005
    vertex 2.200000000000002 -44.22102355330305 5.000000000000009
    vertex 2.200000000000001 -44.22102355330305 8.000000000000007
  endloop
endfacet
facet normal 1.0 0.0 0.0
  outer loop
    vertex -2.199999999999995 -44.22102355330305 5.000000000000008
    vertex -2.199999999999995 -54.22102355330305 8.000000000000007
    vertex -2.199999999999995 -54.22102355330305 5.000000000000009
  endloop
endfacet
facet normal 1.0 0.0 0.0
  outer loop
    vertex -2.199999999999995 -54.22102355330305 8.000000000000007
    vertex -2.199999999999995 -44.22102355330305 5.000000000000008
    vertex -2.199999999999995 -44.22102355330305 8.000000000000005
  endloop
endfacet
facet normal -0.0 1.0 -0.0
  outer loop
    vertex -2.199999999999995 -54.22102355330305 8.000000000000007
    vertex 2.200000000000002 -54.22102355330305 5.000000000000009
    vertex -2.199999999999995 -54.22102355330305 5.000000000000009
  endloop
endfacet
facet normal -0.0 1.0 -0.0
  outer loop
    vertex 2.200000000000002 -54.22102355330305 5.000000000000009
    vertex -2.199999999999995 -54.22102355330305 8.000000000000007
    vertex 2.200000000000001 -54.22102355330305 8.000000000000007
  endloop
endfacet
endsolid 13mm-thick
