solid Handle
facet normal -1.0 -5.825457075789735e-16 -1.0602947950258084e-31
  outer loop
    vertex 9.99999999999997 50.00000000000001 5.0
    vertex 10.00000000000001 -19.999999999999996 -2.1169080109022225e-31
    vertex 10.00000000000001 -19.999999999999996 5.0
  endloop
endfacet
facet normal -1.0 -5.825457075789735e-16 -1.0602947950258084e-31
  outer loop
    vertex 10.00000000000001 -19.999999999999996 -2.1169080109022225e-31
    vertex 9.99999999999997 50.00000000000001 5.0
    vertex 9.99999999999997 50.00000000000001 4.0635656559672655e-31
  endloop
endfacet
facet normal 1.0 5.932384765204471e-16 -1.0602947950258084e-31
  outer loop
    vertex -3.042229850630491e-14 50.0 4.0635656559672655e-31
    vertex 1.127986593019159e-14 -20.000000000000004 5.0
    vertex 1.127986593019159e-14 -20.000000000000004 -2.1169080109022225e-31
  endloop
endfacet
facet normal 1.0 5.932384765204471e-16 -1.0602947950258084e-31
  outer loop
    vertex 1.127986593019159e-14 -20.000000000000004 5.0
    vertex -3.042229850630491e-14 50.0 4.0635656559672655e-31
    vertex -3.042229850630491e-14 50.0 5.0
  endloop
endfacet
facet normal 0.0 -1.0 0.0
  outer loop
    vertex 3.599999999999975 40.00000000000001 -0.9999999999999999
    vertex 2.3999999999999746 40.00000000000001 -3.0
    vertex 3.599999999999975 40.00000000000001 -3.0
  endloop
endfacet
facet normal 0.0 -1.0 0.0
  outer loop
    vertex 2.3999999999999746 40.00000000000001 -3.0
    vertex 3.599999999999975 40.00000000000001 -0.9999999999999999
    vertex 3.3999999999999746 40.00000000000001 -0.9999999999999999
  endloop
endfacet
facet normal 0.0 -1.0 0.0
  outer loop
    vertex 2.3999999999999746 40.00000000000001 -3.0
    vertex 3.3999999999999746 40.00000000000001 -0.9999999999999999
    vertex 2.3999999999999746 40.00000000000001 3.0569699804041323e-31
  endloop
endfacet
facet normal 0.0 -1.0 0.0
  outer loop
    vertex 2.3999999999999746 40.00000000000001 3.0569699804041323e-31
    vertex 3.3999999999999746 40.00000000000001 -0.9999999999999999
    vertex 3.3999999999999746 40.00000000000001 3.0702496067308228e-31
  endloop
endfacet
facet normal 1.0 -3.2045073665316975e-17 2.9636934291326526e-34
  outer loop
    vertex 2.3999999999999746 40.00000000000001 -3.0
    vertex 2.3999999999999853 23.999999999999993 2.978337830888045e-31
    vertex 2.3999999999999853 23.999999999999993 -3.0
  endloop
endfacet
facet normal 1.0 -3.2045073665316975e-17 2.9636934291326526e-34
  outer loop
    vertex 2.3999999999999853 23.999999999999993 2.978337830888045e-31
    vertex 2.3999999999999746 40.00000000000001 -3.0
    vertex 2.3999999999999746 40.00000000000001 3.0569699804041323e-31
  endloop
endfacet
facet normal -2.1692049865753064e-15 1.0 1.9156185234594686e-34
  outer loop
    vertex 2.3999999999999853 23.999999999999993 2.978337830888045e-31
    vertex 7.5999999999999845 24.000000000000004 -3.0
    vertex 2.3999999999999853 23.999999999999993 -3.0
  endloop
endfacet
facet normal -2.1692049865753064e-15 1.0 1.9156185234594686e-34
  outer loop
    vertex 7.5999999999999845 24.000000000000004 -3.0
    vertex 2.3999999999999853 23.999999999999993 2.978337830888045e-31
    vertex 7.5999999999999845 24.000000000000004 3.034112261460145e-31
  endloop
endfacet
facet normal -1.0 0.0 -2.963693429132653e-34
  outer loop
    vertex 7.599999999999973 40.00000000000001 3.0436903540774423e-31
    vertex 7.5999999999999845 24.000000000000004 -3.0
    vertex 7.5999999999999845 24.000000000000004 3.034112261460145e-31
  endloop
endfacet
facet normal -1.0 0.0 -2.963693429132653e-34
  outer loop
    vertex 7.5999999999999845 24.000000000000004 -3.0
    vertex 7.599999999999973 40.00000000000001 3.0436903540774423e-31
    vertex 7.599999999999973 40.00000000000001 -3.0
  endloop
endfacet
facet normal 0.0 -1.0 0.0
  outer loop
    vertex 7.599999999999973 40.00000000000001 3.0436903540774423e-31
    vertex 6.399999999999975 40.00000000000001 -3.0
    vertex 7.599999999999973 40.00000000000001 -3.0
  endloop
endfacet
facet normal 0.0 -1.0 0.0
  outer loop
    vertex 6.399999999999975 40.00000000000001 -3.0
    vertex 7.599999999999973 40.00000000000001 3.0436903540774423e-31
    vertex 6.599999999999974 40.00000000000001 -0.9999999999999999
  endloop
endfacet
facet normal 0.0 -1.0 0.0
  outer loop
    vertex 6.599999999999974 40.00000000000001 -0.9999999999999999
    vertex 7.599999999999973 40.00000000000001 3.0436903540774423e-31
    vertex 6.599999999999974 40.00000000000001 3.0702496067308228e-31
  endloop
endfacet
facet normal 0.0 -1.0 0.0
  outer loop
    vertex 6.399999999999975 40.00000000000001 -0.9999999999999999
    vertex 6.399999999999975 40.00000000000001 -3.0
    vertex 6.599999999999974 40.00000000000001 -0.9999999999999999
  endloop
endfacet
facet normal 1.0142838058040024e-30 -0.999971589638247 0.007537898669908401
  outer loop
    vertex 6.399999999999975 30.125633713173528 1.4005478228007358
    vertex 3.599999999999975 30.10753789866992 -1.0000284103617536
    vertex 6.399999999999975 30.10753789866992 -1.0000284103617536
  endloop
endfacet
facet normal 1.0142838058040024e-30 -0.999971589638247 0.007537898669908401
  outer loop
    vertex 3.599999999999975 30.10753789866992 -1.0000284103617536
    vertex 6.399999999999975 30.125633713173528 1.4005478228007358
    vertex 3.599999999999975 30.125633713173528 1.4005478228007358
  endloop
endfacet
facet normal -0.0 0.23622846759033986 0.971697540955991
  outer loop
    vertex 6.399999999999975 30.125633713173528 1.4005478228007358
    vertex 3.599999999999975 40.00000000000001 -0.9999999999999999
    vertex 3.599999999999975 30.125633713173528 1.4005478228007358
  endloop
endfacet
facet normal -0.0 0.23622846759033986 0.971697540955991
  outer loop
    vertex 3.599999999999975 40.00000000000001 -0.9999999999999999
    vertex 6.399999999999975 30.125633713173528 1.4005478228007358
    vertex 6.399999999999975 40.00000000000001 -0.9999999999999999
  endloop
endfacet
facet normal 4.941375999163846e-48 -8.132202193249323e-33 1.0
  outer loop
    vertex 1.127986593019159e-14 -20.000000000000004 -2.1169080109022225e-31
    vertex 2.3999999999999853 23.999999999999993 2.978337830888045e-31
    vertex 2.3999999999999746 40.00000000000001 3.0569699804041323e-31
  endloop
endfacet
facet normal 4.941375999163846e-48 -8.132202193249323e-33 1.0
  outer loop
    vertex 2.3999999999999853 23.999999999999993 2.978337830888045e-31
    vertex 1.127986593019159e-14 -20.000000000000004 -2.1169080109022225e-31
    vertex 10.00000000000001 -19.999999999999996 -2.1169080109022225e-31
  endloop
endfacet
facet normal 4.941375999163846e-48 -8.132202193249323e-33 1.0
  outer loop
    vertex 2.3999999999999853 23.999999999999993 2.978337830888045e-31
    vertex 10.00000000000001 -19.999999999999996 -2.1169080109022225e-31
    vertex 7.5999999999999845 24.000000000000004 3.034112261460145e-31
  endloop
endfacet
facet normal 4.941375999163846e-48 -8.132202193249323e-33 1.0
  outer loop
    vertex 7.5999999999999845 24.000000000000004 3.034112261460145e-31
    vertex 10.00000000000001 -19.999999999999996 -2.1169080109022225e-31
    vertex 9.99999999999997 50.00000000000001 4.0635656559672655e-31
  endloop
endfacet
facet normal 4.941375999163846e-48 -8.132202193249323e-33 1.0
  outer loop
    vertex -3.042229850630491e-14 50.0 4.0635656559672655e-31
    vertex 2.3999999999999746 40.00000000000001 3.0569699804041323e-31
    vertex 9.99999999999997 50.00000000000001 4.0635656559672655e-31
  endloop
endfacet
facet normal 4.941375999163846e-48 -8.132202193249323e-33 1.0
  outer loop
    vertex 2.3999999999999746 40.00000000000001 3.0569699804041323e-31
    vertex -3.042229850630491e-14 50.0 4.0635656559672655e-31
    vertex 1.127986593019159e-14 -20.000000000000004 -2.1169080109022225e-31
  endloop
endfacet
facet normal 4.941375999163846e-48 -8.132202193249323e-33 1.0
  outer loop
    vertex 9.99999999999997 50.00000000000001 4.0635656559672655e-31
    vertex 2.3999999999999746 40.00000000000001 3.0569699804041323e-31
    vertex 3.3999999999999746 40.00000000000001 3.0702496067308228e-31
  endloop
endfacet
facet normal 4.941375999163846e-48 -8.132202193249323e-33 1.0
  outer loop
    vertex 9.99999999999997 50.00000000000001 4.0635656559672655e-31
    vertex 3.3999999999999746 40.00000000000001 3.0702496067308228e-31
    vertex 6.599999999999974 40.00000000000001 3.0702496067308228e-31
  endloop
endfacet
facet normal 4.941375999163846e-48 -8.132202193249323e-33 1.0
  outer loop
    vertex 9.99999999999997 50.00000000000001 4.0635656559672655e-31
    vertex 6.599999999999974 40.00000000000001 3.0702496067308228e-31
    vertex 7.599999999999973 40.00000000000001 3.0436903540774423e-31
  endloop
endfacet
facet normal 4.941375999163846e-48 -8.132202193249323e-33 1.0
  outer loop
    vertex 9.99999999999997 50.00000000000001 4.0635656559672655e-31
    vertex 7.599999999999973 40.00000000000001 3.0436903540774423e-31
    vertex 7.5999999999999845 24.000000000000004 3.034112261460145e-31
  endloop
endfacet
facet normal 0.0 -1.0 0.0
  outer loop
    vertex 6.599999999999974 40.00000000000001 3.0702496067308228e-31
    vertex 6.399999999999975 40.00000000000001 -0.9999999999999999
    vertex 6.599999999999974 40.00000000000001 -0.9999999999999999
  endloop
endfacet
facet normal 0.0 -1.0 0.0
  outer loop
    vertex 6.399999999999975 40.00000000000001 -0.9999999999999999
    vertex 6.599999999999974 40.00000000000001 3.0702496067308228e-31
    vertex 3.599999999999975 40.00000000000001 -0.9999999999999999
  endloop
endfacet
facet normal 0.0 -1.0 0.0
  outer loop
    vertex 3.599999999999975 40.00000000000001 -0.9999999999999999
    vertex 6.599999999999974 40.00000000000001 3.0702496067308228e-31
    vertex 3.3999999999999746 40.00000000000001 -0.9999999999999999
  endloop
endfacet
facet normal 0.0 -1.0 0.0
  outer loop
    vertex 3.3999999999999746 40.00000000000001 -0.9999999999999999
    vertex 6.599999999999974 40.00000000000001 3.0702496067308228e-31
    vertex 3.3999999999999746 40.00000000000001 3.0702496067308228e-31
  endloop
endfacet
facet normal -3.8828051940934464e-31 -0.9999715896382467 0.007537898669908838
  outer loop
    vertex 6.399999999999975 30.103768949334967 -2.500014205180877
    vertex 3.599999999999975 30.100000000000012 -3.0
    vertex 6.399999999999975 30.100000000000012 -3.0
  endloop
endfacet
facet normal -3.8828051940934464e-31 -0.9999715896382467 0.007537898669908838
  outer loop
    vertex 3.599999999999975 30.100000000000012 -3.0
    vertex 6.399999999999975 30.103768949334967 -2.500014205180877
    vertex 3.599999999999975 30.103768949334967 -2.500014205180877
  endloop
endfacet
facet normal 8.580112147745698e-33 -0.7071067811865481 -0.707106781186547
  outer loop
    vertex 6.399999999999975 30.10753789866992 -1.0000284103617536
    vertex 3.599999999999975 31.107537898669918 -2.0000284103617534
    vertex 6.399999999999975 31.107537898669918 -2.0000284103617534
  endloop
endfacet
facet normal 8.580112147745698e-33 -0.7071067811865481 -0.707106781186547
  outer loop
    vertex 3.599999999999975 31.107537898669918 -2.0000284103617534
    vertex 6.399999999999975 30.10753789866992 -1.0000284103617536
    vertex 3.599999999999975 30.10753789866992 -1.0000284103617536
  endloop
endfacet
facet normal -0.0 -0.0 1.0
  outer loop
    vertex 6.399999999999975 30.60753789866992 -2.0000284103617534
    vertex 3.599999999999975 31.107537898669918 -2.0000284103617534
    vertex 3.599999999999975 30.60753789866992 -2.0000284103617534
  endloop
endfacet
facet normal -0.0 -0.0 1.0
  outer loop
    vertex 3.599999999999975 31.107537898669918 -2.0000284103617534
    vertex 6.399999999999975 30.60753789866992 -2.0000284103617534
    vertex 6.399999999999975 31.107537898669918 -2.0000284103617534
  endloop
endfacet
facet normal -2.7352681500312437e-31 -0.704436690317197 0.7097668274405007
  outer loop
    vertex 6.399999999999975 30.103768949334967 -2.500014205180877
    vertex 3.599999999999975 30.60753789866992 -2.0000284103617534
    vertex 3.599999999999975 30.103768949334967 -2.500014205180877
  endloop
endfacet
facet normal -2.7352681500312437e-31 -0.704436690317197 0.7097668274405007
  outer loop
    vertex 3.599999999999975 30.60753789866992 -2.0000284103617534
    vertex 6.399999999999975 30.103768949334967 -2.500014205180877
    vertex 6.399999999999975 30.60753789866992 -2.0000284103617534
  endloop
endfacet
facet normal -0.707106781186547 0.7071067811865481 -1.7410264620451058e-16
  outer loop
    vertex -3.0000000000000306 47.00000000000001 4.999999999999998
    vertex -3.042229850630491e-14 50.0 4.0635656559672655e-31
    vertex -3.000000000000029 47.00000000000001 -4.5824455341403335e-15
  endloop
endfacet
facet normal -0.707106781186547 0.7071067811865481 -1.7410264620451058e-16
  outer loop
    vertex -3.042229850630491e-14 50.0 4.0635656559672655e-31
    vertex -3.0000000000000306 47.00000000000001 4.999999999999998
    vertex -3.042229850630491e-14 50.0 5.0
  endloop
endfacet
facet normal 0.7071067811865481 0.707106781186547 -4.3496223814567813e-16
  outer loop
    vertex 9.99999999999997 50.00000000000001 4.0635656559672655e-31
    vertex 12.999999999999963 47.00000000000001 0.8811949999999996
    vertex 12.999999999999963 47.00000000000001 -6.3449245857327695e-15
  endloop
endfacet
facet normal 0.7071067811865481 0.707106781186547 -4.3496223814567813e-16
  outer loop
    vertex 12.999999999999963 47.00000000000001 0.8811949999999996
    vertex 9.99999999999997 50.00000000000001 4.0635656559672655e-31
    vertex 12.999999999999968 47.00000000000001 4.999999999999997
  endloop
endfacet
facet normal 0.7071067811865481 0.707106781186547 -4.3496223814567813e-16
  outer loop
    vertex 12.999999999999968 47.00000000000001 4.999999999999997
    vertex 9.99999999999997 50.00000000000001 4.0635656559672655e-31
    vertex 9.99999999999997 50.00000000000001 5.0
  endloop
endfacet
facet normal -3.243342887565399e-16 0.7071067811865481 -0.7071067811865469
  outer loop
    vertex -3.042229850630491e-14 50.0 4.0635656559672655e-31
    vertex 10.999999999999968 47.00000000000001 -3.0
    vertex -1.0000000000000306 47.00000000000001 -3.0
  endloop
endfacet
facet normal -3.243342887565399e-16 0.7071067811865481 -0.7071067811865469
  outer loop
    vertex 10.999999999999968 47.00000000000001 -3.0
    vertex -3.042229850630491e-14 50.0 4.0635656559672655e-31
    vertex 9.99999999999997 50.00000000000001 4.0635656559672655e-31
  endloop
endfacet
facet normal -0.7071067811865471 0.707106781186548 4.653577430025577e-15
  outer loop
    vertex -3.042229850630491e-14 50.0 4.0635656559672655e-31
    vertex -3.0000000000000306 47.00000000000001 -1.0000000000000002
    vertex -3.000000000000029 47.00000000000001 -4.5824455341403335e-15
  endloop
endfacet
facet normal -0.5144957554275256 0.6859943405700368 -0.5144957554275256
  outer loop
    vertex -3.042229850630491e-14 50.0 4.0635656559672655e-31
    vertex -1.0000000000000306 47.00000000000001 -3.0
    vertex -3.0000000000000306 47.00000000000001 -1.0000000000000002
  endloop
endfacet
facet normal 0.7071067811865485 0.7071067811865466 4.154979848237135e-15
  outer loop
    vertex 9.99999999999997 50.00000000000001 4.0635656559672655e-31
    vertex 12.999999999999963 47.00000000000001 -6.3449245857327695e-15
    vertex 12.999999999999968 47.00000000000001 -1.0000000000000002
  endloop
endfacet
facet normal 0.5144957554275267 0.6859943405700353 -0.5144957554275265
  outer loop
    vertex 9.99999999999997 50.00000000000001 4.0635656559672655e-31
    vertex 12.999999999999968 47.00000000000001 -1.0000000000000002
    vertex 10.999999999999968 47.00000000000001 -3.0
  endloop
endfacet
facet normal -5.639932965095795e-16 1.0 -0.0
  outer loop
    vertex 1.127986593019159e-14 -20.000000000000004 5.0
    vertex 10.00000000000001 -19.999999999999996 -2.1169080109022225e-31
    vertex 1.127986593019159e-14 -20.000000000000004 -2.1169080109022225e-31
  endloop
endfacet
facet normal -5.639932965095795e-16 1.0 -0.0
  outer loop
    vertex 10.00000000000001 -19.999999999999996 -2.1169080109022225e-31
    vertex 1.127986593019159e-14 -20.000000000000004 5.0
    vertex 10.00000000000001 -19.999999999999996 5.0
  endloop
endfacet
facet normal 3.524958103184872e-16 -1.0 9.399888275159659e-16
  outer loop
    vertex 9.000000000000016 -29.999999999999996 4.999999999999998
    vertex 1.0000000000000164 -30.0 1.9999999999999984
    vertex 9.000000000000016 -30.0 1.9999999999999984
  endloop
endfacet
facet normal 3.524958103184872e-16 -1.0 9.399888275159659e-16
  outer loop
    vertex 1.0000000000000164 -30.0 1.9999999999999984
    vertex 9.000000000000016 -29.999999999999996 4.999999999999998
    vertex 1.0000000000000164 -30.0 4.999999999999998
  endloop
endfacet
facet normal 6.541159366734815e-17 -5.00391776258266e-18 1.0
  outer loop
    vertex -2.9999999999999862 -24.999999999999993 4.999999999999998
    vertex -3.042229850630491e-14 50.0 5.0
    vertex -3.0000000000000306 47.00000000000001 4.999999999999998
  endloop
endfacet
facet normal 6.541159366734815e-17 -5.00391776258266e-18 1.0
  outer loop
    vertex -3.042229850630491e-14 50.0 5.0
    vertex -2.9999999999999862 -24.999999999999993 4.999999999999998
    vertex 1.127986593019159e-14 -20.000000000000004 5.0
  endloop
endfacet
facet normal 6.541159366734815e-17 -5.00391776258266e-18 1.0
  outer loop
    vertex 1.127986593019159e-14 -20.000000000000004 5.0
    vertex -2.9999999999999862 -24.999999999999993 4.999999999999998
    vertex 1.0000000000000164 -30.0 4.999999999999998
  endloop
endfacet
facet normal 6.541159366734815e-17 -5.00391776258266e-18 1.0
  outer loop
    vertex 1.127986593019159e-14 -20.000000000000004 5.0
    vertex 1.0000000000000164 -30.0 4.999999999999998
    vertex 10.00000000000001 -19.999999999999996 5.0
  endloop
endfacet
facet normal 6.541159366734815e-17 -5.00391776258266e-18 1.0
  outer loop
    vertex 10.00000000000001 -19.999999999999996 5.0
    vertex 1.0000000000000164 -30.0 4.999999999999998
    vertex 9.000000000000016 -29.999999999999996 4.999999999999998
  endloop
endfacet
facet normal 6.541159366734815e-17 -5.00391776258266e-18 1.0
  outer loop
    vertex 10.00000000000001 -19.999999999999996 5.0
    vertex 9.000000000000016 -29.999999999999996 4.999999999999998
    vertex 13.000000000000012 -24.999999999999993 4.999999999999997
  endloop
endfacet
facet normal 6.541159366734815e-17 -5.00391776258266e-18 1.0
  outer loop
    vertex 10.00000000000001 -19.999999999999996 5.0
    vertex 13.000000000000012 -24.999999999999993 4.999999999999997
    vertex 12.999999999999968 47.00000000000001 4.999999999999997
  endloop
endfacet
facet normal 6.541159366734815e-17 -5.00391776258266e-18 1.0
  outer loop
    vertex 12.999999999999968 47.00000000000001 4.999999999999997
    vertex 9.99999999999997 50.00000000000001 5.0
    vertex 10.00000000000001 -19.999999999999996 5.0
  endloop
endfacet
facet normal -0.7808688094430306 -0.624695047554424 -9.71031359294601e-18
  outer loop
    vertex -2.9999999999999862 -24.999999999999993 4.999999999999998
    vertex 1.0000000000000164 -30.0 1.9999999999999984
    vertex 1.0000000000000164 -30.0 4.999999999999998
  endloop
endfacet
facet normal -0.7808688094430306 -0.624695047554424 -9.71031359294601e-18
  outer loop
    vertex 1.0000000000000164 -30.0 1.9999999999999984
    vertex -2.9999999999999862 -24.999999999999993 4.999999999999998
    vertex -2.9999999999999862 -24.999999999999993 1.999999999999999
  endloop
endfacet
facet normal 0.7808688094430308 -0.6246950475544236 5.923291291697085e-16
  outer loop
    vertex 13.000000000000012 -24.999999999999993 1.9999999999999984
    vertex 9.000000000000016 -29.999999999999996 4.999999999999998
    vertex 9.000000000000016 -30.0 1.9999999999999984
  endloop
endfacet
facet normal 0.7808688094430308 -0.6246950475544236 5.923291291697085e-16
  outer loop
    vertex 9.000000000000016 -29.999999999999996 4.999999999999998
    vertex 13.000000000000012 -24.999999999999993 1.9999999999999984
    vertex 13.000000000000012 -24.999999999999993 4.999999999999997
  endloop
endfacet
facet normal 0.7808688094430308 -0.6246950475544236 5.923291291697085e-16
  outer loop
    vertex 13.000000000000012 -24.999999999999993 4.999999999999997
    vertex 13.000000000000012 -24.999999999999993 1.9999999999999984
    vertex 13.000000000000012 -24.999999999999993 3.499999999999998
  endloop
endfacet
facet normal -4.36765006766122e-16 -0.7071067811865465 -0.7071067811865486
  outer loop
    vertex 9.955668946048169 -26.360827634879527 -1.6391723651204706
    vertex 1.0000000000000164 -30.0 1.9999999999999984
    vertex -0.4556689460482021 -26.360827634879527 -1.6391723651204608
  endloop
endfacet
facet normal -4.36765006766122e-16 -0.7071067811865465 -0.7071067811865486
  outer loop
    vertex 1.0000000000000164 -30.0 1.9999999999999984
    vertex 9.955668946048169 -26.360827634879527 -1.6391723651204706
    vertex 9.000000000000016 -30.0 1.9999999999999984
  endloop
endfacet
facet normal 0.0 0.0 -1.0
  outer loop
    vertex -1.0000000000000306 47.00000000000001 -3.0
    vertex 2.3999999999999746 40.00000000000001 -3.0
    vertex -1.0000000000000306 -20.999999999999986 -3.0
  endloop
endfacet
facet normal 0.0 0.0 -1.0
  outer loop
    vertex 2.3999999999999746 40.00000000000001 -3.0
    vertex -1.0000000000000306 47.00000000000001 -3.0
    vertex 10.999999999999968 47.00000000000001 -3.0
  endloop
endfacet
facet normal 0.0 0.0 -1.0
  outer loop
    vertex 2.3999999999999746 40.00000000000001 -3.0
    vertex 10.999999999999968 47.00000000000001 -3.0
    vertex 3.599999999999975 40.00000000000001 -3.0
  endloop
endfacet
facet normal 0.0 0.0 -1.0
  outer loop
    vertex 3.599999999999975 40.00000000000001 -3.0
    vertex 10.999999999999968 47.00000000000001 -3.0
    vertex 6.399999999999975 40.00000000000001 -3.0
  endloop
endfacet
facet normal 0.0 0.0 -1.0
  outer loop
    vertex 3.599999999999975 40.00000000000001 -3.0
    vertex 6.399999999999975 40.00000000000001 -3.0
    vertex 3.599999999999975 30.100000000000012 -3.0
  endloop
endfacet
facet normal 0.0 0.0 -1.0
  outer loop
    vertex 6.399999999999975 40.00000000000001 -3.0
    vertex 10.999999999999968 47.00000000000001 -3.0
    vertex 7.599999999999973 40.00000000000001 -3.0
  endloop
endfacet
facet normal 0.0 0.0 -1.0
  outer loop
    vertex 7.599999999999973 40.00000000000001 -3.0
    vertex 10.999999999999968 47.00000000000001 -3.0
    vertex 7.5999999999999845 24.000000000000004 -3.0
  endloop
endfacet
facet normal 0.0 0.0 -1.0
  outer loop
    vertex -1.0000000000000306 -20.999999999999986 -3.0
    vertex 2.3999999999999853 23.999999999999993 -3.0
    vertex 10.999999999999968 -20.999999999999986 -3.0
  endloop
endfacet
facet normal 0.0 0.0 -1.0
  outer loop
    vertex 2.3999999999999853 23.999999999999993 -3.0
    vertex -1.0000000000000306 -20.999999999999986 -3.0
    vertex 2.3999999999999746 40.00000000000001 -3.0
  endloop
endfacet
facet normal 0.0 0.0 -1.0
  outer loop
    vertex 10.999999999999968 -20.999999999999986 -3.0
    vertex 2.3999999999999853 23.999999999999993 -3.0
    vertex 7.5999999999999845 24.000000000000004 -3.0
  endloop
endfacet
facet normal 0.0 0.0 -1.0
  outer loop
    vertex 10.999999999999968 -20.999999999999986 -3.0
    vertex 7.5999999999999845 24.000000000000004 -3.0
    vertex 10.999999999999968 47.00000000000001 -3.0
  endloop
endfacet
facet normal 0.0 0.0 -1.0
  outer loop
    vertex 6.399999999999975 30.100000000000012 -3.0
    vertex 3.599999999999975 30.100000000000012 -3.0
    vertex 6.399999999999975 40.00000000000001 -3.0
  endloop
endfacet
facet normal -3.885774028126292e-16 -0.246043035330126 -0.9692589049193917
  outer loop
    vertex 10.999999999999968 -20.999999999999986 -3.0
    vertex -0.4556689460482021 -26.360827634879527 -1.6391723651204608
    vertex -1.0000000000000306 -20.999999999999986 -3.0
  endloop
endfacet
facet normal -3.885774028126292e-16 -0.246043035330126 -0.9692589049193917
  outer loop
    vertex -0.4556689460482021 -26.360827634879527 -1.6391723651204608
    vertex 10.999999999999968 -20.999999999999986 -3.0
    vertex 9.955668946048169 -26.360827634879527 -1.6391723651204706
  endloop
endfacet
facet normal 0.7071067811865477 7.852754858070918e-19 -0.7071067811865474
  outer loop
    vertex 10.999999999999968 -20.999999999999986 -3.0
    vertex 12.999999999999968 47.00000000000001 -1.0000000000000002
    vertex 12.999999999999968 -23.000000000000004 -1.0000000000000002
  endloop
endfacet
facet normal 0.7071067811865477 7.852754858070918e-19 -0.7071067811865474
  outer loop
    vertex 12.999999999999968 47.00000000000001 -1.0000000000000002
    vertex 10.999999999999968 -20.999999999999986 -3.0
    vertex 10.999999999999968 47.00000000000001 -3.0
  endloop
endfacet
facet normal 1.0 4.2047296057557995e-16 -2.91723445720127e-15
  outer loop
    vertex 12.999999999999968 -23.000000000000004 -1.0000000000000002
    vertex 13.000000000000012 -24.999999999999993 3.499999999999998
    vertex 13.000000000000012 -24.999999999999993 1.9999999999999984
  endloop
endfacet
facet normal 1.0 4.2047296057557995e-16 -2.91723445720127e-15
  outer loop
    vertex 13.000000000000012 -24.999999999999993 3.499999999999998
    vertex 12.999999999999968 -23.000000000000004 -1.0000000000000002
    vertex 13.000000000000012 -24.999999999999993 4.999999999999997
  endloop
endfacet
facet normal 1.0 4.2047296057557995e-16 -2.91723445720127e-15
  outer loop
    vertex 13.000000000000012 -24.999999999999993 4.999999999999997
    vertex 12.999999999999968 -23.000000000000004 -1.0000000000000002
    vertex 12.999999999999968 47.00000000000001 4.999999999999997
  endloop
endfacet
facet normal 1.0 4.2047296057557995e-16 -2.91723445720127e-15
  outer loop
    vertex 12.999999999999968 47.00000000000001 4.999999999999997
    vertex 12.999999999999968 -23.000000000000004 -1.0000000000000002
    vertex 12.999999999999968 47.00000000000001 -1.0000000000000002
  endloop
endfacet
facet normal 1.0 4.2047296057557995e-16 -2.91723445720127e-15
  outer loop
    vertex 12.999999999999968 47.00000000000001 4.999999999999997
    vertex 12.999999999999968 47.00000000000001 -1.0000000000000002
    vertex 12.999999999999963 47.00000000000001 -6.3449245857327695e-15
  endloop
endfacet
facet normal 1.0 4.2047296057557995e-16 -2.91723445720127e-15
  outer loop
    vertex 12.999999999999968 47.00000000000001 4.999999999999997
    vertex 12.999999999999963 47.00000000000001 -6.3449245857327695e-15
    vertex 12.999999999999963 47.00000000000001 0.8811949999999996
  endloop
endfacet
facet normal 0.5345224838248478 -0.2672612419124239 -0.8017837257372741
  outer loop
    vertex 12.999999999999968 -23.000000000000004 -1.0000000000000002
    vertex 11.499999999999968 -26.000000000000004 -1.0000000000000002
    vertex 10.999999999999968 -20.999999999999986 -3.0
  endloop
endfacet
facet normal 0.8571428571428543 -0.4285714285714274 -0.2857142857142965
  outer loop
    vertex 12.999999999999968 -23.000000000000004 -1.0000000000000002
    vertex 13.000000000000012 -24.999999999999993 1.9999999999999984
    vertex 11.499999999999968 -26.000000000000004 -1.0000000000000002
  endloop
endfacet
facet normal 0.7682212795973752 -0.6145770236778988 -0.1792516319060644
  outer loop
    vertex 13.000000000000012 -24.999999999999993 1.9999999999999984
    vertex 9.000000000000016 -30.0 1.9999999999999984
    vertex 11.499999999999968 -26.000000000000004 -1.0000000000000002
  endloop
endfacet
facet normal 0.4071357821371637 -0.6970904073922894 -0.5901740580754224
  outer loop
    vertex 9.000000000000016 -30.0 1.9999999999999984
    vertex 9.955668946048169 -26.360827634879527 -1.6391723651204706
    vertex 11.499999999999968 -26.000000000000004 -1.0000000000000002
  endloop
endfacet
facet normal 0.4237756688886714 -0.2995435562630626 -0.8548028078798272
  outer loop
    vertex 11.499999999999968 -26.000000000000004 -1.0000000000000002
    vertex 9.955668946048169 -26.360827634879527 -1.6391723651204706
    vertex 10.999999999999968 -20.999999999999986 -3.0
  endloop
endfacet
facet normal -0.7071067811865475 2.6175849526903065e-18 -0.7071067811865476
  outer loop
    vertex -3.0000000000000306 47.00000000000001 -1.0000000000000002
    vertex -1.0000000000000306 -20.999999999999986 -3.0
    vertex -3.0000000000000306 -22.999999999999996 -1.0000000000000002
  endloop
endfacet
facet normal -0.7071067811865475 2.6175849526903065e-18 -0.7071067811865476
  outer loop
    vertex -1.0000000000000306 -20.999999999999986 -3.0
    vertex -3.0000000000000306 47.00000000000001 -1.0000000000000002
    vertex -1.0000000000000306 47.00000000000001 -3.0
  endloop
endfacet
facet normal -1.0 -3.7791382449948636e-16 3.283799534113897e-15
  outer loop
    vertex -3.0000000000000306 47.00000000000001 4.999999999999998
    vertex -2.9999999999999862 -24.999999999999993 1.999999999999999
    vertex -2.9999999999999862 -24.999999999999993 4.999999999999998
  endloop
endfacet
facet normal -1.0 -3.7791382449948636e-16 3.283799534113897e-15
  outer loop
    vertex -2.9999999999999862 -24.999999999999993 1.999999999999999
    vertex -3.0000000000000306 47.00000000000001 4.999999999999998
    vertex -3.0000000000000306 -22.999999999999996 -1.0000000000000002
  endloop
endfacet
facet normal -1.0 -3.7791382449948636e-16 3.283799534113897e-15
  outer loop
    vertex -3.0000000000000306 -22.999999999999996 -1.0000000000000002
    vertex -3.0000000000000306 47.00000000000001 4.999999999999998
    vertex -3.000000000000029 47.00000000000001 -4.5824455341403335e-15
  endloop
endfacet
facet normal -1.0 -3.7791382449948636e-16 3.283799534113897e-15
  outer loop
    vertex -3.0000000000000306 -22.999999999999996 -1.0000000000000002
    vertex -3.000000000000029 47.00000000000001 -4.5824455341403335e-15
    vertex -3.0000000000000306 47.00000000000001 -1.0000000000000002
  endloop
endfacet
facet normal -0.40160966445124263 -0.7228973960122502 -0.5622535302317526
  outer loop
    vertex 1.0000000000000164 -30.0 1.9999999999999984
    vertex -2.000000000000031 -25.999999999999996 -1.0000000000000002
    vertex -0.4556689460482021 -26.360827634879527 -1.6391723651204608
  endloop
endfacet
facet normal -0.42079232318564325 -0.26310707889586543 -0.868163858832487
  outer loop
    vertex -0.4556689460482021 -26.360827634879527 -1.6391723651204608
    vertex -2.000000000000031 -25.999999999999996 -1.0000000000000002
    vertex -1.0000000000000306 -20.999999999999986 -3.0
  endloop
endfacet
facet normal -0.5883484054145515 -0.19611613513818385 -0.7844645405527367
  outer loop
    vertex -1.0000000000000306 -20.999999999999986 -3.0
    vertex -2.000000000000031 -25.999999999999996 -1.0000000000000002
    vertex -3.0000000000000306 -22.999999999999996 -1.0000000000000002
  endloop
endfacet
facet normal -0.7798128673650555 -0.6238502938920437 -0.05198752449099147
  outer loop
    vertex -2.9999999999999862 -24.999999999999993 1.999999999999999
    vertex -2.000000000000031 -25.999999999999996 -1.0000000000000002
    vertex 1.0000000000000164 -30.0 1.9999999999999984
  endloop
endfacet
facet normal -0.9282791216329168 -0.3094263738776389 -0.20628424925174524
  outer loop
    vertex -3.0000000000000306 -22.999999999999996 -1.0000000000000002
    vertex -2.000000000000031 -25.999999999999996 -1.0000000000000002
    vertex -2.9999999999999862 -24.999999999999993 1.999999999999999
  endloop
endfacet
facet normal -1.0 0.0 0.0
  outer loop
    vertex 3.599999999999975 30.125633713173528 1.4005478228007358
    vertex 3.599999999999975 31.107537898669918 -2.0000284103617534
    vertex 3.599999999999975 30.10753789866992 -1.0000284103617536
  endloop
endfacet
facet normal -1.0 0.0 0.0
  outer loop
    vertex 3.599999999999975 31.107537898669918 -2.0000284103617534
    vertex 3.599999999999975 30.125633713173528 1.4005478228007358
    vertex 3.599999999999975 40.00000000000001 -0.9999999999999999
  endloop
endfacet
facet normal -1.0 0.0 0.0
  outer loop
    vertex 3.599999999999975 30.103768949334967 -2.500014205180877
    vertex 3.599999999999975 40.00000000000001 -3.0
    vertex 3.599999999999975 30.100000000000012 -3.0
  endloop
endfacet
facet normal -1.0 0.0 0.0
  outer loop
    vertex 3.599999999999975 40.00000000000001 -3.0
    vertex 3.599999999999975 30.103768949334967 -2.500014205180877
    vertex 3.599999999999975 30.60753789866992 -2.0000284103617534
  endloop
endfacet
facet normal -1.0 0.0 0.0
  outer loop
    vertex 3.599999999999975 40.00000000000001 -3.0
    vertex 3.599999999999975 30.60753789866992 -2.0000284103617534
    vertex 3.599999999999975 31.107537898669918 -2.0000284103617534
  endloop
endfacet
facet normal -1.0 0.0 0.0
  outer loop
    vertex 3.599999999999975 40.00000000000001 -3.0
    vertex 3.599999999999975 31.107537898669918 -2.0000284103617534
    vertex 3.599999999999975 40.00000000000001 -0.9999999999999999
  endloop
endfacet
facet normal 1.0 -0.0 -0.0
  outer loop
    vertex 6.399999999999975 40.00000000000001 -3.0
    vertex 6.399999999999975 30.103768949334967 -2.500014205180877
    vertex 6.399999999999975 30.100000000000012 -3.0
  endloop
endfacet
facet normal 1.0 -0.0 -0.0
  outer loop
    vertex 6.399999999999975 30.103768949334967 -2.500014205180877
    vertex 6.399999999999975 40.00000000000001 -3.0
    vertex 6.399999999999975 30.60753789866992 -2.0000284103617534
  endloop
endfacet
facet normal 1.0 -0.0 -0.0
  outer loop
    vertex 6.399999999999975 30.60753789866992 -2.0000284103617534
    vertex 6.399999999999975 40.00000000000001 -3.0
    vertex 6.399999999999975 31.107537898669918 -2.0000284103617534
  endloop
endfacet
facet normal 1.0 -0.0 -0.0
  outer loop
    vertex 6.399999999999975 31.107537898669918 -2.0000284103617534
    vertex 6.399999999999975 30.125633713173528 1.4005478228007358
    vertex 6.399999999999975 30.10753789866992 -1.0000284103617536
  endloop
endfacet
facet normal 1.0 -0.0 -0.0
  outer loop
    vertex 6.399999999999975 30.125633713173528 1.4005478228007358
    vertex 6.399999999999975 31.107537898669918 -2.0000284103617534
    vertex 6.399999999999975 40.00000000000001 -0.9999999999999999
  endloop
endfacet
facet normal 1.0 -0.0 -0.0
  outer loop
    vertex 6.399999999999975 40.00000000000001 -0.9999999999999999
    vertex 6.399999999999975 31.107537898669918 -2.0000284103617534
    vertex 6.399999999999975 40.00000000000001 -3.0
  endloop
endfacet
endsolid Handle
