solid Абажюр
facet normal 0.0 0.0 -1.0
  outer loop
    vertex 24.0 185.0 0.0
    vertex 0.0 0.0 0.0
    vertex 0.0 185.0 0.0
  endloop
endfacet
facet normal 0.0 0.0 -1.0
  outer loop
    vertex 0.0 0.0 0.0
    vertex 24.0 185.0 0.0
    vertex 24.0 0.0 0.0
  endloop
endfacet
facet normal 0.9659258262890684 -0.0 -0.2588190451025205
  outer loop
    vertex 24.0 185.0 0.0
    vertex 27.88228567653781 0.0 14.488887394336025
    vertex 24.0 0.0 0.0
  endloop
endfacet
facet normal 0.9659258262890684 -0.0 -0.2588190451025205
  outer loop
    vertex 27.88228567653781 0.0 14.488887394336025
    vertex 24.0 185.0 0.0
    vertex 27.88228567653781 185.0 14.488887394336025
  endloop
endfacet
facet normal 0.0 1.0 0.0
  outer loop
    vertex -3.882285676537809 185.0 14.488887394336025
    vertex 24.0 185.0 0.0
    vertex 0.0 185.0 0.0
  endloop
endfacet
facet normal 0.0 1.0 0.0
  outer loop
    vertex 24.0 185.0 0.0
    vertex -3.882285676537809 185.0 14.488887394336025
    vertex 27.88228567653781 185.0 14.488887394336025
  endloop
endfacet
facet normal 0.0 0.0 -1.0
  outer loop
    vertex 24.0 0.0 0.0
    vertex 0.8252718717340165 -2.695452099586011 0.0
    vertex 0.0 0.0 0.0
  endloop
endfacet
facet normal 0.0 0.0 -1.0
  outer loop
    vertex 0.8252718717340165 -2.695452099586011 0.0
    vertex 24.0 0.0 0.0
    vertex 2.247160081979082 -5.129537061333257 0.0
  endloop
endfacet
facet normal 0.0 0.0 -1.0
  outer loop
    vertex 2.247160081979082 -5.129537061333257 0.0
    vertex 24.0 0.0 0.0
    vertex 4.189750324093346 -7.172299611087988 0.0
  endloop
endfacet
facet normal 0.0 0.0 -1.0
  outer loop
    vertex 4.189750324093346 -7.172299611087988 0.0
    vertex 24.0 0.0 0.0
    vertex 6.549328121610409 -8.714677094359361 0.0
  endloop
endfacet
facet normal 0.0 0.0 -1.0
  outer loop
    vertex 6.549328121610409 -8.714677094359361 0.0
    vertex 24.0 0.0 0.0
    vertex 9.199916121897793 -9.674322308055821 0.0
  endloop
endfacet
facet normal 0.0 0.0 -1.0
  outer loop
    vertex 9.199916121897793 -9.674322308055821 0.0
    vertex 24.0 0.0 0.0
    vertex 12.000000000000005 -10.000000000000004 0.0
  endloop
endfacet
facet normal 0.0 0.0 -1.0
  outer loop
    vertex 12.000000000000005 -10.000000000000004 0.0
    vertex 24.0 0.0 0.0
    vertex 14.800083878102216 -9.67432230805582 0.0
  endloop
endfacet
facet normal 0.0 0.0 -1.0
  outer loop
    vertex 14.800083878102216 -9.67432230805582 0.0
    vertex 24.0 0.0 0.0
    vertex 17.4506718783896 -8.714677094359358 0.0
  endloop
endfacet
facet normal 0.0 0.0 -1.0
  outer loop
    vertex 17.4506718783896 -8.714677094359358 0.0
    vertex 24.0 0.0 0.0
    vertex 19.81024967590666 -7.172299611087983 0.0
  endloop
endfacet
facet normal 0.0 0.0 -1.0
  outer loop
    vertex 19.81024967590666 -7.172299611087983 0.0
    vertex 24.0 0.0 0.0
    vertex 21.75283991802092 -5.129537061333252 0.0
  endloop
endfacet
facet normal 0.0 0.0 -1.0
  outer loop
    vertex 21.75283991802092 -5.129537061333252 0.0
    vertex 24.0 0.0 0.0
    vertex 23.174728128265986 -2.695452099586008 0.0
  endloop
endfacet
facet normal 0.3321228635737627 -0.9175271898594596 -0.2187195907095825
  outer loop
    vertex 19.21409399180455 -11.534072226970281 14.504355752897736
    vertex 14.800083878102216 -9.67432230805582 0.0
    vertex 17.4506718783896 -8.714677094359358 0.0
  endloop
endfacet
facet normal 0.3321228635737627 -0.9175271898594596 -0.2187195907095825
  outer loop
    vertex 14.800083878102216 -9.67432230805582 0.0
    vertex 19.21409399180455 -11.534072226970281 14.504355752897736
    vertex 15.705977672523922 -12.804184370793198 14.506059101868315
  endloop
endfacet
facet normal -0.7050907793350607 -0.6707116743505507 -0.2302017436653286
  outer loop
    vertex -0.9081158112958274 -6.7890583111373415 14.497992208853047
    vertex 4.189750324093346 -7.172299611087988 0.0
    vertex 1.662948620180297 -9.492700745195098 14.50161806707295
  endloop
endfacet
facet normal -0.7050907793350607 -0.6707116743505507 -0.2302017436653286
  outer loop
    vertex 4.189750324093346 -7.172299611087988 0.0
    vertex -0.9081158112958274 -6.7890583111373415 14.497992208853047
    vertex 2.247160081979082 -5.129537061333257 0.0
  endloop
endfacet
facet normal -0.5332223188957901 -0.8159315896892457 -0.22344932217077124
  outer loop
    vertex 4.7859060081954565 -11.534072226970281 14.504355752897736
    vertex 4.189750324093346 -7.172299611087988 0.0
    vertex 6.549328121610409 -8.714677094359361 0.0
  endloop
endfacet
facet normal -0.5332223188957901 -0.8159315896892457 -0.22344932217077124
  outer loop
    vertex 4.189750324093346 -7.172299611087988 0.0
    vertex 4.7859060081954565 -11.534072226970281 14.504355752897736
    vertex 1.662948620180297 -9.492700745195098 14.50161806707295
  endloop
endfacet
facet normal 0.7050907793350605 -0.6707116743505512 -0.2302017436653279
  outer loop
    vertex 19.81024967590666 -7.172299611087983 0.0
    vertex 24.908115811295826 -6.789058311137334 14.49799220885306
    vertex 22.337051379819695 -9.492700745195087 14.501618067072947
  endloop
endfacet
facet normal 0.7050907793350605 -0.6707116743505512 -0.2302017436653279
  outer loop
    vertex 24.908115811295826 -6.789058311137334 14.49799220885306
    vertex 19.81024967590666 -7.172299611087983 0.0
    vertex 21.75283991802092 -5.129537061333252 0.0
  endloop
endfacet
facet normal 0.11277531892397112 -0.9697952211227386 -0.21628443431993716
  outer loop
    vertex 15.705977672523922 -12.804184370793198 14.506059101868315
    vertex 12.000000000000005 -10.000000000000004 0.0
    vertex 14.800083878102216 -9.67432230805582 0.0
  endloop
endfacet
facet normal 0.11277531892397112 -0.9697952211227386 -0.21628443431993716
  outer loop
    vertex 12.000000000000005 -10.000000000000004 0.0
    vertex 15.705977672523922 -12.804184370793198 14.506059101868315
    vertex 12.0 -13.235226161662135 14.506637172548396
  endloop
endfacet
facet normal -0.8384432922946973 -0.4899866351400613 -0.23859158197671038
  outer loop
    vertex -2.7900187075635934 -3.56749181459479 14.493671762030939
    vertex 2.247160081979082 -5.129537061333257 0.0
    vertex -0.9081158112958274 -6.7890583111373415 14.497992208853047
  endloop
endfacet
facet normal -0.8384432922946973 -0.4899866351400613 -0.23859158197671038
  outer loop
    vertex 2.247160081979082 -5.129537061333257 0.0
    vertex -2.7900187075635934 -3.56749181459479 14.493671762030939
    vertex 0.8252718717340165 -2.695452099586011 0.0
  endloop
endfacet
facet normal -0.9262204884000468 -0.28379475774449603 -0.24814540564903023
  outer loop
    vertex -3.882285676537809 -1.7451928840925368e-17 14.488887394335956
    vertex 0.8252718717340165 -2.695452099586011 0.0
    vertex -2.7900187075635934 -3.56749181459479 14.493671762030939
  endloop
endfacet
facet normal -0.9262204884000468 -0.28379475774449603 -0.24814540564903023
  outer loop
    vertex 0.8252718717340165 -2.695452099586011 0.0
    vertex -3.882285676537809 -1.7451928840925368e-17 14.488887394335956
    vertex 0.0 0.0 0.0
  endloop
endfacet
facet normal -0.33212286357376447 -0.9175271898594588 -0.2187195907095828
  outer loop
    vertex 8.294022327476055 -12.804184370793198 14.506059101868308
    vertex 6.549328121610409 -8.714677094359361 0.0
    vertex 9.199916121897793 -9.674322308055821 0.0
  endloop
endfacet
facet normal -0.33212286357376447 -0.9175271898594588 -0.2187195907095828
  outer loop
    vertex 6.549328121610409 -8.714677094359361 0.0
    vertex 8.294022327476055 -12.804184370793198 14.506059101868308
    vertex 4.7859060081954565 -11.534072226970281 14.504355752897736
  endloop
endfacet
facet normal 0.9262204884000481 -0.2837947577444921 -0.24814540564903018
  outer loop
    vertex 23.174728128265986 -2.695452099586008 0.0
    vertex 27.88228567653781 0.0 14.488887394336025
    vertex 26.7900187075636 -3.5674918145947867 14.493671762030937
  endloop
endfacet
facet normal 0.9262204884000481 -0.2837947577444921 -0.24814540564903018
  outer loop
    vertex 27.88228567653781 0.0 14.488887394336025
    vertex 23.174728128265986 -2.695452099586008 0.0
    vertex 24.0 0.0 0.0
  endloop
endfacet
facet normal -0.11277531892396994 -0.9697952211227386 -0.21628443431993724
  outer loop
    vertex 12.0 -13.235226161662135 14.506637172548396
    vertex 9.199916121897793 -9.674322308055821 0.0
    vertex 12.000000000000005 -10.000000000000004 0.0
  endloop
endfacet
facet normal -0.11277531892396994 -0.9697952211227386 -0.21628443431993724
  outer loop
    vertex 9.199916121897793 -9.674322308055821 0.0
    vertex 12.0 -13.235226161662135 14.506637172548396
    vertex 8.294022327476055 -12.804184370793198 14.506059101868308
  endloop
endfacet
facet normal -0.9659258262890682 4.3565405014057144e-17 -0.25881904510252113
  outer loop
    vertex -3.882285676537809 185.0 14.488887394336025
    vertex 0.0 0.0 0.0
    vertex -3.882285676537809 -1.7451928840925368e-17 14.488887394335956
  endloop
endfacet
facet normal -0.9659258262890682 4.3565405014057144e-17 -0.25881904510252113
  outer loop
    vertex 0.0 0.0 0.0
    vertex -3.882285676537809 185.0 14.488887394336025
    vertex 0.0 185.0 0.0
  endloop
endfacet
facet normal 0.8384432922946965 -0.4899866351400628 -0.23859158197671024
  outer loop
    vertex 21.75283991802092 -5.129537061333252 0.0
    vertex 26.7900187075636 -3.5674918145947867 14.493671762030937
    vertex 24.908115811295826 -6.789058311137334 14.49799220885306
  endloop
endfacet
facet normal 0.8384432922946965 -0.4899866351400628 -0.23859158197671024
  outer loop
    vertex 26.7900187075636 -3.5674918145947867 14.493671762030937
    vertex 21.75283991802092 -5.129537061333252 0.0
    vertex 23.174728128265986 -2.695452099586008 0.0
  endloop
endfacet
facet normal 0.5332223188957924 -0.8159315896892442 -0.2234493221707708
  outer loop
    vertex 22.337051379819695 -9.492700745195087 14.501618067072947
    vertex 17.4506718783896 -8.714677094359358 0.0
    vertex 19.81024967590666 -7.172299611087983 0.0
  endloop
endfacet
facet normal 0.5332223188957924 -0.8159315896892442 -0.2234493221707708
  outer loop
    vertex 17.4506718783896 -8.714677094359358 0.0
    vertex 22.337051379819695 -9.492700745195087 14.501618067072947
    vertex 19.21409399180455 -11.534072226970281 14.504355752897736
  endloop
endfacet
facet normal -1.065325183029685e-15 -1.6919798895287383e-16 1.0
  outer loop
    vertex 27.88228567653781 0.0 14.488887394336025
    vertex -3.882285676537809 185.0 14.488887394336025
    vertex -3.882285676537809 -1.7451928840925368e-17 14.488887394335956
  endloop
endfacet
facet normal -1.065325183029685e-15 -1.6919798895287383e-16 1.0
  outer loop
    vertex -3.882285676537809 185.0 14.488887394336025
    vertex 27.88228567653781 0.0 14.488887394336025
    vertex 27.88228567653781 185.0 14.488887394336025
  endloop
endfacet
facet normal -7.289974304370141e-16 0.0013411000336277937 0.9999991007249456
  outer loop
    vertex -2.7900187075635934 -3.56749181459479 14.493671762030939
    vertex 27.88228567653781 0.0 14.488887394336025
    vertex -3.882285676537809 -1.7451928840925368e-17 14.488887394335956
  endloop
endfacet
facet normal -7.289974304370141e-16 0.0013411000336277937 0.9999991007249456
  outer loop
    vertex 27.88228567653781 0.0 14.488887394336025
    vertex -2.7900187075635934 -3.56749181459479 14.493671762030939
    vertex -0.9081158112958274 -6.7890583111373415 14.497992208853047
  endloop
endfacet
facet normal -7.289974304370141e-16 0.0013411000336277937 0.9999991007249456
  outer loop
    vertex 27.88228567653781 0.0 14.488887394336025
    vertex -0.9081158112958274 -6.7890583111373415 14.497992208853047
    vertex 1.662948620180297 -9.492700745195098 14.50161806707295
  endloop
endfacet
facet normal -7.289974304370141e-16 0.0013411000336277937 0.9999991007249456
  outer loop
    vertex 27.88228567653781 0.0 14.488887394336025
    vertex 1.662948620180297 -9.492700745195098 14.50161806707295
    vertex 4.7859060081954565 -11.534072226970281 14.504355752897736
  endloop
endfacet
facet normal -7.289974304370141e-16 0.0013411000336277937 0.9999991007249456
  outer loop
    vertex 27.88228567653781 0.0 14.488887394336025
    vertex 4.7859060081954565 -11.534072226970281 14.504355752897736
    vertex 8.294022327476055 -12.804184370793198 14.506059101868308
  endloop
endfacet
facet normal -7.289974304370141e-16 0.0013411000336277937 0.9999991007249456
  outer loop
    vertex 27.88228567653781 0.0 14.488887394336025
    vertex 8.294022327476055 -12.804184370793198 14.506059101868308
    vertex 12.0 -13.235226161662135 14.506637172548396
  endloop
endfacet
facet normal -7.289974304370141e-16 0.0013411000336277937 0.9999991007249456
  outer loop
    vertex 27.88228567653781 0.0 14.488887394336025
    vertex 12.0 -13.235226161662135 14.506637172548396
    vertex 15.705977672523922 -12.804184370793198 14.506059101868315
  endloop
endfacet
facet normal -7.289974304370141e-16 0.0013411000336277937 0.9999991007249456
  outer loop
    vertex 27.88228567653781 0.0 14.488887394336025
    vertex 15.705977672523922 -12.804184370793198 14.506059101868315
    vertex 19.21409399180455 -11.534072226970281 14.504355752897736
  endloop
endfacet
facet normal -7.289974304370141e-16 0.0013411000336277937 0.9999991007249456
  outer loop
    vertex 27.88228567653781 0.0 14.488887394336025
    vertex 19.21409399180455 -11.534072226970281 14.504355752897736
    vertex 22.337051379819695 -9.492700745195087 14.501618067072947
  endloop
endfacet
facet normal -7.289974304370141e-16 0.0013411000336277937 0.9999991007249456
  outer loop
    vertex 27.88228567653781 0.0 14.488887394336025
    vertex 22.337051379819695 -9.492700745195087 14.501618067072947
    vertex 24.908115811295826 -6.789058311137334 14.49799220885306
  endloop
endfacet
facet normal -7.289974304370141e-16 0.0013411000336277937 0.9999991007249456
  outer loop
    vertex 27.88228567653781 0.0 14.488887394336025
    vertex 24.908115811295826 -6.789058311137334 14.49799220885306
    vertex 26.7900187075636 -3.5674918145947867 14.493671762030937
  endloop
endfacet
endsolid Абажюр
