solid QuickChargeModule
facet normal 0.0 -1.0 0.0
  outer loop
    vertex 15.0 0.0 6.0
    vertex 0.0 0.0 0.9999999999999999
    vertex 15.0 0.0 0.9999999999999999
  endloop
endfacet
facet normal 0.0 -1.0 0.0
  outer loop
    vertex 0.0 0.0 0.9999999999999999
    vertex 15.0 0.0 6.0
    vertex 0.0 0.0 6.0
  endloop
endfacet
facet normal -1.0 0.0 0.0
  outer loop
    vertex 0.0 21.0 6.0
    vertex 0.0 0.0 0.9999999999999999
    vertex 0.0 0.0 6.0
  endloop
endfacet
facet normal -1.0 0.0 0.0
  outer loop
    vertex 0.0 0.0 0.9999999999999999
    vertex 0.0 21.0 6.0
    vertex 0.0 21.0 0.9999999999999999
  endloop
endfacet
facet normal -0.0 1.0 -0.0
  outer loop
    vertex 0.0 21.0 6.0
    vertex 15.0 21.0 0.9999999999999999
    vertex 0.0 21.0 0.9999999999999999
  endloop
endfacet
facet normal -0.0 1.0 -0.0
  outer loop
    vertex 15.0 21.0 0.9999999999999999
    vertex 0.0 21.0 6.0
    vertex 15.0 21.0 6.0
  endloop
endfacet
facet normal 1.0 -0.0 -0.0
  outer loop
    vertex 15.0 21.0 0.9999999999999999
    vertex 15.0 0.0 6.0
    vertex 15.0 0.0 0.9999999999999999
  endloop
endfacet
facet normal 1.0 -0.0 -0.0
  outer loop
    vertex 15.0 0.0 6.0
    vertex 15.0 21.0 0.9999999999999999
    vertex 15.0 21.0 6.0
  endloop
endfacet
facet normal -1.0 0.0 0.0
  outer loop
    vertex 7.999999999999999 17.250000000000004 0.9999999999999999
    vertex 7.999999999999999 3.7500000000000018 0.0
    vertex 7.999999999999999 3.7500000000000018 0.9999999999999999
  endloop
endfacet
facet normal -1.0 0.0 0.0
  outer loop
    vertex 7.999999999999999 3.7500000000000018 0.0
    vertex 7.999999999999999 17.250000000000004 0.9999999999999999
    vertex 7.999999999999999 17.250000000000004 0.0
  endloop
endfacet
facet normal -0.0 -1.0 -0.0
  outer loop
    vertex 7.999999999999999 17.250000000000004 0.9999999999999999
    vertex 1.9999999999999998 17.250000000000004 0.0
    vertex 7.999999999999999 17.250000000000004 0.0
  endloop
endfacet
facet normal -0.0 -1.0 -0.0
  outer loop
    vertex 1.9999999999999998 17.250000000000004 0.0
    vertex 7.999999999999999 17.250000000000004 0.9999999999999999
    vertex 1.9999999999999998 17.250000000000004 6.0
  endloop
endfacet
facet normal -0.0 -1.0 -0.0
  outer loop
    vertex 1.9999999999999998 17.250000000000004 6.0
    vertex 7.999999999999999 17.250000000000004 0.9999999999999999
    vertex 7.999999999999999 17.250000000000004 6.0
  endloop
endfacet
facet normal 1.0 -0.0 -0.0
  outer loop
    vertex 1.9999999999999998 17.250000000000004 0.0
    vertex 1.9999999999999998 3.7500000000000018 6.0
    vertex 1.9999999999999998 3.7500000000000018 0.0
  endloop
endfacet
facet normal 1.0 -0.0 -0.0
  outer loop
    vertex 1.9999999999999998 3.7500000000000018 6.0
    vertex 1.9999999999999998 17.250000000000004 0.0
    vertex 1.9999999999999998 17.250000000000004 6.0
  endloop
endfacet
facet normal -0.0 1.0 -0.0
  outer loop
    vertex 1.9999999999999998 3.7500000000000018 6.0
    vertex 7.999999999999999 3.7500000000000018 0.0
    vertex 1.9999999999999998 3.7500000000000018 0.0
  endloop
endfacet
facet normal -0.0 1.0 -0.0
  outer loop
    vertex 7.999999999999999 3.7500000000000018 0.0
    vertex 1.9999999999999998 3.7500000000000018 6.0
    vertex 7.999999999999999 3.7500000000000018 0.9999999999999999
  endloop
endfacet
facet normal -0.0 1.0 -0.0
  outer loop
    vertex 7.999999999999999 3.7500000000000018 0.9999999999999999
    vertex 1.9999999999999998 3.7500000000000018 6.0
    vertex 7.999999999999999 3.7500000000000018 6.0
  endloop
endfacet
facet normal -2.3499720687899147e-16 1.0 0.0
  outer loop
    vertex 10.000000000000002 6.0 0.9999999999999999
    vertex 13.200000000000001 6.000000000000001 0.0
    vertex 10.000000000000002 6.0 0.0
  endloop
endfacet
facet normal -2.3499720687899147e-16 1.0 0.0
  outer loop
    vertex 13.200000000000001 6.000000000000001 0.0
    vertex 10.000000000000002 6.0 0.9999999999999999
    vertex 13.200000000000001 6.000000000000001 0.9999999999999999
  endloop
endfacet
facet normal -2.3499720687899147e-16 1.0 0.0
  outer loop
    vertex 13.200000000000001 6.000000000000001 0.9999999999999999
    vertex 10.000000000000002 6.0 0.9999999999999999
    vertex 11.000000000000002 6.000000000000001 0.9999999999999999
  endloop
endfacet
facet normal 0.0 -1.0 0.0
  outer loop
    vertex 13.200000000000001 15.0 0.9999999999999999
    vertex 10.000000000000002 15.0 0.0
    vertex 13.200000000000001 15.0 0.0
  endloop
endfacet
facet normal 0.0 -1.0 0.0
  outer loop
    vertex 10.000000000000002 15.0 0.0
    vertex 13.200000000000001 15.0 0.9999999999999999
    vertex 10.000000000000002 15.0 0.9999999999999999
  endloop
endfacet
facet normal 0.0 -1.0 0.0
  outer loop
    vertex 10.000000000000002 15.0 0.9999999999999999
    vertex 13.200000000000001 15.0 0.9999999999999999
    vertex 11.000000000000002 15.0 0.9999999999999999
  endloop
endfacet
facet normal 1.0 0.0 0.0
  outer loop
    vertex 10.000000000000002 15.0 0.0
    vertex 10.000000000000002 6.0 0.9999999999999999
    vertex 10.000000000000002 6.0 0.0
  endloop
endfacet
facet normal 1.0 0.0 0.0
  outer loop
    vertex 10.000000000000002 6.0 0.9999999999999999
    vertex 10.000000000000002 15.0 0.0
    vertex 10.000000000000002 15.0 0.9999999999999999
  endloop
endfacet
facet normal -0.0 -0.0 1.0
  outer loop
    vertex 11.000000000000002 1.2500000000000004 0.9999999999999999
    vertex 7.999999999999999 3.7500000000000018 0.9999999999999999
    vertex 7.999999999999999 1.2500000000000004 0.9999999999999999
  endloop
endfacet
facet normal -0.0 -0.0 1.0
  outer loop
    vertex 7.999999999999999 3.7500000000000018 0.9999999999999999
    vertex 11.000000000000002 1.2500000000000004 0.9999999999999999
    vertex 10.000000000000002 6.0 0.9999999999999999
  endloop
endfacet
facet normal -0.0 -0.0 1.0
  outer loop
    vertex 7.999999999999999 3.7500000000000018 0.9999999999999999
    vertex 10.000000000000002 6.0 0.9999999999999999
    vertex 7.999999999999999 17.250000000000004 0.9999999999999999
  endloop
endfacet
facet normal -0.0 -0.0 1.0
  outer loop
    vertex 7.999999999999999 17.250000000000004 0.9999999999999999
    vertex 10.000000000000002 6.0 0.9999999999999999
    vertex 7.999999999999999 19.749999999999996 0.9999999999999999
  endloop
endfacet
facet normal -0.0 -0.0 1.0
  outer loop
    vertex 10.000000000000002 6.0 0.9999999999999999
    vertex 11.000000000000002 1.2500000000000004 0.9999999999999999
    vertex 11.000000000000002 6.000000000000001 0.9999999999999999
  endloop
endfacet
facet normal -0.0 -0.0 1.0
  outer loop
    vertex 7.999999999999999 19.749999999999996 0.9999999999999999
    vertex 10.000000000000002 15.0 0.9999999999999999
    vertex 11.000000000000002 19.749999999999996 0.9999999999999999
  endloop
endfacet
facet normal -0.0 -0.0 1.0
  outer loop
    vertex 10.000000000000002 15.0 0.9999999999999999
    vertex 7.999999999999999 19.749999999999996 0.9999999999999999
    vertex 10.000000000000002 6.0 0.9999999999999999
  endloop
endfacet
facet normal -0.0 -0.0 1.0
  outer loop
    vertex 11.000000000000002 19.749999999999996 0.9999999999999999
    vertex 10.000000000000002 15.0 0.9999999999999999
    vertex 11.000000000000002 15.0 0.9999999999999999
  endloop
endfacet
facet normal 0.0 0.0 1.0
  outer loop
    vertex 13.200000000000001 15.0 6.0
    vertex 11.000000000000002 19.749999999999996 6.0
    vertex 11.000000000000002 15.0 6.0
  endloop
endfacet
facet normal 0.0 0.0 1.0
  outer loop
    vertex 0.0 0.0 6.0
    vertex 1.9999999999999998 3.7500000000000018 6.0
    vertex 0.0 21.0 6.0
  endloop
endfacet
facet normal 0.0 0.0 1.0
  outer loop
    vertex 1.9999999999999998 3.7500000000000018 6.0
    vertex 0.0 0.0 6.0
    vertex 7.999999999999999 1.2500000000000004 6.0
  endloop
endfacet
facet normal 0.0 0.0 1.0
  outer loop
    vertex 7.999999999999999 1.2500000000000004 6.0
    vertex 0.0 0.0 6.0
    vertex 15.0 0.0 6.0
  endloop
endfacet
facet normal 0.0 0.0 1.0
  outer loop
    vertex 7.999999999999999 1.2500000000000004 6.0
    vertex 15.0 0.0 6.0
    vertex 11.000000000000002 1.2500000000000004 6.0
  endloop
endfacet
facet normal 0.0 0.0 1.0
  outer loop
    vertex 11.000000000000002 1.2500000000000004 6.0
    vertex 15.0 0.0 6.0
    vertex 11.000000000000002 6.000000000000001 6.0
  endloop
endfacet
facet normal 0.0 0.0 1.0
  outer loop
    vertex 11.000000000000002 6.000000000000001 6.0
    vertex 15.0 0.0 6.0
    vertex 13.200000000000001 6.000000000000001 6.0
  endloop
endfacet
facet normal 0.0 0.0 1.0
  outer loop
    vertex 13.200000000000001 6.000000000000001 6.0
    vertex 15.0 0.0 6.0
    vertex 13.200000000000001 15.0 6.0
  endloop
endfacet
facet normal 0.0 0.0 1.0
  outer loop
    vertex 0.0 21.0 6.0
    vertex 7.999999999999999 19.749999999999996 6.0
    vertex 15.0 21.0 6.0
  endloop
endfacet
facet normal 0.0 0.0 1.0
  outer loop
    vertex 7.999999999999999 19.749999999999996 6.0
    vertex 0.0 21.0 6.0
    vertex 1.9999999999999998 17.250000000000004 6.0
  endloop
endfacet
facet normal 0.0 0.0 1.0
  outer loop
    vertex 1.9999999999999998 17.250000000000004 6.0
    vertex 0.0 21.0 6.0
    vertex 1.9999999999999998 3.7500000000000018 6.0
  endloop
endfacet
facet normal 0.0 0.0 1.0
  outer loop
    vertex 7.999999999999999 19.749999999999996 6.0
    vertex 1.9999999999999998 17.250000000000004 6.0
    vertex 7.999999999999999 17.250000000000004 6.0
  endloop
endfacet
facet normal 0.0 0.0 1.0
  outer loop
    vertex 15.0 21.0 6.0
    vertex 7.999999999999999 19.749999999999996 6.0
    vertex 11.000000000000002 19.749999999999996 6.0
  endloop
endfacet
facet normal 0.0 0.0 1.0
  outer loop
    vertex 15.0 21.0 6.0
    vertex 11.000000000000002 19.749999999999996 6.0
    vertex 13.200000000000001 15.0 6.0
  endloop
endfacet
facet normal 0.0 0.0 1.0
  outer loop
    vertex 15.0 21.0 6.0
    vertex 13.200000000000001 15.0 6.0
    vertex 15.0 0.0 6.0
  endloop
endfacet
facet normal 0.0 0.0 1.0
  outer loop
    vertex 7.999999999999999 3.7500000000000018 6.0
    vertex 1.9999999999999998 3.7500000000000018 6.0
    vertex 7.999999999999999 1.2500000000000004 6.0
  endloop
endfacet
facet normal 1.0 -0.0 0.0
  outer loop
    vertex 7.999999999999999 19.749999999999996 0.9999999999999999
    vertex 7.999999999999999 17.250000000000004 6.0
    vertex 7.999999999999999 17.250000000000004 0.9999999999999999
  endloop
endfacet
facet normal 1.0 -0.0 0.0
  outer loop
    vertex 7.999999999999999 17.250000000000004 6.0
    vertex 7.999999999999999 19.749999999999996 0.9999999999999999
    vertex 7.999999999999999 19.749999999999996 6.0
  endloop
endfacet
facet normal 0.0 -1.0 0.0
  outer loop
    vertex 11.000000000000002 19.749999999999996 6.0
    vertex 7.999999999999999 19.749999999999996 0.9999999999999999
    vertex 11.000000000000002 19.749999999999996 0.9999999999999999
  endloop
endfacet
facet normal 0.0 -1.0 0.0
  outer loop
    vertex 7.999999999999999 19.749999999999996 0.9999999999999999
    vertex 11.000000000000002 19.749999999999996 6.0
    vertex 7.999999999999999 19.749999999999996 6.0
  endloop
endfacet
facet normal -1.0 -0.0 -0.0
  outer loop
    vertex 11.000000000000002 19.749999999999996 6.0
    vertex 11.000000000000002 15.0 0.9999999999999999
    vertex 11.000000000000002 15.0 6.0
  endloop
endfacet
facet normal -1.0 -0.0 -0.0
  outer loop
    vertex 11.000000000000002 15.0 0.9999999999999999
    vertex 11.000000000000002 19.749999999999996 6.0
    vertex 11.000000000000002 19.749999999999996 0.9999999999999999
  endloop
endfacet
facet normal -1.0 -0.0 -0.0
  outer loop
    vertex 11.000000000000002 6.000000000000001 6.0
    vertex 11.000000000000002 1.2500000000000004 0.9999999999999999
    vertex 11.000000000000002 1.2500000000000004 6.0
  endloop
endfacet
facet normal -1.0 -0.0 -0.0
  outer loop
    vertex 11.000000000000002 1.2500000000000004 0.9999999999999999
    vertex 11.000000000000002 6.000000000000001 6.0
    vertex 11.000000000000002 6.000000000000001 0.9999999999999999
  endloop
endfacet
facet normal 0.0 1.0 0.0
  outer loop
    vertex 7.999999999999999 1.2500000000000004 6.0
    vertex 11.000000000000002 1.2500000000000004 0.9999999999999999
    vertex 7.999999999999999 1.2500000000000004 0.9999999999999999
  endloop
endfacet
facet normal 0.0 1.0 0.0
  outer loop
    vertex 11.000000000000002 1.2500000000000004 0.9999999999999999
    vertex 7.999999999999999 1.2500000000000004 6.0
    vertex 11.000000000000002 1.2500000000000004 6.0
  endloop
endfacet
facet normal 1.0 -0.0 0.0
  outer loop
    vertex 7.999999999999999 3.7500000000000018 0.9999999999999999
    vertex 7.999999999999999 1.2500000000000004 6.0
    vertex 7.999999999999999 1.2500000000000004 0.9999999999999999
  endloop
endfacet
facet normal 1.0 -0.0 0.0
  outer loop
    vertex 7.999999999999999 1.2500000000000004 6.0
    vertex 7.999999999999999 3.7500000000000018 0.9999999999999999
    vertex 7.999999999999999 3.7500000000000018 6.0
  endloop
endfacet
facet normal 0.0 0.0 -1.0
  outer loop
    vertex -3.0 24.0 0.0
    vertex 1.9999999999999998 17.250000000000004 0.0
    vertex -3.0 -2.9999999999999996 0.0
  endloop
endfacet
facet normal 0.0 0.0 -1.0
  outer loop
    vertex 1.9999999999999998 17.250000000000004 0.0
    vertex -3.0 24.0 0.0
    vertex 18.0 24.0 0.0
  endloop
endfacet
facet normal 0.0 0.0 -1.0
  outer loop
    vertex 1.9999999999999998 17.250000000000004 0.0
    vertex 18.0 24.0 0.0
    vertex 7.999999999999999 17.250000000000004 0.0
  endloop
endfacet
facet normal 0.0 0.0 -1.0
  outer loop
    vertex 7.999999999999999 17.250000000000004 0.0
    vertex 18.0 24.0 0.0
    vertex 10.000000000000002 15.0 0.0
  endloop
endfacet
facet normal 0.0 0.0 -1.0
  outer loop
    vertex 7.999999999999999 17.250000000000004 0.0
    vertex 10.000000000000002 15.0 0.0
    vertex 7.999999999999999 3.7500000000000018 0.0
  endloop
endfacet
facet normal 0.0 0.0 -1.0
  outer loop
    vertex 10.000000000000002 15.0 0.0
    vertex 18.0 24.0 0.0
    vertex 13.200000000000001 15.0 0.0
  endloop
endfacet
facet normal 0.0 0.0 -1.0
  outer loop
    vertex 13.200000000000001 15.0 0.0
    vertex 18.0 24.0 0.0
    vertex 13.200000000000001 6.000000000000001 0.0
  endloop
endfacet
facet normal 0.0 0.0 -1.0
  outer loop
    vertex -3.0 -2.9999999999999996 0.0
    vertex 1.9999999999999998 3.7500000000000018 0.0
    vertex 18.0 -2.9999999999999996 0.0
  endloop
endfacet
facet normal 0.0 0.0 -1.0
  outer loop
    vertex 1.9999999999999998 3.7500000000000018 0.0
    vertex -3.0 -2.9999999999999996 0.0
    vertex 1.9999999999999998 17.250000000000004 0.0
  endloop
endfacet
facet normal 0.0 0.0 -1.0
  outer loop
    vertex 18.0 -2.9999999999999996 0.0
    vertex 1.9999999999999998 3.7500000000000018 0.0
    vertex 7.999999999999999 3.7500000000000018 0.0
  endloop
endfacet
facet normal 0.0 0.0 -1.0
  outer loop
    vertex 18.0 -2.9999999999999996 0.0
    vertex 7.999999999999999 3.7500000000000018 0.0
    vertex 10.000000000000002 6.0 0.0
  endloop
endfacet
facet normal 0.0 0.0 -1.0
  outer loop
    vertex 10.000000000000002 6.0 0.0
    vertex 7.999999999999999 3.7500000000000018 0.0
    vertex 10.000000000000002 15.0 0.0
  endloop
endfacet
facet normal 0.0 0.0 -1.0
  outer loop
    vertex 18.0 -2.9999999999999996 0.0
    vertex 10.000000000000002 6.0 0.0
    vertex 13.200000000000001 6.000000000000001 0.0
  endloop
endfacet
facet normal 0.0 0.0 -1.0
  outer loop
    vertex 18.0 -2.9999999999999996 0.0
    vertex 13.200000000000001 6.000000000000001 0.0
    vertex 18.0 24.0 0.0
  endloop
endfacet
facet normal -0.0 -0.0 1.0
  outer loop
    vertex -3.0 -2.9999999999999996 0.9999999999999999
    vertex 0.0 0.0 0.9999999999999999
    vertex -3.0 24.0 0.9999999999999999
  endloop
endfacet
facet normal -0.0 -0.0 1.0
  outer loop
    vertex 0.0 0.0 0.9999999999999999
    vertex -3.0 -2.9999999999999996 0.9999999999999999
    vertex 18.0 -2.9999999999999996 0.9999999999999999
  endloop
endfacet
facet normal -0.0 -0.0 1.0
  outer loop
    vertex 0.0 0.0 0.9999999999999999
    vertex 18.0 -2.9999999999999996 0.9999999999999999
    vertex 15.0 0.0 0.9999999999999999
  endloop
endfacet
facet normal -0.0 -0.0 1.0
  outer loop
    vertex 15.0 0.0 0.9999999999999999
    vertex 18.0 -2.9999999999999996 0.9999999999999999
    vertex 15.0 21.0 0.9999999999999999
  endloop
endfacet
facet normal -0.0 -0.0 1.0
  outer loop
    vertex -3.0 24.0 0.9999999999999999
    vertex 0.0 21.0 0.9999999999999999
    vertex 18.0 24.0 0.9999999999999999
  endloop
endfacet
facet normal -0.0 -0.0 1.0
  outer loop
    vertex 0.0 21.0 0.9999999999999999
    vertex -3.0 24.0 0.9999999999999999
    vertex 0.0 0.0 0.9999999999999999
  endloop
endfacet
facet normal -0.0 -0.0 1.0
  outer loop
    vertex 18.0 24.0 0.9999999999999999
    vertex 0.0 21.0 0.9999999999999999
    vertex 15.0 21.0 0.9999999999999999
  endloop
endfacet
facet normal -0.0 -0.0 1.0
  outer loop
    vertex 18.0 24.0 0.9999999999999999
    vertex 15.0 21.0 0.9999999999999999
    vertex 18.0 -2.9999999999999996 0.9999999999999999
  endloop
endfacet
facet normal 1.0 0.0 0.0
  outer loop
    vertex 18.0 24.0 0.0
    vertex 18.0 -2.9999999999999996 0.9999999999999999
    vertex 18.0 -2.9999999999999996 0.0
  endloop
endfacet
facet normal 1.0 0.0 0.0
  outer loop
    vertex 18.0 -2.9999999999999996 0.9999999999999999
    vertex 18.0 24.0 0.0
    vertex 18.0 24.0 0.9999999999999999
  endloop
endfacet
facet normal -0.0 -1.0 -0.0
  outer loop
    vertex 18.0 -2.9999999999999996 0.9999999999999999
    vertex -3.0 -2.9999999999999996 0.0
    vertex 18.0 -2.9999999999999996 0.0
  endloop
endfacet
facet normal -0.0 -1.0 -0.0
  outer loop
    vertex -3.0 -2.9999999999999996 0.0
    vertex 18.0 -2.9999999999999996 0.9999999999999999
    vertex -3.0 -2.9999999999999996 0.9999999999999999
  endloop
endfacet
facet normal -1.0 0.0 0.0
  outer loop
    vertex -3.0 24.0 0.9999999999999999
    vertex -3.0 -2.9999999999999996 0.0
    vertex -3.0 -2.9999999999999996 0.9999999999999999
  endloop
endfacet
facet normal -1.0 0.0 0.0
  outer loop
    vertex -3.0 -2.9999999999999996 0.0
    vertex -3.0 24.0 0.9999999999999999
    vertex -3.0 24.0 0.0
  endloop
endfacet
facet normal -0.0 1.0 0.0
  outer loop
    vertex -3.0 24.0 0.9999999999999999
    vertex 18.0 24.0 0.0
    vertex -3.0 24.0 0.0
  endloop
endfacet
facet normal -0.0 1.0 0.0
  outer loop
    vertex 18.0 24.0 0.0
    vertex -3.0 24.0 0.9999999999999999
    vertex 18.0 24.0 0.9999999999999999
  endloop
endfacet
facet normal -1.0 0.0 0.0
  outer loop
    vertex 13.200000000000001 15.0 6.0
    vertex 13.200000000000001 6.000000000000001 0.9999999999999999
    vertex 13.200000000000001 6.000000000000001 6.0
  endloop
endfacet
facet normal -1.0 0.0 0.0
  outer loop
    vertex 13.200000000000001 6.000000000000001 0.9999999999999999
    vertex 13.200000000000001 15.0 6.0
    vertex 13.200000000000001 6.000000000000001 0.0
  endloop
endfacet
facet normal -1.0 0.0 0.0
  outer loop
    vertex 13.200000000000001 6.000000000000001 0.0
    vertex 13.200000000000001 15.0 6.0
    vertex 13.200000000000001 15.0 0.0
  endloop
endfacet
facet normal -1.0 0.0 0.0
  outer loop
    vertex 13.200000000000001 15.0 0.0
    vertex 13.200000000000001 15.0 6.0
    vertex 13.200000000000001 15.0 0.9999999999999999
  endloop
endfacet
facet normal -0.0 -1.0 -0.0
  outer loop
    vertex 13.200000000000001 15.0 6.0
    vertex 11.000000000000002 15.0 0.9999999999999999
    vertex 13.200000000000001 15.0 0.9999999999999999
  endloop
endfacet
facet normal -0.0 -1.0 -0.0
  outer loop
    vertex 11.000000000000002 15.0 0.9999999999999999
    vertex 13.200000000000001 15.0 6.0
    vertex 11.000000000000002 15.0 6.0
  endloop
endfacet
facet normal -0.0 1.0 -0.0
  outer loop
    vertex 11.000000000000002 6.000000000000001 6.0
    vertex 13.200000000000001 6.000000000000001 0.9999999999999999
    vertex 11.000000000000002 6.000000000000001 0.9999999999999999
  endloop
endfacet
facet normal -0.0 1.0 -0.0
  outer loop
    vertex 13.200000000000001 6.000000000000001 0.9999999999999999
    vertex 11.000000000000002 6.000000000000001 6.0
    vertex 13.200000000000001 6.000000000000001 6.0
  endloop
endfacet
endsolid QuickChargeModule
