solid Натяжитель АBelt
facet normal 1.0 0.0 0.0
  outer loop
    vertex 9.999999999999998 -22.999999999999996 0.2000000000000005
    vertex 9.999999999999998 -20.199999999999996 2.3000000000000007
    vertex 9.999999999999998 -22.999999999999996 10.0
  endloop
endfacet
facet normal 1.0 0.0 0.0
  outer loop
    vertex 9.999999999999998 -20.199999999999996 2.3000000000000007
    vertex 9.999999999999998 -22.999999999999996 0.2000000000000005
    vertex 9.999999999999998 -19.2 0.2000000000000005
  endloop
endfacet
facet normal 1.0 0.0 0.0
  outer loop
    vertex 9.999999999999998 -20.199999999999996 2.3000000000000007
    vertex 9.999999999999998 -19.2 0.2000000000000005
    vertex 9.999999999999998 -19.2 1.7999999999999996
  endloop
endfacet
facet normal 1.0 0.0 0.0
  outer loop
    vertex 9.999999999999998 6.999999999999998 0.19999999999999998
    vertex 9.999999999999998 3.1999999999999997 1.7999999999999996
    vertex 9.999999999999998 3.1999999999999997 0.19999999999999976
  endloop
endfacet
facet normal 1.0 0.0 0.0
  outer loop
    vertex 9.999999999999998 3.1999999999999997 1.7999999999999996
    vertex 9.999999999999998 6.999999999999998 0.19999999999999998
    vertex 9.999999999999998 4.200000000000001 2.3
  endloop
endfacet
facet normal 1.0 0.0 0.0
  outer loop
    vertex 9.999999999999998 4.200000000000001 2.3
    vertex 9.999999999999998 6.999999999999998 0.19999999999999998
    vertex 9.999999999999998 4.200000000000001 7.999999999999999
  endloop
endfacet
facet normal 1.0 0.0 0.0
  outer loop
    vertex 9.999999999999998 -22.999999999999996 10.0
    vertex 9.999999999999998 -20.199999999999996 7.999999999999999
    vertex 9.999999999999998 6.999999999999998 10.0
  endloop
endfacet
facet normal 1.0 0.0 0.0
  outer loop
    vertex 9.999999999999998 -20.199999999999996 7.999999999999999
    vertex 9.999999999999998 -22.999999999999996 10.0
    vertex 9.999999999999998 -20.199999999999996 2.3000000000000007
  endloop
endfacet
facet normal 1.0 0.0 0.0
  outer loop
    vertex 9.999999999999998 6.999999999999998 10.0
    vertex 9.999999999999998 -20.199999999999996 7.999999999999999
    vertex 9.999999999999998 4.200000000000001 7.999999999999999
  endloop
endfacet
facet normal 1.0 0.0 0.0
  outer loop
    vertex 9.999999999999998 6.999999999999998 10.0
    vertex 9.999999999999998 4.200000000000001 7.999999999999999
    vertex 9.999999999999998 6.999999999999998 0.19999999999999998
  endloop
endfacet
facet normal 0.0 1.0 0.0
  outer loop
    vertex -7.0 6.999999999999998 0.20000000000000057
    vertex 9.999999999999998 6.999999999999998 10.0
    vertex 9.999999999999998 6.999999999999998 0.19999999999999998
  endloop
endfacet
facet normal 0.0 1.0 0.0
  outer loop
    vertex 9.999999999999998 6.999999999999998 10.0
    vertex -7.0 6.999999999999998 0.20000000000000057
    vertex -6.999999999999998 6.999999999999998 10.0
  endloop
endfacet
facet normal 0.0 -1.0 0.0
  outer loop
    vertex 9.999999999999998 3.1999999999999997 1.7999999999999996
    vertex -3.9999999999999996 3.1999999999999997 0.19999999999999976
    vertex 9.999999999999998 3.1999999999999997 0.19999999999999976
  endloop
endfacet
facet normal 0.0 -1.0 0.0
  outer loop
    vertex -3.9999999999999996 3.1999999999999997 0.19999999999999976
    vertex 9.999999999999998 3.1999999999999997 1.7999999999999996
    vertex -3.9943019999999994 3.1999999999999997 1.7999999999999996
  endloop
endfacet
facet normal 0.0 1.0 0.0
  outer loop
    vertex -3.9999999999999982 -19.2 1.7999999999999996
    vertex 9.999999999999998 -19.2 0.2000000000000005
    vertex -3.9999999999999982 -19.2 0.2000000000000005
  endloop
endfacet
facet normal 0.0 1.0 0.0
  outer loop
    vertex 9.999999999999998 -19.2 0.2000000000000005
    vertex -3.9999999999999982 -19.2 1.7999999999999996
    vertex 9.999999999999998 -19.2 1.7999999999999996
  endloop
endfacet
facet normal -1.1662167512680073e-18 -3.154275313129885e-17 -1.0
  outer loop
    vertex -7.0 6.999999999999998 0.20000000000000057
    vertex -3.9999999999999996 3.1999999999999997 0.19999999999999976
    vertex -6.999999999999998 -22.999999999999996 0.2000000000000011
  endloop
endfacet
facet normal -1.1662167512680073e-18 -3.154275313129885e-17 -1.0
  outer loop
    vertex -3.9999999999999996 3.1999999999999997 0.19999999999999976
    vertex -7.0 6.999999999999998 0.20000000000000057
    vertex 9.999999999999998 6.999999999999998 0.19999999999999998
  endloop
endfacet
facet normal -1.1662167512680073e-18 -3.154275313129885e-17 -1.0
  outer loop
    vertex -3.9999999999999996 3.1999999999999997 0.19999999999999976
    vertex 9.999999999999998 6.999999999999998 0.19999999999999998
    vertex 9.999999999999998 3.1999999999999997 0.19999999999999976
  endloop
endfacet
facet normal -1.1662167512680073e-18 -3.154275313129885e-17 -1.0
  outer loop
    vertex -6.999999999999998 -22.999999999999996 0.2000000000000011
    vertex -3.9999999999999982 -19.2 0.2000000000000005
    vertex 9.999999999999998 -22.999999999999996 0.2000000000000005
  endloop
endfacet
facet normal -1.1662167512680073e-18 -3.154275313129885e-17 -1.0
  outer loop
    vertex -3.9999999999999982 -19.2 0.2000000000000005
    vertex -6.999999999999998 -22.999999999999996 0.2000000000000011
    vertex -3.9999999999999996 3.1999999999999997 0.19999999999999976
  endloop
endfacet
facet normal -1.1662167512680073e-18 -3.154275313129885e-17 -1.0
  outer loop
    vertex 9.999999999999998 -22.999999999999996 0.2000000000000005
    vertex -3.9999999999999982 -19.2 0.2000000000000005
    vertex 9.999999999999998 -19.2 0.2000000000000005
  endloop
endfacet
facet normal 0.0 0.0 1.0
  outer loop
    vertex 9.999999999999998 -22.999999999999996 10.0
    vertex -6.999999999999998 6.999999999999998 10.0
    vertex -6.999999999999998 -22.999999999999996 10.0
  endloop
endfacet
facet normal 0.0 0.0 1.0
  outer loop
    vertex -6.999999999999998 6.999999999999998 10.0
    vertex 9.999999999999998 -22.999999999999996 10.0
    vertex 9.999999999999998 6.999999999999998 10.0
  endloop
endfacet
facet normal 0.0 -1.0 0.0
  outer loop
    vertex 9.999999999999998 -22.999999999999996 10.0
    vertex -6.999999999999998 -22.999999999999996 0.2000000000000011
    vertex 9.999999999999998 -22.999999999999996 0.2000000000000005
  endloop
endfacet
facet normal 0.0 -1.0 0.0
  outer loop
    vertex -6.999999999999998 -22.999999999999996 0.2000000000000011
    vertex 9.999999999999998 -22.999999999999996 10.0
    vertex -6.999999999999998 -22.999999999999996 10.0
  endloop
endfacet
facet normal 0.0 0.0 -1.0
  outer loop
    vertex 9.999999999999998 4.200000000000001 7.999999999999999
    vertex -3.9999999999999982 -20.199999999999996 7.999999999999999
    vertex -3.9999999999999996 4.200000000000001 7.999999999999999
  endloop
endfacet
facet normal 0.0 0.0 -1.0
  outer loop
    vertex -3.9999999999999982 -20.199999999999996 7.999999999999999
    vertex 9.999999999999998 4.200000000000001 7.999999999999999
    vertex 9.999999999999998 -20.199999999999996 7.999999999999999
  endloop
endfacet
facet normal -1.0 -3.524958103184872e-17 1.438758409463213e-16
  outer loop
    vertex -6.999999999999998 -22.999999999999996 10.0
    vertex -6.999999999999998 -8.439992376674285 5.642073904691415
    vertex -6.999999999999998 -22.999999999999996 0.2000000000000011
  endloop
endfacet
facet normal -1.0 -3.524958103184872e-17 1.438758409463213e-16
  outer loop
    vertex -6.999999999999998 -8.439992376674285 5.642073904691415
    vertex -6.999999999999998 -22.999999999999996 10.0
    vertex -6.999999999999998 6.999999999999998 10.0
  endloop
endfacet
facet normal -1.0 -3.524958103184872e-17 1.438758409463213e-16
  outer loop
    vertex -6.999999999999998 -22.999999999999996 0.2000000000000011
    vertex -6.999999999999998 -8.439992376674285 5.642073904691415
    vertex -6.999999999999998 -8.85 5.472243186433544
  endloop
endfacet
facet normal -1.0 -3.524958103184872e-17 1.438758409463213e-16
  outer loop
    vertex -6.999999999999998 -22.999999999999996 0.2000000000000011
    vertex -6.999999999999998 -8.85 5.472243186433544
    vertex -6.999999999999998 -9.202081528017128 5.202081528017129
  endloop
endfacet
facet normal -1.0 -3.524958103184872e-17 1.438758409463213e-16
  outer loop
    vertex -6.999999999999998 -22.999999999999996 0.2000000000000011
    vertex -6.999999999999998 -9.202081528017128 5.202081528017129
    vertex -6.999999999999998 -9.472243186433545 4.849999999999998
  endloop
endfacet
facet normal -1.0 -3.524958103184872e-17 1.438758409463213e-16
  outer loop
    vertex -6.999999999999998 -22.999999999999996 0.2000000000000011
    vertex -6.999999999999998 -9.472243186433545 4.849999999999998
    vertex -6.999999999999998 -9.642073904691415 4.439992376674285
  endloop
endfacet
facet normal -1.0 -3.524958103184872e-17 1.438758409463213e-16
  outer loop
    vertex -6.999999999999998 -22.999999999999996 0.2000000000000011
    vertex -6.999999999999998 -9.642073904691415 4.439992376674285
    vertex -6.999999999999998 -9.7 3.9999999999999996
  endloop
endfacet
facet normal -1.0 -3.524958103184872e-17 1.438758409463213e-16
  outer loop
    vertex -6.999999999999998 -8.439992376674285 5.642073904691415
    vertex -6.999999999999998 6.999999999999998 10.0
    vertex -6.999999999999998 -7.999999999999999 5.699999999999998
  endloop
endfacet
facet normal -1.0 -3.524958103184872e-17 1.438758409463213e-16
  outer loop
    vertex -6.999999999999998 -7.999999999999999 5.699999999999998
    vertex -6.999999999999998 6.999999999999998 10.0
    vertex -6.999999999999998 -7.560007623325714 5.642073904691413
  endloop
endfacet
facet normal -1.0 -3.524958103184872e-17 1.438758409463213e-16
  outer loop
    vertex -6.999999999999998 -7.560007623325714 5.642073904691413
    vertex -6.999999999999998 6.999999999999998 10.0
    vertex -6.999999999999998 -7.1499999999999995 5.472243186433544
  endloop
endfacet
facet normal -1.0 -3.524958103184872e-17 1.438758409463213e-16
  outer loop
    vertex -6.999999999999998 -7.1499999999999995 5.472243186433544
    vertex -6.999999999999998 6.999999999999998 10.0
    vertex -6.999999999999998 -6.797918471982868 5.202081528017129
  endloop
endfacet
facet normal -1.0 -3.524958103184872e-17 1.438758409463213e-16
  outer loop
    vertex -6.999999999999998 -6.797918471982868 5.202081528017129
    vertex -6.999999999999998 6.999999999999998 10.0
    vertex -6.999999999999998 -6.527756813566453 4.849999999999998
  endloop
endfacet
facet normal -1.0 -3.524958103184872e-17 1.438758409463213e-16
  outer loop
    vertex -6.999999999999998 -6.527756813566453 4.849999999999998
    vertex -6.999999999999998 6.999999999999998 10.0
    vertex -6.999999999999998 -6.357926095308584 4.439992376674284
  endloop
endfacet
facet normal -1.0 -3.524958103184872e-17 1.438758409463213e-16
  outer loop
    vertex -6.999999999999998 -6.357926095308584 4.439992376674284
    vertex -6.999999999999998 6.999999999999998 10.0
    vertex -6.999999999999998 -6.3 3.9999999999999982
  endloop
endfacet
facet normal -1.0 -3.524958103184872e-17 1.438758409463213e-16
  outer loop
    vertex -6.999999999999998 -22.999999999999996 0.2000000000000011
    vertex -6.999999999999998 -8.439992376674287 2.3579260953085845
    vertex -7.0 6.999999999999998 0.20000000000000057
  endloop
endfacet
facet normal -1.0 -3.524958103184872e-17 1.438758409463213e-16
  outer loop
    vertex -6.999999999999998 -8.439992376674287 2.3579260953085845
    vertex -6.999999999999998 -22.999999999999996 0.2000000000000011
    vertex -6.999999999999998 -8.850000000000001 2.527756813566455
  endloop
endfacet
facet normal -1.0 -3.524958103184872e-17 1.438758409463213e-16
  outer loop
    vertex -6.999999999999998 -8.850000000000001 2.527756813566455
    vertex -6.999999999999998 -22.999999999999996 0.2000000000000011
    vertex -6.999999999999998 -9.20208152801713 2.7979184719828702
  endloop
endfacet
facet normal -1.0 -3.524958103184872e-17 1.438758409463213e-16
  outer loop
    vertex -6.999999999999998 -9.20208152801713 2.7979184719828702
    vertex -6.999999999999998 -22.999999999999996 0.2000000000000011
    vertex -6.999999999999998 -9.472243186433545 3.150000000000001
  endloop
endfacet
facet normal -1.0 -3.524958103184872e-17 1.438758409463213e-16
  outer loop
    vertex -6.999999999999998 -9.472243186433545 3.150000000000001
    vertex -6.999999999999998 -22.999999999999996 0.2000000000000011
    vertex -6.999999999999998 -9.642073904691415 3.5600076233257143
  endloop
endfacet
facet normal -1.0 -3.524958103184872e-17 1.438758409463213e-16
  outer loop
    vertex -6.999999999999998 -9.642073904691415 3.5600076233257143
    vertex -6.999999999999998 -22.999999999999996 0.2000000000000011
    vertex -6.999999999999998 -9.7 3.9999999999999996
  endloop
endfacet
facet normal -1.0 -3.524958103184872e-17 1.438758409463213e-16
  outer loop
    vertex -7.0 6.999999999999998 0.20000000000000057
    vertex -6.999999999999998 -8.439992376674287 2.3579260953085845
    vertex -6.999999999999998 -7.999999999999999 2.3000000000000003
  endloop
endfacet
facet normal -1.0 -3.524958103184872e-17 1.438758409463213e-16
  outer loop
    vertex -7.0 6.999999999999998 0.20000000000000057
    vertex -6.999999999999998 -7.999999999999999 2.3000000000000003
    vertex -6.999999999999998 -7.560007623325715 2.357926095308584
  endloop
endfacet
facet normal -1.0 -3.524958103184872e-17 1.438758409463213e-16
  outer loop
    vertex -7.0 6.999999999999998 0.20000000000000057
    vertex -6.999999999999998 -7.560007623325715 2.357926095308584
    vertex -6.999999999999998 -7.150000000000001 2.527756813566454
  endloop
endfacet
facet normal -1.0 -3.524958103184872e-17 1.438758409463213e-16
  outer loop
    vertex -7.0 6.999999999999998 0.20000000000000057
    vertex -6.999999999999998 -7.150000000000001 2.527756813566454
    vertex -6.999999999999998 -6.79791847198287 2.7979184719828694
  endloop
endfacet
facet normal -1.0 -3.524958103184872e-17 1.438758409463213e-16
  outer loop
    vertex -7.0 6.999999999999998 0.20000000000000057
    vertex -6.999999999999998 -6.79791847198287 2.7979184719828694
    vertex -6.999999999999998 -6.527756813566455 3.1499999999999995
  endloop
endfacet
facet normal -1.0 -3.524958103184872e-17 1.438758409463213e-16
  outer loop
    vertex -7.0 6.999999999999998 0.20000000000000057
    vertex -6.999999999999998 -6.527756813566455 3.1499999999999995
    vertex -6.999999999999998 -6.357926095308584 3.560007623325713
  endloop
endfacet
facet normal -1.0 -3.524958103184872e-17 1.438758409463213e-16
  outer loop
    vertex -7.0 6.999999999999998 0.20000000000000057
    vertex -6.999999999999998 -6.357926095308584 3.560007623325713
    vertex -6.999999999999998 -6.3 3.9999999999999982
  endloop
endfacet
facet normal -1.0 -3.524958103184872e-17 1.438758409463213e-16
  outer loop
    vertex -7.0 6.999999999999998 0.20000000000000057
    vertex -6.999999999999998 -6.3 3.9999999999999982
    vertex -6.999999999999998 6.999999999999998 10.0
  endloop
endfacet
facet normal -1.1446793290399439e-18 -0.6087614290087194 -0.793353340291236
  outer loop
    vertex -3.9999999999999982 -6.797918471982868 5.202081528017129
    vertex -6.999999999999998 -7.1499999999999995 5.472243186433544
    vertex -6.999999999999998 -6.797918471982868 5.202081528017129
  endloop
endfacet
facet normal -1.1446793290399439e-18 -0.6087614290087194 -0.793353340291236
  outer loop
    vertex -6.999999999999998 -7.1499999999999995 5.472243186433544
    vertex -3.9999999999999982 -6.797918471982868 5.202081528017129
    vertex -3.999999999999998 -7.1499999999999995 5.472243186433544
  endloop
endfacet
facet normal 0.0 -0.7933533402912363 -0.6087614290087194
  outer loop
    vertex -3.9999999999999982 -6.797918471982868 5.202081528017129
    vertex -6.999999999999998 -6.527756813566453 4.849999999999998
    vertex -3.9999999999999982 -6.527756813566453 4.849999999999998
  endloop
endfacet
facet normal 0.0 -0.7933533402912363 -0.6087614290087194
  outer loop
    vertex -6.999999999999998 -6.527756813566453 4.849999999999998
    vertex -3.9999999999999982 -6.797918471982868 5.202081528017129
    vertex -6.999999999999998 -6.797918471982868 5.202081528017129
  endloop
endfacet
facet normal -1.0204006870339525e-31 -0.9238795325112875 -0.38268343236508806
  outer loop
    vertex -3.9999999999999982 -6.527756813566453 4.849999999999998
    vertex -6.999999999999998 -6.357926095308584 4.439992376674284
    vertex -3.9999999999999982 -6.357926095308584 4.439992376674284
  endloop
endfacet
facet normal -1.0204006870339525e-31 -0.9238795325112875 -0.38268343236508806
  outer loop
    vertex -6.999999999999998 -6.357926095308584 4.439992376674284
    vertex -3.9999999999999982 -6.527756813566453 4.849999999999998
    vertex -6.999999999999998 -6.527756813566453 4.849999999999998
  endloop
endfacet
facet normal 0.0 -0.9914448613738103 -0.130526192220053
  outer loop
    vertex -3.9999999999999982 -6.357926095308584 4.439992376674284
    vertex -6.999999999999998 -6.3 3.9999999999999982
    vertex -3.9999999999999982 -6.3 3.9999999999999982
  endloop
endfacet
facet normal 0.0 -0.9914448613738103 -0.130526192220053
  outer loop
    vertex -6.999999999999998 -6.3 3.9999999999999982
    vertex -3.9999999999999982 -6.357926095308584 4.439992376674284
    vertex -6.999999999999998 -6.357926095308584 4.439992376674284
  endloop
endfacet
facet normal 0.0 -0.9914448613738103 0.130526192220053
  outer loop
    vertex -3.9999999999999982 -6.3 3.9999999999999982
    vertex -6.999999999999998 -6.357926095308584 3.560007623325713
    vertex -3.9999999999999982 -6.357926095308584 3.560007623325713
  endloop
endfacet
facet normal 0.0 -0.9914448613738103 0.130526192220053
  outer loop
    vertex -6.999999999999998 -6.357926095308584 3.560007623325713
    vertex -3.9999999999999982 -6.3 3.9999999999999982
    vertex -6.999999999999998 -6.3 3.9999999999999982
  endloop
endfacet
facet normal 0.0 -0.9238795325112863 0.3826834323650908
  outer loop
    vertex -3.9999999999999982 -6.357926095308584 3.560007623325713
    vertex -6.999999999999998 -6.527756813566455 3.1499999999999995
    vertex -3.9999999999999982 -6.527756813566455 3.149999999999999
  endloop
endfacet
facet normal 0.0 -0.9238795325112863 0.3826834323650908
  outer loop
    vertex -6.999999999999998 -6.527756813566455 3.1499999999999995
    vertex -3.9999999999999982 -6.357926095308584 3.560007623325713
    vertex -6.999999999999998 -6.357926095308584 3.560007623325713
  endloop
endfacet
facet normal 7.333546042396743e-17 -0.7933533402912354 0.6087614290087207
  outer loop
    vertex -3.9999999999999982 -6.527756813566455 3.149999999999999
    vertex -6.999999999999998 -6.79791847198287 2.7979184719828694
    vertex -3.9999999999999982 -6.79791847198287 2.7979184719828685
  endloop
endfacet
facet normal 7.333546042396743e-17 -0.7933533402912354 0.6087614290087207
  outer loop
    vertex -6.999999999999998 -6.79791847198287 2.7979184719828694
    vertex -3.9999999999999982 -6.527756813566455 3.149999999999999
    vertex -6.999999999999998 -6.527756813566455 3.1499999999999995
  endloop
endfacet
facet normal 1.3873446690025129e-16 -0.6087614290087207 0.7933533402912352
  outer loop
    vertex -3.9999999999999982 -7.150000000000001 2.5277568135664534
    vertex -6.999999999999998 -6.79791847198287 2.7979184719828694
    vertex -6.999999999999998 -7.150000000000001 2.527756813566454
  endloop
endfacet
facet normal 1.3873446690025129e-16 -0.6087614290087207 0.7933533402912352
  outer loop
    vertex -6.999999999999998 -6.79791847198287 2.7979184719828694
    vertex -3.9999999999999982 -7.150000000000001 2.5277568135664534
    vertex -3.9999999999999982 -6.79791847198287 2.7979184719828685
  endloop
endfacet
facet normal 1.077064723569072e-16 -0.3826834323650887 0.9238795325112873
  outer loop
    vertex -3.9999999999999982 -7.560007623325715 2.3579260953085837
    vertex -6.999999999999998 -7.150000000000001 2.527756813566454
    vertex -6.999999999999998 -7.560007623325715 2.357926095308584
  endloop
endfacet
facet normal 1.077064723569072e-16 -0.3826834323650887 0.9238795325112873
  outer loop
    vertex -6.999999999999998 -7.150000000000001 2.527756813566454
    vertex -3.9999999999999982 -7.560007623325715 2.3579260953085837
    vertex -3.9999999999999982 -7.150000000000001 2.5277568135664534
  endloop
endfacet
facet normal 1.1654647603268397e-16 -0.13052619222005182 0.9914448613738105
  outer loop
    vertex -3.9999999999999982 -7.999999999999999 2.3
    vertex -6.999999999999998 -7.560007623325715 2.357926095308584
    vertex -6.999999999999998 -7.999999999999999 2.3000000000000003
  endloop
endfacet
facet normal 1.1654647603268397e-16 -0.13052619222005182 0.9914448613738105
  outer loop
    vertex -6.999999999999998 -7.560007623325715 2.357926095308584
    vertex -3.9999999999999982 -7.999999999999999 2.3
    vertex -3.9999999999999982 -7.560007623325715 2.3579260953085837
  endloop
endfacet
facet normal 1.165977371996675e-16 0.1305261922200518 0.9914448613738105
  outer loop
    vertex -3.9999999999999982 -8.439992376674287 2.3579260953085837
    vertex -6.999999999999998 -7.999999999999999 2.3000000000000003
    vertex -6.999999999999998 -8.439992376674287 2.3579260953085845
  endloop
endfacet
facet normal 1.165977371996675e-16 0.1305261922200518 0.9914448613738105
  outer loop
    vertex -6.999999999999998 -7.999999999999999 2.3000000000000003
    vertex -3.9999999999999982 -8.439992376674287 2.3579260953085837
    vertex -3.9999999999999982 -7.999999999999999 2.3
  endloop
endfacet
facet normal 1.0950158022952226e-16 0.3826834323650902 0.9238795325112867
  outer loop
    vertex -3.9999999999999982 -8.850000000000001 2.5277568135664543
    vertex -6.999999999999998 -8.439992376674287 2.3579260953085845
    vertex -6.999999999999998 -8.850000000000001 2.527756813566455
  endloop
endfacet
facet normal 1.0950158022952226e-16 0.3826834323650902 0.9238795325112867
  outer loop
    vertex -6.999999999999998 -8.439992376674287 2.3579260953085845
    vertex -3.9999999999999982 -8.850000000000001 2.5277568135664543
    vertex -3.9999999999999982 -8.439992376674287 2.3579260953085837
  endloop
endfacet
facet normal 1.411001269139275e-16 0.6087614290087218 0.7933533402912344
  outer loop
    vertex -3.9999999999999982 -9.20208152801713 2.7979184719828694
    vertex -6.999999999999998 -8.850000000000001 2.527756813566455
    vertex -6.999999999999998 -9.20208152801713 2.7979184719828702
  endloop
endfacet
facet normal 1.411001269139275e-16 0.6087614290087218 0.7933533402912344
  outer loop
    vertex -6.999999999999998 -8.850000000000001 2.527756813566455
    vertex -3.9999999999999982 -9.20208152801713 2.7979184719828694
    vertex -3.9999999999999982 -8.850000000000001 2.5277568135664543
  endloop
endfacet
facet normal 7.096980041029099e-17 0.7933533402912358 0.6087614290087198
  outer loop
    vertex -6.999999999999998 -9.20208152801713 2.7979184719828702
    vertex -3.9999999999999982 -9.472243186433545 3.1500000000000004
    vertex -3.9999999999999982 -9.20208152801713 2.7979184719828694
  endloop
endfacet
facet normal 7.096980041029099e-17 0.7933533402912358 0.6087614290087198
  outer loop
    vertex -3.9999999999999982 -9.472243186433545 3.1500000000000004
    vertex -6.999999999999998 -9.20208152801713 2.7979184719828702
    vertex -6.999999999999998 -9.472243186433545 3.150000000000001
  endloop
endfacet
facet normal -1.0204006870339525e-31 0.9238795325112875 0.38268343236508806
  outer loop
    vertex -6.999999999999998 -9.472243186433545 3.150000000000001
    vertex -3.9999999999999982 -9.642073904691415 3.5600076233257143
    vertex -3.9999999999999982 -9.472243186433545 3.1500000000000004
  endloop
endfacet
facet normal -1.0204006870339525e-31 0.9238795325112875 0.38268343236508806
  outer loop
    vertex -3.9999999999999982 -9.642073904691415 3.5600076233257143
    vertex -6.999999999999998 -9.472243186433545 3.150000000000001
    vertex -6.999999999999998 -9.642073904691415 3.5600076233257143
  endloop
endfacet
facet normal 0.0 0.9914448613738103 0.130526192220053
  outer loop
    vertex -6.999999999999998 -9.7 3.9999999999999996
    vertex -3.9999999999999982 -9.642073904691415 3.5600076233257143
    vertex -6.999999999999998 -9.642073904691415 3.5600076233257143
  endloop
endfacet
facet normal 0.0 0.9914448613738103 0.130526192220053
  outer loop
    vertex -3.9999999999999982 -9.642073904691415 3.5600076233257143
    vertex -6.999999999999998 -9.7 3.9999999999999996
    vertex -3.9999999999999982 -9.7 3.9999999999999996
  endloop
endfacet
facet normal 0.0 0.9914448613738103 -0.130526192220053
  outer loop
    vertex -6.999999999999998 -9.642073904691415 4.439992376674285
    vertex -3.9999999999999982 -9.7 3.9999999999999996
    vertex -6.999999999999998 -9.7 3.9999999999999996
  endloop
endfacet
facet normal 0.0 0.9914448613738103 -0.130526192220053
  outer loop
    vertex -3.9999999999999982 -9.7 3.9999999999999996
    vertex -6.999999999999998 -9.642073904691415 4.439992376674285
    vertex -3.9999999999999982 -9.642073904691415 4.439992376674285
  endloop
endfacet
facet normal -1.020400687033952e-31 0.9238795325112871 -0.38268343236508917
  outer loop
    vertex -6.999999999999998 -9.472243186433545 4.849999999999998
    vertex -3.9999999999999982 -9.642073904691415 4.439992376674285
    vertex -6.999999999999998 -9.642073904691415 4.439992376674285
  endloop
endfacet
facet normal -1.020400687033952e-31 0.9238795325112871 -0.38268343236508917
  outer loop
    vertex -3.9999999999999982 -9.642073904691415 4.439992376674285
    vertex -6.999999999999998 -9.472243186433545 4.849999999999998
    vertex -3.9999999999999982 -9.472243186433545 4.849999999999998
  endloop
endfacet
facet normal -8.762379347157651e-32 0.7933533402912347 -0.6087614290087214
  outer loop
    vertex -6.999999999999998 -9.202081528017128 5.202081528017129
    vertex -3.9999999999999982 -9.472243186433545 4.849999999999998
    vertex -6.999999999999998 -9.472243186433545 4.849999999999998
  endloop
endfacet
facet normal -8.762379347157651e-32 0.7933533402912347 -0.6087614290087214
  outer loop
    vertex -3.9999999999999982 -9.472243186433545 4.849999999999998
    vertex -6.999999999999998 -9.202081528017128 5.202081528017129
    vertex -3.9999999999999982 -9.202081528017128 5.202081528017129
  endloop
endfacet
facet normal 1.9383088242989078e-18 0.6087614290087211 -0.793353340291235
  outer loop
    vertex -3.999999999999998 -8.85 5.472243186433544
    vertex -6.999999999999998 -9.202081528017128 5.202081528017129
    vertex -6.999999999999998 -8.85 5.472243186433544
  endloop
endfacet
facet normal 1.9383088242989078e-18 0.6087614290087211 -0.793353340291235
  outer loop
    vertex -6.999999999999998 -9.202081528017128 5.202081528017129
    vertex -3.999999999999998 -8.85 5.472243186433544
    vertex -3.9999999999999982 -9.202081528017128 5.202081528017129
  endloop
endfacet
facet normal -4.226638036242879e-32 0.3826834323650908 -0.9238795325112863
  outer loop
    vertex -3.999999999999998 -8.439992376674285 5.642073904691415
    vertex -6.999999999999998 -8.85 5.472243186433544
    vertex -6.999999999999998 -8.439992376674285 5.642073904691415
  endloop
endfacet
facet normal -4.226638036242879e-32 0.3826834323650908 -0.9238795325112863
  outer loop
    vertex -6.999999999999998 -8.85 5.472243186433544
    vertex -3.999999999999998 -8.439992376674285 5.642073904691415
    vertex -3.999999999999998 -8.85 5.472243186433544
  endloop
endfacet
facet normal 0.0 0.13052619222004988 -0.9914448613738107
  outer loop
    vertex -3.999999999999998 -7.999999999999999 5.699999999999998
    vertex -6.999999999999998 -8.439992376674285 5.642073904691415
    vertex -6.999999999999998 -7.999999999999999 5.699999999999998
  endloop
endfacet
facet normal 0.0 0.13052619222004988 -0.9914448613738107
  outer loop
    vertex -6.999999999999998 -8.439992376674285 5.642073904691415
    vertex -3.999999999999998 -7.999999999999999 5.699999999999998
    vertex -3.999999999999998 -8.439992376674285 5.642073904691415
  endloop
endfacet
facet normal 0.0 -0.130526192220053 -0.9914448613738103
  outer loop
    vertex -3.999999999999998 -7.560007623325714 5.642073904691413
    vertex -6.999999999999998 -7.999999999999999 5.699999999999998
    vertex -6.999999999999998 -7.560007623325714 5.642073904691413
  endloop
endfacet
facet normal 0.0 -0.130526192220053 -0.9914448613738103
  outer loop
    vertex -6.999999999999998 -7.999999999999999 5.699999999999998
    vertex -3.999999999999998 -7.560007623325714 5.642073904691413
    vertex -3.999999999999998 -7.999999999999999 5.699999999999998
  endloop
endfacet
facet normal 4.2266380362428495e-32 -0.38268343236508806 -0.9238795325112875
  outer loop
    vertex -3.999999999999998 -7.1499999999999995 5.472243186433544
    vertex -6.999999999999998 -7.560007623325714 5.642073904691413
    vertex -6.999999999999998 -7.1499999999999995 5.472243186433544
  endloop
endfacet
facet normal 4.2266380362428495e-32 -0.38268343236508806 -0.9238795325112875
  outer loop
    vertex -6.999999999999998 -7.560007623325714 5.642073904691413
    vertex -3.999999999999998 -7.1499999999999995 5.472243186433544
    vertex -3.999999999999998 -7.560007623325714 5.642073904691413
  endloop
endfacet
facet normal 0.0 1.0 0.0
  outer loop
    vertex -3.9999999999999982 -20.199999999999996 7.999999999999999
    vertex 9.999999999999998 -20.199999999999996 2.3000000000000007
    vertex -3.9999999999999982 -20.199999999999996 2.3000000000000007
  endloop
endfacet
facet normal 0.0 1.0 0.0
  outer loop
    vertex 9.999999999999998 -20.199999999999996 2.3000000000000007
    vertex -3.9999999999999982 -20.199999999999996 7.999999999999999
    vertex 9.999999999999998 -20.199999999999996 7.999999999999999
  endloop
endfacet
facet normal 0.0 -1.0 0.0
  outer loop
    vertex 9.999999999999998 4.200000000000001 7.999999999999999
    vertex -3.9999999999999996 4.200000000000001 2.3
    vertex 9.999999999999998 4.200000000000001 2.3
  endloop
endfacet
facet normal 0.0 -1.0 0.0
  outer loop
    vertex -3.9999999999999996 4.200000000000001 2.3
    vertex 9.999999999999998 4.200000000000001 7.999999999999999
    vertex -3.9999999999999996 4.200000000000001 7.999999999999999
  endloop
endfacet
facet normal 1.2653095144613784e-18 -0.44721359549995865 0.8944271909999155
  outer loop
    vertex -3.9943019999999994 3.1999999999999997 1.7999999999999996
    vertex 9.999999999999998 4.200000000000001 2.3
    vertex -3.9999999999999996 4.200000000000001 2.3
  endloop
endfacet
facet normal 1.2653095144613784e-18 -0.44721359549995865 0.8944271909999155
  outer loop
    vertex 9.999999999999998 4.200000000000001 2.3
    vertex -3.9943019999999994 3.1999999999999997 1.7999999999999996
    vertex 9.999999999999998 3.1999999999999997 1.7999999999999996
  endloop
endfacet
facet normal 0.0 0.44721359549995954 0.8944271909999151
  outer loop
    vertex 9.999999999999998 -20.199999999999996 2.3000000000000007
    vertex -3.9999999999999982 -19.2 1.7999999999999996
    vertex -3.9999999999999982 -20.199999999999996 2.3000000000000007
  endloop
endfacet
facet normal 0.0 0.44721359549995954 0.8944271909999151
  outer loop
    vertex -3.9999999999999982 -19.2 1.7999999999999996
    vertex 9.999999999999998 -20.199999999999996 2.3000000000000007
    vertex 9.999999999999998 -19.2 1.7999999999999996
  endloop
endfacet
facet normal 0.9999999950656981 -4.1727794019647154e-05 9.015206645922601e-05
  outer loop
    vertex -3.9999999999999996 3.1999999999999997 0.19999999999999976
    vertex -3.9999999999999982 -19.2 1.7999999999999996
    vertex -3.9999999999999982 -19.2 0.2000000000000005
  endloop
endfacet
facet normal 0.9999999950656981 -4.1727794019647154e-05 9.015206645922601e-05
  outer loop
    vertex -3.9999999999999982 -19.2 1.7999999999999996
    vertex -3.9999999999999996 3.1999999999999997 0.19999999999999976
    vertex -3.9999999999999982 -8.439992376674287 2.3579260953085837
  endloop
endfacet
facet normal 0.9999999950656981 -4.1727794019647154e-05 9.015206645922601e-05
  outer loop
    vertex -3.9999999999999982 -19.2 1.7999999999999996
    vertex -3.9999999999999982 -8.439992376674287 2.3579260953085837
    vertex -3.9999999999999982 -8.850000000000001 2.5277568135664543
  endloop
endfacet
facet normal 0.9999999950656981 -4.1727794019647154e-05 9.015206645922601e-05
  outer loop
    vertex -3.9999999999999982 -19.2 1.7999999999999996
    vertex -3.9999999999999982 -8.850000000000001 2.5277568135664543
    vertex -3.9999999999999982 -9.20208152801713 2.7979184719828694
  endloop
endfacet
facet normal 0.9999999950656981 -4.1727794019647154e-05 9.015206645922601e-05
  outer loop
    vertex -3.9999999999999982 -19.2 1.7999999999999996
    vertex -3.9999999999999982 -9.20208152801713 2.7979184719828694
    vertex -3.9999999999999982 -9.472243186433545 3.1500000000000004
  endloop
endfacet
facet normal 0.9999999950656981 -4.1727794019647154e-05 9.015206645922601e-05
  outer loop
    vertex -3.9999999999999982 -19.2 1.7999999999999996
    vertex -3.9999999999999982 -9.472243186433545 3.1500000000000004
    vertex -3.9999999999999982 -9.642073904691415 3.5600076233257143
  endloop
endfacet
facet normal 0.9999999950656981 -4.1727794019647154e-05 9.015206645922601e-05
  outer loop
    vertex -3.9999999999999982 -19.2 1.7999999999999996
    vertex -3.9999999999999982 -9.642073904691415 3.5600076233257143
    vertex -3.9999999999999982 -9.7 3.9999999999999996
  endloop
endfacet
facet normal 0.9999999950656981 -4.1727794019647154e-05 9.015206645922601e-05
  outer loop
    vertex -3.9999999999999982 -8.439992376674287 2.3579260953085837
    vertex -3.9999999999999996 3.1999999999999997 0.19999999999999976
    vertex -3.9999999999999982 -7.999999999999999 2.3
  endloop
endfacet
facet normal 0.9999999950656981 -4.1727794019647154e-05 9.015206645922601e-05
  outer loop
    vertex -3.9999999999999982 -7.999999999999999 2.3
    vertex -3.9999999999999996 3.1999999999999997 0.19999999999999976
    vertex -3.9999999999999982 -7.560007623325715 2.3579260953085837
  endloop
endfacet
facet normal 0.9999999950656981 -4.1727794019647154e-05 9.015206645922601e-05
  outer loop
    vertex -3.9999999999999982 -7.560007623325715 2.3579260953085837
    vertex -3.9999999999999996 3.1999999999999997 0.19999999999999976
    vertex -3.9999999999999982 -7.150000000000001 2.5277568135664534
  endloop
endfacet
facet normal 0.9999999950656981 -4.1727794019647154e-05 9.015206645922601e-05
  outer loop
    vertex -3.9999999999999982 -7.150000000000001 2.5277568135664534
    vertex -3.9999999999999996 3.1999999999999997 0.19999999999999976
    vertex -3.9999999999999982 -6.79791847198287 2.7979184719828685
  endloop
endfacet
facet normal 0.9999999950656981 -4.1727794019647154e-05 9.015206645922601e-05
  outer loop
    vertex -3.9999999999999982 -6.79791847198287 2.7979184719828685
    vertex -3.9999999999999996 3.1999999999999997 0.19999999999999976
    vertex -3.9999999999999982 -6.527756813566455 3.149999999999999
  endloop
endfacet
facet normal 0.9999999950656981 -4.1727794019647154e-05 9.015206645922601e-05
  outer loop
    vertex -3.9999999999999982 -6.527756813566455 3.149999999999999
    vertex -3.9999999999999996 3.1999999999999997 0.19999999999999976
    vertex -3.9999999999999982 -6.357926095308584 3.560007623325713
  endloop
endfacet
facet normal 0.9999999950656981 -4.1727794019647154e-05 9.015206645922601e-05
  outer loop
    vertex -3.9999999999999982 -6.357926095308584 3.560007623325713
    vertex -3.9999999999999996 3.1999999999999997 0.19999999999999976
    vertex -3.9999999999999982 -6.3 3.9999999999999982
  endloop
endfacet
facet normal 0.9999999950656981 -4.1727794019647154e-05 9.015206645922601e-05
  outer loop
    vertex -3.9999999999999982 -19.2 1.7999999999999996
    vertex -3.9999999999999982 -20.199999999999996 7.999999999999999
    vertex -3.9999999999999982 -20.199999999999996 2.3000000000000007
  endloop
endfacet
facet normal 0.9999999950656981 -4.1727794019647154e-05 9.015206645922601e-05
  outer loop
    vertex -3.9999999999999982 -20.199999999999996 7.999999999999999
    vertex -3.9999999999999982 -19.2 1.7999999999999996
    vertex -3.999999999999998 -8.439992376674285 5.642073904691415
  endloop
endfacet
facet normal 0.9999999950656981 -4.1727794019647154e-05 9.015206645922601e-05
  outer loop
    vertex -3.9999999999999982 -20.199999999999996 7.999999999999999
    vertex -3.999999999999998 -8.439992376674285 5.642073904691415
    vertex -3.9999999999999996 4.200000000000001 7.999999999999999
  endloop
endfacet
facet normal 0.9999999950656981 -4.1727794019647154e-05 9.015206645922601e-05
  outer loop
    vertex -3.999999999999998 -8.439992376674285 5.642073904691415
    vertex -3.9999999999999982 -19.2 1.7999999999999996
    vertex -3.999999999999998 -8.85 5.472243186433544
  endloop
endfacet
facet normal 0.9999999950656981 -4.1727794019647154e-05 9.015206645922601e-05
  outer loop
    vertex -3.999999999999998 -8.85 5.472243186433544
    vertex -3.9999999999999982 -19.2 1.7999999999999996
    vertex -3.9999999999999982 -9.202081528017128 5.202081528017129
  endloop
endfacet
facet normal 0.9999999950656981 -4.1727794019647154e-05 9.015206645922601e-05
  outer loop
    vertex -3.9999999999999982 -9.202081528017128 5.202081528017129
    vertex -3.9999999999999982 -19.2 1.7999999999999996
    vertex -3.9999999999999982 -9.472243186433545 4.849999999999998
  endloop
endfacet
facet normal 0.9999999950656981 -4.1727794019647154e-05 9.015206645922601e-05
  outer loop
    vertex -3.9999999999999982 -9.472243186433545 4.849999999999998
    vertex -3.9999999999999982 -19.2 1.7999999999999996
    vertex -3.9999999999999982 -9.642073904691415 4.439992376674285
  endloop
endfacet
facet normal 0.9999999950656981 -4.1727794019647154e-05 9.015206645922601e-05
  outer loop
    vertex -3.9999999999999982 -9.642073904691415 4.439992376674285
    vertex -3.9999999999999982 -19.2 1.7999999999999996
    vertex -3.9999999999999982 -9.7 3.9999999999999996
  endloop
endfacet
facet normal 0.9999999950656981 -4.1727794019647154e-05 9.015206645922601e-05
  outer loop
    vertex -3.9999999999999996 4.200000000000001 7.999999999999999
    vertex -3.999999999999998 -8.439992376674285 5.642073904691415
    vertex -3.999999999999998 -7.999999999999999 5.699999999999998
  endloop
endfacet
facet normal 0.9999999950656981 -4.1727794019647154e-05 9.015206645922601e-05
  outer loop
    vertex -3.9999999999999996 4.200000000000001 7.999999999999999
    vertex -3.999999999999998 -7.999999999999999 5.699999999999998
    vertex -3.999999999999998 -7.560007623325714 5.642073904691413
  endloop
endfacet
facet normal 0.9999999950656981 -4.1727794019647154e-05 9.015206645922601e-05
  outer loop
    vertex -3.9999999999999996 4.200000000000001 7.999999999999999
    vertex -3.999999999999998 -7.560007623325714 5.642073904691413
    vertex -3.999999999999998 -7.1499999999999995 5.472243186433544
  endloop
endfacet
facet normal 0.9999999950656981 -4.1727794019647154e-05 9.015206645922601e-05
  outer loop
    vertex -3.9999999999999996 4.200000000000001 7.999999999999999
    vertex -3.999999999999998 -7.1499999999999995 5.472243186433544
    vertex -3.9999999999999982 -6.797918471982868 5.202081528017129
  endloop
endfacet
facet normal 0.9999999950656981 -4.1727794019647154e-05 9.015206645922601e-05
  outer loop
    vertex -3.9999999999999996 4.200000000000001 7.999999999999999
    vertex -3.9999999999999982 -6.797918471982868 5.202081528017129
    vertex -3.9999999999999982 -6.527756813566453 4.849999999999998
  endloop
endfacet
facet normal 0.9999999950656981 -4.1727794019647154e-05 9.015206645922601e-05
  outer loop
    vertex -3.9999999999999996 4.200000000000001 7.999999999999999
    vertex -3.9999999999999982 -6.527756813566453 4.849999999999998
    vertex -3.9999999999999982 -6.357926095308584 4.439992376674284
  endloop
endfacet
facet normal 0.9999999950656981 -4.1727794019647154e-05 9.015206645922601e-05
  outer loop
    vertex -3.9999999999999996 4.200000000000001 7.999999999999999
    vertex -3.9999999999999982 -6.357926095308584 4.439992376674284
    vertex -3.9999999999999982 -6.3 3.9999999999999982
  endloop
endfacet
facet normal 0.9999999950656981 -4.1727794019647154e-05 9.015206645922601e-05
  outer loop
    vertex -3.9999999999999996 4.200000000000001 7.999999999999999
    vertex -3.9999999999999982 -6.3 3.9999999999999982
    vertex -3.9943019999999994 3.1999999999999997 1.7999999999999996
  endloop
endfacet
facet normal 0.9999999950656981 -4.1727794019647154e-05 9.015206645922601e-05
  outer loop
    vertex -3.9943019999999994 3.1999999999999997 1.7999999999999996
    vertex -3.9999999999999982 -6.3 3.9999999999999982
    vertex -3.9999999999999996 3.1999999999999997 0.19999999999999976
  endloop
endfacet
facet normal 0.9999999950656981 -4.1727794019647154e-05 9.015206645922601e-05
  outer loop
    vertex -3.9999999999999996 4.200000000000001 7.999999999999999
    vertex -3.9943019999999994 3.1999999999999997 1.7999999999999996
    vertex -3.9999999999999996 4.200000000000001 2.3
  endloop
endfacet
endsolid Натяжитель АBelt
