solid Натяжитель АBelt
facet normal -0.13052619222005593 -0.9914448613738099 0.0
  outer loop
    vertex 5.414110472164032 -3.0545186779374927 7.999999999999999
    vertex 5.0 -3.0 1.4099832412739487e-15
    vertex 5.414110472164032 -3.0545186779374927 1.4099832412739487e-15
  endloop
endfacet
facet normal -0.13052619222005593 -0.9914448613738099 0.0
  outer loop
    vertex 5.0 -3.0 1.4099832412739487e-15
    vertex 5.414110472164032 -3.0545186779374927 7.999999999999999
    vertex 5.0 -3.0 7.999999999999999
  endloop
endfacet
facet normal 1.0 0.0 0.0
  outer loop
    vertex 10.0 -19.0 0.0
    vertex 9.999999999999998 -9.549999999999997 1.3153212482682388
    vertex 10.0 -19.0 2.5
  endloop
endfacet
facet normal 1.0 0.0 0.0
  outer loop
    vertex 9.999999999999998 -9.549999999999997 1.3153212482682388
    vertex 10.0 -19.0 0.0
    vertex 10.0 3.000000000000001 0.0
  endloop
endfacet
facet normal 1.0 0.0 0.0
  outer loop
    vertex 10.0 -19.0 2.5
    vertex 9.999999999999998 -9.549999999999997 1.3153212482682388
    vertex 9.999999999999998 -11.1 3.9999999999999996
  endloop
endfacet
facet normal 1.0 0.0 0.0
  outer loop
    vertex 9.999999999999998 -9.549999999999997 1.3153212482682388
    vertex 10.0 3.000000000000001 0.0
    vertex 9.999999999999998 -6.449999999999998 1.3153212482682408
  endloop
endfacet
facet normal 1.0 0.0 0.0
  outer loop
    vertex 9.999999999999998 -6.449999999999998 1.3153212482682408
    vertex 10.0 3.000000000000001 0.0
    vertex 9.999999999999998 -4.8999999999999995 4.0
  endloop
endfacet
facet normal 1.0 0.0 0.0
  outer loop
    vertex 10.0 -19.0 2.5
    vertex 10.0 -19.999999999999996 7.999999999999999
    vertex 10.0 -19.999999999999996 2.5
  endloop
endfacet
facet normal 1.0 0.0 0.0
  outer loop
    vertex 10.0 -19.999999999999996 7.999999999999999
    vertex 10.0 -19.0 2.5
    vertex 9.999999999999998 -9.549999999999999 6.6846787517317585
  endloop
endfacet
facet normal 1.0 0.0 0.0
  outer loop
    vertex 10.0 -19.999999999999996 7.999999999999999
    vertex 9.999999999999998 -9.549999999999999 6.6846787517317585
    vertex 10.0 3.9999999999999996 7.999999999999999
  endloop
endfacet
facet normal 1.0 0.0 0.0
  outer loop
    vertex 9.999999999999998 -9.549999999999999 6.6846787517317585
    vertex 10.0 -19.0 2.5
    vertex 9.999999999999998 -11.1 3.9999999999999996
  endloop
endfacet
facet normal 1.0 0.0 0.0
  outer loop
    vertex 10.0 3.9999999999999996 7.999999999999999
    vertex 9.999999999999998 -9.549999999999999 6.6846787517317585
    vertex 9.999999999999998 -6.449999999999999 6.68467875173176
  endloop
endfacet
facet normal 1.0 0.0 0.0
  outer loop
    vertex 10.0 3.9999999999999996 7.999999999999999
    vertex 9.999999999999998 -6.449999999999999 6.68467875173176
    vertex 9.999999999999998 -4.8999999999999995 4.0
  endloop
endfacet
facet normal 1.0 0.0 0.0
  outer loop
    vertex 10.0 3.9999999999999996 7.999999999999999
    vertex 9.999999999999998 -4.8999999999999995 4.0
    vertex 10.0 3.000000000000001 2.5
  endloop
endfacet
facet normal 1.0 0.0 0.0
  outer loop
    vertex 10.0 3.000000000000001 2.5
    vertex 9.999999999999998 -4.8999999999999995 4.0
    vertex 10.0 3.000000000000001 0.0
  endloop
endfacet
facet normal 1.0 0.0 0.0
  outer loop
    vertex 10.0 3.9999999999999996 7.999999999999999
    vertex 10.0 3.000000000000001 2.5
    vertex 10.0 3.9999999999999996 2.5
  endloop
endfacet
facet normal 0.0 -1.0 0.0
  outer loop
    vertex 10.0 -19.999999999999996 7.999999999999999
    vertex 0.0 -19.999999999999996 2.5
    vertex 10.0 -19.999999999999996 2.5
  endloop
endfacet
facet normal 0.0 -1.0 0.0
  outer loop
    vertex 0.0 -19.999999999999996 2.5
    vertex 10.0 -19.999999999999996 7.999999999999999
    vertex 0.0 -19.999999999999996 7.999999999999999
  endloop
endfacet
facet normal 0.0 0.0 1.0
  outer loop
    vertex 0.0 -19.999999999999996 7.999999999999999
    vertex 3.4545186779374903 -11.814110472164034 7.999999999999999
    vertex 0.0 3.9999999999999996 7.999999999999999
  endloop
endfacet
facet normal 0.0 0.0 1.0
  outer loop
    vertex 3.4545186779374903 -11.814110472164034 7.999999999999999
    vertex 0.0 -19.999999999999996 7.999999999999999
    vertex 3.614359353944899 -12.200000000000001 7.999999999999999
  endloop
endfacet
facet normal 0.0 0.0 1.0
  outer loop
    vertex 3.614359353944899 -12.200000000000001 7.999999999999999
    vertex 0.0 -19.999999999999996 7.999999999999999
    vertex 3.8686291501015244 -12.531370849898476 7.999999999999999
  endloop
endfacet
facet normal 0.0 0.0 1.0
  outer loop
    vertex 3.8686291501015244 -12.531370849898476 7.999999999999999
    vertex 0.0 -19.999999999999996 7.999999999999999
    vertex 10.0 -19.999999999999996 7.999999999999999
  endloop
endfacet
facet normal 0.0 0.0 1.0
  outer loop
    vertex 0.0 3.9999999999999996 7.999999999999999
    vertex 3.4545186779374903 -11.814110472164034 7.999999999999999
    vertex 3.400000000000001 -11.399999999999999 7.999999999999999
  endloop
endfacet
facet normal 0.0 0.0 1.0
  outer loop
    vertex 3.8686291501015244 -12.531370849898476 7.999999999999999
    vertex 10.0 -19.999999999999996 7.999999999999999
    vertex 4.200000000000001 -12.7856406460551 7.999999999999999
  endloop
endfacet
facet normal 0.0 0.0 1.0
  outer loop
    vertex 4.200000000000001 -12.7856406460551 7.999999999999999
    vertex 10.0 -19.999999999999996 7.999999999999999
    vertex 4.585889527835968 -12.94548132206251 7.999999999999999
  endloop
endfacet
facet normal 0.0 0.0 1.0
  outer loop
    vertex 4.585889527835968 -12.94548132206251 7.999999999999999
    vertex 10.0 -19.999999999999996 7.999999999999999
    vertex 5.0 -12.999999999999998 7.999999999999999
  endloop
endfacet
facet normal 0.0 0.0 1.0
  outer loop
    vertex 5.0 -12.999999999999998 7.999999999999999
    vertex 10.0 -19.999999999999996 7.999999999999999
    vertex 5.414110472164033 -12.94548132206251 7.999999999999999
  endloop
endfacet
facet normal 0.0 0.0 1.0
  outer loop
    vertex 5.414110472164033 -12.94548132206251 7.999999999999999
    vertex 10.0 -19.999999999999996 7.999999999999999
    vertex 5.800000000000001 -12.7856406460551 7.999999999999999
  endloop
endfacet
facet normal 0.0 0.0 1.0
  outer loop
    vertex 5.800000000000001 -12.7856406460551 7.999999999999999
    vertex 10.0 -19.999999999999996 7.999999999999999
    vertex 6.1313708498984765 -12.531370849898474 7.999999999999999
  endloop
endfacet
facet normal 0.0 0.0 1.0
  outer loop
    vertex 6.1313708498984765 -12.531370849898474 7.999999999999999
    vertex 10.0 -19.999999999999996 7.999999999999999
    vertex 6.385640646055102 -12.2 7.999999999999999
  endloop
endfacet
facet normal 0.0 0.0 1.0
  outer loop
    vertex 6.385640646055102 -12.2 7.999999999999999
    vertex 10.0 -19.999999999999996 7.999999999999999
    vertex 6.54548132206251 -11.814110472164032 7.999999999999999
  endloop
endfacet
facet normal 0.0 0.0 1.0
  outer loop
    vertex 6.54548132206251 -11.814110472164032 7.999999999999999
    vertex 10.0 -19.999999999999996 7.999999999999999
    vertex 6.599999999999999 -11.399999999999999 7.999999999999999
  endloop
endfacet
facet normal 0.0 0.0 1.0
  outer loop
    vertex 6.599999999999999 -11.399999999999999 7.999999999999999
    vertex 10.0 -19.999999999999996 7.999999999999999
    vertex 6.599999999999999 -4.600000000000001 7.999999999999999
  endloop
endfacet
facet normal 0.0 0.0 1.0
  outer loop
    vertex 0.0 3.9999999999999996 7.999999999999999
    vertex 3.868629150101524 -3.468629150101526 7.999999999999999
    vertex 10.0 3.9999999999999996 7.999999999999999
  endloop
endfacet
facet normal 0.0 0.0 1.0
  outer loop
    vertex 3.868629150101524 -3.468629150101526 7.999999999999999
    vertex 0.0 3.9999999999999996 7.999999999999999
    vertex 3.6143593539448977 -3.8000000000000016 7.999999999999999
  endloop
endfacet
facet normal 0.0 0.0 1.0
  outer loop
    vertex 3.6143593539448977 -3.8000000000000016 7.999999999999999
    vertex 0.0 3.9999999999999996 7.999999999999999
    vertex 3.4545186779374903 -4.185889527835968 7.999999999999999
  endloop
endfacet
facet normal 0.0 0.0 1.0
  outer loop
    vertex 3.4545186779374903 -4.185889527835968 7.999999999999999
    vertex 0.0 3.9999999999999996 7.999999999999999
    vertex 3.400000000000001 -4.600000000000001 7.999999999999999
  endloop
endfacet
facet normal 0.0 0.0 1.0
  outer loop
    vertex 3.400000000000001 -4.600000000000001 7.999999999999999
    vertex 0.0 3.9999999999999996 7.999999999999999
    vertex 3.400000000000001 -11.399999999999999 7.999999999999999
  endloop
endfacet
facet normal 0.0 0.0 1.0
  outer loop
    vertex 10.0 3.9999999999999996 7.999999999999999
    vertex 3.868629150101524 -3.468629150101526 7.999999999999999
    vertex 4.199999999999999 -3.2143593539449014 7.999999999999999
  endloop
endfacet
facet normal 0.0 0.0 1.0
  outer loop
    vertex 10.0 3.9999999999999996 7.999999999999999
    vertex 4.199999999999999 -3.2143593539449014 7.999999999999999
    vertex 4.585889527835967 -3.0545186779374927 7.999999999999999
  endloop
endfacet
facet normal 0.0 0.0 1.0
  outer loop
    vertex 10.0 3.9999999999999996 7.999999999999999
    vertex 4.585889527835967 -3.0545186779374927 7.999999999999999
    vertex 5.0 -3.0 7.999999999999999
  endloop
endfacet
facet normal 0.0 0.0 1.0
  outer loop
    vertex 10.0 3.9999999999999996 7.999999999999999
    vertex 5.0 -3.0 7.999999999999999
    vertex 5.414110472164032 -3.0545186779374927 7.999999999999999
  endloop
endfacet
facet normal 0.0 0.0 1.0
  outer loop
    vertex 10.0 3.9999999999999996 7.999999999999999
    vertex 5.414110472164032 -3.0545186779374927 7.999999999999999
    vertex 5.799999999999999 -3.2143593539448987 7.999999999999999
  endloop
endfacet
facet normal 0.0 0.0 1.0
  outer loop
    vertex 10.0 3.9999999999999996 7.999999999999999
    vertex 5.799999999999999 -3.2143593539448987 7.999999999999999
    vertex 6.131370849898476 -3.4686291501015245 7.999999999999999
  endloop
endfacet
facet normal 0.0 0.0 1.0
  outer loop
    vertex 10.0 3.9999999999999996 7.999999999999999
    vertex 6.131370849898476 -3.4686291501015245 7.999999999999999
    vertex 6.3856406460551005 -3.8000000000000016 7.999999999999999
  endloop
endfacet
facet normal 0.0 0.0 1.0
  outer loop
    vertex 10.0 3.9999999999999996 7.999999999999999
    vertex 6.3856406460551005 -3.8000000000000016 7.999999999999999
    vertex 6.54548132206251 -4.1858895278359665 7.999999999999999
  endloop
endfacet
facet normal 0.0 0.0 1.0
  outer loop
    vertex 10.0 3.9999999999999996 7.999999999999999
    vertex 6.54548132206251 -4.1858895278359665 7.999999999999999
    vertex 6.599999999999999 -4.600000000000001 7.999999999999999
  endloop
endfacet
facet normal 0.0 0.0 1.0
  outer loop
    vertex 10.0 3.9999999999999996 7.999999999999999
    vertex 6.599999999999999 -4.600000000000001 7.999999999999999
    vertex 10.0 -19.999999999999996 7.999999999999999
  endloop
endfacet
facet normal 0.0 0.0 1.0
  outer loop
    vertex 3.4545186779374903 -10.985889527835967 7.999999999999999
    vertex 3.400000000000001 -4.600000000000001 7.999999999999999
    vertex 3.400000000000001 -11.399999999999999 7.999999999999999
  endloop
endfacet
facet normal 0.0 0.0 1.0
  outer loop
    vertex 3.400000000000001 -4.600000000000001 7.999999999999999
    vertex 3.4545186779374903 -10.985889527835967 7.999999999999999
    vertex 3.4545186779374903 -5.014110472164035 7.999999999999999
  endloop
endfacet
facet normal 0.0 0.0 1.0
  outer loop
    vertex 3.4545186779374903 -5.014110472164035 7.999999999999999
    vertex 3.4545186779374903 -10.985889527835967 7.999999999999999
    vertex 3.6143593539448977 -10.6 7.999999999999999
  endloop
endfacet
facet normal 0.0 0.0 1.0
  outer loop
    vertex 3.4545186779374903 -5.014110472164035 7.999999999999999
    vertex 3.6143593539448977 -10.6 7.999999999999999
    vertex 3.6143593539448977 -5.400000000000001 7.999999999999999
  endloop
endfacet
facet normal 0.0 0.0 1.0
  outer loop
    vertex 3.6143593539448977 -5.400000000000001 7.999999999999999
    vertex 3.6143593539448977 -10.6 7.999999999999999
    vertex 3.868629150101524 -10.268629150101523 7.999999999999999
  endloop
endfacet
facet normal 0.0 0.0 1.0
  outer loop
    vertex 3.6143593539448977 -5.400000000000001 7.999999999999999
    vertex 3.868629150101524 -10.268629150101523 7.999999999999999
    vertex 3.868629150101524 -5.731370849898477 7.999999999999999
  endloop
endfacet
facet normal 0.0 0.0 1.0
  outer loop
    vertex 3.868629150101524 -5.731370849898477 7.999999999999999
    vertex 3.868629150101524 -10.268629150101523 7.999999999999999
    vertex 4.199999999999999 -10.014359353944897 7.999999999999999
  endloop
endfacet
facet normal 0.0 0.0 1.0
  outer loop
    vertex 3.868629150101524 -5.731370849898477 7.999999999999999
    vertex 4.199999999999999 -10.014359353944897 7.999999999999999
    vertex 4.2 -5.985640646055103 7.999999999999999
  endloop
endfacet
facet normal 0.0 0.0 1.0
  outer loop
    vertex 4.2 -5.985640646055103 7.999999999999999
    vertex 4.199999999999999 -10.014359353944897 7.999999999999999
    vertex 4.585889527835965 -9.85451867793749 7.999999999999999
  endloop
endfacet
facet normal 0.0 0.0 1.0
  outer loop
    vertex 4.2 -5.985640646055103 7.999999999999999
    vertex 4.585889527835965 -9.85451867793749 7.999999999999999
    vertex 4.585889527835967 -6.14548132206251 7.999999999999999
  endloop
endfacet
facet normal 0.0 0.0 1.0
  outer loop
    vertex 4.585889527835967 -6.14548132206251 7.999999999999999
    vertex 4.585889527835965 -9.85451867793749 7.999999999999999
    vertex 5.0 -9.799999999999999 7.999999999999999
  endloop
endfacet
facet normal 0.0 0.0 1.0
  outer loop
    vertex 4.585889527835967 -6.14548132206251 7.999999999999999
    vertex 5.0 -9.799999999999999 7.999999999999999
    vertex 5.0 -6.200000000000001 7.999999999999999
  endloop
endfacet
facet normal 0.0 0.0 1.0
  outer loop
    vertex 5.0 -6.200000000000001 7.999999999999999
    vertex 5.0 -9.799999999999999 7.999999999999999
    vertex 5.414110472164033 -9.85451867793749 7.999999999999999
  endloop
endfacet
facet normal 0.0 0.0 1.0
  outer loop
    vertex 5.0 -6.200000000000001 7.999999999999999
    vertex 5.414110472164033 -9.85451867793749 7.999999999999999
    vertex 5.414110472164035 -6.14548132206251 7.999999999999999
  endloop
endfacet
facet normal 0.0 0.0 1.0
  outer loop
    vertex 5.414110472164035 -6.14548132206251 7.999999999999999
    vertex 5.414110472164033 -9.85451867793749 7.999999999999999
    vertex 5.8 -10.014359353944897 7.999999999999999
  endloop
endfacet
facet normal 0.0 0.0 1.0
  outer loop
    vertex 5.414110472164035 -6.14548132206251 7.999999999999999
    vertex 5.8 -10.014359353944897 7.999999999999999
    vertex 5.800000000000001 -5.985640646055103 7.999999999999999
  endloop
endfacet
facet normal 0.0 0.0 1.0
  outer loop
    vertex 5.800000000000001 -5.985640646055103 7.999999999999999
    vertex 5.8 -10.014359353944897 7.999999999999999
    vertex 6.1313708498984765 -10.268629150101523 7.999999999999999
  endloop
endfacet
facet normal 0.0 0.0 1.0
  outer loop
    vertex 5.800000000000001 -5.985640646055103 7.999999999999999
    vertex 6.1313708498984765 -10.268629150101523 7.999999999999999
    vertex 6.1313708498984765 -5.731370849898477 7.999999999999999
  endloop
endfacet
facet normal 0.0 0.0 1.0
  outer loop
    vertex 6.1313708498984765 -5.731370849898477 7.999999999999999
    vertex 6.1313708498984765 -10.268629150101523 7.999999999999999
    vertex 6.3856406460551005 -10.6 7.999999999999999
  endloop
endfacet
facet normal 0.0 0.0 1.0
  outer loop
    vertex 6.1313708498984765 -5.731370849898477 7.999999999999999
    vertex 6.3856406460551005 -10.6 7.999999999999999
    vertex 6.385640646055102 -5.4 7.999999999999999
  endloop
endfacet
facet normal 0.0 0.0 1.0
  outer loop
    vertex 6.385640646055102 -5.4 7.999999999999999
    vertex 6.3856406460551005 -10.6 7.999999999999999
    vertex 6.54548132206251 -10.985889527835965 7.999999999999999
  endloop
endfacet
facet normal 0.0 0.0 1.0
  outer loop
    vertex 6.385640646055102 -5.4 7.999999999999999
    vertex 6.54548132206251 -10.985889527835965 7.999999999999999
    vertex 6.54548132206251 -5.014110472164034 7.999999999999999
  endloop
endfacet
facet normal 0.0 0.0 1.0
  outer loop
    vertex 6.54548132206251 -5.014110472164034 7.999999999999999
    vertex 6.54548132206251 -10.985889527835965 7.999999999999999
    vertex 6.599999999999999 -11.399999999999999 7.999999999999999
  endloop
endfacet
facet normal 0.0 0.0 1.0
  outer loop
    vertex 6.54548132206251 -5.014110472164034 7.999999999999999
    vertex 6.599999999999999 -11.399999999999999 7.999999999999999
    vertex 6.599999999999999 -4.600000000000001 7.999999999999999
  endloop
endfacet
facet normal 0.0 1.0 0.0
  outer loop
    vertex 0.0 3.9999999999999996 7.999999999999999
    vertex 10.0 3.9999999999999996 2.5
    vertex 0.0 3.9999999999999996 2.5
  endloop
endfacet
facet normal 0.0 1.0 0.0
  outer loop
    vertex 10.0 3.9999999999999996 2.5
    vertex 0.0 3.9999999999999996 7.999999999999999
    vertex 10.0 3.9999999999999996 7.999999999999999
  endloop
endfacet
facet normal -0.0 -0.0 -1.0
  outer loop
    vertex 10.0 3.9999999999999996 2.5
    vertex 0.0 3.000000000000001 2.5
    vertex 0.0 3.9999999999999996 2.5
  endloop
endfacet
facet normal -0.0 -0.0 -1.0
  outer loop
    vertex 0.0 3.000000000000001 2.5
    vertex 10.0 3.9999999999999996 2.5
    vertex 10.0 3.000000000000001 2.5
  endloop
endfacet
facet normal 0.0 1.0 0.0
  outer loop
    vertex 0.0 3.000000000000001 2.5
    vertex 10.0 3.000000000000001 0.0
    vertex 0.0 3.000000000000001 0.0
  endloop
endfacet
facet normal 0.0 1.0 0.0
  outer loop
    vertex 10.0 3.000000000000001 0.0
    vertex 0.0 3.000000000000001 2.5
    vertex 10.0 3.000000000000001 2.5
  endloop
endfacet
facet normal -0.0 -0.0 -1.0
  outer loop
    vertex 10.0 -19.0 2.5
    vertex 0.0 -19.999999999999996 2.5
    vertex 0.0 -19.0 2.5
  endloop
endfacet
facet normal -0.0 -0.0 -1.0
  outer loop
    vertex 0.0 -19.999999999999996 2.5
    vertex 10.0 -19.0 2.5
    vertex 10.0 -19.999999999999996 2.5
  endloop
endfacet
facet normal 0.0 -1.0 0.0
  outer loop
    vertex 10.0 -19.0 2.5
    vertex 0.0 -19.0 0.0
    vertex 10.0 -19.0 0.0
  endloop
endfacet
facet normal 0.0 -1.0 0.0
  outer loop
    vertex 0.0 -19.0 0.0
    vertex 10.0 -19.0 2.5
    vertex 0.0 -19.0 2.5
  endloop
endfacet
facet normal -0.0 -0.0 -1.0
  outer loop
    vertex 0.0 3.000000000000001 0.0
    vertex 3.4545186779374903 -4.185889527835968 1.4099832412739487e-15
    vertex 0.0 -19.0 0.0
  endloop
endfacet
facet normal -0.0 -0.0 -1.0
  outer loop
    vertex 3.4545186779374903 -4.185889527835968 1.4099832412739487e-15
    vertex 0.0 3.000000000000001 0.0
    vertex 3.6143593539448977 -3.8000000000000016 1.4099832412739487e-15
  endloop
endfacet
facet normal -0.0 -0.0 -1.0
  outer loop
    vertex 3.6143593539448977 -3.8000000000000016 1.4099832412739487e-15
    vertex 0.0 3.000000000000001 0.0
    vertex 3.868629150101524 -3.468629150101526 1.4099832412739487e-15
  endloop
endfacet
facet normal -0.0 -0.0 -1.0
  outer loop
    vertex 3.868629150101524 -3.468629150101526 1.4099832412739487e-15
    vertex 0.0 3.000000000000001 0.0
    vertex 10.0 3.000000000000001 0.0
  endloop
endfacet
facet normal -0.0 -0.0 -1.0
  outer loop
    vertex 0.0 -19.0 0.0
    vertex 3.4545186779374903 -4.185889527835968 1.4099832412739487e-15
    vertex 3.400000000000001 -4.600000000000001 1.4099832412739487e-15
  endloop
endfacet
facet normal -0.0 -0.0 -1.0
  outer loop
    vertex 3.868629150101524 -3.468629150101526 1.4099832412739487e-15
    vertex 10.0 3.000000000000001 0.0
    vertex 4.199999999999999 -3.2143593539449014 1.4099832412739487e-15
  endloop
endfacet
facet normal -0.0 -0.0 -1.0
  outer loop
    vertex 4.199999999999999 -3.2143593539449014 1.4099832412739487e-15
    vertex 10.0 3.000000000000001 0.0
    vertex 4.585889527835967 -3.0545186779374927 1.4099832412739487e-15
  endloop
endfacet
facet normal -0.0 -0.0 -1.0
  outer loop
    vertex 4.585889527835967 -3.0545186779374927 1.4099832412739487e-15
    vertex 10.0 3.000000000000001 0.0
    vertex 5.0 -3.0 1.4099832412739487e-15
  endloop
endfacet
facet normal -0.0 -0.0 -1.0
  outer loop
    vertex 5.0 -3.0 1.4099832412739487e-15
    vertex 10.0 3.000000000000001 0.0
    vertex 5.414110472164032 -3.0545186779374927 1.4099832412739487e-15
  endloop
endfacet
facet normal -0.0 -0.0 -1.0
  outer loop
    vertex 5.414110472164032 -3.0545186779374927 1.4099832412739487e-15
    vertex 10.0 3.000000000000001 0.0
    vertex 5.799999999999999 -3.2143593539448987 1.4099832412739487e-15
  endloop
endfacet
facet normal -0.0 -0.0 -1.0
  outer loop
    vertex 5.799999999999999 -3.2143593539448987 1.4099832412739487e-15
    vertex 10.0 3.000000000000001 0.0
    vertex 6.131370849898476 -3.4686291501015245 1.4099832412739487e-15
  endloop
endfacet
facet normal -0.0 -0.0 -1.0
  outer loop
    vertex 6.131370849898476 -3.4686291501015245 1.4099832412739487e-15
    vertex 10.0 3.000000000000001 0.0
    vertex 6.3856406460551005 -3.8000000000000016 1.4099832412739487e-15
  endloop
endfacet
facet normal -0.0 -0.0 -1.0
  outer loop
    vertex 6.3856406460551005 -3.8000000000000016 1.4099832412739487e-15
    vertex 10.0 3.000000000000001 0.0
    vertex 6.54548132206251 -4.1858895278359665 1.4099832412739487e-15
  endloop
endfacet
facet normal -0.0 -0.0 -1.0
  outer loop
    vertex 6.54548132206251 -4.1858895278359665 1.4099832412739487e-15
    vertex 10.0 3.000000000000001 0.0
    vertex 6.599999999999999 -4.600000000000001 1.4099832412739487e-15
  endloop
endfacet
facet normal -0.0 -0.0 -1.0
  outer loop
    vertex 6.599999999999999 -4.600000000000001 1.4099832412739487e-15
    vertex 10.0 3.000000000000001 0.0
    vertex 6.599999999999999 -11.399999999999999 7.049916206369744e-16
  endloop
endfacet
facet normal -0.0 -0.0 -1.0
  outer loop
    vertex 0.0 -19.0 0.0
    vertex 3.8686291501015244 -12.531370849898476 7.049916206369744e-16
    vertex 10.0 -19.0 0.0
  endloop
endfacet
facet normal -0.0 -0.0 -1.0
  outer loop
    vertex 3.8686291501015244 -12.531370849898476 7.049916206369744e-16
    vertex 0.0 -19.0 0.0
    vertex 3.614359353944899 -12.200000000000001 7.049916206369744e-16
  endloop
endfacet
facet normal -0.0 -0.0 -1.0
  outer loop
    vertex 3.614359353944899 -12.200000000000001 7.049916206369744e-16
    vertex 0.0 -19.0 0.0
    vertex 3.4545186779374903 -11.814110472164034 7.049916206369744e-16
  endloop
endfacet
facet normal -0.0 -0.0 -1.0
  outer loop
    vertex 3.4545186779374903 -11.814110472164034 7.049916206369744e-16
    vertex 0.0 -19.0 0.0
    vertex 3.400000000000001 -11.399999999999999 7.049916206369744e-16
  endloop
endfacet
facet normal -0.0 -0.0 -1.0
  outer loop
    vertex 3.400000000000001 -11.399999999999999 7.049916206369744e-16
    vertex 0.0 -19.0 0.0
    vertex 3.400000000000001 -4.600000000000001 1.4099832412739487e-15
  endloop
endfacet
facet normal -0.0 -0.0 -1.0
  outer loop
    vertex 10.0 -19.0 0.0
    vertex 3.8686291501015244 -12.531370849898476 7.049916206369744e-16
    vertex 4.200000000000001 -12.7856406460551 7.049916206369744e-16
  endloop
endfacet
facet normal -0.0 -0.0 -1.0
  outer loop
    vertex 10.0 -19.0 0.0
    vertex 4.200000000000001 -12.7856406460551 7.049916206369744e-16
    vertex 4.585889527835968 -12.94548132206251 7.049916206369744e-16
  endloop
endfacet
facet normal -0.0 -0.0 -1.0
  outer loop
    vertex 10.0 -19.0 0.0
    vertex 4.585889527835968 -12.94548132206251 7.049916206369744e-16
    vertex 5.0 -12.999999999999998 7.049916206369744e-16
  endloop
endfacet
facet normal -0.0 -0.0 -1.0
  outer loop
    vertex 10.0 -19.0 0.0
    vertex 5.0 -12.999999999999998 7.049916206369744e-16
    vertex 5.414110472164033 -12.94548132206251 7.049916206369744e-16
  endloop
endfacet
facet normal -0.0 -0.0 -1.0
  outer loop
    vertex 10.0 -19.0 0.0
    vertex 5.414110472164033 -12.94548132206251 7.049916206369744e-16
    vertex 5.800000000000001 -12.7856406460551 7.049916206369744e-16
  endloop
endfacet
facet normal -0.0 -0.0 -1.0
  outer loop
    vertex 10.0 -19.0 0.0
    vertex 5.800000000000001 -12.7856406460551 7.049916206369744e-16
    vertex 6.1313708498984765 -12.531370849898474 7.049916206369744e-16
  endloop
endfacet
facet normal -0.0 -0.0 -1.0
  outer loop
    vertex 10.0 -19.0 0.0
    vertex 6.1313708498984765 -12.531370849898474 7.049916206369744e-16
    vertex 6.385640646055102 -12.2 7.049916206369744e-16
  endloop
endfacet
facet normal -0.0 -0.0 -1.0
  outer loop
    vertex 10.0 -19.0 0.0
    vertex 6.385640646055102 -12.2 7.049916206369744e-16
    vertex 6.54548132206251 -11.814110472164032 7.049916206369744e-16
  endloop
endfacet
facet normal -0.0 -0.0 -1.0
  outer loop
    vertex 10.0 -19.0 0.0
    vertex 6.54548132206251 -11.814110472164032 7.049916206369744e-16
    vertex 6.599999999999999 -11.399999999999999 7.049916206369744e-16
  endloop
endfacet
facet normal -0.0 -0.0 -1.0
  outer loop
    vertex 10.0 -19.0 0.0
    vertex 6.599999999999999 -11.399999999999999 7.049916206369744e-16
    vertex 10.0 3.000000000000001 0.0
  endloop
endfacet
facet normal -0.0 -0.0 -1.0
  outer loop
    vertex 3.4545186779374903 -5.014110472164035 1.4099832412739487e-15
    vertex 3.400000000000001 -11.399999999999999 7.049916206369744e-16
    vertex 3.400000000000001 -4.600000000000001 1.4099832412739487e-15
  endloop
endfacet
facet normal -0.0 -0.0 -1.0
  outer loop
    vertex 3.400000000000001 -11.399999999999999 7.049916206369744e-16
    vertex 3.4545186779374903 -5.014110472164035 1.4099832412739487e-15
    vertex 3.4545186779374903 -10.985889527835967 7.049916206369744e-16
  endloop
endfacet
facet normal -0.0 -0.0 -1.0
  outer loop
    vertex 3.4545186779374903 -10.985889527835967 7.049916206369744e-16
    vertex 3.4545186779374903 -5.014110472164035 1.4099832412739487e-15
    vertex 3.6143593539448977 -5.400000000000001 1.4099832412739487e-15
  endloop
endfacet
facet normal -0.0 -0.0 -1.0
  outer loop
    vertex 3.4545186779374903 -10.985889527835967 7.049916206369744e-16
    vertex 3.6143593539448977 -5.400000000000001 1.4099832412739487e-15
    vertex 3.6143593539448977 -10.6 7.049916206369744e-16
  endloop
endfacet
facet normal -0.0 -0.0 -1.0
  outer loop
    vertex 3.6143593539448977 -10.6 7.049916206369744e-16
    vertex 3.6143593539448977 -5.400000000000001 1.4099832412739487e-15
    vertex 3.868629150101524 -5.731370849898477 1.4099832412739487e-15
  endloop
endfacet
facet normal -0.0 -0.0 -1.0
  outer loop
    vertex 3.6143593539448977 -10.6 7.049916206369744e-16
    vertex 3.868629150101524 -5.731370849898477 1.4099832412739487e-15
    vertex 3.868629150101524 -10.268629150101523 7.049916206369744e-16
  endloop
endfacet
facet normal -0.0 -0.0 -1.0
  outer loop
    vertex 3.868629150101524 -10.268629150101523 7.049916206369744e-16
    vertex 3.868629150101524 -5.731370849898477 1.4099832412739487e-15
    vertex 4.2 -5.985640646055103 1.4099832412739487e-15
  endloop
endfacet
facet normal -0.0 -0.0 -1.0
  outer loop
    vertex 3.868629150101524 -10.268629150101523 7.049916206369744e-16
    vertex 4.2 -5.985640646055103 1.4099832412739487e-15
    vertex 4.199999999999999 -10.014359353944897 7.049916206369744e-16
  endloop
endfacet
facet normal -0.0 -0.0 -1.0
  outer loop
    vertex 4.199999999999999 -10.014359353944897 7.049916206369744e-16
    vertex 4.2 -5.985640646055103 1.4099832412739487e-15
    vertex 4.585889527835965 -9.85451867793749 7.049916206369744e-16
  endloop
endfacet
facet normal -0.0 -0.0 -1.0
  outer loop
    vertex 4.585889527835965 -9.85451867793749 7.049916206369744e-16
    vertex 4.2 -5.985640646055103 1.4099832412739487e-15
    vertex 4.585889527835967 -6.14548132206251 1.4099832412739487e-15
  endloop
endfacet
facet normal -0.0 -0.0 -1.0
  outer loop
    vertex 4.585889527835965 -9.85451867793749 7.049916206369744e-16
    vertex 4.585889527835967 -6.14548132206251 1.4099832412739487e-15
    vertex 5.0 -9.799999999999999 7.049916206369744e-16
  endloop
endfacet
facet normal -0.0 -0.0 -1.0
  outer loop
    vertex 5.0 -9.799999999999999 7.049916206369744e-16
    vertex 4.585889527835967 -6.14548132206251 1.4099832412739487e-15
    vertex 5.0 -6.200000000000001 1.4099832412739487e-15
  endloop
endfacet
facet normal -0.0 -0.0 -1.0
  outer loop
    vertex 5.0 -9.799999999999999 7.049916206369744e-16
    vertex 5.0 -6.200000000000001 1.4099832412739487e-15
    vertex 5.414110472164035 -6.14548132206251 1.4099832412739487e-15
  endloop
endfacet
facet normal -0.0 -0.0 -1.0
  outer loop
    vertex 5.0 -9.799999999999999 7.049916206369744e-16
    vertex 5.414110472164035 -6.14548132206251 1.4099832412739487e-15
    vertex 5.414110472164033 -9.85451867793749 7.049916206369744e-16
  endloop
endfacet
facet normal -0.0 -0.0 -1.0
  outer loop
    vertex 5.414110472164033 -9.85451867793749 7.049916206369744e-16
    vertex 5.414110472164035 -6.14548132206251 1.4099832412739487e-15
    vertex 5.8 -10.014359353944897 7.049916206369744e-16
  endloop
endfacet
facet normal -0.0 -0.0 -1.0
  outer loop
    vertex 5.8 -10.014359353944897 7.049916206369744e-16
    vertex 5.414110472164035 -6.14548132206251 1.4099832412739487e-15
    vertex 5.800000000000001 -5.985640646055103 1.4099832412739487e-15
  endloop
endfacet
facet normal -0.0 -0.0 -1.0
  outer loop
    vertex 5.8 -10.014359353944897 7.049916206369744e-16
    vertex 5.800000000000001 -5.985640646055103 1.4099832412739487e-15
    vertex 6.1313708498984765 -10.268629150101523 7.049916206369744e-16
  endloop
endfacet
facet normal -0.0 -0.0 -1.0
  outer loop
    vertex 6.1313708498984765 -10.268629150101523 7.049916206369744e-16
    vertex 5.800000000000001 -5.985640646055103 1.4099832412739487e-15
    vertex 6.1313708498984765 -5.731370849898477 1.4099832412739487e-15
  endloop
endfacet
facet normal -0.0 -0.0 -1.0
  outer loop
    vertex 6.1313708498984765 -10.268629150101523 7.049916206369744e-16
    vertex 6.1313708498984765 -5.731370849898477 1.4099832412739487e-15
    vertex 6.385640646055102 -5.4 1.4099832412739487e-15
  endloop
endfacet
facet normal -0.0 -0.0 -1.0
  outer loop
    vertex 6.1313708498984765 -10.268629150101523 7.049916206369744e-16
    vertex 6.385640646055102 -5.4 1.4099832412739487e-15
    vertex 6.3856406460551005 -10.6 7.049916206369744e-16
  endloop
endfacet
facet normal -0.0 -0.0 -1.0
  outer loop
    vertex 6.3856406460551005 -10.6 7.049916206369744e-16
    vertex 6.385640646055102 -5.4 1.4099832412739487e-15
    vertex 6.54548132206251 -10.985889527835965 7.049916206369744e-16
  endloop
endfacet
facet normal -0.0 -0.0 -1.0
  outer loop
    vertex 6.54548132206251 -10.985889527835965 7.049916206369744e-16
    vertex 6.385640646055102 -5.4 1.4099832412739487e-15
    vertex 6.54548132206251 -5.014110472164034 1.4099832412739487e-15
  endloop
endfacet
facet normal -0.0 -0.0 -1.0
  outer loop
    vertex 6.54548132206251 -10.985889527835965 7.049916206369744e-16
    vertex 6.54548132206251 -5.014110472164034 1.4099832412739487e-15
    vertex 6.599999999999999 -4.600000000000001 1.4099832412739487e-15
  endloop
endfacet
facet normal -0.0 -0.0 -1.0
  outer loop
    vertex 6.54548132206251 -10.985889527835965 7.049916206369744e-16
    vertex 6.599999999999999 -4.600000000000001 1.4099832412739487e-15
    vertex 6.599999999999999 -11.399999999999999 7.049916206369744e-16
  endloop
endfacet
facet normal -1.0 0.0 0.0
  outer loop
    vertex 0.0 -19.999999999999996 7.999999999999999
    vertex 0.0 -8.414110472164033 5.54548132206251
    vertex 0.0 -19.999999999999996 2.5
  endloop
endfacet
facet normal -1.0 0.0 0.0
  outer loop
    vertex 0.0 -8.414110472164033 5.54548132206251
    vertex 0.0 -19.999999999999996 7.999999999999999
    vertex 0.0 3.9999999999999996 7.999999999999999
  endloop
endfacet
facet normal -1.0 0.0 0.0
  outer loop
    vertex 0.0 -19.999999999999996 2.5
    vertex 0.0 -8.414110472164033 5.54548132206251
    vertex 0.0 -19.0 2.5
  endloop
endfacet
facet normal -1.0 0.0 0.0
  outer loop
    vertex 0.0 -19.0 2.5
    vertex 0.0 -8.414110472164033 5.54548132206251
    vertex 0.0 -8.799999999999999 5.385640646055102
  endloop
endfacet
facet normal -1.0 0.0 0.0
  outer loop
    vertex 0.0 -19.0 2.5
    vertex 0.0 -8.799999999999999 5.385640646055102
    vertex 0.0 -19.0 0.0
  endloop
endfacet
facet normal -1.0 0.0 0.0
  outer loop
    vertex 0.0 -19.0 0.0
    vertex 0.0 -8.799999999999999 5.385640646055102
    vertex 0.0 -9.131370849898476 5.131370849898476
  endloop
endfacet
facet normal -1.0 0.0 0.0
  outer loop
    vertex 0.0 -19.0 0.0
    vertex 0.0 -9.131370849898476 5.131370849898476
    vertex 0.0 -9.385640646055101 4.800000000000001
  endloop
endfacet
facet normal -1.0 0.0 0.0
  outer loop
    vertex 0.0 -19.0 0.0
    vertex 0.0 -9.385640646055101 4.800000000000001
    vertex 0.0 -9.545481322062509 4.414110472164034
  endloop
endfacet
facet normal -1.0 0.0 0.0
  outer loop
    vertex 0.0 -19.0 0.0
    vertex 0.0 -9.545481322062509 4.414110472164034
    vertex 0.0 -9.6 4.0
  endloop
endfacet
facet normal -1.0 0.0 0.0
  outer loop
    vertex 0.0 -8.414110472164033 5.54548132206251
    vertex 0.0 3.9999999999999996 7.999999999999999
    vertex 0.0 -7.999999999999999 5.6
  endloop
endfacet
facet normal -1.0 0.0 0.0
  outer loop
    vertex 0.0 -7.999999999999999 5.6
    vertex 0.0 3.9999999999999996 7.999999999999999
    vertex 0.0 -7.585889527835966 5.54548132206251
  endloop
endfacet
facet normal -1.0 0.0 0.0
  outer loop
    vertex 0.0 -7.585889527835966 5.54548132206251
    vertex 0.0 3.9999999999999996 7.999999999999999
    vertex 0.0 -7.199999999999999 5.385640646055102
  endloop
endfacet
facet normal -1.0 0.0 0.0
  outer loop
    vertex 0.0 -7.199999999999999 5.385640646055102
    vertex 0.0 3.9999999999999996 7.999999999999999
    vertex 0.0 -6.8686291501015235 5.131370849898476
  endloop
endfacet
facet normal -1.0 0.0 0.0
  outer loop
    vertex 0.0 -6.8686291501015235 5.131370849898476
    vertex 0.0 3.9999999999999996 7.999999999999999
    vertex 0.0 -6.614359353944898 4.8
  endloop
endfacet
facet normal -1.0 0.0 0.0
  outer loop
    vertex 0.0 -6.614359353944898 4.8
    vertex 0.0 3.9999999999999996 7.999999999999999
    vertex 0.0 -6.45451867793749 4.414110472164033
  endloop
endfacet
facet normal -1.0 0.0 0.0
  outer loop
    vertex 0.0 -6.45451867793749 4.414110472164033
    vertex 0.0 3.9999999999999996 7.999999999999999
    vertex 0.0 -6.3999999999999995 3.9999999999999996
  endloop
endfacet
facet normal -1.0 0.0 0.0
  outer loop
    vertex 0.0 -6.3999999999999995 3.9999999999999996
    vertex 0.0 3.9999999999999996 7.999999999999999
    vertex 0.0 3.000000000000001 2.5
  endloop
endfacet
facet normal -1.0 0.0 0.0
  outer loop
    vertex 0.0 3.000000000000001 2.5
    vertex 0.0 3.9999999999999996 7.999999999999999
    vertex 0.0 3.9999999999999996 2.5
  endloop
endfacet
facet normal -1.0 0.0 0.0
  outer loop
    vertex 0.0 -19.0 0.0
    vertex 0.0 -8.414110472164035 2.4545186779374912
    vertex 0.0 3.000000000000001 0.0
  endloop
endfacet
facet normal -1.0 0.0 0.0
  outer loop
    vertex 0.0 -8.414110472164035 2.4545186779374912
    vertex 0.0 -19.0 0.0
    vertex 0.0 -8.8 2.614359353944899
  endloop
endfacet
facet normal -1.0 0.0 0.0
  outer loop
    vertex 0.0 -8.8 2.614359353944899
    vertex 0.0 -19.0 0.0
    vertex 0.0 -9.131370849898476 2.868629150101525
  endloop
endfacet
facet normal -1.0 0.0 0.0
  outer loop
    vertex 0.0 -9.131370849898476 2.868629150101525
    vertex 0.0 -19.0 0.0
    vertex 0.0 -9.385640646055101 3.2000000000000006
  endloop
endfacet
facet normal -1.0 0.0 0.0
  outer loop
    vertex 0.0 -9.385640646055101 3.2000000000000006
    vertex 0.0 -19.0 0.0
    vertex 0.0 -9.545481322062509 3.5858895278359673
  endloop
endfacet
facet normal -1.0 0.0 0.0
  outer loop
    vertex 0.0 -9.545481322062509 3.5858895278359673
    vertex 0.0 -19.0 0.0
    vertex 0.0 -9.6 4.0
  endloop
endfacet
facet normal -1.0 0.0 0.0
  outer loop
    vertex 0.0 3.000000000000001 0.0
    vertex 0.0 -8.414110472164035 2.4545186779374912
    vertex 0.0 -7.999999999999999 2.4000000000000004
  endloop
endfacet
facet normal -1.0 0.0 0.0
  outer loop
    vertex 0.0 3.000000000000001 0.0
    vertex 0.0 -7.999999999999999 2.4000000000000004
    vertex 0.0 -7.585889527835968 2.454518677937491
  endloop
endfacet
facet normal -1.0 0.0 0.0
  outer loop
    vertex 0.0 3.000000000000001 0.0
    vertex 0.0 -7.585889527835968 2.454518677937491
    vertex 0.0 -7.200000000000001 2.6143593539448973
  endloop
endfacet
facet normal -1.0 0.0 0.0
  outer loop
    vertex 0.0 3.000000000000001 0.0
    vertex 0.0 -7.200000000000001 2.6143593539448973
    vertex 0.0 -6.8686291501015235 2.868629150101524
  endloop
endfacet
facet normal -1.0 0.0 0.0
  outer loop
    vertex 0.0 3.000000000000001 0.0
    vertex 0.0 -6.8686291501015235 2.868629150101524
    vertex 0.0 -6.614359353944898 3.1999999999999997
  endloop
endfacet
facet normal -1.0 0.0 0.0
  outer loop
    vertex 0.0 3.000000000000001 0.0
    vertex 0.0 -6.614359353944898 3.1999999999999997
    vertex 0.0 -6.45451867793749 3.5858895278359655
  endloop
endfacet
facet normal -1.0 0.0 0.0
  outer loop
    vertex 0.0 3.000000000000001 0.0
    vertex 0.0 -6.45451867793749 3.5858895278359655
    vertex 0.0 -6.3999999999999995 3.9999999999999996
  endloop
endfacet
facet normal -1.0 0.0 0.0
  outer loop
    vertex 0.0 3.000000000000001 0.0
    vertex 0.0 -6.3999999999999995 3.9999999999999996
    vertex 0.0 3.000000000000001 2.5
  endloop
endfacet
facet normal -0.3826834323650867 -0.9238795325112881 0.0
  outer loop
    vertex 5.799999999999999 -3.2143593539448987 7.999999999999999
    vertex 5.414110472164032 -3.0545186779374927 1.4099832412739487e-15
    vertex 5.799999999999999 -3.2143593539448987 1.4099832412739487e-15
  endloop
endfacet
facet normal -0.3826834323650867 -0.9238795325112881 0.0
  outer loop
    vertex 5.414110472164032 -3.0545186779374927 1.4099832412739487e-15
    vertex 5.799999999999999 -3.2143593539448987 7.999999999999999
    vertex 5.414110472164032 -3.0545186779374927 7.999999999999999
  endloop
endfacet
facet normal 0.0 -0.9238795325112868 -0.3826834323650896
  outer loop
    vertex 7.999999999999999 -6.614359353944898 4.8
    vertex 0.0 -6.45451867793749 4.414110472164033
    vertex 7.999999999999999 -6.45451867793749 4.414110472164033
  endloop
endfacet
facet normal 0.0 -0.9238795325112868 -0.3826834323650896
  outer loop
    vertex 0.0 -6.45451867793749 4.414110472164033
    vertex 7.999999999999999 -6.614359353944898 4.8
    vertex 0.0 -6.614359353944898 4.8
  endloop
endfacet
facet normal 0.0 -0.9914448613738105 -0.13052619222005238
  outer loop
    vertex 7.999999999999999 -6.45451867793749 4.414110472164033
    vertex 0.0 -6.3999999999999995 3.9999999999999996
    vertex 7.999999999999999 -6.3999999999999995 3.9999999999999996
  endloop
endfacet
facet normal 0.0 -0.9914448613738105 -0.13052619222005238
  outer loop
    vertex 0.0 -6.3999999999999995 3.9999999999999996
    vertex 7.999999999999999 -6.45451867793749 4.414110472164033
    vertex 0.0 -6.45451867793749 4.414110472164033
  endloop
endfacet
facet normal 0.0 -0.9914448613738105 0.13052619222005216
  outer loop
    vertex 7.999999999999999 -6.3999999999999995 3.9999999999999996
    vertex 0.0 -6.45451867793749 3.5858895278359655
    vertex 7.999999999999999 -6.45451867793749 3.5858895278359655
  endloop
endfacet
facet normal 0.0 -0.9914448613738105 0.13052619222005216
  outer loop
    vertex 0.0 -6.45451867793749 3.5858895278359655
    vertex 7.999999999999999 -6.3999999999999995 3.9999999999999996
    vertex 0.0 -6.3999999999999995 3.9999999999999996
  endloop
endfacet
facet normal 0.0 -0.9238795325112867 0.38268343236509017
  outer loop
    vertex 7.999999999999999 -6.45451867793749 3.5858895278359655
    vertex 0.0 -6.614359353944898 3.1999999999999997
    vertex 7.999999999999999 -6.614359353944898 3.1999999999999997
  endloop
endfacet
facet normal 0.0 -0.9238795325112867 0.38268343236509017
  outer loop
    vertex 0.0 -6.614359353944898 3.1999999999999997
    vertex 7.999999999999999 -6.45451867793749 3.5858895278359655
    vertex 0.0 -6.45451867793749 3.5858895278359655
  endloop
endfacet
facet normal 0.0 -0.7933533402912347 0.6087614290087212
  outer loop
    vertex 7.999999999999999 -6.614359353944898 3.1999999999999997
    vertex 0.0 -6.8686291501015235 2.868629150101524
    vertex 7.999999999999999 -6.8686291501015235 2.868629150101524
  endloop
endfacet
facet normal 0.0 -0.7933533402912347 0.6087614290087212
  outer loop
    vertex 0.0 -6.8686291501015235 2.868629150101524
    vertex 7.999999999999999 -6.614359353944898 3.1999999999999997
    vertex 0.0 -6.614359353944898 3.1999999999999997
  endloop
endfacet
facet normal 0.0 -0.6087614290087204 0.7933533402912353
  outer loop
    vertex 7.999999999999999 -7.200000000000001 2.6143593539448973
    vertex 0.0 -6.8686291501015235 2.868629150101524
    vertex 0.0 -7.200000000000001 2.6143593539448973
  endloop
endfacet
facet normal 0.0 -0.6087614290087204 0.7933533402912353
  outer loop
    vertex 0.0 -6.8686291501015235 2.868629150101524
    vertex 7.999999999999999 -7.200000000000001 2.6143593539448973
    vertex 7.999999999999999 -6.8686291501015235 2.868629150101524
  endloop
endfacet
facet normal 0.0 -0.38268343236508817 0.9238795325112875
  outer loop
    vertex 7.999999999999999 -7.585889527835968 2.454518677937491
    vertex 0.0 -7.200000000000001 2.6143593539448973
    vertex 0.0 -7.585889527835968 2.454518677937491
  endloop
endfacet
facet normal 0.0 -0.38268343236508817 0.9238795325112875
  outer loop
    vertex 0.0 -7.200000000000001 2.6143593539448973
    vertex 7.999999999999999 -7.585889527835968 2.454518677937491
    vertex 7.999999999999999 -7.200000000000001 2.6143593539448973
  endloop
endfacet
facet normal 0.0 -0.13052619222005202 0.9914448613738105
  outer loop
    vertex 7.999999999999999 -7.999999999999999 2.4000000000000004
    vertex 0.0 -7.585889527835968 2.454518677937491
    vertex 0.0 -7.999999999999999 2.4000000000000004
  endloop
endfacet
facet normal 0.0 -0.13052619222005202 0.9914448613738105
  outer loop
    vertex 0.0 -7.585889527835968 2.454518677937491
    vertex 7.999999999999999 -7.999999999999999 2.4000000000000004
    vertex 7.999999999999999 -7.585889527835968 2.454518677937491
  endloop
endfacet
facet normal 0.0 0.13052619222005196 0.9914448613738105
  outer loop
    vertex 7.999999999999999 -8.414110472164035 2.4545186779374912
    vertex 0.0 -7.999999999999999 2.4000000000000004
    vertex 0.0 -8.414110472164035 2.4545186779374912
  endloop
endfacet
facet normal 0.0 0.13052619222005196 0.9914448613738105
  outer loop
    vertex 0.0 -7.999999999999999 2.4000000000000004
    vertex 7.999999999999999 -8.414110472164035 2.4545186779374912
    vertex 7.999999999999999 -7.999999999999999 2.4000000000000004
  endloop
endfacet
facet normal 0.0 0.3826834323650904 0.9238795325112867
  outer loop
    vertex 7.999999999999999 -8.8 2.614359353944899
    vertex 0.0 -8.414110472164035 2.4545186779374912
    vertex 0.0 -8.8 2.614359353944899
  endloop
endfacet
facet normal 0.0 0.3826834323650904 0.9238795325112867
  outer loop
    vertex 0.0 -8.414110472164035 2.4545186779374912
    vertex 7.999999999999999 -8.8 2.614359353944899
    vertex 7.999999999999999 -8.414110472164035 2.4545186779374912
  endloop
endfacet
facet normal 0.0 0.6087614290087217 0.7933533402912344
  outer loop
    vertex 7.999999999999999 -9.131370849898476 2.868629150101525
    vertex 0.0 -8.8 2.614359353944899
    vertex 0.0 -9.131370849898476 2.868629150101525
  endloop
endfacet
facet normal 0.0 0.6087614290087217 0.7933533402912344
  outer loop
    vertex 0.0 -8.8 2.614359353944899
    vertex 7.999999999999999 -9.131370849898476 2.868629150101525
    vertex 7.999999999999999 -8.8 2.614359353944899
  endloop
endfacet
facet normal 0.0 0.7933533402912362 0.6087614290087197
  outer loop
    vertex 0.0 -9.385640646055101 3.2000000000000006
    vertex 7.999999999999999 -9.131370849898476 2.868629150101525
    vertex 0.0 -9.131370849898476 2.868629150101525
  endloop
endfacet
facet normal 0.0 0.7933533402912362 0.6087614290087197
  outer loop
    vertex 7.999999999999999 -9.131370849898476 2.868629150101525
    vertex 0.0 -9.385640646055101 3.2000000000000006
    vertex 7.999999999999999 -9.385640646055101 3.2000000000000006
  endloop
endfacet
facet normal 0.0 0.9238795325112868 0.3826834323650896
  outer loop
    vertex 0.0 -9.545481322062509 3.5858895278359673
    vertex 7.999999999999999 -9.385640646055101 3.2000000000000006
    vertex 0.0 -9.385640646055101 3.2000000000000006
  endloop
endfacet
facet normal 0.0 0.9238795325112868 0.3826834323650896
  outer loop
    vertex 7.999999999999999 -9.385640646055101 3.2000000000000006
    vertex 0.0 -9.545481322062509 3.5858895278359673
    vertex 7.999999999999999 -9.545481322062509 3.5858895278359673
  endloop
endfacet
facet normal 0.0 0.9914448613738105 0.13052619222005238
  outer loop
    vertex 0.0 -9.6 4.0
    vertex 7.999999999999999 -9.545481322062509 3.5858895278359673
    vertex 0.0 -9.545481322062509 3.5858895278359673
  endloop
endfacet
facet normal 0.0 0.9914448613738105 0.13052619222005238
  outer loop
    vertex 7.999999999999999 -9.545481322062509 3.5858895278359673
    vertex 0.0 -9.6 4.0
    vertex 7.999999999999999 -9.6 4.0
  endloop
endfacet
facet normal 0.0 0.9914448613738105 -0.13052619222005238
  outer loop
    vertex 0.0 -9.545481322062509 4.414110472164034
    vertex 7.999999999999999 -9.6 4.0
    vertex 0.0 -9.6 4.0
  endloop
endfacet
facet normal 0.0 0.9914448613738105 -0.13052619222005238
  outer loop
    vertex 7.999999999999999 -9.6 4.0
    vertex 0.0 -9.545481322062509 4.414110472164034
    vertex 7.999999999999999 -9.545481322062509 4.414110472164034
  endloop
endfacet
facet normal 0.0 0.9238795325112868 -0.3826834323650896
  outer loop
    vertex 0.0 -9.385640646055101 4.800000000000001
    vertex 7.999999999999999 -9.545481322062509 4.414110472164034
    vertex 0.0 -9.545481322062509 4.414110472164034
  endloop
endfacet
facet normal 0.0 0.9238795325112868 -0.3826834323650896
  outer loop
    vertex 7.999999999999999 -9.545481322062509 4.414110472164034
    vertex 0.0 -9.385640646055101 4.800000000000001
    vertex 7.999999999999999 -9.385640646055101 4.800000000000001
  endloop
endfacet
facet normal 0.0 0.7933533402912344 -0.6087614290087217
  outer loop
    vertex 0.0 -9.131370849898476 5.131370849898476
    vertex 7.999999999999999 -9.385640646055101 4.800000000000001
    vertex 0.0 -9.385640646055101 4.800000000000001
  endloop
endfacet
facet normal 0.0 0.7933533402912344 -0.6087614290087217
  outer loop
    vertex 7.999999999999999 -9.385640646055101 4.800000000000001
    vertex 0.0 -9.131370849898476 5.131370849898476
    vertex 7.999999999999999 -9.131370849898476 5.131370849898476
  endloop
endfacet
facet normal 0.0 0.6087614290087217 -0.7933533402912344
  outer loop
    vertex 7.999999999999999 -8.799999999999999 5.385640646055102
    vertex 0.0 -9.131370849898476 5.131370849898476
    vertex 0.0 -8.799999999999999 5.385640646055102
  endloop
endfacet
facet normal 0.0 0.6087614290087217 -0.7933533402912344
  outer loop
    vertex 0.0 -9.131370849898476 5.131370849898476
    vertex 7.999999999999999 -8.799999999999999 5.385640646055102
    vertex 7.999999999999999 -9.131370849898476 5.131370849898476
  endloop
endfacet
facet normal 0.0 0.3826834323650896 -0.9238795325112868
  outer loop
    vertex 7.999999999999999 -8.414110472164033 5.54548132206251
    vertex 0.0 -8.799999999999999 5.385640646055102
    vertex 0.0 -8.414110472164033 5.54548132206251
  endloop
endfacet
facet normal 0.0 0.3826834323650896 -0.9238795325112868
  outer loop
    vertex 0.0 -8.799999999999999 5.385640646055102
    vertex 7.999999999999999 -8.414110472164033 5.54548132206251
    vertex 7.999999999999999 -8.799999999999999 5.385640646055102
  endloop
endfacet
facet normal 0.0 0.13052619222005074 -0.9914448613738105
  outer loop
    vertex 7.999999999999999 -7.999999999999999 5.6
    vertex 0.0 -8.414110472164033 5.54548132206251
    vertex 0.0 -7.999999999999999 5.6
  endloop
endfacet
facet normal 0.0 0.13052619222005074 -0.9914448613738105
  outer loop
    vertex 0.0 -8.414110472164033 5.54548132206251
    vertex 7.999999999999999 -7.999999999999999 5.6
    vertex 7.999999999999999 -8.414110472164033 5.54548132206251
  endloop
endfacet
facet normal 0.0 -0.13052619222005074 -0.9914448613738105
  outer loop
    vertex 7.999999999999999 -7.585889527835966 5.54548132206251
    vertex 0.0 -7.999999999999999 5.6
    vertex 0.0 -7.585889527835966 5.54548132206251
  endloop
endfacet
facet normal 0.0 -0.13052619222005074 -0.9914448613738105
  outer loop
    vertex 0.0 -7.999999999999999 5.6
    vertex 7.999999999999999 -7.585889527835966 5.54548132206251
    vertex 7.999999999999999 -7.999999999999999 5.6
  endloop
endfacet
facet normal 0.0 -0.3826834323650896 -0.9238795325112868
  outer loop
    vertex 7.999999999999999 -7.199999999999999 5.385640646055102
    vertex 0.0 -7.585889527835966 5.54548132206251
    vertex 0.0 -7.199999999999999 5.385640646055102
  endloop
endfacet
facet normal 0.0 -0.3826834323650896 -0.9238795325112868
  outer loop
    vertex 0.0 -7.585889527835966 5.54548132206251
    vertex 7.999999999999999 -7.199999999999999 5.385640646055102
    vertex 7.999999999999999 -7.585889527835966 5.54548132206251
  endloop
endfacet
facet normal 0.0 -0.6087614290087217 -0.7933533402912344
  outer loop
    vertex 7.999999999999999 -6.8686291501015235 5.131370849898476
    vertex 0.0 -7.199999999999999 5.385640646055102
    vertex 0.0 -6.8686291501015235 5.131370849898476
  endloop
endfacet
facet normal 0.0 -0.6087614290087217 -0.7933533402912344
  outer loop
    vertex 0.0 -7.199999999999999 5.385640646055102
    vertex 7.999999999999999 -6.8686291501015235 5.131370849898476
    vertex 7.999999999999999 -7.199999999999999 5.385640646055102
  endloop
endfacet
facet normal 0.0 -0.7933533402912349 -0.6087614290087209
  outer loop
    vertex 7.999999999999999 -6.8686291501015235 5.131370849898476
    vertex 0.0 -6.614359353944898 4.8
    vertex 7.999999999999999 -6.614359353944898 4.8
  endloop
endfacet
facet normal 0.0 -0.7933533402912349 -0.6087614290087209
  outer loop
    vertex 0.0 -6.614359353944898 4.8
    vertex 7.999999999999999 -6.8686291501015235 5.131370849898476
    vertex 0.0 -6.8686291501015235 5.131370849898476
  endloop
endfacet
facet normal -0.7933533402912356 -0.60876142900872 0.0
  outer loop
    vertex 6.131370849898476 -3.4686291501015245 7.999999999999999
    vertex 6.3856406460551005 -3.8000000000000016 1.4099832412739487e-15
    vertex 6.3856406460551005 -3.8000000000000016 7.999999999999999
  endloop
endfacet
facet normal -0.7933533402912356 -0.60876142900872 0.0
  outer loop
    vertex 6.3856406460551005 -3.8000000000000016 1.4099832412739487e-15
    vertex 6.131370849898476 -3.4686291501015245 7.999999999999999
    vertex 6.131370849898476 -3.4686291501015245 1.4099832412739487e-15
  endloop
endfacet
facet normal -0.6087614290087209 -0.7933533402912352 0.0
  outer loop
    vertex 6.131370849898476 -3.4686291501015245 7.999999999999999
    vertex 5.799999999999999 -3.2143593539448987 1.4099832412739487e-15
    vertex 6.131370849898476 -3.4686291501015245 1.4099832412739487e-15
  endloop
endfacet
facet normal -0.6087614290087209 -0.7933533402912352 0.0
  outer loop
    vertex 5.799999999999999 -3.2143593539448987 1.4099832412739487e-15
    vertex 6.131370849898476 -3.4686291501015245 7.999999999999999
    vertex 5.799999999999999 -3.2143593539448987 7.999999999999999
  endloop
endfacet
facet normal -0.9238795325112863 -0.3826834323650907 0.0
  outer loop
    vertex 6.3856406460551005 -3.8000000000000016 7.999999999999999
    vertex 6.54548132206251 -4.1858895278359665 1.4099832412739487e-15
    vertex 6.54548132206251 -4.1858895278359665 7.999999999999999
  endloop
endfacet
facet normal -0.9238795325112863 -0.3826834323650907 0.0
  outer loop
    vertex 6.54548132206251 -4.1858895278359665 1.4099832412739487e-15
    vertex 6.3856406460551005 -3.8000000000000016 7.999999999999999
    vertex 6.3856406460551005 -3.8000000000000016 1.4099832412739487e-15
  endloop
endfacet
facet normal -0.9914448613738104 -0.13052619222005193 0.0
  outer loop
    vertex 6.54548132206251 -4.1858895278359665 7.999999999999999
    vertex 6.599999999999999 -4.600000000000001 1.4099832412739487e-15
    vertex 6.599999999999999 -4.600000000000001 7.999999999999999
  endloop
endfacet
facet normal -0.9914448613738104 -0.13052619222005193 0.0
  outer loop
    vertex 6.599999999999999 -4.600000000000001 1.4099832412739487e-15
    vertex 6.54548132206251 -4.1858895278359665 7.999999999999999
    vertex 6.54548132206251 -4.1858895278359665 1.4099832412739487e-15
  endloop
endfacet
facet normal -0.9914448613738106 0.13052619222005116 0.0
  outer loop
    vertex 6.599999999999999 -4.600000000000001 7.999999999999999
    vertex 6.54548132206251 -5.014110472164034 1.4099832412739487e-15
    vertex 6.54548132206251 -5.014110472164034 7.999999999999999
  endloop
endfacet
facet normal -0.9914448613738106 0.13052619222005116 0.0
  outer loop
    vertex 6.54548132206251 -5.014110472164034 1.4099832412739487e-15
    vertex 6.599999999999999 -4.600000000000001 7.999999999999999
    vertex 6.599999999999999 -4.600000000000001 1.4099832412739487e-15
  endloop
endfacet
facet normal -0.9238795325112867 0.38268343236508956 0.0
  outer loop
    vertex 6.54548132206251 -5.014110472164034 7.999999999999999
    vertex 6.385640646055102 -5.4 1.4099832412739487e-15
    vertex 6.385640646055102 -5.4 7.999999999999999
  endloop
endfacet
facet normal -0.9238795325112867 0.38268343236508956 0.0
  outer loop
    vertex 6.385640646055102 -5.4 1.4099832412739487e-15
    vertex 6.54548132206251 -5.014110472164034 7.999999999999999
    vertex 6.54548132206251 -5.014110472164034 1.4099832412739487e-15
  endloop
endfacet
facet normal -0.7933533402912356 0.60876142900872 0.0
  outer loop
    vertex 6.385640646055102 -5.4 7.999999999999999
    vertex 6.1313708498984765 -5.731370849898477 1.4099832412739487e-15
    vertex 6.1313708498984765 -5.731370849898477 7.999999999999999
  endloop
endfacet
facet normal -0.7933533402912356 0.60876142900872 0.0
  outer loop
    vertex 6.1313708498984765 -5.731370849898477 1.4099832412739487e-15
    vertex 6.385640646055102 -5.4 7.999999999999999
    vertex 6.385640646055102 -5.4 1.4099832412739487e-15
  endloop
endfacet
facet normal -0.6087614290087217 0.7933533402912344 0.0
  outer loop
    vertex 5.800000000000001 -5.985640646055103 7.999999999999999
    vertex 6.1313708498984765 -5.731370849898477 1.4099832412739487e-15
    vertex 5.800000000000001 -5.985640646055103 1.4099832412739487e-15
  endloop
endfacet
facet normal -0.6087614290087217 0.7933533402912344 0.0
  outer loop
    vertex 6.1313708498984765 -5.731370849898477 1.4099832412739487e-15
    vertex 5.800000000000001 -5.985640646055103 7.999999999999999
    vertex 6.1313708498984765 -5.731370849898477 7.999999999999999
  endloop
endfacet
facet normal -0.38268343236509017 0.9238795325112866 0.0
  outer loop
    vertex 5.414110472164035 -6.14548132206251 7.999999999999999
    vertex 5.800000000000001 -5.985640646055103 1.4099832412739487e-15
    vertex 5.414110472164035 -6.14548132206251 1.4099832412739487e-15
  endloop
endfacet
facet normal -0.38268343236509017 0.9238795325112866 0.0
  outer loop
    vertex 5.800000000000001 -5.985640646055103 1.4099832412739487e-15
    vertex 5.414110472164035 -6.14548132206251 7.999999999999999
    vertex 5.800000000000001 -5.985640646055103 7.999999999999999
  endloop
endfacet
facet normal -0.13052619222005193 0.9914448613738104 0.0
  outer loop
    vertex 5.0 -6.200000000000001 7.999999999999999
    vertex 5.414110472164035 -6.14548132206251 1.4099832412739487e-15
    vertex 5.0 -6.200000000000001 1.4099832412739487e-15
  endloop
endfacet
facet normal -0.13052619222005193 0.9914448613738104 0.0
  outer loop
    vertex 5.414110472164035 -6.14548132206251 1.4099832412739487e-15
    vertex 5.0 -6.200000000000001 7.999999999999999
    vertex 5.414110472164035 -6.14548132206251 7.999999999999999
  endloop
endfacet
facet normal 0.13052619222005238 0.9914448613738104 0.0
  outer loop
    vertex 4.585889527835967 -6.14548132206251 7.999999999999999
    vertex 5.0 -6.200000000000001 1.4099832412739487e-15
    vertex 4.585889527835967 -6.14548132206251 1.4099832412739487e-15
  endloop
endfacet
facet normal 0.13052619222005238 0.9914448613738104 0.0
  outer loop
    vertex 5.0 -6.200000000000001 1.4099832412739487e-15
    vertex 4.585889527835967 -6.14548132206251 7.999999999999999
    vertex 5.0 -6.200000000000001 7.999999999999999
  endloop
endfacet
facet normal 0.13052619222005568 -0.9914448613738098 0.0
  outer loop
    vertex 5.0 -3.0 7.999999999999999
    vertex 4.585889527835967 -3.0545186779374927 1.4099832412739487e-15
    vertex 5.0 -3.0 1.4099832412739487e-15
  endloop
endfacet
facet normal 0.13052619222005568 -0.9914448613738098 0.0
  outer loop
    vertex 4.585889527835967 -3.0545186779374927 1.4099832412739487e-15
    vertex 5.0 -3.0 7.999999999999999
    vertex 4.585889527835967 -3.0545186779374927 7.999999999999999
  endloop
endfacet
facet normal 0.38268343236509184 -0.9238795325112859 0.0
  outer loop
    vertex 4.585889527835967 -3.0545186779374927 7.999999999999999
    vertex 4.199999999999999 -3.2143593539449014 1.4099832412739487e-15
    vertex 4.585889527835967 -3.0545186779374927 1.4099832412739487e-15
  endloop
endfacet
facet normal 0.38268343236509184 -0.9238795325112859 0.0
  outer loop
    vertex 4.199999999999999 -3.2143593539449014 1.4099832412739487e-15
    vertex 4.585889527835967 -3.0545186779374927 7.999999999999999
    vertex 4.199999999999999 -3.2143593539449014 7.999999999999999
  endloop
endfacet
facet normal 0.6087614290087195 -0.793353340291236 0.0
  outer loop
    vertex 4.199999999999999 -3.2143593539449014 7.999999999999999
    vertex 3.868629150101524 -3.468629150101526 1.4099832412739487e-15
    vertex 4.199999999999999 -3.2143593539449014 1.4099832412739487e-15
  endloop
endfacet
facet normal 0.6087614290087195 -0.793353340291236 0.0
  outer loop
    vertex 3.868629150101524 -3.468629150101526 1.4099832412739487e-15
    vertex 4.199999999999999 -3.2143593539449014 7.999999999999999
    vertex 3.868629150101524 -3.468629150101526 7.999999999999999
  endloop
endfacet
facet normal 0.7933533402912344 -0.6087614290087217 0.0
  outer loop
    vertex 3.868629150101524 -3.468629150101526 1.4099832412739487e-15
    vertex 3.6143593539448977 -3.8000000000000016 7.999999999999999
    vertex 3.6143593539448977 -3.8000000000000016 1.4099832412739487e-15
  endloop
endfacet
facet normal 0.7933533402912344 -0.6087614290087217 0.0
  outer loop
    vertex 3.6143593539448977 -3.8000000000000016 7.999999999999999
    vertex 3.868629150101524 -3.468629150101526 1.4099832412739487e-15
    vertex 3.868629150101524 -3.468629150101526 7.999999999999999
  endloop
endfacet
facet normal 0.9238795325112867 -0.38268343236508956 0.0
  outer loop
    vertex 3.6143593539448977 -3.8000000000000016 1.4099832412739487e-15
    vertex 3.4545186779374903 -4.185889527835968 7.999999999999999
    vertex 3.4545186779374903 -4.185889527835968 1.4099832412739487e-15
  endloop
endfacet
facet normal 0.9238795325112867 -0.38268343236508956 0.0
  outer loop
    vertex 3.4545186779374903 -4.185889527835968 7.999999999999999
    vertex 3.6143593539448977 -3.8000000000000016 1.4099832412739487e-15
    vertex 3.6143593539448977 -3.8000000000000016 7.999999999999999
  endloop
endfacet
facet normal 0.9914448613738108 -0.13052619222004908 0.0
  outer loop
    vertex 3.4545186779374903 -4.185889527835968 1.4099832412739487e-15
    vertex 3.400000000000001 -4.600000000000001 7.999999999999999
    vertex 3.400000000000001 -4.600000000000001 1.4099832412739487e-15
  endloop
endfacet
facet normal 0.9914448613738108 -0.13052619222004908 0.0
  outer loop
    vertex 3.400000000000001 -4.600000000000001 7.999999999999999
    vertex 3.4545186779374903 -4.185889527835968 1.4099832412739487e-15
    vertex 3.4545186779374903 -4.185889527835968 7.999999999999999
  endloop
endfacet
facet normal 0.9914448613738108 0.13052619222004908 0.0
  outer loop
    vertex 3.400000000000001 -4.600000000000001 1.4099832412739487e-15
    vertex 3.4545186779374903 -5.014110472164035 7.999999999999999
    vertex 3.4545186779374903 -5.014110472164035 1.4099832412739487e-15
  endloop
endfacet
facet normal 0.9914448613738108 0.13052619222004908 0.0
  outer loop
    vertex 3.4545186779374903 -5.014110472164035 7.999999999999999
    vertex 3.400000000000001 -4.600000000000001 1.4099832412739487e-15
    vertex 3.400000000000001 -4.600000000000001 7.999999999999999
  endloop
endfacet
facet normal 0.9238795325112867 0.38268343236508956 0.0
  outer loop
    vertex 3.4545186779374903 -5.014110472164035 1.4099832412739487e-15
    vertex 3.6143593539448977 -5.400000000000001 7.999999999999999
    vertex 3.6143593539448977 -5.400000000000001 1.4099832412739487e-15
  endloop
endfacet
facet normal 0.9238795325112867 0.38268343236508956 0.0
  outer loop
    vertex 3.6143593539448977 -5.400000000000001 7.999999999999999
    vertex 3.4545186779374903 -5.014110472164035 1.4099832412739487e-15
    vertex 3.4545186779374903 -5.014110472164035 7.999999999999999
  endloop
endfacet
facet normal 0.7933533402912344 0.6087614290087217 0.0
  outer loop
    vertex 3.6143593539448977 -5.400000000000001 1.4099832412739487e-15
    vertex 3.868629150101524 -5.731370849898477 7.999999999999999
    vertex 3.868629150101524 -5.731370849898477 1.4099832412739487e-15
  endloop
endfacet
facet normal 0.7933533402912344 0.6087614290087217 0.0
  outer loop
    vertex 3.868629150101524 -5.731370849898477 7.999999999999999
    vertex 3.6143593539448977 -5.400000000000001 1.4099832412739487e-15
    vertex 3.6143593539448977 -5.400000000000001 7.999999999999999
  endloop
endfacet
facet normal 0.6087614290087209 0.7933533402912352 0.0
  outer loop
    vertex 3.868629150101524 -5.731370849898477 7.999999999999999
    vertex 4.2 -5.985640646055103 1.4099832412739487e-15
    vertex 3.868629150101524 -5.731370849898477 1.4099832412739487e-15
  endloop
endfacet
facet normal 0.6087614290087209 0.7933533402912352 0.0
  outer loop
    vertex 4.2 -5.985640646055103 1.4099832412739487e-15
    vertex 3.868629150101524 -5.731370849898477 7.999999999999999
    vertex 4.2 -5.985640646055103 7.999999999999999
  endloop
endfacet
facet normal 0.38268343236508956 0.9238795325112867 0.0
  outer loop
    vertex 4.2 -5.985640646055103 7.999999999999999
    vertex 4.585889527835967 -6.14548132206251 1.4099832412739487e-15
    vertex 4.2 -5.985640646055103 1.4099832412739487e-15
  endloop
endfacet
facet normal 0.38268343236508956 0.9238795325112867 0.0
  outer loop
    vertex 4.585889527835967 -6.14548132206251 1.4099832412739487e-15
    vertex 4.2 -5.985640646055103 7.999999999999999
    vertex 4.585889527835967 -6.14548132206251 7.999999999999999
  endloop
endfacet
facet normal -0.38268343236508956 -0.9238795325112867 0.0
  outer loop
    vertex 5.8 -10.014359353944897 7.999999999999999
    vertex 5.414110472164033 -9.85451867793749 7.049916206369744e-16
    vertex 5.8 -10.014359353944897 7.049916206369744e-16
  endloop
endfacet
facet normal -0.38268343236508956 -0.9238795325112867 0.0
  outer loop
    vertex 5.414110472164033 -9.85451867793749 7.049916206369744e-16
    vertex 5.8 -10.014359353944897 7.999999999999999
    vertex 5.414110472164033 -9.85451867793749 7.999999999999999
  endloop
endfacet
facet normal -0.13052619222005238 -0.9914448613738104 0.0
  outer loop
    vertex 5.414110472164033 -9.85451867793749 7.999999999999999
    vertex 5.0 -9.799999999999999 7.049916206369744e-16
    vertex 5.414110472164033 -9.85451867793749 7.049916206369744e-16
  endloop
endfacet
facet normal -0.13052619222005238 -0.9914448613738104 0.0
  outer loop
    vertex 5.0 -9.799999999999999 7.049916206369744e-16
    vertex 5.414110472164033 -9.85451867793749 7.999999999999999
    vertex 5.0 -9.799999999999999 7.999999999999999
  endloop
endfacet
facet normal 0.13052619222005193 -0.9914448613738104 0.0
  outer loop
    vertex 5.0 -9.799999999999999 7.999999999999999
    vertex 4.585889527835965 -9.85451867793749 7.049916206369744e-16
    vertex 5.0 -9.799999999999999 7.049916206369744e-16
  endloop
endfacet
facet normal 0.13052619222005193 -0.9914448613738104 0.0
  outer loop
    vertex 4.585889527835965 -9.85451867793749 7.049916206369744e-16
    vertex 5.0 -9.799999999999999 7.999999999999999
    vertex 4.585889527835965 -9.85451867793749 7.999999999999999
  endloop
endfacet
facet normal 0.38268343236509017 -0.9238795325112866 0.0
  outer loop
    vertex 4.585889527835965 -9.85451867793749 7.999999999999999
    vertex 4.199999999999999 -10.014359353944897 7.049916206369744e-16
    vertex 4.585889527835965 -9.85451867793749 7.049916206369744e-16
  endloop
endfacet
facet normal 0.38268343236509017 -0.9238795325112866 0.0
  outer loop
    vertex 4.199999999999999 -10.014359353944897 7.049916206369744e-16
    vertex 4.585889527835965 -9.85451867793749 7.999999999999999
    vertex 4.199999999999999 -10.014359353944897 7.999999999999999
  endloop
endfacet
facet normal 0.6087614290087217 -0.7933533402912344 0.0
  outer loop
    vertex 4.199999999999999 -10.014359353944897 7.999999999999999
    vertex 3.868629150101524 -10.268629150101523 7.049916206369744e-16
    vertex 4.199999999999999 -10.014359353944897 7.049916206369744e-16
  endloop
endfacet
facet normal 0.6087614290087217 -0.7933533402912344 0.0
  outer loop
    vertex 3.868629150101524 -10.268629150101523 7.049916206369744e-16
    vertex 4.199999999999999 -10.014359353944897 7.999999999999999
    vertex 3.868629150101524 -10.268629150101523 7.999999999999999
  endloop
endfacet
facet normal 0.7933533402912356 -0.60876142900872 0.0
  outer loop
    vertex 3.868629150101524 -10.268629150101523 7.049916206369744e-16
    vertex 3.6143593539448977 -10.6 7.999999999999999
    vertex 3.6143593539448977 -10.6 7.049916206369744e-16
  endloop
endfacet
facet normal 0.7933533402912356 -0.60876142900872 0.0
  outer loop
    vertex 3.6143593539448977 -10.6 7.999999999999999
    vertex 3.868629150101524 -10.268629150101523 7.049916206369744e-16
    vertex 3.868629150101524 -10.268629150101523 7.999999999999999
  endloop
endfacet
facet normal 0.9238795325112866 -0.38268343236509017 0.0
  outer loop
    vertex 3.6143593539448977 -10.6 7.049916206369744e-16
    vertex 3.4545186779374903 -10.985889527835967 7.999999999999999
    vertex 3.4545186779374903 -10.985889527835967 7.049916206369744e-16
  endloop
endfacet
facet normal 0.9238795325112866 -0.38268343236509017 0.0
  outer loop
    vertex 3.4545186779374903 -10.985889527835967 7.999999999999999
    vertex 3.6143593539448977 -10.6 7.049916206369744e-16
    vertex 3.6143593539448977 -10.6 7.999999999999999
  endloop
endfacet
facet normal 0.9914448613738108 -0.13052619222004927 0.0
  outer loop
    vertex 3.4545186779374903 -10.985889527835967 7.049916206369744e-16
    vertex 3.400000000000001 -11.399999999999999 7.999999999999999
    vertex 3.400000000000001 -11.399999999999999 7.049916206369744e-16
  endloop
endfacet
facet normal 0.9914448613738108 -0.13052619222004927 0.0
  outer loop
    vertex 3.400000000000001 -11.399999999999999 7.999999999999999
    vertex 3.4545186779374903 -10.985889527835967 7.049916206369744e-16
    vertex 3.4545186779374903 -10.985889527835967 7.999999999999999
  endloop
endfacet
facet normal 0.9914448613738108 0.13052619222004863 0.0
  outer loop
    vertex 3.400000000000001 -11.399999999999999 7.049916206369744e-16
    vertex 3.4545186779374903 -11.814110472164034 7.999999999999999
    vertex 3.4545186779374903 -11.814110472164034 7.049916206369744e-16
  endloop
endfacet
facet normal 0.9914448613738108 0.13052619222004863 0.0
  outer loop
    vertex 3.4545186779374903 -11.814110472164034 7.999999999999999
    vertex 3.400000000000001 -11.399999999999999 7.049916206369744e-16
    vertex 3.400000000000001 -11.399999999999999 7.999999999999999
  endloop
endfacet
facet normal 0.9238795325112854 0.38268343236509306 0.0
  outer loop
    vertex 3.4545186779374903 -11.814110472164034 7.049916206369744e-16
    vertex 3.614359353944899 -12.200000000000001 7.999999999999999
    vertex 3.614359353944899 -12.200000000000001 7.049916206369744e-16
  endloop
endfacet
facet normal 0.9238795325112854 0.38268343236509306 0.0
  outer loop
    vertex 3.614359353944899 -12.200000000000001 7.999999999999999
    vertex 3.4545186779374903 -11.814110472164034 7.049916206369744e-16
    vertex 3.4545186779374903 -11.814110472164034 7.999999999999999
  endloop
endfacet
facet normal 0.7933533402912358 0.6087614290087198 0.0
  outer loop
    vertex 3.614359353944899 -12.200000000000001 7.049916206369744e-16
    vertex 3.8686291501015244 -12.531370849898476 7.999999999999999
    vertex 3.8686291501015244 -12.531370849898476 7.049916206369744e-16
  endloop
endfacet
facet normal 0.7933533402912358 0.6087614290087198 0.0
  outer loop
    vertex 3.8686291501015244 -12.531370849898476 7.999999999999999
    vertex 3.614359353944899 -12.200000000000001 7.049916206369744e-16
    vertex 3.614359353944899 -12.200000000000001 7.999999999999999
  endloop
endfacet
facet normal 0.6087614290087198 0.7933533402912358 0.0
  outer loop
    vertex 3.8686291501015244 -12.531370849898476 7.999999999999999
    vertex 4.200000000000001 -12.7856406460551 7.049916206369744e-16
    vertex 3.8686291501015244 -12.531370849898476 7.049916206369744e-16
  endloop
endfacet
facet normal 0.6087614290087198 0.7933533402912358 0.0
  outer loop
    vertex 4.200000000000001 -12.7856406460551 7.049916206369744e-16
    vertex 3.8686291501015244 -12.531370849898476 7.999999999999999
    vertex 4.200000000000001 -12.7856406460551 7.999999999999999
  endloop
endfacet
facet normal 0.38268343236508956 0.9238795325112867 0.0
  outer loop
    vertex 4.200000000000001 -12.7856406460551 7.999999999999999
    vertex 4.585889527835968 -12.94548132206251 7.049916206369744e-16
    vertex 4.200000000000001 -12.7856406460551 7.049916206369744e-16
  endloop
endfacet
facet normal 0.38268343236508956 0.9238795325112867 0.0
  outer loop
    vertex 4.585889527835968 -12.94548132206251 7.049916206369744e-16
    vertex 4.200000000000001 -12.7856406460551 7.999999999999999
    vertex 4.585889527835968 -12.94548132206251 7.999999999999999
  endloop
endfacet
facet normal 0.13052619222005094 0.9914448613738106 0.0
  outer loop
    vertex 4.585889527835968 -12.94548132206251 7.999999999999999
    vertex 5.0 -12.999999999999998 7.049916206369744e-16
    vertex 4.585889527835968 -12.94548132206251 7.049916206369744e-16
  endloop
endfacet
facet normal 0.13052619222005094 0.9914448613738106 0.0
  outer loop
    vertex 5.0 -12.999999999999998 7.049916206369744e-16
    vertex 4.585889527835968 -12.94548132206251 7.999999999999999
    vertex 5.0 -12.999999999999998 7.999999999999999
  endloop
endfacet
facet normal -0.13052619222005238 0.9914448613738104 0.0
  outer loop
    vertex 5.0 -12.999999999999998 7.999999999999999
    vertex 5.414110472164033 -12.94548132206251 7.049916206369744e-16
    vertex 5.0 -12.999999999999998 7.049916206369744e-16
  endloop
endfacet
facet normal -0.13052619222005238 0.9914448613738104 0.0
  outer loop
    vertex 5.414110472164033 -12.94548132206251 7.049916206369744e-16
    vertex 5.0 -12.999999999999998 7.999999999999999
    vertex 5.414110472164033 -12.94548132206251 7.999999999999999
  endloop
endfacet
facet normal -0.38268343236508895 0.9238795325112871 0.0
  outer loop
    vertex 5.414110472164033 -12.94548132206251 7.999999999999999
    vertex 5.800000000000001 -12.7856406460551 7.049916206369744e-16
    vertex 5.414110472164033 -12.94548132206251 7.049916206369744e-16
  endloop
endfacet
facet normal -0.38268343236508895 0.9238795325112871 0.0
  outer loop
    vertex 5.800000000000001 -12.7856406460551 7.049916206369744e-16
    vertex 5.414110472164033 -12.94548132206251 7.999999999999999
    vertex 5.800000000000001 -12.7856406460551 7.999999999999999
  endloop
endfacet
facet normal -0.6087614290087217 0.7933533402912344 0.0
  outer loop
    vertex 5.800000000000001 -12.7856406460551 7.999999999999999
    vertex 6.1313708498984765 -12.531370849898474 7.049916206369744e-16
    vertex 5.800000000000001 -12.7856406460551 7.049916206369744e-16
  endloop
endfacet
facet normal -0.6087614290087217 0.7933533402912344 0.0
  outer loop
    vertex 6.1313708498984765 -12.531370849898474 7.049916206369744e-16
    vertex 5.800000000000001 -12.7856406460551 7.999999999999999
    vertex 6.1313708498984765 -12.531370849898474 7.999999999999999
  endloop
endfacet
facet normal -0.7933533402912344 0.6087614290087217 0.0
  outer loop
    vertex 6.385640646055102 -12.2 7.999999999999999
    vertex 6.1313708498984765 -12.531370849898474 7.049916206369744e-16
    vertex 6.1313708498984765 -12.531370849898474 7.999999999999999
  endloop
endfacet
facet normal -0.7933533402912344 0.6087614290087217 0.0
  outer loop
    vertex 6.1313708498984765 -12.531370849898474 7.049916206369744e-16
    vertex 6.385640646055102 -12.2 7.999999999999999
    vertex 6.385640646055102 -12.2 7.049916206369744e-16
  endloop
endfacet
facet normal -0.9238795325112867 0.38268343236508956 0.0
  outer loop
    vertex 6.54548132206251 -11.814110472164032 7.999999999999999
    vertex 6.385640646055102 -12.2 7.049916206369744e-16
    vertex 6.385640646055102 -12.2 7.999999999999999
  endloop
endfacet
facet normal -0.9238795325112867 0.38268343236508956 0.0
  outer loop
    vertex 6.385640646055102 -12.2 7.049916206369744e-16
    vertex 6.54548132206251 -11.814110472164032 7.999999999999999
    vertex 6.54548132206251 -11.814110472164032 7.049916206369744e-16
  endloop
endfacet
facet normal -0.9914448613738106 0.1305261922200507 0.0
  outer loop
    vertex 6.599999999999999 -11.399999999999999 7.999999999999999
    vertex 6.54548132206251 -11.814110472164032 7.049916206369744e-16
    vertex 6.54548132206251 -11.814110472164032 7.999999999999999
  endloop
endfacet
facet normal -0.9914448613738106 0.1305261922200507 0.0
  outer loop
    vertex 6.54548132206251 -11.814110472164032 7.049916206369744e-16
    vertex 6.599999999999999 -11.399999999999999 7.999999999999999
    vertex 6.599999999999999 -11.399999999999999 7.049916206369744e-16
  endloop
endfacet
facet normal -0.9914448613738104 -0.13052619222005238 0.0
  outer loop
    vertex 6.54548132206251 -10.985889527835965 7.999999999999999
    vertex 6.599999999999999 -11.399999999999999 7.049916206369744e-16
    vertex 6.599999999999999 -11.399999999999999 7.999999999999999
  endloop
endfacet
facet normal -0.9914448613738104 -0.13052619222005238 0.0
  outer loop
    vertex 6.599999999999999 -11.399999999999999 7.049916206369744e-16
    vertex 6.54548132206251 -10.985889527835965 7.999999999999999
    vertex 6.54548132206251 -10.985889527835965 7.049916206369744e-16
  endloop
endfacet
facet normal -0.9238795325112867 -0.38268343236508956 0.0
  outer loop
    vertex 6.3856406460551005 -10.6 7.999999999999999
    vertex 6.54548132206251 -10.985889527835965 7.049916206369744e-16
    vertex 6.54548132206251 -10.985889527835965 7.999999999999999
  endloop
endfacet
facet normal -0.9238795325112867 -0.38268343236508956 0.0
  outer loop
    vertex 6.54548132206251 -10.985889527835965 7.049916206369744e-16
    vertex 6.3856406460551005 -10.6 7.999999999999999
    vertex 6.3856406460551005 -10.6 7.049916206369744e-16
  endloop
endfacet
facet normal -0.7933533402912358 -0.6087614290087198 0.0
  outer loop
    vertex 6.1313708498984765 -10.268629150101523 7.999999999999999
    vertex 6.3856406460551005 -10.6 7.049916206369744e-16
    vertex 6.3856406460551005 -10.6 7.999999999999999
  endloop
endfacet
facet normal -0.7933533402912358 -0.6087614290087198 0.0
  outer loop
    vertex 6.3856406460551005 -10.6 7.049916206369744e-16
    vertex 6.1313708498984765 -10.268629150101523 7.999999999999999
    vertex 6.1313708498984765 -10.268629150101523 7.049916206369744e-16
  endloop
endfacet
facet normal -0.6087614290087198 -0.7933533402912358 0.0
  outer loop
    vertex 6.1313708498984765 -10.268629150101523 7.999999999999999
    vertex 5.8 -10.014359353944897 7.049916206369744e-16
    vertex 6.1313708498984765 -10.268629150101523 7.049916206369744e-16
  endloop
endfacet
facet normal -0.6087614290087198 -0.7933533402912358 0.0
  outer loop
    vertex 5.8 -10.014359353944897 7.049916206369744e-16
    vertex 6.1313708498984765 -10.268629150101523 7.999999999999999
    vertex 5.8 -10.014359353944897 7.999999999999999
  endloop
endfacet
facet normal 1.0 0.0 0.0
  outer loop
    vertex 7.999999999999998 -9.549999999999997 1.3153212482682388
    vertex 7.999999999999999 -9.6 4.0
    vertex 7.999999999999998 -11.1 3.9999999999999996
  endloop
endfacet
facet normal 1.0 0.0 0.0
  outer loop
    vertex 7.999999999999999 -9.6 4.0
    vertex 7.999999999999998 -9.549999999999997 1.3153212482682388
    vertex 7.999999999999999 -9.545481322062509 3.5858895278359673
  endloop
endfacet
facet normal 1.0 0.0 0.0
  outer loop
    vertex 7.999999999999999 -9.545481322062509 3.5858895278359673
    vertex 7.999999999999998 -9.549999999999997 1.3153212482682388
    vertex 7.999999999999999 -9.385640646055101 3.2000000000000006
  endloop
endfacet
facet normal 1.0 0.0 0.0
  outer loop
    vertex 7.999999999999999 -9.385640646055101 3.2000000000000006
    vertex 7.999999999999998 -9.549999999999997 1.3153212482682388
    vertex 7.999999999999999 -9.131370849898476 2.868629150101525
  endloop
endfacet
facet normal 1.0 0.0 0.0
  outer loop
    vertex 7.999999999999999 -9.131370849898476 2.868629150101525
    vertex 7.999999999999998 -9.549999999999997 1.3153212482682388
    vertex 7.999999999999999 -8.8 2.614359353944899
  endloop
endfacet
facet normal 1.0 0.0 0.0
  outer loop
    vertex 7.999999999999999 -8.8 2.614359353944899
    vertex 7.999999999999998 -9.549999999999997 1.3153212482682388
    vertex 7.999999999999998 -6.449999999999998 1.3153212482682408
  endloop
endfacet
facet normal 1.0 0.0 0.0
  outer loop
    vertex 7.999999999999999 -8.8 2.614359353944899
    vertex 7.999999999999998 -6.449999999999998 1.3153212482682408
    vertex 7.999999999999999 -8.414110472164035 2.4545186779374912
  endloop
endfacet
facet normal 1.0 0.0 0.0
  outer loop
    vertex 7.999999999999999 -8.414110472164035 2.4545186779374912
    vertex 7.999999999999998 -6.449999999999998 1.3153212482682408
    vertex 7.999999999999999 -7.999999999999999 2.4000000000000004
  endloop
endfacet
facet normal 1.0 0.0 0.0
  outer loop
    vertex 7.999999999999999 -7.999999999999999 2.4000000000000004
    vertex 7.999999999999998 -6.449999999999998 1.3153212482682408
    vertex 7.999999999999999 -7.585889527835968 2.454518677937491
  endloop
endfacet
facet normal 1.0 0.0 0.0
  outer loop
    vertex 7.999999999999999 -7.585889527835968 2.454518677937491
    vertex 7.999999999999998 -6.449999999999998 1.3153212482682408
    vertex 7.999999999999999 -7.200000000000001 2.6143593539448973
  endloop
endfacet
facet normal 1.0 0.0 0.0
  outer loop
    vertex 7.999999999999999 -7.200000000000001 2.6143593539448973
    vertex 7.999999999999998 -6.449999999999998 1.3153212482682408
    vertex 7.999999999999999 -6.8686291501015235 2.868629150101524
  endloop
endfacet
facet normal 1.0 0.0 0.0
  outer loop
    vertex 7.999999999999999 -6.8686291501015235 2.868629150101524
    vertex 7.999999999999998 -6.449999999999998 1.3153212482682408
    vertex 7.999999999999999 -6.614359353944898 3.1999999999999997
  endloop
endfacet
facet normal 1.0 0.0 0.0
  outer loop
    vertex 7.999999999999999 -6.614359353944898 3.1999999999999997
    vertex 7.999999999999998 -6.449999999999998 1.3153212482682408
    vertex 7.999999999999999 -6.45451867793749 3.5858895278359655
  endloop
endfacet
facet normal 1.0 0.0 0.0
  outer loop
    vertex 7.999999999999999 -6.45451867793749 3.5858895278359655
    vertex 7.999999999999998 -6.449999999999998 1.3153212482682408
    vertex 7.999999999999999 -6.3999999999999995 3.9999999999999996
  endloop
endfacet
facet normal 1.0 0.0 0.0
  outer loop
    vertex 7.999999999999999 -6.3999999999999995 3.9999999999999996
    vertex 7.999999999999998 -6.449999999999998 1.3153212482682408
    vertex 7.999999999999998 -4.8999999999999995 4.0
  endloop
endfacet
facet normal 1.0 0.0 0.0
  outer loop
    vertex 7.999999999999999 -9.6 4.0
    vertex 7.999999999999998 -9.549999999999999 6.6846787517317585
    vertex 7.999999999999998 -11.1 3.9999999999999996
  endloop
endfacet
facet normal 1.0 0.0 0.0
  outer loop
    vertex 7.999999999999998 -9.549999999999999 6.6846787517317585
    vertex 7.999999999999999 -9.6 4.0
    vertex 7.999999999999999 -9.545481322062509 4.414110472164034
  endloop
endfacet
facet normal 1.0 0.0 0.0
  outer loop
    vertex 7.999999999999998 -9.549999999999999 6.6846787517317585
    vertex 7.999999999999999 -9.545481322062509 4.414110472164034
    vertex 7.999999999999999 -9.385640646055101 4.800000000000001
  endloop
endfacet
facet normal 1.0 0.0 0.0
  outer loop
    vertex 7.999999999999998 -9.549999999999999 6.6846787517317585
    vertex 7.999999999999999 -9.385640646055101 4.800000000000001
    vertex 7.999999999999999 -9.131370849898476 5.131370849898476
  endloop
endfacet
facet normal 1.0 0.0 0.0
  outer loop
    vertex 7.999999999999998 -9.549999999999999 6.6846787517317585
    vertex 7.999999999999999 -9.131370849898476 5.131370849898476
    vertex 7.999999999999999 -8.799999999999999 5.385640646055102
  endloop
endfacet
facet normal 1.0 0.0 0.0
  outer loop
    vertex 7.999999999999998 -9.549999999999999 6.6846787517317585
    vertex 7.999999999999999 -8.799999999999999 5.385640646055102
    vertex 7.999999999999998 -6.449999999999999 6.68467875173176
  endloop
endfacet
facet normal 1.0 0.0 0.0
  outer loop
    vertex 7.999999999999998 -6.449999999999999 6.68467875173176
    vertex 7.999999999999999 -8.799999999999999 5.385640646055102
    vertex 7.999999999999999 -8.414110472164033 5.54548132206251
  endloop
endfacet
facet normal 1.0 0.0 0.0
  outer loop
    vertex 7.999999999999998 -6.449999999999999 6.68467875173176
    vertex 7.999999999999999 -8.414110472164033 5.54548132206251
    vertex 7.999999999999999 -7.999999999999999 5.6
  endloop
endfacet
facet normal 1.0 0.0 0.0
  outer loop
    vertex 7.999999999999998 -6.449999999999999 6.68467875173176
    vertex 7.999999999999999 -7.999999999999999 5.6
    vertex 7.999999999999999 -7.585889527835966 5.54548132206251
  endloop
endfacet
facet normal 1.0 0.0 0.0
  outer loop
    vertex 7.999999999999998 -6.449999999999999 6.68467875173176
    vertex 7.999999999999999 -7.585889527835966 5.54548132206251
    vertex 7.999999999999999 -7.199999999999999 5.385640646055102
  endloop
endfacet
facet normal 1.0 0.0 0.0
  outer loop
    vertex 7.999999999999998 -6.449999999999999 6.68467875173176
    vertex 7.999999999999999 -7.199999999999999 5.385640646055102
    vertex 7.999999999999999 -6.8686291501015235 5.131370849898476
  endloop
endfacet
facet normal 1.0 0.0 0.0
  outer loop
    vertex 7.999999999999998 -6.449999999999999 6.68467875173176
    vertex 7.999999999999999 -6.8686291501015235 5.131370849898476
    vertex 7.999999999999999 -6.614359353944898 4.8
  endloop
endfacet
facet normal 1.0 0.0 0.0
  outer loop
    vertex 7.999999999999998 -6.449999999999999 6.68467875173176
    vertex 7.999999999999999 -6.614359353944898 4.8
    vertex 7.999999999999999 -6.45451867793749 4.414110472164033
  endloop
endfacet
facet normal 1.0 0.0 0.0
  outer loop
    vertex 7.999999999999998 -6.449999999999999 6.68467875173176
    vertex 7.999999999999999 -6.45451867793749 4.414110472164033
    vertex 7.999999999999999 -6.3999999999999995 3.9999999999999996
  endloop
endfacet
facet normal 1.0 0.0 0.0
  outer loop
    vertex 7.999999999999998 -6.449999999999999 6.68467875173176
    vertex 7.999999999999999 -6.3999999999999995 3.9999999999999996
    vertex 7.999999999999998 -4.8999999999999995 4.0
  endloop
endfacet
facet normal 0.0 -0.8660254037844388 0.49999999999999967
  outer loop
    vertex 9.999999999999998 -4.8999999999999995 4.0
    vertex 7.999999999999998 -6.449999999999998 1.3153212482682408
    vertex 9.999999999999998 -6.449999999999998 1.3153212482682408
  endloop
endfacet
facet normal 0.0 -0.8660254037844388 0.49999999999999967
  outer loop
    vertex 7.999999999999998 -6.449999999999998 1.3153212482682408
    vertex 9.999999999999998 -4.8999999999999995 4.0
    vertex 7.999999999999998 -4.8999999999999995 4.0
  endloop
endfacet
facet normal -0.0 -0.8660254037844388 -0.5000000000000001
  outer loop
    vertex 9.999999999999998 -6.449999999999999 6.68467875173176
    vertex 7.999999999999998 -4.8999999999999995 4.0
    vertex 9.999999999999998 -4.8999999999999995 4.0
  endloop
endfacet
facet normal -0.0 -0.8660254037844388 -0.5000000000000001
  outer loop
    vertex 7.999999999999998 -4.8999999999999995 4.0
    vertex 9.999999999999998 -6.449999999999999 6.68467875173176
    vertex 7.999999999999998 -6.449999999999999 6.68467875173176
  endloop
endfacet
facet normal 0.0 4.548333036367577e-16 -1.0
  outer loop
    vertex 9.999999999999998 -6.449999999999999 6.68467875173176
    vertex 7.999999999999998 -9.549999999999999 6.6846787517317585
    vertex 7.999999999999998 -6.449999999999999 6.68467875173176
  endloop
endfacet
facet normal 0.0 4.548333036367577e-16 -1.0
  outer loop
    vertex 7.999999999999998 -9.549999999999999 6.6846787517317585
    vertex 9.999999999999998 -6.449999999999999 6.68467875173176
    vertex 9.999999999999998 -9.549999999999999 6.6846787517317585
  endloop
endfacet
facet normal 0.0 0.8660254037844386 -0.5000000000000001
  outer loop
    vertex 7.999999999999998 -9.549999999999999 6.6846787517317585
    vertex 9.999999999999998 -11.1 3.9999999999999996
    vertex 7.999999999999998 -11.1 3.9999999999999996
  endloop
endfacet
facet normal 0.0 0.8660254037844386 -0.5000000000000001
  outer loop
    vertex 9.999999999999998 -11.1 3.9999999999999996
    vertex 7.999999999999998 -9.549999999999999 6.6846787517317585
    vertex 9.999999999999998 -9.549999999999999 6.6846787517317585
  endloop
endfacet
facet normal 0.0 0.8660254037844385 0.5000000000000006
  outer loop
    vertex 7.999999999999998 -11.1 3.9999999999999996
    vertex 9.999999999999998 -9.549999999999997 1.3153212482682388
    vertex 7.999999999999998 -9.549999999999997 1.3153212482682388
  endloop
endfacet
facet normal 0.0 0.8660254037844385 0.5000000000000006
  outer loop
    vertex 9.999999999999998 -9.549999999999997 1.3153212482682388
    vertex 7.999999999999998 -11.1 3.9999999999999996
    vertex 9.999999999999998 -11.1 3.9999999999999996
  endloop
endfacet
facet normal 0.0 -6.8224995545513685e-16 1.0
  outer loop
    vertex 9.999999999999998 -9.549999999999997 1.3153212482682388
    vertex 7.999999999999998 -6.449999999999998 1.3153212482682408
    vertex 7.999999999999998 -9.549999999999997 1.3153212482682388
  endloop
endfacet
facet normal 0.0 -6.8224995545513685e-16 1.0
  outer loop
    vertex 7.999999999999998 -6.449999999999998 1.3153212482682408
    vertex 9.999999999999998 -9.549999999999997 1.3153212482682388
    vertex 9.999999999999998 -6.449999999999998 1.3153212482682408
  endloop
endfacet
endsolid Натяжитель АBelt
