solid Под-Лепестковый-Разъем-v5c
facet normal -0.9999999999940613 2.7629455644151897e-06 -2.0600158112173877e-06
  outer loop
    vertex -8.298255094286683 16.022651640931297 3.301708498477022
    vertex -8.298249551275799 20.21984319117565 0.30154716876761006
    vertex -8.298248914454406 16.022573769230792 0.3017084994940525
  endloop
endfacet
facet normal -0.9999999999940613 2.7629455644151897e-06 -2.0600158112173877e-06
  outer loop
    vertex -8.298249551275799 20.21984319117565 0.30154716876761006
    vertex -8.298255094286683 16.022651640931297 3.301708498477022
    vertex -8.298255731108073 20.21992106287615 3.3015471677505777
  endloop
endfacet
facet normal 1.6963031732177822e-05 0.9999999993075209 3.312421710981e-05
  outer loop
    vertex -6.798261453766491 15.722621292723302 3.3023149787644503
    vertex 0.0023010704542419935 15.722511499555676 4.500457612789906
    vertex 0.0021604326019406647 15.722528289724588 3.3004576284629206
  endloop
endfacet
facet normal 1.6963031732177822e-05 0.9999999993075209 3.312421710981e-05
  outer loop
    vertex 0.0023010704542419935 15.722511499555676 4.500457612789906
    vertex -6.798261453766491 15.722621292723302 3.3023149787644503
    vertex -6.7984488439420625 15.722649098999094 4.502029520877174
  endloop
endfacet
facet normal -2.4190347197915936e-05 -0.9999999997064901 1.3590424808867848e-06
  outer loop
    vertex -8.298255731108073 20.21992106287615 3.3015471677505777
    vertex -19.996086974336997 20.22017258965734 0.30155033959360106
    vertex -8.298249551275799 20.21984319117565 0.30154716876761006
  endloop
endfacet
facet normal -2.4190347197915936e-05 -0.9999999997064901 1.3590424808867848e-06
  outer loop
    vertex -19.996086974336997 20.22017258965734 0.30155033959360106
    vertex -8.298255731108073 20.21992106287615 3.3015471677505777
    vertex -8.798255707019827 20.219931185249596 3.3013922943089944
  endloop
endfacet
facet normal -2.4190347197915936e-05 -0.9999999997064901 1.3590424808867848e-06
  outer loop
    vertex -8.798255707019827 20.219931185249596 3.3013922943089944
    vertex -19.99606650199377 20.220226517641077 4.501550336102247
    vertex -19.996086974336997 20.22017258965734 0.30155033959360106
  endloop
endfacet
facet normal -2.4190347197915936e-05 -0.9999999997064901 1.3590424808867848e-06
  outer loop
    vertex -19.99606650199377 20.220226517641077 4.501550336102247
    vertex -8.798255707019827 20.219931185249596 3.3013922943089944
    vertex -8.798473201444724 20.220000095866432 4.501393413091212
  endloop
endfacet
facet normal -0.9999999770669609 -0.00018391000634318256 -0.00010974145720292167
  outer loop
    vertex -19.995367896069435 15.21745194861595 4.501537463704398
    vertex -19.994271824407914 15.21826185013582 0.0018498491053314456
    vertex -19.99399768468967 15.21742062708499 1.8062543625159007
  endloop
endfacet
facet normal -0.9999999770669609 -0.00018391000634318256 -0.00010974145720292167
  outer loop
    vertex -19.994271824407914 15.21826185013582 0.0018498491053314456
    vertex -19.995367896069435 15.21745194861595 4.501537463704398
    vertex -19.995500309580006 16.022816819836688 4.501657110888961
  endloop
endfacet
facet normal -0.9999999770669609 -0.00018391000634318256 -0.00010974145720292167
  outer loop
    vertex -19.994271824407914 15.21826185013582 0.0018498491053314456
    vertex -19.995500309580006 16.022816819836688 4.501657110888961
    vertex -19.995526693049516 16.022854750629104 0.30165711888992897
  endloop
endfacet
facet normal -0.9999999770669609 -0.00018391000634318256 -0.00010974145720292167
  outer loop
    vertex -19.994271824407914 15.21826185013582 0.0018498491053314456
    vertex -19.995526693049516 16.022854750629104 0.30165711888992897
    vertex -19.99572865430643 22.468096290425798 0.00203726585859891
  endloop
endfacet
facet normal -0.9999999770669609 -0.00018391000634318256 -0.00010974145720292167
  outer loop
    vertex -19.99572865430643 22.468096290425798 0.00203726585859891
    vertex -19.995526693049516 16.022854750629104 0.30165711888992897
    vertex -19.996086974336997 20.22017258965734 0.30155033959360106
  endloop
endfacet
facet normal -0.9999999770669609 -0.00018391000634318256 -0.00010974145720292167
  outer loop
    vertex -19.99572865430643 22.468096290425798 0.00203726585859891
    vertex -19.996086974336997 20.22017258965734 0.30155033959360106
    vertex -19.99606650199377 20.220226517641077 4.501550336102247
  endloop
endfacet
facet normal -0.9999999770669609 -0.00018391000634318256 -0.00010974145720292167
  outer loop
    vertex -19.99572865430643 22.468096290425798 0.00203726585859891
    vertex -19.99606650199377 20.220226517641077 4.501550336102247
    vertex -19.99626256237548 22.468063224661776 4.501655737346087
  endloop
endfacet
facet normal 2.211541404456359e-05 0.9999999992068141 3.3125221351697726e-05
  outer loop
    vertex -19.995500309580006 16.022816819836688 4.501657110888961
    vertex -8.298248914454406 16.022573769230792 0.3017084994940525
    vertex -19.995526693049516 16.022854750629104 0.30165711888992897
  endloop
endfacet
facet normal 2.211541404456359e-05 0.9999999992068141 3.3125221351697726e-05
  outer loop
    vertex -8.298248914454406 16.022573769230792 0.3017084994940525
    vertex -19.995500309580006 16.022816819836688 4.501657110888961
    vertex -8.798255048012267 16.022661777984876 3.301493622571189
  endloop
endfacet
facet normal 2.211541404456359e-05 0.9999999992068141 3.3125221351697726e-05
  outer loop
    vertex -8.798255048012267 16.022661777984876 3.301493622571189
    vertex -19.995500309580006 16.022816819836688 4.501657110888961
    vertex -8.79855051273835 16.022590571936654 4.501208173372991
  endloop
endfacet
facet normal 2.211541404456359e-05 0.9999999992068141 3.3125221351697726e-05
  outer loop
    vertex -8.298255094286683 16.022651640931297 3.301708498477022
    vertex -8.298248914454406 16.022573769230792 0.3017084994940525
    vertex -8.798255048012267 16.022661777984876 3.301493622571189
  endloop
endfacet
facet normal -4.140457257585429e-05 -0.9999999983911538 -3.877310426635451e-05
  outer loop
    vertex 0.0022291911508567214 19.12170748666454 2.8012466175240425
    vertex -4.997770799782895 19.121958647682455 3.301246688298273
    vertex -4.99777081739121 19.12207854369714 1.3012466918920362
  endloop
endfacet
facet normal -4.140457257585429e-05 -0.9999999983911538 -3.877310426635451e-05
  outer loop
    vertex -4.997770799782895 19.121958647682455 3.301246688298273
    vertex 0.0022291911508567214 19.12170748666454 2.8012466175240425
    vertex 0.0022291991940065013 19.12185749933665 3.3012466382138443
  endloop
endfacet
facet normal -2.0599440921080855e-06 2.5957233501885832e-05 0.9999999996609894
  outer loop
    vertex -19.995526693049516 16.022854750629104 0.30165711888992897
    vertex -8.298249551275799 20.21984319117565 0.30154716876761006
    vertex -19.996086974336997 20.22017258965734 0.30155033959360106
  endloop
endfacet
facet normal -2.0599440921080855e-06 2.5957233501885832e-05 0.9999999996609894
  outer loop
    vertex -8.298249551275799 20.21984319117565 0.30154716876761006
    vertex -19.995526693049516 16.022854750629104 0.30165711888992897
    vertex -8.298248914454406 16.022573769230792 0.3017084994940525
  endloop
endfacet
facet normal -0.28734787517689053 -5.1606676438936494e-05 0.9578262869477311
  outer loop
    vertex 0.0021887307802299968 17.121707490667564 2.80112672150974
    vertex -4.99777081739121 19.12207854369714 1.3012466918920362
    vertex -4.997811277761836 17.122078547700163 1.3011267958777324
  endloop
endfacet
facet normal -0.28734787517689053 -5.1606676438936494e-05 0.9578262869477311
  outer loop
    vertex -4.99777081739121 19.12207854369714 1.3012466918920362
    vertex 0.0021887307802299968 17.121707490667564 2.80112672150974
    vertex 0.0022291911508567214 19.12170748666454 2.8012466175240425
  endloop
endfacet
facet normal 4.1404572575854316e-05 0.9999999983911538 3.877310426635459e-05
  outer loop
    vertex -4.997811260153521 17.12195865168548 3.3011267922839695
    vertex 0.0021887307802299968 17.121707490667564 2.80112672150974
    vertex -4.997811277761836 17.122078547700163 1.3011267958777324
  endloop
endfacet
facet normal 4.1404572575854316e-05 0.9999999983911538 3.877310426635459e-05
  outer loop
    vertex 0.0021887307802299968 17.121707490667564 2.80112672150974
    vertex -4.997811260153521 17.12195865168548 3.3011267922839695
    vertex 0.0021887388233797767 17.12185750333967 3.301126742199542
  endloop
endfacet
facet normal -1.3410418395416442e-05 -0.999999999909155 1.3605001175025432e-06
  outer loop
    vertex 0.0020300647172177303 20.51987253919151 4.501178185507506
    vertex -6.798248233265 20.519890703080524 3.302053811539464
    vertex 0.0019357629610611187 20.519845934939067 3.301178197199022
  endloop
endfacet
facet normal -1.3410418395416442e-05 -0.999999999909155 1.3605001175025432e-06
  outer loop
    vertex -6.798248233265 20.519890703080524 3.302053811539464
    vertex 0.0020300647172177303 20.51987253919151 4.501178185507506
    vertex -6.798398078109246 20.520010161666562 4.502054921104485
  endloop
endfacet
facet normal 0.9999999997953699 -2.0230184748983897e-05 -1.0016916457059709e-08
  outer loop
    vertex -4.997811277761836 17.122078547700163 1.3011267958777324
    vertex -4.997770799782895 19.121958647682455 3.301246688298273
    vertex -4.997811260153521 17.12195865168548 3.3011267922839695
  endloop
endfacet
facet normal 0.9999999997953699 -2.0230184748983897e-05 -1.0016916457059709e-08
  outer loop
    vertex -4.997770799782895 19.121958647682455 3.301246688298273
    vertex -4.997811277761836 17.122078547700163 1.3011267958777324
    vertex -4.99777081739121 19.12207854369714 1.3012466918920362
  endloop
endfacet
facet normal -2.4190347197915936e-05 -0.9999999997064901 1.35904248088711e-06
  outer loop
    vertex -8.295596919372535 12.968742216250137 3.3007996362373087
    vertex -19.99342816260146 12.968993743031326 0.3008028080803319
    vertex -8.29559073954026 12.968664344549634 0.30079963725434095
  endloop
endfacet
facet normal -2.4190347197915936e-05 -0.9999999997064901 1.35904248088711e-06
  outer loop
    vertex -19.99342816260146 12.968993743031326 0.3008028080803319
    vertex -8.295596919372535 12.968742216250137 3.3007996362373087
    vertex -8.79559689528429 12.968752338623585 3.3006447627957254
  endloop
endfacet
facet normal -2.4190347197915936e-05 -0.9999999997064901 1.35904248088711e-06
  outer loop
    vertex -8.79559689528429 12.968752338623585 3.3006447627957254
    vertex -19.99340769025823 12.969047671015067 4.500802804588978
    vertex -19.99342816260146 12.968993743031326 0.3008028080803319
  endloop
endfacet
facet normal -2.4190347197915936e-05 -0.9999999997064901 1.35904248088711e-06
  outer loop
    vertex -19.99340769025823 12.969047671015067 4.500802804588978
    vertex -8.79559689528429 12.968752338623585 3.3006447627957254
    vertex -8.795814389709186 12.968821249240417 4.5006458815779435
  endloop
endfacet
facet normal 2.808723836432853e-05 -0.00024372243396353815 0.9999999699052406
  outer loop
    vertex -19.995367896069435 15.21745194861595 4.501537463704398
    vertex -8.79855051273835 16.022590571936654 4.501208173372991
    vertex -19.995500309580006 16.022816819836688 4.501657110888961
  endloop
endfacet
facet normal 2.808723836432853e-05 -0.00024372243396353815 0.9999999699052406
  outer loop
    vertex -8.79855051273835 16.022590571936654 4.501208173372991
    vertex -19.995367896069435 15.21745194861595 4.501537463704398
    vertex -19.99340769025823 12.969047671015067 4.500802804588978
  endloop
endfacet
facet normal 2.808723836432853e-05 -0.00024372243396353815 0.9999999699052406
  outer loop
    vertex -8.79855051273835 16.022590571936654 4.501208173372991
    vertex -19.99340769025823 12.969047671015067 4.500802804588978
    vertex -8.795814389709186 12.968821249240417 4.5006458815779435
  endloop
endfacet
facet normal -0.9999999999940613 2.7629455644151897e-06 -2.0600158112173877e-06
  outer loop
    vertex -8.295596282551145 8.771472794305282 3.300960966963753
    vertex -8.29559073954026 12.968664344549634 0.30079963725434095
    vertex -8.295590102718869 8.77139492260478 0.30096096798078337
  endloop
endfacet
facet normal -0.9999999999940613 2.7629455644151897e-06 -2.0600158112173877e-06
  outer loop
    vertex -8.29559073954026 12.968664344549634 0.30079963725434095
    vertex -8.295596282551145 8.771472794305282 3.300960966963753
    vertex -8.295596919372535 12.968742216250137 3.3007996362373087
  endloop
endfacet
facet normal -2.0599440921080855e-06 2.5957233501886157e-05 0.9999999996609894
  outer loop
    vertex -19.99286788131398 8.771675904003091 0.30090958737665985
    vertex -8.29559073954026 12.968664344549634 0.30079963725434095
    vertex -19.99342816260146 12.968993743031326 0.3008028080803319
  endloop
endfacet
facet normal -2.0599440921080855e-06 2.5957233501886157e-05 0.9999999996609894
  outer loop
    vertex -8.29559073954026 12.968664344549634 0.30079963725434095
    vertex -19.99286788131398 8.771675904003091 0.30090958737665985
    vertex -8.295590102718869 8.77139492260478 0.30096096798078337
  endloop
endfacet
facet normal 2.211541404456359e-05 0.9999999992068141 3.31252213516974e-05
  outer loop
    vertex -19.992841497844466 8.771637973210675 4.5009095793756915
    vertex -8.295590102718869 8.77139492260478 0.30096096798078337
    vertex -19.99286788131398 8.771675904003091 0.30090958737665985
  endloop
endfacet
facet normal 2.211541404456359e-05 0.9999999992068141 3.31252213516974e-05
  outer loop
    vertex -8.295590102718869 8.77139492260478 0.30096096798078337
    vertex -19.992841497844466 8.771637973210675 4.5009095793756915
    vertex -8.795596236276728 8.771482931358864 3.30074609105792
  endloop
endfacet
facet normal 2.211541404456359e-05 0.9999999992068141 3.31252213516974e-05
  outer loop
    vertex -8.795596236276728 8.771482931358864 3.30074609105792
    vertex -19.992841497844466 8.771637973210675 4.5009095793756915
    vertex -8.795891701002812 8.771411725310644 4.500460641859722
  endloop
endfacet
facet normal 2.211541404456359e-05 0.9999999992068141 3.31252213516974e-05
  outer loop
    vertex -8.295596282551145 8.771472794305282 3.300960966963753
    vertex -8.295590102718869 8.77139492260478 0.30096096798078337
    vertex -8.795596236276728 8.771482931358864 3.30074609105792
  endloop
endfacet
facet normal 1.6963031732177822e-05 0.9999999993075209 3.3124217109809673e-05
  outer loop
    vertex -6.795602642030953 8.471442446097287 3.3015674472511813
    vertex 0.00495988218977992 8.471332652929663 4.499710081276636
    vertex 0.0048192443374785905 8.471349443098575 3.2997100969496516
  endloop
endfacet
facet normal 1.6963031732177822e-05 0.9999999993075209 3.3124217109809673e-05
  outer loop
    vertex 0.00495988218977992 8.471332652929663 4.499710081276636
    vertex -6.795602642030953 8.471442446097287 3.3015674472511813
    vertex -6.795790032206525 8.47147025237308 4.501281989363904
  endloop
endfacet
facet normal -1.3410418395416442e-05 -0.999999999909155 1.3605001175028685e-06
  outer loop
    vertex 0.0046888764527556566 13.268693692565499 4.500430653994236
    vertex -6.795589421529462 13.268711856454509 3.301306280026195
    vertex 0.004594574696599044 13.268667088313055 3.300430665685753
  endloop
endfacet
facet normal -1.3410418395416442e-05 -0.999999999909155 1.3605001175028685e-06
  outer loop
    vertex -6.795589421529462 13.268711856454509 3.301306280026195
    vertex 0.0046888764527556566 13.268693692565499 4.500430653994236
    vertex -6.795739266373706 13.26883131504055 4.501307389591217
  endloop
endfacet
facet normal -3.570795300735618e-05 6.906663804697323e-05 -0.999999996977371
  outer loop
    vertex -0.005653648603104105 28.898976015584292 0.0018057647625256408
    vertex -20.000062938889183 24.542467770233177 0.0022172284616780316
    vertex -20.00565228724465 28.89159684724953 0.0017587493130345865
  endloop
endfacet
facet normal -3.570795300735618e-05 6.906663804697323e-05 -0.999999996977371
  outer loop
    vertex -20.000062938889183 24.542467770233177 0.0022172284616780316
    vertex -0.005653648603104105 28.898976015584292 0.0018057647625256408
    vertex -19.99572865430643 22.468096290425798 0.00203726585859891
  endloop
endfacet
facet normal -3.570795300735618e-05 6.906663804697323e-05 -0.999999996977371
  outer loop
    vertex -19.99572865430643 22.468096290425798 0.00203726585859891
    vertex -0.005653648603104105 28.898976015584292 0.0018057647625256408
    vertex -19.994271824407914 15.21826185013582 0.0018498491053314456
  endloop
endfacet
facet normal -3.570795300735618e-05 6.906663804697323e-05 -0.999999996977371
  outer loop
    vertex -19.994271824407914 15.21826185013582 0.0018498491053314456
    vertex -0.005653648603104105 28.898976015584292 0.0018057647625256408
    vertex -19.991613012672378 7.9670830035098055 0.001102317592062334
  endloop
endfacet
facet normal -3.570795300735618e-05 6.906663804697323e-05 -0.999999996977371
  outer loop
    vertex -19.99204131186228 2.9767850684092654 0.0006831772533310996
    vertex 0.0052498039130396525 0.10004220881761824 -0.000247359795718334
    vertex -19.9921800087429 0.0919235779277974 5.1678103466064095e-05
  endloop
endfacet
facet normal -3.570795300735618e-05 6.906663804697323e-05 -0.999999996977371
  outer loop
    vertex 0.0052498039130396525 0.10004220881761824 -0.000247359795718334
    vertex -19.99204131186228 2.9767850684092654 0.0006831772533310996
    vertex -19.991613012672378 7.9670830035098055 0.001102317592062334
  endloop
endfacet
facet normal -3.570795300735618e-05 6.906663804697323e-05 -0.999999996977371
  outer loop
    vertex 0.0052498039130396525 0.10004220881761824 -0.000247359795718334
    vertex -19.991613012672378 7.9670830035098055 0.001102317592062334
    vertex -0.005653648603104105 28.898976015584292 0.0018057647625256408
  endloop
endfacet
facet normal -3.570795300735618e-05 6.906663804697323e-05 -0.999999996977371
  outer loop
    vertex 0.0052498039130396525 0.10004220881761824 -0.000247359795718334
    vertex -0.005653648603104105 28.898976015584292 0.0018057647625256408
    vertex 0.0049592399953599636 10.871619877295256 0.0002590913598240948
  endloop
endfacet
facet normal 0.00019558241632984736 -0.00016753878071972908 0.9999999668391373
  outer loop
    vertex -6.795739266373706 13.26883131504055 4.501307389591217
    vertex 0.0023010704542419935 15.722511499555676 4.500457612789906
    vertex -6.7984488439420625 15.722649098999094 4.502029520877174
  endloop
endfacet
facet normal 0.00019558241632984736 -0.00016753878071972908 0.9999999668391373
  outer loop
    vertex 0.0023010704542419935 15.722511499555676 4.500457612789906
    vertex -6.795739266373706 13.26883131504055 4.501307389591217
    vertex 0.0046888764527556566 13.268693692565499 4.500430653994236
  endloop
endfacet
facet normal -4.140457257585429e-05 -0.9999999983911538 -3.877310426635419e-05
  outer loop
    vertex 0.004888002886394648 11.870528640038529 2.8004990860107735
    vertex -4.995111988047357 11.870779801056441 3.300499156785004
    vertex -4.995112005655671 11.870899697071126 1.3004991603787672
  endloop
endfacet
facet normal -4.140457257585429e-05 -0.9999999983911538 -3.877310426635419e-05
  outer loop
    vertex -4.995111988047357 11.870779801056441 3.300499156785004
    vertex 0.004888002886394648 11.870528640038529 2.8004990860107735
    vertex 0.0048880109295444275 11.870678652710634 3.300499106700576
  endloop
endfacet
facet normal -0.9999999490125314 -0.00029109307536576135 -0.00013130025164015692
  outer loop
    vertex -19.995367896069435 15.21745194861595 4.501537463704398
    vertex -19.99399768468967 15.21742062708499 1.8062543625159007
    vertex -19.99340769025823 12.969047671015067 4.500802804588978
  endloop
endfacet
facet normal -0.9999999490125314 -0.00029109307536576135 -0.00013130025164015692
  outer loop
    vertex -19.992841497844466 8.771637973210675 4.5009095793756915
    vertex -19.991613012672378 7.9670830035098055 0.001102317592062334
    vertex -19.992709084333896 7.966273101989937 4.500789932191129
  endloop
endfacet
facet normal -0.9999999490125314 -0.00029109307536576135 -0.00013130025164015692
  outer loop
    vertex -19.991613012672378 7.9670830035098055 0.001102317592062334
    vertex -19.992841497844466 8.771637973210675 4.5009095793756915
    vertex -19.99286788131398 8.771675904003091 0.30090958737665985
  endloop
endfacet
facet normal -0.9999999490125314 -0.00029109307536576135 -0.00013130025164015692
  outer loop
    vertex -19.991613012672378 7.9670830035098055 0.001102317592062334
    vertex -19.99286788131398 8.771675904003091 0.30090958737665985
    vertex -19.994271824407914 15.21826185013582 0.0018498491053314456
  endloop
endfacet
facet normal -0.9999999490125314 -0.00029109307536576135 -0.00013130025164015692
  outer loop
    vertex -19.994271824407914 15.21826185013582 0.0018498491053314456
    vertex -19.99286788131398 8.771675904003091 0.30090958737665985
    vertex -19.99342816260146 12.968993743031326 0.3008028080803319
  endloop
endfacet
facet normal -0.9999999490125314 -0.00029109307536576135 -0.00013130025164015692
  outer loop
    vertex -19.994271824407914 15.21826185013582 0.0018498491053314456
    vertex -19.99342816260146 12.968993743031326 0.3008028080803319
    vertex -19.99340769025823 12.969047671015067 4.500802804588978
  endloop
endfacet
facet normal -0.9999999490125314 -0.00029109307536576135 -0.00013130025164015692
  outer loop
    vertex -19.994271824407914 15.21826185013582 0.0018498491053314456
    vertex -19.99340769025823 12.969047671015067 4.500802804588978
    vertex -19.99399768468967 15.21742062708499 1.8062543625159007
  endloop
endfacet
facet normal -0.28734787517689053 -5.160667643893617e-05 0.9578262869477311
  outer loop
    vertex 0.004847542515767923 9.870528644041551 2.800379189996471
    vertex -4.995112005655671 11.870899697071126 1.3004991603787672
    vertex -4.995152466026298 9.870899701074148 1.3003792643644634
  endloop
endfacet
facet normal -0.28734787517689053 -5.160667643893617e-05 0.9578262869477311
  outer loop
    vertex -4.995112005655671 11.870899697071126 1.3004991603787672
    vertex 0.004847542515767923 9.870528644041551 2.800379189996471
    vertex 0.004888002886394648 11.870528640038529 2.8004990860107735
  endloop
endfacet
facet normal 4.1404572575854316e-05 0.9999999983911538 3.877310426635427e-05
  outer loop
    vertex -4.995152448417984 9.870779805059462 3.3003792607707005
    vertex 0.004847542515767923 9.870528644041551 2.800379189996471
    vertex -4.995152466026298 9.870899701074148 1.3003792643644634
  endloop
endfacet
facet normal 4.1404572575854316e-05 0.9999999983911538 3.877310426635427e-05
  outer loop
    vertex 0.004847542515767923 9.870528644041551 2.800379189996471
    vertex -4.995152448417984 9.870779805059462 3.3003792607707005
    vertex 0.004847550558917703 9.870678656713656 3.300379210686273
  endloop
endfacet
facet normal 0.9999999997953699 -2.0230184748983897e-05 -1.0016916457059709e-08
  outer loop
    vertex -4.995152466026298 9.870899701074148 1.3003792643644634
    vertex -4.995111988047357 11.870779801056441 3.300499156785004
    vertex -4.995152448417984 9.870779805059462 3.3003792607707005
  endloop
endfacet
facet normal 0.9999999997953699 -2.0230184748983897e-05 -1.0016916457059709e-08
  outer loop
    vertex -4.995111988047357 11.870779801056441 3.300499156785004
    vertex -4.995152466026298 9.870899701074148 1.3003792643644634
    vertex -4.995112005655671 11.870899697071126 1.3004991603787672
  endloop
endfacet
facet normal 1.6963031732177826e-05 0.999999999307521 3.312421710981011e-05
  outer loop
    vertex -6.803578211550449 22.973799302814268 3.303016648108507
    vertex -0.003015687329714431 22.973689509646643 4.501159282133963
    vertex -0.0031563251820157603 22.973706299815554 3.3011592978069775
  endloop
endfacet
facet normal 1.6963031732177826e-05 0.999999999307521 3.312421710981011e-05
  outer loop
    vertex -0.003015687329714431 22.973689509646643 4.501159282133963
    vertex -6.803578211550449 22.973799302814268 3.303016648108507
    vertex -6.8037656017260195 22.97382710909006 4.502731190221231
  endloop
endfacet
facet normal -2.419034719791594e-05 -0.9999999997064902 1.3590424808866764e-06
  outer loop
    vertex -8.30357248889203 27.471099072967114 3.3022488370946346
    vertex -20.001403732120952 27.471350599748305 0.3022520089376568
    vertex -8.303566309059756 27.471021201266616 0.30224883811166586
  endloop
endfacet
facet normal -2.419034719791594e-05 -0.9999999997064902 1.3590424808866764e-06
  outer loop
    vertex -20.001403732120952 27.471350599748305 0.3022520089376568
    vertex -8.30357248889203 27.471099072967114 3.3022488370946346
    vertex -8.803572464803784 27.471109195340564 3.3020939636530504
  endloop
endfacet
facet normal -2.419034719791594e-05 -0.9999999997064902 1.3590424808866764e-06
  outer loop
    vertex -8.803572464803784 27.471109195340564 3.3020939636530504
    vertex -20.001383259777725 27.471404527732044 4.502252005446303
    vertex -20.001403732120952 27.471350599748305 0.3022520089376568
  endloop
endfacet
facet normal -2.419034719791594e-05 -0.9999999997064902 1.3590424808866764e-06
  outer loop
    vertex -20.001383259777725 27.471404527732044 4.502252005446303
    vertex -8.803572464803784 27.471109195340564 3.3020939636530504
    vertex -8.803789959228682 27.4711781059574 4.502095082435269
  endloop
endfacet
facet normal 0.9999999835366423 8.7796439821576e-06 0.0001812446779444
  outer loop
    vertex -8.803616360708121 28.89203550164934 3.3020663520980875
    vertex -8.803789959228682 27.4711781059574 4.502095082435269
    vertex -8.803572464803784 27.471109195340564 3.3020939636530504
  endloop
endfacet
facet normal 0.9999999835366423 8.7796439821576e-06 0.0001812446779444
  outer loop
    vertex -8.803789959228682 27.4711781059574 4.502095082435269
    vertex -8.803616360708121 28.89203550164934 3.3020663520980875
    vertex -8.803833855133018 28.892104412266164 4.502067470880307
  endloop
endfacet
facet normal 1.3220724929348611e-05 3.826145223542657e-05 0.9999999991806369
  outer loop
    vertex -20.001383259777725 27.471404527732044 4.502252005446303
    vertex -8.803833855133018 28.892104412266164 4.502067470880307
    vertex -20.001500571498745 28.891398441857945 4.502206647848482
  endloop
endfacet
facet normal 1.3220724929348611e-05 3.826145223542657e-05 0.9999999991806369
  outer loop
    vertex -8.803833855133018 28.892104412266164 4.502067470880307
    vertex -20.001383259777725 27.471404527732044 4.502252005446303
    vertex -8.803789959228682 27.4711781059574 4.502095082435269
  endloop
endfacet
facet normal 0.00013144062341130628 0.00014415563319356543 0.9999999809712579
  outer loop
    vertex -6.803714835893202 27.77118817175753 4.502756590448541
    vertex -0.0033470505594906962 28.8926384581395 4.50178460946638
    vertex -6.803741570458881 28.89223404298221 4.502695613057296
  endloop
endfacet
facet normal 0.00013144062341130628 0.00014415563319356543 0.9999999809712579
  outer loop
    vertex -0.0033470505594906962 28.8926384581395 4.50178460946638
    vertex -6.803714835893202 27.77118817175753 4.502756590448541
    vertex -0.0032866930667386947 27.771050549282478 4.501879854851562
  endloop
endfacet
facet normal -0.9999999919991853 2.0210473911629027e-05 -0.00012487259900458564
  outer loop
    vertex -6.803714835893202 27.77118817175753 4.502756590448541
    vertex -6.803591725614636 28.892114584396165 3.302694503492274
    vertex -6.803564991048956 27.77106871317149 3.3027554808835204
  endloop
endfacet
facet normal -0.9999999919991853 2.0210473911629027e-05 -0.00012487259900458564
  outer loop
    vertex -6.803591725614636 28.892114584396165 3.302694503492274
    vertex -6.803714835893202 27.77118817175753 4.502756590448541
    vertex -6.803741570458881 28.89223404298221 4.502695613057296
  endloop
endfacet
facet normal 8.255407531263148e-05 -7.058626241674071e-05 0.9999999941012021
  outer loop
    vertex -8.798255707019827 20.219931185249596 3.3013922943089944
    vertex -8.30357185207064 23.27382965102226 3.3024101678210784
    vertex -8.803571805796222 23.273839788075843 3.302195291915245
  endloop
endfacet
facet normal 8.255407531263148e-05 -7.058626241674071e-05 0.9999999941012021
  outer loop
    vertex -8.30357185207064 23.27382965102226 3.3024101678210784
    vertex -8.798255707019827 20.219931185249596 3.3013922943089944
    vertex -8.298255731108073 20.21992106287615 3.3015471677505777
  endloop
endfacet
facet normal 8.255407531263148e-05 -7.058626241674071e-05 0.9999999941012021
  outer loop
    vertex -8.79559689528429 12.968752338623585 3.3006447627957254
    vertex -8.298255094286683 16.022651640931297 3.301708498477022
    vertex -8.798255048012267 16.022661777984876 3.301493622571189
  endloop
endfacet
facet normal 8.255407531263148e-05 -7.058626241674071e-05 0.9999999941012021
  outer loop
    vertex -8.298255094286683 16.022651640931297 3.301708498477022
    vertex -8.79559689528429 12.968752338623585 3.3006447627957254
    vertex -8.295596919372535 12.968742216250137 3.3007996362373087
  endloop
endfacet
facet normal 8.255407531263148e-05 -7.058626241674071e-05 0.9999999941012021
  outer loop
    vertex -8.295596919372317 5.718742030783275 3.300592816366492
    vertex -8.795596236276728 8.771482931358864 3.30074609105792
    vertex -8.79559689528407 5.718752153156722 3.300437942924908
  endloop
endfacet
facet normal 8.255407531263148e-05 -7.058626241674071e-05 0.9999999941012021
  outer loop
    vertex -8.795596236276728 8.771482931358864 3.30074609105792
    vertex -8.295596919372317 5.718742030783275 3.300592816366492
    vertex -8.295596282551145 8.771472794305282 3.300960966963753
  endloop
endfacet
facet normal 8.255407531263148e-05 -7.058626241674071e-05 0.9999999941012021
  outer loop
    vertex -8.295596282551145 8.771472794305282 3.300960966963753
    vertex -8.295596919372317 5.718742030783275 3.300592816366492
    vertex -8.295596282550926 1.52147260883842 3.3007541470929365
  endloop
endfacet
facet normal 8.255407531263148e-05 -7.058626241674071e-05 0.9999999941012021
  outer loop
    vertex -8.803572464803784 27.471109195340564 3.3020939636530504
    vertex -6.803591725614636 28.892114584396165 3.302694503492274
    vertex -8.803616360708121 28.89203550164934 3.3020663520980875
  endloop
endfacet
facet normal 8.255407531263148e-05 -7.058626241674071e-05 0.9999999941012021
  outer loop
    vertex -6.803591725614636 28.892114584396165 3.302694503492274
    vertex -8.803572464803784 27.471109195340564 3.3020939636530504
    vertex -8.30357248889203 27.471099072967114 3.3022488370946346
  endloop
endfacet
facet normal 8.255407531263148e-05 -7.058626241674071e-05 0.9999999941012021
  outer loop
    vertex -6.803591725614636 28.892114584396165 3.302694503492274
    vertex -8.30357248889203 27.471099072967114 3.3022488370946346
    vertex -8.30357185207064 23.27382965102226 3.3024101678210784
  endloop
endfacet
facet normal 8.255407531263148e-05 -7.058626241674071e-05 0.9999999941012021
  outer loop
    vertex -6.803591725614636 28.892114584396165 3.302694503492274
    vertex -8.30357185207064 23.27382965102226 3.3024101678210784
    vertex -8.298255731108073 20.21992106287615 3.3015471677505777
  endloop
endfacet
facet normal 8.255407531263148e-05 -7.058626241674071e-05 0.9999999941012021
  outer loop
    vertex -6.803591725614636 28.892114584396165 3.302694503492274
    vertex -8.298255731108073 20.21992106287615 3.3015471677505777
    vertex -8.298255094286683 16.022651640931297 3.301708498477022
  endloop
endfacet
facet normal 8.255407531263148e-05 -7.058626241674071e-05 0.9999999941012021
  outer loop
    vertex -6.803591725614636 28.892114584396165 3.302694503492274
    vertex -8.298255094286683 16.022651640931297 3.301708498477022
    vertex -8.295596919372535 12.968742216250137 3.3007996362373087
  endloop
endfacet
facet normal 8.255407531263148e-05 -7.058626241674071e-05 0.9999999941012021
  outer loop
    vertex -6.803591725614636 28.892114584396165 3.302694503492274
    vertex -8.295596919372535 12.968742216250137 3.3007996362373087
    vertex -8.295596282551145 8.771472794305282 3.300960966963753
  endloop
endfacet
facet normal 8.255407531263148e-05 -7.058626241674071e-05 0.9999999941012021
  outer loop
    vertex -6.803591725614636 28.892114584396165 3.302694503492274
    vertex -8.295596282551145 8.771472794305282 3.300960966963753
    vertex -8.295596282550926 1.52147260883842 3.3007541470929365
  endloop
endfacet
facet normal 8.255407531263148e-05 -7.058626241674071e-05 0.9999999941012021
  outer loop
    vertex -8.795382395610325 0.09715588216459525 3.3003893915355853
    vertex -8.295596282550926 1.52147260883842 3.3007541470929365
    vertex -8.79559623627651 1.5214827458920022 3.3005392711871027
  endloop
endfacet
facet normal 8.255407531263148e-05 -7.058626241674071e-05 0.9999999941012021
  outer loop
    vertex -8.295596282550926 1.52147260883842 3.3007541470929365
    vertex -8.795382395610325 0.09715588216459525 3.3003893915355853
    vertex -6.795463627241785 0.09751778874624821 3.301231959776254
  endloop
endfacet
facet normal 8.255407531263148e-05 -7.058626241674071e-05 0.9999999941012021
  outer loop
    vertex -8.295596282550926 1.52147260883842 3.3007541470929365
    vertex -6.795463627241785 0.09751778874624821 3.301231959776254
    vertex -6.803578211550449 22.973799302814268 3.303016648108507
  endloop
endfacet
facet normal 8.255407531263148e-05 -7.058626241674071e-05 0.9999999941012021
  outer loop
    vertex -8.295596282550926 1.52147260883842 3.3007541470929365
    vertex -6.803578211550449 22.973799302814268 3.303016648108507
    vertex -6.803591725614636 28.892114584396165 3.302694503492274
  endloop
endfacet
facet normal 8.255407531263148e-05 -7.058626241674071e-05 0.9999999941012021
  outer loop
    vertex -6.803578211550449 22.973799302814268 3.303016648108507
    vertex -6.795463627241785 0.09751778874624821 3.301231959776254
    vertex -6.798261453766491 15.722621292723302 3.3023149787644503
  endloop
endfacet
facet normal 8.255407531263148e-05 -7.058626241674071e-05 0.9999999941012021
  outer loop
    vertex -6.798261453766491 15.722621292723302 3.3023149787644503
    vertex -6.795463627241785 0.09751778874624821 3.301231959776254
    vertex -6.795602642030735 1.2214422606304247 3.301360627380365
  endloop
endfacet
facet normal 8.255407531263148e-05 -7.058626241674071e-05 0.9999999941012021
  outer loop
    vertex -6.798261453766491 15.722621292723302 3.3023149787644503
    vertex -6.795602642030735 1.2214422606304247 3.301360627380365
    vertex -6.795602642030953 8.471442446097287 3.3015674472511813
  endloop
endfacet
facet normal 8.255407531263148e-05 -7.058626241674071e-05 0.9999999941012021
  outer loop
    vertex -6.803578211550449 22.973799302814268 3.303016648108507
    vertex -6.803564991048956 27.77106871317149 3.3027554808835204
    vertex -6.803591725614636 28.892114584396165 3.302694503492274
  endloop
endfacet
facet normal 8.255407531263148e-05 -7.058626241674071e-05 0.9999999941012021
  outer loop
    vertex -6.803564991048956 27.77106871317149 3.3027554808835204
    vertex -6.803578211550449 22.973799302814268 3.303016648108507
    vertex -5.0031280179374775 24.373136661776442 3.3018284616280265
  endloop
endfacet
facet normal 8.255407531263148e-05 -7.058626241674071e-05 0.9999999941012021
  outer loop
    vertex -5.0031280179374775 24.373136661776442 3.3018284616280265
    vertex -6.803578211550449 22.973799302814268 3.303016648108507
    vertex -0.0031563251820157603 22.973706299815554 3.3011592978069775
  endloop
endfacet
facet normal 8.255407531263148e-05 -7.058626241674071e-05 0.9999999941012021
  outer loop
    vertex -5.0031280179374775 24.373136661776442 3.3018284616280265
    vertex -0.0031563251820157603 22.973706299815554 3.3011592978069775
    vertex -0.0031280189605766484 24.373035513430636 3.3018284115435987
  endloop
endfacet
facet normal 8.255407531263148e-05 -7.058626241674071e-05 0.9999999941012021
  outer loop
    vertex -6.798261453766491 15.722621292723302 3.3023149787644503
    vertex -6.798248233265 20.519890703080524 3.302053811539464
    vertex -6.803578211550449 22.973799302814268 3.303016648108507
  endloop
endfacet
facet normal 8.255407531263148e-05 -7.058626241674071e-05 0.9999999941012021
  outer loop
    vertex -6.798248233265 20.519890703080524 3.302053811539464
    vertex -6.798261453766491 15.722621292723302 3.3023149787644503
    vertex -4.997811260153521 17.12195865168548 3.3011267922839695
  endloop
endfacet
facet normal 8.255407531263148e-05 -7.058626241674071e-05 0.9999999941012021
  outer loop
    vertex -4.997811260153521 17.12195865168548 3.3011267922839695
    vertex -6.798261453766491 15.722621292723302 3.3023149787644503
    vertex 0.0021604326019406647 15.722528289724588 3.3004576284629206
  endloop
endfacet
facet normal 8.255407531263148e-05 -7.058626241674071e-05 0.9999999941012021
  outer loop
    vertex -4.997811260153521 17.12195865168548 3.3011267922839695
    vertex 0.0021604326019406647 15.722528289724588 3.3004576284629206
    vertex 0.0021887388233797767 17.12185750333967 3.301126742199542
  endloop
endfacet
facet normal 8.255407531263148e-05 -7.058626241674071e-05 0.9999999941012021
  outer loop
    vertex -6.795602642030953 8.471442446097287 3.3015674472511813
    vertex -6.795589421529462 13.268711856454509 3.301306280026195
    vertex -6.798261453766491 15.722621292723302 3.3023149787644503
  endloop
endfacet
facet normal 8.255407531263148e-05 -7.058626241674071e-05 0.9999999941012021
  outer loop
    vertex -6.795589421529462 13.268711856454509 3.301306280026195
    vertex -6.795602642030953 8.471442446097287 3.3015674472511813
    vertex -4.995152448417984 9.870779805059462 3.3003792607707005
  endloop
endfacet
facet normal 8.255407531263148e-05 -7.058626241674071e-05 0.9999999941012021
  outer loop
    vertex -4.995152448417984 9.870779805059462 3.3003792607707005
    vertex -6.795602642030953 8.471442446097287 3.3015674472511813
    vertex 0.0048192443374785905 8.471349443098575 3.2997100969496516
  endloop
endfacet
facet normal 8.255407531263148e-05 -7.058626241674071e-05 0.9999999941012021
  outer loop
    vertex -4.995152448417984 9.870779805059462 3.3003792607707005
    vertex 0.0048192443374785905 8.471349443098575 3.2997100969496516
    vertex 0.004847550558917703 9.870678656713656 3.300379210686273
  endloop
endfacet
facet normal 8.255407531263148e-05 -7.058626241674071e-05 0.9999999941012021
  outer loop
    vertex -6.795602642030735 1.2214422606304247 3.301360627380365
    vertex -6.795589421529243 6.0187116709876465 3.3010994601553785
    vertex -6.795602642030953 8.471442446097287 3.3015674472511813
  endloop
endfacet
facet normal 8.255407531263148e-05 -7.058626241674071e-05 0.9999999941012021
  outer loop
    vertex -6.795589421529243 6.0187116709876465 3.3010994601553785
    vertex -6.795602642030735 1.2214422606304247 3.301360627380365
    vertex -4.995152448417765 2.6207796195926 3.300172440899884
  endloop
endfacet
facet normal 8.255407531263148e-05 -7.058626241674071e-05 0.9999999941012021
  outer loop
    vertex -4.995152448417765 2.6207796195926 3.300172440899884
    vertex -6.795602642030735 1.2214422606304247 3.301360627380365
    vertex 0.004819244337697122 1.2213492576317124 3.299503277078835
  endloop
endfacet
facet normal 8.255407531263148e-05 -7.058626241674071e-05 0.9999999941012021
  outer loop
    vertex -4.995152448417765 2.6207796195926 3.300172440899884
    vertex 0.004819244337697122 1.2213492576317124 3.299503277078835
    vertex 0.004847550559136234 2.6206784712467948 3.3001723908154563
  endloop
endfacet
facet normal 8.255407531263148e-05 -7.058626241674071e-05 0.9999999941012021
  outer loop
    vertex -6.795589421529243 6.0187116709876465 3.3010994601553785
    vertex -4.995111988047139 4.620779615589578 3.300292336914187
    vertex 0.004594574696817576 6.018666902846193 3.3002238458149367
  endloop
endfacet
facet normal 8.255407531263148e-05 -7.058626241674071e-05 0.9999999941012021
  outer loop
    vertex -4.995111988047139 4.620779615589578 3.300292336914187
    vertex -6.795589421529243 6.0187116709876465 3.3010994601553785
    vertex -4.995152448417765 2.6207796195926 3.300172440899884
  endloop
endfacet
facet normal 8.255407531263148e-05 -7.058626241674071e-05 0.9999999941012021
  outer loop
    vertex 0.004594574696817576 6.018666902846193 3.3002238458149367
    vertex -4.995111988047139 4.620779615589578 3.300292336914187
    vertex 0.004888010929762959 4.620678467243773 3.3002922868297584
  endloop
endfacet
facet normal 8.255407531263148e-05 -7.058626241674071e-05 0.9999999941012021
  outer loop
    vertex 0.004594574696817576 6.018666902846193 3.3002238458149367
    vertex 0.004888010929762959 4.620678467243773 3.3002922868297584
    vertex 0.004763675403161294 5.399032458117936 3.3002348614105013
  endloop
endfacet
facet normal 8.255407531263148e-05 -7.058626241674071e-05 0.9999999941012021
  outer loop
    vertex -6.795589421529462 13.268711856454509 3.301306280026195
    vertex -4.995111988047357 11.870779801056441 3.300499156785004
    vertex 0.004594574696599044 13.268667088313055 3.300430665685753
  endloop
endfacet
facet normal 8.255407531263148e-05 -7.058626241674071e-05 0.9999999941012021
  outer loop
    vertex -4.995111988047357 11.870779801056441 3.300499156785004
    vertex -6.795589421529462 13.268711856454509 3.301306280026195
    vertex -4.995152448417984 9.870779805059462 3.3003792607707005
  endloop
endfacet
facet normal 8.255407531263148e-05 -7.058626241674071e-05 0.9999999941012021
  outer loop
    vertex 0.004594574696599044 13.268667088313055 3.300430665685753
    vertex -4.995111988047357 11.870779801056441 3.300499156785004
    vertex 0.0048880109295444275 11.870678652710634 3.300499106700576
  endloop
endfacet
facet normal 8.255407531263148e-05 -7.058626241674071e-05 0.9999999941012021
  outer loop
    vertex 0.004594574696599044 13.268667088313055 3.300430665685753
    vertex 0.0048880109295444275 11.870678652710634 3.300499106700576
    vertex 0.004763675402942763 12.649032643584796 3.3004416812813187
  endloop
endfacet
facet normal 8.255407531263148e-05 -7.058626241674071e-05 0.9999999941012021
  outer loop
    vertex -6.798248233265 20.519890703080524 3.302053811539464
    vertex -4.997770799782895 19.121958647682455 3.301246688298273
    vertex 0.0019357629610611187 20.519845934939067 3.301178197199022
  endloop
endfacet
facet normal 8.255407531263148e-05 -7.058626241674071e-05 0.9999999941012021
  outer loop
    vertex -4.997770799782895 19.121958647682455 3.301246688298273
    vertex -6.798248233265 20.519890703080524 3.302053811539464
    vertex -4.997811260153521 17.12195865168548 3.3011267922839695
  endloop
endfacet
facet normal 8.255407531263148e-05 -7.058626241674071e-05 0.9999999941012021
  outer loop
    vertex 0.0019357629610611187 20.519845934939067 3.301178197199022
    vertex -4.997770799782895 19.121958647682455 3.301246688298273
    vertex 0.0022291991940065013 19.12185749933665 3.3012466382138443
  endloop
endfacet
facet normal 8.255407531263148e-05 -7.058626241674071e-05 0.9999999941012021
  outer loop
    vertex 0.0019357629610611187 20.519845934939067 3.301178197199022
    vertex 0.0022291991940065013 19.12185749933665 3.3012466382138443
    vertex 0.0021048636674048365 19.90021149021081 3.301189212794587
  endloop
endfacet
facet normal 8.255407531263148e-05 -7.058626241674071e-05 0.9999999941012021
  outer loop
    vertex -6.803564991048956 27.77106871317149 3.3027554808835204
    vertex -5.003087557566851 26.373136657773415 3.301948357642329
    vertex -0.0033809948228953066 27.771023945030034 3.301879866543079
  endloop
endfacet
facet normal 8.255407531263148e-05 -7.058626241674071e-05 0.9999999941012021
  outer loop
    vertex -5.003087557566851 26.373136657773415 3.301948357642329
    vertex -6.803564991048956 27.77106871317149 3.3027554808835204
    vertex -5.0031280179374775 24.373136661776442 3.3018284616280265
  endloop
endfacet
facet normal 8.255407531263148e-05 -7.058626241674071e-05 0.9999999941012021
  outer loop
    vertex -0.0033809948228953066 27.771023945030034 3.301879866543079
    vertex -5.003087557566851 26.373136657773415 3.301948357642329
    vertex -0.0030875585899499233 26.373035509427616 3.301948307557901
  endloop
endfacet
facet normal 8.255407531263148e-05 -7.058626241674071e-05 0.9999999941012021
  outer loop
    vertex -0.0033809948228953066 27.771023945030034 3.301879866543079
    vertex -0.0030875585899499233 26.373035509427616 3.301948307557901
    vertex -0.0032118941165515886 27.15138950030178 3.3018908821386437
  endloop
endfacet
facet normal -0.9999999999940613 2.7629455644151897e-06 -2.0600158112173877e-06
  outer loop
    vertex -8.30357185207064 23.27382965102226 3.3024101678210784
    vertex -8.303566309059756 27.471021201266616 0.30224883811166586
    vertex -8.303565672238364 23.27375177932176 0.30241016883810823
  endloop
endfacet
facet normal -0.9999999999940613 2.7629455644151897e-06 -2.0600158112173877e-06
  outer loop
    vertex -8.303566309059756 27.471021201266616 0.30224883811166586
    vertex -8.30357185207064 23.27382965102226 3.3024101678210784
    vertex -8.30357248889203 27.471099072967114 3.3022488370946346
  endloop
endfacet
facet normal -4.1404572575854296e-05 -0.9999999983911539 -3.877310426635462e-05
  outer loop
    vertex -0.0030875666330997037 26.372885496755508 2.8019482868680985
    vertex -5.003087557566851 26.373136657773415 3.301948357642329
    vertex -5.003087575175166 26.373256553788103 1.3019483612360923
  endloop
endfacet
facet normal -4.1404572575854296e-05 -0.9999999983911539 -3.877310426635462e-05
  outer loop
    vertex -5.003087557566851 26.373136657773415 3.301948357642329
    vertex -0.0030875666330997037 26.372885496755508 2.8019482868680985
    vertex -0.0030875585899499233 26.373035509427616 3.301948307557901
  endloop
endfacet
facet normal 0.9999999997953699 -2.0230184748983897e-05 -1.0016916457059709e-08
  outer loop
    vertex -5.003128035545792 24.373256557791127 1.3018284652217884
    vertex -5.003087557566851 26.373136657773415 3.301948357642329
    vertex -5.0031280179374775 24.373136661776442 3.3018284616280265
  endloop
endfacet
facet normal 0.9999999997953699 -2.0230184748983897e-05 -1.0016916457059709e-08
  outer loop
    vertex -5.003087557566851 26.373136657773415 3.301948357642329
    vertex -5.003128035545792 24.373256557791127 1.3018284652217884
    vertex -5.003087575175166 26.373256553788103 1.3019483612360923
  endloop
endfacet
facet normal -2.0599440921080855e-06 2.5957233501885723e-05 0.9999999996609895
  outer loop
    vertex -20.00084345083347 23.27403276072007 0.30235878823398477
    vertex -8.303566309059756 27.471021201266616 0.30224883811166586
    vertex -20.001403732120952 27.471350599748305 0.3022520089376568
  endloop
endfacet
facet normal -2.0599440921080855e-06 2.5957233501885723e-05 0.9999999996609895
  outer loop
    vertex -8.303566309059756 27.471021201266616 0.30224883811166586
    vertex -20.00084345083347 23.27403276072007 0.30235878823398477
    vertex -8.303565672238364 23.27375177932176 0.30241016883810823
  endloop
endfacet
facet normal -1.3410418395416442e-05 -0.9999999999091549 1.3605001175024346e-06
  outer loop
    vertex -0.0032866930667386947 27.771050549282478 4.501879854851562
    vertex -6.803564991048956 27.77106871317149 3.3027554808835204
    vertex -0.0033809948228953066 27.771023945030034 3.301879866543079
  endloop
endfacet
facet normal -1.3410418395416442e-05 -0.9999999999091549 1.3605001175024346e-06
  outer loop
    vertex -6.803564991048956 27.77106871317149 3.3027554808835204
    vertex -0.0032866930667386947 27.771050549282478 4.501879854851562
    vertex -6.803714835893202 27.77118817175753 4.502756590448541
  endloop
endfacet
facet normal 2.2115414044563593e-05 0.9999999992068143 3.3125221351697834e-05
  outer loop
    vertex -20.00081706736396 23.273994829927652 4.502358780233017
    vertex -8.303565672238364 23.27375177932176 0.30241016883810823
    vertex -20.00084345083347 23.27403276072007 0.30235878823398477
  endloop
endfacet
facet normal 2.2115414044563593e-05 0.9999999992068143 3.3125221351697834e-05
  outer loop
    vertex -8.303565672238364 23.27375177932176 0.30241016883810823
    vertex -20.00081706736396 23.273994829927652 4.502358780233017
    vertex -8.803571805796222 23.273839788075843 3.302195291915245
  endloop
endfacet
facet normal 2.2115414044563593e-05 0.9999999992068143 3.3125221351697834e-05
  outer loop
    vertex -8.803571805796222 23.273839788075843 3.302195291915245
    vertex -20.00081706736396 23.273994829927652 4.502358780233017
    vertex -8.803867270522307 23.27376858202762 4.501909842717048
  endloop
endfacet
facet normal 2.2115414044563593e-05 0.9999999992068143 3.3125221351697834e-05
  outer loop
    vertex -8.30357185207064 23.27382965102226 3.3024101678210784
    vertex -8.303565672238364 23.27375177932176 0.30241016883810823
    vertex -8.803571805796222 23.273839788075843 3.302195291915245
  endloop
endfacet
facet normal 4.1404572575854316e-05 0.9999999983911539 3.87731042663547e-05
  outer loop
    vertex -5.0031280179374775 24.373136661776442 3.3018284616280265
    vertex -0.0031280270037264283 24.372885500758528 2.801828390853796
    vertex -5.003128035545792 24.373256557791127 1.3018284652217884
  endloop
endfacet
facet normal 4.1404572575854316e-05 0.9999999983911539 3.87731042663547e-05
  outer loop
    vertex -0.0031280270037264283 24.372885500758528 2.801828390853796
    vertex -5.0031280179374775 24.373136661776442 3.3018284616280265
    vertex -0.0031280189605766484 24.373035513430636 3.3018284115435987
  endloop
endfacet
facet normal -0.9999996230810451 -0.0008440211711781843 0.00020363209571442638
  outer loop
    vertex -20.00081706736396 23.273994829927652 4.502358780233017
    vertex -19.99572865430643 22.468096290425798 0.00203726585859891
    vertex -19.99626256237548 22.468063224661776 4.501655737346087
  endloop
endfacet
facet normal -0.9999996230810451 -0.0008440211711781843 0.00020363209571442638
  outer loop
    vertex -19.99572865430643 22.468096290425798 0.00203726585859891
    vertex -20.00081706736396 23.273994829927652 4.502358780233017
    vertex -20.00084345083347 23.27403276072007 0.30235878823398477
  endloop
endfacet
facet normal -0.9999996230810451 -0.0008440211711781843 0.00020363209571442638
  outer loop
    vertex -19.99572865430643 22.468096290425798 0.00203726585859891
    vertex -20.00084345083347 23.27403276072007 0.30235878823398477
    vertex -20.000062938889183 24.542467770233177 0.0022172284616780316
  endloop
endfacet
facet normal -0.9999996230810451 -0.0008440211711781843 0.00020363209571442638
  outer loop
    vertex -20.000062938889183 24.542467770233177 0.0022172284616780316
    vertex -20.00084345083347 23.27403276072007 0.30235878823398477
    vertex -20.001403732120952 27.471350599748305 0.3022520089376568
  endloop
endfacet
facet normal -0.9999996230810451 -0.0008440211711781843 0.00020363209571442638
  outer loop
    vertex -20.000062938889183 24.542467770233177 0.0022172284616780316
    vertex -20.001403732120952 27.471350599748305 0.3022520089376568
    vertex -20.00565228724465 28.89159684724953 0.0017587493130345865
  endloop
endfacet
facet normal -0.9999996230810451 -0.0008440211711781843 0.00020363209571442638
  outer loop
    vertex -20.00565228724465 28.89159684724953 0.0017587493130345865
    vertex -20.001403732120952 27.471350599748305 0.3022520089376568
    vertex -20.001383259777725 27.471404527732044 4.502252005446303
  endloop
endfacet
facet normal -0.9999996230810451 -0.0008440211711781843 0.00020363209571442638
  outer loop
    vertex -20.00565228724465 28.89159684724953 0.0017587493130345865
    vertex -20.001383259777725 27.471404527732044 4.502252005446303
    vertex -20.001500571498745 28.891398441857945 4.502206647848482
  endloop
endfacet
facet normal 0.00016469065294970103 -0.00010668440171772577 0.9999999807477135
  outer loop
    vertex -6.798398078109246 20.520010161666562 4.502054921104485
    vertex -0.003015687329714431 22.973689509646643 4.501159282133963
    vertex -6.8037656017260195 22.97382710909006 4.502731190221231
  endloop
endfacet
facet normal 0.00016469065294970103 -0.00010668440171772577 0.9999999807477135
  outer loop
    vertex -0.003015687329714431 22.973689509646643 4.501159282133963
    vertex -6.798398078109246 20.520010161666562 4.502054921104485
    vertex 0.0020300647172177303 20.51987253919151 4.501178185507506
  endloop
endfacet
facet normal 2.218868478693065e-05 -0.00018104924371645885 0.9999999833644169
  outer loop
    vertex -19.99626256237548 22.468063224661776 4.501655737346087
    vertex -8.803867270522307 23.27376858202762 4.501909842717048
    vertex -20.00081706736396 23.273994829927652 4.502358780233017
  endloop
endfacet
facet normal 2.218868478693065e-05 -0.00018104924371645885 0.9999999833644169
  outer loop
    vertex -8.803867270522307 23.27376858202762 4.501909842717048
    vertex -19.99626256237548 22.468063224661776 4.501655737346087
    vertex -19.99606650199377 20.220226517641077 4.501550336102247
  endloop
endfacet
facet normal 2.218868478693065e-05 -0.00018104924371645885 0.9999999833644169
  outer loop
    vertex -8.803867270522307 23.27376858202762 4.501909842717048
    vertex -19.99606650199377 20.220226517641077 4.501550336102247
    vertex -8.798473201444724 20.220000095866432 4.501393413091212
  endloop
endfacet
facet normal -0.28734787517689053 -5.1606676438936616e-05 0.9578262869477311
  outer loop
    vertex -0.0031280270037264283 24.372885500758528 2.801828390853796
    vertex -5.003087575175166 26.373256553788103 1.3019483612360923
    vertex -5.003128035545792 24.373256557791127 1.3018284652217884
  endloop
endfacet
facet normal -0.28734787517689053 -5.1606676438936616e-05 0.9578262869477311
  outer loop
    vertex -5.003087575175166 26.373256553788103 1.3019483612360923
    vertex -0.0031280270037264283 24.372885500758528 2.801828390853796
    vertex -0.0030875666330997037 26.372885496755508 2.8019482868680985
  endloop
endfacet
facet normal -2.419034719791594e-05 -0.9999999997064902 1.3590424808867577e-06
  outer loop
    vertex -8.295596919372317 5.718742030783275 3.300592816366492
    vertex -19.99342816260124 5.718993557564466 0.30059598820951466
    vertex -8.295590739540042 5.718664159082772 0.3005928173835237
  endloop
endfacet
facet normal -2.419034719791594e-05 -0.9999999997064902 1.3590424808867577e-06
  outer loop
    vertex -19.99342816260124 5.718993557564466 0.30059598820951466
    vertex -8.295596919372317 5.718742030783275 3.300592816366492
    vertex -8.79559689528407 5.718752153156722 3.300437942924908
  endloop
endfacet
facet normal -2.419034719791594e-05 -0.9999999997064902 1.3590424808867577e-06
  outer loop
    vertex -8.79559689528407 5.718752153156722 3.300437942924908
    vertex -19.993407690258014 5.719047485548204 4.500595984718162
    vertex -19.99342816260124 5.718993557564466 0.30059598820951466
  endloop
endfacet
facet normal -2.419034719791594e-05 -0.9999999997064902 1.3590424808867577e-06
  outer loop
    vertex -19.993407690258014 5.719047485548204 4.500595984718162
    vertex -8.79559689528407 5.718752153156722 3.300437942924908
    vertex -8.795814389708967 5.7188210637735555 4.500439061707127
  endloop
endfacet
facet normal -4.1404572575854296e-05 -0.9999999983911539 -3.877310426635454e-05
  outer loop
    vertex 0.004888002886613179 4.620528454571666 2.8002922661399565
    vertex -4.995111988047139 4.620779615589578 3.300292336914187
    vertex -4.995112005655453 4.620899511604265 1.30029234050795
  endloop
endfacet
facet normal -4.1404572575854296e-05 -0.9999999983911539 -3.877310426635454e-05
  outer loop
    vertex -4.995111988047139 4.620779615589578 3.300292336914187
    vertex 0.004888002886613179 4.620528454571666 2.8002922661399565
    vertex 0.004888010929762959 4.620678467243773 3.3002922868297584
  endloop
endfacet
facet normal 0.00019556526568378666 6.85145903240405e-05 0.9999999785299887
  outer loop
    vertex -6.795739266373488 6.018831129573687 4.501100569720399
    vertex 0.00495988218977992 8.471332652929663 4.499710081276636
    vertex -6.795790032206525 8.47147025237308 4.501281989363904
  endloop
endfacet
facet normal 0.00019556526568378666 6.85145903240405e-05 0.9999999785299887
  outer loop
    vertex 0.00495988218977992 8.471332652929663 4.499710081276636
    vertex -6.795739266373488 6.018831129573687 4.501100569720399
    vertex 0.0046888764529741875 6.018693507098638 4.50022383412342
  endloop
endfacet
facet normal 1.6963031732177826e-05 0.999999999307521 3.3124217109810026e-05
  outer loop
    vertex -6.795602642030735 1.2214422606304247 3.301360627380365
    vertex 0.0049598821899984515 1.2213324674628006 4.49950326140582
    vertex 0.004819244337697122 1.2213492576317124 3.299503277078835
  endloop
endfacet
facet normal 1.6963031732177826e-05 0.999999999307521 3.3124217109810026e-05
  outer loop
    vertex 0.0049598821899984515 1.2213324674628006 4.49950326140582
    vertex -6.795602642030735 1.2214422606304247 3.301360627380365
    vertex -6.795790032206306 1.2214700669062175 4.501075169493088
  endloop
endfacet
facet normal 2.2115414044563593e-05 0.9999999992068143 3.312522135169775e-05
  outer loop
    vertex -19.99284149784425 1.5216377877438119 4.500702759504875
    vertex -8.29559010271865 1.5213947371379168 0.3007541481099661
    vertex -19.99286788131376 1.521675718536229 0.3007027675058426
  endloop
endfacet
facet normal 2.2115414044563593e-05 0.9999999992068143 3.312522135169775e-05
  outer loop
    vertex -8.29559010271865 1.5213947371379168 0.3007541481099661
    vertex -19.99284149784425 1.5216377877438119 4.500702759504875
    vertex -8.79559623627651 1.5214827458920022 3.3005392711871027
  endloop
endfacet
facet normal 2.2115414044563593e-05 0.9999999992068143 3.312522135169775e-05
  outer loop
    vertex -8.79559623627651 1.5214827458920022 3.3005392711871027
    vertex -19.99284149784425 1.5216377877438119 4.500702759504875
    vertex -8.795891701002594 1.5214115398437806 4.500253821988905
  endloop
endfacet
facet normal 2.2115414044563593e-05 0.9999999992068143 3.312522135169775e-05
  outer loop
    vertex -8.295596282550926 1.52147260883842 3.3007541470929365
    vertex -8.29559010271865 1.5213947371379168 0.3007541481099661
    vertex -8.79559623627651 1.5214827458920022 3.3005392711871027
  endloop
endfacet
facet normal 0.9999999747524335 7.278568170438073e-06 0.00022459331001249504
  outer loop
    vertex -8.795596236276728 8.771482931358864 3.30074609105792
    vertex -8.795814389708967 5.7188210637735555 4.500439061707127
    vertex -8.79559689528407 5.718752153156722 3.300437942924908
  endloop
endfacet
facet normal 0.9999999747524335 7.278568170438073e-06 0.00022459331001249504
  outer loop
    vertex -8.795814389708967 5.7188210637735555 4.500439061707127
    vertex -8.795596236276728 8.771482931358864 3.30074609105792
    vertex -8.795891701002812 8.771411725310644 4.500460641859722
  endloop
endfacet
facet normal -2.0599440921080855e-06 2.5957233501885805e-05 0.9999999996609895
  outer loop
    vertex -19.99286788131376 1.521675718536229 0.3007027675058426
    vertex -8.295590739540042 5.718664159082772 0.3005928173835237
    vertex -19.99342816260124 5.718993557564466 0.30059598820951466
  endloop
endfacet
facet normal -2.0599440921080855e-06 2.5957233501885805e-05 0.9999999996609895
  outer loop
    vertex -8.295590739540042 5.718664159082772 0.3005928173835237
    vertex -19.99286788131376 1.521675718536229 0.3007027675058426
    vertex -8.29559010271865 1.5213947371379168 0.3007541481099661
  endloop
endfacet
facet normal -0.9999999999940613 2.7629455644151897e-06 -2.0600158112173877e-06
  outer loop
    vertex -8.295596282550926 1.52147260883842 3.3007541470929365
    vertex -8.295590739540042 5.718664159082772 0.3005928173835237
    vertex -8.29559010271865 1.5213947371379168 0.3007541481099661
  endloop
endfacet
facet normal -0.9999999999940613 2.7629455644151897e-06 -2.0600158112173877e-06
  outer loop
    vertex -8.295590739540042 5.718664159082772 0.3005928173835237
    vertex -8.295596282550926 1.52147260883842 3.3007541470929365
    vertex -8.295596919372317 5.718742030783275 3.300592816366492
  endloop
endfacet
facet normal 2.8072865166917994e-05 -5.3017336139890395e-05 0.9999999982005383
  outer loop
    vertex -8.795814389708967 5.7188210637735555 4.500439061707127
    vertex -19.992709084333896 7.966273101989937 4.500789932191129
    vertex -19.993407690258014 5.719047485548204 4.500595984718162
  endloop
endfacet
facet normal 2.8072865166917994e-05 -5.3017336139890395e-05 0.9999999982005383
  outer loop
    vertex -19.992709084333896 7.966273101989937 4.500789932191129
    vertex -8.795814389708967 5.7188210637735555 4.500439061707127
    vertex -8.795891701002812 8.771411725310644 4.500460641859722
  endloop
endfacet
facet normal 2.8072865166917994e-05 -5.3017336139890395e-05 0.9999999982005383
  outer loop
    vertex -8.795891701002812 8.771411725310644 4.500460641859722
    vertex -19.992841497844466 8.771637973210675 4.5009095793756915
    vertex -19.992709084333896 7.966273101989937 4.500789932191129
  endloop
endfacet
facet normal 3.510681556156717e-05 -7.936904683210049e-05 0.999999996234033
  outer loop
    vertex -19.99255992680377 0.09417295233212772 4.5004409674698564
    vertex -8.795891701002594 1.5214115398437806 4.500253821988905
    vertex -19.99284149784425 1.5216377877438119 4.500702759504875
  endloop
endfacet
facet normal 3.510681556156717e-05 -7.936904683210049e-05 0.999999996234033
  outer loop
    vertex -8.795891701002594 1.5214115398437806 4.500253821988905
    vertex -19.99255992680377 0.09417295233212772 4.5004409674698564
    vertex -8.79567786033641 0.09708467611637918 4.500103942337387
  endloop
endfacet
facet normal -0.9999999875972165 2.0207533882548645e-05 -0.00015619610212711822
  outer loop
    vertex -6.795651017417355 0.09754559502203539 4.500946501888977
    vertex -6.795602642030735 1.2214422606304247 3.301360627380365
    vertex -6.795463627241785 0.09751778874624821 3.301231959776254
  endloop
endfacet
facet normal -0.9999999875972165 2.0207533882548645e-05 -0.00015619610212711822
  outer loop
    vertex -6.795602642030735 1.2214422606304247 3.301360627380365
    vertex -6.795651017417355 0.09754559502203539 4.500946501888977
    vertex -6.795790032206306 1.2214700669062175 4.501075169493088
  endloop
endfacet
facet normal -1.3410418395416442e-05 -0.9999999999091549 1.3605001175025159e-06
  outer loop
    vertex 0.0046888764529741875 6.018693507098638 4.50022383412342
    vertex -6.795589421529243 6.0187116709876465 3.3010994601553785
    vertex 0.004594574696817576 6.018666902846193 3.3002238458149367
  endloop
endfacet
facet normal -1.3410418395416442e-05 -0.9999999999091549 1.3605001175025159e-06
  outer loop
    vertex -6.795589421529243 6.0187116709876465 3.3010994601553785
    vertex 0.0046888764529741875 6.018693507098638 4.50022383412342
    vertex -6.795739266373488 6.018831129573687 4.501100569720399
  endloop
endfacet
facet normal 0.9999999997953699 -2.0230184748983897e-05 -1.0016916457059709e-08
  outer loop
    vertex -4.995152466026079 2.620899515607286 1.3001724444936462
    vertex -4.995111988047139 4.620779615589578 3.300292336914187
    vertex -4.995152448417765 2.6207796195926 3.300172440899884
  endloop
endfacet
facet normal 0.9999999997953699 -2.0230184748983897e-05 -1.0016916457059709e-08
  outer loop
    vertex -4.995111988047139 4.620779615589578 3.300292336914187
    vertex -4.995152466026079 2.620899515607286 1.3001724444936462
    vertex -4.995112005655453 4.620899511604265 1.30029234050795
  endloop
endfacet
facet normal -0.9999999936055937 -7.5327421958679e-06 -0.00011283647777646715
  outer loop
    vertex -19.9921800087429 0.0919235779277974 5.1678103466064095e-05
    vertex -19.99286788131376 1.521675718536229 0.3007027675058426
    vertex -19.99204131186228 2.9767850684092654 0.0006831772533310996
  endloop
endfacet
facet normal -0.9999999936055937 -7.5327421958679e-06 -0.00011283647777646715
  outer loop
    vertex -19.99286788131376 1.521675718536229 0.3007027675058426
    vertex -19.9921800087429 0.0919235779277974 5.1678103466064095e-05
    vertex -19.99255992680377 0.09417295233212772 4.5004409674698564
  endloop
endfacet
facet normal -0.9999999936055937 -7.5327421958679e-06 -0.00011283647777646715
  outer loop
    vertex -19.99286788131376 1.521675718536229 0.3007027675058426
    vertex -19.99255992680377 0.09417295233212772 4.5004409674698564
    vertex -19.99284149784425 1.5216377877438119 4.500702759504875
  endloop
endfacet
facet normal -0.9999999936055937 -7.5327421958679e-06 -0.00011283647777646715
  outer loop
    vertex -19.99204131186228 2.9767850684092654 0.0006831772533310996
    vertex -19.99286788131376 1.521675718536229 0.3007027675058426
    vertex -19.99342816260124 5.718993557564466 0.30059598820951466
  endloop
endfacet
facet normal -0.9999999936055937 -7.5327421958679e-06 -0.00011283647777646715
  outer loop
    vertex -19.99204131186228 2.9767850684092654 0.0006831772533310996
    vertex -19.99342816260124 5.718993557564466 0.30059598820951466
    vertex -19.991613012672378 7.9670830035098055 0.001102317592062334
  endloop
endfacet
facet normal -0.9999999936055937 -7.5327421958679e-06 -0.00011283647777646715
  outer loop
    vertex -19.991613012672378 7.9670830035098055 0.001102317592062334
    vertex -19.99342816260124 5.718993557564466 0.30059598820951466
    vertex -19.993407690258014 5.719047485548204 4.500595984718162
  endloop
endfacet
facet normal -0.9999999936055937 -7.5327421958679e-06 -0.00011283647777646715
  outer loop
    vertex -19.991613012672378 7.9670830035098055 0.001102317592062334
    vertex -19.993407690258014 5.719047485548204 4.500595984718162
    vertex -19.992709084333896 7.966273101989937 4.500789932191129
  endloop
endfacet
facet normal 4.1404572575854316e-05 0.9999999983911539 3.877310426635462e-05
  outer loop
    vertex -4.995152448417765 2.6207796195926 3.300172440899884
    vertex 0.004847542515986455 2.620528458574688 2.800172370125654
    vertex -4.995152466026079 2.620899515607286 1.3001724444936462
  endloop
endfacet
facet normal 4.1404572575854316e-05 0.9999999983911539 3.877310426635462e-05
  outer loop
    vertex 0.004847542515986455 2.620528458574688 2.800172370125654
    vertex -4.995152448417765 2.6207796195926 3.300172440899884
    vertex 0.004847550559136234 2.6206784712467948 3.3001723908154563
  endloop
endfacet
facet normal 0.0003284177454739588 -0.9999999347888147 0.00015021368494828934
  outer loop
    vertex 0.0052498326063178885 0.09923254527354314 4.499405137067717
    vertex -19.9921800087429 0.0919235779277974 5.1678103466064095e-05
    vertex 0.0052498039130396525 0.10004220881761824 -0.000247359795718334
  endloop
endfacet
facet normal 0.0003284177454739588 -0.9999999347888147 0.00015021368494828934
  outer loop
    vertex -19.9921800087429 0.0919235779277974 5.1678103466064095e-05
    vertex 0.0052498326063178885 0.09923254527354314 4.499405137067717
    vertex -6.795463627241785 0.09751778874624821 3.301231959776254
  endloop
endfacet
facet normal 0.0003284177454739588 -0.9999999347888147 0.00015021368494828934
  outer loop
    vertex -19.9921800087429 0.0919235779277974 5.1678103466064095e-05
    vertex -6.795463627241785 0.09751778874624821 3.301231959776254
    vertex -8.795382395610325 0.09715588216459525 3.3003893915355853
  endloop
endfacet
facet normal 0.0003284177454739588 -0.9999999347888147 0.00015021368494828934
  outer loop
    vertex -6.795463627241785 0.09751778874624821 3.301231959776254
    vertex 0.0052498326063178885 0.09923254527354314 4.499405137067717
    vertex -6.795651017417355 0.09754559502203539 4.500946501888977
  endloop
endfacet
facet normal 0.0003284177454739588 -0.9999999347888147 0.00015021368494828934
  outer loop
    vertex -8.795382395610325 0.09715588216459525 3.3003893915355853
    vertex -19.99255992680377 0.09417295233212772 4.5004409674698564
    vertex -19.9921800087429 0.0919235779277974 5.1678103466064095e-05
  endloop
endfacet
facet normal 0.0003284177454739588 -0.9999999347888147 0.00015021368494828934
  outer loop
    vertex -19.99255992680377 0.09417295233212772 4.5004409674698564
    vertex -8.795382395610325 0.09715588216459525 3.3003893915355853
    vertex -8.79567786033641 0.09708467611637918 4.500103942337387
  endloop
endfacet
facet normal 0.0002288827770226396 5.736711692668652e-05 0.9999999721608439
  outer loop
    vertex -6.795651017417355 0.09754559502203539 4.500946501888977
    vertex 0.0049598821899984515 1.2213324674628006 4.49950326140582
    vertex -6.795790032206306 1.2214700669062175 4.501075169493088
  endloop
endfacet
facet normal 0.0002288827770226396 5.736711692668652e-05 0.9999999721608439
  outer loop
    vertex 0.0049598821899984515 1.2213324674628006 4.49950326140582
    vertex -6.795651017417355 0.09754559502203539 4.500946501888977
    vertex 0.0052498326063178885 0.09923254527354314 4.499405137067717
  endloop
endfacet
facet normal -0.28734787517689053 -5.1606676438936535e-05 0.9578262869477311
  outer loop
    vertex 0.004847542515986455 2.620528458574688 2.800172370125654
    vertex -4.995112005655453 4.620899511604265 1.30029234050795
    vertex -4.995152466026079 2.620899515607286 1.3001724444936462
  endloop
endfacet
facet normal -0.28734787517689053 -5.1606676438936535e-05 0.9578262869477311
  outer loop
    vertex -4.995112005655453 4.620899511604265 1.30029234050795
    vertex 0.004847542515986455 2.620528458574688 2.800172370125654
    vertex 0.004888002886613179 4.620528454571666 2.8002922661399565
  endloop
endfacet
facet normal -0.9999999892594352 -1.5423630079680967e-05 -0.00014575061319751904
  outer loop
    vertex -6.795739266373488 6.018831129573687 4.501100569720399
    vertex -6.795602642030953 8.471442446097287 3.3015674472511813
    vertex -6.795589421529243 6.0187116709876465 3.3010994601553785
  endloop
endfacet
facet normal -0.9999999892594352 -1.5423630079680967e-05 -0.00014575061319751904
  outer loop
    vertex -6.795602642030953 8.471442446097287 3.3015674472511813
    vertex -6.795739266373488 6.018831129573687 4.501100569720399
    vertex -6.795790032206525 8.47147025237308 4.501281989363904
  endloop
endfacet
facet normal 0.999999966421739 8.062710086201022e-05 0.0002462839657166406
  outer loop
    vertex -8.795382395610325 0.09715588216459525 3.3003893915355853
    vertex -8.795891701002594 1.5214115398437806 4.500253821988905
    vertex -8.79567786033641 0.09708467611637918 4.500103942337387
  endloop
endfacet
facet normal 0.999999966421739 8.062710086201022e-05 0.0002462839657166406
  outer loop
    vertex -8.795891701002594 1.5214115398437806 4.500253821988905
    vertex -8.795382395610325 0.09715588216459525 3.3003893915355853
    vertex -8.79559623627651 1.5214827458920022 3.3005392711871027
  endloop
endfacet
facet normal 0.9999999371820723 0.00035363205989399226 -2.4087714215056683e-05
  outer loop
    vertex 0.0052498039130396525 0.10004220881761824 -0.000247359795718334
    vertex 0.0049598821899984515 1.2213324674628006 4.49950326140582
    vertex 0.0052498326063178885 0.09923254527354314 4.499405137067717
  endloop
endfacet
facet normal 0.9999999371820723 0.00035363205989399226 -2.4087714215056683e-05
  outer loop
    vertex 0.0049598821899984515 1.2213324674628006 4.49950326140582
    vertex 0.0052498039130396525 0.10004220881761824 -0.000247359795718334
    vertex 0.004819244337697122 1.2213492576317124 3.299503277078835
  endloop
endfacet
facet normal 0.9999999371820723 0.00035363205989399226 -2.4087714215056683e-05
  outer loop
    vertex 0.004819244337697122 1.2213492576317124 3.299503277078835
    vertex 0.0052498039130396525 0.10004220881761824 -0.000247359795718334
    vertex 0.004847542515986455 2.620528458574688 2.800172370125654
  endloop
endfacet
facet normal 0.9999999371820723 0.00035363205989399226 -2.4087714215056683e-05
  outer loop
    vertex 0.004847542515986455 2.620528458574688 2.800172370125654
    vertex 0.0052498039130396525 0.10004220881761824 -0.000247359795718334
    vertex 0.0049592399953599636 10.871619877295256 0.0002590913598240948
  endloop
endfacet
facet normal 0.9999999371820723 0.00035363205989399226 -2.4087714215056683e-05
  outer loop
    vertex 0.004847542515986455 2.620528458574688 2.800172370125654
    vertex 0.0049592399953599636 10.871619877295256 0.0002590913598240948
    vertex 0.004888002886613179 4.620528454571666 2.8002922661399565
  endloop
endfacet
facet normal 0.9999999371820723 0.00035363205989399226 -2.4087714215056683e-05
  outer loop
    vertex 0.004888002886613179 4.620528454571666 2.8002922661399565
    vertex 0.0049592399953599636 10.871619877295256 0.0002590913598240948
    vertex 0.004888010929762959 4.620678467243773 3.3002922868297584
  endloop
endfacet
facet normal 0.9999999371820723 0.00035363205989399226 -2.4087714215056683e-05
  outer loop
    vertex 0.004888010929762959 4.620678467243773 3.3002922868297584
    vertex 0.0049592399953599636 10.871619877295256 0.0002590913598240948
    vertex 0.004763675403161294 5.399032458117936 3.3002348614105013
  endloop
endfacet
facet normal 0.9999999371820723 0.00035363205989399226 -2.4087714215056683e-05
  outer loop
    vertex 0.004763675403161294 5.399032458117936 3.3002348614105013
    vertex 0.0049592399953599636 10.871619877295256 0.0002590913598240948
    vertex 0.004594574696817576 6.018666902846193 3.3002238458149367
  endloop
endfacet
facet normal 0.9999999371820723 0.00035363205989399226 -2.4087714215056683e-05
  outer loop
    vertex 0.004594574696817576 6.018666902846193 3.3002238458149367
    vertex 0.0049592399953599636 10.871619877295256 0.0002590913598240948
    vertex 0.0046888764529741875 6.018693507098638 4.50022383412342
  endloop
endfacet
facet normal 0.9999999371820723 0.00035363205989399226 -2.4087714215056683e-05
  outer loop
    vertex 0.0046888764529741875 6.018693507098638 4.50022383412342
    vertex 0.0049592399953599636 10.871619877295256 0.0002590913598240948
    vertex 0.0048192443374785905 8.471349443098575 3.2997100969496516
  endloop
endfacet
facet normal 0.9999999371820723 0.00035363205989399226 -2.4087714215056683e-05
  outer loop
    vertex 0.0046888764529741875 6.018693507098638 4.50022383412342
    vertex 0.0048192443374785905 8.471349443098575 3.2997100969496516
    vertex 0.00495988218977992 8.471332652929663 4.499710081276636
  endloop
endfacet
facet normal 0.9999999371820723 0.00035363205989399226 -2.4087714215056683e-05
  outer loop
    vertex 0.0048192443374785905 8.471349443098575 3.2997100969496516
    vertex 0.0049592399953599636 10.871619877295256 0.0002590913598240948
    vertex 0.004847542515767923 9.870528644041551 2.800379189996471
  endloop
endfacet
facet normal 0.9999999371820723 0.00035363205989399226 -2.4087714215056683e-05
  outer loop
    vertex 0.004847542515767923 9.870528644041551 2.800379189996471
    vertex 0.0049592399953599636 10.871619877295256 0.0002590913598240948
    vertex 0.004888002886394648 11.870528640038529 2.8004990860107735
  endloop
endfacet
facet normal 0.9999999371820723 0.00035363205989399226 -2.4087714215056683e-05
  outer loop
    vertex 0.004888002886394648 11.870528640038529 2.8004990860107735
    vertex 0.0049592399953599636 10.871619877295256 0.0002590913598240948
    vertex -0.005653648603104105 28.898976015584292 0.0018057647625256408
  endloop
endfacet
facet normal 0.9999999371820723 0.00035363205989399226 -2.4087714215056683e-05
  outer loop
    vertex 0.004888002886394648 11.870528640038529 2.8004990860107735
    vertex -0.005653648603104105 28.898976015584292 0.0018057647625256408
    vertex 0.0048880109295444275 11.870678652710634 3.300499106700576
  endloop
endfacet
facet normal 0.9999999371820723 0.00035363205989399226 -2.4087714215056683e-05
  outer loop
    vertex 0.0048880109295444275 11.870678652710634 3.300499106700576
    vertex -0.005653648603104105 28.898976015584292 0.0018057647625256408
    vertex 0.004763675402942763 12.649032643584796 3.3004416812813187
  endloop
endfacet
facet normal 0.9999999371820723 0.00035363205989399226 -2.4087714215056683e-05
  outer loop
    vertex 0.004763675402942763 12.649032643584796 3.3004416812813187
    vertex -0.005653648603104105 28.898976015584292 0.0018057647625256408
    vertex 0.004594574696599044 13.268667088313055 3.300430665685753
  endloop
endfacet
facet normal 0.9999999371820723 0.00035363205989399226 -2.4087714215056683e-05
  outer loop
    vertex 0.004594574696599044 13.268667088313055 3.300430665685753
    vertex -0.005653648603104105 28.898976015584292 0.0018057647625256408
    vertex 0.0021887307802299968 17.121707490667564 2.80112672150974
  endloop
endfacet
facet normal 0.9999999371820723 0.00035363205989399226 -2.4087714215056683e-05
  outer loop
    vertex 0.004594574696599044 13.268667088313055 3.300430665685753
    vertex 0.0021887307802299968 17.121707490667564 2.80112672150974
    vertex 0.0021604326019406647 15.722528289724588 3.3004576284629206
  endloop
endfacet
facet normal 0.9999999371820723 0.00035363205989399226 -2.4087714215056683e-05
  outer loop
    vertex 0.004594574696599044 13.268667088313055 3.300430665685753
    vertex 0.0021604326019406647 15.722528289724588 3.3004576284629206
    vertex 0.0046888764527556566 13.268693692565499 4.500430653994236
  endloop
endfacet
facet normal 0.9999999371820723 0.00035363205989399226 -2.4087714215056683e-05
  outer loop
    vertex 0.0046888764527556566 13.268693692565499 4.500430653994236
    vertex 0.0021604326019406647 15.722528289724588 3.3004576284629206
    vertex 0.0023010704542419935 15.722511499555676 4.500457612789906
  endloop
endfacet
facet normal 0.9999999371820723 0.00035363205989399226 -2.4087714215056683e-05
  outer loop
    vertex 0.0021887307802299968 17.121707490667564 2.80112672150974
    vertex -0.005653648603104105 28.898976015584292 0.0018057647625256408
    vertex 0.0022291911508567214 19.12170748666454 2.8012466175240425
  endloop
endfacet
facet normal 0.9999999371820723 0.00035363205989399226 -2.4087714215056683e-05
  outer loop
    vertex 0.0022291911508567214 19.12170748666454 2.8012466175240425
    vertex -0.005653648603104105 28.898976015584292 0.0018057647625256408
    vertex 0.0022291991940065013 19.12185749933665 3.3012466382138443
  endloop
endfacet
facet normal 0.9999999371820723 0.00035363205989399226 -2.4087714215056683e-05
  outer loop
    vertex 0.0022291991940065013 19.12185749933665 3.3012466382138443
    vertex -0.005653648603104105 28.898976015584292 0.0018057647625256408
    vertex 0.0021048636674048365 19.90021149021081 3.301189212794587
  endloop
endfacet
facet normal 0.9999999371820723 0.00035363205989399226 -2.4087714215056683e-05
  outer loop
    vertex 0.0021048636674048365 19.90021149021081 3.301189212794587
    vertex -0.005653648603104105 28.898976015584292 0.0018057647625256408
    vertex 0.0019357629610611187 20.519845934939067 3.301178197199022
  endloop
endfacet
facet normal 0.9999999371820723 0.00035363205989399226 -2.4087714215056683e-05
  outer loop
    vertex 0.0019357629610611187 20.519845934939067 3.301178197199022
    vertex -0.005653648603104105 28.898976015584292 0.0018057647625256408
    vertex 0.0020300647172177303 20.51987253919151 4.501178185507506
  endloop
endfacet
facet normal 0.9999999371820723 0.00035363205989399226 -2.4087714215056683e-05
  outer loop
    vertex 0.0020300647172177303 20.51987253919151 4.501178185507506
    vertex -0.005653648603104105 28.898976015584292 0.0018057647625256408
    vertex -0.0031563251820157603 22.973706299815554 3.3011592978069775
  endloop
endfacet
facet normal 0.9999999371820723 0.00035363205989399226 -2.4087714215056683e-05
  outer loop
    vertex 0.0020300647172177303 20.51987253919151 4.501178185507506
    vertex -0.0031563251820157603 22.973706299815554 3.3011592978069775
    vertex -0.003015687329714431 22.973689509646643 4.501159282133963
  endloop
endfacet
facet normal 0.9999999371820723 0.00035363205989399226 -2.4087714215056683e-05
  outer loop
    vertex -0.0031563251820157603 22.973706299815554 3.3011592978069775
    vertex -0.005653648603104105 28.898976015584292 0.0018057647625256408
    vertex -0.0031280270037264283 24.372885500758528 2.801828390853796
  endloop
endfacet
facet normal 0.9999999371820723 0.00035363205989399226 -2.4087714215056683e-05
  outer loop
    vertex -0.0031280270037264283 24.372885500758528 2.801828390853796
    vertex -0.005653648603104105 28.898976015584292 0.0018057647625256408
    vertex -0.0030875666330997037 26.372885496755508 2.8019482868680985
  endloop
endfacet
facet normal 0.9999999371820723 0.00035363205989399226 -2.4087714215056683e-05
  outer loop
    vertex -0.0030875666330997037 26.372885496755508 2.8019482868680985
    vertex -0.005653648603104105 28.898976015584292 0.0018057647625256408
    vertex -0.0030875585899499233 26.373035509427616 3.301948307557901
  endloop
endfacet
facet normal 0.9999999371820723 0.00035363205989399226 -2.4087714215056683e-05
  outer loop
    vertex -0.0030875585899499233 26.373035509427616 3.301948307557901
    vertex -0.005653648603104105 28.898976015584292 0.0018057647625256408
    vertex -0.0032118941165515886 27.15138950030178 3.3018908821386437
  endloop
endfacet
facet normal 0.9999999371820723 0.00035363205989399226 -2.4087714215056683e-05
  outer loop
    vertex -0.0032118941165515886 27.15138950030178 3.3018908821386437
    vertex -0.005653648603104105 28.898976015584292 0.0018057647625256408
    vertex -0.0033809948228953066 27.771023945030034 3.301879866543079
  endloop
endfacet
facet normal 0.9999999371820723 0.00035363205989399226 -2.4087714215056683e-05
  outer loop
    vertex -0.0033809948228953066 27.771023945030034 3.301879866543079
    vertex -0.005653648603104105 28.898976015584292 0.0018057647625256408
    vertex -0.0032866930667386947 27.771050549282478 4.501879854851562
  endloop
endfacet
facet normal 0.9999999371820723 0.00035363205989399226 -2.4087714215056683e-05
  outer loop
    vertex -0.0032866930667386947 27.771050549282478 4.501879854851562
    vertex -0.005653648603104105 28.898976015584292 0.0018057647625256408
    vertex -0.0033470505594906962 28.8926384581395 4.50178460946638
  endloop
endfacet
facet normal 0.9999999371820723 0.00035363205989399226 -2.4087714215056683e-05
  outer loop
    vertex -0.0031280189605766484 24.373035513430636 3.3018284115435987
    vertex -0.0031563251820157603 22.973706299815554 3.3011592978069775
    vertex -0.0031280270037264283 24.372885500758528 2.801828390853796
  endloop
endfacet
facet normal 0.9999999371820723 0.00035363205989399226 -2.4087714215056683e-05
  outer loop
    vertex 0.0021887388233797767 17.12185750333967 3.301126742199542
    vertex 0.0021604326019406647 15.722528289724588 3.3004576284629206
    vertex 0.0021887307802299968 17.121707490667564 2.80112672150974
  endloop
endfacet
facet normal 0.9999999371820723 0.00035363205989399226 -2.4087714215056683e-05
  outer loop
    vertex 0.004847550558917703 9.870678656713656 3.300379210686273
    vertex 0.0048192443374785905 8.471349443098575 3.2997100969496516
    vertex 0.004847542515767923 9.870528644041551 2.800379189996471
  endloop
endfacet
facet normal 0.9999999371820723 0.00035363205989399226 -2.4087714215056683e-05
  outer loop
    vertex 0.004847550559136234 2.6206784712467948 3.3001723908154563
    vertex 0.004819244337697122 1.2213492576317124 3.299503277078835
    vertex 0.004847542515986455 2.620528458574688 2.800172370125654
  endloop
endfacet
facet normal -0.9999993889700106 -0.0010965081097814057 -0.0001404619903806508
  outer loop
    vertex -6.795739266373706 13.26883131504055 4.501307389591217
    vertex -6.798261453766491 15.722621292723302 3.3023149787644503
    vertex -6.795589421529462 13.268711856454509 3.301306280026195
  endloop
endfacet
facet normal -0.9999993889700106 -0.0010965081097814057 -0.0001404619903806508
  outer loop
    vertex -6.798261453766491 15.722621292723302 3.3023149787644503
    vertex -6.795739266373706 13.26883131504055 4.501307389591217
    vertex -6.7984488439420625 15.722649098999094 4.502029520877174
  endloop
endfacet
facet normal -0.999997614650687 -0.002179674770720499 -0.00014039526471601872
  outer loop
    vertex -6.798398078109246 20.520010161666562 4.502054921104485
    vertex -6.803578211550449 22.973799302814268 3.303016648108507
    vertex -6.798248233265 20.519890703080524 3.302053811539464
  endloop
endfacet
facet normal -0.999997614650687 -0.002179674770720499 -0.00014039526471601872
  outer loop
    vertex -6.803578211550449 22.973799302814268 3.303016648108507
    vertex -6.798398078109246 20.520010161666562 4.502054921104485
    vertex -6.8037656017260195 22.97382710909006 4.502731190221231
  endloop
endfacet
facet normal 0.9999984397559524 0.0017535090929885512 0.0002137557526216805
  outer loop
    vertex -8.803571805796222 23.273839788075843 3.302195291915245
    vertex -8.798473201444724 20.220000095866432 4.501393413091212
    vertex -8.798255707019827 20.219931185249596 3.3013922943089944
  endloop
endfacet
facet normal 0.9999984397559524 0.0017535090929885512 0.0002137557526216805
  outer loop
    vertex -8.798473201444724 20.220000095866432 4.501393413091212
    vertex -8.803571805796222 23.273839788075843 3.302195291915245
    vertex -8.803867270522307 23.27376858202762 4.501909842717048
  endloop
endfacet
facet normal 0.9999995871811346 0.0008831456771886573 0.0002137551714454628
  outer loop
    vertex -8.798255048012267 16.022661777984876 3.301493622571189
    vertex -8.795814389709186 12.968821249240417 4.5006458815779435
    vertex -8.79559689528429 12.968752338623585 3.3006447627957254
  endloop
endfacet
facet normal 0.9999995871811346 0.0008831456771886573 0.0002137551714454628
  outer loop
    vertex -8.795814389709186 12.968821249240417 4.5006458815779435
    vertex -8.798255048012267 16.022661777984876 3.301493622571189
    vertex -8.79855051273835 16.022590571936654 4.501208173372991
  endloop
endfacet
facet normal -0.0002062696966792371 0.9999996752035507 0.000779131314655367
  outer loop
    vertex -20.001500571498745 28.891398441857945 4.502206647848482
    vertex -0.005653648603104105 28.898976015584292 0.0018057647625256408
    vertex -20.00565228724465 28.89159684724953 0.0017587493130345865
  endloop
endfacet
facet normal -0.0002062696966792371 0.9999996752035507 0.000779131314655367
  outer loop
    vertex -0.005653648603104105 28.898976015584292 0.0018057647625256408
    vertex -20.001500571498745 28.891398441857945 4.502206647848482
    vertex -8.803616360708121 28.89203550164934 3.3020663520980875
  endloop
endfacet
facet normal -0.0002062696966792371 0.9999996752035507 0.000779131314655367
  outer loop
    vertex -8.803616360708121 28.89203550164934 3.3020663520980875
    vertex -20.001500571498745 28.891398441857945 4.502206647848482
    vertex -8.803833855133018 28.892104412266164 4.502067470880307
  endloop
endfacet
facet normal -0.0002062696966792371 0.9999996752035507 0.000779131314655367
  outer loop
    vertex -0.005653648603104105 28.898976015584292 0.0018057647625256408
    vertex -6.803591725614636 28.892114584396165 3.302694503492274
    vertex -0.0033470505594906962 28.8926384581395 4.50178460946638
  endloop
endfacet
facet normal -0.0002062696966792371 0.9999996752035507 0.000779131314655367
  outer loop
    vertex -6.803591725614636 28.892114584396165 3.302694503492274
    vertex -0.005653648603104105 28.898976015584292 0.0018057647625256408
    vertex -8.803616360708121 28.89203550164934 3.3020663520980875
  endloop
endfacet
facet normal -0.0002062696966792371 0.9999996752035507 0.000779131314655367
  outer loop
    vertex -0.0033470505594906962 28.8926384581395 4.50178460946638
    vertex -6.803591725614636 28.892114584396165 3.302694503492274
    vertex -6.803741570458881 28.89223404298221 4.502695613057296
  endloop
endfacet
endsolid Под-Лепестковый-Разъем-v5c
