solid XY-Узел-V3.8-Для-Фермы-Доп
facet normal -1.3554660360759296e-15 -1.0 -9.589002049154757e-16
  outer loop
    vertex 16.5931321522559 -3.0000000000000173 -27.338378732130995
    vertex 11.693132152255904 -3.0000000000000306 -21.51565493443138
    vertex 6.948262007477975 -3.0000000000000187 -27.338378732130995
  endloop
endfacet
facet normal -1.3554660360759296e-15 -1.0 -9.589002049154757e-16
  outer loop
    vertex 11.693132152255904 -3.0000000000000306 -21.51565493443138
    vertex 16.5931321522559 -3.0000000000000173 -27.338378732130995
    vertex 16.5931321522559 -3.0000000000000577 -8.160525079209279
  endloop
endfacet
facet normal -1.3554660360759296e-15 -1.0 -9.589002049154757e-16
  outer loop
    vertex 6.948262007477975 -3.0000000000000187 -27.338378732130995
    vertex 11.693132152255904 -3.0000000000000306 -21.51565493443138
    vertex 6.948262007477975 -3.0000000000000306 -26.26052507920931
  endloop
endfacet
facet normal -1.3554660360759296e-15 -1.0 -9.589002049154757e-16
  outer loop
    vertex 11.693132152255904 -3.0000000000000306 -21.51565493443138
    vertex 16.5931321522559 -3.0000000000000577 -8.160525079209279
    vertex 11.693132152255904 -3.0000000000000173 -14.805395223987247
  endloop
endfacet
facet normal -1.3554660360759296e-15 -1.0 -9.589002049154757e-16
  outer loop
    vertex 11.693132152255904 -3.0000000000000173 -14.805395223987247
    vertex 16.5931321522559 -3.0000000000000577 -8.160525079209279
    vertex 7.5931321522559125 -3.00000000000003 -10.705395223987248
  endloop
endfacet
facet normal -1.3554660360759296e-15 -1.0 -9.589002049154757e-16
  outer loop
    vertex 7.5931321522559125 -3.00000000000003 -10.705395223987248
    vertex 16.5931321522559 -3.0000000000000577 -8.160525079209279
    vertex 7.5931321522559125 -3.00000000000003 -5.0605250792093175
  endloop
endfacet
facet normal -1.3554660360759296e-15 -1.0 -9.589002049154757e-16
  outer loop
    vertex 7.5931321522559125 -3.00000000000003 -5.0605250792093175
    vertex 16.5931321522559 -3.0000000000000577 -8.160525079209279
    vertex 8.593132152255903 -3.0000000000000586 -0.16052507920931827
  endloop
endfacet
facet normal -1.3554660360759296e-15 -1.0 -9.589002049154757e-16
  outer loop
    vertex 7.5931321522559125 -3.00000000000003 -5.0605250792093175
    vertex 8.593132152255903 -3.0000000000000586 -0.16052507920931827
    vertex -0.4068678477440899 -3.0000000000000306 -5.0605250792093175
  endloop
endfacet
facet normal -1.3554660360759296e-15 -1.0 -9.589002049154757e-16
  outer loop
    vertex -0.4068678477440899 -3.0000000000000306 -5.0605250792093175
    vertex 8.593132152255903 -3.0000000000000586 -0.16052507920931827
    vertex -0.4068678477440899 -3.0000000000000195 -0.16052507920931827
  endloop
endfacet
facet normal 1.3554660360759296e-15 1.0 9.589002049154757e-16
  outer loop
    vertex -0.40686784774408447 0.9999999999999802 -0.16052507920931444
    vertex 7.593132152255918 0.9999999999999696 -5.060525079209314
    vertex -0.40686784774408447 0.9999999999999692 -5.060525079209314
  endloop
endfacet
facet normal 1.3554660360759296e-15 1.0 9.589002049154757e-16
  outer loop
    vertex 6.9482620074779815 0.9999999999999692 -26.260525079209305
    vertex 16.593132152255908 0.9999999999999823 -27.33837873213099
    vertex 6.9482620074779815 0.9999999999999809 -27.33837873213099
  endloop
endfacet
facet normal 1.3554660360759296e-15 1.0 9.589002049154757e-16
  outer loop
    vertex 16.593132152255908 0.9999999999999823 -27.33837873213099
    vertex 6.9482620074779815 0.9999999999999692 -26.260525079209305
    vertex 11.693132152255911 0.9999999999999692 -21.515654934431378
  endloop
endfacet
facet normal 1.3554660360759296e-15 1.0 9.589002049154757e-16
  outer loop
    vertex 16.593132152255908 0.9999999999999823 -27.33837873213099
    vertex 11.693132152255911 0.9999999999999692 -21.515654934431378
    vertex 16.593132152255908 0.9999999999999422 -8.160525079209274
  endloop
endfacet
facet normal 1.3554660360759296e-15 1.0 9.589002049154757e-16
  outer loop
    vertex 16.593132152255908 0.9999999999999422 -8.160525079209274
    vertex 11.693132152255911 0.9999999999999692 -21.515654934431378
    vertex 11.693132152255911 0.9999999999999823 -14.805395223987244
  endloop
endfacet
facet normal 1.3554660360759296e-15 1.0 9.589002049154757e-16
  outer loop
    vertex 16.593132152255908 0.9999999999999422 -8.160525079209274
    vertex 11.693132152255911 0.9999999999999823 -14.805395223987244
    vertex 7.593132152255918 0.9999999999999696 -10.705395223987244
  endloop
endfacet
facet normal 1.3554660360759296e-15 1.0 9.589002049154757e-16
  outer loop
    vertex 16.593132152255908 0.9999999999999422 -8.160525079209274
    vertex 7.593132152255918 0.9999999999999696 -10.705395223987244
    vertex 7.593132152255918 0.9999999999999696 -5.060525079209314
  endloop
endfacet
facet normal 1.3554660360759296e-15 1.0 9.589002049154757e-16
  outer loop
    vertex 16.593132152255908 0.9999999999999422 -8.160525079209274
    vertex 7.593132152255918 0.9999999999999696 -5.060525079209314
    vertex 8.593132152255908 0.999999999999941 -0.16052507920931444
  endloop
endfacet
facet normal 1.3554660360759296e-15 1.0 9.589002049154757e-16
  outer loop
    vertex 8.593132152255908 0.999999999999941 -0.16052507920931444
    vertex 7.593132152255918 0.9999999999999696 -5.060525079209314
    vertex -0.40686784774408447 0.9999999999999802 -0.16052507920931444
  endloop
endfacet
facet normal -1.4018158862584737e-31 9.589002049154757e-16 -1.0
  outer loop
    vertex 6.9482620074779815 0.9999999999999809 -27.33837873213099
    vertex 16.5931321522559 -3.0000000000000173 -27.338378732130995
    vertex 6.948262007477975 -3.0000000000000187 -27.338378732130995
  endloop
endfacet
facet normal -1.4018158862584737e-31 9.589002049154757e-16 -1.0
  outer loop
    vertex 16.5931321522559 -3.0000000000000173 -27.338378732130995
    vertex 6.9482620074779815 0.9999999999999809 -27.33837873213099
    vertex 16.593132152255908 0.9999999999999823 -27.33837873213099
  endloop
endfacet
facet normal -1.0 1.3554660360759296e-15 1.462839710740964e-29
  outer loop
    vertex 6.9482620074779815 0.9999999999999692 -26.260525079209305
    vertex 6.948262007477975 -3.0000000000000187 -27.338378732130995
    vertex 6.948262007477975 -3.0000000000000306 -26.26052507920931
  endloop
endfacet
facet normal -1.0 1.3554660360759296e-15 1.462839710740964e-29
  outer loop
    vertex 6.948262007477975 -3.0000000000000187 -27.338378732130995
    vertex 6.9482620074779815 0.9999999999999692 -26.260525079209305
    vertex 6.9482620074779815 0.9999999999999809 -27.33837873213099
  endloop
endfacet
facet normal -0.7071067811865476 2.8041438840043646e-16 0.7071067811865476
  outer loop
    vertex 11.693132152255911 0.9999999999999692 -21.515654934431378
    vertex 6.948262007477975 -3.0000000000000306 -26.26052507920931
    vertex 11.693132152255904 -3.0000000000000306 -21.51565493443138
  endloop
endfacet
facet normal -0.7071067811865476 2.8041438840043646e-16 0.7071067811865476
  outer loop
    vertex 6.948262007477975 -3.0000000000000306 -26.26052507920931
    vertex 11.693132152255911 0.9999999999999692 -21.515654934431378
    vertex 6.9482620074779815 0.9999999999999692 -26.260525079209305
  endloop
endfacet
facet normal -1.0 1.3554660360759296e-15 -2.634541197575123e-30
  outer loop
    vertex 11.693132152255904 -3.0000000000000173 -14.805395223987247
    vertex 11.693132152255911 0.9999999999999692 -21.515654934431378
    vertex 11.693132152255904 -3.0000000000000306 -21.51565493443138
  endloop
endfacet
facet normal -1.0 1.3554660360759296e-15 -2.634541197575123e-30
  outer loop
    vertex 11.693132152255911 0.9999999999999692 -21.515654934431378
    vertex 11.693132152255904 -3.0000000000000173 -14.805395223987247
    vertex 11.693132152255911 0.9999999999999823 -14.805395223987244
  endloop
endfacet
facet normal -0.707106781186548 1.6365040631542427e-15 -0.7071067811865471
  outer loop
    vertex 7.593132152255918 0.9999999999999696 -10.705395223987244
    vertex 11.693132152255904 -3.0000000000000173 -14.805395223987247
    vertex 7.5931321522559125 -3.00000000000003 -10.705395223987248
  endloop
endfacet
facet normal -0.707106781186548 1.6365040631542427e-15 -0.7071067811865471
  outer loop
    vertex 11.693132152255904 -3.0000000000000173 -14.805395223987247
    vertex 7.593132152255918 0.9999999999999696 -10.705395223987244
    vertex 11.693132152255911 0.9999999999999823 -14.805395223987244
  endloop
endfacet
facet normal -1.0 1.3554660360759298e-15 0.0
  outer loop
    vertex 7.593132152255918 0.9999999999999696 -5.060525079209314
    vertex 7.5931321522559125 -3.00000000000003 -10.705395223987248
    vertex 7.5931321522559125 -3.00000000000003 -5.0605250792093175
  endloop
endfacet
facet normal -1.0 1.3554660360759298e-15 0.0
  outer loop
    vertex 7.5931321522559125 -3.00000000000003 -10.705395223987248
    vertex 7.593132152255918 0.9999999999999696 -5.060525079209314
    vertex 7.593132152255918 0.9999999999999696 -10.705395223987244
  endloop
endfacet
facet normal -4.2251038093280494e-32 9.589002049154757e-16 -1.0
  outer loop
    vertex -0.40686784774408447 0.9999999999999692 -5.060525079209314
    vertex 7.5931321522559125 -3.00000000000003 -5.0605250792093175
    vertex -0.4068678477440899 -3.0000000000000306 -5.0605250792093175
  endloop
endfacet
facet normal -4.2251038093280494e-32 9.589002049154757e-16 -1.0
  outer loop
    vertex 7.5931321522559125 -3.00000000000003 -5.0605250792093175
    vertex -0.40686784774408447 0.9999999999999692 -5.060525079209314
    vertex 7.593132152255918 0.9999999999999696 -5.060525079209314
  endloop
endfacet
facet normal -1.0 1.3554660360759294e-15 -3.0227916451263166e-30
  outer loop
    vertex -0.4068678477440899 -3.0000000000000195 -0.16052507920931827
    vertex -0.40686784774408447 0.9999999999999692 -5.060525079209314
    vertex -0.4068678477440899 -3.0000000000000306 -5.0605250792093175
  endloop
endfacet
facet normal -1.0 1.3554660360759294e-15 -3.0227916451263166e-30
  outer loop
    vertex -0.40686784774408447 0.9999999999999692 -5.060525079209314
    vertex -0.4068678477440899 -3.0000000000000195 -0.16052507920931827
    vertex -0.40686784774408447 0.9999999999999802 -0.16052507920931444
  endloop
endfacet
facet normal -4.168769091870347e-30 -9.589002049154757e-16 1.0
  outer loop
    vertex 8.593132152255903 -3.0000000000000586 -0.16052507920931827
    vertex -0.40686784774408447 0.9999999999999802 -0.16052507920931444
    vertex -0.4068678477440899 -3.0000000000000195 -0.16052507920931827
  endloop
endfacet
facet normal -4.168769091870347e-30 -9.589002049154757e-16 1.0
  outer loop
    vertex -0.40686784774408447 0.9999999999999802 -0.16052507920931444
    vertex 8.593132152255903 -3.0000000000000586 -0.16052507920931827
    vertex 8.593132152255908 0.999999999999941 -0.16052507920931444
  endloop
endfacet
facet normal 0.7071067811865458 -1.6365040631542417e-15 0.7071067811865493
  outer loop
    vertex 16.5931321522559 -3.0000000000000577 -8.160525079209279
    vertex 8.593132152255908 0.999999999999941 -0.16052507920931444
    vertex 8.593132152255903 -3.0000000000000586 -0.16052507920931827
  endloop
endfacet
facet normal 0.7071067811865458 -1.6365040631542417e-15 0.7071067811865493
  outer loop
    vertex 8.593132152255908 0.999999999999941 -0.16052507920931444
    vertex 16.5931321522559 -3.0000000000000577 -8.160525079209279
    vertex 16.593132152255908 0.9999999999999422 -8.160525079209274
  endloop
endfacet
facet normal 1.0 -1.3554660360759298e-15 -2.8401903697247083e-30
  outer loop
    vertex 16.5931321522559 -3.0000000000000173 -27.338378732130995
    vertex 16.593132152255908 0.9999999999999422 -8.160525079209274
    vertex 16.5931321522559 -3.0000000000000577 -8.160525079209279
  endloop
endfacet
facet normal 1.0 -1.3554660360759298e-15 -2.8401903697247083e-30
  outer loop
    vertex 16.593132152255908 0.9999999999999422 -8.160525079209274
    vertex 16.5931321522559 -3.0000000000000173 -27.338378732130995
    vertex 16.593132152255908 0.9999999999999823 -27.33837873213099
  endloop
endfacet
endsolid XY-Узел-V3.8-Для-Фермы-Доп
