solid Винты-регулировки
facet normal 5.769194457634329e-17 1.0 -2.289834988289385e-16
  outer loop
    vertex 1.9999999999999967 -5.000000000000001 -5.0
    vertex 8.964723819589912 -5.000000000000001 6.136296694843736
    vertex 9.999999999999996 -5.000000000000001 6.000000000000007
  endloop
endfacet
facet normal 5.769194457634329e-17 1.0 -2.289834988289385e-16
  outer loop
    vertex 8.964723819589912 -5.000000000000001 6.136296694843736
    vertex 1.9999999999999967 -5.000000000000001 -5.0
    vertex 7.9999999999999964 -5.000000000000001 6.535898384862256
  endloop
endfacet
facet normal 5.769194457634329e-17 1.0 -2.289834988289385e-16
  outer loop
    vertex 7.9999999999999964 -5.000000000000001 6.535898384862256
    vertex 1.9999999999999967 -5.000000000000001 -5.0
    vertex 2.000000000000003 -4.999999999999997 10.000000000000002
  endloop
endfacet
facet normal 5.769194457634329e-17 1.0 -2.289834988289385e-16
  outer loop
    vertex 7.9999999999999964 -5.000000000000001 6.535898384862256
    vertex 2.000000000000003 -4.999999999999997 10.000000000000002
    vertex 7.1715728752538075 -5.000000000000001 7.171572875253821
  endloop
endfacet
facet normal 5.769194457634329e-17 1.0 -2.289834988289385e-16
  outer loop
    vertex 7.1715728752538075 -5.000000000000001 7.171572875253821
    vertex 2.000000000000003 -4.999999999999997 10.000000000000002
    vertex 6.535898384862245 -5.000000000000001 8.00000000000001
  endloop
endfacet
facet normal 5.769194457634329e-17 1.0 -2.289834988289385e-16
  outer loop
    vertex 6.535898384862245 -5.000000000000001 8.00000000000001
    vertex 2.000000000000003 -4.999999999999997 10.000000000000002
    vertex 6.136296694843726 -5.0 8.96472381958993
  endloop
endfacet
facet normal 5.769194457634329e-17 1.0 -2.289834988289385e-16
  outer loop
    vertex 6.136296694843726 -5.0 8.96472381958993
    vertex 2.000000000000003 -4.999999999999997 10.000000000000002
    vertex 6.000000000000001 -5.0 10.00000000000001
  endloop
endfacet
facet normal 5.769194457634329e-17 1.0 -2.289834988289385e-16
  outer loop
    vertex 6.000000000000001 -5.0 10.00000000000001
    vertex 2.000000000000003 -4.999999999999997 10.000000000000002
    vertex 2.2725933896874584 -4.999999999999993 12.070552360820175
  endloop
endfacet
facet normal 5.769194457634329e-17 1.0 -2.289834988289385e-16
  outer loop
    vertex 6.000000000000001 -5.0 10.00000000000001
    vertex 2.2725933896874584 -4.999999999999993 12.070552360820175
    vertex 6.136296694843729 -5.0 11.035276180410094
  endloop
endfacet
facet normal 5.769194457634329e-17 1.0 -2.289834988289385e-16
  outer loop
    vertex 6.136296694843729 -5.0 11.035276180410094
    vertex 2.2725933896874584 -4.999999999999993 12.070552360820175
    vertex 6.535898384862247 -4.999999999999999 12.00000000000001
  endloop
endfacet
facet normal 5.769194457634329e-17 1.0 -2.289834988289385e-16
  outer loop
    vertex 6.535898384862247 -4.999999999999999 12.00000000000001
    vertex 2.2725933896874584 -4.999999999999993 12.070552360820175
    vertex 7.171572875253813 -4.999999999999999 12.828427124746199
  endloop
endfacet
facet normal 5.769194457634329e-17 1.0 -2.289834988289385e-16
  outer loop
    vertex 7.171572875253813 -4.999999999999999 12.828427124746199
    vertex 2.2725933896874584 -4.999999999999993 12.070552360820175
    vertex 3.0717967697244966 -4.999999999999993 14.000000000000002
  endloop
endfacet
facet normal 5.769194457634329e-17 1.0 -2.289834988289385e-16
  outer loop
    vertex 7.171572875253813 -4.999999999999999 12.828427124746199
    vertex 3.0717967697244966 -4.999999999999993 14.000000000000002
    vertex 8.000000000000004 -4.999999999999999 13.464101615137764
  endloop
endfacet
facet normal 5.769194457634329e-17 1.0 -2.289834988289385e-16
  outer loop
    vertex 8.000000000000004 -4.999999999999999 13.464101615137764
    vertex 3.0717967697244966 -4.999999999999993 14.000000000000002
    vertex 8.96472381958992 -4.999999999999999 13.863703305156282
  endloop
endfacet
facet normal 5.769194457634329e-17 1.0 -2.289834988289385e-16
  outer loop
    vertex 8.96472381958992 -4.999999999999999 13.863703305156282
    vertex 3.0717967697244966 -4.999999999999993 14.000000000000002
    vertex 10.000000000000004 -4.999999999999999 14.000000000000009
  endloop
endfacet
facet normal 5.769194457634329e-17 1.0 -2.289834988289385e-16
  outer loop
    vertex 10.000000000000004 -4.999999999999999 14.000000000000009
    vertex 3.0717967697244966 -4.999999999999993 14.000000000000002
    vertex 4.343145750507623 -4.999999999999997 15.656854249492387
  endloop
endfacet
facet normal 5.769194457634329e-17 1.0 -2.289834988289385e-16
  outer loop
    vertex 1.9999999999999967 -5.000000000000001 -5.0
    vertex 25.0 -4.999999999999983 18.00000000000001
    vertex 25.0 -5.000000000000005 -5.000000000000002
  endloop
endfacet
facet normal 5.769194457634329e-17 1.0 -2.289834988289385e-16
  outer loop
    vertex 25.0 -4.999999999999983 18.00000000000001
    vertex 1.9999999999999967 -5.000000000000001 -5.0
    vertex 12.828427124746188 -5.000000000000001 7.171572875253814
  endloop
endfacet
facet normal 5.769194457634329e-17 1.0 -2.289834988289385e-16
  outer loop
    vertex 12.828427124746188 -5.000000000000001 7.171572875253814
    vertex 1.9999999999999967 -5.000000000000001 -5.0
    vertex 11.999999999999995 -5.000000000000001 6.53589838486225
  endloop
endfacet
facet normal 5.769194457634329e-17 1.0 -2.289834988289385e-16
  outer loop
    vertex 11.999999999999995 -5.000000000000001 6.53589838486225
    vertex 1.9999999999999967 -5.000000000000001 -5.0
    vertex 11.035276180410078 -5.000000000000001 6.1362966948437325
  endloop
endfacet
facet normal 5.769194457634329e-17 1.0 -2.289834988289385e-16
  outer loop
    vertex 11.035276180410078 -5.000000000000001 6.1362966948437325
    vertex 1.9999999999999967 -5.000000000000001 -5.0
    vertex 9.999999999999996 -5.000000000000001 6.000000000000007
  endloop
endfacet
facet normal 5.769194457634329e-17 1.0 -2.289834988289385e-16
  outer loop
    vertex 25.0 -4.999999999999983 18.00000000000001
    vertex 12.828427124746188 -5.000000000000001 7.171572875253814
    vertex 13.46410161513775 -5.000000000000001 8.000000000000002
  endloop
endfacet
facet normal 5.769194457634329e-17 1.0 -2.289834988289385e-16
  outer loop
    vertex 25.0 -4.999999999999983 18.00000000000001
    vertex 13.46410161513775 -5.000000000000001 8.000000000000002
    vertex 13.86370330515627 -5.0 8.964723819589919
  endloop
endfacet
facet normal 5.769194457634329e-17 1.0 -2.289834988289385e-16
  outer loop
    vertex 25.0 -4.999999999999983 18.00000000000001
    vertex 13.86370330515627 -5.0 8.964723819589919
    vertex 14.0 -5.0 10.000000000000004
  endloop
endfacet
facet normal 5.769194457634329e-17 1.0 -2.289834988289385e-16
  outer loop
    vertex 25.0 -4.999999999999983 18.00000000000001
    vertex 14.0 -5.0 10.000000000000004
    vertex 13.863703305156273 -5.0 11.035276180410087
  endloop
endfacet
facet normal 5.769194457634329e-17 1.0 -2.289834988289385e-16
  outer loop
    vertex 25.0 -4.999999999999983 18.00000000000001
    vertex 13.863703305156273 -5.0 11.035276180410087
    vertex 13.464101615137755 -4.999999999999999 12.000000000000004
  endloop
endfacet
facet normal 5.769194457634329e-17 1.0 -2.289834988289385e-16
  outer loop
    vertex 25.0 -4.999999999999983 18.00000000000001
    vertex 13.464101615137755 -4.999999999999999 12.000000000000004
    vertex 12.828427124746193 -4.999999999999999 12.828427124746195
  endloop
endfacet
facet normal 5.769194457634329e-17 1.0 -2.289834988289385e-16
  outer loop
    vertex 25.0 -4.999999999999983 18.00000000000001
    vertex 12.828427124746193 -4.999999999999999 12.828427124746195
    vertex 12.000000000000002 -4.999999999999999 13.46410161513776
  endloop
endfacet
facet normal 5.769194457634329e-17 1.0 -2.289834988289385e-16
  outer loop
    vertex 25.0 -4.999999999999983 18.00000000000001
    vertex 12.000000000000002 -4.999999999999999 13.46410161513776
    vertex 11.035276180410087 -4.999999999999999 13.863703305156278
  endloop
endfacet
facet normal 5.769194457634329e-17 1.0 -2.289834988289385e-16
  outer loop
    vertex 25.0 -4.999999999999983 18.00000000000001
    vertex 11.035276180410087 -4.999999999999999 13.863703305156278
    vertex 10.000000000000004 -4.999999999999999 14.000000000000009
  endloop
endfacet
facet normal 5.769194457634329e-17 1.0 -2.289834988289385e-16
  outer loop
    vertex 25.0 -4.999999999999983 18.00000000000001
    vertex 10.000000000000004 -4.999999999999999 14.000000000000009
    vertex 4.343145750507623 -4.999999999999997 15.656854249492387
  endloop
endfacet
facet normal 5.769194457634329e-17 1.0 -2.289834988289385e-16
  outer loop
    vertex 25.0 -4.999999999999983 18.00000000000001
    vertex 4.343145750507623 -4.999999999999997 15.656854249492387
    vertex 6.000000000000008 -4.99999999999999 16.928203230275503
  endloop
endfacet
facet normal 5.769194457634329e-17 1.0 -2.289834988289385e-16
  outer loop
    vertex 25.0 -4.999999999999983 18.00000000000001
    vertex 6.000000000000008 -4.99999999999999 16.928203230275503
    vertex 7.929447639179839 -4.9999999999999964 17.727406610312542
  endloop
endfacet
facet normal 5.769194457634329e-17 1.0 -2.289834988289385e-16
  outer loop
    vertex 25.0 -4.999999999999983 18.00000000000001
    vertex 7.929447639179839 -4.9999999999999964 17.727406610312542
    vertex 10.000000000000002 -4.999999999999997 17.999999999999996
  endloop
endfacet
facet normal 1.0 -2.89282275945263e-16 -2.957107709662688e-17
  outer loop
    vertex 25.0 -22.999999999999996 -5.000000000000005
    vertex 25.0 -4.999999999999983 18.00000000000001
    vertex 25.0 -23.000000000000014 18.000000000000018
  endloop
endfacet
facet normal 1.0 -2.89282275945263e-16 -2.957107709662688e-17
  outer loop
    vertex 25.0 -4.999999999999983 18.00000000000001
    vertex 25.0 -22.999999999999996 -5.000000000000005
    vertex 25.0 -5.000000000000005 -5.000000000000002
  endloop
endfacet
facet normal -1.935380723232288e-17 -2.289834988289385e-16 -1.0
  outer loop
    vertex 25.0 -5.000000000000005 -5.000000000000002
    vertex 1.9999999999999978 -22.999999999999993 -5.000000000000001
    vertex 1.9999999999999967 -5.000000000000001 -5.0
  endloop
endfacet
facet normal -1.935380723232288e-17 -2.289834988289385e-16 -1.0
  outer loop
    vertex 1.9999999999999978 -22.999999999999993 -5.000000000000001
    vertex 25.0 -5.000000000000005 -5.000000000000002
    vertex 25.0 -22.999999999999996 -5.000000000000005
  endloop
endfacet
facet normal -4.884981931567618e-16 -1.0 2.289834988289385e-16
  outer loop
    vertex 22.0 -10.000000000000004 -1.9999999999999998
    vertex 11.035276180410078 -9.999999999999995 6.1362966948437325
    vertex 9.999999999999996 -9.999999999999995 6.000000000000007
  endloop
endfacet
facet normal -4.884981931567618e-16 -1.0 2.289834988289385e-16
  outer loop
    vertex 11.035276180410078 -9.999999999999995 6.1362966948437325
    vertex 22.0 -10.000000000000004 -1.9999999999999998
    vertex 11.999999999999995 -9.999999999999995 6.535898384862249
  endloop
endfacet
facet normal -4.884981931567618e-16 -1.0 2.289834988289385e-16
  outer loop
    vertex 11.999999999999995 -9.999999999999995 6.535898384862249
    vertex 22.0 -10.000000000000004 -1.9999999999999998
    vertex 12.828427124746188 -9.999999999999995 7.171572875253813
  endloop
endfacet
facet normal -4.884981931567618e-16 -1.0 2.289834988289385e-16
  outer loop
    vertex 12.828427124746188 -9.999999999999995 7.171572875253813
    vertex 22.0 -10.000000000000004 -1.9999999999999998
    vertex 22.0 -10.00000000000001 18.000000000000007
  endloop
endfacet
facet normal -4.884981931567618e-16 -1.0 2.289834988289385e-16
  outer loop
    vertex 12.828427124746188 -9.999999999999995 7.171572875253813
    vertex 22.0 -10.00000000000001 18.000000000000007
    vertex 13.46410161513775 -9.999999999999995 8.0
  endloop
endfacet
facet normal -4.884981931567618e-16 -1.0 2.289834988289385e-16
  outer loop
    vertex 13.46410161513775 -9.999999999999995 8.0
    vertex 22.0 -10.00000000000001 18.000000000000007
    vertex 13.86370330515627 -9.999999999999995 8.964723819589917
  endloop
endfacet
facet normal -4.884981931567618e-16 -1.0 2.289834988289385e-16
  outer loop
    vertex 13.86370330515627 -9.999999999999995 8.964723819589917
    vertex 22.0 -10.00000000000001 18.000000000000007
    vertex 14.0 -9.999999999999995 10.000000000000004
  endloop
endfacet
facet normal -4.884981931567618e-16 -1.0 2.289834988289385e-16
  outer loop
    vertex 14.0 -9.999999999999995 10.000000000000004
    vertex 22.0 -10.00000000000001 18.000000000000007
    vertex 13.863703305156273 -9.999999999999995 11.035276180410085
  endloop
endfacet
facet normal -4.884981931567618e-16 -1.0 2.289834988289385e-16
  outer loop
    vertex 13.863703305156273 -9.999999999999995 11.035276180410085
    vertex 22.0 -10.00000000000001 18.000000000000007
    vertex 13.464101615137755 -9.999999999999995 12.000000000000002
  endloop
endfacet
facet normal -4.884981931567618e-16 -1.0 2.289834988289385e-16
  outer loop
    vertex 13.464101615137755 -9.999999999999995 12.000000000000002
    vertex 22.0 -10.00000000000001 18.000000000000007
    vertex 12.828427124746193 -9.999999999999995 12.828427124746193
  endloop
endfacet
facet normal -4.884981931567618e-16 -1.0 2.289834988289385e-16
  outer loop
    vertex 12.828427124746193 -9.999999999999995 12.828427124746193
    vertex 22.0 -10.00000000000001 18.000000000000007
    vertex 12.000000000000002 -9.999999999999995 13.464101615137759
  endloop
endfacet
facet normal -4.884981931567618e-16 -1.0 2.289834988289385e-16
  outer loop
    vertex 12.000000000000002 -9.999999999999995 13.464101615137759
    vertex 22.0 -10.00000000000001 18.000000000000007
    vertex 11.035276180410087 -9.999999999999995 13.863703305156276
  endloop
endfacet
facet normal -4.884981931567618e-16 -1.0 2.289834988289385e-16
  outer loop
    vertex 11.035276180410087 -9.999999999999995 13.863703305156276
    vertex 22.0 -10.00000000000001 18.000000000000007
    vertex 10.000000000000004 -9.999999999999995 14.000000000000005
  endloop
endfacet
facet normal -4.884981931567618e-16 -1.0 2.289834988289385e-16
  outer loop
    vertex 10.000000000000004 -9.999999999999995 14.000000000000005
    vertex 22.0 -10.00000000000001 18.000000000000007
    vertex 4.343145750507623 -9.999999999999993 15.656854249492373
  endloop
endfacet
facet normal -4.884981931567618e-16 -1.0 2.289834988289385e-16
  outer loop
    vertex 4.343145750507623 -9.999999999999993 15.656854249492373
    vertex 22.0 -10.00000000000001 18.000000000000007
    vertex 6.000000000000007 -10.000000000000002 16.92820323027551
  endloop
endfacet
facet normal -4.884981931567618e-16 -1.0 2.289834988289385e-16
  outer loop
    vertex 6.000000000000007 -10.000000000000002 16.92820323027551
    vertex 22.0 -10.00000000000001 18.000000000000007
    vertex 7.929447639179839 -10.000000000000002 17.727406610312553
  endloop
endfacet
facet normal -4.884981931567618e-16 -1.0 2.289834988289385e-16
  outer loop
    vertex 7.929447639179839 -10.000000000000002 17.727406610312553
    vertex 22.0 -10.00000000000001 18.000000000000007
    vertex 10.000000000000002 -10.000000000000004 18.000000000000007
  endloop
endfacet
facet normal -4.884981931567618e-16 -1.0 2.289834988289385e-16
  outer loop
    vertex 22.0 -10.000000000000004 -1.9999999999999998
    vertex 2.0000000000000027 -9.999999999999998 10.000000000000002
    vertex 2.0000000000000018 -9.999999999999998 -2.0000000000000018
  endloop
endfacet
facet normal -4.884981931567618e-16 -1.0 2.289834988289385e-16
  outer loop
    vertex 2.0000000000000027 -9.999999999999998 10.000000000000002
    vertex 22.0 -10.000000000000004 -1.9999999999999998
    vertex 7.9999999999999964 -9.999999999999995 6.5358983848622545
  endloop
endfacet
facet normal -4.884981931567618e-16 -1.0 2.289834988289385e-16
  outer loop
    vertex 7.9999999999999964 -9.999999999999995 6.5358983848622545
    vertex 22.0 -10.000000000000004 -1.9999999999999998
    vertex 8.964723819589912 -9.999999999999995 6.136296694843736
  endloop
endfacet
facet normal -4.884981931567618e-16 -1.0 2.289834988289385e-16
  outer loop
    vertex 8.964723819589912 -9.999999999999995 6.136296694843736
    vertex 22.0 -10.000000000000004 -1.9999999999999998
    vertex 9.999999999999996 -9.999999999999995 6.000000000000007
  endloop
endfacet
facet normal -4.884981931567618e-16 -1.0 2.289834988289385e-16
  outer loop
    vertex 2.0000000000000027 -9.999999999999998 10.000000000000002
    vertex 7.9999999999999964 -9.999999999999995 6.5358983848622545
    vertex 7.1715728752538075 -9.999999999999995 7.17157287525382
  endloop
endfacet
facet normal -4.884981931567618e-16 -1.0 2.289834988289385e-16
  outer loop
    vertex 2.0000000000000027 -9.999999999999998 10.000000000000002
    vertex 7.1715728752538075 -9.999999999999995 7.17157287525382
    vertex 6.535898384862245 -9.999999999999995 8.000000000000009
  endloop
endfacet
facet normal -4.884981931567618e-16 -1.0 2.289834988289385e-16
  outer loop
    vertex 2.0000000000000027 -9.999999999999998 10.000000000000002
    vertex 6.535898384862245 -9.999999999999995 8.000000000000009
    vertex 6.136296694843726 -9.999999999999995 8.964723819589928
  endloop
endfacet
facet normal -4.884981931567618e-16 -1.0 2.289834988289385e-16
  outer loop
    vertex 2.0000000000000027 -9.999999999999998 10.000000000000002
    vertex 6.136296694843726 -9.999999999999995 8.964723819589928
    vertex 6.000000000000001 -9.999999999999995 10.000000000000009
  endloop
endfacet
facet normal -4.884981931567618e-16 -1.0 2.289834988289385e-16
  outer loop
    vertex 2.0000000000000027 -9.999999999999998 10.000000000000002
    vertex 6.000000000000001 -9.999999999999995 10.000000000000009
    vertex 2.2725933896874584 -10.000000000000002 12.070552360820175
  endloop
endfacet
facet normal -4.884981931567618e-16 -1.0 2.289834988289385e-16
  outer loop
    vertex 2.2725933896874584 -10.000000000000002 12.070552360820175
    vertex 6.000000000000001 -9.999999999999995 10.000000000000009
    vertex 6.136296694843729 -9.999999999999995 11.035276180410092
  endloop
endfacet
facet normal -4.884981931567618e-16 -1.0 2.289834988289385e-16
  outer loop
    vertex 2.2725933896874584 -10.000000000000002 12.070552360820175
    vertex 6.136296694843729 -9.999999999999995 11.035276180410092
    vertex 6.535898384862247 -9.999999999999995 12.000000000000009
  endloop
endfacet
facet normal -4.884981931567618e-16 -1.0 2.289834988289385e-16
  outer loop
    vertex 2.2725933896874584 -10.000000000000002 12.070552360820175
    vertex 6.535898384862247 -9.999999999999995 12.000000000000009
    vertex 7.171572875253813 -9.999999999999995 12.828427124746195
  endloop
endfacet
facet normal -4.884981931567618e-16 -1.0 2.289834988289385e-16
  outer loop
    vertex 2.2725933896874584 -10.000000000000002 12.070552360820175
    vertex 7.171572875253813 -9.999999999999995 12.828427124746195
    vertex 3.0717967697244957 -10.000000000000002 14.0
  endloop
endfacet
facet normal -4.884981931567618e-16 -1.0 2.289834988289385e-16
  outer loop
    vertex 3.0717967697244957 -10.000000000000002 14.0
    vertex 7.171572875253813 -9.999999999999995 12.828427124746195
    vertex 8.000000000000004 -9.999999999999995 13.46410161513776
  endloop
endfacet
facet normal -4.884981931567618e-16 -1.0 2.289834988289385e-16
  outer loop
    vertex 3.0717967697244957 -10.000000000000002 14.0
    vertex 8.000000000000004 -9.999999999999995 13.46410161513776
    vertex 8.96472381958992 -9.999999999999995 13.863703305156278
  endloop
endfacet
facet normal -4.884981931567618e-16 -1.0 2.289834988289385e-16
  outer loop
    vertex 3.0717967697244957 -10.000000000000002 14.0
    vertex 8.96472381958992 -9.999999999999995 13.863703305156278
    vertex 10.000000000000004 -9.999999999999995 14.000000000000005
  endloop
endfacet
facet normal -4.884981931567618e-16 -1.0 2.289834988289385e-16
  outer loop
    vertex 3.0717967697244957 -10.000000000000002 14.0
    vertex 10.000000000000004 -9.999999999999995 14.000000000000005
    vertex 4.343145750507623 -9.999999999999993 15.656854249492373
  endloop
endfacet
facet normal -0.1305261922200519 2.0816681711721685e-17 0.9914448613738105
  outer loop
    vertex 10.000000000000002 -10.000000000000004 18.000000000000007
    vertex 7.929447639179839 -4.9999999999999964 17.727406610312542
    vertex 7.929447639179839 -10.000000000000002 17.727406610312553
  endloop
endfacet
facet normal -0.1305261922200519 2.0816681711721685e-17 0.9914448613738105
  outer loop
    vertex 7.929447639179839 -4.9999999999999964 17.727406610312542
    vertex 10.000000000000002 -10.000000000000004 18.000000000000007
    vertex 10.000000000000002 -4.999999999999997 17.999999999999996
  endloop
endfacet
facet normal -2.883845058493016e-17 -9.020562075079394e-17 1.0
  outer loop
    vertex 25.0 -23.000000000000014 18.000000000000018
    vertex 10.000000000000002 -16.50000000000001 17.999999999999996
    vertex 10.000000000000002 -23.000000000000007 18.000000000000007
  endloop
endfacet
facet normal -2.883845058493016e-17 -9.020562075079394e-17 1.0
  outer loop
    vertex 10.000000000000002 -16.50000000000001 17.999999999999996
    vertex 25.0 -23.000000000000014 18.000000000000018
    vertex 22.0 -16.500000000000004 17.999999999999996
  endloop
endfacet
facet normal -2.883845058493016e-17 -9.020562075079394e-17 1.0
  outer loop
    vertex 22.0 -16.500000000000004 17.999999999999996
    vertex 25.0 -23.000000000000014 18.000000000000018
    vertex 22.0 -10.00000000000001 18.000000000000007
  endloop
endfacet
facet normal -2.883845058493016e-17 -9.020562075079394e-17 1.0
  outer loop
    vertex 22.0 -10.00000000000001 18.000000000000007
    vertex 10.000000000000002 -4.999999999999997 17.999999999999996
    vertex 10.000000000000002 -10.000000000000004 18.000000000000007
  endloop
endfacet
facet normal -2.883845058493016e-17 -9.020562075079394e-17 1.0
  outer loop
    vertex 10.000000000000002 -4.999999999999997 17.999999999999996
    vertex 22.0 -10.00000000000001 18.000000000000007
    vertex 25.0 -4.999999999999983 18.00000000000001
  endloop
endfacet
facet normal -2.883845058493016e-17 -9.020562075079394e-17 1.0
  outer loop
    vertex 25.0 -4.999999999999983 18.00000000000001
    vertex 22.0 -10.00000000000001 18.000000000000007
    vertex 25.0 -23.000000000000014 18.000000000000018
  endloop
endfacet
facet normal -0.9914448613738104 3.131175874138137e-16 0.13052619222005207
  outer loop
    vertex 2.2725933896874584 -4.999999999999993 12.070552360820175
    vertex 2.0000000000000027 -9.999999999999998 10.000000000000002
    vertex 2.2725933896874584 -10.000000000000002 12.070552360820175
  endloop
endfacet
facet normal -0.9914448613738104 3.131175874138137e-16 0.13052619222005207
  outer loop
    vertex 2.0000000000000027 -9.999999999999998 10.000000000000002
    vertex 2.2725933896874584 -4.999999999999993 12.070552360820175
    vertex 2.000000000000003 -4.999999999999997 10.000000000000002
  endloop
endfacet
facet normal -0.9238795325112866 1.6653345369377348e-16 0.3826834323650905
  outer loop
    vertex 3.0717967697244966 -4.999999999999993 14.000000000000002
    vertex 2.2725933896874584 -10.000000000000002 12.070552360820175
    vertex 3.0717967697244957 -10.000000000000002 14.0
  endloop
endfacet
facet normal -0.9238795325112866 1.6653345369377348e-16 0.3826834323650905
  outer loop
    vertex 2.2725933896874584 -10.000000000000002 12.070552360820175
    vertex 3.0717967697244966 -4.999999999999993 14.000000000000002
    vertex 2.2725933896874584 -4.999999999999993 12.070552360820175
  endloop
endfacet
facet normal -0.7933533402912354 -1.3877787807814457e-17 0.6087614290087205
  outer loop
    vertex 4.343145750507623 -9.999999999999993 15.656854249492373
    vertex 3.0717967697244966 -4.999999999999993 14.000000000000002
    vertex 3.0717967697244957 -10.000000000000002 14.0
  endloop
endfacet
facet normal -0.7933533402912354 -1.3877787807814457e-17 0.6087614290087205
  outer loop
    vertex 3.0717967697244966 -4.999999999999993 14.000000000000002
    vertex 4.343145750507623 -9.999999999999993 15.656854249492373
    vertex 4.343145750507623 -4.999999999999997 15.656854249492387
  endloop
endfacet
facet normal -0.6087614290087202 2.0816681711721685e-16 0.7933533402912356
  outer loop
    vertex 6.000000000000007 -10.000000000000002 16.92820323027551
    vertex 4.343145750507623 -4.999999999999997 15.656854249492387
    vertex 4.343145750507623 -9.999999999999993 15.656854249492373
  endloop
endfacet
facet normal -0.6087614290087202 2.0816681711721685e-16 0.7933533402912356
  outer loop
    vertex 4.343145750507623 -4.999999999999997 15.656854249492387
    vertex 6.000000000000007 -10.000000000000002 16.92820323027551
    vertex 6.000000000000008 -4.99999999999999 16.928203230275503
  endloop
endfacet
facet normal -0.3826834323650892 1.8735013540549517e-16 0.923879532511287
  outer loop
    vertex 7.929447639179839 -10.000000000000002 17.727406610312553
    vertex 6.000000000000008 -4.99999999999999 16.928203230275503
    vertex 6.000000000000007 -10.000000000000002 16.92820323027551
  endloop
endfacet
facet normal -0.3826834323650892 1.8735013540549517e-16 0.923879532511287
  outer loop
    vertex 6.000000000000008 -4.99999999999999 16.928203230275503
    vertex 7.929447639179839 -10.000000000000002 17.727406610312553
    vertex 7.929447639179839 -4.9999999999999964 17.727406610312542
  endloop
endfacet
facet normal -1.0 1.2985559942431801e-16 1.5942667652094484e-16
  outer loop
    vertex 2.000000000000003 -4.999999999999997 10.000000000000002
    vertex 2.0000000000000018 -9.999999999999998 -2.0000000000000018
    vertex 2.0000000000000027 -9.999999999999998 10.000000000000002
  endloop
endfacet
facet normal -1.0 1.2985559942431801e-16 1.5942667652094484e-16
  outer loop
    vertex 2.0000000000000018 -9.999999999999998 -2.0000000000000018
    vertex 2.000000000000003 -4.999999999999997 10.000000000000002
    vertex 1.9999999999999967 -5.000000000000001 -5.0
  endloop
endfacet
facet normal -1.0 1.2985559942431801e-16 1.5942667652094484e-16
  outer loop
    vertex 2.0000000000000013 -16.50000000000001 9.999999999999998
    vertex 1.9999999999999978 -22.999999999999993 -5.000000000000001
    vertex 2.0 -23.000000000000014 10.000000000000007
  endloop
endfacet
facet normal -1.0 1.2985559942431801e-16 1.5942667652094484e-16
  outer loop
    vertex 1.9999999999999978 -22.999999999999993 -5.000000000000001
    vertex 2.0000000000000013 -16.50000000000001 9.999999999999998
    vertex 2.0000000000000013 -16.500000000000007 -2.0000000000000036
  endloop
endfacet
facet normal -1.0 1.2985559942431801e-16 1.5942667652094484e-16
  outer loop
    vertex 1.9999999999999978 -22.999999999999993 -5.000000000000001
    vertex 2.0000000000000013 -16.500000000000007 -2.0000000000000036
    vertex 1.9999999999999967 -5.000000000000001 -5.0
  endloop
endfacet
facet normal -1.0 1.2985559942431801e-16 1.5942667652094484e-16
  outer loop
    vertex 1.9999999999999967 -5.000000000000001 -5.0
    vertex 2.0000000000000013 -16.500000000000007 -2.0000000000000036
    vertex 2.0000000000000018 -9.999999999999998 -2.0000000000000018
  endloop
endfacet
facet normal 4.445423353229633e-17 2.289834988289385e-16 1.0
  outer loop
    vertex 22.0 -16.50000000000001 -2.0000000000000053
    vertex 2.0000000000000018 -9.999999999999998 -2.0000000000000018
    vertex 2.0000000000000013 -16.500000000000007 -2.0000000000000036
  endloop
endfacet
facet normal 4.445423353229633e-17 2.289834988289385e-16 1.0
  outer loop
    vertex 2.0000000000000018 -9.999999999999998 -2.0000000000000018
    vertex 22.0 -16.50000000000001 -2.0000000000000053
    vertex 22.0 -10.000000000000004 -1.9999999999999998
  endloop
endfacet
facet normal -1.0 2.89282275945263e-16 2.957107709662688e-17
  outer loop
    vertex 22.0 -16.500000000000004 17.999999999999996
    vertex 22.0 -10.000000000000004 -1.9999999999999998
    vertex 22.0 -16.50000000000001 -2.0000000000000053
  endloop
endfacet
facet normal -1.0 2.89282275945263e-16 2.957107709662688e-17
  outer loop
    vertex 22.0 -10.000000000000004 -1.9999999999999998
    vertex 22.0 -16.500000000000004 17.999999999999996
    vertex 22.0 -10.00000000000001 18.000000000000007
  endloop
endfacet
facet normal 1.304380897388978e-16 1.0 9.020562075079394e-17
  outer loop
    vertex 2.0000000000000013 -16.500000000000007 -2.0000000000000036
    vertex 8.96472381958992 -16.50000000000002 6.136296694843736
    vertex 10.000000000000004 -16.50000000000002 6.00000000000001
  endloop
endfacet
facet normal 1.304380897388978e-16 1.0 9.020562075079394e-17
  outer loop
    vertex 8.96472381958992 -16.50000000000002 6.136296694843736
    vertex 2.0000000000000013 -16.500000000000007 -2.0000000000000036
    vertex 8.000000000000005 -16.500000000000014 6.535898384862254
  endloop
endfacet
facet normal 1.304380897388978e-16 1.0 9.020562075079394e-17
  outer loop
    vertex 8.000000000000005 -16.500000000000014 6.535898384862254
    vertex 2.0000000000000013 -16.500000000000007 -2.0000000000000036
    vertex 2.0000000000000013 -16.50000000000001 9.999999999999998
  endloop
endfacet
facet normal 1.304380897388978e-16 1.0 9.020562075079394e-17
  outer loop
    vertex 8.000000000000005 -16.500000000000014 6.535898384862254
    vertex 2.0000000000000013 -16.50000000000001 9.999999999999998
    vertex 7.171572875253813 -16.500000000000014 7.17157287525382
  endloop
endfacet
facet normal 1.304380897388978e-16 1.0 9.020562075079394e-17
  outer loop
    vertex 7.171572875253813 -16.500000000000014 7.17157287525382
    vertex 2.0000000000000013 -16.50000000000001 9.999999999999998
    vertex 6.535898384862249 -16.500000000000014 8.000000000000007
  endloop
endfacet
facet normal 1.304380897388978e-16 1.0 9.020562075079394e-17
  outer loop
    vertex 6.535898384862249 -16.500000000000014 8.000000000000007
    vertex 2.0000000000000013 -16.50000000000001 9.999999999999998
    vertex 6.1362966948437325 -16.500000000000014 8.964723819589924
  endloop
endfacet
facet normal 1.304380897388978e-16 1.0 9.020562075079394e-17
  outer loop
    vertex 6.1362966948437325 -16.500000000000014 8.964723819589924
    vertex 2.0000000000000013 -16.50000000000001 9.999999999999998
    vertex 6.000000000000005 -16.500000000000014 10.00000000000001
  endloop
endfacet
facet normal 1.304380897388978e-16 1.0 9.020562075079394e-17
  outer loop
    vertex 6.000000000000005 -16.500000000000014 10.00000000000001
    vertex 2.0000000000000013 -16.50000000000001 9.999999999999998
    vertex 2.272593389687456 -16.50000000000001 12.070552360820164
  endloop
endfacet
facet normal 1.304380897388978e-16 1.0 9.020562075079394e-17
  outer loop
    vertex 6.000000000000005 -16.500000000000014 10.00000000000001
    vertex 2.272593389687456 -16.50000000000001 12.070552360820164
    vertex 6.1362966948437325 -16.500000000000014 11.035276180410092
  endloop
endfacet
facet normal 1.304380897388978e-16 1.0 9.020562075079394e-17
  outer loop
    vertex 6.1362966948437325 -16.500000000000014 11.035276180410092
    vertex 2.272593389687456 -16.50000000000001 12.070552360820164
    vertex 6.535898384862247 -16.500000000000014 12.000000000000009
  endloop
endfacet
facet normal 1.304380897388978e-16 1.0 9.020562075079394e-17
  outer loop
    vertex 6.535898384862247 -16.500000000000014 12.000000000000009
    vertex 2.272593389687456 -16.50000000000001 12.070552360820164
    vertex 7.171572875253811 -16.500000000000014 12.828427124746199
  endloop
endfacet
facet normal 1.304380897388978e-16 1.0 9.020562075079394e-17
  outer loop
    vertex 7.171572875253811 -16.500000000000014 12.828427124746199
    vertex 2.272593389687456 -16.50000000000001 12.070552360820164
    vertex 3.071796769724494 -16.50000000000001 14.000000000000002
  endloop
endfacet
facet normal 1.304380897388978e-16 1.0 9.020562075079394e-17
  outer loop
    vertex 7.171572875253811 -16.500000000000014 12.828427124746199
    vertex 3.071796769724494 -16.50000000000001 14.000000000000002
    vertex 8.0 -16.50000000000002 13.464101615137764
  endloop
endfacet
facet normal 1.304380897388978e-16 1.0 9.020562075079394e-17
  outer loop
    vertex 8.0 -16.50000000000002 13.464101615137764
    vertex 3.071796769724494 -16.50000000000001 14.000000000000002
    vertex 8.964723819589917 -16.50000000000002 13.863703305156282
  endloop
endfacet
facet normal 1.304380897388978e-16 1.0 9.020562075079394e-17
  outer loop
    vertex 8.964723819589917 -16.50000000000002 13.863703305156282
    vertex 3.071796769724494 -16.50000000000001 14.000000000000002
    vertex 10.000000000000002 -16.50000000000002 14.000000000000009
  endloop
endfacet
facet normal 1.304380897388978e-16 1.0 9.020562075079394e-17
  outer loop
    vertex 10.000000000000002 -16.50000000000002 14.000000000000009
    vertex 3.071796769724494 -16.50000000000001 14.000000000000002
    vertex 4.343145750507623 -16.500000000000007 15.656854249492387
  endloop
endfacet
facet normal 1.304380897388978e-16 1.0 9.020562075079394e-17
  outer loop
    vertex 22.0 -16.50000000000001 -2.0000000000000053
    vertex 12.828427124746188 -16.50000000000002 7.171572875253821
    vertex 22.0 -16.500000000000004 17.999999999999996
  endloop
endfacet
facet normal 1.304380897388978e-16 1.0 9.020562075079394e-17
  outer loop
    vertex 12.828427124746188 -16.50000000000002 7.171572875253821
    vertex 22.0 -16.50000000000001 -2.0000000000000053
    vertex 2.0000000000000013 -16.500000000000007 -2.0000000000000036
  endloop
endfacet
facet normal 1.304380897388978e-16 1.0 9.020562075079394e-17
  outer loop
    vertex 12.828427124746188 -16.50000000000002 7.171572875253821
    vertex 2.0000000000000013 -16.500000000000007 -2.0000000000000036
    vertex 12.000000000000002 -16.50000000000002 6.535898384862256
  endloop
endfacet
facet normal 1.304380897388978e-16 1.0 9.020562075079394e-17
  outer loop
    vertex 12.000000000000002 -16.50000000000002 6.535898384862256
    vertex 2.0000000000000013 -16.500000000000007 -2.0000000000000036
    vertex 11.035276180410087 -16.50000000000002 6.136296694843737
  endloop
endfacet
facet normal 1.304380897388978e-16 1.0 9.020562075079394e-17
  outer loop
    vertex 11.035276180410087 -16.50000000000002 6.136296694843737
    vertex 2.0000000000000013 -16.500000000000007 -2.0000000000000036
    vertex 10.000000000000004 -16.50000000000002 6.00000000000001
  endloop
endfacet
facet normal 1.304380897388978e-16 1.0 9.020562075079394e-17
  outer loop
    vertex 22.0 -16.500000000000004 17.999999999999996
    vertex 12.828427124746188 -16.50000000000002 7.171572875253821
    vertex 13.464101615137752 -16.50000000000002 8.00000000000001
  endloop
endfacet
facet normal 1.304380897388978e-16 1.0 9.020562075079394e-17
  outer loop
    vertex 22.0 -16.500000000000004 17.999999999999996
    vertex 13.464101615137752 -16.50000000000002 8.00000000000001
    vertex 13.86370330515627 -16.50000000000002 8.96472381958993
  endloop
endfacet
facet normal 1.304380897388978e-16 1.0 9.020562075079394e-17
  outer loop
    vertex 22.0 -16.500000000000004 17.999999999999996
    vertex 13.86370330515627 -16.50000000000002 8.96472381958993
    vertex 13.999999999999996 -16.50000000000002 10.00000000000001
  endloop
endfacet
facet normal 1.304380897388978e-16 1.0 9.020562075079394e-17
  outer loop
    vertex 22.0 -16.500000000000004 17.999999999999996
    vertex 13.999999999999996 -16.50000000000002 10.00000000000001
    vertex 13.86370330515627 -16.50000000000002 11.035276180410094
  endloop
endfacet
facet normal 1.304380897388978e-16 1.0 9.020562075079394e-17
  outer loop
    vertex 22.0 -16.500000000000004 17.999999999999996
    vertex 13.86370330515627 -16.50000000000002 11.035276180410094
    vertex 13.46410161513775 -16.50000000000002 12.000000000000012
  endloop
endfacet
facet normal 1.304380897388978e-16 1.0 9.020562075079394e-17
  outer loop
    vertex 22.0 -16.500000000000004 17.999999999999996
    vertex 13.46410161513775 -16.50000000000002 12.000000000000012
    vertex 12.828427124746188 -16.50000000000002 12.8284271247462
  endloop
endfacet
facet normal 1.304380897388978e-16 1.0 9.020562075079394e-17
  outer loop
    vertex 22.0 -16.500000000000004 17.999999999999996
    vertex 12.828427124746188 -16.50000000000002 12.8284271247462
    vertex 12.0 -16.50000000000002 13.464101615137764
  endloop
endfacet
facet normal 1.304380897388978e-16 1.0 9.020562075079394e-17
  outer loop
    vertex 22.0 -16.500000000000004 17.999999999999996
    vertex 12.0 -16.50000000000002 13.464101615137764
    vertex 11.035276180410085 -16.50000000000002 13.863703305156282
  endloop
endfacet
facet normal 1.304380897388978e-16 1.0 9.020562075079394e-17
  outer loop
    vertex 22.0 -16.500000000000004 17.999999999999996
    vertex 11.035276180410085 -16.50000000000002 13.863703305156282
    vertex 10.000000000000002 -16.50000000000002 14.000000000000009
  endloop
endfacet
facet normal 1.304380897388978e-16 1.0 9.020562075079394e-17
  outer loop
    vertex 22.0 -16.500000000000004 17.999999999999996
    vertex 10.000000000000002 -16.50000000000002 14.000000000000009
    vertex 4.343145750507623 -16.500000000000007 15.656854249492387
  endloop
endfacet
facet normal 1.304380897388978e-16 1.0 9.020562075079394e-17
  outer loop
    vertex 22.0 -16.500000000000004 17.999999999999996
    vertex 4.343145750507623 -16.500000000000007 15.656854249492387
    vertex 6.000000000000007 -16.500000000000007 16.92820323027551
  endloop
endfacet
facet normal 1.304380897388978e-16 1.0 9.020562075079394e-17
  outer loop
    vertex 22.0 -16.500000000000004 17.999999999999996
    vertex 6.000000000000007 -16.500000000000007 16.92820323027551
    vertex 7.929447639179839 -16.50000000000001 17.727406610312553
  endloop
endfacet
facet normal 1.304380897388978e-16 1.0 9.020562075079394e-17
  outer loop
    vertex 22.0 -16.500000000000004 17.999999999999996
    vertex 7.929447639179839 -16.50000000000001 17.727406610312553
    vertex 10.000000000000002 -16.50000000000001 17.999999999999996
  endloop
endfacet
facet normal -0.1305261922200519 7.632783294297951e-17 0.9914448613738105
  outer loop
    vertex 10.000000000000002 -23.000000000000007 18.000000000000007
    vertex 7.929447639179839 -16.50000000000001 17.727406610312553
    vertex 7.929447639179839 -23.0 17.72740661031255
  endloop
endfacet
facet normal -0.1305261922200519 7.632783294297951e-17 0.9914448613738105
  outer loop
    vertex 7.929447639179839 -16.50000000000001 17.727406610312553
    vertex 10.000000000000002 -23.000000000000007 18.000000000000007
    vertex 10.000000000000002 -16.50000000000001 17.999999999999996
  endloop
endfacet
facet normal -0.3826834323650891 8.326672684688672e-17 0.923879532511287
  outer loop
    vertex 7.929447639179839 -23.0 17.72740661031255
    vertex 6.000000000000007 -16.500000000000007 16.92820323027551
    vertex 6.000000000000006 -23.000000000000007 16.928203230275514
  endloop
endfacet
facet normal -0.3826834323650891 8.326672684688672e-17 0.923879532511287
  outer loop
    vertex 6.000000000000007 -16.500000000000007 16.92820323027551
    vertex 7.929447639179839 -23.0 17.72740661031255
    vertex 7.929447639179839 -16.50000000000001 17.727406610312553
  endloop
endfacet
facet normal -0.6087614290087202 6.938893903907227e-18 0.7933533402912355
  outer loop
    vertex 6.000000000000006 -23.000000000000007 16.928203230275514
    vertex 4.343145750507623 -16.500000000000007 15.656854249492387
    vertex 4.343145750507623 -23.000000000000018 15.656854249492385
  endloop
endfacet
facet normal -0.6087614290087202 6.938893903907227e-18 0.7933533402912355
  outer loop
    vertex 4.343145750507623 -16.500000000000007 15.656854249492387
    vertex 6.000000000000006 -23.000000000000007 16.928203230275514
    vertex 6.000000000000007 -16.500000000000007 16.92820323027551
  endloop
endfacet
facet normal -0.7933533402912356 -1.491862189340054e-16 0.6087614290087203
  outer loop
    vertex 4.343145750507623 -16.500000000000007 15.656854249492387
    vertex 3.071796769724493 -23.00000000000001 14.000000000000009
    vertex 4.343145750507623 -23.000000000000018 15.656854249492385
  endloop
endfacet
facet normal -0.7933533402912356 -1.491862189340054e-16 0.6087614290087203
  outer loop
    vertex 3.071796769724493 -23.00000000000001 14.000000000000009
    vertex 4.343145750507623 -16.500000000000007 15.656854249492387
    vertex 3.071796769724494 -16.50000000000001 14.000000000000002
  endloop
endfacet
facet normal -0.9238795325112866 -5.551115123125783e-17 0.3826834323650905
  outer loop
    vertex 3.071796769724493 -23.00000000000001 14.000000000000009
    vertex 2.272593389687456 -16.50000000000001 12.070552360820164
    vertex 2.2725933896874553 -23.00000000000002 12.07055236082017
  endloop
endfacet
facet normal -0.9238795325112866 -5.551115123125783e-17 0.3826834323650905
  outer loop
    vertex 2.272593389687456 -16.50000000000001 12.070552360820164
    vertex 3.071796769724493 -23.00000000000001 14.000000000000009
    vertex 3.071796769724494 -16.50000000000001 14.000000000000002
  endloop
endfacet
facet normal -1.6530631517081086e-16 -1.0 -9.020562075079394e-17
  outer loop
    vertex 25.0 -23.000000000000014 18.000000000000018
    vertex 1.9999999999999978 -22.999999999999993 -5.000000000000001
    vertex 25.0 -22.999999999999996 -5.000000000000005
  endloop
endfacet
facet normal -1.6530631517081086e-16 -1.0 -9.020562075079394e-17
  outer loop
    vertex 1.9999999999999978 -22.999999999999993 -5.000000000000001
    vertex 25.0 -23.000000000000014 18.000000000000018
    vertex 12.82842712474619 -23.000000000000018 7.171572875253821
  endloop
endfacet
facet normal -1.6530631517081086e-16 -1.0 -9.020562075079394e-17
  outer loop
    vertex 1.9999999999999978 -22.999999999999993 -5.000000000000001
    vertex 12.82842712474619 -23.000000000000018 7.171572875253821
    vertex 12.0 -23.000000000000014 6.535898384862256
  endloop
endfacet
facet normal -1.6530631517081086e-16 -1.0 -9.020562075079394e-17
  outer loop
    vertex 1.9999999999999978 -22.999999999999993 -5.000000000000001
    vertex 12.0 -23.000000000000014 6.535898384862256
    vertex 11.035276180410085 -23.000000000000014 6.136296694843738
  endloop
endfacet
facet normal -1.6530631517081086e-16 -1.0 -9.020562075079394e-17
  outer loop
    vertex 1.9999999999999978 -22.999999999999993 -5.000000000000001
    vertex 11.035276180410085 -23.000000000000014 6.136296694843738
    vertex 10.000000000000002 -23.000000000000014 6.00000000000001
  endloop
endfacet
facet normal -1.6530631517081086e-16 -1.0 -9.020562075079394e-17
  outer loop
    vertex 12.82842712474619 -23.000000000000018 7.171572875253821
    vertex 25.0 -23.000000000000014 18.000000000000018
    vertex 13.464101615137755 -23.000000000000018 8.00000000000001
  endloop
endfacet
facet normal -1.6530631517081086e-16 -1.0 -9.020562075079394e-17
  outer loop
    vertex 13.464101615137755 -23.000000000000018 8.00000000000001
    vertex 25.0 -23.000000000000014 18.000000000000018
    vertex 13.863703305156273 -23.000000000000018 8.96472381958993
  endloop
endfacet
facet normal -1.6530631517081086e-16 -1.0 -9.020562075079394e-17
  outer loop
    vertex 13.863703305156273 -23.000000000000018 8.96472381958993
    vertex 25.0 -23.000000000000014 18.000000000000018
    vertex 14.0 -23.000000000000018 10.00000000000001
  endloop
endfacet
facet normal -1.6530631517081086e-16 -1.0 -9.020562075079394e-17
  outer loop
    vertex 14.0 -23.000000000000018 10.00000000000001
    vertex 25.0 -23.000000000000014 18.000000000000018
    vertex 13.863703305156273 -23.000000000000018 11.035276180410094
  endloop
endfacet
facet normal -1.6530631517081086e-16 -1.0 -9.020562075079394e-17
  outer loop
    vertex 13.863703305156273 -23.000000000000018 11.035276180410094
    vertex 25.0 -23.000000000000014 18.000000000000018
    vertex 13.464101615137752 -23.000000000000018 12.000000000000012
  endloop
endfacet
facet normal -1.6530631517081086e-16 -1.0 -9.020562075079394e-17
  outer loop
    vertex 13.464101615137752 -23.000000000000018 12.000000000000012
    vertex 25.0 -23.000000000000014 18.000000000000018
    vertex 12.82842712474619 -23.000000000000018 12.8284271247462
  endloop
endfacet
facet normal -1.6530631517081086e-16 -1.0 -9.020562075079394e-17
  outer loop
    vertex 12.82842712474619 -23.000000000000018 12.8284271247462
    vertex 25.0 -23.000000000000014 18.000000000000018
    vertex 11.999999999999998 -23.000000000000018 13.464101615137764
  endloop
endfacet
facet normal -1.6530631517081086e-16 -1.0 -9.020562075079394e-17
  outer loop
    vertex 11.999999999999998 -23.000000000000018 13.464101615137764
    vertex 25.0 -23.000000000000014 18.000000000000018
    vertex 11.035276180410083 -23.000000000000014 13.863703305156282
  endloop
endfacet
facet normal -1.6530631517081086e-16 -1.0 -9.020562075079394e-17
  outer loop
    vertex 11.035276180410083 -23.000000000000014 13.863703305156282
    vertex 25.0 -23.000000000000014 18.000000000000018
    vertex 10.0 -23.000000000000014 14.000000000000009
  endloop
endfacet
facet normal -1.6530631517081086e-16 -1.0 -9.020562075079394e-17
  outer loop
    vertex 10.0 -23.000000000000014 14.000000000000009
    vertex 25.0 -23.000000000000014 18.000000000000018
    vertex 3.071796769724493 -23.00000000000001 14.000000000000009
  endloop
endfacet
facet normal -1.6530631517081086e-16 -1.0 -9.020562075079394e-17
  outer loop
    vertex 3.071796769724493 -23.00000000000001 14.000000000000009
    vertex 25.0 -23.000000000000014 18.000000000000018
    vertex 4.343145750507623 -23.000000000000018 15.656854249492385
  endloop
endfacet
facet normal -1.6530631517081086e-16 -1.0 -9.020562075079394e-17
  outer loop
    vertex 4.343145750507623 -23.000000000000018 15.656854249492385
    vertex 25.0 -23.000000000000014 18.000000000000018
    vertex 6.000000000000006 -23.000000000000007 16.928203230275514
  endloop
endfacet
facet normal -1.6530631517081086e-16 -1.0 -9.020562075079394e-17
  outer loop
    vertex 6.000000000000006 -23.000000000000007 16.928203230275514
    vertex 25.0 -23.000000000000014 18.000000000000018
    vertex 7.929447639179839 -23.0 17.72740661031255
  endloop
endfacet
facet normal -1.6530631517081086e-16 -1.0 -9.020562075079394e-17
  outer loop
    vertex 7.929447639179839 -23.0 17.72740661031255
    vertex 25.0 -23.000000000000014 18.000000000000018
    vertex 10.000000000000002 -23.000000000000007 18.000000000000007
  endloop
endfacet
facet normal -1.6530631517081086e-16 -1.0 -9.020562075079394e-17
  outer loop
    vertex 1.9999999999999978 -22.999999999999993 -5.000000000000001
    vertex 8.000000000000004 -23.00000000000001 6.535898384862254
    vertex 2.0 -23.000000000000014 10.000000000000007
  endloop
endfacet
facet normal -1.6530631517081086e-16 -1.0 -9.020562075079394e-17
  outer loop
    vertex 8.000000000000004 -23.00000000000001 6.535898384862254
    vertex 1.9999999999999978 -22.999999999999993 -5.000000000000001
    vertex 8.964723819589919 -23.000000000000014 6.136296694843736
  endloop
endfacet
facet normal -1.6530631517081086e-16 -1.0 -9.020562075079394e-17
  outer loop
    vertex 8.964723819589919 -23.000000000000014 6.136296694843736
    vertex 1.9999999999999978 -22.999999999999993 -5.000000000000001
    vertex 10.000000000000002 -23.000000000000014 6.00000000000001
  endloop
endfacet
facet normal -1.6530631517081086e-16 -1.0 -9.020562075079394e-17
  outer loop
    vertex 2.0 -23.000000000000014 10.000000000000007
    vertex 8.000000000000004 -23.00000000000001 6.535898384862254
    vertex 7.171572875253811 -23.00000000000001 7.17157287525382
  endloop
endfacet
facet normal -1.6530631517081086e-16 -1.0 -9.020562075079394e-17
  outer loop
    vertex 2.0 -23.000000000000014 10.000000000000007
    vertex 7.171572875253811 -23.00000000000001 7.17157287525382
    vertex 6.535898384862247 -23.00000000000001 8.000000000000007
  endloop
endfacet
facet normal -1.6530631517081086e-16 -1.0 -9.020562075079394e-17
  outer loop
    vertex 2.0 -23.000000000000014 10.000000000000007
    vertex 6.535898384862247 -23.00000000000001 8.000000000000007
    vertex 6.136296694843729 -23.00000000000001 8.964723819589924
  endloop
endfacet
facet normal -1.6530631517081086e-16 -1.0 -9.020562075079394e-17
  outer loop
    vertex 2.0 -23.000000000000014 10.000000000000007
    vertex 6.136296694843729 -23.00000000000001 8.964723819589924
    vertex 6.000000000000001 -23.00000000000001 10.00000000000001
  endloop
endfacet
facet normal -1.6530631517081086e-16 -1.0 -9.020562075079394e-17
  outer loop
    vertex 2.0 -23.000000000000014 10.000000000000007
    vertex 6.000000000000001 -23.00000000000001 10.00000000000001
    vertex 2.2725933896874553 -23.00000000000002 12.07055236082017
  endloop
endfacet
facet normal -1.6530631517081086e-16 -1.0 -9.020562075079394e-17
  outer loop
    vertex 2.2725933896874553 -23.00000000000002 12.07055236082017
    vertex 6.000000000000001 -23.00000000000001 10.00000000000001
    vertex 6.136296694843728 -23.00000000000001 11.035276180410092
  endloop
endfacet
facet normal -1.6530631517081086e-16 -1.0 -9.020562075079394e-17
  outer loop
    vertex 2.2725933896874553 -23.00000000000002 12.07055236082017
    vertex 6.136296694843728 -23.00000000000001 11.035276180410092
    vertex 6.5358983848622465 -23.00000000000001 12.000000000000009
  endloop
endfacet
facet normal -1.6530631517081086e-16 -1.0 -9.020562075079394e-17
  outer loop
    vertex 2.2725933896874553 -23.00000000000002 12.07055236082017
    vertex 6.5358983848622465 -23.00000000000001 12.000000000000009
    vertex 7.17157287525381 -23.00000000000001 12.828427124746199
  endloop
endfacet
facet normal -1.6530631517081086e-16 -1.0 -9.020562075079394e-17
  outer loop
    vertex 2.2725933896874553 -23.00000000000002 12.07055236082017
    vertex 7.17157287525381 -23.00000000000001 12.828427124746199
    vertex 3.071796769724493 -23.00000000000001 14.000000000000009
  endloop
endfacet
facet normal -1.6530631517081086e-16 -1.0 -9.020562075079394e-17
  outer loop
    vertex 3.071796769724493 -23.00000000000001 14.000000000000009
    vertex 7.17157287525381 -23.00000000000001 12.828427124746199
    vertex 7.999999999999999 -23.000000000000014 13.464101615137764
  endloop
endfacet
facet normal -1.6530631517081086e-16 -1.0 -9.020562075079394e-17
  outer loop
    vertex 3.071796769724493 -23.00000000000001 14.000000000000009
    vertex 7.999999999999999 -23.000000000000014 13.464101615137764
    vertex 8.964723819589915 -23.000000000000014 13.863703305156282
  endloop
endfacet
facet normal -1.6530631517081086e-16 -1.0 -9.020562075079394e-17
  outer loop
    vertex 3.071796769724493 -23.00000000000001 14.000000000000009
    vertex 8.964723819589915 -23.000000000000014 13.863703305156282
    vertex 10.0 -23.000000000000014 14.000000000000009
  endloop
endfacet
facet normal -0.9914448613738104 1.2576745200831851e-16 0.13052619222005207
  outer loop
    vertex 2.272593389687456 -16.50000000000001 12.070552360820164
    vertex 2.0 -23.000000000000014 10.000000000000007
    vertex 2.2725933896874553 -23.00000000000002 12.07055236082017
  endloop
endfacet
facet normal -0.9914448613738104 1.2576745200831851e-16 0.13052619222005207
  outer loop
    vertex 2.0 -23.000000000000014 10.000000000000007
    vertex 2.272593389687456 -16.50000000000001 12.070552360820164
    vertex 2.0000000000000013 -16.50000000000001 9.999999999999998
  endloop
endfacet
facet normal -0.99144486137381 2.713863870410292e-17 0.1305261922200541
  outer loop
    vertex 14.0 -5.0 10.000000000000004
    vertex 13.86370330515627 -9.999999999999995 8.964723819589917
    vertex 14.0 -9.999999999999995 10.000000000000004
  endloop
endfacet
facet normal -0.99144486137381 2.713863870410292e-17 0.1305261922200541
  outer loop
    vertex 13.86370330515627 -9.999999999999995 8.964723819589917
    vertex 14.0 -5.0 10.000000000000004
    vertex 13.86370330515627 -5.0 8.964723819589919
  endloop
endfacet
facet normal -0.9238795325112861 7.956646273334432e-17 0.3826834323650913
  outer loop
    vertex 13.86370330515627 -5.0 8.964723819589919
    vertex 13.46410161513775 -9.999999999999995 8.0
    vertex 13.86370330515627 -9.999999999999995 8.964723819589917
  endloop
endfacet
facet normal -0.9238795325112861 7.956646273334432e-17 0.3826834323650913
  outer loop
    vertex 13.46410161513775 -9.999999999999995 8.0
    vertex 13.86370330515627 -5.0 8.964723819589919
    vertex 13.46410161513775 -5.000000000000001 8.000000000000002
  endloop
endfacet
facet normal -0.7933533402912356 1.2657196381710487e-16 0.6087614290087203
  outer loop
    vertex 13.46410161513775 -5.000000000000001 8.000000000000002
    vertex 12.828427124746188 -9.999999999999995 7.171572875253813
    vertex 13.46410161513775 -9.999999999999995 8.0
  endloop
endfacet
facet normal -0.7933533402912356 1.2657196381710487e-16 0.6087614290087203
  outer loop
    vertex 12.828427124746188 -9.999999999999995 7.171572875253813
    vertex 13.46410161513775 -5.000000000000001 8.000000000000002
    vertex 12.828427124746188 -5.000000000000001 7.171572875253814
  endloop
endfacet
facet normal -0.6087614290087192 1.6495179473679051e-16 0.7933533402912364
  outer loop
    vertex 12.828427124746188 -9.999999999999995 7.171572875253813
    vertex 11.999999999999995 -5.000000000000001 6.53589838486225
    vertex 11.999999999999995 -9.999999999999995 6.535898384862249
  endloop
endfacet
facet normal -0.6087614290087192 1.6495179473679051e-16 0.7933533402912364
  outer loop
    vertex 11.999999999999995 -5.000000000000001 6.53589838486225
    vertex 12.828427124746188 -9.999999999999995 7.171572875253813
    vertex 12.828427124746188 -5.000000000000001 7.171572875253814
  endloop
endfacet
facet normal -0.38268343236508895 1.92090433440893e-16 0.9238795325112871
  outer loop
    vertex 11.999999999999995 -9.999999999999995 6.535898384862249
    vertex 11.035276180410078 -5.000000000000001 6.1362966948437325
    vertex 11.035276180410078 -9.999999999999995 6.1362966948437325
  endloop
endfacet
facet normal -0.38268343236508895 1.92090433440893e-16 0.9238795325112871
  outer loop
    vertex 11.035276180410078 -5.000000000000001 6.1362966948437325
    vertex 11.999999999999995 -9.999999999999995 6.535898384862249
    vertex 11.999999999999995 -5.000000000000001 6.53589838486225
  endloop
endfacet
facet normal -0.13052619222005046 2.0613842655044928e-16 0.9914448613738105
  outer loop
    vertex 11.035276180410078 -9.999999999999995 6.1362966948437325
    vertex 9.999999999999996 -5.000000000000001 6.000000000000007
    vertex 9.999999999999996 -9.999999999999995 6.000000000000007
  endloop
endfacet
facet normal -0.13052619222005046 2.0613842655044928e-16 0.9914448613738105
  outer loop
    vertex 9.999999999999996 -5.000000000000001 6.000000000000007
    vertex 11.035276180410078 -9.999999999999995 6.1362966948437325
    vertex 11.035276180410078 -5.000000000000001 6.1362966948437325
  endloop
endfacet
facet normal 0.13052619222005296 2.061384265504493e-16 0.9914448613738103
  outer loop
    vertex 9.999999999999996 -9.999999999999995 6.000000000000007
    vertex 8.964723819589912 -5.000000000000001 6.136296694843736
    vertex 8.964723819589912 -9.999999999999995 6.136296694843736
  endloop
endfacet
facet normal 0.13052619222005296 2.061384265504493e-16 0.9914448613738103
  outer loop
    vertex 8.964723819589912 -5.000000000000001 6.136296694843736
    vertex 9.999999999999996 -9.999999999999995 6.000000000000007
    vertex 9.999999999999996 -5.000000000000001 6.000000000000007
  endloop
endfacet
facet normal 0.38268343236509184 1.9209043344089292e-16 0.9238795325112861
  outer loop
    vertex 8.964723819589912 -9.999999999999995 6.136296694843736
    vertex 7.9999999999999964 -5.000000000000001 6.535898384862256
    vertex 7.9999999999999964 -9.999999999999995 6.5358983848622545
  endloop
endfacet
facet normal 0.38268343236509184 1.9209043344089292e-16 0.9238795325112861
  outer loop
    vertex 7.9999999999999964 -5.000000000000001 6.535898384862256
    vertex 8.964723819589912 -9.999999999999995 6.136296694843736
    vertex 8.964723819589912 -5.000000000000001 6.136296694843736
  endloop
endfacet
facet normal 0.6087614290087213 1.6495179473679044e-16 0.7933533402912347
  outer loop
    vertex 7.9999999999999964 -9.999999999999995 6.5358983848622545
    vertex 7.1715728752538075 -5.000000000000001 7.171572875253821
    vertex 7.1715728752538075 -9.999999999999995 7.17157287525382
  endloop
endfacet
facet normal 0.6087614290087213 1.6495179473679044e-16 0.7933533402912347
  outer loop
    vertex 7.1715728752538075 -5.000000000000001 7.171572875253821
    vertex 7.9999999999999964 -9.999999999999995 6.5358983848622545
    vertex 7.9999999999999964 -5.000000000000001 6.535898384862256
  endloop
endfacet
facet normal 0.7933533402912359 1.2657196381710506e-16 0.6087614290087197
  outer loop
    vertex 7.1715728752538075 -5.000000000000001 7.171572875253821
    vertex 6.535898384862245 -9.999999999999995 8.000000000000009
    vertex 7.1715728752538075 -9.999999999999995 7.17157287525382
  endloop
endfacet
facet normal 0.7933533402912359 1.2657196381710506e-16 0.6087614290087197
  outer loop
    vertex 6.535898384862245 -9.999999999999995 8.000000000000009
    vertex 7.1715728752538075 -5.000000000000001 7.171572875253821
    vertex 6.535898384862245 -5.000000000000001 8.00000000000001
  endloop
endfacet
facet normal 0.9238795325112872 7.956646273334425e-17 0.38268343236508917
  outer loop
    vertex 6.535898384862245 -5.000000000000001 8.00000000000001
    vertex 6.136296694843726 -9.999999999999995 8.964723819589928
    vertex 6.535898384862245 -9.999999999999995 8.000000000000009
  endloop
endfacet
facet normal 0.9238795325112872 7.956646273334425e-17 0.38268343236508917
  outer loop
    vertex 6.136296694843726 -9.999999999999995 8.964723819589928
    vertex 6.535898384862245 -5.000000000000001 8.00000000000001
    vertex 6.136296694843726 -5.0 8.96472381958993
  endloop
endfacet
facet normal 0.9914448613738105 2.7138638704102603e-17 0.13052619222005063
  outer loop
    vertex 6.136296694843726 -5.0 8.96472381958993
    vertex 6.000000000000001 -9.999999999999995 10.000000000000009
    vertex 6.136296694843726 -9.999999999999995 8.964723819589928
  endloop
endfacet
facet normal 0.9914448613738105 2.7138638704102603e-17 0.13052619222005063
  outer loop
    vertex 6.000000000000001 -9.999999999999995 10.000000000000009
    vertex 6.136296694843726 -5.0 8.96472381958993
    vertex 6.000000000000001 -5.0 10.00000000000001
  endloop
endfacet
facet normal 0.9914448613738104 -2.7138638704102548e-17 -0.1305261922200523
  outer loop
    vertex 6.000000000000001 -5.0 10.00000000000001
    vertex 6.136296694843729 -9.999999999999995 11.035276180410092
    vertex 6.000000000000001 -9.999999999999995 10.000000000000009
  endloop
endfacet
facet normal 0.9914448613738104 -2.7138638704102548e-17 -0.1305261922200523
  outer loop
    vertex 6.136296694843729 -9.999999999999995 11.035276180410092
    vertex 6.000000000000001 -5.0 10.00000000000001
    vertex 6.136296694843729 -5.0 11.035276180410094
  endloop
endfacet
facet normal 0.9238795325112867 -7.95664627333441e-17 -0.3826834323650902
  outer loop
    vertex 6.136296694843729 -5.0 11.035276180410094
    vertex 6.535898384862247 -9.999999999999995 12.000000000000009
    vertex 6.136296694843729 -9.999999999999995 11.035276180410092
  endloop
endfacet
facet normal 0.9238795325112867 -7.95664627333441e-17 -0.3826834323650902
  outer loop
    vertex 6.535898384862247 -9.999999999999995 12.000000000000009
    vertex 6.136296694843729 -5.0 11.035276180410094
    vertex 6.535898384862247 -4.999999999999999 12.00000000000001
  endloop
endfacet
facet normal 0.7933533402912342 -1.2657196381710521e-16 -0.608761429008722
  outer loop
    vertex 6.535898384862247 -4.999999999999999 12.00000000000001
    vertex 7.171572875253813 -9.999999999999995 12.828427124746195
    vertex 6.535898384862247 -9.999999999999995 12.000000000000009
  endloop
endfacet
facet normal 0.7933533402912342 -1.2657196381710521e-16 -0.608761429008722
  outer loop
    vertex 7.171572875253813 -9.999999999999995 12.828427124746195
    vertex 6.535898384862247 -4.999999999999999 12.00000000000001
    vertex 7.171572875253813 -4.999999999999999 12.828427124746199
  endloop
endfacet
facet normal 0.6087614290087208 -1.649517947367903e-16 -0.7933533402912353
  outer loop
    vertex 8.000000000000004 -4.999999999999999 13.464101615137764
    vertex 7.171572875253813 -9.999999999999995 12.828427124746195
    vertex 7.171572875253813 -4.999999999999999 12.828427124746199
  endloop
endfacet
facet normal 0.6087614290087208 -1.649517947367903e-16 -0.7933533402912353
  outer loop
    vertex 7.171572875253813 -9.999999999999995 12.828427124746195
    vertex 8.000000000000004 -4.999999999999999 13.464101615137764
    vertex 8.000000000000004 -9.999999999999995 13.46410161513776
  endloop
endfacet
facet normal 0.38268343236508895 -1.92090433440893e-16 -0.9238795325112871
  outer loop
    vertex 8.96472381958992 -4.999999999999999 13.863703305156282
    vertex 8.000000000000004 -9.999999999999995 13.46410161513776
    vertex 8.000000000000004 -4.999999999999999 13.464101615137764
  endloop
endfacet
facet normal 0.38268343236508895 -1.92090433440893e-16 -0.9238795325112871
  outer loop
    vertex 8.000000000000004 -9.999999999999995 13.46410161513776
    vertex 8.96472381958992 -4.999999999999999 13.863703305156282
    vertex 8.96472381958992 -9.999999999999995 13.863703305156278
  endloop
endfacet
facet normal 0.1305261922200518 -2.0613842655044926e-16 -0.9914448613738104
  outer loop
    vertex 10.000000000000004 -4.999999999999999 14.000000000000009
    vertex 8.96472381958992 -9.999999999999995 13.863703305156278
    vertex 8.96472381958992 -4.999999999999999 13.863703305156282
  endloop
endfacet
facet normal 0.1305261922200518 -2.0613842655044926e-16 -0.9914448613738104
  outer loop
    vertex 8.96472381958992 -9.999999999999995 13.863703305156278
    vertex 10.000000000000004 -4.999999999999999 14.000000000000009
    vertex 10.000000000000004 -9.999999999999995 14.000000000000005
  endloop
endfacet
facet normal -0.1305261922200543 -2.0613842655044926e-16 -0.9914448613738102
  outer loop
    vertex 11.035276180410087 -4.999999999999999 13.863703305156278
    vertex 10.000000000000004 -9.999999999999995 14.000000000000005
    vertex 10.000000000000004 -4.999999999999999 14.000000000000009
  endloop
endfacet
facet normal -0.1305261922200543 -2.0613842655044926e-16 -0.9914448613738102
  outer loop
    vertex 10.000000000000004 -9.999999999999995 14.000000000000005
    vertex 11.035276180410087 -4.999999999999999 13.863703305156278
    vertex 11.035276180410087 -9.999999999999995 13.863703305156276
  endloop
endfacet
facet normal -0.3826834323650895 -1.9209043344089311e-16 -0.923879532511287
  outer loop
    vertex 12.000000000000002 -4.999999999999999 13.46410161513776
    vertex 11.035276180410087 -9.999999999999995 13.863703305156276
    vertex 11.035276180410087 -4.999999999999999 13.863703305156278
  endloop
endfacet
facet normal -0.3826834323650895 -1.9209043344089311e-16 -0.923879532511287
  outer loop
    vertex 11.035276180410087 -9.999999999999995 13.863703305156276
    vertex 12.000000000000002 -4.999999999999999 13.46410161513776
    vertex 12.000000000000002 -9.999999999999995 13.464101615137759
  endloop
endfacet
facet normal -0.6087614290087208 -1.6495179473679054e-16 -0.7933533402912353
  outer loop
    vertex 12.828427124746193 -4.999999999999999 12.828427124746195
    vertex 12.000000000000002 -9.999999999999995 13.464101615137759
    vertex 12.000000000000002 -4.999999999999999 13.46410161513776
  endloop
endfacet
facet normal -0.6087614290087208 -1.6495179473679054e-16 -0.7933533402912353
  outer loop
    vertex 12.000000000000002 -9.999999999999995 13.464101615137759
    vertex 12.828427124746193 -4.999999999999999 12.828427124746195
    vertex 12.828427124746193 -9.999999999999995 12.828427124746193
  endloop
endfacet
facet normal -0.7933533402912369 -1.2657196381710477e-16 -0.6087614290087183
  outer loop
    vertex 12.828427124746193 -4.999999999999999 12.828427124746195
    vertex 13.464101615137755 -9.999999999999995 12.000000000000002
    vertex 12.828427124746193 -9.999999999999995 12.828427124746193
  endloop
endfacet
facet normal -0.7933533402912369 -1.2657196381710477e-16 -0.6087614290087183
  outer loop
    vertex 13.464101615137755 -9.999999999999995 12.000000000000002
    vertex 12.828427124746193 -4.999999999999999 12.828427124746195
    vertex 13.464101615137755 -4.999999999999999 12.000000000000004
  endloop
endfacet
facet normal -0.9238795325112871 -7.956646273334423e-17 -0.38268343236508895
  outer loop
    vertex 13.464101615137755 -4.999999999999999 12.000000000000004
    vertex 13.863703305156273 -9.999999999999995 11.035276180410085
    vertex 13.464101615137755 -9.999999999999995 12.000000000000002
  endloop
endfacet
facet normal -0.9238795325112871 -7.956646273334423e-17 -0.38268343236508895
  outer loop
    vertex 13.863703305156273 -9.999999999999995 11.035276180410085
    vertex 13.464101615137755 -4.999999999999999 12.000000000000004
    vertex 13.863703305156273 -5.0 11.035276180410087
  endloop
endfacet
facet normal -0.9914448613738104 -2.7138638704102847e-17 -0.1305261922200518
  outer loop
    vertex 13.863703305156273 -5.0 11.035276180410087
    vertex 14.0 -9.999999999999995 10.000000000000004
    vertex 13.863703305156273 -9.999999999999995 11.035276180410085
  endloop
endfacet
facet normal -0.9914448613738104 -2.7138638704102847e-17 -0.1305261922200518
  outer loop
    vertex 14.0 -9.999999999999995 10.000000000000004
    vertex 13.863703305156273 -5.0 11.035276180410087
    vertex 14.0 -5.0 10.000000000000004
  endloop
endfacet
facet normal -0.6087614290087213 3.897944686697337e-16 0.7933533402912347
  outer loop
    vertex 12.82842712474619 -23.000000000000018 7.171572875253821
    vertex 12.000000000000002 -16.50000000000002 6.535898384862256
    vertex 12.0 -23.000000000000014 6.535898384862256
  endloop
endfacet
facet normal -0.6087614290087213 3.897944686697337e-16 0.7933533402912347
  outer loop
    vertex 12.000000000000002 -16.50000000000002 6.535898384862256
    vertex 12.82842712474619 -23.000000000000018 7.171572875253821
    vertex 12.828427124746188 -16.50000000000002 7.171572875253821
  endloop
endfacet
facet normal -0.7933533402912347 5.512526241307506e-16 0.6087614290087213
  outer loop
    vertex 13.464101615137752 -16.50000000000002 8.00000000000001
    vertex 12.82842712474619 -23.000000000000018 7.171572875253821
    vertex 13.464101615137755 -23.000000000000018 8.00000000000001
  endloop
endfacet
facet normal -0.7933533402912347 5.512526241307506e-16 0.6087614290087213
  outer loop
    vertex 12.82842712474619 -23.000000000000018 7.171572875253821
    vertex 13.464101615137752 -16.50000000000002 8.00000000000001
    vertex 12.828427124746188 -16.50000000000002 7.171572875253821
  endloop
endfacet
facet normal -0.9238795325112873 6.751438242452934e-16 0.3826834323650885
  outer loop
    vertex 13.86370330515627 -16.50000000000002 8.96472381958993
    vertex 13.464101615137755 -23.000000000000018 8.00000000000001
    vertex 13.863703305156273 -23.000000000000018 8.96472381958993
  endloop
endfacet
facet normal -0.9238795325112873 6.751438242452934e-16 0.3826834323650885
  outer loop
    vertex 13.464101615137755 -23.000000000000018 8.00000000000001
    vertex 13.86370330515627 -16.50000000000002 8.96472381958993
    vertex 13.464101615137752 -16.50000000000002 8.00000000000001
  endloop
endfacet
facet normal -0.9914448613738105 7.530250884654408e-16 0.130526192220052
  outer loop
    vertex 13.999999999999996 -16.50000000000002 10.00000000000001
    vertex 13.863703305156273 -23.000000000000018 8.96472381958993
    vertex 14.0 -23.000000000000018 10.00000000000001
  endloop
endfacet
facet normal -0.9914448613738105 7.530250884654408e-16 0.130526192220052
  outer loop
    vertex 13.863703305156273 -23.000000000000018 8.96472381958993
    vertex 13.999999999999996 -16.50000000000002 10.00000000000001
    vertex 13.86370330515627 -16.50000000000002 8.96472381958993
  endloop
endfacet
facet normal -0.9914448613738104 7.795889373394663e-16 -0.13052619222005163
  outer loop
    vertex 13.86370330515627 -16.50000000000002 11.035276180410094
    vertex 14.0 -23.000000000000018 10.00000000000001
    vertex 13.863703305156273 -23.000000000000018 11.035276180410094
  endloop
endfacet
facet normal -0.9914448613738104 7.795889373394663e-16 -0.13052619222005163
  outer loop
    vertex 14.0 -23.000000000000018 10.00000000000001
    vertex 13.86370330515627 -16.50000000000002 11.035276180410094
    vertex 13.999999999999996 -16.50000000000002 10.00000000000001
  endloop
endfacet
facet normal -0.9238795325112863 7.530250884654404e-16 -0.38268343236509084
  outer loop
    vertex 13.46410161513775 -16.50000000000002 12.000000000000012
    vertex 13.863703305156273 -23.000000000000018 11.035276180410094
    vertex 13.464101615137752 -23.000000000000018 12.000000000000012
  endloop
endfacet
facet normal -0.9238795325112863 7.530250884654404e-16 -0.38268343236509084
  outer loop
    vertex 13.863703305156273 -23.000000000000018 11.035276180410094
    vertex 13.46410161513775 -16.50000000000002 12.000000000000012
    vertex 13.86370330515627 -16.50000000000002 11.035276180410094
  endloop
endfacet
facet normal -0.7933533402912359 6.751438242452933e-16 -0.6087614290087197
  outer loop
    vertex 12.828427124746188 -16.50000000000002 12.8284271247462
    vertex 13.464101615137752 -23.000000000000018 12.000000000000012
    vertex 12.82842712474619 -23.000000000000018 12.8284271247462
  endloop
endfacet
facet normal -0.7933533402912359 6.751438242452933e-16 -0.6087614290087197
  outer loop
    vertex 13.464101615137752 -23.000000000000018 12.000000000000012
    vertex 12.828427124746188 -16.50000000000002 12.8284271247462
    vertex 13.46410161513775 -16.50000000000002 12.000000000000012
  endloop
endfacet
facet normal -0.6087614290087183 5.512526241307496e-16 -0.7933533402912369
  outer loop
    vertex 12.0 -16.50000000000002 13.464101615137764
    vertex 12.82842712474619 -23.000000000000018 12.8284271247462
    vertex 11.999999999999998 -23.000000000000018 13.464101615137764
  endloop
endfacet
facet normal -0.6087614290087183 5.512526241307496e-16 -0.7933533402912369
  outer loop
    vertex 12.82842712474619 -23.000000000000018 12.8284271247462
    vertex 12.0 -16.50000000000002 13.464101615137764
    vertex 12.828427124746188 -16.50000000000002 12.8284271247462
  endloop
endfacet
facet normal -0.3826834323650895 3.8979446866973306e-16 -0.923879532511287
  outer loop
    vertex 11.035276180410085 -16.50000000000002 13.863703305156282
    vertex 11.999999999999998 -23.000000000000018 13.464101615137764
    vertex 11.035276180410083 -23.000000000000014 13.863703305156282
  endloop
endfacet
facet normal -0.3826834323650895 3.8979446866973306e-16 -0.923879532511287
  outer loop
    vertex 11.999999999999998 -23.000000000000018 13.464101615137764
    vertex 11.035276180410085 -16.50000000000002 13.863703305156282
    vertex 12.0 -16.50000000000002 13.464101615137764
  endloop
endfacet
facet normal -0.1305261922200518 2.017724643346898e-16 -0.9914448613738104
  outer loop
    vertex 10.000000000000002 -16.50000000000002 14.000000000000009
    vertex 11.035276180410083 -23.000000000000014 13.863703305156282
    vertex 10.0 -23.000000000000014 14.000000000000009
  endloop
endfacet
facet normal -0.1305261922200518 2.017724643346898e-16 -0.9914448613738104
  outer loop
    vertex 11.035276180410083 -23.000000000000014 13.863703305156282
    vertex 10.000000000000002 -16.50000000000002 14.000000000000009
    vertex 11.035276180410085 -16.50000000000002 13.863703305156282
  endloop
endfacet
facet normal 0.13052619222005163 7.495602186106032e-32 -0.9914448613738104
  outer loop
    vertex 8.964723819589917 -16.50000000000002 13.863703305156282
    vertex 10.0 -23.000000000000014 14.000000000000009
    vertex 8.964723819589915 -23.000000000000014 13.863703305156282
  endloop
endfacet
facet normal 0.13052619222005163 7.495602186106032e-32 -0.9914448613738104
  outer loop
    vertex 10.0 -23.000000000000014 14.000000000000009
    vertex 8.964723819589917 -16.50000000000002 13.863703305156282
    vertex 10.000000000000002 -16.50000000000002 14.000000000000009
  endloop
endfacet
facet normal 0.38268343236508895 -2.017724643346888e-16 -0.9238795325112871
  outer loop
    vertex 8.0 -16.50000000000002 13.464101615137764
    vertex 8.964723819589915 -23.000000000000014 13.863703305156282
    vertex 7.999999999999999 -23.000000000000014 13.464101615137764
  endloop
endfacet
facet normal 0.38268343236508895 -2.017724643346888e-16 -0.9238795325112871
  outer loop
    vertex 8.964723819589915 -23.000000000000014 13.863703305156282
    vertex 8.0 -16.50000000000002 13.464101615137764
    vertex 8.964723819589917 -16.50000000000002 13.863703305156282
  endloop
endfacet
facet normal 0.6087614290087213 -3.897944686697337e-16 -0.7933533402912347
  outer loop
    vertex 7.171572875253811 -16.500000000000014 12.828427124746199
    vertex 7.999999999999999 -23.000000000000014 13.464101615137764
    vertex 7.17157287525381 -23.00000000000001 12.828427124746199
  endloop
endfacet
facet normal 0.6087614290087213 -3.897944686697337e-16 -0.7933533402912347
  outer loop
    vertex 7.999999999999999 -23.000000000000014 13.464101615137764
    vertex 7.171572875253811 -16.500000000000014 12.828427124746199
    vertex 8.0 -16.50000000000002 13.464101615137764
  endloop
endfacet
facet normal 0.7933533402912354 -5.512526241307513e-16 -0.6087614290087205
  outer loop
    vertex 6.535898384862247 -16.500000000000014 12.000000000000009
    vertex 7.17157287525381 -23.00000000000001 12.828427124746199
    vertex 6.5358983848622465 -23.00000000000001 12.000000000000009
  endloop
endfacet
facet normal 0.7933533402912354 -5.512526241307513e-16 -0.6087614290087205
  outer loop
    vertex 7.17157287525381 -23.00000000000001 12.828427124746199
    vertex 6.535898384862247 -16.500000000000014 12.000000000000009
    vertex 7.171572875253811 -16.500000000000014 12.828427124746199
  endloop
endfacet
facet normal 0.9238795325112868 -6.751438242452928e-16 -0.38268343236508956
  outer loop
    vertex 6.1362966948437325 -16.500000000000014 11.035276180410092
    vertex 6.5358983848622465 -23.00000000000001 12.000000000000009
    vertex 6.136296694843728 -23.00000000000001 11.035276180410092
  endloop
endfacet
facet normal 0.9238795325112868 -6.751438242452928e-16 -0.38268343236508956
  outer loop
    vertex 6.5358983848622465 -23.00000000000001 12.000000000000009
    vertex 6.1362966948437325 -16.500000000000014 11.035276180410092
    vertex 6.535898384862247 -16.500000000000014 12.000000000000009
  endloop
endfacet
facet normal 0.9914448613738104 -7.530250884654407e-16 -0.1305261922200518
  outer loop
    vertex 6.000000000000005 -16.500000000000014 10.00000000000001
    vertex 6.136296694843728 -23.00000000000001 11.035276180410092
    vertex 6.000000000000001 -23.00000000000001 10.00000000000001
  endloop
endfacet
facet normal 0.9914448613738104 -7.530250884654407e-16 -0.1305261922200518
  outer loop
    vertex 6.136296694843728 -23.00000000000001 11.035276180410092
    vertex 6.000000000000005 -16.500000000000014 10.00000000000001
    vertex 6.1362966948437325 -16.500000000000014 11.035276180410092
  endloop
endfacet
facet normal 0.9914448613738105 -7.795889373394665e-16 0.13052619222005213
  outer loop
    vertex 6.1362966948437325 -16.500000000000014 8.964723819589924
    vertex 6.000000000000001 -23.00000000000001 10.00000000000001
    vertex 6.136296694843729 -23.00000000000001 8.964723819589924
  endloop
endfacet
facet normal 0.9914448613738105 -7.795889373394665e-16 0.13052619222005213
  outer loop
    vertex 6.000000000000001 -23.00000000000001 10.00000000000001
    vertex 6.1362966948437325 -16.500000000000014 8.964723819589924
    vertex 6.000000000000005 -16.500000000000014 10.00000000000001
  endloop
endfacet
facet normal 0.9238795325112867 -7.530250884654408e-16 0.3826834323650902
  outer loop
    vertex 6.535898384862249 -16.500000000000014 8.000000000000007
    vertex 6.136296694843729 -23.00000000000001 8.964723819589924
    vertex 6.535898384862247 -23.00000000000001 8.000000000000007
  endloop
endfacet
facet normal 0.9238795325112867 -7.530250884654408e-16 0.3826834323650902
  outer loop
    vertex 6.136296694843729 -23.00000000000001 8.964723819589924
    vertex 6.535898384862249 -16.500000000000014 8.000000000000007
    vertex 6.1362966948437325 -16.500000000000014 8.964723819589924
  endloop
endfacet
facet normal 0.7933533402912347 -6.751438242452925e-16 0.6087614290087211
  outer loop
    vertex 7.171572875253813 -16.500000000000014 7.17157287525382
    vertex 6.535898384862247 -23.00000000000001 8.000000000000007
    vertex 7.171572875253811 -23.00000000000001 7.17157287525382
  endloop
endfacet
facet normal 0.7933533402912347 -6.751438242452925e-16 0.6087614290087211
  outer loop
    vertex 6.535898384862247 -23.00000000000001 8.000000000000007
    vertex 7.171572875253813 -16.500000000000014 7.17157287525382
    vertex 6.535898384862249 -16.500000000000014 8.000000000000007
  endloop
endfacet
facet normal 0.6087614290087209 -5.512526241307515e-16 0.7933533402912352
  outer loop
    vertex 8.000000000000004 -23.00000000000001 6.535898384862254
    vertex 7.171572875253813 -16.500000000000014 7.17157287525382
    vertex 7.171572875253811 -23.00000000000001 7.17157287525382
  endloop
endfacet
facet normal 0.6087614290087209 -5.512526241307515e-16 0.7933533402912352
  outer loop
    vertex 7.171572875253813 -16.500000000000014 7.17157287525382
    vertex 8.000000000000004 -23.00000000000001 6.535898384862254
    vertex 8.000000000000005 -16.500000000000014 6.535898384862254
  endloop
endfacet
facet normal 0.3826834323650889 -3.897944686697326e-16 0.9238795325112871
  outer loop
    vertex 8.964723819589919 -23.000000000000014 6.136296694843736
    vertex 8.000000000000005 -16.500000000000014 6.535898384862254
    vertex 8.000000000000004 -23.00000000000001 6.535898384862254
  endloop
endfacet
facet normal 0.3826834323650889 -3.897944686697326e-16 0.9238795325112871
  outer loop
    vertex 8.000000000000005 -16.500000000000014 6.535898384862254
    vertex 8.964723819589919 -23.000000000000014 6.136296694843736
    vertex 8.96472381958992 -16.50000000000002 6.136296694843736
  endloop
endfacet
facet normal 0.13052619222005113 -2.0177246433468928e-16 0.9914448613738105
  outer loop
    vertex 10.000000000000002 -23.000000000000014 6.00000000000001
    vertex 8.96472381958992 -16.50000000000002 6.136296694843736
    vertex 8.964723819589919 -23.000000000000014 6.136296694843736
  endloop
endfacet
facet normal 0.13052619222005113 -2.0177246433468928e-16 0.9914448613738105
  outer loop
    vertex 8.96472381958992 -16.50000000000002 6.136296694843736
    vertex 10.000000000000002 -23.000000000000014 6.00000000000001
    vertex 10.000000000000004 -16.50000000000002 6.00000000000001
  endloop
endfacet
facet normal -0.1305261922200523 4.497361311663619e-31 0.9914448613738104
  outer loop
    vertex 11.035276180410085 -23.000000000000014 6.136296694843738
    vertex 10.000000000000004 -16.50000000000002 6.00000000000001
    vertex 10.000000000000002 -23.000000000000014 6.00000000000001
  endloop
endfacet
facet normal -0.1305261922200523 4.497361311663619e-31 0.9914448613738104
  outer loop
    vertex 10.000000000000004 -16.50000000000002 6.00000000000001
    vertex 11.035276180410085 -23.000000000000014 6.136296694843738
    vertex 11.035276180410087 -16.50000000000002 6.136296694843737
  endloop
endfacet
facet normal -0.3826834323650901 2.0177246433468972e-16 0.9238795325112867
  outer loop
    vertex 12.0 -23.000000000000014 6.535898384862256
    vertex 11.035276180410087 -16.50000000000002 6.136296694843737
    vertex 11.035276180410085 -23.000000000000014 6.136296694843738
  endloop
endfacet
facet normal -0.3826834323650901 2.0177246433468972e-16 0.9238795325112867
  outer loop
    vertex 11.035276180410087 -16.50000000000002 6.136296694843737
    vertex 12.0 -23.000000000000014 6.535898384862256
    vertex 12.000000000000002 -16.50000000000002 6.535898384862256
  endloop
endfacet
endsolid Винты-регулировки
