solid Гайка-М8
facet normal -9.640395485930066e-05 0.0001334122391689323 -0.9999999864537259
  outer loop
    vertex -7.685661446561998 5.583959896778496 0.0
    vertex -7.641774206985844 2.482962954014301 0.009999999999999558
    vertex -8.139246084921497 4.187969922583872 0.009999999999999558
  endloop
endfacet
facet normal -9.640395485930066e-05 0.0001334122391689323 -0.9999999864537259
  outer loop
    vertex -7.641774206985844 2.482962954014301 0.009999999999999558
    vertex -7.685661446561998 5.583959896778496 0.0
    vertex -6.424177810973607 6.500481406416279 0.009999999999999558
  endloop
endfacet
facet normal -9.640395485930066e-05 0.0001334122391689323 -0.9999999864537259
  outer loop
    vertex -7.641774206985844 2.482962954014301 0.009999999999999558
    vertex -6.424177810973607 6.500481406416279 0.009999999999999558
    vertex -7.641774206985844 -2.482962954014299 0.009999999999999558
  endloop
endfacet
facet normal -9.640395485930066e-05 0.0001334122391689323 -0.9999999864537259
  outer loop
    vertex -7.641774206985844 -2.482962954014299 0.009999999999999558
    vertex -6.424177810973607 6.500481406416279 0.009999999999999558
    vertex -6.498161446562001 -6.4467291487848595 0.009999999999999558
  endloop
endfacet
facet normal -9.640395485930066e-05 0.0001334122391689323 -0.9999999864537259
  outer loop
    vertex -6.498161446562001 -6.4467291487848595 0.009999999999999558
    vertex -6.424177810973607 6.500481406416279 0.009999999999999558
    vertex -4.683822893124001 -6.4467291487848595 0.009999999999999558
  endloop
endfacet
facet normal -9.640395485930066e-05 0.0001334122391689323 -0.9999999864537259
  outer loop
    vertex -4.683822893124001 -6.4467291487848595 0.009999999999999558
    vertex -6.424177810973607 6.500481406416279 0.009999999999999558
    vertex -4.722876194269525 6.500481406416279 0.009999999999999558
  endloop
endfacet
facet normal -9.640395485930066e-05 0.0001334122391689323 -0.9999999864537259
  outer loop
    vertex -4.683822893124001 -6.4467291487848595 0.009999999999999558
    vertex -4.722876194269525 6.500481406416279 0.009999999999999558
    vertex -4.123161446561999 8.172267652797593 0.009999999999999558
  endloop
endfacet
facet normal -9.640395485930066e-05 0.0001334122391689323 -0.9999999864537259
  outer loop
    vertex -4.683822893124001 -6.4467291487848595 0.009999999999999558
    vertex -4.123161446561999 8.172267652797593 0.009999999999999558
    vertex -4.123161446562001 -8.172267652797592 0.009999999999999558
  endloop
endfacet
facet normal -9.640395485930066e-05 0.0001334122391689323 -0.9999999864537259
  outer loop
    vertex -4.123161446562001 -8.172267652797592 0.009999999999999558
    vertex -4.123161446561999 8.172267652797593 0.009999999999999558
    vertex -3.9 4.776122516674677e-16 0.0
  endloop
endfacet
facet normal -9.640395485930066e-05 0.0001334122391689323 -0.9999999864537259
  outer loop
    vertex -4.123161446562001 -8.172267652797592 0.009999999999999558
    vertex -3.9 4.776122516674677e-16 0.0
    vertex -2.9356614465620017 -9.035036904803958 0.0
  endloop
endfacet
facet normal -9.640395485930066e-05 0.0001334122391689323 -0.9999999864537259
  outer loop
    vertex -2.9356614465620017 -9.035036904803958 0.0
    vertex -3.9 4.776122516674677e-16 0.0
    vertex -3.767110722527367 -1.0093942758998293 0.0
  endloop
endfacet
facet normal -9.640395485930066e-05 0.0001334122391689323 -0.9999999864537259
  outer loop
    vertex -2.9356614465620017 -9.035036904803958 0.0
    vertex -3.767110722527367 -1.0093942758998293 0.0
    vertex -3.377499074759311 -1.9499999999999988 0.0
  endloop
endfacet
facet normal -9.640395485930066e-05 0.0001334122391689323 -0.9999999864537259
  outer loop
    vertex -2.9356614465620017 -9.035036904803958 0.0
    vertex -3.377499074759311 -1.9499999999999988 0.0
    vertex -2.757716446627537 -2.7577164466275335 0.0
  endloop
endfacet
facet normal -9.640395485930066e-05 0.0001334122391689323 -0.9999999864537259
  outer loop
    vertex -2.9356614465620017 -9.035036904803958 0.0
    vertex -2.757716446627537 -2.7577164466275335 0.0
    vertex -1.4678307232810015 -9.035036904803958 0.009999999999999558
  endloop
endfacet
facet normal -9.640395485930066e-05 0.0001334122391689323 -0.9999999864537259
  outer loop
    vertex -1.4678307232810015 -9.035036904803958 0.009999999999999558
    vertex -2.757716446627537 -2.7577164466275335 0.0
    vertex -1.9500000000000017 -3.3774990747593097 0.0
  endloop
endfacet
facet normal -9.640395485930066e-05 0.0001334122391689323 -0.9999999864537259
  outer loop
    vertex -1.4678307232810015 -9.035036904803958 0.009999999999999558
    vertex -1.9500000000000017 -3.3774990747593097 0.0
    vertex -1.009394275899834 -3.7671107225273657 0.0
  endloop
endfacet
facet normal -9.640395485930066e-05 0.0001334122391689323 -0.9999999864537259
  outer loop
    vertex -1.4678307232810015 -9.035036904803958 0.009999999999999558
    vertex -1.009394275899834 -3.7671107225273657 0.0
    vertex -1.4168433143577774e-15 -8.035036904803958 0.009999999999999206
  endloop
endfacet
facet normal -9.640395485930066e-05 0.0001334122391689323 -0.9999999864537259
  outer loop
    vertex -1.4168433143577774e-15 -8.035036904803958 0.009999999999999206
    vertex -1.009394275899834 -3.7671107225273657 0.0
    vertex -7.164183775012016e-16 -3.9 0.0
  endloop
endfacet
facet normal -9.640395485930066e-05 0.0001334122391689323 -0.9999999864537259
  outer loop
    vertex -1.4168433143577774e-15 -8.035036904803958 0.009999999999999206
    vertex -7.164183775012016e-16 -3.9 0.0
    vertex 1.4678307232809982 -9.035036904803958 0.009999999999999206
  endloop
endfacet
facet normal -9.640395485930066e-05 0.0001334122391689323 -0.9999999864537259
  outer loop
    vertex 1.4678307232809982 -9.035036904803958 0.009999999999999206
    vertex -7.164183775012016e-16 -3.9 0.0
    vertex 1.009394275899829 -3.767110722527367 0.0
  endloop
endfacet
facet normal -9.640395485930066e-05 0.0001334122391689323 -0.9999999864537259
  outer loop
    vertex 1.4678307232809982 -9.035036904803958 0.009999999999999206
    vertex 1.009394275899829 -3.767110722527367 0.0
    vertex 1.9499999999999975 -3.3774990747593123 0.0
  endloop
endfacet
facet normal -9.640395485930066e-05 0.0001334122391689323 -0.9999999864537259
  outer loop
    vertex 1.4678307232809982 -9.035036904803958 0.009999999999999206
    vertex 1.9499999999999975 -3.3774990747593123 0.0
    vertex 2.935661446561998 -9.03503690480396 0.0
  endloop
endfacet
facet normal -9.640395485930066e-05 0.0001334122391689323 -0.9999999864537259
  outer loop
    vertex 2.935661446561998 -9.03503690480396 0.0
    vertex 1.9499999999999975 -3.3774990747593123 0.0
    vertex 2.757716446627535 -2.7577164466275357 0.0
  endloop
endfacet
facet normal -9.640395485930066e-05 0.0001334122391689323 -0.9999999864537259
  outer loop
    vertex 2.935661446561998 -9.03503690480396 0.0
    vertex 2.757716446627535 -2.7577164466275357 0.0
    vertex 3.3774990747593097 -1.9500000000000017 0.0
  endloop
endfacet
facet normal -9.640395485930066e-05 0.0001334122391689323 -0.9999999864537259
  outer loop
    vertex 2.935661446561998 -9.03503690480396 0.0
    vertex 3.3774990747593097 -1.9500000000000017 0.0
    vertex 4.123161446561998 -8.172267652797595 -3.524958103184872e-16
  endloop
endfacet
facet normal -9.640395485930066e-05 0.0001334122391689323 -0.9999999864537259
  outer loop
    vertex 4.123161446561998 -8.172267652797595 -3.524958103184872e-16
    vertex 3.3774990747593097 -1.9500000000000017 0.0
    vertex 3.7671107225273657 -1.0093942758998342 0.0
  endloop
endfacet
facet normal -9.640395485930066e-05 0.0001334122391689323 -0.9999999864537259
  outer loop
    vertex 4.123161446561998 -8.172267652797595 -3.524958103184872e-16
    vertex 3.7671107225273657 -1.0093942758998342 0.0
    vertex 3.9 0.0 0.0
  endloop
endfacet
facet normal -9.640395485930066e-05 0.0001334122391689323 -0.9999999864537259
  outer loop
    vertex -7.641774206985844 -2.482962954014299 0.009999999999999558
    vertex -7.685661446562 -5.583959896778493 0.0
    vertex -8.139246084921501 -4.18796992258387 0.009999999999999558
  endloop
endfacet
facet normal -9.640395485930066e-05 0.0001334122391689323 -0.9999999864537259
  outer loop
    vertex -7.685661446562 -5.583959896778493 0.0
    vertex -7.641774206985844 -2.482962954014299 0.009999999999999558
    vertex -6.498161446562001 -6.4467291487848595 0.009999999999999558
  endloop
endfacet
facet normal -9.640395485930066e-05 0.0001334122391689323 -0.9999999864537259
  outer loop
    vertex -9.046415361640499 1.395989974194625 0.009999999999999558
    vertex -9.046415361640499 -1.3959899741946225 0.009999999999999558
    vertex -9.499999999999998 1.1634144591899855e-15 0.0
  endloop
endfacet
facet normal -9.640395485930066e-05 0.0001334122391689323 -0.9999999864537259
  outer loop
    vertex -9.046415361640499 -1.3959899741946225 0.009999999999999558
    vertex -9.046415361640499 1.395989974194625 0.009999999999999558
    vertex -7.641774206985844 2.482962954014301 0.009999999999999558
  endloop
endfacet
facet normal -9.640395485930066e-05 0.0001334122391689323 -0.9999999864537259
  outer loop
    vertex -9.046415361640499 -1.3959899741946225 0.009999999999999558
    vertex -7.641774206985844 2.482962954014301 0.009999999999999558
    vertex -7.641774206985844 -2.482962954014299 0.009999999999999558
  endloop
endfacet
facet normal -9.640395485930066e-05 0.0001334122391689323 -0.9999999864537259
  outer loop
    vertex -2.9356614465619995 9.03503690480396 0.0
    vertex -3.9 4.776122516674677e-16 0.0
    vertex -4.123161446561999 8.172267652797593 0.009999999999999558
  endloop
endfacet
facet normal -9.640395485930066e-05 0.0001334122391689323 -0.9999999864537259
  outer loop
    vertex -3.9 4.776122516674677e-16 0.0
    vertex -2.9356614465619995 9.03503690480396 0.0
    vertex -3.7671107225273657 1.009394275899832 0.0
  endloop
endfacet
facet normal -9.640395485930066e-05 0.0001334122391689323 -0.9999999864537259
  outer loop
    vertex -3.7671107225273657 1.009394275899832 0.0
    vertex -2.9356614465619995 9.03503690480396 0.0
    vertex -3.3774990747593097 1.9500000000000013 0.0
  endloop
endfacet
facet normal -9.640395485930066e-05 0.0001334122391689323 -0.9999999864537259
  outer loop
    vertex -3.3774990747593097 1.9500000000000013 0.0
    vertex -2.9356614465619995 9.03503690480396 0.0
    vertex -2.7577164466275352 2.7577164466275352 0.0
  endloop
endfacet
facet normal -9.640395485930066e-05 0.0001334122391689323 -0.9999999864537259
  outer loop
    vertex -2.7577164466275352 2.7577164466275352 0.0
    vertex -2.9356614465619995 9.03503690480396 0.0
    vertex -1.4678307232809993 9.035036904803958 0.009999999999999558
  endloop
endfacet
facet normal -9.640395485930066e-05 0.0001334122391689323 -0.9999999864537259
  outer loop
    vertex -2.7577164466275352 2.7577164466275352 0.0
    vertex -1.4678307232809993 9.035036904803958 0.009999999999999558
    vertex -1.9499999999999993 3.377499074759311 0.0
  endloop
endfacet
facet normal -9.640395485930066e-05 0.0001334122391689323 -0.9999999864537259
  outer loop
    vertex -1.9499999999999993 3.377499074759311 0.0
    vertex -1.4678307232809993 9.035036904803958 0.009999999999999558
    vertex -1.0093942758998304 3.7671107225273666 0.0
  endloop
endfacet
facet normal -9.640395485930066e-05 0.0001334122391689323 -0.9999999864537259
  outer loop
    vertex -1.0093942758998304 3.7671107225273666 0.0
    vertex -1.4678307232809993 9.035036904803958 0.009999999999999558
    vertex 4.722811047859258e-16 8.035036904803958 0.009999999999999558
  endloop
endfacet
facet normal -9.640395485930066e-05 0.0001334122391689323 -0.9999999864537259
  outer loop
    vertex -1.0093942758998304 3.7671107225273666 0.0
    vertex 4.722811047859258e-16 8.035036904803958 0.009999999999999558
    vertex 2.3880612583373386e-16 3.9 0.0
  endloop
endfacet
facet normal -9.640395485930066e-05 0.0001334122391689323 -0.9999999864537259
  outer loop
    vertex 2.3880612583373386e-16 3.9 0.0
    vertex 4.722811047859258e-16 8.035036904803958 0.009999999999999558
    vertex 1.0093942758998318 3.7671107225273657 0.0
  endloop
endfacet
facet normal -9.640395485930066e-05 0.0001334122391689323 -0.9999999864537259
  outer loop
    vertex 1.0093942758998318 3.7671107225273657 0.0
    vertex 4.722811047859258e-16 8.035036904803958 0.009999999999999558
    vertex 1.4678307232810004 9.035036904803958 0.009999999999999558
  endloop
endfacet
facet normal -9.640395485930066e-05 0.0001334122391689323 -0.9999999864537259
  outer loop
    vertex 1.0093942758998318 3.7671107225273657 0.0
    vertex 1.4678307232810004 9.035036904803958 0.009999999999999558
    vertex 1.9500000000000004 3.3774990747593105 0.0
  endloop
endfacet
facet normal -9.640395485930066e-05 0.0001334122391689323 -0.9999999864537259
  outer loop
    vertex 1.9500000000000004 3.3774990747593105 0.0
    vertex 1.4678307232810004 9.035036904803958 0.009999999999999558
    vertex 2.9356614465620003 9.035036904803958 0.0
  endloop
endfacet
facet normal -9.640395485930066e-05 0.0001334122391689323 -0.9999999864537259
  outer loop
    vertex 1.9500000000000004 3.3774990747593105 0.0
    vertex 2.9356614465620003 9.035036904803958 0.0
    vertex 2.7577164466275352 2.7577164466275352 0.0
  endloop
endfacet
facet normal -9.640395485930066e-05 0.0001334122391689323 -0.9999999864537259
  outer loop
    vertex 2.7577164466275352 2.7577164466275352 0.0
    vertex 2.9356614465620003 9.035036904803958 0.0
    vertex 3.377499074759311 1.9499999999999995 0.0
  endloop
endfacet
facet normal -9.640395485930066e-05 0.0001334122391689323 -0.9999999864537259
  outer loop
    vertex 3.377499074759311 1.9499999999999995 0.0
    vertex 2.9356614465620003 9.035036904803958 0.0
    vertex 4.123161446562 8.172267652797592 0.009999999999999558
  endloop
endfacet
facet normal -9.640395485930066e-05 0.0001334122391689323 -0.9999999864537259
  outer loop
    vertex 3.377499074759311 1.9499999999999995 0.0
    vertex 4.123161446562 8.172267652797592 0.009999999999999558
    vertex 3.7671107225273666 1.0093942758998309 0.0
  endloop
endfacet
facet normal -9.640395485930066e-05 0.0001334122391689323 -0.9999999864537259
  outer loop
    vertex 3.7671107225273666 1.0093942758998309 0.0
    vertex 4.123161446562 8.172267652797592 0.009999999999999558
    vertex 3.9 0.0 0.0
  endloop
endfacet
facet normal -9.640395485930066e-05 0.0001334122391689323 -0.9999999864537259
  outer loop
    vertex 3.9 0.0 0.0
    vertex 4.123161446562 8.172267652797592 0.009999999999999558
    vertex 4.123161446561998 -8.172267652797595 -3.524958103184872e-16
  endloop
endfacet
facet normal -9.640395485930066e-05 0.0001334122391689323 -0.9999999864537259
  outer loop
    vertex 4.123161446561998 -8.172267652797595 -3.524958103184872e-16
    vertex 4.123161446562 8.172267652797592 0.009999999999999558
    vertex 4.722876194269525 -6.500481406416281 -3.524958103184872e-16
  endloop
endfacet
facet normal -9.640395485930066e-05 0.0001334122391689323 -0.9999999864537259
  outer loop
    vertex 4.722876194269525 -6.500481406416281 -3.524958103184872e-16
    vertex 4.123161446562 8.172267652797592 0.009999999999999558
    vertex 4.722876194269527 6.500481406416279 0.009999999999999558
  endloop
endfacet
facet normal -9.640395485930066e-05 0.0001334122391689323 -0.9999999864537259
  outer loop
    vertex 4.722876194269525 -6.500481406416281 -3.524958103184872e-16
    vertex 4.722876194269527 6.500481406416279 0.009999999999999558
    vertex 6.424177810973605 -6.500481406416281 -3.524958103184872e-16
  endloop
endfacet
facet normal -9.640395485930066e-05 0.0001334122391689323 -0.9999999864537259
  outer loop
    vertex 6.424177810973605 -6.500481406416281 -3.524958103184872e-16
    vertex 4.722876194269527 6.500481406416279 0.009999999999999558
    vertex 6.424177810973605 6.500481406416279 0.009999999999999558
  endloop
endfacet
facet normal -9.640395485930066e-05 0.0001334122391689323 -0.9999999864537259
  outer loop
    vertex 6.424177810973605 -6.500481406416281 -3.524958103184872e-16
    vertex 6.424177810973605 6.500481406416279 0.009999999999999558
    vertex 7.6856614465619995 5.583959896778494 0.0
  endloop
endfacet
facet normal -9.640395485930066e-05 0.0001334122391689323 -0.9999999864537259
  outer loop
    vertex 6.424177810973605 -6.500481406416281 -3.524958103184872e-16
    vertex 7.6856614465619995 5.583959896778494 0.0
    vertex 7.641774206985844 2.4829629540142997 0.009999999999999558
  endloop
endfacet
facet normal -9.640395485930066e-05 0.0001334122391689323 -0.9999999864537259
  outer loop
    vertex 7.641774206985844 2.4829629540142997 0.009999999999999558
    vertex 7.6856614465619995 5.583959896778494 0.0
    vertex 8.1392460849215 4.187969922583871 0.009999999999999558
  endloop
endfacet
facet normal -9.640395485930066e-05 0.0001334122391689323 -0.9999999864537259
  outer loop
    vertex 9.046415361640499 1.3959899741946236 0.009999999999999558
    vertex 7.641774206985844 -2.4829629540143006 0.009999999999999558
    vertex 7.641774206985844 2.4829629540142997 0.009999999999999558
  endloop
endfacet
facet normal -9.640395485930066e-05 0.0001334122391689323 -0.9999999864537259
  outer loop
    vertex 7.641774206985844 -2.4829629540143006 0.009999999999999558
    vertex 9.046415361640499 1.3959899741946236 0.009999999999999558
    vertex 9.046415361640499 -1.3959899741946242 0.009999999999999558
  endloop
endfacet
facet normal -9.640395485930066e-05 0.0001334122391689323 -0.9999999864537259
  outer loop
    vertex 9.046415361640499 -1.3959899741946242 0.009999999999999558
    vertex 9.046415361640499 1.3959899741946236 0.009999999999999558
    vertex 9.499999999999998 0.0 0.0
  endloop
endfacet
facet normal -9.640395485930066e-05 0.0001334122391689323 -0.9999999864537259
  outer loop
    vertex 6.424177810973605 -6.500481406416281 -3.524958103184872e-16
    vertex 7.641774206985844 -2.4829629540143006 0.009999999999999558
    vertex 7.685661446561998 -5.583959896778497 0.0
  endloop
endfacet
facet normal -9.640395485930066e-05 0.0001334122391689323 -0.9999999864537259
  outer loop
    vertex 7.641774206985844 -2.4829629540143006 0.009999999999999558
    vertex 6.424177810973605 -6.500481406416281 -3.524958103184872e-16
    vertex 7.641774206985844 2.4829629540142997 0.009999999999999558
  endloop
endfacet
facet normal -9.640395485930066e-05 0.0001334122391689323 -0.9999999864537259
  outer loop
    vertex 7.685661446561998 -5.583959896778497 0.0
    vertex 7.641774206985844 -2.4829629540143006 0.009999999999999558
    vertex 8.139246084921497 -4.187969922583872 0.009999999999999558
  endloop
endfacet
facet normal -0.5877852522924734 -0.8090169943749472 1.5055195959460434e-18
  outer loop
    vertex -6.498161446562001 -6.4467291487848595 0.009999999999999558
    vertex -7.685661446562 -5.583959896778493 4.499999999999999
    vertex -7.685661446562 -5.583959896778493 0.0
  endloop
endfacet
facet normal -0.5877852522924734 -0.8090169943749472 1.5055195959460434e-18
  outer loop
    vertex -7.685661446562 -5.583959896778493 4.499999999999999
    vertex -6.498161446562001 -6.4467291487848595 0.009999999999999558
    vertex -6.498161446562001 -6.4467291487848595 4.499999999999999
  endloop
endfacet
facet normal -0.9510565162951536 -0.30901699437494756 4.97299697302753e-18
  outer loop
    vertex -9.499999999999998 1.1634144591899855e-15 4.499999999999999
    vertex -9.046415361640499 -1.3959899741946225 0.009999999999999558
    vertex -9.046415361640499 -1.3959899741946225 4.499999999999999
  endloop
endfacet
facet normal -0.9510565162951536 -0.30901699437494756 4.97299697302753e-18
  outer loop
    vertex -9.046415361640499 -1.3959899741946225 0.009999999999999558
    vertex -9.499999999999998 1.1634144591899855e-15 4.499999999999999
    vertex -9.499999999999998 1.1634144591899855e-15 0.0
  endloop
endfacet
facet normal -0.9510565162951536 0.30901699437494773 -6.652838759903053e-19
  outer loop
    vertex -7.685661446561998 5.583959896778496 4.499999999999999
    vertex -8.139246084921497 4.187969922583872 0.009999999999999558
    vertex -8.139246084921497 4.187969922583872 4.499999999999999
  endloop
endfacet
facet normal -0.9510565162951536 0.30901699437494773 -6.652838759903053e-19
  outer loop
    vertex -8.139246084921497 4.187969922583872 0.009999999999999558
    vertex -7.685661446561998 5.583959896778496 4.499999999999999
    vertex -7.685661446561998 5.583959896778496 0.0
  endloop
endfacet
facet normal -0.5877852522924734 0.8090169943749472 -1.5055195959460434e-18
  outer loop
    vertex -4.123161446561999 8.172267652797593 0.009999999999999558
    vertex -2.9356614465619995 9.03503690480396 4.499999999999999
    vertex -2.9356614465619995 9.03503690480396 0.0
  endloop
endfacet
facet normal -0.5877852522924734 0.8090169943749472 -1.5055195959460434e-18
  outer loop
    vertex -2.9356614465619995 9.03503690480396 4.499999999999999
    vertex -4.123161446561999 8.172267652797593 0.009999999999999558
    vertex -4.123161446561999 8.172267652797593 4.499999999999999
  endloop
endfacet
facet normal -0.0 1.0 -0.0
  outer loop
    vertex 1.4678307232810004 9.035036904803958 0.009999999999999558
    vertex 2.9356614465620003 9.035036904803958 4.499999999999999
    vertex 2.9356614465620003 9.035036904803958 0.0
  endloop
endfacet
facet normal -0.0 1.0 -0.0
  outer loop
    vertex 2.9356614465620003 9.035036904803958 4.499999999999999
    vertex 1.4678307232810004 9.035036904803958 0.009999999999999558
    vertex 1.4678307232810004 9.035036904803958 4.499999999999999
  endloop
endfacet
facet normal 0.5877852522924729 0.8090169943749477 -1.836561801592739e-18
  outer loop
    vertex 6.424177810973605 6.500481406416279 0.009999999999999558
    vertex 7.6856614465619995 5.583959896778494 4.499999999999999
    vertex 7.6856614465619995 5.583959896778494 0.0
  endloop
endfacet
facet normal 0.5877852522924729 0.8090169943749477 -1.836561801592739e-18
  outer loop
    vertex 7.6856614465619995 5.583959896778494 4.499999999999999
    vertex 6.424177810973605 6.500481406416279 0.009999999999999558
    vertex 6.424177810973605 6.500481406416279 4.499999999999999
  endloop
endfacet
facet normal 0.9510565162951536 0.3090169943749476 6.985480697898203e-19
  outer loop
    vertex 9.046415361640499 1.3959899741946236 0.009999999999999558
    vertex 9.499999999999998 0.0 4.499999999999999
    vertex 9.499999999999998 0.0 0.0
  endloop
endfacet
facet normal 0.9510565162951536 0.3090169943749476 6.985480697898203e-19
  outer loop
    vertex 9.499999999999998 0.0 4.499999999999999
    vertex 9.046415361640499 1.3959899741946236 0.009999999999999558
    vertex 9.046415361640499 1.3959899741946236 4.499999999999999
  endloop
endfacet
facet normal 0.9510565162951536 -0.30901699437494756 -7.151801666895775e-19
  outer loop
    vertex 8.139246084921497 -4.187969922583872 0.009999999999999558
    vertex 7.685661446561998 -5.583959896778497 4.499999999999999
    vertex 7.685661446561998 -5.583959896778497 0.0
  endloop
endfacet
facet normal 0.9510565162951536 -0.30901699437494756 -7.151801666895775e-19
  outer loop
    vertex 7.685661446561998 -5.583959896778497 4.499999999999999
    vertex 8.139246084921497 -4.187969922583872 0.009999999999999558
    vertex 8.139246084921497 -4.187969922583872 4.499999999999999
  endloop
endfacet
facet normal 0.5877852522924726 -0.809016994374948 2.5323285847273443e-18
  outer loop
    vertex 4.123161446561998 -8.172267652797595 4.499999999999999
    vertex 2.935661446561998 -9.03503690480396 0.0
    vertex 4.123161446561998 -8.172267652797595 -3.524958103184872e-16
  endloop
endfacet
facet normal 0.5877852522924726 -0.809016994374948 2.5323285847273443e-18
  outer loop
    vertex 2.935661446561998 -9.03503690480396 0.0
    vertex 4.123161446561998 -8.172267652797595 4.499999999999999
    vertex 2.935661446561998 -9.03503690480396 4.499999999999999
  endloop
endfacet
facet normal 0.0 -1.0 0.0
  outer loop
    vertex -1.4678307232810015 -9.035036904803958 0.009999999999999558
    vertex -2.9356614465620017 -9.035036904803958 4.499999999999999
    vertex -2.9356614465620017 -9.035036904803958 0.0
  endloop
endfacet
facet normal 0.0 -1.0 0.0
  outer loop
    vertex -2.9356614465620017 -9.035036904803958 4.499999999999999
    vertex -1.4678307232810015 -9.035036904803958 0.009999999999999558
    vertex -1.4678307232810015 -9.035036904803958 4.499999999999999
  endloop
endfacet
facet normal -1.925758580331156e-32 -8.941427319629124e-32 1.0
  outer loop
    vertex -7.641774206985844 2.482962954014301 4.499999999999999
    vertex -7.685661446561998 5.583959896778496 4.499999999999999
    vertex -8.139246084921497 4.187969922583872 4.499999999999999
  endloop
endfacet
facet normal -1.925758580331156e-32 -8.941427319629124e-32 1.0
  outer loop
    vertex -7.685661446561998 5.583959896778496 4.499999999999999
    vertex -7.641774206985844 2.482962954014301 4.499999999999999
    vertex -6.424177810973607 6.500481406416279 4.499999999999999
  endloop
endfacet
facet normal -1.925758580331156e-32 -8.941427319629124e-32 1.0
  outer loop
    vertex -6.424177810973607 6.500481406416279 4.499999999999999
    vertex -7.641774206985844 2.482962954014301 4.499999999999999
    vertex -6.498161446562001 -6.4467291487848595 4.499999999999999
  endloop
endfacet
facet normal -1.925758580331156e-32 -8.941427319629124e-32 1.0
  outer loop
    vertex -6.424177810973607 6.500481406416279 4.499999999999999
    vertex -6.498161446562001 -6.4467291487848595 4.499999999999999
    vertex -4.683822893124001 -6.4467291487848595 4.499999999999999
  endloop
endfacet
facet normal -1.925758580331156e-32 -8.941427319629124e-32 1.0
  outer loop
    vertex -6.424177810973607 6.500481406416279 4.499999999999999
    vertex -4.683822893124001 -6.4467291487848595 4.499999999999999
    vertex -4.722876194269525 6.500481406416279 4.499999999999999
  endloop
endfacet
facet normal -1.925758580331156e-32 -8.941427319629124e-32 1.0
  outer loop
    vertex -4.722876194269525 6.500481406416279 4.499999999999999
    vertex -4.683822893124001 -6.4467291487848595 4.499999999999999
    vertex -4.123161446561999 8.172267652797593 4.499999999999999
  endloop
endfacet
facet normal -1.925758580331156e-32 -8.941427319629124e-32 1.0
  outer loop
    vertex -4.123161446561999 8.172267652797593 4.499999999999999
    vertex -4.683822893124001 -6.4467291487848595 4.499999999999999
    vertex -4.123161446562001 -8.172267652797592 4.499999999999999
  endloop
endfacet
facet normal -1.925758580331156e-32 -8.941427319629124e-32 1.0
  outer loop
    vertex -4.123161446561999 8.172267652797593 4.499999999999999
    vertex -4.123161446562001 -8.172267652797592 4.499999999999999
    vertex -3.9 4.776122516674677e-16 4.499999999999999
  endloop
endfacet
facet normal -1.925758580331156e-32 -8.941427319629124e-32 1.0
  outer loop
    vertex -3.9 4.776122516674677e-16 4.499999999999999
    vertex -4.123161446562001 -8.172267652797592 4.499999999999999
    vertex -2.9356614465620017 -9.035036904803958 4.499999999999999
  endloop
endfacet
facet normal -1.925758580331156e-32 -8.941427319629124e-32 1.0
  outer loop
    vertex -3.9 4.776122516674677e-16 4.499999999999999
    vertex -2.9356614465620017 -9.035036904803958 4.499999999999999
    vertex -3.767110722527367 -1.0093942758998293 4.499999999999999
  endloop
endfacet
facet normal -1.925758580331156e-32 -8.941427319629124e-32 1.0
  outer loop
    vertex -3.767110722527367 -1.0093942758998293 4.499999999999999
    vertex -2.9356614465620017 -9.035036904803958 4.499999999999999
    vertex -3.6887595889835008 -1.1985506451287384 4.499999999999999
  endloop
endfacet
facet normal -1.925758580331156e-32 -8.941427319629124e-32 1.0
  outer loop
    vertex -3.6887595889835008 -1.1985506451287384 4.499999999999999
    vertex -2.9356614465620017 -9.035036904803958 4.499999999999999
    vertex -3.377499074759311 -1.9499999999999988 4.499999999999999
  endloop
endfacet
facet normal -1.925758580331156e-32 -8.941427319629124e-32 1.0
  outer loop
    vertex -3.377499074759311 -1.9499999999999988 4.499999999999999
    vertex -2.9356614465620017 -9.035036904803958 4.499999999999999
    vertex -2.757716446627537 -2.7577164466275335 4.499999999999999
  endloop
endfacet
facet normal -1.925758580331156e-32 -8.941427319629124e-32 1.0
  outer loop
    vertex -2.757716446627537 -2.7577164466275335 4.499999999999999
    vertex -2.9356614465620017 -9.035036904803958 4.499999999999999
    vertex -1.4678307232810015 -9.035036904803958 4.499999999999999
  endloop
endfacet
facet normal -1.925758580331156e-32 -8.941427319629124e-32 1.0
  outer loop
    vertex -2.757716446627537 -2.7577164466275335 4.499999999999999
    vertex -1.4678307232810015 -9.035036904803958 4.499999999999999
    vertex -2.2735300870872215 -3.129245707514102 4.499999999999999
  endloop
endfacet
facet normal -1.925758580331156e-32 -8.941427319629124e-32 1.0
  outer loop
    vertex -2.2735300870872215 -3.129245707514102 4.499999999999999
    vertex -1.4678307232810015 -9.035036904803958 4.499999999999999
    vertex -1.9500000000000017 -3.3774990747593097 4.499999999999999
  endloop
endfacet
facet normal -1.925758580331156e-32 -8.941427319629124e-32 1.0
  outer loop
    vertex -1.9500000000000017 -3.3774990747593097 4.499999999999999
    vertex -1.4678307232810015 -9.035036904803958 4.499999999999999
    vertex -1.009394275899834 -3.7671107225273657 4.499999999999999
  endloop
endfacet
facet normal -1.925758580331156e-32 -8.941427319629124e-32 1.0
  outer loop
    vertex -1.009394275899834 -3.7671107225273657 4.499999999999999
    vertex -1.4678307232810015 -9.035036904803958 4.499999999999999
    vertex -1.4168433143577774e-15 -8.035036904803958 4.499999999999999
  endloop
endfacet
facet normal -1.925758580331156e-32 -8.941427319629124e-32 1.0
  outer loop
    vertex -1.009394275899834 -3.7671107225273657 4.499999999999999
    vertex -1.4168433143577774e-15 -8.035036904803958 4.499999999999999
    vertex -7.164183775012016e-16 -3.9 4.499999999999999
  endloop
endfacet
facet normal -1.925758580331156e-32 -8.941427319629124e-32 1.0
  outer loop
    vertex -7.164183775012016e-16 -3.9 4.499999999999999
    vertex -1.4168433143577774e-15 -8.035036904803958 4.499999999999999
    vertex 1.4678307232809982 -9.035036904803958 4.499999999999999
  endloop
endfacet
facet normal -1.925758580331156e-32 -8.941427319629124e-32 1.0
  outer loop
    vertex -7.164183775012016e-16 -3.9 4.499999999999999
    vertex 1.4678307232809982 -9.035036904803958 4.499999999999999
    vertex 1.009394275899829 -3.767110722527367 4.499999999999999
  endloop
endfacet
facet normal -1.925758580331156e-32 -8.941427319629124e-32 1.0
  outer loop
    vertex 1.009394275899829 -3.767110722527367 4.499999999999999
    vertex 1.4678307232809982 -9.035036904803958 4.499999999999999
    vertex 1.9499999999999975 -3.3774990747593123 4.499999999999999
  endloop
endfacet
facet normal -1.925758580331156e-32 -8.941427319629124e-32 1.0
  outer loop
    vertex 1.9499999999999975 -3.3774990747593123 4.499999999999999
    vertex 1.4678307232809982 -9.035036904803958 4.499999999999999
    vertex 2.935661446561998 -9.03503690480396 4.499999999999999
  endloop
endfacet
facet normal -1.925758580331156e-32 -8.941427319629124e-32 1.0
  outer loop
    vertex 1.9499999999999975 -3.3774990747593123 4.499999999999999
    vertex 2.935661446561998 -9.03503690480396 4.499999999999999
    vertex 2.2735300870872184 -3.1292457075141042 4.499999999999999
  endloop
endfacet
facet normal -1.925758580331156e-32 -8.941427319629124e-32 1.0
  outer loop
    vertex 2.2735300870872184 -3.1292457075141042 4.499999999999999
    vertex 2.935661446561998 -9.03503690480396 4.499999999999999
    vertex 2.757716446627535 -2.7577164466275357 4.499999999999999
  endloop
endfacet
facet normal -1.925758580331156e-32 -8.941427319629124e-32 1.0
  outer loop
    vertex 2.757716446627535 -2.7577164466275357 4.499999999999999
    vertex 2.935661446561998 -9.03503690480396 4.499999999999999
    vertex 3.3774990747593097 -1.9500000000000017 4.499999999999999
  endloop
endfacet
facet normal -1.925758580331156e-32 -8.941427319629124e-32 1.0
  outer loop
    vertex 3.3774990747593097 -1.9500000000000017 4.499999999999999
    vertex 2.935661446561998 -9.03503690480396 4.499999999999999
    vertex 4.123161446561998 -8.172267652797595 4.499999999999999
  endloop
endfacet
facet normal -1.925758580331156e-32 -8.941427319629124e-32 1.0
  outer loop
    vertex 3.3774990747593097 -1.9500000000000017 4.499999999999999
    vertex 4.123161446561998 -8.172267652797595 4.499999999999999
    vertex 3.6887595889835 -1.19855064512874 4.499999999999999
  endloop
endfacet
facet normal -1.925758580331156e-32 -8.941427319629124e-32 1.0
  outer loop
    vertex 3.6887595889835 -1.19855064512874 4.499999999999999
    vertex 4.123161446561998 -8.172267652797595 4.499999999999999
    vertex 3.7671107225273657 -1.0093942758998342 4.499999999999999
  endloop
endfacet
facet normal -1.925758580331156e-32 -8.941427319629124e-32 1.0
  outer loop
    vertex 3.7671107225273657 -1.0093942758998342 4.499999999999999
    vertex 4.123161446561998 -8.172267652797595 4.499999999999999
    vertex 3.9 0.0 4.499999999999999
  endloop
endfacet
facet normal -1.925758580331156e-32 -8.941427319629124e-32 1.0
  outer loop
    vertex -7.685661446562 -5.583959896778493 4.499999999999999
    vertex -7.641774206985844 -2.482962954014299 4.499999999999999
    vertex -8.139246084921501 -4.18796992258387 4.499999999999999
  endloop
endfacet
facet normal -1.925758580331156e-32 -8.941427319629124e-32 1.0
  outer loop
    vertex -7.641774206985844 -2.482962954014299 4.499999999999999
    vertex -7.685661446562 -5.583959896778493 4.499999999999999
    vertex -6.498161446562001 -6.4467291487848595 4.499999999999999
  endloop
endfacet
facet normal -1.925758580331156e-32 -8.941427319629124e-32 1.0
  outer loop
    vertex -7.641774206985844 -2.482962954014299 4.499999999999999
    vertex -6.498161446562001 -6.4467291487848595 4.499999999999999
    vertex -7.641774206985844 2.482962954014301 4.499999999999999
  endloop
endfacet
facet normal -1.925758580331156e-32 -8.941427319629124e-32 1.0
  outer loop
    vertex -9.046415361640499 -1.3959899741946225 4.499999999999999
    vertex -9.046415361640499 1.395989974194625 4.499999999999999
    vertex -9.499999999999998 1.1634144591899855e-15 4.499999999999999
  endloop
endfacet
facet normal -1.925758580331156e-32 -8.941427319629124e-32 1.0
  outer loop
    vertex -9.046415361640499 1.395989974194625 4.499999999999999
    vertex -9.046415361640499 -1.3959899741946225 4.499999999999999
    vertex -7.641774206985844 -2.482962954014299 4.499999999999999
  endloop
endfacet
facet normal -1.925758580331156e-32 -8.941427319629124e-32 1.0
  outer loop
    vertex -9.046415361640499 1.395989974194625 4.499999999999999
    vertex -7.641774206985844 -2.482962954014299 4.499999999999999
    vertex -7.641774206985844 2.482962954014301 4.499999999999999
  endloop
endfacet
facet normal -1.925758580331156e-32 -8.941427319629124e-32 1.0
  outer loop
    vertex -3.9 4.776122516674677e-16 4.499999999999999
    vertex -2.9356614465619995 9.03503690480396 4.499999999999999
    vertex -4.123161446561999 8.172267652797593 4.499999999999999
  endloop
endfacet
facet normal -1.925758580331156e-32 -8.941427319629124e-32 1.0
  outer loop
    vertex -2.9356614465619995 9.03503690480396 4.499999999999999
    vertex -3.9 4.776122516674677e-16 4.499999999999999
    vertex -3.7671107225273657 1.009394275899832 4.499999999999999
  endloop
endfacet
facet normal -1.925758580331156e-32 -8.941427319629124e-32 1.0
  outer loop
    vertex -2.9356614465619995 9.03503690480396 4.499999999999999
    vertex -3.7671107225273657 1.009394275899832 4.499999999999999
    vertex -3.6887595889835008 1.1985506451287402 4.499999999999999
  endloop
endfacet
facet normal -1.925758580331156e-32 -8.941427319629124e-32 1.0
  outer loop
    vertex -2.9356614465619995 9.03503690480396 4.499999999999999
    vertex -3.6887595889835008 1.1985506451287402 4.499999999999999
    vertex -3.3774990747593097 1.9500000000000013 4.499999999999999
  endloop
endfacet
facet normal -1.925758580331156e-32 -8.941427319629124e-32 1.0
  outer loop
    vertex -2.9356614465619995 9.03503690480396 4.499999999999999
    vertex -3.3774990747593097 1.9500000000000013 4.499999999999999
    vertex -2.7577164466275352 2.7577164466275352 4.499999999999999
  endloop
endfacet
facet normal -1.925758580331156e-32 -8.941427319629124e-32 1.0
  outer loop
    vertex -2.9356614465619995 9.03503690480396 4.499999999999999
    vertex -2.7577164466275352 2.7577164466275352 4.499999999999999
    vertex -1.4678307232809993 9.035036904803958 4.499999999999999
  endloop
endfacet
facet normal -1.925758580331156e-32 -8.941427319629124e-32 1.0
  outer loop
    vertex -1.4678307232809993 9.035036904803958 4.499999999999999
    vertex -2.7577164466275352 2.7577164466275352 4.499999999999999
    vertex -2.273530087087221 3.129245707514103 4.499999999999999
  endloop
endfacet
facet normal -1.925758580331156e-32 -8.941427319629124e-32 1.0
  outer loop
    vertex -1.4678307232809993 9.035036904803958 4.499999999999999
    vertex -2.273530087087221 3.129245707514103 4.499999999999999
    vertex -1.9499999999999993 3.377499074759311 4.499999999999999
  endloop
endfacet
facet normal -1.925758580331156e-32 -8.941427319629124e-32 1.0
  outer loop
    vertex -1.4678307232809993 9.035036904803958 4.499999999999999
    vertex -1.9499999999999993 3.377499074759311 4.499999999999999
    vertex -1.0093942758998304 3.7671107225273666 4.499999999999999
  endloop
endfacet
facet normal -1.925758580331156e-32 -8.941427319629124e-32 1.0
  outer loop
    vertex -1.4678307232809993 9.035036904803958 4.499999999999999
    vertex -1.0093942758998304 3.7671107225273666 4.499999999999999
    vertex 4.722811047859258e-16 8.035036904803958 4.499999999999999
  endloop
endfacet
facet normal -1.925758580331156e-32 -8.941427319629124e-32 1.0
  outer loop
    vertex 4.722811047859258e-16 8.035036904803958 4.499999999999999
    vertex -1.0093942758998304 3.7671107225273666 4.499999999999999
    vertex 2.3880612583373386e-16 3.9 4.499999999999999
  endloop
endfacet
facet normal -1.925758580331156e-32 -8.941427319629124e-32 1.0
  outer loop
    vertex 4.722811047859258e-16 8.035036904803958 4.499999999999999
    vertex 2.3880612583373386e-16 3.9 4.499999999999999
    vertex 1.0093942758998318 3.7671107225273657 4.499999999999999
  endloop
endfacet
facet normal -1.925758580331156e-32 -8.941427319629124e-32 1.0
  outer loop
    vertex 4.722811047859258e-16 8.035036904803958 4.499999999999999
    vertex 1.0093942758998318 3.7671107225273657 4.499999999999999
    vertex 1.4678307232810004 9.035036904803958 4.499999999999999
  endloop
endfacet
facet normal -1.925758580331156e-32 -8.941427319629124e-32 1.0
  outer loop
    vertex 1.4678307232810004 9.035036904803958 4.499999999999999
    vertex 1.0093942758998318 3.7671107225273657 4.499999999999999
    vertex 1.9500000000000004 3.3774990747593105 4.499999999999999
  endloop
endfacet
facet normal -1.925758580331156e-32 -8.941427319629124e-32 1.0
  outer loop
    vertex 1.4678307232810004 9.035036904803958 4.499999999999999
    vertex 1.9500000000000004 3.3774990747593105 4.499999999999999
    vertex 2.9356614465620003 9.035036904803958 4.499999999999999
  endloop
endfacet
facet normal -1.925758580331156e-32 -8.941427319629124e-32 1.0
  outer loop
    vertex 2.9356614465620003 9.035036904803958 4.499999999999999
    vertex 1.9500000000000004 3.3774990747593105 4.499999999999999
    vertex 2.2735300870872197 3.1292457075141025 4.499999999999999
  endloop
endfacet
facet normal -1.925758580331156e-32 -8.941427319629124e-32 1.0
  outer loop
    vertex 2.9356614465620003 9.035036904803958 4.499999999999999
    vertex 2.2735300870872197 3.1292457075141025 4.499999999999999
    vertex 2.7577164466275352 2.7577164466275352 4.499999999999999
  endloop
endfacet
facet normal -1.925758580331156e-32 -8.941427319629124e-32 1.0
  outer loop
    vertex 2.9356614465620003 9.035036904803958 4.499999999999999
    vertex 2.7577164466275352 2.7577164466275352 4.499999999999999
    vertex 3.377499074759311 1.9499999999999995 4.499999999999999
  endloop
endfacet
facet normal -1.925758580331156e-32 -8.941427319629124e-32 1.0
  outer loop
    vertex 2.9356614465620003 9.035036904803958 4.499999999999999
    vertex 3.377499074759311 1.9499999999999995 4.499999999999999
    vertex 4.123161446562 8.172267652797592 4.499999999999999
  endloop
endfacet
facet normal -1.925758580331156e-32 -8.941427319629124e-32 1.0
  outer loop
    vertex 4.123161446562 8.172267652797592 4.499999999999999
    vertex 3.377499074759311 1.9499999999999995 4.499999999999999
    vertex 3.688759588983499 1.1985506451287395 4.499999999999999
  endloop
endfacet
facet normal -1.925758580331156e-32 -8.941427319629124e-32 1.0
  outer loop
    vertex 4.123161446562 8.172267652797592 4.499999999999999
    vertex 3.688759588983499 1.1985506451287395 4.499999999999999
    vertex 3.7671107225273666 1.0093942758998309 4.499999999999999
  endloop
endfacet
facet normal -1.925758580331156e-32 -8.941427319629124e-32 1.0
  outer loop
    vertex 4.123161446562 8.172267652797592 4.499999999999999
    vertex 3.7671107225273666 1.0093942758998309 4.499999999999999
    vertex 3.9 0.0 4.499999999999999
  endloop
endfacet
facet normal -1.925758580331156e-32 -8.941427319629124e-32 1.0
  outer loop
    vertex 4.123161446562 8.172267652797592 4.499999999999999
    vertex 3.9 0.0 4.499999999999999
    vertex 4.123161446561998 -8.172267652797595 4.499999999999999
  endloop
endfacet
facet normal -1.925758580331156e-32 -8.941427319629124e-32 1.0
  outer loop
    vertex 4.123161446562 8.172267652797592 4.499999999999999
    vertex 4.123161446561998 -8.172267652797595 4.499999999999999
    vertex 4.722876194269525 -6.500481406416281 4.499999999999999
  endloop
endfacet
facet normal -1.925758580331156e-32 -8.941427319629124e-32 1.0
  outer loop
    vertex 4.123161446562 8.172267652797592 4.499999999999999
    vertex 4.722876194269525 -6.500481406416281 4.499999999999999
    vertex 4.722876194269527 6.500481406416279 4.499999999999999
  endloop
endfacet
facet normal -1.925758580331156e-32 -8.941427319629124e-32 1.0
  outer loop
    vertex 4.722876194269527 6.500481406416279 4.499999999999999
    vertex 4.722876194269525 -6.500481406416281 4.499999999999999
    vertex 6.424177810973605 -6.500481406416281 4.499999999999999
  endloop
endfacet
facet normal -1.925758580331156e-32 -8.941427319629124e-32 1.0
  outer loop
    vertex 4.722876194269527 6.500481406416279 4.499999999999999
    vertex 6.424177810973605 -6.500481406416281 4.499999999999999
    vertex 6.424177810973605 6.500481406416279 4.499999999999999
  endloop
endfacet
facet normal -1.925758580331156e-32 -8.941427319629124e-32 1.0
  outer loop
    vertex 6.424177810973605 6.500481406416279 4.499999999999999
    vertex 6.424177810973605 -6.500481406416281 4.499999999999999
    vertex 7.685661446561998 -5.583959896778497 4.499999999999999
  endloop
endfacet
facet normal -1.925758580331156e-32 -8.941427319629124e-32 1.0
  outer loop
    vertex 6.424177810973605 6.500481406416279 4.499999999999999
    vertex 7.685661446561998 -5.583959896778497 4.499999999999999
    vertex 7.641774206985844 -2.4829629540143006 4.499999999999999
  endloop
endfacet
facet normal -1.925758580331156e-32 -8.941427319629124e-32 1.0
  outer loop
    vertex 7.641774206985844 -2.4829629540143006 4.499999999999999
    vertex 7.685661446561998 -5.583959896778497 4.499999999999999
    vertex 8.139246084921497 -4.187969922583872 4.499999999999999
  endloop
endfacet
facet normal -1.925758580331156e-32 -8.941427319629124e-32 1.0
  outer loop
    vertex 9.046415361640499 -1.3959899741946242 4.499999999999999
    vertex 7.641774206985844 2.4829629540142997 4.499999999999999
    vertex 7.641774206985844 -2.4829629540143006 4.499999999999999
  endloop
endfacet
facet normal -1.925758580331156e-32 -8.941427319629124e-32 1.0
  outer loop
    vertex 7.641774206985844 2.4829629540142997 4.499999999999999
    vertex 9.046415361640499 -1.3959899741946242 4.499999999999999
    vertex 9.046415361640499 1.3959899741946236 4.499999999999999
  endloop
endfacet
facet normal -1.925758580331156e-32 -8.941427319629124e-32 1.0
  outer loop
    vertex 9.046415361640499 1.3959899741946236 4.499999999999999
    vertex 9.046415361640499 -1.3959899741946242 4.499999999999999
    vertex 9.499999999999998 0.0 4.499999999999999
  endloop
endfacet
facet normal -1.925758580331156e-32 -8.941427319629124e-32 1.0
  outer loop
    vertex 6.424177810973605 6.500481406416279 4.499999999999999
    vertex 7.641774206985844 2.4829629540142997 4.499999999999999
    vertex 7.6856614465619995 5.583959896778494 4.499999999999999
  endloop
endfacet
facet normal -1.925758580331156e-32 -8.941427319629124e-32 1.0
  outer loop
    vertex 7.641774206985844 2.4829629540142997 4.499999999999999
    vertex 6.424177810973605 6.500481406416279 4.499999999999999
    vertex 7.641774206985844 -2.4829629540143006 4.499999999999999
  endloop
endfacet
facet normal -1.925758580331156e-32 -8.941427319629124e-32 1.0
  outer loop
    vertex 7.6856614465619995 5.583959896778494 4.499999999999999
    vertex 7.641774206985844 2.4829629540142997 4.499999999999999
    vertex 8.1392460849215 4.187969922583871 4.499999999999999
  endloop
endfacet
facet normal -0.5630317336804005 -0.826435276878258 -5.734873822561519e-18
  outer loop
    vertex 1.4678307232809982 -9.035036904803958 4.499999999999999
    vertex -1.4168433143577774e-15 -8.035036904803958 0.009999999999999206
    vertex 1.4678307232809982 -9.035036904803958 0.009999999999999206
  endloop
endfacet
facet normal -0.5630317336804005 -0.826435276878258 -5.734873822561519e-18
  outer loop
    vertex -1.4168433143577774e-15 -8.035036904803958 0.009999999999999206
    vertex 1.4678307232809982 -9.035036904803958 4.499999999999999
    vertex -1.4168433143577774e-15 -8.035036904803958 4.499999999999999
  endloop
endfacet
facet normal -9.6058981387326e-16 -1.0 -5.6197052828703825e-33
  outer loop
    vertex 2.935661446561998 -9.03503690480396 4.499999999999999
    vertex 1.4678307232809982 -9.035036904803958 0.009999999999999206
    vertex 2.935661446561998 -9.03503690480396 0.0
  endloop
endfacet
facet normal -9.6058981387326e-16 -1.0 -5.6197052828703825e-33
  outer loop
    vertex 1.4678307232809982 -9.035036904803958 0.009999999999999206
    vertex 2.935661446561998 -9.03503690480396 4.499999999999999
    vertex 1.4678307232809982 -9.035036904803958 4.499999999999999
  endloop
endfacet
facet normal 0.5630317336804005 -0.8264352768782578 -3.655666999989082e-18
  outer loop
    vertex -1.4168433143577774e-15 -8.035036904803958 4.499999999999999
    vertex -1.4678307232810015 -9.035036904803958 0.009999999999999558
    vertex -1.4168433143577774e-15 -8.035036904803958 0.009999999999999206
  endloop
endfacet
facet normal 0.5630317336804005 -0.8264352768782578 -3.655666999989082e-18
  outer loop
    vertex -1.4678307232810015 -9.035036904803958 0.009999999999999558
    vertex -1.4168433143577774e-15 -8.035036904803958 4.499999999999999
    vertex -1.4678307232810015 -9.035036904803958 4.499999999999999
  endloop
endfacet
facet normal -0.6120002812916233 0.7908575445040492 -0.0
  outer loop
    vertex -9.046415361640499 1.395989974194625 4.499999999999999
    vertex -7.641774206985844 2.482962954014301 0.009999999999999558
    vertex -9.046415361640499 1.395989974194625 0.009999999999999558
  endloop
endfacet
facet normal -0.6120002812916233 0.7908575445040492 -0.0
  outer loop
    vertex -7.641774206985844 2.482962954014301 0.009999999999999558
    vertex -9.046415361640499 1.395989974194625 4.499999999999999
    vertex -7.641774206985844 2.482962954014301 4.499999999999999
  endloop
endfacet
facet normal -0.9599730294508898 -0.28009245389135534 0.0
  outer loop
    vertex -8.139246084921497 4.187969922583872 4.499999999999999
    vertex -7.641774206985844 2.482962954014301 0.009999999999999558
    vertex -7.641774206985844 2.482962954014301 4.499999999999999
  endloop
endfacet
facet normal -0.9599730294508898 -0.28009245389135534 0.0
  outer loop
    vertex -7.641774206985844 2.482962954014301 0.009999999999999558
    vertex -8.139246084921497 4.187969922583872 4.499999999999999
    vertex -8.139246084921497 4.187969922583872 0.009999999999999558
  endloop
endfacet
facet normal -0.9510565162951536 0.30901699437494756 6.985480697898202e-19
  outer loop
    vertex -9.046415361640499 1.395989974194625 4.499999999999999
    vertex -9.499999999999998 1.1634144591899855e-15 0.0
    vertex -9.499999999999998 1.1634144591899855e-15 4.499999999999999
  endloop
endfacet
facet normal -0.9510565162951536 0.30901699437494756 6.985480697898202e-19
  outer loop
    vertex -9.499999999999998 1.1634144591899855e-15 0.0
    vertex -9.046415361640499 1.395989974194625 4.499999999999999
    vertex -9.046415361640499 1.395989974194625 0.009999999999999558
  endloop
endfacet
facet normal -0.9599730294508896 0.28009245389135684 0.0
  outer loop
    vertex -7.641774206985844 -2.482962954014299 4.499999999999999
    vertex -8.139246084921501 -4.18796992258387 0.009999999999999558
    vertex -8.139246084921501 -4.18796992258387 4.499999999999999
  endloop
endfacet
facet normal -0.9599730294508896 0.28009245389135684 0.0
  outer loop
    vertex -8.139246084921501 -4.18796992258387 0.009999999999999558
    vertex -7.641774206985844 -2.482962954014299 4.499999999999999
    vertex -7.641774206985844 -2.482962954014299 0.009999999999999558
  endloop
endfacet
facet normal -0.6120002812916233 -0.790857544504049 0.0
  outer loop
    vertex -7.641774206985844 -2.482962954014299 4.499999999999999
    vertex -9.046415361640499 -1.3959899741946225 0.009999999999999558
    vertex -7.641774206985844 -2.482962954014299 0.009999999999999558
  endloop
endfacet
facet normal -0.6120002812916233 -0.790857544504049 0.0
  outer loop
    vertex -9.046415361640499 -1.3959899741946225 0.009999999999999558
    vertex -7.641774206985844 -2.482962954014299 4.499999999999999
    vertex -9.046415361640499 -1.3959899741946225 4.499999999999999
  endloop
endfacet
facet normal -0.9510565162951536 -0.30901699437494756 -7.151801666895775e-19
  outer loop
    vertex -8.139246084921501 -4.18796992258387 4.499999999999999
    vertex -7.685661446562 -5.583959896778493 0.0
    vertex -7.685661446562 -5.583959896778493 4.499999999999999
  endloop
endfacet
facet normal -0.9510565162951536 -0.30901699437494756 -7.151801666895775e-19
  outer loop
    vertex -7.685661446562 -5.583959896778493 0.0
    vertex -8.139246084921501 -4.18796992258387 4.499999999999999
    vertex -8.139246084921501 -4.18796992258387 0.009999999999999558
  endloop
endfacet
facet normal -0.9510565162951538 -0.30901699437494695 0.0
  outer loop
    vertex -4.683822893124001 -6.4467291487848595 4.499999999999999
    vertex -4.123161446562001 -8.172267652797592 0.009999999999999558
    vertex -4.123161446562001 -8.172267652797592 4.499999999999999
  endloop
endfacet
facet normal -0.9510565162951538 -0.30901699437494695 0.0
  outer loop
    vertex -4.123161446562001 -8.172267652797592 0.009999999999999558
    vertex -4.683822893124001 -6.4467291487848595 4.499999999999999
    vertex -4.683822893124001 -6.4467291487848595 0.009999999999999558
  endloop
endfacet
facet normal 0.0 -1.0 0.0
  outer loop
    vertex -4.683822893124001 -6.4467291487848595 4.499999999999999
    vertex -6.498161446562001 -6.4467291487848595 0.009999999999999558
    vertex -4.683822893124001 -6.4467291487848595 0.009999999999999558
  endloop
endfacet
facet normal 0.0 -1.0 0.0
  outer loop
    vertex -6.498161446562001 -6.4467291487848595 0.009999999999999558
    vertex -4.683822893124001 -6.4467291487848595 4.499999999999999
    vertex -6.498161446562001 -6.4467291487848595 4.499999999999999
  endloop
endfacet
facet normal -0.5877852522924732 -0.8090169943749476 -1.3882063806775196e-18
  outer loop
    vertex -2.9356614465620017 -9.035036904803958 4.499999999999999
    vertex -4.123161446562001 -8.172267652797592 0.009999999999999558
    vertex -2.9356614465620017 -9.035036904803958 0.0
  endloop
endfacet
facet normal -0.5877852522924732 -0.8090169943749476 -1.3882063806775196e-18
  outer loop
    vertex -4.123161446562001 -8.172267652797592 0.009999999999999558
    vertex -2.9356614465620017 -9.035036904803958 4.499999999999999
    vertex -4.123161446562001 -8.172267652797592 4.499999999999999
  endloop
endfacet
facet normal -0.0 1.0 -0.0
  outer loop
    vertex -6.424177810973607 6.500481406416279 4.499999999999999
    vertex -4.722876194269525 6.500481406416279 0.009999999999999558
    vertex -6.424177810973607 6.500481406416279 0.009999999999999558
  endloop
endfacet
facet normal -0.0 1.0 -0.0
  outer loop
    vertex -4.722876194269525 6.500481406416279 0.009999999999999558
    vertex -6.424177810973607 6.500481406416279 4.499999999999999
    vertex -4.722876194269525 6.500481406416279 4.499999999999999
  endloop
endfacet
facet normal -0.9412687086431202 0.33765843411547264 0.0
  outer loop
    vertex -4.123161446561999 8.172267652797593 4.499999999999999
    vertex -4.722876194269525 6.500481406416279 0.009999999999999558
    vertex -4.722876194269525 6.500481406416279 4.499999999999999
  endloop
endfacet
facet normal -0.9412687086431202 0.33765843411547264 0.0
  outer loop
    vertex -4.722876194269525 6.500481406416279 0.009999999999999558
    vertex -4.123161446561999 8.172267652797593 4.499999999999999
    vertex -4.123161446561999 8.172267652797593 0.009999999999999558
  endloop
endfacet
facet normal -0.5877852522924732 0.8090169943749476 1.1989629874548879e-17
  outer loop
    vertex -7.685661446561998 5.583959896778496 4.499999999999999
    vertex -6.424177810973607 6.500481406416279 0.009999999999999558
    vertex -7.685661446561998 5.583959896778496 0.0
  endloop
endfacet
facet normal -0.5877852522924732 0.8090169943749476 1.1989629874548879e-17
  outer loop
    vertex -6.424177810973607 6.500481406416279 0.009999999999999558
    vertex -7.685661446561998 5.583959896778496 4.499999999999999
    vertex -6.424177810973607 6.500481406416279 4.499999999999999
  endloop
endfacet
facet normal 0.5630317336804005 0.8264352768782578 -0.0
  outer loop
    vertex -1.4678307232809993 9.035036904803958 4.499999999999999
    vertex 4.722811047859258e-16 8.035036904803958 0.009999999999999558
    vertex -1.4678307232809993 9.035036904803958 0.009999999999999558
  endloop
endfacet
facet normal 0.5630317336804005 0.8264352768782578 -0.0
  outer loop
    vertex 4.722811047859258e-16 8.035036904803958 0.009999999999999558
    vertex -1.4678307232809993 9.035036904803958 4.499999999999999
    vertex 4.722811047859258e-16 8.035036904803958 4.499999999999999
  endloop
endfacet
facet normal -0.5630317336804004 0.8264352768782579 -0.0
  outer loop
    vertex 4.722811047859258e-16 8.035036904803958 4.499999999999999
    vertex 1.4678307232810004 9.035036904803958 0.009999999999999558
    vertex 4.722811047859258e-16 8.035036904803958 0.009999999999999558
  endloop
endfacet
facet normal -0.5630317336804004 0.8264352768782579 -0.0
  outer loop
    vertex 1.4678307232810004 9.035036904803958 0.009999999999999558
    vertex 4.722811047859258e-16 8.035036904803958 4.499999999999999
    vertex 1.4678307232810004 9.035036904803958 4.499999999999999
  endloop
endfacet
facet normal 9.6058981387326e-16 1.0 2.0006150807018558e-32
  outer loop
    vertex -2.9356614465619995 9.03503690480396 4.499999999999999
    vertex -1.4678307232809993 9.035036904803958 0.009999999999999558
    vertex -2.9356614465619995 9.03503690480396 0.0
  endloop
endfacet
facet normal 9.6058981387326e-16 1.0 2.0006150807018558e-32
  outer loop
    vertex -1.4678307232809993 9.035036904803958 0.009999999999999558
    vertex -2.9356614465619995 9.03503690480396 4.499999999999999
    vertex -1.4678307232809993 9.035036904803958 4.499999999999999
  endloop
endfacet
facet normal 0.9412687086431202 0.3376584341154729 -0.0
  outer loop
    vertex 4.123161446562 8.172267652797592 0.009999999999999558
    vertex 4.722876194269527 6.500481406416279 4.499999999999999
    vertex 4.722876194269527 6.500481406416279 0.009999999999999558
  endloop
endfacet
facet normal 0.9412687086431202 0.3376584341154729 -0.0
  outer loop
    vertex 4.722876194269527 6.500481406416279 4.499999999999999
    vertex 4.123161446562 8.172267652797592 0.009999999999999558
    vertex 4.123161446562 8.172267652797592 4.499999999999999
  endloop
endfacet
facet normal -0.0 1.0 -0.0
  outer loop
    vertex 4.722876194269527 6.500481406416279 4.499999999999999
    vertex 6.424177810973605 6.500481406416279 0.009999999999999558
    vertex 4.722876194269527 6.500481406416279 0.009999999999999558
  endloop
endfacet
facet normal -0.0 1.0 -0.0
  outer loop
    vertex 6.424177810973605 6.500481406416279 0.009999999999999558
    vertex 4.722876194269527 6.500481406416279 4.499999999999999
    vertex 6.424177810973605 6.500481406416279 4.499999999999999
  endloop
endfacet
facet normal 0.5877852522924732 0.8090169943749473 -1.4273107857670276e-18
  outer loop
    vertex 2.9356614465620003 9.035036904803958 4.499999999999999
    vertex 4.123161446562 8.172267652797592 0.009999999999999558
    vertex 2.9356614465620003 9.035036904803958 0.0
  endloop
endfacet
facet normal 0.5877852522924732 0.8090169943749473 -1.4273107857670276e-18
  outer loop
    vertex 4.123161446562 8.172267652797592 0.009999999999999558
    vertex 2.9356614465620003 9.035036904803958 4.499999999999999
    vertex 4.123161446562 8.172267652797592 4.499999999999999
  endloop
endfacet
facet normal 0.9599730294508898 -0.28009245389135606 -0.0
  outer loop
    vertex 8.1392460849215 4.187969922583871 0.009999999999999558
    vertex 7.641774206985844 2.4829629540142997 4.499999999999999
    vertex 7.641774206985844 2.4829629540142997 0.009999999999999558
  endloop
endfacet
facet normal 0.9599730294508898 -0.28009245389135606 -0.0
  outer loop
    vertex 7.641774206985844 2.4829629540142997 4.499999999999999
    vertex 8.1392460849215 4.187969922583871 0.009999999999999558
    vertex 8.1392460849215 4.187969922583871 4.499999999999999
  endloop
endfacet
facet normal 0.6120002812916232 0.7908575445040491 -0.0
  outer loop
    vertex 7.641774206985844 2.4829629540142997 4.499999999999999
    vertex 9.046415361640499 1.3959899741946236 0.009999999999999558
    vertex 7.641774206985844 2.4829629540142997 0.009999999999999558
  endloop
endfacet
facet normal 0.6120002812916232 0.7908575445040491 -0.0
  outer loop
    vertex 9.046415361640499 1.3959899741946236 0.009999999999999558
    vertex 7.641774206985844 2.4829629540142997 4.499999999999999
    vertex 9.046415361640499 1.3959899741946236 4.499999999999999
  endloop
endfacet
facet normal 0.9510565162951534 0.30901699437494773 -6.486517790905476e-19
  outer loop
    vertex 7.6856614465619995 5.583959896778494 0.0
    vertex 8.1392460849215 4.187969922583871 4.499999999999999
    vertex 8.1392460849215 4.187969922583871 0.009999999999999558
  endloop
endfacet
facet normal 0.9510565162951534 0.30901699437494773 -6.486517790905476e-19
  outer loop
    vertex 8.1392460849215 4.187969922583871 4.499999999999999
    vertex 7.6856614465619995 5.583959896778494 0.0
    vertex 7.6856614465619995 5.583959896778494 4.499999999999999
  endloop
endfacet
facet normal 0.6120002812916234 -0.790857544504049 0.0
  outer loop
    vertex 9.046415361640499 -1.3959899741946242 4.499999999999999
    vertex 7.641774206985844 -2.4829629540143006 0.009999999999999558
    vertex 9.046415361640499 -1.3959899741946242 0.009999999999999558
  endloop
endfacet
facet normal 0.6120002812916234 -0.790857544504049 0.0
  outer loop
    vertex 7.641774206985844 -2.4829629540143006 0.009999999999999558
    vertex 9.046415361640499 -1.3959899741946242 4.499999999999999
    vertex 7.641774206985844 -2.4829629540143006 4.499999999999999
  endloop
endfacet
facet normal 0.95997302945089 0.2800924538913553 -0.0
  outer loop
    vertex 7.641774206985844 -2.4829629540143006 0.009999999999999558
    vertex 8.139246084921497 -4.187969922583872 4.499999999999999
    vertex 8.139246084921497 -4.187969922583872 0.009999999999999558
  endloop
endfacet
facet normal 0.95997302945089 0.2800924538913553 -0.0
  outer loop
    vertex 8.139246084921497 -4.187969922583872 4.499999999999999
    vertex 7.641774206985844 -2.4829629540143006 0.009999999999999558
    vertex 7.641774206985844 -2.4829629540143006 4.499999999999999
  endloop
endfacet
facet normal 0.9510565162951536 -0.30901699437494756 7.151801666895775e-19
  outer loop
    vertex 9.499999999999998 0.0 0.0
    vertex 9.046415361640499 -1.3959899741946242 4.499999999999999
    vertex 9.046415361640499 -1.3959899741946242 0.009999999999999558
  endloop
endfacet
facet normal 0.9510565162951536 -0.30901699437494756 7.151801666895775e-19
  outer loop
    vertex 9.046415361640499 -1.3959899741946242 4.499999999999999
    vertex 9.499999999999998 0.0 0.0
    vertex 9.499999999999998 0.0 4.499999999999999
  endloop
endfacet
facet normal 0.0 -1.0 0.0
  outer loop
    vertex 6.424177810973605 -6.500481406416281 4.499999999999999
    vertex 4.722876194269525 -6.500481406416281 -3.524958103184872e-16
    vertex 6.424177810973605 -6.500481406416281 -3.524958103184872e-16
  endloop
endfacet
facet normal 0.0 -1.0 0.0
  outer loop
    vertex 4.722876194269525 -6.500481406416281 -3.524958103184872e-16
    vertex 6.424177810973605 -6.500481406416281 4.499999999999999
    vertex 4.722876194269525 -6.500481406416281 4.499999999999999
  endloop
endfacet
facet normal 0.9412687086431202 -0.33765843411547297 6.502738591811002e-18
  outer loop
    vertex 4.722876194269525 -6.500481406416281 -3.524958103184872e-16
    vertex 4.123161446561998 -8.172267652797595 4.499999999999999
    vertex 4.123161446561998 -8.172267652797595 -3.524958103184872e-16
  endloop
endfacet
facet normal 0.9412687086431202 -0.33765843411547297 6.502738591811002e-18
  outer loop
    vertex 4.123161446561998 -8.172267652797595 4.499999999999999
    vertex 4.722876194269525 -6.500481406416281 -3.524958103184872e-16
    vertex 4.722876194269525 -6.500481406416281 4.499999999999999
  endloop
endfacet
facet normal 0.5877852522924731 -0.8090169943749475 -2.5323285847273212e-18
  outer loop
    vertex 7.685661446561998 -5.583959896778497 0.0
    vertex 6.424177810973605 -6.500481406416281 4.499999999999999
    vertex 6.424177810973605 -6.500481406416281 -3.524958103184872e-16
  endloop
endfacet
facet normal 0.5877852522924731 -0.8090169943749475 -2.5323285847273212e-18
  outer loop
    vertex 6.424177810973605 -6.500481406416281 4.499999999999999
    vertex 7.685661446561998 -5.583959896778497 0.0
    vertex 7.685661446561998 -5.583959896778497 4.499999999999999
  endloop
endfacet
facet normal -0.9914448613738105 -0.1305261922200515 -0.0
  outer loop
    vertex 3.7671107225273666 1.0093942758998309 4.499999999999999
    vertex 3.9 0.0 0.0
    vertex 3.9 0.0 4.499999999999999
  endloop
endfacet
facet normal -0.9914448613738105 -0.1305261922200515 -0.0
  outer loop
    vertex 3.9 0.0 0.0
    vertex 3.7671107225273666 1.0093942758998309 4.499999999999999
    vertex 3.7671107225273666 1.0093942758998309 0.0
  endloop
endfacet
facet normal -0.9238795325112871 -0.3826834323650895 -3.2172568734301434e-17
  outer loop
    vertex 3.688759588983499 1.1985506451287395 4.499999999999999
    vertex 3.7671107225273666 1.0093942758998309 0.0
    vertex 3.7671107225273666 1.0093942758998309 4.499999999999999
  endloop
endfacet
facet normal -0.9238795325112871 -0.3826834323650895 -3.2172568734301434e-17
  outer loop
    vertex 3.7671107225273666 1.0093942758998309 0.0
    vertex 3.688759588983499 1.1985506451287395 4.499999999999999
    vertex 3.377499074759311 1.9499999999999995 0.0
  endloop
endfacet
facet normal -0.9238795325112871 -0.3826834323650895 -3.2172568734301434e-17
  outer loop
    vertex 3.377499074759311 1.9499999999999995 0.0
    vertex 3.688759588983499 1.1985506451287395 4.499999999999999
    vertex 3.377499074759311 1.9499999999999995 4.499999999999999
  endloop
endfacet
facet normal -0.793353340291235 -0.6087614290087208 -0.0
  outer loop
    vertex 2.7577164466275352 2.7577164466275352 4.499999999999999
    vertex 3.377499074759311 1.9499999999999995 0.0
    vertex 3.377499074759311 1.9499999999999995 4.499999999999999
  endloop
endfacet
facet normal -0.793353340291235 -0.6087614290087208 -0.0
  outer loop
    vertex 3.377499074759311 1.9499999999999995 0.0
    vertex 2.7577164466275352 2.7577164466275352 4.499999999999999
    vertex 2.7577164466275352 2.7577164466275352 0.0
  endloop
endfacet
facet normal -0.6087614290087208 -0.7933533402912352 -4.5462323099880855e-17
  outer loop
    vertex 2.7577164466275352 2.7577164466275352 4.499999999999999
    vertex 1.9500000000000004 3.3774990747593105 0.0
    vertex 2.7577164466275352 2.7577164466275352 0.0
  endloop
endfacet
facet normal -0.6087614290087208 -0.7933533402912352 -4.5462323099880855e-17
  outer loop
    vertex 1.9500000000000004 3.3774990747593105 0.0
    vertex 2.7577164466275352 2.7577164466275352 4.499999999999999
    vertex 1.9500000000000004 3.3774990747593105 4.499999999999999
  endloop
endfacet
facet normal -0.6087614290087208 -0.7933533402912352 -4.5462323099880855e-17
  outer loop
    vertex 1.9500000000000004 3.3774990747593105 4.499999999999999
    vertex 2.7577164466275352 2.7577164466275352 4.499999999999999
    vertex 2.2735300870872197 3.1292457075141025 4.499999999999999
  endloop
endfacet
facet normal -0.38268343236508967 -0.9238795325112868 -0.0
  outer loop
    vertex 1.9500000000000004 3.3774990747593105 4.499999999999999
    vertex 1.0093942758998318 3.7671107225273657 0.0
    vertex 1.9500000000000004 3.3774990747593105 0.0
  endloop
endfacet
facet normal -0.38268343236508967 -0.9238795325112868 -0.0
  outer loop
    vertex 1.0093942758998318 3.7671107225273657 0.0
    vertex 1.9500000000000004 3.3774990747593105 4.499999999999999
    vertex 1.0093942758998318 3.7671107225273657 4.499999999999999
  endloop
endfacet
facet normal -0.13052619222005213 -0.9914448613738105 0.0
  outer loop
    vertex 1.0093942758998318 3.7671107225273657 4.499999999999999
    vertex 2.3880612583373386e-16 3.9 0.0
    vertex 1.0093942758998318 3.7671107225273657 0.0
  endloop
endfacet
facet normal -0.13052619222005213 -0.9914448613738105 0.0
  outer loop
    vertex 2.3880612583373386e-16 3.9 0.0
    vertex 1.0093942758998318 3.7671107225273657 4.499999999999999
    vertex 2.3880612583373386e-16 3.9 4.499999999999999
  endloop
endfacet
facet normal 0.13052619222005152 -0.9914448613738105 0.0
  outer loop
    vertex 2.3880612583373386e-16 3.9 4.499999999999999
    vertex -1.0093942758998304 3.7671107225273666 0.0
    vertex 2.3880612583373386e-16 3.9 0.0
  endloop
endfacet
facet normal 0.13052619222005152 -0.9914448613738105 0.0
  outer loop
    vertex -1.0093942758998304 3.7671107225273666 0.0
    vertex 2.3880612583373386e-16 3.9 4.499999999999999
    vertex -1.0093942758998304 3.7671107225273666 4.499999999999999
  endloop
endfacet
facet normal 0.3826834323650896 -0.9238795325112868 0.0
  outer loop
    vertex -1.0093942758998304 3.7671107225273666 4.499999999999999
    vertex -1.9499999999999993 3.377499074759311 0.0
    vertex -1.0093942758998304 3.7671107225273666 0.0
  endloop
endfacet
facet normal 0.3826834323650896 -0.9238795325112868 0.0
  outer loop
    vertex -1.9499999999999993 3.377499074759311 0.0
    vertex -1.0093942758998304 3.7671107225273666 4.499999999999999
    vertex -1.9499999999999993 3.377499074759311 4.499999999999999
  endloop
endfacet
facet normal 0.6087614290087205 -0.7933533402912353 2.41005086312621e-17
  outer loop
    vertex -1.9499999999999993 3.377499074759311 4.499999999999999
    vertex -2.7577164466275352 2.7577164466275352 0.0
    vertex -1.9499999999999993 3.377499074759311 0.0
  endloop
endfacet
facet normal 0.6087614290087205 -0.7933533402912353 2.41005086312621e-17
  outer loop
    vertex -2.7577164466275352 2.7577164466275352 0.0
    vertex -1.9499999999999993 3.377499074759311 4.499999999999999
    vertex -2.7577164466275352 2.7577164466275352 4.499999999999999
  endloop
endfacet
facet normal 0.6087614290087205 -0.7933533402912353 2.41005086312621e-17
  outer loop
    vertex -2.7577164466275352 2.7577164466275352 4.499999999999999
    vertex -1.9499999999999993 3.377499074759311 4.499999999999999
    vertex -2.273530087087221 3.129245707514103 4.499999999999999
  endloop
endfacet
facet normal 0.793353340291235 -0.6087614290087208 0.0
  outer loop
    vertex -2.7577164466275352 2.7577164466275352 0.0
    vertex -3.3774990747593097 1.9500000000000013 4.499999999999999
    vertex -3.3774990747593097 1.9500000000000013 0.0
  endloop
endfacet
facet normal 0.793353340291235 -0.6087614290087208 0.0
  outer loop
    vertex -3.3774990747593097 1.9500000000000013 4.499999999999999
    vertex -2.7577164466275352 2.7577164466275352 0.0
    vertex -2.7577164466275352 2.7577164466275352 4.499999999999999
  endloop
endfacet
facet normal 0.9238795325112867 -0.3826834323650903 1.0009243606227096e-16
  outer loop
    vertex -3.3774990747593097 1.9500000000000013 0.0
    vertex -3.7671107225273657 1.009394275899832 4.499999999999999
    vertex -3.7671107225273657 1.009394275899832 0.0
  endloop
endfacet
facet normal 0.9238795325112867 -0.3826834323650903 1.0009243606227096e-16
  outer loop
    vertex -3.7671107225273657 1.009394275899832 4.499999999999999
    vertex -3.3774990747593097 1.9500000000000013 0.0
    vertex -3.6887595889835008 1.1985506451287402 4.499999999999999
  endloop
endfacet
facet normal 0.9238795325112867 -0.3826834323650903 1.0009243606227096e-16
  outer loop
    vertex -3.6887595889835008 1.1985506451287402 4.499999999999999
    vertex -3.3774990747593097 1.9500000000000013 0.0
    vertex -3.3774990747593097 1.9500000000000013 4.499999999999999
  endloop
endfacet
facet normal 0.9914448613738105 -0.1305261922200521 0.0
  outer loop
    vertex -3.7671107225273657 1.009394275899832 0.0
    vertex -3.9 4.776122516674677e-16 4.499999999999999
    vertex -3.9 4.776122516674677e-16 0.0
  endloop
endfacet
facet normal 0.9914448613738105 -0.1305261922200521 0.0
  outer loop
    vertex -3.9 4.776122516674677e-16 4.499999999999999
    vertex -3.7671107225273657 1.009394275899832 0.0
    vertex -3.7671107225273657 1.009394275899832 4.499999999999999
  endloop
endfacet
facet normal 0.9914448613738106 0.13052619222005094 0.0
  outer loop
    vertex -3.9 4.776122516674677e-16 0.0
    vertex -3.767110722527367 -1.0093942758998293 4.499999999999999
    vertex -3.767110722527367 -1.0093942758998293 0.0
  endloop
endfacet
facet normal 0.9914448613738106 0.13052619222005094 0.0
  outer loop
    vertex -3.767110722527367 -1.0093942758998293 4.499999999999999
    vertex -3.9 4.776122516674677e-16 0.0
    vertex -3.9 4.776122516674677e-16 4.499999999999999
  endloop
endfacet
facet normal 0.9238795325112867 0.38268343236509 2.323574408588433e-17
  outer loop
    vertex -3.767110722527367 -1.0093942758998293 0.0
    vertex -3.377499074759311 -1.9499999999999988 4.499999999999999
    vertex -3.377499074759311 -1.9499999999999988 0.0
  endloop
endfacet
facet normal 0.9238795325112867 0.38268343236509 2.323574408588433e-17
  outer loop
    vertex -3.377499074759311 -1.9499999999999988 4.499999999999999
    vertex -3.767110722527367 -1.0093942758998293 0.0
    vertex -3.6887595889835008 -1.1985506451287384 4.499999999999999
  endloop
endfacet
facet normal 0.9238795325112867 0.38268343236509 2.323574408588433e-17
  outer loop
    vertex -3.6887595889835008 -1.1985506451287384 4.499999999999999
    vertex -3.767110722527367 -1.0093942758998293 0.0
    vertex -3.767110722527367 -1.0093942758998293 4.499999999999999
  endloop
endfacet
facet normal 0.7933533402912355 0.6087614290087203 0.0
  outer loop
    vertex -3.377499074759311 -1.9499999999999988 0.0
    vertex -2.757716446627537 -2.7577164466275335 4.499999999999999
    vertex -2.757716446627537 -2.7577164466275335 0.0
  endloop
endfacet
facet normal 0.7933533402912355 0.6087614290087203 0.0
  outer loop
    vertex -2.757716446627537 -2.7577164466275335 4.499999999999999
    vertex -3.377499074759311 -1.9499999999999988 0.0
    vertex -3.377499074759311 -1.9499999999999988 4.499999999999999
  endloop
endfacet
facet normal 0.6087614290087212 0.7933533402912347 -1.3145731980688433e-17
  outer loop
    vertex -2.757716446627537 -2.7577164466275335 4.499999999999999
    vertex -1.9500000000000017 -3.3774990747593097 0.0
    vertex -2.757716446627537 -2.7577164466275335 0.0
  endloop
endfacet
facet normal 0.6087614290087212 0.7933533402912347 -1.3145731980688433e-17
  outer loop
    vertex -1.9500000000000017 -3.3774990747593097 0.0
    vertex -2.757716446627537 -2.7577164466275335 4.499999999999999
    vertex -1.9500000000000017 -3.3774990747593097 4.499999999999999
  endloop
endfacet
facet normal 0.6087614290087212 0.7933533402912347 -1.3145731980688433e-17
  outer loop
    vertex -1.9500000000000017 -3.3774990747593097 4.499999999999999
    vertex -2.757716446627537 -2.7577164466275335 4.499999999999999
    vertex -2.2735300870872215 -3.129245707514102 4.499999999999999
  endloop
endfacet
facet normal 0.3826834323650905 0.9238795325112864 0.0
  outer loop
    vertex -1.9500000000000017 -3.3774990747593097 4.499999999999999
    vertex -1.009394275899834 -3.7671107225273657 0.0
    vertex -1.9500000000000017 -3.3774990747593097 0.0
  endloop
endfacet
facet normal 0.3826834323650905 0.9238795325112864 0.0
  outer loop
    vertex -1.009394275899834 -3.7671107225273657 0.0
    vertex -1.9500000000000017 -3.3774990747593097 4.499999999999999
    vertex -1.009394275899834 -3.7671107225273657 4.499999999999999
  endloop
endfacet
facet normal 0.13052619222005188 0.9914448613738105 -0.0
  outer loop
    vertex -1.009394275899834 -3.7671107225273657 4.499999999999999
    vertex -7.164183775012016e-16 -3.9 0.0
    vertex -1.009394275899834 -3.7671107225273657 0.0
  endloop
endfacet
facet normal 0.13052619222005188 0.9914448613738105 -0.0
  outer loop
    vertex -7.164183775012016e-16 -3.9 0.0
    vertex -1.009394275899834 -3.7671107225273657 4.499999999999999
    vertex -7.164183775012016e-16 -3.9 4.499999999999999
  endloop
endfacet
facet normal -0.1305261922200509 0.9914448613738105 -0.0
  outer loop
    vertex -7.164183775012016e-16 -3.9 4.499999999999999
    vertex 1.009394275899829 -3.767110722527367 0.0
    vertex -7.164183775012016e-16 -3.9 0.0
  endloop
endfacet
facet normal -0.1305261922200509 0.9914448613738105 -0.0
  outer loop
    vertex 1.009394275899829 -3.767110722527367 0.0
    vertex -7.164183775012016e-16 -3.9 4.499999999999999
    vertex 1.009394275899829 -3.767110722527367 4.499999999999999
  endloop
endfacet
facet normal -0.3826834323650892 0.9238795325112871 0.0
  outer loop
    vertex 1.009394275899829 -3.767110722527367 4.499999999999999
    vertex 1.9499999999999975 -3.3774990747593123 0.0
    vertex 1.009394275899829 -3.767110722527367 0.0
  endloop
endfacet
facet normal -0.3826834323650892 0.9238795325112871 0.0
  outer loop
    vertex 1.9499999999999975 -3.3774990747593123 0.0
    vertex 1.009394275899829 -3.767110722527367 4.499999999999999
    vertex 1.9499999999999975 -3.3774990747593123 4.499999999999999
  endloop
endfacet
facet normal -0.6087614290087207 0.7933533402912354 -2.738694162643411e-17
  outer loop
    vertex 1.9499999999999975 -3.3774990747593123 4.499999999999999
    vertex 2.757716446627535 -2.7577164466275357 0.0
    vertex 1.9499999999999975 -3.3774990747593123 0.0
  endloop
endfacet
facet normal -0.6087614290087207 0.7933533402912354 -2.738694162643411e-17
  outer loop
    vertex 2.757716446627535 -2.7577164466275357 0.0
    vertex 1.9499999999999975 -3.3774990747593123 4.499999999999999
    vertex 2.757716446627535 -2.7577164466275357 4.499999999999999
  endloop
endfacet
facet normal -0.6087614290087207 0.7933533402912354 -2.738694162643411e-17
  outer loop
    vertex 2.757716446627535 -2.7577164466275357 4.499999999999999
    vertex 1.9499999999999975 -3.3774990747593123 4.499999999999999
    vertex 2.2735300870872184 -3.1292457075141042 4.499999999999999
  endloop
endfacet
facet normal -0.7933533402912349 0.6087614290087211 0.0
  outer loop
    vertex 3.3774990747593097 -1.9500000000000017 4.499999999999999
    vertex 2.757716446627535 -2.7577164466275357 0.0
    vertex 2.757716446627535 -2.7577164466275357 4.499999999999999
  endloop
endfacet
facet normal -0.7933533402912349 0.6087614290087211 0.0
  outer loop
    vertex 2.757716446627535 -2.7577164466275357 0.0
    vertex 3.3774990747593097 -1.9500000000000017 4.499999999999999
    vertex 3.3774990747593097 -1.9500000000000017 0.0
  endloop
endfacet
facet normal -0.9238795325112865 0.38268343236509067 0.0
  outer loop
    vertex 3.6887595889835 -1.19855064512874 4.499999999999999
    vertex 3.3774990747593097 -1.9500000000000017 0.0
    vertex 3.3774990747593097 -1.9500000000000017 4.499999999999999
  endloop
endfacet
facet normal -0.9238795325112865 0.38268343236509067 0.0
  outer loop
    vertex 3.3774990747593097 -1.9500000000000017 0.0
    vertex 3.6887595889835 -1.19855064512874 4.499999999999999
    vertex 3.7671107225273657 -1.0093942758998342 0.0
  endloop
endfacet
facet normal -0.9238795325112865 0.38268343236509067 0.0
  outer loop
    vertex 3.7671107225273657 -1.0093942758998342 0.0
    vertex 3.6887595889835 -1.19855064512874 4.499999999999999
    vertex 3.7671107225273657 -1.0093942758998342 4.499999999999999
  endloop
endfacet
facet normal -0.9914448613738104 0.13052619222005174 0.0
  outer loop
    vertex 3.9 0.0 4.499999999999999
    vertex 3.7671107225273657 -1.0093942758998342 0.0
    vertex 3.7671107225273657 -1.0093942758998342 4.499999999999999
  endloop
endfacet
facet normal -0.9914448613738104 0.13052619222005174 0.0
  outer loop
    vertex 3.7671107225273657 -1.0093942758998342 0.0
    vertex 3.9 0.0 4.499999999999999
    vertex 3.9 0.0 0.0
  endloop
endfacet
endsolid Гайка-М8
