solid Гайка-регулировки
facet normal -0.9914448613738105 -0.1305261922200515 -0.0
  outer loop
    vertex 3.7671107225273666 1.0093942758998309 4.499999999999999
    vertex 3.9 0.0 0.0
    vertex 3.9 0.0 4.499999999999999
  endloop
endfacet
facet normal -0.9914448613738105 -0.1305261922200515 -0.0
  outer loop
    vertex 3.9 0.0 0.0
    vertex 3.7671107225273666 1.0093942758998309 4.499999999999999
    vertex 3.7671107225273666 1.0093942758998309 0.0
  endloop
endfacet
facet normal -0.9238795325112868 -0.3826834323650896 -0.0
  outer loop
    vertex 3.377499074759311 1.9499999999999995 4.499999999999999
    vertex 3.7671107225273666 1.0093942758998309 0.0
    vertex 3.7671107225273666 1.0093942758998309 4.499999999999999
  endloop
endfacet
facet normal -0.9238795325112868 -0.3826834323650896 -0.0
  outer loop
    vertex 3.7671107225273666 1.0093942758998309 0.0
    vertex 3.377499074759311 1.9499999999999995 4.499999999999999
    vertex 3.377499074759311 1.9499999999999995 0.0
  endloop
endfacet
facet normal -0.793353340291235 -0.6087614290087208 -0.0
  outer loop
    vertex 2.7577164466275352 2.7577164466275352 4.499999999999999
    vertex 3.377499074759311 1.9499999999999995 0.0
    vertex 3.377499074759311 1.9499999999999995 4.499999999999999
  endloop
endfacet
facet normal -0.793353340291235 -0.6087614290087208 -0.0
  outer loop
    vertex 3.377499074759311 1.9499999999999995 0.0
    vertex 2.7577164466275352 2.7577164466275352 4.499999999999999
    vertex 2.7577164466275352 2.7577164466275352 0.0
  endloop
endfacet
facet normal -0.6087614290087208 -0.7933533402912352 -0.0
  outer loop
    vertex 2.7577164466275352 2.7577164466275352 4.499999999999999
    vertex 1.9500000000000004 3.3774990747593105 0.0
    vertex 2.7577164466275352 2.7577164466275352 0.0
  endloop
endfacet
facet normal -0.6087614290087208 -0.7933533402912352 -0.0
  outer loop
    vertex 1.9500000000000004 3.3774990747593105 0.0
    vertex 2.7577164466275352 2.7577164466275352 4.499999999999999
    vertex 1.9500000000000004 3.3774990747593105 4.499999999999999
  endloop
endfacet
facet normal -0.38268343236508967 -0.9238795325112868 -0.0
  outer loop
    vertex 1.9500000000000004 3.3774990747593105 4.499999999999999
    vertex 1.0093942758998318 3.7671107225273657 0.0
    vertex 1.9500000000000004 3.3774990747593105 0.0
  endloop
endfacet
facet normal -0.38268343236508967 -0.9238795325112868 -0.0
  outer loop
    vertex 1.0093942758998318 3.7671107225273657 0.0
    vertex 1.9500000000000004 3.3774990747593105 4.499999999999999
    vertex 1.0093942758998318 3.7671107225273657 4.499999999999999
  endloop
endfacet
facet normal -0.1305261922200521 -0.9914448613738105 -0.0
  outer loop
    vertex 1.0093942758998318 3.7671107225273657 4.499999999999999
    vertex 2.3880612583373386e-16 3.9 0.0
    vertex 1.0093942758998318 3.7671107225273657 0.0
  endloop
endfacet
facet normal -0.1305261922200521 -0.9914448613738105 -0.0
  outer loop
    vertex 2.3880612583373386e-16 3.9 0.0
    vertex 1.0093942758998318 3.7671107225273657 4.499999999999999
    vertex 2.3880612583373386e-16 3.9 4.499999999999999
  endloop
endfacet
facet normal 0.13052619222005155 -0.9914448613738106 0.0
  outer loop
    vertex 2.3880612583373386e-16 3.9 4.499999999999999
    vertex -1.0093942758998304 3.7671107225273666 0.0
    vertex 2.3880612583373386e-16 3.9 0.0
  endloop
endfacet
facet normal 0.13052619222005155 -0.9914448613738106 0.0
  outer loop
    vertex -1.0093942758998304 3.7671107225273666 0.0
    vertex 2.3880612583373386e-16 3.9 4.499999999999999
    vertex -1.0093942758998304 3.7671107225273666 4.499999999999999
  endloop
endfacet
facet normal 0.3826834323650896 -0.9238795325112868 0.0
  outer loop
    vertex -1.0093942758998304 3.7671107225273666 4.499999999999999
    vertex -1.9499999999999993 3.377499074759311 0.0
    vertex -1.0093942758998304 3.7671107225273666 0.0
  endloop
endfacet
facet normal 0.3826834323650896 -0.9238795325112868 0.0
  outer loop
    vertex -1.9499999999999993 3.377499074759311 0.0
    vertex -1.0093942758998304 3.7671107225273666 4.499999999999999
    vertex -1.9499999999999993 3.377499074759311 4.499999999999999
  endloop
endfacet
facet normal 0.6087614290087207 -0.7933533402912353 0.0
  outer loop
    vertex -1.9499999999999993 3.377499074759311 4.499999999999999
    vertex -2.7577164466275352 2.7577164466275352 0.0
    vertex -1.9499999999999993 3.377499074759311 0.0
  endloop
endfacet
facet normal 0.6087614290087207 -0.7933533402912353 0.0
  outer loop
    vertex -2.7577164466275352 2.7577164466275352 0.0
    vertex -1.9499999999999993 3.377499074759311 4.499999999999999
    vertex -2.7577164466275352 2.7577164466275352 4.499999999999999
  endloop
endfacet
facet normal 0.793353340291235 -0.6087614290087208 0.0
  outer loop
    vertex -2.7577164466275352 2.7577164466275352 0.0
    vertex -3.3774990747593097 1.9500000000000013 4.499999999999999
    vertex -3.3774990747593097 1.9500000000000013 0.0
  endloop
endfacet
facet normal 0.793353340291235 -0.6087614290087208 0.0
  outer loop
    vertex -3.3774990747593097 1.9500000000000013 4.499999999999999
    vertex -2.7577164466275352 2.7577164466275352 0.0
    vertex -2.7577164466275352 2.7577164466275352 4.499999999999999
  endloop
endfacet
facet normal 0.9238795325112867 -0.38268343236509 0.0
  outer loop
    vertex -3.3774990747593097 1.9500000000000013 0.0
    vertex -3.7671107225273657 1.009394275899832 4.499999999999999
    vertex -3.7671107225273657 1.009394275899832 0.0
  endloop
endfacet
facet normal 0.9238795325112867 -0.38268343236509 0.0
  outer loop
    vertex -3.7671107225273657 1.009394275899832 4.499999999999999
    vertex -3.3774990747593097 1.9500000000000013 0.0
    vertex -3.3774990747593097 1.9500000000000013 4.499999999999999
  endloop
endfacet
facet normal 0.9914448613738105 -0.1305261922200521 0.0
  outer loop
    vertex -3.7671107225273657 1.009394275899832 0.0
    vertex -3.9 4.776122516674677e-16 4.499999999999999
    vertex -3.9 4.776122516674677e-16 0.0
  endloop
endfacet
facet normal 0.9914448613738105 -0.1305261922200521 0.0
  outer loop
    vertex -3.9 4.776122516674677e-16 4.499999999999999
    vertex -3.7671107225273657 1.009394275899832 0.0
    vertex -3.7671107225273657 1.009394275899832 4.499999999999999
  endloop
endfacet
facet normal 0.9914448613738106 0.13052619222005094 0.0
  outer loop
    vertex -3.9 4.776122516674677e-16 0.0
    vertex -3.767110722527367 -1.0093942758998293 4.499999999999999
    vertex -3.767110722527367 -1.0093942758998293 0.0
  endloop
endfacet
facet normal 0.9914448613738106 0.13052619222005094 0.0
  outer loop
    vertex -3.767110722527367 -1.0093942758998293 4.499999999999999
    vertex -3.9 4.776122516674677e-16 0.0
    vertex -3.9 4.776122516674677e-16 4.499999999999999
  endloop
endfacet
facet normal 0.9238795325112868 0.38268343236509 0.0
  outer loop
    vertex -3.767110722527367 -1.0093942758998293 0.0
    vertex -3.377499074759311 -1.9499999999999988 4.499999999999999
    vertex -3.377499074759311 -1.9499999999999988 0.0
  endloop
endfacet
facet normal 0.9238795325112868 0.38268343236509 0.0
  outer loop
    vertex -3.377499074759311 -1.9499999999999988 4.499999999999999
    vertex -3.767110722527367 -1.0093942758998293 0.0
    vertex -3.767110722527367 -1.0093942758998293 4.499999999999999
  endloop
endfacet
facet normal 0.7933533402912355 0.6087614290087203 0.0
  outer loop
    vertex -3.377499074759311 -1.9499999999999988 0.0
    vertex -2.757716446627537 -2.7577164466275335 4.499999999999999
    vertex -2.757716446627537 -2.7577164466275335 0.0
  endloop
endfacet
facet normal 0.7933533402912355 0.6087614290087203 0.0
  outer loop
    vertex -2.757716446627537 -2.7577164466275335 4.499999999999999
    vertex -3.377499074759311 -1.9499999999999988 0.0
    vertex -3.377499074759311 -1.9499999999999988 4.499999999999999
  endloop
endfacet
facet normal 0.6087614290087212 0.7933533402912347 0.0
  outer loop
    vertex -2.757716446627537 -2.7577164466275335 4.499999999999999
    vertex -1.9500000000000017 -3.3774990747593097 0.0
    vertex -2.757716446627537 -2.7577164466275335 0.0
  endloop
endfacet
facet normal 0.6087614290087212 0.7933533402912347 0.0
  outer loop
    vertex -1.9500000000000017 -3.3774990747593097 0.0
    vertex -2.757716446627537 -2.7577164466275335 4.499999999999999
    vertex -1.9500000000000017 -3.3774990747593097 4.499999999999999
  endloop
endfacet
facet normal 0.3826834323650906 0.9238795325112866 0.0
  outer loop
    vertex -1.9500000000000017 -3.3774990747593097 4.499999999999999
    vertex -1.009394275899834 -3.7671107225273657 0.0
    vertex -1.9500000000000017 -3.3774990747593097 0.0
  endloop
endfacet
facet normal 0.3826834323650906 0.9238795325112866 0.0
  outer loop
    vertex -1.009394275899834 -3.7671107225273657 0.0
    vertex -1.9500000000000017 -3.3774990747593097 4.499999999999999
    vertex -1.009394275899834 -3.7671107225273657 4.499999999999999
  endloop
endfacet
facet normal 0.13052619222005185 0.9914448613738104 0.0
  outer loop
    vertex -1.009394275899834 -3.7671107225273657 4.499999999999999
    vertex -7.164183775012016e-16 -3.9 0.0
    vertex -1.009394275899834 -3.7671107225273657 0.0
  endloop
endfacet
facet normal 0.13052619222005185 0.9914448613738104 0.0
  outer loop
    vertex -7.164183775012016e-16 -3.9 0.0
    vertex -1.009394275899834 -3.7671107225273657 4.499999999999999
    vertex -7.164183775012016e-16 -3.9 4.499999999999999
  endloop
endfacet
facet normal -0.13052619222005094 0.9914448613738106 0.0
  outer loop
    vertex -7.164183775012016e-16 -3.9 4.499999999999999
    vertex 1.009394275899829 -3.767110722527367 0.0
    vertex -7.164183775012016e-16 -3.9 0.0
  endloop
endfacet
facet normal -0.13052619222005094 0.9914448613738106 0.0
  outer loop
    vertex 1.009394275899829 -3.767110722527367 0.0
    vertex -7.164183775012016e-16 -3.9 4.499999999999999
    vertex 1.009394275899829 -3.767110722527367 4.499999999999999
  endloop
endfacet
facet normal -0.3826834323650892 0.9238795325112871 0.0
  outer loop
    vertex 1.009394275899829 -3.767110722527367 4.499999999999999
    vertex 1.9499999999999975 -3.3774990747593123 0.0
    vertex 1.009394275899829 -3.767110722527367 0.0
  endloop
endfacet
facet normal -0.3826834323650892 0.9238795325112871 0.0
  outer loop
    vertex 1.9499999999999975 -3.3774990747593123 0.0
    vertex 1.009394275899829 -3.767110722527367 4.499999999999999
    vertex 1.9499999999999975 -3.3774990747593123 4.499999999999999
  endloop
endfacet
facet normal -0.6087614290087207 0.7933533402912354 0.0
  outer loop
    vertex 1.9499999999999975 -3.3774990747593123 4.499999999999999
    vertex 2.757716446627535 -2.7577164466275357 0.0
    vertex 1.9499999999999975 -3.3774990747593123 0.0
  endloop
endfacet
facet normal -0.6087614290087207 0.7933533402912354 0.0
  outer loop
    vertex 2.757716446627535 -2.7577164466275357 0.0
    vertex 1.9499999999999975 -3.3774990747593123 4.499999999999999
    vertex 2.757716446627535 -2.7577164466275357 4.499999999999999
  endloop
endfacet
facet normal -0.7933533402912349 0.6087614290087211 0.0
  outer loop
    vertex 3.3774990747593097 -1.9500000000000017 4.499999999999999
    vertex 2.757716446627535 -2.7577164466275357 0.0
    vertex 2.757716446627535 -2.7577164466275357 4.499999999999999
  endloop
endfacet
facet normal -0.7933533402912349 0.6087614290087211 0.0
  outer loop
    vertex 2.757716446627535 -2.7577164466275357 0.0
    vertex 3.3774990747593097 -1.9500000000000017 4.499999999999999
    vertex 3.3774990747593097 -1.9500000000000017 0.0
  endloop
endfacet
facet normal -0.9238795325112864 0.3826834323650906 0.0
  outer loop
    vertex 3.7671107225273657 -1.0093942758998342 4.499999999999999
    vertex 3.3774990747593097 -1.9500000000000017 0.0
    vertex 3.3774990747593097 -1.9500000000000017 4.499999999999999
  endloop
endfacet
facet normal -0.9238795325112864 0.3826834323650906 0.0
  outer loop
    vertex 3.3774990747593097 -1.9500000000000017 0.0
    vertex 3.7671107225273657 -1.0093942758998342 4.499999999999999
    vertex 3.7671107225273657 -1.0093942758998342 0.0
  endloop
endfacet
facet normal -0.9914448613738104 0.13052619222005174 0.0
  outer loop
    vertex 3.9 0.0 4.499999999999999
    vertex 3.7671107225273657 -1.0093942758998342 0.0
    vertex 3.7671107225273657 -1.0093942758998342 4.499999999999999
  endloop
endfacet
facet normal -0.9914448613738104 0.13052619222005174 0.0
  outer loop
    vertex 3.7671107225273657 -1.0093942758998342 0.0
    vertex 3.9 0.0 4.499999999999999
    vertex 3.9 0.0 0.0
  endloop
endfacet
facet normal 0.0 0.0 -1.0
  outer loop
    vertex -2.9356614465619995 9.03503690480396 0.0
    vertex -3.9 4.776122516674677e-16 0.0
    vertex -7.685661446561998 5.583959896778496 0.0
  endloop
endfacet
facet normal 0.0 0.0 -1.0
  outer loop
    vertex -3.9 4.776122516674677e-16 0.0
    vertex -2.9356614465619995 9.03503690480396 0.0
    vertex -3.7671107225273657 1.009394275899832 0.0
  endloop
endfacet
facet normal 0.0 0.0 -1.0
  outer loop
    vertex -3.7671107225273657 1.009394275899832 0.0
    vertex -2.9356614465619995 9.03503690480396 0.0
    vertex -3.3774990747593097 1.9500000000000013 0.0
  endloop
endfacet
facet normal 0.0 0.0 -1.0
  outer loop
    vertex -3.3774990747593097 1.9500000000000013 0.0
    vertex -2.9356614465619995 9.03503690480396 0.0
    vertex -2.7577164466275352 2.7577164466275352 0.0
  endloop
endfacet
facet normal 0.0 0.0 -1.0
  outer loop
    vertex -2.7577164466275352 2.7577164466275352 0.0
    vertex -2.9356614465619995 9.03503690480396 0.0
    vertex 2.9356614465620003 9.035036904803958 0.0
  endloop
endfacet
facet normal 0.0 0.0 -1.0
  outer loop
    vertex -2.7577164466275352 2.7577164466275352 0.0
    vertex 2.9356614465620003 9.035036904803958 0.0
    vertex -1.9499999999999993 3.377499074759311 0.0
  endloop
endfacet
facet normal 0.0 0.0 -1.0
  outer loop
    vertex -1.9499999999999993 3.377499074759311 0.0
    vertex 2.9356614465620003 9.035036904803958 0.0
    vertex -1.0093942758998304 3.7671107225273666 0.0
  endloop
endfacet
facet normal 0.0 0.0 -1.0
  outer loop
    vertex -1.0093942758998304 3.7671107225273666 0.0
    vertex 2.9356614465620003 9.035036904803958 0.0
    vertex 2.3880612583373386e-16 3.9 0.0
  endloop
endfacet
facet normal 0.0 0.0 -1.0
  outer loop
    vertex 2.3880612583373386e-16 3.9 0.0
    vertex 2.9356614465620003 9.035036904803958 0.0
    vertex 1.0093942758998318 3.7671107225273657 0.0
  endloop
endfacet
facet normal 0.0 0.0 -1.0
  outer loop
    vertex 1.0093942758998318 3.7671107225273657 0.0
    vertex 2.9356614465620003 9.035036904803958 0.0
    vertex 1.9500000000000004 3.3774990747593105 0.0
  endloop
endfacet
facet normal 0.0 0.0 -1.0
  outer loop
    vertex 1.9500000000000004 3.3774990747593105 0.0
    vertex 2.9356614465620003 9.035036904803958 0.0
    vertex 2.7577164466275352 2.7577164466275352 0.0
  endloop
endfacet
facet normal 0.0 0.0 -1.0
  outer loop
    vertex 2.7577164466275352 2.7577164466275352 0.0
    vertex 2.9356614465620003 9.035036904803958 0.0
    vertex 3.377499074759311 1.9499999999999995 0.0
  endloop
endfacet
facet normal 0.0 0.0 -1.0
  outer loop
    vertex 3.377499074759311 1.9499999999999995 0.0
    vertex 2.9356614465620003 9.035036904803958 0.0
    vertex 7.6856614465619995 5.583959896778494 0.0
  endloop
endfacet
facet normal 0.0 0.0 -1.0
  outer loop
    vertex 3.377499074759311 1.9499999999999995 0.0
    vertex 7.6856614465619995 5.583959896778494 0.0
    vertex 3.7671107225273666 1.0093942758998309 0.0
  endloop
endfacet
facet normal 0.0 0.0 -1.0
  outer loop
    vertex 3.7671107225273666 1.0093942758998309 0.0
    vertex 7.6856614465619995 5.583959896778494 0.0
    vertex 3.9 0.0 0.0
  endloop
endfacet
facet normal 0.0 0.0 -1.0
  outer loop
    vertex 3.9 0.0 0.0
    vertex 7.6856614465619995 5.583959896778494 0.0
    vertex 7.685661446561998 -5.583959896778497 0.0
  endloop
endfacet
facet normal 0.0 0.0 -1.0
  outer loop
    vertex 7.685661446561998 -5.583959896778497 0.0
    vertex 7.6856614465619995 5.583959896778494 0.0
    vertex 9.499999999999998 0.0 0.0
  endloop
endfacet
facet normal 0.0 0.0 -1.0
  outer loop
    vertex -7.685661446561998 5.583959896778496 0.0
    vertex -7.685661446562 -5.583959896778493 0.0
    vertex -9.499999999999998 1.1634144591899855e-15 0.0
  endloop
endfacet
facet normal 0.0 0.0 -1.0
  outer loop
    vertex -7.685661446562 -5.583959896778493 0.0
    vertex -7.685661446561998 5.583959896778496 0.0
    vertex -2.9356614465620017 -9.035036904803958 0.0
  endloop
endfacet
facet normal 0.0 0.0 -1.0
  outer loop
    vertex -2.9356614465620017 -9.035036904803958 0.0
    vertex -7.685661446561998 5.583959896778496 0.0
    vertex -3.9 4.776122516674677e-16 0.0
  endloop
endfacet
facet normal 0.0 0.0 -1.0
  outer loop
    vertex -2.9356614465620017 -9.035036904803958 0.0
    vertex -3.9 4.776122516674677e-16 0.0
    vertex -3.767110722527367 -1.0093942758998293 0.0
  endloop
endfacet
facet normal 0.0 0.0 -1.0
  outer loop
    vertex -2.9356614465620017 -9.035036904803958 0.0
    vertex -3.767110722527367 -1.0093942758998293 0.0
    vertex -3.377499074759311 -1.9499999999999988 0.0
  endloop
endfacet
facet normal 0.0 0.0 -1.0
  outer loop
    vertex -2.9356614465620017 -9.035036904803958 0.0
    vertex -3.377499074759311 -1.9499999999999988 0.0
    vertex -2.757716446627537 -2.7577164466275335 0.0
  endloop
endfacet
facet normal 0.0 0.0 -1.0
  outer loop
    vertex -2.9356614465620017 -9.035036904803958 0.0
    vertex -2.757716446627537 -2.7577164466275335 0.0
    vertex 2.935661446561998 -9.03503690480396 0.0
  endloop
endfacet
facet normal 0.0 0.0 -1.0
  outer loop
    vertex 2.935661446561998 -9.03503690480396 0.0
    vertex -2.757716446627537 -2.7577164466275335 0.0
    vertex -1.9500000000000017 -3.3774990747593097 0.0
  endloop
endfacet
facet normal 0.0 0.0 -1.0
  outer loop
    vertex 2.935661446561998 -9.03503690480396 0.0
    vertex -1.9500000000000017 -3.3774990747593097 0.0
    vertex -1.009394275899834 -3.7671107225273657 0.0
  endloop
endfacet
facet normal 0.0 0.0 -1.0
  outer loop
    vertex 2.935661446561998 -9.03503690480396 0.0
    vertex -1.009394275899834 -3.7671107225273657 0.0
    vertex -7.164183775012016e-16 -3.9 0.0
  endloop
endfacet
facet normal 0.0 0.0 -1.0
  outer loop
    vertex 2.935661446561998 -9.03503690480396 0.0
    vertex -7.164183775012016e-16 -3.9 0.0
    vertex 1.009394275899829 -3.767110722527367 0.0
  endloop
endfacet
facet normal 0.0 0.0 -1.0
  outer loop
    vertex 2.935661446561998 -9.03503690480396 0.0
    vertex 1.009394275899829 -3.767110722527367 0.0
    vertex 1.9499999999999975 -3.3774990747593123 0.0
  endloop
endfacet
facet normal 0.0 0.0 -1.0
  outer loop
    vertex 2.935661446561998 -9.03503690480396 0.0
    vertex 1.9499999999999975 -3.3774990747593123 0.0
    vertex 2.757716446627535 -2.7577164466275357 0.0
  endloop
endfacet
facet normal 0.0 0.0 -1.0
  outer loop
    vertex 2.935661446561998 -9.03503690480396 0.0
    vertex 2.757716446627535 -2.7577164466275357 0.0
    vertex 3.3774990747593097 -1.9500000000000017 0.0
  endloop
endfacet
facet normal 0.0 0.0 -1.0
  outer loop
    vertex 2.935661446561998 -9.03503690480396 0.0
    vertex 3.3774990747593097 -1.9500000000000017 0.0
    vertex 7.685661446561998 -5.583959896778497 0.0
  endloop
endfacet
facet normal 0.0 0.0 -1.0
  outer loop
    vertex 7.685661446561998 -5.583959896778497 0.0
    vertex 3.3774990747593097 -1.9500000000000017 0.0
    vertex 3.7671107225273657 -1.0093942758998342 0.0
  endloop
endfacet
facet normal 0.0 0.0 -1.0
  outer loop
    vertex 7.685661446561998 -5.583959896778497 0.0
    vertex 3.7671107225273657 -1.0093942758998342 0.0
    vertex 3.9 0.0 0.0
  endloop
endfacet
facet normal 0.0 0.0 1.0
  outer loop
    vertex -7.685661446562 -5.583959896778493 4.499999999999999
    vertex -7.685661446561998 5.583959896778496 4.499999999999999
    vertex -9.499999999999998 1.1634144591899855e-15 4.499999999999999
  endloop
endfacet
facet normal 0.0 0.0 1.0
  outer loop
    vertex -7.685661446561998 5.583959896778496 4.499999999999999
    vertex -7.685661446562 -5.583959896778493 4.499999999999999
    vertex -2.9356614465620017 -9.035036904803958 4.499999999999999
  endloop
endfacet
facet normal 0.0 0.0 1.0
  outer loop
    vertex -7.685661446561998 5.583959896778496 4.499999999999999
    vertex -2.9356614465620017 -9.035036904803958 4.499999999999999
    vertex -3.9 4.776122516674677e-16 4.499999999999999
  endloop
endfacet
facet normal 0.0 0.0 1.0
  outer loop
    vertex -3.9 4.776122516674677e-16 4.499999999999999
    vertex -2.9356614465620017 -9.035036904803958 4.499999999999999
    vertex -3.767110722527367 -1.0093942758998293 4.499999999999999
  endloop
endfacet
facet normal 0.0 0.0 1.0
  outer loop
    vertex -3.767110722527367 -1.0093942758998293 4.499999999999999
    vertex -2.9356614465620017 -9.035036904803958 4.499999999999999
    vertex -3.377499074759311 -1.9499999999999988 4.499999999999999
  endloop
endfacet
facet normal 0.0 0.0 1.0
  outer loop
    vertex -3.377499074759311 -1.9499999999999988 4.499999999999999
    vertex -2.9356614465620017 -9.035036904803958 4.499999999999999
    vertex -2.757716446627537 -2.7577164466275335 4.499999999999999
  endloop
endfacet
facet normal 0.0 0.0 1.0
  outer loop
    vertex -2.757716446627537 -2.7577164466275335 4.499999999999999
    vertex -2.9356614465620017 -9.035036904803958 4.499999999999999
    vertex 2.935661446561998 -9.03503690480396 4.499999999999999
  endloop
endfacet
facet normal 0.0 0.0 1.0
  outer loop
    vertex -2.757716446627537 -2.7577164466275335 4.499999999999999
    vertex 2.935661446561998 -9.03503690480396 4.499999999999999
    vertex -1.9500000000000017 -3.3774990747593097 4.499999999999999
  endloop
endfacet
facet normal 0.0 0.0 1.0
  outer loop
    vertex -1.9500000000000017 -3.3774990747593097 4.499999999999999
    vertex 2.935661446561998 -9.03503690480396 4.499999999999999
    vertex -1.009394275899834 -3.7671107225273657 4.499999999999999
  endloop
endfacet
facet normal 0.0 0.0 1.0
  outer loop
    vertex -1.009394275899834 -3.7671107225273657 4.499999999999999
    vertex 2.935661446561998 -9.03503690480396 4.499999999999999
    vertex -7.164183775012016e-16 -3.9 4.499999999999999
  endloop
endfacet
facet normal 0.0 0.0 1.0
  outer loop
    vertex -7.164183775012016e-16 -3.9 4.499999999999999
    vertex 2.935661446561998 -9.03503690480396 4.499999999999999
    vertex 1.009394275899829 -3.767110722527367 4.499999999999999
  endloop
endfacet
facet normal 0.0 0.0 1.0
  outer loop
    vertex 1.009394275899829 -3.767110722527367 4.499999999999999
    vertex 2.935661446561998 -9.03503690480396 4.499999999999999
    vertex 1.9499999999999975 -3.3774990747593123 4.499999999999999
  endloop
endfacet
facet normal 0.0 0.0 1.0
  outer loop
    vertex 1.9499999999999975 -3.3774990747593123 4.499999999999999
    vertex 2.935661446561998 -9.03503690480396 4.499999999999999
    vertex 2.757716446627535 -2.7577164466275357 4.499999999999999
  endloop
endfacet
facet normal 0.0 0.0 1.0
  outer loop
    vertex 2.757716446627535 -2.7577164466275357 4.499999999999999
    vertex 2.935661446561998 -9.03503690480396 4.499999999999999
    vertex 3.3774990747593097 -1.9500000000000017 4.499999999999999
  endloop
endfacet
facet normal 0.0 0.0 1.0
  outer loop
    vertex 3.3774990747593097 -1.9500000000000017 4.499999999999999
    vertex 2.935661446561998 -9.03503690480396 4.499999999999999
    vertex 7.685661446561998 -5.583959896778497 4.499999999999999
  endloop
endfacet
facet normal 0.0 0.0 1.0
  outer loop
    vertex 3.3774990747593097 -1.9500000000000017 4.499999999999999
    vertex 7.685661446561998 -5.583959896778497 4.499999999999999
    vertex 3.7671107225273657 -1.0093942758998342 4.499999999999999
  endloop
endfacet
facet normal 0.0 0.0 1.0
  outer loop
    vertex 3.7671107225273657 -1.0093942758998342 4.499999999999999
    vertex 7.685661446561998 -5.583959896778497 4.499999999999999
    vertex 3.9 0.0 4.499999999999999
  endloop
endfacet
facet normal 0.0 0.0 1.0
  outer loop
    vertex -3.9 4.776122516674677e-16 4.499999999999999
    vertex -2.9356614465619995 9.03503690480396 4.499999999999999
    vertex -7.685661446561998 5.583959896778496 4.499999999999999
  endloop
endfacet
facet normal 0.0 0.0 1.0
  outer loop
    vertex -2.9356614465619995 9.03503690480396 4.499999999999999
    vertex -3.9 4.776122516674677e-16 4.499999999999999
    vertex -3.7671107225273657 1.009394275899832 4.499999999999999
  endloop
endfacet
facet normal 0.0 0.0 1.0
  outer loop
    vertex -2.9356614465619995 9.03503690480396 4.499999999999999
    vertex -3.7671107225273657 1.009394275899832 4.499999999999999
    vertex -3.3774990747593097 1.9500000000000013 4.499999999999999
  endloop
endfacet
facet normal 0.0 0.0 1.0
  outer loop
    vertex -2.9356614465619995 9.03503690480396 4.499999999999999
    vertex -3.3774990747593097 1.9500000000000013 4.499999999999999
    vertex -2.7577164466275352 2.7577164466275352 4.499999999999999
  endloop
endfacet
facet normal 0.0 0.0 1.0
  outer loop
    vertex -2.9356614465619995 9.03503690480396 4.499999999999999
    vertex -2.7577164466275352 2.7577164466275352 4.499999999999999
    vertex 2.9356614465620003 9.035036904803958 4.499999999999999
  endloop
endfacet
facet normal 0.0 0.0 1.0
  outer loop
    vertex 2.9356614465620003 9.035036904803958 4.499999999999999
    vertex -2.7577164466275352 2.7577164466275352 4.499999999999999
    vertex -1.9499999999999993 3.377499074759311 4.499999999999999
  endloop
endfacet
facet normal 0.0 0.0 1.0
  outer loop
    vertex 2.9356614465620003 9.035036904803958 4.499999999999999
    vertex -1.9499999999999993 3.377499074759311 4.499999999999999
    vertex -1.0093942758998304 3.7671107225273666 4.499999999999999
  endloop
endfacet
facet normal 0.0 0.0 1.0
  outer loop
    vertex 2.9356614465620003 9.035036904803958 4.499999999999999
    vertex -1.0093942758998304 3.7671107225273666 4.499999999999999
    vertex 2.3880612583373386e-16 3.9 4.499999999999999
  endloop
endfacet
facet normal 0.0 0.0 1.0
  outer loop
    vertex 2.9356614465620003 9.035036904803958 4.499999999999999
    vertex 2.3880612583373386e-16 3.9 4.499999999999999
    vertex 1.0093942758998318 3.7671107225273657 4.499999999999999
  endloop
endfacet
facet normal 0.0 0.0 1.0
  outer loop
    vertex 2.9356614465620003 9.035036904803958 4.499999999999999
    vertex 1.0093942758998318 3.7671107225273657 4.499999999999999
    vertex 1.9500000000000004 3.3774990747593105 4.499999999999999
  endloop
endfacet
facet normal 0.0 0.0 1.0
  outer loop
    vertex 2.9356614465620003 9.035036904803958 4.499999999999999
    vertex 1.9500000000000004 3.3774990747593105 4.499999999999999
    vertex 2.7577164466275352 2.7577164466275352 4.499999999999999
  endloop
endfacet
facet normal 0.0 0.0 1.0
  outer loop
    vertex 2.9356614465620003 9.035036904803958 4.499999999999999
    vertex 2.7577164466275352 2.7577164466275352 4.499999999999999
    vertex 3.377499074759311 1.9499999999999995 4.499999999999999
  endloop
endfacet
facet normal 0.0 0.0 1.0
  outer loop
    vertex 2.9356614465620003 9.035036904803958 4.499999999999999
    vertex 3.377499074759311 1.9499999999999995 4.499999999999999
    vertex 7.6856614465619995 5.583959896778494 4.499999999999999
  endloop
endfacet
facet normal 0.0 0.0 1.0
  outer loop
    vertex 7.6856614465619995 5.583959896778494 4.499999999999999
    vertex 3.377499074759311 1.9499999999999995 4.499999999999999
    vertex 3.7671107225273666 1.0093942758998309 4.499999999999999
  endloop
endfacet
facet normal 0.0 0.0 1.0
  outer loop
    vertex 7.6856614465619995 5.583959896778494 4.499999999999999
    vertex 3.7671107225273666 1.0093942758998309 4.499999999999999
    vertex 3.9 0.0 4.499999999999999
  endloop
endfacet
facet normal 0.0 0.0 1.0
  outer loop
    vertex 7.6856614465619995 5.583959896778494 4.499999999999999
    vertex 3.9 0.0 4.499999999999999
    vertex 7.685661446561998 -5.583959896778497 4.499999999999999
  endloop
endfacet
facet normal 0.0 0.0 1.0
  outer loop
    vertex 7.6856614465619995 5.583959896778494 4.499999999999999
    vertex 7.685661446561998 -5.583959896778497 4.499999999999999
    vertex 9.499999999999998 0.0 4.499999999999999
  endloop
endfacet
facet normal -0.5877852522924731 -0.8090169943749475 -0.0
  outer loop
    vertex -2.9356614465620017 -9.035036904803958 4.499999999999999
    vertex -7.685661446562 -5.583959896778493 0.0
    vertex -2.9356614465620017 -9.035036904803958 0.0
  endloop
endfacet
facet normal -0.5877852522924731 -0.8090169943749475 -0.0
  outer loop
    vertex -7.685661446562 -5.583959896778493 0.0
    vertex -2.9356614465620017 -9.035036904803958 4.499999999999999
    vertex -7.685661446562 -5.583959896778493 4.499999999999999
  endloop
endfacet
facet normal -0.9510565162951539 -0.3090169943749472 -0.0
  outer loop
    vertex -9.499999999999998 1.1634144591899855e-15 4.499999999999999
    vertex -7.685661446562 -5.583959896778493 0.0
    vertex -7.685661446562 -5.583959896778493 4.499999999999999
  endloop
endfacet
facet normal -0.9510565162951539 -0.3090169943749472 -0.0
  outer loop
    vertex -7.685661446562 -5.583959896778493 0.0
    vertex -9.499999999999998 1.1634144591899855e-15 4.499999999999999
    vertex -9.499999999999998 1.1634144591899855e-15 0.0
  endloop
endfacet
facet normal -0.9510565162951535 0.30901699437494756 0.0
  outer loop
    vertex -7.685661446561998 5.583959896778496 4.499999999999999
    vertex -9.499999999999998 1.1634144591899855e-15 0.0
    vertex -9.499999999999998 1.1634144591899855e-15 4.499999999999999
  endloop
endfacet
facet normal -0.9510565162951535 0.30901699437494756 0.0
  outer loop
    vertex -9.499999999999998 1.1634144591899855e-15 0.0
    vertex -7.685661446561998 5.583959896778496 4.499999999999999
    vertex -7.685661446561998 5.583959896778496 0.0
  endloop
endfacet
facet normal -0.5877852522924731 0.8090169943749476 0.0
  outer loop
    vertex -7.685661446561998 5.583959896778496 4.499999999999999
    vertex -2.9356614465619995 9.03503690480396 0.0
    vertex -7.685661446561998 5.583959896778496 0.0
  endloop
endfacet
facet normal -0.5877852522924731 0.8090169943749476 0.0
  outer loop
    vertex -2.9356614465619995 9.03503690480396 0.0
    vertex -7.685661446561998 5.583959896778496 4.499999999999999
    vertex -2.9356614465619995 9.03503690480396 4.499999999999999
  endloop
endfacet
facet normal 2.4014745346831506e-16 1.0 0.0
  outer loop
    vertex -2.9356614465619995 9.03503690480396 4.499999999999999
    vertex 2.9356614465620003 9.035036904803958 0.0
    vertex -2.9356614465619995 9.03503690480396 0.0
  endloop
endfacet
facet normal 2.4014745346831506e-16 1.0 0.0
  outer loop
    vertex 2.9356614465620003 9.035036904803958 0.0
    vertex -2.9356614465619995 9.03503690480396 4.499999999999999
    vertex 2.9356614465620003 9.035036904803958 4.499999999999999
  endloop
endfacet
facet normal 0.5877852522924731 0.8090169943749476 0.0
  outer loop
    vertex 2.9356614465620003 9.035036904803958 4.499999999999999
    vertex 7.6856614465619995 5.583959896778494 0.0
    vertex 2.9356614465620003 9.035036904803958 0.0
  endloop
endfacet
facet normal 0.5877852522924731 0.8090169943749476 0.0
  outer loop
    vertex 7.6856614465619995 5.583959896778494 0.0
    vertex 2.9356614465620003 9.035036904803958 4.499999999999999
    vertex 7.6856614465619995 5.583959896778494 4.499999999999999
  endloop
endfacet
facet normal 0.9510565162951538 0.3090169943749474 0.0
  outer loop
    vertex 7.6856614465619995 5.583959896778494 0.0
    vertex 9.499999999999998 0.0 4.499999999999999
    vertex 9.499999999999998 0.0 0.0
  endloop
endfacet
facet normal 0.9510565162951538 0.3090169943749474 0.0
  outer loop
    vertex 9.499999999999998 0.0 4.499999999999999
    vertex 7.6856614465619995 5.583959896778494 0.0
    vertex 7.6856614465619995 5.583959896778494 4.499999999999999
  endloop
endfacet
facet normal 0.9510565162951536 -0.3090169943749475 0.0
  outer loop
    vertex 9.499999999999998 0.0 0.0
    vertex 7.685661446561998 -5.583959896778497 4.499999999999999
    vertex 7.685661446561998 -5.583959896778497 0.0
  endloop
endfacet
facet normal 0.9510565162951536 -0.3090169943749475 0.0
  outer loop
    vertex 7.685661446561998 -5.583959896778497 4.499999999999999
    vertex 9.499999999999998 0.0 0.0
    vertex 9.499999999999998 0.0 4.499999999999999
  endloop
endfacet
facet normal 0.5877852522924729 -0.8090169943749476 0.0
  outer loop
    vertex 7.685661446561998 -5.583959896778497 4.499999999999999
    vertex 2.935661446561998 -9.03503690480396 0.0
    vertex 7.685661446561998 -5.583959896778497 0.0
  endloop
endfacet
facet normal 0.5877852522924729 -0.8090169943749476 0.0
  outer loop
    vertex 2.935661446561998 -9.03503690480396 0.0
    vertex 7.685661446561998 -5.583959896778497 4.499999999999999
    vertex 2.935661446561998 -9.03503690480396 4.499999999999999
  endloop
endfacet
facet normal -2.4014745346831506e-16 -1.0 -0.0
  outer loop
    vertex 2.935661446561998 -9.03503690480396 4.499999999999999
    vertex -2.9356614465620017 -9.035036904803958 0.0
    vertex 2.935661446561998 -9.03503690480396 0.0
  endloop
endfacet
facet normal -2.4014745346831506e-16 -1.0 -0.0
  outer loop
    vertex -2.9356614465620017 -9.035036904803958 0.0
    vertex 2.935661446561998 -9.03503690480396 4.499999999999999
    vertex -2.9356614465620017 -9.035036904803958 4.499999999999999
  endloop
endfacet
endsolid Гайка-регулировки
