solid Стол-ответ
facet normal -5.144734153139759e-19 -5.937958784774073e-19 1.0
  outer loop
    vertex 136.2 -6.151051890057603e-15 -1.2689849171465539e-14
    vertex -7.1999999999999895 110.0 -1.2689849171465539e-14
    vertex -7.1999999999999895 2.5379698342931078e-14 -1.2689849171465539e-14
  endloop
endfacet
facet normal -5.144734153139759e-19 -5.937958784774073e-19 1.0
  outer loop
    vertex -7.1999999999999895 110.0 -1.2689849171465539e-14
    vertex 136.2 -6.151051890057603e-15 -1.2689849171465539e-14
    vertex -2.6789681584205025e-14 110.0 -1.2689849171465539e-14
  endloop
endfacet
facet normal -5.144734153139759e-19 -5.937958784774073e-19 1.0
  outer loop
    vertex -2.6789681584205025e-14 110.0 -1.2689849171465539e-14
    vertex 136.2 -6.151051890057603e-15 -1.2689849171465539e-14
    vertex 25.0 109.99999999999999 -1.2689849171465539e-14
  endloop
endfacet
facet normal -5.144734153139759e-19 -5.937958784774073e-19 1.0
  outer loop
    vertex 25.0 109.99999999999999 -1.2689849171465539e-14
    vertex 136.2 -6.151051890057603e-15 -1.2689849171465539e-14
    vertex 104.00000000000001 109.99999999999999 -1.2337353361147052e-14
  endloop
endfacet
facet normal -5.144734153139759e-19 -5.937958784774073e-19 1.0
  outer loop
    vertex 104.00000000000001 109.99999999999999 -1.2337353361147052e-14
    vertex 136.2 -6.151051890057603e-15 -1.2689849171465539e-14
    vertex 129.0 109.99999999999999 -1.2650439701988937e-14
  endloop
endfacet
facet normal -5.144734153139759e-19 -5.937958784774073e-19 1.0
  outer loop
    vertex 129.0 109.99999999999999 -1.2650439701988937e-14
    vertex 136.2 -6.151051890057603e-15 -1.2689849171465539e-14
    vertex 136.2 109.99999999999999 -1.2689849171465539e-14
  endloop
endfacet
facet normal 0.0 0.0 -1.0
  outer loop
    vertex 25.000000000000004 114.99999999999997 -5.000000000000012
    vertex 25.0 109.99999999999999 -5.000000000000012
    vertex 2.3969715101657098e-15 114.99999999999999 -5.000000000000012
  endloop
endfacet
facet normal 0.0 0.0 -1.0
  outer loop
    vertex 129.0 114.99999999999997 -5.000000000000012
    vertex 104.00000000000001 109.99999999999999 -5.000000000000012
    vertex 104.00000000000001 114.99999999999997 -5.000000000000012
  endloop
endfacet
facet normal 0.0 0.0 -1.0
  outer loop
    vertex -2.114974861910923e-15 110.0 -5.000000000000012
    vertex -15.499999999999996 2.5379698342931078e-14 -5.000000000000012
    vertex -15.499999999999996 110.0 -5.000000000000012
  endloop
endfacet
facet normal 0.0 0.0 -1.0
  outer loop
    vertex -15.499999999999996 2.5379698342931078e-14 -5.000000000000012
    vertex -2.114974861910923e-15 110.0 -5.000000000000012
    vertex 144.49999999999997 -8.459899447643692e-15 -5.000000000000012
  endloop
endfacet
facet normal 0.0 0.0 -1.0
  outer loop
    vertex 144.49999999999997 -8.459899447643692e-15 -5.000000000000012
    vertex -2.114974861910923e-15 110.0 -5.000000000000012
    vertex 2.3969715101657098e-15 114.99999999999999 -5.000000000000012
  endloop
endfacet
facet normal 0.0 0.0 -1.0
  outer loop
    vertex 144.49999999999997 -8.459899447643692e-15 -5.000000000000012
    vertex 2.3969715101657098e-15 114.99999999999999 -5.000000000000012
    vertex 25.0 109.99999999999999 -5.000000000000012
  endloop
endfacet
facet normal 0.0 0.0 -1.0
  outer loop
    vertex 144.49999999999997 -8.459899447643692e-15 -5.000000000000012
    vertex 25.0 109.99999999999999 -5.000000000000012
    vertex 104.00000000000001 109.99999999999999 -5.000000000000012
  endloop
endfacet
facet normal 0.0 0.0 -1.0
  outer loop
    vertex 144.49999999999997 -8.459899447643692e-15 -5.000000000000012
    vertex 104.00000000000001 109.99999999999999 -5.000000000000012
    vertex 129.0 109.99999999999999 -5.000000000000012
  endloop
endfacet
facet normal 0.0 0.0 -1.0
  outer loop
    vertex 129.0 109.99999999999999 -5.000000000000012
    vertex 104.00000000000001 109.99999999999999 -5.000000000000012
    vertex 129.0 114.99999999999997 -5.000000000000012
  endloop
endfacet
facet normal 0.0 0.0 -1.0
  outer loop
    vertex 144.49999999999997 -8.459899447643692e-15 -5.000000000000012
    vertex 129.0 109.99999999999999 -5.000000000000012
    vertex 144.49999999999997 109.99999999999999 -5.000000000000012
  endloop
endfacet
facet normal -1.0 0.0 0.0
  outer loop
    vertex -15.499999999999996 110.0 6.999999999999964
    vertex -15.499999999999996 2.5379698342931078e-14 -5.000000000000012
    vertex -15.499999999999996 2.5379698342931078e-14 7.000000000000099
  endloop
endfacet
facet normal -1.0 0.0 0.0
  outer loop
    vertex -15.499999999999996 2.5379698342931078e-14 -5.000000000000012
    vertex -15.499999999999996 110.0 6.999999999999964
    vertex -15.499999999999996 110.0 -5.000000000000012
  endloop
endfacet
facet normal 1.0 -0.0 -0.0
  outer loop
    vertex 144.49999999999997 -8.459899447643692e-15 -5.000000000000012
    vertex 144.49999999999997 109.99999999999999 6.999999999999964
    vertex 144.49999999999997 -1.6919798895287383e-14 7.000000000000099
  endloop
endfacet
facet normal 1.0 -0.0 -0.0
  outer loop
    vertex 144.49999999999997 109.99999999999999 6.999999999999964
    vertex 144.49999999999997 -8.459899447643692e-15 -5.000000000000012
    vertex 144.49999999999997 109.99999999999999 -5.000000000000012
  endloop
endfacet
facet normal -2.3663683029787823e-16 -1.0 -3.5146448892318906e-16
  outer loop
    vertex 144.49999999999997 -8.459899447643692e-15 -5.000000000000012
    vertex 136.2 -6.151051890057603e-15 -1.2689849171465539e-14
    vertex -15.499999999999996 2.5379698342931078e-14 -5.000000000000012
  endloop
endfacet
facet normal -2.3663683029787823e-16 -1.0 -3.5146448892318906e-16
  outer loop
    vertex 136.2 -6.151051890057603e-15 -1.2689849171465539e-14
    vertex 144.49999999999997 -8.459899447643692e-15 -5.000000000000012
    vertex 144.49999999999997 -1.6919798895287383e-14 7.000000000000099
  endloop
endfacet
facet normal -2.3663683029787823e-16 -1.0 -3.5146448892318906e-16
  outer loop
    vertex 136.2 -6.151051890057603e-15 -1.2689849171465539e-14
    vertex 144.49999999999997 -1.6919798895287383e-14 7.000000000000099
    vertex 136.2 -1.303351050032241e-14 7.000000000000029
  endloop
endfacet
facet normal -2.3663683029787823e-16 -1.0 -3.5146448892318906e-16
  outer loop
    vertex -15.499999999999996 2.5379698342931078e-14 -5.000000000000012
    vertex -7.1999999999999895 2.5379698342931078e-14 -1.2689849171465539e-14
    vertex -15.499999999999996 2.5379698342931078e-14 7.000000000000099
  endloop
endfacet
facet normal -2.3663683029787823e-16 -1.0 -3.5146448892318906e-16
  outer loop
    vertex -7.1999999999999895 2.5379698342931078e-14 -1.2689849171465539e-14
    vertex -15.499999999999996 2.5379698342931078e-14 -5.000000000000012
    vertex 136.2 -6.151051890057603e-15 -1.2689849171465539e-14
  endloop
endfacet
facet normal -2.3663683029787823e-16 -1.0 -3.5146448892318906e-16
  outer loop
    vertex -15.499999999999996 2.5379698342931078e-14 7.000000000000099
    vertex -7.1999999999999895 2.5379698342931078e-14 -1.2689849171465539e-14
    vertex -7.1999999999999895 2.5379698342931078e-14 7.000000000000029
  endloop
endfacet
facet normal 1.9428811565785957e-16 2.507483876348628e-16 1.0
  outer loop
    vertex 132.20000000000002 4.9999999999999885 6.999999999999998
    vertex 132.2 105.00000000000003 7.000000000000046
    vertex 132.2 103.00000000000001 7.000000000000045
  endloop
endfacet
facet normal 1.9428811565785957e-16 2.507483876348628e-16 1.0
  outer loop
    vertex 132.2 105.00000000000003 7.000000000000046
    vertex 132.20000000000002 4.9999999999999885 6.999999999999998
    vertex 136.2 109.99999999999999 7.000000000000021
  endloop
endfacet
facet normal 1.9428811565785957e-16 2.507483876348628e-16 1.0
  outer loop
    vertex 136.2 109.99999999999999 7.000000000000021
    vertex 132.20000000000002 4.9999999999999885 6.999999999999998
    vertex 136.2 -1.303351050032241e-14 7.000000000000029
  endloop
endfacet
facet normal 1.9428811565785957e-16 2.507483876348628e-16 1.0
  outer loop
    vertex 136.2 109.99999999999999 7.000000000000021
    vertex 136.2 -1.303351050032241e-14 7.000000000000029
    vertex 144.49999999999997 -1.6919798895287383e-14 7.000000000000099
  endloop
endfacet
facet normal 1.9428811565785957e-16 2.507483876348628e-16 1.0
  outer loop
    vertex 136.2 109.99999999999999 7.000000000000021
    vertex 144.49999999999997 -1.6919798895287383e-14 7.000000000000099
    vertex 144.49999999999997 109.99999999999999 6.999999999999964
  endloop
endfacet
facet normal -1.0 -2.268488987347822e-16 -9.31235216481049e-17
  outer loop
    vertex 132.2 103.00000000000001 7.000000000000045
    vertex 132.20000000000002 4.9999999999999885 5.599999999999989
    vertex 132.20000000000002 4.9999999999999885 6.999999999999998
  endloop
endfacet
facet normal -1.0 -2.268488987347822e-16 -9.31235216481049e-17
  outer loop
    vertex 132.20000000000002 4.9999999999999885 5.599999999999989
    vertex 132.2 103.00000000000001 7.000000000000045
    vertex 132.2 105.00000000000003 5.60000000000003
  endloop
endfacet
facet normal -1.0 -2.268488987347822e-16 -9.31235216481049e-17
  outer loop
    vertex 132.2 105.00000000000003 5.60000000000003
    vertex 132.2 103.00000000000001 7.000000000000045
    vertex 132.2 105.00000000000003 7.000000000000046
  endloop
endfacet
facet normal -0.8137334712067359 2.392452118698091e-17 -0.5812381937190954
  outer loop
    vertex 132.20000000000002 4.9999999999999885 5.599999999999989
    vertex 136.2 109.99999999999999 -1.2689849171465539e-14
    vertex 136.2 -6.151051890057603e-15 -1.2689849171465539e-14
  endloop
endfacet
facet normal -0.8137334712067359 2.392452118698091e-17 -0.5812381937190954
  outer loop
    vertex 136.2 109.99999999999999 -1.2689849171465539e-14
    vertex 132.20000000000002 4.9999999999999885 5.599999999999989
    vertex 132.2 105.00000000000003 5.60000000000003
  endloop
endfacet
facet normal -0.780868809443031 -0.6246950475544234 -6.085222584820199e-16
  outer loop
    vertex 132.20000000000002 4.9999999999999885 6.999999999999998
    vertex 136.2 -6.151051890057603e-15 -1.2689849171465539e-14
    vertex 136.2 -1.303351050032241e-14 7.000000000000029
  endloop
endfacet
facet normal -0.780868809443031 -0.6246950475544234 -6.085222584820199e-16
  outer loop
    vertex 136.2 -6.151051890057603e-15 -1.2689849171465539e-14
    vertex 132.20000000000002 4.9999999999999885 6.999999999999998
    vertex 132.20000000000002 4.9999999999999885 5.599999999999989
  endloop
endfacet
facet normal 0.7808688094430314 -0.624695047554423 -0.0
  outer loop
    vertex -3.199999999999997 5.000000000000033 5.599999999999989
    vertex -7.1999999999999895 2.5379698342931078e-14 7.000000000000029
    vertex -7.1999999999999895 2.5379698342931078e-14 -1.2689849171465539e-14
  endloop
endfacet
facet normal 0.7808688094430314 -0.624695047554423 -0.0
  outer loop
    vertex -7.1999999999999895 2.5379698342931078e-14 7.000000000000029
    vertex -3.199999999999997 5.000000000000033 5.599999999999989
    vertex -3.199999999999997 5.000000000000033 6.999999999999998
  endloop
endfacet
facet normal 0.8137334712067366 1.0718939019993909e-16 -0.5812381937190942
  outer loop
    vertex -7.1999999999999895 110.0 -1.2689849171465539e-14
    vertex -3.199999999999997 5.000000000000033 5.599999999999989
    vertex -7.1999999999999895 2.5379698342931078e-14 -1.2689849171465539e-14
  endloop
endfacet
facet normal 0.8137334712067366 1.0718939019993909e-16 -0.5812381937190942
  outer loop
    vertex -3.199999999999997 5.000000000000033 5.599999999999989
    vertex -7.1999999999999895 110.0 -1.2689849171465539e-14
    vertex -3.199999999999997 105.00000000000006 5.60000000000003
  endloop
endfacet
facet normal 1.0 -0.0 -0.0
  outer loop
    vertex -3.199999999999997 105.00000000000006 5.60000000000003
    vertex -3.199999999999997 5.000000000000033 6.999999999999998
    vertex -3.199999999999997 5.000000000000033 5.599999999999989
  endloop
endfacet
facet normal 1.0 -0.0 -0.0
  outer loop
    vertex -3.199999999999997 5.000000000000033 6.999999999999998
    vertex -3.199999999999997 105.00000000000006 5.60000000000003
    vertex -3.199999999999997 103.00000000000006 7.000000000000045
  endloop
endfacet
facet normal 1.0 -0.0 -0.0
  outer loop
    vertex -3.199999999999997 103.00000000000006 7.000000000000045
    vertex -3.199999999999997 105.00000000000006 5.60000000000003
    vertex -3.199999999999997 105.00000000000006 7.000000000000046
  endloop
endfacet
facet normal -1.9428811565785225e-16 2.507483876348626e-16 1.0
  outer loop
    vertex -7.1999999999999895 2.5379698342931078e-14 7.000000000000029
    vertex -15.499999999999996 110.0 6.999999999999964
    vertex -15.499999999999996 2.5379698342931078e-14 7.000000000000099
  endloop
endfacet
facet normal -1.9428811565785225e-16 2.507483876348626e-16 1.0
  outer loop
    vertex -15.499999999999996 110.0 6.999999999999964
    vertex -7.1999999999999895 2.5379698342931078e-14 7.000000000000029
    vertex -7.1999999999999895 110.0 7.000000000000021
  endloop
endfacet
facet normal -1.9428811565785225e-16 2.507483876348626e-16 1.0
  outer loop
    vertex -7.1999999999999895 110.0 7.000000000000021
    vertex -7.1999999999999895 2.5379698342931078e-14 7.000000000000029
    vertex -3.199999999999997 5.000000000000033 6.999999999999998
  endloop
endfacet
facet normal -1.9428811565785225e-16 2.507483876348626e-16 1.0
  outer loop
    vertex -7.1999999999999895 110.0 7.000000000000021
    vertex -3.199999999999997 5.000000000000033 6.999999999999998
    vertex -3.199999999999997 105.00000000000006 7.000000000000046
  endloop
endfacet
facet normal -1.9428811565785225e-16 2.507483876348626e-16 1.0
  outer loop
    vertex -3.199999999999997 105.00000000000006 7.000000000000046
    vertex -3.199999999999997 5.000000000000033 6.999999999999998
    vertex -3.199999999999997 103.00000000000006 7.000000000000045
  endloop
endfacet
facet normal 0.7808688094430276 0.6246950475544277 -5.532020531654837e-17
  outer loop
    vertex -7.1999999999999895 110.0 -1.2689849171465539e-14
    vertex -3.199999999999997 105.00000000000006 7.000000000000046
    vertex -3.199999999999997 105.00000000000006 5.60000000000003
  endloop
endfacet
facet normal 0.7808688094430276 0.6246950475544277 -5.532020531654837e-17
  outer loop
    vertex -3.199999999999997 105.00000000000006 7.000000000000046
    vertex -7.1999999999999895 110.0 -1.2689849171465539e-14
    vertex -7.1999999999999895 110.0 7.000000000000021
  endloop
endfacet
facet normal -0.7808688094430258 0.6246950475544298 -5.532020531654824e-17
  outer loop
    vertex 136.2 109.99999999999999 7.000000000000021
    vertex 132.2 105.00000000000003 5.60000000000003
    vertex 132.2 105.00000000000003 7.000000000000046
  endloop
endfacet
facet normal -0.7808688094430258 0.6246950475544298 -5.532020531654824e-17
  outer loop
    vertex 132.2 105.00000000000003 5.60000000000003
    vertex 136.2 109.99999999999999 7.000000000000021
    vertex 136.2 109.99999999999999 -1.2689849171465539e-14
  endloop
endfacet
facet normal -0.0 1.0 -0.0
  outer loop
    vertex -2.6789681584205025e-14 110.0 -1.2689849171465539e-14
    vertex -2.114974861910923e-15 110.0 -5.000000000000012
    vertex -7.1999999999999895 110.0 -1.2689849171465539e-14
  endloop
endfacet
facet normal -0.0 1.0 -0.0
  outer loop
    vertex -15.499999999999996 110.0 -5.000000000000012
    vertex -7.1999999999999895 110.0 -1.2689849171465539e-14
    vertex -2.114974861910923e-15 110.0 -5.000000000000012
  endloop
endfacet
facet normal -0.0 1.0 -0.0
  outer loop
    vertex -7.1999999999999895 110.0 -1.2689849171465539e-14
    vertex -15.499999999999996 110.0 -5.000000000000012
    vertex -15.499999999999996 110.0 6.999999999999964
  endloop
endfacet
facet normal -0.0 1.0 -0.0
  outer loop
    vertex -7.1999999999999895 110.0 -1.2689849171465539e-14
    vertex -15.499999999999996 110.0 6.999999999999964
    vertex -7.1999999999999895 110.0 7.000000000000021
  endloop
endfacet
facet normal -0.0 1.0 -0.0
  outer loop
    vertex 25.0 109.99999999999999 -1.2689849171465539e-14
    vertex 104.00000000000001 109.99999999999999 -5.000000000000012
    vertex 25.0 109.99999999999999 -5.000000000000012
  endloop
endfacet
facet normal -0.0 1.0 -0.0
  outer loop
    vertex 104.00000000000001 109.99999999999999 -5.000000000000012
    vertex 25.0 109.99999999999999 -1.2689849171465539e-14
    vertex 104.00000000000001 109.99999999999999 -1.2337353361147052e-14
  endloop
endfacet
facet normal -0.0 1.0 -0.0
  outer loop
    vertex 129.0 109.99999999999999 -1.2650439701988937e-14
    vertex 144.49999999999997 109.99999999999999 -5.000000000000012
    vertex 129.0 109.99999999999999 -5.000000000000012
  endloop
endfacet
facet normal -0.0 1.0 -0.0
  outer loop
    vertex 144.49999999999997 109.99999999999999 -5.000000000000012
    vertex 129.0 109.99999999999999 -1.2650439701988937e-14
    vertex 136.2 109.99999999999999 -1.2689849171465539e-14
  endloop
endfacet
facet normal -0.0 1.0 -0.0
  outer loop
    vertex 136.2 109.99999999999999 -1.2689849171465539e-14
    vertex 144.49999999999997 109.99999999999999 6.999999999999964
    vertex 144.49999999999997 109.99999999999999 -5.000000000000012
  endloop
endfacet
facet normal -0.0 1.0 -0.0
  outer loop
    vertex 144.49999999999997 109.99999999999999 6.999999999999964
    vertex 136.2 109.99999999999999 -1.2689849171465539e-14
    vertex 136.2 109.99999999999999 7.000000000000021
  endloop
endfacet
facet normal 9.023892744153267e-16 1.0 2.4238339014289963e-30
  outer loop
    vertex -2.2277735212128394e-14 114.99999999999999 7.000000000000032
    vertex 25.000000000000004 114.99999999999997 -5.000000000000012
    vertex 2.3969715101657098e-15 114.99999999999999 -5.000000000000012
  endloop
endfacet
facet normal 9.023892744153267e-16 1.0 2.4238339014289963e-30
  outer loop
    vertex 25.000000000000004 114.99999999999997 -5.000000000000012
    vertex -2.2277735212128394e-14 114.99999999999999 7.000000000000032
    vertex 12.111771432346222 114.99999999999997 2.0511112605664312
  endloop
endfacet
facet normal 9.023892744153267e-16 1.0 2.4238339014289963e-30
  outer loop
    vertex 25.000000000000004 114.99999999999997 -5.000000000000012
    vertex 12.111771432346222 114.99999999999997 2.0511112605664312
    vertex 12.500000000000004 114.99999999999997 2.0000000000000338
  endloop
endfacet
facet normal 9.023892744153267e-16 1.0 2.4238339014289963e-30
  outer loop
    vertex 12.111771432346222 114.99999999999997 2.0511112605664312
    vertex -2.2277735212128394e-14 114.99999999999999 7.000000000000032
    vertex 11.750000000000004 114.99999999999999 2.2009618943233757
  endloop
endfacet
facet normal 9.023892744153267e-16 1.0 2.4238339014289963e-30
  outer loop
    vertex 11.750000000000004 114.99999999999999 2.2009618943233757
    vertex -2.2277735212128394e-14 114.99999999999999 7.000000000000032
    vertex 11.439339828220183 114.99999999999999 2.439339828220213
  endloop
endfacet
facet normal 9.023892744153267e-16 1.0 2.4238339014289963e-30
  outer loop
    vertex 11.439339828220183 114.99999999999999 2.439339828220213
    vertex -2.2277735212128394e-14 114.99999999999999 7.000000000000032
    vertex 11.200961894323347 114.99999999999999 2.7500000000000333
  endloop
endfacet
facet normal 9.023892744153267e-16 1.0 2.4238339014289963e-30
  outer loop
    vertex 11.200961894323347 114.99999999999999 2.7500000000000333
    vertex -2.2277735212128394e-14 114.99999999999999 7.000000000000032
    vertex 11.051111260566403 114.99999999999999 3.111771432346252
  endloop
endfacet
facet normal 9.023892744153267e-16 1.0 2.4238339014289963e-30
  outer loop
    vertex 11.051111260566403 114.99999999999999 3.111771432346252
    vertex -2.2277735212128394e-14 114.99999999999999 7.000000000000032
    vertex 11.000000000000005 114.99999999999999 3.5000000000000324
  endloop
endfacet
facet normal 9.023892744153267e-16 1.0 2.4238339014289963e-30
  outer loop
    vertex 11.000000000000005 114.99999999999999 3.5000000000000324
    vertex -2.2277735212128394e-14 114.99999999999999 7.000000000000032
    vertex 11.051111260566403 114.99999999999999 3.8882285676538135
  endloop
endfacet
facet normal 9.023892744153267e-16 1.0 2.4238339014289963e-30
  outer loop
    vertex 11.051111260566403 114.99999999999999 3.8882285676538135
    vertex -2.2277735212128394e-14 114.99999999999999 7.000000000000032
    vertex 11.200961894323347 114.99999999999999 4.250000000000032
  endloop
endfacet
facet normal 9.023892744153267e-16 1.0 2.4238339014289963e-30
  outer loop
    vertex 11.200961894323347 114.99999999999999 4.250000000000032
    vertex -2.2277735212128394e-14 114.99999999999999 7.000000000000032
    vertex 11.439339828220184 114.99999999999999 4.560660171779853
  endloop
endfacet
facet normal 9.023892744153267e-16 1.0 2.4238339014289963e-30
  outer loop
    vertex 11.439339828220184 114.99999999999999 4.560660171779853
    vertex -2.2277735212128394e-14 114.99999999999999 7.000000000000032
    vertex 11.750000000000005 114.99999999999997 4.799038105676689
  endloop
endfacet
facet normal 9.023892744153267e-16 1.0 2.4238339014289963e-30
  outer loop
    vertex 11.750000000000005 114.99999999999997 4.799038105676689
    vertex -2.2277735212128394e-14 114.99999999999999 7.000000000000032
    vertex 12.111771432346224 114.99999999999997 4.948888739433634
  endloop
endfacet
facet normal 9.023892744153267e-16 1.0 2.4238339014289963e-30
  outer loop
    vertex 12.111771432346224 114.99999999999997 4.948888739433634
    vertex -2.2277735212128394e-14 114.99999999999999 7.000000000000032
    vertex 12.500000000000004 114.99999999999997 5.000000000000031
  endloop
endfacet
facet normal 9.023892744153267e-16 1.0 2.4238339014289963e-30
  outer loop
    vertex 25.000000000000004 114.99999999999997 -5.000000000000012
    vertex 12.888228567653783 114.99999999999997 2.051111260566431
    vertex 25.000000000000004 114.99999999999997 7.000000000000032
  endloop
endfacet
facet normal 9.023892744153267e-16 1.0 2.4238339014289963e-30
  outer loop
    vertex 12.888228567653783 114.99999999999997 2.051111260566431
    vertex 25.000000000000004 114.99999999999997 -5.000000000000012
    vertex 12.500000000000004 114.99999999999997 2.0000000000000338
  endloop
endfacet
facet normal 9.023892744153267e-16 1.0 2.4238339014289963e-30
  outer loop
    vertex 25.000000000000004 114.99999999999997 7.000000000000032
    vertex 12.888228567653783 114.99999999999997 2.051111260566431
    vertex 13.250000000000002 114.99999999999997 2.200961894323375
  endloop
endfacet
facet normal 9.023892744153267e-16 1.0 2.4238339014289963e-30
  outer loop
    vertex 25.000000000000004 114.99999999999997 7.000000000000032
    vertex 13.250000000000002 114.99999999999997 2.200961894323375
    vertex 13.560660171779823 114.99999999999994 2.439339828220212
  endloop
endfacet
facet normal 9.023892744153267e-16 1.0 2.4238339014289963e-30
  outer loop
    vertex 25.000000000000004 114.99999999999997 7.000000000000032
    vertex 13.560660171779823 114.99999999999994 2.439339828220212
    vertex 13.799038105676662 114.99999999999994 2.7500000000000324
  endloop
endfacet
facet normal 9.023892744153267e-16 1.0 2.4238339014289963e-30
  outer loop
    vertex 25.000000000000004 114.99999999999997 7.000000000000032
    vertex 13.799038105676662 114.99999999999994 2.7500000000000324
    vertex 13.948888739433604 114.99999999999994 3.1117714323462504
  endloop
endfacet
facet normal 9.023892744153267e-16 1.0 2.4238339014289963e-30
  outer loop
    vertex 25.000000000000004 114.99999999999997 7.000000000000032
    vertex 13.948888739433604 114.99999999999994 3.1117714323462504
    vertex 14.000000000000002 114.99999999999994 3.5000000000000324
  endloop
endfacet
facet normal 9.023892744153267e-16 1.0 2.4238339014289963e-30
  outer loop
    vertex 25.000000000000004 114.99999999999997 7.000000000000032
    vertex 14.000000000000002 114.99999999999994 3.5000000000000324
    vertex 13.948888739433604 114.99999999999994 3.888228567653813
  endloop
endfacet
facet normal 9.023892744153267e-16 1.0 2.4238339014289963e-30
  outer loop
    vertex 25.000000000000004 114.99999999999997 7.000000000000032
    vertex 13.948888739433604 114.99999999999994 3.888228567653813
    vertex 13.799038105676662 114.99999999999994 4.250000000000032
  endloop
endfacet
facet normal 9.023892744153267e-16 1.0 2.4238339014289963e-30
  outer loop
    vertex 25.000000000000004 114.99999999999997 7.000000000000032
    vertex 13.799038105676662 114.99999999999994 4.250000000000032
    vertex 13.560660171779823 114.99999999999994 4.560660171779853
  endloop
endfacet
facet normal 9.023892744153267e-16 1.0 2.4238339014289963e-30
  outer loop
    vertex 25.000000000000004 114.99999999999997 7.000000000000032
    vertex 13.560660171779823 114.99999999999994 4.560660171779853
    vertex 13.250000000000004 114.99999999999994 4.799038105676689
  endloop
endfacet
facet normal 9.023892744153267e-16 1.0 2.4238339014289963e-30
  outer loop
    vertex 25.000000000000004 114.99999999999997 7.000000000000032
    vertex 13.250000000000004 114.99999999999994 4.799038105676689
    vertex 12.888228567653783 114.99999999999997 4.948888739433634
  endloop
endfacet
facet normal 9.023892744153267e-16 1.0 2.4238339014289963e-30
  outer loop
    vertex 25.000000000000004 114.99999999999997 7.000000000000032
    vertex 12.888228567653783 114.99999999999997 4.948888739433634
    vertex 12.500000000000004 114.99999999999997 5.000000000000031
  endloop
endfacet
facet normal 9.023892744153267e-16 1.0 2.4238339014289963e-30
  outer loop
    vertex 25.000000000000004 114.99999999999997 7.000000000000032
    vertex 12.500000000000004 114.99999999999997 5.000000000000031
    vertex -2.2277735212128394e-14 114.99999999999999 7.000000000000032
  endloop
endfacet
facet normal 1.0 -9.023892744153267e-16 0.0
  outer loop
    vertex 25.000000000000004 114.99999999999997 -5.000000000000012
    vertex 25.0 109.99999999999999 -1.2689849171465539e-14
    vertex 25.0 109.99999999999999 -5.000000000000012
  endloop
endfacet
facet normal 1.0 -9.023892744153267e-16 0.0
  outer loop
    vertex 25.0 109.99999999999999 -1.2689849171465539e-14
    vertex 25.000000000000004 114.99999999999997 -5.000000000000012
    vertex 25.0 109.99999999999999 7.000000000000032
  endloop
endfacet
facet normal 1.0 -9.023892744153267e-16 0.0
  outer loop
    vertex 25.0 109.99999999999999 7.000000000000032
    vertex 25.000000000000004 114.99999999999997 -5.000000000000012
    vertex 25.000000000000004 114.99999999999997 7.000000000000032
  endloop
endfacet
facet normal -1.0 9.023892744153267e-16 -4.934941344458821e-15
  outer loop
    vertex -2.2277735212128394e-14 114.99999999999999 7.000000000000032
    vertex -2.6789681584205025e-14 110.0 -1.2689849171465539e-14
    vertex -2.6789681584205025e-14 110.0 7.000000000000032
  endloop
endfacet
facet normal -1.0 9.023892744153267e-16 -4.934941344458821e-15
  outer loop
    vertex -2.6789681584205025e-14 110.0 -1.2689849171465539e-14
    vertex -2.2277735212128394e-14 114.99999999999999 7.000000000000032
    vertex -2.114974861910923e-15 110.0 -5.000000000000012
  endloop
endfacet
facet normal -1.0 9.023892744153267e-16 -4.934941344458821e-15
  outer loop
    vertex -2.114974861910923e-15 110.0 -5.000000000000012
    vertex -2.2277735212128394e-14 114.99999999999999 7.000000000000032
    vertex 2.3969715101657098e-15 114.99999999999999 -5.000000000000012
  endloop
endfacet
facet normal -0.0 1.0 -0.0
  outer loop
    vertex 104.00000000000001 114.99999999999997 7.000000000000028
    vertex 129.0 114.99999999999997 -5.000000000000012
    vertex 104.00000000000001 114.99999999999997 -5.000000000000012
  endloop
endfacet
facet normal -0.0 1.0 -0.0
  outer loop
    vertex 129.0 114.99999999999997 -5.000000000000012
    vertex 104.00000000000001 114.99999999999997 7.000000000000028
    vertex 116.11177143234623 114.99999999999989 2.0511112605664303
  endloop
endfacet
facet normal -0.0 1.0 -0.0
  outer loop
    vertex 129.0 114.99999999999997 -5.000000000000012
    vertex 116.11177143234623 114.99999999999989 2.0511112605664303
    vertex 116.50000000000001 114.99999999999989 2.0000000000000324
  endloop
endfacet
facet normal -0.0 1.0 -0.0
  outer loop
    vertex 116.11177143234623 114.99999999999989 2.0511112605664303
    vertex 104.00000000000001 114.99999999999997 7.000000000000028
    vertex 115.75 114.99999999999989 2.200961894323375
  endloop
endfacet
facet normal -0.0 1.0 -0.0
  outer loop
    vertex 115.75 114.99999999999989 2.200961894323375
    vertex 104.00000000000001 114.99999999999997 7.000000000000028
    vertex 115.43933982822018 114.99999999999989 2.4393398282202114
  endloop
endfacet
facet normal -0.0 1.0 -0.0
  outer loop
    vertex 115.43933982822018 114.99999999999989 2.4393398282202114
    vertex 104.00000000000001 114.99999999999997 7.000000000000028
    vertex 115.20096189432336 114.99999999999989 2.7500000000000333
  endloop
endfacet
facet normal -0.0 1.0 -0.0
  outer loop
    vertex 115.20096189432336 114.99999999999989 2.7500000000000333
    vertex 104.00000000000001 114.99999999999997 7.000000000000028
    vertex 115.05111126056642 114.99999999999989 3.111771432346252
  endloop
endfacet
facet normal -0.0 1.0 -0.0
  outer loop
    vertex 115.05111126056642 114.99999999999989 3.111771432346252
    vertex 104.00000000000001 114.99999999999997 7.000000000000028
    vertex 115.00000000000001 114.99999999999989 3.5000000000000324
  endloop
endfacet
facet normal -0.0 1.0 -0.0
  outer loop
    vertex 115.00000000000001 114.99999999999989 3.5000000000000324
    vertex 104.00000000000001 114.99999999999997 7.000000000000028
    vertex 115.05111126056642 114.99999999999989 3.8882285676538144
  endloop
endfacet
facet normal -0.0 1.0 -0.0
  outer loop
    vertex 115.05111126056642 114.99999999999989 3.8882285676538144
    vertex 104.00000000000001 114.99999999999997 7.000000000000028
    vertex 115.20096189432336 114.99999999999989 4.250000000000033
  endloop
endfacet
facet normal -0.0 1.0 -0.0
  outer loop
    vertex 115.20096189432336 114.99999999999989 4.250000000000033
    vertex 104.00000000000001 114.99999999999997 7.000000000000028
    vertex 115.43933982822018 114.99999999999989 4.560660171779854
  endloop
endfacet
facet normal -0.0 1.0 -0.0
  outer loop
    vertex 115.43933982822018 114.99999999999989 4.560660171779854
    vertex 104.00000000000001 114.99999999999997 7.000000000000028
    vertex 115.75 114.99999999999989 4.79903810567669
  endloop
endfacet
facet normal -0.0 1.0 -0.0
  outer loop
    vertex 115.75 114.99999999999989 4.79903810567669
    vertex 104.00000000000001 114.99999999999997 7.000000000000028
    vertex 116.11177143234623 114.99999999999989 4.9488887394336345
  endloop
endfacet
facet normal -0.0 1.0 -0.0
  outer loop
    vertex 116.11177143234623 114.99999999999989 4.9488887394336345
    vertex 104.00000000000001 114.99999999999997 7.000000000000028
    vertex 116.50000000000001 114.99999999999989 5.000000000000033
  endloop
endfacet
facet normal -0.0 1.0 -0.0
  outer loop
    vertex 129.0 114.99999999999997 -5.000000000000012
    vertex 116.8882285676538 114.99999999999989 2.05111126056643
    vertex 129.0 114.99999999999997 7.000000000000028
  endloop
endfacet
facet normal -0.0 1.0 -0.0
  outer loop
    vertex 116.8882285676538 114.99999999999989 2.05111126056643
    vertex 129.0 114.99999999999997 -5.000000000000012
    vertex 116.50000000000001 114.99999999999989 2.0000000000000324
  endloop
endfacet
facet normal -0.0 1.0 -0.0
  outer loop
    vertex 129.0 114.99999999999997 7.000000000000028
    vertex 116.8882285676538 114.99999999999989 2.05111126056643
    vertex 117.25000000000003 114.99999999999989 2.2009618943233744
  endloop
endfacet
facet normal -0.0 1.0 -0.0
  outer loop
    vertex 129.0 114.99999999999997 7.000000000000028
    vertex 117.25000000000003 114.99999999999989 2.2009618943233744
    vertex 117.56066017177983 114.99999999999989 2.4393398282202114
  endloop
endfacet
facet normal -0.0 1.0 -0.0
  outer loop
    vertex 129.0 114.99999999999997 7.000000000000028
    vertex 117.56066017177983 114.99999999999989 2.4393398282202114
    vertex 117.79903810567666 114.99999999999989 2.7500000000000324
  endloop
endfacet
facet normal -0.0 1.0 -0.0
  outer loop
    vertex 129.0 114.99999999999997 7.000000000000028
    vertex 117.79903810567666 114.99999999999989 2.7500000000000324
    vertex 117.94888873943361 114.99999999999989 3.111771432346251
  endloop
endfacet
facet normal -0.0 1.0 -0.0
  outer loop
    vertex 129.0 114.99999999999997 7.000000000000028
    vertex 117.94888873943361 114.99999999999989 3.111771432346251
    vertex 118.00000000000001 114.99999999999989 3.5000000000000324
  endloop
endfacet
facet normal -0.0 1.0 -0.0
  outer loop
    vertex 129.0 114.99999999999997 7.000000000000028
    vertex 118.00000000000001 114.99999999999989 3.5000000000000324
    vertex 117.94888873943361 114.99999999999989 3.888228567653813
  endloop
endfacet
facet normal -0.0 1.0 -0.0
  outer loop
    vertex 129.0 114.99999999999997 7.000000000000028
    vertex 117.94888873943361 114.99999999999989 3.888228567653813
    vertex 117.79903810567666 114.99999999999989 4.250000000000032
  endloop
endfacet
facet normal -0.0 1.0 -0.0
  outer loop
    vertex 129.0 114.99999999999997 7.000000000000028
    vertex 117.79903810567666 114.99999999999989 4.250000000000032
    vertex 117.56066017177983 114.99999999999989 4.560660171779854
  endloop
endfacet
facet normal -0.0 1.0 -0.0
  outer loop
    vertex 129.0 114.99999999999997 7.000000000000028
    vertex 117.56066017177983 114.99999999999989 4.560660171779854
    vertex 117.25000000000003 114.99999999999989 4.79903810567669
  endloop
endfacet
facet normal -0.0 1.0 -0.0
  outer loop
    vertex 129.0 114.99999999999997 7.000000000000028
    vertex 117.25000000000003 114.99999999999989 4.79903810567669
    vertex 116.8882285676538 114.99999999999989 4.9488887394336345
  endloop
endfacet
facet normal -0.0 1.0 -0.0
  outer loop
    vertex 129.0 114.99999999999997 7.000000000000028
    vertex 116.8882285676538 114.99999999999989 4.9488887394336345
    vertex 116.50000000000001 114.99999999999989 5.000000000000033
  endloop
endfacet
facet normal -0.0 1.0 -0.0
  outer loop
    vertex 129.0 114.99999999999997 7.000000000000028
    vertex 116.50000000000001 114.99999999999989 5.000000000000033
    vertex 104.00000000000001 114.99999999999997 7.000000000000028
  endloop
endfacet
facet normal 1.0 -0.0 -0.0
  outer loop
    vertex 129.0 114.99999999999997 -5.000000000000012
    vertex 129.0 109.99999999999999 -1.2650439701988937e-14
    vertex 129.0 109.99999999999999 -5.000000000000012
  endloop
endfacet
facet normal 1.0 -0.0 -0.0
  outer loop
    vertex 129.0 109.99999999999999 -1.2650439701988937e-14
    vertex 129.0 114.99999999999997 -5.000000000000012
    vertex 129.0 109.99999999999999 7.000000000000028
  endloop
endfacet
facet normal 1.0 -0.0 -0.0
  outer loop
    vertex 129.0 109.99999999999999 7.000000000000028
    vertex 129.0 114.99999999999997 -5.000000000000012
    vertex 129.0 114.99999999999997 7.000000000000028
  endloop
endfacet
facet normal -1.0 0.0 0.0
  outer loop
    vertex 104.00000000000001 114.99999999999997 7.000000000000028
    vertex 104.00000000000001 109.99999999999999 -1.2337353361147052e-14
    vertex 104.00000000000001 109.99999999999999 7.000000000000028
  endloop
endfacet
facet normal -1.0 0.0 0.0
  outer loop
    vertex 104.00000000000001 109.99999999999999 -1.2337353361147052e-14
    vertex 104.00000000000001 114.99999999999997 7.000000000000028
    vertex 104.00000000000001 109.99999999999999 -5.000000000000012
  endloop
endfacet
facet normal -1.0 0.0 0.0
  outer loop
    vertex 104.00000000000001 109.99999999999999 -5.000000000000012
    vertex 104.00000000000001 114.99999999999997 7.000000000000028
    vertex 104.00000000000001 114.99999999999997 -5.000000000000012
  endloop
endfacet
facet normal 1.2523453633675422e-17 0.0 1.0
  outer loop
    vertex 129.0 109.99999999999999 7.000000000000028
    vertex 104.00000000000001 114.99999999999997 7.000000000000028
    vertex 104.00000000000001 109.99999999999999 7.000000000000028
  endloop
endfacet
facet normal 1.2523453633675422e-17 0.0 1.0
  outer loop
    vertex 104.00000000000001 114.99999999999997 7.000000000000028
    vertex 129.0 109.99999999999999 7.000000000000028
    vertex 129.0 114.99999999999997 7.000000000000028
  endloop
endfacet
facet normal 0.0 -1.0 0.0
  outer loop
    vertex 129.0 109.99999999999999 -1.2650439701988937e-14
    vertex 116.8882285676538 109.99999999999989 2.05111126056643
    vertex 104.00000000000001 109.99999999999999 -1.2337353361147052e-14
  endloop
endfacet
facet normal 0.0 -1.0 0.0
  outer loop
    vertex 116.8882285676538 109.99999999999989 2.05111126056643
    vertex 129.0 109.99999999999999 -1.2650439701988937e-14
    vertex 129.0 109.99999999999999 7.000000000000028
  endloop
endfacet
facet normal 0.0 -1.0 0.0
  outer loop
    vertex 104.00000000000001 109.99999999999999 -1.2337353361147052e-14
    vertex 116.8882285676538 109.99999999999989 2.05111126056643
    vertex 116.50000000000001 109.99999999999989 2.0000000000000324
  endloop
endfacet
facet normal 0.0 -1.0 0.0
  outer loop
    vertex 116.8882285676538 109.99999999999989 2.05111126056643
    vertex 129.0 109.99999999999999 7.000000000000028
    vertex 117.25000000000003 109.99999999999989 2.2009618943233744
  endloop
endfacet
facet normal 0.0 -1.0 0.0
  outer loop
    vertex 117.25000000000003 109.99999999999989 2.2009618943233744
    vertex 129.0 109.99999999999999 7.000000000000028
    vertex 117.56066017177983 109.99999999999989 2.4393398282202114
  endloop
endfacet
facet normal 0.0 -1.0 0.0
  outer loop
    vertex 117.56066017177983 109.99999999999989 2.4393398282202114
    vertex 129.0 109.99999999999999 7.000000000000028
    vertex 117.79903810567666 109.99999999999989 2.7500000000000324
  endloop
endfacet
facet normal 0.0 -1.0 0.0
  outer loop
    vertex 117.79903810567666 109.99999999999989 2.7500000000000324
    vertex 129.0 109.99999999999999 7.000000000000028
    vertex 117.94888873943361 109.99999999999989 3.111771432346251
  endloop
endfacet
facet normal 0.0 -1.0 0.0
  outer loop
    vertex 117.94888873943361 109.99999999999989 3.111771432346251
    vertex 129.0 109.99999999999999 7.000000000000028
    vertex 118.00000000000001 109.99999999999989 3.5000000000000324
  endloop
endfacet
facet normal 0.0 -1.0 0.0
  outer loop
    vertex 118.00000000000001 109.99999999999989 3.5000000000000324
    vertex 129.0 109.99999999999999 7.000000000000028
    vertex 117.94888873943361 109.99999999999989 3.888228567653813
  endloop
endfacet
facet normal 0.0 -1.0 0.0
  outer loop
    vertex 117.94888873943361 109.99999999999989 3.888228567653813
    vertex 129.0 109.99999999999999 7.000000000000028
    vertex 117.79903810567666 109.99999999999989 4.250000000000032
  endloop
endfacet
facet normal 0.0 -1.0 0.0
  outer loop
    vertex 117.79903810567666 109.99999999999989 4.250000000000032
    vertex 129.0 109.99999999999999 7.000000000000028
    vertex 117.56066017177983 109.99999999999989 4.560660171779854
  endloop
endfacet
facet normal 0.0 -1.0 0.0
  outer loop
    vertex 117.56066017177983 109.99999999999989 4.560660171779854
    vertex 129.0 109.99999999999999 7.000000000000028
    vertex 117.25000000000003 109.99999999999989 4.79903810567669
  endloop
endfacet
facet normal 0.0 -1.0 0.0
  outer loop
    vertex 117.25000000000003 109.99999999999989 4.79903810567669
    vertex 129.0 109.99999999999999 7.000000000000028
    vertex 116.8882285676538 109.99999999999989 4.9488887394336345
  endloop
endfacet
facet normal 0.0 -1.0 0.0
  outer loop
    vertex 116.8882285676538 109.99999999999989 4.9488887394336345
    vertex 129.0 109.99999999999999 7.000000000000028
    vertex 116.50000000000001 109.99999999999989 5.000000000000033
  endloop
endfacet
facet normal 0.0 -1.0 0.0
  outer loop
    vertex 104.00000000000001 109.99999999999999 -1.2337353361147052e-14
    vertex 116.11177143234623 109.99999999999989 2.0511112605664303
    vertex 104.00000000000001 109.99999999999999 7.000000000000028
  endloop
endfacet
facet normal 0.0 -1.0 0.0
  outer loop
    vertex 116.11177143234623 109.99999999999989 2.0511112605664303
    vertex 104.00000000000001 109.99999999999999 -1.2337353361147052e-14
    vertex 116.50000000000001 109.99999999999989 2.0000000000000324
  endloop
endfacet
facet normal 0.0 -1.0 0.0
  outer loop
    vertex 104.00000000000001 109.99999999999999 7.000000000000028
    vertex 116.11177143234623 109.99999999999989 2.0511112605664303
    vertex 115.75 109.99999999999989 2.200961894323375
  endloop
endfacet
facet normal 0.0 -1.0 0.0
  outer loop
    vertex 104.00000000000001 109.99999999999999 7.000000000000028
    vertex 115.75 109.99999999999989 2.200961894323375
    vertex 115.43933982822018 109.99999999999989 2.4393398282202114
  endloop
endfacet
facet normal 0.0 -1.0 0.0
  outer loop
    vertex 104.00000000000001 109.99999999999999 7.000000000000028
    vertex 115.43933982822018 109.99999999999989 2.4393398282202114
    vertex 115.20096189432336 109.99999999999989 2.7500000000000333
  endloop
endfacet
facet normal 0.0 -1.0 0.0
  outer loop
    vertex 104.00000000000001 109.99999999999999 7.000000000000028
    vertex 115.20096189432336 109.99999999999989 2.7500000000000333
    vertex 115.05111126056642 109.99999999999989 3.111771432346252
  endloop
endfacet
facet normal 0.0 -1.0 0.0
  outer loop
    vertex 104.00000000000001 109.99999999999999 7.000000000000028
    vertex 115.05111126056642 109.99999999999989 3.111771432346252
    vertex 115.00000000000001 109.99999999999989 3.5000000000000324
  endloop
endfacet
facet normal 0.0 -1.0 0.0
  outer loop
    vertex 104.00000000000001 109.99999999999999 7.000000000000028
    vertex 115.00000000000001 109.99999999999989 3.5000000000000324
    vertex 115.05111126056642 109.99999999999989 3.8882285676538144
  endloop
endfacet
facet normal 0.0 -1.0 0.0
  outer loop
    vertex 104.00000000000001 109.99999999999999 7.000000000000028
    vertex 115.05111126056642 109.99999999999989 3.8882285676538144
    vertex 115.20096189432336 109.99999999999989 4.250000000000033
  endloop
endfacet
facet normal 0.0 -1.0 0.0
  outer loop
    vertex 104.00000000000001 109.99999999999999 7.000000000000028
    vertex 115.20096189432336 109.99999999999989 4.250000000000033
    vertex 115.43933982822018 109.99999999999989 4.560660171779854
  endloop
endfacet
facet normal 0.0 -1.0 0.0
  outer loop
    vertex 104.00000000000001 109.99999999999999 7.000000000000028
    vertex 115.43933982822018 109.99999999999989 4.560660171779854
    vertex 115.75 109.99999999999989 4.79903810567669
  endloop
endfacet
facet normal 0.0 -1.0 0.0
  outer loop
    vertex 104.00000000000001 109.99999999999999 7.000000000000028
    vertex 115.75 109.99999999999989 4.79903810567669
    vertex 116.11177143234623 109.99999999999989 4.9488887394336345
  endloop
endfacet
facet normal 0.0 -1.0 0.0
  outer loop
    vertex 104.00000000000001 109.99999999999999 7.000000000000028
    vertex 116.11177143234623 109.99999999999989 4.9488887394336345
    vertex 116.50000000000001 109.99999999999989 5.000000000000033
  endloop
endfacet
facet normal 0.0 -1.0 0.0
  outer loop
    vertex 104.00000000000001 109.99999999999999 7.000000000000028
    vertex 116.50000000000001 109.99999999999989 5.000000000000033
    vertex 129.0 109.99999999999999 7.000000000000028
  endloop
endfacet
facet normal -2.1872417156137814e-45 -2.4238339014289967e-30 1.0
  outer loop
    vertex 25.0 109.99999999999999 7.000000000000032
    vertex -2.2277735212128394e-14 114.99999999999999 7.000000000000032
    vertex -2.6789681584205025e-14 110.0 7.000000000000032
  endloop
endfacet
facet normal -2.1872417156137814e-45 -2.4238339014289967e-30 1.0
  outer loop
    vertex -2.2277735212128394e-14 114.99999999999999 7.000000000000032
    vertex 25.0 109.99999999999999 7.000000000000032
    vertex 25.000000000000004 114.99999999999997 7.000000000000032
  endloop
endfacet
facet normal -9.023892744153263e-16 -1.0 -2.423833901428997e-30
  outer loop
    vertex 25.0 109.99999999999999 -1.2689849171465539e-14
    vertex 12.888228567653705 109.99999999999993 2.05111126056642
    vertex -2.6789681584205025e-14 110.0 -1.2689849171465539e-14
  endloop
endfacet
facet normal -9.023892744153263e-16 -1.0 -2.423833901428997e-30
  outer loop
    vertex 12.888228567653705 109.99999999999993 2.05111126056642
    vertex 25.0 109.99999999999999 -1.2689849171465539e-14
    vertex 25.0 109.99999999999999 7.000000000000032
  endloop
endfacet
facet normal -9.023892744153263e-16 -1.0 -2.423833901428997e-30
  outer loop
    vertex -2.6789681584205025e-14 110.0 -1.2689849171465539e-14
    vertex 12.888228567653705 109.99999999999993 2.05111126056642
    vertex 12.49999999999992 109.99999999999993 2.0000000000000226
  endloop
endfacet
facet normal -9.023892744153263e-16 -1.0 -2.423833901428997e-30
  outer loop
    vertex 12.888228567653705 109.99999999999993 2.05111126056642
    vertex 25.0 109.99999999999999 7.000000000000032
    vertex 13.249999999999922 109.99999999999993 2.200961894323364
  endloop
endfacet
facet normal -9.023892744153263e-16 -1.0 -2.423833901428997e-30
  outer loop
    vertex 13.249999999999922 109.99999999999993 2.200961894323364
    vertex 25.0 109.99999999999999 7.000000000000032
    vertex 13.560660171779745 109.99999999999993 2.4393398282202012
  endloop
endfacet
facet normal -9.023892744153263e-16 -1.0 -2.423833901428997e-30
  outer loop
    vertex 13.560660171779745 109.99999999999993 2.4393398282202012
    vertex 25.0 109.99999999999999 7.000000000000032
    vertex 13.799038105676582 109.99999999999993 2.7500000000000213
  endloop
endfacet
facet normal -9.023892744153263e-16 -1.0 -2.423833901428997e-30
  outer loop
    vertex 13.799038105676582 109.99999999999993 2.7500000000000213
    vertex 25.0 109.99999999999999 7.000000000000032
    vertex 13.948888739433526 109.99999999999993 3.1117714323462393
  endloop
endfacet
facet normal -9.023892744153263e-16 -1.0 -2.423833901428997e-30
  outer loop
    vertex 13.948888739433526 109.99999999999993 3.1117714323462393
    vertex 25.0 109.99999999999999 7.000000000000032
    vertex 13.999999999999924 109.99999999999993 3.5000000000000218
  endloop
endfacet
facet normal -9.023892744153263e-16 -1.0 -2.423833901428997e-30
  outer loop
    vertex 13.999999999999924 109.99999999999993 3.5000000000000218
    vertex 25.0 109.99999999999999 7.000000000000032
    vertex 13.948888739433526 109.99999999999993 3.8882285676538024
  endloop
endfacet
facet normal -9.023892744153263e-16 -1.0 -2.423833901428997e-30
  outer loop
    vertex 13.948888739433526 109.99999999999993 3.8882285676538024
    vertex 25.0 109.99999999999999 7.000000000000032
    vertex 13.799038105676582 109.99999999999993 4.250000000000021
  endloop
endfacet
facet normal -9.023892744153263e-16 -1.0 -2.423833901428997e-30
  outer loop
    vertex 13.799038105676582 109.99999999999993 4.250000000000021
    vertex 25.0 109.99999999999999 7.000000000000032
    vertex 13.560660171779745 109.99999999999993 4.560660171779842
  endloop
endfacet
facet normal -9.023892744153263e-16 -1.0 -2.423833901428997e-30
  outer loop
    vertex 13.560660171779745 109.99999999999993 4.560660171779842
    vertex 25.0 109.99999999999999 7.000000000000032
    vertex 13.249999999999925 109.99999999999993 4.799038105676678
  endloop
endfacet
facet normal -9.023892744153263e-16 -1.0 -2.423833901428997e-30
  outer loop
    vertex 13.249999999999925 109.99999999999993 4.799038105676678
    vertex 25.0 109.99999999999999 7.000000000000032
    vertex 12.888228567653705 109.99999999999993 4.948888739433623
  endloop
endfacet
facet normal -9.023892744153263e-16 -1.0 -2.423833901428997e-30
  outer loop
    vertex 12.888228567653705 109.99999999999993 4.948888739433623
    vertex 25.0 109.99999999999999 7.000000000000032
    vertex 12.49999999999992 109.99999999999993 5.00000000000002
  endloop
endfacet
facet normal -9.023892744153263e-16 -1.0 -2.423833901428997e-30
  outer loop
    vertex -2.6789681584205025e-14 110.0 -1.2689849171465539e-14
    vertex 12.111771432346139 109.99999999999993 2.0511112605664206
    vertex -2.6789681584205025e-14 110.0 7.000000000000032
  endloop
endfacet
facet normal -9.023892744153263e-16 -1.0 -2.423833901428997e-30
  outer loop
    vertex 12.111771432346139 109.99999999999993 2.0511112605664206
    vertex -2.6789681584205025e-14 110.0 -1.2689849171465539e-14
    vertex 12.49999999999992 109.99999999999993 2.0000000000000226
  endloop
endfacet
facet normal -9.023892744153263e-16 -1.0 -2.423833901428997e-30
  outer loop
    vertex -2.6789681584205025e-14 110.0 7.000000000000032
    vertex 12.111771432346139 109.99999999999993 2.0511112605664206
    vertex 11.74999999999992 109.99999999999999 2.2009618943233646
  endloop
endfacet
facet normal -9.023892744153263e-16 -1.0 -2.423833901428997e-30
  outer loop
    vertex -2.6789681584205025e-14 110.0 7.000000000000032
    vertex 11.74999999999992 109.99999999999999 2.2009618943233646
    vertex 11.439339828220097 109.99999999999999 2.4393398282202017
  endloop
endfacet
facet normal -9.023892744153263e-16 -1.0 -2.423833901428997e-30
  outer loop
    vertex -2.6789681584205025e-14 110.0 7.000000000000032
    vertex 11.439339828220097 109.99999999999999 2.4393398282202017
    vertex 11.200961894323262 109.99999999999999 2.7500000000000226
  endloop
endfacet
facet normal -9.023892744153263e-16 -1.0 -2.423833901428997e-30
  outer loop
    vertex -2.6789681584205025e-14 110.0 7.000000000000032
    vertex 11.200961894323262 109.99999999999999 2.7500000000000226
    vertex 11.051111260566318 109.99999999999999 3.111771432346241
  endloop
endfacet
facet normal -9.023892744153263e-16 -1.0 -2.423833901428997e-30
  outer loop
    vertex -2.6789681584205025e-14 110.0 7.000000000000032
    vertex 11.051111260566318 109.99999999999999 3.111771432346241
    vertex 10.99999999999992 109.99999999999999 3.5000000000000218
  endloop
endfacet
facet normal -9.023892744153263e-16 -1.0 -2.423833901428997e-30
  outer loop
    vertex -2.6789681584205025e-14 110.0 7.000000000000032
    vertex 10.99999999999992 109.99999999999999 3.5000000000000218
    vertex 11.051111260566318 109.99999999999999 3.8882285676538033
  endloop
endfacet
facet normal -9.023892744153263e-16 -1.0 -2.423833901428997e-30
  outer loop
    vertex -2.6789681584205025e-14 110.0 7.000000000000032
    vertex 11.051111260566318 109.99999999999999 3.8882285676538033
    vertex 11.200961894323262 109.99999999999999 4.250000000000022
  endloop
endfacet
facet normal -9.023892744153263e-16 -1.0 -2.423833901428997e-30
  outer loop
    vertex -2.6789681584205025e-14 110.0 7.000000000000032
    vertex 11.200961894323262 109.99999999999999 4.250000000000022
    vertex 11.439339828220099 109.99999999999999 4.560660171779842
  endloop
endfacet
facet normal -9.023892744153263e-16 -1.0 -2.423833901428997e-30
  outer loop
    vertex -2.6789681584205025e-14 110.0 7.000000000000032
    vertex 11.439339828220099 109.99999999999999 4.560660171779842
    vertex 11.74999999999992 109.99999999999993 4.799038105676678
  endloop
endfacet
facet normal -9.023892744153263e-16 -1.0 -2.423833901428997e-30
  outer loop
    vertex -2.6789681584205025e-14 110.0 7.000000000000032
    vertex 11.74999999999992 109.99999999999993 4.799038105676678
    vertex 12.111771432346139 109.99999999999993 4.948888739433623
  endloop
endfacet
facet normal -9.023892744153263e-16 -1.0 -2.423833901428997e-30
  outer loop
    vertex -2.6789681584205025e-14 110.0 7.000000000000032
    vertex 12.111771432346139 109.99999999999993 4.948888739433623
    vertex 12.49999999999992 109.99999999999993 5.00000000000002
  endloop
endfacet
facet normal -9.023892744153263e-16 -1.0 -2.423833901428997e-30
  outer loop
    vertex -2.6789681584205025e-14 110.0 7.000000000000032
    vertex 12.49999999999992 109.99999999999993 5.00000000000002
    vertex 25.0 109.99999999999999 7.000000000000032
  endloop
endfacet
facet normal -0.13052619222005127 -3.198123599405254e-30 0.9914448613738106
  outer loop
    vertex 12.888228567653705 109.99999999999993 2.05111126056642
    vertex 12.500000000000004 114.99999999999997 2.0000000000000338
    vertex 12.49999999999992 109.99999999999993 2.0000000000000226
  endloop
endfacet
facet normal -0.13052619222005127 -3.198123599405254e-30 0.9914448613738106
  outer loop
    vertex 12.500000000000004 114.99999999999997 2.0000000000000338
    vertex 12.888228567653705 109.99999999999993 2.05111126056642
    vertex 12.888228567653783 114.99999999999997 2.051111260566431
  endloop
endfacet
facet normal 0.13052619222005168 -4.304479239140046e-15 0.9914448613738105
  outer loop
    vertex 12.49999999999992 109.99999999999993 2.0000000000000226
    vertex 12.111771432346222 114.99999999999997 2.0511112605664312
    vertex 12.111771432346139 109.99999999999993 2.0511112605664206
  endloop
endfacet
facet normal 0.13052619222005168 -4.304479239140046e-15 0.9914448613738105
  outer loop
    vertex 12.111771432346222 114.99999999999997 2.0511112605664312
    vertex 12.49999999999992 109.99999999999993 2.0000000000000226
    vertex 12.500000000000004 114.99999999999997 2.0000000000000338
  endloop
endfacet
facet normal 0.3826834323650898 -8.315615331620977e-15 0.9238795325112867
  outer loop
    vertex 12.111771432346139 109.99999999999993 2.0511112605664206
    vertex 11.750000000000004 114.99999999999999 2.2009618943233757
    vertex 11.74999999999992 109.99999999999999 2.2009618943233646
  endloop
endfacet
facet normal 0.3826834323650898 -8.315615331620977e-15 0.9238795325112867
  outer loop
    vertex 11.750000000000004 114.99999999999999 2.2009618943233757
    vertex 12.111771432346139 109.99999999999993 2.0511112605664206
    vertex 12.111771432346222 114.99999999999997 2.0511112605664312
  endloop
endfacet
facet normal 0.6087614290087213 -1.176005598145604e-14 0.7933533402912346
  outer loop
    vertex 11.74999999999992 109.99999999999999 2.2009618943233646
    vertex 11.439339828220183 114.99999999999999 2.439339828220213
    vertex 11.439339828220097 109.99999999999999 2.4393398282202017
  endloop
endfacet
facet normal 0.6087614290087213 -1.176005598145604e-14 0.7933533402912346
  outer loop
    vertex 11.439339828220183 114.99999999999999 2.439339828220213
    vertex 11.74999999999992 109.99999999999999 2.2009618943233646
    vertex 11.750000000000004 114.99999999999999 2.2009618943233757
  endloop
endfacet
facet normal 0.7933533402912354 -1.4403068250566256e-14 0.6087614290087207
  outer loop
    vertex 11.439339828220183 114.99999999999999 2.439339828220213
    vertex 11.200961894323262 109.99999999999999 2.7500000000000226
    vertex 11.439339828220097 109.99999999999999 2.4393398282202017
  endloop
endfacet
facet normal 0.7933533402912354 -1.4403068250566256e-14 0.6087614290087207
  outer loop
    vertex 11.200961894323262 109.99999999999999 2.7500000000000226
    vertex 11.439339828220183 114.99999999999999 2.439339828220213
    vertex 11.200961894323347 114.99999999999999 2.7500000000000333
  endloop
endfacet
facet normal 0.9238795325112874 -1.6064535220596083e-14 0.3826834323650882
  outer loop
    vertex 11.200961894323347 114.99999999999999 2.7500000000000333
    vertex 11.051111260566318 109.99999999999999 3.111771432346241
    vertex 11.200961894323262 109.99999999999999 2.7500000000000226
  endloop
endfacet
facet normal 0.9238795325112874 -1.6064535220596083e-14 0.3826834323650882
  outer loop
    vertex 11.051111260566318 109.99999999999999 3.111771432346241
    vertex 11.200961894323347 114.99999999999999 2.7500000000000333
    vertex 11.051111260566403 114.99999999999999 3.111771432346252
  endloop
endfacet
facet normal 0.9914448613738104 -1.663123066324196e-14 0.13052619222005202
  outer loop
    vertex 11.051111260566403 114.99999999999999 3.111771432346252
    vertex 10.99999999999992 109.99999999999999 3.5000000000000218
    vertex 11.051111260566318 109.99999999999999 3.111771432346241
  endloop
endfacet
facet normal 0.9914448613738104 -1.663123066324196e-14 0.13052619222005202
  outer loop
    vertex 10.99999999999992 109.99999999999999 3.5000000000000218
    vertex 11.051111260566403 114.99999999999999 3.111771432346252
    vertex 11.000000000000005 114.99999999999999 3.5000000000000324
  endloop
endfacet
facet normal 0.9914448613738105 -1.6064535220596083e-14 -0.13052619222005168
  outer loop
    vertex 11.000000000000005 114.99999999999999 3.5000000000000324
    vertex 11.051111260566318 109.99999999999999 3.8882285676538033
    vertex 10.99999999999992 109.99999999999999 3.5000000000000218
  endloop
endfacet
facet normal 0.9914448613738105 -1.6064535220596083e-14 -0.13052619222005168
  outer loop
    vertex 11.051111260566318 109.99999999999999 3.8882285676538033
    vertex 11.000000000000005 114.99999999999999 3.5000000000000324
    vertex 11.051111260566403 114.99999999999999 3.8882285676538135
  endloop
endfacet
facet normal 0.9238795325112874 -1.440306825056627e-14 -0.3826834323650882
  outer loop
    vertex 11.051111260566403 114.99999999999999 3.8882285676538135
    vertex 11.200961894323262 109.99999999999999 4.250000000000022
    vertex 11.051111260566318 109.99999999999999 3.8882285676538033
  endloop
endfacet
facet normal 0.9238795325112874 -1.440306825056627e-14 -0.3826834323650882
  outer loop
    vertex 11.200961894323262 109.99999999999999 4.250000000000022
    vertex 11.051111260566403 114.99999999999999 3.8882285676538135
    vertex 11.200961894323347 114.99999999999999 4.250000000000032
  endloop
endfacet
facet normal 0.7933533402912332 -1.1760055981455995e-14 -0.6087614290087233
  outer loop
    vertex 11.200961894323347 114.99999999999999 4.250000000000032
    vertex 11.439339828220099 109.99999999999999 4.560660171779842
    vertex 11.200961894323262 109.99999999999999 4.250000000000022
  endloop
endfacet
facet normal 0.7933533402912332 -1.1760055981455995e-14 -0.6087614290087233
  outer loop
    vertex 11.439339828220099 109.99999999999999 4.560660171779842
    vertex 11.200961894323347 114.99999999999999 4.250000000000032
    vertex 11.439339828220184 114.99999999999999 4.560660171779853
  endloop
endfacet
facet normal 0.6087614290087202 -8.315615331620974e-15 -0.7933533402912355
  outer loop
    vertex 11.439339828220184 114.99999999999999 4.560660171779853
    vertex 11.74999999999992 109.99999999999993 4.799038105676678
    vertex 11.439339828220099 109.99999999999999 4.560660171779842
  endloop
endfacet
facet normal 0.6087614290087202 -8.315615331620974e-15 -0.7933533402912355
  outer loop
    vertex 11.74999999999992 109.99999999999993 4.799038105676678
    vertex 11.439339828220184 114.99999999999999 4.560660171779853
    vertex 11.750000000000005 114.99999999999997 4.799038105676689
  endloop
endfacet
facet normal 0.3826834323650898 -4.304479239140049e-15 -0.9238795325112867
  outer loop
    vertex 11.750000000000005 114.99999999999997 4.799038105676689
    vertex 12.111771432346139 109.99999999999993 4.948888739433623
    vertex 11.74999999999992 109.99999999999993 4.799038105676678
  endloop
endfacet
facet normal 0.3826834323650898 -4.304479239140049e-15 -0.9238795325112867
  outer loop
    vertex 12.111771432346139 109.99999999999993 4.948888739433623
    vertex 11.750000000000005 114.99999999999997 4.799038105676689
    vertex 12.111771432346224 114.99999999999997 4.948888739433634
  endloop
endfacet
facet normal 0.13052619222005216 -1.1593198047844043e-29 -0.9914448613738104
  outer loop
    vertex 12.111771432346224 114.99999999999997 4.948888739433634
    vertex 12.49999999999992 109.99999999999993 5.00000000000002
    vertex 12.111771432346139 109.99999999999993 4.948888739433623
  endloop
endfacet
facet normal 0.13052619222005216 -1.1593198047844043e-29 -0.9914448613738104
  outer loop
    vertex 12.49999999999992 109.99999999999993 5.00000000000002
    vertex 12.111771432346224 114.99999999999997 4.948888739433634
    vertex 12.500000000000004 114.99999999999997 5.000000000000031
  endloop
endfacet
facet normal -0.13052619222005216 4.304479239140054e-15 -0.9914448613738104
  outer loop
    vertex 12.500000000000004 114.99999999999997 5.000000000000031
    vertex 12.888228567653705 109.99999999999993 4.948888739433623
    vertex 12.49999999999992 109.99999999999993 5.00000000000002
  endloop
endfacet
facet normal -0.13052619222005216 4.304479239140054e-15 -0.9914448613738104
  outer loop
    vertex 12.888228567653705 109.99999999999993 4.948888739433623
    vertex 12.500000000000004 114.99999999999997 5.000000000000031
    vertex 12.888228567653783 114.99999999999997 4.948888739433634
  endloop
endfacet
facet normal -0.3826834323650885 8.315615331620958e-15 -0.9238795325112873
  outer loop
    vertex 12.888228567653783 114.99999999999997 4.948888739433634
    vertex 13.249999999999925 109.99999999999993 4.799038105676678
    vertex 12.888228567653705 109.99999999999993 4.948888739433623
  endloop
endfacet
facet normal -0.3826834323650885 8.315615331620958e-15 -0.9238795325112873
  outer loop
    vertex 13.249999999999925 109.99999999999993 4.799038105676678
    vertex 12.888228567653783 114.99999999999997 4.948888739433634
    vertex 13.250000000000004 114.99999999999994 4.799038105676689
  endloop
endfacet
facet normal -0.608761429008722 1.1760055981456052e-14 -0.7933533402912343
  outer loop
    vertex 13.250000000000004 114.99999999999994 4.799038105676689
    vertex 13.560660171779745 109.99999999999993 4.560660171779842
    vertex 13.249999999999925 109.99999999999993 4.799038105676678
  endloop
endfacet
facet normal -0.608761429008722 1.1760055981456052e-14 -0.7933533402912343
  outer loop
    vertex 13.560660171779745 109.99999999999993 4.560660171779842
    vertex 13.250000000000004 114.99999999999994 4.799038105676689
    vertex 13.560660171779823 114.99999999999994 4.560660171779853
  endloop
endfacet
facet normal -0.7933533402912339 1.440306825056624e-14 -0.6087614290087225
  outer loop
    vertex 13.560660171779823 114.99999999999994 4.560660171779853
    vertex 13.799038105676582 109.99999999999993 4.250000000000021
    vertex 13.560660171779745 109.99999999999993 4.560660171779842
  endloop
endfacet
facet normal -0.7933533402912339 1.440306825056624e-14 -0.6087614290087225
  outer loop
    vertex 13.799038105676582 109.99999999999993 4.250000000000021
    vertex 13.560660171779823 114.99999999999994 4.560660171779853
    vertex 13.799038105676662 114.99999999999994 4.250000000000032
  endloop
endfacet
facet normal -0.9238795325112874 1.6064535220596083e-14 -0.3826834323650882
  outer loop
    vertex 13.799038105676662 114.99999999999994 4.250000000000032
    vertex 13.948888739433526 109.99999999999993 3.8882285676538024
    vertex 13.799038105676582 109.99999999999993 4.250000000000021
  endloop
endfacet
facet normal -0.9238795325112874 1.6064535220596083e-14 -0.3826834323650882
  outer loop
    vertex 13.948888739433526 109.99999999999993 3.8882285676538024
    vertex 13.799038105676662 114.99999999999994 4.250000000000032
    vertex 13.948888739433604 114.99999999999994 3.888228567653813
  endloop
endfacet
facet normal -0.9914448613738104 1.663123066324196e-14 -0.1305261922200519
  outer loop
    vertex 13.948888739433604 114.99999999999994 3.888228567653813
    vertex 13.999999999999924 109.99999999999993 3.5000000000000218
    vertex 13.948888739433526 109.99999999999993 3.8882285676538024
  endloop
endfacet
facet normal -0.9914448613738104 1.663123066324196e-14 -0.1305261922200519
  outer loop
    vertex 13.999999999999924 109.99999999999993 3.5000000000000218
    vertex 13.948888739433604 114.99999999999994 3.888228567653813
    vertex 14.000000000000002 114.99999999999994 3.5000000000000324
  endloop
endfacet
facet normal -0.9914448613738105 1.6064535220596083e-14 0.13052619222005146
  outer loop
    vertex 14.000000000000002 114.99999999999994 3.5000000000000324
    vertex 13.948888739433526 109.99999999999993 3.1117714323462393
    vertex 13.999999999999924 109.99999999999993 3.5000000000000218
  endloop
endfacet
facet normal -0.9914448613738105 1.6064535220596083e-14 0.13052619222005146
  outer loop
    vertex 13.948888739433526 109.99999999999993 3.1117714323462393
    vertex 14.000000000000002 114.99999999999994 3.5000000000000324
    vertex 13.948888739433604 114.99999999999994 3.1117714323462504
  endloop
endfacet
facet normal -0.9238795325112872 1.4403068250566265e-14 0.3826834323650889
  outer loop
    vertex 13.948888739433604 114.99999999999994 3.1117714323462504
    vertex 13.799038105676582 109.99999999999993 2.7500000000000213
    vertex 13.948888739433526 109.99999999999993 3.1117714323462393
  endloop
endfacet
facet normal -0.9238795325112872 1.4403068250566265e-14 0.3826834323650889
  outer loop
    vertex 13.799038105676582 109.99999999999993 2.7500000000000213
    vertex 13.948888739433604 114.99999999999994 3.1117714323462504
    vertex 13.799038105676662 114.99999999999994 2.7500000000000324
  endloop
endfacet
facet normal -0.7933533402912332 1.1760055981455995e-14 0.6087614290087233
  outer loop
    vertex 13.799038105676662 114.99999999999994 2.7500000000000324
    vertex 13.560660171779745 109.99999999999993 2.4393398282202012
    vertex 13.799038105676582 109.99999999999993 2.7500000000000213
  endloop
endfacet
facet normal -0.7933533402912332 1.1760055981455995e-14 0.6087614290087233
  outer loop
    vertex 13.560660171779745 109.99999999999993 2.4393398282202012
    vertex 13.799038105676662 114.99999999999994 2.7500000000000324
    vertex 13.560660171779823 114.99999999999994 2.439339828220212
  endloop
endfacet
facet normal -0.6087614290087197 8.315615331620963e-15 0.7933533402912362
  outer loop
    vertex 13.560660171779745 109.99999999999993 2.4393398282202012
    vertex 13.250000000000002 114.99999999999997 2.200961894323375
    vertex 13.249999999999922 109.99999999999993 2.200961894323364
  endloop
endfacet
facet normal -0.6087614290087197 8.315615331620963e-15 0.7933533402912362
  outer loop
    vertex 13.250000000000002 114.99999999999997 2.200961894323375
    vertex 13.560660171779745 109.99999999999993 2.4393398282202012
    vertex 13.560660171779823 114.99999999999994 2.439339828220212
  endloop
endfacet
facet normal -0.3826834323650903 4.304479239140059e-15 0.9238795325112866
  outer loop
    vertex 13.249999999999922 109.99999999999993 2.200961894323364
    vertex 12.888228567653783 114.99999999999997 2.051111260566431
    vertex 12.888228567653705 109.99999999999993 2.05111126056642
  endloop
endfacet
facet normal -0.3826834323650903 4.304479239140059e-15 0.9238795325112866
  outer loop
    vertex 12.888228567653783 114.99999999999997 2.051111260566431
    vertex 13.249999999999922 109.99999999999993 2.200961894323364
    vertex 13.250000000000002 114.99999999999997 2.200961894323375
  endloop
endfacet
facet normal 0.608761429008729 0.0 0.793353340291229
  outer loop
    vertex 115.75 109.99999999999989 2.200961894323375
    vertex 115.43933982822018 114.99999999999989 2.4393398282202114
    vertex 115.43933982822018 109.99999999999989 2.4393398282202114
  endloop
endfacet
facet normal 0.608761429008729 0.0 0.793353340291229
  outer loop
    vertex 115.43933982822018 114.99999999999989 2.4393398282202114
    vertex 115.75 109.99999999999989 2.200961894323375
    vertex 115.75 114.99999999999989 2.200961894323375
  endloop
endfacet
facet normal 0.7933533402912488 0.0 0.6087614290087031
  outer loop
    vertex 115.43933982822018 114.99999999999989 2.4393398282202114
    vertex 115.20096189432336 109.99999999999989 2.7500000000000333
    vertex 115.43933982822018 109.99999999999989 2.4393398282202114
  endloop
endfacet
facet normal 0.7933533402912488 0.0 0.6087614290087031
  outer loop
    vertex 115.20096189432336 109.99999999999989 2.7500000000000333
    vertex 115.43933982822018 114.99999999999989 2.4393398282202114
    vertex 115.20096189432336 114.99999999999989 2.7500000000000333
  endloop
endfacet
facet normal 0.9238795325112797 0.0 0.38268343236510666
  outer loop
    vertex 115.20096189432336 114.99999999999989 2.7500000000000333
    vertex 115.05111126056642 109.99999999999989 3.111771432346252
    vertex 115.20096189432336 109.99999999999989 2.7500000000000333
  endloop
endfacet
facet normal 0.9238795325112797 0.0 0.38268343236510666
  outer loop
    vertex 115.05111126056642 109.99999999999989 3.111771432346252
    vertex 115.20096189432336 114.99999999999989 2.7500000000000333
    vertex 115.05111126056642 114.99999999999989 3.111771432346252
  endloop
endfacet
facet normal 0.9914448613738113 0.0 0.13052619222004494
  outer loop
    vertex 115.05111126056642 114.99999999999989 3.111771432346252
    vertex 115.00000000000001 109.99999999999989 3.5000000000000324
    vertex 115.05111126056642 109.99999999999989 3.111771432346252
  endloop
endfacet
facet normal 0.9914448613738113 0.0 0.13052619222004494
  outer loop
    vertex 115.00000000000001 109.99999999999989 3.5000000000000324
    vertex 115.05111126056642 114.99999999999989 3.111771432346252
    vertex 115.00000000000001 114.99999999999989 3.5000000000000324
  endloop
endfacet
facet normal 0.9914448613738114 -0.0 -0.13052619222004436
  outer loop
    vertex 115.00000000000001 114.99999999999989 3.5000000000000324
    vertex 115.05111126056642 109.99999999999989 3.8882285676538144
    vertex 115.00000000000001 109.99999999999989 3.5000000000000324
  endloop
endfacet
facet normal 0.9914448613738114 -0.0 -0.13052619222004436
  outer loop
    vertex 115.05111126056642 109.99999999999989 3.8882285676538144
    vertex 115.00000000000001 114.99999999999989 3.5000000000000324
    vertex 115.05111126056642 114.99999999999989 3.8882285676538144
  endloop
endfacet
facet normal 0.9238795325112797 -0.0 -0.38268343236510666
  outer loop
    vertex 115.05111126056642 114.99999999999989 3.8882285676538144
    vertex 115.20096189432336 109.99999999999989 4.250000000000033
    vertex 115.05111126056642 109.99999999999989 3.8882285676538144
  endloop
endfacet
facet normal 0.9238795325112797 -0.0 -0.38268343236510666
  outer loop
    vertex 115.20096189432336 109.99999999999989 4.250000000000033
    vertex 115.05111126056642 114.99999999999989 3.8882285676538144
    vertex 115.20096189432336 114.99999999999989 4.250000000000033
  endloop
endfacet
facet normal 0.7933533402912477 -0.0 -0.6087614290087043
  outer loop
    vertex 115.20096189432336 114.99999999999989 4.250000000000033
    vertex 115.43933982822018 109.99999999999989 4.560660171779854
    vertex 115.20096189432336 109.99999999999989 4.250000000000033
  endloop
endfacet
facet normal 0.7933533402912477 -0.0 -0.6087614290087043
  outer loop
    vertex 115.43933982822018 109.99999999999989 4.560660171779854
    vertex 115.20096189432336 114.99999999999989 4.250000000000033
    vertex 115.43933982822018 114.99999999999989 4.560660171779854
  endloop
endfacet
facet normal 0.608761429008729 -0.0 -0.793353340291229
  outer loop
    vertex 115.75 114.99999999999989 4.79903810567669
    vertex 115.43933982822018 109.99999999999989 4.560660171779854
    vertex 115.43933982822018 114.99999999999989 4.560660171779854
  endloop
endfacet
facet normal 0.608761429008729 -0.0 -0.793353340291229
  outer loop
    vertex 115.43933982822018 109.99999999999989 4.560660171779854
    vertex 115.75 114.99999999999989 4.79903810567669
    vertex 115.75 109.99999999999989 4.79903810567669
  endloop
endfacet
facet normal 0.38268343236507835 -0.0 -0.9238795325112916
  outer loop
    vertex 116.11177143234623 114.99999999999989 4.9488887394336345
    vertex 115.75 109.99999999999989 4.79903810567669
    vertex 115.75 114.99999999999989 4.79903810567669
  endloop
endfacet
facet normal 0.38268343236507835 -0.0 -0.9238795325112916
  outer loop
    vertex 115.75 109.99999999999989 4.79903810567669
    vertex 116.11177143234623 114.99999999999989 4.9488887394336345
    vertex 116.11177143234623 109.99999999999989 4.9488887394336345
  endloop
endfacet
facet normal 0.13052619222005263 -0.0 -0.9914448613738104
  outer loop
    vertex 116.50000000000001 114.99999999999989 5.000000000000033
    vertex 116.11177143234623 109.99999999999989 4.9488887394336345
    vertex 116.11177143234623 114.99999999999989 4.9488887394336345
  endloop
endfacet
facet normal 0.13052619222005263 -0.0 -0.9914448613738104
  outer loop
    vertex 116.11177143234623 109.99999999999989 4.9488887394336345
    vertex 116.50000000000001 114.99999999999989 5.000000000000033
    vertex 116.50000000000001 109.99999999999989 5.000000000000033
  endloop
endfacet
facet normal -0.13052619222005263 -0.0 -0.9914448613738104
  outer loop
    vertex 116.8882285676538 114.99999999999989 4.9488887394336345
    vertex 116.50000000000001 109.99999999999989 5.000000000000033
    vertex 116.50000000000001 114.99999999999989 5.000000000000033
  endloop
endfacet
facet normal -0.13052619222005263 -0.0 -0.9914448613738104
  outer loop
    vertex 116.50000000000001 109.99999999999989 5.000000000000033
    vertex 116.8882285676538 114.99999999999989 4.9488887394336345
    vertex 116.8882285676538 109.99999999999989 4.9488887394336345
  endloop
endfacet
facet normal -0.38268343236507835 -0.0 -0.9238795325112916
  outer loop
    vertex 117.25000000000003 114.99999999999989 4.79903810567669
    vertex 116.8882285676538 109.99999999999989 4.9488887394336345
    vertex 116.8882285676538 114.99999999999989 4.9488887394336345
  endloop
endfacet
facet normal -0.38268343236507835 -0.0 -0.9238795325112916
  outer loop
    vertex 116.8882285676538 109.99999999999989 4.9488887394336345
    vertex 117.25000000000003 114.99999999999989 4.79903810567669
    vertex 117.25000000000003 109.99999999999989 4.79903810567669
  endloop
endfacet
facet normal -0.60876142900873 -0.0 -0.793353340291228
  outer loop
    vertex 117.56066017177983 114.99999999999989 4.560660171779854
    vertex 117.25000000000003 109.99999999999989 4.79903810567669
    vertex 117.25000000000003 114.99999999999989 4.79903810567669
  endloop
endfacet
facet normal -0.60876142900873 -0.0 -0.793353340291228
  outer loop
    vertex 117.25000000000003 109.99999999999989 4.79903810567669
    vertex 117.56066017177983 114.99999999999989 4.560660171779854
    vertex 117.56066017177983 109.99999999999989 4.560660171779854
  endloop
endfacet
facet normal -0.7933533402912485 -0.0 -0.6087614290087034
  outer loop
    vertex 117.56066017177983 114.99999999999989 4.560660171779854
    vertex 117.79903810567666 109.99999999999989 4.250000000000032
    vertex 117.56066017177983 109.99999999999989 4.560660171779854
  endloop
endfacet
facet normal -0.7933533402912485 -0.0 -0.6087614290087034
  outer loop
    vertex 117.79903810567666 109.99999999999989 4.250000000000032
    vertex 117.56066017177983 114.99999999999989 4.560660171779854
    vertex 117.79903810567666 114.99999999999989 4.250000000000032
  endloop
endfacet
facet normal -0.9238795325112797 -0.0 -0.38268343236510666
  outer loop
    vertex 117.79903810567666 114.99999999999989 4.250000000000032
    vertex 117.94888873943361 109.99999999999989 3.888228567653813
    vertex 117.79903810567666 109.99999999999989 4.250000000000032
  endloop
endfacet
facet normal -0.9238795325112797 -0.0 -0.38268343236510666
  outer loop
    vertex 117.94888873943361 109.99999999999989 3.888228567653813
    vertex 117.79903810567666 114.99999999999989 4.250000000000032
    vertex 117.94888873943361 114.99999999999989 3.888228567653813
  endloop
endfacet
facet normal -0.9914448613738113 -0.0 -0.13052619222004483
  outer loop
    vertex 117.94888873943361 114.99999999999989 3.888228567653813
    vertex 118.00000000000001 109.99999999999989 3.5000000000000324
    vertex 117.94888873943361 109.99999999999989 3.888228567653813
  endloop
endfacet
facet normal -0.9914448613738113 -0.0 -0.13052619222004483
  outer loop
    vertex 118.00000000000001 109.99999999999989 3.5000000000000324
    vertex 117.94888873943361 114.99999999999989 3.888228567653813
    vertex 118.00000000000001 114.99999999999989 3.5000000000000324
  endloop
endfacet
facet normal -0.9914448613738114 -0.0 0.1305261922200446
  outer loop
    vertex 118.00000000000001 114.99999999999989 3.5000000000000324
    vertex 117.94888873943361 109.99999999999989 3.111771432346251
    vertex 118.00000000000001 109.99999999999989 3.5000000000000324
  endloop
endfacet
facet normal -0.9914448613738114 -0.0 0.1305261922200446
  outer loop
    vertex 117.94888873943361 109.99999999999989 3.111771432346251
    vertex 118.00000000000001 114.99999999999989 3.5000000000000324
    vertex 117.94888873943361 114.99999999999989 3.111771432346251
  endloop
endfacet
facet normal -0.9238795325112797 -0.0 0.38268343236510666
  outer loop
    vertex 117.94888873943361 114.99999999999989 3.111771432346251
    vertex 117.79903810567666 109.99999999999989 2.7500000000000324
    vertex 117.94888873943361 109.99999999999989 3.111771432346251
  endloop
endfacet
facet normal -0.9238795325112797 -0.0 0.38268343236510666
  outer loop
    vertex 117.79903810567666 109.99999999999989 2.7500000000000324
    vertex 117.94888873943361 114.99999999999989 3.111771432346251
    vertex 117.79903810567666 114.99999999999989 2.7500000000000324
  endloop
endfacet
facet normal -0.7933533402912477 -0.0 0.6087614290087043
  outer loop
    vertex 117.79903810567666 114.99999999999989 2.7500000000000324
    vertex 117.56066017177983 109.99999999999989 2.4393398282202114
    vertex 117.79903810567666 109.99999999999989 2.7500000000000324
  endloop
endfacet
facet normal -0.7933533402912477 -0.0 0.6087614290087043
  outer loop
    vertex 117.56066017177983 109.99999999999989 2.4393398282202114
    vertex 117.79903810567666 114.99999999999989 2.7500000000000324
    vertex 117.56066017177983 114.99999999999989 2.4393398282202114
  endloop
endfacet
facet normal -0.60876142900873 -0.0 0.793353340291228
  outer loop
    vertex 117.56066017177983 109.99999999999989 2.4393398282202114
    vertex 117.25000000000003 114.99999999999989 2.2009618943233744
    vertex 117.25000000000003 109.99999999999989 2.2009618943233744
  endloop
endfacet
facet normal -0.60876142900873 -0.0 0.793353340291228
  outer loop
    vertex 117.25000000000003 114.99999999999989 2.2009618943233744
    vertex 117.56066017177983 109.99999999999989 2.4393398282202114
    vertex 117.56066017177983 114.99999999999989 2.4393398282202114
  endloop
endfacet
facet normal -0.38268343236507835 -0.0 0.9238795325112916
  outer loop
    vertex 117.25000000000003 109.99999999999989 2.2009618943233744
    vertex 116.8882285676538 114.99999999999989 2.05111126056643
    vertex 116.8882285676538 109.99999999999989 2.05111126056643
  endloop
endfacet
facet normal -0.38268343236507835 -0.0 0.9238795325112916
  outer loop
    vertex 116.8882285676538 114.99999999999989 2.05111126056643
    vertex 117.25000000000003 109.99999999999989 2.2009618943233744
    vertex 117.25000000000003 114.99999999999989 2.2009618943233744
  endloop
endfacet
facet normal -0.13052619222005263 -0.0 0.9914448613738104
  outer loop
    vertex 116.8882285676538 109.99999999999989 2.05111126056643
    vertex 116.50000000000001 114.99999999999989 2.0000000000000324
    vertex 116.50000000000001 109.99999999999989 2.0000000000000324
  endloop
endfacet
facet normal -0.13052619222005263 -0.0 0.9914448613738104
  outer loop
    vertex 116.50000000000001 114.99999999999989 2.0000000000000324
    vertex 116.8882285676538 109.99999999999989 2.05111126056643
    vertex 116.8882285676538 114.99999999999989 2.05111126056643
  endloop
endfacet
facet normal 0.1305261922200535 0.0 0.9914448613738102
  outer loop
    vertex 116.50000000000001 109.99999999999989 2.0000000000000324
    vertex 116.11177143234623 114.99999999999989 2.0511112605664303
    vertex 116.11177143234623 109.99999999999989 2.0511112605664303
  endloop
endfacet
facet normal 0.1305261922200535 0.0 0.9914448613738102
  outer loop
    vertex 116.11177143234623 114.99999999999989 2.0511112605664303
    vertex 116.50000000000001 109.99999999999989 2.0000000000000324
    vertex 116.50000000000001 114.99999999999989 2.0000000000000324
  endloop
endfacet
facet normal 0.3826834323650791 0.0 0.9238795325112913
  outer loop
    vertex 116.11177143234623 109.99999999999989 2.0511112605664303
    vertex 115.75 114.99999999999989 2.200961894323375
    vertex 115.75 109.99999999999989 2.200961894323375
  endloop
endfacet
facet normal 0.3826834323650791 0.0 0.9238795325112913
  outer loop
    vertex 115.75 114.99999999999989 2.200961894323375
    vertex 116.11177143234623 109.99999999999989 2.0511112605664303
    vertex 116.11177143234623 114.99999999999989 2.0511112605664303
  endloop
endfacet
endsolid Стол-ответ
