solid Муфта-Кулачковая-4мм
facet normal -0.13052619222005224 -0.9914448613738104 0.0
  outer loop
    vertex -2.8199664825478975e-15 -7.0 3.9999999999999996
    vertex -1.8117333157176523 -6.761480784023476 0.0
    vertex -2.8199664825478975e-15 -7.0 0.0
  endloop
endfacet
facet normal -0.13052619222005224 -0.9914448613738104 0.0
  outer loop
    vertex -1.8117333157176523 -6.761480784023476 0.0
    vertex -2.8199664825478975e-15 -7.0 3.9999999999999996
    vertex -1.8117333157176523 -6.761480784023476 3.9999999999999996
  endloop
endfacet
facet normal 0.9238795325112868 0.38268343236508967 0.0
  outer loop
    vertex 6.062177826491069 3.499999999999999 0.0
    vertex 6.761480784023476 1.8117333157176452 3.9999999999999996
    vertex 6.761480784023476 1.8117333157176452 0.0
  endloop
endfacet
facet normal 0.9238795325112868 0.38268343236508967 0.0
  outer loop
    vertex 6.761480784023476 1.8117333157176452 3.9999999999999996
    vertex 6.062177826491069 3.499999999999999 0.0
    vertex 6.062177826491069 3.499999999999999 3.9999999999999996
  endloop
endfacet
facet normal 0.965925826289068 -0.25881904510252185 -0.0
  outer loop
    vertex -1.0352761804100867 -3.863703305156272 3.9999999999999996
    vertex -1.8117333157176523 -6.761480784023476 7.999999999999999
    vertex -1.8117333157176523 -6.761480784023476 3.9999999999999996
  endloop
endfacet
facet normal 0.965925826289068 -0.25881904510252185 -0.0
  outer loop
    vertex -1.8117333157176523 -6.761480784023476 7.999999999999999
    vertex -1.0352761804100867 -3.863703305156272 3.9999999999999996
    vertex -1.0352761804100867 -3.863703305156272 7.999999999999999
  endloop
endfacet
facet normal 0.0 0.0 -1.0
  outer loop
    vertex -1.8117333157176452 6.761480784023478 0.0
    vertex -2.100000000000001 2.5717582782094415e-16 0.0
    vertex -3.5 6.06217782649107 0.0
  endloop
endfacet
facet normal 0.0 0.0 -1.0
  outer loop
    vertex -2.100000000000001 2.5717582782094415e-16 0.0
    vertex -1.8117333157176452 6.761480784023478 0.0
    vertex -2.0284442352070444 0.5435199947152941 0.0
  endloop
endfacet
facet normal 0.0 0.0 -1.0
  outer loop
    vertex -2.0284442352070444 0.5435199947152941 0.0
    vertex -1.8117333157176452 6.761480784023478 0.0
    vertex -1.818653347947322 1.0500000000000005 0.0
  endloop
endfacet
facet normal 0.0 0.0 -1.0
  outer loop
    vertex -1.818653347947322 1.0500000000000005 0.0
    vertex -1.8117333157176452 6.761480784023478 0.0
    vertex -1.4849242404917509 1.4849242404917495 0.0
  endloop
endfacet
facet normal 0.0 0.0 -1.0
  outer loop
    vertex -1.4849242404917509 1.4849242404917495 0.0
    vertex -1.8117333157176452 6.761480784023478 0.0
    vertex -1.4099832412739487e-15 7.0 0.0
  endloop
endfacet
facet normal 0.0 0.0 -1.0
  outer loop
    vertex -1.4849242404917509 1.4849242404917495 0.0
    vertex -1.4099832412739487e-15 7.0 0.0
    vertex -1.0500000000000007 1.818653347947321 0.0
  endloop
endfacet
facet normal 0.0 0.0 -1.0
  outer loop
    vertex -1.0500000000000007 1.818653347947321 0.0
    vertex -1.4099832412739487e-15 7.0 0.0
    vertex -0.5435199947152947 2.028444235207043 0.0
  endloop
endfacet
facet normal 0.0 0.0 -1.0
  outer loop
    vertex -0.5435199947152947 2.028444235207043 0.0
    vertex -1.4099832412739487e-15 7.0 0.0
    vertex -1.2813953273634767e-15 2.0999999999999996 0.0
  endloop
endfacet
facet normal 0.0 0.0 -1.0
  outer loop
    vertex -1.2813953273634767e-15 2.0999999999999996 0.0
    vertex -1.4099832412739487e-15 7.0 0.0
    vertex 1.8117333157176452 6.761480784023478 0.0
  endloop
endfacet
facet normal 0.0 0.0 -1.0
  outer loop
    vertex -1.2813953273634767e-15 2.0999999999999996 0.0
    vertex 1.8117333157176452 6.761480784023478 0.0
    vertex 0.5435199947152926 2.028444235207043 0.0
  endloop
endfacet
facet normal 0.0 0.0 -1.0
  outer loop
    vertex 0.5435199947152926 2.028444235207043 0.0
    vertex 1.8117333157176452 6.761480784023478 0.0
    vertex 1.0499999999999987 1.8186533479473208 0.0
  endloop
endfacet
facet normal 0.0 0.0 -1.0
  outer loop
    vertex 1.0499999999999987 1.8186533479473208 0.0
    vertex 1.8117333157176452 6.761480784023478 0.0
    vertex 1.4849242404917482 1.4849242404917495 0.0
  endloop
endfacet
facet normal 0.0 0.0 -1.0
  outer loop
    vertex 1.4849242404917482 1.4849242404917495 0.0
    vertex 1.8117333157176452 6.761480784023478 0.0
    vertex 1.8186533479473197 1.0499999999999996 0.0
  endloop
endfacet
facet normal 0.0 0.0 -1.0
  outer loop
    vertex 1.8186533479473197 1.0499999999999996 0.0
    vertex 1.8117333157176452 6.761480784023478 0.0
    vertex 3.499999999999999 6.06217782649107 0.0
  endloop
endfacet
facet normal 0.0 0.0 -1.0
  outer loop
    vertex 1.8186533479473197 1.0499999999999996 0.0
    vertex 3.499999999999999 6.06217782649107 0.0
    vertex 2.0284442352070418 0.5435199947152934 0.0
  endloop
endfacet
facet normal 0.0 0.0 -1.0
  outer loop
    vertex 2.0284442352070418 0.5435199947152934 0.0
    vertex 3.499999999999999 6.06217782649107 0.0
    vertex 2.0999999999999983 0.0 0.0
  endloop
endfacet
facet normal 0.0 0.0 -1.0
  outer loop
    vertex 2.0999999999999983 0.0 0.0
    vertex 3.499999999999999 6.06217782649107 0.0
    vertex 3.499999999999994 -6.062177826491073 0.0
  endloop
endfacet
facet normal 0.0 0.0 -1.0
  outer loop
    vertex 3.499999999999994 -6.062177826491073 0.0
    vertex 3.499999999999999 6.06217782649107 0.0
    vertex 4.949747468305831 -4.949747468305834 0.0
  endloop
endfacet
facet normal 0.0 0.0 -1.0
  outer loop
    vertex 4.949747468305831 -4.949747468305834 0.0
    vertex 3.499999999999999 6.06217782649107 0.0
    vertex 4.949747468305831 4.949747468305833 0.0
  endloop
endfacet
facet normal 0.0 0.0 -1.0
  outer loop
    vertex 4.949747468305831 -4.949747468305834 0.0
    vertex 4.949747468305831 4.949747468305833 0.0
    vertex 6.062177826491069 3.499999999999999 0.0
  endloop
endfacet
facet normal 0.0 0.0 -1.0
  outer loop
    vertex 4.949747468305831 -4.949747468305834 0.0
    vertex 6.062177826491069 3.499999999999999 0.0
    vertex 6.062177826491066 -3.5000000000000027 0.0
  endloop
endfacet
facet normal 0.0 0.0 -1.0
  outer loop
    vertex 6.062177826491066 -3.5000000000000027 0.0
    vertex 6.062177826491069 3.499999999999999 0.0
    vertex 6.761480784023473 -1.811733315717651 0.0
  endloop
endfacet
facet normal 0.0 0.0 -1.0
  outer loop
    vertex 6.761480784023473 -1.811733315717651 0.0
    vertex 6.062177826491069 3.499999999999999 0.0
    vertex 6.761480784023476 1.8117333157176452 0.0
  endloop
endfacet
facet normal 0.0 0.0 -1.0
  outer loop
    vertex 6.761480784023473 -1.811733315717651 0.0
    vertex 6.761480784023476 1.8117333157176452 0.0
    vertex 6.999999999999998 0.0 0.0
  endloop
endfacet
facet normal 0.0 0.0 -1.0
  outer loop
    vertex -6.761480784023479 1.8117333157176467 0.0
    vertex -6.7614807840234805 -1.8117333157176425 0.0
    vertex -7.000000000000001 1.4099832412739487e-15 0.0
  endloop
endfacet
facet normal 0.0 0.0 -1.0
  outer loop
    vertex -6.7614807840234805 -1.8117333157176425 0.0
    vertex -6.761480784023479 1.8117333157176467 0.0
    vertex -6.062177826491073 -3.499999999999998 0.0
  endloop
endfacet
facet normal 0.0 0.0 -1.0
  outer loop
    vertex -6.062177826491073 -3.499999999999998 0.0
    vertex -6.761480784023479 1.8117333157176467 0.0
    vertex -6.06217782649107 3.500000000000002 0.0
  endloop
endfacet
facet normal 0.0 0.0 -1.0
  outer loop
    vertex -6.062177826491073 -3.499999999999998 0.0
    vertex -6.06217782649107 3.500000000000002 0.0
    vertex -4.949747468305836 -4.949747468305829 0.0
  endloop
endfacet
facet normal 0.0 0.0 -1.0
  outer loop
    vertex -4.949747468305836 -4.949747468305829 0.0
    vertex -6.06217782649107 3.500000000000002 0.0
    vertex -4.949747468305834 4.949747468305833 0.0
  endloop
endfacet
facet normal 0.0 0.0 -1.0
  outer loop
    vertex -4.949747468305836 -4.949747468305829 0.0
    vertex -4.949747468305834 4.949747468305833 0.0
    vertex -3.500000000000004 -6.0621778264910695 0.0
  endloop
endfacet
facet normal 0.0 0.0 -1.0
  outer loop
    vertex -3.500000000000004 -6.0621778264910695 0.0
    vertex -4.949747468305834 4.949747468305833 0.0
    vertex -3.5 6.06217782649107 0.0
  endloop
endfacet
facet normal 0.0 0.0 -1.0
  outer loop
    vertex -3.500000000000004 -6.0621778264910695 0.0
    vertex -3.5 6.06217782649107 0.0
    vertex -1.8117333157176523 -6.761480784023476 0.0
  endloop
endfacet
facet normal 0.0 0.0 -1.0
  outer loop
    vertex -1.8117333157176523 -6.761480784023476 0.0
    vertex -3.5 6.06217782649107 0.0
    vertex -2.100000000000001 2.5717582782094415e-16 0.0
  endloop
endfacet
facet normal 0.0 0.0 -1.0
  outer loop
    vertex -1.8117333157176523 -6.761480784023476 0.0
    vertex -2.100000000000001 2.5717582782094415e-16 0.0
    vertex -2.028444235207045 -0.5435199947152927 0.0
  endloop
endfacet
facet normal 0.0 0.0 -1.0
  outer loop
    vertex -1.8117333157176523 -6.761480784023476 0.0
    vertex -2.028444235207045 -0.5435199947152927 0.0
    vertex -1.8186533479473226 -1.0499999999999994 0.0
  endloop
endfacet
facet normal 0.0 0.0 -1.0
  outer loop
    vertex -1.8117333157176523 -6.761480784023476 0.0
    vertex -1.8186533479473226 -1.0499999999999994 0.0
    vertex -1.4849242404917518 -1.4849242404917486 0.0
  endloop
endfacet
facet normal 0.0 0.0 -1.0
  outer loop
    vertex -1.8117333157176523 -6.761480784023476 0.0
    vertex -1.4849242404917518 -1.4849242404917486 0.0
    vertex -2.8199664825478975e-15 -7.0 0.0
  endloop
endfacet
facet normal 0.0 0.0 -1.0
  outer loop
    vertex -2.8199664825478975e-15 -7.0 0.0
    vertex -1.4849242404917518 -1.4849242404917486 0.0
    vertex -1.050000000000002 -1.8186533479473204 0.0
  endloop
endfacet
facet normal 0.0 0.0 -1.0
  outer loop
    vertex -2.8199664825478975e-15 -7.0 0.0
    vertex -1.050000000000002 -1.8186533479473204 0.0
    vertex -0.5435199947152964 -2.0284442352070426 0.0
  endloop
endfacet
facet normal 0.0 0.0 -1.0
  outer loop
    vertex -2.8199664825478975e-15 -7.0 0.0
    vertex -0.5435199947152964 -2.0284442352070426 0.0
    vertex -1.7957469830053646e-15 -2.0999999999999996 0.0
  endloop
endfacet
facet normal 0.0 0.0 -1.0
  outer loop
    vertex -2.8199664825478975e-15 -7.0 0.0
    vertex -1.7957469830053646e-15 -2.0999999999999996 0.0
    vertex 1.811733315717641 -6.761480784023479 0.0
  endloop
endfacet
facet normal 0.0 0.0 -1.0
  outer loop
    vertex 1.811733315717641 -6.761480784023479 0.0
    vertex -1.7957469830053646e-15 -2.0999999999999996 0.0
    vertex 0.5435199947152911 -2.0284442352070435 0.0
  endloop
endfacet
facet normal 0.0 0.0 -1.0
  outer loop
    vertex 1.811733315717641 -6.761480784023479 0.0
    vertex 0.5435199947152911 -2.0284442352070435 0.0
    vertex 1.049999999999997 -1.818653347947322 0.0
  endloop
endfacet
facet normal 0.0 0.0 -1.0
  outer loop
    vertex 1.811733315717641 -6.761480784023479 0.0
    vertex 1.049999999999997 -1.818653347947322 0.0
    vertex 1.4849242404917478 -1.48492424049175 0.0
  endloop
endfacet
facet normal 0.0 0.0 -1.0
  outer loop
    vertex 1.811733315717641 -6.761480784023479 0.0
    vertex 1.4849242404917478 -1.48492424049175 0.0
    vertex 1.818653347947319 -1.0500000000000007 0.0
  endloop
endfacet
facet normal 0.0 0.0 -1.0
  outer loop
    vertex 1.811733315717641 -6.761480784023479 0.0
    vertex 1.818653347947319 -1.0500000000000007 0.0
    vertex 3.499999999999994 -6.062177826491073 0.0
  endloop
endfacet
facet normal 0.0 0.0 -1.0
  outer loop
    vertex 3.499999999999994 -6.062177826491073 0.0
    vertex 1.818653347947319 -1.0500000000000007 0.0
    vertex 2.0284442352070413 -0.5435199947152952 0.0
  endloop
endfacet
facet normal 0.0 0.0 -1.0
  outer loop
    vertex 3.499999999999994 -6.062177826491073 0.0
    vertex 2.0284442352070413 -0.5435199947152952 0.0
    vertex 2.0999999999999983 0.0 0.0
  endloop
endfacet
facet normal 0.9914448613738105 0.13052619222005177 0.0
  outer loop
    vertex 6.761480784023476 1.8117333157176452 0.0
    vertex 6.999999999999998 0.0 3.9999999999999996
    vertex 6.999999999999998 0.0 0.0
  endloop
endfacet
facet normal 0.9914448613738105 0.13052619222005177 0.0
  outer loop
    vertex 6.999999999999998 0.0 3.9999999999999996
    vertex 6.761480784023476 1.8117333157176452 0.0
    vertex 6.761480784023476 1.8117333157176452 3.9999999999999996
  endloop
endfacet
facet normal -0.4999999999999996 0.866025403784439 -0.0
  outer loop
    vertex -6.062177826491073 -3.499999999999998 7.999999999999999
    vertex -3.464101615137756 -1.9999999999999991 3.9999999999999996
    vertex -6.062177826491073 -3.499999999999998 3.9999999999999996
  endloop
endfacet
facet normal -0.4999999999999996 0.866025403784439 -0.0
  outer loop
    vertex -3.464101615137756 -1.9999999999999991 3.9999999999999996
    vertex -6.062177826491073 -3.499999999999998 7.999999999999999
    vertex -3.464101615137756 -1.9999999999999991 7.999999999999999
  endloop
endfacet
facet normal 0.0 0.0 1.0
  outer loop
    vertex -4.949747468305836 -4.949747468305829 7.999999999999999
    vertex -3.464101615137756 -1.9999999999999991 7.999999999999999
    vertex -6.062177826491073 -3.499999999999998 7.999999999999999
  endloop
endfacet
facet normal 0.0 0.0 1.0
  outer loop
    vertex -3.464101615137756 -1.9999999999999991 7.999999999999999
    vertex -4.949747468305836 -4.949747468305829 7.999999999999999
    vertex -3.500000000000004 -6.0621778264910695 7.999999999999999
  endloop
endfacet
facet normal 0.0 0.0 1.0
  outer loop
    vertex -3.464101615137756 -1.9999999999999991 7.999999999999999
    vertex -3.500000000000004 -6.0621778264910695 7.999999999999999
    vertex -1.8117333157176523 -6.761480784023476 7.999999999999999
  endloop
endfacet
facet normal 0.0 0.0 1.0
  outer loop
    vertex -3.464101615137756 -1.9999999999999991 7.999999999999999
    vertex -1.8117333157176523 -6.761480784023476 7.999999999999999
    vertex -2.828427124746193 -2.8284271247461885 7.999999999999999
  endloop
endfacet
facet normal 0.0 0.0 1.0
  outer loop
    vertex -2.828427124746193 -2.8284271247461885 7.999999999999999
    vertex -1.8117333157176523 -6.761480784023476 7.999999999999999
    vertex -2.0000000000000027 -3.464101615137754 7.999999999999999
  endloop
endfacet
facet normal 0.0 0.0 1.0
  outer loop
    vertex -2.0000000000000027 -3.464101615137754 7.999999999999999
    vertex -1.8117333157176523 -6.761480784023476 7.999999999999999
    vertex -1.0352761804100867 -3.863703305156272 7.999999999999999
  endloop
endfacet
facet normal 0.7933533402912356 0.6087614290087203 0.0
  outer loop
    vertex 4.949747468305831 4.949747468305833 0.0
    vertex 6.062177826491069 3.499999999999999 3.9999999999999996
    vertex 6.062177826491069 3.499999999999999 0.0
  endloop
endfacet
facet normal 0.7933533402912356 0.6087614290087203 0.0
  outer loop
    vertex 6.062177826491069 3.499999999999999 3.9999999999999996
    vertex 4.949747468305831 4.949747468305833 0.0
    vertex 6.062177826491069 3.499999999999999 7.999999999999999
  endloop
endfacet
facet normal 0.7933533402912356 0.6087614290087203 0.0
  outer loop
    vertex 6.062177826491069 3.499999999999999 7.999999999999999
    vertex 4.949747468305831 4.949747468305833 0.0
    vertex 4.949747468305831 4.949747468305833 7.999999999999999
  endloop
endfacet
facet normal -0.9914448613738104 0.13052619222005168 0.0
  outer loop
    vertex -6.761480784023479 1.8117333157176467 3.9999999999999996
    vertex -7.000000000000001 1.4099832412739487e-15 0.0
    vertex -7.000000000000001 1.4099832412739487e-15 3.9999999999999996
  endloop
endfacet
facet normal -0.9914448613738104 0.13052619222005168 0.0
  outer loop
    vertex -7.000000000000001 1.4099832412739487e-15 0.0
    vertex -6.761480784023479 1.8117333157176467 3.9999999999999996
    vertex -6.761480784023479 1.8117333157176467 0.0
  endloop
endfacet
facet normal -0.6087614290087204 0.7933533402912354 -0.0
  outer loop
    vertex 1.999999999999995 -3.464101615137756 7.999999999999999
    vertex 2.828427124746187 -2.8284271247461903 3.9999999999999996
    vertex 1.999999999999995 -3.464101615137756 3.9999999999999996
  endloop
endfacet
facet normal -0.6087614290087204 0.7933533402912354 -0.0
  outer loop
    vertex 2.828427124746187 -2.8284271247461903 3.9999999999999996
    vertex 1.999999999999995 -3.464101615137756 7.999999999999999
    vertex 2.828427124746187 -2.8284271247461903 7.999999999999999
  endloop
endfacet
facet normal -0.1305261922200518 0.9914448613738105 0.0
  outer loop
    vertex -1.8117333157176452 6.761480784023478 3.9999999999999996
    vertex -1.4099832412739487e-15 7.0 0.0
    vertex -1.8117333157176452 6.761480784023478 0.0
  endloop
endfacet
facet normal -0.1305261922200518 0.9914448613738105 0.0
  outer loop
    vertex -1.4099832412739487e-15 7.0 0.0
    vertex -1.8117333157176452 6.761480784023478 3.9999999999999996
    vertex -1.4099832412739487e-15 7.0 3.9999999999999996
  endloop
endfacet
facet normal 0.6087614290087211 0.793353340291235 -0.0
  outer loop
    vertex -2.828427124746193 -2.8284271247461885 7.999999999999999
    vertex -2.0000000000000027 -3.464101615137754 3.9999999999999996
    vertex -2.828427124746193 -2.8284271247461885 3.9999999999999996
  endloop
endfacet
facet normal 0.6087614290087211 0.793353340291235 -0.0
  outer loop
    vertex -2.0000000000000027 -3.464101615137754 3.9999999999999996
    vertex -2.828427124746193 -2.8284271247461885 7.999999999999999
    vertex -2.0000000000000027 -3.464101615137754 7.999999999999999
  endloop
endfacet
facet normal -0.7933533402912347 0.6087614290087212 0.0
  outer loop
    vertex 3.464101615137751 -2.0000000000000018 7.999999999999999
    vertex 2.828427124746187 -2.8284271247461903 3.9999999999999996
    vertex 2.828427124746187 -2.8284271247461903 7.999999999999999
  endloop
endfacet
facet normal -0.7933533402912347 0.6087614290087212 0.0
  outer loop
    vertex 2.828427124746187 -2.8284271247461903 3.9999999999999996
    vertex 3.464101615137751 -2.0000000000000018 7.999999999999999
    vertex 3.464101615137751 -2.0000000000000018 3.9999999999999996
  endloop
endfacet
facet normal -0.793353340291235 0.6087614290087208 0.0
  outer loop
    vertex -4.949747468305834 4.949747468305833 7.999999999999999
    vertex -6.06217782649107 3.500000000000002 0.0
    vertex -6.06217782649107 3.500000000000002 7.999999999999999
  endloop
endfacet
facet normal -0.793353340291235 0.6087614290087208 0.0
  outer loop
    vertex -6.06217782649107 3.500000000000002 0.0
    vertex -4.949747468305834 4.949747468305833 7.999999999999999
    vertex -4.949747468305834 4.949747468305833 0.0
  endloop
endfacet
facet normal -0.6087614290087204 -0.7933533402912353 0.0
  outer loop
    vertex 2.8284271247461885 2.8284271247461903 7.999999999999999
    vertex 1.9999999999999991 3.464101615137754 3.9999999999999996
    vertex 2.8284271247461885 2.8284271247461903 3.9999999999999996
  endloop
endfacet
facet normal -0.6087614290087204 -0.7933533402912353 0.0
  outer loop
    vertex 1.9999999999999991 3.464101615137754 3.9999999999999996
    vertex 2.8284271247461885 2.8284271247461903 7.999999999999999
    vertex 1.9999999999999991 3.464101615137754 7.999999999999999
  endloop
endfacet
facet normal -0.38268343236508956 0.9238795325112867 0.0
  outer loop
    vertex -3.5 6.06217782649107 3.9999999999999996
    vertex -1.8117333157176452 6.761480784023478 0.0
    vertex -3.5 6.06217782649107 0.0
  endloop
endfacet
facet normal -0.38268343236508956 0.9238795325112867 0.0
  outer loop
    vertex -1.8117333157176452 6.761480784023478 0.0
    vertex -3.5 6.06217782649107 3.9999999999999996
    vertex -1.8117333157176452 6.761480784023478 3.9999999999999996
  endloop
endfacet
facet normal 0.9914448613738105 -0.13052619222005213 0.0
  outer loop
    vertex 6.999999999999998 0.0 0.0
    vertex 6.761480784023473 -1.811733315717651 3.9999999999999996
    vertex 6.761480784023473 -1.811733315717651 0.0
  endloop
endfacet
facet normal 0.9914448613738105 -0.13052619222005213 0.0
  outer loop
    vertex 6.761480784023473 -1.811733315717651 3.9999999999999996
    vertex 6.999999999999998 0.0 0.0
    vertex 6.999999999999998 0.0 3.9999999999999996
  endloop
endfacet
facet normal 0.6087614290087203 -0.7933533402912356 0.0
  outer loop
    vertex 4.949747468305831 -4.949747468305834 7.999999999999999
    vertex 3.499999999999994 -6.062177826491073 0.0
    vertex 4.949747468305831 -4.949747468305834 0.0
  endloop
endfacet
facet normal 0.6087614290087203 -0.7933533402912356 0.0
  outer loop
    vertex 3.499999999999994 -6.062177826491073 0.0
    vertex 4.949747468305831 -4.949747468305834 7.999999999999999
    vertex 3.499999999999994 -6.062177826491073 3.9999999999999996
  endloop
endfacet
facet normal 0.6087614290087203 -0.7933533402912356 0.0
  outer loop
    vertex 3.499999999999994 -6.062177826491073 3.9999999999999996
    vertex 4.949747468305831 -4.949747468305834 7.999999999999999
    vertex 3.499999999999994 -6.062177826491073 7.999999999999999
  endloop
endfacet
facet normal -0.9238795325112867 0.3826834323650901 0.0
  outer loop
    vertex -6.06217782649107 3.500000000000002 7.999999999999999
    vertex -6.761480784023479 1.8117333157176467 3.9999999999999996
    vertex -6.761480784023479 1.8117333157176467 7.999999999999999
  endloop
endfacet
facet normal -0.9238795325112867 0.3826834323650901 0.0
  outer loop
    vertex -6.761480784023479 1.8117333157176467 3.9999999999999996
    vertex -6.06217782649107 3.500000000000002 7.999999999999999
    vertex -6.761480784023479 1.8117333157176467 0.0
  endloop
endfacet
facet normal -0.9238795325112867 0.3826834323650901 0.0
  outer loop
    vertex -6.761480784023479 1.8117333157176467 0.0
    vertex -6.06217782649107 3.500000000000002 7.999999999999999
    vertex -6.06217782649107 3.500000000000002 0.0
  endloop
endfacet
facet normal -0.38268343236509 -0.9238795325112867 0.0
  outer loop
    vertex -1.8117333157176523 -6.761480784023476 3.9999999999999996
    vertex -3.500000000000004 -6.0621778264910695 0.0
    vertex -1.8117333157176523 -6.761480784023476 0.0
  endloop
endfacet
facet normal -0.38268343236509 -0.9238795325112867 0.0
  outer loop
    vertex -3.500000000000004 -6.0621778264910695 0.0
    vertex -1.8117333157176523 -6.761480784023476 3.9999999999999996
    vertex -3.500000000000004 -6.0621778264910695 7.999999999999999
  endloop
endfacet
facet normal -0.38268343236509 -0.9238795325112867 0.0
  outer loop
    vertex -3.500000000000004 -6.0621778264910695 7.999999999999999
    vertex -1.8117333157176523 -6.761480784023476 3.9999999999999996
    vertex -1.8117333157176523 -6.761480784023476 7.999999999999999
  endloop
endfacet
facet normal 0.13052619222005113 -0.9914448613738106 0.0
  outer loop
    vertex 1.811733315717641 -6.761480784023479 3.9999999999999996
    vertex -2.8199664825478975e-15 -7.0 0.0
    vertex 1.811733315717641 -6.761480784023479 0.0
  endloop
endfacet
facet normal 0.13052619222005113 -0.9914448613738106 0.0
  outer loop
    vertex -2.8199664825478975e-15 -7.0 0.0
    vertex 1.811733315717641 -6.761480784023479 3.9999999999999996
    vertex -2.8199664825478975e-15 -7.0 3.9999999999999996
  endloop
endfacet
facet normal 0.38268343236508995 0.9238795325112866 0.0
  outer loop
    vertex 1.8117333157176452 6.761480784023478 3.9999999999999996
    vertex 3.499999999999999 6.06217782649107 0.0
    vertex 1.8117333157176452 6.761480784023478 0.0
  endloop
endfacet
facet normal 0.38268343236508995 0.9238795325112866 0.0
  outer loop
    vertex 3.499999999999999 6.06217782649107 0.0
    vertex 1.8117333157176452 6.761480784023478 3.9999999999999996
    vertex 3.499999999999999 6.06217782649107 7.999999999999999
  endloop
endfacet
facet normal 0.38268343236508995 0.9238795325112866 0.0
  outer loop
    vertex 3.499999999999999 6.06217782649107 7.999999999999999
    vertex 1.8117333157176452 6.761480784023478 3.9999999999999996
    vertex 1.8117333157176452 6.761480784023478 7.999999999999999
  endloop
endfacet
facet normal -0.9238795325112865 0.38268343236509045 0.0
  outer loop
    vertex 3.8637033051562697 -1.035276180410086 7.999999999999999
    vertex 3.464101615137751 -2.0000000000000018 3.9999999999999996
    vertex 3.464101615137751 -2.0000000000000018 7.999999999999999
  endloop
endfacet
facet normal -0.9238795325112865 0.38268343236509045 0.0
  outer loop
    vertex 3.464101615137751 -2.0000000000000018 3.9999999999999996
    vertex 3.8637033051562697 -1.035276180410086 7.999999999999999
    vertex 3.8637033051562697 -1.035276180410086 3.9999999999999996
  endloop
endfacet
facet normal 0.3826834323650898 0.9238795325112867 -0.0
  outer loop
    vertex -2.0000000000000027 -3.464101615137754 7.999999999999999
    vertex -1.0352761804100867 -3.863703305156272 3.9999999999999996
    vertex -2.0000000000000027 -3.464101615137754 3.9999999999999996
  endloop
endfacet
facet normal 0.3826834323650898 0.9238795325112867 -0.0
  outer loop
    vertex -1.0352761804100867 -3.863703305156272 3.9999999999999996
    vertex -2.0000000000000027 -3.464101615137754 7.999999999999999
    vertex -1.0352761804100867 -3.863703305156272 7.999999999999999
  endloop
endfacet
facet normal 0.38268343236508917 -0.923879532511287 0.0
  outer loop
    vertex 3.499999999999994 -6.062177826491073 3.9999999999999996
    vertex 1.811733315717641 -6.761480784023479 0.0
    vertex 3.499999999999994 -6.062177826491073 0.0
  endloop
endfacet
facet normal 0.38268343236508917 -0.923879532511287 0.0
  outer loop
    vertex 1.811733315717641 -6.761480784023479 0.0
    vertex 3.499999999999994 -6.062177826491073 3.9999999999999996
    vertex 1.811733315717641 -6.761480784023479 3.9999999999999996
  endloop
endfacet
facet normal -0.7933533402912354 -0.6087614290087203 0.0
  outer loop
    vertex -6.062177826491073 -3.499999999999998 7.999999999999999
    vertex -4.949747468305836 -4.949747468305829 0.0
    vertex -4.949747468305836 -4.949747468305829 7.999999999999999
  endloop
endfacet
facet normal -0.7933533402912354 -0.6087614290087203 0.0
  outer loop
    vertex -4.949747468305836 -4.949747468305829 0.0
    vertex -6.062177826491073 -3.499999999999998 7.999999999999999
    vertex -6.062177826491073 -3.499999999999998 0.0
  endloop
endfacet
facet normal -0.7933533402912354 -0.6087614290087203 0.0
  outer loop
    vertex -6.062177826491073 -3.499999999999998 0.0
    vertex -6.062177826491073 -3.499999999999998 7.999999999999999
    vertex -6.062177826491073 -3.499999999999998 3.9999999999999996
  endloop
endfacet
facet normal -0.9914448613738105 -0.13052619222005113 0.0
  outer loop
    vertex -7.000000000000001 1.4099832412739487e-15 3.9999999999999996
    vertex -6.7614807840234805 -1.8117333157176425 0.0
    vertex -6.7614807840234805 -1.8117333157176425 3.9999999999999996
  endloop
endfacet
facet normal -0.9914448613738105 -0.13052619222005113 0.0
  outer loop
    vertex -6.7614807840234805 -1.8117333157176425 0.0
    vertex -7.000000000000001 1.4099832412739487e-15 3.9999999999999996
    vertex -7.000000000000001 1.4099832412739487e-15 0.0
  endloop
endfacet
facet normal -0.6087614290087213 -0.7933533402912346 0.0
  outer loop
    vertex -3.500000000000004 -6.0621778264910695 7.999999999999999
    vertex -4.949747468305836 -4.949747468305829 0.0
    vertex -3.500000000000004 -6.0621778264910695 0.0
  endloop
endfacet
facet normal -0.6087614290087213 -0.7933533402912346 0.0
  outer loop
    vertex -4.949747468305836 -4.949747468305829 0.0
    vertex -3.500000000000004 -6.0621778264910695 7.999999999999999
    vertex -4.949747468305836 -4.949747468305829 7.999999999999999
  endloop
endfacet
facet normal 0.13052619222005168 0.9914448613738104 0.0
  outer loop
    vertex -1.4099832412739487e-15 7.0 3.9999999999999996
    vertex 1.8117333157176452 6.761480784023478 0.0
    vertex -1.4099832412739487e-15 7.0 0.0
  endloop
endfacet
facet normal 0.13052619222005168 0.9914448613738104 0.0
  outer loop
    vertex 1.8117333157176452 6.761480784023478 0.0
    vertex -1.4099832412739487e-15 7.0 3.9999999999999996
    vertex 1.8117333157176452 6.761480784023478 3.9999999999999996
  endloop
endfacet
facet normal -0.9238795325112868 -0.3826834323650898 0.0
  outer loop
    vertex -6.7614807840234805 -1.8117333157176425 3.9999999999999996
    vertex -6.062177826491073 -3.499999999999998 0.0
    vertex -6.062177826491073 -3.499999999999998 3.9999999999999996
  endloop
endfacet
facet normal -0.9238795325112868 -0.3826834323650898 0.0
  outer loop
    vertex -6.062177826491073 -3.499999999999998 0.0
    vertex -6.7614807840234805 -1.8117333157176425 3.9999999999999996
    vertex -6.7614807840234805 -1.8117333157176425 0.0
  endloop
endfacet
facet normal 0.9238795325112865 -0.3826834323650904 0.0
  outer loop
    vertex 6.761480784023473 -1.811733315717651 0.0
    vertex 6.062177826491066 -3.5000000000000027 7.999999999999999
    vertex 6.062177826491066 -3.5000000000000027 0.0
  endloop
endfacet
facet normal 0.9238795325112865 -0.3826834323650904 0.0
  outer loop
    vertex 6.062177826491066 -3.5000000000000027 7.999999999999999
    vertex 6.761480784023473 -1.811733315717651 0.0
    vertex 6.761480784023473 -1.811733315717651 7.999999999999999
  endloop
endfacet
facet normal 0.9238795325112865 -0.3826834323650904 0.0
  outer loop
    vertex 6.761480784023473 -1.811733315717651 7.999999999999999
    vertex 6.761480784023473 -1.811733315717651 0.0
    vertex 6.761480784023473 -1.811733315717651 3.9999999999999996
  endloop
endfacet
facet normal 0.0 0.0 1.0
  outer loop
    vertex 3.499999999999994 -6.062177826491073 7.999999999999999
    vertex 2.828427124746187 -2.8284271247461903 7.999999999999999
    vertex 1.999999999999995 -3.464101615137756 7.999999999999999
  endloop
endfacet
facet normal 0.0 0.0 1.0
  outer loop
    vertex 2.828427124746187 -2.8284271247461903 7.999999999999999
    vertex 3.499999999999994 -6.062177826491073 7.999999999999999
    vertex 3.464101615137751 -2.0000000000000018 7.999999999999999
  endloop
endfacet
facet normal 0.0 0.0 1.0
  outer loop
    vertex 3.464101615137751 -2.0000000000000018 7.999999999999999
    vertex 3.499999999999994 -6.062177826491073 7.999999999999999
    vertex 3.8637033051562697 -1.035276180410086 7.999999999999999
  endloop
endfacet
facet normal 0.0 0.0 1.0
  outer loop
    vertex 3.8637033051562697 -1.035276180410086 7.999999999999999
    vertex 3.499999999999994 -6.062177826491073 7.999999999999999
    vertex 4.949747468305831 -4.949747468305834 7.999999999999999
  endloop
endfacet
facet normal 0.0 0.0 1.0
  outer loop
    vertex 3.8637033051562697 -1.035276180410086 7.999999999999999
    vertex 4.949747468305831 -4.949747468305834 7.999999999999999
    vertex 6.761480784023473 -1.811733315717651 7.999999999999999
  endloop
endfacet
facet normal 0.0 0.0 1.0
  outer loop
    vertex 6.761480784023473 -1.811733315717651 7.999999999999999
    vertex 4.949747468305831 -4.949747468305834 7.999999999999999
    vertex 6.062177826491066 -3.5000000000000027 7.999999999999999
  endloop
endfacet
facet normal 0.5 -0.8660254037844387 0.0
  outer loop
    vertex 6.062177826491069 3.499999999999999 7.999999999999999
    vertex 3.4641016151377526 1.9999999999999991 3.9999999999999996
    vertex 6.062177826491069 3.499999999999999 3.9999999999999996
  endloop
endfacet
facet normal 0.5 -0.8660254037844387 0.0
  outer loop
    vertex 3.4641016151377526 1.9999999999999991 3.9999999999999996
    vertex 6.062177826491069 3.499999999999999 7.999999999999999
    vertex 3.4641016151377526 1.9999999999999991 7.999999999999999
  endloop
endfacet
facet normal -0.6087614290087203 0.7933533402912356 0.0
  outer loop
    vertex -4.949747468305834 4.949747468305833 7.999999999999999
    vertex -3.5 6.06217782649107 0.0
    vertex -4.949747468305834 4.949747468305833 0.0
  endloop
endfacet
facet normal -0.6087614290087203 0.7933533402912356 0.0
  outer loop
    vertex -3.5 6.06217782649107 0.0
    vertex -4.949747468305834 4.949747468305833 7.999999999999999
    vertex -3.5 6.06217782649107 3.9999999999999996
  endloop
endfacet
facet normal -0.6087614290087203 0.7933533402912356 0.0
  outer loop
    vertex -3.5 6.06217782649107 3.9999999999999996
    vertex -4.949747468305834 4.949747468305833 7.999999999999999
    vertex -3.5 6.06217782649107 7.999999999999999
  endloop
endfacet
facet normal 0.2588190451025217 0.9659258262890682 -0.0
  outer loop
    vertex 3.8637033051562697 -1.035276180410086 7.999999999999999
    vertex 6.761480784023473 -1.811733315717651 3.9999999999999996
    vertex 3.8637033051562697 -1.035276180410086 3.9999999999999996
  endloop
endfacet
facet normal 0.2588190451025217 0.9659258262890682 -0.0
  outer loop
    vertex 6.761480784023473 -1.811733315717651 3.9999999999999996
    vertex 3.8637033051562697 -1.035276180410086 7.999999999999999
    vertex 6.761480784023473 -1.811733315717651 7.999999999999999
  endloop
endfacet
facet normal -0.866025403784439 -0.49999999999999944 0.0
  outer loop
    vertex 1.999999999999995 -3.464101615137756 7.999999999999999
    vertex 3.499999999999994 -6.062177826491073 3.9999999999999996
    vertex 3.499999999999994 -6.062177826491073 7.999999999999999
  endloop
endfacet
facet normal -0.866025403784439 -0.49999999999999944 0.0
  outer loop
    vertex 3.499999999999994 -6.062177826491073 3.9999999999999996
    vertex 1.999999999999995 -3.464101615137756 7.999999999999999
    vertex 1.999999999999995 -3.464101615137756 3.9999999999999996
  endloop
endfacet
facet normal 0.793353340291235 -0.6087614290087208 0.0
  outer loop
    vertex 6.062177826491066 -3.5000000000000027 0.0
    vertex 4.949747468305831 -4.949747468305834 7.999999999999999
    vertex 4.949747468305831 -4.949747468305834 0.0
  endloop
endfacet
facet normal 0.793353340291235 -0.6087614290087208 0.0
  outer loop
    vertex 4.949747468305831 -4.949747468305834 7.999999999999999
    vertex 6.062177826491066 -3.5000000000000027 0.0
    vertex 6.062177826491066 -3.5000000000000027 7.999999999999999
  endloop
endfacet
facet normal 0.9238795325112867 -0.38268343236509017 -0.0
  outer loop
    vertex -3.4641016151377544 2.0000000000000004 3.9999999999999996
    vertex -3.8637033051562732 1.035276180410084 7.999999999999999
    vertex -3.8637033051562732 1.035276180410084 3.9999999999999996
  endloop
endfacet
facet normal 0.9238795325112867 -0.38268343236509017 -0.0
  outer loop
    vertex -3.8637033051562732 1.035276180410084 7.999999999999999
    vertex -3.4641016151377544 2.0000000000000004 3.9999999999999996
    vertex -3.4641016151377544 2.0000000000000004 7.999999999999999
  endloop
endfacet
facet normal -0.7933533402912359 -0.6087614290087199 0.0
  outer loop
    vertex 2.8284271247461885 2.8284271247461903 7.999999999999999
    vertex 3.4641016151377526 1.9999999999999991 3.9999999999999996
    vertex 3.4641016151377526 1.9999999999999991 7.999999999999999
  endloop
endfacet
facet normal -0.7933533402912359 -0.6087614290087199 0.0
  outer loop
    vertex 3.4641016151377526 1.9999999999999991 3.9999999999999996
    vertex 2.8284271247461885 2.8284271247461903 7.999999999999999
    vertex 2.8284271247461885 2.8284271247461903 3.9999999999999996
  endloop
endfacet
facet normal 0.7933533402912353 -0.6087614290087204 -0.0
  outer loop
    vertex -2.8284271247461907 2.8284271247461903 3.9999999999999996
    vertex -3.4641016151377544 2.0000000000000004 7.999999999999999
    vertex -3.4641016151377544 2.0000000000000004 3.9999999999999996
  endloop
endfacet
facet normal 0.7933533402912353 -0.6087614290087204 -0.0
  outer loop
    vertex -3.4641016151377544 2.0000000000000004 7.999999999999999
    vertex -2.8284271247461907 2.8284271247461903 3.9999999999999996
    vertex -2.8284271247461907 2.8284271247461903 7.999999999999999
  endloop
endfacet
facet normal 0.8660254037844385 0.5000000000000003 -0.0
  outer loop
    vertex -3.5 6.06217782649107 3.9999999999999996
    vertex -1.9999999999999998 3.4641016151377553 7.999999999999999
    vertex -1.9999999999999998 3.4641016151377553 3.9999999999999996
  endloop
endfacet
facet normal 0.8660254037844385 0.5000000000000003 -0.0
  outer loop
    vertex -1.9999999999999998 3.4641016151377553 7.999999999999999
    vertex -3.5 6.06217782649107 3.9999999999999996
    vertex -3.5 6.06217782649107 7.999999999999999
  endloop
endfacet
facet normal -0.9659258262890682 0.25881904510252085 0.0
  outer loop
    vertex 1.8117333157176452 6.761480784023478 7.999999999999999
    vertex 1.0352761804100825 3.863703305156273 3.9999999999999996
    vertex 1.0352761804100825 3.863703305156273 7.999999999999999
  endloop
endfacet
facet normal -0.9659258262890682 0.25881904510252085 0.0
  outer loop
    vertex 1.0352761804100825 3.863703305156273 3.9999999999999996
    vertex 1.8117333157176452 6.761480784023478 7.999999999999999
    vertex 1.8117333157176452 6.761480784023478 3.9999999999999996
  endloop
endfacet
facet normal 0.6087614290087204 0.7933533402912354 0.0
  outer loop
    vertex 3.499999999999999 6.06217782649107 7.999999999999999
    vertex 4.949747468305831 4.949747468305833 0.0
    vertex 3.499999999999999 6.06217782649107 0.0
  endloop
endfacet
facet normal 0.6087614290087204 0.7933533402912354 0.0
  outer loop
    vertex 4.949747468305831 4.949747468305833 0.0
    vertex 3.499999999999999 6.06217782649107 7.999999999999999
    vertex 4.949747468305831 4.949747468305833 7.999999999999999
  endloop
endfacet
facet normal -0.3826834323650902 -0.9238795325112867 0.0
  outer loop
    vertex 1.9999999999999991 3.464101615137754 7.999999999999999
    vertex 1.0352761804100825 3.863703305156273 3.9999999999999996
    vertex 1.9999999999999991 3.464101615137754 3.9999999999999996
  endloop
endfacet
facet normal -0.3826834323650902 -0.9238795325112867 0.0
  outer loop
    vertex 1.0352761804100825 3.863703305156273 3.9999999999999996
    vertex 1.9999999999999991 3.464101615137754 7.999999999999999
    vertex 1.0352761804100825 3.863703305156273 7.999999999999999
  endloop
endfacet
facet normal 0.6087614290087207 -0.7933533402912352 0.0
  outer loop
    vertex -1.9999999999999998 3.4641016151377553 7.999999999999999
    vertex -2.8284271247461907 2.8284271247461903 3.9999999999999996
    vertex -1.9999999999999998 3.4641016151377553 3.9999999999999996
  endloop
endfacet
facet normal 0.6087614290087207 -0.7933533402912352 0.0
  outer loop
    vertex -2.8284271247461907 2.8284271247461903 3.9999999999999996
    vertex -1.9999999999999998 3.4641016151377553 7.999999999999999
    vertex -2.8284271247461907 2.8284271247461903 7.999999999999999
  endloop
endfacet
facet normal 0.0 0.0 1.0
  outer loop
    vertex -3.8637033051562732 1.035276180410084 7.999999999999999
    vertex -6.06217782649107 3.500000000000002 7.999999999999999
    vertex -6.761480784023479 1.8117333157176467 7.999999999999999
  endloop
endfacet
facet normal 0.0 0.0 1.0
  outer loop
    vertex -6.06217782649107 3.500000000000002 7.999999999999999
    vertex -3.8637033051562732 1.035276180410084 7.999999999999999
    vertex -4.949747468305834 4.949747468305833 7.999999999999999
  endloop
endfacet
facet normal 0.0 0.0 1.0
  outer loop
    vertex -4.949747468305834 4.949747468305833 7.999999999999999
    vertex -3.8637033051562732 1.035276180410084 7.999999999999999
    vertex -3.5 6.06217782649107 7.999999999999999
  endloop
endfacet
facet normal 0.0 0.0 1.0
  outer loop
    vertex -3.5 6.06217782649107 7.999999999999999
    vertex -3.8637033051562732 1.035276180410084 7.999999999999999
    vertex -3.4641016151377544 2.0000000000000004 7.999999999999999
  endloop
endfacet
facet normal 0.0 0.0 1.0
  outer loop
    vertex -3.5 6.06217782649107 7.999999999999999
    vertex -3.4641016151377544 2.0000000000000004 7.999999999999999
    vertex -2.8284271247461907 2.8284271247461903 7.999999999999999
  endloop
endfacet
facet normal 0.0 0.0 1.0
  outer loop
    vertex -3.5 6.06217782649107 7.999999999999999
    vertex -2.8284271247461907 2.8284271247461903 7.999999999999999
    vertex -1.9999999999999998 3.4641016151377553 7.999999999999999
  endloop
endfacet
facet normal -0.2588190451025208 -0.9659258262890682 0.0
  outer loop
    vertex -3.8637033051562732 1.035276180410084 7.999999999999999
    vertex -6.761480784023479 1.8117333157176467 3.9999999999999996
    vertex -3.8637033051562732 1.035276180410084 3.9999999999999996
  endloop
endfacet
facet normal -0.2588190451025208 -0.9659258262890682 0.0
  outer loop
    vertex -6.761480784023479 1.8117333157176467 3.9999999999999996
    vertex -3.8637033051562732 1.035276180410084 7.999999999999999
    vertex -6.761480784023479 1.8117333157176467 7.999999999999999
  endloop
endfacet
facet normal 0.0 0.0 1.0
  outer loop
    vertex 1.9999999999999991 3.464101615137754 7.999999999999999
    vertex 1.8117333157176452 6.761480784023478 7.999999999999999
    vertex 1.0352761804100825 3.863703305156273 7.999999999999999
  endloop
endfacet
facet normal 0.0 0.0 1.0
  outer loop
    vertex 1.8117333157176452 6.761480784023478 7.999999999999999
    vertex 1.9999999999999991 3.464101615137754 7.999999999999999
    vertex 3.499999999999999 6.06217782649107 7.999999999999999
  endloop
endfacet
facet normal 0.0 0.0 1.0
  outer loop
    vertex 3.499999999999999 6.06217782649107 7.999999999999999
    vertex 1.9999999999999991 3.464101615137754 7.999999999999999
    vertex 2.8284271247461885 2.8284271247461903 7.999999999999999
  endloop
endfacet
facet normal 0.0 0.0 1.0
  outer loop
    vertex 3.499999999999999 6.06217782649107 7.999999999999999
    vertex 2.8284271247461885 2.8284271247461903 7.999999999999999
    vertex 3.4641016151377526 1.9999999999999991 7.999999999999999
  endloop
endfacet
facet normal 0.0 0.0 1.0
  outer loop
    vertex 3.499999999999999 6.06217782649107 7.999999999999999
    vertex 3.4641016151377526 1.9999999999999991 7.999999999999999
    vertex 6.062177826491069 3.499999999999999 7.999999999999999
  endloop
endfacet
facet normal 0.0 0.0 1.0
  outer loop
    vertex 3.499999999999999 6.06217782649107 7.999999999999999
    vertex 6.062177826491069 3.499999999999999 7.999999999999999
    vertex 4.949747468305831 4.949747468305833 7.999999999999999
  endloop
endfacet
facet normal 0.7933533402912355 0.6087614290087201 -0.0
  outer loop
    vertex -3.464101615137756 -1.9999999999999991 3.9999999999999996
    vertex -2.828427124746193 -2.8284271247461885 7.999999999999999
    vertex -2.828427124746193 -2.8284271247461885 3.9999999999999996
  endloop
endfacet
facet normal 0.7933533402912355 0.6087614290087201 -0.0
  outer loop
    vertex -2.828427124746193 -2.8284271247461885 7.999999999999999
    vertex -3.464101615137756 -1.9999999999999991 3.9999999999999996
    vertex -3.464101615137756 -1.9999999999999991 7.999999999999999
  endloop
endfacet
facet normal -0.0 -0.0 1.0
  outer loop
    vertex -2.100000000000001 2.5717582782094415e-16 3.9999999999999996
    vertex -1.9999999999999998 3.4641016151377553 3.9999999999999996
    vertex -2.8284271247461907 2.8284271247461903 3.9999999999999996
  endloop
endfacet
facet normal -0.0 -0.0 1.0
  outer loop
    vertex -1.9999999999999998 3.4641016151377553 3.9999999999999996
    vertex -2.100000000000001 2.5717582782094415e-16 3.9999999999999996
    vertex -2.0284442352070444 0.5435199947152941 3.9999999999999996
  endloop
endfacet
facet normal -0.0 -0.0 1.0
  outer loop
    vertex -1.9999999999999998 3.4641016151377553 3.9999999999999996
    vertex -2.0284442352070444 0.5435199947152941 3.9999999999999996
    vertex -1.818653347947322 1.0500000000000005 3.9999999999999996
  endloop
endfacet
facet normal -0.0 -0.0 1.0
  outer loop
    vertex -1.9999999999999998 3.4641016151377553 3.9999999999999996
    vertex -1.8117333157176452 6.761480784023478 3.9999999999999996
    vertex -3.5 6.06217782649107 3.9999999999999996
  endloop
endfacet
facet normal -0.0 -0.0 1.0
  outer loop
    vertex -1.8117333157176452 6.761480784023478 3.9999999999999996
    vertex -1.9999999999999998 3.4641016151377553 3.9999999999999996
    vertex -1.818653347947322 1.0500000000000005 3.9999999999999996
  endloop
endfacet
facet normal -0.0 -0.0 1.0
  outer loop
    vertex -1.8117333157176452 6.761480784023478 3.9999999999999996
    vertex -1.818653347947322 1.0500000000000005 3.9999999999999996
    vertex -1.4849242404917509 1.4849242404917495 3.9999999999999996
  endloop
endfacet
facet normal -0.0 -0.0 1.0
  outer loop
    vertex -1.8117333157176452 6.761480784023478 3.9999999999999996
    vertex -1.4849242404917509 1.4849242404917495 3.9999999999999996
    vertex -1.4099832412739487e-15 7.0 3.9999999999999996
  endloop
endfacet
facet normal -0.0 -0.0 1.0
  outer loop
    vertex -1.4099832412739487e-15 7.0 3.9999999999999996
    vertex -1.4849242404917509 1.4849242404917495 3.9999999999999996
    vertex -1.0500000000000007 1.818653347947321 3.9999999999999996
  endloop
endfacet
facet normal -0.0 -0.0 1.0
  outer loop
    vertex -1.4099832412739487e-15 7.0 3.9999999999999996
    vertex -1.0500000000000007 1.818653347947321 3.9999999999999996
    vertex -0.5435199947152947 2.028444235207043 3.9999999999999996
  endloop
endfacet
facet normal -0.0 -0.0 1.0
  outer loop
    vertex -1.4099832412739487e-15 7.0 3.9999999999999996
    vertex -0.5435199947152947 2.028444235207043 3.9999999999999996
    vertex -1.2813953273634767e-15 2.0999999999999996 3.9999999999999996
  endloop
endfacet
facet normal -0.0 -0.0 1.0
  outer loop
    vertex -1.4099832412739487e-15 7.0 3.9999999999999996
    vertex -1.2813953273634767e-15 2.0999999999999996 3.9999999999999996
    vertex 1.8117333157176452 6.761480784023478 3.9999999999999996
  endloop
endfacet
facet normal -0.0 -0.0 1.0
  outer loop
    vertex 1.8117333157176452 6.761480784023478 3.9999999999999996
    vertex -1.2813953273634767e-15 2.0999999999999996 3.9999999999999996
    vertex 0.5435199947152926 2.028444235207043 3.9999999999999996
  endloop
endfacet
facet normal -0.0 -0.0 1.0
  outer loop
    vertex 1.8117333157176452 6.761480784023478 3.9999999999999996
    vertex 0.5435199947152926 2.028444235207043 3.9999999999999996
    vertex 1.0352761804100825 3.863703305156273 3.9999999999999996
  endloop
endfacet
facet normal -0.0 -0.0 1.0
  outer loop
    vertex -6.7614807840234805 -1.8117333157176425 3.9999999999999996
    vertex -6.761480784023479 1.8117333157176467 3.9999999999999996
    vertex -7.000000000000001 1.4099832412739487e-15 3.9999999999999996
  endloop
endfacet
facet normal -0.0 -0.0 1.0
  outer loop
    vertex -6.761480784023479 1.8117333157176467 3.9999999999999996
    vertex -6.7614807840234805 -1.8117333157176425 3.9999999999999996
    vertex -6.062177826491073 -3.499999999999998 3.9999999999999996
  endloop
endfacet
facet normal -0.0 -0.0 1.0
  outer loop
    vertex -6.761480784023479 1.8117333157176467 3.9999999999999996
    vertex -6.062177826491073 -3.499999999999998 3.9999999999999996
    vertex -3.8637033051562732 1.035276180410084 3.9999999999999996
  endloop
endfacet
facet normal -0.0 -0.0 1.0
  outer loop
    vertex -3.8637033051562732 1.035276180410084 3.9999999999999996
    vertex -6.062177826491073 -3.499999999999998 3.9999999999999996
    vertex -3.464101615137756 -1.9999999999999991 3.9999999999999996
  endloop
endfacet
facet normal -0.0 -0.0 1.0
  outer loop
    vertex -3.8637033051562732 1.035276180410084 3.9999999999999996
    vertex -3.464101615137756 -1.9999999999999991 3.9999999999999996
    vertex -3.4641016151377544 2.0000000000000004 3.9999999999999996
  endloop
endfacet
facet normal -0.0 -0.0 1.0
  outer loop
    vertex -3.4641016151377544 2.0000000000000004 3.9999999999999996
    vertex -3.464101615137756 -1.9999999999999991 3.9999999999999996
    vertex -2.828427124746193 -2.8284271247461885 3.9999999999999996
  endloop
endfacet
facet normal -0.0 -0.0 1.0
  outer loop
    vertex -3.4641016151377544 2.0000000000000004 3.9999999999999996
    vertex -2.828427124746193 -2.8284271247461885 3.9999999999999996
    vertex -2.8284271247461907 2.8284271247461903 3.9999999999999996
  endloop
endfacet
facet normal -0.0 -0.0 1.0
  outer loop
    vertex -2.8284271247461907 2.8284271247461903 3.9999999999999996
    vertex -2.828427124746193 -2.8284271247461885 3.9999999999999996
    vertex -2.0000000000000027 -3.464101615137754 3.9999999999999996
  endloop
endfacet
facet normal -0.0 -0.0 1.0
  outer loop
    vertex -2.8284271247461907 2.8284271247461903 3.9999999999999996
    vertex -2.0000000000000027 -3.464101615137754 3.9999999999999996
    vertex -2.100000000000001 2.5717582782094415e-16 3.9999999999999996
  endloop
endfacet
facet normal -0.0 -0.0 1.0
  outer loop
    vertex -2.100000000000001 2.5717582782094415e-16 3.9999999999999996
    vertex -2.0000000000000027 -3.464101615137754 3.9999999999999996
    vertex -2.028444235207045 -0.5435199947152927 3.9999999999999996
  endloop
endfacet
facet normal -0.0 -0.0 1.0
  outer loop
    vertex -2.028444235207045 -0.5435199947152927 3.9999999999999996
    vertex -2.0000000000000027 -3.464101615137754 3.9999999999999996
    vertex -1.8186533479473226 -1.0499999999999994 3.9999999999999996
  endloop
endfacet
facet normal -0.0 -0.0 1.0
  outer loop
    vertex -1.8186533479473226 -1.0499999999999994 3.9999999999999996
    vertex -2.0000000000000027 -3.464101615137754 3.9999999999999996
    vertex -1.0352761804100867 -3.863703305156272 3.9999999999999996
  endloop
endfacet
facet normal -0.0 -0.0 1.0
  outer loop
    vertex -1.8186533479473226 -1.0499999999999994 3.9999999999999996
    vertex -1.0352761804100867 -3.863703305156272 3.9999999999999996
    vertex -1.4849242404917518 -1.4849242404917486 3.9999999999999996
  endloop
endfacet
facet normal -0.0 -0.0 1.0
  outer loop
    vertex -1.4849242404917518 -1.4849242404917486 3.9999999999999996
    vertex -1.0352761804100867 -3.863703305156272 3.9999999999999996
    vertex -1.050000000000002 -1.8186533479473204 3.9999999999999996
  endloop
endfacet
facet normal -0.0 -0.0 1.0
  outer loop
    vertex -1.050000000000002 -1.8186533479473204 3.9999999999999996
    vertex -1.0352761804100867 -3.863703305156272 3.9999999999999996
    vertex -0.5435199947152964 -2.0284442352070426 3.9999999999999996
  endloop
endfacet
facet normal -0.0 -0.0 1.0
  outer loop
    vertex -2.8199664825478975e-15 -7.0 3.9999999999999996
    vertex -1.0352761804100867 -3.863703305156272 3.9999999999999996
    vertex -1.8117333157176523 -6.761480784023476 3.9999999999999996
  endloop
endfacet
facet normal -0.0 -0.0 1.0
  outer loop
    vertex -1.0352761804100867 -3.863703305156272 3.9999999999999996
    vertex -2.8199664825478975e-15 -7.0 3.9999999999999996
    vertex -0.5435199947152964 -2.0284442352070426 3.9999999999999996
  endloop
endfacet
facet normal -0.0 -0.0 1.0
  outer loop
    vertex -0.5435199947152964 -2.0284442352070426 3.9999999999999996
    vertex -2.8199664825478975e-15 -7.0 3.9999999999999996
    vertex -1.7957469830053646e-15 -2.0999999999999996 3.9999999999999996
  endloop
endfacet
facet normal -0.0 -0.0 1.0
  outer loop
    vertex -1.7957469830053646e-15 -2.0999999999999996 3.9999999999999996
    vertex -2.8199664825478975e-15 -7.0 3.9999999999999996
    vertex 1.811733315717641 -6.761480784023479 3.9999999999999996
  endloop
endfacet
facet normal -0.0 -0.0 1.0
  outer loop
    vertex -1.7957469830053646e-15 -2.0999999999999996 3.9999999999999996
    vertex 1.811733315717641 -6.761480784023479 3.9999999999999996
    vertex 0.5435199947152911 -2.0284442352070435 3.9999999999999996
  endloop
endfacet
facet normal -0.0 -0.0 1.0
  outer loop
    vertex 0.5435199947152911 -2.0284442352070435 3.9999999999999996
    vertex 1.811733315717641 -6.761480784023479 3.9999999999999996
    vertex 1.049999999999997 -1.818653347947322 3.9999999999999996
  endloop
endfacet
facet normal -0.0 -0.0 1.0
  outer loop
    vertex 1.049999999999997 -1.818653347947322 3.9999999999999996
    vertex 1.811733315717641 -6.761480784023479 3.9999999999999996
    vertex 1.4849242404917478 -1.48492424049175 3.9999999999999996
  endloop
endfacet
facet normal -0.0 -0.0 1.0
  outer loop
    vertex 1.4849242404917478 -1.48492424049175 3.9999999999999996
    vertex 1.811733315717641 -6.761480784023479 3.9999999999999996
    vertex 1.818653347947319 -1.0500000000000007 3.9999999999999996
  endloop
endfacet
facet normal -0.0 -0.0 1.0
  outer loop
    vertex 1.818653347947319 -1.0500000000000007 3.9999999999999996
    vertex 1.811733315717641 -6.761480784023479 3.9999999999999996
    vertex 1.999999999999995 -3.464101615137756 3.9999999999999996
  endloop
endfacet
facet normal -0.0 -0.0 1.0
  outer loop
    vertex 1.999999999999995 -3.464101615137756 3.9999999999999996
    vertex 1.811733315717641 -6.761480784023479 3.9999999999999996
    vertex 3.499999999999994 -6.062177826491073 3.9999999999999996
  endloop
endfacet
facet normal -0.0 -0.0 1.0
  outer loop
    vertex 1.999999999999995 -3.464101615137756 3.9999999999999996
    vertex 2.0284442352070413 -0.5435199947152952 3.9999999999999996
    vertex 1.818653347947319 -1.0500000000000007 3.9999999999999996
  endloop
endfacet
facet normal -0.0 -0.0 1.0
  outer loop
    vertex 2.0284442352070413 -0.5435199947152952 3.9999999999999996
    vertex 1.999999999999995 -3.464101615137756 3.9999999999999996
    vertex 2.828427124746187 -2.8284271247461903 3.9999999999999996
  endloop
endfacet
facet normal -0.0 -0.0 1.0
  outer loop
    vertex 2.0284442352070413 -0.5435199947152952 3.9999999999999996
    vertex 2.828427124746187 -2.8284271247461903 3.9999999999999996
    vertex 2.0999999999999983 0.0 3.9999999999999996
  endloop
endfacet
facet normal -0.0 -0.0 1.0
  outer loop
    vertex 1.0499999999999987 1.8186533479473208 3.9999999999999996
    vertex 1.0352761804100825 3.863703305156273 3.9999999999999996
    vertex 0.5435199947152926 2.028444235207043 3.9999999999999996
  endloop
endfacet
facet normal -0.0 -0.0 1.0
  outer loop
    vertex 1.0352761804100825 3.863703305156273 3.9999999999999996
    vertex 1.0499999999999987 1.8186533479473208 3.9999999999999996
    vertex 1.9999999999999991 3.464101615137754 3.9999999999999996
  endloop
endfacet
facet normal -0.0 -0.0 1.0
  outer loop
    vertex 1.9999999999999991 3.464101615137754 3.9999999999999996
    vertex 1.0499999999999987 1.8186533479473208 3.9999999999999996
    vertex 1.4849242404917482 1.4849242404917495 3.9999999999999996
  endloop
endfacet
facet normal -0.0 -0.0 1.0
  outer loop
    vertex 1.9999999999999991 3.464101615137754 3.9999999999999996
    vertex 1.4849242404917482 1.4849242404917495 3.9999999999999996
    vertex 1.8186533479473197 1.0499999999999996 3.9999999999999996
  endloop
endfacet
facet normal -0.0 -0.0 1.0
  outer loop
    vertex 1.9999999999999991 3.464101615137754 3.9999999999999996
    vertex 1.8186533479473197 1.0499999999999996 3.9999999999999996
    vertex 2.0284442352070418 0.5435199947152934 3.9999999999999996
  endloop
endfacet
facet normal -0.0 -0.0 1.0
  outer loop
    vertex 1.9999999999999991 3.464101615137754 3.9999999999999996
    vertex 2.0284442352070418 0.5435199947152934 3.9999999999999996
    vertex 2.8284271247461885 2.8284271247461903 3.9999999999999996
  endloop
endfacet
facet normal -0.0 -0.0 1.0
  outer loop
    vertex 2.8284271247461885 2.8284271247461903 3.9999999999999996
    vertex 2.0284442352070418 0.5435199947152934 3.9999999999999996
    vertex 2.0999999999999983 0.0 3.9999999999999996
  endloop
endfacet
facet normal -0.0 -0.0 1.0
  outer loop
    vertex 2.8284271247461885 2.8284271247461903 3.9999999999999996
    vertex 2.0999999999999983 0.0 3.9999999999999996
    vertex 2.828427124746187 -2.8284271247461903 3.9999999999999996
  endloop
endfacet
facet normal -0.0 -0.0 1.0
  outer loop
    vertex 2.8284271247461885 2.8284271247461903 3.9999999999999996
    vertex 2.828427124746187 -2.8284271247461903 3.9999999999999996
    vertex 3.464101615137751 -2.0000000000000018 3.9999999999999996
  endloop
endfacet
facet normal -0.0 -0.0 1.0
  outer loop
    vertex 2.8284271247461885 2.8284271247461903 3.9999999999999996
    vertex 3.464101615137751 -2.0000000000000018 3.9999999999999996
    vertex 3.4641016151377526 1.9999999999999991 3.9999999999999996
  endloop
endfacet
facet normal -0.0 -0.0 1.0
  outer loop
    vertex 3.4641016151377526 1.9999999999999991 3.9999999999999996
    vertex 3.464101615137751 -2.0000000000000018 3.9999999999999996
    vertex 3.8637033051562697 -1.035276180410086 3.9999999999999996
  endloop
endfacet
facet normal -0.0 -0.0 1.0
  outer loop
    vertex 3.4641016151377526 1.9999999999999991 3.9999999999999996
    vertex 3.8637033051562697 -1.035276180410086 3.9999999999999996
    vertex 6.062177826491069 3.499999999999999 3.9999999999999996
  endloop
endfacet
facet normal -0.0 -0.0 1.0
  outer loop
    vertex 6.062177826491069 3.499999999999999 3.9999999999999996
    vertex 3.8637033051562697 -1.035276180410086 3.9999999999999996
    vertex 6.761480784023473 -1.811733315717651 3.9999999999999996
  endloop
endfacet
facet normal -0.0 -0.0 1.0
  outer loop
    vertex 6.062177826491069 3.499999999999999 3.9999999999999996
    vertex 6.761480784023473 -1.811733315717651 3.9999999999999996
    vertex 6.761480784023476 1.8117333157176452 3.9999999999999996
  endloop
endfacet
facet normal -0.0 -0.0 1.0
  outer loop
    vertex 6.761480784023476 1.8117333157176452 3.9999999999999996
    vertex 6.761480784023473 -1.811733315717651 3.9999999999999996
    vertex 6.999999999999998 0.0 3.9999999999999996
  endloop
endfacet
facet normal -0.9914448613738105 -0.13052619222005166 -0.0
  outer loop
    vertex 2.0284442352070418 0.5435199947152934 3.9999999999999996
    vertex 2.0999999999999983 0.0 0.0
    vertex 2.0999999999999983 0.0 3.9999999999999996
  endloop
endfacet
facet normal -0.9914448613738105 -0.13052619222005166 -0.0
  outer loop
    vertex 2.0999999999999983 0.0 0.0
    vertex 2.0284442352070418 0.5435199947152934 3.9999999999999996
    vertex 2.0284442352070418 0.5435199947152934 0.0
  endloop
endfacet
facet normal -0.9238795325112868 -0.38268343236508945 -0.0
  outer loop
    vertex 1.8186533479473197 1.0499999999999996 3.9999999999999996
    vertex 2.0284442352070418 0.5435199947152934 0.0
    vertex 2.0284442352070418 0.5435199947152934 3.9999999999999996
  endloop
endfacet
facet normal -0.9238795325112868 -0.38268343236508945 -0.0
  outer loop
    vertex 2.0284442352070418 0.5435199947152934 0.0
    vertex 1.8186533479473197 1.0499999999999996 3.9999999999999996
    vertex 1.8186533479473197 1.0499999999999996 0.0
  endloop
endfacet
facet normal -0.7933533402912352 -0.6087614290087208 -0.0
  outer loop
    vertex 1.4849242404917482 1.4849242404917495 3.9999999999999996
    vertex 1.8186533479473197 1.0499999999999996 0.0
    vertex 1.8186533479473197 1.0499999999999996 3.9999999999999996
  endloop
endfacet
facet normal -0.7933533402912352 -0.6087614290087208 -0.0
  outer loop
    vertex 1.8186533479473197 1.0499999999999996 0.0
    vertex 1.4849242404917482 1.4849242404917495 3.9999999999999996
    vertex 1.4849242404917482 1.4849242404917495 0.0
  endloop
endfacet
facet normal -0.6087614290087207 -0.7933533402912352 -0.0
  outer loop
    vertex 1.4849242404917482 1.4849242404917495 3.9999999999999996
    vertex 1.0499999999999987 1.8186533479473208 0.0
    vertex 1.4849242404917482 1.4849242404917495 0.0
  endloop
endfacet
facet normal -0.6087614290087207 -0.7933533402912352 -0.0
  outer loop
    vertex 1.0499999999999987 1.8186533479473208 0.0
    vertex 1.4849242404917482 1.4849242404917495 3.9999999999999996
    vertex 1.0499999999999987 1.8186533479473208 3.9999999999999996
  endloop
endfacet
facet normal -0.38268343236509006 -0.9238795325112867 -0.0
  outer loop
    vertex 1.0499999999999987 1.8186533479473208 3.9999999999999996
    vertex 0.5435199947152926 2.028444235207043 0.0
    vertex 1.0499999999999987 1.8186533479473208 0.0
  endloop
endfacet
facet normal -0.38268343236509006 -0.9238795325112867 -0.0
  outer loop
    vertex 0.5435199947152926 2.028444235207043 0.0
    vertex 1.0499999999999987 1.8186533479473208 3.9999999999999996
    vertex 0.5435199947152926 2.028444235207043 3.9999999999999996
  endloop
endfacet
facet normal -0.13052619222005157 -0.9914448613738105 -0.0
  outer loop
    vertex 0.5435199947152926 2.028444235207043 3.9999999999999996
    vertex -1.2813953273634767e-15 2.0999999999999996 0.0
    vertex 0.5435199947152926 2.028444235207043 0.0
  endloop
endfacet
facet normal -0.13052619222005157 -0.9914448613738105 -0.0
  outer loop
    vertex -1.2813953273634767e-15 2.0999999999999996 0.0
    vertex 0.5435199947152926 2.028444235207043 3.9999999999999996
    vertex -1.2813953273634767e-15 2.0999999999999996 3.9999999999999996
  endloop
endfacet
facet normal 0.13052619222005168 -0.9914448613738104 0.0
  outer loop
    vertex -1.2813953273634767e-15 2.0999999999999996 3.9999999999999996
    vertex -0.5435199947152947 2.028444235207043 0.0
    vertex -1.2813953273634767e-15 2.0999999999999996 0.0
  endloop
endfacet
facet normal 0.13052619222005168 -0.9914448613738104 0.0
  outer loop
    vertex -0.5435199947152947 2.028444235207043 0.0
    vertex -1.2813953273634767e-15 2.0999999999999996 3.9999999999999996
    vertex -0.5435199947152947 2.028444235207043 3.9999999999999996
  endloop
endfacet
facet normal 0.3826834323650895 -0.9238795325112868 0.0
  outer loop
    vertex -0.5435199947152947 2.028444235207043 3.9999999999999996
    vertex -1.0500000000000007 1.818653347947321 0.0
    vertex -0.5435199947152947 2.028444235207043 0.0
  endloop
endfacet
facet normal 0.3826834323650895 -0.9238795325112868 0.0
  outer loop
    vertex -1.0500000000000007 1.818653347947321 0.0
    vertex -0.5435199947152947 2.028444235207043 3.9999999999999996
    vertex -1.0500000000000007 1.818653347947321 3.9999999999999996
  endloop
endfacet
facet normal 0.6087614290087207 -0.7933533402912354 0.0
  outer loop
    vertex -1.0500000000000007 1.818653347947321 3.9999999999999996
    vertex -1.4849242404917509 1.4849242404917495 0.0
    vertex -1.0500000000000007 1.818653347947321 0.0
  endloop
endfacet
facet normal 0.6087614290087207 -0.7933533402912354 0.0
  outer loop
    vertex -1.4849242404917509 1.4849242404917495 0.0
    vertex -1.0500000000000007 1.818653347947321 3.9999999999999996
    vertex -1.4849242404917509 1.4849242404917495 3.9999999999999996
  endloop
endfacet
facet normal 0.7933533402912349 -0.6087614290087209 0.0
  outer loop
    vertex -1.4849242404917509 1.4849242404917495 0.0
    vertex -1.818653347947322 1.0500000000000005 3.9999999999999996
    vertex -1.818653347947322 1.0500000000000005 0.0
  endloop
endfacet
facet normal 0.7933533402912349 -0.6087614290087209 0.0
  outer loop
    vertex -1.818653347947322 1.0500000000000005 3.9999999999999996
    vertex -1.4849242404917509 1.4849242404917495 0.0
    vertex -1.4849242404917509 1.4849242404917495 3.9999999999999996
  endloop
endfacet
facet normal 0.9238795325112865 -0.3826834323650904 0.0
  outer loop
    vertex -1.818653347947322 1.0500000000000005 0.0
    vertex -2.0284442352070444 0.5435199947152941 3.9999999999999996
    vertex -2.0284442352070444 0.5435199947152941 0.0
  endloop
endfacet
facet normal 0.9238795325112865 -0.3826834323650904 0.0
  outer loop
    vertex -2.0284442352070444 0.5435199947152941 3.9999999999999996
    vertex -1.818653347947322 1.0500000000000005 0.0
    vertex -1.818653347947322 1.0500000000000005 3.9999999999999996
  endloop
endfacet
facet normal 0.9914448613738105 -0.13052619222005157 0.0
  outer loop
    vertex -2.0284442352070444 0.5435199947152941 0.0
    vertex -2.100000000000001 2.5717582782094415e-16 3.9999999999999996
    vertex -2.100000000000001 2.5717582782094415e-16 0.0
  endloop
endfacet
facet normal 0.9914448613738105 -0.13052619222005157 0.0
  outer loop
    vertex -2.100000000000001 2.5717582782094415e-16 3.9999999999999996
    vertex -2.0284442352070444 0.5435199947152941 0.0
    vertex -2.0284442352070444 0.5435199947152941 3.9999999999999996
  endloop
endfacet
facet normal 0.9914448613738105 0.13052619222005116 0.0
  outer loop
    vertex -2.100000000000001 2.5717582782094415e-16 0.0
    vertex -2.028444235207045 -0.5435199947152927 3.9999999999999996
    vertex -2.028444235207045 -0.5435199947152927 0.0
  endloop
endfacet
facet normal 0.9914448613738105 0.13052619222005116 0.0
  outer loop
    vertex -2.028444235207045 -0.5435199947152927 3.9999999999999996
    vertex -2.100000000000001 2.5717582782094415e-16 0.0
    vertex -2.100000000000001 2.5717582782094415e-16 3.9999999999999996
  endloop
endfacet
facet normal 0.9238795325112868 0.3826834323650897 0.0
  outer loop
    vertex -2.028444235207045 -0.5435199947152927 0.0
    vertex -1.8186533479473226 -1.0499999999999994 3.9999999999999996
    vertex -1.8186533479473226 -1.0499999999999994 0.0
  endloop
endfacet
facet normal 0.9238795325112868 0.3826834323650897 0.0
  outer loop
    vertex -1.8186533479473226 -1.0499999999999994 3.9999999999999996
    vertex -2.028444235207045 -0.5435199947152927 0.0
    vertex -2.028444235207045 -0.5435199947152927 3.9999999999999996
  endloop
endfacet
facet normal 0.7933533402912354 0.6087614290087204 0.0
  outer loop
    vertex -1.8186533479473226 -1.0499999999999994 0.0
    vertex -1.4849242404917518 -1.4849242404917486 3.9999999999999996
    vertex -1.4849242404917518 -1.4849242404917486 0.0
  endloop
endfacet
facet normal 0.7933533402912354 0.6087614290087204 0.0
  outer loop
    vertex -1.4849242404917518 -1.4849242404917486 3.9999999999999996
    vertex -1.8186533479473226 -1.0499999999999994 0.0
    vertex -1.8186533479473226 -1.0499999999999994 3.9999999999999996
  endloop
endfacet
facet normal 0.6087614290087212 0.7933533402912347 0.0
  outer loop
    vertex -1.4849242404917518 -1.4849242404917486 3.9999999999999996
    vertex -1.050000000000002 -1.8186533479473204 0.0
    vertex -1.4849242404917518 -1.4849242404917486 0.0
  endloop
endfacet
facet normal 0.6087614290087212 0.7933533402912347 0.0
  outer loop
    vertex -1.050000000000002 -1.8186533479473204 0.0
    vertex -1.4849242404917518 -1.4849242404917486 3.9999999999999996
    vertex -1.050000000000002 -1.8186533479473204 3.9999999999999996
  endloop
endfacet
facet normal 0.38268343236509034 0.9238795325112865 0.0
  outer loop
    vertex -1.050000000000002 -1.8186533479473204 3.9999999999999996
    vertex -0.5435199947152964 -2.0284442352070426 0.0
    vertex -1.050000000000002 -1.8186533479473204 0.0
  endloop
endfacet
facet normal 0.38268343236509034 0.9238795325112865 0.0
  outer loop
    vertex -0.5435199947152964 -2.0284442352070426 0.0
    vertex -1.050000000000002 -1.8186533479473204 3.9999999999999996
    vertex -0.5435199947152964 -2.0284442352070426 3.9999999999999996
  endloop
endfacet
facet normal 0.130526192220052 0.9914448613738104 0.0
  outer loop
    vertex -0.5435199947152964 -2.0284442352070426 3.9999999999999996
    vertex -1.7957469830053646e-15 -2.0999999999999996 0.0
    vertex -0.5435199947152964 -2.0284442352070426 0.0
  endloop
endfacet
facet normal 0.130526192220052 0.9914448613738104 0.0
  outer loop
    vertex -1.7957469830053646e-15 -2.0999999999999996 0.0
    vertex -0.5435199947152964 -2.0284442352070426 3.9999999999999996
    vertex -1.7957469830053646e-15 -2.0999999999999996 3.9999999999999996
  endloop
endfacet
facet normal -0.13052619222005118 0.9914448613738106 0.0
  outer loop
    vertex -1.7957469830053646e-15 -2.0999999999999996 3.9999999999999996
    vertex 0.5435199947152911 -2.0284442352070435 0.0
    vertex -1.7957469830053646e-15 -2.0999999999999996 0.0
  endloop
endfacet
facet normal -0.13052619222005118 0.9914448613738106 0.0
  outer loop
    vertex 0.5435199947152911 -2.0284442352070435 0.0
    vertex -1.7957469830053646e-15 -2.0999999999999996 3.9999999999999996
    vertex 0.5435199947152911 -2.0284442352070435 3.9999999999999996
  endloop
endfacet
facet normal -0.38268343236508906 0.9238795325112871 0.0
  outer loop
    vertex 0.5435199947152911 -2.0284442352070435 3.9999999999999996
    vertex 1.049999999999997 -1.818653347947322 0.0
    vertex 0.5435199947152911 -2.0284442352070435 0.0
  endloop
endfacet
facet normal -0.38268343236508906 0.9238795325112871 0.0
  outer loop
    vertex 1.049999999999997 -1.818653347947322 0.0
    vertex 0.5435199947152911 -2.0284442352070435 3.9999999999999996
    vertex 1.049999999999997 -1.818653347947322 3.9999999999999996
  endloop
endfacet
facet normal -0.6087614290087203 0.7933533402912354 0.0
  outer loop
    vertex 1.049999999999997 -1.818653347947322 3.9999999999999996
    vertex 1.4849242404917478 -1.48492424049175 0.0
    vertex 1.049999999999997 -1.818653347947322 0.0
  endloop
endfacet
facet normal -0.6087614290087203 0.7933533402912354 0.0
  outer loop
    vertex 1.4849242404917478 -1.48492424049175 0.0
    vertex 1.049999999999997 -1.818653347947322 3.9999999999999996
    vertex 1.4849242404917478 -1.48492424049175 3.9999999999999996
  endloop
endfacet
facet normal -0.7933533402912349 0.608761429008721 0.0
  outer loop
    vertex 1.818653347947319 -1.0500000000000007 3.9999999999999996
    vertex 1.4849242404917478 -1.48492424049175 0.0
    vertex 1.4849242404917478 -1.48492424049175 3.9999999999999996
  endloop
endfacet
facet normal -0.7933533402912349 0.608761429008721 0.0
  outer loop
    vertex 1.4849242404917478 -1.48492424049175 0.0
    vertex 1.818653347947319 -1.0500000000000007 3.9999999999999996
    vertex 1.818653347947319 -1.0500000000000007 0.0
  endloop
endfacet
facet normal -0.9238795325112866 0.38268343236509056 0.0
  outer loop
    vertex 2.0284442352070413 -0.5435199947152952 3.9999999999999996
    vertex 1.818653347947319 -1.0500000000000007 0.0
    vertex 1.818653347947319 -1.0500000000000007 3.9999999999999996
  endloop
endfacet
facet normal -0.9238795325112866 0.38268343236509056 0.0
  outer loop
    vertex 1.818653347947319 -1.0500000000000007 0.0
    vertex 2.0284442352070413 -0.5435199947152952 3.9999999999999996
    vertex 2.0284442352070413 -0.5435199947152952 0.0
  endloop
endfacet
facet normal -0.9914448613738105 0.13052619222005188 0.0
  outer loop
    vertex 2.0999999999999983 0.0 3.9999999999999996
    vertex 2.0284442352070413 -0.5435199947152952 0.0
    vertex 2.0284442352070413 -0.5435199947152952 3.9999999999999996
  endloop
endfacet
facet normal -0.9914448613738105 0.13052619222005188 0.0
  outer loop
    vertex 2.0284442352070413 -0.5435199947152952 0.0
    vertex 2.0999999999999983 0.0 3.9999999999999996
    vertex 2.0999999999999983 0.0 0.0
  endloop
endfacet
endsolid Муфта-Кулачковая-4мм
