solid Переходник-Шаговый-8mm
facet normal 0.0 0.0 -1.0
  outer loop
    vertex -3.499999999999995 6.062177826491073 -5.0
    vertex -4.2 0.0 -5.0
    vertex -4.949747468305832 4.949747468305834 -5.0
  endloop
endfacet
facet normal 0.0 0.0 -1.0
  outer loop
    vertex -4.2 0.0 -5.0
    vertex -3.499999999999995 6.062177826491073 -5.0
    vertex -3.8802940365474035 1.6072704159333797 -5.0
  endloop
endfacet
facet normal 0.0 0.0 -1.0
  outer loop
    vertex -3.8802940365474035 1.6072704159333797 -5.0
    vertex -3.499999999999995 6.062177826491073 -5.0
    vertex -2.9698484809834986 2.9698484809835004 -5.0
  endloop
endfacet
facet normal 0.0 0.0 -1.0
  outer loop
    vertex -2.9698484809834986 2.9698484809835004 -5.0
    vertex -3.499999999999995 6.062177826491073 -5.0
    vertex -1.811733315717642 6.761480784023479 -5.0
  endloop
endfacet
facet normal 0.0 0.0 -1.0
  outer loop
    vertex -2.9698484809834986 2.9698484809835004 -5.0
    vertex -1.811733315717642 6.761480784023479 -5.0
    vertex -1.607270415933378 3.880294036547404 -5.0
  endloop
endfacet
facet normal 0.0 0.0 -1.0
  outer loop
    vertex -1.607270415933378 3.880294036547404 -5.0
    vertex -1.811733315717642 6.761480784023479 -5.0
    vertex 1.2858791391047208e-15 7.0 -5.0
  endloop
endfacet
facet normal 0.0 0.0 -1.0
  outer loop
    vertex -1.607270415933378 3.880294036547404 -5.0
    vertex 1.2858791391047208e-15 7.0 -5.0
    vertex 7.715274834628324e-16 4.2 -5.0
  endloop
endfacet
facet normal 0.0 0.0 -1.0
  outer loop
    vertex 7.715274834628324e-16 4.2 -5.0
    vertex 1.2858791391047208e-15 7.0 -5.0
    vertex 1.6072704159333795 3.8802940365474035 -5.0
  endloop
endfacet
facet normal 0.0 0.0 -1.0
  outer loop
    vertex 1.6072704159333795 3.8802940365474035 -5.0
    vertex 1.2858791391047208e-15 7.0 -5.0
    vertex 1.8117333157176505 6.761480784023476 -5.0
  endloop
endfacet
facet normal 0.0 0.0 -1.0
  outer loop
    vertex 1.6072704159333795 3.8802940365474035 -5.0
    vertex 1.8117333157176505 6.761480784023476 -5.0
    vertex 2.9698484809835004 2.9698484809834995 -5.0
  endloop
endfacet
facet normal 0.0 0.0 -1.0
  outer loop
    vertex 2.9698484809835004 2.9698484809834995 -5.0
    vertex 1.8117333157176505 6.761480784023476 -5.0
    vertex 3.5000000000000027 6.062177826491069 -5.0
  endloop
endfacet
facet normal 0.0 0.0 -1.0
  outer loop
    vertex 2.9698484809835004 2.9698484809834995 -5.0
    vertex 3.5000000000000027 6.062177826491069 -5.0
    vertex 3.880294036547405 1.6072704159333764 -5.0
  endloop
endfacet
facet normal 0.0 0.0 -1.0
  outer loop
    vertex 3.880294036547405 1.6072704159333764 -5.0
    vertex 3.5000000000000027 6.062177826491069 -5.0
    vertex 4.949747468305835 4.949747468305829 -5.0
  endloop
endfacet
facet normal 0.0 0.0 -1.0
  outer loop
    vertex 3.880294036547405 1.6072704159333764 -5.0
    vertex 4.949747468305835 4.949747468305829 -5.0
    vertex 4.2 -5.143516556418884e-16 -5.0
  endloop
endfacet
facet normal 0.0 0.0 -1.0
  outer loop
    vertex 4.2 -5.143516556418884e-16 -5.0
    vertex 4.949747468305835 4.949747468305829 -5.0
    vertex 4.949747468305833 -4.949747468305833 -5.0
  endloop
endfacet
facet normal 0.0 0.0 -1.0
  outer loop
    vertex 4.949747468305833 -4.949747468305833 -5.0
    vertex 4.949747468305835 4.949747468305829 -5.0
    vertex 6.0621778264910695 -3.500000000000002 -5.0
  endloop
endfacet
facet normal 0.0 0.0 -1.0
  outer loop
    vertex 6.0621778264910695 -3.500000000000002 -5.0
    vertex 4.949747468305835 4.949747468305829 -5.0
    vertex 6.062177826491071 3.499999999999998 -5.0
  endloop
endfacet
facet normal 0.0 0.0 -1.0
  outer loop
    vertex 6.0621778264910695 -3.500000000000002 -5.0
    vertex 6.062177826491071 3.499999999999998 -5.0
    vertex 6.761480784023478 -1.811733315717647 -5.0
  endloop
endfacet
facet normal 0.0 0.0 -1.0
  outer loop
    vertex 6.761480784023478 -1.811733315717647 -5.0
    vertex 6.062177826491071 3.499999999999998 -5.0
    vertex 6.761480784023479 1.8117333157176425 -5.0
  endloop
endfacet
facet normal 0.0 0.0 -1.0
  outer loop
    vertex 6.761480784023478 -1.811733315717647 -5.0
    vertex 6.761480784023479 1.8117333157176425 -5.0
    vertex 7.0 -8.572527594031472e-16 -5.0
  endloop
endfacet
facet normal 0.0 0.0 -1.0
  outer loop
    vertex -6.761480784023476 1.811733315717651 -5.0
    vertex -6.761480784023478 -1.8117333157176452 -5.0
    vertex -7.0 0.0 -5.0
  endloop
endfacet
facet normal 0.0 0.0 -1.0
  outer loop
    vertex -6.761480784023478 -1.8117333157176452 -5.0
    vertex -6.761480784023476 1.811733315717651 -5.0
    vertex -6.06217782649107 -3.499999999999999 -5.0
  endloop
endfacet
facet normal 0.0 0.0 -1.0
  outer loop
    vertex -6.06217782649107 -3.499999999999999 -5.0
    vertex -6.761480784023476 1.811733315717651 -5.0
    vertex -6.062177826491069 3.5000000000000027 -5.0
  endloop
endfacet
facet normal 0.0 0.0 -1.0
  outer loop
    vertex -6.06217782649107 -3.499999999999999 -5.0
    vertex -6.062177826491069 3.5000000000000027 -5.0
    vertex -4.949747468305833 -4.949747468305833 -5.0
  endloop
endfacet
facet normal 0.0 0.0 -1.0
  outer loop
    vertex -4.949747468305833 -4.949747468305833 -5.0
    vertex -6.062177826491069 3.5000000000000027 -5.0
    vertex -4.949747468305832 4.949747468305834 -5.0
  endloop
endfacet
facet normal 0.0 0.0 -1.0
  outer loop
    vertex -4.949747468305833 -4.949747468305833 -5.0
    vertex -4.949747468305832 4.949747468305834 -5.0
    vertex -3.5000000000000004 -6.06217782649107 -5.0
  endloop
endfacet
facet normal 0.0 0.0 -1.0
  outer loop
    vertex -3.5000000000000004 -6.06217782649107 -5.0
    vertex -4.949747468305832 4.949747468305834 -5.0
    vertex -4.2 0.0 -5.0
  endloop
endfacet
facet normal 0.0 0.0 -1.0
  outer loop
    vertex -3.5000000000000004 -6.06217782649107 -5.0
    vertex -4.2 0.0 -5.0
    vertex -3.880294036547405 -1.607270415933377 -5.0
  endloop
endfacet
facet normal 0.0 0.0 -1.0
  outer loop
    vertex -3.5000000000000004 -6.06217782649107 -5.0
    vertex -3.880294036547405 -1.607270415933377 -5.0
    vertex -2.9698484809835 -2.9698484809834995 -5.0
  endloop
endfacet
facet normal 0.0 0.0 -1.0
  outer loop
    vertex -3.5000000000000004 -6.06217782649107 -5.0
    vertex -2.9698484809835 -2.9698484809834995 -5.0
    vertex -1.8117333157176467 -6.761480784023478 -5.0
  endloop
endfacet
facet normal 0.0 0.0 -1.0
  outer loop
    vertex -1.8117333157176467 -6.761480784023478 -5.0
    vertex -2.9698484809835 -2.9698484809834995 -5.0
    vertex -1.6072704159333773 -3.880294036547405 -5.0
  endloop
endfacet
facet normal 0.0 0.0 -1.0
  outer loop
    vertex -1.8117333157176467 -6.761480784023478 -5.0
    vertex -1.6072704159333773 -3.880294036547405 -5.0
    vertex -4.286263797015736e-16 -7.0 -5.0
  endloop
endfacet
facet normal 0.0 0.0 -1.0
  outer loop
    vertex -4.286263797015736e-16 -7.0 -5.0
    vertex -1.6072704159333773 -3.880294036547405 -5.0
    vertex -2.571758278209442e-16 -4.2 -5.0
  endloop
endfacet
facet normal 0.0 0.0 -1.0
  outer loop
    vertex -4.286263797015736e-16 -7.0 -5.0
    vertex -2.571758278209442e-16 -4.2 -5.0
    vertex 1.8117333157176443 -6.761480784023478 -5.0
  endloop
endfacet
facet normal 0.0 0.0 -1.0
  outer loop
    vertex 1.8117333157176443 -6.761480784023478 -5.0
    vertex -2.571758278209442e-16 -4.2 -5.0
    vertex 1.607270415933377 -3.880294036547405 -5.0
  endloop
endfacet
facet normal 0.0 0.0 -1.0
  outer loop
    vertex 1.8117333157176443 -6.761480784023478 -5.0
    vertex 1.607270415933377 -3.880294036547405 -5.0
    vertex 2.9698484809834995 -2.9698484809835 -5.0
  endloop
endfacet
facet normal 0.0 0.0 -1.0
  outer loop
    vertex 1.8117333157176443 -6.761480784023478 -5.0
    vertex 2.9698484809834995 -2.9698484809835 -5.0
    vertex 3.4999999999999987 -6.06217782649107 -5.0
  endloop
endfacet
facet normal 0.0 0.0 -1.0
  outer loop
    vertex 3.4999999999999987 -6.06217782649107 -5.0
    vertex 2.9698484809834995 -2.9698484809835 -5.0
    vertex 3.880294036547405 -1.6072704159333777 -5.0
  endloop
endfacet
facet normal 0.0 0.0 -1.0
  outer loop
    vertex 3.4999999999999987 -6.06217782649107 -5.0
    vertex 3.880294036547405 -1.6072704159333777 -5.0
    vertex 4.949747468305833 -4.949747468305833 -5.0
  endloop
endfacet
facet normal 0.0 0.0 -1.0
  outer loop
    vertex 4.949747468305833 -4.949747468305833 -5.0
    vertex 3.880294036547405 -1.6072704159333777 -5.0
    vertex 4.2 -5.143516556418884e-16 -5.0
  endloop
endfacet
facet normal -0.0 -0.0 1.0
  outer loop
    vertex -6.761480784023478 -1.8117333157176452 20.0
    vertex -6.761480784023476 1.811733315717651 20.0
    vertex -7.0 0.0 20.0
  endloop
endfacet
facet normal -0.0 -0.0 1.0
  outer loop
    vertex -6.761480784023476 1.811733315717651 20.0
    vertex -6.761480784023478 -1.8117333157176452 20.0
    vertex -6.06217782649107 -3.499999999999999 20.0
  endloop
endfacet
facet normal -0.0 -0.0 1.0
  outer loop
    vertex -6.761480784023476 1.811733315717651 20.0
    vertex -6.06217782649107 -3.499999999999999 20.0
    vertex -6.062177826491069 3.5000000000000027 20.0
  endloop
endfacet
facet normal -0.0 -0.0 1.0
  outer loop
    vertex -6.062177826491069 3.5000000000000027 20.0
    vertex -6.06217782649107 -3.499999999999999 20.0
    vertex -4.949747468305833 -4.949747468305833 20.0
  endloop
endfacet
facet normal -0.0 -0.0 1.0
  outer loop
    vertex -6.062177826491069 3.5000000000000027 20.0
    vertex -4.949747468305833 -4.949747468305833 20.0
    vertex -4.949747468305832 4.949747468305834 20.0
  endloop
endfacet
facet normal -0.0 -0.0 1.0
  outer loop
    vertex -4.949747468305832 4.949747468305834 20.0
    vertex -4.949747468305833 -4.949747468305833 20.0
    vertex -3.5000000000000004 -6.06217782649107 20.0
  endloop
endfacet
facet normal -0.0 -0.0 1.0
  outer loop
    vertex -4.949747468305832 4.949747468305834 20.0
    vertex -3.5000000000000004 -6.06217782649107 20.0
    vertex -3.499999999999995 6.062177826491073 20.0
  endloop
endfacet
facet normal -0.0 -0.0 1.0
  outer loop
    vertex -3.499999999999995 6.062177826491073 20.0
    vertex -3.5000000000000004 -6.06217782649107 20.0
    vertex -2.7999999999999994 0.0 20.0
  endloop
endfacet
facet normal -0.0 -0.0 1.0
  outer loop
    vertex -2.7999999999999994 0.0 20.0
    vertex -3.5000000000000004 -6.06217782649107 20.0
    vertex -1.8117333157176467 -6.761480784023478 20.0
  endloop
endfacet
facet normal -0.0 -0.0 1.0
  outer loop
    vertex -2.7999999999999994 0.0 20.0
    vertex -1.8117333157176467 -6.761480784023478 20.0
    vertex -2.5868626910316026 -1.0715136106222514 20.0
  endloop
endfacet
facet normal -0.0 -0.0 1.0
  outer loop
    vertex -2.5868626910316026 -1.0715136106222514 20.0
    vertex -1.8117333157176467 -6.761480784023478 20.0
    vertex -1.9798989873223327 -1.9798989873223325 20.0
  endloop
endfacet
facet normal -0.0 -0.0 1.0
  outer loop
    vertex -1.9798989873223327 -1.9798989873223325 20.0
    vertex -1.8117333157176467 -6.761480784023478 20.0
    vertex -1.0715136106222514 -2.5868626910316026 20.0
  endloop
endfacet
facet normal -0.0 -0.0 1.0
  outer loop
    vertex -1.0715136106222514 -2.5868626910316026 20.0
    vertex -1.8117333157176467 -6.761480784023478 20.0
    vertex -4.286263797015736e-16 -7.0 20.0
  endloop
endfacet
facet normal -0.0 -0.0 1.0
  outer loop
    vertex -1.0715136106222514 -2.5868626910316026 20.0
    vertex -4.286263797015736e-16 -7.0 20.0
    vertex -1.7145055188062941e-16 -2.7999999999999994 20.0
  endloop
endfacet
facet normal -0.0 -0.0 1.0
  outer loop
    vertex -1.7145055188062941e-16 -2.7999999999999994 20.0
    vertex -4.286263797015736e-16 -7.0 20.0
    vertex 1.8117333157176443 -6.761480784023478 20.0
  endloop
endfacet
facet normal -0.0 -0.0 1.0
  outer loop
    vertex -1.7145055188062941e-16 -2.7999999999999994 20.0
    vertex 1.8117333157176443 -6.761480784023478 20.0
    vertex 1.0715136106222511 -2.5868626910316026 20.0
  endloop
endfacet
facet normal -0.0 -0.0 1.0
  outer loop
    vertex 1.0715136106222511 -2.5868626910316026 20.0
    vertex 1.8117333157176443 -6.761480784023478 20.0
    vertex 1.9798989873223325 -1.9798989873223327 20.0
  endloop
endfacet
facet normal -0.0 -0.0 1.0
  outer loop
    vertex 1.9798989873223325 -1.9798989873223327 20.0
    vertex 1.8117333157176443 -6.761480784023478 20.0
    vertex 3.4999999999999987 -6.06217782649107 20.0
  endloop
endfacet
facet normal -0.0 -0.0 1.0
  outer loop
    vertex 1.9798989873223325 -1.9798989873223327 20.0
    vertex 3.4999999999999987 -6.06217782649107 20.0
    vertex 1.9798989873223332 1.9798989873223325 20.0
  endloop
endfacet
facet normal -0.0 -0.0 1.0
  outer loop
    vertex -2.7999999999999994 0.0 20.0
    vertex -1.811733315717642 6.761480784023479 20.0
    vertex -3.499999999999995 6.062177826491073 20.0
  endloop
endfacet
facet normal -0.0 -0.0 1.0
  outer loop
    vertex -1.811733315717642 6.761480784023479 20.0
    vertex -2.7999999999999994 0.0 20.0
    vertex -2.5868626910316017 1.071513610622253 20.0
  endloop
endfacet
facet normal -0.0 -0.0 1.0
  outer loop
    vertex -1.811733315717642 6.761480784023479 20.0
    vertex -2.5868626910316017 1.071513610622253 20.0
    vertex -1.979898987322332 1.9798989873223332 20.0
  endloop
endfacet
facet normal -0.0 -0.0 1.0
  outer loop
    vertex -1.811733315717642 6.761480784023479 20.0
    vertex -1.979898987322332 1.9798989873223332 20.0
    vertex -1.0715136106222518 2.586862691031602 20.0
  endloop
endfacet
facet normal -0.0 -0.0 1.0
  outer loop
    vertex -1.811733315717642 6.761480784023479 20.0
    vertex -1.0715136106222518 2.586862691031602 20.0
    vertex 1.2858791391047208e-15 7.0 20.0
  endloop
endfacet
facet normal -0.0 -0.0 1.0
  outer loop
    vertex 1.2858791391047208e-15 7.0 20.0
    vertex -1.0715136106222518 2.586862691031602 20.0
    vertex 5.143516556418882e-16 2.7999999999999994 20.0
  endloop
endfacet
facet normal -0.0 -0.0 1.0
  outer loop
    vertex 1.2858791391047208e-15 7.0 20.0
    vertex 5.143516556418882e-16 2.7999999999999994 20.0
    vertex 1.0715136106222527 2.5868626910316017 20.0
  endloop
endfacet
facet normal -0.0 -0.0 1.0
  outer loop
    vertex 1.2858791391047208e-15 7.0 20.0
    vertex 1.0715136106222527 2.5868626910316017 20.0
    vertex 1.8117333157176505 6.761480784023476 20.0
  endloop
endfacet
facet normal -0.0 -0.0 1.0
  outer loop
    vertex 1.8117333157176505 6.761480784023476 20.0
    vertex 1.0715136106222527 2.5868626910316017 20.0
    vertex 1.9798989873223332 1.9798989873223325 20.0
  endloop
endfacet
facet normal -0.0 -0.0 1.0
  outer loop
    vertex 1.8117333157176505 6.761480784023476 20.0
    vertex 1.9798989873223332 1.9798989873223325 20.0
    vertex 3.5000000000000027 6.062177826491069 20.0
  endloop
endfacet
facet normal -0.0 -0.0 1.0
  outer loop
    vertex 3.5000000000000027 6.062177826491069 20.0
    vertex 1.9798989873223332 1.9798989873223325 20.0
    vertex 3.4999999999999987 -6.06217782649107 20.0
  endloop
endfacet
facet normal -0.0 -0.0 1.0
  outer loop
    vertex 3.5000000000000027 6.062177826491069 20.0
    vertex 3.4999999999999987 -6.06217782649107 20.0
    vertex 4.949747468305833 -4.949747468305833 20.0
  endloop
endfacet
facet normal -0.0 -0.0 1.0
  outer loop
    vertex 3.5000000000000027 6.062177826491069 20.0
    vertex 4.949747468305833 -4.949747468305833 20.0
    vertex 4.949747468305835 4.949747468305829 20.0
  endloop
endfacet
facet normal -0.0 -0.0 1.0
  outer loop
    vertex 4.949747468305835 4.949747468305829 20.0
    vertex 4.949747468305833 -4.949747468305833 20.0
    vertex 6.0621778264910695 -3.500000000000002 20.0
  endloop
endfacet
facet normal -0.0 -0.0 1.0
  outer loop
    vertex 4.949747468305835 4.949747468305829 20.0
    vertex 6.0621778264910695 -3.500000000000002 20.0
    vertex 6.062177826491071 3.499999999999998 20.0
  endloop
endfacet
facet normal -0.0 -0.0 1.0
  outer loop
    vertex 6.062177826491071 3.499999999999998 20.0
    vertex 6.0621778264910695 -3.500000000000002 20.0
    vertex 6.761480784023478 -1.811733315717647 20.0
  endloop
endfacet
facet normal -0.0 -0.0 1.0
  outer loop
    vertex 6.062177826491071 3.499999999999998 20.0
    vertex 6.761480784023478 -1.811733315717647 20.0
    vertex 6.761480784023479 1.8117333157176425 20.0
  endloop
endfacet
facet normal -0.0 -0.0 1.0
  outer loop
    vertex 6.761480784023479 1.8117333157176425 20.0
    vertex 6.761480784023478 -1.811733315717647 20.0
    vertex 7.0 -8.572527594031472e-16 20.0
  endloop
endfacet
facet normal 0.13052619222005224 0.9914448613738104 0.0
  outer loop
    vertex 1.2858791391047208e-15 7.0 20.0
    vertex 1.8117333157176505 6.761480784023476 -5.0
    vertex 1.2858791391047208e-15 7.0 -5.0
  endloop
endfacet
facet normal 0.13052619222005224 0.9914448613738104 0.0
  outer loop
    vertex 1.8117333157176505 6.761480784023476 -5.0
    vertex 1.2858791391047208e-15 7.0 20.0
    vertex 1.8117333157176505 6.761480784023476 20.0
  endloop
endfacet
facet normal 0.38268343236509034 0.9238795325112865 0.0
  outer loop
    vertex 1.8117333157176505 6.761480784023476 20.0
    vertex 3.5000000000000027 6.062177826491069 -5.0
    vertex 1.8117333157176505 6.761480784023476 -5.0
  endloop
endfacet
facet normal 0.38268343236509034 0.9238795325112865 0.0
  outer loop
    vertex 3.5000000000000027 6.062177826491069 -5.0
    vertex 1.8117333157176505 6.761480784023476 20.0
    vertex 3.5000000000000027 6.062177826491069 20.0
  endloop
endfacet
facet normal 0.6087614290087211 0.7933533402912348 0.0
  outer loop
    vertex 3.5000000000000027 6.062177826491069 20.0
    vertex 4.949747468305835 4.949747468305829 -5.0
    vertex 3.5000000000000027 6.062177826491069 -5.0
  endloop
endfacet
facet normal 0.6087614290087211 0.7933533402912348 0.0
  outer loop
    vertex 4.949747468305835 4.949747468305829 -5.0
    vertex 3.5000000000000027 6.062177826491069 20.0
    vertex 4.949747468305835 4.949747468305829 20.0
  endloop
endfacet
facet normal 0.7933533402912354 0.6087614290087203 0.0
  outer loop
    vertex 4.949747468305835 4.949747468305829 -5.0
    vertex 6.062177826491071 3.499999999999998 20.0
    vertex 6.062177826491071 3.499999999999998 -5.0
  endloop
endfacet
facet normal 0.7933533402912354 0.6087614290087203 0.0
  outer loop
    vertex 6.062177826491071 3.499999999999998 20.0
    vertex 4.949747468305835 4.949747468305829 -5.0
    vertex 4.949747468305835 4.949747468305829 20.0
  endloop
endfacet
facet normal 0.9238795325112868 0.3826834323650898 0.0
  outer loop
    vertex 6.062177826491071 3.499999999999998 -5.0
    vertex 6.761480784023479 1.8117333157176425 20.0
    vertex 6.761480784023479 1.8117333157176425 -5.0
  endloop
endfacet
facet normal 0.9238795325112868 0.3826834323650898 0.0
  outer loop
    vertex 6.761480784023479 1.8117333157176425 20.0
    vertex 6.062177826491071 3.499999999999998 -5.0
    vertex 6.062177826491071 3.499999999999998 20.0
  endloop
endfacet
facet normal 0.9238795325112867 -0.3826834323650901 0.0
  outer loop
    vertex 6.761480784023478 -1.811733315717647 -5.0
    vertex 6.0621778264910695 -3.500000000000002 20.0
    vertex 6.0621778264910695 -3.500000000000002 -5.0
  endloop
endfacet
facet normal 0.9238795325112867 -0.3826834323650901 0.0
  outer loop
    vertex 6.0621778264910695 -3.500000000000002 20.0
    vertex 6.761480784023478 -1.811733315717647 -5.0
    vertex 6.761480784023478 -1.811733315717647 20.0
  endloop
endfacet
facet normal 0.793353340291235 -0.6087614290087208 0.0
  outer loop
    vertex 6.0621778264910695 -3.500000000000002 -5.0
    vertex 4.949747468305833 -4.949747468305833 20.0
    vertex 4.949747468305833 -4.949747468305833 -5.0
  endloop
endfacet
facet normal 0.793353340291235 -0.6087614290087208 0.0
  outer loop
    vertex 4.949747468305833 -4.949747468305833 20.0
    vertex 6.0621778264910695 -3.500000000000002 -5.0
    vertex 6.0621778264910695 -3.500000000000002 20.0
  endloop
endfacet
facet normal 0.6087614290087203 -0.7933533402912356 0.0
  outer loop
    vertex 4.949747468305833 -4.949747468305833 20.0
    vertex 3.4999999999999987 -6.06217782649107 -5.0
    vertex 4.949747468305833 -4.949747468305833 -5.0
  endloop
endfacet
facet normal 0.6087614290087203 -0.7933533402912356 0.0
  outer loop
    vertex 3.4999999999999987 -6.06217782649107 -5.0
    vertex 4.949747468305833 -4.949747468305833 20.0
    vertex 3.4999999999999987 -6.06217782649107 20.0
  endloop
endfacet
facet normal 0.38268343236508967 -0.923879532511287 0.0
  outer loop
    vertex 3.4999999999999987 -6.06217782649107 20.0
    vertex 1.8117333157176443 -6.761480784023478 -5.0
    vertex 3.4999999999999987 -6.06217782649107 -5.0
  endloop
endfacet
facet normal 0.38268343236508967 -0.923879532511287 0.0
  outer loop
    vertex 1.8117333157176443 -6.761480784023478 -5.0
    vertex 3.4999999999999987 -6.06217782649107 20.0
    vertex 1.8117333157176443 -6.761480784023478 20.0
  endloop
endfacet
facet normal 0.1305261922200518 -0.9914448613738105 0.0
  outer loop
    vertex 1.8117333157176443 -6.761480784023478 20.0
    vertex -4.286263797015736e-16 -7.0 -5.0
    vertex 1.8117333157176443 -6.761480784023478 -5.0
  endloop
endfacet
facet normal 0.1305261922200518 -0.9914448613738105 0.0
  outer loop
    vertex -4.286263797015736e-16 -7.0 -5.0
    vertex 1.8117333157176443 -6.761480784023478 20.0
    vertex -4.286263797015736e-16 -7.0 20.0
  endloop
endfacet
facet normal -0.13052619222005168 -0.9914448613738104 -0.0
  outer loop
    vertex -4.286263797015736e-16 -7.0 20.0
    vertex -1.8117333157176467 -6.761480784023478 -5.0
    vertex -4.286263797015736e-16 -7.0 -5.0
  endloop
endfacet
facet normal -0.13052619222005168 -0.9914448613738104 -0.0
  outer loop
    vertex -1.8117333157176467 -6.761480784023478 -5.0
    vertex -4.286263797015736e-16 -7.0 20.0
    vertex -1.8117333157176467 -6.761480784023478 20.0
  endloop
endfacet
facet normal -0.38268343236509006 -0.9238795325112868 -0.0
  outer loop
    vertex -1.8117333157176467 -6.761480784023478 20.0
    vertex -3.5000000000000004 -6.06217782649107 -5.0
    vertex -1.8117333157176467 -6.761480784023478 -5.0
  endloop
endfacet
facet normal -0.38268343236509006 -0.9238795325112868 -0.0
  outer loop
    vertex -3.5000000000000004 -6.06217782649107 -5.0
    vertex -1.8117333157176467 -6.761480784023478 20.0
    vertex -3.5000000000000004 -6.06217782649107 20.0
  endloop
endfacet
facet normal -0.6087614290087207 -0.7933533402912353 -0.0
  outer loop
    vertex -3.5000000000000004 -6.06217782649107 20.0
    vertex -4.949747468305833 -4.949747468305833 -5.0
    vertex -3.5000000000000004 -6.06217782649107 -5.0
  endloop
endfacet
facet normal -0.6087614290087207 -0.7933533402912353 -0.0
  outer loop
    vertex -4.949747468305833 -4.949747468305833 -5.0
    vertex -3.5000000000000004 -6.06217782649107 20.0
    vertex -4.949747468305833 -4.949747468305833 20.0
  endloop
endfacet
facet normal -0.7933533402912353 -0.6087614290087204 -0.0
  outer loop
    vertex -6.06217782649107 -3.499999999999999 20.0
    vertex -4.949747468305833 -4.949747468305833 -5.0
    vertex -4.949747468305833 -4.949747468305833 20.0
  endloop
endfacet
facet normal -0.7933533402912353 -0.6087614290087204 -0.0
  outer loop
    vertex -4.949747468305833 -4.949747468305833 -5.0
    vertex -6.06217782649107 -3.499999999999999 20.0
    vertex -6.06217782649107 -3.499999999999999 -5.0
  endloop
endfacet
facet normal -0.9238795325112868 -0.38268343236508967 -0.0
  outer loop
    vertex -6.761480784023478 -1.8117333157176452 20.0
    vertex -6.06217782649107 -3.499999999999999 -5.0
    vertex -6.06217782649107 -3.499999999999999 20.0
  endloop
endfacet
facet normal -0.9238795325112868 -0.38268343236508967 -0.0
  outer loop
    vertex -6.06217782649107 -3.499999999999999 -5.0
    vertex -6.761480784023478 -1.8117333157176452 20.0
    vertex -6.761480784023478 -1.8117333157176452 -5.0
  endloop
endfacet
facet normal -0.9914448613738105 -0.13052619222005177 -0.0
  outer loop
    vertex -7.0 0.0 20.0
    vertex -6.761480784023478 -1.8117333157176452 -5.0
    vertex -6.761480784023478 -1.8117333157176452 20.0
  endloop
endfacet
facet normal -0.9914448613738105 -0.13052619222005177 -0.0
  outer loop
    vertex -6.761480784023478 -1.8117333157176452 -5.0
    vertex -7.0 0.0 20.0
    vertex -7.0 0.0 -5.0
  endloop
endfacet
facet normal -0.9914448613738105 0.13052619222005213 0.0
  outer loop
    vertex -6.761480784023476 1.811733315717651 20.0
    vertex -7.0 0.0 -5.0
    vertex -7.0 0.0 20.0
  endloop
endfacet
facet normal -0.9914448613738105 0.13052619222005213 0.0
  outer loop
    vertex -7.0 0.0 -5.0
    vertex -6.761480784023476 1.811733315717651 20.0
    vertex -6.761480784023476 1.811733315717651 -5.0
  endloop
endfacet
facet normal -0.9238795325112865 0.3826834323650904 0.0
  outer loop
    vertex -6.062177826491069 3.5000000000000027 20.0
    vertex -6.761480784023476 1.811733315717651 -5.0
    vertex -6.761480784023476 1.811733315717651 20.0
  endloop
endfacet
facet normal -0.9238795325112865 0.3826834323650904 0.0
  outer loop
    vertex -6.761480784023476 1.811733315717651 -5.0
    vertex -6.062177826491069 3.5000000000000027 20.0
    vertex -6.062177826491069 3.5000000000000027 -5.0
  endloop
endfacet
facet normal -0.793353340291235 0.6087614290087208 0.0
  outer loop
    vertex -4.949747468305832 4.949747468305834 20.0
    vertex -6.062177826491069 3.5000000000000027 -5.0
    vertex -6.062177826491069 3.5000000000000027 20.0
  endloop
endfacet
facet normal -0.793353340291235 0.6087614290087208 0.0
  outer loop
    vertex -6.062177826491069 3.5000000000000027 -5.0
    vertex -4.949747468305832 4.949747468305834 20.0
    vertex -4.949747468305832 4.949747468305834 -5.0
  endloop
endfacet
facet normal -0.6087614290087203 0.7933533402912356 0.0
  outer loop
    vertex -4.949747468305832 4.949747468305834 20.0
    vertex -3.499999999999995 6.062177826491073 -5.0
    vertex -4.949747468305832 4.949747468305834 -5.0
  endloop
endfacet
facet normal -0.6087614290087203 0.7933533402912356 0.0
  outer loop
    vertex -3.499999999999995 6.062177826491073 -5.0
    vertex -4.949747468305832 4.949747468305834 20.0
    vertex -3.499999999999995 6.062177826491073 20.0
  endloop
endfacet
facet normal -0.38268343236508917 0.923879532511287 0.0
  outer loop
    vertex -3.499999999999995 6.062177826491073 20.0
    vertex -1.811733315717642 6.761480784023479 -5.0
    vertex -3.499999999999995 6.062177826491073 -5.0
  endloop
endfacet
facet normal -0.38268343236508917 0.923879532511287 0.0
  outer loop
    vertex -1.811733315717642 6.761480784023479 -5.0
    vertex -3.499999999999995 6.062177826491073 20.0
    vertex -1.811733315717642 6.761480784023479 20.0
  endloop
endfacet
facet normal -0.13052619222005113 0.9914448613738106 0.0
  outer loop
    vertex -1.811733315717642 6.761480784023479 20.0
    vertex 1.2858791391047208e-15 7.0 -5.0
    vertex -1.811733315717642 6.761480784023479 -5.0
  endloop
endfacet
facet normal -0.13052619222005113 0.9914448613738106 0.0
  outer loop
    vertex 1.2858791391047208e-15 7.0 -5.0
    vertex -1.811733315717642 6.761480784023479 20.0
    vertex 1.2858791391047208e-15 7.0 20.0
  endloop
endfacet
facet normal 0.9807852804032305 0.19509032201612816 0.0
  outer loop
    vertex -2.7999999999999994 0.0 5.0
    vertex -2.5868626910316026 -1.0715136106222514 20.0
    vertex -2.5868626910316026 -1.0715136106222514 5.0
  endloop
endfacet
facet normal 0.9807852804032305 0.19509032201612816 0.0
  outer loop
    vertex -2.5868626910316026 -1.0715136106222514 20.0
    vertex -2.7999999999999994 0.0 5.0
    vertex -2.7999999999999994 0.0 20.0
  endloop
endfacet
facet normal 0.9807852804032304 -0.1950903220161285 -0.0
  outer loop
    vertex -2.5868626910316017 1.071513610622253 5.0
    vertex -2.7999999999999994 0.0 20.0
    vertex -2.7999999999999994 0.0 5.0
  endloop
endfacet
facet normal 0.9807852804032304 -0.1950903220161285 -0.0
  outer loop
    vertex -2.7999999999999994 0.0 20.0
    vertex -2.5868626910316017 1.071513610622253 5.0
    vertex -2.5868626910316017 1.071513610622253 20.0
  endloop
endfacet
facet normal 0.831469612302545 -0.5555702330196028 -0.0
  outer loop
    vertex -1.979898987322332 1.9798989873223332 5.0
    vertex -2.5868626910316017 1.071513610622253 20.0
    vertex -2.5868626910316017 1.071513610622253 5.0
  endloop
endfacet
facet normal 0.831469612302545 -0.5555702330196028 -0.0
  outer loop
    vertex -2.5868626910316017 1.071513610622253 20.0
    vertex -1.979898987322332 1.9798989873223332 5.0
    vertex -1.979898987322332 1.9798989873223332 20.0
  endloop
endfacet
facet normal 0.5555702330196024 -0.8314696123025453 -0.0
  outer loop
    vertex -1.0715136106222518 2.586862691031602 20.0
    vertex -1.979898987322332 1.9798989873223332 5.0
    vertex -1.0715136106222518 2.586862691031602 5.0
  endloop
endfacet
facet normal 0.5555702330196024 -0.8314696123025453 -0.0
  outer loop
    vertex -1.979898987322332 1.9798989873223332 5.0
    vertex -1.0715136106222518 2.586862691031602 20.0
    vertex -1.979898987322332 1.9798989873223332 20.0
  endloop
endfacet
facet normal 0.19509032201612828 -0.9807852804032304 -0.0
  outer loop
    vertex 5.143516556418882e-16 2.7999999999999994 20.0
    vertex -1.0715136106222518 2.586862691031602 5.0
    vertex 5.143516556418882e-16 2.7999999999999994 5.0
  endloop
endfacet
facet normal 0.19509032201612828 -0.9807852804032304 -0.0
  outer loop
    vertex -1.0715136106222518 2.586862691031602 5.0
    vertex 5.143516556418882e-16 2.7999999999999994 20.0
    vertex -1.0715136106222518 2.586862691031602 20.0
  endloop
endfacet
facet normal -0.19509032201612858 -0.9807852804032303 -0.0
  outer loop
    vertex 1.0715136106222527 2.5868626910316017 20.0
    vertex 5.143516556418882e-16 2.7999999999999994 5.0
    vertex 1.0715136106222527 2.5868626910316017 5.0
  endloop
endfacet
facet normal -0.19509032201612858 -0.9807852804032303 -0.0
  outer loop
    vertex 5.143516556418882e-16 2.7999999999999994 5.0
    vertex 1.0715136106222527 2.5868626910316017 20.0
    vertex 5.143516556418882e-16 2.7999999999999994 20.0
  endloop
endfacet
facet normal -0.5555702330196025 -0.8314696123025451 0.0
  outer loop
    vertex 1.9798989873223332 1.9798989873223325 20.0
    vertex 1.0715136106222527 2.5868626910316017 5.0
    vertex 1.9798989873223332 1.9798989873223325 5.0
  endloop
endfacet
facet normal -0.5555702330196025 -0.8314696123025451 0.0
  outer loop
    vertex 1.0715136106222527 2.5868626910316017 5.0
    vertex 1.9798989873223332 1.9798989873223325 20.0
    vertex 1.0715136106222527 2.5868626910316017 20.0
  endloop
endfacet
facet normal -0.5555702330196024 0.8314696123025453 -0.0
  outer loop
    vertex 1.0715136106222511 -2.5868626910316026 20.0
    vertex 1.9798989873223325 -1.9798989873223327 5.0
    vertex 1.0715136106222511 -2.5868626910316026 5.0
  endloop
endfacet
facet normal -0.5555702330196024 0.8314696123025453 -0.0
  outer loop
    vertex 1.9798989873223325 -1.9798989873223327 5.0
    vertex 1.0715136106222511 -2.5868626910316026 20.0
    vertex 1.9798989873223325 -1.9798989873223327 20.0
  endloop
endfacet
facet normal -0.19509032201612816 0.9807852804032305 -0.0
  outer loop
    vertex -1.7145055188062941e-16 -2.7999999999999994 20.0
    vertex 1.0715136106222511 -2.5868626910316026 5.0
    vertex -1.7145055188062941e-16 -2.7999999999999994 5.0
  endloop
endfacet
facet normal -0.19509032201612816 0.9807852804032305 -0.0
  outer loop
    vertex 1.0715136106222511 -2.5868626910316026 5.0
    vertex -1.7145055188062941e-16 -2.7999999999999994 20.0
    vertex 1.0715136106222511 -2.5868626910316026 20.0
  endloop
endfacet
facet normal 0.1950903220161282 0.9807852804032305 0.0
  outer loop
    vertex -1.0715136106222514 -2.5868626910316026 20.0
    vertex -1.7145055188062941e-16 -2.7999999999999994 5.0
    vertex -1.0715136106222514 -2.5868626910316026 5.0
  endloop
endfacet
facet normal 0.1950903220161282 0.9807852804032305 0.0
  outer loop
    vertex -1.7145055188062941e-16 -2.7999999999999994 5.0
    vertex -1.0715136106222514 -2.5868626910316026 20.0
    vertex -1.7145055188062941e-16 -2.7999999999999994 20.0
  endloop
endfacet
facet normal 0.5555702330196025 0.8314696123025451 0.0
  outer loop
    vertex -1.9798989873223327 -1.9798989873223325 20.0
    vertex -1.0715136106222514 -2.5868626910316026 5.0
    vertex -1.9798989873223327 -1.9798989873223325 5.0
  endloop
endfacet
facet normal 0.5555702330196025 0.8314696123025451 0.0
  outer loop
    vertex -1.0715136106222514 -2.5868626910316026 5.0
    vertex -1.9798989873223327 -1.9798989873223325 20.0
    vertex -1.0715136106222514 -2.5868626910316026 20.0
  endloop
endfacet
facet normal 0.8314696123025451 0.5555702330196024 0.0
  outer loop
    vertex -2.5868626910316026 -1.0715136106222514 5.0
    vertex -1.9798989873223327 -1.9798989873223325 20.0
    vertex -1.9798989873223327 -1.9798989873223325 5.0
  endloop
endfacet
facet normal 0.8314696123025451 0.5555702330196024 0.0
  outer loop
    vertex -1.9798989873223327 -1.9798989873223325 20.0
    vertex -2.5868626910316026 -1.0715136106222514 5.0
    vertex -2.5868626910316026 -1.0715136106222514 20.0
  endloop
endfacet
facet normal 0.8314696123025453 0.5555702330196023 0.0
  outer loop
    vertex -3.880294036547405 -1.607270415933377 -5.0
    vertex -2.9698484809835 -2.9698484809834995 5.0
    vertex -2.9698484809835 -2.9698484809834995 -5.0
  endloop
endfacet
facet normal 0.8314696123025453 0.5555702330196023 0.0
  outer loop
    vertex -2.9698484809835 -2.9698484809834995 5.0
    vertex -3.880294036547405 -1.607270415933377 -5.0
    vertex -3.880294036547405 -1.607270415933377 5.0
  endloop
endfacet
facet normal 0.9807852804032305 0.19509032201612814 0.0
  outer loop
    vertex -4.2 0.0 -5.0
    vertex -3.880294036547405 -1.607270415933377 5.0
    vertex -3.880294036547405 -1.607270415933377 -5.0
  endloop
endfacet
facet normal 0.9807852804032305 0.19509032201612814 0.0
  outer loop
    vertex -3.880294036547405 -1.607270415933377 5.0
    vertex -4.2 0.0 -5.0
    vertex -4.2 0.0 5.0
  endloop
endfacet
facet normal 0.9807852804032305 -0.19509032201612866 -0.0
  outer loop
    vertex -3.8802940365474035 1.6072704159333797 -5.0
    vertex -4.2 0.0 5.0
    vertex -4.2 0.0 -5.0
  endloop
endfacet
facet normal 0.9807852804032305 -0.19509032201612866 -0.0
  outer loop
    vertex -4.2 0.0 5.0
    vertex -3.8802940365474035 1.6072704159333797 -5.0
    vertex -3.8802940365474035 1.6072704159333797 5.0
  endloop
endfacet
facet normal 0.8314696123025449 -0.5555702330196026 -0.0
  outer loop
    vertex -2.9698484809834986 2.9698484809835004 -5.0
    vertex -3.8802940365474035 1.6072704159333797 5.0
    vertex -3.8802940365474035 1.6072704159333797 -5.0
  endloop
endfacet
facet normal 0.8314696123025449 -0.5555702330196026 -0.0
  outer loop
    vertex -3.8802940365474035 1.6072704159333797 5.0
    vertex -2.9698484809834986 2.9698484809835004 -5.0
    vertex -2.9698484809834986 2.9698484809835004 5.0
  endloop
endfacet
facet normal 0.5555702330196023 -0.8314696123025452 -0.0
  outer loop
    vertex -1.607270415933378 3.880294036547404 5.0
    vertex -2.9698484809834986 2.9698484809835004 -5.0
    vertex -1.607270415933378 3.880294036547404 -5.0
  endloop
endfacet
facet normal 0.5555702330196023 -0.8314696123025452 -0.0
  outer loop
    vertex -2.9698484809834986 2.9698484809835004 -5.0
    vertex -1.607270415933378 3.880294036547404 5.0
    vertex -2.9698484809834986 2.9698484809835004 5.0
  endloop
endfacet
facet normal 0.1950903220161284 -0.9807852804032305 -0.0
  outer loop
    vertex 7.715274834628324e-16 4.2 5.0
    vertex -1.607270415933378 3.880294036547404 -5.0
    vertex 7.715274834628324e-16 4.2 -5.0
  endloop
endfacet
facet normal 0.1950903220161284 -0.9807852804032305 -0.0
  outer loop
    vertex -1.607270415933378 3.880294036547404 -5.0
    vertex 7.715274834628324e-16 4.2 5.0
    vertex -1.607270415933378 3.880294036547404 5.0
  endloop
endfacet
facet normal -0.19509032201612875 -0.9807852804032303 -0.0
  outer loop
    vertex 1.6072704159333795 3.8802940365474035 5.0
    vertex 7.715274834628324e-16 4.2 -5.0
    vertex 1.6072704159333795 3.8802940365474035 -5.0
  endloop
endfacet
facet normal -0.19509032201612875 -0.9807852804032303 -0.0
  outer loop
    vertex 7.715274834628324e-16 4.2 -5.0
    vertex 1.6072704159333795 3.8802940365474035 5.0
    vertex 7.715274834628324e-16 4.2 5.0
  endloop
endfacet
facet normal -0.5555702330196023 -0.8314696123025452 -0.0
  outer loop
    vertex 2.9698484809835004 2.9698484809834995 5.0
    vertex 1.6072704159333795 3.8802940365474035 -5.0
    vertex 2.9698484809835004 2.9698484809834995 -5.0
  endloop
endfacet
facet normal -0.5555702330196023 -0.8314696123025452 -0.0
  outer loop
    vertex 1.6072704159333795 3.8802940365474035 -5.0
    vertex 2.9698484809835004 2.9698484809834995 5.0
    vertex 1.6072704159333795 3.8802940365474035 5.0
  endloop
endfacet
facet normal -0.8314696123025456 -0.555570233019602 -0.0
  outer loop
    vertex 2.9698484809835004 2.9698484809834995 5.0
    vertex 3.880294036547405 1.6072704159333764 -5.0
    vertex 3.880294036547405 1.6072704159333764 5.0
  endloop
endfacet
facet normal -0.8314696123025456 -0.555570233019602 -0.0
  outer loop
    vertex 3.880294036547405 1.6072704159333764 -5.0
    vertex 2.9698484809835004 2.9698484809834995 5.0
    vertex 2.9698484809835004 2.9698484809834995 -5.0
  endloop
endfacet
facet normal -0.8314696123025451 0.5555702330196025 -0.0
  outer loop
    vertex 3.880294036547405 -1.6072704159333777 5.0
    vertex 2.9698484809834995 -2.9698484809835 -5.0
    vertex 2.9698484809834995 -2.9698484809835 5.0
  endloop
endfacet
facet normal -0.8314696123025451 0.5555702330196025 -0.0
  outer loop
    vertex 2.9698484809834995 -2.9698484809835 -5.0
    vertex 3.880294036547405 -1.6072704159333777 5.0
    vertex 3.880294036547405 -1.6072704159333777 -5.0
  endloop
endfacet
facet normal -0.5555702330196023 0.8314696123025453 -0.0
  outer loop
    vertex 1.607270415933377 -3.880294036547405 5.0
    vertex 2.9698484809834995 -2.9698484809835 -5.0
    vertex 1.607270415933377 -3.880294036547405 -5.0
  endloop
endfacet
facet normal -0.5555702330196023 0.8314696123025453 -0.0
  outer loop
    vertex 2.9698484809834995 -2.9698484809835 -5.0
    vertex 1.607270415933377 -3.880294036547405 5.0
    vertex 2.9698484809834995 -2.9698484809835 5.0
  endloop
endfacet
facet normal -0.19509032201612808 0.9807852804032305 -0.0
  outer loop
    vertex -2.571758278209442e-16 -4.2 5.0
    vertex 1.607270415933377 -3.880294036547405 -5.0
    vertex -2.571758278209442e-16 -4.2 -5.0
  endloop
endfacet
facet normal -0.19509032201612808 0.9807852804032305 -0.0
  outer loop
    vertex 1.607270415933377 -3.880294036547405 -5.0
    vertex -2.571758278209442e-16 -4.2 5.0
    vertex 1.607270415933377 -3.880294036547405 5.0
  endloop
endfacet
facet normal 0.19509032201612814 0.9807852804032305 0.0
  outer loop
    vertex -1.6072704159333773 -3.880294036547405 5.0
    vertex -2.571758278209442e-16 -4.2 -5.0
    vertex -1.6072704159333773 -3.880294036547405 -5.0
  endloop
endfacet
facet normal 0.19509032201612814 0.9807852804032305 0.0
  outer loop
    vertex -2.571758278209442e-16 -4.2 -5.0
    vertex -1.6072704159333773 -3.880294036547405 5.0
    vertex -2.571758278209442e-16 -4.2 5.0
  endloop
endfacet
facet normal 0.5555702330196024 0.8314696123025451 0.0
  outer loop
    vertex -2.9698484809835 -2.9698484809834995 5.0
    vertex -1.6072704159333773 -3.880294036547405 -5.0
    vertex -2.9698484809835 -2.9698484809834995 -5.0
  endloop
endfacet
facet normal 0.5555702330196024 0.8314696123025451 0.0
  outer loop
    vertex -1.6072704159333773 -3.880294036547405 -5.0
    vertex -2.9698484809835 -2.9698484809834995 5.0
    vertex -1.6072704159333773 -3.880294036547405 5.0
  endloop
endfacet
facet normal -1.0 1.7803726986860664e-16 0.0
  outer loop
    vertex 1.9798989873223325 -1.9798989873223327 20.0
    vertex 1.9798989873223325 -1.2000000000000002 10.0
    vertex 1.9798989873223325 -1.9798989873223327 5.0
  endloop
endfacet
facet normal -1.0 1.7803726986860664e-16 0.0
  outer loop
    vertex 1.9798989873223325 -1.2000000000000002 10.0
    vertex 1.9798989873223325 -1.9798989873223327 20.0
    vertex 1.9798989873223332 1.9798989873223325 20.0
  endloop
endfacet
facet normal -1.0 1.7803726986860664e-16 0.0
  outer loop
    vertex 1.9798989873223325 -1.2000000000000002 10.0
    vertex 1.9798989873223332 1.9798989873223325 20.0
    vertex 1.9798989873223325 -0.970820393249937 10.705342302750967
  endloop
endfacet
facet normal -1.0 1.7803726986860664e-16 0.0
  outer loop
    vertex 1.9798989873223325 -0.970820393249937 10.705342302750967
    vertex 1.9798989873223332 1.9798989873223325 20.0
    vertex 1.9798989873223327 -0.37082039324993693 11.141267819554184
  endloop
endfacet
facet normal -1.0 1.7803726986860664e-16 0.0
  outer loop
    vertex 1.9798989873223327 -0.37082039324993693 11.141267819554184
    vertex 1.9798989873223332 1.9798989873223325 20.0
    vertex 1.9798989873223327 0.3708203932499367 11.141267819554184
  endloop
endfacet
facet normal -1.0 1.7803726986860664e-16 0.0
  outer loop
    vertex 1.9798989873223327 0.3708203932499367 11.141267819554184
    vertex 1.9798989873223332 1.9798989873223325 20.0
    vertex 1.9798989873223332 0.9708203932499366 10.705342302750967
  endloop
endfacet
facet normal -1.0 1.7803726986860664e-16 0.0
  outer loop
    vertex 1.9798989873223332 0.9708203932499366 10.705342302750967
    vertex 1.9798989873223332 1.9798989873223325 20.0
    vertex 1.9798989873223332 1.1999999999999997 10.0
  endloop
endfacet
facet normal -1.0 1.7803726986860664e-16 0.0
  outer loop
    vertex 1.9798989873223325 -1.9798989873223327 5.0
    vertex 1.9798989873223325 -0.970820393249937 9.294657697249033
    vertex 1.9798989873223332 1.9798989873223325 5.0
  endloop
endfacet
facet normal -1.0 1.7803726986860664e-16 0.0
  outer loop
    vertex 1.9798989873223325 -0.970820393249937 9.294657697249033
    vertex 1.9798989873223325 -1.9798989873223327 5.0
    vertex 1.9798989873223325 -1.2000000000000002 10.0
  endloop
endfacet
facet normal -1.0 1.7803726986860664e-16 0.0
  outer loop
    vertex 1.9798989873223332 1.9798989873223325 5.0
    vertex 1.9798989873223325 -0.970820393249937 9.294657697249033
    vertex 1.9798989873223327 -0.3708203932499372 8.858732180445816
  endloop
endfacet
facet normal -1.0 1.7803726986860664e-16 0.0
  outer loop
    vertex 1.9798989873223332 1.9798989873223325 5.0
    vertex 1.9798989873223327 -0.3708203932499372 8.858732180445816
    vertex 1.9798989873223327 0.3708203932499365 8.858732180445816
  endloop
endfacet
facet normal -1.0 1.7803726986860664e-16 0.0
  outer loop
    vertex 1.9798989873223332 1.9798989873223325 5.0
    vertex 1.9798989873223327 0.3708203932499365 8.858732180445816
    vertex 1.9798989873223332 0.9708203932499366 9.294657697249033
  endloop
endfacet
facet normal -1.0 1.7803726986860664e-16 0.0
  outer loop
    vertex 1.9798989873223332 1.9798989873223325 5.0
    vertex 1.9798989873223332 0.9708203932499366 9.294657697249033
    vertex 1.9798989873223332 1.1999999999999997 10.0
  endloop
endfacet
facet normal -1.0 1.7803726986860664e-16 0.0
  outer loop
    vertex 1.9798989873223332 1.9798989873223325 5.0
    vertex 1.9798989873223332 1.1999999999999997 10.0
    vertex 1.9798989873223332 1.9798989873223325 20.0
  endloop
endfacet
facet normal 0.0 0.0 -1.0
  outer loop
    vertex -2.9698484809834986 2.9698484809835004 5.0
    vertex -2.5868626910316017 1.071513610622253 5.0
    vertex -2.7999999999999994 0.0 5.0
  endloop
endfacet
facet normal 0.0 0.0 -1.0
  outer loop
    vertex -2.5868626910316017 1.071513610622253 5.0
    vertex -2.9698484809834986 2.9698484809835004 5.0
    vertex -1.607270415933378 3.880294036547404 5.0
  endloop
endfacet
facet normal 0.0 0.0 -1.0
  outer loop
    vertex -2.5868626910316017 1.071513610622253 5.0
    vertex -1.607270415933378 3.880294036547404 5.0
    vertex -1.979898987322332 1.9798989873223332 5.0
  endloop
endfacet
facet normal 0.0 0.0 -1.0
  outer loop
    vertex -1.979898987322332 1.9798989873223332 5.0
    vertex -1.607270415933378 3.880294036547404 5.0
    vertex -1.0715136106222518 2.586862691031602 5.0
  endloop
endfacet
facet normal 0.0 0.0 -1.0
  outer loop
    vertex -1.0715136106222518 2.586862691031602 5.0
    vertex -1.607270415933378 3.880294036547404 5.0
    vertex 7.715274834628324e-16 4.2 5.0
  endloop
endfacet
facet normal 0.0 0.0 -1.0
  outer loop
    vertex -1.0715136106222518 2.586862691031602 5.0
    vertex 7.715274834628324e-16 4.2 5.0
    vertex 5.143516556418882e-16 2.7999999999999994 5.0
  endloop
endfacet
facet normal 0.0 0.0 -1.0
  outer loop
    vertex 5.143516556418882e-16 2.7999999999999994 5.0
    vertex 7.715274834628324e-16 4.2 5.0
    vertex 1.0715136106222527 2.5868626910316017 5.0
  endloop
endfacet
facet normal 0.0 0.0 -1.0
  outer loop
    vertex 1.0715136106222527 2.5868626910316017 5.0
    vertex 7.715274834628324e-16 4.2 5.0
    vertex 1.6072704159333795 3.8802940365474035 5.0
  endloop
endfacet
facet normal 0.0 0.0 -1.0
  outer loop
    vertex 1.0715136106222527 2.5868626910316017 5.0
    vertex 1.6072704159333795 3.8802940365474035 5.0
    vertex 1.9798989873223332 1.9798989873223325 5.0
  endloop
endfacet
facet normal 0.0 0.0 -1.0
  outer loop
    vertex 1.9798989873223332 1.9798989873223325 5.0
    vertex 1.6072704159333795 3.8802940365474035 5.0
    vertex 2.9698484809835004 2.9698484809834995 5.0
  endloop
endfacet
facet normal 0.0 0.0 -1.0
  outer loop
    vertex 1.9798989873223332 1.9798989873223325 5.0
    vertex 2.9698484809835004 2.9698484809834995 5.0
    vertex 2.9698484809834995 -2.9698484809835 5.0
  endloop
endfacet
facet normal 0.0 0.0 -1.0
  outer loop
    vertex 2.9698484809834995 -2.9698484809835 5.0
    vertex 2.9698484809835004 2.9698484809834995 5.0
    vertex 3.880294036547405 -1.6072704159333777 5.0
  endloop
endfacet
facet normal 0.0 0.0 -1.0
  outer loop
    vertex 3.880294036547405 -1.6072704159333777 5.0
    vertex 2.9698484809835004 2.9698484809834995 5.0
    vertex 3.880294036547405 1.6072704159333764 5.0
  endloop
endfacet
facet normal 0.0 0.0 -1.0
  outer loop
    vertex 3.880294036547405 -1.6072704159333777 5.0
    vertex 3.880294036547405 1.6072704159333764 5.0
    vertex 4.2 -5.143516556418884e-16 5.0
  endloop
endfacet
facet normal 0.0 0.0 -1.0
  outer loop
    vertex -3.8802940365474035 1.6072704159333797 5.0
    vertex -3.880294036547405 -1.607270415933377 5.0
    vertex -4.2 0.0 5.0
  endloop
endfacet
facet normal 0.0 0.0 -1.0
  outer loop
    vertex -3.880294036547405 -1.607270415933377 5.0
    vertex -3.8802940365474035 1.6072704159333797 5.0
    vertex -2.9698484809835 -2.9698484809834995 5.0
  endloop
endfacet
facet normal 0.0 0.0 -1.0
  outer loop
    vertex -2.9698484809835 -2.9698484809834995 5.0
    vertex -3.8802940365474035 1.6072704159333797 5.0
    vertex -2.9698484809834986 2.9698484809835004 5.0
  endloop
endfacet
facet normal 0.0 0.0 -1.0
  outer loop
    vertex -2.9698484809835 -2.9698484809834995 5.0
    vertex -2.9698484809834986 2.9698484809835004 5.0
    vertex -2.7999999999999994 0.0 5.0
  endloop
endfacet
facet normal 0.0 0.0 -1.0
  outer loop
    vertex -2.9698484809835 -2.9698484809834995 5.0
    vertex -2.7999999999999994 0.0 5.0
    vertex -2.5868626910316026 -1.0715136106222514 5.0
  endloop
endfacet
facet normal 0.0 0.0 -1.0
  outer loop
    vertex -2.9698484809835 -2.9698484809834995 5.0
    vertex -2.5868626910316026 -1.0715136106222514 5.0
    vertex -1.6072704159333773 -3.880294036547405 5.0
  endloop
endfacet
facet normal 0.0 0.0 -1.0
  outer loop
    vertex -1.6072704159333773 -3.880294036547405 5.0
    vertex -2.5868626910316026 -1.0715136106222514 5.0
    vertex -1.9798989873223327 -1.9798989873223325 5.0
  endloop
endfacet
facet normal 0.0 0.0 -1.0
  outer loop
    vertex -1.6072704159333773 -3.880294036547405 5.0
    vertex -1.9798989873223327 -1.9798989873223325 5.0
    vertex -1.0715136106222514 -2.5868626910316026 5.0
  endloop
endfacet
facet normal 0.0 0.0 -1.0
  outer loop
    vertex -1.6072704159333773 -3.880294036547405 5.0
    vertex -1.0715136106222514 -2.5868626910316026 5.0
    vertex -2.571758278209442e-16 -4.2 5.0
  endloop
endfacet
facet normal 0.0 0.0 -1.0
  outer loop
    vertex -2.571758278209442e-16 -4.2 5.0
    vertex -1.0715136106222514 -2.5868626910316026 5.0
    vertex -1.7145055188062941e-16 -2.7999999999999994 5.0
  endloop
endfacet
facet normal 0.0 0.0 -1.0
  outer loop
    vertex -2.571758278209442e-16 -4.2 5.0
    vertex -1.7145055188062941e-16 -2.7999999999999994 5.0
    vertex 1.607270415933377 -3.880294036547405 5.0
  endloop
endfacet
facet normal 0.0 0.0 -1.0
  outer loop
    vertex 1.607270415933377 -3.880294036547405 5.0
    vertex -1.7145055188062941e-16 -2.7999999999999994 5.0
    vertex 1.0715136106222511 -2.5868626910316026 5.0
  endloop
endfacet
facet normal 0.0 0.0 -1.0
  outer loop
    vertex 1.607270415933377 -3.880294036547405 5.0
    vertex 1.0715136106222511 -2.5868626910316026 5.0
    vertex 1.9798989873223325 -1.9798989873223327 5.0
  endloop
endfacet
facet normal 0.0 0.0 -1.0
  outer loop
    vertex 1.607270415933377 -3.880294036547405 5.0
    vertex 1.9798989873223325 -1.9798989873223327 5.0
    vertex 2.9698484809834995 -2.9698484809835 5.0
  endloop
endfacet
facet normal 0.0 0.0 -1.0
  outer loop
    vertex 2.9698484809834995 -2.9698484809835 5.0
    vertex 1.9798989873223325 -1.9798989873223327 5.0
    vertex 1.9798989873223332 1.9798989873223325 5.0
  endloop
endfacet
facet normal -3.6979806360400587e-16 -0.9510565162951536 0.30901699437494723
  outer loop
    vertex 6.872189070519868 0.9708203932499352 9.294657697249033
    vertex 1.9798989873223332 1.1999999999999997 10.0
    vertex 1.9798989873223332 0.9708203932499366 9.294657697249033
  endloop
endfacet
facet normal -3.6979806360400587e-16 -0.9510565162951536 0.30901699437494723
  outer loop
    vertex 1.9798989873223332 1.1999999999999997 10.0
    vertex 6.872189070519868 0.9708203932499352 9.294657697249033
    vertex 6.842017002895125 1.1999999999999977 10.0
  endloop
endfacet
facet normal -3.0339708618091047e-16 -0.5877852522924729 0.8090169943749477
  outer loop
    vertex 6.951180569072305 0.37082039324993477 8.858732180445816
    vertex 1.9798989873223332 0.9708203932499366 9.294657697249033
    vertex 1.9798989873223327 0.3708203932499365 8.858732180445816
  endloop
endfacet
facet normal -3.0339708618091047e-16 -0.5877852522924729 0.8090169943749477
  outer loop
    vertex 1.9798989873223332 0.9708203932499366 9.294657697249033
    vertex 6.951180569072305 0.37082039324993477 8.858732180445816
    vertex 6.872189070519868 0.9708203932499352 9.294657697249033
  endloop
endfacet
facet normal -0.0 -0.0 1.0
  outer loop
    vertex 6.951180569072305 -0.370820393249939 8.858732180445816
    vertex 1.9798989873223327 0.3708203932499365 8.858732180445816
    vertex 1.9798989873223327 -0.3708203932499372 8.858732180445816
  endloop
endfacet
facet normal -0.0 -0.0 1.0
  outer loop
    vertex 1.9798989873223327 0.3708203932499365 8.858732180445816
    vertex 6.951180569072305 -0.370820393249939 8.858732180445816
    vertex 6.951180569072305 0.37082039324993477 8.858732180445816
  endloop
endfacet
facet normal -0.0 -0.0 1.0
  outer loop
    vertex 6.951180569072305 0.37082039324993477 8.858732180445816
    vertex 6.951180569072305 -0.370820393249939 8.858732180445816
    vertex 7.0 -8.426476696841081e-16 8.858732180445816
  endloop
endfacet
facet normal 2.2813628665228487e-16 0.5877852522924726 0.809016994374948
  outer loop
    vertex 6.872189070519868 -0.9708203932499391 9.294657697249033
    vertex 1.9798989873223327 -0.3708203932499372 8.858732180445816
    vertex 1.9798989873223325 -0.970820393249937 9.294657697249033
  endloop
endfacet
facet normal 2.2813628665228487e-16 0.5877852522924726 0.809016994374948
  outer loop
    vertex 1.9798989873223327 -0.3708203932499372 8.858732180445816
    vertex 6.872189070519868 -0.9708203932499391 9.294657697249033
    vertex 6.951180569072305 -0.370820393249939 8.858732180445816
  endloop
endfacet
facet normal 4.072620799242321e-16 0.9510565162951536 0.30901699437494734
  outer loop
    vertex 1.9798989873223325 -1.2000000000000002 10.0
    vertex 6.872189070519868 -0.9708203932499391 9.294657697249033
    vertex 1.9798989873223325 -0.970820393249937 9.294657697249033
  endloop
endfacet
facet normal 4.072620799242321e-16 0.9510565162951536 0.30901699437494734
  outer loop
    vertex 6.872189070519868 -0.9708203932499391 9.294657697249033
    vertex 1.9798989873223325 -1.2000000000000002 10.0
    vertex 6.842017002895125 -1.2000000000000017 9.999999999999998
  endloop
endfacet
facet normal 9.028440565206628e-17 0.9510565162951534 -0.30901699437494823
  outer loop
    vertex 1.9798989873223325 -1.2000000000000002 10.0
    vertex 6.872189070519868 -0.9708203932499369 10.705342302750967
    vertex 6.842017002895125 -1.2000000000000017 9.999999999999998
  endloop
endfacet
facet normal 9.028440565206628e-17 0.9510565162951534 -0.30901699437494823
  outer loop
    vertex 6.872189070519868 -0.9708203932499369 10.705342302750967
    vertex 1.9798989873223325 -1.2000000000000002 10.0
    vertex 1.9798989873223325 -0.970820393249937 10.705342302750967
  endloop
endfacet
facet normal -5.343962096707187e-17 0.5877852522924722 -0.8090169943749481
  outer loop
    vertex 1.9798989873223327 -0.37082039324993693 11.141267819554184
    vertex 6.872189070519868 -0.9708203932499369 10.705342302750967
    vertex 1.9798989873223325 -0.970820393249937 10.705342302750967
  endloop
endfacet
facet normal -5.343962096707187e-17 0.5877852522924722 -0.8090169943749481
  outer loop
    vertex 6.872189070519868 -0.9708203932499369 10.705342302750967
    vertex 1.9798989873223327 -0.37082039324993693 11.141267819554184
    vertex 6.951180569072305 -0.3708203932499382 11.141267819554182
  endloop
endfacet
facet normal -9.345980997307802e-17 9.505836699787476e-16 -1.0
  outer loop
    vertex 6.951180569072305 0.3708203932499351 11.141267819554184
    vertex 1.9798989873223327 -0.37082039324993693 11.141267819554184
    vertex 1.9798989873223327 0.3708203932499367 11.141267819554184
  endloop
endfacet
facet normal -9.345980997307802e-17 9.505836699787476e-16 -1.0
  outer loop
    vertex 1.9798989873223327 -0.37082039324993693 11.141267819554184
    vertex 6.951180569072305 0.3708203932499351 11.141267819554184
    vertex 6.951180569072305 -0.3708203932499382 11.141267819554182
  endloop
endfacet
facet normal -9.345980997307802e-17 9.505836699787476e-16 -1.0
  outer loop
    vertex 6.951180569072305 -0.3708203932499382 11.141267819554182
    vertex 6.951180569072305 0.3708203932499351 11.141267819554184
    vertex 7.0 -8.426476696841081e-16 11.141267819554184
  endloop
endfacet
facet normal -1.4345993485803174e-16 -0.5877852522924722 -0.8090169943749481
  outer loop
    vertex 1.9798989873223332 0.9708203932499366 10.705342302750967
    vertex 6.951180569072305 0.3708203932499351 11.141267819554184
    vertex 1.9798989873223327 0.3708203932499367 11.141267819554184
  endloop
endfacet
facet normal -1.4345993485803174e-16 -0.5877852522924722 -0.8090169943749481
  outer loop
    vertex 6.951180569072305 0.3708203932499351 11.141267819554184
    vertex 1.9798989873223332 0.9708203932499366 10.705342302750967
    vertex 6.872189070519868 0.970820393249936 10.705342302750967
  endloop
endfacet
facet normal -2.5660360956704415e-16 -0.951056516295154 -0.3090169943749466
  outer loop
    vertex 6.872189070519868 0.970820393249936 10.705342302750967
    vertex 1.9798989873223332 1.1999999999999997 10.0
    vertex 6.842017002895125 1.1999999999999977 10.0
  endloop
endfacet
facet normal -2.5660360956704415e-16 -0.951056516295154 -0.3090169943749466
  outer loop
    vertex 1.9798989873223332 1.1999999999999997 10.0
    vertex 6.872189070519868 0.970820393249936 10.705342302750967
    vertex 1.9798989873223332 0.9708203932499366 10.705342302750967
  endloop
endfacet
facet normal 6.109840569466659e-17 4.0436442834951555e-16 1.0
  outer loop
    vertex 6.9569630598996985 -0.32689801476596975 -1.220000000000001
    vertex 4.199999999999999 -6.908030064514714e-16 -1.2200000000000009
    vertex 4.134975941991191 -0.32689801476596975 -1.2200000000000009
  endloop
endfacet
facet normal 6.109840569466659e-17 4.0436442834951555e-16 1.0
  outer loop
    vertex 4.199999999999999 -6.908030064514714e-16 -1.2200000000000009
    vertex 6.9569630598996985 0.3268980147659699 -1.2200000000000013
    vertex 4.134975941991191 0.32689801476596997 -1.2200000000000013
  endloop
endfacet
facet normal 6.109840569466659e-17 4.0436442834951555e-16 1.0
  outer loop
    vertex 6.9569630598996985 0.3268980147659699 -1.2200000000000013
    vertex 4.199999999999999 -6.908030064514714e-16 -1.2200000000000009
    vertex 6.9569630598996985 -0.32689801476596975 -1.220000000000001
  endloop
endfacet
facet normal 6.109840569466659e-17 4.0436442834951555e-16 1.0
  outer loop
    vertex 6.9569630598996985 0.3268980147659699 -1.2200000000000013
    vertex 6.9569630598996985 -0.32689801476596975 -1.220000000000001
    vertex 7.0 -8.672543572610546e-16 -1.220000000000001
  endloop
endfacet
facet normal 6.291769203451209e-17 0.8660254037844395 0.49999999999999867
  outer loop
    vertex 3.9573269117968173 -1.2200000000000017 -0.32689801476596997
    vertex 6.882420893043678 -0.8931019852340333 -0.8931019852340312
    vertex 4.022350969805627 -0.893101985234033 -0.8931019852340312
  endloop
endfacet
facet normal 6.291769203451209e-17 0.8660254037844395 0.49999999999999867
  outer loop
    vertex 6.882420893043678 -0.8931019852340333 -0.8931019852340312
    vertex 3.9573269117968173 -1.2200000000000017 -0.32689801476596997
    vertex 6.839383952943376 -1.220000000000002 -0.32689801476596997
  endloop
endfacet
facet normal -2.2388593390054252e-18 -0.5000000000000002 0.8660254037844387
  outer loop
    vertex 4.134975941991191 0.32689801476596997 -1.2200000000000013
    vertex 6.882420893043679 0.8931019852340305 -0.8931019852340315
    vertex 4.022350969805627 0.8931019852340301 -0.8931019852340315
  endloop
endfacet
facet normal -2.2388593390054252e-18 -0.5000000000000002 0.8660254037844387
  outer loop
    vertex 6.882420893043679 0.8931019852340305 -0.8931019852340315
    vertex 4.134975941991191 0.32689801476596997 -1.2200000000000013
    vertex 6.9569630598996985 0.3268980147659699 -1.2200000000000013
  endloop
endfacet
facet normal 4.835936172251675e-17 0.49999999999999856 0.8660254037844397
  outer loop
    vertex 6.882420893043678 -0.8931019852340333 -0.8931019852340312
    vertex 4.134975941991191 -0.32689801476596975 -1.2200000000000009
    vertex 4.022350969805627 -0.893101985234033 -0.8931019852340312
  endloop
endfacet
facet normal 4.835936172251675e-17 0.49999999999999856 0.8660254037844397
  outer loop
    vertex 4.134975941991191 -0.32689801476596975 -1.2200000000000009
    vertex 6.882420893043678 -0.8931019852340333 -0.8931019852340312
    vertex 6.9569630598996985 -0.32689801476596975 -1.220000000000001
  endloop
endfacet
facet normal 3.843777090163024e-17 -0.8660254037844384 0.5000000000000006
  outer loop
    vertex 6.839383952943377 1.2200000000000006 -0.32689801476597086
    vertex 4.022350969805627 0.8931019852340301 -0.8931019852340315
    vertex 6.882420893043679 0.8931019852340305 -0.8931019852340315
  endloop
endfacet
facet normal 3.843777090163024e-17 -0.8660254037844384 0.5000000000000006
  outer loop
    vertex 4.022350969805627 0.8931019852340301 -0.8931019852340315
    vertex 6.839383952943377 1.2200000000000006 -0.32689801476597086
    vertex 3.9573269117968173 1.2200000000000006 -0.32689801476597075
  endloop
endfacet
facet normal 2.968239417768903e-17 -1.0 -8.985876185544766e-17
  outer loop
    vertex 6.839383952943377 1.2200000000000006 0.32689801476596964
    vertex 3.9573269117968173 1.2200000000000006 -0.32689801476597075
    vertex 6.839383952943377 1.2200000000000006 -0.32689801476597086
  endloop
endfacet
facet normal 2.968239417768903e-17 -1.0 -8.985876185544766e-17
  outer loop
    vertex 3.9573269117968173 1.2200000000000006 -0.32689801476597075
    vertex 6.839383952943377 1.2200000000000006 0.32689801476596964
    vertex 3.9573269117968173 1.2200000000000004 0.32689801476596964
  endloop
endfacet
facet normal 4.616827231201395e-17 -0.8660254037844385 -0.5000000000000003
  outer loop
    vertex 6.882420893043679 0.8931019852340305 0.8931019852340306
    vertex 3.9573269117968173 1.2200000000000004 0.32689801476596964
    vertex 6.839383952943377 1.2200000000000006 0.32689801476596964
  endloop
endfacet
facet normal 4.616827231201395e-17 -0.8660254037844385 -0.5000000000000003
  outer loop
    vertex 3.9573269117968173 1.2200000000000004 0.32689801476596964
    vertex 6.882420893043679 0.8931019852340305 0.8931019852340306
    vertex 4.022350969805627 0.8931019852340303 0.8931019852340306
  endloop
endfacet
facet normal 1.2537612298430375e-17 -0.5000000000000009 -0.8660254037844384
  outer loop
    vertex 6.882420893043679 0.8931019852340305 0.8931019852340306
    vertex 4.134975941991191 0.32689801476596997 1.2200000000000009
    vertex 4.022350969805627 0.8931019852340303 0.8931019852340306
  endloop
endfacet
facet normal 1.2537612298430375e-17 -0.5000000000000009 -0.8660254037844384
  outer loop
    vertex 4.134975941991191 0.32689801476596997 1.2200000000000009
    vertex 6.882420893043679 0.8931019852340305 0.8931019852340306
    vertex 6.9569630598996985 0.3268980147659699 1.2200000000000009
  endloop
endfacet
facet normal -1.7018502393750268e-17 -1.6361895423376276e-30 -1.0
  outer loop
    vertex 6.9569630598996985 0.3268980147659699 1.2200000000000009
    vertex 4.199999999999999 -6.791446610263399e-16 1.2200000000000017
    vertex 4.134975941991191 0.32689801476596997 1.2200000000000009
  endloop
endfacet
facet normal -1.7018502393750268e-17 -1.6361895423376276e-30 -1.0
  outer loop
    vertex 4.199999999999999 -6.791446610263399e-16 1.2200000000000017
    vertex 6.9569630598996985 -0.3268980147659698 1.2200000000000009
    vertex 4.134975941991191 -0.3268980147659697 1.2200000000000009
  endloop
endfacet
facet normal -1.7018502393750268e-17 -1.6361895423376276e-30 -1.0
  outer loop
    vertex 6.9569630598996985 -0.3268980147659698 1.2200000000000009
    vertex 4.199999999999999 -6.791446610263399e-16 1.2200000000000017
    vertex 6.9569630598996985 0.3268980147659699 1.2200000000000009
  endloop
endfacet
facet normal -1.7018502393750268e-17 -1.6361895423376276e-30 -1.0
  outer loop
    vertex 6.9569630598996985 -0.3268980147659698 1.2200000000000009
    vertex 6.9569630598996985 0.3268980147659699 1.2200000000000009
    vertex 7.0 -8.439376664107914e-16 1.2200000000000015
  endloop
endfacet
facet normal -0.9807852804032307 -0.19509032201612792 2.601892818453742e-19
  outer loop
    vertex 4.2 -5.143516556418884e-16 5.0
    vertex 4.134975941991191 0.32689801476596997 1.2200000000000009
    vertex 4.199999999999999 -6.791446610263399e-16 1.2200000000000017
  endloop
endfacet
facet normal -0.9807852804032307 -0.19509032201612792 2.601892818453742e-19
  outer loop
    vertex 4.134975941991191 0.32689801476596997 1.2200000000000009
    vertex 4.2 -5.143516556418884e-16 5.0
    vertex 3.880294036547405 1.6072704159333764 5.0
  endloop
endfacet
facet normal -0.9807852804032307 -0.19509032201612792 2.601892818453742e-19
  outer loop
    vertex 4.134975941991191 0.32689801476596997 1.2200000000000009
    vertex 3.880294036547405 1.6072704159333764 5.0
    vertex 4.022350969805627 0.8931019852340303 0.8931019852340306
  endloop
endfacet
facet normal -0.9807852804032307 -0.19509032201612792 2.601892818453742e-19
  outer loop
    vertex 4.022350969805627 0.8931019852340303 0.8931019852340306
    vertex 3.880294036547405 1.6072704159333764 5.0
    vertex 3.9573269117968173 1.2200000000000004 0.32689801476596964
  endloop
endfacet
facet normal -0.9807852804032307 -0.19509032201612792 2.601892818453742e-19
  outer loop
    vertex 3.9573269117968173 1.2200000000000004 0.32689801476596964
    vertex 3.880294036547405 1.6072704159333764 5.0
    vertex 3.9573269117968173 1.2200000000000006 -0.32689801476597075
  endloop
endfacet
facet normal -0.9807852804032307 -0.19509032201612792 2.601892818453742e-19
  outer loop
    vertex 4.134975941991191 0.32689801476596997 -1.2200000000000013
    vertex 4.2 -5.143516556418884e-16 -5.0
    vertex 4.199999999999999 -6.908030064514714e-16 -1.2200000000000009
  endloop
endfacet
facet normal -0.9807852804032307 -0.19509032201612792 2.601892818453742e-19
  outer loop
    vertex 4.2 -5.143516556418884e-16 -5.0
    vertex 4.134975941991191 0.32689801476596997 -1.2200000000000013
    vertex 3.880294036547405 1.6072704159333764 -5.0
  endloop
endfacet
facet normal -0.9807852804032307 -0.19509032201612792 2.601892818453742e-19
  outer loop
    vertex 3.880294036547405 1.6072704159333764 -5.0
    vertex 4.134975941991191 0.32689801476596997 -1.2200000000000013
    vertex 4.022350969805627 0.8931019852340301 -0.8931019852340315
  endloop
endfacet
facet normal -0.9807852804032307 -0.19509032201612792 2.601892818453742e-19
  outer loop
    vertex 3.880294036547405 1.6072704159333764 -5.0
    vertex 4.022350969805627 0.8931019852340301 -0.8931019852340315
    vertex 3.9573269117968173 1.2200000000000006 -0.32689801476597075
  endloop
endfacet
facet normal -0.9807852804032307 -0.19509032201612792 2.601892818453742e-19
  outer loop
    vertex 3.880294036547405 1.6072704159333764 -5.0
    vertex 3.9573269117968173 1.2200000000000006 -0.32689801476597075
    vertex 3.880294036547405 1.6072704159333764 5.0
  endloop
endfacet
facet normal 4.925490545811935e-18 0.49999999999999983 -0.8660254037844387
  outer loop
    vertex 4.134975941991191 -0.3268980147659697 1.2200000000000009
    vertex 6.882420893043678 -0.8931019852340303 0.8931019852340315
    vertex 4.022350969805627 -0.8931019852340303 0.8931019852340315
  endloop
endfacet
facet normal 4.925490545811935e-18 0.49999999999999983 -0.8660254037844387
  outer loop
    vertex 6.882420893043678 -0.8931019852340303 0.8931019852340315
    vertex 4.134975941991191 -0.3268980147659697 1.2200000000000009
    vertex 6.9569630598996985 -0.3268980147659698 1.2200000000000009
  endloop
endfacet
facet normal 7.299897633598151e-17 1.0 8.985876185544756e-17
  outer loop
    vertex 3.9573269117968173 -1.2200000000000017 0.3268980147659712
    vertex 6.839383952943376 -1.220000000000002 -0.32689801476596997
    vertex 3.9573269117968173 -1.2200000000000017 -0.32689801476596997
  endloop
endfacet
facet normal 7.299897633598151e-17 1.0 8.985876185544756e-17
  outer loop
    vertex 6.839383952943376 -1.220000000000002 -0.32689801476596997
    vertex 3.9573269117968173 -1.2200000000000017 0.3268980147659712
    vertex 6.839383952943376 -1.2200000000000022 0.32689801476597097
  endloop
endfacet
facet normal 1.889678122538247e-17 0.8660254037844372 -0.5000000000000026
  outer loop
    vertex 3.9573269117968173 -1.2200000000000017 0.3268980147659712
    vertex 6.882420893043678 -0.8931019852340303 0.8931019852340315
    vertex 6.839383952943376 -1.2200000000000022 0.32689801476597097
  endloop
endfacet
facet normal 1.889678122538247e-17 0.8660254037844372 -0.5000000000000026
  outer loop
    vertex 6.882420893043678 -0.8931019852340303 0.8931019852340315
    vertex 3.9573269117968173 -1.2200000000000017 0.3268980147659712
    vertex 4.022350969805627 -0.8931019852340303 0.8931019852340315
  endloop
endfacet
facet normal -0.9807852804032307 0.1950903220161279 -5.585681393760451e-18
  outer loop
    vertex 3.880294036547405 -1.6072704159333777 5.0
    vertex 3.9573269117968173 -1.2200000000000017 0.3268980147659712
    vertex 3.880294036547405 -1.6072704159333777 -5.0
  endloop
endfacet
facet normal -0.9807852804032307 0.1950903220161279 -5.585681393760451e-18
  outer loop
    vertex 3.9573269117968173 -1.2200000000000017 0.3268980147659712
    vertex 3.880294036547405 -1.6072704159333777 5.0
    vertex 4.2 -5.143516556418884e-16 5.0
  endloop
endfacet
facet normal -0.9807852804032307 0.1950903220161279 -5.585681393760451e-18
  outer loop
    vertex 3.9573269117968173 -1.2200000000000017 0.3268980147659712
    vertex 4.2 -5.143516556418884e-16 5.0
    vertex 4.022350969805627 -0.8931019852340303 0.8931019852340315
  endloop
endfacet
facet normal -0.9807852804032307 0.1950903220161279 -5.585681393760451e-18
  outer loop
    vertex 4.022350969805627 -0.8931019852340303 0.8931019852340315
    vertex 4.2 -5.143516556418884e-16 5.0
    vertex 4.134975941991191 -0.3268980147659697 1.2200000000000009
  endloop
endfacet
facet normal -0.9807852804032307 0.1950903220161279 -5.585681393760451e-18
  outer loop
    vertex 4.134975941991191 -0.3268980147659697 1.2200000000000009
    vertex 4.2 -5.143516556418884e-16 5.0
    vertex 4.199999999999999 -6.791446610263399e-16 1.2200000000000017
  endloop
endfacet
facet normal -0.9807852804032307 0.1950903220161279 -5.585681393760451e-18
  outer loop
    vertex 3.880294036547405 -1.6072704159333777 -5.0
    vertex 3.9573269117968173 -1.2200000000000017 -0.32689801476596997
    vertex 4.2 -5.143516556418884e-16 -5.0
  endloop
endfacet
facet normal -0.9807852804032307 0.1950903220161279 -5.585681393760451e-18
  outer loop
    vertex 3.9573269117968173 -1.2200000000000017 -0.32689801476596997
    vertex 3.880294036547405 -1.6072704159333777 -5.0
    vertex 3.9573269117968173 -1.2200000000000017 0.3268980147659712
  endloop
endfacet
facet normal -0.9807852804032307 0.1950903220161279 -5.585681393760451e-18
  outer loop
    vertex 4.2 -5.143516556418884e-16 -5.0
    vertex 3.9573269117968173 -1.2200000000000017 -0.32689801476596997
    vertex 4.022350969805627 -0.893101985234033 -0.8931019852340312
  endloop
endfacet
facet normal -0.9807852804032307 0.1950903220161279 -5.585681393760451e-18
  outer loop
    vertex 4.2 -5.143516556418884e-16 -5.0
    vertex 4.022350969805627 -0.893101985234033 -0.8931019852340312
    vertex 4.134975941991191 -0.32689801476596975 -1.2200000000000009
  endloop
endfacet
facet normal -0.9807852804032307 0.1950903220161279 -5.585681393760451e-18
  outer loop
    vertex 4.2 -5.143516556418884e-16 -5.0
    vertex 4.134975941991191 -0.32689801476596975 -1.2200000000000009
    vertex 4.199999999999999 -6.908030064514714e-16 -1.2200000000000009
  endloop
endfacet
facet normal 0.9914448613738105 -0.13052619222005166 -1.8007966951160802e-17
  outer loop
    vertex 6.761480784023478 -1.811733315717647 -5.0
    vertex 6.839383952943376 -1.220000000000002 -0.32689801476596997
    vertex 6.761480784023478 -1.811733315717647 20.0
  endloop
endfacet
facet normal 0.9914448613738105 -0.13052619222005166 -1.8007966951160802e-17
  outer loop
    vertex 6.839383952943376 -1.220000000000002 -0.32689801476596997
    vertex 6.761480784023478 -1.811733315717647 -5.0
    vertex 7.0 -8.572527594031472e-16 -5.0
  endloop
endfacet
facet normal 0.9914448613738105 -0.13052619222005166 -1.8007966951160802e-17
  outer loop
    vertex 6.761480784023478 -1.811733315717647 20.0
    vertex 6.839383952943376 -1.220000000000002 -0.32689801476596997
    vertex 6.839383952943376 -1.2200000000000022 0.32689801476597097
  endloop
endfacet
facet normal 0.9914448613738105 -0.13052619222005166 -1.8007966951160802e-17
  outer loop
    vertex 6.839383952943376 -1.220000000000002 -0.32689801476596997
    vertex 7.0 -8.572527594031472e-16 -5.0
    vertex 6.882420893043678 -0.8931019852340333 -0.8931019852340312
  endloop
endfacet
facet normal 0.9914448613738105 -0.13052619222005166 -1.8007966951160802e-17
  outer loop
    vertex 6.882420893043678 -0.8931019852340333 -0.8931019852340312
    vertex 7.0 -8.572527594031472e-16 -5.0
    vertex 6.9569630598996985 -0.32689801476596975 -1.220000000000001
  endloop
endfacet
facet normal 0.9914448613738105 -0.13052619222005166 -1.8007966951160802e-17
  outer loop
    vertex 6.9569630598996985 -0.32689801476596975 -1.220000000000001
    vertex 7.0 -8.572527594031472e-16 -5.0
    vertex 7.0 -8.672543572610546e-16 -1.220000000000001
  endloop
endfacet
facet normal 0.9914448613738105 -0.13052619222005166 -1.8007966951160802e-17
  outer loop
    vertex 6.882420893043678 -0.8931019852340303 0.8931019852340315
    vertex 6.842017002895125 -1.2000000000000017 9.999999999999998
    vertex 6.839383952943376 -1.2200000000000022 0.32689801476597097
  endloop
endfacet
facet normal 0.9914448613738105 -0.13052619222005166 -1.8007966951160802e-17
  outer loop
    vertex 6.842017002895125 -1.2000000000000017 9.999999999999998
    vertex 6.882420893043678 -0.8931019852340303 0.8931019852340315
    vertex 6.872189070519868 -0.9708203932499391 9.294657697249033
  endloop
endfacet
facet normal 0.9914448613738105 -0.13052619222005166 -1.8007966951160802e-17
  outer loop
    vertex 6.872189070519868 -0.9708203932499391 9.294657697249033
    vertex 6.882420893043678 -0.8931019852340303 0.8931019852340315
    vertex 6.951180569072305 -0.370820393249939 8.858732180445816
  endloop
endfacet
facet normal 0.9914448613738105 -0.13052619222005166 -1.8007966951160802e-17
  outer loop
    vertex 6.951180569072305 -0.370820393249939 8.858732180445816
    vertex 6.882420893043678 -0.8931019852340303 0.8931019852340315
    vertex 6.9569630598996985 -0.3268980147659698 1.2200000000000009
  endloop
endfacet
facet normal 0.9914448613738105 -0.13052619222005166 -1.8007966951160802e-17
  outer loop
    vertex 6.951180569072305 -0.370820393249939 8.858732180445816
    vertex 6.9569630598996985 -0.3268980147659698 1.2200000000000009
    vertex 7.0 -8.426476696841081e-16 8.858732180445816
  endloop
endfacet
facet normal 0.9914448613738105 -0.13052619222005166 -1.8007966951160802e-17
  outer loop
    vertex 7.0 -8.426476696841081e-16 8.858732180445816
    vertex 6.9569630598996985 -0.3268980147659698 1.2200000000000009
    vertex 7.0 -8.439376664107914e-16 1.2200000000000015
  endloop
endfacet
facet normal 0.9914448613738105 -0.13052619222005166 -1.8007966951160802e-17
  outer loop
    vertex 6.761480784023478 -1.811733315717647 20.0
    vertex 6.842017002895125 -1.2000000000000017 9.999999999999998
    vertex 7.0 -8.572527594031472e-16 20.0
  endloop
endfacet
facet normal 0.9914448613738105 -0.13052619222005166 -1.8007966951160802e-17
  outer loop
    vertex 6.842017002895125 -1.2000000000000017 9.999999999999998
    vertex 6.761480784023478 -1.811733315717647 20.0
    vertex 6.839383952943376 -1.2200000000000022 0.32689801476597097
  endloop
endfacet
facet normal 0.9914448613738105 -0.13052619222005166 -1.8007966951160802e-17
  outer loop
    vertex 7.0 -8.572527594031472e-16 20.0
    vertex 6.842017002895125 -1.2000000000000017 9.999999999999998
    vertex 6.872189070519868 -0.9708203932499369 10.705342302750967
  endloop
endfacet
facet normal 0.9914448613738105 -0.13052619222005166 -1.8007966951160802e-17
  outer loop
    vertex 7.0 -8.572527594031472e-16 20.0
    vertex 6.872189070519868 -0.9708203932499369 10.705342302750967
    vertex 6.951180569072305 -0.3708203932499382 11.141267819554182
  endloop
endfacet
facet normal 0.9914448613738105 -0.13052619222005166 -1.8007966951160802e-17
  outer loop
    vertex 7.0 -8.572527594031472e-16 20.0
    vertex 6.951180569072305 -0.3708203932499382 11.141267819554182
    vertex 7.0 -8.426476696841081e-16 11.141267819554184
  endloop
endfacet
facet normal 0.9914448613738105 0.130526192220051 1.3720355772313021e-17
  outer loop
    vertex 6.9569630598996985 0.3268980147659699 1.2200000000000009
    vertex 7.0 -8.426476696841081e-16 8.858732180445816
    vertex 7.0 -8.439376664107914e-16 1.2200000000000015
  endloop
endfacet
facet normal 0.9914448613738105 0.130526192220051 1.3720355772313021e-17
  outer loop
    vertex 7.0 -8.426476696841081e-16 8.858732180445816
    vertex 6.9569630598996985 0.3268980147659699 1.2200000000000009
    vertex 6.951180569072305 0.37082039324993477 8.858732180445816
  endloop
endfacet
facet normal 0.9914448613738105 0.130526192220051 1.3720355772313021e-17
  outer loop
    vertex 6.951180569072305 0.37082039324993477 8.858732180445816
    vertex 6.9569630598996985 0.3268980147659699 1.2200000000000009
    vertex 6.882420893043679 0.8931019852340305 0.8931019852340306
  endloop
endfacet
facet normal 0.9914448613738105 0.130526192220051 1.3720355772313021e-17
  outer loop
    vertex 6.951180569072305 0.37082039324993477 8.858732180445816
    vertex 6.882420893043679 0.8931019852340305 0.8931019852340306
    vertex 6.872189070519868 0.9708203932499352 9.294657697249033
  endloop
endfacet
facet normal 0.9914448613738105 0.130526192220051 1.3720355772313021e-17
  outer loop
    vertex 6.872189070519868 0.9708203932499352 9.294657697249033
    vertex 6.882420893043679 0.8931019852340305 0.8931019852340306
    vertex 6.839383952943377 1.2200000000000006 0.32689801476596964
  endloop
endfacet
facet normal 0.9914448613738105 0.130526192220051 1.3720355772313021e-17
  outer loop
    vertex 6.872189070519868 0.9708203932499352 9.294657697249033
    vertex 6.839383952943377 1.2200000000000006 0.32689801476596964
    vertex 6.842017002895125 1.1999999999999977 10.0
  endloop
endfacet
facet normal 0.9914448613738105 0.130526192220051 1.3720355772313021e-17
  outer loop
    vertex 7.0 -8.572527594031472e-16 -5.0
    vertex 6.9569630598996985 0.3268980147659699 -1.2200000000000013
    vertex 7.0 -8.672543572610546e-16 -1.220000000000001
  endloop
endfacet
facet normal 0.9914448613738105 0.130526192220051 1.3720355772313021e-17
  outer loop
    vertex 6.9569630598996985 0.3268980147659699 -1.2200000000000013
    vertex 7.0 -8.572527594031472e-16 -5.0
    vertex 6.761480784023479 1.8117333157176425 -5.0
  endloop
endfacet
facet normal 0.9914448613738105 0.130526192220051 1.3720355772313021e-17
  outer loop
    vertex 6.9569630598996985 0.3268980147659699 -1.2200000000000013
    vertex 6.761480784023479 1.8117333157176425 -5.0
    vertex 6.882420893043679 0.8931019852340305 -0.8931019852340315
  endloop
endfacet
facet normal 0.9914448613738105 0.130526192220051 1.3720355772313021e-17
  outer loop
    vertex 6.882420893043679 0.8931019852340305 -0.8931019852340315
    vertex 6.761480784023479 1.8117333157176425 -5.0
    vertex 6.839383952943377 1.2200000000000006 -0.32689801476597086
  endloop
endfacet
facet normal 0.9914448613738105 0.130526192220051 1.3720355772313021e-17
  outer loop
    vertex 6.839383952943377 1.2200000000000006 -0.32689801476597086
    vertex 6.761480784023479 1.8117333157176425 -5.0
    vertex 6.839383952943377 1.2200000000000006 0.32689801476596964
  endloop
endfacet
facet normal 0.9914448613738105 0.130526192220051 1.3720355772313021e-17
  outer loop
    vertex 7.0 -8.426476696841081e-16 11.141267819554184
    vertex 6.761480784023479 1.8117333157176425 20.0
    vertex 7.0 -8.572527594031472e-16 20.0
  endloop
endfacet
facet normal 0.9914448613738105 0.130526192220051 1.3720355772313021e-17
  outer loop
    vertex 6.761480784023479 1.8117333157176425 20.0
    vertex 7.0 -8.426476696841081e-16 11.141267819554184
    vertex 6.951180569072305 0.3708203932499351 11.141267819554184
  endloop
endfacet
facet normal 0.9914448613738105 0.130526192220051 1.3720355772313021e-17
  outer loop
    vertex 6.761480784023479 1.8117333157176425 20.0
    vertex 6.951180569072305 0.3708203932499351 11.141267819554184
    vertex 6.872189070519868 0.970820393249936 10.705342302750967
  endloop
endfacet
facet normal 0.9914448613738105 0.130526192220051 1.3720355772313021e-17
  outer loop
    vertex 6.761480784023479 1.8117333157176425 20.0
    vertex 6.872189070519868 0.970820393249936 10.705342302750967
    vertex 6.842017002895125 1.1999999999999977 10.0
  endloop
endfacet
facet normal 0.9914448613738105 0.130526192220051 1.3720355772313021e-17
  outer loop
    vertex 6.761480784023479 1.8117333157176425 20.0
    vertex 6.842017002895125 1.1999999999999977 10.0
    vertex 6.839383952943377 1.2200000000000006 0.32689801476596964
  endloop
endfacet
facet normal 0.9914448613738105 0.130526192220051 1.3720355772313021e-17
  outer loop
    vertex 6.761480784023479 1.8117333157176425 20.0
    vertex 6.839383952943377 1.2200000000000006 0.32689801476596964
    vertex 6.761480784023479 1.8117333157176425 -5.0
  endloop
endfacet
endsolid Переходник-Шаговый-8mm
